<?xml version="1.0" encoding="utf-8"?>
<svg xmlns="http://www.w3.org/2000/svg" xmlns:xlink="http://www.w3.org/1999/xlink" width="500" height="500" viewBox="0 0 2000 2000">
<defs>
  <clipPath id="clip920">
    <rect x="0" y="0" width="2000" height="2000"/>
  </clipPath>
</defs>
<path clip-path="url(#clip920)" d="M0 2000 L2000 2000 L2000 0 L0 0  Z" fill="#ffffff" fill-rule="evenodd" fill-opacity="1"/>
<defs>
  <clipPath id="clip921">
    <rect x="400" y="200" width="1401" height="1401"/>
  </clipPath>
</defs>
<path clip-path="url(#clip920)" d="M182.274 1865.17 L1952.76 1865.17 L1952.76 47.2441 L182.274 47.2441  Z" fill="#ffffff" fill-rule="evenodd" fill-opacity="1"/>
<defs>
  <clipPath id="clip922">
    <rect x="182" y="47" width="1771" height="1819"/>
  </clipPath>
</defs>
<polyline clip-path="url(#clip922)" style="stroke:#000000; stroke-linecap:round; stroke-linejoin:round; stroke-width:2; stroke-opacity:0.1; fill:none" points="499.625,1865.17 499.625,47.2441 "/>
<polyline clip-path="url(#clip922)" style="stroke:#000000; stroke-linecap:round; stroke-linejoin:round; stroke-width:2; stroke-opacity:0.1; fill:none" points="833.678,1865.17 833.678,47.2441 "/>
<polyline clip-path="url(#clip922)" style="stroke:#000000; stroke-linecap:round; stroke-linejoin:round; stroke-width:2; stroke-opacity:0.1; fill:none" points="1167.73,1865.17 1167.73,47.2441 "/>
<polyline clip-path="url(#clip922)" style="stroke:#000000; stroke-linecap:round; stroke-linejoin:round; stroke-width:2; stroke-opacity:0.1; fill:none" points="1501.78,1865.17 1501.78,47.2441 "/>
<polyline clip-path="url(#clip922)" style="stroke:#000000; stroke-linecap:round; stroke-linejoin:round; stroke-width:2; stroke-opacity:0.1; fill:none" points="1835.84,1865.17 1835.84,47.2441 "/>
<polyline clip-path="url(#clip920)" style="stroke:#000000; stroke-linecap:round; stroke-linejoin:round; stroke-width:4; stroke-opacity:1; fill:none" points="182.274,1865.17 1952.76,1865.17 "/>
<polyline clip-path="url(#clip920)" style="stroke:#000000; stroke-linecap:round; stroke-linejoin:round; stroke-width:4; stroke-opacity:1; fill:none" points="499.625,1865.17 499.625,1846.27 "/>
<polyline clip-path="url(#clip920)" style="stroke:#000000; stroke-linecap:round; stroke-linejoin:round; stroke-width:4; stroke-opacity:1; fill:none" points="833.678,1865.17 833.678,1846.27 "/>
<polyline clip-path="url(#clip920)" style="stroke:#000000; stroke-linecap:round; stroke-linejoin:round; stroke-width:4; stroke-opacity:1; fill:none" points="1167.73,1865.17 1167.73,1846.27 "/>
<polyline clip-path="url(#clip920)" style="stroke:#000000; stroke-linecap:round; stroke-linejoin:round; stroke-width:4; stroke-opacity:1; fill:none" points="1501.78,1865.17 1501.78,1846.27 "/>
<polyline clip-path="url(#clip920)" style="stroke:#000000; stroke-linecap:round; stroke-linejoin:round; stroke-width:4; stroke-opacity:1; fill:none" points="1835.84,1865.17 1835.84,1846.27 "/>
<path clip-path="url(#clip920)" d="M489.902 1889.81 L508.259 1889.81 L508.259 1893.74 L494.185 1893.74 L494.185 1902.22 Q495.203 1901.87 496.222 1901.71 Q497.24 1901.52 498.259 1901.52 Q504.046 1901.52 507.425 1904.69 Q510.805 1907.86 510.805 1913.28 Q510.805 1918.86 507.333 1921.96 Q503.861 1925.04 497.541 1925.04 Q495.365 1925.04 493.097 1924.67 Q490.851 1924.3 488.444 1923.56 L488.444 1918.86 Q490.527 1919.99 492.75 1920.55 Q494.972 1921.1 497.449 1921.1 Q501.453 1921.1 503.791 1919 Q506.129 1916.89 506.129 1913.28 Q506.129 1909.67 503.791 1907.56 Q501.453 1905.46 497.449 1905.46 Q495.574 1905.46 493.699 1905.87 Q491.847 1906.29 489.902 1907.17 L489.902 1889.81 Z" fill="#000000" fill-rule="evenodd" fill-opacity="1" /><path clip-path="url(#clip920)" d="M808.365 1920.43 L816.004 1920.43 L816.004 1894.07 L807.694 1895.73 L807.694 1891.47 L815.958 1889.81 L820.634 1889.81 L820.634 1920.43 L828.273 1920.43 L828.273 1924.37 L808.365 1924.37 L808.365 1920.43 Z" fill="#000000" fill-rule="evenodd" fill-opacity="1" /><path clip-path="url(#clip920)" d="M847.717 1892.89 Q844.106 1892.89 842.277 1896.45 Q840.472 1899.99 840.472 1907.12 Q840.472 1914.23 842.277 1917.79 Q844.106 1921.34 847.717 1921.34 Q851.351 1921.34 853.157 1917.79 Q854.985 1914.23 854.985 1907.12 Q854.985 1899.99 853.157 1896.45 Q851.351 1892.89 847.717 1892.89 M847.717 1889.18 Q853.527 1889.18 856.583 1893.79 Q859.661 1898.37 859.661 1907.12 Q859.661 1915.85 856.583 1920.46 Q853.527 1925.04 847.717 1925.04 Q841.907 1925.04 838.828 1920.46 Q835.773 1915.85 835.773 1907.12 Q835.773 1898.37 838.828 1893.79 Q841.907 1889.18 847.717 1889.18 Z" fill="#000000" fill-rule="evenodd" fill-opacity="1" /><path clip-path="url(#clip920)" d="M1142.92 1920.43 L1150.56 1920.43 L1150.56 1894.07 L1142.24 1895.73 L1142.24 1891.47 L1150.51 1889.81 L1155.18 1889.81 L1155.18 1920.43 L1162.82 1920.43 L1162.82 1924.37 L1142.92 1924.37 L1142.92 1920.43 Z" fill="#000000" fill-rule="evenodd" fill-opacity="1" /><path clip-path="url(#clip920)" d="M1172.31 1889.81 L1190.67 1889.81 L1190.67 1893.74 L1176.6 1893.74 L1176.6 1902.22 Q1177.62 1901.87 1178.63 1901.71 Q1179.65 1901.52 1180.67 1901.52 Q1186.46 1901.52 1189.84 1904.69 Q1193.22 1907.86 1193.22 1913.28 Q1193.22 1918.86 1189.74 1921.96 Q1186.27 1925.04 1179.95 1925.04 Q1177.78 1925.04 1175.51 1924.67 Q1173.26 1924.3 1170.86 1923.56 L1170.86 1918.86 Q1172.94 1919.99 1175.16 1920.55 Q1177.38 1921.1 1179.86 1921.1 Q1183.87 1921.1 1186.2 1919 Q1188.54 1916.89 1188.54 1913.28 Q1188.54 1909.67 1186.2 1907.56 Q1183.87 1905.46 1179.86 1905.46 Q1177.99 1905.46 1176.11 1905.87 Q1174.26 1906.29 1172.31 1907.17 L1172.31 1889.81 Z" fill="#000000" fill-rule="evenodd" fill-opacity="1" /><path clip-path="url(#clip920)" d="M1480.56 1920.43 L1496.88 1920.43 L1496.88 1924.37 L1474.93 1924.37 L1474.93 1920.43 Q1477.59 1917.68 1482.18 1913.05 Q1486.78 1908.4 1487.96 1907.05 Q1490.21 1904.53 1491.09 1902.79 Q1491.99 1901.03 1491.99 1899.34 Q1491.99 1896.59 1490.05 1894.85 Q1488.13 1893.12 1485.02 1893.12 Q1482.83 1893.12 1480.37 1893.88 Q1477.94 1894.65 1475.16 1896.2 L1475.16 1891.47 Q1477.99 1890.34 1480.44 1889.76 Q1482.9 1889.18 1484.93 1889.18 Q1490.3 1889.18 1493.5 1891.87 Q1496.69 1894.55 1496.69 1899.04 Q1496.69 1901.17 1495.88 1903.09 Q1495.09 1904.99 1492.99 1907.59 Q1492.41 1908.26 1489.31 1911.47 Q1486.21 1914.67 1480.56 1920.43 Z" fill="#000000" fill-rule="evenodd" fill-opacity="1" /><path clip-path="url(#clip920)" d="M1516.69 1892.89 Q1513.08 1892.89 1511.25 1896.45 Q1509.45 1899.99 1509.45 1907.12 Q1509.45 1914.23 1511.25 1917.79 Q1513.08 1921.34 1516.69 1921.34 Q1520.33 1921.34 1522.13 1917.79 Q1523.96 1914.23 1523.96 1907.12 Q1523.96 1899.99 1522.13 1896.45 Q1520.33 1892.89 1516.69 1892.89 M1516.69 1889.18 Q1522.5 1889.18 1525.56 1893.79 Q1528.64 1898.37 1528.64 1907.12 Q1528.64 1915.85 1525.56 1920.46 Q1522.5 1925.04 1516.69 1925.04 Q1510.88 1925.04 1507.8 1920.46 Q1504.75 1915.85 1504.75 1907.12 Q1504.75 1898.37 1507.8 1893.79 Q1510.88 1889.18 1516.69 1889.18 Z" fill="#000000" fill-rule="evenodd" fill-opacity="1" /><path clip-path="url(#clip920)" d="M1815.11 1920.43 L1831.43 1920.43 L1831.43 1924.37 L1809.48 1924.37 L1809.48 1920.43 Q1812.15 1917.68 1816.73 1913.05 Q1821.34 1908.4 1822.52 1907.05 Q1824.76 1904.53 1825.64 1902.79 Q1826.54 1901.03 1826.54 1899.34 Q1826.54 1896.59 1824.6 1894.85 Q1822.68 1893.12 1819.58 1893.12 Q1817.38 1893.12 1814.92 1893.88 Q1812.49 1894.65 1809.71 1896.2 L1809.71 1891.47 Q1812.54 1890.34 1814.99 1889.76 Q1817.45 1889.18 1819.48 1889.18 Q1824.85 1889.18 1828.05 1891.87 Q1831.24 1894.55 1831.24 1899.04 Q1831.24 1901.17 1830.43 1903.09 Q1829.65 1904.99 1827.54 1907.59 Q1826.96 1908.26 1823.86 1911.47 Q1820.76 1914.67 1815.11 1920.43 Z" fill="#000000" fill-rule="evenodd" fill-opacity="1" /><path clip-path="url(#clip920)" d="M1841.29 1889.81 L1859.65 1889.81 L1859.65 1893.74 L1845.57 1893.74 L1845.57 1902.22 Q1846.59 1901.87 1847.61 1901.71 Q1848.63 1901.52 1849.65 1901.52 Q1855.43 1901.52 1858.81 1904.69 Q1862.19 1907.86 1862.19 1913.28 Q1862.19 1918.86 1858.72 1921.96 Q1855.25 1925.04 1848.93 1925.04 Q1846.75 1925.04 1844.48 1924.67 Q1842.24 1924.3 1839.83 1923.56 L1839.83 1918.86 Q1841.91 1919.99 1844.14 1920.55 Q1846.36 1921.1 1848.83 1921.1 Q1852.84 1921.1 1855.18 1919 Q1857.52 1916.89 1857.52 1913.28 Q1857.52 1909.67 1855.18 1907.56 Q1852.84 1905.46 1848.83 1905.46 Q1846.96 1905.46 1845.08 1905.87 Q1843.23 1906.29 1841.29 1907.17 L1841.29 1889.81 Z" fill="#000000" fill-rule="evenodd" fill-opacity="1" /><polyline clip-path="url(#clip922)" style="stroke:#000000; stroke-linecap:round; stroke-linejoin:round; stroke-width:2; stroke-opacity:0.1; fill:none" points="182.274,1697.76 1952.76,1697.76 "/>
<polyline clip-path="url(#clip922)" style="stroke:#000000; stroke-linecap:round; stroke-linejoin:round; stroke-width:2; stroke-opacity:0.1; fill:none" points="182.274,1297.99 1952.76,1297.99 "/>
<polyline clip-path="url(#clip922)" style="stroke:#000000; stroke-linecap:round; stroke-linejoin:round; stroke-width:2; stroke-opacity:0.1; fill:none" points="182.274,898.228 1952.76,898.228 "/>
<polyline clip-path="url(#clip922)" style="stroke:#000000; stroke-linecap:round; stroke-linejoin:round; stroke-width:2; stroke-opacity:0.1; fill:none" points="182.274,498.461 1952.76,498.461 "/>
<polyline clip-path="url(#clip922)" style="stroke:#000000; stroke-linecap:round; stroke-linejoin:round; stroke-width:2; stroke-opacity:0.1; fill:none" points="182.274,98.6948 1952.76,98.6948 "/>
<polyline clip-path="url(#clip920)" style="stroke:#000000; stroke-linecap:round; stroke-linejoin:round; stroke-width:4; stroke-opacity:1; fill:none" points="182.274,1865.17 182.274,47.2441 "/>
<polyline clip-path="url(#clip920)" style="stroke:#000000; stroke-linecap:round; stroke-linejoin:round; stroke-width:4; stroke-opacity:1; fill:none" points="182.274,1697.76 201.172,1697.76 "/>
<polyline clip-path="url(#clip920)" style="stroke:#000000; stroke-linecap:round; stroke-linejoin:round; stroke-width:4; stroke-opacity:1; fill:none" points="182.274,1297.99 201.172,1297.99 "/>
<polyline clip-path="url(#clip920)" style="stroke:#000000; stroke-linecap:round; stroke-linejoin:round; stroke-width:4; stroke-opacity:1; fill:none" points="182.274,898.228 201.172,898.228 "/>
<polyline clip-path="url(#clip920)" style="stroke:#000000; stroke-linecap:round; stroke-linejoin:round; stroke-width:4; stroke-opacity:1; fill:none" points="182.274,498.461 201.172,498.461 "/>
<polyline clip-path="url(#clip920)" style="stroke:#000000; stroke-linecap:round; stroke-linejoin:round; stroke-width:4; stroke-opacity:1; fill:none" points="182.274,98.6948 201.172,98.6948 "/>
<path clip-path="url(#clip920)" d="M64.9365 1683.56 Q61.3254 1683.56 59.4967 1687.12 Q57.6912 1690.67 57.6912 1697.8 Q57.6912 1704.9 59.4967 1708.47 Q61.3254 1712.01 64.9365 1712.01 Q68.5707 1712.01 70.3763 1708.47 Q72.205 1704.9 72.205 1697.8 Q72.205 1690.67 70.3763 1687.12 Q68.5707 1683.56 64.9365 1683.56 M64.9365 1679.86 Q70.7467 1679.86 73.8022 1684.46 Q76.8809 1689.05 76.8809 1697.8 Q76.8809 1706.52 73.8022 1711.13 Q70.7467 1715.71 64.9365 1715.71 Q59.1264 1715.71 56.0477 1711.13 Q52.9921 1706.52 52.9921 1697.8 Q52.9921 1689.05 56.0477 1684.46 Q59.1264 1679.86 64.9365 1679.86 Z" fill="#000000" fill-rule="evenodd" fill-opacity="1" /><path clip-path="url(#clip920)" d="M85.0984 1709.16 L89.9827 1709.16 L89.9827 1715.04 L85.0984 1715.04 L85.0984 1709.16 Z" fill="#000000" fill-rule="evenodd" fill-opacity="1" /><path clip-path="url(#clip920)" d="M110.168 1683.56 Q106.557 1683.56 104.728 1687.12 Q102.922 1690.67 102.922 1697.8 Q102.922 1704.9 104.728 1708.47 Q106.557 1712.01 110.168 1712.01 Q113.802 1712.01 115.608 1708.47 Q117.436 1704.9 117.436 1697.8 Q117.436 1690.67 115.608 1687.12 Q113.802 1683.56 110.168 1683.56 M110.168 1679.86 Q115.978 1679.86 119.033 1684.46 Q122.112 1689.05 122.112 1697.8 Q122.112 1706.52 119.033 1711.13 Q115.978 1715.71 110.168 1715.71 Q104.358 1715.71 101.279 1711.13 Q98.2234 1706.52 98.2234 1697.8 Q98.2234 1689.05 101.279 1684.46 Q104.358 1679.86 110.168 1679.86 Z" fill="#000000" fill-rule="evenodd" fill-opacity="1" /><path clip-path="url(#clip920)" d="M140.33 1683.56 Q136.719 1683.56 134.89 1687.12 Q133.084 1690.67 133.084 1697.8 Q133.084 1704.9 134.89 1708.47 Q136.719 1712.01 140.33 1712.01 Q143.964 1712.01 145.769 1708.47 Q147.598 1704.9 147.598 1697.8 Q147.598 1690.67 145.769 1687.12 Q143.964 1683.56 140.33 1683.56 M140.33 1679.86 Q146.14 1679.86 149.195 1684.46 Q152.274 1689.05 152.274 1697.8 Q152.274 1706.52 149.195 1711.13 Q146.14 1715.71 140.33 1715.71 Q134.519 1715.71 131.441 1711.13 Q128.385 1706.52 128.385 1697.8 Q128.385 1689.05 131.441 1684.46 Q134.519 1679.86 140.33 1679.86 Z" fill="#000000" fill-rule="evenodd" fill-opacity="1" /><path clip-path="url(#clip920)" d="M65.9319 1283.79 Q62.3208 1283.79 60.4921 1287.36 Q58.6865 1290.9 58.6865 1298.03 Q58.6865 1305.14 60.4921 1308.7 Q62.3208 1312.24 65.9319 1312.24 Q69.5661 1312.24 71.3717 1308.7 Q73.2004 1305.14 73.2004 1298.03 Q73.2004 1290.9 71.3717 1287.36 Q69.5661 1283.79 65.9319 1283.79 M65.9319 1280.09 Q71.742 1280.09 74.7976 1284.7 Q77.8763 1289.28 77.8763 1298.03 Q77.8763 1306.76 74.7976 1311.36 Q71.742 1315.95 65.9319 1315.95 Q60.1217 1315.95 57.043 1311.36 Q53.9875 1306.76 53.9875 1298.03 Q53.9875 1289.28 57.043 1284.7 Q60.1217 1280.09 65.9319 1280.09 Z" fill="#000000" fill-rule="evenodd" fill-opacity="1" /><path clip-path="url(#clip920)" d="M86.0938 1309.39 L90.978 1309.39 L90.978 1315.27 L86.0938 1315.27 L86.0938 1309.39 Z" fill="#000000" fill-rule="evenodd" fill-opacity="1" /><path clip-path="url(#clip920)" d="M105.191 1311.34 L121.51 1311.34 L121.51 1315.27 L99.566 1315.27 L99.566 1311.34 Q102.228 1308.58 106.811 1303.95 Q111.418 1299.3 112.598 1297.96 Q114.844 1295.44 115.723 1293.7 Q116.626 1291.94 116.626 1290.25 Q116.626 1287.5 114.682 1285.76 Q112.76 1284.02 109.658 1284.02 Q107.459 1284.02 105.006 1284.79 Q102.575 1285.55 99.7974 1287.1 L99.7974 1282.38 Q102.621 1281.25 105.075 1280.67 Q107.529 1280.09 109.566 1280.09 Q114.936 1280.09 118.131 1282.77 Q121.325 1285.46 121.325 1289.95 Q121.325 1292.08 120.515 1294 Q119.728 1295.9 117.621 1298.49 Q117.043 1299.16 113.941 1302.38 Q110.839 1305.58 105.191 1311.34 Z" fill="#000000" fill-rule="evenodd" fill-opacity="1" /><path clip-path="url(#clip920)" d="M131.371 1280.71 L149.728 1280.71 L149.728 1284.65 L135.654 1284.65 L135.654 1293.12 Q136.672 1292.77 137.691 1292.61 Q138.709 1292.43 139.728 1292.43 Q145.515 1292.43 148.894 1295.6 Q152.274 1298.77 152.274 1304.19 Q152.274 1309.76 148.802 1312.87 Q145.33 1315.95 139.01 1315.95 Q136.834 1315.95 134.566 1315.58 Q132.32 1315.2 129.913 1314.46 L129.913 1309.76 Q131.996 1310.9 134.219 1311.45 Q136.441 1312.01 138.918 1312.01 Q142.922 1312.01 145.26 1309.9 Q147.598 1307.8 147.598 1304.19 Q147.598 1300.58 145.26 1298.47 Q142.922 1296.36 138.918 1296.36 Q137.043 1296.36 135.168 1296.78 Q133.316 1297.2 131.371 1298.08 L131.371 1280.71 Z" fill="#000000" fill-rule="evenodd" fill-opacity="1" /><path clip-path="url(#clip920)" d="M64.9365 884.026 Q61.3254 884.026 59.4967 887.591 Q57.6912 891.133 57.6912 898.262 Q57.6912 905.369 59.4967 908.934 Q61.3254 912.475 64.9365 912.475 Q68.5707 912.475 70.3763 908.934 Q72.205 905.369 72.205 898.262 Q72.205 891.133 70.3763 887.591 Q68.5707 884.026 64.9365 884.026 M64.9365 880.323 Q70.7467 880.323 73.8022 884.929 Q76.8809 889.512 76.8809 898.262 Q76.8809 906.989 73.8022 911.596 Q70.7467 916.179 64.9365 916.179 Q59.1264 916.179 56.0477 911.596 Q52.9921 906.989 52.9921 898.262 Q52.9921 889.512 56.0477 884.929 Q59.1264 880.323 64.9365 880.323 Z" fill="#000000" fill-rule="evenodd" fill-opacity="1" /><path clip-path="url(#clip920)" d="M85.0984 909.628 L89.9827 909.628 L89.9827 915.508 L85.0984 915.508 L85.0984 909.628 Z" fill="#000000" fill-rule="evenodd" fill-opacity="1" /><path clip-path="url(#clip920)" d="M100.214 880.948 L118.57 880.948 L118.57 884.883 L104.496 884.883 L104.496 893.355 Q105.515 893.008 106.534 892.846 Q107.552 892.661 108.571 892.661 Q114.358 892.661 117.737 895.832 Q121.117 899.003 121.117 904.42 Q121.117 909.998 117.645 913.1 Q114.172 916.179 107.853 916.179 Q105.677 916.179 103.409 915.809 Q101.163 915.438 98.7558 914.697 L98.7558 909.998 Q100.839 911.133 103.061 911.688 Q105.284 912.244 107.76 912.244 Q111.765 912.244 114.103 910.137 Q116.441 908.031 116.441 904.42 Q116.441 900.809 114.103 898.702 Q111.765 896.596 107.76 896.596 Q105.885 896.596 104.01 897.012 Q102.159 897.429 100.214 898.309 L100.214 880.948 Z" fill="#000000" fill-rule="evenodd" fill-opacity="1" /><path clip-path="url(#clip920)" d="M140.33 884.026 Q136.719 884.026 134.89 887.591 Q133.084 891.133 133.084 898.262 Q133.084 905.369 134.89 908.934 Q136.719 912.475 140.33 912.475 Q143.964 912.475 145.769 908.934 Q147.598 905.369 147.598 898.262 Q147.598 891.133 145.769 887.591 Q143.964 884.026 140.33 884.026 M140.33 880.323 Q146.14 880.323 149.195 884.929 Q152.274 889.512 152.274 898.262 Q152.274 906.989 149.195 911.596 Q146.14 916.179 140.33 916.179 Q134.519 916.179 131.441 911.596 Q128.385 906.989 128.385 898.262 Q128.385 889.512 131.441 884.929 Q134.519 880.323 140.33 880.323 Z" fill="#000000" fill-rule="evenodd" fill-opacity="1" /><path clip-path="url(#clip920)" d="M65.9319 484.26 Q62.3208 484.26 60.4921 487.825 Q58.6865 491.366 58.6865 498.496 Q58.6865 505.602 60.4921 509.167 Q62.3208 512.709 65.9319 512.709 Q69.5661 512.709 71.3717 509.167 Q73.2004 505.602 73.2004 498.496 Q73.2004 491.366 71.3717 487.825 Q69.5661 484.26 65.9319 484.26 M65.9319 480.556 Q71.742 480.556 74.7976 485.163 Q77.8763 489.746 77.8763 498.496 Q77.8763 507.223 74.7976 511.829 Q71.742 516.413 65.9319 516.413 Q60.1217 516.413 57.043 511.829 Q53.9875 507.223 53.9875 498.496 Q53.9875 489.746 57.043 485.163 Q60.1217 480.556 65.9319 480.556 Z" fill="#000000" fill-rule="evenodd" fill-opacity="1" /><path clip-path="url(#clip920)" d="M86.0938 509.862 L90.978 509.862 L90.978 515.741 L86.0938 515.741 L86.0938 509.862 Z" fill="#000000" fill-rule="evenodd" fill-opacity="1" /><path clip-path="url(#clip920)" d="M99.9826 481.181 L122.205 481.181 L122.205 483.172 L109.658 515.741 L104.774 515.741 L116.58 485.116 L99.9826 485.116 L99.9826 481.181 Z" fill="#000000" fill-rule="evenodd" fill-opacity="1" /><path clip-path="url(#clip920)" d="M131.371 481.181 L149.728 481.181 L149.728 485.116 L135.654 485.116 L135.654 493.589 Q136.672 493.241 137.691 493.079 Q138.709 492.894 139.728 492.894 Q145.515 492.894 148.894 496.065 Q152.274 499.237 152.274 504.653 Q152.274 510.232 148.802 513.334 Q145.33 516.413 139.01 516.413 Q136.834 516.413 134.566 516.042 Q132.32 515.672 129.913 514.931 L129.913 510.232 Q131.996 511.366 134.219 511.922 Q136.441 512.477 138.918 512.477 Q142.922 512.477 145.26 510.371 Q147.598 508.264 147.598 504.653 Q147.598 501.042 145.26 498.936 Q142.922 496.829 138.918 496.829 Q137.043 496.829 135.168 497.246 Q133.316 497.663 131.371 498.542 L131.371 481.181 Z" fill="#000000" fill-rule="evenodd" fill-opacity="1" /><path clip-path="url(#clip920)" d="M55.7467 112.04 L63.3856 112.04 L63.3856 85.674 L55.0754 87.3407 L55.0754 83.0814 L63.3393 81.4148 L68.0152 81.4148 L68.0152 112.04 L75.654 112.04 L75.654 115.975 L55.7467 115.975 L55.7467 112.04 Z" fill="#000000" fill-rule="evenodd" fill-opacity="1" /><path clip-path="url(#clip920)" d="M85.0984 110.095 L89.9827 110.095 L89.9827 115.975 L85.0984 115.975 L85.0984 110.095 Z" fill="#000000" fill-rule="evenodd" fill-opacity="1" /><path clip-path="url(#clip920)" d="M110.168 84.4935 Q106.557 84.4935 104.728 88.0583 Q102.922 91.5999 102.922 98.7295 Q102.922 105.836 104.728 109.401 Q106.557 112.942 110.168 112.942 Q113.802 112.942 115.608 109.401 Q117.436 105.836 117.436 98.7295 Q117.436 91.5999 115.608 88.0583 Q113.802 84.4935 110.168 84.4935 M110.168 80.7898 Q115.978 80.7898 119.033 85.3962 Q122.112 89.9795 122.112 98.7295 Q122.112 107.456 119.033 112.063 Q115.978 116.646 110.168 116.646 Q104.358 116.646 101.279 112.063 Q98.2234 107.456 98.2234 98.7295 Q98.2234 89.9795 101.279 85.3962 Q104.358 80.7898 110.168 80.7898 Z" fill="#000000" fill-rule="evenodd" fill-opacity="1" /><path clip-path="url(#clip920)" d="M140.33 84.4935 Q136.719 84.4935 134.89 88.0583 Q133.084 91.5999 133.084 98.7295 Q133.084 105.836 134.89 109.401 Q136.719 112.942 140.33 112.942 Q143.964 112.942 145.769 109.401 Q147.598 105.836 147.598 98.7295 Q147.598 91.5999 145.769 88.0583 Q143.964 84.4935 140.33 84.4935 M140.33 80.7898 Q146.14 80.7898 149.195 85.3962 Q152.274 89.9795 152.274 98.7295 Q152.274 107.456 149.195 112.063 Q146.14 116.646 140.33 116.646 Q134.519 116.646 131.441 112.063 Q128.385 107.456 128.385 98.7295 Q128.385 89.9795 131.441 85.3962 Q134.519 80.7898 140.33 80.7898 Z" fill="#000000" fill-rule="evenodd" fill-opacity="1" /><polyline clip-path="url(#clip922)" style="stroke:#009af9; stroke-linecap:round; stroke-linejoin:round; stroke-width:12; stroke-opacity:1; fill:none" points="232.382,98.6948 299.193,1664.69 366.003,1691.04 432.814,1721.5 499.625,1740.88 566.435,1673.35 633.246,1729.15 700.056,1697.99 766.867,1633.41 833.678,1720.44 900.488,1694.6 967.299,1769.78 1034.11,1740.18 1100.92,1678.34 1167.73,1667.22 1234.54,1691.11 1301.35,1658.08 1368.16,1637.59 1434.97,1740.72 1501.78,1696.58 1568.59,1677.64 1635.41,1749.51 1702.22,1723.55 1769.03,1721.26 1835.84,1647.13 1902.65,1671.68 "/>
<polyline clip-path="url(#clip922)" style="stroke:#e26f46; stroke-linecap:round; stroke-linejoin:round; stroke-width:12; stroke-opacity:1; fill:none" points="232.382,98.6948 299.193,1577.13 366.003,1736.64 432.814,1694.27 499.625,1697.66 566.435,1699.49 633.246,1707.92 700.056,1692.25 766.867,1699.19 833.678,1696.72 900.488,1717.22 967.299,1654.55 1034.11,1610.67 1100.92,1674.59 1167.73,1692.59 1234.54,1634.63 1301.35,1696.93 1368.16,1707.81 1434.97,1717.84 1501.78,1627.7 1568.59,1663.41 1635.41,1708.44 1702.22,1682.1 1769.03,1693 1835.84,1678.65 1902.65,1713.94 "/>
<polyline clip-path="url(#clip922)" style="stroke:#3da44d; stroke-linecap:round; stroke-linejoin:round; stroke-width:12; stroke-opacity:1; fill:none" points="232.382,98.6948 299.193,319.66 366.003,443.669 432.814,558.872 499.625,658.821 566.435,746.342 633.246,828.518 700.056,898.103 766.867,960.466 833.678,1029.75 900.488,1103.34 967.299,1185.27 1034.11,1256.29 1100.92,1323.25 1167.73,1394.81 1234.54,1450.96 1301.35,1497.23 1368.16,1534.2 1434.97,1580.81 1501.78,1621.42 1568.59,1661.66 1635.41,1694.99 1702.22,1716.37 1769.03,1755.08 1835.84,1788.34 1902.65,1813.72 "/>
<polyline clip-path="url(#clip922)" style="stroke:#c271d2; stroke-linecap:round; stroke-linejoin:round; stroke-width:12; stroke-opacity:1; fill:none" points="232.382,98.6948 299.193,395.141 366.003,537.949 432.814,636.916 499.625,723.241 566.435,790.254 633.246,866.362 700.056,933.908 766.867,991.558 833.678,1054.47 900.488,1112.27 967.299,1158.95 1034.11,1199.75 1100.92,1234.42 1167.73,1277.65 1234.54,1315.18 1301.35,1345.56 1368.16,1385.8 1434.97,1425.63 1501.78,1467.04 1568.59,1517.29 1635.41,1565.77 1702.22,1609.52 1769.03,1649.34 1835.84,1666.76 1902.65,1657.24 "/>
<path clip-path="url(#clip920)" d="M1534.75 367.042 L1893.74 367.042 L1893.74 107.842 L1534.75 107.842  Z" fill="#ffffff" fill-rule="evenodd" fill-opacity="1"/>
<polyline clip-path="url(#clip920)" style="stroke:#000000; stroke-linecap:round; stroke-linejoin:round; stroke-width:4; stroke-opacity:1; fill:none" points="1534.75,367.042 1893.74,367.042 1893.74,107.842 1534.75,107.842 1534.75,367.042 "/>
<polyline clip-path="url(#clip920)" style="stroke:#009af9; stroke-linecap:round; stroke-linejoin:round; stroke-width:12; stroke-opacity:1; fill:none" points="1554.42,159.682 1672.45,159.682 "/>
<path clip-path="url(#clip920)" d="M1692.12 142.402 L1696.8 142.402 L1696.8 156.568 L1713.79 156.568 L1713.79 142.402 L1718.47 142.402 L1718.47 176.962 L1713.79 176.962 L1713.79 160.503 L1696.8 160.503 L1696.8 176.962 L1692.12 176.962 L1692.12 142.402 Z" fill="#000000" fill-rule="evenodd" fill-opacity="1" /><path clip-path="url(#clip920)" d="M1727.77 142.402 L1734.74 142.402 L1743.56 165.92 L1752.42 142.402 L1759.39 142.402 L1759.39 176.962 L1754.83 176.962 L1754.83 146.614 L1745.92 170.318 L1741.22 170.318 L1732.31 146.614 L1732.31 176.962 L1727.77 176.962 L1727.77 142.402 Z" fill="#000000" fill-rule="evenodd" fill-opacity="1" /><path clip-path="url(#clip920)" d="M1794.55 145.064 L1794.55 149.994 Q1792.19 147.795 1789.51 146.707 Q1786.85 145.619 1783.84 145.619 Q1777.91 145.619 1774.76 149.253 Q1771.61 152.864 1771.61 159.716 Q1771.61 166.545 1774.76 170.179 Q1777.91 173.79 1783.84 173.79 Q1786.85 173.79 1789.51 172.702 Q1792.19 171.614 1794.55 169.415 L1794.55 174.3 Q1792.1 175.966 1789.35 176.8 Q1786.61 177.633 1783.56 177.633 Q1775.71 177.633 1771.2 172.841 Q1766.68 168.026 1766.68 159.716 Q1766.68 151.383 1771.2 146.591 Q1775.71 141.777 1783.56 141.777 Q1786.66 141.777 1789.39 142.61 Q1792.15 143.42 1794.55 145.064 Z" fill="#000000" fill-rule="evenodd" fill-opacity="1" /><polyline clip-path="url(#clip920)" style="stroke:#e26f46; stroke-linecap:round; stroke-linejoin:round; stroke-width:12; stroke-opacity:1; fill:none" points="1554.42,211.522 1672.45,211.522 "/>
<path clip-path="url(#clip920)" d="M1708.51 212.598 Q1710.02 213.107 1711.43 214.774 Q1712.86 216.441 1714.3 219.357 L1719.05 228.802 L1714.02 228.802 L1709.6 219.936 Q1707.89 216.464 1706.27 215.329 Q1704.67 214.195 1701.89 214.195 L1696.8 214.195 L1696.8 228.802 L1692.12 228.802 L1692.12 194.242 L1702.68 194.242 Q1708.61 194.242 1711.52 196.718 Q1714.44 199.195 1714.44 204.195 Q1714.44 207.459 1712.91 209.612 Q1711.41 211.765 1708.51 212.598 M1696.8 198.084 L1696.8 210.353 L1702.68 210.353 Q1706.06 210.353 1707.77 208.802 Q1709.51 207.228 1709.51 204.195 Q1709.51 201.163 1707.77 199.635 Q1706.06 198.084 1702.68 198.084 L1696.8 198.084 Z" fill="#000000" fill-rule="evenodd" fill-opacity="1" /><path clip-path="url(#clip920)" d="M1734.69 198.848 L1728.35 216.047 L1741.06 216.047 L1734.69 198.848 M1732.05 194.242 L1737.36 194.242 L1750.53 228.802 L1745.67 228.802 L1742.52 219.936 L1726.94 219.936 L1723.79 228.802 L1718.86 228.802 L1732.05 194.242 Z" fill="#000000" fill-rule="evenodd" fill-opacity="1" /><path clip-path="url(#clip920)" d="M1752.19 213.917 L1764.67 213.917 L1764.67 217.714 L1752.19 217.714 L1752.19 213.917 Z" fill="#000000" fill-rule="evenodd" fill-opacity="1" /><path clip-path="url(#clip920)" d="M1771.64 194.242 L1776.31 194.242 L1776.31 208.408 L1793.3 208.408 L1793.3 194.242 L1797.98 194.242 L1797.98 228.802 L1793.3 228.802 L1793.3 212.343 L1776.31 212.343 L1776.31 228.802 L1771.64 228.802 L1771.64 194.242 Z" fill="#000000" fill-rule="evenodd" fill-opacity="1" /><path clip-path="url(#clip920)" d="M1807.29 194.242 L1814.25 194.242 L1823.07 217.76 L1831.94 194.242 L1838.91 194.242 L1838.91 228.802 L1834.35 228.802 L1834.35 198.454 L1825.43 222.158 L1820.73 222.158 L1811.82 198.454 L1811.82 228.802 L1807.29 228.802 L1807.29 194.242 Z" fill="#000000" fill-rule="evenodd" fill-opacity="1" /><path clip-path="url(#clip920)" d="M1874.07 196.904 L1874.07 201.834 Q1871.71 199.635 1869.02 198.547 Q1866.36 197.459 1863.35 197.459 Q1857.42 197.459 1854.28 201.093 Q1851.13 204.704 1851.13 211.556 Q1851.13 218.385 1854.28 222.019 Q1857.42 225.63 1863.35 225.63 Q1866.36 225.63 1869.02 224.542 Q1871.71 223.454 1874.07 221.255 L1874.07 226.14 Q1871.61 227.806 1868.86 228.64 Q1866.13 229.473 1863.07 229.473 Q1855.23 229.473 1850.71 224.681 Q1846.2 219.866 1846.2 211.556 Q1846.2 203.223 1850.71 198.431 Q1855.23 193.617 1863.07 193.617 Q1866.17 193.617 1868.91 194.45 Q1871.66 195.26 1874.07 196.904 Z" fill="#000000" fill-rule="evenodd" fill-opacity="1" /><polyline clip-path="url(#clip920)" style="stroke:#3da44d; stroke-linecap:round; stroke-linejoin:round; stroke-width:12; stroke-opacity:1; fill:none" points="1554.42,263.362 1672.45,263.362 "/>
<path clip-path="url(#clip920)" d="M1708.51 264.438 Q1710.02 264.947 1711.43 266.614 Q1712.86 268.281 1714.3 271.197 L1719.05 280.642 L1714.02 280.642 L1709.6 271.776 Q1707.89 268.304 1706.27 267.169 Q1704.67 266.035 1701.89 266.035 L1696.8 266.035 L1696.8 280.642 L1692.12 280.642 L1692.12 246.082 L1702.68 246.082 Q1708.61 246.082 1711.52 248.558 Q1714.44 251.035 1714.44 256.035 Q1714.44 259.299 1712.91 261.452 Q1711.41 263.605 1708.51 264.438 M1696.8 249.924 L1696.8 262.193 L1702.68 262.193 Q1706.06 262.193 1707.77 260.642 Q1709.51 259.068 1709.51 256.035 Q1709.51 253.003 1707.77 251.475 Q1706.06 249.924 1702.68 249.924 L1696.8 249.924 Z" fill="#000000" fill-rule="evenodd" fill-opacity="1" /><path clip-path="url(#clip920)" d="M1734.69 250.688 L1728.35 267.887 L1741.06 267.887 L1734.69 250.688 M1732.05 246.082 L1737.36 246.082 L1750.53 280.642 L1745.67 280.642 L1742.52 271.776 L1726.94 271.776 L1723.79 280.642 L1718.86 280.642 L1732.05 246.082 Z" fill="#000000" fill-rule="evenodd" fill-opacity="1" /><path clip-path="url(#clip920)" d="M1755.57 246.082 L1762.54 246.082 L1771.36 269.6 L1780.23 246.082 L1787.19 246.082 L1787.19 280.642 L1782.63 280.642 L1782.63 250.294 L1773.72 273.998 L1769.02 273.998 L1760.11 250.294 L1760.11 280.642 L1755.57 280.642 L1755.57 246.082 Z" fill="#000000" fill-rule="evenodd" fill-opacity="1" /><polyline clip-path="url(#clip920)" style="stroke:#c271d2; stroke-linecap:round; stroke-linejoin:round; stroke-width:12; stroke-opacity:1; fill:none" points="1554.42,315.202 1672.45,315.202 "/>
<path clip-path="url(#clip920)" d="M1696.8 301.764 L1696.8 314.75 L1702.68 314.75 Q1705.94 314.75 1707.73 313.06 Q1709.51 311.371 1709.51 308.246 Q1709.51 305.144 1707.73 303.454 Q1705.94 301.764 1702.68 301.764 L1696.8 301.764 M1692.12 297.922 L1702.68 297.922 Q1708.49 297.922 1711.45 300.56 Q1714.44 303.176 1714.44 308.246 Q1714.44 313.361 1711.45 315.977 Q1708.49 318.593 1702.68 318.593 L1696.8 318.593 L1696.8 332.482 L1692.12 332.482 L1692.12 297.922 Z" fill="#000000" fill-rule="evenodd" fill-opacity="1" /><path clip-path="url(#clip920)" d="M1720.71 297.922 L1742.56 297.922 L1742.56 301.857 L1725.39 301.857 L1725.39 312.088 L1741.85 312.088 L1741.85 316.023 L1725.39 316.023 L1725.39 328.546 L1742.98 328.546 L1742.98 332.482 L1720.71 332.482 L1720.71 297.922 Z" fill="#000000" fill-rule="evenodd" fill-opacity="1" /><path clip-path="url(#clip920)" d="M1750.67 297.922 L1755.34 297.922 L1755.34 312.088 L1772.33 312.088 L1772.33 297.922 L1777.01 297.922 L1777.01 332.482 L1772.33 332.482 L1772.33 316.023 L1755.34 316.023 L1755.34 332.482 L1750.67 332.482 L1750.67 297.922 Z" fill="#000000" fill-rule="evenodd" fill-opacity="1" /><path clip-path="url(#clip920)" d="M1786.31 297.922 L1793.28 297.922 L1802.1 321.44 L1810.97 297.922 L1817.93 297.922 L1817.93 332.482 L1813.37 332.482 L1813.37 302.134 L1804.46 325.838 L1799.76 325.838 L1790.85 302.134 L1790.85 332.482 L1786.31 332.482 L1786.31 297.922 Z" fill="#000000" fill-rule="evenodd" fill-opacity="1" /><path clip-path="url(#clip920)" d="M1853.1 300.584 L1853.1 305.514 Q1850.73 303.315 1848.05 302.227 Q1845.39 301.139 1842.38 301.139 Q1836.45 301.139 1833.3 304.773 Q1830.16 308.384 1830.16 315.236 Q1830.16 322.065 1833.3 325.699 Q1836.45 329.31 1842.38 329.31 Q1845.39 329.31 1848.05 328.222 Q1850.73 327.134 1853.1 324.935 L1853.1 329.82 Q1850.64 331.486 1847.89 332.32 Q1845.16 333.153 1842.1 333.153 Q1834.25 333.153 1829.74 328.361 Q1825.23 323.546 1825.23 315.236 Q1825.23 306.903 1829.74 302.111 Q1834.25 297.297 1842.1 297.297 Q1845.2 297.297 1847.93 298.13 Q1850.69 298.94 1853.1 300.584 Z" fill="#000000" fill-rule="evenodd" fill-opacity="1" /></svg>
