<?xml version="1.0" encoding="utf-8"?>
<svg xmlns="http://www.w3.org/2000/svg" xmlns:xlink="http://www.w3.org/1999/xlink" width="500" height="500" viewBox="0 0 2000 2000">
<defs>
  <clipPath id="clip820">
    <rect x="0" y="0" width="2000" height="2000"/>
  </clipPath>
</defs>
<path clip-path="url(#clip820)" d="M0 2000 L2000 2000 L2000 0 L0 0  Z" fill="#ffffff" fill-rule="evenodd" fill-opacity="1"/>
<defs>
  <clipPath id="clip821">
    <rect x="400" y="200" width="1401" height="1401"/>
  </clipPath>
</defs>
<path clip-path="url(#clip820)" d="M182.274 1865.17 L1952.76 1865.17 L1952.76 47.2441 L182.274 47.2441  Z" fill="#ffffff" fill-rule="evenodd" fill-opacity="1"/>
<defs>
  <clipPath id="clip822">
    <rect x="182" y="47" width="1771" height="1819"/>
  </clipPath>
</defs>
<polyline clip-path="url(#clip822)" style="stroke:#000000; stroke-linecap:round; stroke-linejoin:round; stroke-width:2; stroke-opacity:0.1; fill:none" points="499.625,1865.17 499.625,47.2441 "/>
<polyline clip-path="url(#clip822)" style="stroke:#000000; stroke-linecap:round; stroke-linejoin:round; stroke-width:2; stroke-opacity:0.1; fill:none" points="833.678,1865.17 833.678,47.2441 "/>
<polyline clip-path="url(#clip822)" style="stroke:#000000; stroke-linecap:round; stroke-linejoin:round; stroke-width:2; stroke-opacity:0.1; fill:none" points="1167.73,1865.17 1167.73,47.2441 "/>
<polyline clip-path="url(#clip822)" style="stroke:#000000; stroke-linecap:round; stroke-linejoin:round; stroke-width:2; stroke-opacity:0.1; fill:none" points="1501.78,1865.17 1501.78,47.2441 "/>
<polyline clip-path="url(#clip822)" style="stroke:#000000; stroke-linecap:round; stroke-linejoin:round; stroke-width:2; stroke-opacity:0.1; fill:none" points="1835.84,1865.17 1835.84,47.2441 "/>
<polyline clip-path="url(#clip820)" style="stroke:#000000; stroke-linecap:round; stroke-linejoin:round; stroke-width:4; stroke-opacity:1; fill:none" points="182.274,1865.17 1952.76,1865.17 "/>
<polyline clip-path="url(#clip820)" style="stroke:#000000; stroke-linecap:round; stroke-linejoin:round; stroke-width:4; stroke-opacity:1; fill:none" points="499.625,1865.17 499.625,1846.27 "/>
<polyline clip-path="url(#clip820)" style="stroke:#000000; stroke-linecap:round; stroke-linejoin:round; stroke-width:4; stroke-opacity:1; fill:none" points="833.678,1865.17 833.678,1846.27 "/>
<polyline clip-path="url(#clip820)" style="stroke:#000000; stroke-linecap:round; stroke-linejoin:round; stroke-width:4; stroke-opacity:1; fill:none" points="1167.73,1865.17 1167.73,1846.27 "/>
<polyline clip-path="url(#clip820)" style="stroke:#000000; stroke-linecap:round; stroke-linejoin:round; stroke-width:4; stroke-opacity:1; fill:none" points="1501.78,1865.17 1501.78,1846.27 "/>
<polyline clip-path="url(#clip820)" style="stroke:#000000; stroke-linecap:round; stroke-linejoin:round; stroke-width:4; stroke-opacity:1; fill:none" points="1835.84,1865.17 1835.84,1846.27 "/>
<path clip-path="url(#clip820)" d="M489.902 1889.81 L508.259 1889.81 L508.259 1893.74 L494.185 1893.74 L494.185 1902.22 Q495.203 1901.87 496.222 1901.71 Q497.24 1901.52 498.259 1901.52 Q504.046 1901.52 507.425 1904.69 Q510.805 1907.86 510.805 1913.28 Q510.805 1918.86 507.333 1921.96 Q503.861 1925.04 497.541 1925.04 Q495.365 1925.04 493.097 1924.67 Q490.851 1924.3 488.444 1923.56 L488.444 1918.86 Q490.527 1919.99 492.75 1920.55 Q494.972 1921.1 497.449 1921.1 Q501.453 1921.1 503.791 1919 Q506.129 1916.89 506.129 1913.28 Q506.129 1909.67 503.791 1907.56 Q501.453 1905.46 497.449 1905.46 Q495.574 1905.46 493.699 1905.87 Q491.847 1906.29 489.902 1907.17 L489.902 1889.81 Z" fill="#000000" fill-rule="evenodd" fill-opacity="1" /><path clip-path="url(#clip820)" d="M808.365 1920.43 L816.004 1920.43 L816.004 1894.07 L807.694 1895.73 L807.694 1891.47 L815.958 1889.81 L820.634 1889.81 L820.634 1920.43 L828.273 1920.43 L828.273 1924.37 L808.365 1924.37 L808.365 1920.43 Z" fill="#000000" fill-rule="evenodd" fill-opacity="1" /><path clip-path="url(#clip820)" d="M847.717 1892.89 Q844.106 1892.89 842.277 1896.45 Q840.472 1899.99 840.472 1907.12 Q840.472 1914.23 842.277 1917.79 Q844.106 1921.34 847.717 1921.34 Q851.351 1921.34 853.157 1917.79 Q854.985 1914.23 854.985 1907.12 Q854.985 1899.99 853.157 1896.45 Q851.351 1892.89 847.717 1892.89 M847.717 1889.18 Q853.527 1889.18 856.583 1893.79 Q859.661 1898.37 859.661 1907.12 Q859.661 1915.85 856.583 1920.46 Q853.527 1925.04 847.717 1925.04 Q841.907 1925.04 838.828 1920.46 Q835.773 1915.85 835.773 1907.12 Q835.773 1898.37 838.828 1893.79 Q841.907 1889.18 847.717 1889.18 Z" fill="#000000" fill-rule="evenodd" fill-opacity="1" /><path clip-path="url(#clip820)" d="M1142.92 1920.43 L1150.56 1920.43 L1150.56 1894.07 L1142.24 1895.73 L1142.24 1891.47 L1150.51 1889.81 L1155.18 1889.81 L1155.18 1920.43 L1162.82 1920.43 L1162.82 1924.37 L1142.92 1924.37 L1142.92 1920.43 Z" fill="#000000" fill-rule="evenodd" fill-opacity="1" /><path clip-path="url(#clip820)" d="M1172.31 1889.81 L1190.67 1889.81 L1190.67 1893.74 L1176.6 1893.74 L1176.6 1902.22 Q1177.62 1901.87 1178.63 1901.71 Q1179.65 1901.52 1180.67 1901.52 Q1186.46 1901.52 1189.84 1904.69 Q1193.22 1907.86 1193.22 1913.28 Q1193.22 1918.86 1189.74 1921.96 Q1186.27 1925.04 1179.95 1925.04 Q1177.78 1925.04 1175.51 1924.67 Q1173.26 1924.3 1170.86 1923.56 L1170.86 1918.86 Q1172.94 1919.99 1175.16 1920.55 Q1177.38 1921.1 1179.86 1921.1 Q1183.87 1921.1 1186.2 1919 Q1188.54 1916.89 1188.54 1913.28 Q1188.54 1909.67 1186.2 1907.56 Q1183.87 1905.46 1179.86 1905.46 Q1177.99 1905.46 1176.11 1905.87 Q1174.26 1906.29 1172.31 1907.17 L1172.31 1889.81 Z" fill="#000000" fill-rule="evenodd" fill-opacity="1" /><path clip-path="url(#clip820)" d="M1480.56 1920.43 L1496.88 1920.43 L1496.88 1924.37 L1474.93 1924.37 L1474.93 1920.43 Q1477.59 1917.68 1482.18 1913.05 Q1486.78 1908.4 1487.96 1907.05 Q1490.21 1904.53 1491.09 1902.79 Q1491.99 1901.03 1491.99 1899.34 Q1491.99 1896.59 1490.05 1894.85 Q1488.13 1893.12 1485.02 1893.12 Q1482.83 1893.12 1480.37 1893.88 Q1477.94 1894.65 1475.16 1896.2 L1475.16 1891.47 Q1477.99 1890.34 1480.44 1889.76 Q1482.9 1889.18 1484.93 1889.18 Q1490.3 1889.18 1493.5 1891.87 Q1496.69 1894.55 1496.69 1899.04 Q1496.69 1901.17 1495.88 1903.09 Q1495.09 1904.99 1492.99 1907.59 Q1492.41 1908.26 1489.31 1911.47 Q1486.21 1914.67 1480.56 1920.43 Z" fill="#000000" fill-rule="evenodd" fill-opacity="1" /><path clip-path="url(#clip820)" d="M1516.69 1892.89 Q1513.08 1892.89 1511.25 1896.45 Q1509.45 1899.99 1509.45 1907.12 Q1509.45 1914.23 1511.25 1917.79 Q1513.08 1921.34 1516.69 1921.34 Q1520.33 1921.34 1522.13 1917.79 Q1523.96 1914.23 1523.96 1907.12 Q1523.96 1899.99 1522.13 1896.45 Q1520.33 1892.89 1516.69 1892.89 M1516.69 1889.18 Q1522.5 1889.18 1525.56 1893.79 Q1528.64 1898.37 1528.64 1907.12 Q1528.64 1915.85 1525.56 1920.46 Q1522.5 1925.04 1516.69 1925.04 Q1510.88 1925.04 1507.8 1920.46 Q1504.75 1915.85 1504.75 1907.12 Q1504.75 1898.37 1507.8 1893.79 Q1510.88 1889.18 1516.69 1889.18 Z" fill="#000000" fill-rule="evenodd" fill-opacity="1" /><path clip-path="url(#clip820)" d="M1815.11 1920.43 L1831.43 1920.43 L1831.43 1924.37 L1809.48 1924.37 L1809.48 1920.43 Q1812.15 1917.68 1816.73 1913.05 Q1821.34 1908.4 1822.52 1907.05 Q1824.76 1904.53 1825.64 1902.79 Q1826.54 1901.03 1826.54 1899.34 Q1826.54 1896.59 1824.6 1894.85 Q1822.68 1893.12 1819.58 1893.12 Q1817.38 1893.12 1814.92 1893.88 Q1812.49 1894.65 1809.71 1896.2 L1809.71 1891.47 Q1812.54 1890.34 1814.99 1889.76 Q1817.45 1889.18 1819.48 1889.18 Q1824.85 1889.18 1828.05 1891.87 Q1831.24 1894.55 1831.24 1899.04 Q1831.24 1901.17 1830.43 1903.09 Q1829.65 1904.99 1827.54 1907.59 Q1826.96 1908.26 1823.86 1911.47 Q1820.76 1914.67 1815.11 1920.43 Z" fill="#000000" fill-rule="evenodd" fill-opacity="1" /><path clip-path="url(#clip820)" d="M1841.29 1889.81 L1859.65 1889.81 L1859.65 1893.74 L1845.57 1893.74 L1845.57 1902.22 Q1846.59 1901.87 1847.61 1901.71 Q1848.63 1901.52 1849.65 1901.52 Q1855.43 1901.52 1858.81 1904.69 Q1862.19 1907.86 1862.19 1913.28 Q1862.19 1918.86 1858.72 1921.96 Q1855.25 1925.04 1848.93 1925.04 Q1846.75 1925.04 1844.48 1924.67 Q1842.24 1924.3 1839.83 1923.56 L1839.83 1918.86 Q1841.91 1919.99 1844.14 1920.55 Q1846.36 1921.1 1848.83 1921.1 Q1852.84 1921.1 1855.18 1919 Q1857.52 1916.89 1857.52 1913.28 Q1857.52 1909.67 1855.18 1907.56 Q1852.84 1905.46 1848.83 1905.46 Q1846.96 1905.46 1845.08 1905.87 Q1843.23 1906.29 1841.29 1907.17 L1841.29 1889.81 Z" fill="#000000" fill-rule="evenodd" fill-opacity="1" /><polyline clip-path="url(#clip822)" style="stroke:#000000; stroke-linecap:round; stroke-linejoin:round; stroke-width:2; stroke-opacity:0.1; fill:none" points="182.274,1729.27 1952.76,1729.27 "/>
<polyline clip-path="url(#clip822)" style="stroke:#000000; stroke-linecap:round; stroke-linejoin:round; stroke-width:2; stroke-opacity:0.1; fill:none" points="182.274,1321.62 1952.76,1321.62 "/>
<polyline clip-path="url(#clip822)" style="stroke:#000000; stroke-linecap:round; stroke-linejoin:round; stroke-width:2; stroke-opacity:0.1; fill:none" points="182.274,913.981 1952.76,913.981 "/>
<polyline clip-path="url(#clip822)" style="stroke:#000000; stroke-linecap:round; stroke-linejoin:round; stroke-width:2; stroke-opacity:0.1; fill:none" points="182.274,506.338 1952.76,506.338 "/>
<polyline clip-path="url(#clip822)" style="stroke:#000000; stroke-linecap:round; stroke-linejoin:round; stroke-width:2; stroke-opacity:0.1; fill:none" points="182.274,98.6948 1952.76,98.6948 "/>
<polyline clip-path="url(#clip820)" style="stroke:#000000; stroke-linecap:round; stroke-linejoin:round; stroke-width:4; stroke-opacity:1; fill:none" points="182.274,1865.17 182.274,47.2441 "/>
<polyline clip-path="url(#clip820)" style="stroke:#000000; stroke-linecap:round; stroke-linejoin:round; stroke-width:4; stroke-opacity:1; fill:none" points="182.274,1729.27 201.172,1729.27 "/>
<polyline clip-path="url(#clip820)" style="stroke:#000000; stroke-linecap:round; stroke-linejoin:round; stroke-width:4; stroke-opacity:1; fill:none" points="182.274,1321.62 201.172,1321.62 "/>
<polyline clip-path="url(#clip820)" style="stroke:#000000; stroke-linecap:round; stroke-linejoin:round; stroke-width:4; stroke-opacity:1; fill:none" points="182.274,913.981 201.172,913.981 "/>
<polyline clip-path="url(#clip820)" style="stroke:#000000; stroke-linecap:round; stroke-linejoin:round; stroke-width:4; stroke-opacity:1; fill:none" points="182.274,506.338 201.172,506.338 "/>
<polyline clip-path="url(#clip820)" style="stroke:#000000; stroke-linecap:round; stroke-linejoin:round; stroke-width:4; stroke-opacity:1; fill:none" points="182.274,98.6948 201.172,98.6948 "/>
<path clip-path="url(#clip820)" d="M64.9365 1715.07 Q61.3254 1715.07 59.4967 1718.63 Q57.6912 1722.17 57.6912 1729.3 Q57.6912 1736.41 59.4967 1739.97 Q61.3254 1743.51 64.9365 1743.51 Q68.5707 1743.51 70.3763 1739.97 Q72.205 1736.41 72.205 1729.3 Q72.205 1722.17 70.3763 1718.63 Q68.5707 1715.07 64.9365 1715.07 M64.9365 1711.36 Q70.7467 1711.36 73.8022 1715.97 Q76.8809 1720.55 76.8809 1729.3 Q76.8809 1738.03 73.8022 1742.63 Q70.7467 1747.22 64.9365 1747.22 Q59.1264 1747.22 56.0477 1742.63 Q52.9921 1738.03 52.9921 1729.3 Q52.9921 1720.55 56.0477 1715.97 Q59.1264 1711.36 64.9365 1711.36 Z" fill="#000000" fill-rule="evenodd" fill-opacity="1" /><path clip-path="url(#clip820)" d="M85.0984 1740.67 L89.9827 1740.67 L89.9827 1746.55 L85.0984 1746.55 L85.0984 1740.67 Z" fill="#000000" fill-rule="evenodd" fill-opacity="1" /><path clip-path="url(#clip820)" d="M110.168 1715.07 Q106.557 1715.07 104.728 1718.63 Q102.922 1722.17 102.922 1729.3 Q102.922 1736.41 104.728 1739.97 Q106.557 1743.51 110.168 1743.51 Q113.802 1743.51 115.608 1739.97 Q117.436 1736.41 117.436 1729.3 Q117.436 1722.17 115.608 1718.63 Q113.802 1715.07 110.168 1715.07 M110.168 1711.36 Q115.978 1711.36 119.033 1715.97 Q122.112 1720.55 122.112 1729.3 Q122.112 1738.03 119.033 1742.63 Q115.978 1747.22 110.168 1747.22 Q104.358 1747.22 101.279 1742.63 Q98.2234 1738.03 98.2234 1729.3 Q98.2234 1720.55 101.279 1715.97 Q104.358 1711.36 110.168 1711.36 Z" fill="#000000" fill-rule="evenodd" fill-opacity="1" /><path clip-path="url(#clip820)" d="M140.33 1715.07 Q136.719 1715.07 134.89 1718.63 Q133.084 1722.17 133.084 1729.3 Q133.084 1736.41 134.89 1739.97 Q136.719 1743.51 140.33 1743.51 Q143.964 1743.51 145.769 1739.97 Q147.598 1736.41 147.598 1729.3 Q147.598 1722.17 145.769 1718.63 Q143.964 1715.07 140.33 1715.07 M140.33 1711.36 Q146.14 1711.36 149.195 1715.97 Q152.274 1720.55 152.274 1729.3 Q152.274 1738.03 149.195 1742.63 Q146.14 1747.22 140.33 1747.22 Q134.519 1747.22 131.441 1742.63 Q128.385 1738.03 128.385 1729.3 Q128.385 1720.55 131.441 1715.97 Q134.519 1711.36 140.33 1711.36 Z" fill="#000000" fill-rule="evenodd" fill-opacity="1" /><path clip-path="url(#clip820)" d="M65.9319 1307.42 Q62.3208 1307.42 60.4921 1310.99 Q58.6865 1314.53 58.6865 1321.66 Q58.6865 1328.76 60.4921 1332.33 Q62.3208 1335.87 65.9319 1335.87 Q69.5661 1335.87 71.3717 1332.33 Q73.2004 1328.76 73.2004 1321.66 Q73.2004 1314.53 71.3717 1310.99 Q69.5661 1307.42 65.9319 1307.42 M65.9319 1303.72 Q71.742 1303.72 74.7976 1308.32 Q77.8763 1312.91 77.8763 1321.66 Q77.8763 1330.39 74.7976 1334.99 Q71.742 1339.57 65.9319 1339.57 Q60.1217 1339.57 57.043 1334.99 Q53.9875 1330.39 53.9875 1321.66 Q53.9875 1312.91 57.043 1308.32 Q60.1217 1303.72 65.9319 1303.72 Z" fill="#000000" fill-rule="evenodd" fill-opacity="1" /><path clip-path="url(#clip820)" d="M86.0938 1333.02 L90.978 1333.02 L90.978 1338.9 L86.0938 1338.9 L86.0938 1333.02 Z" fill="#000000" fill-rule="evenodd" fill-opacity="1" /><path clip-path="url(#clip820)" d="M105.191 1334.97 L121.51 1334.97 L121.51 1338.9 L99.566 1338.9 L99.566 1334.97 Q102.228 1332.21 106.811 1327.58 Q111.418 1322.93 112.598 1321.59 Q114.844 1319.07 115.723 1317.33 Q116.626 1315.57 116.626 1313.88 Q116.626 1311.13 114.682 1309.39 Q112.76 1307.65 109.658 1307.65 Q107.459 1307.65 105.006 1308.42 Q102.575 1309.18 99.7974 1310.73 L99.7974 1306.01 Q102.621 1304.88 105.075 1304.3 Q107.529 1303.72 109.566 1303.72 Q114.936 1303.72 118.131 1306.4 Q121.325 1309.09 121.325 1313.58 Q121.325 1315.71 120.515 1317.63 Q119.728 1319.53 117.621 1322.12 Q117.043 1322.79 113.941 1326.01 Q110.839 1329.2 105.191 1334.97 Z" fill="#000000" fill-rule="evenodd" fill-opacity="1" /><path clip-path="url(#clip820)" d="M131.371 1304.34 L149.728 1304.34 L149.728 1308.28 L135.654 1308.28 L135.654 1316.75 Q136.672 1316.4 137.691 1316.24 Q138.709 1316.06 139.728 1316.06 Q145.515 1316.06 148.894 1319.23 Q152.274 1322.4 152.274 1327.82 Q152.274 1333.39 148.802 1336.5 Q145.33 1339.57 139.01 1339.57 Q136.834 1339.57 134.566 1339.2 Q132.32 1338.83 129.913 1338.09 L129.913 1333.39 Q131.996 1334.53 134.219 1335.08 Q136.441 1335.64 138.918 1335.64 Q142.922 1335.64 145.26 1333.53 Q147.598 1331.43 147.598 1327.82 Q147.598 1324.2 145.26 1322.1 Q142.922 1319.99 138.918 1319.99 Q137.043 1319.99 135.168 1320.41 Q133.316 1320.82 131.371 1321.7 L131.371 1304.34 Z" fill="#000000" fill-rule="evenodd" fill-opacity="1" /><path clip-path="url(#clip820)" d="M64.9365 899.779 Q61.3254 899.779 59.4967 903.344 Q57.6912 906.886 57.6912 914.015 Q57.6912 921.122 59.4967 924.687 Q61.3254 928.228 64.9365 928.228 Q68.5707 928.228 70.3763 924.687 Q72.205 921.122 72.205 914.015 Q72.205 906.886 70.3763 903.344 Q68.5707 899.779 64.9365 899.779 M64.9365 896.076 Q70.7467 896.076 73.8022 900.682 Q76.8809 905.265 76.8809 914.015 Q76.8809 922.742 73.8022 927.349 Q70.7467 931.932 64.9365 931.932 Q59.1264 931.932 56.0477 927.349 Q52.9921 922.742 52.9921 914.015 Q52.9921 905.265 56.0477 900.682 Q59.1264 896.076 64.9365 896.076 Z" fill="#000000" fill-rule="evenodd" fill-opacity="1" /><path clip-path="url(#clip820)" d="M85.0984 925.381 L89.9827 925.381 L89.9827 931.261 L85.0984 931.261 L85.0984 925.381 Z" fill="#000000" fill-rule="evenodd" fill-opacity="1" /><path clip-path="url(#clip820)" d="M100.214 896.701 L118.57 896.701 L118.57 900.636 L104.496 900.636 L104.496 909.108 Q105.515 908.761 106.534 908.599 Q107.552 908.413 108.571 908.413 Q114.358 908.413 117.737 911.585 Q121.117 914.756 121.117 920.173 Q121.117 925.751 117.645 928.853 Q114.172 931.932 107.853 931.932 Q105.677 931.932 103.409 931.562 Q101.163 931.191 98.7558 930.45 L98.7558 925.751 Q100.839 926.886 103.061 927.441 Q105.284 927.997 107.76 927.997 Q111.765 927.997 114.103 925.89 Q116.441 923.784 116.441 920.173 Q116.441 916.562 114.103 914.455 Q111.765 912.349 107.76 912.349 Q105.885 912.349 104.01 912.765 Q102.159 913.182 100.214 914.062 L100.214 896.701 Z" fill="#000000" fill-rule="evenodd" fill-opacity="1" /><path clip-path="url(#clip820)" d="M140.33 899.779 Q136.719 899.779 134.89 903.344 Q133.084 906.886 133.084 914.015 Q133.084 921.122 134.89 924.687 Q136.719 928.228 140.33 928.228 Q143.964 928.228 145.769 924.687 Q147.598 921.122 147.598 914.015 Q147.598 906.886 145.769 903.344 Q143.964 899.779 140.33 899.779 M140.33 896.076 Q146.14 896.076 149.195 900.682 Q152.274 905.265 152.274 914.015 Q152.274 922.742 149.195 927.349 Q146.14 931.932 140.33 931.932 Q134.519 931.932 131.441 927.349 Q128.385 922.742 128.385 914.015 Q128.385 905.265 131.441 900.682 Q134.519 896.076 140.33 896.076 Z" fill="#000000" fill-rule="evenodd" fill-opacity="1" /><path clip-path="url(#clip820)" d="M65.9319 492.136 Q62.3208 492.136 60.4921 495.701 Q58.6865 499.243 58.6865 506.372 Q58.6865 513.479 60.4921 517.044 Q62.3208 520.585 65.9319 520.585 Q69.5661 520.585 71.3717 517.044 Q73.2004 513.479 73.2004 506.372 Q73.2004 499.243 71.3717 495.701 Q69.5661 492.136 65.9319 492.136 M65.9319 488.433 Q71.742 488.433 74.7976 493.039 Q77.8763 497.622 77.8763 506.372 Q77.8763 515.099 74.7976 519.706 Q71.742 524.289 65.9319 524.289 Q60.1217 524.289 57.043 519.706 Q53.9875 515.099 53.9875 506.372 Q53.9875 497.622 57.043 493.039 Q60.1217 488.433 65.9319 488.433 Z" fill="#000000" fill-rule="evenodd" fill-opacity="1" /><path clip-path="url(#clip820)" d="M86.0938 517.738 L90.978 517.738 L90.978 523.618 L86.0938 523.618 L86.0938 517.738 Z" fill="#000000" fill-rule="evenodd" fill-opacity="1" /><path clip-path="url(#clip820)" d="M99.9826 489.058 L122.205 489.058 L122.205 491.048 L109.658 523.618 L104.774 523.618 L116.58 492.993 L99.9826 492.993 L99.9826 489.058 Z" fill="#000000" fill-rule="evenodd" fill-opacity="1" /><path clip-path="url(#clip820)" d="M131.371 489.058 L149.728 489.058 L149.728 492.993 L135.654 492.993 L135.654 501.465 Q136.672 501.118 137.691 500.956 Q138.709 500.771 139.728 500.771 Q145.515 500.771 148.894 503.942 Q152.274 507.113 152.274 512.53 Q152.274 518.108 148.802 521.21 Q145.33 524.289 139.01 524.289 Q136.834 524.289 134.566 523.919 Q132.32 523.548 129.913 522.808 L129.913 518.108 Q131.996 519.243 134.219 519.798 Q136.441 520.354 138.918 520.354 Q142.922 520.354 145.26 518.247 Q147.598 516.141 147.598 512.53 Q147.598 508.919 145.26 506.812 Q142.922 504.706 138.918 504.706 Q137.043 504.706 135.168 505.122 Q133.316 505.539 131.371 506.419 L131.371 489.058 Z" fill="#000000" fill-rule="evenodd" fill-opacity="1" /><path clip-path="url(#clip820)" d="M55.7467 112.04 L63.3856 112.04 L63.3856 85.674 L55.0754 87.3407 L55.0754 83.0814 L63.3393 81.4148 L68.0152 81.4148 L68.0152 112.04 L75.654 112.04 L75.654 115.975 L55.7467 115.975 L55.7467 112.04 Z" fill="#000000" fill-rule="evenodd" fill-opacity="1" /><path clip-path="url(#clip820)" d="M85.0984 110.095 L89.9827 110.095 L89.9827 115.975 L85.0984 115.975 L85.0984 110.095 Z" fill="#000000" fill-rule="evenodd" fill-opacity="1" /><path clip-path="url(#clip820)" d="M110.168 84.4935 Q106.557 84.4935 104.728 88.0583 Q102.922 91.5999 102.922 98.7295 Q102.922 105.836 104.728 109.401 Q106.557 112.942 110.168 112.942 Q113.802 112.942 115.608 109.401 Q117.436 105.836 117.436 98.7295 Q117.436 91.5999 115.608 88.0583 Q113.802 84.4935 110.168 84.4935 M110.168 80.7898 Q115.978 80.7898 119.033 85.3962 Q122.112 89.9795 122.112 98.7295 Q122.112 107.456 119.033 112.063 Q115.978 116.646 110.168 116.646 Q104.358 116.646 101.279 112.063 Q98.2234 107.456 98.2234 98.7295 Q98.2234 89.9795 101.279 85.3962 Q104.358 80.7898 110.168 80.7898 Z" fill="#000000" fill-rule="evenodd" fill-opacity="1" /><path clip-path="url(#clip820)" d="M140.33 84.4935 Q136.719 84.4935 134.89 88.0583 Q133.084 91.5999 133.084 98.7295 Q133.084 105.836 134.89 109.401 Q136.719 112.942 140.33 112.942 Q143.964 112.942 145.769 109.401 Q147.598 105.836 147.598 98.7295 Q147.598 91.5999 145.769 88.0583 Q143.964 84.4935 140.33 84.4935 M140.33 80.7898 Q146.14 80.7898 149.195 85.3962 Q152.274 89.9795 152.274 98.7295 Q152.274 107.456 149.195 112.063 Q146.14 116.646 140.33 116.646 Q134.519 116.646 131.441 112.063 Q128.385 107.456 128.385 98.7295 Q128.385 89.9795 131.441 85.3962 Q134.519 80.7898 140.33 80.7898 Z" fill="#000000" fill-rule="evenodd" fill-opacity="1" /><polyline clip-path="url(#clip822)" style="stroke:#009af9; stroke-linecap:round; stroke-linejoin:round; stroke-width:12; stroke-opacity:1; fill:none" points="232.382,98.6948 299.193,824.013 366.003,1112.51 432.814,1279.66 499.625,1390.22 566.435,1466.18 633.246,1503.84 700.056,1538.64 766.867,1566 833.678,1581.23 900.488,1592.23 967.299,1595.79 1034.11,1613.78 1100.92,1614.13 1167.73,1625.03 1234.54,1623.27 1301.35,1631.98 1368.16,1636.03 1434.97,1648.32 1501.78,1675.23 1568.59,1676.19 1635.41,1668.29 1702.22,1679.1 1769.03,1686.43 1835.84,1687.57 1902.65,1701.29 "/>
<polyline clip-path="url(#clip822)" style="stroke:#e26f46; stroke-linecap:round; stroke-linejoin:round; stroke-width:12; stroke-opacity:1; fill:none" points="232.382,98.6948 299.193,831.938 366.003,1204.05 432.814,1393.2 499.625,1494.31 566.435,1570.97 633.246,1644.49 700.056,1693.38 766.867,1730.67 833.678,1750.57 900.488,1762.87 967.299,1761.1 1034.11,1786.41 1100.92,1813.72 1167.73,1798.67 1234.54,1773.34 1301.35,1719.99 1368.16,1742.11 1434.97,1748.76 1501.78,1734 1568.59,1751.01 1635.41,1755.39 1702.22,1772.13 1769.03,1776.8 1835.84,1723.31 1902.65,1692.39 "/>
<polyline clip-path="url(#clip822)" style="stroke:#3da44d; stroke-linecap:round; stroke-linejoin:round; stroke-width:12; stroke-opacity:1; fill:none" points="232.382,98.6948 299.193,373.5 366.003,546.151 432.814,667.549 499.625,763.097 566.435,845.45 633.246,914.021 700.056,974.547 766.867,1023.53 833.678,1063.25 900.488,1103.65 967.299,1134.5 1034.11,1166.62 1100.92,1194 1167.73,1231.14 1234.54,1267.71 1301.35,1305.89 1368.16,1333.4 1434.97,1356.12 1501.78,1370.67 1568.59,1383.88 1635.41,1394.78 1702.22,1409.81 1769.03,1429.21 1835.84,1449.21 1902.65,1476.61 "/>
<polyline clip-path="url(#clip822)" style="stroke:#c271d2; stroke-linecap:round; stroke-linejoin:round; stroke-width:12; stroke-opacity:1; fill:none" points="232.382,98.6948 299.193,631.584 366.003,988.798 432.814,1253.4 499.625,1459.64 566.435,1616.3 633.246,1729.32 700.056,1740.75 766.867,1749.79 833.678,1754.73 900.488,1750.44 967.299,1737.55 1034.11,1723.68 1100.92,1742.2 1167.73,1745.74 1234.54,1742.3 1301.35,1732.82 1368.16,1719.43 1434.97,1703.48 1501.78,1716.58 1568.59,1724.6 1635.41,1715.24 1702.22,1710.11 1769.03,1707.04 1835.84,1684.51 1902.65,1697.18 "/>
<path clip-path="url(#clip820)" d="M1534.75 367.042 L1893.74 367.042 L1893.74 107.842 L1534.75 107.842  Z" fill="#ffffff" fill-rule="evenodd" fill-opacity="1"/>
<polyline clip-path="url(#clip820)" style="stroke:#000000; stroke-linecap:round; stroke-linejoin:round; stroke-width:4; stroke-opacity:1; fill:none" points="1534.75,367.042 1893.74,367.042 1893.74,107.842 1534.75,107.842 1534.75,367.042 "/>
<polyline clip-path="url(#clip820)" style="stroke:#009af9; stroke-linecap:round; stroke-linejoin:round; stroke-width:12; stroke-opacity:1; fill:none" points="1554.42,159.682 1672.45,159.682 "/>
<path clip-path="url(#clip820)" d="M1692.12 142.402 L1696.8 142.402 L1696.8 156.568 L1713.79 156.568 L1713.79 142.402 L1718.47 142.402 L1718.47 176.962 L1713.79 176.962 L1713.79 160.503 L1696.8 160.503 L1696.8 176.962 L1692.12 176.962 L1692.12 142.402 Z" fill="#000000" fill-rule="evenodd" fill-opacity="1" /><path clip-path="url(#clip820)" d="M1727.77 142.402 L1734.74 142.402 L1743.56 165.92 L1752.42 142.402 L1759.39 142.402 L1759.39 176.962 L1754.83 176.962 L1754.83 146.614 L1745.92 170.318 L1741.22 170.318 L1732.31 146.614 L1732.31 176.962 L1727.77 176.962 L1727.77 142.402 Z" fill="#000000" fill-rule="evenodd" fill-opacity="1" /><path clip-path="url(#clip820)" d="M1794.55 145.064 L1794.55 149.994 Q1792.19 147.795 1789.51 146.707 Q1786.85 145.619 1783.84 145.619 Q1777.91 145.619 1774.76 149.253 Q1771.61 152.864 1771.61 159.716 Q1771.61 166.545 1774.76 170.179 Q1777.91 173.79 1783.84 173.79 Q1786.85 173.79 1789.51 172.702 Q1792.19 171.614 1794.55 169.415 L1794.55 174.3 Q1792.1 175.966 1789.35 176.8 Q1786.61 177.633 1783.56 177.633 Q1775.71 177.633 1771.2 172.841 Q1766.68 168.026 1766.68 159.716 Q1766.68 151.383 1771.2 146.591 Q1775.71 141.777 1783.56 141.777 Q1786.66 141.777 1789.39 142.61 Q1792.15 143.42 1794.55 145.064 Z" fill="#000000" fill-rule="evenodd" fill-opacity="1" /><polyline clip-path="url(#clip820)" style="stroke:#e26f46; stroke-linecap:round; stroke-linejoin:round; stroke-width:12; stroke-opacity:1; fill:none" points="1554.42,211.522 1672.45,211.522 "/>
<path clip-path="url(#clip820)" d="M1708.51 212.598 Q1710.02 213.107 1711.43 214.774 Q1712.86 216.441 1714.3 219.357 L1719.05 228.802 L1714.02 228.802 L1709.6 219.936 Q1707.89 216.464 1706.27 215.329 Q1704.67 214.195 1701.89 214.195 L1696.8 214.195 L1696.8 228.802 L1692.12 228.802 L1692.12 194.242 L1702.68 194.242 Q1708.61 194.242 1711.52 196.718 Q1714.44 199.195 1714.44 204.195 Q1714.44 207.459 1712.91 209.612 Q1711.41 211.765 1708.51 212.598 M1696.8 198.084 L1696.8 210.353 L1702.68 210.353 Q1706.06 210.353 1707.77 208.802 Q1709.51 207.228 1709.51 204.195 Q1709.51 201.163 1707.77 199.635 Q1706.06 198.084 1702.68 198.084 L1696.8 198.084 Z" fill="#000000" fill-rule="evenodd" fill-opacity="1" /><path clip-path="url(#clip820)" d="M1734.69 198.848 L1728.35 216.047 L1741.06 216.047 L1734.69 198.848 M1732.05 194.242 L1737.36 194.242 L1750.53 228.802 L1745.67 228.802 L1742.52 219.936 L1726.94 219.936 L1723.79 228.802 L1718.86 228.802 L1732.05 194.242 Z" fill="#000000" fill-rule="evenodd" fill-opacity="1" /><path clip-path="url(#clip820)" d="M1752.19 213.917 L1764.67 213.917 L1764.67 217.714 L1752.19 217.714 L1752.19 213.917 Z" fill="#000000" fill-rule="evenodd" fill-opacity="1" /><path clip-path="url(#clip820)" d="M1771.64 194.242 L1776.31 194.242 L1776.31 208.408 L1793.3 208.408 L1793.3 194.242 L1797.98 194.242 L1797.98 228.802 L1793.3 228.802 L1793.3 212.343 L1776.31 212.343 L1776.31 228.802 L1771.64 228.802 L1771.64 194.242 Z" fill="#000000" fill-rule="evenodd" fill-opacity="1" /><path clip-path="url(#clip820)" d="M1807.29 194.242 L1814.25 194.242 L1823.07 217.76 L1831.94 194.242 L1838.91 194.242 L1838.91 228.802 L1834.35 228.802 L1834.35 198.454 L1825.43 222.158 L1820.73 222.158 L1811.82 198.454 L1811.82 228.802 L1807.29 228.802 L1807.29 194.242 Z" fill="#000000" fill-rule="evenodd" fill-opacity="1" /><path clip-path="url(#clip820)" d="M1874.07 196.904 L1874.07 201.834 Q1871.71 199.635 1869.02 198.547 Q1866.36 197.459 1863.35 197.459 Q1857.42 197.459 1854.28 201.093 Q1851.13 204.704 1851.13 211.556 Q1851.13 218.385 1854.28 222.019 Q1857.42 225.63 1863.35 225.63 Q1866.36 225.63 1869.02 224.542 Q1871.71 223.454 1874.07 221.255 L1874.07 226.14 Q1871.61 227.806 1868.86 228.64 Q1866.13 229.473 1863.07 229.473 Q1855.23 229.473 1850.71 224.681 Q1846.2 219.866 1846.2 211.556 Q1846.2 203.223 1850.71 198.431 Q1855.23 193.617 1863.07 193.617 Q1866.17 193.617 1868.91 194.45 Q1871.66 195.26 1874.07 196.904 Z" fill="#000000" fill-rule="evenodd" fill-opacity="1" /><polyline clip-path="url(#clip820)" style="stroke:#3da44d; stroke-linecap:round; stroke-linejoin:round; stroke-width:12; stroke-opacity:1; fill:none" points="1554.42,263.362 1672.45,263.362 "/>
<path clip-path="url(#clip820)" d="M1708.51 264.438 Q1710.02 264.947 1711.43 266.614 Q1712.86 268.281 1714.3 271.197 L1719.05 280.642 L1714.02 280.642 L1709.6 271.776 Q1707.89 268.304 1706.27 267.169 Q1704.67 266.035 1701.89 266.035 L1696.8 266.035 L1696.8 280.642 L1692.12 280.642 L1692.12 246.082 L1702.68 246.082 Q1708.61 246.082 1711.52 248.558 Q1714.44 251.035 1714.44 256.035 Q1714.44 259.299 1712.91 261.452 Q1711.41 263.605 1708.51 264.438 M1696.8 249.924 L1696.8 262.193 L1702.68 262.193 Q1706.06 262.193 1707.77 260.642 Q1709.51 259.068 1709.51 256.035 Q1709.51 253.003 1707.77 251.475 Q1706.06 249.924 1702.68 249.924 L1696.8 249.924 Z" fill="#000000" fill-rule="evenodd" fill-opacity="1" /><path clip-path="url(#clip820)" d="M1734.69 250.688 L1728.35 267.887 L1741.06 267.887 L1734.69 250.688 M1732.05 246.082 L1737.36 246.082 L1750.53 280.642 L1745.67 280.642 L1742.52 271.776 L1726.94 271.776 L1723.79 280.642 L1718.86 280.642 L1732.05 246.082 Z" fill="#000000" fill-rule="evenodd" fill-opacity="1" /><path clip-path="url(#clip820)" d="M1755.57 246.082 L1762.54 246.082 L1771.36 269.6 L1780.23 246.082 L1787.19 246.082 L1787.19 280.642 L1782.63 280.642 L1782.63 250.294 L1773.72 273.998 L1769.02 273.998 L1760.11 250.294 L1760.11 280.642 L1755.57 280.642 L1755.57 246.082 Z" fill="#000000" fill-rule="evenodd" fill-opacity="1" /><polyline clip-path="url(#clip820)" style="stroke:#c271d2; stroke-linecap:round; stroke-linejoin:round; stroke-width:12; stroke-opacity:1; fill:none" points="1554.42,315.202 1672.45,315.202 "/>
<path clip-path="url(#clip820)" d="M1696.8 301.764 L1696.8 314.75 L1702.68 314.75 Q1705.94 314.75 1707.73 313.06 Q1709.51 311.371 1709.51 308.246 Q1709.51 305.144 1707.73 303.454 Q1705.94 301.764 1702.68 301.764 L1696.8 301.764 M1692.12 297.922 L1702.68 297.922 Q1708.49 297.922 1711.45 300.56 Q1714.44 303.176 1714.44 308.246 Q1714.44 313.361 1711.45 315.977 Q1708.49 318.593 1702.68 318.593 L1696.8 318.593 L1696.8 332.482 L1692.12 332.482 L1692.12 297.922 Z" fill="#000000" fill-rule="evenodd" fill-opacity="1" /><path clip-path="url(#clip820)" d="M1720.71 297.922 L1742.56 297.922 L1742.56 301.857 L1725.39 301.857 L1725.39 312.088 L1741.85 312.088 L1741.85 316.023 L1725.39 316.023 L1725.39 328.546 L1742.98 328.546 L1742.98 332.482 L1720.71 332.482 L1720.71 297.922 Z" fill="#000000" fill-rule="evenodd" fill-opacity="1" /><path clip-path="url(#clip820)" d="M1750.67 297.922 L1755.34 297.922 L1755.34 312.088 L1772.33 312.088 L1772.33 297.922 L1777.01 297.922 L1777.01 332.482 L1772.33 332.482 L1772.33 316.023 L1755.34 316.023 L1755.34 332.482 L1750.67 332.482 L1750.67 297.922 Z" fill="#000000" fill-rule="evenodd" fill-opacity="1" /><path clip-path="url(#clip820)" d="M1786.31 297.922 L1793.28 297.922 L1802.1 321.44 L1810.97 297.922 L1817.93 297.922 L1817.93 332.482 L1813.37 332.482 L1813.37 302.134 L1804.46 325.838 L1799.76 325.838 L1790.85 302.134 L1790.85 332.482 L1786.31 332.482 L1786.31 297.922 Z" fill="#000000" fill-rule="evenodd" fill-opacity="1" /><path clip-path="url(#clip820)" d="M1853.1 300.584 L1853.1 305.514 Q1850.73 303.315 1848.05 302.227 Q1845.39 301.139 1842.38 301.139 Q1836.45 301.139 1833.3 304.773 Q1830.16 308.384 1830.16 315.236 Q1830.16 322.065 1833.3 325.699 Q1836.45 329.31 1842.38 329.31 Q1845.39 329.31 1848.05 328.222 Q1850.73 327.134 1853.1 324.935 L1853.1 329.82 Q1850.64 331.486 1847.89 332.32 Q1845.16 333.153 1842.1 333.153 Q1834.25 333.153 1829.74 328.361 Q1825.23 323.546 1825.23 315.236 Q1825.23 306.903 1829.74 302.111 Q1834.25 297.297 1842.1 297.297 Q1845.2 297.297 1847.93 298.13 Q1850.69 298.94 1853.1 300.584 Z" fill="#000000" fill-rule="evenodd" fill-opacity="1" /></svg>
