<?xml version="1.0" encoding="utf-8"?>
<svg xmlns="http://www.w3.org/2000/svg" xmlns:xlink="http://www.w3.org/1999/xlink" width="500" height="500" viewBox="0 0 2000 2000">
<defs>
  <clipPath id="clip120">
    <rect x="0" y="0" width="2000" height="2000"/>
  </clipPath>
</defs>
<path clip-path="url(#clip120)" d="M0 2000 L2000 2000 L2000 0 L0 0  Z" fill="#ffffff" fill-rule="evenodd" fill-opacity="1"/>
<defs>
  <clipPath id="clip121">
    <rect x="400" y="200" width="1401" height="1401"/>
  </clipPath>
</defs>
<path clip-path="url(#clip120)" d="M182.274 1865.17 L1952.76 1865.17 L1952.76 47.2441 L182.274 47.2441  Z" fill="#ffffff" fill-rule="evenodd" fill-opacity="1"/>
<defs>
  <clipPath id="clip122">
    <rect x="182" y="47" width="1771" height="1819"/>
  </clipPath>
</defs>
<polyline clip-path="url(#clip122)" style="stroke:#000000; stroke-linecap:round; stroke-linejoin:round; stroke-width:2; stroke-opacity:0.1; fill:none" points="499.625,1865.17 499.625,47.2441 "/>
<polyline clip-path="url(#clip122)" style="stroke:#000000; stroke-linecap:round; stroke-linejoin:round; stroke-width:2; stroke-opacity:0.1; fill:none" points="833.678,1865.17 833.678,47.2441 "/>
<polyline clip-path="url(#clip122)" style="stroke:#000000; stroke-linecap:round; stroke-linejoin:round; stroke-width:2; stroke-opacity:0.1; fill:none" points="1167.73,1865.17 1167.73,47.2441 "/>
<polyline clip-path="url(#clip122)" style="stroke:#000000; stroke-linecap:round; stroke-linejoin:round; stroke-width:2; stroke-opacity:0.1; fill:none" points="1501.78,1865.17 1501.78,47.2441 "/>
<polyline clip-path="url(#clip122)" style="stroke:#000000; stroke-linecap:round; stroke-linejoin:round; stroke-width:2; stroke-opacity:0.1; fill:none" points="1835.84,1865.17 1835.84,47.2441 "/>
<polyline clip-path="url(#clip120)" style="stroke:#000000; stroke-linecap:round; stroke-linejoin:round; stroke-width:4; stroke-opacity:1; fill:none" points="182.274,1865.17 1952.76,1865.17 "/>
<polyline clip-path="url(#clip120)" style="stroke:#000000; stroke-linecap:round; stroke-linejoin:round; stroke-width:4; stroke-opacity:1; fill:none" points="499.625,1865.17 499.625,1846.27 "/>
<polyline clip-path="url(#clip120)" style="stroke:#000000; stroke-linecap:round; stroke-linejoin:round; stroke-width:4; stroke-opacity:1; fill:none" points="833.678,1865.17 833.678,1846.27 "/>
<polyline clip-path="url(#clip120)" style="stroke:#000000; stroke-linecap:round; stroke-linejoin:round; stroke-width:4; stroke-opacity:1; fill:none" points="1167.73,1865.17 1167.73,1846.27 "/>
<polyline clip-path="url(#clip120)" style="stroke:#000000; stroke-linecap:round; stroke-linejoin:round; stroke-width:4; stroke-opacity:1; fill:none" points="1501.78,1865.17 1501.78,1846.27 "/>
<polyline clip-path="url(#clip120)" style="stroke:#000000; stroke-linecap:round; stroke-linejoin:round; stroke-width:4; stroke-opacity:1; fill:none" points="1835.84,1865.17 1835.84,1846.27 "/>
<path clip-path="url(#clip120)" d="M489.902 1889.81 L508.259 1889.81 L508.259 1893.74 L494.185 1893.74 L494.185 1902.22 Q495.203 1901.87 496.222 1901.71 Q497.24 1901.52 498.259 1901.52 Q504.046 1901.52 507.425 1904.69 Q510.805 1907.86 510.805 1913.28 Q510.805 1918.86 507.333 1921.96 Q503.861 1925.04 497.541 1925.04 Q495.365 1925.04 493.097 1924.67 Q490.851 1924.3 488.444 1923.56 L488.444 1918.86 Q490.527 1919.99 492.75 1920.55 Q494.972 1921.1 497.449 1921.1 Q501.453 1921.1 503.791 1919 Q506.129 1916.89 506.129 1913.28 Q506.129 1909.67 503.791 1907.56 Q501.453 1905.46 497.449 1905.46 Q495.574 1905.46 493.699 1905.87 Q491.847 1906.29 489.902 1907.17 L489.902 1889.81 Z" fill="#000000" fill-rule="evenodd" fill-opacity="1" /><path clip-path="url(#clip120)" d="M808.365 1920.43 L816.004 1920.43 L816.004 1894.07 L807.694 1895.73 L807.694 1891.47 L815.958 1889.81 L820.634 1889.81 L820.634 1920.43 L828.273 1920.43 L828.273 1924.37 L808.365 1924.37 L808.365 1920.43 Z" fill="#000000" fill-rule="evenodd" fill-opacity="1" /><path clip-path="url(#clip120)" d="M847.717 1892.89 Q844.106 1892.89 842.277 1896.45 Q840.472 1899.99 840.472 1907.12 Q840.472 1914.23 842.277 1917.79 Q844.106 1921.34 847.717 1921.34 Q851.351 1921.34 853.157 1917.79 Q854.985 1914.23 854.985 1907.12 Q854.985 1899.99 853.157 1896.45 Q851.351 1892.89 847.717 1892.89 M847.717 1889.18 Q853.527 1889.18 856.583 1893.79 Q859.661 1898.37 859.661 1907.12 Q859.661 1915.85 856.583 1920.46 Q853.527 1925.04 847.717 1925.04 Q841.907 1925.04 838.828 1920.46 Q835.773 1915.85 835.773 1907.12 Q835.773 1898.37 838.828 1893.79 Q841.907 1889.18 847.717 1889.18 Z" fill="#000000" fill-rule="evenodd" fill-opacity="1" /><path clip-path="url(#clip120)" d="M1142.92 1920.43 L1150.56 1920.43 L1150.56 1894.07 L1142.24 1895.73 L1142.24 1891.47 L1150.51 1889.81 L1155.18 1889.81 L1155.18 1920.43 L1162.82 1920.43 L1162.82 1924.37 L1142.92 1924.37 L1142.92 1920.43 Z" fill="#000000" fill-rule="evenodd" fill-opacity="1" /><path clip-path="url(#clip120)" d="M1172.31 1889.81 L1190.67 1889.81 L1190.67 1893.74 L1176.6 1893.74 L1176.6 1902.22 Q1177.62 1901.87 1178.63 1901.71 Q1179.65 1901.52 1180.67 1901.52 Q1186.46 1901.52 1189.84 1904.69 Q1193.22 1907.86 1193.22 1913.28 Q1193.22 1918.86 1189.74 1921.96 Q1186.27 1925.04 1179.95 1925.04 Q1177.78 1925.04 1175.51 1924.67 Q1173.26 1924.3 1170.86 1923.56 L1170.86 1918.86 Q1172.94 1919.99 1175.16 1920.55 Q1177.38 1921.1 1179.86 1921.1 Q1183.87 1921.1 1186.2 1919 Q1188.54 1916.89 1188.54 1913.28 Q1188.54 1909.67 1186.2 1907.56 Q1183.87 1905.46 1179.86 1905.46 Q1177.99 1905.46 1176.11 1905.87 Q1174.26 1906.29 1172.31 1907.17 L1172.31 1889.81 Z" fill="#000000" fill-rule="evenodd" fill-opacity="1" /><path clip-path="url(#clip120)" d="M1480.56 1920.43 L1496.88 1920.43 L1496.88 1924.37 L1474.93 1924.37 L1474.93 1920.43 Q1477.59 1917.68 1482.18 1913.05 Q1486.78 1908.4 1487.96 1907.05 Q1490.21 1904.53 1491.09 1902.79 Q1491.99 1901.03 1491.99 1899.34 Q1491.99 1896.59 1490.05 1894.85 Q1488.13 1893.12 1485.02 1893.12 Q1482.83 1893.12 1480.37 1893.88 Q1477.94 1894.65 1475.16 1896.2 L1475.16 1891.47 Q1477.99 1890.34 1480.44 1889.76 Q1482.9 1889.18 1484.93 1889.18 Q1490.3 1889.18 1493.5 1891.87 Q1496.69 1894.55 1496.69 1899.04 Q1496.69 1901.17 1495.88 1903.09 Q1495.09 1904.99 1492.99 1907.59 Q1492.41 1908.26 1489.31 1911.47 Q1486.21 1914.67 1480.56 1920.43 Z" fill="#000000" fill-rule="evenodd" fill-opacity="1" /><path clip-path="url(#clip120)" d="M1516.69 1892.89 Q1513.08 1892.89 1511.25 1896.45 Q1509.45 1899.99 1509.45 1907.12 Q1509.45 1914.23 1511.25 1917.79 Q1513.08 1921.34 1516.69 1921.34 Q1520.33 1921.34 1522.13 1917.79 Q1523.96 1914.23 1523.96 1907.12 Q1523.96 1899.99 1522.13 1896.45 Q1520.33 1892.89 1516.69 1892.89 M1516.69 1889.18 Q1522.5 1889.18 1525.56 1893.79 Q1528.64 1898.37 1528.64 1907.12 Q1528.64 1915.85 1525.56 1920.46 Q1522.5 1925.04 1516.69 1925.04 Q1510.88 1925.04 1507.8 1920.46 Q1504.75 1915.85 1504.75 1907.12 Q1504.75 1898.37 1507.8 1893.79 Q1510.88 1889.18 1516.69 1889.18 Z" fill="#000000" fill-rule="evenodd" fill-opacity="1" /><path clip-path="url(#clip120)" d="M1815.11 1920.43 L1831.43 1920.43 L1831.43 1924.37 L1809.48 1924.37 L1809.48 1920.43 Q1812.15 1917.68 1816.73 1913.05 Q1821.34 1908.4 1822.52 1907.05 Q1824.76 1904.53 1825.64 1902.79 Q1826.54 1901.03 1826.54 1899.34 Q1826.54 1896.59 1824.6 1894.85 Q1822.68 1893.12 1819.58 1893.12 Q1817.38 1893.12 1814.92 1893.88 Q1812.49 1894.65 1809.71 1896.2 L1809.71 1891.47 Q1812.54 1890.34 1814.99 1889.76 Q1817.45 1889.18 1819.48 1889.18 Q1824.85 1889.18 1828.05 1891.87 Q1831.24 1894.55 1831.24 1899.04 Q1831.24 1901.17 1830.43 1903.09 Q1829.65 1904.99 1827.54 1907.59 Q1826.96 1908.26 1823.86 1911.47 Q1820.76 1914.67 1815.11 1920.43 Z" fill="#000000" fill-rule="evenodd" fill-opacity="1" /><path clip-path="url(#clip120)" d="M1841.29 1889.81 L1859.65 1889.81 L1859.65 1893.74 L1845.57 1893.74 L1845.57 1902.22 Q1846.59 1901.87 1847.61 1901.71 Q1848.63 1901.52 1849.65 1901.52 Q1855.43 1901.52 1858.81 1904.69 Q1862.19 1907.86 1862.19 1913.28 Q1862.19 1918.86 1858.72 1921.96 Q1855.25 1925.04 1848.93 1925.04 Q1846.75 1925.04 1844.48 1924.67 Q1842.24 1924.3 1839.83 1923.56 L1839.83 1918.86 Q1841.91 1919.99 1844.14 1920.55 Q1846.36 1921.1 1848.83 1921.1 Q1852.84 1921.1 1855.18 1919 Q1857.52 1916.89 1857.52 1913.28 Q1857.52 1909.67 1855.18 1907.56 Q1852.84 1905.46 1848.83 1905.46 Q1846.96 1905.46 1845.08 1905.87 Q1843.23 1906.29 1841.29 1907.17 L1841.29 1889.81 Z" fill="#000000" fill-rule="evenodd" fill-opacity="1" /><polyline clip-path="url(#clip122)" style="stroke:#000000; stroke-linecap:round; stroke-linejoin:round; stroke-width:2; stroke-opacity:0.1; fill:none" points="182.274,1634.36 1952.76,1634.36 "/>
<polyline clip-path="url(#clip122)" style="stroke:#000000; stroke-linecap:round; stroke-linejoin:round; stroke-width:2; stroke-opacity:0.1; fill:none" points="182.274,1250.45 1952.76,1250.45 "/>
<polyline clip-path="url(#clip122)" style="stroke:#000000; stroke-linecap:round; stroke-linejoin:round; stroke-width:2; stroke-opacity:0.1; fill:none" points="182.274,866.529 1952.76,866.529 "/>
<polyline clip-path="url(#clip122)" style="stroke:#000000; stroke-linecap:round; stroke-linejoin:round; stroke-width:2; stroke-opacity:0.1; fill:none" points="182.274,482.612 1952.76,482.612 "/>
<polyline clip-path="url(#clip122)" style="stroke:#000000; stroke-linecap:round; stroke-linejoin:round; stroke-width:2; stroke-opacity:0.1; fill:none" points="182.274,98.6948 1952.76,98.6948 "/>
<polyline clip-path="url(#clip120)" style="stroke:#000000; stroke-linecap:round; stroke-linejoin:round; stroke-width:4; stroke-opacity:1; fill:none" points="182.274,1865.17 182.274,47.2441 "/>
<polyline clip-path="url(#clip120)" style="stroke:#000000; stroke-linecap:round; stroke-linejoin:round; stroke-width:4; stroke-opacity:1; fill:none" points="182.274,1634.36 201.172,1634.36 "/>
<polyline clip-path="url(#clip120)" style="stroke:#000000; stroke-linecap:round; stroke-linejoin:round; stroke-width:4; stroke-opacity:1; fill:none" points="182.274,1250.45 201.172,1250.45 "/>
<polyline clip-path="url(#clip120)" style="stroke:#000000; stroke-linecap:round; stroke-linejoin:round; stroke-width:4; stroke-opacity:1; fill:none" points="182.274,866.529 201.172,866.529 "/>
<polyline clip-path="url(#clip120)" style="stroke:#000000; stroke-linecap:round; stroke-linejoin:round; stroke-width:4; stroke-opacity:1; fill:none" points="182.274,482.612 201.172,482.612 "/>
<polyline clip-path="url(#clip120)" style="stroke:#000000; stroke-linecap:round; stroke-linejoin:round; stroke-width:4; stroke-opacity:1; fill:none" points="182.274,98.6948 201.172,98.6948 "/>
<path clip-path="url(#clip120)" d="M64.9365 1620.16 Q61.3254 1620.16 59.4967 1623.73 Q57.6912 1627.27 57.6912 1634.4 Q57.6912 1641.51 59.4967 1645.07 Q61.3254 1648.61 64.9365 1648.61 Q68.5707 1648.61 70.3763 1645.07 Q72.205 1641.51 72.205 1634.4 Q72.205 1627.27 70.3763 1623.73 Q68.5707 1620.16 64.9365 1620.16 M64.9365 1616.46 Q70.7467 1616.46 73.8022 1621.07 Q76.8809 1625.65 76.8809 1634.4 Q76.8809 1643.13 73.8022 1647.73 Q70.7467 1652.32 64.9365 1652.32 Q59.1264 1652.32 56.0477 1647.73 Q52.9921 1643.13 52.9921 1634.4 Q52.9921 1625.65 56.0477 1621.07 Q59.1264 1616.46 64.9365 1616.46 Z" fill="#000000" fill-rule="evenodd" fill-opacity="1" /><path clip-path="url(#clip120)" d="M85.0984 1645.76 L89.9827 1645.76 L89.9827 1651.64 L85.0984 1651.64 L85.0984 1645.76 Z" fill="#000000" fill-rule="evenodd" fill-opacity="1" /><path clip-path="url(#clip120)" d="M110.168 1620.16 Q106.557 1620.16 104.728 1623.73 Q102.922 1627.27 102.922 1634.4 Q102.922 1641.51 104.728 1645.07 Q106.557 1648.61 110.168 1648.61 Q113.802 1648.61 115.608 1645.07 Q117.436 1641.51 117.436 1634.4 Q117.436 1627.27 115.608 1623.73 Q113.802 1620.16 110.168 1620.16 M110.168 1616.46 Q115.978 1616.46 119.033 1621.07 Q122.112 1625.65 122.112 1634.4 Q122.112 1643.13 119.033 1647.73 Q115.978 1652.32 110.168 1652.32 Q104.358 1652.32 101.279 1647.73 Q98.2234 1643.13 98.2234 1634.4 Q98.2234 1625.65 101.279 1621.07 Q104.358 1616.46 110.168 1616.46 Z" fill="#000000" fill-rule="evenodd" fill-opacity="1" /><path clip-path="url(#clip120)" d="M140.33 1620.16 Q136.719 1620.16 134.89 1623.73 Q133.084 1627.27 133.084 1634.4 Q133.084 1641.51 134.89 1645.07 Q136.719 1648.61 140.33 1648.61 Q143.964 1648.61 145.769 1645.07 Q147.598 1641.51 147.598 1634.4 Q147.598 1627.27 145.769 1623.73 Q143.964 1620.16 140.33 1620.16 M140.33 1616.46 Q146.14 1616.46 149.195 1621.07 Q152.274 1625.65 152.274 1634.4 Q152.274 1643.13 149.195 1647.73 Q146.14 1652.32 140.33 1652.32 Q134.519 1652.32 131.441 1647.73 Q128.385 1643.13 128.385 1634.4 Q128.385 1625.65 131.441 1621.07 Q134.519 1616.46 140.33 1616.46 Z" fill="#000000" fill-rule="evenodd" fill-opacity="1" /><path clip-path="url(#clip120)" d="M65.9319 1236.25 Q62.3208 1236.25 60.4921 1239.81 Q58.6865 1243.35 58.6865 1250.48 Q58.6865 1257.59 60.4921 1261.15 Q62.3208 1264.69 65.9319 1264.69 Q69.5661 1264.69 71.3717 1261.15 Q73.2004 1257.59 73.2004 1250.48 Q73.2004 1243.35 71.3717 1239.81 Q69.5661 1236.25 65.9319 1236.25 M65.9319 1232.54 Q71.742 1232.54 74.7976 1237.15 Q77.8763 1241.73 77.8763 1250.48 Q77.8763 1259.21 74.7976 1263.81 Q71.742 1268.4 65.9319 1268.4 Q60.1217 1268.4 57.043 1263.81 Q53.9875 1259.21 53.9875 1250.48 Q53.9875 1241.73 57.043 1237.15 Q60.1217 1232.54 65.9319 1232.54 Z" fill="#000000" fill-rule="evenodd" fill-opacity="1" /><path clip-path="url(#clip120)" d="M86.0938 1261.85 L90.978 1261.85 L90.978 1267.73 L86.0938 1267.73 L86.0938 1261.85 Z" fill="#000000" fill-rule="evenodd" fill-opacity="1" /><path clip-path="url(#clip120)" d="M105.191 1263.79 L121.51 1263.79 L121.51 1267.73 L99.566 1267.73 L99.566 1263.79 Q102.228 1261.04 106.811 1256.41 Q111.418 1251.75 112.598 1250.41 Q114.844 1247.89 115.723 1246.15 Q116.626 1244.39 116.626 1242.7 Q116.626 1239.95 114.682 1238.21 Q112.76 1236.48 109.658 1236.48 Q107.459 1236.48 105.006 1237.24 Q102.575 1238 99.7974 1239.56 L99.7974 1234.83 Q102.621 1233.7 105.075 1233.12 Q107.529 1232.54 109.566 1232.54 Q114.936 1232.54 118.131 1235.23 Q121.325 1237.91 121.325 1242.4 Q121.325 1244.53 120.515 1246.45 Q119.728 1248.35 117.621 1250.94 Q117.043 1251.62 113.941 1254.83 Q110.839 1258.03 105.191 1263.79 Z" fill="#000000" fill-rule="evenodd" fill-opacity="1" /><path clip-path="url(#clip120)" d="M131.371 1233.17 L149.728 1233.17 L149.728 1237.1 L135.654 1237.1 L135.654 1245.57 Q136.672 1245.23 137.691 1245.06 Q138.709 1244.88 139.728 1244.88 Q145.515 1244.88 148.894 1248.05 Q152.274 1251.22 152.274 1256.64 Q152.274 1262.22 148.802 1265.32 Q145.33 1268.4 139.01 1268.4 Q136.834 1268.4 134.566 1268.03 Q132.32 1267.66 129.913 1266.92 L129.913 1262.22 Q131.996 1263.35 134.219 1263.91 Q136.441 1264.46 138.918 1264.46 Q142.922 1264.46 145.26 1262.36 Q147.598 1260.25 147.598 1256.64 Q147.598 1253.03 145.26 1250.92 Q142.922 1248.81 138.918 1248.81 Q137.043 1248.81 135.168 1249.23 Q133.316 1249.65 131.371 1250.53 L131.371 1233.17 Z" fill="#000000" fill-rule="evenodd" fill-opacity="1" /><path clip-path="url(#clip120)" d="M64.9365 852.328 Q61.3254 852.328 59.4967 855.893 Q57.6912 859.435 57.6912 866.564 Q57.6912 873.671 59.4967 877.235 Q61.3254 880.777 64.9365 880.777 Q68.5707 880.777 70.3763 877.235 Q72.205 873.671 72.205 866.564 Q72.205 859.435 70.3763 855.893 Q68.5707 852.328 64.9365 852.328 M64.9365 848.624 Q70.7467 848.624 73.8022 853.231 Q76.8809 857.814 76.8809 866.564 Q76.8809 875.291 73.8022 879.897 Q70.7467 884.481 64.9365 884.481 Q59.1264 884.481 56.0477 879.897 Q52.9921 875.291 52.9921 866.564 Q52.9921 857.814 56.0477 853.231 Q59.1264 848.624 64.9365 848.624 Z" fill="#000000" fill-rule="evenodd" fill-opacity="1" /><path clip-path="url(#clip120)" d="M85.0984 877.93 L89.9827 877.93 L89.9827 883.809 L85.0984 883.809 L85.0984 877.93 Z" fill="#000000" fill-rule="evenodd" fill-opacity="1" /><path clip-path="url(#clip120)" d="M100.214 849.249 L118.57 849.249 L118.57 853.185 L104.496 853.185 L104.496 861.657 Q105.515 861.31 106.534 861.148 Q107.552 860.962 108.571 860.962 Q114.358 860.962 117.737 864.134 Q121.117 867.305 121.117 872.722 Q121.117 878.3 117.645 881.402 Q114.172 884.481 107.853 884.481 Q105.677 884.481 103.409 884.11 Q101.163 883.74 98.7558 882.999 L98.7558 878.3 Q100.839 879.434 103.061 879.99 Q105.284 880.546 107.76 880.546 Q111.765 880.546 114.103 878.439 Q116.441 876.333 116.441 872.722 Q116.441 869.11 114.103 867.004 Q111.765 864.897 107.76 864.897 Q105.885 864.897 104.01 865.314 Q102.159 865.731 100.214 866.61 L100.214 849.249 Z" fill="#000000" fill-rule="evenodd" fill-opacity="1" /><path clip-path="url(#clip120)" d="M140.33 852.328 Q136.719 852.328 134.89 855.893 Q133.084 859.435 133.084 866.564 Q133.084 873.671 134.89 877.235 Q136.719 880.777 140.33 880.777 Q143.964 880.777 145.769 877.235 Q147.598 873.671 147.598 866.564 Q147.598 859.435 145.769 855.893 Q143.964 852.328 140.33 852.328 M140.33 848.624 Q146.14 848.624 149.195 853.231 Q152.274 857.814 152.274 866.564 Q152.274 875.291 149.195 879.897 Q146.14 884.481 140.33 884.481 Q134.519 884.481 131.441 879.897 Q128.385 875.291 128.385 866.564 Q128.385 857.814 131.441 853.231 Q134.519 848.624 140.33 848.624 Z" fill="#000000" fill-rule="evenodd" fill-opacity="1" /><path clip-path="url(#clip120)" d="M65.9319 468.411 Q62.3208 468.411 60.4921 471.976 Q58.6865 475.517 58.6865 482.647 Q58.6865 489.753 60.4921 493.318 Q62.3208 496.86 65.9319 496.86 Q69.5661 496.86 71.3717 493.318 Q73.2004 489.753 73.2004 482.647 Q73.2004 475.517 71.3717 471.976 Q69.5661 468.411 65.9319 468.411 M65.9319 464.707 Q71.742 464.707 74.7976 469.314 Q77.8763 473.897 77.8763 482.647 Q77.8763 491.374 74.7976 495.98 Q71.742 500.563 65.9319 500.563 Q60.1217 500.563 57.043 495.98 Q53.9875 491.374 53.9875 482.647 Q53.9875 473.897 57.043 469.314 Q60.1217 464.707 65.9319 464.707 Z" fill="#000000" fill-rule="evenodd" fill-opacity="1" /><path clip-path="url(#clip120)" d="M86.0938 494.013 L90.978 494.013 L90.978 499.892 L86.0938 499.892 L86.0938 494.013 Z" fill="#000000" fill-rule="evenodd" fill-opacity="1" /><path clip-path="url(#clip120)" d="M99.9826 465.332 L122.205 465.332 L122.205 467.323 L109.658 499.892 L104.774 499.892 L116.58 469.267 L99.9826 469.267 L99.9826 465.332 Z" fill="#000000" fill-rule="evenodd" fill-opacity="1" /><path clip-path="url(#clip120)" d="M131.371 465.332 L149.728 465.332 L149.728 469.267 L135.654 469.267 L135.654 477.739 Q136.672 477.392 137.691 477.23 Q138.709 477.045 139.728 477.045 Q145.515 477.045 148.894 480.216 Q152.274 483.388 152.274 488.804 Q152.274 494.383 148.802 497.485 Q145.33 500.563 139.01 500.563 Q136.834 500.563 134.566 500.193 Q132.32 499.823 129.913 499.082 L129.913 494.383 Q131.996 495.517 134.219 496.073 Q136.441 496.628 138.918 496.628 Q142.922 496.628 145.26 494.522 Q147.598 492.415 147.598 488.804 Q147.598 485.193 145.26 483.087 Q142.922 480.98 138.918 480.98 Q137.043 480.98 135.168 481.397 Q133.316 481.813 131.371 482.693 L131.371 465.332 Z" fill="#000000" fill-rule="evenodd" fill-opacity="1" /><path clip-path="url(#clip120)" d="M55.7467 112.04 L63.3856 112.04 L63.3856 85.674 L55.0754 87.3407 L55.0754 83.0814 L63.3393 81.4148 L68.0152 81.4148 L68.0152 112.04 L75.654 112.04 L75.654 115.975 L55.7467 115.975 L55.7467 112.04 Z" fill="#000000" fill-rule="evenodd" fill-opacity="1" /><path clip-path="url(#clip120)" d="M85.0984 110.095 L89.9827 110.095 L89.9827 115.975 L85.0984 115.975 L85.0984 110.095 Z" fill="#000000" fill-rule="evenodd" fill-opacity="1" /><path clip-path="url(#clip120)" d="M110.168 84.4935 Q106.557 84.4935 104.728 88.0583 Q102.922 91.5999 102.922 98.7295 Q102.922 105.836 104.728 109.401 Q106.557 112.942 110.168 112.942 Q113.802 112.942 115.608 109.401 Q117.436 105.836 117.436 98.7295 Q117.436 91.5999 115.608 88.0583 Q113.802 84.4935 110.168 84.4935 M110.168 80.7898 Q115.978 80.7898 119.033 85.3962 Q122.112 89.9795 122.112 98.7295 Q122.112 107.456 119.033 112.063 Q115.978 116.646 110.168 116.646 Q104.358 116.646 101.279 112.063 Q98.2234 107.456 98.2234 98.7295 Q98.2234 89.9795 101.279 85.3962 Q104.358 80.7898 110.168 80.7898 Z" fill="#000000" fill-rule="evenodd" fill-opacity="1" /><path clip-path="url(#clip120)" d="M140.33 84.4935 Q136.719 84.4935 134.89 88.0583 Q133.084 91.5999 133.084 98.7295 Q133.084 105.836 134.89 109.401 Q136.719 112.942 140.33 112.942 Q143.964 112.942 145.769 109.401 Q147.598 105.836 147.598 98.7295 Q147.598 91.5999 145.769 88.0583 Q143.964 84.4935 140.33 84.4935 M140.33 80.7898 Q146.14 80.7898 149.195 85.3962 Q152.274 89.9795 152.274 98.7295 Q152.274 107.456 149.195 112.063 Q146.14 116.646 140.33 116.646 Q134.519 116.646 131.441 112.063 Q128.385 107.456 128.385 98.7295 Q128.385 89.9795 131.441 85.3962 Q134.519 80.7898 140.33 80.7898 Z" fill="#000000" fill-rule="evenodd" fill-opacity="1" /><polyline clip-path="url(#clip122)" style="stroke:#009af9; stroke-linecap:round; stroke-linejoin:round; stroke-width:12; stroke-opacity:1; fill:none" points="232.382,98.6948 299.193,1107.41 366.003,1293.88 432.814,1403.26 499.625,1447.29 566.435,1491.49 633.246,1498.44 700.056,1516.34 766.867,1544.67 833.678,1559.55 900.488,1543.62 967.299,1544.16 1034.11,1554.8 1100.92,1572.17 1167.73,1566.72 1234.54,1598.04 1301.35,1585.86 1368.16,1584.83 1434.97,1574.67 1501.78,1589.24 1568.59,1594.65 1635.41,1603.96 1702.22,1595 1769.03,1603.71 1835.84,1618.77 1902.65,1622.82 "/>
<polyline clip-path="url(#clip122)" style="stroke:#e26f46; stroke-linecap:round; stroke-linejoin:round; stroke-width:12; stroke-opacity:1; fill:none" points="232.382,98.6948 299.193,279.973 366.003,339.866 432.814,382.91 499.625,422.411 566.435,461.273 633.246,495.083 700.056,532.05 766.867,564.361 833.678,598.073 900.488,628.777 967.299,661.064 1034.11,692.144 1100.92,722.862 1167.73,754.713 1234.54,786.015 1301.35,816.359 1368.16,848.814 1434.97,879.187 1501.78,910.306 1568.59,941.986 1635.41,973.249 1702.22,1003.55 1769.03,1031.59 1835.84,1062.26 1902.65,1097.48 "/>
<polyline clip-path="url(#clip122)" style="stroke:#3da44d; stroke-linecap:round; stroke-linejoin:round; stroke-width:12; stroke-opacity:1; fill:none" points="232.382,98.6948 299.193,589.854 366.003,899.629 432.814,1127.91 499.625,1295.59 566.435,1402.75 633.246,1479.41 700.056,1552.16 766.867,1585.78 833.678,1624.88 900.488,1648.04 967.299,1660.28 1034.11,1673.5 1100.92,1684.98 1167.73,1701.52 1234.54,1724.12 1301.35,1740.84 1368.16,1748.08 1434.97,1761.22 1501.78,1775.47 1568.59,1788.25 1635.41,1799.64 1702.22,1800.81 1769.03,1813.72 1835.84,1812.85 1902.65,1805.36 "/>
<polyline clip-path="url(#clip122)" style="stroke:#c271d2; stroke-linecap:round; stroke-linejoin:round; stroke-width:12; stroke-opacity:1; fill:none" points="232.382,98.6948 299.193,220.82 366.003,337.008 432.814,447.153 499.625,552.021 566.435,652.245 633.246,747.701 700.056,838.282 766.867,924.643 833.678,1006.66 900.488,1084.61 967.299,1158.7 1034.11,1228.41 1100.92,1293.43 1167.73,1354.23 1234.54,1411.96 1301.35,1466.76 1368.16,1518.66 1434.97,1568.17 1501.78,1614.65 1568.59,1617.53 1635.41,1619.98 1702.22,1621.96 1769.03,1623.5 1835.84,1625.22 1902.65,1627.19 "/>
<path clip-path="url(#clip120)" d="M1534.75 367.042 L1893.74 367.042 L1893.74 107.842 L1534.75 107.842  Z" fill="#ffffff" fill-rule="evenodd" fill-opacity="1"/>
<polyline clip-path="url(#clip120)" style="stroke:#000000; stroke-linecap:round; stroke-linejoin:round; stroke-width:4; stroke-opacity:1; fill:none" points="1534.75,367.042 1893.74,367.042 1893.74,107.842 1534.75,107.842 1534.75,367.042 "/>
<polyline clip-path="url(#clip120)" style="stroke:#009af9; stroke-linecap:round; stroke-linejoin:round; stroke-width:12; stroke-opacity:1; fill:none" points="1554.42,159.682 1672.45,159.682 "/>
<path clip-path="url(#clip120)" d="M1692.12 142.402 L1696.8 142.402 L1696.8 156.568 L1713.79 156.568 L1713.79 142.402 L1718.47 142.402 L1718.47 176.962 L1713.79 176.962 L1713.79 160.503 L1696.8 160.503 L1696.8 176.962 L1692.12 176.962 L1692.12 142.402 Z" fill="#000000" fill-rule="evenodd" fill-opacity="1" /><path clip-path="url(#clip120)" d="M1727.77 142.402 L1734.74 142.402 L1743.56 165.92 L1752.42 142.402 L1759.39 142.402 L1759.39 176.962 L1754.83 176.962 L1754.83 146.614 L1745.92 170.318 L1741.22 170.318 L1732.31 146.614 L1732.31 176.962 L1727.77 176.962 L1727.77 142.402 Z" fill="#000000" fill-rule="evenodd" fill-opacity="1" /><path clip-path="url(#clip120)" d="M1794.55 145.064 L1794.55 149.994 Q1792.19 147.795 1789.51 146.707 Q1786.85 145.619 1783.84 145.619 Q1777.91 145.619 1774.76 149.253 Q1771.61 152.864 1771.61 159.716 Q1771.61 166.545 1774.76 170.179 Q1777.91 173.79 1783.84 173.79 Q1786.85 173.79 1789.51 172.702 Q1792.19 171.614 1794.55 169.415 L1794.55 174.3 Q1792.1 175.966 1789.35 176.8 Q1786.61 177.633 1783.56 177.633 Q1775.71 177.633 1771.2 172.841 Q1766.68 168.026 1766.68 159.716 Q1766.68 151.383 1771.2 146.591 Q1775.71 141.777 1783.56 141.777 Q1786.66 141.777 1789.39 142.61 Q1792.15 143.42 1794.55 145.064 Z" fill="#000000" fill-rule="evenodd" fill-opacity="1" /><polyline clip-path="url(#clip120)" style="stroke:#e26f46; stroke-linecap:round; stroke-linejoin:round; stroke-width:12; stroke-opacity:1; fill:none" points="1554.42,211.522 1672.45,211.522 "/>
<path clip-path="url(#clip120)" d="M1708.51 212.598 Q1710.02 213.107 1711.43 214.774 Q1712.86 216.441 1714.3 219.357 L1719.05 228.802 L1714.02 228.802 L1709.6 219.936 Q1707.89 216.464 1706.27 215.329 Q1704.67 214.195 1701.89 214.195 L1696.8 214.195 L1696.8 228.802 L1692.12 228.802 L1692.12 194.242 L1702.68 194.242 Q1708.61 194.242 1711.52 196.718 Q1714.44 199.195 1714.44 204.195 Q1714.44 207.459 1712.91 209.612 Q1711.41 211.765 1708.51 212.598 M1696.8 198.084 L1696.8 210.353 L1702.68 210.353 Q1706.06 210.353 1707.77 208.802 Q1709.51 207.228 1709.51 204.195 Q1709.51 201.163 1707.77 199.635 Q1706.06 198.084 1702.68 198.084 L1696.8 198.084 Z" fill="#000000" fill-rule="evenodd" fill-opacity="1" /><path clip-path="url(#clip120)" d="M1734.69 198.848 L1728.35 216.047 L1741.06 216.047 L1734.69 198.848 M1732.05 194.242 L1737.36 194.242 L1750.53 228.802 L1745.67 228.802 L1742.52 219.936 L1726.94 219.936 L1723.79 228.802 L1718.86 228.802 L1732.05 194.242 Z" fill="#000000" fill-rule="evenodd" fill-opacity="1" /><path clip-path="url(#clip120)" d="M1752.19 213.917 L1764.67 213.917 L1764.67 217.714 L1752.19 217.714 L1752.19 213.917 Z" fill="#000000" fill-rule="evenodd" fill-opacity="1" /><path clip-path="url(#clip120)" d="M1771.64 194.242 L1776.31 194.242 L1776.31 208.408 L1793.3 208.408 L1793.3 194.242 L1797.98 194.242 L1797.98 228.802 L1793.3 228.802 L1793.3 212.343 L1776.31 212.343 L1776.31 228.802 L1771.64 228.802 L1771.64 194.242 Z" fill="#000000" fill-rule="evenodd" fill-opacity="1" /><path clip-path="url(#clip120)" d="M1807.29 194.242 L1814.25 194.242 L1823.07 217.76 L1831.94 194.242 L1838.91 194.242 L1838.91 228.802 L1834.35 228.802 L1834.35 198.454 L1825.43 222.158 L1820.73 222.158 L1811.82 198.454 L1811.82 228.802 L1807.29 228.802 L1807.29 194.242 Z" fill="#000000" fill-rule="evenodd" fill-opacity="1" /><path clip-path="url(#clip120)" d="M1874.07 196.904 L1874.07 201.834 Q1871.71 199.635 1869.02 198.547 Q1866.36 197.459 1863.35 197.459 Q1857.42 197.459 1854.28 201.093 Q1851.13 204.704 1851.13 211.556 Q1851.13 218.385 1854.28 222.019 Q1857.42 225.63 1863.35 225.63 Q1866.36 225.63 1869.02 224.542 Q1871.71 223.454 1874.07 221.255 L1874.07 226.14 Q1871.61 227.806 1868.86 228.64 Q1866.13 229.473 1863.07 229.473 Q1855.23 229.473 1850.71 224.681 Q1846.2 219.866 1846.2 211.556 Q1846.2 203.223 1850.71 198.431 Q1855.23 193.617 1863.07 193.617 Q1866.17 193.617 1868.91 194.45 Q1871.66 195.26 1874.07 196.904 Z" fill="#000000" fill-rule="evenodd" fill-opacity="1" /><polyline clip-path="url(#clip120)" style="stroke:#3da44d; stroke-linecap:round; stroke-linejoin:round; stroke-width:12; stroke-opacity:1; fill:none" points="1554.42,263.362 1672.45,263.362 "/>
<path clip-path="url(#clip120)" d="M1708.51 264.438 Q1710.02 264.947 1711.43 266.614 Q1712.86 268.281 1714.3 271.197 L1719.05 280.642 L1714.02 280.642 L1709.6 271.776 Q1707.89 268.304 1706.27 267.169 Q1704.67 266.035 1701.89 266.035 L1696.8 266.035 L1696.8 280.642 L1692.12 280.642 L1692.12 246.082 L1702.68 246.082 Q1708.61 246.082 1711.52 248.558 Q1714.44 251.035 1714.44 256.035 Q1714.44 259.299 1712.91 261.452 Q1711.41 263.605 1708.51 264.438 M1696.8 249.924 L1696.8 262.193 L1702.68 262.193 Q1706.06 262.193 1707.77 260.642 Q1709.51 259.068 1709.51 256.035 Q1709.51 253.003 1707.77 251.475 Q1706.06 249.924 1702.68 249.924 L1696.8 249.924 Z" fill="#000000" fill-rule="evenodd" fill-opacity="1" /><path clip-path="url(#clip120)" d="M1734.69 250.688 L1728.35 267.887 L1741.06 267.887 L1734.69 250.688 M1732.05 246.082 L1737.36 246.082 L1750.53 280.642 L1745.67 280.642 L1742.52 271.776 L1726.94 271.776 L1723.79 280.642 L1718.86 280.642 L1732.05 246.082 Z" fill="#000000" fill-rule="evenodd" fill-opacity="1" /><path clip-path="url(#clip120)" d="M1755.57 246.082 L1762.54 246.082 L1771.36 269.6 L1780.23 246.082 L1787.19 246.082 L1787.19 280.642 L1782.63 280.642 L1782.63 250.294 L1773.72 273.998 L1769.02 273.998 L1760.11 250.294 L1760.11 280.642 L1755.57 280.642 L1755.57 246.082 Z" fill="#000000" fill-rule="evenodd" fill-opacity="1" /><polyline clip-path="url(#clip120)" style="stroke:#c271d2; stroke-linecap:round; stroke-linejoin:round; stroke-width:12; stroke-opacity:1; fill:none" points="1554.42,315.202 1672.45,315.202 "/>
<path clip-path="url(#clip120)" d="M1696.8 301.764 L1696.8 314.75 L1702.68 314.75 Q1705.94 314.75 1707.73 313.06 Q1709.51 311.371 1709.51 308.246 Q1709.51 305.144 1707.73 303.454 Q1705.94 301.764 1702.68 301.764 L1696.8 301.764 M1692.12 297.922 L1702.68 297.922 Q1708.49 297.922 1711.45 300.56 Q1714.44 303.176 1714.44 308.246 Q1714.44 313.361 1711.45 315.977 Q1708.49 318.593 1702.68 318.593 L1696.8 318.593 L1696.8 332.482 L1692.12 332.482 L1692.12 297.922 Z" fill="#000000" fill-rule="evenodd" fill-opacity="1" /><path clip-path="url(#clip120)" d="M1720.71 297.922 L1742.56 297.922 L1742.56 301.857 L1725.39 301.857 L1725.39 312.088 L1741.85 312.088 L1741.85 316.023 L1725.39 316.023 L1725.39 328.546 L1742.98 328.546 L1742.98 332.482 L1720.71 332.482 L1720.71 297.922 Z" fill="#000000" fill-rule="evenodd" fill-opacity="1" /><path clip-path="url(#clip120)" d="M1750.67 297.922 L1755.34 297.922 L1755.34 312.088 L1772.33 312.088 L1772.33 297.922 L1777.01 297.922 L1777.01 332.482 L1772.33 332.482 L1772.33 316.023 L1755.34 316.023 L1755.34 332.482 L1750.67 332.482 L1750.67 297.922 Z" fill="#000000" fill-rule="evenodd" fill-opacity="1" /><path clip-path="url(#clip120)" d="M1786.31 297.922 L1793.28 297.922 L1802.1 321.44 L1810.97 297.922 L1817.93 297.922 L1817.93 332.482 L1813.37 332.482 L1813.37 302.134 L1804.46 325.838 L1799.76 325.838 L1790.85 302.134 L1790.85 332.482 L1786.31 332.482 L1786.31 297.922 Z" fill="#000000" fill-rule="evenodd" fill-opacity="1" /><path clip-path="url(#clip120)" d="M1853.1 300.584 L1853.1 305.514 Q1850.73 303.315 1848.05 302.227 Q1845.39 301.139 1842.38 301.139 Q1836.45 301.139 1833.3 304.773 Q1830.16 308.384 1830.16 315.236 Q1830.16 322.065 1833.3 325.699 Q1836.45 329.31 1842.38 329.31 Q1845.39 329.31 1848.05 328.222 Q1850.73 327.134 1853.1 324.935 L1853.1 329.82 Q1850.64 331.486 1847.89 332.32 Q1845.16 333.153 1842.1 333.153 Q1834.25 333.153 1829.74 328.361 Q1825.23 323.546 1825.23 315.236 Q1825.23 306.903 1829.74 302.111 Q1834.25 297.297 1842.1 297.297 Q1845.2 297.297 1847.93 298.13 Q1850.69 298.94 1853.1 300.584 Z" fill="#000000" fill-rule="evenodd" fill-opacity="1" /></svg>
