<?xml version="1.0" encoding="utf-8"?>
<svg xmlns="http://www.w3.org/2000/svg" xmlns:xlink="http://www.w3.org/1999/xlink" width="500" height="500" viewBox="0 0 2000 2000">
<defs>
  <clipPath id="clip520">
    <rect x="0" y="0" width="2000" height="2000"/>
  </clipPath>
</defs>
<path clip-path="url(#clip520)" d="M0 2000 L2000 2000 L2000 0 L0 0  Z" fill="#ffffff" fill-rule="evenodd" fill-opacity="1"/>
<defs>
  <clipPath id="clip521">
    <rect x="400" y="200" width="1401" height="1401"/>
  </clipPath>
</defs>
<path clip-path="url(#clip520)" d="M182.274 1865.17 L1952.76 1865.17 L1952.76 47.2441 L182.274 47.2441  Z" fill="#ffffff" fill-rule="evenodd" fill-opacity="1"/>
<defs>
  <clipPath id="clip522">
    <rect x="182" y="47" width="1771" height="1819"/>
  </clipPath>
</defs>
<polyline clip-path="url(#clip522)" style="stroke:#000000; stroke-linecap:round; stroke-linejoin:round; stroke-width:2; stroke-opacity:0.1; fill:none" points="499.625,1865.17 499.625,47.2441 "/>
<polyline clip-path="url(#clip522)" style="stroke:#000000; stroke-linecap:round; stroke-linejoin:round; stroke-width:2; stroke-opacity:0.1; fill:none" points="833.678,1865.17 833.678,47.2441 "/>
<polyline clip-path="url(#clip522)" style="stroke:#000000; stroke-linecap:round; stroke-linejoin:round; stroke-width:2; stroke-opacity:0.1; fill:none" points="1167.73,1865.17 1167.73,47.2441 "/>
<polyline clip-path="url(#clip522)" style="stroke:#000000; stroke-linecap:round; stroke-linejoin:round; stroke-width:2; stroke-opacity:0.1; fill:none" points="1501.78,1865.17 1501.78,47.2441 "/>
<polyline clip-path="url(#clip522)" style="stroke:#000000; stroke-linecap:round; stroke-linejoin:round; stroke-width:2; stroke-opacity:0.1; fill:none" points="1835.84,1865.17 1835.84,47.2441 "/>
<polyline clip-path="url(#clip520)" style="stroke:#000000; stroke-linecap:round; stroke-linejoin:round; stroke-width:4; stroke-opacity:1; fill:none" points="182.274,1865.17 1952.76,1865.17 "/>
<polyline clip-path="url(#clip520)" style="stroke:#000000; stroke-linecap:round; stroke-linejoin:round; stroke-width:4; stroke-opacity:1; fill:none" points="499.625,1865.17 499.625,1846.27 "/>
<polyline clip-path="url(#clip520)" style="stroke:#000000; stroke-linecap:round; stroke-linejoin:round; stroke-width:4; stroke-opacity:1; fill:none" points="833.678,1865.17 833.678,1846.27 "/>
<polyline clip-path="url(#clip520)" style="stroke:#000000; stroke-linecap:round; stroke-linejoin:round; stroke-width:4; stroke-opacity:1; fill:none" points="1167.73,1865.17 1167.73,1846.27 "/>
<polyline clip-path="url(#clip520)" style="stroke:#000000; stroke-linecap:round; stroke-linejoin:round; stroke-width:4; stroke-opacity:1; fill:none" points="1501.78,1865.17 1501.78,1846.27 "/>
<polyline clip-path="url(#clip520)" style="stroke:#000000; stroke-linecap:round; stroke-linejoin:round; stroke-width:4; stroke-opacity:1; fill:none" points="1835.84,1865.17 1835.84,1846.27 "/>
<path clip-path="url(#clip520)" d="M489.902 1889.81 L508.259 1889.81 L508.259 1893.74 L494.185 1893.74 L494.185 1902.22 Q495.203 1901.87 496.222 1901.71 Q497.24 1901.52 498.259 1901.52 Q504.046 1901.52 507.425 1904.69 Q510.805 1907.86 510.805 1913.28 Q510.805 1918.86 507.333 1921.96 Q503.861 1925.04 497.541 1925.04 Q495.365 1925.04 493.097 1924.67 Q490.851 1924.3 488.444 1923.56 L488.444 1918.86 Q490.527 1919.99 492.75 1920.55 Q494.972 1921.1 497.449 1921.1 Q501.453 1921.1 503.791 1919 Q506.129 1916.89 506.129 1913.28 Q506.129 1909.67 503.791 1907.56 Q501.453 1905.46 497.449 1905.46 Q495.574 1905.46 493.699 1905.87 Q491.847 1906.29 489.902 1907.17 L489.902 1889.81 Z" fill="#000000" fill-rule="evenodd" fill-opacity="1" /><path clip-path="url(#clip520)" d="M808.365 1920.43 L816.004 1920.43 L816.004 1894.07 L807.694 1895.73 L807.694 1891.47 L815.958 1889.81 L820.634 1889.81 L820.634 1920.43 L828.273 1920.43 L828.273 1924.37 L808.365 1924.37 L808.365 1920.43 Z" fill="#000000" fill-rule="evenodd" fill-opacity="1" /><path clip-path="url(#clip520)" d="M847.717 1892.89 Q844.106 1892.89 842.277 1896.45 Q840.472 1899.99 840.472 1907.12 Q840.472 1914.23 842.277 1917.79 Q844.106 1921.34 847.717 1921.34 Q851.351 1921.34 853.157 1917.79 Q854.985 1914.23 854.985 1907.12 Q854.985 1899.99 853.157 1896.45 Q851.351 1892.89 847.717 1892.89 M847.717 1889.18 Q853.527 1889.18 856.583 1893.79 Q859.661 1898.37 859.661 1907.12 Q859.661 1915.85 856.583 1920.46 Q853.527 1925.04 847.717 1925.04 Q841.907 1925.04 838.828 1920.46 Q835.773 1915.85 835.773 1907.12 Q835.773 1898.37 838.828 1893.79 Q841.907 1889.18 847.717 1889.18 Z" fill="#000000" fill-rule="evenodd" fill-opacity="1" /><path clip-path="url(#clip520)" d="M1142.92 1920.43 L1150.56 1920.43 L1150.56 1894.07 L1142.24 1895.73 L1142.24 1891.47 L1150.51 1889.81 L1155.18 1889.81 L1155.18 1920.43 L1162.82 1920.43 L1162.82 1924.37 L1142.92 1924.37 L1142.92 1920.43 Z" fill="#000000" fill-rule="evenodd" fill-opacity="1" /><path clip-path="url(#clip520)" d="M1172.31 1889.81 L1190.67 1889.81 L1190.67 1893.74 L1176.6 1893.74 L1176.6 1902.22 Q1177.62 1901.87 1178.63 1901.71 Q1179.65 1901.52 1180.67 1901.52 Q1186.46 1901.52 1189.84 1904.69 Q1193.22 1907.86 1193.22 1913.28 Q1193.22 1918.86 1189.74 1921.96 Q1186.27 1925.04 1179.95 1925.04 Q1177.78 1925.04 1175.51 1924.67 Q1173.26 1924.3 1170.86 1923.56 L1170.86 1918.86 Q1172.94 1919.99 1175.16 1920.55 Q1177.38 1921.1 1179.86 1921.1 Q1183.87 1921.1 1186.2 1919 Q1188.54 1916.89 1188.54 1913.28 Q1188.54 1909.67 1186.2 1907.56 Q1183.87 1905.46 1179.86 1905.46 Q1177.99 1905.46 1176.11 1905.87 Q1174.26 1906.29 1172.31 1907.17 L1172.31 1889.81 Z" fill="#000000" fill-rule="evenodd" fill-opacity="1" /><path clip-path="url(#clip520)" d="M1480.56 1920.43 L1496.88 1920.43 L1496.88 1924.37 L1474.93 1924.37 L1474.93 1920.43 Q1477.59 1917.68 1482.18 1913.05 Q1486.78 1908.4 1487.96 1907.05 Q1490.21 1904.53 1491.09 1902.79 Q1491.99 1901.03 1491.99 1899.34 Q1491.99 1896.59 1490.05 1894.85 Q1488.13 1893.12 1485.02 1893.12 Q1482.83 1893.12 1480.37 1893.88 Q1477.94 1894.65 1475.16 1896.2 L1475.16 1891.47 Q1477.99 1890.34 1480.44 1889.76 Q1482.9 1889.18 1484.93 1889.18 Q1490.3 1889.18 1493.5 1891.87 Q1496.69 1894.55 1496.69 1899.04 Q1496.69 1901.17 1495.88 1903.09 Q1495.09 1904.99 1492.99 1907.59 Q1492.41 1908.26 1489.31 1911.47 Q1486.21 1914.67 1480.56 1920.43 Z" fill="#000000" fill-rule="evenodd" fill-opacity="1" /><path clip-path="url(#clip520)" d="M1516.69 1892.89 Q1513.08 1892.89 1511.25 1896.45 Q1509.45 1899.99 1509.45 1907.12 Q1509.45 1914.23 1511.25 1917.79 Q1513.08 1921.34 1516.69 1921.34 Q1520.33 1921.34 1522.13 1917.79 Q1523.96 1914.23 1523.96 1907.12 Q1523.96 1899.99 1522.13 1896.45 Q1520.33 1892.89 1516.69 1892.89 M1516.69 1889.18 Q1522.5 1889.18 1525.56 1893.79 Q1528.64 1898.37 1528.64 1907.12 Q1528.64 1915.85 1525.56 1920.46 Q1522.5 1925.04 1516.69 1925.04 Q1510.88 1925.04 1507.8 1920.46 Q1504.75 1915.85 1504.75 1907.12 Q1504.75 1898.37 1507.8 1893.79 Q1510.88 1889.18 1516.69 1889.18 Z" fill="#000000" fill-rule="evenodd" fill-opacity="1" /><path clip-path="url(#clip520)" d="M1815.11 1920.43 L1831.43 1920.43 L1831.43 1924.37 L1809.48 1924.37 L1809.48 1920.43 Q1812.15 1917.68 1816.73 1913.05 Q1821.34 1908.4 1822.52 1907.05 Q1824.76 1904.53 1825.64 1902.79 Q1826.54 1901.03 1826.54 1899.34 Q1826.54 1896.59 1824.6 1894.85 Q1822.68 1893.12 1819.58 1893.12 Q1817.38 1893.12 1814.92 1893.88 Q1812.49 1894.65 1809.71 1896.2 L1809.71 1891.47 Q1812.54 1890.34 1814.99 1889.76 Q1817.45 1889.18 1819.48 1889.18 Q1824.85 1889.18 1828.05 1891.87 Q1831.24 1894.55 1831.24 1899.04 Q1831.24 1901.17 1830.43 1903.09 Q1829.65 1904.99 1827.54 1907.59 Q1826.96 1908.26 1823.86 1911.47 Q1820.76 1914.67 1815.11 1920.43 Z" fill="#000000" fill-rule="evenodd" fill-opacity="1" /><path clip-path="url(#clip520)" d="M1841.29 1889.81 L1859.65 1889.81 L1859.65 1893.74 L1845.57 1893.74 L1845.57 1902.22 Q1846.59 1901.87 1847.61 1901.71 Q1848.63 1901.52 1849.65 1901.52 Q1855.43 1901.52 1858.81 1904.69 Q1862.19 1907.86 1862.19 1913.28 Q1862.19 1918.86 1858.72 1921.96 Q1855.25 1925.04 1848.93 1925.04 Q1846.75 1925.04 1844.48 1924.67 Q1842.24 1924.3 1839.83 1923.56 L1839.83 1918.86 Q1841.91 1919.99 1844.14 1920.55 Q1846.36 1921.1 1848.83 1921.1 Q1852.84 1921.1 1855.18 1919 Q1857.52 1916.89 1857.52 1913.28 Q1857.52 1909.67 1855.18 1907.56 Q1852.84 1905.46 1848.83 1905.46 Q1846.96 1905.46 1845.08 1905.87 Q1843.23 1906.29 1841.29 1907.17 L1841.29 1889.81 Z" fill="#000000" fill-rule="evenodd" fill-opacity="1" /><polyline clip-path="url(#clip522)" style="stroke:#000000; stroke-linecap:round; stroke-linejoin:round; stroke-width:2; stroke-opacity:0.1; fill:none" points="182.274,1743.44 1952.76,1743.44 "/>
<polyline clip-path="url(#clip522)" style="stroke:#000000; stroke-linecap:round; stroke-linejoin:round; stroke-width:2; stroke-opacity:0.1; fill:none" points="182.274,1332.25 1952.76,1332.25 "/>
<polyline clip-path="url(#clip522)" style="stroke:#000000; stroke-linecap:round; stroke-linejoin:round; stroke-width:2; stroke-opacity:0.1; fill:none" points="182.274,921.066 1952.76,921.066 "/>
<polyline clip-path="url(#clip522)" style="stroke:#000000; stroke-linecap:round; stroke-linejoin:round; stroke-width:2; stroke-opacity:0.1; fill:none" points="182.274,509.88 1952.76,509.88 "/>
<polyline clip-path="url(#clip522)" style="stroke:#000000; stroke-linecap:round; stroke-linejoin:round; stroke-width:2; stroke-opacity:0.1; fill:none" points="182.274,98.6948 1952.76,98.6948 "/>
<polyline clip-path="url(#clip520)" style="stroke:#000000; stroke-linecap:round; stroke-linejoin:round; stroke-width:4; stroke-opacity:1; fill:none" points="182.274,1865.17 182.274,47.2441 "/>
<polyline clip-path="url(#clip520)" style="stroke:#000000; stroke-linecap:round; stroke-linejoin:round; stroke-width:4; stroke-opacity:1; fill:none" points="182.274,1743.44 201.172,1743.44 "/>
<polyline clip-path="url(#clip520)" style="stroke:#000000; stroke-linecap:round; stroke-linejoin:round; stroke-width:4; stroke-opacity:1; fill:none" points="182.274,1332.25 201.172,1332.25 "/>
<polyline clip-path="url(#clip520)" style="stroke:#000000; stroke-linecap:round; stroke-linejoin:round; stroke-width:4; stroke-opacity:1; fill:none" points="182.274,921.066 201.172,921.066 "/>
<polyline clip-path="url(#clip520)" style="stroke:#000000; stroke-linecap:round; stroke-linejoin:round; stroke-width:4; stroke-opacity:1; fill:none" points="182.274,509.88 201.172,509.88 "/>
<polyline clip-path="url(#clip520)" style="stroke:#000000; stroke-linecap:round; stroke-linejoin:round; stroke-width:4; stroke-opacity:1; fill:none" points="182.274,98.6948 201.172,98.6948 "/>
<path clip-path="url(#clip520)" d="M64.9365 1729.24 Q61.3254 1729.24 59.4967 1732.8 Q57.6912 1736.34 57.6912 1743.47 Q57.6912 1750.58 59.4967 1754.14 Q61.3254 1757.68 64.9365 1757.68 Q68.5707 1757.68 70.3763 1754.14 Q72.205 1750.58 72.205 1743.47 Q72.205 1736.34 70.3763 1732.8 Q68.5707 1729.24 64.9365 1729.24 M64.9365 1725.53 Q70.7467 1725.53 73.8022 1730.14 Q76.8809 1734.72 76.8809 1743.47 Q76.8809 1752.2 73.8022 1756.81 Q70.7467 1761.39 64.9365 1761.39 Q59.1264 1761.39 56.0477 1756.81 Q52.9921 1752.2 52.9921 1743.47 Q52.9921 1734.72 56.0477 1730.14 Q59.1264 1725.53 64.9365 1725.53 Z" fill="#000000" fill-rule="evenodd" fill-opacity="1" /><path clip-path="url(#clip520)" d="M85.0984 1754.84 L89.9827 1754.84 L89.9827 1760.72 L85.0984 1760.72 L85.0984 1754.84 Z" fill="#000000" fill-rule="evenodd" fill-opacity="1" /><path clip-path="url(#clip520)" d="M110.168 1729.24 Q106.557 1729.24 104.728 1732.8 Q102.922 1736.34 102.922 1743.47 Q102.922 1750.58 104.728 1754.14 Q106.557 1757.68 110.168 1757.68 Q113.802 1757.68 115.608 1754.14 Q117.436 1750.58 117.436 1743.47 Q117.436 1736.34 115.608 1732.8 Q113.802 1729.24 110.168 1729.24 M110.168 1725.53 Q115.978 1725.53 119.033 1730.14 Q122.112 1734.72 122.112 1743.47 Q122.112 1752.2 119.033 1756.81 Q115.978 1761.39 110.168 1761.39 Q104.358 1761.39 101.279 1756.81 Q98.2234 1752.2 98.2234 1743.47 Q98.2234 1734.72 101.279 1730.14 Q104.358 1725.53 110.168 1725.53 Z" fill="#000000" fill-rule="evenodd" fill-opacity="1" /><path clip-path="url(#clip520)" d="M140.33 1729.24 Q136.719 1729.24 134.89 1732.8 Q133.084 1736.34 133.084 1743.47 Q133.084 1750.58 134.89 1754.14 Q136.719 1757.68 140.33 1757.68 Q143.964 1757.68 145.769 1754.14 Q147.598 1750.58 147.598 1743.47 Q147.598 1736.34 145.769 1732.8 Q143.964 1729.24 140.33 1729.24 M140.33 1725.53 Q146.14 1725.53 149.195 1730.14 Q152.274 1734.72 152.274 1743.47 Q152.274 1752.2 149.195 1756.81 Q146.14 1761.39 140.33 1761.39 Q134.519 1761.39 131.441 1756.81 Q128.385 1752.2 128.385 1743.47 Q128.385 1734.72 131.441 1730.14 Q134.519 1725.53 140.33 1725.53 Z" fill="#000000" fill-rule="evenodd" fill-opacity="1" /><path clip-path="url(#clip520)" d="M65.9319 1318.05 Q62.3208 1318.05 60.4921 1321.62 Q58.6865 1325.16 58.6865 1332.29 Q58.6865 1339.39 60.4921 1342.96 Q62.3208 1346.5 65.9319 1346.5 Q69.5661 1346.5 71.3717 1342.96 Q73.2004 1339.39 73.2004 1332.29 Q73.2004 1325.16 71.3717 1321.62 Q69.5661 1318.05 65.9319 1318.05 M65.9319 1314.35 Q71.742 1314.35 74.7976 1318.95 Q77.8763 1323.54 77.8763 1332.29 Q77.8763 1341.01 74.7976 1345.62 Q71.742 1350.2 65.9319 1350.2 Q60.1217 1350.2 57.043 1345.62 Q53.9875 1341.01 53.9875 1332.29 Q53.9875 1323.54 57.043 1318.95 Q60.1217 1314.35 65.9319 1314.35 Z" fill="#000000" fill-rule="evenodd" fill-opacity="1" /><path clip-path="url(#clip520)" d="M86.0938 1343.65 L90.978 1343.65 L90.978 1349.53 L86.0938 1349.53 L86.0938 1343.65 Z" fill="#000000" fill-rule="evenodd" fill-opacity="1" /><path clip-path="url(#clip520)" d="M105.191 1345.6 L121.51 1345.6 L121.51 1349.53 L99.566 1349.53 L99.566 1345.6 Q102.228 1342.84 106.811 1338.21 Q111.418 1333.56 112.598 1332.22 Q114.844 1329.69 115.723 1327.96 Q116.626 1326.2 116.626 1324.51 Q116.626 1321.75 114.682 1320.02 Q112.76 1318.28 109.658 1318.28 Q107.459 1318.28 105.006 1319.05 Q102.575 1319.81 99.7974 1321.36 L99.7974 1316.64 Q102.621 1315.5 105.075 1314.93 Q107.529 1314.35 109.566 1314.35 Q114.936 1314.35 118.131 1317.03 Q121.325 1319.72 121.325 1324.21 Q121.325 1326.34 120.515 1328.26 Q119.728 1330.16 117.621 1332.75 Q117.043 1333.42 113.941 1336.64 Q110.839 1339.83 105.191 1345.6 Z" fill="#000000" fill-rule="evenodd" fill-opacity="1" /><path clip-path="url(#clip520)" d="M131.371 1314.97 L149.728 1314.97 L149.728 1318.91 L135.654 1318.91 L135.654 1327.38 Q136.672 1327.03 137.691 1326.87 Q138.709 1326.68 139.728 1326.68 Q145.515 1326.68 148.894 1329.86 Q152.274 1333.03 152.274 1338.44 Q152.274 1344.02 148.802 1347.12 Q145.33 1350.2 139.01 1350.2 Q136.834 1350.2 134.566 1349.83 Q132.32 1349.46 129.913 1348.72 L129.913 1344.02 Q131.996 1345.16 134.219 1345.71 Q136.441 1346.27 138.918 1346.27 Q142.922 1346.27 145.26 1344.16 Q147.598 1342.05 147.598 1338.44 Q147.598 1334.83 145.26 1332.73 Q142.922 1330.62 138.918 1330.62 Q137.043 1330.62 135.168 1331.04 Q133.316 1331.45 131.371 1332.33 L131.371 1314.97 Z" fill="#000000" fill-rule="evenodd" fill-opacity="1" /><path clip-path="url(#clip520)" d="M64.9365 906.865 Q61.3254 906.865 59.4967 910.429 Q57.6912 913.971 57.6912 921.101 Q57.6912 928.207 59.4967 931.772 Q61.3254 935.314 64.9365 935.314 Q68.5707 935.314 70.3763 931.772 Q72.205 928.207 72.205 921.101 Q72.205 913.971 70.3763 910.429 Q68.5707 906.865 64.9365 906.865 M64.9365 903.161 Q70.7467 903.161 73.8022 907.767 Q76.8809 912.351 76.8809 921.101 Q76.8809 929.827 73.8022 934.434 Q70.7467 939.017 64.9365 939.017 Q59.1264 939.017 56.0477 934.434 Q52.9921 929.827 52.9921 921.101 Q52.9921 912.351 56.0477 907.767 Q59.1264 903.161 64.9365 903.161 Z" fill="#000000" fill-rule="evenodd" fill-opacity="1" /><path clip-path="url(#clip520)" d="M85.0984 932.466 L89.9827 932.466 L89.9827 938.346 L85.0984 938.346 L85.0984 932.466 Z" fill="#000000" fill-rule="evenodd" fill-opacity="1" /><path clip-path="url(#clip520)" d="M100.214 903.786 L118.57 903.786 L118.57 907.721 L104.496 907.721 L104.496 916.193 Q105.515 915.846 106.534 915.684 Q107.552 915.499 108.571 915.499 Q114.358 915.499 117.737 918.67 Q121.117 921.841 121.117 927.258 Q121.117 932.837 117.645 935.939 Q114.172 939.017 107.853 939.017 Q105.677 939.017 103.409 938.647 Q101.163 938.276 98.7558 937.536 L98.7558 932.837 Q100.839 933.971 103.061 934.527 Q105.284 935.082 107.76 935.082 Q111.765 935.082 114.103 932.976 Q116.441 930.869 116.441 927.258 Q116.441 923.647 114.103 921.54 Q111.765 919.434 107.76 919.434 Q105.885 919.434 104.01 919.851 Q102.159 920.267 100.214 921.147 L100.214 903.786 Z" fill="#000000" fill-rule="evenodd" fill-opacity="1" /><path clip-path="url(#clip520)" d="M140.33 906.865 Q136.719 906.865 134.89 910.429 Q133.084 913.971 133.084 921.101 Q133.084 928.207 134.89 931.772 Q136.719 935.314 140.33 935.314 Q143.964 935.314 145.769 931.772 Q147.598 928.207 147.598 921.101 Q147.598 913.971 145.769 910.429 Q143.964 906.865 140.33 906.865 M140.33 903.161 Q146.14 903.161 149.195 907.767 Q152.274 912.351 152.274 921.101 Q152.274 929.827 149.195 934.434 Q146.14 939.017 140.33 939.017 Q134.519 939.017 131.441 934.434 Q128.385 929.827 128.385 921.101 Q128.385 912.351 131.441 907.767 Q134.519 903.161 140.33 903.161 Z" fill="#000000" fill-rule="evenodd" fill-opacity="1" /><path clip-path="url(#clip520)" d="M65.9319 495.679 Q62.3208 495.679 60.4921 499.244 Q58.6865 502.785 58.6865 509.915 Q58.6865 517.022 60.4921 520.586 Q62.3208 524.128 65.9319 524.128 Q69.5661 524.128 71.3717 520.586 Q73.2004 517.022 73.2004 509.915 Q73.2004 502.785 71.3717 499.244 Q69.5661 495.679 65.9319 495.679 M65.9319 491.975 Q71.742 491.975 74.7976 496.582 Q77.8763 501.165 77.8763 509.915 Q77.8763 518.642 74.7976 523.248 Q71.742 527.832 65.9319 527.832 Q60.1217 527.832 57.043 523.248 Q53.9875 518.642 53.9875 509.915 Q53.9875 501.165 57.043 496.582 Q60.1217 491.975 65.9319 491.975 Z" fill="#000000" fill-rule="evenodd" fill-opacity="1" /><path clip-path="url(#clip520)" d="M86.0938 521.281 L90.978 521.281 L90.978 527.16 L86.0938 527.16 L86.0938 521.281 Z" fill="#000000" fill-rule="evenodd" fill-opacity="1" /><path clip-path="url(#clip520)" d="M99.9826 492.6 L122.205 492.6 L122.205 494.591 L109.658 527.16 L104.774 527.16 L116.58 496.536 L99.9826 496.536 L99.9826 492.6 Z" fill="#000000" fill-rule="evenodd" fill-opacity="1" /><path clip-path="url(#clip520)" d="M131.371 492.6 L149.728 492.6 L149.728 496.536 L135.654 496.536 L135.654 505.008 Q136.672 504.66 137.691 504.498 Q138.709 504.313 139.728 504.313 Q145.515 504.313 148.894 507.485 Q152.274 510.656 152.274 516.072 Q152.274 521.651 148.802 524.753 Q145.33 527.832 139.01 527.832 Q136.834 527.832 134.566 527.461 Q132.32 527.091 129.913 526.35 L129.913 521.651 Q131.996 522.785 134.219 523.341 Q136.441 523.896 138.918 523.896 Q142.922 523.896 145.26 521.79 Q147.598 519.684 147.598 516.072 Q147.598 512.461 145.26 510.355 Q142.922 508.248 138.918 508.248 Q137.043 508.248 135.168 508.665 Q133.316 509.082 131.371 509.961 L131.371 492.6 Z" fill="#000000" fill-rule="evenodd" fill-opacity="1" /><path clip-path="url(#clip520)" d="M55.7467 112.04 L63.3856 112.04 L63.3856 85.674 L55.0754 87.3407 L55.0754 83.0814 L63.3393 81.4148 L68.0152 81.4148 L68.0152 112.04 L75.654 112.04 L75.654 115.975 L55.7467 115.975 L55.7467 112.04 Z" fill="#000000" fill-rule="evenodd" fill-opacity="1" /><path clip-path="url(#clip520)" d="M85.0984 110.095 L89.9827 110.095 L89.9827 115.975 L85.0984 115.975 L85.0984 110.095 Z" fill="#000000" fill-rule="evenodd" fill-opacity="1" /><path clip-path="url(#clip520)" d="M110.168 84.4935 Q106.557 84.4935 104.728 88.0583 Q102.922 91.5999 102.922 98.7295 Q102.922 105.836 104.728 109.401 Q106.557 112.942 110.168 112.942 Q113.802 112.942 115.608 109.401 Q117.436 105.836 117.436 98.7295 Q117.436 91.5999 115.608 88.0583 Q113.802 84.4935 110.168 84.4935 M110.168 80.7898 Q115.978 80.7898 119.033 85.3962 Q122.112 89.9795 122.112 98.7295 Q122.112 107.456 119.033 112.063 Q115.978 116.646 110.168 116.646 Q104.358 116.646 101.279 112.063 Q98.2234 107.456 98.2234 98.7295 Q98.2234 89.9795 101.279 85.3962 Q104.358 80.7898 110.168 80.7898 Z" fill="#000000" fill-rule="evenodd" fill-opacity="1" /><path clip-path="url(#clip520)" d="M140.33 84.4935 Q136.719 84.4935 134.89 88.0583 Q133.084 91.5999 133.084 98.7295 Q133.084 105.836 134.89 109.401 Q136.719 112.942 140.33 112.942 Q143.964 112.942 145.769 109.401 Q147.598 105.836 147.598 98.7295 Q147.598 91.5999 145.769 88.0583 Q143.964 84.4935 140.33 84.4935 M140.33 80.7898 Q146.14 80.7898 149.195 85.3962 Q152.274 89.9795 152.274 98.7295 Q152.274 107.456 149.195 112.063 Q146.14 116.646 140.33 116.646 Q134.519 116.646 131.441 112.063 Q128.385 107.456 128.385 98.7295 Q128.385 89.9795 131.441 85.3962 Q134.519 80.7898 140.33 80.7898 Z" fill="#000000" fill-rule="evenodd" fill-opacity="1" /><polyline clip-path="url(#clip522)" style="stroke:#009af9; stroke-linecap:round; stroke-linejoin:round; stroke-width:12; stroke-opacity:1; fill:none" points="232.382,98.6948 299.193,471.435 366.003,561.577 432.814,598.652 499.625,634.35 566.435,660.706 633.246,684.52 700.056,698.982 766.867,704.18 833.678,720.252 900.488,728.575 967.299,731.758 1034.11,748.522 1100.92,749.084 1167.73,751.694 1234.54,764.679 1301.35,763.151 1368.16,776.161 1434.97,786.828 1501.78,788.902 1568.59,796.519 1635.41,802.167 1702.22,803.287 1769.03,821.547 1835.84,822.564 1902.65,833.322 "/>
<polyline clip-path="url(#clip522)" style="stroke:#e26f46; stroke-linecap:round; stroke-linejoin:round; stroke-width:12; stroke-opacity:1; fill:none" points="232.382,98.6948 299.193,1318.12 366.003,1538.37 432.814,1670.4 499.625,1679.86 566.435,1673.02 633.246,1687.12 700.056,1681.16 766.867,1683.85 833.678,1698.04 900.488,1756.76 967.299,1784.12 1034.11,1812.96 1100.92,1795.15 1167.73,1757.97 1234.54,1764.28 1301.35,1773.55 1368.16,1764.47 1434.97,1786.72 1501.78,1755.33 1568.59,1725.93 1635.41,1713.64 1702.22,1698.14 1769.03,1736.54 1835.84,1738.74 1902.65,1761.23 "/>
<polyline clip-path="url(#clip522)" style="stroke:#3da44d; stroke-linecap:round; stroke-linejoin:round; stroke-width:12; stroke-opacity:1; fill:none" points="232.382,98.6948 299.193,770.967 366.003,1081.25 432.814,1283.74 499.625,1429.9 566.435,1532.1 633.246,1618.8 700.056,1699.78 766.867,1732.21 833.678,1743.11 900.488,1722.93 967.299,1703.38 1034.11,1707.86 1100.92,1677.44 1167.73,1688.13 1234.54,1712.9 1301.35,1736.55 1368.16,1775.55 1434.97,1799.59 1501.78,1798.6 1568.59,1794.92 1635.41,1793.08 1702.22,1803.1 1769.03,1813.72 1835.84,1801.29 1902.65,1741.83 "/>
<polyline clip-path="url(#clip522)" style="stroke:#c271d2; stroke-linecap:round; stroke-linejoin:round; stroke-width:12; stroke-opacity:1; fill:none" points="232.382,98.6948 299.193,576.245 366.003,813.722 432.814,990.106 499.625,1130.78 566.435,1247.86 633.246,1355.03 700.056,1425.47 766.867,1492.76 833.678,1545.03 900.488,1582.88 967.299,1615.3 1034.11,1638.26 1100.92,1660.48 1167.73,1674.7 1234.54,1689.13 1301.35,1701.83 1368.16,1722.46 1434.97,1740.52 1501.78,1761.91 1568.59,1783.81 1635.41,1795.61 1702.22,1801.56 1769.03,1806.7 1835.84,1805.06 1902.65,1800.97 "/>
<path clip-path="url(#clip520)" d="M1534.75 367.042 L1893.74 367.042 L1893.74 107.842 L1534.75 107.842  Z" fill="#ffffff" fill-rule="evenodd" fill-opacity="1"/>
<polyline clip-path="url(#clip520)" style="stroke:#000000; stroke-linecap:round; stroke-linejoin:round; stroke-width:4; stroke-opacity:1; fill:none" points="1534.75,367.042 1893.74,367.042 1893.74,107.842 1534.75,107.842 1534.75,367.042 "/>
<polyline clip-path="url(#clip520)" style="stroke:#009af9; stroke-linecap:round; stroke-linejoin:round; stroke-width:12; stroke-opacity:1; fill:none" points="1554.42,159.682 1672.45,159.682 "/>
<path clip-path="url(#clip520)" d="M1692.12 142.402 L1696.8 142.402 L1696.8 156.568 L1713.79 156.568 L1713.79 142.402 L1718.47 142.402 L1718.47 176.962 L1713.79 176.962 L1713.79 160.503 L1696.8 160.503 L1696.8 176.962 L1692.12 176.962 L1692.12 142.402 Z" fill="#000000" fill-rule="evenodd" fill-opacity="1" /><path clip-path="url(#clip520)" d="M1727.77 142.402 L1734.74 142.402 L1743.56 165.92 L1752.42 142.402 L1759.39 142.402 L1759.39 176.962 L1754.83 176.962 L1754.83 146.614 L1745.92 170.318 L1741.22 170.318 L1732.31 146.614 L1732.31 176.962 L1727.77 176.962 L1727.77 142.402 Z" fill="#000000" fill-rule="evenodd" fill-opacity="1" /><path clip-path="url(#clip520)" d="M1794.55 145.064 L1794.55 149.994 Q1792.19 147.795 1789.51 146.707 Q1786.85 145.619 1783.84 145.619 Q1777.91 145.619 1774.76 149.253 Q1771.61 152.864 1771.61 159.716 Q1771.61 166.545 1774.76 170.179 Q1777.91 173.79 1783.84 173.79 Q1786.85 173.79 1789.51 172.702 Q1792.19 171.614 1794.55 169.415 L1794.55 174.3 Q1792.1 175.966 1789.35 176.8 Q1786.61 177.633 1783.56 177.633 Q1775.71 177.633 1771.2 172.841 Q1766.68 168.026 1766.68 159.716 Q1766.68 151.383 1771.2 146.591 Q1775.71 141.777 1783.56 141.777 Q1786.66 141.777 1789.39 142.61 Q1792.15 143.42 1794.55 145.064 Z" fill="#000000" fill-rule="evenodd" fill-opacity="1" /><polyline clip-path="url(#clip520)" style="stroke:#e26f46; stroke-linecap:round; stroke-linejoin:round; stroke-width:12; stroke-opacity:1; fill:none" points="1554.42,211.522 1672.45,211.522 "/>
<path clip-path="url(#clip520)" d="M1708.51 212.598 Q1710.02 213.107 1711.43 214.774 Q1712.86 216.441 1714.3 219.357 L1719.05 228.802 L1714.02 228.802 L1709.6 219.936 Q1707.89 216.464 1706.27 215.329 Q1704.67 214.195 1701.89 214.195 L1696.8 214.195 L1696.8 228.802 L1692.12 228.802 L1692.12 194.242 L1702.68 194.242 Q1708.61 194.242 1711.52 196.718 Q1714.44 199.195 1714.44 204.195 Q1714.44 207.459 1712.91 209.612 Q1711.41 211.765 1708.51 212.598 M1696.8 198.084 L1696.8 210.353 L1702.68 210.353 Q1706.06 210.353 1707.77 208.802 Q1709.51 207.228 1709.51 204.195 Q1709.51 201.163 1707.77 199.635 Q1706.06 198.084 1702.68 198.084 L1696.8 198.084 Z" fill="#000000" fill-rule="evenodd" fill-opacity="1" /><path clip-path="url(#clip520)" d="M1734.69 198.848 L1728.35 216.047 L1741.06 216.047 L1734.69 198.848 M1732.05 194.242 L1737.36 194.242 L1750.53 228.802 L1745.67 228.802 L1742.52 219.936 L1726.94 219.936 L1723.79 228.802 L1718.86 228.802 L1732.05 194.242 Z" fill="#000000" fill-rule="evenodd" fill-opacity="1" /><path clip-path="url(#clip520)" d="M1752.19 213.917 L1764.67 213.917 L1764.67 217.714 L1752.19 217.714 L1752.19 213.917 Z" fill="#000000" fill-rule="evenodd" fill-opacity="1" /><path clip-path="url(#clip520)" d="M1771.64 194.242 L1776.31 194.242 L1776.31 208.408 L1793.3 208.408 L1793.3 194.242 L1797.98 194.242 L1797.98 228.802 L1793.3 228.802 L1793.3 212.343 L1776.31 212.343 L1776.31 228.802 L1771.64 228.802 L1771.64 194.242 Z" fill="#000000" fill-rule="evenodd" fill-opacity="1" /><path clip-path="url(#clip520)" d="M1807.29 194.242 L1814.25 194.242 L1823.07 217.76 L1831.94 194.242 L1838.91 194.242 L1838.91 228.802 L1834.35 228.802 L1834.35 198.454 L1825.43 222.158 L1820.73 222.158 L1811.82 198.454 L1811.82 228.802 L1807.29 228.802 L1807.29 194.242 Z" fill="#000000" fill-rule="evenodd" fill-opacity="1" /><path clip-path="url(#clip520)" d="M1874.07 196.904 L1874.07 201.834 Q1871.71 199.635 1869.02 198.547 Q1866.36 197.459 1863.35 197.459 Q1857.42 197.459 1854.28 201.093 Q1851.13 204.704 1851.13 211.556 Q1851.13 218.385 1854.28 222.019 Q1857.42 225.63 1863.35 225.63 Q1866.36 225.63 1869.02 224.542 Q1871.71 223.454 1874.07 221.255 L1874.07 226.14 Q1871.61 227.806 1868.86 228.64 Q1866.13 229.473 1863.07 229.473 Q1855.23 229.473 1850.71 224.681 Q1846.2 219.866 1846.2 211.556 Q1846.2 203.223 1850.71 198.431 Q1855.23 193.617 1863.07 193.617 Q1866.17 193.617 1868.91 194.45 Q1871.66 195.26 1874.07 196.904 Z" fill="#000000" fill-rule="evenodd" fill-opacity="1" /><polyline clip-path="url(#clip520)" style="stroke:#3da44d; stroke-linecap:round; stroke-linejoin:round; stroke-width:12; stroke-opacity:1; fill:none" points="1554.42,263.362 1672.45,263.362 "/>
<path clip-path="url(#clip520)" d="M1708.51 264.438 Q1710.02 264.947 1711.43 266.614 Q1712.86 268.281 1714.3 271.197 L1719.05 280.642 L1714.02 280.642 L1709.6 271.776 Q1707.89 268.304 1706.27 267.169 Q1704.67 266.035 1701.89 266.035 L1696.8 266.035 L1696.8 280.642 L1692.12 280.642 L1692.12 246.082 L1702.68 246.082 Q1708.61 246.082 1711.52 248.558 Q1714.44 251.035 1714.44 256.035 Q1714.44 259.299 1712.91 261.452 Q1711.41 263.605 1708.51 264.438 M1696.8 249.924 L1696.8 262.193 L1702.68 262.193 Q1706.06 262.193 1707.77 260.642 Q1709.51 259.068 1709.51 256.035 Q1709.51 253.003 1707.77 251.475 Q1706.06 249.924 1702.68 249.924 L1696.8 249.924 Z" fill="#000000" fill-rule="evenodd" fill-opacity="1" /><path clip-path="url(#clip520)" d="M1734.69 250.688 L1728.35 267.887 L1741.06 267.887 L1734.69 250.688 M1732.05 246.082 L1737.36 246.082 L1750.53 280.642 L1745.67 280.642 L1742.52 271.776 L1726.94 271.776 L1723.79 280.642 L1718.86 280.642 L1732.05 246.082 Z" fill="#000000" fill-rule="evenodd" fill-opacity="1" /><path clip-path="url(#clip520)" d="M1755.57 246.082 L1762.54 246.082 L1771.36 269.6 L1780.23 246.082 L1787.19 246.082 L1787.19 280.642 L1782.63 280.642 L1782.63 250.294 L1773.72 273.998 L1769.02 273.998 L1760.11 250.294 L1760.11 280.642 L1755.57 280.642 L1755.57 246.082 Z" fill="#000000" fill-rule="evenodd" fill-opacity="1" /><polyline clip-path="url(#clip520)" style="stroke:#c271d2; stroke-linecap:round; stroke-linejoin:round; stroke-width:12; stroke-opacity:1; fill:none" points="1554.42,315.202 1672.45,315.202 "/>
<path clip-path="url(#clip520)" d="M1696.8 301.764 L1696.8 314.75 L1702.68 314.75 Q1705.94 314.75 1707.73 313.06 Q1709.51 311.371 1709.51 308.246 Q1709.51 305.144 1707.73 303.454 Q1705.94 301.764 1702.68 301.764 L1696.8 301.764 M1692.12 297.922 L1702.68 297.922 Q1708.49 297.922 1711.45 300.56 Q1714.44 303.176 1714.44 308.246 Q1714.44 313.361 1711.45 315.977 Q1708.49 318.593 1702.68 318.593 L1696.8 318.593 L1696.8 332.482 L1692.12 332.482 L1692.12 297.922 Z" fill="#000000" fill-rule="evenodd" fill-opacity="1" /><path clip-path="url(#clip520)" d="M1720.71 297.922 L1742.56 297.922 L1742.56 301.857 L1725.39 301.857 L1725.39 312.088 L1741.85 312.088 L1741.85 316.023 L1725.39 316.023 L1725.39 328.546 L1742.98 328.546 L1742.98 332.482 L1720.71 332.482 L1720.71 297.922 Z" fill="#000000" fill-rule="evenodd" fill-opacity="1" /><path clip-path="url(#clip520)" d="M1750.67 297.922 L1755.34 297.922 L1755.34 312.088 L1772.33 312.088 L1772.33 297.922 L1777.01 297.922 L1777.01 332.482 L1772.33 332.482 L1772.33 316.023 L1755.34 316.023 L1755.34 332.482 L1750.67 332.482 L1750.67 297.922 Z" fill="#000000" fill-rule="evenodd" fill-opacity="1" /><path clip-path="url(#clip520)" d="M1786.31 297.922 L1793.28 297.922 L1802.1 321.44 L1810.97 297.922 L1817.93 297.922 L1817.93 332.482 L1813.37 332.482 L1813.37 302.134 L1804.46 325.838 L1799.76 325.838 L1790.85 302.134 L1790.85 332.482 L1786.31 332.482 L1786.31 297.922 Z" fill="#000000" fill-rule="evenodd" fill-opacity="1" /><path clip-path="url(#clip520)" d="M1853.1 300.584 L1853.1 305.514 Q1850.73 303.315 1848.05 302.227 Q1845.39 301.139 1842.38 301.139 Q1836.45 301.139 1833.3 304.773 Q1830.16 308.384 1830.16 315.236 Q1830.16 322.065 1833.3 325.699 Q1836.45 329.31 1842.38 329.31 Q1845.39 329.31 1848.05 328.222 Q1850.73 327.134 1853.1 324.935 L1853.1 329.82 Q1850.64 331.486 1847.89 332.32 Q1845.16 333.153 1842.1 333.153 Q1834.25 333.153 1829.74 328.361 Q1825.23 323.546 1825.23 315.236 Q1825.23 306.903 1829.74 302.111 Q1834.25 297.297 1842.1 297.297 Q1845.2 297.297 1847.93 298.13 Q1850.69 298.94 1853.1 300.584 Z" fill="#000000" fill-rule="evenodd" fill-opacity="1" /></svg>
