<?xml version="1.0" encoding="utf-8"?>
<svg xmlns="http://www.w3.org/2000/svg" xmlns:xlink="http://www.w3.org/1999/xlink" width="350" height="350" viewBox="0 0 1400 1400">
<defs>
  <clipPath id="clip970">
    <rect x="0" y="0" width="1400" height="1400"/>
  </clipPath>
</defs>
<path clip-path="url(#clip970)" d="M0 1400 L1400 1400 L1400 0 L0 0  Z" fill="#ffffff" fill-rule="evenodd" fill-opacity="1"/>
<defs>
  <clipPath id="clip971">
    <rect x="280" y="140" width="981" height="981"/>
  </clipPath>
</defs>
<path clip-path="url(#clip970)" d="M139.191 1271.17 L1352.76 1271.17 L1352.76 47.2441 L139.191 47.2441  Z" fill="#ffffff" fill-rule="evenodd" fill-opacity="1"/>
<defs>
  <clipPath id="clip972">
    <rect x="139" y="47" width="1215" height="1225"/>
  </clipPath>
</defs>
<polyline clip-path="url(#clip972)" style="stroke:#000000; stroke-linecap:round; stroke-linejoin:round; stroke-width:2; stroke-opacity:0.1; fill:none" points="139.191,1271.17 139.191,47.2441 "/>
<polyline clip-path="url(#clip972)" style="stroke:#000000; stroke-linecap:round; stroke-linejoin:round; stroke-width:2; stroke-opacity:0.1; fill:none" points="341.452,1271.17 341.452,47.2441 "/>
<polyline clip-path="url(#clip972)" style="stroke:#000000; stroke-linecap:round; stroke-linejoin:round; stroke-width:2; stroke-opacity:0.1; fill:none" points="543.713,1271.17 543.713,47.2441 "/>
<polyline clip-path="url(#clip972)" style="stroke:#000000; stroke-linecap:round; stroke-linejoin:round; stroke-width:2; stroke-opacity:0.1; fill:none" points="745.973,1271.17 745.973,47.2441 "/>
<polyline clip-path="url(#clip972)" style="stroke:#000000; stroke-linecap:round; stroke-linejoin:round; stroke-width:2; stroke-opacity:0.1; fill:none" points="948.234,1271.17 948.234,47.2441 "/>
<polyline clip-path="url(#clip972)" style="stroke:#000000; stroke-linecap:round; stroke-linejoin:round; stroke-width:2; stroke-opacity:0.1; fill:none" points="1150.5,1271.17 1150.5,47.2441 "/>
<polyline clip-path="url(#clip972)" style="stroke:#000000; stroke-linecap:round; stroke-linejoin:round; stroke-width:2; stroke-opacity:0.1; fill:none" points="1352.76,1271.17 1352.76,47.2441 "/>
<polyline clip-path="url(#clip970)" style="stroke:#000000; stroke-linecap:round; stroke-linejoin:round; stroke-width:4; stroke-opacity:1; fill:none" points="139.191,1271.17 1352.76,1271.17 "/>
<polyline clip-path="url(#clip970)" style="stroke:#000000; stroke-linecap:round; stroke-linejoin:round; stroke-width:4; stroke-opacity:1; fill:none" points="139.191,1271.17 139.191,1252.27 "/>
<polyline clip-path="url(#clip970)" style="stroke:#000000; stroke-linecap:round; stroke-linejoin:round; stroke-width:4; stroke-opacity:1; fill:none" points="341.452,1271.17 341.452,1252.27 "/>
<polyline clip-path="url(#clip970)" style="stroke:#000000; stroke-linecap:round; stroke-linejoin:round; stroke-width:4; stroke-opacity:1; fill:none" points="543.713,1271.17 543.713,1252.27 "/>
<polyline clip-path="url(#clip970)" style="stroke:#000000; stroke-linecap:round; stroke-linejoin:round; stroke-width:4; stroke-opacity:1; fill:none" points="745.973,1271.17 745.973,1252.27 "/>
<polyline clip-path="url(#clip970)" style="stroke:#000000; stroke-linecap:round; stroke-linejoin:round; stroke-width:4; stroke-opacity:1; fill:none" points="948.234,1271.17 948.234,1252.27 "/>
<polyline clip-path="url(#clip970)" style="stroke:#000000; stroke-linecap:round; stroke-linejoin:round; stroke-width:4; stroke-opacity:1; fill:none" points="1150.5,1271.17 1150.5,1252.27 "/>
<polyline clip-path="url(#clip970)" style="stroke:#000000; stroke-linecap:round; stroke-linejoin:round; stroke-width:4; stroke-opacity:1; fill:none" points="1352.76,1271.17 1352.76,1252.27 "/>
<path clip-path="url(#clip970)" d="M108.254 1308.74 L137.929 1308.74 L137.929 1312.67 L108.254 1312.67 L108.254 1308.74 Z" fill="#000000" fill-rule="evenodd" fill-opacity="1" /><path clip-path="url(#clip970)" d="M158.6 1306.42 Q155.452 1306.42 153.601 1308.58 Q151.772 1310.73 151.772 1314.48 Q151.772 1318.21 153.601 1320.38 Q155.452 1322.54 158.6 1322.54 Q161.749 1322.54 163.577 1320.38 Q165.429 1318.21 165.429 1314.48 Q165.429 1310.73 163.577 1308.58 Q161.749 1306.42 158.6 1306.42 M167.883 1291.77 L167.883 1296.03 Q166.124 1295.2 164.318 1294.76 Q162.536 1294.32 160.776 1294.32 Q156.147 1294.32 153.693 1297.44 Q151.263 1300.57 150.915 1306.89 Q152.281 1304.87 154.341 1303.81 Q156.401 1302.72 158.878 1302.72 Q164.087 1302.72 167.096 1305.89 Q170.128 1309.04 170.128 1314.48 Q170.128 1319.8 166.98 1323.02 Q163.832 1326.24 158.6 1326.24 Q152.605 1326.24 149.434 1321.66 Q146.263 1317.05 146.263 1308.32 Q146.263 1300.13 150.151 1295.27 Q154.04 1290.38 160.591 1290.38 Q162.35 1290.38 164.133 1290.73 Q165.938 1291.08 167.883 1291.77 Z" fill="#000000" fill-rule="evenodd" fill-opacity="1" /><path clip-path="url(#clip970)" d="M310.352 1308.74 L340.028 1308.74 L340.028 1312.67 L310.352 1312.67 L310.352 1308.74 Z" fill="#000000" fill-rule="evenodd" fill-opacity="1" /><path clip-path="url(#clip970)" d="M362.968 1295.08 L351.162 1313.53 L362.968 1313.53 L362.968 1295.08 M361.741 1291.01 L367.621 1291.01 L367.621 1313.53 L372.551 1313.53 L372.551 1317.42 L367.621 1317.42 L367.621 1325.57 L362.968 1325.57 L362.968 1317.42 L347.366 1317.42 L347.366 1312.91 L361.741 1291.01 Z" fill="#000000" fill-rule="evenodd" fill-opacity="1" /><path clip-path="url(#clip970)" d="M513.655 1308.74 L543.331 1308.74 L543.331 1312.67 L513.655 1312.67 L513.655 1308.74 Z" fill="#000000" fill-rule="evenodd" fill-opacity="1" /><path clip-path="url(#clip970)" d="M557.451 1321.63 L573.77 1321.63 L573.77 1325.57 L551.826 1325.57 L551.826 1321.63 Q554.488 1318.88 559.071 1314.25 Q563.678 1309.6 564.858 1308.25 Q567.104 1305.73 567.983 1303.99 Q568.886 1302.23 568.886 1300.54 Q568.886 1297.79 566.942 1296.05 Q565.02 1294.32 561.918 1294.32 Q559.719 1294.32 557.266 1295.08 Q554.835 1295.85 552.057 1297.4 L552.057 1292.67 Q554.881 1291.54 557.335 1290.96 Q559.789 1290.38 561.826 1290.38 Q567.196 1290.38 570.391 1293.07 Q573.585 1295.75 573.585 1300.24 Q573.585 1302.37 572.775 1304.29 Q571.988 1306.19 569.881 1308.79 Q569.303 1309.46 566.201 1312.67 Q563.099 1315.87 557.451 1321.63 Z" fill="#000000" fill-rule="evenodd" fill-opacity="1" /><path clip-path="url(#clip970)" d="M745.973 1294.09 Q742.362 1294.09 740.534 1297.65 Q738.728 1301.19 738.728 1308.32 Q738.728 1315.43 740.534 1318.99 Q742.362 1322.54 745.973 1322.54 Q749.608 1322.54 751.413 1318.99 Q753.242 1315.43 753.242 1308.32 Q753.242 1301.19 751.413 1297.65 Q749.608 1294.09 745.973 1294.09 M745.973 1290.38 Q751.784 1290.38 754.839 1294.99 Q757.918 1299.57 757.918 1308.32 Q757.918 1317.05 754.839 1321.66 Q751.784 1326.24 745.973 1326.24 Q740.163 1326.24 737.085 1321.66 Q734.029 1317.05 734.029 1308.32 Q734.029 1299.57 737.085 1294.99 Q740.163 1290.38 745.973 1290.38 Z" fill="#000000" fill-rule="evenodd" fill-opacity="1" /><path clip-path="url(#clip970)" d="M942.887 1321.63 L959.206 1321.63 L959.206 1325.57 L937.262 1325.57 L937.262 1321.63 Q939.924 1318.88 944.507 1314.25 Q949.114 1309.6 950.294 1308.25 Q952.54 1305.73 953.419 1303.99 Q954.322 1302.23 954.322 1300.54 Q954.322 1297.79 952.378 1296.05 Q950.456 1294.32 947.355 1294.32 Q945.156 1294.32 942.702 1295.08 Q940.271 1295.85 937.494 1297.4 L937.494 1292.67 Q940.318 1291.54 942.771 1290.96 Q945.225 1290.38 947.262 1290.38 Q952.632 1290.38 955.827 1293.07 Q959.021 1295.75 959.021 1300.24 Q959.021 1302.37 958.211 1304.29 Q957.424 1306.19 955.318 1308.79 Q954.739 1309.46 951.637 1312.67 Q948.535 1315.87 942.887 1321.63 Z" fill="#000000" fill-rule="evenodd" fill-opacity="1" /><path clip-path="url(#clip970)" d="M1153.5 1295.08 L1141.7 1313.53 L1153.5 1313.53 L1153.5 1295.08 M1152.28 1291.01 L1158.16 1291.01 L1158.16 1313.53 L1163.09 1313.53 L1163.09 1317.42 L1158.16 1317.42 L1158.16 1325.57 L1153.5 1325.57 L1153.5 1317.42 L1137.9 1317.42 L1137.9 1312.91 L1152.28 1291.01 Z" fill="#000000" fill-rule="evenodd" fill-opacity="1" /><path clip-path="url(#clip970)" d="M1353.16 1306.42 Q1350.01 1306.42 1348.16 1308.58 Q1346.33 1310.73 1346.33 1314.48 Q1346.33 1318.21 1348.16 1320.38 Q1350.01 1322.54 1353.16 1322.54 Q1356.31 1322.54 1358.14 1320.38 Q1359.99 1318.21 1359.99 1314.48 Q1359.99 1310.73 1358.14 1308.58 Q1356.31 1306.42 1353.16 1306.42 M1362.44 1291.77 L1362.44 1296.03 Q1360.68 1295.2 1358.88 1294.76 Q1357.1 1294.32 1355.34 1294.32 Q1350.71 1294.32 1348.25 1297.44 Q1345.82 1300.57 1345.48 1306.89 Q1346.84 1304.87 1348.9 1303.81 Q1350.96 1302.72 1353.44 1302.72 Q1358.65 1302.72 1361.66 1305.89 Q1364.69 1309.04 1364.69 1314.48 Q1364.69 1319.8 1361.54 1323.02 Q1358.39 1326.24 1353.16 1326.24 Q1347.17 1326.24 1343.99 1321.66 Q1340.82 1317.05 1340.82 1308.32 Q1340.82 1300.13 1344.71 1295.27 Q1348.6 1290.38 1355.15 1290.38 Q1356.91 1290.38 1358.69 1290.73 Q1360.5 1291.08 1362.44 1291.77 Z" fill="#000000" fill-rule="evenodd" fill-opacity="1" /><polyline clip-path="url(#clip972)" style="stroke:#000000; stroke-linecap:round; stroke-linejoin:round; stroke-width:2; stroke-opacity:0.1; fill:none" points="139.191,1271.17 1352.76,1271.17 "/>
<polyline clip-path="url(#clip972)" style="stroke:#000000; stroke-linecap:round; stroke-linejoin:round; stroke-width:2; stroke-opacity:0.1; fill:none" points="139.191,1067.18 1352.76,1067.18 "/>
<polyline clip-path="url(#clip972)" style="stroke:#000000; stroke-linecap:round; stroke-linejoin:round; stroke-width:2; stroke-opacity:0.1; fill:none" points="139.191,863.193 1352.76,863.193 "/>
<polyline clip-path="url(#clip972)" style="stroke:#000000; stroke-linecap:round; stroke-linejoin:round; stroke-width:2; stroke-opacity:0.1; fill:none" points="139.191,659.206 1352.76,659.206 "/>
<polyline clip-path="url(#clip972)" style="stroke:#000000; stroke-linecap:round; stroke-linejoin:round; stroke-width:2; stroke-opacity:0.1; fill:none" points="139.191,455.219 1352.76,455.219 "/>
<polyline clip-path="url(#clip972)" style="stroke:#000000; stroke-linecap:round; stroke-linejoin:round; stroke-width:2; stroke-opacity:0.1; fill:none" points="139.191,251.231 1352.76,251.231 "/>
<polyline clip-path="url(#clip972)" style="stroke:#000000; stroke-linecap:round; stroke-linejoin:round; stroke-width:2; stroke-opacity:0.1; fill:none" points="139.191,47.2441 1352.76,47.2441 "/>
<polyline clip-path="url(#clip970)" style="stroke:#000000; stroke-linecap:round; stroke-linejoin:round; stroke-width:4; stroke-opacity:1; fill:none" points="139.191,1271.17 139.191,47.2441 "/>
<polyline clip-path="url(#clip970)" style="stroke:#000000; stroke-linecap:round; stroke-linejoin:round; stroke-width:4; stroke-opacity:1; fill:none" points="139.191,1271.17 158.089,1271.17 "/>
<polyline clip-path="url(#clip970)" style="stroke:#000000; stroke-linecap:round; stroke-linejoin:round; stroke-width:4; stroke-opacity:1; fill:none" points="139.191,1067.18 158.089,1067.18 "/>
<polyline clip-path="url(#clip970)" style="stroke:#000000; stroke-linecap:round; stroke-linejoin:round; stroke-width:4; stroke-opacity:1; fill:none" points="139.191,863.193 158.089,863.193 "/>
<polyline clip-path="url(#clip970)" style="stroke:#000000; stroke-linecap:round; stroke-linejoin:round; stroke-width:4; stroke-opacity:1; fill:none" points="139.191,659.206 158.089,659.206 "/>
<polyline clip-path="url(#clip970)" style="stroke:#000000; stroke-linecap:round; stroke-linejoin:round; stroke-width:4; stroke-opacity:1; fill:none" points="139.191,455.219 158.089,455.219 "/>
<polyline clip-path="url(#clip970)" style="stroke:#000000; stroke-linecap:round; stroke-linejoin:round; stroke-width:4; stroke-opacity:1; fill:none" points="139.191,251.231 158.089,251.231 "/>
<polyline clip-path="url(#clip970)" style="stroke:#000000; stroke-linecap:round; stroke-linejoin:round; stroke-width:4; stroke-opacity:1; fill:none" points="139.191,47.2441 158.089,47.2441 "/>
<path clip-path="url(#clip970)" d="M56.3162 1271.62 L85.992 1271.62 L85.992 1275.55 L56.3162 1275.55 L56.3162 1271.62 Z" fill="#000000" fill-rule="evenodd" fill-opacity="1" /><path clip-path="url(#clip970)" d="M106.663 1269.3 Q103.515 1269.3 101.663 1271.46 Q99.8345 1273.61 99.8345 1277.36 Q99.8345 1281.09 101.663 1283.26 Q103.515 1285.42 106.663 1285.42 Q109.811 1285.42 111.64 1283.26 Q113.492 1281.09 113.492 1277.36 Q113.492 1273.61 111.64 1271.46 Q109.811 1269.3 106.663 1269.3 M115.946 1254.65 L115.946 1258.91 Q114.186 1258.08 112.381 1257.64 Q110.598 1257.2 108.839 1257.2 Q104.209 1257.2 101.756 1260.32 Q99.3252 1263.45 98.978 1269.77 Q100.344 1267.75 102.404 1266.69 Q104.464 1265.6 106.941 1265.6 Q112.149 1265.6 115.158 1268.77 Q118.191 1271.92 118.191 1277.36 Q118.191 1282.68 115.043 1285.9 Q111.895 1289.12 106.663 1289.12 Q100.668 1289.12 97.4965 1284.54 Q94.3253 1279.93 94.3253 1271.2 Q94.3253 1263.01 98.2141 1258.15 Q102.103 1253.26 108.654 1253.26 Q110.413 1253.26 112.196 1253.61 Q114.001 1253.96 115.946 1254.65 Z" fill="#000000" fill-rule="evenodd" fill-opacity="1" /><path clip-path="url(#clip970)" d="M55.9921 1067.63 L85.6679 1067.63 L85.6679 1071.57 L55.9921 1071.57 L55.9921 1067.63 Z" fill="#000000" fill-rule="evenodd" fill-opacity="1" /><path clip-path="url(#clip970)" d="M108.608 1053.97 L96.8021 1072.42 L108.608 1072.42 L108.608 1053.97 M107.381 1049.9 L113.26 1049.9 L113.26 1072.42 L118.191 1072.42 L118.191 1076.31 L113.26 1076.31 L113.26 1084.46 L108.608 1084.46 L108.608 1076.31 L93.0058 1076.31 L93.0058 1071.8 L107.381 1049.9 Z" fill="#000000" fill-rule="evenodd" fill-opacity="1" /><path clip-path="url(#clip970)" d="M58.0754 863.645 L87.7512 863.645 L87.7512 867.58 L58.0754 867.58 L58.0754 863.645 Z" fill="#000000" fill-rule="evenodd" fill-opacity="1" /><path clip-path="url(#clip970)" d="M101.872 876.538 L118.191 876.538 L118.191 880.473 L96.2465 880.473 L96.2465 876.538 Q98.9086 873.784 103.492 869.154 Q108.098 864.501 109.279 863.159 Q111.524 860.635 112.404 858.899 Q113.307 857.14 113.307 855.45 Q113.307 852.696 111.362 850.96 Q109.441 849.223 106.339 849.223 Q104.14 849.223 101.686 849.987 Q99.2558 850.751 96.478 852.302 L96.478 847.58 Q99.3021 846.446 101.756 845.867 Q104.209 845.288 106.246 845.288 Q111.617 845.288 114.811 847.973 Q118.006 850.659 118.006 855.149 Q118.006 857.279 117.196 859.2 Q116.408 861.098 114.302 863.691 Q113.723 864.362 110.621 867.58 Q107.52 870.774 101.872 876.538 Z" fill="#000000" fill-rule="evenodd" fill-opacity="1" /><path clip-path="url(#clip970)" d="M106.246 645.005 Q102.635 645.005 100.807 648.569 Q99.0012 652.111 99.0012 659.241 Q99.0012 666.347 100.807 669.912 Q102.635 673.454 106.246 673.454 Q109.881 673.454 111.686 669.912 Q113.515 666.347 113.515 659.241 Q113.515 652.111 111.686 648.569 Q109.881 645.005 106.246 645.005 M106.246 641.301 Q112.057 641.301 115.112 645.907 Q118.191 650.491 118.191 659.241 Q118.191 667.968 115.112 672.574 Q112.057 677.157 106.246 677.157 Q100.436 677.157 97.3576 672.574 Q94.3021 667.968 94.3021 659.241 Q94.3021 650.491 97.3576 645.907 Q100.436 641.301 106.246 641.301 Z" fill="#000000" fill-rule="evenodd" fill-opacity="1" /><path clip-path="url(#clip970)" d="M101.872 468.564 L118.191 468.564 L118.191 472.499 L96.2465 472.499 L96.2465 468.564 Q98.9086 465.809 103.492 461.179 Q108.098 456.527 109.279 455.184 Q111.524 452.661 112.404 450.925 Q113.307 449.165 113.307 447.476 Q113.307 444.721 111.362 442.985 Q109.441 441.249 106.339 441.249 Q104.14 441.249 101.686 442.013 Q99.2558 442.777 96.478 444.328 L96.478 439.605 Q99.3021 438.471 101.756 437.892 Q104.209 437.314 106.246 437.314 Q111.617 437.314 114.811 439.999 Q118.006 442.684 118.006 447.175 Q118.006 449.304 117.196 451.226 Q116.408 453.124 114.302 455.716 Q113.723 456.388 110.621 459.605 Q107.52 462.8 101.872 468.564 Z" fill="#000000" fill-rule="evenodd" fill-opacity="1" /><path clip-path="url(#clip970)" d="M108.608 238.025 L96.8021 256.474 L108.608 256.474 L108.608 238.025 M107.381 233.951 L113.26 233.951 L113.26 256.474 L118.191 256.474 L118.191 260.363 L113.26 260.363 L113.26 268.511 L108.608 268.511 L108.608 260.363 L93.0058 260.363 L93.0058 255.849 L107.381 233.951 Z" fill="#000000" fill-rule="evenodd" fill-opacity="1" /><path clip-path="url(#clip970)" d="M106.663 45.3807 Q103.515 45.3807 101.663 47.5334 Q99.8345 49.6862 99.8345 53.4362 Q99.8345 57.163 101.663 59.3389 Q103.515 61.4917 106.663 61.4917 Q109.811 61.4917 111.64 59.3389 Q113.492 57.163 113.492 53.4362 Q113.492 49.6862 111.64 47.5334 Q109.811 45.3807 106.663 45.3807 M115.946 30.728 L115.946 34.9872 Q114.186 34.1539 112.381 33.7141 Q110.598 33.2743 108.839 33.2743 Q104.209 33.2743 101.756 36.3992 Q99.3252 39.5242 98.978 45.8436 Q100.344 43.8298 102.404 42.765 Q104.464 41.677 106.941 41.677 Q112.149 41.677 115.158 44.8483 Q118.191 47.9964 118.191 53.4362 Q118.191 58.7602 115.043 61.9778 Q111.895 65.1954 106.663 65.1954 Q100.668 65.1954 97.4965 60.6121 Q94.3253 56.0056 94.3253 47.2788 Q94.3253 39.0844 98.2141 34.2233 Q102.103 29.3391 108.654 29.3391 Q110.413 29.3391 112.196 29.6863 Q114.001 30.0335 115.946 30.728 Z" fill="#000000" fill-rule="evenodd" fill-opacity="1" /><polyline clip-path="url(#clip972)" style="stroke:#000000; stroke-linecap:round; stroke-linejoin:round; stroke-width:0.4; stroke-opacity:0.25; fill:none" points="587.291,767.461 583.94,784.901 550.897,778.38 621.351,708.298 598.895,774.696 573.869,776.522 646.396,814.594 706.463,860.055 657.369,854.924 654.544,869.719 574.355,850.84 587.169,887.847 575.895,909.094 590.625,887.167 596.721,863.063 602.512,867.001 544.095,874.527 535.513,893.096 479.315,863.891 552.69,802.463 556.458,802.713 630.623,798.669 604.629,826.496 654.236,844.887 624.798,799.684 609.097,789.663 543.642,793.9 583.643,773.294 502.066,814.771 534.788,828.17 516.473,829.311 558.257,825.805 508.952,847.297 468.368,837.661 510.356,778.525 554.977,771.54 533.48,819.07 479.589,821.208 486.832,825.259 433.218,787.326 508.899,802.539 471.381,827.995 450.98,883.541 469.652,849.047 480.071,938.752 455.672,850.877 482.796,827.73 532.912,836.303 447.04,876.191 426.683,891.506 488.912,953.203 528.09,968.152 597.115,912.441 619.232,877.924 612.611,914.663 562.831,840.169 562.574,789.48 596.051,727.937 574.853,720.083 604.971,768.558 560.029,788.667 601.668,839.606 562.063,859.879 674.429,821.207 668.31,792.923 653.181,832.92 619.518,834.848 608.096,833.651 622.695,863.003 581.724,866.195 570.542,792.802 584.113,796.502 549.508,810.426 515.994,775.04 543.558,806.475 544.39,754.451 620.819,860.03 649.948,827.842 678.114,816.92 612.256,784.21 638.65,765.505 676.144,725.018 534.294,760.424 516.745,734.454 543.717,748.832 540.865,747.338 592.998,674.005 684.726,692.352 577.335,705.425 541.645,691.193 577.838,692.042 627.514,739.588 584.154,731.67 613.791,794.008 626.346,745.124 632.699,844.445 625.162,809.088 615.697,847.244 566.672,863.978 613.931,922.733 636.525,868.503 "/>
<circle clip-path="url(#clip972)" cx="587.291" cy="767.461" r="14.4" fill="#ffa500" fill-rule="evenodd" fill-opacity="0.2" stroke="#ff3030" stroke-opacity="0.2" stroke-width="1.4"/>
<circle clip-path="url(#clip972)" cx="583.94" cy="784.901" r="14.4" fill="#ffa500" fill-rule="evenodd" fill-opacity="0.2" stroke="#ff3030" stroke-opacity="0.2" stroke-width="1.4"/>
<circle clip-path="url(#clip972)" cx="550.897" cy="778.38" r="14.4" fill="#ffa500" fill-rule="evenodd" fill-opacity="0.2" stroke="#ff3030" stroke-opacity="0.2" stroke-width="1.4"/>
<circle clip-path="url(#clip972)" cx="621.351" cy="708.298" r="14.4" fill="#ffa500" fill-rule="evenodd" fill-opacity="0.2" stroke="#ff3030" stroke-opacity="0.2" stroke-width="1.4"/>
<circle clip-path="url(#clip972)" cx="598.895" cy="774.696" r="14.4" fill="#ffa500" fill-rule="evenodd" fill-opacity="0.2" stroke="#ff3030" stroke-opacity="0.2" stroke-width="1.4"/>
<circle clip-path="url(#clip972)" cx="573.869" cy="776.522" r="14.4" fill="#ffa500" fill-rule="evenodd" fill-opacity="0.2" stroke="#ff3030" stroke-opacity="0.2" stroke-width="1.4"/>
<circle clip-path="url(#clip972)" cx="646.396" cy="814.594" r="14.4" fill="#ffa500" fill-rule="evenodd" fill-opacity="0.2" stroke="#ff3030" stroke-opacity="0.2" stroke-width="1.4"/>
<circle clip-path="url(#clip972)" cx="706.463" cy="860.055" r="14.4" fill="#ffa500" fill-rule="evenodd" fill-opacity="0.2" stroke="#ff3030" stroke-opacity="0.2" stroke-width="1.4"/>
<circle clip-path="url(#clip972)" cx="657.369" cy="854.924" r="14.4" fill="#ffa500" fill-rule="evenodd" fill-opacity="0.2" stroke="#ff3030" stroke-opacity="0.2" stroke-width="1.4"/>
<circle clip-path="url(#clip972)" cx="654.544" cy="869.719" r="14.4" fill="#ffa500" fill-rule="evenodd" fill-opacity="0.2" stroke="#ff3030" stroke-opacity="0.2" stroke-width="1.4"/>
<circle clip-path="url(#clip972)" cx="574.355" cy="850.84" r="14.4" fill="#ffa500" fill-rule="evenodd" fill-opacity="0.2" stroke="#ff3030" stroke-opacity="0.2" stroke-width="1.4"/>
<circle clip-path="url(#clip972)" cx="587.169" cy="887.847" r="14.4" fill="#ffa500" fill-rule="evenodd" fill-opacity="0.2" stroke="#ff3030" stroke-opacity="0.2" stroke-width="1.4"/>
<circle clip-path="url(#clip972)" cx="575.895" cy="909.094" r="14.4" fill="#ffa500" fill-rule="evenodd" fill-opacity="0.2" stroke="#ff3030" stroke-opacity="0.2" stroke-width="1.4"/>
<circle clip-path="url(#clip972)" cx="590.625" cy="887.167" r="14.4" fill="#ffa500" fill-rule="evenodd" fill-opacity="0.2" stroke="#ff3030" stroke-opacity="0.2" stroke-width="1.4"/>
<circle clip-path="url(#clip972)" cx="596.721" cy="863.063" r="14.4" fill="#ffa500" fill-rule="evenodd" fill-opacity="0.2" stroke="#ff3030" stroke-opacity="0.2" stroke-width="1.4"/>
<circle clip-path="url(#clip972)" cx="602.512" cy="867.001" r="14.4" fill="#ffa500" fill-rule="evenodd" fill-opacity="0.2" stroke="#ff3030" stroke-opacity="0.2" stroke-width="1.4"/>
<circle clip-path="url(#clip972)" cx="544.095" cy="874.527" r="14.4" fill="#ffa500" fill-rule="evenodd" fill-opacity="0.2" stroke="#ff3030" stroke-opacity="0.2" stroke-width="1.4"/>
<circle clip-path="url(#clip972)" cx="535.513" cy="893.096" r="14.4" fill="#ffa500" fill-rule="evenodd" fill-opacity="0.2" stroke="#ff3030" stroke-opacity="0.2" stroke-width="1.4"/>
<circle clip-path="url(#clip972)" cx="479.315" cy="863.891" r="14.4" fill="#ffa500" fill-rule="evenodd" fill-opacity="0.2" stroke="#ff3030" stroke-opacity="0.2" stroke-width="1.4"/>
<circle clip-path="url(#clip972)" cx="552.69" cy="802.463" r="14.4" fill="#ffa500" fill-rule="evenodd" fill-opacity="0.2" stroke="#ff3030" stroke-opacity="0.2" stroke-width="1.4"/>
<circle clip-path="url(#clip972)" cx="556.458" cy="802.713" r="14.4" fill="#ffa500" fill-rule="evenodd" fill-opacity="0.2" stroke="#ff3030" stroke-opacity="0.2" stroke-width="1.4"/>
<circle clip-path="url(#clip972)" cx="630.623" cy="798.669" r="14.4" fill="#ffa500" fill-rule="evenodd" fill-opacity="0.2" stroke="#ff3030" stroke-opacity="0.2" stroke-width="1.4"/>
<circle clip-path="url(#clip972)" cx="604.629" cy="826.496" r="14.4" fill="#ffa500" fill-rule="evenodd" fill-opacity="0.2" stroke="#ff3030" stroke-opacity="0.2" stroke-width="1.4"/>
<circle clip-path="url(#clip972)" cx="654.236" cy="844.887" r="14.4" fill="#ffa500" fill-rule="evenodd" fill-opacity="0.2" stroke="#ff3030" stroke-opacity="0.2" stroke-width="1.4"/>
<circle clip-path="url(#clip972)" cx="624.798" cy="799.684" r="14.4" fill="#ffa500" fill-rule="evenodd" fill-opacity="0.2" stroke="#ff3030" stroke-opacity="0.2" stroke-width="1.4"/>
<circle clip-path="url(#clip972)" cx="609.097" cy="789.663" r="14.4" fill="#ffa500" fill-rule="evenodd" fill-opacity="0.2" stroke="#ff3030" stroke-opacity="0.2" stroke-width="1.4"/>
<circle clip-path="url(#clip972)" cx="543.642" cy="793.9" r="14.4" fill="#ffa500" fill-rule="evenodd" fill-opacity="0.2" stroke="#ff3030" stroke-opacity="0.2" stroke-width="1.4"/>
<circle clip-path="url(#clip972)" cx="583.643" cy="773.294" r="14.4" fill="#ffa500" fill-rule="evenodd" fill-opacity="0.2" stroke="#ff3030" stroke-opacity="0.2" stroke-width="1.4"/>
<circle clip-path="url(#clip972)" cx="502.066" cy="814.771" r="14.4" fill="#ffa500" fill-rule="evenodd" fill-opacity="0.2" stroke="#ff3030" stroke-opacity="0.2" stroke-width="1.4"/>
<circle clip-path="url(#clip972)" cx="534.788" cy="828.17" r="14.4" fill="#ffa500" fill-rule="evenodd" fill-opacity="0.2" stroke="#ff3030" stroke-opacity="0.2" stroke-width="1.4"/>
<circle clip-path="url(#clip972)" cx="516.473" cy="829.311" r="14.4" fill="#ffa500" fill-rule="evenodd" fill-opacity="0.2" stroke="#ff3030" stroke-opacity="0.2" stroke-width="1.4"/>
<circle clip-path="url(#clip972)" cx="558.257" cy="825.805" r="14.4" fill="#ffa500" fill-rule="evenodd" fill-opacity="0.2" stroke="#ff3030" stroke-opacity="0.2" stroke-width="1.4"/>
<circle clip-path="url(#clip972)" cx="508.952" cy="847.297" r="14.4" fill="#ffa500" fill-rule="evenodd" fill-opacity="0.2" stroke="#ff3030" stroke-opacity="0.2" stroke-width="1.4"/>
<circle clip-path="url(#clip972)" cx="468.368" cy="837.661" r="14.4" fill="#ffa500" fill-rule="evenodd" fill-opacity="0.2" stroke="#ff3030" stroke-opacity="0.2" stroke-width="1.4"/>
<circle clip-path="url(#clip972)" cx="510.356" cy="778.525" r="14.4" fill="#ffa500" fill-rule="evenodd" fill-opacity="0.2" stroke="#ff3030" stroke-opacity="0.2" stroke-width="1.4"/>
<circle clip-path="url(#clip972)" cx="554.977" cy="771.54" r="14.4" fill="#ffa500" fill-rule="evenodd" fill-opacity="0.2" stroke="#ff3030" stroke-opacity="0.2" stroke-width="1.4"/>
<circle clip-path="url(#clip972)" cx="533.48" cy="819.07" r="14.4" fill="#ffa500" fill-rule="evenodd" fill-opacity="0.2" stroke="#ff3030" stroke-opacity="0.2" stroke-width="1.4"/>
<circle clip-path="url(#clip972)" cx="479.589" cy="821.208" r="14.4" fill="#ffa500" fill-rule="evenodd" fill-opacity="0.2" stroke="#ff3030" stroke-opacity="0.2" stroke-width="1.4"/>
<circle clip-path="url(#clip972)" cx="486.832" cy="825.259" r="14.4" fill="#ffa500" fill-rule="evenodd" fill-opacity="0.2" stroke="#ff3030" stroke-opacity="0.2" stroke-width="1.4"/>
<circle clip-path="url(#clip972)" cx="433.218" cy="787.326" r="14.4" fill="#ffa500" fill-rule="evenodd" fill-opacity="0.2" stroke="#ff3030" stroke-opacity="0.2" stroke-width="1.4"/>
<circle clip-path="url(#clip972)" cx="508.899" cy="802.539" r="14.4" fill="#ffa500" fill-rule="evenodd" fill-opacity="0.2" stroke="#ff3030" stroke-opacity="0.2" stroke-width="1.4"/>
<circle clip-path="url(#clip972)" cx="471.381" cy="827.995" r="14.4" fill="#ffa500" fill-rule="evenodd" fill-opacity="0.2" stroke="#ff3030" stroke-opacity="0.2" stroke-width="1.4"/>
<circle clip-path="url(#clip972)" cx="450.98" cy="883.541" r="14.4" fill="#ffa500" fill-rule="evenodd" fill-opacity="0.2" stroke="#ff3030" stroke-opacity="0.2" stroke-width="1.4"/>
<circle clip-path="url(#clip972)" cx="469.652" cy="849.047" r="14.4" fill="#ffa500" fill-rule="evenodd" fill-opacity="0.2" stroke="#ff3030" stroke-opacity="0.2" stroke-width="1.4"/>
<circle clip-path="url(#clip972)" cx="480.071" cy="938.752" r="14.4" fill="#ffa500" fill-rule="evenodd" fill-opacity="0.2" stroke="#ff3030" stroke-opacity="0.2" stroke-width="1.4"/>
<circle clip-path="url(#clip972)" cx="455.672" cy="850.877" r="14.4" fill="#ffa500" fill-rule="evenodd" fill-opacity="0.2" stroke="#ff3030" stroke-opacity="0.2" stroke-width="1.4"/>
<circle clip-path="url(#clip972)" cx="482.796" cy="827.73" r="14.4" fill="#ffa500" fill-rule="evenodd" fill-opacity="0.2" stroke="#ff3030" stroke-opacity="0.2" stroke-width="1.4"/>
<circle clip-path="url(#clip972)" cx="532.912" cy="836.303" r="14.4" fill="#ffa500" fill-rule="evenodd" fill-opacity="0.2" stroke="#ff3030" stroke-opacity="0.2" stroke-width="1.4"/>
<circle clip-path="url(#clip972)" cx="447.04" cy="876.191" r="14.4" fill="#ffa500" fill-rule="evenodd" fill-opacity="0.2" stroke="#ff3030" stroke-opacity="0.2" stroke-width="1.4"/>
<circle clip-path="url(#clip972)" cx="426.683" cy="891.506" r="14.4" fill="#ffa500" fill-rule="evenodd" fill-opacity="0.2" stroke="#ff3030" stroke-opacity="0.2" stroke-width="1.4"/>
<circle clip-path="url(#clip972)" cx="488.912" cy="953.203" r="14.4" fill="#ffa500" fill-rule="evenodd" fill-opacity="0.2" stroke="#ff3030" stroke-opacity="0.2" stroke-width="1.4"/>
<circle clip-path="url(#clip972)" cx="528.09" cy="968.152" r="14.4" fill="#ffa500" fill-rule="evenodd" fill-opacity="0.2" stroke="#ff3030" stroke-opacity="0.2" stroke-width="1.4"/>
<circle clip-path="url(#clip972)" cx="597.115" cy="912.441" r="14.4" fill="#ffa500" fill-rule="evenodd" fill-opacity="0.2" stroke="#ff3030" stroke-opacity="0.2" stroke-width="1.4"/>
<circle clip-path="url(#clip972)" cx="619.232" cy="877.924" r="14.4" fill="#ffa500" fill-rule="evenodd" fill-opacity="0.2" stroke="#ff3030" stroke-opacity="0.2" stroke-width="1.4"/>
<circle clip-path="url(#clip972)" cx="612.611" cy="914.663" r="14.4" fill="#ffa500" fill-rule="evenodd" fill-opacity="0.2" stroke="#ff3030" stroke-opacity="0.2" stroke-width="1.4"/>
<circle clip-path="url(#clip972)" cx="562.831" cy="840.169" r="14.4" fill="#ffa500" fill-rule="evenodd" fill-opacity="0.2" stroke="#ff3030" stroke-opacity="0.2" stroke-width="1.4"/>
<circle clip-path="url(#clip972)" cx="562.574" cy="789.48" r="14.4" fill="#ffa500" fill-rule="evenodd" fill-opacity="0.2" stroke="#ff3030" stroke-opacity="0.2" stroke-width="1.4"/>
<circle clip-path="url(#clip972)" cx="596.051" cy="727.937" r="14.4" fill="#ffa500" fill-rule="evenodd" fill-opacity="0.2" stroke="#ff3030" stroke-opacity="0.2" stroke-width="1.4"/>
<circle clip-path="url(#clip972)" cx="574.853" cy="720.083" r="14.4" fill="#ffa500" fill-rule="evenodd" fill-opacity="0.2" stroke="#ff3030" stroke-opacity="0.2" stroke-width="1.4"/>
<circle clip-path="url(#clip972)" cx="604.971" cy="768.558" r="14.4" fill="#ffa500" fill-rule="evenodd" fill-opacity="0.2" stroke="#ff3030" stroke-opacity="0.2" stroke-width="1.4"/>
<circle clip-path="url(#clip972)" cx="560.029" cy="788.667" r="14.4" fill="#ffa500" fill-rule="evenodd" fill-opacity="0.2" stroke="#ff3030" stroke-opacity="0.2" stroke-width="1.4"/>
<circle clip-path="url(#clip972)" cx="601.668" cy="839.606" r="14.4" fill="#ffa500" fill-rule="evenodd" fill-opacity="0.2" stroke="#ff3030" stroke-opacity="0.2" stroke-width="1.4"/>
<circle clip-path="url(#clip972)" cx="562.063" cy="859.879" r="14.4" fill="#ffa500" fill-rule="evenodd" fill-opacity="0.2" stroke="#ff3030" stroke-opacity="0.2" stroke-width="1.4"/>
<circle clip-path="url(#clip972)" cx="674.429" cy="821.207" r="14.4" fill="#ffa500" fill-rule="evenodd" fill-opacity="0.2" stroke="#ff3030" stroke-opacity="0.2" stroke-width="1.4"/>
<circle clip-path="url(#clip972)" cx="668.31" cy="792.923" r="14.4" fill="#ffa500" fill-rule="evenodd" fill-opacity="0.2" stroke="#ff3030" stroke-opacity="0.2" stroke-width="1.4"/>
<circle clip-path="url(#clip972)" cx="653.181" cy="832.92" r="14.4" fill="#ffa500" fill-rule="evenodd" fill-opacity="0.2" stroke="#ff3030" stroke-opacity="0.2" stroke-width="1.4"/>
<circle clip-path="url(#clip972)" cx="619.518" cy="834.848" r="14.4" fill="#ffa500" fill-rule="evenodd" fill-opacity="0.2" stroke="#ff3030" stroke-opacity="0.2" stroke-width="1.4"/>
<circle clip-path="url(#clip972)" cx="608.096" cy="833.651" r="14.4" fill="#ffa500" fill-rule="evenodd" fill-opacity="0.2" stroke="#ff3030" stroke-opacity="0.2" stroke-width="1.4"/>
<circle clip-path="url(#clip972)" cx="622.695" cy="863.003" r="14.4" fill="#ffa500" fill-rule="evenodd" fill-opacity="0.2" stroke="#ff3030" stroke-opacity="0.2" stroke-width="1.4"/>
<circle clip-path="url(#clip972)" cx="581.724" cy="866.195" r="14.4" fill="#ffa500" fill-rule="evenodd" fill-opacity="0.2" stroke="#ff3030" stroke-opacity="0.2" stroke-width="1.4"/>
<circle clip-path="url(#clip972)" cx="570.542" cy="792.802" r="14.4" fill="#ffa500" fill-rule="evenodd" fill-opacity="0.2" stroke="#ff3030" stroke-opacity="0.2" stroke-width="1.4"/>
<circle clip-path="url(#clip972)" cx="584.113" cy="796.502" r="14.4" fill="#ffa500" fill-rule="evenodd" fill-opacity="0.2" stroke="#ff3030" stroke-opacity="0.2" stroke-width="1.4"/>
<circle clip-path="url(#clip972)" cx="549.508" cy="810.426" r="14.4" fill="#ffa500" fill-rule="evenodd" fill-opacity="0.2" stroke="#ff3030" stroke-opacity="0.2" stroke-width="1.4"/>
<circle clip-path="url(#clip972)" cx="515.994" cy="775.04" r="14.4" fill="#ffa500" fill-rule="evenodd" fill-opacity="0.2" stroke="#ff3030" stroke-opacity="0.2" stroke-width="1.4"/>
<circle clip-path="url(#clip972)" cx="543.558" cy="806.475" r="14.4" fill="#ffa500" fill-rule="evenodd" fill-opacity="0.2" stroke="#ff3030" stroke-opacity="0.2" stroke-width="1.4"/>
<circle clip-path="url(#clip972)" cx="544.39" cy="754.451" r="14.4" fill="#ffa500" fill-rule="evenodd" fill-opacity="0.2" stroke="#ff3030" stroke-opacity="0.2" stroke-width="1.4"/>
<circle clip-path="url(#clip972)" cx="620.819" cy="860.03" r="14.4" fill="#ffa500" fill-rule="evenodd" fill-opacity="0.2" stroke="#ff3030" stroke-opacity="0.2" stroke-width="1.4"/>
<circle clip-path="url(#clip972)" cx="649.948" cy="827.842" r="14.4" fill="#ffa500" fill-rule="evenodd" fill-opacity="0.2" stroke="#ff3030" stroke-opacity="0.2" stroke-width="1.4"/>
<circle clip-path="url(#clip972)" cx="678.114" cy="816.92" r="14.4" fill="#ffa500" fill-rule="evenodd" fill-opacity="0.2" stroke="#ff3030" stroke-opacity="0.2" stroke-width="1.4"/>
<circle clip-path="url(#clip972)" cx="612.256" cy="784.21" r="14.4" fill="#ffa500" fill-rule="evenodd" fill-opacity="0.2" stroke="#ff3030" stroke-opacity="0.2" stroke-width="1.4"/>
<circle clip-path="url(#clip972)" cx="638.65" cy="765.505" r="14.4" fill="#ffa500" fill-rule="evenodd" fill-opacity="0.2" stroke="#ff3030" stroke-opacity="0.2" stroke-width="1.4"/>
<circle clip-path="url(#clip972)" cx="676.144" cy="725.018" r="14.4" fill="#ffa500" fill-rule="evenodd" fill-opacity="0.2" stroke="#ff3030" stroke-opacity="0.2" stroke-width="1.4"/>
<circle clip-path="url(#clip972)" cx="534.294" cy="760.424" r="14.4" fill="#ffa500" fill-rule="evenodd" fill-opacity="0.2" stroke="#ff3030" stroke-opacity="0.2" stroke-width="1.4"/>
<circle clip-path="url(#clip972)" cx="516.745" cy="734.454" r="14.4" fill="#ffa500" fill-rule="evenodd" fill-opacity="0.2" stroke="#ff3030" stroke-opacity="0.2" stroke-width="1.4"/>
<circle clip-path="url(#clip972)" cx="543.717" cy="748.832" r="14.4" fill="#ffa500" fill-rule="evenodd" fill-opacity="0.2" stroke="#ff3030" stroke-opacity="0.2" stroke-width="1.4"/>
<circle clip-path="url(#clip972)" cx="540.865" cy="747.338" r="14.4" fill="#ffa500" fill-rule="evenodd" fill-opacity="0.2" stroke="#ff3030" stroke-opacity="0.2" stroke-width="1.4"/>
<circle clip-path="url(#clip972)" cx="592.998" cy="674.005" r="14.4" fill="#ffa500" fill-rule="evenodd" fill-opacity="0.2" stroke="#ff3030" stroke-opacity="0.2" stroke-width="1.4"/>
<circle clip-path="url(#clip972)" cx="684.726" cy="692.352" r="14.4" fill="#ffa500" fill-rule="evenodd" fill-opacity="0.2" stroke="#ff3030" stroke-opacity="0.2" stroke-width="1.4"/>
<circle clip-path="url(#clip972)" cx="577.335" cy="705.425" r="14.4" fill="#ffa500" fill-rule="evenodd" fill-opacity="0.2" stroke="#ff3030" stroke-opacity="0.2" stroke-width="1.4"/>
<circle clip-path="url(#clip972)" cx="541.645" cy="691.193" r="14.4" fill="#ffa500" fill-rule="evenodd" fill-opacity="0.2" stroke="#ff3030" stroke-opacity="0.2" stroke-width="1.4"/>
<circle clip-path="url(#clip972)" cx="577.838" cy="692.042" r="14.4" fill="#ffa500" fill-rule="evenodd" fill-opacity="0.2" stroke="#ff3030" stroke-opacity="0.2" stroke-width="1.4"/>
<circle clip-path="url(#clip972)" cx="627.514" cy="739.588" r="14.4" fill="#ffa500" fill-rule="evenodd" fill-opacity="0.2" stroke="#ff3030" stroke-opacity="0.2" stroke-width="1.4"/>
<circle clip-path="url(#clip972)" cx="584.154" cy="731.67" r="14.4" fill="#ffa500" fill-rule="evenodd" fill-opacity="0.2" stroke="#ff3030" stroke-opacity="0.2" stroke-width="1.4"/>
<circle clip-path="url(#clip972)" cx="613.791" cy="794.008" r="14.4" fill="#ffa500" fill-rule="evenodd" fill-opacity="0.2" stroke="#ff3030" stroke-opacity="0.2" stroke-width="1.4"/>
<circle clip-path="url(#clip972)" cx="626.346" cy="745.124" r="14.4" fill="#ffa500" fill-rule="evenodd" fill-opacity="0.2" stroke="#ff3030" stroke-opacity="0.2" stroke-width="1.4"/>
<circle clip-path="url(#clip972)" cx="632.699" cy="844.445" r="14.4" fill="#ffa500" fill-rule="evenodd" fill-opacity="0.2" stroke="#ff3030" stroke-opacity="0.2" stroke-width="1.4"/>
<circle clip-path="url(#clip972)" cx="625.162" cy="809.088" r="14.4" fill="#ffa500" fill-rule="evenodd" fill-opacity="0.2" stroke="#ff3030" stroke-opacity="0.2" stroke-width="1.4"/>
<circle clip-path="url(#clip972)" cx="615.697" cy="847.244" r="14.4" fill="#ffa500" fill-rule="evenodd" fill-opacity="0.2" stroke="#ff3030" stroke-opacity="0.2" stroke-width="1.4"/>
<circle clip-path="url(#clip972)" cx="566.672" cy="863.978" r="14.4" fill="#ffa500" fill-rule="evenodd" fill-opacity="0.2" stroke="#ff3030" stroke-opacity="0.2" stroke-width="1.4"/>
<circle clip-path="url(#clip972)" cx="613.931" cy="922.733" r="14.4" fill="#ffa500" fill-rule="evenodd" fill-opacity="0.2" stroke="#ff3030" stroke-opacity="0.2" stroke-width="1.4"/>
<circle clip-path="url(#clip972)" cx="636.525" cy="868.503" r="14.4" fill="#ffa500" fill-rule="evenodd" fill-opacity="0.2" stroke="#ff3030" stroke-opacity="0.2" stroke-width="1.4"/>
<path clip-path="url(#clip970)" d="M1095.88 191.722 L1312.3 191.722 L1312.3 88.0416 L1095.88 88.0416  Z" fill="#ffffff" fill-rule="evenodd" fill-opacity="1"/>
<polyline clip-path="url(#clip970)" style="stroke:#000000; stroke-linecap:round; stroke-linejoin:round; stroke-width:4; stroke-opacity:1; fill:none" points="1095.88,191.722 1312.3,191.722 1312.3,88.0416 1095.88,88.0416 1095.88,191.722 "/>
<circle clip-path="url(#clip970)" cx="1149.81" cy="139.882" r="23.04" fill="#ffa500" fill-rule="evenodd" fill-opacity="0.2" stroke="#ff3030" stroke-opacity="0.2" stroke-width="2.24"/>
<path clip-path="url(#clip970)" d="M1220.14 140.958 Q1221.64 141.467 1223.06 143.134 Q1224.49 144.801 1225.93 147.717 L1230.67 157.162 L1225.65 157.162 L1221.23 148.296 Q1219.51 144.824 1217.89 143.689 Q1216.3 142.555 1213.52 142.555 L1208.43 142.555 L1208.43 157.162 L1203.75 157.162 L1203.75 122.602 L1214.31 122.602 Q1220.23 122.602 1223.15 125.078 Q1226.07 127.555 1226.07 132.555 Q1226.07 135.819 1224.54 137.972 Q1223.03 140.125 1220.14 140.958 M1208.43 126.444 L1208.43 138.713 L1214.31 138.713 Q1217.69 138.713 1219.4 137.162 Q1221.13 135.588 1221.13 132.555 Q1221.13 129.523 1219.4 127.995 Q1217.69 126.444 1214.31 126.444 L1208.43 126.444 Z" fill="#000000" fill-rule="evenodd" fill-opacity="1" /><path clip-path="url(#clip970)" d="M1246.32 127.208 L1239.98 144.407 L1252.69 144.407 L1246.32 127.208 M1243.68 122.602 L1248.98 122.602 L1262.15 157.162 L1257.29 157.162 L1254.14 148.296 L1238.57 148.296 L1235.42 157.162 L1230.49 157.162 L1243.68 122.602 Z" fill="#000000" fill-rule="evenodd" fill-opacity="1" /><path clip-path="url(#clip970)" d="M1267.2 122.602 L1274.17 122.602 L1282.99 146.12 L1291.85 122.602 L1298.82 122.602 L1298.82 157.162 L1294.26 157.162 L1294.26 126.814 L1285.35 150.518 L1280.65 150.518 L1271.74 126.814 L1271.74 157.162 L1267.2 157.162 L1267.2 122.602 Z" fill="#000000" fill-rule="evenodd" fill-opacity="1" /></svg>
