<?xml version="1.0" encoding="utf-8"?>
<svg xmlns="http://www.w3.org/2000/svg" xmlns:xlink="http://www.w3.org/1999/xlink" width="600" height="400" viewBox="0 0 2400 1600">
<defs>
  <clipPath id="clip630">
    <rect x="0" y="0" width="2400" height="1600"/>
  </clipPath>
</defs>
<path clip-path="url(#clip630)" d="M0 1600 L2400 1600 L2400 0 L0 0  Z" fill="#ffffff" fill-rule="evenodd" fill-opacity="1"/>
<defs>
  <clipPath id="clip631">
    <rect x="480" y="0" width="1681" height="1600"/>
  </clipPath>
</defs>
<path clip-path="url(#clip630)" d="M186.274 1486.45 L2352.76 1486.45 L2352.76 47.2441 L186.274 47.2441  Z" fill="#ffffff" fill-rule="evenodd" fill-opacity="1"/>
<defs>
  <clipPath id="clip632">
    <rect x="186" y="47" width="2167" height="1440"/>
  </clipPath>
</defs>
<polyline clip-path="url(#clip632)" style="stroke:#000000; stroke-linecap:round; stroke-linejoin:round; stroke-width:2; stroke-opacity:0.1; fill:none" points="451.975,1486.45 451.975,47.2441 "/>
<polyline clip-path="url(#clip632)" style="stroke:#000000; stroke-linecap:round; stroke-linejoin:round; stroke-width:2; stroke-opacity:0.1; fill:none" points="860.745,1486.45 860.745,47.2441 "/>
<polyline clip-path="url(#clip632)" style="stroke:#000000; stroke-linecap:round; stroke-linejoin:round; stroke-width:2; stroke-opacity:0.1; fill:none" points="1269.51,1486.45 1269.51,47.2441 "/>
<polyline clip-path="url(#clip632)" style="stroke:#000000; stroke-linecap:round; stroke-linejoin:round; stroke-width:2; stroke-opacity:0.1; fill:none" points="1678.29,1486.45 1678.29,47.2441 "/>
<polyline clip-path="url(#clip632)" style="stroke:#000000; stroke-linecap:round; stroke-linejoin:round; stroke-width:2; stroke-opacity:0.1; fill:none" points="2087.06,1486.45 2087.06,47.2441 "/>
<polyline clip-path="url(#clip630)" style="stroke:#000000; stroke-linecap:round; stroke-linejoin:round; stroke-width:4; stroke-opacity:1; fill:none" points="186.274,1486.45 2352.76,1486.45 "/>
<polyline clip-path="url(#clip630)" style="stroke:#000000; stroke-linecap:round; stroke-linejoin:round; stroke-width:4; stroke-opacity:1; fill:none" points="451.975,1486.45 451.975,1467.55 "/>
<polyline clip-path="url(#clip630)" style="stroke:#000000; stroke-linecap:round; stroke-linejoin:round; stroke-width:4; stroke-opacity:1; fill:none" points="860.745,1486.45 860.745,1467.55 "/>
<polyline clip-path="url(#clip630)" style="stroke:#000000; stroke-linecap:round; stroke-linejoin:round; stroke-width:4; stroke-opacity:1; fill:none" points="1269.51,1486.45 1269.51,1467.55 "/>
<polyline clip-path="url(#clip630)" style="stroke:#000000; stroke-linecap:round; stroke-linejoin:round; stroke-width:4; stroke-opacity:1; fill:none" points="1678.29,1486.45 1678.29,1467.55 "/>
<polyline clip-path="url(#clip630)" style="stroke:#000000; stroke-linecap:round; stroke-linejoin:round; stroke-width:4; stroke-opacity:1; fill:none" points="2087.06,1486.45 2087.06,1467.55 "/>
<path clip-path="url(#clip630)" d="M446.627 1544.91 L462.947 1544.91 L462.947 1548.85 L441.002 1548.85 L441.002 1544.91 Q443.664 1542.16 448.248 1537.53 Q452.854 1532.88 454.035 1531.53 Q456.28 1529.01 457.16 1527.27 Q458.063 1525.51 458.063 1523.82 Q458.063 1521.07 456.118 1519.33 Q454.197 1517.6 451.095 1517.6 Q448.896 1517.6 446.442 1518.36 Q444.012 1519.13 441.234 1520.68 L441.234 1515.95 Q444.058 1514.82 446.512 1514.24 Q448.965 1513.66 451.002 1513.66 Q456.373 1513.66 459.567 1516.35 Q462.762 1519.03 462.762 1523.52 Q462.762 1525.65 461.951 1527.57 Q461.164 1529.47 459.058 1532.07 Q458.479 1532.74 455.377 1535.95 Q452.276 1539.15 446.627 1544.91 Z" fill="#000000" fill-rule="evenodd" fill-opacity="1" /><path clip-path="url(#clip630)" d="M863.754 1518.36 L851.949 1536.81 L863.754 1536.81 L863.754 1518.36 M862.527 1514.29 L868.407 1514.29 L868.407 1536.81 L873.337 1536.81 L873.337 1540.7 L868.407 1540.7 L868.407 1548.85 L863.754 1548.85 L863.754 1540.7 L848.152 1540.7 L848.152 1536.19 L862.527 1514.29 Z" fill="#000000" fill-rule="evenodd" fill-opacity="1" /><path clip-path="url(#clip630)" d="M1269.92 1529.7 Q1266.77 1529.7 1264.92 1531.86 Q1263.09 1534.01 1263.09 1537.76 Q1263.09 1541.49 1264.92 1543.66 Q1266.77 1545.82 1269.92 1545.82 Q1273.07 1545.82 1274.9 1543.66 Q1276.75 1541.49 1276.75 1537.76 Q1276.75 1534.01 1274.9 1531.86 Q1273.07 1529.7 1269.92 1529.7 M1279.2 1515.05 L1279.2 1519.31 Q1277.44 1518.48 1275.64 1518.04 Q1273.86 1517.6 1272.1 1517.6 Q1267.47 1517.6 1265.01 1520.72 Q1262.58 1523.85 1262.23 1530.17 Q1263.6 1528.15 1265.66 1527.09 Q1267.72 1526 1270.2 1526 Q1275.41 1526 1278.42 1529.17 Q1281.45 1532.32 1281.45 1537.76 Q1281.45 1543.08 1278.3 1546.3 Q1275.15 1549.52 1269.92 1549.52 Q1263.92 1549.52 1260.75 1544.94 Q1257.58 1540.33 1257.58 1531.6 Q1257.58 1523.41 1261.47 1518.55 Q1265.36 1513.66 1271.91 1513.66 Q1273.67 1513.66 1275.45 1514.01 Q1277.26 1514.36 1279.2 1515.05 Z" fill="#000000" fill-rule="evenodd" fill-opacity="1" /><path clip-path="url(#clip630)" d="M1678.29 1532.44 Q1674.95 1532.44 1673.03 1534.22 Q1671.13 1536 1671.13 1539.13 Q1671.13 1542.25 1673.03 1544.03 Q1674.95 1545.82 1678.29 1545.82 Q1681.62 1545.82 1683.54 1544.03 Q1685.46 1542.23 1685.46 1539.13 Q1685.46 1536 1683.54 1534.22 Q1681.64 1532.44 1678.29 1532.44 M1673.61 1530.45 Q1670.6 1529.7 1668.91 1527.64 Q1667.24 1525.58 1667.24 1522.62 Q1667.24 1518.48 1670.18 1516.07 Q1673.15 1513.66 1678.29 1513.66 Q1683.45 1513.66 1686.39 1516.07 Q1689.33 1518.48 1689.33 1522.62 Q1689.33 1525.58 1687.64 1527.64 Q1685.97 1529.7 1682.98 1530.45 Q1686.36 1531.23 1688.24 1533.52 Q1690.14 1535.82 1690.14 1539.13 Q1690.14 1544.15 1687.06 1546.83 Q1684 1549.52 1678.29 1549.52 Q1672.57 1549.52 1669.49 1546.83 Q1666.43 1544.15 1666.43 1539.13 Q1666.43 1535.82 1668.33 1533.52 Q1670.23 1531.23 1673.61 1530.45 M1671.9 1523.06 Q1671.9 1525.75 1673.56 1527.25 Q1675.25 1528.76 1678.29 1528.76 Q1681.29 1528.76 1682.98 1527.25 Q1684.7 1525.75 1684.7 1523.06 Q1684.7 1520.38 1682.98 1518.87 Q1681.29 1517.37 1678.29 1517.37 Q1675.25 1517.37 1673.56 1518.87 Q1671.9 1520.38 1671.9 1523.06 Z" fill="#000000" fill-rule="evenodd" fill-opacity="1" /><path clip-path="url(#clip630)" d="M2061.74 1544.91 L2069.38 1544.91 L2069.38 1518.55 L2061.07 1520.21 L2061.07 1515.95 L2069.34 1514.29 L2074.01 1514.29 L2074.01 1544.91 L2081.65 1544.91 L2081.65 1548.85 L2061.74 1548.85 L2061.74 1544.91 Z" fill="#000000" fill-rule="evenodd" fill-opacity="1" /><path clip-path="url(#clip630)" d="M2101.09 1517.37 Q2097.48 1517.37 2095.65 1520.93 Q2093.85 1524.47 2093.85 1531.6 Q2093.85 1538.71 2095.65 1542.27 Q2097.48 1545.82 2101.09 1545.82 Q2104.73 1545.82 2106.53 1542.27 Q2108.36 1538.71 2108.36 1531.6 Q2108.36 1524.47 2106.53 1520.93 Q2104.73 1517.37 2101.09 1517.37 M2101.09 1513.66 Q2106.9 1513.66 2109.96 1518.27 Q2113.04 1522.85 2113.04 1531.6 Q2113.04 1540.33 2109.96 1544.94 Q2106.9 1549.52 2101.09 1549.52 Q2095.28 1549.52 2092.21 1544.94 Q2089.15 1540.33 2089.15 1531.6 Q2089.15 1522.85 2092.21 1518.27 Q2095.28 1513.66 2101.09 1513.66 Z" fill="#000000" fill-rule="evenodd" fill-opacity="1" /><polyline clip-path="url(#clip632)" style="stroke:#000000; stroke-linecap:round; stroke-linejoin:round; stroke-width:2; stroke-opacity:0.1; fill:none" points="186.274,1431.69 2352.76,1431.69 "/>
<polyline clip-path="url(#clip632)" style="stroke:#000000; stroke-linecap:round; stroke-linejoin:round; stroke-width:2; stroke-opacity:0.1; fill:none" points="186.274,1095.76 2352.76,1095.76 "/>
<polyline clip-path="url(#clip632)" style="stroke:#000000; stroke-linecap:round; stroke-linejoin:round; stroke-width:2; stroke-opacity:0.1; fill:none" points="186.274,759.835 2352.76,759.835 "/>
<polyline clip-path="url(#clip632)" style="stroke:#000000; stroke-linecap:round; stroke-linejoin:round; stroke-width:2; stroke-opacity:0.1; fill:none" points="186.274,423.906 2352.76,423.906 "/>
<polyline clip-path="url(#clip632)" style="stroke:#000000; stroke-linecap:round; stroke-linejoin:round; stroke-width:2; stroke-opacity:0.1; fill:none" points="186.274,87.9763 2352.76,87.9763 "/>
<polyline clip-path="url(#clip630)" style="stroke:#000000; stroke-linecap:round; stroke-linejoin:round; stroke-width:4; stroke-opacity:1; fill:none" points="186.274,1486.45 186.274,47.2441 "/>
<polyline clip-path="url(#clip630)" style="stroke:#000000; stroke-linecap:round; stroke-linejoin:round; stroke-width:4; stroke-opacity:1; fill:none" points="186.274,1431.69 205.172,1431.69 "/>
<polyline clip-path="url(#clip630)" style="stroke:#000000; stroke-linecap:round; stroke-linejoin:round; stroke-width:4; stroke-opacity:1; fill:none" points="186.274,1095.76 205.172,1095.76 "/>
<polyline clip-path="url(#clip630)" style="stroke:#000000; stroke-linecap:round; stroke-linejoin:round; stroke-width:4; stroke-opacity:1; fill:none" points="186.274,759.835 205.172,759.835 "/>
<polyline clip-path="url(#clip630)" style="stroke:#000000; stroke-linecap:round; stroke-linejoin:round; stroke-width:4; stroke-opacity:1; fill:none" points="186.274,423.906 205.172,423.906 "/>
<polyline clip-path="url(#clip630)" style="stroke:#000000; stroke-linecap:round; stroke-linejoin:round; stroke-width:4; stroke-opacity:1; fill:none" points="186.274,87.9763 205.172,87.9763 "/>
<path clip-path="url(#clip630)" d="M62.9365 1417.49 Q59.3254 1417.49 57.4967 1421.06 Q55.6912 1424.6 55.6912 1431.73 Q55.6912 1438.83 57.4967 1442.4 Q59.3254 1445.94 62.9365 1445.94 Q66.5707 1445.94 68.3763 1442.4 Q70.205 1438.83 70.205 1431.73 Q70.205 1424.6 68.3763 1421.06 Q66.5707 1417.49 62.9365 1417.49 M62.9365 1413.79 Q68.7467 1413.79 71.8022 1418.39 Q74.8809 1422.98 74.8809 1431.73 Q74.8809 1440.45 71.8022 1445.06 Q68.7467 1449.64 62.9365 1449.64 Q57.1264 1449.64 54.0477 1445.06 Q50.9921 1440.45 50.9921 1431.73 Q50.9921 1422.98 54.0477 1418.39 Q57.1264 1413.79 62.9365 1413.79 Z" fill="#000000" fill-rule="evenodd" fill-opacity="1" /><path clip-path="url(#clip630)" d="M83.0984 1443.09 L87.9827 1443.09 L87.9827 1448.97 L83.0984 1448.97 L83.0984 1443.09 Z" fill="#000000" fill-rule="evenodd" fill-opacity="1" /><path clip-path="url(#clip630)" d="M108.168 1417.49 Q104.557 1417.49 102.728 1421.06 Q100.922 1424.6 100.922 1431.73 Q100.922 1438.83 102.728 1442.4 Q104.557 1445.94 108.168 1445.94 Q111.802 1445.94 113.608 1442.4 Q115.436 1438.83 115.436 1431.73 Q115.436 1424.6 113.608 1421.06 Q111.802 1417.49 108.168 1417.49 M108.168 1413.79 Q113.978 1413.79 117.033 1418.39 Q120.112 1422.98 120.112 1431.73 Q120.112 1440.45 117.033 1445.06 Q113.978 1449.64 108.168 1449.64 Q102.358 1449.64 99.2789 1445.06 Q96.2234 1440.45 96.2234 1431.73 Q96.2234 1422.98 99.2789 1418.39 Q102.358 1413.79 108.168 1413.79 Z" fill="#000000" fill-rule="evenodd" fill-opacity="1" /><path clip-path="url(#clip630)" d="M138.33 1417.49 Q134.719 1417.49 132.89 1421.06 Q131.084 1424.6 131.084 1431.73 Q131.084 1438.83 132.89 1442.4 Q134.719 1445.94 138.33 1445.94 Q141.964 1445.94 143.769 1442.4 Q145.598 1438.83 145.598 1431.73 Q145.598 1424.6 143.769 1421.06 Q141.964 1417.49 138.33 1417.49 M138.33 1413.79 Q144.14 1413.79 147.195 1418.39 Q150.274 1422.98 150.274 1431.73 Q150.274 1440.45 147.195 1445.06 Q144.14 1449.64 138.33 1449.64 Q132.519 1449.64 129.441 1445.06 Q126.385 1440.45 126.385 1431.73 Q126.385 1422.98 129.441 1418.39 Q132.519 1413.79 138.33 1413.79 Z" fill="#000000" fill-rule="evenodd" fill-opacity="1" /><path clip-path="url(#clip630)" d="M63.9319 1081.56 Q60.3208 1081.56 58.4921 1085.13 Q56.6865 1088.67 56.6865 1095.8 Q56.6865 1102.91 58.4921 1106.47 Q60.3208 1110.01 63.9319 1110.01 Q67.5661 1110.01 69.3717 1106.47 Q71.2004 1102.91 71.2004 1095.8 Q71.2004 1088.67 69.3717 1085.13 Q67.5661 1081.56 63.9319 1081.56 M63.9319 1077.86 Q69.742 1077.86 72.7976 1082.47 Q75.8763 1087.05 75.8763 1095.8 Q75.8763 1104.53 72.7976 1109.13 Q69.742 1113.72 63.9319 1113.72 Q58.1217 1113.72 55.043 1109.13 Q51.9875 1104.53 51.9875 1095.8 Q51.9875 1087.05 55.043 1082.47 Q58.1217 1077.86 63.9319 1077.86 Z" fill="#000000" fill-rule="evenodd" fill-opacity="1" /><path clip-path="url(#clip630)" d="M84.0938 1107.16 L88.978 1107.16 L88.978 1113.04 L84.0938 1113.04 L84.0938 1107.16 Z" fill="#000000" fill-rule="evenodd" fill-opacity="1" /><path clip-path="url(#clip630)" d="M103.191 1109.11 L119.51 1109.11 L119.51 1113.04 L97.566 1113.04 L97.566 1109.11 Q100.228 1106.35 104.811 1101.72 Q109.418 1097.07 110.598 1095.73 Q112.844 1093.21 113.723 1091.47 Q114.626 1089.71 114.626 1088.02 Q114.626 1085.27 112.682 1083.53 Q110.76 1081.79 107.658 1081.79 Q105.459 1081.79 103.006 1082.56 Q100.575 1083.32 97.7974 1084.87 L97.7974 1080.15 Q100.621 1079.02 103.075 1078.44 Q105.529 1077.86 107.566 1077.86 Q112.936 1077.86 116.131 1080.54 Q119.325 1083.23 119.325 1087.72 Q119.325 1089.85 118.515 1091.77 Q117.728 1093.67 115.621 1096.26 Q115.043 1096.93 111.941 1100.15 Q108.839 1103.35 103.191 1109.11 Z" fill="#000000" fill-rule="evenodd" fill-opacity="1" /><path clip-path="url(#clip630)" d="M129.371 1078.48 L147.728 1078.48 L147.728 1082.42 L133.654 1082.42 L133.654 1090.89 Q134.672 1090.54 135.691 1090.38 Q136.709 1090.2 137.728 1090.2 Q143.515 1090.2 146.894 1093.37 Q150.274 1096.54 150.274 1101.96 Q150.274 1107.53 146.802 1110.64 Q143.33 1113.72 137.01 1113.72 Q134.834 1113.72 132.566 1113.35 Q130.32 1112.97 127.913 1112.23 L127.913 1107.53 Q129.996 1108.67 132.219 1109.22 Q134.441 1109.78 136.918 1109.78 Q140.922 1109.78 143.26 1107.67 Q145.598 1105.57 145.598 1101.96 Q145.598 1098.35 143.26 1096.24 Q140.922 1094.13 136.918 1094.13 Q135.043 1094.13 133.168 1094.55 Q131.316 1094.97 129.371 1095.85 L129.371 1078.48 Z" fill="#000000" fill-rule="evenodd" fill-opacity="1" /><path clip-path="url(#clip630)" d="M62.9365 745.634 Q59.3254 745.634 57.4967 749.198 Q55.6912 752.74 55.6912 759.87 Q55.6912 766.976 57.4967 770.541 Q59.3254 774.082 62.9365 774.082 Q66.5707 774.082 68.3763 770.541 Q70.205 766.976 70.205 759.87 Q70.205 752.74 68.3763 749.198 Q66.5707 745.634 62.9365 745.634 M62.9365 741.93 Q68.7467 741.93 71.8022 746.536 Q74.8809 751.12 74.8809 759.87 Q74.8809 768.596 71.8022 773.203 Q68.7467 777.786 62.9365 777.786 Q57.1264 777.786 54.0477 773.203 Q50.9921 768.596 50.9921 759.87 Q50.9921 751.12 54.0477 746.536 Q57.1264 741.93 62.9365 741.93 Z" fill="#000000" fill-rule="evenodd" fill-opacity="1" /><path clip-path="url(#clip630)" d="M83.0984 771.235 L87.9827 771.235 L87.9827 777.115 L83.0984 777.115 L83.0984 771.235 Z" fill="#000000" fill-rule="evenodd" fill-opacity="1" /><path clip-path="url(#clip630)" d="M98.2141 742.555 L116.57 742.555 L116.57 746.49 L102.496 746.49 L102.496 754.962 Q103.515 754.615 104.534 754.453 Q105.552 754.268 106.571 754.268 Q112.358 754.268 115.737 757.439 Q119.117 760.61 119.117 766.027 Q119.117 771.606 115.645 774.707 Q112.172 777.786 105.853 777.786 Q103.677 777.786 101.409 777.416 Q99.1632 777.045 96.7558 776.305 L96.7558 771.606 Q98.8391 772.74 101.061 773.295 Q103.284 773.851 105.76 773.851 Q109.765 773.851 112.103 771.745 Q114.441 769.638 114.441 766.027 Q114.441 762.416 112.103 760.309 Q109.765 758.203 105.76 758.203 Q103.885 758.203 102.01 758.62 Q100.159 759.036 98.2141 759.916 L98.2141 742.555 Z" fill="#000000" fill-rule="evenodd" fill-opacity="1" /><path clip-path="url(#clip630)" d="M138.33 745.634 Q134.719 745.634 132.89 749.198 Q131.084 752.74 131.084 759.87 Q131.084 766.976 132.89 770.541 Q134.719 774.082 138.33 774.082 Q141.964 774.082 143.769 770.541 Q145.598 766.976 145.598 759.87 Q145.598 752.74 143.769 749.198 Q141.964 745.634 138.33 745.634 M138.33 741.93 Q144.14 741.93 147.195 746.536 Q150.274 751.12 150.274 759.87 Q150.274 768.596 147.195 773.203 Q144.14 777.786 138.33 777.786 Q132.519 777.786 129.441 773.203 Q126.385 768.596 126.385 759.87 Q126.385 751.12 129.441 746.536 Q132.519 741.93 138.33 741.93 Z" fill="#000000" fill-rule="evenodd" fill-opacity="1" /><path clip-path="url(#clip630)" d="M63.9319 409.704 Q60.3208 409.704 58.4921 413.269 Q56.6865 416.811 56.6865 423.94 Q56.6865 431.047 58.4921 434.612 Q60.3208 438.153 63.9319 438.153 Q67.5661 438.153 69.3717 434.612 Q71.2004 431.047 71.2004 423.94 Q71.2004 416.811 69.3717 413.269 Q67.5661 409.704 63.9319 409.704 M63.9319 406.001 Q69.742 406.001 72.7976 410.607 Q75.8763 415.19 75.8763 423.94 Q75.8763 432.667 72.7976 437.274 Q69.742 441.857 63.9319 441.857 Q58.1217 441.857 55.043 437.274 Q51.9875 432.667 51.9875 423.94 Q51.9875 415.19 55.043 410.607 Q58.1217 406.001 63.9319 406.001 Z" fill="#000000" fill-rule="evenodd" fill-opacity="1" /><path clip-path="url(#clip630)" d="M84.0938 435.306 L88.978 435.306 L88.978 441.186 L84.0938 441.186 L84.0938 435.306 Z" fill="#000000" fill-rule="evenodd" fill-opacity="1" /><path clip-path="url(#clip630)" d="M97.9826 406.626 L120.205 406.626 L120.205 408.616 L107.658 441.186 L102.774 441.186 L114.58 410.561 L97.9826 410.561 L97.9826 406.626 Z" fill="#000000" fill-rule="evenodd" fill-opacity="1" /><path clip-path="url(#clip630)" d="M129.371 406.626 L147.728 406.626 L147.728 410.561 L133.654 410.561 L133.654 419.033 Q134.672 418.686 135.691 418.524 Q136.709 418.338 137.728 418.338 Q143.515 418.338 146.894 421.51 Q150.274 424.681 150.274 430.098 Q150.274 435.676 146.802 438.778 Q143.33 441.857 137.01 441.857 Q134.834 441.857 132.566 441.486 Q130.32 441.116 127.913 440.375 L127.913 435.676 Q129.996 436.811 132.219 437.366 Q134.441 437.922 136.918 437.922 Q140.922 437.922 143.26 435.815 Q145.598 433.709 145.598 430.098 Q145.598 426.487 143.26 424.38 Q140.922 422.274 136.918 422.274 Q135.043 422.274 133.168 422.69 Q131.316 423.107 129.371 423.987 L129.371 406.626 Z" fill="#000000" fill-rule="evenodd" fill-opacity="1" /><path clip-path="url(#clip630)" d="M53.7467 101.321 L61.3856 101.321 L61.3856 74.9555 L53.0754 76.6222 L53.0754 72.3629 L61.3393 70.6963 L66.0152 70.6963 L66.0152 101.321 L73.654 101.321 L73.654 105.256 L53.7467 105.256 L53.7467 101.321 Z" fill="#000000" fill-rule="evenodd" fill-opacity="1" /><path clip-path="url(#clip630)" d="M83.0984 99.3767 L87.9827 99.3767 L87.9827 105.256 L83.0984 105.256 L83.0984 99.3767 Z" fill="#000000" fill-rule="evenodd" fill-opacity="1" /><path clip-path="url(#clip630)" d="M108.168 73.775 Q104.557 73.775 102.728 77.3398 Q100.922 80.8814 100.922 88.011 Q100.922 95.1174 102.728 98.6822 Q104.557 102.224 108.168 102.224 Q111.802 102.224 113.608 98.6822 Q115.436 95.1174 115.436 88.011 Q115.436 80.8814 113.608 77.3398 Q111.802 73.775 108.168 73.775 M108.168 70.0713 Q113.978 70.0713 117.033 74.6777 Q120.112 79.261 120.112 88.011 Q120.112 96.7378 117.033 101.344 Q113.978 105.928 108.168 105.928 Q102.358 105.928 99.2789 101.344 Q96.2234 96.7378 96.2234 88.011 Q96.2234 79.261 99.2789 74.6777 Q102.358 70.0713 108.168 70.0713 Z" fill="#000000" fill-rule="evenodd" fill-opacity="1" /><path clip-path="url(#clip630)" d="M138.33 73.775 Q134.719 73.775 132.89 77.3398 Q131.084 80.8814 131.084 88.011 Q131.084 95.1174 132.89 98.6822 Q134.719 102.224 138.33 102.224 Q141.964 102.224 143.769 98.6822 Q145.598 95.1174 145.598 88.011 Q145.598 80.8814 143.769 77.3398 Q141.964 73.775 138.33 73.775 M138.33 70.0713 Q144.14 70.0713 147.195 74.6777 Q150.274 79.261 150.274 88.011 Q150.274 96.7378 147.195 101.344 Q144.14 105.928 138.33 105.928 Q132.519 105.928 129.441 101.344 Q126.385 96.7378 126.385 88.011 Q126.385 79.261 129.441 74.6777 Q132.519 70.0713 138.33 70.0713 Z" fill="#000000" fill-rule="evenodd" fill-opacity="1" /><polyline clip-path="url(#clip632)" style="stroke:#009af9; stroke-linecap:round; stroke-linejoin:round; stroke-width:12; stroke-opacity:1; fill:none" points="247.59,87.9763 451.975,732.676 656.36,936.485 860.745,1041.31 1065.13,1094 1269.51,1125.39 1473.9,1151.77 1678.29,1168.14 1882.67,1196.61 2087.06,1208.72 2291.44,1230.65 "/>
<polyline clip-path="url(#clip632)" style="stroke:#e26f46; stroke-linecap:round; stroke-linejoin:round; stroke-width:12; stroke-opacity:1; fill:none" points="247.59,87.9763 451.975,701.593 656.36,951.826 860.745,1121.12 1065.13,1241.31 1269.51,1298.4 1473.9,1351.05 1678.29,1401.98 1882.67,1438.21 2087.06,1445.72 2291.44,1436.97 "/>
<polyline clip-path="url(#clip632)" style="stroke:#3da44d; stroke-linecap:round; stroke-linejoin:round; stroke-width:12; stroke-opacity:1; fill:none" points="247.59,87.9763 451.975,967.149 656.36,1195.62 860.745,1296.71 1065.13,1309.54 1269.51,1339.57 1473.9,1379.76 1678.29,1375.96 1882.67,1363.85 2087.06,1384.84 2291.44,1395.65 "/>
<polyline clip-path="url(#clip632)" style="stroke:#c271d2; stroke-linecap:round; stroke-linejoin:round; stroke-width:12; stroke-opacity:1; fill:none" points="247.59,87.9763 451.975,1127.43 656.36,1284.1 860.745,1330.06 1065.13,1372.6 1269.51,1384.86 1473.9,1424.05 1678.29,1426.11 1882.67,1416.86 2087.06,1402.1 2291.44,1425.56 "/>
<path clip-path="url(#clip630)" d="M1881.95 354.418 L2280.54 354.418 L2280.54 95.2176 L1881.95 95.2176  Z" fill="#ffffff" fill-rule="evenodd" fill-opacity="1"/>
<polyline clip-path="url(#clip630)" style="stroke:#000000; stroke-linecap:round; stroke-linejoin:round; stroke-width:4; stroke-opacity:1; fill:none" points="1881.95,354.418 2280.54,354.418 2280.54,95.2176 1881.95,95.2176 1881.95,354.418 "/>
<polyline clip-path="url(#clip630)" style="stroke:#009af9; stroke-linecap:round; stroke-linejoin:round; stroke-width:12; stroke-opacity:1; fill:none" points="1906.02,147.058 2050.45,147.058 "/>
<path clip-path="url(#clip630)" d="M2074.52 129.778 L2079.2 129.778 L2079.2 143.944 L2096.19 143.944 L2096.19 129.778 L2100.87 129.778 L2100.87 164.338 L2096.19 164.338 L2096.19 147.879 L2079.2 147.879 L2079.2 164.338 L2074.52 164.338 L2074.52 129.778 Z" fill="#000000" fill-rule="evenodd" fill-opacity="1" /><path clip-path="url(#clip630)" d="M2110.17 129.778 L2117.14 129.778 L2125.96 153.296 L2134.82 129.778 L2141.79 129.778 L2141.79 164.338 L2137.23 164.338 L2137.23 133.99 L2128.32 157.694 L2123.62 157.694 L2114.71 133.99 L2114.71 164.338 L2110.17 164.338 L2110.17 129.778 Z" fill="#000000" fill-rule="evenodd" fill-opacity="1" /><path clip-path="url(#clip630)" d="M2176.95 132.44 L2176.95 137.37 Q2174.59 135.171 2171.91 134.083 Q2169.25 132.995 2166.24 132.995 Q2160.31 132.995 2157.16 136.629 Q2154.01 140.24 2154.01 147.092 Q2154.01 153.921 2157.16 157.555 Q2160.31 161.166 2166.24 161.166 Q2169.25 161.166 2171.91 160.078 Q2174.59 158.99 2176.95 156.791 L2176.95 161.676 Q2174.5 163.342 2171.75 164.176 Q2169.01 165.009 2165.96 165.009 Q2158.11 165.009 2153.6 160.217 Q2149.08 155.402 2149.08 147.092 Q2149.08 138.759 2153.6 133.967 Q2158.11 129.153 2165.96 129.153 Q2169.06 129.153 2171.79 129.986 Q2174.55 130.796 2176.95 132.44 Z" fill="#000000" fill-rule="evenodd" fill-opacity="1" /><polyline clip-path="url(#clip630)" style="stroke:#e26f46; stroke-linecap:round; stroke-linejoin:round; stroke-width:12; stroke-opacity:1; fill:none" points="1906.02,198.898 2050.45,198.898 "/>
<path clip-path="url(#clip630)" d="M2090.91 199.974 Q2092.42 200.483 2093.83 202.15 Q2095.26 203.817 2096.7 206.733 L2101.45 216.178 L2096.42 216.178 L2092 207.312 Q2090.29 203.84 2088.67 202.705 Q2087.07 201.571 2084.29 201.571 L2079.2 201.571 L2079.2 216.178 L2074.52 216.178 L2074.52 181.618 L2085.08 181.618 Q2091.01 181.618 2093.92 184.094 Q2096.84 186.571 2096.84 191.571 Q2096.84 194.835 2095.31 196.988 Q2093.81 199.141 2090.91 199.974 M2079.2 185.46 L2079.2 197.729 L2085.08 197.729 Q2088.46 197.729 2090.17 196.178 Q2091.91 194.604 2091.91 191.571 Q2091.91 188.539 2090.17 187.011 Q2088.46 185.46 2085.08 185.46 L2079.2 185.46 Z" fill="#000000" fill-rule="evenodd" fill-opacity="1" /><path clip-path="url(#clip630)" d="M2117.09 186.224 L2110.75 203.423 L2123.46 203.423 L2117.09 186.224 M2114.45 181.618 L2119.76 181.618 L2132.93 216.178 L2128.07 216.178 L2124.92 207.312 L2109.34 207.312 L2106.19 216.178 L2101.26 216.178 L2114.45 181.618 Z" fill="#000000" fill-rule="evenodd" fill-opacity="1" /><path clip-path="url(#clip630)" d="M2134.59 201.293 L2147.07 201.293 L2147.07 205.09 L2134.59 205.09 L2134.59 201.293 Z" fill="#000000" fill-rule="evenodd" fill-opacity="1" /><path clip-path="url(#clip630)" d="M2154.04 181.618 L2158.71 181.618 L2158.71 195.784 L2175.7 195.784 L2175.7 181.618 L2180.38 181.618 L2180.38 216.178 L2175.7 216.178 L2175.7 199.719 L2158.71 199.719 L2158.71 216.178 L2154.04 216.178 L2154.04 181.618 Z" fill="#000000" fill-rule="evenodd" fill-opacity="1" /><path clip-path="url(#clip630)" d="M2189.69 181.618 L2196.65 181.618 L2205.47 205.136 L2214.34 181.618 L2221.31 181.618 L2221.31 216.178 L2216.75 216.178 L2216.75 185.83 L2207.83 209.534 L2203.13 209.534 L2194.22 185.83 L2194.22 216.178 L2189.69 216.178 L2189.69 181.618 Z" fill="#000000" fill-rule="evenodd" fill-opacity="1" /><path clip-path="url(#clip630)" d="M2256.47 184.28 L2256.47 189.21 Q2254.11 187.011 2251.42 185.923 Q2248.76 184.835 2245.75 184.835 Q2239.82 184.835 2236.68 188.469 Q2233.53 192.08 2233.53 198.932 Q2233.53 205.761 2236.68 209.395 Q2239.82 213.006 2245.75 213.006 Q2248.76 213.006 2251.42 211.918 Q2254.11 210.83 2256.47 208.631 L2256.47 213.516 Q2254.01 215.182 2251.26 216.016 Q2248.53 216.849 2245.47 216.849 Q2237.63 216.849 2233.11 212.057 Q2228.6 207.242 2228.6 198.932 Q2228.6 190.599 2233.11 185.807 Q2237.63 180.993 2245.47 180.993 Q2248.57 180.993 2251.31 181.826 Q2254.06 182.636 2256.47 184.28 Z" fill="#000000" fill-rule="evenodd" fill-opacity="1" /><polyline clip-path="url(#clip630)" style="stroke:#3da44d; stroke-linecap:round; stroke-linejoin:round; stroke-width:12; stroke-opacity:1; fill:none" points="1906.02,250.738 2050.45,250.738 "/>
<path clip-path="url(#clip630)" d="M2090.91 251.814 Q2092.42 252.323 2093.83 253.99 Q2095.26 255.657 2096.7 258.573 L2101.45 268.018 L2096.42 268.018 L2092 259.152 Q2090.29 255.68 2088.67 254.545 Q2087.07 253.411 2084.29 253.411 L2079.2 253.411 L2079.2 268.018 L2074.52 268.018 L2074.52 233.458 L2085.08 233.458 Q2091.01 233.458 2093.92 235.934 Q2096.84 238.411 2096.84 243.411 Q2096.84 246.675 2095.31 248.828 Q2093.81 250.981 2090.91 251.814 M2079.2 237.3 L2079.2 249.569 L2085.08 249.569 Q2088.46 249.569 2090.17 248.018 Q2091.91 246.444 2091.91 243.411 Q2091.91 240.379 2090.17 238.851 Q2088.46 237.3 2085.08 237.3 L2079.2 237.3 Z" fill="#000000" fill-rule="evenodd" fill-opacity="1" /><path clip-path="url(#clip630)" d="M2117.09 238.064 L2110.75 255.263 L2123.46 255.263 L2117.09 238.064 M2114.45 233.458 L2119.76 233.458 L2132.93 268.018 L2128.07 268.018 L2124.92 259.152 L2109.34 259.152 L2106.19 268.018 L2101.26 268.018 L2114.45 233.458 Z" fill="#000000" fill-rule="evenodd" fill-opacity="1" /><path clip-path="url(#clip630)" d="M2137.97 233.458 L2144.94 233.458 L2153.76 256.976 L2162.63 233.458 L2169.59 233.458 L2169.59 268.018 L2165.03 268.018 L2165.03 237.67 L2156.12 261.374 L2151.42 261.374 L2142.51 237.67 L2142.51 268.018 L2137.97 268.018 L2137.97 233.458 Z" fill="#000000" fill-rule="evenodd" fill-opacity="1" /><polyline clip-path="url(#clip630)" style="stroke:#c271d2; stroke-linecap:round; stroke-linejoin:round; stroke-width:12; stroke-opacity:1; fill:none" points="1906.02,302.578 2050.45,302.578 "/>
<path clip-path="url(#clip630)" d="M2079.2 289.14 L2079.2 302.126 L2085.08 302.126 Q2088.34 302.126 2090.13 300.436 Q2091.91 298.747 2091.91 295.622 Q2091.91 292.52 2090.13 290.83 Q2088.34 289.14 2085.08 289.14 L2079.2 289.14 M2074.52 285.298 L2085.08 285.298 Q2090.89 285.298 2093.85 287.936 Q2096.84 290.552 2096.84 295.622 Q2096.84 300.737 2093.85 303.353 Q2090.89 305.969 2085.08 305.969 L2079.2 305.969 L2079.2 319.858 L2074.52 319.858 L2074.52 285.298 Z" fill="#000000" fill-rule="evenodd" fill-opacity="1" /><path clip-path="url(#clip630)" d="M2103.11 285.298 L2124.96 285.298 L2124.96 289.233 L2107.79 289.233 L2107.79 299.464 L2124.25 299.464 L2124.25 303.399 L2107.79 303.399 L2107.79 315.922 L2125.38 315.922 L2125.38 319.858 L2103.11 319.858 L2103.11 285.298 Z" fill="#000000" fill-rule="evenodd" fill-opacity="1" /><path clip-path="url(#clip630)" d="M2130.73 304.973 L2143.2 304.973 L2143.2 308.77 L2130.73 308.77 L2130.73 304.973 Z" fill="#000000" fill-rule="evenodd" fill-opacity="1" /><path clip-path="url(#clip630)" d="M2150.17 285.298 L2154.85 285.298 L2154.85 299.464 L2171.84 299.464 L2171.84 285.298 L2176.51 285.298 L2176.51 319.858 L2171.84 319.858 L2171.84 303.399 L2154.85 303.399 L2154.85 319.858 L2150.17 319.858 L2150.17 285.298 Z" fill="#000000" fill-rule="evenodd" fill-opacity="1" /><path clip-path="url(#clip630)" d="M2185.82 285.298 L2192.79 285.298 L2201.61 308.816 L2210.47 285.298 L2217.44 285.298 L2217.44 319.858 L2212.88 319.858 L2212.88 289.51 L2203.97 313.214 L2199.27 313.214 L2190.36 289.51 L2190.36 319.858 L2185.82 319.858 L2185.82 285.298 Z" fill="#000000" fill-rule="evenodd" fill-opacity="1" /><path clip-path="url(#clip630)" d="M2252.6 287.96 L2252.6 292.89 Q2250.24 290.691 2247.56 289.603 Q2244.89 288.515 2241.88 288.515 Q2235.96 288.515 2232.81 292.149 Q2229.66 295.76 2229.66 302.612 Q2229.66 309.441 2232.81 313.075 Q2235.96 316.686 2241.88 316.686 Q2244.89 316.686 2247.56 315.598 Q2250.24 314.51 2252.6 312.311 L2252.6 317.196 Q2250.15 318.862 2247.39 319.696 Q2244.66 320.529 2241.61 320.529 Q2233.76 320.529 2229.25 315.737 Q2224.73 310.922 2224.73 302.612 Q2224.73 294.279 2229.25 289.487 Q2233.76 284.673 2241.61 284.673 Q2244.71 284.673 2247.44 285.506 Q2250.19 286.316 2252.6 287.96 Z" fill="#000000" fill-rule="evenodd" fill-opacity="1" /></svg>
