<?xml version="1.0" encoding="utf-8"?>
<svg xmlns="http://www.w3.org/2000/svg" xmlns:xlink="http://www.w3.org/1999/xlink" width="600" height="400" viewBox="0 0 2400 1600">
<defs>
  <clipPath id="clip930">
    <rect x="0" y="0" width="2400" height="1600"/>
  </clipPath>
</defs>
<path clip-path="url(#clip930)" d="M0 1600 L2400 1600 L2400 0 L0 0  Z" fill="#ffffff" fill-rule="evenodd" fill-opacity="1"/>
<defs>
  <clipPath id="clip931">
    <rect x="480" y="0" width="1681" height="1600"/>
  </clipPath>
</defs>
<path clip-path="url(#clip930)" d="M186.274 1486.45 L2352.76 1486.45 L2352.76 47.2441 L186.274 47.2441  Z" fill="#ffffff" fill-rule="evenodd" fill-opacity="1"/>
<defs>
  <clipPath id="clip932">
    <rect x="186" y="47" width="2167" height="1440"/>
  </clipPath>
</defs>
<polyline clip-path="url(#clip932)" style="stroke:#000000; stroke-linecap:round; stroke-linejoin:round; stroke-width:2; stroke-opacity:0.1; fill:none" points="451.975,1486.45 451.975,47.2441 "/>
<polyline clip-path="url(#clip932)" style="stroke:#000000; stroke-linecap:round; stroke-linejoin:round; stroke-width:2; stroke-opacity:0.1; fill:none" points="860.745,1486.45 860.745,47.2441 "/>
<polyline clip-path="url(#clip932)" style="stroke:#000000; stroke-linecap:round; stroke-linejoin:round; stroke-width:2; stroke-opacity:0.1; fill:none" points="1269.51,1486.45 1269.51,47.2441 "/>
<polyline clip-path="url(#clip932)" style="stroke:#000000; stroke-linecap:round; stroke-linejoin:round; stroke-width:2; stroke-opacity:0.1; fill:none" points="1678.29,1486.45 1678.29,47.2441 "/>
<polyline clip-path="url(#clip932)" style="stroke:#000000; stroke-linecap:round; stroke-linejoin:round; stroke-width:2; stroke-opacity:0.1; fill:none" points="2087.06,1486.45 2087.06,47.2441 "/>
<polyline clip-path="url(#clip930)" style="stroke:#000000; stroke-linecap:round; stroke-linejoin:round; stroke-width:4; stroke-opacity:1; fill:none" points="186.274,1486.45 2352.76,1486.45 "/>
<polyline clip-path="url(#clip930)" style="stroke:#000000; stroke-linecap:round; stroke-linejoin:round; stroke-width:4; stroke-opacity:1; fill:none" points="451.975,1486.45 451.975,1467.55 "/>
<polyline clip-path="url(#clip930)" style="stroke:#000000; stroke-linecap:round; stroke-linejoin:round; stroke-width:4; stroke-opacity:1; fill:none" points="860.745,1486.45 860.745,1467.55 "/>
<polyline clip-path="url(#clip930)" style="stroke:#000000; stroke-linecap:round; stroke-linejoin:round; stroke-width:4; stroke-opacity:1; fill:none" points="1269.51,1486.45 1269.51,1467.55 "/>
<polyline clip-path="url(#clip930)" style="stroke:#000000; stroke-linecap:round; stroke-linejoin:round; stroke-width:4; stroke-opacity:1; fill:none" points="1678.29,1486.45 1678.29,1467.55 "/>
<polyline clip-path="url(#clip930)" style="stroke:#000000; stroke-linecap:round; stroke-linejoin:round; stroke-width:4; stroke-opacity:1; fill:none" points="2087.06,1486.45 2087.06,1467.55 "/>
<path clip-path="url(#clip930)" d="M446.627 1544.91 L462.947 1544.91 L462.947 1548.85 L441.002 1548.85 L441.002 1544.91 Q443.664 1542.16 448.248 1537.53 Q452.854 1532.88 454.035 1531.53 Q456.28 1529.01 457.16 1527.27 Q458.063 1525.51 458.063 1523.82 Q458.063 1521.07 456.118 1519.33 Q454.197 1517.6 451.095 1517.6 Q448.896 1517.6 446.442 1518.36 Q444.012 1519.13 441.234 1520.68 L441.234 1515.95 Q444.058 1514.82 446.512 1514.24 Q448.965 1513.66 451.002 1513.66 Q456.373 1513.66 459.567 1516.35 Q462.762 1519.03 462.762 1523.52 Q462.762 1525.65 461.951 1527.57 Q461.164 1529.47 459.058 1532.07 Q458.479 1532.74 455.377 1535.95 Q452.276 1539.15 446.627 1544.91 Z" fill="#000000" fill-rule="evenodd" fill-opacity="1" /><path clip-path="url(#clip930)" d="M863.754 1518.36 L851.949 1536.81 L863.754 1536.81 L863.754 1518.36 M862.527 1514.29 L868.407 1514.29 L868.407 1536.81 L873.337 1536.81 L873.337 1540.7 L868.407 1540.7 L868.407 1548.85 L863.754 1548.85 L863.754 1540.7 L848.152 1540.7 L848.152 1536.19 L862.527 1514.29 Z" fill="#000000" fill-rule="evenodd" fill-opacity="1" /><path clip-path="url(#clip930)" d="M1269.92 1529.7 Q1266.77 1529.7 1264.92 1531.86 Q1263.09 1534.01 1263.09 1537.76 Q1263.09 1541.49 1264.92 1543.66 Q1266.77 1545.82 1269.92 1545.82 Q1273.07 1545.82 1274.9 1543.66 Q1276.75 1541.49 1276.75 1537.76 Q1276.75 1534.01 1274.9 1531.86 Q1273.07 1529.7 1269.92 1529.7 M1279.2 1515.05 L1279.2 1519.31 Q1277.44 1518.48 1275.64 1518.04 Q1273.86 1517.6 1272.1 1517.6 Q1267.47 1517.6 1265.01 1520.72 Q1262.58 1523.85 1262.23 1530.17 Q1263.6 1528.15 1265.66 1527.09 Q1267.72 1526 1270.2 1526 Q1275.41 1526 1278.42 1529.17 Q1281.45 1532.32 1281.45 1537.76 Q1281.45 1543.08 1278.3 1546.3 Q1275.15 1549.52 1269.92 1549.52 Q1263.92 1549.52 1260.75 1544.94 Q1257.58 1540.33 1257.58 1531.6 Q1257.58 1523.41 1261.47 1518.55 Q1265.36 1513.66 1271.91 1513.66 Q1273.67 1513.66 1275.45 1514.01 Q1277.26 1514.36 1279.2 1515.05 Z" fill="#000000" fill-rule="evenodd" fill-opacity="1" /><path clip-path="url(#clip930)" d="M1678.29 1532.44 Q1674.95 1532.44 1673.03 1534.22 Q1671.13 1536 1671.13 1539.13 Q1671.13 1542.25 1673.03 1544.03 Q1674.95 1545.82 1678.29 1545.82 Q1681.62 1545.82 1683.54 1544.03 Q1685.46 1542.23 1685.46 1539.13 Q1685.46 1536 1683.54 1534.22 Q1681.64 1532.44 1678.29 1532.44 M1673.61 1530.45 Q1670.6 1529.7 1668.91 1527.64 Q1667.24 1525.58 1667.24 1522.62 Q1667.24 1518.48 1670.18 1516.07 Q1673.15 1513.66 1678.29 1513.66 Q1683.45 1513.66 1686.39 1516.07 Q1689.33 1518.48 1689.33 1522.62 Q1689.33 1525.58 1687.64 1527.64 Q1685.97 1529.7 1682.98 1530.45 Q1686.36 1531.23 1688.24 1533.52 Q1690.14 1535.82 1690.14 1539.13 Q1690.14 1544.15 1687.06 1546.83 Q1684 1549.52 1678.29 1549.52 Q1672.57 1549.52 1669.49 1546.83 Q1666.43 1544.15 1666.43 1539.13 Q1666.43 1535.82 1668.33 1533.52 Q1670.23 1531.23 1673.61 1530.45 M1671.9 1523.06 Q1671.9 1525.75 1673.56 1527.25 Q1675.25 1528.76 1678.29 1528.76 Q1681.29 1528.76 1682.98 1527.25 Q1684.7 1525.75 1684.7 1523.06 Q1684.7 1520.38 1682.98 1518.87 Q1681.29 1517.37 1678.29 1517.37 Q1675.25 1517.37 1673.56 1518.87 Q1671.9 1520.38 1671.9 1523.06 Z" fill="#000000" fill-rule="evenodd" fill-opacity="1" /><path clip-path="url(#clip930)" d="M2061.74 1544.91 L2069.38 1544.91 L2069.38 1518.55 L2061.07 1520.21 L2061.07 1515.95 L2069.34 1514.29 L2074.01 1514.29 L2074.01 1544.91 L2081.65 1544.91 L2081.65 1548.85 L2061.74 1548.85 L2061.74 1544.91 Z" fill="#000000" fill-rule="evenodd" fill-opacity="1" /><path clip-path="url(#clip930)" d="M2101.09 1517.37 Q2097.48 1517.37 2095.65 1520.93 Q2093.85 1524.47 2093.85 1531.6 Q2093.85 1538.71 2095.65 1542.27 Q2097.48 1545.82 2101.09 1545.82 Q2104.73 1545.82 2106.53 1542.27 Q2108.36 1538.71 2108.36 1531.6 Q2108.36 1524.47 2106.53 1520.93 Q2104.73 1517.37 2101.09 1517.37 M2101.09 1513.66 Q2106.9 1513.66 2109.96 1518.27 Q2113.04 1522.85 2113.04 1531.6 Q2113.04 1540.33 2109.96 1544.94 Q2106.9 1549.52 2101.09 1549.52 Q2095.28 1549.52 2092.21 1544.94 Q2089.15 1540.33 2089.15 1531.6 Q2089.15 1522.85 2092.21 1518.27 Q2095.28 1513.66 2101.09 1513.66 Z" fill="#000000" fill-rule="evenodd" fill-opacity="1" /><polyline clip-path="url(#clip932)" style="stroke:#000000; stroke-linecap:round; stroke-linejoin:round; stroke-width:2; stroke-opacity:0.1; fill:none" points="186.274,1442.1 2352.76,1442.1 "/>
<polyline clip-path="url(#clip932)" style="stroke:#000000; stroke-linecap:round; stroke-linejoin:round; stroke-width:2; stroke-opacity:0.1; fill:none" points="186.274,1103.57 2352.76,1103.57 "/>
<polyline clip-path="url(#clip932)" style="stroke:#000000; stroke-linecap:round; stroke-linejoin:round; stroke-width:2; stroke-opacity:0.1; fill:none" points="186.274,765.038 2352.76,765.038 "/>
<polyline clip-path="url(#clip932)" style="stroke:#000000; stroke-linecap:round; stroke-linejoin:round; stroke-width:2; stroke-opacity:0.1; fill:none" points="186.274,426.507 2352.76,426.507 "/>
<polyline clip-path="url(#clip932)" style="stroke:#000000; stroke-linecap:round; stroke-linejoin:round; stroke-width:2; stroke-opacity:0.1; fill:none" points="186.274,87.9763 2352.76,87.9763 "/>
<polyline clip-path="url(#clip930)" style="stroke:#000000; stroke-linecap:round; stroke-linejoin:round; stroke-width:4; stroke-opacity:1; fill:none" points="186.274,1486.45 186.274,47.2441 "/>
<polyline clip-path="url(#clip930)" style="stroke:#000000; stroke-linecap:round; stroke-linejoin:round; stroke-width:4; stroke-opacity:1; fill:none" points="186.274,1442.1 205.172,1442.1 "/>
<polyline clip-path="url(#clip930)" style="stroke:#000000; stroke-linecap:round; stroke-linejoin:round; stroke-width:4; stroke-opacity:1; fill:none" points="186.274,1103.57 205.172,1103.57 "/>
<polyline clip-path="url(#clip930)" style="stroke:#000000; stroke-linecap:round; stroke-linejoin:round; stroke-width:4; stroke-opacity:1; fill:none" points="186.274,765.038 205.172,765.038 "/>
<polyline clip-path="url(#clip930)" style="stroke:#000000; stroke-linecap:round; stroke-linejoin:round; stroke-width:4; stroke-opacity:1; fill:none" points="186.274,426.507 205.172,426.507 "/>
<polyline clip-path="url(#clip930)" style="stroke:#000000; stroke-linecap:round; stroke-linejoin:round; stroke-width:4; stroke-opacity:1; fill:none" points="186.274,87.9763 205.172,87.9763 "/>
<path clip-path="url(#clip930)" d="M62.9365 1427.9 Q59.3254 1427.9 57.4967 1431.46 Q55.6912 1435 55.6912 1442.13 Q55.6912 1449.24 57.4967 1452.8 Q59.3254 1456.35 62.9365 1456.35 Q66.5707 1456.35 68.3763 1452.8 Q70.205 1449.24 70.205 1442.13 Q70.205 1435 68.3763 1431.46 Q66.5707 1427.9 62.9365 1427.9 M62.9365 1424.19 Q68.7467 1424.19 71.8022 1428.8 Q74.8809 1433.38 74.8809 1442.13 Q74.8809 1450.86 71.8022 1455.47 Q68.7467 1460.05 62.9365 1460.05 Q57.1264 1460.05 54.0477 1455.47 Q50.9921 1450.86 50.9921 1442.13 Q50.9921 1433.38 54.0477 1428.8 Q57.1264 1424.19 62.9365 1424.19 Z" fill="#000000" fill-rule="evenodd" fill-opacity="1" /><path clip-path="url(#clip930)" d="M83.0984 1453.5 L87.9827 1453.5 L87.9827 1459.38 L83.0984 1459.38 L83.0984 1453.5 Z" fill="#000000" fill-rule="evenodd" fill-opacity="1" /><path clip-path="url(#clip930)" d="M108.168 1427.9 Q104.557 1427.9 102.728 1431.46 Q100.922 1435 100.922 1442.13 Q100.922 1449.24 102.728 1452.8 Q104.557 1456.35 108.168 1456.35 Q111.802 1456.35 113.608 1452.8 Q115.436 1449.24 115.436 1442.13 Q115.436 1435 113.608 1431.46 Q111.802 1427.9 108.168 1427.9 M108.168 1424.19 Q113.978 1424.19 117.033 1428.8 Q120.112 1433.38 120.112 1442.13 Q120.112 1450.86 117.033 1455.47 Q113.978 1460.05 108.168 1460.05 Q102.358 1460.05 99.2789 1455.47 Q96.2234 1450.86 96.2234 1442.13 Q96.2234 1433.38 99.2789 1428.8 Q102.358 1424.19 108.168 1424.19 Z" fill="#000000" fill-rule="evenodd" fill-opacity="1" /><path clip-path="url(#clip930)" d="M138.33 1427.9 Q134.719 1427.9 132.89 1431.46 Q131.084 1435 131.084 1442.13 Q131.084 1449.24 132.89 1452.8 Q134.719 1456.35 138.33 1456.35 Q141.964 1456.35 143.769 1452.8 Q145.598 1449.24 145.598 1442.13 Q145.598 1435 143.769 1431.46 Q141.964 1427.9 138.33 1427.9 M138.33 1424.19 Q144.14 1424.19 147.195 1428.8 Q150.274 1433.38 150.274 1442.13 Q150.274 1450.86 147.195 1455.47 Q144.14 1460.05 138.33 1460.05 Q132.519 1460.05 129.441 1455.47 Q126.385 1450.86 126.385 1442.13 Q126.385 1433.38 129.441 1428.8 Q132.519 1424.19 138.33 1424.19 Z" fill="#000000" fill-rule="evenodd" fill-opacity="1" /><path clip-path="url(#clip930)" d="M63.9319 1089.37 Q60.3208 1089.37 58.4921 1092.93 Q56.6865 1096.47 56.6865 1103.6 Q56.6865 1110.71 58.4921 1114.27 Q60.3208 1117.82 63.9319 1117.82 Q67.5661 1117.82 69.3717 1114.27 Q71.2004 1110.71 71.2004 1103.6 Q71.2004 1096.47 69.3717 1092.93 Q67.5661 1089.37 63.9319 1089.37 M63.9319 1085.66 Q69.742 1085.66 72.7976 1090.27 Q75.8763 1094.85 75.8763 1103.6 Q75.8763 1112.33 72.7976 1116.94 Q69.742 1121.52 63.9319 1121.52 Q58.1217 1121.52 55.043 1116.94 Q51.9875 1112.33 51.9875 1103.6 Q51.9875 1094.85 55.043 1090.27 Q58.1217 1085.66 63.9319 1085.66 Z" fill="#000000" fill-rule="evenodd" fill-opacity="1" /><path clip-path="url(#clip930)" d="M84.0938 1114.97 L88.978 1114.97 L88.978 1120.85 L84.0938 1120.85 L84.0938 1114.97 Z" fill="#000000" fill-rule="evenodd" fill-opacity="1" /><path clip-path="url(#clip930)" d="M103.191 1116.91 L119.51 1116.91 L119.51 1120.85 L97.566 1120.85 L97.566 1116.91 Q100.228 1114.16 104.811 1109.53 Q109.418 1104.88 110.598 1103.53 Q112.844 1101.01 113.723 1099.27 Q114.626 1097.51 114.626 1095.83 Q114.626 1093.07 112.682 1091.33 Q110.76 1089.6 107.658 1089.6 Q105.459 1089.6 103.006 1090.36 Q100.575 1091.13 97.7974 1092.68 L97.7974 1087.95 Q100.621 1086.82 103.075 1086.24 Q105.529 1085.66 107.566 1085.66 Q112.936 1085.66 116.131 1088.35 Q119.325 1091.03 119.325 1095.52 Q119.325 1097.65 118.515 1099.58 Q117.728 1101.47 115.621 1104.07 Q115.043 1104.74 111.941 1107.95 Q108.839 1111.15 103.191 1116.91 Z" fill="#000000" fill-rule="evenodd" fill-opacity="1" /><path clip-path="url(#clip930)" d="M129.371 1086.29 L147.728 1086.29 L147.728 1090.22 L133.654 1090.22 L133.654 1098.7 Q134.672 1098.35 135.691 1098.19 Q136.709 1098 137.728 1098 Q143.515 1098 146.894 1101.17 Q150.274 1104.34 150.274 1109.76 Q150.274 1115.34 146.802 1118.44 Q143.33 1121.52 137.01 1121.52 Q134.834 1121.52 132.566 1121.15 Q130.32 1120.78 127.913 1120.04 L127.913 1115.34 Q129.996 1116.47 132.219 1117.03 Q134.441 1117.58 136.918 1117.58 Q140.922 1117.58 143.26 1115.48 Q145.598 1113.37 145.598 1109.76 Q145.598 1106.15 143.26 1104.04 Q140.922 1101.94 136.918 1101.94 Q135.043 1101.94 133.168 1102.35 Q131.316 1102.77 129.371 1103.65 L129.371 1086.29 Z" fill="#000000" fill-rule="evenodd" fill-opacity="1" /><path clip-path="url(#clip930)" d="M62.9365 750.836 Q59.3254 750.836 57.4967 754.401 Q55.6912 757.943 55.6912 765.072 Q55.6912 772.179 57.4967 775.743 Q59.3254 779.285 62.9365 779.285 Q66.5707 779.285 68.3763 775.743 Q70.205 772.179 70.205 765.072 Q70.205 757.943 68.3763 754.401 Q66.5707 750.836 62.9365 750.836 M62.9365 747.133 Q68.7467 747.133 71.8022 751.739 Q74.8809 756.322 74.8809 765.072 Q74.8809 773.799 71.8022 778.406 Q68.7467 782.989 62.9365 782.989 Q57.1264 782.989 54.0477 778.406 Q50.9921 773.799 50.9921 765.072 Q50.9921 756.322 54.0477 751.739 Q57.1264 747.133 62.9365 747.133 Z" fill="#000000" fill-rule="evenodd" fill-opacity="1" /><path clip-path="url(#clip930)" d="M83.0984 776.438 L87.9827 776.438 L87.9827 782.318 L83.0984 782.318 L83.0984 776.438 Z" fill="#000000" fill-rule="evenodd" fill-opacity="1" /><path clip-path="url(#clip930)" d="M98.2141 747.758 L116.57 747.758 L116.57 751.693 L102.496 751.693 L102.496 760.165 Q103.515 759.818 104.534 759.656 Q105.552 759.47 106.571 759.47 Q112.358 759.47 115.737 762.642 Q119.117 765.813 119.117 771.23 Q119.117 776.808 115.645 779.91 Q112.172 782.989 105.853 782.989 Q103.677 782.989 101.409 782.618 Q99.1632 782.248 96.7558 781.507 L96.7558 776.808 Q98.8391 777.943 101.061 778.498 Q103.284 779.054 105.76 779.054 Q109.765 779.054 112.103 776.947 Q114.441 774.841 114.441 771.23 Q114.441 767.619 112.103 765.512 Q109.765 763.406 105.76 763.406 Q103.885 763.406 102.01 763.822 Q100.159 764.239 98.2141 765.119 L98.2141 747.758 Z" fill="#000000" fill-rule="evenodd" fill-opacity="1" /><path clip-path="url(#clip930)" d="M138.33 750.836 Q134.719 750.836 132.89 754.401 Q131.084 757.943 131.084 765.072 Q131.084 772.179 132.89 775.743 Q134.719 779.285 138.33 779.285 Q141.964 779.285 143.769 775.743 Q145.598 772.179 145.598 765.072 Q145.598 757.943 143.769 754.401 Q141.964 750.836 138.33 750.836 M138.33 747.133 Q144.14 747.133 147.195 751.739 Q150.274 756.322 150.274 765.072 Q150.274 773.799 147.195 778.406 Q144.14 782.989 138.33 782.989 Q132.519 782.989 129.441 778.406 Q126.385 773.799 126.385 765.072 Q126.385 756.322 129.441 751.739 Q132.519 747.133 138.33 747.133 Z" fill="#000000" fill-rule="evenodd" fill-opacity="1" /><path clip-path="url(#clip930)" d="M63.9319 412.306 Q60.3208 412.306 58.4921 415.87 Q56.6865 419.412 56.6865 426.542 Q56.6865 433.648 58.4921 437.213 Q60.3208 440.755 63.9319 440.755 Q67.5661 440.755 69.3717 437.213 Q71.2004 433.648 71.2004 426.542 Q71.2004 419.412 69.3717 415.87 Q67.5661 412.306 63.9319 412.306 M63.9319 408.602 Q69.742 408.602 72.7976 413.208 Q75.8763 417.792 75.8763 426.542 Q75.8763 435.268 72.7976 439.875 Q69.742 444.458 63.9319 444.458 Q58.1217 444.458 55.043 439.875 Q51.9875 435.268 51.9875 426.542 Q51.9875 417.792 55.043 413.208 Q58.1217 408.602 63.9319 408.602 Z" fill="#000000" fill-rule="evenodd" fill-opacity="1" /><path clip-path="url(#clip930)" d="M84.0938 437.907 L88.978 437.907 L88.978 443.787 L84.0938 443.787 L84.0938 437.907 Z" fill="#000000" fill-rule="evenodd" fill-opacity="1" /><path clip-path="url(#clip930)" d="M97.9826 409.227 L120.205 409.227 L120.205 411.218 L107.658 443.787 L102.774 443.787 L114.58 413.162 L97.9826 413.162 L97.9826 409.227 Z" fill="#000000" fill-rule="evenodd" fill-opacity="1" /><path clip-path="url(#clip930)" d="M129.371 409.227 L147.728 409.227 L147.728 413.162 L133.654 413.162 L133.654 421.634 Q134.672 421.287 135.691 421.125 Q136.709 420.94 137.728 420.94 Q143.515 420.94 146.894 424.111 Q150.274 427.282 150.274 432.699 Q150.274 438.278 146.802 441.38 Q143.33 444.458 137.01 444.458 Q134.834 444.458 132.566 444.088 Q130.32 443.717 127.913 442.977 L127.913 438.278 Q129.996 439.412 132.219 439.967 Q134.441 440.523 136.918 440.523 Q140.922 440.523 143.26 438.417 Q145.598 436.31 145.598 432.699 Q145.598 429.088 143.26 426.981 Q140.922 424.875 136.918 424.875 Q135.043 424.875 133.168 425.292 Q131.316 425.708 129.371 426.588 L129.371 409.227 Z" fill="#000000" fill-rule="evenodd" fill-opacity="1" /><path clip-path="url(#clip930)" d="M53.7467 101.321 L61.3856 101.321 L61.3856 74.9555 L53.0754 76.6222 L53.0754 72.3629 L61.3393 70.6963 L66.0152 70.6963 L66.0152 101.321 L73.654 101.321 L73.654 105.256 L53.7467 105.256 L53.7467 101.321 Z" fill="#000000" fill-rule="evenodd" fill-opacity="1" /><path clip-path="url(#clip930)" d="M83.0984 99.3767 L87.9827 99.3767 L87.9827 105.256 L83.0984 105.256 L83.0984 99.3767 Z" fill="#000000" fill-rule="evenodd" fill-opacity="1" /><path clip-path="url(#clip930)" d="M108.168 73.775 Q104.557 73.775 102.728 77.3398 Q100.922 80.8814 100.922 88.011 Q100.922 95.1174 102.728 98.6822 Q104.557 102.224 108.168 102.224 Q111.802 102.224 113.608 98.6822 Q115.436 95.1174 115.436 88.011 Q115.436 80.8814 113.608 77.3398 Q111.802 73.775 108.168 73.775 M108.168 70.0713 Q113.978 70.0713 117.033 74.6777 Q120.112 79.261 120.112 88.011 Q120.112 96.7378 117.033 101.344 Q113.978 105.928 108.168 105.928 Q102.358 105.928 99.2789 101.344 Q96.2234 96.7378 96.2234 88.011 Q96.2234 79.261 99.2789 74.6777 Q102.358 70.0713 108.168 70.0713 Z" fill="#000000" fill-rule="evenodd" fill-opacity="1" /><path clip-path="url(#clip930)" d="M138.33 73.775 Q134.719 73.775 132.89 77.3398 Q131.084 80.8814 131.084 88.011 Q131.084 95.1174 132.89 98.6822 Q134.719 102.224 138.33 102.224 Q141.964 102.224 143.769 98.6822 Q145.598 95.1174 145.598 88.011 Q145.598 80.8814 143.769 77.3398 Q141.964 73.775 138.33 73.775 M138.33 70.0713 Q144.14 70.0713 147.195 74.6777 Q150.274 79.261 150.274 88.011 Q150.274 96.7378 147.195 101.344 Q144.14 105.928 138.33 105.928 Q132.519 105.928 129.441 101.344 Q126.385 96.7378 126.385 88.011 Q126.385 79.261 129.441 74.6777 Q132.519 70.0713 138.33 70.0713 Z" fill="#000000" fill-rule="evenodd" fill-opacity="1" /><polyline clip-path="url(#clip932)" style="stroke:#009af9; stroke-linecap:round; stroke-linejoin:round; stroke-width:12; stroke-opacity:1; fill:none" points="247.59,87.9763 451.975,770.328 656.36,982.351 860.745,1082.65 1065.13,1151.44 1269.51,1192.64 1473.9,1232.17 1678.29,1262.6 1882.67,1281.15 2087.06,1300.62 2291.44,1322.64 "/>
<polyline clip-path="url(#clip932)" style="stroke:#e26f46; stroke-linecap:round; stroke-linejoin:round; stroke-width:12; stroke-opacity:1; fill:none" points="247.59,87.9763 451.975,695.055 656.36,977.084 860.745,1154.56 1065.13,1253.18 1269.51,1330.22 1473.9,1388.04 1678.29,1374.18 1882.67,1372.78 2087.06,1383.71 2291.44,1397.99 "/>
<polyline clip-path="url(#clip932)" style="stroke:#3da44d; stroke-linecap:round; stroke-linejoin:round; stroke-width:12; stroke-opacity:1; fill:none" points="247.59,87.9763 451.975,580.75 656.36,859.046 860.745,1024.7 1065.13,1143.66 1269.51,1218.12 1473.9,1270.82 1678.29,1328.3 1882.67,1367.26 2087.06,1381.46 2291.44,1409.76 "/>
<polyline clip-path="url(#clip932)" style="stroke:#c271d2; stroke-linecap:round; stroke-linejoin:round; stroke-width:12; stroke-opacity:1; fill:none" points="247.59,87.9763 451.975,1057.84 656.36,1264.43 860.745,1340.45 1065.13,1379.21 1269.51,1402.28 1473.9,1409.52 1678.29,1428.88 1882.67,1423.86 2087.06,1438.7 2291.44,1445.72 "/>
<path clip-path="url(#clip930)" d="M1881.95 354.418 L2280.54 354.418 L2280.54 95.2176 L1881.95 95.2176  Z" fill="#ffffff" fill-rule="evenodd" fill-opacity="1"/>
<polyline clip-path="url(#clip930)" style="stroke:#000000; stroke-linecap:round; stroke-linejoin:round; stroke-width:4; stroke-opacity:1; fill:none" points="1881.95,354.418 2280.54,354.418 2280.54,95.2176 1881.95,95.2176 1881.95,354.418 "/>
<polyline clip-path="url(#clip930)" style="stroke:#009af9; stroke-linecap:round; stroke-linejoin:round; stroke-width:12; stroke-opacity:1; fill:none" points="1906.02,147.058 2050.45,147.058 "/>
<path clip-path="url(#clip930)" d="M2074.52 129.778 L2079.2 129.778 L2079.2 143.944 L2096.19 143.944 L2096.19 129.778 L2100.87 129.778 L2100.87 164.338 L2096.19 164.338 L2096.19 147.879 L2079.2 147.879 L2079.2 164.338 L2074.52 164.338 L2074.52 129.778 Z" fill="#000000" fill-rule="evenodd" fill-opacity="1" /><path clip-path="url(#clip930)" d="M2110.17 129.778 L2117.14 129.778 L2125.96 153.296 L2134.82 129.778 L2141.79 129.778 L2141.79 164.338 L2137.23 164.338 L2137.23 133.99 L2128.32 157.694 L2123.62 157.694 L2114.71 133.99 L2114.71 164.338 L2110.17 164.338 L2110.17 129.778 Z" fill="#000000" fill-rule="evenodd" fill-opacity="1" /><path clip-path="url(#clip930)" d="M2176.95 132.44 L2176.95 137.37 Q2174.59 135.171 2171.91 134.083 Q2169.25 132.995 2166.24 132.995 Q2160.31 132.995 2157.16 136.629 Q2154.01 140.24 2154.01 147.092 Q2154.01 153.921 2157.16 157.555 Q2160.31 161.166 2166.24 161.166 Q2169.25 161.166 2171.91 160.078 Q2174.59 158.99 2176.95 156.791 L2176.95 161.676 Q2174.5 163.342 2171.75 164.176 Q2169.01 165.009 2165.96 165.009 Q2158.11 165.009 2153.6 160.217 Q2149.08 155.402 2149.08 147.092 Q2149.08 138.759 2153.6 133.967 Q2158.11 129.153 2165.96 129.153 Q2169.06 129.153 2171.79 129.986 Q2174.55 130.796 2176.95 132.44 Z" fill="#000000" fill-rule="evenodd" fill-opacity="1" /><polyline clip-path="url(#clip930)" style="stroke:#e26f46; stroke-linecap:round; stroke-linejoin:round; stroke-width:12; stroke-opacity:1; fill:none" points="1906.02,198.898 2050.45,198.898 "/>
<path clip-path="url(#clip930)" d="M2090.91 199.974 Q2092.42 200.483 2093.83 202.15 Q2095.26 203.817 2096.7 206.733 L2101.45 216.178 L2096.42 216.178 L2092 207.312 Q2090.29 203.84 2088.67 202.705 Q2087.07 201.571 2084.29 201.571 L2079.2 201.571 L2079.2 216.178 L2074.52 216.178 L2074.52 181.618 L2085.08 181.618 Q2091.01 181.618 2093.92 184.094 Q2096.84 186.571 2096.84 191.571 Q2096.84 194.835 2095.31 196.988 Q2093.81 199.141 2090.91 199.974 M2079.2 185.46 L2079.2 197.729 L2085.08 197.729 Q2088.46 197.729 2090.17 196.178 Q2091.91 194.604 2091.91 191.571 Q2091.91 188.539 2090.17 187.011 Q2088.46 185.46 2085.08 185.46 L2079.2 185.46 Z" fill="#000000" fill-rule="evenodd" fill-opacity="1" /><path clip-path="url(#clip930)" d="M2117.09 186.224 L2110.75 203.423 L2123.46 203.423 L2117.09 186.224 M2114.45 181.618 L2119.76 181.618 L2132.93 216.178 L2128.07 216.178 L2124.92 207.312 L2109.34 207.312 L2106.19 216.178 L2101.26 216.178 L2114.45 181.618 Z" fill="#000000" fill-rule="evenodd" fill-opacity="1" /><path clip-path="url(#clip930)" d="M2134.59 201.293 L2147.07 201.293 L2147.07 205.09 L2134.59 205.09 L2134.59 201.293 Z" fill="#000000" fill-rule="evenodd" fill-opacity="1" /><path clip-path="url(#clip930)" d="M2154.04 181.618 L2158.71 181.618 L2158.71 195.784 L2175.7 195.784 L2175.7 181.618 L2180.38 181.618 L2180.38 216.178 L2175.7 216.178 L2175.7 199.719 L2158.71 199.719 L2158.71 216.178 L2154.04 216.178 L2154.04 181.618 Z" fill="#000000" fill-rule="evenodd" fill-opacity="1" /><path clip-path="url(#clip930)" d="M2189.69 181.618 L2196.65 181.618 L2205.47 205.136 L2214.34 181.618 L2221.31 181.618 L2221.31 216.178 L2216.75 216.178 L2216.75 185.83 L2207.83 209.534 L2203.13 209.534 L2194.22 185.83 L2194.22 216.178 L2189.69 216.178 L2189.69 181.618 Z" fill="#000000" fill-rule="evenodd" fill-opacity="1" /><path clip-path="url(#clip930)" d="M2256.47 184.28 L2256.47 189.21 Q2254.11 187.011 2251.42 185.923 Q2248.76 184.835 2245.75 184.835 Q2239.82 184.835 2236.68 188.469 Q2233.53 192.08 2233.53 198.932 Q2233.53 205.761 2236.68 209.395 Q2239.82 213.006 2245.75 213.006 Q2248.76 213.006 2251.42 211.918 Q2254.11 210.83 2256.47 208.631 L2256.47 213.516 Q2254.01 215.182 2251.26 216.016 Q2248.53 216.849 2245.47 216.849 Q2237.63 216.849 2233.11 212.057 Q2228.6 207.242 2228.6 198.932 Q2228.6 190.599 2233.11 185.807 Q2237.63 180.993 2245.47 180.993 Q2248.57 180.993 2251.31 181.826 Q2254.06 182.636 2256.47 184.28 Z" fill="#000000" fill-rule="evenodd" fill-opacity="1" /><polyline clip-path="url(#clip930)" style="stroke:#3da44d; stroke-linecap:round; stroke-linejoin:round; stroke-width:12; stroke-opacity:1; fill:none" points="1906.02,250.738 2050.45,250.738 "/>
<path clip-path="url(#clip930)" d="M2090.91 251.814 Q2092.42 252.323 2093.83 253.99 Q2095.26 255.657 2096.7 258.573 L2101.45 268.018 L2096.42 268.018 L2092 259.152 Q2090.29 255.68 2088.67 254.545 Q2087.07 253.411 2084.29 253.411 L2079.2 253.411 L2079.2 268.018 L2074.52 268.018 L2074.52 233.458 L2085.08 233.458 Q2091.01 233.458 2093.92 235.934 Q2096.84 238.411 2096.84 243.411 Q2096.84 246.675 2095.31 248.828 Q2093.81 250.981 2090.91 251.814 M2079.2 237.3 L2079.2 249.569 L2085.08 249.569 Q2088.46 249.569 2090.17 248.018 Q2091.91 246.444 2091.91 243.411 Q2091.91 240.379 2090.17 238.851 Q2088.46 237.3 2085.08 237.3 L2079.2 237.3 Z" fill="#000000" fill-rule="evenodd" fill-opacity="1" /><path clip-path="url(#clip930)" d="M2117.09 238.064 L2110.75 255.263 L2123.46 255.263 L2117.09 238.064 M2114.45 233.458 L2119.76 233.458 L2132.93 268.018 L2128.07 268.018 L2124.92 259.152 L2109.34 259.152 L2106.19 268.018 L2101.26 268.018 L2114.45 233.458 Z" fill="#000000" fill-rule="evenodd" fill-opacity="1" /><path clip-path="url(#clip930)" d="M2137.97 233.458 L2144.94 233.458 L2153.76 256.976 L2162.63 233.458 L2169.59 233.458 L2169.59 268.018 L2165.03 268.018 L2165.03 237.67 L2156.12 261.374 L2151.42 261.374 L2142.51 237.67 L2142.51 268.018 L2137.97 268.018 L2137.97 233.458 Z" fill="#000000" fill-rule="evenodd" fill-opacity="1" /><polyline clip-path="url(#clip930)" style="stroke:#c271d2; stroke-linecap:round; stroke-linejoin:round; stroke-width:12; stroke-opacity:1; fill:none" points="1906.02,302.578 2050.45,302.578 "/>
<path clip-path="url(#clip930)" d="M2079.2 289.14 L2079.2 302.126 L2085.08 302.126 Q2088.34 302.126 2090.13 300.436 Q2091.91 298.747 2091.91 295.622 Q2091.91 292.52 2090.13 290.83 Q2088.34 289.14 2085.08 289.14 L2079.2 289.14 M2074.52 285.298 L2085.08 285.298 Q2090.89 285.298 2093.85 287.936 Q2096.84 290.552 2096.84 295.622 Q2096.84 300.737 2093.85 303.353 Q2090.89 305.969 2085.08 305.969 L2079.2 305.969 L2079.2 319.858 L2074.52 319.858 L2074.52 285.298 Z" fill="#000000" fill-rule="evenodd" fill-opacity="1" /><path clip-path="url(#clip930)" d="M2103.11 285.298 L2124.96 285.298 L2124.96 289.233 L2107.79 289.233 L2107.79 299.464 L2124.25 299.464 L2124.25 303.399 L2107.79 303.399 L2107.79 315.922 L2125.38 315.922 L2125.38 319.858 L2103.11 319.858 L2103.11 285.298 Z" fill="#000000" fill-rule="evenodd" fill-opacity="1" /><path clip-path="url(#clip930)" d="M2130.73 304.973 L2143.2 304.973 L2143.2 308.77 L2130.73 308.77 L2130.73 304.973 Z" fill="#000000" fill-rule="evenodd" fill-opacity="1" /><path clip-path="url(#clip930)" d="M2150.17 285.298 L2154.85 285.298 L2154.85 299.464 L2171.84 299.464 L2171.84 285.298 L2176.51 285.298 L2176.51 319.858 L2171.84 319.858 L2171.84 303.399 L2154.85 303.399 L2154.85 319.858 L2150.17 319.858 L2150.17 285.298 Z" fill="#000000" fill-rule="evenodd" fill-opacity="1" /><path clip-path="url(#clip930)" d="M2185.82 285.298 L2192.79 285.298 L2201.61 308.816 L2210.47 285.298 L2217.44 285.298 L2217.44 319.858 L2212.88 319.858 L2212.88 289.51 L2203.97 313.214 L2199.27 313.214 L2190.36 289.51 L2190.36 319.858 L2185.82 319.858 L2185.82 285.298 Z" fill="#000000" fill-rule="evenodd" fill-opacity="1" /><path clip-path="url(#clip930)" d="M2252.6 287.96 L2252.6 292.89 Q2250.24 290.691 2247.56 289.603 Q2244.89 288.515 2241.88 288.515 Q2235.96 288.515 2232.81 292.149 Q2229.66 295.76 2229.66 302.612 Q2229.66 309.441 2232.81 313.075 Q2235.96 316.686 2241.88 316.686 Q2244.89 316.686 2247.56 315.598 Q2250.24 314.51 2252.6 312.311 L2252.6 317.196 Q2250.15 318.862 2247.39 319.696 Q2244.66 320.529 2241.61 320.529 Q2233.76 320.529 2229.25 315.737 Q2224.73 310.922 2224.73 302.612 Q2224.73 294.279 2229.25 289.487 Q2233.76 284.673 2241.61 284.673 Q2244.71 284.673 2247.44 285.506 Q2250.19 286.316 2252.6 287.96 Z" fill="#000000" fill-rule="evenodd" fill-opacity="1" /></svg>
