<?xml version="1.0" encoding="utf-8"?>
<svg xmlns="http://www.w3.org/2000/svg" xmlns:xlink="http://www.w3.org/1999/xlink" width="600" height="400" viewBox="0 0 2400 1600">
<defs>
  <clipPath id="clip330">
    <rect x="0" y="0" width="2400" height="1600"/>
  </clipPath>
</defs>
<path clip-path="url(#clip330)" d="M0 1600 L2400 1600 L2400 0 L0 0  Z" fill="#ffffff" fill-rule="evenodd" fill-opacity="1"/>
<defs>
  <clipPath id="clip331">
    <rect x="480" y="0" width="1681" height="1600"/>
  </clipPath>
</defs>
<path clip-path="url(#clip330)" d="M186.274 1486.45 L2352.76 1486.45 L2352.76 47.2441 L186.274 47.2441  Z" fill="#ffffff" fill-rule="evenodd" fill-opacity="1"/>
<defs>
  <clipPath id="clip332">
    <rect x="186" y="47" width="2167" height="1440"/>
  </clipPath>
</defs>
<polyline clip-path="url(#clip332)" style="stroke:#000000; stroke-linecap:round; stroke-linejoin:round; stroke-width:2; stroke-opacity:0.1; fill:none" points="451.975,1486.45 451.975,47.2441 "/>
<polyline clip-path="url(#clip332)" style="stroke:#000000; stroke-linecap:round; stroke-linejoin:round; stroke-width:2; stroke-opacity:0.1; fill:none" points="860.745,1486.45 860.745,47.2441 "/>
<polyline clip-path="url(#clip332)" style="stroke:#000000; stroke-linecap:round; stroke-linejoin:round; stroke-width:2; stroke-opacity:0.1; fill:none" points="1269.51,1486.45 1269.51,47.2441 "/>
<polyline clip-path="url(#clip332)" style="stroke:#000000; stroke-linecap:round; stroke-linejoin:round; stroke-width:2; stroke-opacity:0.1; fill:none" points="1678.29,1486.45 1678.29,47.2441 "/>
<polyline clip-path="url(#clip332)" style="stroke:#000000; stroke-linecap:round; stroke-linejoin:round; stroke-width:2; stroke-opacity:0.1; fill:none" points="2087.06,1486.45 2087.06,47.2441 "/>
<polyline clip-path="url(#clip330)" style="stroke:#000000; stroke-linecap:round; stroke-linejoin:round; stroke-width:4; stroke-opacity:1; fill:none" points="186.274,1486.45 2352.76,1486.45 "/>
<polyline clip-path="url(#clip330)" style="stroke:#000000; stroke-linecap:round; stroke-linejoin:round; stroke-width:4; stroke-opacity:1; fill:none" points="451.975,1486.45 451.975,1467.55 "/>
<polyline clip-path="url(#clip330)" style="stroke:#000000; stroke-linecap:round; stroke-linejoin:round; stroke-width:4; stroke-opacity:1; fill:none" points="860.745,1486.45 860.745,1467.55 "/>
<polyline clip-path="url(#clip330)" style="stroke:#000000; stroke-linecap:round; stroke-linejoin:round; stroke-width:4; stroke-opacity:1; fill:none" points="1269.51,1486.45 1269.51,1467.55 "/>
<polyline clip-path="url(#clip330)" style="stroke:#000000; stroke-linecap:round; stroke-linejoin:round; stroke-width:4; stroke-opacity:1; fill:none" points="1678.29,1486.45 1678.29,1467.55 "/>
<polyline clip-path="url(#clip330)" style="stroke:#000000; stroke-linecap:round; stroke-linejoin:round; stroke-width:4; stroke-opacity:1; fill:none" points="2087.06,1486.45 2087.06,1467.55 "/>
<path clip-path="url(#clip330)" d="M446.627 1544.91 L462.947 1544.91 L462.947 1548.85 L441.002 1548.85 L441.002 1544.91 Q443.664 1542.16 448.248 1537.53 Q452.854 1532.88 454.035 1531.53 Q456.28 1529.01 457.16 1527.27 Q458.063 1525.51 458.063 1523.82 Q458.063 1521.07 456.118 1519.33 Q454.197 1517.6 451.095 1517.6 Q448.896 1517.6 446.442 1518.36 Q444.012 1519.13 441.234 1520.68 L441.234 1515.95 Q444.058 1514.82 446.512 1514.24 Q448.965 1513.66 451.002 1513.66 Q456.373 1513.66 459.567 1516.35 Q462.762 1519.03 462.762 1523.52 Q462.762 1525.65 461.951 1527.57 Q461.164 1529.47 459.058 1532.07 Q458.479 1532.74 455.377 1535.95 Q452.276 1539.15 446.627 1544.91 Z" fill="#000000" fill-rule="evenodd" fill-opacity="1" /><path clip-path="url(#clip330)" d="M863.754 1518.36 L851.949 1536.81 L863.754 1536.81 L863.754 1518.36 M862.527 1514.29 L868.407 1514.29 L868.407 1536.81 L873.337 1536.81 L873.337 1540.7 L868.407 1540.7 L868.407 1548.85 L863.754 1548.85 L863.754 1540.7 L848.152 1540.7 L848.152 1536.19 L862.527 1514.29 Z" fill="#000000" fill-rule="evenodd" fill-opacity="1" /><path clip-path="url(#clip330)" d="M1269.92 1529.7 Q1266.77 1529.7 1264.92 1531.86 Q1263.09 1534.01 1263.09 1537.76 Q1263.09 1541.49 1264.92 1543.66 Q1266.77 1545.82 1269.92 1545.82 Q1273.07 1545.82 1274.9 1543.66 Q1276.75 1541.49 1276.75 1537.76 Q1276.75 1534.01 1274.9 1531.86 Q1273.07 1529.7 1269.92 1529.7 M1279.2 1515.05 L1279.2 1519.31 Q1277.44 1518.48 1275.64 1518.04 Q1273.86 1517.6 1272.1 1517.6 Q1267.47 1517.6 1265.01 1520.72 Q1262.58 1523.85 1262.23 1530.17 Q1263.6 1528.15 1265.66 1527.09 Q1267.72 1526 1270.2 1526 Q1275.41 1526 1278.42 1529.17 Q1281.45 1532.32 1281.45 1537.76 Q1281.45 1543.08 1278.3 1546.3 Q1275.15 1549.52 1269.92 1549.52 Q1263.92 1549.52 1260.75 1544.94 Q1257.58 1540.33 1257.58 1531.6 Q1257.58 1523.41 1261.47 1518.55 Q1265.36 1513.66 1271.91 1513.66 Q1273.67 1513.66 1275.45 1514.01 Q1277.26 1514.36 1279.2 1515.05 Z" fill="#000000" fill-rule="evenodd" fill-opacity="1" /><path clip-path="url(#clip330)" d="M1678.29 1532.44 Q1674.95 1532.44 1673.03 1534.22 Q1671.13 1536 1671.13 1539.13 Q1671.13 1542.25 1673.03 1544.03 Q1674.95 1545.82 1678.29 1545.82 Q1681.62 1545.82 1683.54 1544.03 Q1685.46 1542.23 1685.46 1539.13 Q1685.46 1536 1683.54 1534.22 Q1681.64 1532.44 1678.29 1532.44 M1673.61 1530.45 Q1670.6 1529.7 1668.91 1527.64 Q1667.24 1525.58 1667.24 1522.62 Q1667.24 1518.48 1670.18 1516.07 Q1673.15 1513.66 1678.29 1513.66 Q1683.45 1513.66 1686.39 1516.07 Q1689.33 1518.48 1689.33 1522.62 Q1689.33 1525.58 1687.64 1527.64 Q1685.97 1529.7 1682.98 1530.45 Q1686.36 1531.23 1688.24 1533.52 Q1690.14 1535.82 1690.14 1539.13 Q1690.14 1544.15 1687.06 1546.83 Q1684 1549.52 1678.29 1549.52 Q1672.57 1549.52 1669.49 1546.83 Q1666.43 1544.15 1666.43 1539.13 Q1666.43 1535.82 1668.33 1533.52 Q1670.23 1531.23 1673.61 1530.45 M1671.9 1523.06 Q1671.9 1525.75 1673.56 1527.25 Q1675.25 1528.76 1678.29 1528.76 Q1681.29 1528.76 1682.98 1527.25 Q1684.7 1525.75 1684.7 1523.06 Q1684.7 1520.38 1682.98 1518.87 Q1681.29 1517.37 1678.29 1517.37 Q1675.25 1517.37 1673.56 1518.87 Q1671.9 1520.38 1671.9 1523.06 Z" fill="#000000" fill-rule="evenodd" fill-opacity="1" /><path clip-path="url(#clip330)" d="M2061.74 1544.91 L2069.38 1544.91 L2069.38 1518.55 L2061.07 1520.21 L2061.07 1515.95 L2069.34 1514.29 L2074.01 1514.29 L2074.01 1544.91 L2081.65 1544.91 L2081.65 1548.85 L2061.74 1548.85 L2061.74 1544.91 Z" fill="#000000" fill-rule="evenodd" fill-opacity="1" /><path clip-path="url(#clip330)" d="M2101.09 1517.37 Q2097.48 1517.37 2095.65 1520.93 Q2093.85 1524.47 2093.85 1531.6 Q2093.85 1538.71 2095.65 1542.27 Q2097.48 1545.82 2101.09 1545.82 Q2104.73 1545.82 2106.53 1542.27 Q2108.36 1538.71 2108.36 1531.6 Q2108.36 1524.47 2106.53 1520.93 Q2104.73 1517.37 2101.09 1517.37 M2101.09 1513.66 Q2106.9 1513.66 2109.96 1518.27 Q2113.04 1522.85 2113.04 1531.6 Q2113.04 1540.33 2109.96 1544.94 Q2106.9 1549.52 2101.09 1549.52 Q2095.28 1549.52 2092.21 1544.94 Q2089.15 1540.33 2089.15 1531.6 Q2089.15 1522.85 2092.21 1518.27 Q2095.28 1513.66 2101.09 1513.66 Z" fill="#000000" fill-rule="evenodd" fill-opacity="1" /><polyline clip-path="url(#clip332)" style="stroke:#000000; stroke-linecap:round; stroke-linejoin:round; stroke-width:2; stroke-opacity:0.1; fill:none" points="186.274,1410.11 2352.76,1410.11 "/>
<polyline clip-path="url(#clip332)" style="stroke:#000000; stroke-linecap:round; stroke-linejoin:round; stroke-width:2; stroke-opacity:0.1; fill:none" points="186.274,1079.58 2352.76,1079.58 "/>
<polyline clip-path="url(#clip332)" style="stroke:#000000; stroke-linecap:round; stroke-linejoin:round; stroke-width:2; stroke-opacity:0.1; fill:none" points="186.274,749.045 2352.76,749.045 "/>
<polyline clip-path="url(#clip332)" style="stroke:#000000; stroke-linecap:round; stroke-linejoin:round; stroke-width:2; stroke-opacity:0.1; fill:none" points="186.274,418.51 2352.76,418.51 "/>
<polyline clip-path="url(#clip332)" style="stroke:#000000; stroke-linecap:round; stroke-linejoin:round; stroke-width:2; stroke-opacity:0.1; fill:none" points="186.274,87.9763 2352.76,87.9763 "/>
<polyline clip-path="url(#clip330)" style="stroke:#000000; stroke-linecap:round; stroke-linejoin:round; stroke-width:4; stroke-opacity:1; fill:none" points="186.274,1486.45 186.274,47.2441 "/>
<polyline clip-path="url(#clip330)" style="stroke:#000000; stroke-linecap:round; stroke-linejoin:round; stroke-width:4; stroke-opacity:1; fill:none" points="186.274,1410.11 205.172,1410.11 "/>
<polyline clip-path="url(#clip330)" style="stroke:#000000; stroke-linecap:round; stroke-linejoin:round; stroke-width:4; stroke-opacity:1; fill:none" points="186.274,1079.58 205.172,1079.58 "/>
<polyline clip-path="url(#clip330)" style="stroke:#000000; stroke-linecap:round; stroke-linejoin:round; stroke-width:4; stroke-opacity:1; fill:none" points="186.274,749.045 205.172,749.045 "/>
<polyline clip-path="url(#clip330)" style="stroke:#000000; stroke-linecap:round; stroke-linejoin:round; stroke-width:4; stroke-opacity:1; fill:none" points="186.274,418.51 205.172,418.51 "/>
<polyline clip-path="url(#clip330)" style="stroke:#000000; stroke-linecap:round; stroke-linejoin:round; stroke-width:4; stroke-opacity:1; fill:none" points="186.274,87.9763 205.172,87.9763 "/>
<path clip-path="url(#clip330)" d="M62.9365 1395.91 Q59.3254 1395.91 57.4967 1399.48 Q55.6912 1403.02 55.6912 1410.15 Q55.6912 1417.25 57.4967 1420.82 Q59.3254 1424.36 62.9365 1424.36 Q66.5707 1424.36 68.3763 1420.82 Q70.205 1417.25 70.205 1410.15 Q70.205 1403.02 68.3763 1399.48 Q66.5707 1395.91 62.9365 1395.91 M62.9365 1392.21 Q68.7467 1392.21 71.8022 1396.81 Q74.8809 1401.4 74.8809 1410.15 Q74.8809 1418.87 71.8022 1423.48 Q68.7467 1428.06 62.9365 1428.06 Q57.1264 1428.06 54.0477 1423.48 Q50.9921 1418.87 50.9921 1410.15 Q50.9921 1401.4 54.0477 1396.81 Q57.1264 1392.21 62.9365 1392.21 Z" fill="#000000" fill-rule="evenodd" fill-opacity="1" /><path clip-path="url(#clip330)" d="M83.0984 1421.51 L87.9827 1421.51 L87.9827 1427.39 L83.0984 1427.39 L83.0984 1421.51 Z" fill="#000000" fill-rule="evenodd" fill-opacity="1" /><path clip-path="url(#clip330)" d="M108.168 1395.91 Q104.557 1395.91 102.728 1399.48 Q100.922 1403.02 100.922 1410.15 Q100.922 1417.25 102.728 1420.82 Q104.557 1424.36 108.168 1424.36 Q111.802 1424.36 113.608 1420.82 Q115.436 1417.25 115.436 1410.15 Q115.436 1403.02 113.608 1399.48 Q111.802 1395.91 108.168 1395.91 M108.168 1392.21 Q113.978 1392.21 117.033 1396.81 Q120.112 1401.4 120.112 1410.15 Q120.112 1418.87 117.033 1423.48 Q113.978 1428.06 108.168 1428.06 Q102.358 1428.06 99.2789 1423.48 Q96.2234 1418.87 96.2234 1410.15 Q96.2234 1401.4 99.2789 1396.81 Q102.358 1392.21 108.168 1392.21 Z" fill="#000000" fill-rule="evenodd" fill-opacity="1" /><path clip-path="url(#clip330)" d="M138.33 1395.91 Q134.719 1395.91 132.89 1399.48 Q131.084 1403.02 131.084 1410.15 Q131.084 1417.25 132.89 1420.82 Q134.719 1424.36 138.33 1424.36 Q141.964 1424.36 143.769 1420.82 Q145.598 1417.25 145.598 1410.15 Q145.598 1403.02 143.769 1399.48 Q141.964 1395.91 138.33 1395.91 M138.33 1392.21 Q144.14 1392.21 147.195 1396.81 Q150.274 1401.4 150.274 1410.15 Q150.274 1418.87 147.195 1423.48 Q144.14 1428.06 138.33 1428.06 Q132.519 1428.06 129.441 1423.48 Q126.385 1418.87 126.385 1410.15 Q126.385 1401.4 129.441 1396.81 Q132.519 1392.21 138.33 1392.21 Z" fill="#000000" fill-rule="evenodd" fill-opacity="1" /><path clip-path="url(#clip330)" d="M63.9319 1065.38 Q60.3208 1065.38 58.4921 1068.94 Q56.6865 1072.48 56.6865 1079.61 Q56.6865 1086.72 58.4921 1090.28 Q60.3208 1093.83 63.9319 1093.83 Q67.5661 1093.83 69.3717 1090.28 Q71.2004 1086.72 71.2004 1079.61 Q71.2004 1072.48 69.3717 1068.94 Q67.5661 1065.38 63.9319 1065.38 M63.9319 1061.67 Q69.742 1061.67 72.7976 1066.28 Q75.8763 1070.86 75.8763 1079.61 Q75.8763 1088.34 72.7976 1092.95 Q69.742 1097.53 63.9319 1097.53 Q58.1217 1097.53 55.043 1092.95 Q51.9875 1088.34 51.9875 1079.61 Q51.9875 1070.86 55.043 1066.28 Q58.1217 1061.67 63.9319 1061.67 Z" fill="#000000" fill-rule="evenodd" fill-opacity="1" /><path clip-path="url(#clip330)" d="M84.0938 1090.98 L88.978 1090.98 L88.978 1096.86 L84.0938 1096.86 L84.0938 1090.98 Z" fill="#000000" fill-rule="evenodd" fill-opacity="1" /><path clip-path="url(#clip330)" d="M103.191 1092.92 L119.51 1092.92 L119.51 1096.86 L97.566 1096.86 L97.566 1092.92 Q100.228 1090.17 104.811 1085.54 Q109.418 1080.89 110.598 1079.54 Q112.844 1077.02 113.723 1075.28 Q114.626 1073.53 114.626 1071.84 Q114.626 1069.08 112.682 1067.34 Q110.76 1065.61 107.658 1065.61 Q105.459 1065.61 103.006 1066.37 Q100.575 1067.14 97.7974 1068.69 L97.7974 1063.97 Q100.621 1062.83 103.075 1062.25 Q105.529 1061.67 107.566 1061.67 Q112.936 1061.67 116.131 1064.36 Q119.325 1067.04 119.325 1071.53 Q119.325 1073.66 118.515 1075.59 Q117.728 1077.48 115.621 1080.08 Q115.043 1080.75 111.941 1083.97 Q108.839 1087.16 103.191 1092.92 Z" fill="#000000" fill-rule="evenodd" fill-opacity="1" /><path clip-path="url(#clip330)" d="M129.371 1062.3 L147.728 1062.3 L147.728 1066.23 L133.654 1066.23 L133.654 1074.71 Q134.672 1074.36 135.691 1074.2 Q136.709 1074.01 137.728 1074.01 Q143.515 1074.01 146.894 1077.18 Q150.274 1080.35 150.274 1085.77 Q150.274 1091.35 146.802 1094.45 Q143.33 1097.53 137.01 1097.53 Q134.834 1097.53 132.566 1097.16 Q130.32 1096.79 127.913 1096.05 L127.913 1091.35 Q129.996 1092.48 132.219 1093.04 Q134.441 1093.59 136.918 1093.59 Q140.922 1093.59 143.26 1091.49 Q145.598 1089.38 145.598 1085.77 Q145.598 1082.16 143.26 1080.05 Q140.922 1077.95 136.918 1077.95 Q135.043 1077.95 133.168 1078.36 Q131.316 1078.78 129.371 1079.66 L129.371 1062.3 Z" fill="#000000" fill-rule="evenodd" fill-opacity="1" /><path clip-path="url(#clip330)" d="M62.9365 734.843 Q59.3254 734.843 57.4967 738.408 Q55.6912 741.95 55.6912 749.079 Q55.6912 756.186 57.4967 759.75 Q59.3254 763.292 62.9365 763.292 Q66.5707 763.292 68.3763 759.75 Q70.205 756.186 70.205 749.079 Q70.205 741.95 68.3763 738.408 Q66.5707 734.843 62.9365 734.843 M62.9365 731.14 Q68.7467 731.14 71.8022 735.746 Q74.8809 740.329 74.8809 749.079 Q74.8809 757.806 71.8022 762.412 Q68.7467 766.996 62.9365 766.996 Q57.1264 766.996 54.0477 762.412 Q50.9921 757.806 50.9921 749.079 Q50.9921 740.329 54.0477 735.746 Q57.1264 731.14 62.9365 731.14 Z" fill="#000000" fill-rule="evenodd" fill-opacity="1" /><path clip-path="url(#clip330)" d="M83.0984 760.445 L87.9827 760.445 L87.9827 766.325 L83.0984 766.325 L83.0984 760.445 Z" fill="#000000" fill-rule="evenodd" fill-opacity="1" /><path clip-path="url(#clip330)" d="M98.2141 731.765 L116.57 731.765 L116.57 735.7 L102.496 735.7 L102.496 744.172 Q103.515 743.825 104.534 743.663 Q105.552 743.477 106.571 743.477 Q112.358 743.477 115.737 746.649 Q119.117 749.82 119.117 755.237 Q119.117 760.815 115.645 763.917 Q112.172 766.996 105.853 766.996 Q103.677 766.996 101.409 766.625 Q99.1632 766.255 96.7558 765.514 L96.7558 760.815 Q98.8391 761.95 101.061 762.505 Q103.284 763.061 105.76 763.061 Q109.765 763.061 112.103 760.954 Q114.441 758.848 114.441 755.237 Q114.441 751.626 112.103 749.519 Q109.765 747.413 105.76 747.413 Q103.885 747.413 102.01 747.829 Q100.159 748.246 98.2141 749.126 L98.2141 731.765 Z" fill="#000000" fill-rule="evenodd" fill-opacity="1" /><path clip-path="url(#clip330)" d="M138.33 734.843 Q134.719 734.843 132.89 738.408 Q131.084 741.95 131.084 749.079 Q131.084 756.186 132.89 759.75 Q134.719 763.292 138.33 763.292 Q141.964 763.292 143.769 759.75 Q145.598 756.186 145.598 749.079 Q145.598 741.95 143.769 738.408 Q141.964 734.843 138.33 734.843 M138.33 731.14 Q144.14 731.14 147.195 735.746 Q150.274 740.329 150.274 749.079 Q150.274 757.806 147.195 762.412 Q144.14 766.996 138.33 766.996 Q132.519 766.996 129.441 762.412 Q126.385 757.806 126.385 749.079 Q126.385 740.329 129.441 735.746 Q132.519 731.14 138.33 731.14 Z" fill="#000000" fill-rule="evenodd" fill-opacity="1" /><path clip-path="url(#clip330)" d="M63.9319 404.309 Q60.3208 404.309 58.4921 407.874 Q56.6865 411.416 56.6865 418.545 Q56.6865 425.652 58.4921 429.216 Q60.3208 432.758 63.9319 432.758 Q67.5661 432.758 69.3717 429.216 Q71.2004 425.652 71.2004 418.545 Q71.2004 411.416 69.3717 407.874 Q67.5661 404.309 63.9319 404.309 M63.9319 400.605 Q69.742 400.605 72.7976 405.212 Q75.8763 409.795 75.8763 418.545 Q75.8763 427.272 72.7976 431.878 Q69.742 436.462 63.9319 436.462 Q58.1217 436.462 55.043 431.878 Q51.9875 427.272 51.9875 418.545 Q51.9875 409.795 55.043 405.212 Q58.1217 400.605 63.9319 400.605 Z" fill="#000000" fill-rule="evenodd" fill-opacity="1" /><path clip-path="url(#clip330)" d="M84.0938 429.911 L88.978 429.911 L88.978 435.79 L84.0938 435.79 L84.0938 429.911 Z" fill="#000000" fill-rule="evenodd" fill-opacity="1" /><path clip-path="url(#clip330)" d="M97.9826 401.23 L120.205 401.23 L120.205 403.221 L107.658 435.79 L102.774 435.79 L114.58 405.166 L97.9826 405.166 L97.9826 401.23 Z" fill="#000000" fill-rule="evenodd" fill-opacity="1" /><path clip-path="url(#clip330)" d="M129.371 401.23 L147.728 401.23 L147.728 405.166 L133.654 405.166 L133.654 413.638 Q134.672 413.291 135.691 413.128 Q136.709 412.943 137.728 412.943 Q143.515 412.943 146.894 416.115 Q150.274 419.286 150.274 424.702 Q150.274 430.281 146.802 433.383 Q143.33 436.462 137.01 436.462 Q134.834 436.462 132.566 436.091 Q130.32 435.721 127.913 434.98 L127.913 430.281 Q129.996 431.415 132.219 431.971 Q134.441 432.527 136.918 432.527 Q140.922 432.527 143.26 430.42 Q145.598 428.314 145.598 424.702 Q145.598 421.091 143.26 418.985 Q140.922 416.878 136.918 416.878 Q135.043 416.878 133.168 417.295 Q131.316 417.712 129.371 418.591 L129.371 401.23 Z" fill="#000000" fill-rule="evenodd" fill-opacity="1" /><path clip-path="url(#clip330)" d="M53.7467 101.321 L61.3856 101.321 L61.3856 74.9555 L53.0754 76.6222 L53.0754 72.3629 L61.3393 70.6963 L66.0152 70.6963 L66.0152 101.321 L73.654 101.321 L73.654 105.256 L53.7467 105.256 L53.7467 101.321 Z" fill="#000000" fill-rule="evenodd" fill-opacity="1" /><path clip-path="url(#clip330)" d="M83.0984 99.3767 L87.9827 99.3767 L87.9827 105.256 L83.0984 105.256 L83.0984 99.3767 Z" fill="#000000" fill-rule="evenodd" fill-opacity="1" /><path clip-path="url(#clip330)" d="M108.168 73.775 Q104.557 73.775 102.728 77.3398 Q100.922 80.8814 100.922 88.011 Q100.922 95.1174 102.728 98.6822 Q104.557 102.224 108.168 102.224 Q111.802 102.224 113.608 98.6822 Q115.436 95.1174 115.436 88.011 Q115.436 80.8814 113.608 77.3398 Q111.802 73.775 108.168 73.775 M108.168 70.0713 Q113.978 70.0713 117.033 74.6777 Q120.112 79.261 120.112 88.011 Q120.112 96.7378 117.033 101.344 Q113.978 105.928 108.168 105.928 Q102.358 105.928 99.2789 101.344 Q96.2234 96.7378 96.2234 88.011 Q96.2234 79.261 99.2789 74.6777 Q102.358 70.0713 108.168 70.0713 Z" fill="#000000" fill-rule="evenodd" fill-opacity="1" /><path clip-path="url(#clip330)" d="M138.33 73.775 Q134.719 73.775 132.89 77.3398 Q131.084 80.8814 131.084 88.011 Q131.084 95.1174 132.89 98.6822 Q134.719 102.224 138.33 102.224 Q141.964 102.224 143.769 98.6822 Q145.598 95.1174 145.598 88.011 Q145.598 80.8814 143.769 77.3398 Q141.964 73.775 138.33 73.775 M138.33 70.0713 Q144.14 70.0713 147.195 74.6777 Q150.274 79.261 150.274 88.011 Q150.274 96.7378 147.195 101.344 Q144.14 105.928 138.33 105.928 Q132.519 105.928 129.441 101.344 Q126.385 96.7378 126.385 88.011 Q126.385 79.261 129.441 74.6777 Q132.519 70.0713 138.33 70.0713 Z" fill="#000000" fill-rule="evenodd" fill-opacity="1" /><polyline clip-path="url(#clip332)" style="stroke:#009af9; stroke-linecap:round; stroke-linejoin:round; stroke-width:12; stroke-opacity:1; fill:none" points="247.59,87.9763 451.975,1190.17 656.36,1354.81 860.745,1406.28 1065.13,1417.03 1269.51,1400.89 1473.9,1422.44 1678.29,1440.07 1882.67,1429.94 2087.06,1445.72 2291.44,1429.61 "/>
<polyline clip-path="url(#clip332)" style="stroke:#e26f46; stroke-linecap:round; stroke-linejoin:round; stroke-width:12; stroke-opacity:1; fill:none" points="247.59,87.9763 451.975,1255.37 656.36,1383.26 860.745,1385.14 1065.13,1392.43 1269.51,1353.12 1473.9,1419.02 1678.29,1394.04 1882.67,1403.83 2087.06,1396.94 2291.44,1361.09 "/>
<polyline clip-path="url(#clip332)" style="stroke:#3da44d; stroke-linecap:round; stroke-linejoin:round; stroke-width:12; stroke-opacity:1; fill:none" points="247.59,87.9763 451.975,308.058 656.36,464.938 860.745,594.15 1065.13,707.439 1269.51,820.123 1473.9,905.895 1678.29,974.393 1882.67,1026.09 2087.06,1092.87 2291.44,1153.95 "/>
<polyline clip-path="url(#clip332)" style="stroke:#c271d2; stroke-linecap:round; stroke-linejoin:round; stroke-width:12; stroke-opacity:1; fill:none" points="247.59,87.9763 451.975,180.015 656.36,193.413 860.745,201.116 1065.13,209.611 1269.51,219.18 1473.9,224.388 1678.29,233.864 1882.67,245.537 2087.06,256.269 2291.44,264.638 "/>
<path clip-path="url(#clip330)" d="M1881.95 354.418 L2280.54 354.418 L2280.54 95.2176 L1881.95 95.2176  Z" fill="#ffffff" fill-rule="evenodd" fill-opacity="1"/>
<polyline clip-path="url(#clip330)" style="stroke:#000000; stroke-linecap:round; stroke-linejoin:round; stroke-width:4; stroke-opacity:1; fill:none" points="1881.95,354.418 2280.54,354.418 2280.54,95.2176 1881.95,95.2176 1881.95,354.418 "/>
<polyline clip-path="url(#clip330)" style="stroke:#009af9; stroke-linecap:round; stroke-linejoin:round; stroke-width:12; stroke-opacity:1; fill:none" points="1906.02,147.058 2050.45,147.058 "/>
<path clip-path="url(#clip330)" d="M2074.52 129.778 L2079.2 129.778 L2079.2 143.944 L2096.19 143.944 L2096.19 129.778 L2100.87 129.778 L2100.87 164.338 L2096.19 164.338 L2096.19 147.879 L2079.2 147.879 L2079.2 164.338 L2074.52 164.338 L2074.52 129.778 Z" fill="#000000" fill-rule="evenodd" fill-opacity="1" /><path clip-path="url(#clip330)" d="M2110.17 129.778 L2117.14 129.778 L2125.96 153.296 L2134.82 129.778 L2141.79 129.778 L2141.79 164.338 L2137.23 164.338 L2137.23 133.99 L2128.32 157.694 L2123.62 157.694 L2114.71 133.99 L2114.71 164.338 L2110.17 164.338 L2110.17 129.778 Z" fill="#000000" fill-rule="evenodd" fill-opacity="1" /><path clip-path="url(#clip330)" d="M2176.95 132.44 L2176.95 137.37 Q2174.59 135.171 2171.91 134.083 Q2169.25 132.995 2166.24 132.995 Q2160.31 132.995 2157.16 136.629 Q2154.01 140.24 2154.01 147.092 Q2154.01 153.921 2157.16 157.555 Q2160.31 161.166 2166.24 161.166 Q2169.25 161.166 2171.91 160.078 Q2174.59 158.99 2176.95 156.791 L2176.95 161.676 Q2174.5 163.342 2171.75 164.176 Q2169.01 165.009 2165.96 165.009 Q2158.11 165.009 2153.6 160.217 Q2149.08 155.402 2149.08 147.092 Q2149.08 138.759 2153.6 133.967 Q2158.11 129.153 2165.96 129.153 Q2169.06 129.153 2171.79 129.986 Q2174.55 130.796 2176.95 132.44 Z" fill="#000000" fill-rule="evenodd" fill-opacity="1" /><polyline clip-path="url(#clip330)" style="stroke:#e26f46; stroke-linecap:round; stroke-linejoin:round; stroke-width:12; stroke-opacity:1; fill:none" points="1906.02,198.898 2050.45,198.898 "/>
<path clip-path="url(#clip330)" d="M2090.91 199.974 Q2092.42 200.483 2093.83 202.15 Q2095.26 203.817 2096.7 206.733 L2101.45 216.178 L2096.42 216.178 L2092 207.312 Q2090.29 203.84 2088.67 202.705 Q2087.07 201.571 2084.29 201.571 L2079.2 201.571 L2079.2 216.178 L2074.52 216.178 L2074.52 181.618 L2085.08 181.618 Q2091.01 181.618 2093.92 184.094 Q2096.84 186.571 2096.84 191.571 Q2096.84 194.835 2095.31 196.988 Q2093.81 199.141 2090.91 199.974 M2079.2 185.46 L2079.2 197.729 L2085.08 197.729 Q2088.46 197.729 2090.17 196.178 Q2091.91 194.604 2091.91 191.571 Q2091.91 188.539 2090.17 187.011 Q2088.46 185.46 2085.08 185.46 L2079.2 185.46 Z" fill="#000000" fill-rule="evenodd" fill-opacity="1" /><path clip-path="url(#clip330)" d="M2117.09 186.224 L2110.75 203.423 L2123.46 203.423 L2117.09 186.224 M2114.45 181.618 L2119.76 181.618 L2132.93 216.178 L2128.07 216.178 L2124.92 207.312 L2109.34 207.312 L2106.19 216.178 L2101.26 216.178 L2114.45 181.618 Z" fill="#000000" fill-rule="evenodd" fill-opacity="1" /><path clip-path="url(#clip330)" d="M2134.59 201.293 L2147.07 201.293 L2147.07 205.09 L2134.59 205.09 L2134.59 201.293 Z" fill="#000000" fill-rule="evenodd" fill-opacity="1" /><path clip-path="url(#clip330)" d="M2154.04 181.618 L2158.71 181.618 L2158.71 195.784 L2175.7 195.784 L2175.7 181.618 L2180.38 181.618 L2180.38 216.178 L2175.7 216.178 L2175.7 199.719 L2158.71 199.719 L2158.71 216.178 L2154.04 216.178 L2154.04 181.618 Z" fill="#000000" fill-rule="evenodd" fill-opacity="1" /><path clip-path="url(#clip330)" d="M2189.69 181.618 L2196.65 181.618 L2205.47 205.136 L2214.34 181.618 L2221.31 181.618 L2221.31 216.178 L2216.75 216.178 L2216.75 185.83 L2207.83 209.534 L2203.13 209.534 L2194.22 185.83 L2194.22 216.178 L2189.69 216.178 L2189.69 181.618 Z" fill="#000000" fill-rule="evenodd" fill-opacity="1" /><path clip-path="url(#clip330)" d="M2256.47 184.28 L2256.47 189.21 Q2254.11 187.011 2251.42 185.923 Q2248.76 184.835 2245.75 184.835 Q2239.82 184.835 2236.68 188.469 Q2233.53 192.08 2233.53 198.932 Q2233.53 205.761 2236.68 209.395 Q2239.82 213.006 2245.75 213.006 Q2248.76 213.006 2251.42 211.918 Q2254.11 210.83 2256.47 208.631 L2256.47 213.516 Q2254.01 215.182 2251.26 216.016 Q2248.53 216.849 2245.47 216.849 Q2237.63 216.849 2233.11 212.057 Q2228.6 207.242 2228.6 198.932 Q2228.6 190.599 2233.11 185.807 Q2237.63 180.993 2245.47 180.993 Q2248.57 180.993 2251.31 181.826 Q2254.06 182.636 2256.47 184.28 Z" fill="#000000" fill-rule="evenodd" fill-opacity="1" /><polyline clip-path="url(#clip330)" style="stroke:#3da44d; stroke-linecap:round; stroke-linejoin:round; stroke-width:12; stroke-opacity:1; fill:none" points="1906.02,250.738 2050.45,250.738 "/>
<path clip-path="url(#clip330)" d="M2090.91 251.814 Q2092.42 252.323 2093.83 253.99 Q2095.26 255.657 2096.7 258.573 L2101.45 268.018 L2096.42 268.018 L2092 259.152 Q2090.29 255.68 2088.67 254.545 Q2087.07 253.411 2084.29 253.411 L2079.2 253.411 L2079.2 268.018 L2074.52 268.018 L2074.52 233.458 L2085.08 233.458 Q2091.01 233.458 2093.92 235.934 Q2096.84 238.411 2096.84 243.411 Q2096.84 246.675 2095.31 248.828 Q2093.81 250.981 2090.91 251.814 M2079.2 237.3 L2079.2 249.569 L2085.08 249.569 Q2088.46 249.569 2090.17 248.018 Q2091.91 246.444 2091.91 243.411 Q2091.91 240.379 2090.17 238.851 Q2088.46 237.3 2085.08 237.3 L2079.2 237.3 Z" fill="#000000" fill-rule="evenodd" fill-opacity="1" /><path clip-path="url(#clip330)" d="M2117.09 238.064 L2110.75 255.263 L2123.46 255.263 L2117.09 238.064 M2114.45 233.458 L2119.76 233.458 L2132.93 268.018 L2128.07 268.018 L2124.92 259.152 L2109.34 259.152 L2106.19 268.018 L2101.26 268.018 L2114.45 233.458 Z" fill="#000000" fill-rule="evenodd" fill-opacity="1" /><path clip-path="url(#clip330)" d="M2137.97 233.458 L2144.94 233.458 L2153.76 256.976 L2162.63 233.458 L2169.59 233.458 L2169.59 268.018 L2165.03 268.018 L2165.03 237.67 L2156.12 261.374 L2151.42 261.374 L2142.51 237.67 L2142.51 268.018 L2137.97 268.018 L2137.97 233.458 Z" fill="#000000" fill-rule="evenodd" fill-opacity="1" /><polyline clip-path="url(#clip330)" style="stroke:#c271d2; stroke-linecap:round; stroke-linejoin:round; stroke-width:12; stroke-opacity:1; fill:none" points="1906.02,302.578 2050.45,302.578 "/>
<path clip-path="url(#clip330)" d="M2079.2 289.14 L2079.2 302.126 L2085.08 302.126 Q2088.34 302.126 2090.13 300.436 Q2091.91 298.747 2091.91 295.622 Q2091.91 292.52 2090.13 290.83 Q2088.34 289.14 2085.08 289.14 L2079.2 289.14 M2074.52 285.298 L2085.08 285.298 Q2090.89 285.298 2093.85 287.936 Q2096.84 290.552 2096.84 295.622 Q2096.84 300.737 2093.85 303.353 Q2090.89 305.969 2085.08 305.969 L2079.2 305.969 L2079.2 319.858 L2074.52 319.858 L2074.52 285.298 Z" fill="#000000" fill-rule="evenodd" fill-opacity="1" /><path clip-path="url(#clip330)" d="M2103.11 285.298 L2124.96 285.298 L2124.96 289.233 L2107.79 289.233 L2107.79 299.464 L2124.25 299.464 L2124.25 303.399 L2107.79 303.399 L2107.79 315.922 L2125.38 315.922 L2125.38 319.858 L2103.11 319.858 L2103.11 285.298 Z" fill="#000000" fill-rule="evenodd" fill-opacity="1" /><path clip-path="url(#clip330)" d="M2130.73 304.973 L2143.2 304.973 L2143.2 308.77 L2130.73 308.77 L2130.73 304.973 Z" fill="#000000" fill-rule="evenodd" fill-opacity="1" /><path clip-path="url(#clip330)" d="M2150.17 285.298 L2154.85 285.298 L2154.85 299.464 L2171.84 299.464 L2171.84 285.298 L2176.51 285.298 L2176.51 319.858 L2171.84 319.858 L2171.84 303.399 L2154.85 303.399 L2154.85 319.858 L2150.17 319.858 L2150.17 285.298 Z" fill="#000000" fill-rule="evenodd" fill-opacity="1" /><path clip-path="url(#clip330)" d="M2185.82 285.298 L2192.79 285.298 L2201.61 308.816 L2210.47 285.298 L2217.44 285.298 L2217.44 319.858 L2212.88 319.858 L2212.88 289.51 L2203.97 313.214 L2199.27 313.214 L2190.36 289.51 L2190.36 319.858 L2185.82 319.858 L2185.82 285.298 Z" fill="#000000" fill-rule="evenodd" fill-opacity="1" /><path clip-path="url(#clip330)" d="M2252.6 287.96 L2252.6 292.89 Q2250.24 290.691 2247.56 289.603 Q2244.89 288.515 2241.88 288.515 Q2235.96 288.515 2232.81 292.149 Q2229.66 295.76 2229.66 302.612 Q2229.66 309.441 2232.81 313.075 Q2235.96 316.686 2241.88 316.686 Q2244.89 316.686 2247.56 315.598 Q2250.24 314.51 2252.6 312.311 L2252.6 317.196 Q2250.15 318.862 2247.39 319.696 Q2244.66 320.529 2241.61 320.529 Q2233.76 320.529 2229.25 315.737 Q2224.73 310.922 2224.73 302.612 Q2224.73 294.279 2229.25 289.487 Q2233.76 284.673 2241.61 284.673 Q2244.71 284.673 2247.44 285.506 Q2250.19 286.316 2252.6 287.96 Z" fill="#000000" fill-rule="evenodd" fill-opacity="1" /></svg>
