<?xml version="1.0" encoding="utf-8"?>
<svg xmlns="http://www.w3.org/2000/svg" xmlns:xlink="http://www.w3.org/1999/xlink" width="400" height="350" viewBox="0 0 1600 1400">
<defs>
  <clipPath id="clip460">
    <rect x="0" y="0" width="1600" height="1400"/>
  </clipPath>
</defs>
<path clip-path="url(#clip460)" d="
M0 1400 L1600 1400 L1600 0 L0 0  Z
  " fill="#ffffff" fill-rule="evenodd" fill-opacity="1"/>
<defs>
  <clipPath id="clip461">
    <rect x="320" y="0" width="1121" height="1121"/>
  </clipPath>
</defs>
<path clip-path="url(#clip460)" d="
M178.274 1277.65 L1552.76 1277.65 L1552.76 47.2441 L178.274 47.2441  Z
  " fill="#ffffff" fill-rule="evenodd" fill-opacity="1"/>
<defs>
  <clipPath id="clip462">
    <rect x="178" y="47" width="1375" height="1231"/>
  </clipPath>
</defs>
<polyline clip-path="url(#clip462)" style="stroke:#000000; stroke-linecap:round; stroke-linejoin:round; stroke-width:2; stroke-opacity:0.1; fill:none" points="
  476.511,1277.65 476.511,47.2441 
  "/>
<polyline clip-path="url(#clip462)" style="stroke:#000000; stroke-linecap:round; stroke-linejoin:round; stroke-width:2; stroke-opacity:0.1; fill:none" points="
  800.681,1277.65 800.681,47.2441 
  "/>
<polyline clip-path="url(#clip462)" style="stroke:#000000; stroke-linecap:round; stroke-linejoin:round; stroke-width:2; stroke-opacity:0.1; fill:none" points="
  1124.85,1277.65 1124.85,47.2441 
  "/>
<polyline clip-path="url(#clip462)" style="stroke:#000000; stroke-linecap:round; stroke-linejoin:round; stroke-width:2; stroke-opacity:0.1; fill:none" points="
  1449.02,1277.65 1449.02,47.2441 
  "/>
<polyline clip-path="url(#clip460)" style="stroke:#000000; stroke-linecap:round; stroke-linejoin:round; stroke-width:4; stroke-opacity:1; fill:none" points="
  178.274,1277.65 1552.76,1277.65 
  "/>
<polyline clip-path="url(#clip460)" style="stroke:#000000; stroke-linecap:round; stroke-linejoin:round; stroke-width:4; stroke-opacity:1; fill:none" points="
  476.511,1277.65 476.511,1258.75 
  "/>
<polyline clip-path="url(#clip460)" style="stroke:#000000; stroke-linecap:round; stroke-linejoin:round; stroke-width:4; stroke-opacity:1; fill:none" points="
  800.681,1277.65 800.681,1258.75 
  "/>
<polyline clip-path="url(#clip460)" style="stroke:#000000; stroke-linecap:round; stroke-linejoin:round; stroke-width:4; stroke-opacity:1; fill:none" points="
  1124.85,1277.65 1124.85,1258.75 
  "/>
<polyline clip-path="url(#clip460)" style="stroke:#000000; stroke-linecap:round; stroke-linejoin:round; stroke-width:4; stroke-opacity:1; fill:none" points="
  1449.02,1277.65 1449.02,1258.75 
  "/>
<path clip-path="url(#clip460)" d="M466.788 1299.09 L485.145 1299.09 L485.145 1303.02 L471.071 1303.02 L471.071 1311.5 Q472.089 1311.15 473.108 1310.99 Q474.126 1310.8 475.145 1310.8 Q480.932 1310.8 484.312 1313.97 Q487.691 1317.14 487.691 1322.56 Q487.691 1328.14 484.219 1331.24 Q480.747 1334.32 474.427 1334.32 Q472.251 1334.32 469.983 1333.95 Q467.738 1333.58 465.33 1332.84 L465.33 1328.14 Q467.413 1329.27 469.636 1329.83 Q471.858 1330.38 474.335 1330.38 Q478.339 1330.38 480.677 1328.28 Q483.015 1326.17 483.015 1322.56 Q483.015 1318.95 480.677 1316.84 Q478.339 1314.74 474.335 1314.74 Q472.46 1314.74 470.585 1315.15 Q468.733 1315.57 466.788 1316.45 L466.788 1299.09 Z" fill="#000000" fill-rule="evenodd" fill-opacity="1" /><path clip-path="url(#clip460)" d="M775.369 1329.71 L783.007 1329.71 L783.007 1303.35 L774.697 1305.01 L774.697 1300.75 L782.961 1299.09 L787.637 1299.09 L787.637 1329.71 L795.276 1329.71 L795.276 1333.65 L775.369 1333.65 L775.369 1329.71 Z" fill="#000000" fill-rule="evenodd" fill-opacity="1" /><path clip-path="url(#clip460)" d="M814.72 1302.17 Q811.109 1302.17 809.28 1305.73 Q807.475 1309.27 807.475 1316.4 Q807.475 1323.51 809.28 1327.07 Q811.109 1330.62 814.72 1330.62 Q818.354 1330.62 820.16 1327.07 Q821.989 1323.51 821.989 1316.4 Q821.989 1309.27 820.16 1305.73 Q818.354 1302.17 814.72 1302.17 M814.72 1298.46 Q820.53 1298.46 823.586 1303.07 Q826.665 1307.65 826.665 1316.4 Q826.665 1325.13 823.586 1329.74 Q820.53 1334.32 814.72 1334.32 Q808.91 1334.32 805.831 1329.74 Q802.776 1325.13 802.776 1316.4 Q802.776 1307.65 805.831 1303.07 Q808.91 1298.46 814.72 1298.46 Z" fill="#000000" fill-rule="evenodd" fill-opacity="1" /><path clip-path="url(#clip460)" d="M1100.04 1329.71 L1107.68 1329.71 L1107.68 1303.35 L1099.37 1305.01 L1099.37 1300.75 L1107.63 1299.09 L1112.3 1299.09 L1112.3 1329.71 L1119.94 1329.71 L1119.94 1333.65 L1100.04 1333.65 L1100.04 1329.71 Z" fill="#000000" fill-rule="evenodd" fill-opacity="1" /><path clip-path="url(#clip460)" d="M1129.43 1299.09 L1147.79 1299.09 L1147.79 1303.02 L1133.72 1303.02 L1133.72 1311.5 Q1134.74 1311.15 1135.75 1310.99 Q1136.77 1310.8 1137.79 1310.8 Q1143.58 1310.8 1146.96 1313.97 Q1150.34 1317.14 1150.34 1322.56 Q1150.34 1328.14 1146.86 1331.24 Q1143.39 1334.32 1137.07 1334.32 Q1134.9 1334.32 1132.63 1333.95 Q1130.38 1333.58 1127.98 1332.84 L1127.98 1328.14 Q1130.06 1329.27 1132.28 1329.83 Q1134.5 1330.38 1136.98 1330.38 Q1140.99 1330.38 1143.32 1328.28 Q1145.66 1326.17 1145.66 1322.56 Q1145.66 1318.95 1143.32 1316.84 Q1140.99 1314.74 1136.98 1314.74 Q1135.11 1314.74 1133.23 1315.15 Q1131.38 1315.57 1129.43 1316.45 L1129.43 1299.09 Z" fill="#000000" fill-rule="evenodd" fill-opacity="1" /><path clip-path="url(#clip460)" d="M1427.79 1329.71 L1444.11 1329.71 L1444.11 1333.65 L1422.17 1333.65 L1422.17 1329.71 Q1424.83 1326.96 1429.42 1322.33 Q1434.02 1317.68 1435.2 1316.33 Q1437.45 1313.81 1438.33 1312.07 Q1439.23 1310.31 1439.23 1308.62 Q1439.23 1305.87 1437.29 1304.13 Q1435.36 1302.4 1432.26 1302.4 Q1430.06 1302.4 1427.61 1303.16 Q1425.18 1303.93 1422.4 1305.48 L1422.4 1300.75 Q1425.23 1299.62 1427.68 1299.04 Q1430.13 1298.46 1432.17 1298.46 Q1437.54 1298.46 1440.73 1301.15 Q1443.93 1303.83 1443.93 1308.32 Q1443.93 1310.45 1443.12 1312.37 Q1442.33 1314.27 1440.23 1316.87 Q1439.65 1317.54 1436.54 1320.75 Q1433.44 1323.95 1427.79 1329.71 Z" fill="#000000" fill-rule="evenodd" fill-opacity="1" /><path clip-path="url(#clip460)" d="M1463.93 1302.17 Q1460.32 1302.17 1458.49 1305.73 Q1456.68 1309.27 1456.68 1316.4 Q1456.68 1323.51 1458.49 1327.07 Q1460.32 1330.62 1463.93 1330.62 Q1467.56 1330.62 1469.37 1327.07 Q1471.2 1323.51 1471.2 1316.4 Q1471.2 1309.27 1469.37 1305.73 Q1467.56 1302.17 1463.93 1302.17 M1463.93 1298.46 Q1469.74 1298.46 1472.79 1303.07 Q1475.87 1307.65 1475.87 1316.4 Q1475.87 1325.13 1472.79 1329.74 Q1469.74 1334.32 1463.93 1334.32 Q1458.12 1334.32 1455.04 1329.74 Q1451.98 1325.13 1451.98 1316.4 Q1451.98 1307.65 1455.04 1303.07 Q1458.12 1298.46 1463.93 1298.46 Z" fill="#000000" fill-rule="evenodd" fill-opacity="1" /><polyline clip-path="url(#clip462)" style="stroke:#000000; stroke-linecap:round; stroke-linejoin:round; stroke-width:2; stroke-opacity:0.1; fill:none" points="
  178.274,1253.34 1552.76,1253.34 
  "/>
<polyline clip-path="url(#clip462)" style="stroke:#000000; stroke-linecap:round; stroke-linejoin:round; stroke-width:2; stroke-opacity:0.1; fill:none" points="
  178.274,960.525 1552.76,960.525 
  "/>
<polyline clip-path="url(#clip462)" style="stroke:#000000; stroke-linecap:round; stroke-linejoin:round; stroke-width:2; stroke-opacity:0.1; fill:none" points="
  178.274,667.706 1552.76,667.706 
  "/>
<polyline clip-path="url(#clip462)" style="stroke:#000000; stroke-linecap:round; stroke-linejoin:round; stroke-width:2; stroke-opacity:0.1; fill:none" points="
  178.274,374.886 1552.76,374.886 
  "/>
<polyline clip-path="url(#clip462)" style="stroke:#000000; stroke-linecap:round; stroke-linejoin:round; stroke-width:2; stroke-opacity:0.1; fill:none" points="
  178.274,82.0668 1552.76,82.0668 
  "/>
<polyline clip-path="url(#clip460)" style="stroke:#000000; stroke-linecap:round; stroke-linejoin:round; stroke-width:4; stroke-opacity:1; fill:none" points="
  178.274,1277.65 178.274,47.2441 
  "/>
<polyline clip-path="url(#clip460)" style="stroke:#000000; stroke-linecap:round; stroke-linejoin:round; stroke-width:4; stroke-opacity:1; fill:none" points="
  178.274,1253.34 197.172,1253.34 
  "/>
<polyline clip-path="url(#clip460)" style="stroke:#000000; stroke-linecap:round; stroke-linejoin:round; stroke-width:4; stroke-opacity:1; fill:none" points="
  178.274,960.525 197.172,960.525 
  "/>
<polyline clip-path="url(#clip460)" style="stroke:#000000; stroke-linecap:round; stroke-linejoin:round; stroke-width:4; stroke-opacity:1; fill:none" points="
  178.274,667.706 197.172,667.706 
  "/>
<polyline clip-path="url(#clip460)" style="stroke:#000000; stroke-linecap:round; stroke-linejoin:round; stroke-width:4; stroke-opacity:1; fill:none" points="
  178.274,374.886 197.172,374.886 
  "/>
<polyline clip-path="url(#clip460)" style="stroke:#000000; stroke-linecap:round; stroke-linejoin:round; stroke-width:4; stroke-opacity:1; fill:none" points="
  178.274,82.0668 197.172,82.0668 
  "/>
<path clip-path="url(#clip460)" d="M66.9365 1239.14 Q63.3254 1239.14 61.4967 1242.71 Q59.6912 1246.25 59.6912 1253.38 Q59.6912 1260.49 61.4967 1264.05 Q63.3254 1267.59 66.9365 1267.59 Q70.5707 1267.59 72.3763 1264.05 Q74.205 1260.49 74.205 1253.38 Q74.205 1246.25 72.3763 1242.71 Q70.5707 1239.14 66.9365 1239.14 M66.9365 1235.44 Q72.7467 1235.44 75.8022 1240.05 Q78.8809 1244.63 78.8809 1253.38 Q78.8809 1262.11 75.8022 1266.71 Q72.7467 1271.3 66.9365 1271.3 Q61.1264 1271.3 58.0477 1266.71 Q54.9921 1262.11 54.9921 1253.38 Q54.9921 1244.63 58.0477 1240.05 Q61.1264 1235.44 66.9365 1235.44 Z" fill="#000000" fill-rule="evenodd" fill-opacity="1" /><path clip-path="url(#clip460)" d="M87.0984 1264.75 L91.9827 1264.75 L91.9827 1270.62 L87.0984 1270.62 L87.0984 1264.75 Z" fill="#000000" fill-rule="evenodd" fill-opacity="1" /><path clip-path="url(#clip460)" d="M112.168 1239.14 Q108.557 1239.14 106.728 1242.71 Q104.922 1246.25 104.922 1253.38 Q104.922 1260.49 106.728 1264.05 Q108.557 1267.59 112.168 1267.59 Q115.802 1267.59 117.608 1264.05 Q119.436 1260.49 119.436 1253.38 Q119.436 1246.25 117.608 1242.71 Q115.802 1239.14 112.168 1239.14 M112.168 1235.44 Q117.978 1235.44 121.033 1240.05 Q124.112 1244.63 124.112 1253.38 Q124.112 1262.11 121.033 1266.71 Q117.978 1271.3 112.168 1271.3 Q106.358 1271.3 103.279 1266.71 Q100.223 1262.11 100.223 1253.38 Q100.223 1244.63 103.279 1240.05 Q106.358 1235.44 112.168 1235.44 Z" fill="#000000" fill-rule="evenodd" fill-opacity="1" /><path clip-path="url(#clip460)" d="M142.33 1239.14 Q138.719 1239.14 136.89 1242.71 Q135.084 1246.25 135.084 1253.38 Q135.084 1260.49 136.89 1264.05 Q138.719 1267.59 142.33 1267.59 Q145.964 1267.59 147.769 1264.05 Q149.598 1260.49 149.598 1253.38 Q149.598 1246.25 147.769 1242.71 Q145.964 1239.14 142.33 1239.14 M142.33 1235.44 Q148.14 1235.44 151.195 1240.05 Q154.274 1244.63 154.274 1253.38 Q154.274 1262.11 151.195 1266.71 Q148.14 1271.3 142.33 1271.3 Q136.519 1271.3 133.441 1266.71 Q130.385 1262.11 130.385 1253.38 Q130.385 1244.63 133.441 1240.05 Q136.519 1235.44 142.33 1235.44 Z" fill="#000000" fill-rule="evenodd" fill-opacity="1" /><path clip-path="url(#clip460)" d="M67.9319 946.324 Q64.3208 946.324 62.4921 949.889 Q60.6865 953.43 60.6865 960.56 Q60.6865 967.666 62.4921 971.231 Q64.3208 974.773 67.9319 974.773 Q71.5661 974.773 73.3717 971.231 Q75.2004 967.666 75.2004 960.56 Q75.2004 953.43 73.3717 949.889 Q71.5661 946.324 67.9319 946.324 M67.9319 942.62 Q73.742 942.62 76.7976 947.227 Q79.8763 951.81 79.8763 960.56 Q79.8763 969.287 76.7976 973.893 Q73.742 978.477 67.9319 978.477 Q62.1217 978.477 59.043 973.893 Q55.9875 969.287 55.9875 960.56 Q55.9875 951.81 59.043 947.227 Q62.1217 942.62 67.9319 942.62 Z" fill="#000000" fill-rule="evenodd" fill-opacity="1" /><path clip-path="url(#clip460)" d="M88.0938 971.926 L92.978 971.926 L92.978 977.805 L88.0938 977.805 L88.0938 971.926 Z" fill="#000000" fill-rule="evenodd" fill-opacity="1" /><path clip-path="url(#clip460)" d="M107.191 973.87 L123.51 973.87 L123.51 977.805 L101.566 977.805 L101.566 973.87 Q104.228 971.115 108.811 966.486 Q113.418 961.833 114.598 960.491 Q116.844 957.967 117.723 956.231 Q118.626 954.472 118.626 952.782 Q118.626 950.028 116.682 948.292 Q114.76 946.555 111.658 946.555 Q109.459 946.555 107.006 947.319 Q104.575 948.083 101.797 949.634 L101.797 944.912 Q104.621 943.778 107.075 943.199 Q109.529 942.62 111.566 942.62 Q116.936 942.62 120.131 945.305 Q123.325 947.991 123.325 952.481 Q123.325 954.611 122.515 956.532 Q121.728 958.43 119.621 961.023 Q119.043 961.694 115.941 964.912 Q112.839 968.106 107.191 973.87 Z" fill="#000000" fill-rule="evenodd" fill-opacity="1" /><path clip-path="url(#clip460)" d="M133.371 943.245 L151.728 943.245 L151.728 947.18 L137.654 947.18 L137.654 955.653 Q138.672 955.305 139.691 955.143 Q140.709 954.958 141.728 954.958 Q147.515 954.958 150.894 958.129 Q154.274 961.301 154.274 966.717 Q154.274 972.296 150.802 975.398 Q147.33 978.477 141.01 978.477 Q138.834 978.477 136.566 978.106 Q134.32 977.736 131.913 976.995 L131.913 972.296 Q133.996 973.43 136.219 973.986 Q138.441 974.541 140.918 974.541 Q144.922 974.541 147.26 972.435 Q149.598 970.328 149.598 966.717 Q149.598 963.106 147.26 961 Q144.922 958.893 140.918 958.893 Q139.043 958.893 137.168 959.31 Q135.316 959.727 133.371 960.606 L133.371 943.245 Z" fill="#000000" fill-rule="evenodd" fill-opacity="1" /><path clip-path="url(#clip460)" d="M66.9365 653.504 Q63.3254 653.504 61.4967 657.069 Q59.6912 660.611 59.6912 667.741 Q59.6912 674.847 61.4967 678.412 Q63.3254 681.953 66.9365 681.953 Q70.5707 681.953 72.3763 678.412 Q74.205 674.847 74.205 667.741 Q74.205 660.611 72.3763 657.069 Q70.5707 653.504 66.9365 653.504 M66.9365 649.801 Q72.7467 649.801 75.8022 654.407 Q78.8809 658.991 78.8809 667.741 Q78.8809 676.467 75.8022 681.074 Q72.7467 685.657 66.9365 685.657 Q61.1264 685.657 58.0477 681.074 Q54.9921 676.467 54.9921 667.741 Q54.9921 658.991 58.0477 654.407 Q61.1264 649.801 66.9365 649.801 Z" fill="#000000" fill-rule="evenodd" fill-opacity="1" /><path clip-path="url(#clip460)" d="M87.0984 679.106 L91.9827 679.106 L91.9827 684.986 L87.0984 684.986 L87.0984 679.106 Z" fill="#000000" fill-rule="evenodd" fill-opacity="1" /><path clip-path="url(#clip460)" d="M102.214 650.426 L120.57 650.426 L120.57 654.361 L106.496 654.361 L106.496 662.833 Q107.515 662.486 108.534 662.324 Q109.552 662.139 110.571 662.139 Q116.358 662.139 119.737 665.31 Q123.117 668.481 123.117 673.898 Q123.117 679.477 119.645 682.578 Q116.172 685.657 109.853 685.657 Q107.677 685.657 105.409 685.287 Q103.163 684.916 100.756 684.176 L100.756 679.477 Q102.839 680.611 105.061 681.166 Q107.284 681.722 109.76 681.722 Q113.765 681.722 116.103 679.615 Q118.441 677.509 118.441 673.898 Q118.441 670.287 116.103 668.18 Q113.765 666.074 109.76 666.074 Q107.885 666.074 106.01 666.491 Q104.159 666.907 102.214 667.787 L102.214 650.426 Z" fill="#000000" fill-rule="evenodd" fill-opacity="1" /><path clip-path="url(#clip460)" d="M142.33 653.504 Q138.719 653.504 136.89 657.069 Q135.084 660.611 135.084 667.741 Q135.084 674.847 136.89 678.412 Q138.719 681.953 142.33 681.953 Q145.964 681.953 147.769 678.412 Q149.598 674.847 149.598 667.741 Q149.598 660.611 147.769 657.069 Q145.964 653.504 142.33 653.504 M142.33 649.801 Q148.14 649.801 151.195 654.407 Q154.274 658.991 154.274 667.741 Q154.274 676.467 151.195 681.074 Q148.14 685.657 142.33 685.657 Q136.519 685.657 133.441 681.074 Q130.385 676.467 130.385 667.741 Q130.385 658.991 133.441 654.407 Q136.519 649.801 142.33 649.801 Z" fill="#000000" fill-rule="evenodd" fill-opacity="1" /><path clip-path="url(#clip460)" d="M67.9319 360.685 Q64.3208 360.685 62.4921 364.25 Q60.6865 367.791 60.6865 374.921 Q60.6865 382.027 62.4921 385.592 Q64.3208 389.134 67.9319 389.134 Q71.5661 389.134 73.3717 385.592 Q75.2004 382.027 75.2004 374.921 Q75.2004 367.791 73.3717 364.25 Q71.5661 360.685 67.9319 360.685 M67.9319 356.981 Q73.742 356.981 76.7976 361.588 Q79.8763 366.171 79.8763 374.921 Q79.8763 383.648 76.7976 388.254 Q73.742 392.838 67.9319 392.838 Q62.1217 392.838 59.043 388.254 Q55.9875 383.648 55.9875 374.921 Q55.9875 366.171 59.043 361.588 Q62.1217 356.981 67.9319 356.981 Z" fill="#000000" fill-rule="evenodd" fill-opacity="1" /><path clip-path="url(#clip460)" d="M88.0938 386.287 L92.978 386.287 L92.978 392.166 L88.0938 392.166 L88.0938 386.287 Z" fill="#000000" fill-rule="evenodd" fill-opacity="1" /><path clip-path="url(#clip460)" d="M101.983 357.606 L124.205 357.606 L124.205 359.597 L111.658 392.166 L106.774 392.166 L118.58 361.541 L101.983 361.541 L101.983 357.606 Z" fill="#000000" fill-rule="evenodd" fill-opacity="1" /><path clip-path="url(#clip460)" d="M133.371 357.606 L151.728 357.606 L151.728 361.541 L137.654 361.541 L137.654 370.014 Q138.672 369.666 139.691 369.504 Q140.709 369.319 141.728 369.319 Q147.515 369.319 150.894 372.49 Q154.274 375.662 154.274 381.078 Q154.274 386.657 150.802 389.759 Q147.33 392.838 141.01 392.838 Q138.834 392.838 136.566 392.467 Q134.32 392.097 131.913 391.356 L131.913 386.657 Q133.996 387.791 136.219 388.347 Q138.441 388.902 140.918 388.902 Q144.922 388.902 147.26 386.796 Q149.598 384.69 149.598 381.078 Q149.598 377.467 147.26 375.361 Q144.922 373.254 140.918 373.254 Q139.043 373.254 137.168 373.671 Q135.316 374.088 133.371 374.967 L133.371 357.606 Z" fill="#000000" fill-rule="evenodd" fill-opacity="1" /><path clip-path="url(#clip460)" d="M57.7467 95.4117 L65.3856 95.4117 L65.3856 69.0461 L57.0754 70.7127 L57.0754 66.4535 L65.3393 64.7868 L70.0152 64.7868 L70.0152 95.4117 L77.654 95.4117 L77.654 99.3468 L57.7467 99.3468 L57.7467 95.4117 Z" fill="#000000" fill-rule="evenodd" fill-opacity="1" /><path clip-path="url(#clip460)" d="M87.0984 93.4672 L91.9827 93.4672 L91.9827 99.3468 L87.0984 99.3468 L87.0984 93.4672 Z" fill="#000000" fill-rule="evenodd" fill-opacity="1" /><path clip-path="url(#clip460)" d="M112.168 67.8655 Q108.557 67.8655 106.728 71.4303 Q104.922 74.972 104.922 82.1016 Q104.922 89.208 106.728 92.7728 Q108.557 96.3145 112.168 96.3145 Q115.802 96.3145 117.608 92.7728 Q119.436 89.208 119.436 82.1016 Q119.436 74.972 117.608 71.4303 Q115.802 67.8655 112.168 67.8655 M112.168 64.1618 Q117.978 64.1618 121.033 68.7683 Q124.112 73.3516 124.112 82.1016 Q124.112 90.8284 121.033 95.4348 Q117.978 100.018 112.168 100.018 Q106.358 100.018 103.279 95.4348 Q100.223 90.8284 100.223 82.1016 Q100.223 73.3516 103.279 68.7683 Q106.358 64.1618 112.168 64.1618 Z" fill="#000000" fill-rule="evenodd" fill-opacity="1" /><path clip-path="url(#clip460)" d="M142.33 67.8655 Q138.719 67.8655 136.89 71.4303 Q135.084 74.972 135.084 82.1016 Q135.084 89.208 136.89 92.7728 Q138.719 96.3145 142.33 96.3145 Q145.964 96.3145 147.769 92.7728 Q149.598 89.208 149.598 82.1016 Q149.598 74.972 147.769 71.4303 Q145.964 67.8655 142.33 67.8655 M142.33 64.1618 Q148.14 64.1618 151.195 68.7683 Q154.274 73.3516 154.274 82.1016 Q154.274 90.8284 151.195 95.4348 Q148.14 100.018 142.33 100.018 Q136.519 100.018 133.441 95.4348 Q130.385 90.8284 130.385 82.1016 Q130.385 73.3516 133.441 68.7683 Q136.519 64.1618 142.33 64.1618 Z" fill="#000000" fill-rule="evenodd" fill-opacity="1" /><polyline clip-path="url(#clip462)" style="stroke:#009af9; stroke-linecap:round; stroke-linejoin:round; stroke-width:4; stroke-opacity:1; fill:none" points="
  217.174,82.0668 282.008,356.838 346.843,567.641 411.677,728.903 476.511,853.2 541.345,947.351 606.179,1018.92 671.013,1073.82 735.847,1116.6 800.681,1150.25 
  865.515,1175.72 930.349,1194.12 995.183,1207.44 1060.02,1216.3 1124.85,1222.86 1189.69,1228.09 1254.52,1230.58 1319.35,1231.75 1384.19,1231.92 1449.02,1232.44 
  1513.86,1233.08 
  "/>
<polyline clip-path="url(#clip462)" style="stroke:#e26f46; stroke-linecap:round; stroke-linejoin:round; stroke-width:4; stroke-opacity:1; fill:none" points="
  217.174,82.0668 282.008,1018.93 346.843,1206.76 411.677,1241.69 476.511,1241.18 541.345,1241 606.179,1241.75 671.013,1242.83 735.847,1241.69 800.681,1240.25 
  865.515,1241.68 930.349,1241.49 995.183,1241.25 1060.02,1241.93 1124.85,1240.66 1189.69,1241.18 1254.52,1240.42 1319.35,1241.51 1384.19,1242.76 1449.02,1242.35 
  1513.86,1241.61 
  "/>
<path clip-path="url(#clip460)" d="
M1209.72 243.778 L1506.94 243.778 L1506.94 88.2576 L1209.72 88.2576  Z
  " fill="#ffffff" fill-rule="evenodd" fill-opacity="1"/>
<polyline clip-path="url(#clip460)" style="stroke:#000000; stroke-linecap:round; stroke-linejoin:round; stroke-width:4; stroke-opacity:1; fill:none" points="
  1209.72,243.778 1506.94,243.778 1506.94,88.2576 1209.72,88.2576 1209.72,243.778 
  "/>
<polyline clip-path="url(#clip460)" style="stroke:#009af9; stroke-linecap:round; stroke-linejoin:round; stroke-width:4; stroke-opacity:1; fill:none" points="
  1225,140.098 1316.63,140.098 
  "/>
<path clip-path="url(#clip460)" d="M1331.9 122.818 L1336.58 122.818 L1336.58 136.984 L1353.57 136.984 L1353.57 122.818 L1358.24 122.818 L1358.24 157.378 L1353.57 157.378 L1353.57 140.919 L1336.58 140.919 L1336.58 157.378 L1331.9 157.378 L1331.9 122.818 Z" fill="#000000" fill-rule="evenodd" fill-opacity="1" /><path clip-path="url(#clip460)" d="M1367.55 122.818 L1374.52 122.818 L1383.34 146.336 L1392.2 122.818 L1399.17 122.818 L1399.17 157.378 L1394.61 157.378 L1394.61 127.03 L1385.7 150.734 L1381 150.734 L1372.09 127.03 L1372.09 157.378 L1367.55 157.378 L1367.55 122.818 Z" fill="#000000" fill-rule="evenodd" fill-opacity="1" /><path clip-path="url(#clip460)" d="M1434.33 125.48 L1434.33 130.41 Q1431.97 128.211 1429.28 127.123 Q1426.62 126.035 1423.61 126.035 Q1417.69 126.035 1414.54 129.669 Q1411.39 133.28 1411.39 140.132 Q1411.39 146.961 1414.54 150.595 Q1417.69 154.206 1423.61 154.206 Q1426.62 154.206 1429.28 153.118 Q1431.97 152.03 1434.33 149.831 L1434.33 154.716 Q1431.88 156.382 1429.12 157.216 Q1426.39 158.049 1423.33 158.049 Q1415.49 158.049 1410.97 153.257 Q1406.46 148.442 1406.46 140.132 Q1406.46 131.799 1410.97 127.007 Q1415.49 122.193 1423.33 122.193 Q1426.44 122.193 1429.17 123.026 Q1431.92 123.836 1434.33 125.48 Z" fill="#000000" fill-rule="evenodd" fill-opacity="1" /><polyline clip-path="url(#clip460)" style="stroke:#e26f46; stroke-linecap:round; stroke-linejoin:round; stroke-width:4; stroke-opacity:1; fill:none" points="
  1225,191.938 1316.63,191.938 
  "/>
<path clip-path="url(#clip460)" d="M1331.9 174.658 L1336.58 174.658 L1336.58 188.824 L1353.57 188.824 L1353.57 174.658 L1358.24 174.658 L1358.24 209.218 L1353.57 209.218 L1353.57 192.759 L1336.58 192.759 L1336.58 209.218 L1331.9 209.218 L1331.9 174.658 Z" fill="#000000" fill-rule="evenodd" fill-opacity="1" /><path clip-path="url(#clip460)" d="M1379.15 196.185 Q1373.98 196.185 1371.99 197.366 Q1370 198.546 1370 201.394 Q1370 203.662 1371.48 205.005 Q1372.99 206.324 1375.56 206.324 Q1379.1 206.324 1381.23 203.824 Q1383.38 201.301 1383.38 197.134 L1383.38 196.185 L1379.15 196.185 M1387.64 194.426 L1387.64 209.218 L1383.38 209.218 L1383.38 205.282 Q1381.92 207.643 1379.75 208.778 Q1377.57 209.889 1374.42 209.889 Q1370.44 209.889 1368.08 207.667 Q1365.74 205.421 1365.74 201.671 Q1365.74 197.296 1368.66 195.074 Q1371.6 192.852 1377.41 192.852 L1383.38 192.852 L1383.38 192.435 Q1383.38 189.495 1381.44 187.898 Q1379.52 186.278 1376.02 186.278 Q1373.8 186.278 1371.69 186.81 Q1369.59 187.343 1367.64 188.407 L1367.64 184.472 Q1369.98 183.57 1372.18 183.13 Q1374.38 182.667 1376.46 182.667 Q1382.09 182.667 1384.86 185.583 Q1387.64 188.5 1387.64 194.426 Z" fill="#000000" fill-rule="evenodd" fill-opacity="1" /><path clip-path="url(#clip460)" d="M1412.99 193.014 Q1414.49 193.523 1415.9 195.19 Q1417.34 196.857 1418.77 199.773 L1423.52 209.218 L1418.5 209.218 L1414.08 200.352 Q1412.36 196.88 1410.74 195.745 Q1409.15 194.611 1406.37 194.611 L1401.27 194.611 L1401.27 209.218 L1396.6 209.218 L1396.6 174.658 L1407.15 174.658 Q1413.08 174.658 1416 177.134 Q1418.91 179.611 1418.91 184.611 Q1418.91 187.875 1417.39 190.028 Q1415.88 192.181 1412.99 193.014 M1401.27 178.5 L1401.27 190.769 L1407.15 190.769 Q1410.53 190.769 1412.25 189.218 Q1413.98 187.644 1413.98 184.611 Q1413.98 181.579 1412.25 180.051 Q1410.53 178.5 1407.15 178.5 L1401.27 178.5 Z" fill="#000000" fill-rule="evenodd" fill-opacity="1" /><path clip-path="url(#clip460)" d="M1439.17 179.264 L1432.83 196.463 L1445.53 196.463 L1439.17 179.264 M1436.53 174.658 L1441.83 174.658 L1455 209.218 L1450.14 209.218 L1446.99 200.352 L1431.41 200.352 L1428.27 209.218 L1423.33 209.218 L1436.53 174.658 Z" fill="#000000" fill-rule="evenodd" fill-opacity="1" /><path clip-path="url(#clip460)" d="M1460.05 174.658 L1467.02 174.658 L1475.83 198.176 L1484.7 174.658 L1491.67 174.658 L1491.67 209.218 L1487.11 209.218 L1487.11 178.87 L1478.2 202.574 L1473.5 202.574 L1464.58 178.87 L1464.58 209.218 L1460.05 209.218 L1460.05 174.658 Z" fill="#000000" fill-rule="evenodd" fill-opacity="1" /></svg>
