<?xml version="1.0" encoding="utf-8"?>
<svg xmlns="http://www.w3.org/2000/svg" xmlns:xlink="http://www.w3.org/1999/xlink" width="600" height="350" viewBox="0 0 2400 1400">
<defs>
  <clipPath id="clip560">
    <rect x="0" y="0" width="2400" height="1400"/>
  </clipPath>
</defs>
<path clip-path="url(#clip560)" d="
M0 1400 L2400 1400 L2400 0 L0 0  Z
  " fill="#ffffff" fill-rule="evenodd" fill-opacity="1"/>
<defs>
  <clipPath id="clip561">
    <rect x="480" y="0" width="1681" height="1400"/>
  </clipPath>
</defs>
<path clip-path="url(#clip560)" d="
M156.598 1292.77 L1152.76 1292.77 L1152.76 47.2441 L156.598 47.2441  Z
  " fill="#ffffff" fill-rule="evenodd" fill-opacity="1"/>
<defs>
  <clipPath id="clip562">
    <rect x="156" y="47" width="997" height="1247"/>
  </clipPath>
</defs>
<polyline clip-path="url(#clip562)" style="stroke:#000000; stroke-linecap:round; stroke-linejoin:round; stroke-width:2; stroke-opacity:0.1; fill:none" points="
  188.058,1292.77 188.058,47.2441 
  "/>
<polyline clip-path="url(#clip562)" style="stroke:#000000; stroke-linecap:round; stroke-linejoin:round; stroke-width:2; stroke-opacity:0.1; fill:none" points="
  421.367,1292.77 421.367,47.2441 
  "/>
<polyline clip-path="url(#clip562)" style="stroke:#000000; stroke-linecap:round; stroke-linejoin:round; stroke-width:2; stroke-opacity:0.1; fill:none" points="
  654.677,1292.77 654.677,47.2441 
  "/>
<polyline clip-path="url(#clip562)" style="stroke:#000000; stroke-linecap:round; stroke-linejoin:round; stroke-width:2; stroke-opacity:0.1; fill:none" points="
  887.987,1292.77 887.987,47.2441 
  "/>
<polyline clip-path="url(#clip562)" style="stroke:#000000; stroke-linecap:round; stroke-linejoin:round; stroke-width:2; stroke-opacity:0.1; fill:none" points="
  1121.3,1292.77 1121.3,47.2441 
  "/>
<polyline clip-path="url(#clip560)" style="stroke:#000000; stroke-linecap:round; stroke-linejoin:round; stroke-width:4; stroke-opacity:1; fill:none" points="
  156.598,1292.77 1152.76,1292.77 
  "/>
<polyline clip-path="url(#clip560)" style="stroke:#000000; stroke-linecap:round; stroke-linejoin:round; stroke-width:4; stroke-opacity:1; fill:none" points="
  188.058,1292.77 188.058,1273.87 
  "/>
<polyline clip-path="url(#clip560)" style="stroke:#000000; stroke-linecap:round; stroke-linejoin:round; stroke-width:4; stroke-opacity:1; fill:none" points="
  421.367,1292.77 421.367,1273.87 
  "/>
<polyline clip-path="url(#clip560)" style="stroke:#000000; stroke-linecap:round; stroke-linejoin:round; stroke-width:4; stroke-opacity:1; fill:none" points="
  654.677,1292.77 654.677,1273.87 
  "/>
<polyline clip-path="url(#clip560)" style="stroke:#000000; stroke-linecap:round; stroke-linejoin:round; stroke-width:4; stroke-opacity:1; fill:none" points="
  887.987,1292.77 887.987,1273.87 
  "/>
<polyline clip-path="url(#clip560)" style="stroke:#000000; stroke-linecap:round; stroke-linejoin:round; stroke-width:4; stroke-opacity:1; fill:none" points="
  1121.3,1292.77 1121.3,1273.87 
  "/>
<path clip-path="url(#clip560)" d="M156.958 1338.34 L186.634 1338.34 L186.634 1342.27 L156.958 1342.27 L156.958 1338.34 Z" fill="#000000" fill-rule="evenodd" fill-opacity="1" /><path clip-path="url(#clip560)" d="M209.574 1324.68 L197.768 1343.13 L209.574 1343.13 L209.574 1324.68 M208.347 1320.61 L214.227 1320.61 L214.227 1343.13 L219.157 1343.13 L219.157 1347.02 L214.227 1347.02 L214.227 1355.17 L209.574 1355.17 L209.574 1347.02 L193.972 1347.02 L193.972 1342.51 L208.347 1320.61 Z" fill="#000000" fill-rule="evenodd" fill-opacity="1" /><path clip-path="url(#clip560)" d="M391.31 1338.34 L420.985 1338.34 L420.985 1342.27 L391.31 1342.27 L391.31 1338.34 Z" fill="#000000" fill-rule="evenodd" fill-opacity="1" /><path clip-path="url(#clip560)" d="M435.106 1351.23 L451.425 1351.23 L451.425 1355.17 L429.481 1355.17 L429.481 1351.23 Q432.143 1348.48 436.726 1343.85 Q441.333 1339.2 442.513 1337.85 Q444.758 1335.33 445.638 1333.59 Q446.541 1331.83 446.541 1330.14 Q446.541 1327.39 444.596 1325.65 Q442.675 1323.92 439.573 1323.92 Q437.374 1323.92 434.921 1324.68 Q432.49 1325.45 429.712 1327 L429.712 1322.27 Q432.536 1321.14 434.99 1320.56 Q437.444 1319.98 439.481 1319.98 Q444.851 1319.98 448.045 1322.67 Q451.24 1325.35 451.24 1329.84 Q451.24 1331.97 450.43 1333.89 Q449.643 1335.79 447.536 1338.39 Q446.958 1339.06 443.856 1342.27 Q440.754 1345.47 435.106 1351.23 Z" fill="#000000" fill-rule="evenodd" fill-opacity="1" /><path clip-path="url(#clip560)" d="M654.677 1323.69 Q651.066 1323.69 649.237 1327.25 Q647.432 1330.79 647.432 1337.92 Q647.432 1345.03 649.237 1348.59 Q651.066 1352.14 654.677 1352.14 Q658.311 1352.14 660.117 1348.59 Q661.946 1345.03 661.946 1337.92 Q661.946 1330.79 660.117 1327.25 Q658.311 1323.69 654.677 1323.69 M654.677 1319.98 Q660.487 1319.98 663.543 1324.59 Q666.621 1329.17 666.621 1337.92 Q666.621 1346.65 663.543 1351.26 Q660.487 1355.84 654.677 1355.84 Q648.867 1355.84 645.788 1351.26 Q642.733 1346.65 642.733 1337.92 Q642.733 1329.17 645.788 1324.59 Q648.867 1319.98 654.677 1319.98 Z" fill="#000000" fill-rule="evenodd" fill-opacity="1" /><path clip-path="url(#clip560)" d="M882.64 1351.23 L898.959 1351.23 L898.959 1355.17 L877.015 1355.17 L877.015 1351.23 Q879.677 1348.48 884.26 1343.85 Q888.866 1339.2 890.047 1337.85 Q892.292 1335.33 893.172 1333.59 Q894.075 1331.83 894.075 1330.14 Q894.075 1327.39 892.13 1325.65 Q890.209 1323.92 887.107 1323.92 Q884.908 1323.92 882.454 1324.68 Q880.024 1325.45 877.246 1327 L877.246 1322.27 Q880.07 1321.14 882.524 1320.56 Q884.978 1319.98 887.015 1319.98 Q892.385 1319.98 895.579 1322.67 Q898.774 1325.35 898.774 1329.84 Q898.774 1331.97 897.964 1333.89 Q897.177 1335.79 895.07 1338.39 Q894.491 1339.06 891.39 1342.27 Q888.288 1345.47 882.64 1351.23 Z" fill="#000000" fill-rule="evenodd" fill-opacity="1" /><path clip-path="url(#clip560)" d="M1124.31 1324.68 L1112.5 1343.13 L1124.31 1343.13 L1124.31 1324.68 M1123.08 1320.61 L1128.96 1320.61 L1128.96 1343.13 L1133.89 1343.13 L1133.89 1347.02 L1128.96 1347.02 L1128.96 1355.17 L1124.31 1355.17 L1124.31 1347.02 L1108.7 1347.02 L1108.7 1342.51 L1123.08 1320.61 Z" fill="#000000" fill-rule="evenodd" fill-opacity="1" /><polyline clip-path="url(#clip562)" style="stroke:#000000; stroke-linecap:round; stroke-linejoin:round; stroke-width:2; stroke-opacity:0.1; fill:none" points="
  156.598,1257.52 1152.76,1257.52 
  "/>
<polyline clip-path="url(#clip562)" style="stroke:#000000; stroke-linecap:round; stroke-linejoin:round; stroke-width:2; stroke-opacity:0.1; fill:none" points="
  156.598,971.363 1152.76,971.363 
  "/>
<polyline clip-path="url(#clip562)" style="stroke:#000000; stroke-linecap:round; stroke-linejoin:round; stroke-width:2; stroke-opacity:0.1; fill:none" points="
  156.598,685.208 1152.76,685.208 
  "/>
<polyline clip-path="url(#clip562)" style="stroke:#000000; stroke-linecap:round; stroke-linejoin:round; stroke-width:2; stroke-opacity:0.1; fill:none" points="
  156.598,399.054 1152.76,399.054 
  "/>
<polyline clip-path="url(#clip562)" style="stroke:#000000; stroke-linecap:round; stroke-linejoin:round; stroke-width:2; stroke-opacity:0.1; fill:none" points="
  156.598,112.899 1152.76,112.899 
  "/>
<polyline clip-path="url(#clip560)" style="stroke:#000000; stroke-linecap:round; stroke-linejoin:round; stroke-width:4; stroke-opacity:1; fill:none" points="
  156.598,1292.77 156.598,47.2441 
  "/>
<polyline clip-path="url(#clip560)" style="stroke:#000000; stroke-linecap:round; stroke-linejoin:round; stroke-width:4; stroke-opacity:1; fill:none" points="
  156.598,1257.52 175.496,1257.52 
  "/>
<polyline clip-path="url(#clip560)" style="stroke:#000000; stroke-linecap:round; stroke-linejoin:round; stroke-width:4; stroke-opacity:1; fill:none" points="
  156.598,971.363 175.496,971.363 
  "/>
<polyline clip-path="url(#clip560)" style="stroke:#000000; stroke-linecap:round; stroke-linejoin:round; stroke-width:4; stroke-opacity:1; fill:none" points="
  156.598,685.208 175.496,685.208 
  "/>
<polyline clip-path="url(#clip560)" style="stroke:#000000; stroke-linecap:round; stroke-linejoin:round; stroke-width:4; stroke-opacity:1; fill:none" points="
  156.598,399.054 175.496,399.054 
  "/>
<polyline clip-path="url(#clip560)" style="stroke:#000000; stroke-linecap:round; stroke-linejoin:round; stroke-width:4; stroke-opacity:1; fill:none" points="
  156.598,112.899 175.496,112.899 
  "/>
<path clip-path="url(#clip560)" d="M63.4226 1243.32 Q59.8115 1243.32 57.9828 1246.88 Q56.1773 1250.42 56.1773 1257.55 Q56.1773 1264.66 57.9828 1268.22 Q59.8115 1271.76 63.4226 1271.76 Q67.0569 1271.76 68.8624 1268.22 Q70.6911 1264.66 70.6911 1257.55 Q70.6911 1250.42 68.8624 1246.88 Q67.0569 1243.32 63.4226 1243.32 M63.4226 1239.61 Q69.2328 1239.61 72.2883 1244.22 Q75.367 1248.8 75.367 1257.55 Q75.367 1266.28 72.2883 1270.89 Q69.2328 1275.47 63.4226 1275.47 Q57.6125 1275.47 54.5338 1270.89 Q51.4782 1266.28 51.4782 1257.55 Q51.4782 1248.8 54.5338 1244.22 Q57.6125 1239.61 63.4226 1239.61 Z" fill="#000000" fill-rule="evenodd" fill-opacity="1" /><path clip-path="url(#clip560)" d="M83.5845 1268.92 L88.4688 1268.92 L88.4688 1274.8 L83.5845 1274.8 L83.5845 1268.92 Z" fill="#000000" fill-rule="evenodd" fill-opacity="1" /><path clip-path="url(#clip560)" d="M108.654 1243.32 Q105.043 1243.32 103.214 1246.88 Q101.409 1250.42 101.409 1257.55 Q101.409 1264.66 103.214 1268.22 Q105.043 1271.76 108.654 1271.76 Q112.288 1271.76 114.094 1268.22 Q115.922 1264.66 115.922 1257.55 Q115.922 1250.42 114.094 1246.88 Q112.288 1243.32 108.654 1243.32 M108.654 1239.61 Q114.464 1239.61 117.52 1244.22 Q120.598 1248.8 120.598 1257.55 Q120.598 1266.28 117.52 1270.89 Q114.464 1275.47 108.654 1275.47 Q102.844 1275.47 99.765 1270.89 Q96.7095 1266.28 96.7095 1257.55 Q96.7095 1248.8 99.765 1244.22 Q102.844 1239.61 108.654 1239.61 Z" fill="#000000" fill-rule="evenodd" fill-opacity="1" /><path clip-path="url(#clip560)" d="M64.6495 957.161 Q61.0384 957.161 59.2097 960.726 Q57.4041 964.268 57.4041 971.397 Q57.4041 978.504 59.2097 982.069 Q61.0384 985.61 64.6495 985.61 Q68.2837 985.61 70.0892 982.069 Q71.9179 978.504 71.9179 971.397 Q71.9179 964.268 70.0892 960.726 Q68.2837 957.161 64.6495 957.161 M64.6495 953.458 Q70.4596 953.458 73.5152 958.064 Q76.5938 962.647 76.5938 971.397 Q76.5938 980.124 73.5152 984.731 Q70.4596 989.314 64.6495 989.314 Q58.8393 989.314 55.7606 984.731 Q52.7051 980.124 52.7051 971.397 Q52.7051 962.647 55.7606 958.064 Q58.8393 953.458 64.6495 953.458 Z" fill="#000000" fill-rule="evenodd" fill-opacity="1" /><path clip-path="url(#clip560)" d="M84.8114 982.763 L89.6956 982.763 L89.6956 988.643 L84.8114 988.643 L84.8114 982.763 Z" fill="#000000" fill-rule="evenodd" fill-opacity="1" /><path clip-path="url(#clip560)" d="M100.691 984.708 L108.33 984.708 L108.33 958.342 L100.02 960.009 L100.02 955.749 L108.283 954.083 L112.959 954.083 L112.959 984.708 L120.598 984.708 L120.598 988.643 L100.691 988.643 L100.691 984.708 Z" fill="#000000" fill-rule="evenodd" fill-opacity="1" /><path clip-path="url(#clip560)" d="M65.0198 671.007 Q61.4087 671.007 59.58 674.572 Q57.7745 678.113 57.7745 685.243 Q57.7745 692.349 59.58 695.914 Q61.4087 699.456 65.0198 699.456 Q68.6541 699.456 70.4596 695.914 Q72.2883 692.349 72.2883 685.243 Q72.2883 678.113 70.4596 674.572 Q68.6541 671.007 65.0198 671.007 M65.0198 667.303 Q70.83 667.303 73.8855 671.91 Q76.9642 676.493 76.9642 685.243 Q76.9642 693.97 73.8855 698.576 Q70.83 703.159 65.0198 703.159 Q59.2097 703.159 56.131 698.576 Q53.0754 693.97 53.0754 685.243 Q53.0754 676.493 56.131 671.91 Q59.2097 667.303 65.0198 667.303 Z" fill="#000000" fill-rule="evenodd" fill-opacity="1" /><path clip-path="url(#clip560)" d="M85.1818 696.609 L90.066 696.609 L90.066 702.488 L85.1818 702.488 L85.1818 696.609 Z" fill="#000000" fill-rule="evenodd" fill-opacity="1" /><path clip-path="url(#clip560)" d="M104.279 698.553 L120.598 698.553 L120.598 702.488 L98.6539 702.488 L98.6539 698.553 Q101.316 695.798 105.899 691.169 Q110.506 686.516 111.686 685.173 Q113.932 682.65 114.811 680.914 Q115.714 679.155 115.714 677.465 Q115.714 674.711 113.77 672.974 Q111.848 671.238 108.746 671.238 Q106.547 671.238 104.094 672.002 Q101.663 672.766 98.8854 674.317 L98.8854 669.595 Q101.709 668.461 104.163 667.882 Q106.617 667.303 108.654 667.303 Q114.024 667.303 117.219 669.988 Q120.413 672.674 120.413 677.164 Q120.413 679.294 119.603 681.215 Q118.816 683.113 116.709 685.706 Q116.131 686.377 113.029 689.595 Q109.927 692.789 104.279 698.553 Z" fill="#000000" fill-rule="evenodd" fill-opacity="1" /><path clip-path="url(#clip560)" d="M64.0708 384.852 Q60.4597 384.852 58.631 388.417 Q56.8254 391.959 56.8254 399.088 Q56.8254 406.195 58.631 409.76 Q60.4597 413.301 64.0708 413.301 Q67.705 413.301 69.5105 409.76 Q71.3392 406.195 71.3392 399.088 Q71.3392 391.959 69.5105 388.417 Q67.705 384.852 64.0708 384.852 M64.0708 381.149 Q69.8809 381.149 72.9365 385.755 Q76.0151 390.338 76.0151 399.088 Q76.0151 407.815 72.9365 412.422 Q69.8809 417.005 64.0708 417.005 Q58.2606 417.005 55.1819 412.422 Q52.1264 407.815 52.1264 399.088 Q52.1264 390.338 55.1819 385.755 Q58.2606 381.149 64.0708 381.149 Z" fill="#000000" fill-rule="evenodd" fill-opacity="1" /><path clip-path="url(#clip560)" d="M84.2327 410.454 L89.1169 410.454 L89.1169 416.334 L84.2327 416.334 L84.2327 410.454 Z" fill="#000000" fill-rule="evenodd" fill-opacity="1" /><path clip-path="url(#clip560)" d="M113.469 397.699 Q116.825 398.417 118.7 400.686 Q120.598 402.954 120.598 406.287 Q120.598 411.403 117.08 414.204 Q113.561 417.005 107.08 417.005 Q104.904 417.005 102.589 416.565 Q100.297 416.148 97.8437 415.292 L97.8437 410.778 Q99.7882 411.912 102.103 412.491 Q104.418 413.07 106.941 413.07 Q111.339 413.07 113.631 411.334 Q115.945 409.598 115.945 406.287 Q115.945 403.232 113.793 401.519 Q111.663 399.783 107.844 399.783 L103.816 399.783 L103.816 395.94 L108.029 395.94 Q111.478 395.94 113.307 394.574 Q115.135 393.186 115.135 390.593 Q115.135 387.931 113.237 386.519 Q111.362 385.084 107.844 385.084 Q105.922 385.084 103.723 385.5 Q101.524 385.917 98.8854 386.797 L98.8854 382.63 Q101.547 381.889 103.862 381.519 Q106.2 381.149 108.26 381.149 Q113.584 381.149 116.686 383.579 Q119.788 385.987 119.788 390.107 Q119.788 392.977 118.145 394.968 Q116.501 396.936 113.469 397.699 Z" fill="#000000" fill-rule="evenodd" fill-opacity="1" /><path clip-path="url(#clip560)" d="M62.9365 98.6978 Q59.3254 98.6978 57.4967 102.263 Q55.6912 105.804 55.6912 112.934 Q55.6912 120.04 57.4967 123.605 Q59.3254 127.147 62.9365 127.147 Q66.5707 127.147 68.3763 123.605 Q70.205 120.04 70.205 112.934 Q70.205 105.804 68.3763 102.263 Q66.5707 98.6978 62.9365 98.6978 M62.9365 94.9941 Q68.7467 94.9941 71.8022 99.6006 Q74.8809 104.184 74.8809 112.934 Q74.8809 121.661 71.8022 126.267 Q68.7467 130.85 62.9365 130.85 Q57.1264 130.85 54.0477 126.267 Q50.9921 121.661 50.9921 112.934 Q50.9921 104.184 54.0477 99.6006 Q57.1264 94.9941 62.9365 94.9941 Z" fill="#000000" fill-rule="evenodd" fill-opacity="1" /><path clip-path="url(#clip560)" d="M83.0984 124.3 L87.9827 124.3 L87.9827 130.179 L83.0984 130.179 L83.0984 124.3 Z" fill="#000000" fill-rule="evenodd" fill-opacity="1" /><path clip-path="url(#clip560)" d="M111.015 99.6932 L99.2095 118.142 L111.015 118.142 L111.015 99.6932 M109.788 95.6191 L115.668 95.6191 L115.668 118.142 L120.598 118.142 L120.598 122.031 L115.668 122.031 L115.668 130.179 L111.015 130.179 L111.015 122.031 L95.4132 122.031 L95.4132 117.517 L109.788 95.6191 Z" fill="#000000" fill-rule="evenodd" fill-opacity="1" /><path clip-path="url(#clip562)" d="
M211.389 1254.12 L211.389 1257.52 L234.72 1257.52 L234.72 1254.12 L211.389 1254.12 L211.389 1254.12  Z
  " fill="#009af9" fill-rule="evenodd" fill-opacity="1"/>
<polyline clip-path="url(#clip562)" style="stroke:#000000; stroke-linecap:round; stroke-linejoin:round; stroke-width:4; stroke-opacity:1; fill:none" points="
  211.389,1254.12 211.389,1257.52 234.72,1257.52 234.72,1254.12 211.389,1254.12 
  "/>
<path clip-path="url(#clip562)" d="
M234.72 1255.82 L234.72 1257.52 L258.051 1257.52 L258.051 1255.82 L234.72 1255.82 L234.72 1255.82  Z
  " fill="#009af9" fill-rule="evenodd" fill-opacity="1"/>
<polyline clip-path="url(#clip562)" style="stroke:#000000; stroke-linecap:round; stroke-linejoin:round; stroke-width:4; stroke-opacity:1; fill:none" points="
  234.72,1255.82 234.72,1257.52 258.051,1257.52 258.051,1255.82 234.72,1255.82 
  "/>
<path clip-path="url(#clip562)" d="
M258.051 1250.72 L258.051 1257.52 L281.382 1257.52 L281.382 1250.72 L258.051 1250.72 L258.051 1250.72  Z
  " fill="#009af9" fill-rule="evenodd" fill-opacity="1"/>
<polyline clip-path="url(#clip562)" style="stroke:#000000; stroke-linecap:round; stroke-linejoin:round; stroke-width:4; stroke-opacity:1; fill:none" points="
  258.051,1250.72 258.051,1257.52 281.382,1257.52 281.382,1250.72 258.051,1250.72 
  "/>
<path clip-path="url(#clip562)" d="
M281.382 1247.31 L281.382 1257.52 L304.713 1257.52 L304.713 1247.31 L281.382 1247.31 L281.382 1247.31  Z
  " fill="#009af9" fill-rule="evenodd" fill-opacity="1"/>
<polyline clip-path="url(#clip562)" style="stroke:#000000; stroke-linecap:round; stroke-linejoin:round; stroke-width:4; stroke-opacity:1; fill:none" points="
  281.382,1247.31 281.382,1257.52 304.713,1257.52 304.713,1247.31 281.382,1247.31 
  "/>
<path clip-path="url(#clip562)" d="
M304.713 1235.41 L304.713 1257.52 L328.044 1257.52 L328.044 1235.41 L304.713 1235.41 L304.713 1235.41  Z
  " fill="#009af9" fill-rule="evenodd" fill-opacity="1"/>
<polyline clip-path="url(#clip562)" style="stroke:#000000; stroke-linecap:round; stroke-linejoin:round; stroke-width:4; stroke-opacity:1; fill:none" points="
  304.713,1235.41 304.713,1257.52 328.044,1257.52 328.044,1235.41 304.713,1235.41 
  "/>
<path clip-path="url(#clip562)" d="
M328.044 1230.31 L328.044 1257.52 L351.374 1257.52 L351.374 1230.31 L328.044 1230.31 L328.044 1230.31  Z
  " fill="#009af9" fill-rule="evenodd" fill-opacity="1"/>
<polyline clip-path="url(#clip562)" style="stroke:#000000; stroke-linecap:round; stroke-linejoin:round; stroke-width:4; stroke-opacity:1; fill:none" points="
  328.044,1230.31 328.044,1257.52 351.374,1257.52 351.374,1230.31 328.044,1230.31 
  "/>
<path clip-path="url(#clip562)" d="
M351.374 1191.2 L351.374 1257.52 L374.705 1257.52 L374.705 1191.2 L351.374 1191.2 L351.374 1191.2  Z
  " fill="#009af9" fill-rule="evenodd" fill-opacity="1"/>
<polyline clip-path="url(#clip562)" style="stroke:#000000; stroke-linecap:round; stroke-linejoin:round; stroke-width:4; stroke-opacity:1; fill:none" points="
  351.374,1191.2 351.374,1257.52 374.705,1257.52 374.705,1191.2 351.374,1191.2 
  "/>
<path clip-path="url(#clip562)" d="
M374.705 1179.3 L374.705 1257.52 L398.036 1257.52 L398.036 1179.3 L374.705 1179.3 L374.705 1179.3  Z
  " fill="#009af9" fill-rule="evenodd" fill-opacity="1"/>
<polyline clip-path="url(#clip562)" style="stroke:#000000; stroke-linecap:round; stroke-linejoin:round; stroke-width:4; stroke-opacity:1; fill:none" points="
  374.705,1179.3 374.705,1257.52 398.036,1257.52 398.036,1179.3 374.705,1179.3 
  "/>
<path clip-path="url(#clip562)" d="
M398.036 1123.18 L398.036 1257.52 L421.367 1257.52 L421.367 1123.18 L398.036 1123.18 L398.036 1123.18  Z
  " fill="#009af9" fill-rule="evenodd" fill-opacity="1"/>
<polyline clip-path="url(#clip562)" style="stroke:#000000; stroke-linecap:round; stroke-linejoin:round; stroke-width:4; stroke-opacity:1; fill:none" points="
  398.036,1123.18 398.036,1257.52 421.367,1257.52 421.367,1123.18 398.036,1123.18 
  "/>
<path clip-path="url(#clip562)" d="
M421.367 1089.17 L421.367 1257.52 L444.698 1257.52 L444.698 1089.17 L421.367 1089.17 L421.367 1089.17  Z
  " fill="#009af9" fill-rule="evenodd" fill-opacity="1"/>
<polyline clip-path="url(#clip562)" style="stroke:#000000; stroke-linecap:round; stroke-linejoin:round; stroke-width:4; stroke-opacity:1; fill:none" points="
  421.367,1089.17 421.367,1257.52 444.698,1257.52 444.698,1089.17 421.367,1089.17 
  "/>
<path clip-path="url(#clip562)" d="
M444.698 993.945 L444.698 1257.52 L468.029 1257.52 L468.029 993.945 L444.698 993.945 L444.698 993.945  Z
  " fill="#009af9" fill-rule="evenodd" fill-opacity="1"/>
<polyline clip-path="url(#clip562)" style="stroke:#000000; stroke-linecap:round; stroke-linejoin:round; stroke-width:4; stroke-opacity:1; fill:none" points="
  444.698,993.945 444.698,1257.52 468.029,1257.52 468.029,993.945 444.698,993.945 
  "/>
<path clip-path="url(#clip562)" d="
M468.029 900.419 L468.029 1257.52 L491.36 1257.52 L491.36 900.419 L468.029 900.419 L468.029 900.419  Z
  " fill="#009af9" fill-rule="evenodd" fill-opacity="1"/>
<polyline clip-path="url(#clip562)" style="stroke:#000000; stroke-linecap:round; stroke-linejoin:round; stroke-width:4; stroke-opacity:1; fill:none" points="
  468.029,900.419 468.029,1257.52 491.36,1257.52 491.36,900.419 468.029,900.419 
  "/>
<path clip-path="url(#clip562)" d="
M491.36 762.681 L491.36 1257.52 L514.691 1257.52 L514.691 762.681 L491.36 762.681 L491.36 762.681  Z
  " fill="#009af9" fill-rule="evenodd" fill-opacity="1"/>
<polyline clip-path="url(#clip562)" style="stroke:#000000; stroke-linecap:round; stroke-linejoin:round; stroke-width:4; stroke-opacity:1; fill:none" points="
  491.36,762.681 491.36,1257.52 514.691,1257.52 514.691,762.681 491.36,762.681 
  "/>
<path clip-path="url(#clip562)" d="
M514.691 590.934 L514.691 1257.52 L538.022 1257.52 L538.022 590.934 L514.691 590.934 L514.691 590.934  Z
  " fill="#009af9" fill-rule="evenodd" fill-opacity="1"/>
<polyline clip-path="url(#clip562)" style="stroke:#000000; stroke-linecap:round; stroke-linejoin:round; stroke-width:4; stroke-opacity:1; fill:none" points="
  514.691,590.934 514.691,1257.52 538.022,1257.52 538.022,590.934 514.691,590.934 
  "/>
<path clip-path="url(#clip562)" d="
M538.022 529.717 L538.022 1257.52 L561.353 1257.52 L561.353 529.717 L538.022 529.717 L538.022 529.717  Z
  " fill="#009af9" fill-rule="evenodd" fill-opacity="1"/>
<polyline clip-path="url(#clip562)" style="stroke:#000000; stroke-linecap:round; stroke-linejoin:round; stroke-width:4; stroke-opacity:1; fill:none" points="
  538.022,529.717 538.022,1257.52 561.353,1257.52 561.353,529.717 538.022,529.717 
  "/>
<path clip-path="url(#clip562)" d="
M561.353 349.468 L561.353 1257.52 L584.684 1257.52 L584.684 349.468 L561.353 349.468 L561.353 349.468  Z
  " fill="#009af9" fill-rule="evenodd" fill-opacity="1"/>
<polyline clip-path="url(#clip562)" style="stroke:#000000; stroke-linecap:round; stroke-linejoin:round; stroke-width:4; stroke-opacity:1; fill:none" points="
  561.353,349.468 561.353,1257.52 584.684,1257.52 584.684,349.468 561.353,349.468 
  "/>
<path clip-path="url(#clip562)" d="
M584.684 303.555 L584.684 1257.52 L608.015 1257.52 L608.015 303.555 L584.684 303.555 L584.684 303.555  Z
  " fill="#009af9" fill-rule="evenodd" fill-opacity="1"/>
<polyline clip-path="url(#clip562)" style="stroke:#000000; stroke-linecap:round; stroke-linejoin:round; stroke-width:4; stroke-opacity:1; fill:none" points="
  584.684,303.555 584.684,1257.52 608.015,1257.52 608.015,303.555 584.684,303.555 
  "/>
<path clip-path="url(#clip562)" d="
M608.015 167.518 L608.015 1257.52 L631.346 1257.52 L631.346 167.518 L608.015 167.518 L608.015 167.518  Z
  " fill="#009af9" fill-rule="evenodd" fill-opacity="1"/>
<polyline clip-path="url(#clip562)" style="stroke:#000000; stroke-linecap:round; stroke-linejoin:round; stroke-width:4; stroke-opacity:1; fill:none" points="
  608.015,167.518 608.015,1257.52 631.346,1257.52 631.346,167.518 608.015,167.518 
  "/>
<path clip-path="url(#clip562)" d="
M631.346 145.412 L631.346 1257.52 L654.677 1257.52 L654.677 145.412 L631.346 145.412 L631.346 145.412  Z
  " fill="#009af9" fill-rule="evenodd" fill-opacity="1"/>
<polyline clip-path="url(#clip562)" style="stroke:#000000; stroke-linecap:round; stroke-linejoin:round; stroke-width:4; stroke-opacity:1; fill:none" points="
  631.346,145.412 631.346,1257.52 654.677,1257.52 654.677,145.412 631.346,145.412 
  "/>
<path clip-path="url(#clip562)" d="
M654.677 82.4948 L654.677 1257.52 L678.008 1257.52 L678.008 82.4948 L654.677 82.4948 L654.677 82.4948  Z
  " fill="#009af9" fill-rule="evenodd" fill-opacity="1"/>
<polyline clip-path="url(#clip562)" style="stroke:#000000; stroke-linecap:round; stroke-linejoin:round; stroke-width:4; stroke-opacity:1; fill:none" points="
  654.677,82.4948 654.677,1257.52 678.008,1257.52 678.008,82.4948 654.677,82.4948 
  "/>
<path clip-path="url(#clip562)" d="
M678.008 106.301 L678.008 1257.52 L701.339 1257.52 L701.339 106.301 L678.008 106.301 L678.008 106.301  Z
  " fill="#009af9" fill-rule="evenodd" fill-opacity="1"/>
<polyline clip-path="url(#clip562)" style="stroke:#000000; stroke-linecap:round; stroke-linejoin:round; stroke-width:4; stroke-opacity:1; fill:none" points="
  678.008,106.301 678.008,1257.52 701.339,1257.52 701.339,106.301 678.008,106.301 
  "/>
<path clip-path="url(#clip562)" d="
M701.339 235.537 L701.339 1257.52 L724.67 1257.52 L724.67 235.537 L701.339 235.537 L701.339 235.537  Z
  " fill="#009af9" fill-rule="evenodd" fill-opacity="1"/>
<polyline clip-path="url(#clip562)" style="stroke:#000000; stroke-linecap:round; stroke-linejoin:round; stroke-width:4; stroke-opacity:1; fill:none" points="
  701.339,235.537 701.339,1257.52 724.67,1257.52 724.67,235.537 701.339,235.537 
  "/>
<path clip-path="url(#clip562)" d="
M724.67 380.076 L724.67 1257.52 L748.001 1257.52 L748.001 380.076 L724.67 380.076 L724.67 380.076  Z
  " fill="#009af9" fill-rule="evenodd" fill-opacity="1"/>
<polyline clip-path="url(#clip562)" style="stroke:#000000; stroke-linecap:round; stroke-linejoin:round; stroke-width:4; stroke-opacity:1; fill:none" points="
  724.67,380.076 724.67,1257.52 748.001,1257.52 748.001,380.076 724.67,380.076 
  "/>
<path clip-path="url(#clip562)" d="
M748.001 526.317 L748.001 1257.52 L771.332 1257.52 L771.332 526.317 L748.001 526.317 L748.001 526.317  Z
  " fill="#009af9" fill-rule="evenodd" fill-opacity="1"/>
<polyline clip-path="url(#clip562)" style="stroke:#000000; stroke-linecap:round; stroke-linejoin:round; stroke-width:4; stroke-opacity:1; fill:none" points="
  748.001,526.317 748.001,1257.52 771.332,1257.52 771.332,526.317 748.001,526.317 
  "/>
<path clip-path="url(#clip562)" d="
M771.332 643.649 L771.332 1257.52 L794.663 1257.52 L794.663 643.649 L771.332 643.649 L771.332 643.649  Z
  " fill="#009af9" fill-rule="evenodd" fill-opacity="1"/>
<polyline clip-path="url(#clip562)" style="stroke:#000000; stroke-linecap:round; stroke-linejoin:round; stroke-width:4; stroke-opacity:1; fill:none" points="
  771.332,643.649 771.332,1257.52 794.663,1257.52 794.663,643.649 771.332,643.649 
  "/>
<path clip-path="url(#clip562)" d="
M794.663 764.382 L794.663 1257.52 L817.994 1257.52 L817.994 764.382 L794.663 764.382 L794.663 764.382  Z
  " fill="#009af9" fill-rule="evenodd" fill-opacity="1"/>
<polyline clip-path="url(#clip562)" style="stroke:#000000; stroke-linecap:round; stroke-linejoin:round; stroke-width:4; stroke-opacity:1; fill:none" points="
  794.663,764.382 794.663,1257.52 817.994,1257.52 817.994,764.382 794.663,764.382 
  "/>
<path clip-path="url(#clip562)" d="
M817.994 900.419 L817.994 1257.52 L841.325 1257.52 L841.325 900.419 L817.994 900.419 L817.994 900.419  Z
  " fill="#009af9" fill-rule="evenodd" fill-opacity="1"/>
<polyline clip-path="url(#clip562)" style="stroke:#000000; stroke-linecap:round; stroke-linejoin:round; stroke-width:4; stroke-opacity:1; fill:none" points="
  817.994,900.419 817.994,1257.52 841.325,1257.52 841.325,900.419 817.994,900.419 
  "/>
<path clip-path="url(#clip562)" d="
M841.325 1010.95 L841.325 1257.52 L864.656 1257.52 L864.656 1010.95 L841.325 1010.95 L841.325 1010.95  Z
  " fill="#009af9" fill-rule="evenodd" fill-opacity="1"/>
<polyline clip-path="url(#clip562)" style="stroke:#000000; stroke-linecap:round; stroke-linejoin:round; stroke-width:4; stroke-opacity:1; fill:none" points="
  841.325,1010.95 841.325,1257.52 864.656,1257.52 864.656,1010.95 841.325,1010.95 
  "/>
<path clip-path="url(#clip562)" d="
M864.656 1085.77 L864.656 1257.52 L887.987 1257.52 L887.987 1085.77 L864.656 1085.77 L864.656 1085.77  Z
  " fill="#009af9" fill-rule="evenodd" fill-opacity="1"/>
<polyline clip-path="url(#clip562)" style="stroke:#000000; stroke-linecap:round; stroke-linejoin:round; stroke-width:4; stroke-opacity:1; fill:none" points="
  864.656,1085.77 864.656,1257.52 887.987,1257.52 887.987,1085.77 864.656,1085.77 
  "/>
<path clip-path="url(#clip562)" d="
M887.987 1119.78 L887.987 1257.52 L911.318 1257.52 L911.318 1119.78 L887.987 1119.78 L887.987 1119.78  Z
  " fill="#009af9" fill-rule="evenodd" fill-opacity="1"/>
<polyline clip-path="url(#clip562)" style="stroke:#000000; stroke-linecap:round; stroke-linejoin:round; stroke-width:4; stroke-opacity:1; fill:none" points="
  887.987,1119.78 887.987,1257.52 911.318,1257.52 911.318,1119.78 887.987,1119.78 
  "/>
<path clip-path="url(#clip562)" d="
M911.318 1177.6 L911.318 1257.52 L934.649 1257.52 L934.649 1177.6 L911.318 1177.6 L911.318 1177.6  Z
  " fill="#009af9" fill-rule="evenodd" fill-opacity="1"/>
<polyline clip-path="url(#clip562)" style="stroke:#000000; stroke-linecap:round; stroke-linejoin:round; stroke-width:4; stroke-opacity:1; fill:none" points="
  911.318,1177.6 911.318,1257.52 934.649,1257.52 934.649,1177.6 911.318,1177.6 
  "/>
<path clip-path="url(#clip562)" d="
M934.649 1182.7 L934.649 1257.52 L957.98 1257.52 L957.98 1182.7 L934.649 1182.7 L934.649 1182.7  Z
  " fill="#009af9" fill-rule="evenodd" fill-opacity="1"/>
<polyline clip-path="url(#clip562)" style="stroke:#000000; stroke-linecap:round; stroke-linejoin:round; stroke-width:4; stroke-opacity:1; fill:none" points="
  934.649,1182.7 934.649,1257.52 957.98,1257.52 957.98,1182.7 934.649,1182.7 
  "/>
<path clip-path="url(#clip562)" d="
M957.98 1213.31 L957.98 1257.52 L981.311 1257.52 L981.311 1213.31 L957.98 1213.31 L957.98 1213.31  Z
  " fill="#009af9" fill-rule="evenodd" fill-opacity="1"/>
<polyline clip-path="url(#clip562)" style="stroke:#000000; stroke-linecap:round; stroke-linejoin:round; stroke-width:4; stroke-opacity:1; fill:none" points="
  957.98,1213.31 957.98,1257.52 981.311,1257.52 981.311,1213.31 957.98,1213.31 
  "/>
<path clip-path="url(#clip562)" d="
M981.311 1238.81 L981.311 1257.52 L1004.64 1257.52 L1004.64 1238.81 L981.311 1238.81 L981.311 1238.81  Z
  " fill="#009af9" fill-rule="evenodd" fill-opacity="1"/>
<polyline clip-path="url(#clip562)" style="stroke:#000000; stroke-linecap:round; stroke-linejoin:round; stroke-width:4; stroke-opacity:1; fill:none" points="
  981.311,1238.81 981.311,1257.52 1004.64,1257.52 1004.64,1238.81 981.311,1238.81 
  "/>
<path clip-path="url(#clip562)" d="
M1004.64 1247.31 L1004.64 1257.52 L1027.97 1257.52 L1027.97 1247.31 L1004.64 1247.31 L1004.64 1247.31  Z
  " fill="#009af9" fill-rule="evenodd" fill-opacity="1"/>
<polyline clip-path="url(#clip562)" style="stroke:#000000; stroke-linecap:round; stroke-linejoin:round; stroke-width:4; stroke-opacity:1; fill:none" points="
  1004.64,1247.31 1004.64,1257.52 1027.97,1257.52 1027.97,1247.31 1004.64,1247.31 
  "/>
<path clip-path="url(#clip562)" d="
M1027.97 1254.12 L1027.97 1257.52 L1051.3 1257.52 L1051.3 1254.12 L1027.97 1254.12 L1027.97 1254.12  Z
  " fill="#009af9" fill-rule="evenodd" fill-opacity="1"/>
<polyline clip-path="url(#clip562)" style="stroke:#000000; stroke-linecap:round; stroke-linejoin:round; stroke-width:4; stroke-opacity:1; fill:none" points="
  1027.97,1254.12 1027.97,1257.52 1051.3,1257.52 1051.3,1254.12 1027.97,1254.12 
  "/>
<path clip-path="url(#clip562)" d="
M1051.3 1254.12 L1051.3 1257.52 L1074.63 1257.52 L1074.63 1254.12 L1051.3 1254.12 L1051.3 1254.12  Z
  " fill="#009af9" fill-rule="evenodd" fill-opacity="1"/>
<polyline clip-path="url(#clip562)" style="stroke:#000000; stroke-linecap:round; stroke-linejoin:round; stroke-width:4; stroke-opacity:1; fill:none" points="
  1051.3,1254.12 1051.3,1257.52 1074.63,1257.52 1074.63,1254.12 1051.3,1254.12 
  "/>
<path clip-path="url(#clip562)" d="
M1074.63 1254.12 L1074.63 1257.52 L1097.97 1257.52 L1097.97 1254.12 L1074.63 1254.12 L1074.63 1254.12  Z
  " fill="#009af9" fill-rule="evenodd" fill-opacity="1"/>
<polyline clip-path="url(#clip562)" style="stroke:#000000; stroke-linecap:round; stroke-linejoin:round; stroke-width:4; stroke-opacity:1; fill:none" points="
  1074.63,1254.12 1074.63,1257.52 1097.97,1257.52 1097.97,1254.12 1074.63,1254.12 
  "/>
<circle clip-path="url(#clip562)" style="fill:#009af9; stroke:none; fill-opacity:0" cx="223.054" cy="1254.12" r="2"/>
<circle clip-path="url(#clip562)" style="fill:#009af9; stroke:none; fill-opacity:0" cx="246.385" cy="1255.82" r="2"/>
<circle clip-path="url(#clip562)" style="fill:#009af9; stroke:none; fill-opacity:0" cx="269.716" cy="1250.72" r="2"/>
<circle clip-path="url(#clip562)" style="fill:#009af9; stroke:none; fill-opacity:0" cx="293.047" cy="1247.31" r="2"/>
<circle clip-path="url(#clip562)" style="fill:#009af9; stroke:none; fill-opacity:0" cx="316.378" cy="1235.41" r="2"/>
<circle clip-path="url(#clip562)" style="fill:#009af9; stroke:none; fill-opacity:0" cx="339.709" cy="1230.31" r="2"/>
<circle clip-path="url(#clip562)" style="fill:#009af9; stroke:none; fill-opacity:0" cx="363.04" cy="1191.2" r="2"/>
<circle clip-path="url(#clip562)" style="fill:#009af9; stroke:none; fill-opacity:0" cx="386.371" cy="1179.3" r="2"/>
<circle clip-path="url(#clip562)" style="fill:#009af9; stroke:none; fill-opacity:0" cx="409.702" cy="1123.18" r="2"/>
<circle clip-path="url(#clip562)" style="fill:#009af9; stroke:none; fill-opacity:0" cx="433.033" cy="1089.17" r="2"/>
<circle clip-path="url(#clip562)" style="fill:#009af9; stroke:none; fill-opacity:0" cx="456.364" cy="993.945" r="2"/>
<circle clip-path="url(#clip562)" style="fill:#009af9; stroke:none; fill-opacity:0" cx="479.695" cy="900.419" r="2"/>
<circle clip-path="url(#clip562)" style="fill:#009af9; stroke:none; fill-opacity:0" cx="503.026" cy="762.681" r="2"/>
<circle clip-path="url(#clip562)" style="fill:#009af9; stroke:none; fill-opacity:0" cx="526.357" cy="590.934" r="2"/>
<circle clip-path="url(#clip562)" style="fill:#009af9; stroke:none; fill-opacity:0" cx="549.688" cy="529.717" r="2"/>
<circle clip-path="url(#clip562)" style="fill:#009af9; stroke:none; fill-opacity:0" cx="573.019" cy="349.468" r="2"/>
<circle clip-path="url(#clip562)" style="fill:#009af9; stroke:none; fill-opacity:0" cx="596.35" cy="303.555" r="2"/>
<circle clip-path="url(#clip562)" style="fill:#009af9; stroke:none; fill-opacity:0" cx="619.681" cy="167.518" r="2"/>
<circle clip-path="url(#clip562)" style="fill:#009af9; stroke:none; fill-opacity:0" cx="643.012" cy="145.412" r="2"/>
<circle clip-path="url(#clip562)" style="fill:#009af9; stroke:none; fill-opacity:0" cx="666.343" cy="82.4948" r="2"/>
<circle clip-path="url(#clip562)" style="fill:#009af9; stroke:none; fill-opacity:0" cx="689.674" cy="106.301" r="2"/>
<circle clip-path="url(#clip562)" style="fill:#009af9; stroke:none; fill-opacity:0" cx="713.004" cy="235.537" r="2"/>
<circle clip-path="url(#clip562)" style="fill:#009af9; stroke:none; fill-opacity:0" cx="736.335" cy="380.076" r="2"/>
<circle clip-path="url(#clip562)" style="fill:#009af9; stroke:none; fill-opacity:0" cx="759.666" cy="526.317" r="2"/>
<circle clip-path="url(#clip562)" style="fill:#009af9; stroke:none; fill-opacity:0" cx="782.997" cy="643.649" r="2"/>
<circle clip-path="url(#clip562)" style="fill:#009af9; stroke:none; fill-opacity:0" cx="806.328" cy="764.382" r="2"/>
<circle clip-path="url(#clip562)" style="fill:#009af9; stroke:none; fill-opacity:0" cx="829.659" cy="900.419" r="2"/>
<circle clip-path="url(#clip562)" style="fill:#009af9; stroke:none; fill-opacity:0" cx="852.99" cy="1010.95" r="2"/>
<circle clip-path="url(#clip562)" style="fill:#009af9; stroke:none; fill-opacity:0" cx="876.321" cy="1085.77" r="2"/>
<circle clip-path="url(#clip562)" style="fill:#009af9; stroke:none; fill-opacity:0" cx="899.652" cy="1119.78" r="2"/>
<circle clip-path="url(#clip562)" style="fill:#009af9; stroke:none; fill-opacity:0" cx="922.983" cy="1177.6" r="2"/>
<circle clip-path="url(#clip562)" style="fill:#009af9; stroke:none; fill-opacity:0" cx="946.314" cy="1182.7" r="2"/>
<circle clip-path="url(#clip562)" style="fill:#009af9; stroke:none; fill-opacity:0" cx="969.645" cy="1213.31" r="2"/>
<circle clip-path="url(#clip562)" style="fill:#009af9; stroke:none; fill-opacity:0" cx="992.976" cy="1238.81" r="2"/>
<circle clip-path="url(#clip562)" style="fill:#009af9; stroke:none; fill-opacity:0" cx="1016.31" cy="1247.31" r="2"/>
<circle clip-path="url(#clip562)" style="fill:#009af9; stroke:none; fill-opacity:0" cx="1039.64" cy="1254.12" r="2"/>
<circle clip-path="url(#clip562)" style="fill:#009af9; stroke:none; fill-opacity:0" cx="1062.97" cy="1254.12" r="2"/>
<circle clip-path="url(#clip562)" style="fill:#009af9; stroke:none; fill-opacity:0" cx="1086.3" cy="1254.12" r="2"/>
<polyline clip-path="url(#clip562)" style="stroke:#e26f46; stroke-linecap:round; stroke-linejoin:round; stroke-width:12; stroke-opacity:1; fill:none" points="
  184.791,1257.17 187.851,1257.14 190.91,1257.1 219.197,1256.44 247.483,1254.94 264.483,1253.27 281.482,1250.68 295.855,1247.45 310.227,1242.92 325.84,1236.04 
  341.453,1226.47 348.649,1220.95 355.846,1214.61 363.043,1207.36 370.24,1199.1 377.955,1189.03 385.671,1177.57 393.387,1164.6 401.102,1150 410.042,1130.88 
  418.981,1109.24 427.92,1084.92 436.86,1057.79 444.804,1031.23 452.748,1002.33 460.693,971.065 468.637,937.461 475.603,906.108 482.57,873.057 489.536,838.395 
  496.502,802.234 504.098,761.266 511.693,718.9 519.288,675.389 526.883,631.026 542.164,540.532 557.445,450.927 565.892,402.988 574.34,356.934 578.564,334.801 
  582.787,313.362 587.011,292.691 591.235,272.859 595.254,254.833 599.272,237.687 603.291,221.478 607.31,206.26 611.329,192.084 615.347,178.998 619.366,167.045 
  623.385,156.268 627.563,146.349 631.742,137.778 635.921,130.587 640.099,124.805 644.278,120.453 648.456,117.548 652.635,116.101 656.813,116.117 660.331,117.266 
  663.848,119.448 667.366,122.659 670.883,126.889 674.401,132.127 677.918,138.359 681.436,145.568 684.953,153.734 689.248,164.97 693.542,177.557 697.837,191.444 
  702.131,206.578 706.425,222.9 710.72,240.348 715.014,258.856 719.309,278.355 727.177,316.412 735.045,357.095 742.913,399.93 750.78,444.434 765.314,529.418 
  779.847,615.561 787.208,658.78 794.569,701.308 801.93,742.868 809.291,783.215 817.54,826.729 825.79,868.203 834.039,907.439 842.289,944.291 849.764,975.544 
  857.239,1004.72 864.715,1031.8 872.19,1056.81 880.749,1082.94 889.308,1106.49 897.867,1127.56 906.425,1146.29 914.35,1161.68 922.275,1175.32 930.199,1187.34 
  938.124,1197.88 945.937,1206.95 953.75,1214.83 961.563,1221.65 969.375,1227.51 984.547,1236.57 999.718,1243.14 1015.27,1247.91 1030.82,1251.21 1047.86,1253.62 
  1064.9,1255.16 1089.65,1256.42 1114.41,1257.03 1119.48,1257.11 1124.56,1257.17 
  "/>
<path clip-path="url(#clip560)" d="
M860.167 192.442 L1119.55 192.442 L1119.55 88.7616 L860.167 88.7616  Z
  " fill="#ffffff" fill-rule="evenodd" fill-opacity="1"/>
<polyline clip-path="url(#clip560)" style="stroke:#000000; stroke-linecap:round; stroke-linejoin:round; stroke-width:4; stroke-opacity:1; fill:none" points="
  860.167,192.442 1119.55,192.442 1119.55,88.7616 860.167,88.7616 860.167,192.442 
  "/>
<path clip-path="url(#clip560)" d="
M871.236 161.338 L937.646 161.338 L937.646 119.866 L871.236 119.866 L871.236 161.338  Z
  " fill="#009af9" fill-rule="evenodd" fill-opacity="1"/>
<polyline clip-path="url(#clip560)" style="stroke:#000000; stroke-linecap:round; stroke-linejoin:round; stroke-width:4; stroke-opacity:1; fill:none" points="
  871.236,161.338 937.646,161.338 937.646,119.866 871.236,119.866 871.236,161.338 
  "/>
<path clip-path="url(#clip560)" d="M948.715 123.322 L953.39 123.322 L953.39 137.488 L970.381 137.488 L970.381 123.322 L975.057 123.322 L975.057 157.882 L970.381 157.882 L970.381 141.423 L953.39 141.423 L953.39 157.882 L948.715 157.882 L948.715 123.322 Z" fill="#000000" fill-rule="evenodd" fill-opacity="1" /><path clip-path="url(#clip560)" d="M995.96 144.849 Q990.798 144.849 988.807 146.03 Q986.816 147.21 986.816 150.058 Q986.816 152.326 988.298 153.669 Q989.802 154.988 992.372 154.988 Q995.913 154.988 998.043 152.488 Q1000.2 149.965 1000.2 145.798 L1000.2 144.849 L995.96 144.849 M1004.46 143.09 L1004.46 157.882 L1000.2 157.882 L1000.2 153.946 Q998.737 156.307 996.562 157.442 Q994.386 158.553 991.237 158.553 Q987.256 158.553 984.895 156.331 Q982.557 154.085 982.557 150.335 Q982.557 145.96 985.474 143.738 Q988.413 141.516 994.224 141.516 L1000.2 141.516 L1000.2 141.099 Q1000.2 138.159 998.251 136.562 Q996.33 134.942 992.835 134.942 Q990.612 134.942 988.506 135.474 Q986.4 136.007 984.455 137.071 L984.455 133.136 Q986.793 132.234 988.992 131.794 Q991.191 131.331 993.275 131.331 Q998.899 131.331 1001.68 134.247 Q1004.46 137.164 1004.46 143.09 Z" fill="#000000" fill-rule="evenodd" fill-opacity="1" /><path clip-path="url(#clip560)" d="M1029.8 141.678 Q1031.31 142.187 1032.72 143.854 Q1034.15 145.521 1035.59 148.437 L1040.33 157.882 L1035.31 157.882 L1030.89 149.016 Q1029.18 145.544 1027.56 144.409 Q1025.96 143.275 1023.18 143.275 L1018.09 143.275 L1018.09 157.882 L1013.41 157.882 L1013.41 123.322 L1023.97 123.322 Q1029.89 123.322 1032.81 125.798 Q1035.73 128.275 1035.73 133.275 Q1035.73 136.539 1034.2 138.692 Q1032.7 140.845 1029.8 141.678 M1018.09 127.164 L1018.09 139.433 L1023.97 139.433 Q1027.35 139.433 1029.06 137.882 Q1030.8 136.308 1030.8 133.275 Q1030.8 130.243 1029.06 128.715 Q1027.35 127.164 1023.97 127.164 L1018.09 127.164 Z" fill="#000000" fill-rule="evenodd" fill-opacity="1" /><path clip-path="url(#clip560)" d="M1055.98 127.928 L1049.64 145.127 L1062.35 145.127 L1055.98 127.928 M1053.34 123.322 L1058.64 123.322 L1071.82 157.882 L1066.95 157.882 L1063.81 149.016 L1048.23 149.016 L1045.08 157.882 L1040.15 157.882 L1053.34 123.322 Z" fill="#000000" fill-rule="evenodd" fill-opacity="1" /><path clip-path="url(#clip560)" d="M1076.86 123.322 L1083.83 123.322 L1092.65 146.84 L1101.51 123.322 L1108.48 123.322 L1108.48 157.882 L1103.92 157.882 L1103.92 127.534 L1095.01 151.238 L1090.31 151.238 L1081.4 127.534 L1081.4 157.882 L1076.86 157.882 L1076.86 123.322 Z" fill="#000000" fill-rule="evenodd" fill-opacity="1" /><path clip-path="url(#clip560)" d="
M1356.6 1292.77 L2352.76 1292.77 L2352.76 47.2441 L1356.6 47.2441  Z
  " fill="#ffffff" fill-rule="evenodd" fill-opacity="1"/>
<defs>
  <clipPath id="clip563">
    <rect x="1356" y="47" width="997" height="1247"/>
  </clipPath>
</defs>
<polyline clip-path="url(#clip563)" style="stroke:#000000; stroke-linecap:round; stroke-linejoin:round; stroke-width:2; stroke-opacity:0.1; fill:none" points="
  1364.73,1292.77 1364.73,47.2441 
  "/>
<polyline clip-path="url(#clip563)" style="stroke:#000000; stroke-linecap:round; stroke-linejoin:round; stroke-width:2; stroke-opacity:0.1; fill:none" points="
  1598.04,1292.77 1598.04,47.2441 
  "/>
<polyline clip-path="url(#clip563)" style="stroke:#000000; stroke-linecap:round; stroke-linejoin:round; stroke-width:2; stroke-opacity:0.1; fill:none" points="
  1831.35,1292.77 1831.35,47.2441 
  "/>
<polyline clip-path="url(#clip563)" style="stroke:#000000; stroke-linecap:round; stroke-linejoin:round; stroke-width:2; stroke-opacity:0.1; fill:none" points="
  2064.66,1292.77 2064.66,47.2441 
  "/>
<polyline clip-path="url(#clip563)" style="stroke:#000000; stroke-linecap:round; stroke-linejoin:round; stroke-width:2; stroke-opacity:0.1; fill:none" points="
  2297.97,1292.77 2297.97,47.2441 
  "/>
<polyline clip-path="url(#clip560)" style="stroke:#000000; stroke-linecap:round; stroke-linejoin:round; stroke-width:4; stroke-opacity:1; fill:none" points="
  1356.6,1292.77 2352.76,1292.77 
  "/>
<polyline clip-path="url(#clip560)" style="stroke:#000000; stroke-linecap:round; stroke-linejoin:round; stroke-width:4; stroke-opacity:1; fill:none" points="
  1364.73,1292.77 1364.73,1273.87 
  "/>
<polyline clip-path="url(#clip560)" style="stroke:#000000; stroke-linecap:round; stroke-linejoin:round; stroke-width:4; stroke-opacity:1; fill:none" points="
  1598.04,1292.77 1598.04,1273.87 
  "/>
<polyline clip-path="url(#clip560)" style="stroke:#000000; stroke-linecap:round; stroke-linejoin:round; stroke-width:4; stroke-opacity:1; fill:none" points="
  1831.35,1292.77 1831.35,1273.87 
  "/>
<polyline clip-path="url(#clip560)" style="stroke:#000000; stroke-linecap:round; stroke-linejoin:round; stroke-width:4; stroke-opacity:1; fill:none" points="
  2064.66,1292.77 2064.66,1273.87 
  "/>
<polyline clip-path="url(#clip560)" style="stroke:#000000; stroke-linecap:round; stroke-linejoin:round; stroke-width:4; stroke-opacity:1; fill:none" points="
  2297.97,1292.77 2297.97,1273.87 
  "/>
<path clip-path="url(#clip560)" d="M1333.63 1338.34 L1363.3 1338.34 L1363.3 1342.27 L1333.63 1342.27 L1333.63 1338.34 Z" fill="#000000" fill-rule="evenodd" fill-opacity="1" /><path clip-path="url(#clip560)" d="M1386.24 1324.68 L1374.44 1343.13 L1386.24 1343.13 L1386.24 1324.68 M1385.02 1320.61 L1390.9 1320.61 L1390.9 1343.13 L1395.83 1343.13 L1395.83 1347.02 L1390.9 1347.02 L1390.9 1355.17 L1386.24 1355.17 L1386.24 1347.02 L1370.64 1347.02 L1370.64 1342.51 L1385.02 1320.61 Z" fill="#000000" fill-rule="evenodd" fill-opacity="1" /><path clip-path="url(#clip560)" d="M1567.98 1338.34 L1597.65 1338.34 L1597.65 1342.27 L1567.98 1342.27 L1567.98 1338.34 Z" fill="#000000" fill-rule="evenodd" fill-opacity="1" /><path clip-path="url(#clip560)" d="M1611.77 1351.23 L1628.09 1351.23 L1628.09 1355.17 L1606.15 1355.17 L1606.15 1351.23 Q1608.81 1348.48 1613.4 1343.85 Q1618 1339.2 1619.18 1337.85 Q1621.43 1335.33 1622.31 1333.59 Q1623.21 1331.83 1623.21 1330.14 Q1623.21 1327.39 1621.27 1325.65 Q1619.34 1323.92 1616.24 1323.92 Q1614.04 1323.92 1611.59 1324.68 Q1609.16 1325.45 1606.38 1327 L1606.38 1322.27 Q1609.21 1321.14 1611.66 1320.56 Q1614.11 1319.98 1616.15 1319.98 Q1621.52 1319.98 1624.71 1322.67 Q1627.91 1325.35 1627.91 1329.84 Q1627.91 1331.97 1627.1 1333.89 Q1626.31 1335.79 1624.21 1338.39 Q1623.63 1339.06 1620.52 1342.27 Q1617.42 1345.47 1611.77 1351.23 Z" fill="#000000" fill-rule="evenodd" fill-opacity="1" /><path clip-path="url(#clip560)" d="M1831.35 1323.69 Q1827.74 1323.69 1825.91 1327.25 Q1824.1 1330.79 1824.1 1337.92 Q1824.1 1345.03 1825.91 1348.59 Q1827.74 1352.14 1831.35 1352.14 Q1834.98 1352.14 1836.79 1348.59 Q1838.61 1345.03 1838.61 1337.92 Q1838.61 1330.79 1836.79 1327.25 Q1834.98 1323.69 1831.35 1323.69 M1831.35 1319.98 Q1837.16 1319.98 1840.21 1324.59 Q1843.29 1329.17 1843.29 1337.92 Q1843.29 1346.65 1840.21 1351.26 Q1837.16 1355.84 1831.35 1355.84 Q1825.54 1355.84 1822.46 1351.26 Q1819.4 1346.65 1819.4 1337.92 Q1819.4 1329.17 1822.46 1324.59 Q1825.54 1319.98 1831.35 1319.98 Z" fill="#000000" fill-rule="evenodd" fill-opacity="1" /><path clip-path="url(#clip560)" d="M2059.31 1351.23 L2075.63 1351.23 L2075.63 1355.17 L2053.68 1355.17 L2053.68 1351.23 Q2056.35 1348.48 2060.93 1343.85 Q2065.54 1339.2 2066.72 1337.85 Q2068.96 1335.33 2069.84 1333.59 Q2070.74 1331.83 2070.74 1330.14 Q2070.74 1327.39 2068.8 1325.65 Q2066.88 1323.92 2063.78 1323.92 Q2061.58 1323.92 2059.12 1324.68 Q2056.69 1325.45 2053.92 1327 L2053.92 1322.27 Q2056.74 1321.14 2059.19 1320.56 Q2061.65 1319.98 2063.68 1319.98 Q2069.05 1319.98 2072.25 1322.67 Q2075.44 1325.35 2075.44 1329.84 Q2075.44 1331.97 2074.63 1333.89 Q2073.85 1335.79 2071.74 1338.39 Q2071.16 1339.06 2068.06 1342.27 Q2064.96 1345.47 2059.31 1351.23 Z" fill="#000000" fill-rule="evenodd" fill-opacity="1" /><path clip-path="url(#clip560)" d="M2300.97 1324.68 L2289.17 1343.13 L2300.97 1343.13 L2300.97 1324.68 M2299.75 1320.61 L2305.63 1320.61 L2305.63 1343.13 L2310.56 1343.13 L2310.56 1347.02 L2305.63 1347.02 L2305.63 1355.17 L2300.97 1355.17 L2300.97 1347.02 L2285.37 1347.02 L2285.37 1342.51 L2299.75 1320.61 Z" fill="#000000" fill-rule="evenodd" fill-opacity="1" /><polyline clip-path="url(#clip563)" style="stroke:#000000; stroke-linecap:round; stroke-linejoin:round; stroke-width:2; stroke-opacity:0.1; fill:none" points="
  1356.6,1257.52 2352.76,1257.52 
  "/>
<polyline clip-path="url(#clip563)" style="stroke:#000000; stroke-linecap:round; stroke-linejoin:round; stroke-width:2; stroke-opacity:0.1; fill:none" points="
  1356.6,962.981 2352.76,962.981 
  "/>
<polyline clip-path="url(#clip563)" style="stroke:#000000; stroke-linecap:round; stroke-linejoin:round; stroke-width:2; stroke-opacity:0.1; fill:none" points="
  1356.6,668.445 2352.76,668.445 
  "/>
<polyline clip-path="url(#clip563)" style="stroke:#000000; stroke-linecap:round; stroke-linejoin:round; stroke-width:2; stroke-opacity:0.1; fill:none" points="
  1356.6,373.909 2352.76,373.909 
  "/>
<polyline clip-path="url(#clip563)" style="stroke:#000000; stroke-linecap:round; stroke-linejoin:round; stroke-width:2; stroke-opacity:0.1; fill:none" points="
  1356.6,79.3726 2352.76,79.3726 
  "/>
<polyline clip-path="url(#clip560)" style="stroke:#000000; stroke-linecap:round; stroke-linejoin:round; stroke-width:4; stroke-opacity:1; fill:none" points="
  1356.6,1292.77 1356.6,47.2441 
  "/>
<polyline clip-path="url(#clip560)" style="stroke:#000000; stroke-linecap:round; stroke-linejoin:round; stroke-width:4; stroke-opacity:1; fill:none" points="
  1356.6,1257.52 1375.5,1257.52 
  "/>
<polyline clip-path="url(#clip560)" style="stroke:#000000; stroke-linecap:round; stroke-linejoin:round; stroke-width:4; stroke-opacity:1; fill:none" points="
  1356.6,962.981 1375.5,962.981 
  "/>
<polyline clip-path="url(#clip560)" style="stroke:#000000; stroke-linecap:round; stroke-linejoin:round; stroke-width:4; stroke-opacity:1; fill:none" points="
  1356.6,668.445 1375.5,668.445 
  "/>
<polyline clip-path="url(#clip560)" style="stroke:#000000; stroke-linecap:round; stroke-linejoin:round; stroke-width:4; stroke-opacity:1; fill:none" points="
  1356.6,373.909 1375.5,373.909 
  "/>
<polyline clip-path="url(#clip560)" style="stroke:#000000; stroke-linecap:round; stroke-linejoin:round; stroke-width:4; stroke-opacity:1; fill:none" points="
  1356.6,79.3726 1375.5,79.3726 
  "/>
<path clip-path="url(#clip560)" d="M1263.42 1243.32 Q1259.81 1243.32 1257.98 1246.88 Q1256.18 1250.42 1256.18 1257.55 Q1256.18 1264.66 1257.98 1268.22 Q1259.81 1271.76 1263.42 1271.76 Q1267.06 1271.76 1268.86 1268.22 Q1270.69 1264.66 1270.69 1257.55 Q1270.69 1250.42 1268.86 1246.88 Q1267.06 1243.32 1263.42 1243.32 M1263.42 1239.61 Q1269.23 1239.61 1272.29 1244.22 Q1275.37 1248.8 1275.37 1257.55 Q1275.37 1266.28 1272.29 1270.89 Q1269.23 1275.47 1263.42 1275.47 Q1257.61 1275.47 1254.53 1270.89 Q1251.48 1266.28 1251.48 1257.55 Q1251.48 1248.8 1254.53 1244.22 Q1257.61 1239.61 1263.42 1239.61 Z" fill="#000000" fill-rule="evenodd" fill-opacity="1" /><path clip-path="url(#clip560)" d="M1283.58 1268.92 L1288.47 1268.92 L1288.47 1274.8 L1283.58 1274.8 L1283.58 1268.92 Z" fill="#000000" fill-rule="evenodd" fill-opacity="1" /><path clip-path="url(#clip560)" d="M1308.65 1243.32 Q1305.04 1243.32 1303.21 1246.88 Q1301.41 1250.42 1301.41 1257.55 Q1301.41 1264.66 1303.21 1268.22 Q1305.04 1271.76 1308.65 1271.76 Q1312.29 1271.76 1314.09 1268.22 Q1315.92 1264.66 1315.92 1257.55 Q1315.92 1250.42 1314.09 1246.88 Q1312.29 1243.32 1308.65 1243.32 M1308.65 1239.61 Q1314.46 1239.61 1317.52 1244.22 Q1320.6 1248.8 1320.6 1257.55 Q1320.6 1266.28 1317.52 1270.89 Q1314.46 1275.47 1308.65 1275.47 Q1302.84 1275.47 1299.77 1270.89 Q1296.71 1266.28 1296.71 1257.55 Q1296.71 1248.8 1299.77 1244.22 Q1302.84 1239.61 1308.65 1239.61 Z" fill="#000000" fill-rule="evenodd" fill-opacity="1" /><path clip-path="url(#clip560)" d="M1264.65 948.78 Q1261.04 948.78 1259.21 952.345 Q1257.4 955.886 1257.4 963.016 Q1257.4 970.122 1259.21 973.687 Q1261.04 977.229 1264.65 977.229 Q1268.28 977.229 1270.09 973.687 Q1271.92 970.122 1271.92 963.016 Q1271.92 955.886 1270.09 952.345 Q1268.28 948.78 1264.65 948.78 M1264.65 945.076 Q1270.46 945.076 1273.52 949.683 Q1276.59 954.266 1276.59 963.016 Q1276.59 971.743 1273.52 976.349 Q1270.46 980.932 1264.65 980.932 Q1258.84 980.932 1255.76 976.349 Q1252.71 971.743 1252.71 963.016 Q1252.71 954.266 1255.76 949.683 Q1258.84 945.076 1264.65 945.076 Z" fill="#000000" fill-rule="evenodd" fill-opacity="1" /><path clip-path="url(#clip560)" d="M1284.81 974.381 L1289.7 974.381 L1289.7 980.261 L1284.81 980.261 L1284.81 974.381 Z" fill="#000000" fill-rule="evenodd" fill-opacity="1" /><path clip-path="url(#clip560)" d="M1300.69 976.326 L1308.33 976.326 L1308.33 949.96 L1300.02 951.627 L1300.02 947.368 L1308.28 945.701 L1312.96 945.701 L1312.96 976.326 L1320.6 976.326 L1320.6 980.261 L1300.69 980.261 L1300.69 976.326 Z" fill="#000000" fill-rule="evenodd" fill-opacity="1" /><path clip-path="url(#clip560)" d="M1265.02 654.244 Q1261.41 654.244 1259.58 657.808 Q1257.77 661.35 1257.77 668.48 Q1257.77 675.586 1259.58 679.151 Q1261.41 682.693 1265.02 682.693 Q1268.65 682.693 1270.46 679.151 Q1272.29 675.586 1272.29 668.48 Q1272.29 661.35 1270.46 657.808 Q1268.65 654.244 1265.02 654.244 M1265.02 650.54 Q1270.83 650.54 1273.89 655.146 Q1276.96 659.73 1276.96 668.48 Q1276.96 677.206 1273.89 681.813 Q1270.83 686.396 1265.02 686.396 Q1259.21 686.396 1256.13 681.813 Q1253.08 677.206 1253.08 668.48 Q1253.08 659.73 1256.13 655.146 Q1259.21 650.54 1265.02 650.54 Z" fill="#000000" fill-rule="evenodd" fill-opacity="1" /><path clip-path="url(#clip560)" d="M1285.18 679.845 L1290.07 679.845 L1290.07 685.725 L1285.18 685.725 L1285.18 679.845 Z" fill="#000000" fill-rule="evenodd" fill-opacity="1" /><path clip-path="url(#clip560)" d="M1304.28 681.79 L1320.6 681.79 L1320.6 685.725 L1298.65 685.725 L1298.65 681.79 Q1301.32 679.035 1305.9 674.406 Q1310.51 669.753 1311.69 668.41 Q1313.93 665.887 1314.81 664.151 Q1315.71 662.392 1315.71 660.702 Q1315.71 657.947 1313.77 656.211 Q1311.85 654.475 1308.75 654.475 Q1306.55 654.475 1304.09 655.239 Q1301.66 656.003 1298.89 657.554 L1298.89 652.832 Q1301.71 651.697 1304.16 651.119 Q1306.62 650.54 1308.65 650.54 Q1314.02 650.54 1317.22 653.225 Q1320.41 655.91 1320.41 660.401 Q1320.41 662.531 1319.6 664.452 Q1318.82 666.35 1316.71 668.943 Q1316.13 669.614 1313.03 672.831 Q1309.93 676.026 1304.28 681.79 Z" fill="#000000" fill-rule="evenodd" fill-opacity="1" /><path clip-path="url(#clip560)" d="M1264.07 359.707 Q1260.46 359.707 1258.63 363.272 Q1256.83 366.814 1256.83 373.943 Q1256.83 381.05 1258.63 384.615 Q1260.46 388.156 1264.07 388.156 Q1267.7 388.156 1269.51 384.615 Q1271.34 381.05 1271.34 373.943 Q1271.34 366.814 1269.51 363.272 Q1267.7 359.707 1264.07 359.707 M1264.07 356.004 Q1269.88 356.004 1272.94 360.61 Q1276.02 365.194 1276.02 373.943 Q1276.02 382.67 1272.94 387.277 Q1269.88 391.86 1264.07 391.86 Q1258.26 391.86 1255.18 387.277 Q1252.13 382.67 1252.13 373.943 Q1252.13 365.194 1255.18 360.61 Q1258.26 356.004 1264.07 356.004 Z" fill="#000000" fill-rule="evenodd" fill-opacity="1" /><path clip-path="url(#clip560)" d="M1284.23 385.309 L1289.12 385.309 L1289.12 391.189 L1284.23 391.189 L1284.23 385.309 Z" fill="#000000" fill-rule="evenodd" fill-opacity="1" /><path clip-path="url(#clip560)" d="M1313.47 372.555 Q1316.83 373.272 1318.7 375.541 Q1320.6 377.809 1320.6 381.143 Q1320.6 386.258 1317.08 389.059 Q1313.56 391.86 1307.08 391.86 Q1304.9 391.86 1302.59 391.42 Q1300.3 391.004 1297.84 390.147 L1297.84 385.633 Q1299.79 386.768 1302.1 387.346 Q1304.42 387.925 1306.94 387.925 Q1311.34 387.925 1313.63 386.189 Q1315.95 384.453 1315.95 381.143 Q1315.95 378.087 1313.79 376.374 Q1311.66 374.638 1307.84 374.638 L1303.82 374.638 L1303.82 370.795 L1308.03 370.795 Q1311.48 370.795 1313.31 369.43 Q1315.14 368.041 1315.14 365.448 Q1315.14 362.786 1313.24 361.374 Q1311.36 359.939 1307.84 359.939 Q1305.92 359.939 1303.72 360.356 Q1301.52 360.772 1298.89 361.652 L1298.89 357.485 Q1301.55 356.745 1303.86 356.374 Q1306.2 356.004 1308.26 356.004 Q1313.58 356.004 1316.69 358.434 Q1319.79 360.842 1319.79 364.962 Q1319.79 367.832 1318.14 369.823 Q1316.5 371.791 1313.47 372.555 Z" fill="#000000" fill-rule="evenodd" fill-opacity="1" /><path clip-path="url(#clip560)" d="M1262.94 65.1713 Q1259.33 65.1713 1257.5 68.7361 Q1255.69 72.2778 1255.69 79.4074 Q1255.69 86.5138 1257.5 90.0786 Q1259.33 93.6202 1262.94 93.6202 Q1266.57 93.6202 1268.38 90.0786 Q1270.2 86.5138 1270.2 79.4074 Q1270.2 72.2778 1268.38 68.7361 Q1266.57 65.1713 1262.94 65.1713 M1262.94 61.4676 Q1268.75 61.4676 1271.8 66.0741 Q1274.88 70.6574 1274.88 79.4074 Q1274.88 88.1342 1271.8 92.7406 Q1268.75 97.3239 1262.94 97.3239 Q1257.13 97.3239 1254.05 92.7406 Q1250.99 88.1342 1250.99 79.4074 Q1250.99 70.6574 1254.05 66.0741 Q1257.13 61.4676 1262.94 61.4676 Z" fill="#000000" fill-rule="evenodd" fill-opacity="1" /><path clip-path="url(#clip560)" d="M1283.1 90.773 L1287.98 90.773 L1287.98 96.6526 L1283.1 96.6526 L1283.1 90.773 Z" fill="#000000" fill-rule="evenodd" fill-opacity="1" /><path clip-path="url(#clip560)" d="M1311.01 66.1667 L1299.21 84.6157 L1311.01 84.6157 L1311.01 66.1667 M1309.79 62.0926 L1315.67 62.0926 L1315.67 84.6157 L1320.6 84.6157 L1320.6 88.5045 L1315.67 88.5045 L1315.67 96.6526 L1311.01 96.6526 L1311.01 88.5045 L1295.41 88.5045 L1295.41 83.9907 L1309.79 62.0926 Z" fill="#000000" fill-rule="evenodd" fill-opacity="1" /><path clip-path="url(#clip563)" d="
M1411.39 1252.8 L1411.39 1257.52 L1434.72 1257.52 L1434.72 1252.8 L1411.39 1252.8 L1411.39 1252.8  Z
  " fill="#009af9" fill-rule="evenodd" fill-opacity="1"/>
<polyline clip-path="url(#clip563)" style="stroke:#000000; stroke-linecap:round; stroke-linejoin:round; stroke-width:4; stroke-opacity:1; fill:none" points="
  1411.39,1252.8 1411.39,1257.52 1434.72,1257.52 1434.72,1252.8 1411.39,1252.8 
  "/>
<path clip-path="url(#clip563)" d="
M1434.72 1250.44 L1434.72 1257.52 L1458.05 1257.52 L1458.05 1250.44 L1434.72 1250.44 L1434.72 1250.44  Z
  " fill="#009af9" fill-rule="evenodd" fill-opacity="1"/>
<polyline clip-path="url(#clip563)" style="stroke:#000000; stroke-linecap:round; stroke-linejoin:round; stroke-width:4; stroke-opacity:1; fill:none" points="
  1434.72,1250.44 1434.72,1257.52 1458.05,1257.52 1458.05,1250.44 1434.72,1250.44 
  "/>
<path clip-path="url(#clip563)" d="
M1458.05 1245.71 L1458.05 1257.52 L1481.38 1257.52 L1481.38 1245.71 L1458.05 1245.71 L1458.05 1245.71  Z
  " fill="#009af9" fill-rule="evenodd" fill-opacity="1"/>
<polyline clip-path="url(#clip563)" style="stroke:#000000; stroke-linecap:round; stroke-linejoin:round; stroke-width:4; stroke-opacity:1; fill:none" points="
  1458.05,1245.71 1458.05,1257.52 1481.38,1257.52 1481.38,1245.71 1458.05,1245.71 
  "/>
<path clip-path="url(#clip563)" d="
M1481.38 1231.55 L1481.38 1257.52 L1504.71 1257.52 L1504.71 1231.55 L1481.38 1231.55 L1481.38 1231.55  Z
  " fill="#009af9" fill-rule="evenodd" fill-opacity="1"/>
<polyline clip-path="url(#clip563)" style="stroke:#000000; stroke-linecap:round; stroke-linejoin:round; stroke-width:4; stroke-opacity:1; fill:none" points="
  1481.38,1231.55 1481.38,1257.52 1504.71,1257.52 1504.71,1231.55 1481.38,1231.55 
  "/>
<path clip-path="url(#clip563)" d="
M1504.71 1215.03 L1504.71 1257.52 L1528.04 1257.52 L1528.04 1215.03 L1504.71 1215.03 L1504.71 1215.03  Z
  " fill="#009af9" fill-rule="evenodd" fill-opacity="1"/>
<polyline clip-path="url(#clip563)" style="stroke:#000000; stroke-linecap:round; stroke-linejoin:round; stroke-width:4; stroke-opacity:1; fill:none" points="
  1504.71,1215.03 1504.71,1257.52 1528.04,1257.52 1528.04,1215.03 1504.71,1215.03 
  "/>
<path clip-path="url(#clip563)" d="
M1528.04 1186.7 L1528.04 1257.52 L1551.37 1257.52 L1551.37 1186.7 L1528.04 1186.7 L1528.04 1186.7  Z
  " fill="#009af9" fill-rule="evenodd" fill-opacity="1"/>
<polyline clip-path="url(#clip563)" style="stroke:#000000; stroke-linecap:round; stroke-linejoin:round; stroke-width:4; stroke-opacity:1; fill:none" points="
  1528.04,1186.7 1528.04,1257.52 1551.37,1257.52 1551.37,1186.7 1528.04,1186.7 
  "/>
<path clip-path="url(#clip563)" d="
M1551.37 1170.18 L1551.37 1257.52 L1574.71 1257.52 L1574.71 1170.18 L1551.37 1170.18 L1551.37 1170.18  Z
  " fill="#009af9" fill-rule="evenodd" fill-opacity="1"/>
<polyline clip-path="url(#clip563)" style="stroke:#000000; stroke-linecap:round; stroke-linejoin:round; stroke-width:4; stroke-opacity:1; fill:none" points="
  1551.37,1170.18 1551.37,1257.52 1574.71,1257.52 1574.71,1170.18 1551.37,1170.18 
  "/>
<path clip-path="url(#clip563)" d="
M1574.71 1108.81 L1574.71 1257.52 L1598.04 1257.52 L1598.04 1108.81 L1574.71 1108.81 L1574.71 1108.81  Z
  " fill="#009af9" fill-rule="evenodd" fill-opacity="1"/>
<polyline clip-path="url(#clip563)" style="stroke:#000000; stroke-linecap:round; stroke-linejoin:round; stroke-width:4; stroke-opacity:1; fill:none" points="
  1574.71,1108.81 1574.71,1257.52 1598.04,1257.52 1598.04,1108.81 1574.71,1108.81 
  "/>
<path clip-path="url(#clip563)" d="
M1598.04 1033.28 L1598.04 1257.52 L1621.37 1257.52 L1621.37 1033.28 L1598.04 1033.28 L1598.04 1033.28  Z
  " fill="#009af9" fill-rule="evenodd" fill-opacity="1"/>
<polyline clip-path="url(#clip563)" style="stroke:#000000; stroke-linecap:round; stroke-linejoin:round; stroke-width:4; stroke-opacity:1; fill:none" points="
  1598.04,1033.28 1598.04,1257.52 1621.37,1257.52 1621.37,1033.28 1598.04,1033.28 
  "/>
<path clip-path="url(#clip563)" d="
M1621.37 943.578 L1621.37 1257.52 L1644.7 1257.52 L1644.7 943.578 L1621.37 943.578 L1621.37 943.578  Z
  " fill="#009af9" fill-rule="evenodd" fill-opacity="1"/>
<polyline clip-path="url(#clip563)" style="stroke:#000000; stroke-linecap:round; stroke-linejoin:round; stroke-width:4; stroke-opacity:1; fill:none" points="
  1621.37,943.578 1621.37,1257.52 1644.7,1257.52 1644.7,943.578 1621.37,943.578 
  "/>
<path clip-path="url(#clip563)" d="
M1644.7 894.009 L1644.7 1257.52 L1668.03 1257.52 L1668.03 894.009 L1644.7 894.009 L1644.7 894.009  Z
  " fill="#009af9" fill-rule="evenodd" fill-opacity="1"/>
<polyline clip-path="url(#clip563)" style="stroke:#000000; stroke-linecap:round; stroke-linejoin:round; stroke-width:4; stroke-opacity:1; fill:none" points="
  1644.7,894.009 1644.7,1257.52 1668.03,1257.52 1668.03,894.009 1644.7,894.009 
  "/>
<path clip-path="url(#clip563)" d="
M1668.03 716.976 L1668.03 1257.52 L1691.36 1257.52 L1691.36 716.976 L1668.03 716.976 L1668.03 716.976  Z
  " fill="#009af9" fill-rule="evenodd" fill-opacity="1"/>
<polyline clip-path="url(#clip563)" style="stroke:#000000; stroke-linecap:round; stroke-linejoin:round; stroke-width:4; stroke-opacity:1; fill:none" points="
  1668.03,716.976 1668.03,1257.52 1691.36,1257.52 1691.36,716.976 1668.03,716.976 
  "/>
<path clip-path="url(#clip563)" d="
M1691.36 582.43 L1691.36 1257.52 L1714.69 1257.52 L1714.69 582.43 L1691.36 582.43 L1691.36 582.43  Z
  " fill="#009af9" fill-rule="evenodd" fill-opacity="1"/>
<polyline clip-path="url(#clip563)" style="stroke:#000000; stroke-linecap:round; stroke-linejoin:round; stroke-width:4; stroke-opacity:1; fill:none" points="
  1691.36,582.43 1691.36,1257.52 1714.69,1257.52 1714.69,582.43 1691.36,582.43 
  "/>
<path clip-path="url(#clip563)" d="
M1714.69 492.734 L1714.69 1257.52 L1738.02 1257.52 L1738.02 492.734 L1714.69 492.734 L1714.69 492.734  Z
  " fill="#009af9" fill-rule="evenodd" fill-opacity="1"/>
<polyline clip-path="url(#clip563)" style="stroke:#000000; stroke-linecap:round; stroke-linejoin:round; stroke-width:4; stroke-opacity:1; fill:none" points="
  1714.69,492.734 1714.69,1257.52 1738.02,1257.52 1738.02,492.734 1714.69,492.734 
  "/>
<path clip-path="url(#clip563)" d="
M1738.02 367.63 L1738.02 1257.52 L1761.35 1257.52 L1761.35 367.63 L1738.02 367.63 L1738.02 367.63  Z
  " fill="#009af9" fill-rule="evenodd" fill-opacity="1"/>
<polyline clip-path="url(#clip563)" style="stroke:#000000; stroke-linecap:round; stroke-linejoin:round; stroke-width:4; stroke-opacity:1; fill:none" points="
  1738.02,367.63 1738.02,1257.52 1761.35,1257.52 1761.35,367.63 1738.02,367.63 
  "/>
<path clip-path="url(#clip563)" d="
M1761.35 306.258 L1761.35 1257.52 L1784.68 1257.52 L1784.68 306.258 L1761.35 306.258 L1761.35 306.258  Z
  " fill="#009af9" fill-rule="evenodd" fill-opacity="1"/>
<polyline clip-path="url(#clip563)" style="stroke:#000000; stroke-linecap:round; stroke-linejoin:round; stroke-width:4; stroke-opacity:1; fill:none" points="
  1761.35,306.258 1761.35,1257.52 1784.68,1257.52 1784.68,306.258 1761.35,306.258 
  "/>
<path clip-path="url(#clip563)" d="
M1784.68 188.236 L1784.68 1257.52 L1808.02 1257.52 L1808.02 188.236 L1784.68 188.236 L1784.68 188.236  Z
  " fill="#009af9" fill-rule="evenodd" fill-opacity="1"/>
<polyline clip-path="url(#clip563)" style="stroke:#000000; stroke-linecap:round; stroke-linejoin:round; stroke-width:4; stroke-opacity:1; fill:none" points="
  1784.68,188.236 1784.68,1257.52 1808.02,1257.52 1808.02,188.236 1784.68,188.236 
  "/>
<path clip-path="url(#clip563)" d="
M1808.02 126.865 L1808.02 1257.52 L1831.35 1257.52 L1831.35 126.865 L1808.02 126.865 L1808.02 126.865  Z
  " fill="#009af9" fill-rule="evenodd" fill-opacity="1"/>
<polyline clip-path="url(#clip563)" style="stroke:#000000; stroke-linecap:round; stroke-linejoin:round; stroke-width:4; stroke-opacity:1; fill:none" points="
  1808.02,126.865 1808.02,1257.52 1831.35,1257.52 1831.35,126.865 1808.02,126.865 
  "/>
<path clip-path="url(#clip563)" d="
M1831.35 164.632 L1831.35 1257.52 L1854.68 1257.52 L1854.68 164.632 L1831.35 164.632 L1831.35 164.632  Z
  " fill="#009af9" fill-rule="evenodd" fill-opacity="1"/>
<polyline clip-path="url(#clip563)" style="stroke:#000000; stroke-linecap:round; stroke-linejoin:round; stroke-width:4; stroke-opacity:1; fill:none" points="
  1831.35,164.632 1831.35,1257.52 1854.68,1257.52 1854.68,164.632 1831.35,164.632 
  "/>
<path clip-path="url(#clip563)" d="
M1854.68 145.748 L1854.68 1257.52 L1878.01 1257.52 L1878.01 145.748 L1854.68 145.748 L1854.68 145.748  Z
  " fill="#009af9" fill-rule="evenodd" fill-opacity="1"/>
<polyline clip-path="url(#clip563)" style="stroke:#000000; stroke-linecap:round; stroke-linejoin:round; stroke-width:4; stroke-opacity:1; fill:none" points="
  1854.68,145.748 1854.68,1257.52 1878.01,1257.52 1878.01,145.748 1854.68,145.748 
  "/>
<path clip-path="url(#clip563)" d="
M1878.01 336.944 L1878.01 1257.52 L1901.34 1257.52 L1901.34 336.944 L1878.01 336.944 L1878.01 336.944  Z
  " fill="#009af9" fill-rule="evenodd" fill-opacity="1"/>
<polyline clip-path="url(#clip563)" style="stroke:#000000; stroke-linecap:round; stroke-linejoin:round; stroke-width:4; stroke-opacity:1; fill:none" points="
  1878.01,336.944 1878.01,1257.52 1901.34,1257.52 1901.34,336.944 1878.01,336.944 
  "/>
<path clip-path="url(#clip563)" d="
M1901.34 351.107 L1901.34 1257.52 L1924.67 1257.52 L1924.67 351.107 L1901.34 351.107 L1901.34 351.107  Z
  " fill="#009af9" fill-rule="evenodd" fill-opacity="1"/>
<polyline clip-path="url(#clip563)" style="stroke:#000000; stroke-linecap:round; stroke-linejoin:round; stroke-width:4; stroke-opacity:1; fill:none" points="
  1901.34,351.107 1901.34,1257.52 1924.67,1257.52 1924.67,351.107 1901.34,351.107 
  "/>
<path clip-path="url(#clip563)" d="
M1924.67 438.443 L1924.67 1257.52 L1948 1257.52 L1948 438.443 L1924.67 438.443 L1924.67 438.443  Z
  " fill="#009af9" fill-rule="evenodd" fill-opacity="1"/>
<polyline clip-path="url(#clip563)" style="stroke:#000000; stroke-linecap:round; stroke-linejoin:round; stroke-width:4; stroke-opacity:1; fill:none" points="
  1924.67,438.443 1924.67,1257.52 1948,1257.52 1948,438.443 1924.67,438.443 
  "/>
<path clip-path="url(#clip563)" d="
M1948 591.872 L1948 1257.52 L1971.33 1257.52 L1971.33 591.872 L1948 591.872 L1948 591.872  Z
  " fill="#009af9" fill-rule="evenodd" fill-opacity="1"/>
<polyline clip-path="url(#clip563)" style="stroke:#000000; stroke-linecap:round; stroke-linejoin:round; stroke-width:4; stroke-opacity:1; fill:none" points="
  1948,591.872 1948,1257.52 1971.33,1257.52 1971.33,591.872 1948,591.872 
  "/>
<path clip-path="url(#clip563)" d="
M1971.33 759.464 L1971.33 1257.52 L1994.66 1257.52 L1994.66 759.464 L1971.33 759.464 L1971.33 759.464  Z
  " fill="#009af9" fill-rule="evenodd" fill-opacity="1"/>
<polyline clip-path="url(#clip563)" style="stroke:#000000; stroke-linecap:round; stroke-linejoin:round; stroke-width:4; stroke-opacity:1; fill:none" points="
  1971.33,759.464 1971.33,1257.52 1994.66,1257.52 1994.66,759.464 1971.33,759.464 
  "/>
<path clip-path="url(#clip563)" d="
M1994.66 844.44 L1994.66 1257.52 L2017.99 1257.52 L2017.99 844.44 L1994.66 844.44 L1994.66 844.44  Z
  " fill="#009af9" fill-rule="evenodd" fill-opacity="1"/>
<polyline clip-path="url(#clip563)" style="stroke:#000000; stroke-linecap:round; stroke-linejoin:round; stroke-width:4; stroke-opacity:1; fill:none" points="
  1994.66,844.44 1994.66,1257.52 2017.99,1257.52 2017.99,844.44 1994.66,844.44 
  "/>
<path clip-path="url(#clip563)" d="
M2017.99 912.892 L2017.99 1257.52 L2041.32 1257.52 L2041.32 912.892 L2017.99 912.892 L2017.99 912.892  Z
  " fill="#009af9" fill-rule="evenodd" fill-opacity="1"/>
<polyline clip-path="url(#clip563)" style="stroke:#000000; stroke-linecap:round; stroke-linejoin:round; stroke-width:4; stroke-opacity:1; fill:none" points="
  2017.99,912.892 2017.99,1257.52 2041.32,1257.52 2041.32,912.892 2017.99,912.892 
  "/>
<path clip-path="url(#clip563)" d="
M2041.32 990.787 L2041.32 1257.52 L2064.66 1257.52 L2064.66 990.787 L2041.32 990.787 L2041.32 990.787  Z
  " fill="#009af9" fill-rule="evenodd" fill-opacity="1"/>
<polyline clip-path="url(#clip563)" style="stroke:#000000; stroke-linecap:round; stroke-linejoin:round; stroke-width:4; stroke-opacity:1; fill:none" points="
  2041.32,990.787 2041.32,1257.52 2064.66,1257.52 2064.66,990.787 2041.32,990.787 
  "/>
<path clip-path="url(#clip563)" d="
M2064.66 1094.65 L2064.66 1257.52 L2087.99 1257.52 L2087.99 1094.65 L2064.66 1094.65 L2064.66 1094.65  Z
  " fill="#009af9" fill-rule="evenodd" fill-opacity="1"/>
<polyline clip-path="url(#clip563)" style="stroke:#000000; stroke-linecap:round; stroke-linejoin:round; stroke-width:4; stroke-opacity:1; fill:none" points="
  2064.66,1094.65 2064.66,1257.52 2087.99,1257.52 2087.99,1094.65 2064.66,1094.65 
  "/>
<path clip-path="url(#clip563)" d="
M2087.99 1167.82 L2087.99 1257.52 L2111.32 1257.52 L2111.32 1167.82 L2087.99 1167.82 L2087.99 1167.82  Z
  " fill="#009af9" fill-rule="evenodd" fill-opacity="1"/>
<polyline clip-path="url(#clip563)" style="stroke:#000000; stroke-linecap:round; stroke-linejoin:round; stroke-width:4; stroke-opacity:1; fill:none" points="
  2087.99,1167.82 2087.99,1257.52 2111.32,1257.52 2111.32,1167.82 2087.99,1167.82 
  "/>
<path clip-path="url(#clip563)" d="
M2111.32 1203.23 L2111.32 1257.52 L2134.65 1257.52 L2134.65 1203.23 L2111.32 1203.23 L2111.32 1203.23  Z
  " fill="#009af9" fill-rule="evenodd" fill-opacity="1"/>
<polyline clip-path="url(#clip563)" style="stroke:#000000; stroke-linecap:round; stroke-linejoin:round; stroke-width:4; stroke-opacity:1; fill:none" points="
  2111.32,1203.23 2111.32,1257.52 2134.65,1257.52 2134.65,1203.23 2111.32,1203.23 
  "/>
<path clip-path="url(#clip563)" d="
M2134.65 1236.27 L2134.65 1257.52 L2157.98 1257.52 L2157.98 1236.27 L2134.65 1236.27 L2134.65 1236.27  Z
  " fill="#009af9" fill-rule="evenodd" fill-opacity="1"/>
<polyline clip-path="url(#clip563)" style="stroke:#000000; stroke-linecap:round; stroke-linejoin:round; stroke-width:4; stroke-opacity:1; fill:none" points="
  2134.65,1236.27 2134.65,1257.52 2157.98,1257.52 2157.98,1236.27 2134.65,1236.27 
  "/>
<path clip-path="url(#clip563)" d="
M2157.98 1238.63 L2157.98 1257.52 L2181.31 1257.52 L2181.31 1238.63 L2157.98 1238.63 L2157.98 1238.63  Z
  " fill="#009af9" fill-rule="evenodd" fill-opacity="1"/>
<polyline clip-path="url(#clip563)" style="stroke:#000000; stroke-linecap:round; stroke-linejoin:round; stroke-width:4; stroke-opacity:1; fill:none" points="
  2157.98,1238.63 2157.98,1257.52 2181.31,1257.52 2181.31,1238.63 2157.98,1238.63 
  "/>
<path clip-path="url(#clip563)" d="
M2181.31 1248.08 L2181.31 1257.52 L2204.64 1257.52 L2204.64 1248.08 L2181.31 1248.08 L2181.31 1248.08  Z
  " fill="#009af9" fill-rule="evenodd" fill-opacity="1"/>
<polyline clip-path="url(#clip563)" style="stroke:#000000; stroke-linecap:round; stroke-linejoin:round; stroke-width:4; stroke-opacity:1; fill:none" points="
  2181.31,1248.08 2181.31,1257.52 2204.64,1257.52 2204.64,1248.08 2181.31,1248.08 
  "/>
<path clip-path="url(#clip563)" d="
M2204.64 1255.16 L2204.64 1257.52 L2227.97 1257.52 L2227.97 1255.16 L2204.64 1255.16 L2204.64 1255.16  Z
  " fill="#009af9" fill-rule="evenodd" fill-opacity="1"/>
<polyline clip-path="url(#clip563)" style="stroke:#000000; stroke-linecap:round; stroke-linejoin:round; stroke-width:4; stroke-opacity:1; fill:none" points="
  2204.64,1255.16 2204.64,1257.52 2227.97,1257.52 2227.97,1255.16 2204.64,1255.16 
  "/>
<path clip-path="url(#clip563)" d="
M2227.97 1257.52 L2227.97 1257.52 L2251.3 1257.52 L2251.3 1257.52 L2227.97 1257.52 L2227.97 1257.52  Z
  " fill="#009af9" fill-rule="evenodd" fill-opacity="1"/>
<polyline clip-path="url(#clip563)" style="stroke:#000000; stroke-linecap:round; stroke-linejoin:round; stroke-width:4; stroke-opacity:1; fill:none" points="
  2227.97,1257.52 2227.97,1257.52 2251.3,1257.52 2227.97,1257.52 
  "/>
<path clip-path="url(#clip563)" d="
M2251.3 1255.16 L2251.3 1257.52 L2274.63 1257.52 L2274.63 1255.16 L2251.3 1255.16 L2251.3 1255.16  Z
  " fill="#009af9" fill-rule="evenodd" fill-opacity="1"/>
<polyline clip-path="url(#clip563)" style="stroke:#000000; stroke-linecap:round; stroke-linejoin:round; stroke-width:4; stroke-opacity:1; fill:none" points="
  2251.3,1255.16 2251.3,1257.52 2274.63,1257.52 2274.63,1255.16 2251.3,1255.16 
  "/>
<path clip-path="url(#clip563)" d="
M2274.63 1252.8 L2274.63 1257.52 L2297.97 1257.52 L2297.97 1252.8 L2274.63 1252.8 L2274.63 1252.8  Z
  " fill="#009af9" fill-rule="evenodd" fill-opacity="1"/>
<polyline clip-path="url(#clip563)" style="stroke:#000000; stroke-linecap:round; stroke-linejoin:round; stroke-width:4; stroke-opacity:1; fill:none" points="
  2274.63,1252.8 2274.63,1257.52 2297.97,1257.52 2297.97,1252.8 2274.63,1252.8 
  "/>
<circle clip-path="url(#clip563)" style="fill:#009af9; stroke:none; fill-opacity:0" cx="1423.05" cy="1252.8" r="2"/>
<circle clip-path="url(#clip563)" style="fill:#009af9; stroke:none; fill-opacity:0" cx="1446.39" cy="1250.44" r="2"/>
<circle clip-path="url(#clip563)" style="fill:#009af9; stroke:none; fill-opacity:0" cx="1469.72" cy="1245.71" r="2"/>
<circle clip-path="url(#clip563)" style="fill:#009af9; stroke:none; fill-opacity:0" cx="1493.05" cy="1231.55" r="2"/>
<circle clip-path="url(#clip563)" style="fill:#009af9; stroke:none; fill-opacity:0" cx="1516.38" cy="1215.03" r="2"/>
<circle clip-path="url(#clip563)" style="fill:#009af9; stroke:none; fill-opacity:0" cx="1539.71" cy="1186.7" r="2"/>
<circle clip-path="url(#clip563)" style="fill:#009af9; stroke:none; fill-opacity:0" cx="1563.04" cy="1170.18" r="2"/>
<circle clip-path="url(#clip563)" style="fill:#009af9; stroke:none; fill-opacity:0" cx="1586.37" cy="1108.81" r="2"/>
<circle clip-path="url(#clip563)" style="fill:#009af9; stroke:none; fill-opacity:0" cx="1609.7" cy="1033.28" r="2"/>
<circle clip-path="url(#clip563)" style="fill:#009af9; stroke:none; fill-opacity:0" cx="1633.03" cy="943.578" r="2"/>
<circle clip-path="url(#clip563)" style="fill:#009af9; stroke:none; fill-opacity:0" cx="1656.36" cy="894.009" r="2"/>
<circle clip-path="url(#clip563)" style="fill:#009af9; stroke:none; fill-opacity:0" cx="1679.69" cy="716.976" r="2"/>
<circle clip-path="url(#clip563)" style="fill:#009af9; stroke:none; fill-opacity:0" cx="1703.03" cy="582.43" r="2"/>
<circle clip-path="url(#clip563)" style="fill:#009af9; stroke:none; fill-opacity:0" cx="1726.36" cy="492.734" r="2"/>
<circle clip-path="url(#clip563)" style="fill:#009af9; stroke:none; fill-opacity:0" cx="1749.69" cy="367.63" r="2"/>
<circle clip-path="url(#clip563)" style="fill:#009af9; stroke:none; fill-opacity:0" cx="1773.02" cy="306.258" r="2"/>
<circle clip-path="url(#clip563)" style="fill:#009af9; stroke:none; fill-opacity:0" cx="1796.35" cy="188.236" r="2"/>
<circle clip-path="url(#clip563)" style="fill:#009af9; stroke:none; fill-opacity:0" cx="1819.68" cy="126.865" r="2"/>
<circle clip-path="url(#clip563)" style="fill:#009af9; stroke:none; fill-opacity:0" cx="1843.01" cy="164.632" r="2"/>
<circle clip-path="url(#clip563)" style="fill:#009af9; stroke:none; fill-opacity:0" cx="1866.34" cy="145.748" r="2"/>
<circle clip-path="url(#clip563)" style="fill:#009af9; stroke:none; fill-opacity:0" cx="1889.67" cy="336.944" r="2"/>
<circle clip-path="url(#clip563)" style="fill:#009af9; stroke:none; fill-opacity:0" cx="1913" cy="351.107" r="2"/>
<circle clip-path="url(#clip563)" style="fill:#009af9; stroke:none; fill-opacity:0" cx="1936.34" cy="438.443" r="2"/>
<circle clip-path="url(#clip563)" style="fill:#009af9; stroke:none; fill-opacity:0" cx="1959.67" cy="591.872" r="2"/>
<circle clip-path="url(#clip563)" style="fill:#009af9; stroke:none; fill-opacity:0" cx="1983" cy="759.464" r="2"/>
<circle clip-path="url(#clip563)" style="fill:#009af9; stroke:none; fill-opacity:0" cx="2006.33" cy="844.44" r="2"/>
<circle clip-path="url(#clip563)" style="fill:#009af9; stroke:none; fill-opacity:0" cx="2029.66" cy="912.892" r="2"/>
<circle clip-path="url(#clip563)" style="fill:#009af9; stroke:none; fill-opacity:0" cx="2052.99" cy="990.787" r="2"/>
<circle clip-path="url(#clip563)" style="fill:#009af9; stroke:none; fill-opacity:0" cx="2076.32" cy="1094.65" r="2"/>
<circle clip-path="url(#clip563)" style="fill:#009af9; stroke:none; fill-opacity:0" cx="2099.65" cy="1167.82" r="2"/>
<circle clip-path="url(#clip563)" style="fill:#009af9; stroke:none; fill-opacity:0" cx="2122.98" cy="1203.23" r="2"/>
<circle clip-path="url(#clip563)" style="fill:#009af9; stroke:none; fill-opacity:0" cx="2146.31" cy="1236.27" r="2"/>
<circle clip-path="url(#clip563)" style="fill:#009af9; stroke:none; fill-opacity:0" cx="2169.65" cy="1238.63" r="2"/>
<circle clip-path="url(#clip563)" style="fill:#009af9; stroke:none; fill-opacity:0" cx="2192.98" cy="1248.08" r="2"/>
<circle clip-path="url(#clip563)" style="fill:#009af9; stroke:none; fill-opacity:0" cx="2216.31" cy="1255.16" r="2"/>
<circle clip-path="url(#clip563)" style="fill:#009af9; stroke:none; fill-opacity:0" cx="2239.64" cy="1257.52" r="2"/>
<circle clip-path="url(#clip563)" style="fill:#009af9; stroke:none; fill-opacity:0" cx="2262.97" cy="1255.16" r="2"/>
<circle clip-path="url(#clip563)" style="fill:#009af9; stroke:none; fill-opacity:0" cx="2286.3" cy="1252.8" r="2"/>
<polyline clip-path="url(#clip563)" style="stroke:#e26f46; stroke-linecap:round; stroke-linejoin:round; stroke-width:12; stroke-opacity:1; fill:none" points="
  1384.79,1256.74 1387.85,1256.66 1390.91,1256.57 1419.2,1255.23 1447.48,1252.28 1464.48,1249.15 1481.48,1244.43 1495.85,1238.72 1510.23,1230.93 1518.03,1225.63 
  1525.84,1219.43 1533.65,1212.24 1541.45,1203.93 1548.65,1195.17 1555.85,1185.25 1563.04,1174.08 1570.24,1161.54 1577.96,1146.47 1585.67,1129.59 1593.39,1110.8 
  1601.1,1089.97 1610.04,1063.18 1618.98,1033.43 1623.45,1017.42 1627.92,1000.64 1632.39,983.095 1636.86,964.779 1644.8,930.341 1652.75,893.545 1660.69,854.483 
  1668.64,813.295 1675.6,775.569 1682.57,736.501 1689.54,696.27 1696.5,655.086 1711.69,563.14 1726.88,470.617 1734.52,424.872 1742.16,380.24 1749.8,337.171 
  1757.45,296.122 1761.67,274.46 1765.89,253.626 1770.12,233.695 1774.34,214.736 1778.56,196.816 1782.79,180.003 1787.01,164.357 1791.23,149.937 1795.25,137.404 
  1799.27,126.073 1803.29,115.982 1807.31,107.168 1811.33,99.6608 1815.35,93.4868 1819.37,88.6679 1823.38,85.2212 1827.56,83.1056 1831.74,82.4948 1835.92,83.3911 
  1840.1,85.7911 1844.28,89.6856 1848.46,95.0596 1852.63,101.893 1856.81,110.158 1860.33,118.204 1863.85,127.222 1867.37,137.188 1870.88,148.074 1874.4,159.854 
  1877.92,172.495 1881.44,185.965 1884.95,200.23 1889.25,218.67 1893.54,238.171 1897.84,258.66 1902.13,280.062 1906.43,302.302 1910.72,325.3 1915.01,348.976 
  1919.31,373.25 1935.04,466.004 1950.78,561.804 1965.31,649.852 1979.85,734.931 1987.21,776.225 1994.57,816.018 2001.93,854.13 2009.29,890.417 2017.54,928.779 
  2025.79,964.6 2034.04,997.82 2042.29,1028.42 2049.76,1053.91 2057.24,1077.3 2064.71,1098.66 2072.19,1118.06 2080.75,1137.98 2089.31,1155.61 2097.87,1171.1 
  2106.43,1184.64 2114.35,1195.57 2122.27,1205.1 2130.2,1213.37 2138.12,1220.51 2153.75,1231.73 2169.38,1239.87 2184.55,1245.51 2199.72,1249.49 2230.82,1254.18 
  2264.9,1256.34 2314.41,1257.3 2324.56,1257.36 
  "/>
<path clip-path="url(#clip560)" d="
M2117.5 192.442 L2319.55 192.442 L2319.55 88.7616 L2117.5 88.7616  Z
  " fill="#ffffff" fill-rule="evenodd" fill-opacity="1"/>
<polyline clip-path="url(#clip560)" style="stroke:#000000; stroke-linecap:round; stroke-linejoin:round; stroke-width:4; stroke-opacity:1; fill:none" points="
  2117.5,192.442 2319.55,192.442 2319.55,88.7616 2117.5,88.7616 2117.5,192.442 
  "/>
<path clip-path="url(#clip560)" d="
M2128.57 161.338 L2194.98 161.338 L2194.98 119.866 L2128.57 119.866 L2128.57 161.338  Z
  " fill="#009af9" fill-rule="evenodd" fill-opacity="1"/>
<polyline clip-path="url(#clip560)" style="stroke:#000000; stroke-linecap:round; stroke-linejoin:round; stroke-width:4; stroke-opacity:1; fill:none" points="
  2128.57,161.338 2194.98,161.338 2194.98,119.866 2128.57,119.866 2128.57,161.338 
  "/>
<path clip-path="url(#clip560)" d="M2206.05 123.322 L2210.73 123.322 L2210.73 137.488 L2227.72 137.488 L2227.72 123.322 L2232.39 123.322 L2232.39 157.882 L2227.72 157.882 L2227.72 141.423 L2210.73 141.423 L2210.73 157.882 L2206.05 157.882 L2206.05 123.322 Z" fill="#000000" fill-rule="evenodd" fill-opacity="1" /><path clip-path="url(#clip560)" d="M2241.7 123.322 L2248.67 123.322 L2257.49 146.84 L2266.35 123.322 L2273.32 123.322 L2273.32 157.882 L2268.76 157.882 L2268.76 127.534 L2259.85 151.238 L2255.15 151.238 L2246.24 127.534 L2246.24 157.882 L2241.7 157.882 L2241.7 123.322 Z" fill="#000000" fill-rule="evenodd" fill-opacity="1" /><path clip-path="url(#clip560)" d="M2308.48 125.984 L2308.48 130.914 Q2306.12 128.715 2303.44 127.627 Q2300.77 126.539 2297.76 126.539 Q2291.84 126.539 2288.69 130.173 Q2285.54 133.784 2285.54 140.636 Q2285.54 147.465 2288.69 151.099 Q2291.84 154.71 2297.76 154.71 Q2300.77 154.71 2303.44 153.622 Q2306.12 152.534 2308.48 150.335 L2308.48 155.22 Q2306.03 156.886 2303.27 157.72 Q2300.54 158.553 2297.49 158.553 Q2289.64 158.553 2285.13 153.761 Q2280.61 148.946 2280.61 140.636 Q2280.61 132.303 2285.13 127.511 Q2289.64 122.697 2297.49 122.697 Q2300.59 122.697 2303.32 123.53 Q2306.07 124.34 2308.48 125.984 Z" fill="#000000" fill-rule="evenodd" fill-opacity="1" /></svg>
