<?xml version="1.0" encoding="utf-8"?>
<svg xmlns="http://www.w3.org/2000/svg" xmlns:xlink="http://www.w3.org/1999/xlink" width="600" height="400" viewBox="0 0 2400 1600">
<defs>
  <clipPath id="clip100">
    <rect x="0" y="0" width="2400" height="1600"/>
  </clipPath>
</defs>
<path clip-path="url(#clip100)" d="M0 1600 L2400 1600 L2400 0 L0 0  Z" fill="#ffffff" fill-rule="evenodd" fill-opacity="1"/>
<defs>
  <clipPath id="clip101">
    <rect x="480" y="0" width="1681" height="1600"/>
  </clipPath>
</defs>
<path clip-path="url(#clip100)" d="M186.274 1486.45 L2352.76 1486.45 L2352.76 47.2441 L186.274 47.2441  Z" fill="#ffffff" fill-rule="evenodd" fill-opacity="1"/>
<defs>
  <clipPath id="clip102">
    <rect x="186" y="47" width="2167" height="1440"/>
  </clipPath>
</defs>
<polyline clip-path="url(#clip102)" style="stroke:#000000; stroke-linecap:round; stroke-linejoin:round; stroke-width:2; stroke-opacity:0.1; fill:none" points="451.975,1486.45 451.975,47.2441 "/>
<polyline clip-path="url(#clip102)" style="stroke:#000000; stroke-linecap:round; stroke-linejoin:round; stroke-width:2; stroke-opacity:0.1; fill:none" points="860.745,1486.45 860.745,47.2441 "/>
<polyline clip-path="url(#clip102)" style="stroke:#000000; stroke-linecap:round; stroke-linejoin:round; stroke-width:2; stroke-opacity:0.1; fill:none" points="1269.51,1486.45 1269.51,47.2441 "/>
<polyline clip-path="url(#clip102)" style="stroke:#000000; stroke-linecap:round; stroke-linejoin:round; stroke-width:2; stroke-opacity:0.1; fill:none" points="1678.29,1486.45 1678.29,47.2441 "/>
<polyline clip-path="url(#clip102)" style="stroke:#000000; stroke-linecap:round; stroke-linejoin:round; stroke-width:2; stroke-opacity:0.1; fill:none" points="2087.06,1486.45 2087.06,47.2441 "/>
<polyline clip-path="url(#clip100)" style="stroke:#000000; stroke-linecap:round; stroke-linejoin:round; stroke-width:4; stroke-opacity:1; fill:none" points="186.274,1486.45 2352.76,1486.45 "/>
<polyline clip-path="url(#clip100)" style="stroke:#000000; stroke-linecap:round; stroke-linejoin:round; stroke-width:4; stroke-opacity:1; fill:none" points="451.975,1486.45 451.975,1467.55 "/>
<polyline clip-path="url(#clip100)" style="stroke:#000000; stroke-linecap:round; stroke-linejoin:round; stroke-width:4; stroke-opacity:1; fill:none" points="860.745,1486.45 860.745,1467.55 "/>
<polyline clip-path="url(#clip100)" style="stroke:#000000; stroke-linecap:round; stroke-linejoin:round; stroke-width:4; stroke-opacity:1; fill:none" points="1269.51,1486.45 1269.51,1467.55 "/>
<polyline clip-path="url(#clip100)" style="stroke:#000000; stroke-linecap:round; stroke-linejoin:round; stroke-width:4; stroke-opacity:1; fill:none" points="1678.29,1486.45 1678.29,1467.55 "/>
<polyline clip-path="url(#clip100)" style="stroke:#000000; stroke-linecap:round; stroke-linejoin:round; stroke-width:4; stroke-opacity:1; fill:none" points="2087.06,1486.45 2087.06,1467.55 "/>
<path clip-path="url(#clip100)" d="M446.627 1544.91 L462.947 1544.91 L462.947 1548.85 L441.002 1548.85 L441.002 1544.91 Q443.664 1542.16 448.248 1537.53 Q452.854 1532.88 454.035 1531.53 Q456.28 1529.01 457.16 1527.27 Q458.063 1525.51 458.063 1523.82 Q458.063 1521.07 456.118 1519.33 Q454.197 1517.6 451.095 1517.6 Q448.896 1517.6 446.442 1518.36 Q444.012 1519.13 441.234 1520.68 L441.234 1515.95 Q444.058 1514.82 446.512 1514.24 Q448.965 1513.66 451.002 1513.66 Q456.373 1513.66 459.567 1516.35 Q462.762 1519.03 462.762 1523.52 Q462.762 1525.65 461.951 1527.57 Q461.164 1529.47 459.058 1532.07 Q458.479 1532.74 455.377 1535.95 Q452.276 1539.15 446.627 1544.91 Z" fill="#000000" fill-rule="evenodd" fill-opacity="1" /><path clip-path="url(#clip100)" d="M863.754 1518.36 L851.949 1536.81 L863.754 1536.81 L863.754 1518.36 M862.527 1514.29 L868.407 1514.29 L868.407 1536.81 L873.337 1536.81 L873.337 1540.7 L868.407 1540.7 L868.407 1548.85 L863.754 1548.85 L863.754 1540.7 L848.152 1540.7 L848.152 1536.19 L862.527 1514.29 Z" fill="#000000" fill-rule="evenodd" fill-opacity="1" /><path clip-path="url(#clip100)" d="M1269.92 1529.7 Q1266.77 1529.7 1264.92 1531.86 Q1263.09 1534.01 1263.09 1537.76 Q1263.09 1541.49 1264.92 1543.66 Q1266.77 1545.82 1269.92 1545.82 Q1273.07 1545.82 1274.9 1543.66 Q1276.75 1541.49 1276.75 1537.76 Q1276.75 1534.01 1274.9 1531.86 Q1273.07 1529.7 1269.92 1529.7 M1279.2 1515.05 L1279.2 1519.31 Q1277.44 1518.48 1275.64 1518.04 Q1273.86 1517.6 1272.1 1517.6 Q1267.47 1517.6 1265.01 1520.72 Q1262.58 1523.85 1262.23 1530.17 Q1263.6 1528.15 1265.66 1527.09 Q1267.72 1526 1270.2 1526 Q1275.41 1526 1278.42 1529.17 Q1281.45 1532.32 1281.45 1537.76 Q1281.45 1543.08 1278.3 1546.3 Q1275.15 1549.52 1269.92 1549.52 Q1263.92 1549.52 1260.75 1544.94 Q1257.58 1540.33 1257.58 1531.6 Q1257.58 1523.41 1261.47 1518.55 Q1265.36 1513.66 1271.91 1513.66 Q1273.67 1513.66 1275.45 1514.01 Q1277.26 1514.36 1279.2 1515.05 Z" fill="#000000" fill-rule="evenodd" fill-opacity="1" /><path clip-path="url(#clip100)" d="M1678.29 1532.44 Q1674.95 1532.44 1673.03 1534.22 Q1671.13 1536 1671.13 1539.13 Q1671.13 1542.25 1673.03 1544.03 Q1674.95 1545.82 1678.29 1545.82 Q1681.62 1545.82 1683.54 1544.03 Q1685.46 1542.23 1685.46 1539.13 Q1685.46 1536 1683.54 1534.22 Q1681.64 1532.44 1678.29 1532.44 M1673.61 1530.45 Q1670.6 1529.7 1668.91 1527.64 Q1667.24 1525.58 1667.24 1522.62 Q1667.24 1518.48 1670.18 1516.07 Q1673.15 1513.66 1678.29 1513.66 Q1683.45 1513.66 1686.39 1516.07 Q1689.33 1518.48 1689.33 1522.62 Q1689.33 1525.58 1687.64 1527.64 Q1685.97 1529.7 1682.98 1530.45 Q1686.36 1531.23 1688.24 1533.52 Q1690.14 1535.82 1690.14 1539.13 Q1690.14 1544.15 1687.06 1546.83 Q1684 1549.52 1678.29 1549.52 Q1672.57 1549.52 1669.49 1546.83 Q1666.43 1544.15 1666.43 1539.13 Q1666.43 1535.82 1668.33 1533.52 Q1670.23 1531.23 1673.61 1530.45 M1671.9 1523.06 Q1671.9 1525.75 1673.56 1527.25 Q1675.25 1528.76 1678.29 1528.76 Q1681.29 1528.76 1682.98 1527.25 Q1684.7 1525.75 1684.7 1523.06 Q1684.7 1520.38 1682.98 1518.87 Q1681.29 1517.37 1678.29 1517.37 Q1675.25 1517.37 1673.56 1518.87 Q1671.9 1520.38 1671.9 1523.06 Z" fill="#000000" fill-rule="evenodd" fill-opacity="1" /><path clip-path="url(#clip100)" d="M2061.74 1544.91 L2069.38 1544.91 L2069.38 1518.55 L2061.07 1520.21 L2061.07 1515.95 L2069.34 1514.29 L2074.01 1514.29 L2074.01 1544.91 L2081.65 1544.91 L2081.65 1548.85 L2061.74 1548.85 L2061.74 1544.91 Z" fill="#000000" fill-rule="evenodd" fill-opacity="1" /><path clip-path="url(#clip100)" d="M2101.09 1517.37 Q2097.48 1517.37 2095.65 1520.93 Q2093.85 1524.47 2093.85 1531.6 Q2093.85 1538.71 2095.65 1542.27 Q2097.48 1545.82 2101.09 1545.82 Q2104.73 1545.82 2106.53 1542.27 Q2108.36 1538.71 2108.36 1531.6 Q2108.36 1524.47 2106.53 1520.93 Q2104.73 1517.37 2101.09 1517.37 M2101.09 1513.66 Q2106.9 1513.66 2109.96 1518.27 Q2113.04 1522.85 2113.04 1531.6 Q2113.04 1540.33 2109.96 1544.94 Q2106.9 1549.52 2101.09 1549.52 Q2095.28 1549.52 2092.21 1544.94 Q2089.15 1540.33 2089.15 1531.6 Q2089.15 1522.85 2092.21 1518.27 Q2095.28 1513.66 2101.09 1513.66 Z" fill="#000000" fill-rule="evenodd" fill-opacity="1" /><polyline clip-path="url(#clip102)" style="stroke:#000000; stroke-linecap:round; stroke-linejoin:round; stroke-width:2; stroke-opacity:0.1; fill:none" points="186.274,1390.17 2352.76,1390.17 "/>
<polyline clip-path="url(#clip102)" style="stroke:#000000; stroke-linecap:round; stroke-linejoin:round; stroke-width:2; stroke-opacity:0.1; fill:none" points="186.274,1064.62 2352.76,1064.62 "/>
<polyline clip-path="url(#clip102)" style="stroke:#000000; stroke-linecap:round; stroke-linejoin:round; stroke-width:2; stroke-opacity:0.1; fill:none" points="186.274,739.071 2352.76,739.071 "/>
<polyline clip-path="url(#clip102)" style="stroke:#000000; stroke-linecap:round; stroke-linejoin:round; stroke-width:2; stroke-opacity:0.1; fill:none" points="186.274,413.524 2352.76,413.524 "/>
<polyline clip-path="url(#clip102)" style="stroke:#000000; stroke-linecap:round; stroke-linejoin:round; stroke-width:2; stroke-opacity:0.1; fill:none" points="186.274,87.9763 2352.76,87.9763 "/>
<polyline clip-path="url(#clip100)" style="stroke:#000000; stroke-linecap:round; stroke-linejoin:round; stroke-width:4; stroke-opacity:1; fill:none" points="186.274,1486.45 186.274,47.2441 "/>
<polyline clip-path="url(#clip100)" style="stroke:#000000; stroke-linecap:round; stroke-linejoin:round; stroke-width:4; stroke-opacity:1; fill:none" points="186.274,1390.17 205.172,1390.17 "/>
<polyline clip-path="url(#clip100)" style="stroke:#000000; stroke-linecap:round; stroke-linejoin:round; stroke-width:4; stroke-opacity:1; fill:none" points="186.274,1064.62 205.172,1064.62 "/>
<polyline clip-path="url(#clip100)" style="stroke:#000000; stroke-linecap:round; stroke-linejoin:round; stroke-width:4; stroke-opacity:1; fill:none" points="186.274,739.071 205.172,739.071 "/>
<polyline clip-path="url(#clip100)" style="stroke:#000000; stroke-linecap:round; stroke-linejoin:round; stroke-width:4; stroke-opacity:1; fill:none" points="186.274,413.524 205.172,413.524 "/>
<polyline clip-path="url(#clip100)" style="stroke:#000000; stroke-linecap:round; stroke-linejoin:round; stroke-width:4; stroke-opacity:1; fill:none" points="186.274,87.9763 205.172,87.9763 "/>
<path clip-path="url(#clip100)" d="M62.9365 1375.96 Q59.3254 1375.96 57.4967 1379.53 Q55.6912 1383.07 55.6912 1390.2 Q55.6912 1397.31 57.4967 1400.87 Q59.3254 1404.41 62.9365 1404.41 Q66.5707 1404.41 68.3763 1400.87 Q70.205 1397.31 70.205 1390.2 Q70.205 1383.07 68.3763 1379.53 Q66.5707 1375.96 62.9365 1375.96 M62.9365 1372.26 Q68.7467 1372.26 71.8022 1376.87 Q74.8809 1381.45 74.8809 1390.2 Q74.8809 1398.93 71.8022 1403.53 Q68.7467 1408.12 62.9365 1408.12 Q57.1264 1408.12 54.0477 1403.53 Q50.9921 1398.93 50.9921 1390.2 Q50.9921 1381.45 54.0477 1376.87 Q57.1264 1372.26 62.9365 1372.26 Z" fill="#000000" fill-rule="evenodd" fill-opacity="1" /><path clip-path="url(#clip100)" d="M83.0984 1401.57 L87.9827 1401.57 L87.9827 1407.45 L83.0984 1407.45 L83.0984 1401.57 Z" fill="#000000" fill-rule="evenodd" fill-opacity="1" /><path clip-path="url(#clip100)" d="M108.168 1375.96 Q104.557 1375.96 102.728 1379.53 Q100.922 1383.07 100.922 1390.2 Q100.922 1397.31 102.728 1400.87 Q104.557 1404.41 108.168 1404.41 Q111.802 1404.41 113.608 1400.87 Q115.436 1397.31 115.436 1390.2 Q115.436 1383.07 113.608 1379.53 Q111.802 1375.96 108.168 1375.96 M108.168 1372.26 Q113.978 1372.26 117.033 1376.87 Q120.112 1381.45 120.112 1390.2 Q120.112 1398.93 117.033 1403.53 Q113.978 1408.12 108.168 1408.12 Q102.358 1408.12 99.2789 1403.53 Q96.2234 1398.93 96.2234 1390.2 Q96.2234 1381.45 99.2789 1376.87 Q102.358 1372.26 108.168 1372.26 Z" fill="#000000" fill-rule="evenodd" fill-opacity="1" /><path clip-path="url(#clip100)" d="M138.33 1375.96 Q134.719 1375.96 132.89 1379.53 Q131.084 1383.07 131.084 1390.2 Q131.084 1397.31 132.89 1400.87 Q134.719 1404.41 138.33 1404.41 Q141.964 1404.41 143.769 1400.87 Q145.598 1397.31 145.598 1390.2 Q145.598 1383.07 143.769 1379.53 Q141.964 1375.96 138.33 1375.96 M138.33 1372.26 Q144.14 1372.26 147.195 1376.87 Q150.274 1381.45 150.274 1390.2 Q150.274 1398.93 147.195 1403.53 Q144.14 1408.12 138.33 1408.12 Q132.519 1408.12 129.441 1403.53 Q126.385 1398.93 126.385 1390.2 Q126.385 1381.45 129.441 1376.87 Q132.519 1372.26 138.33 1372.26 Z" fill="#000000" fill-rule="evenodd" fill-opacity="1" /><path clip-path="url(#clip100)" d="M63.9319 1050.42 Q60.3208 1050.42 58.4921 1053.98 Q56.6865 1057.52 56.6865 1064.65 Q56.6865 1071.76 58.4921 1075.32 Q60.3208 1078.87 63.9319 1078.87 Q67.5661 1078.87 69.3717 1075.32 Q71.2004 1071.76 71.2004 1064.65 Q71.2004 1057.52 69.3717 1053.98 Q67.5661 1050.42 63.9319 1050.42 M63.9319 1046.71 Q69.742 1046.71 72.7976 1051.32 Q75.8763 1055.9 75.8763 1064.65 Q75.8763 1073.38 72.7976 1077.99 Q69.742 1082.57 63.9319 1082.57 Q58.1217 1082.57 55.043 1077.99 Q51.9875 1073.38 51.9875 1064.65 Q51.9875 1055.9 55.043 1051.32 Q58.1217 1046.71 63.9319 1046.71 Z" fill="#000000" fill-rule="evenodd" fill-opacity="1" /><path clip-path="url(#clip100)" d="M84.0938 1076.02 L88.978 1076.02 L88.978 1081.9 L84.0938 1081.9 L84.0938 1076.02 Z" fill="#000000" fill-rule="evenodd" fill-opacity="1" /><path clip-path="url(#clip100)" d="M103.191 1077.96 L119.51 1077.96 L119.51 1081.9 L97.566 1081.9 L97.566 1077.96 Q100.228 1075.21 104.811 1070.58 Q109.418 1065.93 110.598 1064.58 Q112.844 1062.06 113.723 1060.32 Q114.626 1058.57 114.626 1056.88 Q114.626 1054.12 112.682 1052.38 Q110.76 1050.65 107.658 1050.65 Q105.459 1050.65 103.006 1051.41 Q100.575 1052.18 97.7974 1053.73 L97.7974 1049.01 Q100.621 1047.87 103.075 1047.29 Q105.529 1046.71 107.566 1046.71 Q112.936 1046.71 116.131 1049.4 Q119.325 1052.08 119.325 1056.57 Q119.325 1058.7 118.515 1060.63 Q117.728 1062.52 115.621 1065.12 Q115.043 1065.79 111.941 1069 Q108.839 1072.2 103.191 1077.96 Z" fill="#000000" fill-rule="evenodd" fill-opacity="1" /><path clip-path="url(#clip100)" d="M129.371 1047.34 L147.728 1047.34 L147.728 1051.27 L133.654 1051.27 L133.654 1059.75 Q134.672 1059.4 135.691 1059.24 Q136.709 1059.05 137.728 1059.05 Q143.515 1059.05 146.894 1062.22 Q150.274 1065.39 150.274 1070.81 Q150.274 1076.39 146.802 1079.49 Q143.33 1082.57 137.01 1082.57 Q134.834 1082.57 132.566 1082.2 Q130.32 1081.83 127.913 1081.09 L127.913 1076.39 Q129.996 1077.52 132.219 1078.08 Q134.441 1078.63 136.918 1078.63 Q140.922 1078.63 143.26 1076.53 Q145.598 1074.42 145.598 1070.81 Q145.598 1067.2 143.26 1065.09 Q140.922 1062.99 136.918 1062.99 Q135.043 1062.99 133.168 1063.4 Q131.316 1063.82 129.371 1064.7 L129.371 1047.34 Z" fill="#000000" fill-rule="evenodd" fill-opacity="1" /><path clip-path="url(#clip100)" d="M62.9365 724.87 Q59.3254 724.87 57.4967 728.435 Q55.6912 731.976 55.6912 739.106 Q55.6912 746.212 57.4967 749.777 Q59.3254 753.319 62.9365 753.319 Q66.5707 753.319 68.3763 749.777 Q70.205 746.212 70.205 739.106 Q70.205 731.976 68.3763 728.435 Q66.5707 724.87 62.9365 724.87 M62.9365 721.166 Q68.7467 721.166 71.8022 725.773 Q74.8809 730.356 74.8809 739.106 Q74.8809 747.833 71.8022 752.439 Q68.7467 757.022 62.9365 757.022 Q57.1264 757.022 54.0477 752.439 Q50.9921 747.833 50.9921 739.106 Q50.9921 730.356 54.0477 725.773 Q57.1264 721.166 62.9365 721.166 Z" fill="#000000" fill-rule="evenodd" fill-opacity="1" /><path clip-path="url(#clip100)" d="M83.0984 750.471 L87.9827 750.471 L87.9827 756.351 L83.0984 756.351 L83.0984 750.471 Z" fill="#000000" fill-rule="evenodd" fill-opacity="1" /><path clip-path="url(#clip100)" d="M98.2141 721.791 L116.57 721.791 L116.57 725.726 L102.496 725.726 L102.496 734.198 Q103.515 733.851 104.534 733.689 Q105.552 733.504 106.571 733.504 Q112.358 733.504 115.737 736.675 Q119.117 739.847 119.117 745.263 Q119.117 750.842 115.645 753.944 Q112.172 757.022 105.853 757.022 Q103.677 757.022 101.409 756.652 Q99.1632 756.282 96.7558 755.541 L96.7558 750.842 Q98.8391 751.976 101.061 752.532 Q103.284 753.087 105.76 753.087 Q109.765 753.087 112.103 750.981 Q114.441 748.874 114.441 745.263 Q114.441 741.652 112.103 739.546 Q109.765 737.439 105.76 737.439 Q103.885 737.439 102.01 737.856 Q100.159 738.272 98.2141 739.152 L98.2141 721.791 Z" fill="#000000" fill-rule="evenodd" fill-opacity="1" /><path clip-path="url(#clip100)" d="M138.33 724.87 Q134.719 724.87 132.89 728.435 Q131.084 731.976 131.084 739.106 Q131.084 746.212 132.89 749.777 Q134.719 753.319 138.33 753.319 Q141.964 753.319 143.769 749.777 Q145.598 746.212 145.598 739.106 Q145.598 731.976 143.769 728.435 Q141.964 724.87 138.33 724.87 M138.33 721.166 Q144.14 721.166 147.195 725.773 Q150.274 730.356 150.274 739.106 Q150.274 747.833 147.195 752.439 Q144.14 757.022 138.33 757.022 Q132.519 757.022 129.441 752.439 Q126.385 747.833 126.385 739.106 Q126.385 730.356 129.441 725.773 Q132.519 721.166 138.33 721.166 Z" fill="#000000" fill-rule="evenodd" fill-opacity="1" /><path clip-path="url(#clip100)" d="M63.9319 399.322 Q60.3208 399.322 58.4921 402.887 Q56.6865 406.429 56.6865 413.558 Q56.6865 420.665 58.4921 424.23 Q60.3208 427.771 63.9319 427.771 Q67.5661 427.771 69.3717 424.23 Q71.2004 420.665 71.2004 413.558 Q71.2004 406.429 69.3717 402.887 Q67.5661 399.322 63.9319 399.322 M63.9319 395.619 Q69.742 395.619 72.7976 400.225 Q75.8763 404.808 75.8763 413.558 Q75.8763 422.285 72.7976 426.892 Q69.742 431.475 63.9319 431.475 Q58.1217 431.475 55.043 426.892 Q51.9875 422.285 51.9875 413.558 Q51.9875 404.808 55.043 400.225 Q58.1217 395.619 63.9319 395.619 Z" fill="#000000" fill-rule="evenodd" fill-opacity="1" /><path clip-path="url(#clip100)" d="M84.0938 424.924 L88.978 424.924 L88.978 430.804 L84.0938 430.804 L84.0938 424.924 Z" fill="#000000" fill-rule="evenodd" fill-opacity="1" /><path clip-path="url(#clip100)" d="M97.9826 396.244 L120.205 396.244 L120.205 398.234 L107.658 430.804 L102.774 430.804 L114.58 400.179 L97.9826 400.179 L97.9826 396.244 Z" fill="#000000" fill-rule="evenodd" fill-opacity="1" /><path clip-path="url(#clip100)" d="M129.371 396.244 L147.728 396.244 L147.728 400.179 L133.654 400.179 L133.654 408.651 Q134.672 408.304 135.691 408.142 Q136.709 407.957 137.728 407.957 Q143.515 407.957 146.894 411.128 Q150.274 414.299 150.274 419.716 Q150.274 425.294 146.802 428.396 Q143.33 431.475 137.01 431.475 Q134.834 431.475 132.566 431.105 Q130.32 430.734 127.913 429.993 L127.913 425.294 Q129.996 426.429 132.219 426.984 Q134.441 427.54 136.918 427.54 Q140.922 427.54 143.26 425.433 Q145.598 423.327 145.598 419.716 Q145.598 416.105 143.26 413.998 Q140.922 411.892 136.918 411.892 Q135.043 411.892 133.168 412.308 Q131.316 412.725 129.371 413.605 L129.371 396.244 Z" fill="#000000" fill-rule="evenodd" fill-opacity="1" /><path clip-path="url(#clip100)" d="M53.7467 101.321 L61.3856 101.321 L61.3856 74.9555 L53.0754 76.6222 L53.0754 72.3629 L61.3393 70.6963 L66.0152 70.6963 L66.0152 101.321 L73.654 101.321 L73.654 105.256 L53.7467 105.256 L53.7467 101.321 Z" fill="#000000" fill-rule="evenodd" fill-opacity="1" /><path clip-path="url(#clip100)" d="M83.0984 99.3767 L87.9827 99.3767 L87.9827 105.256 L83.0984 105.256 L83.0984 99.3767 Z" fill="#000000" fill-rule="evenodd" fill-opacity="1" /><path clip-path="url(#clip100)" d="M108.168 73.775 Q104.557 73.775 102.728 77.3398 Q100.922 80.8814 100.922 88.011 Q100.922 95.1174 102.728 98.6822 Q104.557 102.224 108.168 102.224 Q111.802 102.224 113.608 98.6822 Q115.436 95.1174 115.436 88.011 Q115.436 80.8814 113.608 77.3398 Q111.802 73.775 108.168 73.775 M108.168 70.0713 Q113.978 70.0713 117.033 74.6777 Q120.112 79.261 120.112 88.011 Q120.112 96.7378 117.033 101.344 Q113.978 105.928 108.168 105.928 Q102.358 105.928 99.2789 101.344 Q96.2234 96.7378 96.2234 88.011 Q96.2234 79.261 99.2789 74.6777 Q102.358 70.0713 108.168 70.0713 Z" fill="#000000" fill-rule="evenodd" fill-opacity="1" /><path clip-path="url(#clip100)" d="M138.33 73.775 Q134.719 73.775 132.89 77.3398 Q131.084 80.8814 131.084 88.011 Q131.084 95.1174 132.89 98.6822 Q134.719 102.224 138.33 102.224 Q141.964 102.224 143.769 98.6822 Q145.598 95.1174 145.598 88.011 Q145.598 80.8814 143.769 77.3398 Q141.964 73.775 138.33 73.775 M138.33 70.0713 Q144.14 70.0713 147.195 74.6777 Q150.274 79.261 150.274 88.011 Q150.274 96.7378 147.195 101.344 Q144.14 105.928 138.33 105.928 Q132.519 105.928 129.441 101.344 Q126.385 96.7378 126.385 88.011 Q126.385 79.261 129.441 74.6777 Q132.519 70.0713 138.33 70.0713 Z" fill="#000000" fill-rule="evenodd" fill-opacity="1" /><polyline clip-path="url(#clip102)" style="stroke:#009af9; stroke-linecap:round; stroke-linejoin:round; stroke-width:12; stroke-opacity:1; fill:none" points="247.59,87.9763 451.975,673.959 656.36,804.623 860.745,861.34 1065.13,911.698 1269.51,948.481 1473.9,964.464 1678.29,978.424 1882.67,995.427 2087.06,1023.96 2291.44,1036.03 "/>
<polyline clip-path="url(#clip102)" style="stroke:#e26f46; stroke-linecap:round; stroke-linejoin:round; stroke-width:12; stroke-opacity:1; fill:none" points="247.59,87.9763 451.975,956.9 656.36,1176.67 860.745,1313.43 1065.13,1364.73 1269.51,1412.4 1473.9,1445.72 1678.29,1441.85 1882.67,1414.83 2087.06,1403.67 2291.44,1386.06 "/>
<polyline clip-path="url(#clip102)" style="stroke:#3da44d; stroke-linecap:round; stroke-linejoin:round; stroke-width:12; stroke-opacity:1; fill:none" points="247.59,87.9763 451.975,931.827 656.36,1183.94 860.745,1328.52 1065.13,1374.56 1269.51,1373.37 1473.9,1362.88 1678.29,1342.2 1882.67,1352.31 2087.06,1354.61 2291.44,1372.52 "/>
<polyline clip-path="url(#clip102)" style="stroke:#c271d2; stroke-linecap:round; stroke-linejoin:round; stroke-width:12; stroke-opacity:1; fill:none" points="247.59,87.9763 451.975,1101.73 656.36,1245.91 860.745,1298.76 1065.13,1354.44 1269.51,1362.12 1473.9,1363.63 1678.29,1358.73 1882.67,1379.79 2087.06,1369.44 2291.44,1400.71 "/>
<path clip-path="url(#clip100)" d="M1885.81 354.418 L2280.54 354.418 L2280.54 95.2176 L1885.81 95.2176  Z" fill="#ffffff" fill-rule="evenodd" fill-opacity="1"/>
<polyline clip-path="url(#clip100)" style="stroke:#000000; stroke-linecap:round; stroke-linejoin:round; stroke-width:4; stroke-opacity:1; fill:none" points="1885.81,354.418 2280.54,354.418 2280.54,95.2176 1885.81,95.2176 1885.81,354.418 "/>
<polyline clip-path="url(#clip100)" style="stroke:#009af9; stroke-linecap:round; stroke-linejoin:round; stroke-width:12; stroke-opacity:1; fill:none" points="1909.89,147.058 2054.32,147.058 "/>
<path clip-path="url(#clip100)" d="M2078.39 129.778 L2083.07 129.778 L2083.07 143.944 L2100.06 143.944 L2100.06 129.778 L2104.73 129.778 L2104.73 164.338 L2100.06 164.338 L2100.06 147.879 L2083.07 147.879 L2083.07 164.338 L2078.39 164.338 L2078.39 129.778 Z" fill="#000000" fill-rule="evenodd" fill-opacity="1" /><path clip-path="url(#clip100)" d="M2114.04 129.778 L2121.01 129.778 L2129.82 153.296 L2138.69 129.778 L2145.66 129.778 L2145.66 164.338 L2141.1 164.338 L2141.1 133.99 L2132.19 157.694 L2127.49 157.694 L2118.58 133.99 L2118.58 164.338 L2114.04 164.338 L2114.04 129.778 Z" fill="#000000" fill-rule="evenodd" fill-opacity="1" /><path clip-path="url(#clip100)" d="M2180.82 132.44 L2180.82 137.37 Q2178.46 135.171 2175.77 134.083 Q2173.11 132.995 2170.1 132.995 Q2164.18 132.995 2161.03 136.629 Q2157.88 140.24 2157.88 147.092 Q2157.88 153.921 2161.03 157.555 Q2164.18 161.166 2170.1 161.166 Q2173.11 161.166 2175.77 160.078 Q2178.46 158.99 2180.82 156.791 L2180.82 161.676 Q2178.37 163.342 2175.61 164.176 Q2172.88 165.009 2169.82 165.009 Q2161.98 165.009 2157.46 160.217 Q2152.95 155.402 2152.95 147.092 Q2152.95 138.759 2157.46 133.967 Q2161.98 129.153 2169.82 129.153 Q2172.93 129.153 2175.66 129.986 Q2178.41 130.796 2180.82 132.44 Z" fill="#000000" fill-rule="evenodd" fill-opacity="1" /><polyline clip-path="url(#clip100)" style="stroke:#e26f46; stroke-linecap:round; stroke-linejoin:round; stroke-width:12; stroke-opacity:1; fill:none" points="1909.89,198.898 2054.32,198.898 "/>
<path clip-path="url(#clip100)" d="M2078.39 181.618 L2083.07 181.618 L2083.07 195.784 L2100.06 195.784 L2100.06 181.618 L2104.73 181.618 L2104.73 216.178 L2100.06 216.178 L2100.06 199.719 L2083.07 199.719 L2083.07 216.178 L2078.39 216.178 L2078.39 181.618 Z" fill="#000000" fill-rule="evenodd" fill-opacity="1" /><path clip-path="url(#clip100)" d="M2125.64 203.145 Q2120.47 203.145 2118.48 204.326 Q2116.49 205.506 2116.49 208.354 Q2116.49 210.622 2117.97 211.965 Q2119.48 213.284 2122.05 213.284 Q2125.59 213.284 2127.72 210.784 Q2129.87 208.261 2129.87 204.094 L2129.87 203.145 L2125.64 203.145 M2134.13 201.386 L2134.13 216.178 L2129.87 216.178 L2129.87 212.242 Q2128.41 214.603 2126.24 215.738 Q2124.06 216.849 2120.91 216.849 Q2116.93 216.849 2114.57 214.627 Q2112.23 212.381 2112.23 208.631 Q2112.23 204.256 2115.15 202.034 Q2118.09 199.812 2123.9 199.812 L2129.87 199.812 L2129.87 199.395 Q2129.87 196.455 2127.93 194.858 Q2126.01 193.238 2122.51 193.238 Q2120.29 193.238 2118.18 193.77 Q2116.08 194.303 2114.13 195.367 L2114.13 191.432 Q2116.47 190.53 2118.67 190.09 Q2120.87 189.627 2122.95 189.627 Q2128.57 189.627 2131.35 192.543 Q2134.13 195.46 2134.13 201.386 Z" fill="#000000" fill-rule="evenodd" fill-opacity="1" /><path clip-path="url(#clip100)" d="M2159.48 199.974 Q2160.98 200.483 2162.39 202.15 Q2163.83 203.817 2165.26 206.733 L2170.01 216.178 L2164.99 216.178 L2160.57 207.312 Q2158.85 203.84 2157.23 202.705 Q2155.64 201.571 2152.86 201.571 L2147.76 201.571 L2147.76 216.178 L2143.09 216.178 L2143.09 181.618 L2153.64 181.618 Q2159.57 181.618 2162.49 184.094 Q2165.4 186.571 2165.4 191.571 Q2165.4 194.835 2163.88 196.988 Q2162.37 199.141 2159.48 199.974 M2147.76 185.46 L2147.76 197.729 L2153.64 197.729 Q2157.02 197.729 2158.74 196.178 Q2160.47 194.604 2160.47 191.571 Q2160.47 188.539 2158.74 187.011 Q2157.02 185.46 2153.64 185.46 L2147.76 185.46 Z" fill="#000000" fill-rule="evenodd" fill-opacity="1" /><path clip-path="url(#clip100)" d="M2185.66 186.224 L2179.32 203.423 L2192.02 203.423 L2185.66 186.224 M2183.02 181.618 L2188.32 181.618 L2201.49 216.178 L2196.63 216.178 L2193.48 207.312 L2177.9 207.312 L2174.76 216.178 L2169.82 216.178 L2183.02 181.618 Z" fill="#000000" fill-rule="evenodd" fill-opacity="1" /><path clip-path="url(#clip100)" d="M2206.54 181.618 L2213.51 181.618 L2222.32 205.136 L2231.19 181.618 L2238.16 181.618 L2238.16 216.178 L2233.6 216.178 L2233.6 185.83 L2224.69 209.534 L2219.99 209.534 L2211.07 185.83 L2211.07 216.178 L2206.54 216.178 L2206.54 181.618 Z" fill="#000000" fill-rule="evenodd" fill-opacity="1" /><polyline clip-path="url(#clip100)" style="stroke:#3da44d; stroke-linecap:round; stroke-linejoin:round; stroke-width:12; stroke-opacity:1; fill:none" points="1909.89,250.738 2054.32,250.738 "/>
<path clip-path="url(#clip100)" d="M2094.78 251.814 Q2096.28 252.323 2097.7 253.99 Q2099.13 255.657 2100.57 258.573 L2105.31 268.018 L2100.29 268.018 L2095.87 259.152 Q2094.15 255.68 2092.53 254.545 Q2090.94 253.411 2088.16 253.411 L2083.07 253.411 L2083.07 268.018 L2078.39 268.018 L2078.39 233.458 L2088.95 233.458 Q2094.87 233.458 2097.79 235.934 Q2100.7 238.411 2100.7 243.411 Q2100.7 246.675 2099.18 248.828 Q2097.67 250.981 2094.78 251.814 M2083.07 237.3 L2083.07 249.569 L2088.95 249.569 Q2092.33 249.569 2094.04 248.018 Q2095.77 246.444 2095.77 243.411 Q2095.77 240.379 2094.04 238.851 Q2092.33 237.3 2088.95 237.3 L2083.07 237.3 Z" fill="#000000" fill-rule="evenodd" fill-opacity="1" /><path clip-path="url(#clip100)" d="M2120.96 238.064 L2114.62 255.263 L2127.32 255.263 L2120.96 238.064 M2118.32 233.458 L2123.62 233.458 L2136.79 268.018 L2131.93 268.018 L2128.78 259.152 L2113.2 259.152 L2110.06 268.018 L2105.13 268.018 L2118.32 233.458 Z" fill="#000000" fill-rule="evenodd" fill-opacity="1" /><path clip-path="url(#clip100)" d="M2141.84 233.458 L2148.81 233.458 L2157.63 256.976 L2166.49 233.458 L2173.46 233.458 L2173.46 268.018 L2168.9 268.018 L2168.9 237.67 L2159.99 261.374 L2155.29 261.374 L2146.38 237.67 L2146.38 268.018 L2141.84 268.018 L2141.84 233.458 Z" fill="#000000" fill-rule="evenodd" fill-opacity="1" /><polyline clip-path="url(#clip100)" style="stroke:#c271d2; stroke-linecap:round; stroke-linejoin:round; stroke-width:12; stroke-opacity:1; fill:none" points="1909.89,302.578 2054.32,302.578 "/>
<path clip-path="url(#clip100)" d="M2083.07 289.14 L2083.07 302.126 L2088.95 302.126 Q2092.21 302.126 2093.99 300.436 Q2095.77 298.747 2095.77 295.622 Q2095.77 292.52 2093.99 290.83 Q2092.21 289.14 2088.95 289.14 L2083.07 289.14 M2078.39 285.298 L2088.95 285.298 Q2094.76 285.298 2097.72 287.936 Q2100.7 290.552 2100.7 295.622 Q2100.7 300.737 2097.72 303.353 Q2094.76 305.969 2088.95 305.969 L2083.07 305.969 L2083.07 319.858 L2078.39 319.858 L2078.39 285.298 Z" fill="#000000" fill-rule="evenodd" fill-opacity="1" /><path clip-path="url(#clip100)" d="M2106.98 285.298 L2128.83 285.298 L2128.83 289.233 L2111.65 289.233 L2111.65 299.464 L2128.11 299.464 L2128.11 303.399 L2111.65 303.399 L2111.65 315.922 L2129.25 315.922 L2129.25 319.858 L2106.98 319.858 L2106.98 285.298 Z" fill="#000000" fill-rule="evenodd" fill-opacity="1" /><path clip-path="url(#clip100)" d="M2134.59 304.973 L2147.07 304.973 L2147.07 308.77 L2134.59 308.77 L2134.59 304.973 Z" fill="#000000" fill-rule="evenodd" fill-opacity="1" /><path clip-path="url(#clip100)" d="M2154.04 285.298 L2158.71 285.298 L2158.71 299.464 L2175.7 299.464 L2175.7 285.298 L2180.38 285.298 L2180.38 319.858 L2175.7 319.858 L2175.7 303.399 L2158.71 303.399 L2158.71 319.858 L2154.04 319.858 L2154.04 285.298 Z" fill="#000000" fill-rule="evenodd" fill-opacity="1" /><path clip-path="url(#clip100)" d="M2189.69 285.298 L2196.65 285.298 L2205.47 308.816 L2214.34 285.298 L2221.31 285.298 L2221.31 319.858 L2216.75 319.858 L2216.75 289.51 L2207.83 313.214 L2203.13 313.214 L2194.22 289.51 L2194.22 319.858 L2189.69 319.858 L2189.69 285.298 Z" fill="#000000" fill-rule="evenodd" fill-opacity="1" /><path clip-path="url(#clip100)" d="M2256.47 287.96 L2256.47 292.89 Q2254.11 290.691 2251.42 289.603 Q2248.76 288.515 2245.75 288.515 Q2239.82 288.515 2236.68 292.149 Q2233.53 295.76 2233.53 302.612 Q2233.53 309.441 2236.68 313.075 Q2239.82 316.686 2245.75 316.686 Q2248.76 316.686 2251.42 315.598 Q2254.11 314.51 2256.47 312.311 L2256.47 317.196 Q2254.01 318.862 2251.26 319.696 Q2248.53 320.529 2245.47 320.529 Q2237.63 320.529 2233.11 315.737 Q2228.6 310.922 2228.6 302.612 Q2228.6 294.279 2233.11 289.487 Q2237.63 284.673 2245.47 284.673 Q2248.57 284.673 2251.31 285.506 Q2254.06 286.316 2256.47 287.96 Z" fill="#000000" fill-rule="evenodd" fill-opacity="1" /></svg>
