<?xml version="1.0" encoding="utf-8"?>
<svg xmlns="http://www.w3.org/2000/svg" xmlns:xlink="http://www.w3.org/1999/xlink" width="600" height="400" viewBox="0 0 2400 1600">
<defs>
  <clipPath id="clip800">
    <rect x="0" y="0" width="2400" height="1600"/>
  </clipPath>
</defs>
<path clip-path="url(#clip800)" d="M0 1600 L2400 1600 L2400 0 L0 0  Z" fill="#ffffff" fill-rule="evenodd" fill-opacity="1"/>
<defs>
  <clipPath id="clip801">
    <rect x="480" y="0" width="1681" height="1600"/>
  </clipPath>
</defs>
<path clip-path="url(#clip800)" d="M186.274 1486.45 L2352.76 1486.45 L2352.76 47.2441 L186.274 47.2441  Z" fill="#ffffff" fill-rule="evenodd" fill-opacity="1"/>
<defs>
  <clipPath id="clip802">
    <rect x="186" y="47" width="2167" height="1440"/>
  </clipPath>
</defs>
<polyline clip-path="url(#clip802)" style="stroke:#000000; stroke-linecap:round; stroke-linejoin:round; stroke-width:2; stroke-opacity:0.1; fill:none" points="451.975,1486.45 451.975,47.2441 "/>
<polyline clip-path="url(#clip802)" style="stroke:#000000; stroke-linecap:round; stroke-linejoin:round; stroke-width:2; stroke-opacity:0.1; fill:none" points="860.745,1486.45 860.745,47.2441 "/>
<polyline clip-path="url(#clip802)" style="stroke:#000000; stroke-linecap:round; stroke-linejoin:round; stroke-width:2; stroke-opacity:0.1; fill:none" points="1269.51,1486.45 1269.51,47.2441 "/>
<polyline clip-path="url(#clip802)" style="stroke:#000000; stroke-linecap:round; stroke-linejoin:round; stroke-width:2; stroke-opacity:0.1; fill:none" points="1678.29,1486.45 1678.29,47.2441 "/>
<polyline clip-path="url(#clip802)" style="stroke:#000000; stroke-linecap:round; stroke-linejoin:round; stroke-width:2; stroke-opacity:0.1; fill:none" points="2087.06,1486.45 2087.06,47.2441 "/>
<polyline clip-path="url(#clip800)" style="stroke:#000000; stroke-linecap:round; stroke-linejoin:round; stroke-width:4; stroke-opacity:1; fill:none" points="186.274,1486.45 2352.76,1486.45 "/>
<polyline clip-path="url(#clip800)" style="stroke:#000000; stroke-linecap:round; stroke-linejoin:round; stroke-width:4; stroke-opacity:1; fill:none" points="451.975,1486.45 451.975,1467.55 "/>
<polyline clip-path="url(#clip800)" style="stroke:#000000; stroke-linecap:round; stroke-linejoin:round; stroke-width:4; stroke-opacity:1; fill:none" points="860.745,1486.45 860.745,1467.55 "/>
<polyline clip-path="url(#clip800)" style="stroke:#000000; stroke-linecap:round; stroke-linejoin:round; stroke-width:4; stroke-opacity:1; fill:none" points="1269.51,1486.45 1269.51,1467.55 "/>
<polyline clip-path="url(#clip800)" style="stroke:#000000; stroke-linecap:round; stroke-linejoin:round; stroke-width:4; stroke-opacity:1; fill:none" points="1678.29,1486.45 1678.29,1467.55 "/>
<polyline clip-path="url(#clip800)" style="stroke:#000000; stroke-linecap:round; stroke-linejoin:round; stroke-width:4; stroke-opacity:1; fill:none" points="2087.06,1486.45 2087.06,1467.55 "/>
<path clip-path="url(#clip800)" d="M446.627 1544.91 L462.947 1544.91 L462.947 1548.85 L441.002 1548.85 L441.002 1544.91 Q443.664 1542.16 448.248 1537.53 Q452.854 1532.88 454.035 1531.53 Q456.28 1529.01 457.16 1527.27 Q458.063 1525.51 458.063 1523.82 Q458.063 1521.07 456.118 1519.33 Q454.197 1517.6 451.095 1517.6 Q448.896 1517.6 446.442 1518.36 Q444.012 1519.13 441.234 1520.68 L441.234 1515.95 Q444.058 1514.82 446.512 1514.24 Q448.965 1513.66 451.002 1513.66 Q456.373 1513.66 459.567 1516.35 Q462.762 1519.03 462.762 1523.52 Q462.762 1525.65 461.951 1527.57 Q461.164 1529.47 459.058 1532.07 Q458.479 1532.74 455.377 1535.95 Q452.276 1539.15 446.627 1544.91 Z" fill="#000000" fill-rule="evenodd" fill-opacity="1" /><path clip-path="url(#clip800)" d="M863.754 1518.36 L851.949 1536.81 L863.754 1536.81 L863.754 1518.36 M862.527 1514.29 L868.407 1514.29 L868.407 1536.81 L873.337 1536.81 L873.337 1540.7 L868.407 1540.7 L868.407 1548.85 L863.754 1548.85 L863.754 1540.7 L848.152 1540.7 L848.152 1536.19 L862.527 1514.29 Z" fill="#000000" fill-rule="evenodd" fill-opacity="1" /><path clip-path="url(#clip800)" d="M1269.92 1529.7 Q1266.77 1529.7 1264.92 1531.86 Q1263.09 1534.01 1263.09 1537.76 Q1263.09 1541.49 1264.92 1543.66 Q1266.77 1545.82 1269.92 1545.82 Q1273.07 1545.82 1274.9 1543.66 Q1276.75 1541.49 1276.75 1537.76 Q1276.75 1534.01 1274.9 1531.86 Q1273.07 1529.7 1269.92 1529.7 M1279.2 1515.05 L1279.2 1519.31 Q1277.44 1518.48 1275.64 1518.04 Q1273.86 1517.6 1272.1 1517.6 Q1267.47 1517.6 1265.01 1520.72 Q1262.58 1523.85 1262.23 1530.17 Q1263.6 1528.15 1265.66 1527.09 Q1267.72 1526 1270.2 1526 Q1275.41 1526 1278.42 1529.17 Q1281.45 1532.32 1281.45 1537.76 Q1281.45 1543.08 1278.3 1546.3 Q1275.15 1549.52 1269.92 1549.52 Q1263.92 1549.52 1260.75 1544.94 Q1257.58 1540.33 1257.58 1531.6 Q1257.58 1523.41 1261.47 1518.55 Q1265.36 1513.66 1271.91 1513.66 Q1273.67 1513.66 1275.45 1514.01 Q1277.26 1514.36 1279.2 1515.05 Z" fill="#000000" fill-rule="evenodd" fill-opacity="1" /><path clip-path="url(#clip800)" d="M1678.29 1532.44 Q1674.95 1532.44 1673.03 1534.22 Q1671.13 1536 1671.13 1539.13 Q1671.13 1542.25 1673.03 1544.03 Q1674.95 1545.82 1678.29 1545.82 Q1681.62 1545.82 1683.54 1544.03 Q1685.46 1542.23 1685.46 1539.13 Q1685.46 1536 1683.54 1534.22 Q1681.64 1532.44 1678.29 1532.44 M1673.61 1530.45 Q1670.6 1529.7 1668.91 1527.64 Q1667.24 1525.58 1667.24 1522.62 Q1667.24 1518.48 1670.18 1516.07 Q1673.15 1513.66 1678.29 1513.66 Q1683.45 1513.66 1686.39 1516.07 Q1689.33 1518.48 1689.33 1522.62 Q1689.33 1525.58 1687.64 1527.64 Q1685.97 1529.7 1682.98 1530.45 Q1686.36 1531.23 1688.24 1533.52 Q1690.14 1535.82 1690.14 1539.13 Q1690.14 1544.15 1687.06 1546.83 Q1684 1549.52 1678.29 1549.52 Q1672.57 1549.52 1669.49 1546.83 Q1666.43 1544.15 1666.43 1539.13 Q1666.43 1535.82 1668.33 1533.52 Q1670.23 1531.23 1673.61 1530.45 M1671.9 1523.06 Q1671.9 1525.75 1673.56 1527.25 Q1675.25 1528.76 1678.29 1528.76 Q1681.29 1528.76 1682.98 1527.25 Q1684.7 1525.75 1684.7 1523.06 Q1684.7 1520.38 1682.98 1518.87 Q1681.29 1517.37 1678.29 1517.37 Q1675.25 1517.37 1673.56 1518.87 Q1671.9 1520.38 1671.9 1523.06 Z" fill="#000000" fill-rule="evenodd" fill-opacity="1" /><path clip-path="url(#clip800)" d="M2061.74 1544.91 L2069.38 1544.91 L2069.38 1518.55 L2061.07 1520.21 L2061.07 1515.95 L2069.34 1514.29 L2074.01 1514.29 L2074.01 1544.91 L2081.65 1544.91 L2081.65 1548.85 L2061.74 1548.85 L2061.74 1544.91 Z" fill="#000000" fill-rule="evenodd" fill-opacity="1" /><path clip-path="url(#clip800)" d="M2101.09 1517.37 Q2097.48 1517.37 2095.65 1520.93 Q2093.85 1524.47 2093.85 1531.6 Q2093.85 1538.71 2095.65 1542.27 Q2097.48 1545.82 2101.09 1545.82 Q2104.73 1545.82 2106.53 1542.27 Q2108.36 1538.71 2108.36 1531.6 Q2108.36 1524.47 2106.53 1520.93 Q2104.73 1517.37 2101.09 1517.37 M2101.09 1513.66 Q2106.9 1513.66 2109.96 1518.27 Q2113.04 1522.85 2113.04 1531.6 Q2113.04 1540.33 2109.96 1544.94 Q2106.9 1549.52 2101.09 1549.52 Q2095.28 1549.52 2092.21 1544.94 Q2089.15 1540.33 2089.15 1531.6 Q2089.15 1522.85 2092.21 1518.27 Q2095.28 1513.66 2101.09 1513.66 Z" fill="#000000" fill-rule="evenodd" fill-opacity="1" /><polyline clip-path="url(#clip802)" style="stroke:#000000; stroke-linecap:round; stroke-linejoin:round; stroke-width:2; stroke-opacity:0.1; fill:none" points="186.274,1393.38 2352.76,1393.38 "/>
<polyline clip-path="url(#clip802)" style="stroke:#000000; stroke-linecap:round; stroke-linejoin:round; stroke-width:2; stroke-opacity:0.1; fill:none" points="186.274,1067.03 2352.76,1067.03 "/>
<polyline clip-path="url(#clip802)" style="stroke:#000000; stroke-linecap:round; stroke-linejoin:round; stroke-width:2; stroke-opacity:0.1; fill:none" points="186.274,740.681 2352.76,740.681 "/>
<polyline clip-path="url(#clip802)" style="stroke:#000000; stroke-linecap:round; stroke-linejoin:round; stroke-width:2; stroke-opacity:0.1; fill:none" points="186.274,414.328 2352.76,414.328 "/>
<polyline clip-path="url(#clip802)" style="stroke:#000000; stroke-linecap:round; stroke-linejoin:round; stroke-width:2; stroke-opacity:0.1; fill:none" points="186.274,87.9763 2352.76,87.9763 "/>
<polyline clip-path="url(#clip800)" style="stroke:#000000; stroke-linecap:round; stroke-linejoin:round; stroke-width:4; stroke-opacity:1; fill:none" points="186.274,1486.45 186.274,47.2441 "/>
<polyline clip-path="url(#clip800)" style="stroke:#000000; stroke-linecap:round; stroke-linejoin:round; stroke-width:4; stroke-opacity:1; fill:none" points="186.274,1393.38 205.172,1393.38 "/>
<polyline clip-path="url(#clip800)" style="stroke:#000000; stroke-linecap:round; stroke-linejoin:round; stroke-width:4; stroke-opacity:1; fill:none" points="186.274,1067.03 205.172,1067.03 "/>
<polyline clip-path="url(#clip800)" style="stroke:#000000; stroke-linecap:round; stroke-linejoin:round; stroke-width:4; stroke-opacity:1; fill:none" points="186.274,740.681 205.172,740.681 "/>
<polyline clip-path="url(#clip800)" style="stroke:#000000; stroke-linecap:round; stroke-linejoin:round; stroke-width:4; stroke-opacity:1; fill:none" points="186.274,414.328 205.172,414.328 "/>
<polyline clip-path="url(#clip800)" style="stroke:#000000; stroke-linecap:round; stroke-linejoin:round; stroke-width:4; stroke-opacity:1; fill:none" points="186.274,87.9763 205.172,87.9763 "/>
<path clip-path="url(#clip800)" d="M62.9365 1379.18 Q59.3254 1379.18 57.4967 1382.75 Q55.6912 1386.29 55.6912 1393.42 Q55.6912 1400.53 57.4967 1404.09 Q59.3254 1407.63 62.9365 1407.63 Q66.5707 1407.63 68.3763 1404.09 Q70.205 1400.53 70.205 1393.42 Q70.205 1386.29 68.3763 1382.75 Q66.5707 1379.18 62.9365 1379.18 M62.9365 1375.48 Q68.7467 1375.48 71.8022 1380.09 Q74.8809 1384.67 74.8809 1393.42 Q74.8809 1402.15 71.8022 1406.75 Q68.7467 1411.34 62.9365 1411.34 Q57.1264 1411.34 54.0477 1406.75 Q50.9921 1402.15 50.9921 1393.42 Q50.9921 1384.67 54.0477 1380.09 Q57.1264 1375.48 62.9365 1375.48 Z" fill="#000000" fill-rule="evenodd" fill-opacity="1" /><path clip-path="url(#clip800)" d="M83.0984 1404.79 L87.9827 1404.79 L87.9827 1410.66 L83.0984 1410.66 L83.0984 1404.79 Z" fill="#000000" fill-rule="evenodd" fill-opacity="1" /><path clip-path="url(#clip800)" d="M108.168 1379.18 Q104.557 1379.18 102.728 1382.75 Q100.922 1386.29 100.922 1393.42 Q100.922 1400.53 102.728 1404.09 Q104.557 1407.63 108.168 1407.63 Q111.802 1407.63 113.608 1404.09 Q115.436 1400.53 115.436 1393.42 Q115.436 1386.29 113.608 1382.75 Q111.802 1379.18 108.168 1379.18 M108.168 1375.48 Q113.978 1375.48 117.033 1380.09 Q120.112 1384.67 120.112 1393.42 Q120.112 1402.15 117.033 1406.75 Q113.978 1411.34 108.168 1411.34 Q102.358 1411.34 99.2789 1406.75 Q96.2234 1402.15 96.2234 1393.42 Q96.2234 1384.67 99.2789 1380.09 Q102.358 1375.48 108.168 1375.48 Z" fill="#000000" fill-rule="evenodd" fill-opacity="1" /><path clip-path="url(#clip800)" d="M138.33 1379.18 Q134.719 1379.18 132.89 1382.75 Q131.084 1386.29 131.084 1393.42 Q131.084 1400.53 132.89 1404.09 Q134.719 1407.63 138.33 1407.63 Q141.964 1407.63 143.769 1404.09 Q145.598 1400.53 145.598 1393.42 Q145.598 1386.29 143.769 1382.75 Q141.964 1379.18 138.33 1379.18 M138.33 1375.48 Q144.14 1375.48 147.195 1380.09 Q150.274 1384.67 150.274 1393.42 Q150.274 1402.15 147.195 1406.75 Q144.14 1411.34 138.33 1411.34 Q132.519 1411.34 129.441 1406.75 Q126.385 1402.15 126.385 1393.42 Q126.385 1384.67 129.441 1380.09 Q132.519 1375.48 138.33 1375.48 Z" fill="#000000" fill-rule="evenodd" fill-opacity="1" /><path clip-path="url(#clip800)" d="M63.9319 1052.83 Q60.3208 1052.83 58.4921 1056.4 Q56.6865 1059.94 56.6865 1067.07 Q56.6865 1074.17 58.4921 1077.74 Q60.3208 1081.28 63.9319 1081.28 Q67.5661 1081.28 69.3717 1077.74 Q71.2004 1074.17 71.2004 1067.07 Q71.2004 1059.94 69.3717 1056.4 Q67.5661 1052.83 63.9319 1052.83 M63.9319 1049.13 Q69.742 1049.13 72.7976 1053.73 Q75.8763 1058.32 75.8763 1067.07 Q75.8763 1075.79 72.7976 1080.4 Q69.742 1084.98 63.9319 1084.98 Q58.1217 1084.98 55.043 1080.4 Q51.9875 1075.79 51.9875 1067.07 Q51.9875 1058.32 55.043 1053.73 Q58.1217 1049.13 63.9319 1049.13 Z" fill="#000000" fill-rule="evenodd" fill-opacity="1" /><path clip-path="url(#clip800)" d="M84.0938 1078.43 L88.978 1078.43 L88.978 1084.31 L84.0938 1084.31 L84.0938 1078.43 Z" fill="#000000" fill-rule="evenodd" fill-opacity="1" /><path clip-path="url(#clip800)" d="M103.191 1080.38 L119.51 1080.38 L119.51 1084.31 L97.566 1084.31 L97.566 1080.38 Q100.228 1077.62 104.811 1072.99 Q109.418 1068.34 110.598 1067 Q112.844 1064.47 113.723 1062.74 Q114.626 1060.98 114.626 1059.29 Q114.626 1056.54 112.682 1054.8 Q110.76 1053.06 107.658 1053.06 Q105.459 1053.06 103.006 1053.83 Q100.575 1054.59 97.7974 1056.14 L97.7974 1051.42 Q100.621 1050.29 103.075 1049.71 Q105.529 1049.13 107.566 1049.13 Q112.936 1049.13 116.131 1051.81 Q119.325 1054.5 119.325 1058.99 Q119.325 1061.12 118.515 1063.04 Q117.728 1064.94 115.621 1067.53 Q115.043 1068.2 111.941 1071.42 Q108.839 1074.61 103.191 1080.38 Z" fill="#000000" fill-rule="evenodd" fill-opacity="1" /><path clip-path="url(#clip800)" d="M129.371 1049.75 L147.728 1049.75 L147.728 1053.69 L133.654 1053.69 L133.654 1062.16 Q134.672 1061.81 135.691 1061.65 Q136.709 1061.47 137.728 1061.47 Q143.515 1061.47 146.894 1064.64 Q150.274 1067.81 150.274 1073.22 Q150.274 1078.8 146.802 1081.91 Q143.33 1084.98 137.01 1084.98 Q134.834 1084.98 132.566 1084.61 Q130.32 1084.24 127.913 1083.5 L127.913 1078.8 Q129.996 1079.94 132.219 1080.49 Q134.441 1081.05 136.918 1081.05 Q140.922 1081.05 143.26 1078.94 Q145.598 1076.84 145.598 1073.22 Q145.598 1069.61 143.26 1067.51 Q140.922 1065.4 136.918 1065.4 Q135.043 1065.4 133.168 1065.82 Q131.316 1066.23 129.371 1067.11 L129.371 1049.75 Z" fill="#000000" fill-rule="evenodd" fill-opacity="1" /><path clip-path="url(#clip800)" d="M62.9365 726.479 Q59.3254 726.479 57.4967 730.044 Q55.6912 733.586 55.6912 740.715 Q55.6912 747.822 57.4967 751.386 Q59.3254 754.928 62.9365 754.928 Q66.5707 754.928 68.3763 751.386 Q70.205 747.822 70.205 740.715 Q70.205 733.586 68.3763 730.044 Q66.5707 726.479 62.9365 726.479 M62.9365 722.776 Q68.7467 722.776 71.8022 727.382 Q74.8809 731.965 74.8809 740.715 Q74.8809 749.442 71.8022 754.048 Q68.7467 758.632 62.9365 758.632 Q57.1264 758.632 54.0477 754.048 Q50.9921 749.442 50.9921 740.715 Q50.9921 731.965 54.0477 727.382 Q57.1264 722.776 62.9365 722.776 Z" fill="#000000" fill-rule="evenodd" fill-opacity="1" /><path clip-path="url(#clip800)" d="M83.0984 752.081 L87.9827 752.081 L87.9827 757.961 L83.0984 757.961 L83.0984 752.081 Z" fill="#000000" fill-rule="evenodd" fill-opacity="1" /><path clip-path="url(#clip800)" d="M98.2141 723.401 L116.57 723.401 L116.57 727.336 L102.496 727.336 L102.496 735.808 Q103.515 735.461 104.534 735.299 Q105.552 735.113 106.571 735.113 Q112.358 735.113 115.737 738.285 Q119.117 741.456 119.117 746.873 Q119.117 752.451 115.645 755.553 Q112.172 758.632 105.853 758.632 Q103.677 758.632 101.409 758.261 Q99.1632 757.891 96.7558 757.15 L96.7558 752.451 Q98.8391 753.586 101.061 754.141 Q103.284 754.697 105.76 754.697 Q109.765 754.697 112.103 752.59 Q114.441 750.484 114.441 746.873 Q114.441 743.262 112.103 741.155 Q109.765 739.049 105.76 739.049 Q103.885 739.049 102.01 739.465 Q100.159 739.882 98.2141 740.762 L98.2141 723.401 Z" fill="#000000" fill-rule="evenodd" fill-opacity="1" /><path clip-path="url(#clip800)" d="M138.33 726.479 Q134.719 726.479 132.89 730.044 Q131.084 733.586 131.084 740.715 Q131.084 747.822 132.89 751.386 Q134.719 754.928 138.33 754.928 Q141.964 754.928 143.769 751.386 Q145.598 747.822 145.598 740.715 Q145.598 733.586 143.769 730.044 Q141.964 726.479 138.33 726.479 M138.33 722.776 Q144.14 722.776 147.195 727.382 Q150.274 731.965 150.274 740.715 Q150.274 749.442 147.195 754.048 Q144.14 758.632 138.33 758.632 Q132.519 758.632 129.441 754.048 Q126.385 749.442 126.385 740.715 Q126.385 731.965 129.441 727.382 Q132.519 722.776 138.33 722.776 Z" fill="#000000" fill-rule="evenodd" fill-opacity="1" /><path clip-path="url(#clip800)" d="M63.9319 400.127 Q60.3208 400.127 58.4921 403.692 Q56.6865 407.234 56.6865 414.363 Q56.6865 421.47 58.4921 425.034 Q60.3208 428.576 63.9319 428.576 Q67.5661 428.576 69.3717 425.034 Q71.2004 421.47 71.2004 414.363 Q71.2004 407.234 69.3717 403.692 Q67.5661 400.127 63.9319 400.127 M63.9319 396.423 Q69.742 396.423 72.7976 401.03 Q75.8763 405.613 75.8763 414.363 Q75.8763 423.09 72.7976 427.696 Q69.742 432.28 63.9319 432.28 Q58.1217 432.28 55.043 427.696 Q51.9875 423.09 51.9875 414.363 Q51.9875 405.613 55.043 401.03 Q58.1217 396.423 63.9319 396.423 Z" fill="#000000" fill-rule="evenodd" fill-opacity="1" /><path clip-path="url(#clip800)" d="M84.0938 425.729 L88.978 425.729 L88.978 431.608 L84.0938 431.608 L84.0938 425.729 Z" fill="#000000" fill-rule="evenodd" fill-opacity="1" /><path clip-path="url(#clip800)" d="M97.9826 397.048 L120.205 397.048 L120.205 399.039 L107.658 431.608 L102.774 431.608 L114.58 400.984 L97.9826 400.984 L97.9826 397.048 Z" fill="#000000" fill-rule="evenodd" fill-opacity="1" /><path clip-path="url(#clip800)" d="M129.371 397.048 L147.728 397.048 L147.728 400.984 L133.654 400.984 L133.654 409.456 Q134.672 409.109 135.691 408.946 Q136.709 408.761 137.728 408.761 Q143.515 408.761 146.894 411.933 Q150.274 415.104 150.274 420.52 Q150.274 426.099 146.802 429.201 Q143.33 432.28 137.01 432.28 Q134.834 432.28 132.566 431.909 Q130.32 431.539 127.913 430.798 L127.913 426.099 Q129.996 427.233 132.219 427.789 Q134.441 428.345 136.918 428.345 Q140.922 428.345 143.26 426.238 Q145.598 424.132 145.598 420.52 Q145.598 416.909 143.26 414.803 Q140.922 412.696 136.918 412.696 Q135.043 412.696 133.168 413.113 Q131.316 413.53 129.371 414.409 L129.371 397.048 Z" fill="#000000" fill-rule="evenodd" fill-opacity="1" /><path clip-path="url(#clip800)" d="M53.7467 101.321 L61.3856 101.321 L61.3856 74.9555 L53.0754 76.6222 L53.0754 72.3629 L61.3393 70.6963 L66.0152 70.6963 L66.0152 101.321 L73.654 101.321 L73.654 105.256 L53.7467 105.256 L53.7467 101.321 Z" fill="#000000" fill-rule="evenodd" fill-opacity="1" /><path clip-path="url(#clip800)" d="M83.0984 99.3767 L87.9827 99.3767 L87.9827 105.256 L83.0984 105.256 L83.0984 99.3767 Z" fill="#000000" fill-rule="evenodd" fill-opacity="1" /><path clip-path="url(#clip800)" d="M108.168 73.775 Q104.557 73.775 102.728 77.3398 Q100.922 80.8814 100.922 88.011 Q100.922 95.1174 102.728 98.6822 Q104.557 102.224 108.168 102.224 Q111.802 102.224 113.608 98.6822 Q115.436 95.1174 115.436 88.011 Q115.436 80.8814 113.608 77.3398 Q111.802 73.775 108.168 73.775 M108.168 70.0713 Q113.978 70.0713 117.033 74.6777 Q120.112 79.261 120.112 88.011 Q120.112 96.7378 117.033 101.344 Q113.978 105.928 108.168 105.928 Q102.358 105.928 99.2789 101.344 Q96.2234 96.7378 96.2234 88.011 Q96.2234 79.261 99.2789 74.6777 Q102.358 70.0713 108.168 70.0713 Z" fill="#000000" fill-rule="evenodd" fill-opacity="1" /><path clip-path="url(#clip800)" d="M138.33 73.775 Q134.719 73.775 132.89 77.3398 Q131.084 80.8814 131.084 88.011 Q131.084 95.1174 132.89 98.6822 Q134.719 102.224 138.33 102.224 Q141.964 102.224 143.769 98.6822 Q145.598 95.1174 145.598 88.011 Q145.598 80.8814 143.769 77.3398 Q141.964 73.775 138.33 73.775 M138.33 70.0713 Q144.14 70.0713 147.195 74.6777 Q150.274 79.261 150.274 88.011 Q150.274 96.7378 147.195 101.344 Q144.14 105.928 138.33 105.928 Q132.519 105.928 129.441 101.344 Q126.385 96.7378 126.385 88.011 Q126.385 79.261 129.441 74.6777 Q132.519 70.0713 138.33 70.0713 Z" fill="#000000" fill-rule="evenodd" fill-opacity="1" /><polyline clip-path="url(#clip802)" style="stroke:#009af9; stroke-linecap:round; stroke-linejoin:round; stroke-width:12; stroke-opacity:1; fill:none" points="247.59,87.9763 451.975,1275.72 656.36,1353.26 860.745,1366.49 1065.13,1385.41 1269.51,1410.56 1473.9,1382.7 1678.29,1412.14 1882.67,1430.14 2087.06,1407.15 2291.44,1394.67 "/>
<polyline clip-path="url(#clip802)" style="stroke:#e26f46; stroke-linecap:round; stroke-linejoin:round; stroke-width:12; stroke-opacity:1; fill:none" points="247.59,87.9763 451.975,1206.56 656.36,1335.05 860.745,1341.51 1065.13,1379.74 1269.51,1398.07 1473.9,1393.66 1678.29,1418.44 1882.67,1404.49 2087.06,1418.73 2291.44,1445.72 "/>
<polyline clip-path="url(#clip802)" style="stroke:#3da44d; stroke-linecap:round; stroke-linejoin:round; stroke-width:12; stroke-opacity:1; fill:none" points="247.59,87.9763 451.975,338.702 656.36,509.518 860.745,645.603 1065.13,774.931 1269.51,851.122 1473.9,921.456 1678.29,992.241 1882.67,1032.61 2087.06,1049.14 2291.44,1078.57 "/>
<polyline clip-path="url(#clip802)" style="stroke:#c271d2; stroke-linecap:round; stroke-linejoin:round; stroke-width:12; stroke-opacity:1; fill:none" points="247.59,87.9763 451.975,1177.46 656.36,1363.47 860.745,1420.9 1065.13,1403.99 1269.51,1363.46 1473.9,1372.5 1678.29,1365.22 1882.67,1410.84 2087.06,1408.52 2291.44,1423.42 "/>
<path clip-path="url(#clip800)" d="M1881.95 354.418 L2280.54 354.418 L2280.54 95.2176 L1881.95 95.2176  Z" fill="#ffffff" fill-rule="evenodd" fill-opacity="1"/>
<polyline clip-path="url(#clip800)" style="stroke:#000000; stroke-linecap:round; stroke-linejoin:round; stroke-width:4; stroke-opacity:1; fill:none" points="1881.95,354.418 2280.54,354.418 2280.54,95.2176 1881.95,95.2176 1881.95,354.418 "/>
<polyline clip-path="url(#clip800)" style="stroke:#009af9; stroke-linecap:round; stroke-linejoin:round; stroke-width:12; stroke-opacity:1; fill:none" points="1906.02,147.058 2050.45,147.058 "/>
<path clip-path="url(#clip800)" d="M2074.52 129.778 L2079.2 129.778 L2079.2 143.944 L2096.19 143.944 L2096.19 129.778 L2100.87 129.778 L2100.87 164.338 L2096.19 164.338 L2096.19 147.879 L2079.2 147.879 L2079.2 164.338 L2074.52 164.338 L2074.52 129.778 Z" fill="#000000" fill-rule="evenodd" fill-opacity="1" /><path clip-path="url(#clip800)" d="M2110.17 129.778 L2117.14 129.778 L2125.96 153.296 L2134.82 129.778 L2141.79 129.778 L2141.79 164.338 L2137.23 164.338 L2137.23 133.99 L2128.32 157.694 L2123.62 157.694 L2114.71 133.99 L2114.71 164.338 L2110.17 164.338 L2110.17 129.778 Z" fill="#000000" fill-rule="evenodd" fill-opacity="1" /><path clip-path="url(#clip800)" d="M2176.95 132.44 L2176.95 137.37 Q2174.59 135.171 2171.91 134.083 Q2169.25 132.995 2166.24 132.995 Q2160.31 132.995 2157.16 136.629 Q2154.01 140.24 2154.01 147.092 Q2154.01 153.921 2157.16 157.555 Q2160.31 161.166 2166.24 161.166 Q2169.25 161.166 2171.91 160.078 Q2174.59 158.99 2176.95 156.791 L2176.95 161.676 Q2174.5 163.342 2171.75 164.176 Q2169.01 165.009 2165.96 165.009 Q2158.11 165.009 2153.6 160.217 Q2149.08 155.402 2149.08 147.092 Q2149.08 138.759 2153.6 133.967 Q2158.11 129.153 2165.96 129.153 Q2169.06 129.153 2171.79 129.986 Q2174.55 130.796 2176.95 132.44 Z" fill="#000000" fill-rule="evenodd" fill-opacity="1" /><polyline clip-path="url(#clip800)" style="stroke:#e26f46; stroke-linecap:round; stroke-linejoin:round; stroke-width:12; stroke-opacity:1; fill:none" points="1906.02,198.898 2050.45,198.898 "/>
<path clip-path="url(#clip800)" d="M2090.91 199.974 Q2092.42 200.483 2093.83 202.15 Q2095.26 203.817 2096.7 206.733 L2101.45 216.178 L2096.42 216.178 L2092 207.312 Q2090.29 203.84 2088.67 202.705 Q2087.07 201.571 2084.29 201.571 L2079.2 201.571 L2079.2 216.178 L2074.52 216.178 L2074.52 181.618 L2085.08 181.618 Q2091.01 181.618 2093.92 184.094 Q2096.84 186.571 2096.84 191.571 Q2096.84 194.835 2095.31 196.988 Q2093.81 199.141 2090.91 199.974 M2079.2 185.46 L2079.2 197.729 L2085.08 197.729 Q2088.46 197.729 2090.17 196.178 Q2091.91 194.604 2091.91 191.571 Q2091.91 188.539 2090.17 187.011 Q2088.46 185.46 2085.08 185.46 L2079.2 185.46 Z" fill="#000000" fill-rule="evenodd" fill-opacity="1" /><path clip-path="url(#clip800)" d="M2117.09 186.224 L2110.75 203.423 L2123.46 203.423 L2117.09 186.224 M2114.45 181.618 L2119.76 181.618 L2132.93 216.178 L2128.07 216.178 L2124.92 207.312 L2109.34 207.312 L2106.19 216.178 L2101.26 216.178 L2114.45 181.618 Z" fill="#000000" fill-rule="evenodd" fill-opacity="1" /><path clip-path="url(#clip800)" d="M2134.59 201.293 L2147.07 201.293 L2147.07 205.09 L2134.59 205.09 L2134.59 201.293 Z" fill="#000000" fill-rule="evenodd" fill-opacity="1" /><path clip-path="url(#clip800)" d="M2154.04 181.618 L2158.71 181.618 L2158.71 195.784 L2175.7 195.784 L2175.7 181.618 L2180.38 181.618 L2180.38 216.178 L2175.7 216.178 L2175.7 199.719 L2158.71 199.719 L2158.71 216.178 L2154.04 216.178 L2154.04 181.618 Z" fill="#000000" fill-rule="evenodd" fill-opacity="1" /><path clip-path="url(#clip800)" d="M2189.69 181.618 L2196.65 181.618 L2205.47 205.136 L2214.34 181.618 L2221.31 181.618 L2221.31 216.178 L2216.75 216.178 L2216.75 185.83 L2207.83 209.534 L2203.13 209.534 L2194.22 185.83 L2194.22 216.178 L2189.69 216.178 L2189.69 181.618 Z" fill="#000000" fill-rule="evenodd" fill-opacity="1" /><path clip-path="url(#clip800)" d="M2256.47 184.28 L2256.47 189.21 Q2254.11 187.011 2251.42 185.923 Q2248.76 184.835 2245.75 184.835 Q2239.82 184.835 2236.68 188.469 Q2233.53 192.08 2233.53 198.932 Q2233.53 205.761 2236.68 209.395 Q2239.82 213.006 2245.75 213.006 Q2248.76 213.006 2251.42 211.918 Q2254.11 210.83 2256.47 208.631 L2256.47 213.516 Q2254.01 215.182 2251.26 216.016 Q2248.53 216.849 2245.47 216.849 Q2237.63 216.849 2233.11 212.057 Q2228.6 207.242 2228.6 198.932 Q2228.6 190.599 2233.11 185.807 Q2237.63 180.993 2245.47 180.993 Q2248.57 180.993 2251.31 181.826 Q2254.06 182.636 2256.47 184.28 Z" fill="#000000" fill-rule="evenodd" fill-opacity="1" /><polyline clip-path="url(#clip800)" style="stroke:#3da44d; stroke-linecap:round; stroke-linejoin:round; stroke-width:12; stroke-opacity:1; fill:none" points="1906.02,250.738 2050.45,250.738 "/>
<path clip-path="url(#clip800)" d="M2090.91 251.814 Q2092.42 252.323 2093.83 253.99 Q2095.26 255.657 2096.7 258.573 L2101.45 268.018 L2096.42 268.018 L2092 259.152 Q2090.29 255.68 2088.67 254.545 Q2087.07 253.411 2084.29 253.411 L2079.2 253.411 L2079.2 268.018 L2074.52 268.018 L2074.52 233.458 L2085.08 233.458 Q2091.01 233.458 2093.92 235.934 Q2096.84 238.411 2096.84 243.411 Q2096.84 246.675 2095.31 248.828 Q2093.81 250.981 2090.91 251.814 M2079.2 237.3 L2079.2 249.569 L2085.08 249.569 Q2088.46 249.569 2090.17 248.018 Q2091.91 246.444 2091.91 243.411 Q2091.91 240.379 2090.17 238.851 Q2088.46 237.3 2085.08 237.3 L2079.2 237.3 Z" fill="#000000" fill-rule="evenodd" fill-opacity="1" /><path clip-path="url(#clip800)" d="M2117.09 238.064 L2110.75 255.263 L2123.46 255.263 L2117.09 238.064 M2114.45 233.458 L2119.76 233.458 L2132.93 268.018 L2128.07 268.018 L2124.92 259.152 L2109.34 259.152 L2106.19 268.018 L2101.26 268.018 L2114.45 233.458 Z" fill="#000000" fill-rule="evenodd" fill-opacity="1" /><path clip-path="url(#clip800)" d="M2137.97 233.458 L2144.94 233.458 L2153.76 256.976 L2162.63 233.458 L2169.59 233.458 L2169.59 268.018 L2165.03 268.018 L2165.03 237.67 L2156.12 261.374 L2151.42 261.374 L2142.51 237.67 L2142.51 268.018 L2137.97 268.018 L2137.97 233.458 Z" fill="#000000" fill-rule="evenodd" fill-opacity="1" /><polyline clip-path="url(#clip800)" style="stroke:#c271d2; stroke-linecap:round; stroke-linejoin:round; stroke-width:12; stroke-opacity:1; fill:none" points="1906.02,302.578 2050.45,302.578 "/>
<path clip-path="url(#clip800)" d="M2079.2 289.14 L2079.2 302.126 L2085.08 302.126 Q2088.34 302.126 2090.13 300.436 Q2091.91 298.747 2091.91 295.622 Q2091.91 292.52 2090.13 290.83 Q2088.34 289.14 2085.08 289.14 L2079.2 289.14 M2074.52 285.298 L2085.08 285.298 Q2090.89 285.298 2093.85 287.936 Q2096.84 290.552 2096.84 295.622 Q2096.84 300.737 2093.85 303.353 Q2090.89 305.969 2085.08 305.969 L2079.2 305.969 L2079.2 319.858 L2074.52 319.858 L2074.52 285.298 Z" fill="#000000" fill-rule="evenodd" fill-opacity="1" /><path clip-path="url(#clip800)" d="M2103.11 285.298 L2124.96 285.298 L2124.96 289.233 L2107.79 289.233 L2107.79 299.464 L2124.25 299.464 L2124.25 303.399 L2107.79 303.399 L2107.79 315.922 L2125.38 315.922 L2125.38 319.858 L2103.11 319.858 L2103.11 285.298 Z" fill="#000000" fill-rule="evenodd" fill-opacity="1" /><path clip-path="url(#clip800)" d="M2130.73 304.973 L2143.2 304.973 L2143.2 308.77 L2130.73 308.77 L2130.73 304.973 Z" fill="#000000" fill-rule="evenodd" fill-opacity="1" /><path clip-path="url(#clip800)" d="M2150.17 285.298 L2154.85 285.298 L2154.85 299.464 L2171.84 299.464 L2171.84 285.298 L2176.51 285.298 L2176.51 319.858 L2171.84 319.858 L2171.84 303.399 L2154.85 303.399 L2154.85 319.858 L2150.17 319.858 L2150.17 285.298 Z" fill="#000000" fill-rule="evenodd" fill-opacity="1" /><path clip-path="url(#clip800)" d="M2185.82 285.298 L2192.79 285.298 L2201.61 308.816 L2210.47 285.298 L2217.44 285.298 L2217.44 319.858 L2212.88 319.858 L2212.88 289.51 L2203.97 313.214 L2199.27 313.214 L2190.36 289.51 L2190.36 319.858 L2185.82 319.858 L2185.82 285.298 Z" fill="#000000" fill-rule="evenodd" fill-opacity="1" /><path clip-path="url(#clip800)" d="M2252.6 287.96 L2252.6 292.89 Q2250.24 290.691 2247.56 289.603 Q2244.89 288.515 2241.88 288.515 Q2235.96 288.515 2232.81 292.149 Q2229.66 295.76 2229.66 302.612 Q2229.66 309.441 2232.81 313.075 Q2235.96 316.686 2241.88 316.686 Q2244.89 316.686 2247.56 315.598 Q2250.24 314.51 2252.6 312.311 L2252.6 317.196 Q2250.15 318.862 2247.39 319.696 Q2244.66 320.529 2241.61 320.529 Q2233.76 320.529 2229.25 315.737 Q2224.73 310.922 2224.73 302.612 Q2224.73 294.279 2229.25 289.487 Q2233.76 284.673 2241.61 284.673 Q2244.71 284.673 2247.44 285.506 Q2250.19 286.316 2252.6 287.96 Z" fill="#000000" fill-rule="evenodd" fill-opacity="1" /></svg>
