<?xml version="1.0" encoding="utf-8"?>
<svg xmlns="http://www.w3.org/2000/svg" xmlns:xlink="http://www.w3.org/1999/xlink" width="600" height="400" viewBox="0 0 2400 1600">
<defs>
  <clipPath id="clip500">
    <rect x="0" y="0" width="2400" height="1600"/>
  </clipPath>
</defs>
<path clip-path="url(#clip500)" d="M0 1600 L2400 1600 L2400 0 L0 0  Z" fill="#ffffff" fill-rule="evenodd" fill-opacity="1"/>
<defs>
  <clipPath id="clip501">
    <rect x="480" y="0" width="1681" height="1600"/>
  </clipPath>
</defs>
<path clip-path="url(#clip500)" d="M186.274 1486.45 L2352.76 1486.45 L2352.76 123.472 L186.274 123.472  Z" fill="#ffffff" fill-rule="evenodd" fill-opacity="1"/>
<defs>
  <clipPath id="clip502">
    <rect x="186" y="123" width="2167" height="1364"/>
  </clipPath>
</defs>
<polyline clip-path="url(#clip502)" style="stroke:#000000; stroke-linecap:round; stroke-linejoin:round; stroke-width:2; stroke-opacity:0.1; fill:none" points="451.975,1486.45 451.975,123.472 "/>
<polyline clip-path="url(#clip502)" style="stroke:#000000; stroke-linecap:round; stroke-linejoin:round; stroke-width:2; stroke-opacity:0.1; fill:none" points="860.745,1486.45 860.745,123.472 "/>
<polyline clip-path="url(#clip502)" style="stroke:#000000; stroke-linecap:round; stroke-linejoin:round; stroke-width:2; stroke-opacity:0.1; fill:none" points="1269.51,1486.45 1269.51,123.472 "/>
<polyline clip-path="url(#clip502)" style="stroke:#000000; stroke-linecap:round; stroke-linejoin:round; stroke-width:2; stroke-opacity:0.1; fill:none" points="1678.29,1486.45 1678.29,123.472 "/>
<polyline clip-path="url(#clip502)" style="stroke:#000000; stroke-linecap:round; stroke-linejoin:round; stroke-width:2; stroke-opacity:0.1; fill:none" points="2087.06,1486.45 2087.06,123.472 "/>
<polyline clip-path="url(#clip500)" style="stroke:#000000; stroke-linecap:round; stroke-linejoin:round; stroke-width:4; stroke-opacity:1; fill:none" points="186.274,1486.45 2352.76,1486.45 "/>
<polyline clip-path="url(#clip500)" style="stroke:#000000; stroke-linecap:round; stroke-linejoin:round; stroke-width:4; stroke-opacity:1; fill:none" points="451.975,1486.45 451.975,1467.55 "/>
<polyline clip-path="url(#clip500)" style="stroke:#000000; stroke-linecap:round; stroke-linejoin:round; stroke-width:4; stroke-opacity:1; fill:none" points="860.745,1486.45 860.745,1467.55 "/>
<polyline clip-path="url(#clip500)" style="stroke:#000000; stroke-linecap:round; stroke-linejoin:round; stroke-width:4; stroke-opacity:1; fill:none" points="1269.51,1486.45 1269.51,1467.55 "/>
<polyline clip-path="url(#clip500)" style="stroke:#000000; stroke-linecap:round; stroke-linejoin:round; stroke-width:4; stroke-opacity:1; fill:none" points="1678.29,1486.45 1678.29,1467.55 "/>
<polyline clip-path="url(#clip500)" style="stroke:#000000; stroke-linecap:round; stroke-linejoin:round; stroke-width:4; stroke-opacity:1; fill:none" points="2087.06,1486.45 2087.06,1467.55 "/>
<path clip-path="url(#clip500)" d="M446.627 1544.91 L462.947 1544.91 L462.947 1548.85 L441.002 1548.85 L441.002 1544.91 Q443.664 1542.16 448.248 1537.53 Q452.854 1532.88 454.035 1531.53 Q456.28 1529.01 457.16 1527.27 Q458.063 1525.51 458.063 1523.82 Q458.063 1521.07 456.118 1519.33 Q454.197 1517.6 451.095 1517.6 Q448.896 1517.6 446.442 1518.36 Q444.012 1519.13 441.234 1520.68 L441.234 1515.95 Q444.058 1514.82 446.512 1514.24 Q448.965 1513.66 451.002 1513.66 Q456.373 1513.66 459.567 1516.35 Q462.762 1519.03 462.762 1523.52 Q462.762 1525.65 461.951 1527.57 Q461.164 1529.47 459.058 1532.07 Q458.479 1532.74 455.377 1535.95 Q452.276 1539.15 446.627 1544.91 Z" fill="#000000" fill-rule="evenodd" fill-opacity="1" /><path clip-path="url(#clip500)" d="M863.754 1518.36 L851.949 1536.81 L863.754 1536.81 L863.754 1518.36 M862.527 1514.29 L868.407 1514.29 L868.407 1536.81 L873.337 1536.81 L873.337 1540.7 L868.407 1540.7 L868.407 1548.85 L863.754 1548.85 L863.754 1540.7 L848.152 1540.7 L848.152 1536.19 L862.527 1514.29 Z" fill="#000000" fill-rule="evenodd" fill-opacity="1" /><path clip-path="url(#clip500)" d="M1269.92 1529.7 Q1266.77 1529.7 1264.92 1531.86 Q1263.09 1534.01 1263.09 1537.76 Q1263.09 1541.49 1264.92 1543.66 Q1266.77 1545.82 1269.92 1545.82 Q1273.07 1545.82 1274.9 1543.66 Q1276.75 1541.49 1276.75 1537.76 Q1276.75 1534.01 1274.9 1531.86 Q1273.07 1529.7 1269.92 1529.7 M1279.2 1515.05 L1279.2 1519.31 Q1277.44 1518.48 1275.64 1518.04 Q1273.86 1517.6 1272.1 1517.6 Q1267.47 1517.6 1265.01 1520.72 Q1262.58 1523.85 1262.23 1530.17 Q1263.6 1528.15 1265.66 1527.09 Q1267.72 1526 1270.2 1526 Q1275.41 1526 1278.42 1529.17 Q1281.45 1532.32 1281.45 1537.76 Q1281.45 1543.08 1278.3 1546.3 Q1275.15 1549.52 1269.92 1549.52 Q1263.92 1549.52 1260.75 1544.94 Q1257.58 1540.33 1257.58 1531.6 Q1257.58 1523.41 1261.47 1518.55 Q1265.36 1513.66 1271.91 1513.66 Q1273.67 1513.66 1275.45 1514.01 Q1277.26 1514.36 1279.2 1515.05 Z" fill="#000000" fill-rule="evenodd" fill-opacity="1" /><path clip-path="url(#clip500)" d="M1678.29 1532.44 Q1674.95 1532.44 1673.03 1534.22 Q1671.13 1536 1671.13 1539.13 Q1671.13 1542.25 1673.03 1544.03 Q1674.95 1545.82 1678.29 1545.82 Q1681.62 1545.82 1683.54 1544.03 Q1685.46 1542.23 1685.46 1539.13 Q1685.46 1536 1683.54 1534.22 Q1681.64 1532.44 1678.29 1532.44 M1673.61 1530.45 Q1670.6 1529.7 1668.91 1527.64 Q1667.24 1525.58 1667.24 1522.62 Q1667.24 1518.48 1670.18 1516.07 Q1673.15 1513.66 1678.29 1513.66 Q1683.45 1513.66 1686.39 1516.07 Q1689.33 1518.48 1689.33 1522.62 Q1689.33 1525.58 1687.64 1527.64 Q1685.97 1529.7 1682.98 1530.45 Q1686.36 1531.23 1688.24 1533.52 Q1690.14 1535.82 1690.14 1539.13 Q1690.14 1544.15 1687.06 1546.83 Q1684 1549.52 1678.29 1549.52 Q1672.57 1549.52 1669.49 1546.83 Q1666.43 1544.15 1666.43 1539.13 Q1666.43 1535.82 1668.33 1533.52 Q1670.23 1531.23 1673.61 1530.45 M1671.9 1523.06 Q1671.9 1525.75 1673.56 1527.25 Q1675.25 1528.76 1678.29 1528.76 Q1681.29 1528.76 1682.98 1527.25 Q1684.7 1525.75 1684.7 1523.06 Q1684.7 1520.38 1682.98 1518.87 Q1681.29 1517.37 1678.29 1517.37 Q1675.25 1517.37 1673.56 1518.87 Q1671.9 1520.38 1671.9 1523.06 Z" fill="#000000" fill-rule="evenodd" fill-opacity="1" /><path clip-path="url(#clip500)" d="M2061.74 1544.91 L2069.38 1544.91 L2069.38 1518.55 L2061.07 1520.21 L2061.07 1515.95 L2069.34 1514.29 L2074.01 1514.29 L2074.01 1544.91 L2081.65 1544.91 L2081.65 1548.85 L2061.74 1548.85 L2061.74 1544.91 Z" fill="#000000" fill-rule="evenodd" fill-opacity="1" /><path clip-path="url(#clip500)" d="M2101.09 1517.37 Q2097.48 1517.37 2095.65 1520.93 Q2093.85 1524.47 2093.85 1531.6 Q2093.85 1538.71 2095.65 1542.27 Q2097.48 1545.82 2101.09 1545.82 Q2104.73 1545.82 2106.53 1542.27 Q2108.36 1538.71 2108.36 1531.6 Q2108.36 1524.47 2106.53 1520.93 Q2104.73 1517.37 2101.09 1517.37 M2101.09 1513.66 Q2106.9 1513.66 2109.96 1518.27 Q2113.04 1522.85 2113.04 1531.6 Q2113.04 1540.33 2109.96 1544.94 Q2106.9 1549.52 2101.09 1549.52 Q2095.28 1549.52 2092.21 1544.94 Q2089.15 1540.33 2089.15 1531.6 Q2089.15 1522.85 2092.21 1518.27 Q2095.28 1513.66 2101.09 1513.66 Z" fill="#000000" fill-rule="evenodd" fill-opacity="1" /><polyline clip-path="url(#clip502)" style="stroke:#000000; stroke-linecap:round; stroke-linejoin:round; stroke-width:2; stroke-opacity:0.1; fill:none" points="186.274,1398.31 2352.76,1398.31 "/>
<polyline clip-path="url(#clip502)" style="stroke:#000000; stroke-linecap:round; stroke-linejoin:round; stroke-width:2; stroke-opacity:0.1; fill:none" points="186.274,1089.25 2352.76,1089.25 "/>
<polyline clip-path="url(#clip502)" style="stroke:#000000; stroke-linecap:round; stroke-linejoin:round; stroke-width:2; stroke-opacity:0.1; fill:none" points="186.274,780.18 2352.76,780.18 "/>
<polyline clip-path="url(#clip502)" style="stroke:#000000; stroke-linecap:round; stroke-linejoin:round; stroke-width:2; stroke-opacity:0.1; fill:none" points="186.274,471.114 2352.76,471.114 "/>
<polyline clip-path="url(#clip502)" style="stroke:#000000; stroke-linecap:round; stroke-linejoin:round; stroke-width:2; stroke-opacity:0.1; fill:none" points="186.274,162.047 2352.76,162.047 "/>
<polyline clip-path="url(#clip500)" style="stroke:#000000; stroke-linecap:round; stroke-linejoin:round; stroke-width:4; stroke-opacity:1; fill:none" points="186.274,1486.45 186.274,123.472 "/>
<polyline clip-path="url(#clip500)" style="stroke:#000000; stroke-linecap:round; stroke-linejoin:round; stroke-width:4; stroke-opacity:1; fill:none" points="186.274,1398.31 205.172,1398.31 "/>
<polyline clip-path="url(#clip500)" style="stroke:#000000; stroke-linecap:round; stroke-linejoin:round; stroke-width:4; stroke-opacity:1; fill:none" points="186.274,1089.25 205.172,1089.25 "/>
<polyline clip-path="url(#clip500)" style="stroke:#000000; stroke-linecap:round; stroke-linejoin:round; stroke-width:4; stroke-opacity:1; fill:none" points="186.274,780.18 205.172,780.18 "/>
<polyline clip-path="url(#clip500)" style="stroke:#000000; stroke-linecap:round; stroke-linejoin:round; stroke-width:4; stroke-opacity:1; fill:none" points="186.274,471.114 205.172,471.114 "/>
<polyline clip-path="url(#clip500)" style="stroke:#000000; stroke-linecap:round; stroke-linejoin:round; stroke-width:4; stroke-opacity:1; fill:none" points="186.274,162.047 205.172,162.047 "/>
<path clip-path="url(#clip500)" d="M62.9365 1384.11 Q59.3254 1384.11 57.4967 1387.68 Q55.6912 1391.22 55.6912 1398.35 Q55.6912 1405.46 57.4967 1409.02 Q59.3254 1412.56 62.9365 1412.56 Q66.5707 1412.56 68.3763 1409.02 Q70.205 1405.46 70.205 1398.35 Q70.205 1391.22 68.3763 1387.68 Q66.5707 1384.11 62.9365 1384.11 M62.9365 1380.41 Q68.7467 1380.41 71.8022 1385.02 Q74.8809 1389.6 74.8809 1398.35 Q74.8809 1407.08 71.8022 1411.68 Q68.7467 1416.27 62.9365 1416.27 Q57.1264 1416.27 54.0477 1411.68 Q50.9921 1407.08 50.9921 1398.35 Q50.9921 1389.6 54.0477 1385.02 Q57.1264 1380.41 62.9365 1380.41 Z" fill="#000000" fill-rule="evenodd" fill-opacity="1" /><path clip-path="url(#clip500)" d="M83.0984 1409.71 L87.9827 1409.71 L87.9827 1415.59 L83.0984 1415.59 L83.0984 1409.71 Z" fill="#000000" fill-rule="evenodd" fill-opacity="1" /><path clip-path="url(#clip500)" d="M108.168 1384.11 Q104.557 1384.11 102.728 1387.68 Q100.922 1391.22 100.922 1398.35 Q100.922 1405.46 102.728 1409.02 Q104.557 1412.56 108.168 1412.56 Q111.802 1412.56 113.608 1409.02 Q115.436 1405.46 115.436 1398.35 Q115.436 1391.22 113.608 1387.68 Q111.802 1384.11 108.168 1384.11 M108.168 1380.41 Q113.978 1380.41 117.033 1385.02 Q120.112 1389.6 120.112 1398.35 Q120.112 1407.08 117.033 1411.68 Q113.978 1416.27 108.168 1416.27 Q102.358 1416.27 99.2789 1411.68 Q96.2234 1407.08 96.2234 1398.35 Q96.2234 1389.6 99.2789 1385.02 Q102.358 1380.41 108.168 1380.41 Z" fill="#000000" fill-rule="evenodd" fill-opacity="1" /><path clip-path="url(#clip500)" d="M138.33 1384.11 Q134.719 1384.11 132.89 1387.68 Q131.084 1391.22 131.084 1398.35 Q131.084 1405.46 132.89 1409.02 Q134.719 1412.56 138.33 1412.56 Q141.964 1412.56 143.769 1409.02 Q145.598 1405.46 145.598 1398.35 Q145.598 1391.22 143.769 1387.68 Q141.964 1384.11 138.33 1384.11 M138.33 1380.41 Q144.14 1380.41 147.195 1385.02 Q150.274 1389.6 150.274 1398.35 Q150.274 1407.08 147.195 1411.68 Q144.14 1416.27 138.33 1416.27 Q132.519 1416.27 129.441 1411.68 Q126.385 1407.08 126.385 1398.35 Q126.385 1389.6 129.441 1385.02 Q132.519 1380.41 138.33 1380.41 Z" fill="#000000" fill-rule="evenodd" fill-opacity="1" /><path clip-path="url(#clip500)" d="M63.9319 1075.05 Q60.3208 1075.05 58.4921 1078.61 Q56.6865 1082.15 56.6865 1089.28 Q56.6865 1096.39 58.4921 1099.95 Q60.3208 1103.49 63.9319 1103.49 Q67.5661 1103.49 69.3717 1099.95 Q71.2004 1096.39 71.2004 1089.28 Q71.2004 1082.15 69.3717 1078.61 Q67.5661 1075.05 63.9319 1075.05 M63.9319 1071.34 Q69.742 1071.34 72.7976 1075.95 Q75.8763 1080.53 75.8763 1089.28 Q75.8763 1098.01 72.7976 1102.62 Q69.742 1107.2 63.9319 1107.2 Q58.1217 1107.2 55.043 1102.62 Q51.9875 1098.01 51.9875 1089.28 Q51.9875 1080.53 55.043 1075.95 Q58.1217 1071.34 63.9319 1071.34 Z" fill="#000000" fill-rule="evenodd" fill-opacity="1" /><path clip-path="url(#clip500)" d="M84.0938 1100.65 L88.978 1100.65 L88.978 1106.53 L84.0938 1106.53 L84.0938 1100.65 Z" fill="#000000" fill-rule="evenodd" fill-opacity="1" /><path clip-path="url(#clip500)" d="M103.191 1102.59 L119.51 1102.59 L119.51 1106.53 L97.566 1106.53 L97.566 1102.59 Q100.228 1099.84 104.811 1095.21 Q109.418 1090.55 110.598 1089.21 Q112.844 1086.69 113.723 1084.95 Q114.626 1083.19 114.626 1081.5 Q114.626 1078.75 112.682 1077.01 Q110.76 1075.28 107.658 1075.28 Q105.459 1075.28 103.006 1076.04 Q100.575 1076.81 97.7974 1078.36 L97.7974 1073.63 Q100.621 1072.5 103.075 1071.92 Q105.529 1071.34 107.566 1071.34 Q112.936 1071.34 116.131 1074.03 Q119.325 1076.71 119.325 1081.2 Q119.325 1083.33 118.515 1085.25 Q117.728 1087.15 115.621 1089.74 Q115.043 1090.42 111.941 1093.63 Q108.839 1096.83 103.191 1102.59 Z" fill="#000000" fill-rule="evenodd" fill-opacity="1" /><path clip-path="url(#clip500)" d="M129.371 1071.97 L147.728 1071.97 L147.728 1075.9 L133.654 1075.9 L133.654 1084.37 Q134.672 1084.03 135.691 1083.87 Q136.709 1083.68 137.728 1083.68 Q143.515 1083.68 146.894 1086.85 Q150.274 1090.02 150.274 1095.44 Q150.274 1101.02 146.802 1104.12 Q143.33 1107.2 137.01 1107.2 Q134.834 1107.2 132.566 1106.83 Q130.32 1106.46 127.913 1105.72 L127.913 1101.02 Q129.996 1102.15 132.219 1102.71 Q134.441 1103.26 136.918 1103.26 Q140.922 1103.26 143.26 1101.16 Q145.598 1099.05 145.598 1095.44 Q145.598 1091.83 143.26 1089.72 Q140.922 1087.62 136.918 1087.62 Q135.043 1087.62 133.168 1088.03 Q131.316 1088.45 129.371 1089.33 L129.371 1071.97 Z" fill="#000000" fill-rule="evenodd" fill-opacity="1" /><path clip-path="url(#clip500)" d="M62.9365 765.979 Q59.3254 765.979 57.4967 769.544 Q55.6912 773.086 55.6912 780.215 Q55.6912 787.322 57.4967 790.886 Q59.3254 794.428 62.9365 794.428 Q66.5707 794.428 68.3763 790.886 Q70.205 787.322 70.205 780.215 Q70.205 773.086 68.3763 769.544 Q66.5707 765.979 62.9365 765.979 M62.9365 762.275 Q68.7467 762.275 71.8022 766.882 Q74.8809 771.465 74.8809 780.215 Q74.8809 788.942 71.8022 793.548 Q68.7467 798.132 62.9365 798.132 Q57.1264 798.132 54.0477 793.548 Q50.9921 788.942 50.9921 780.215 Q50.9921 771.465 54.0477 766.882 Q57.1264 762.275 62.9365 762.275 Z" fill="#000000" fill-rule="evenodd" fill-opacity="1" /><path clip-path="url(#clip500)" d="M83.0984 791.581 L87.9827 791.581 L87.9827 797.46 L83.0984 797.46 L83.0984 791.581 Z" fill="#000000" fill-rule="evenodd" fill-opacity="1" /><path clip-path="url(#clip500)" d="M98.2141 762.9 L116.57 762.9 L116.57 766.836 L102.496 766.836 L102.496 775.308 Q103.515 774.961 104.534 774.798 Q105.552 774.613 106.571 774.613 Q112.358 774.613 115.737 777.785 Q119.117 780.956 119.117 786.372 Q119.117 791.951 115.645 795.053 Q112.172 798.132 105.853 798.132 Q103.677 798.132 101.409 797.761 Q99.1632 797.391 96.7558 796.65 L96.7558 791.951 Q98.8391 793.085 101.061 793.641 Q103.284 794.197 105.76 794.197 Q109.765 794.197 112.103 792.09 Q114.441 789.984 114.441 786.372 Q114.441 782.761 112.103 780.655 Q109.765 778.548 105.76 778.548 Q103.885 778.548 102.01 778.965 Q100.159 779.382 98.2141 780.261 L98.2141 762.9 Z" fill="#000000" fill-rule="evenodd" fill-opacity="1" /><path clip-path="url(#clip500)" d="M138.33 765.979 Q134.719 765.979 132.89 769.544 Q131.084 773.086 131.084 780.215 Q131.084 787.322 132.89 790.886 Q134.719 794.428 138.33 794.428 Q141.964 794.428 143.769 790.886 Q145.598 787.322 145.598 780.215 Q145.598 773.086 143.769 769.544 Q141.964 765.979 138.33 765.979 M138.33 762.275 Q144.14 762.275 147.195 766.882 Q150.274 771.465 150.274 780.215 Q150.274 788.942 147.195 793.548 Q144.14 798.132 138.33 798.132 Q132.519 798.132 129.441 793.548 Q126.385 788.942 126.385 780.215 Q126.385 771.465 129.441 766.882 Q132.519 762.275 138.33 762.275 Z" fill="#000000" fill-rule="evenodd" fill-opacity="1" /><path clip-path="url(#clip500)" d="M63.9319 456.912 Q60.3208 456.912 58.4921 460.477 Q56.6865 464.019 56.6865 471.148 Q56.6865 478.255 58.4921 481.82 Q60.3208 485.361 63.9319 485.361 Q67.5661 485.361 69.3717 481.82 Q71.2004 478.255 71.2004 471.148 Q71.2004 464.019 69.3717 460.477 Q67.5661 456.912 63.9319 456.912 M63.9319 453.209 Q69.742 453.209 72.7976 457.815 Q75.8763 462.398 75.8763 471.148 Q75.8763 479.875 72.7976 484.482 Q69.742 489.065 63.9319 489.065 Q58.1217 489.065 55.043 484.482 Q51.9875 479.875 51.9875 471.148 Q51.9875 462.398 55.043 457.815 Q58.1217 453.209 63.9319 453.209 Z" fill="#000000" fill-rule="evenodd" fill-opacity="1" /><path clip-path="url(#clip500)" d="M84.0938 482.514 L88.978 482.514 L88.978 488.394 L84.0938 488.394 L84.0938 482.514 Z" fill="#000000" fill-rule="evenodd" fill-opacity="1" /><path clip-path="url(#clip500)" d="M97.9826 453.834 L120.205 453.834 L120.205 455.824 L107.658 488.394 L102.774 488.394 L114.58 457.769 L97.9826 457.769 L97.9826 453.834 Z" fill="#000000" fill-rule="evenodd" fill-opacity="1" /><path clip-path="url(#clip500)" d="M129.371 453.834 L147.728 453.834 L147.728 457.769 L133.654 457.769 L133.654 466.241 Q134.672 465.894 135.691 465.732 Q136.709 465.547 137.728 465.547 Q143.515 465.547 146.894 468.718 Q150.274 471.889 150.274 477.306 Q150.274 482.884 146.802 485.986 Q143.33 489.065 137.01 489.065 Q134.834 489.065 132.566 488.695 Q130.32 488.324 127.913 487.583 L127.913 482.884 Q129.996 484.019 132.219 484.574 Q134.441 485.13 136.918 485.13 Q140.922 485.13 143.26 483.023 Q145.598 480.917 145.598 477.306 Q145.598 473.695 143.26 471.588 Q140.922 469.482 136.918 469.482 Q135.043 469.482 133.168 469.898 Q131.316 470.315 129.371 471.195 L129.371 453.834 Z" fill="#000000" fill-rule="evenodd" fill-opacity="1" /><path clip-path="url(#clip500)" d="M53.7467 175.392 L61.3856 175.392 L61.3856 149.026 L53.0754 150.693 L53.0754 146.434 L61.3393 144.767 L66.0152 144.767 L66.0152 175.392 L73.654 175.392 L73.654 179.327 L53.7467 179.327 L53.7467 175.392 Z" fill="#000000" fill-rule="evenodd" fill-opacity="1" /><path clip-path="url(#clip500)" d="M83.0984 173.447 L87.9827 173.447 L87.9827 179.327 L83.0984 179.327 L83.0984 173.447 Z" fill="#000000" fill-rule="evenodd" fill-opacity="1" /><path clip-path="url(#clip500)" d="M108.168 147.846 Q104.557 147.846 102.728 151.41 Q100.922 154.952 100.922 162.082 Q100.922 169.188 102.728 172.753 Q104.557 176.295 108.168 176.295 Q111.802 176.295 113.608 172.753 Q115.436 169.188 115.436 162.082 Q115.436 154.952 113.608 151.41 Q111.802 147.846 108.168 147.846 M108.168 144.142 Q113.978 144.142 117.033 148.748 Q120.112 153.332 120.112 162.082 Q120.112 170.808 117.033 175.415 Q113.978 179.998 108.168 179.998 Q102.358 179.998 99.2789 175.415 Q96.2234 170.808 96.2234 162.082 Q96.2234 153.332 99.2789 148.748 Q102.358 144.142 108.168 144.142 Z" fill="#000000" fill-rule="evenodd" fill-opacity="1" /><path clip-path="url(#clip500)" d="M138.33 147.846 Q134.719 147.846 132.89 151.41 Q131.084 154.952 131.084 162.082 Q131.084 169.188 132.89 172.753 Q134.719 176.295 138.33 176.295 Q141.964 176.295 143.769 172.753 Q145.598 169.188 145.598 162.082 Q145.598 154.952 143.769 151.41 Q141.964 147.846 138.33 147.846 M138.33 144.142 Q144.14 144.142 147.195 148.748 Q150.274 153.332 150.274 162.082 Q150.274 170.808 147.195 175.415 Q144.14 179.998 138.33 179.998 Q132.519 179.998 129.441 175.415 Q126.385 170.808 126.385 162.082 Q126.385 153.332 129.441 148.748 Q132.519 144.142 138.33 144.142 Z" fill="#000000" fill-rule="evenodd" fill-opacity="1" /><path clip-path="url(#clip500)" d="M1221.57 34.0924 L1221.57 9.54393 L1229.03 9.54393 L1229.03 72.576 L1221.57 72.576 L1221.57 65.7705 Q1219.22 69.8214 1215.62 71.8063 Q1212.05 73.7508 1207.03 73.7508 Q1198.81 73.7508 1193.62 67.1883 Q1188.48 60.6258 1188.48 49.9314 Q1188.48 39.2371 1193.62 32.6746 Q1198.81 26.1121 1207.03 26.1121 Q1212.05 26.1121 1215.62 28.0971 Q1219.22 30.0415 1221.57 34.0924 M1196.17 49.9314 Q1196.17 58.1548 1199.54 62.8538 Q1202.94 67.5124 1208.85 67.5124 Q1214.77 67.5124 1218.17 62.8538 Q1221.57 58.1548 1221.57 49.9314 Q1221.57 41.7081 1218.17 37.0496 Q1214.77 32.3505 1208.85 32.3505 Q1202.94 32.3505 1199.54 37.0496 Q1196.17 41.7081 1196.17 49.9314 Z" fill="#000000" fill-rule="evenodd" fill-opacity="1" /><path clip-path="url(#clip500)" d="M1245.35 34.9026 L1297.28 34.9026 L1297.28 41.7081 L1245.35 41.7081 L1245.35 34.9026 M1245.35 51.4303 L1297.28 51.4303 L1297.28 58.3168 L1245.35 58.3168 L1245.35 51.4303 Z" fill="#000000" fill-rule="evenodd" fill-opacity="1" /><path clip-path="url(#clip500)" d="M1321.99 65.6895 L1350.55 65.6895 L1350.55 72.576 L1312.15 72.576 L1312.15 65.6895 Q1316.81 60.8689 1324.83 52.7671 Q1332.89 44.6248 1334.96 42.2752 Q1338.89 37.8598 1340.43 34.8216 Q1342.01 31.7429 1342.01 28.7857 Q1342.01 23.9651 1338.6 20.927 Q1335.24 17.8888 1329.81 17.8888 Q1325.96 17.8888 1321.67 19.2256 Q1317.42 20.5624 1312.56 23.2765 L1312.56 15.0127 Q1317.5 13.0277 1321.79 12.015 Q1326.09 11.0023 1329.65 11.0023 Q1339.05 11.0023 1344.64 15.7013 Q1350.23 20.4004 1350.23 28.2591 Q1350.23 31.9859 1348.81 35.3482 Q1347.43 38.6699 1343.75 43.2069 Q1342.74 44.3817 1337.31 50.0125 Q1331.88 55.6027 1321.99 65.6895 Z" fill="#000000" fill-rule="evenodd" fill-opacity="1" /><polyline clip-path="url(#clip502)" style="stroke:#009af9; stroke-linecap:round; stroke-linejoin:round; stroke-width:12; stroke-opacity:1; fill:none" points="247.59,162.047 451.975,1286.88 656.36,1360.31 860.745,1372.84 1065.13,1390.76 1269.51,1414.58 1473.9,1388.19 1678.29,1416.07 1882.67,1433.12 2087.06,1411.35 2291.44,1399.53 "/>
<polyline clip-path="url(#clip502)" style="stroke:#e26f46; stroke-linecap:round; stroke-linejoin:round; stroke-width:12; stroke-opacity:1; fill:none" points="247.59,162.047 451.975,1221.39 656.36,1343.07 860.745,1349.19 1065.13,1385.39 1269.51,1402.76 1473.9,1398.58 1678.29,1422.04 1882.67,1408.83 2087.06,1422.31 2291.44,1447.87 "/>
<polyline clip-path="url(#clip502)" style="stroke:#3da44d; stroke-linecap:round; stroke-linejoin:round; stroke-width:12; stroke-opacity:1; fill:none" points="247.59,162.047 451.975,399.493 656.36,561.262 860.745,690.138 1065.13,812.617 1269.51,884.772 1473.9,951.381 1678.29,1018.42 1882.67,1056.64 2087.06,1072.31 2291.44,1100.18 "/>
<path clip-path="url(#clip500)" d="M1881.95 376.265 L2280.54 376.265 L2280.54 168.905 L1881.95 168.905  Z" fill="#ffffff" fill-rule="evenodd" fill-opacity="1"/>
<polyline clip-path="url(#clip500)" style="stroke:#000000; stroke-linecap:round; stroke-linejoin:round; stroke-width:4; stroke-opacity:1; fill:none" points="1881.95,376.265 2280.54,376.265 2280.54,168.905 1881.95,168.905 1881.95,376.265 "/>
<polyline clip-path="url(#clip500)" style="stroke:#009af9; stroke-linecap:round; stroke-linejoin:round; stroke-width:12; stroke-opacity:1; fill:none" points="1906.02,220.745 2050.45,220.745 "/>
<path clip-path="url(#clip500)" d="M2074.52 203.465 L2079.2 203.465 L2079.2 217.631 L2096.19 217.631 L2096.19 203.465 L2100.87 203.465 L2100.87 238.025 L2096.19 238.025 L2096.19 221.566 L2079.2 221.566 L2079.2 238.025 L2074.52 238.025 L2074.52 203.465 Z" fill="#000000" fill-rule="evenodd" fill-opacity="1" /><path clip-path="url(#clip500)" d="M2110.17 203.465 L2117.14 203.465 L2125.96 226.983 L2134.82 203.465 L2141.79 203.465 L2141.79 238.025 L2137.23 238.025 L2137.23 207.678 L2128.32 231.381 L2123.62 231.381 L2114.71 207.678 L2114.71 238.025 L2110.17 238.025 L2110.17 203.465 Z" fill="#000000" fill-rule="evenodd" fill-opacity="1" /><path clip-path="url(#clip500)" d="M2176.95 206.127 L2176.95 211.057 Q2174.59 208.858 2171.91 207.77 Q2169.25 206.682 2166.24 206.682 Q2160.31 206.682 2157.16 210.316 Q2154.01 213.928 2154.01 220.779 Q2154.01 227.608 2157.16 231.242 Q2160.31 234.853 2166.24 234.853 Q2169.25 234.853 2171.91 233.765 Q2174.59 232.677 2176.95 230.478 L2176.95 235.363 Q2174.5 237.029 2171.75 237.863 Q2169.01 238.696 2165.96 238.696 Q2158.11 238.696 2153.6 233.904 Q2149.08 229.09 2149.08 220.779 Q2149.08 212.446 2153.6 207.654 Q2158.11 202.84 2165.96 202.84 Q2169.06 202.84 2171.79 203.673 Q2174.55 204.483 2176.95 206.127 Z" fill="#000000" fill-rule="evenodd" fill-opacity="1" /><polyline clip-path="url(#clip500)" style="stroke:#e26f46; stroke-linecap:round; stroke-linejoin:round; stroke-width:12; stroke-opacity:1; fill:none" points="1906.02,272.585 2050.45,272.585 "/>
<path clip-path="url(#clip500)" d="M2090.91 273.661 Q2092.42 274.17 2093.83 275.837 Q2095.26 277.504 2096.7 280.42 L2101.45 289.865 L2096.42 289.865 L2092 280.999 Q2090.29 277.527 2088.67 276.393 Q2087.07 275.258 2084.29 275.258 L2079.2 275.258 L2079.2 289.865 L2074.52 289.865 L2074.52 255.305 L2085.08 255.305 Q2091.01 255.305 2093.92 257.781 Q2096.84 260.258 2096.84 265.258 Q2096.84 268.522 2095.31 270.675 Q2093.81 272.828 2090.91 273.661 M2079.2 259.147 L2079.2 271.416 L2085.08 271.416 Q2088.46 271.416 2090.17 269.865 Q2091.91 268.291 2091.91 265.258 Q2091.91 262.226 2090.17 260.698 Q2088.46 259.147 2085.08 259.147 L2079.2 259.147 Z" fill="#000000" fill-rule="evenodd" fill-opacity="1" /><path clip-path="url(#clip500)" d="M2117.09 259.911 L2110.75 277.11 L2123.46 277.11 L2117.09 259.911 M2114.45 255.305 L2119.76 255.305 L2132.93 289.865 L2128.07 289.865 L2124.92 280.999 L2109.34 280.999 L2106.19 289.865 L2101.26 289.865 L2114.45 255.305 Z" fill="#000000" fill-rule="evenodd" fill-opacity="1" /><path clip-path="url(#clip500)" d="M2134.59 274.98 L2147.07 274.98 L2147.07 278.777 L2134.59 278.777 L2134.59 274.98 Z" fill="#000000" fill-rule="evenodd" fill-opacity="1" /><path clip-path="url(#clip500)" d="M2154.04 255.305 L2158.71 255.305 L2158.71 269.471 L2175.7 269.471 L2175.7 255.305 L2180.38 255.305 L2180.38 289.865 L2175.7 289.865 L2175.7 273.406 L2158.71 273.406 L2158.71 289.865 L2154.04 289.865 L2154.04 255.305 Z" fill="#000000" fill-rule="evenodd" fill-opacity="1" /><path clip-path="url(#clip500)" d="M2189.69 255.305 L2196.65 255.305 L2205.47 278.823 L2214.34 255.305 L2221.31 255.305 L2221.31 289.865 L2216.75 289.865 L2216.75 259.518 L2207.83 283.221 L2203.13 283.221 L2194.22 259.518 L2194.22 289.865 L2189.69 289.865 L2189.69 255.305 Z" fill="#000000" fill-rule="evenodd" fill-opacity="1" /><path clip-path="url(#clip500)" d="M2256.47 257.967 L2256.47 262.897 Q2254.11 260.698 2251.42 259.61 Q2248.76 258.522 2245.75 258.522 Q2239.82 258.522 2236.68 262.156 Q2233.53 265.768 2233.53 272.619 Q2233.53 279.448 2236.68 283.082 Q2239.82 286.693 2245.75 286.693 Q2248.76 286.693 2251.42 285.605 Q2254.11 284.517 2256.47 282.318 L2256.47 287.203 Q2254.01 288.869 2251.26 289.703 Q2248.53 290.536 2245.47 290.536 Q2237.63 290.536 2233.11 285.744 Q2228.6 280.93 2228.6 272.619 Q2228.6 264.286 2233.11 259.494 Q2237.63 254.68 2245.47 254.68 Q2248.57 254.68 2251.31 255.513 Q2254.06 256.323 2256.47 257.967 Z" fill="#000000" fill-rule="evenodd" fill-opacity="1" /><polyline clip-path="url(#clip500)" style="stroke:#3da44d; stroke-linecap:round; stroke-linejoin:round; stroke-width:12; stroke-opacity:1; fill:none" points="1906.02,324.425 2050.45,324.425 "/>
<path clip-path="url(#clip500)" d="M2090.91 325.501 Q2092.42 326.01 2093.83 327.677 Q2095.26 329.344 2096.7 332.26 L2101.45 341.705 L2096.42 341.705 L2092 332.839 Q2090.29 329.367 2088.67 328.233 Q2087.07 327.098 2084.29 327.098 L2079.2 327.098 L2079.2 341.705 L2074.52 341.705 L2074.52 307.145 L2085.08 307.145 Q2091.01 307.145 2093.92 309.621 Q2096.84 312.098 2096.84 317.098 Q2096.84 320.362 2095.31 322.515 Q2093.81 324.668 2090.91 325.501 M2079.2 310.987 L2079.2 323.256 L2085.08 323.256 Q2088.46 323.256 2090.17 321.705 Q2091.91 320.131 2091.91 317.098 Q2091.91 314.066 2090.17 312.538 Q2088.46 310.987 2085.08 310.987 L2079.2 310.987 Z" fill="#000000" fill-rule="evenodd" fill-opacity="1" /><path clip-path="url(#clip500)" d="M2117.09 311.751 L2110.75 328.95 L2123.46 328.95 L2117.09 311.751 M2114.45 307.145 L2119.76 307.145 L2132.93 341.705 L2128.07 341.705 L2124.92 332.839 L2109.34 332.839 L2106.19 341.705 L2101.26 341.705 L2114.45 307.145 Z" fill="#000000" fill-rule="evenodd" fill-opacity="1" /><path clip-path="url(#clip500)" d="M2137.97 307.145 L2144.94 307.145 L2153.76 330.663 L2162.63 307.145 L2169.59 307.145 L2169.59 341.705 L2165.03 341.705 L2165.03 311.358 L2156.12 335.061 L2151.42 335.061 L2142.51 311.358 L2142.51 341.705 L2137.97 341.705 L2137.97 307.145 Z" fill="#000000" fill-rule="evenodd" fill-opacity="1" /></svg>
