<?xml version="1.0" encoding="utf-8"?>
<svg xmlns="http://www.w3.org/2000/svg" xmlns:xlink="http://www.w3.org/1999/xlink" width="450" height="350" viewBox="0 0 1800 1400">
<defs>
  <clipPath id="clip920">
    <rect x="0" y="0" width="1800" height="1400"/>
  </clipPath>
</defs>
<path clip-path="url(#clip920)" d="M0 1400 L1800 1400 L1800 0 L0 0  Z" fill="#ffffff" fill-rule="evenodd" fill-opacity="1"/>
<defs>
  <clipPath id="clip921">
    <rect x="360" y="0" width="1261" height="1261"/>
  </clipPath>
</defs>
<defs>
  <clipPath id="clip922">
    <rect x="205" y="47" width="1548" height="1165"/>
  </clipPath>
</defs>
<path clip-path="url(#clip920)" d="M205.884 1211.5 L1752.76 1211.5 L1752.76 47.2441 L205.884 47.2441  Z" fill="#ffffff" fill-rule="evenodd" fill-opacity="1"/>
<polyline clip-path="url(#clip922)" style="stroke:#000000; stroke-linecap:round; stroke-linejoin:round; stroke-width:2; stroke-opacity:0.1; fill:none" points="219.881,1211.5 219.881,47.2441 "/>
<polyline clip-path="url(#clip922)" style="stroke:#000000; stroke-linecap:round; stroke-linejoin:round; stroke-width:2; stroke-opacity:0.1; fill:none" points="592.155,1211.5 592.155,47.2441 "/>
<polyline clip-path="url(#clip922)" style="stroke:#000000; stroke-linecap:round; stroke-linejoin:round; stroke-width:2; stroke-opacity:0.1; fill:none" points="964.429,1211.5 964.429,47.2441 "/>
<polyline clip-path="url(#clip922)" style="stroke:#000000; stroke-linecap:round; stroke-linejoin:round; stroke-width:2; stroke-opacity:0.1; fill:none" points="1336.7,1211.5 1336.7,47.2441 "/>
<polyline clip-path="url(#clip922)" style="stroke:#000000; stroke-linecap:round; stroke-linejoin:round; stroke-width:2; stroke-opacity:0.1; fill:none" points="1708.98,1211.5 1708.98,47.2441 "/>
<polyline clip-path="url(#clip920)" style="stroke:#000000; stroke-linecap:round; stroke-linejoin:round; stroke-width:4; stroke-opacity:1; fill:none" points="205.884,1211.5 1752.76,1211.5 "/>
<polyline clip-path="url(#clip920)" style="stroke:#000000; stroke-linecap:round; stroke-linejoin:round; stroke-width:4; stroke-opacity:1; fill:none" points="219.881,1211.5 219.881,1192.6 "/>
<polyline clip-path="url(#clip920)" style="stroke:#000000; stroke-linecap:round; stroke-linejoin:round; stroke-width:4; stroke-opacity:1; fill:none" points="592.155,1211.5 592.155,1192.6 "/>
<polyline clip-path="url(#clip920)" style="stroke:#000000; stroke-linecap:round; stroke-linejoin:round; stroke-width:4; stroke-opacity:1; fill:none" points="964.429,1211.5 964.429,1192.6 "/>
<polyline clip-path="url(#clip920)" style="stroke:#000000; stroke-linecap:round; stroke-linejoin:round; stroke-width:4; stroke-opacity:1; fill:none" points="1336.7,1211.5 1336.7,1192.6 "/>
<polyline clip-path="url(#clip920)" style="stroke:#000000; stroke-linecap:round; stroke-linejoin:round; stroke-width:4; stroke-opacity:1; fill:none" points="1708.98,1211.5 1708.98,1192.6 "/>
<path clip-path="url(#clip920)" d="M219.881 1237.62 Q216.27 1237.62 214.441 1241.18 Q212.636 1244.72 212.636 1251.85 Q212.636 1258.96 214.441 1262.53 Q216.27 1266.07 219.881 1266.07 Q223.515 1266.07 225.321 1262.53 Q227.15 1258.96 227.15 1251.85 Q227.15 1244.72 225.321 1241.18 Q223.515 1237.62 219.881 1237.62 M219.881 1233.91 Q225.691 1233.91 228.747 1238.52 Q231.825 1243.1 231.825 1251.85 Q231.825 1260.58 228.747 1265.19 Q225.691 1269.77 219.881 1269.77 Q214.071 1269.77 210.992 1265.19 Q207.937 1260.58 207.937 1251.85 Q207.937 1243.1 210.992 1238.52 Q214.071 1233.91 219.881 1233.91 Z" fill="#000000" fill-rule="evenodd" fill-opacity="1" /><path clip-path="url(#clip920)" d="M571.426 1265.16 L587.745 1265.16 L587.745 1269.1 L565.801 1269.1 L565.801 1265.16 Q568.463 1262.41 573.046 1257.78 Q577.653 1253.13 578.833 1251.79 Q581.079 1249.26 581.958 1247.53 Q582.861 1245.77 582.861 1244.08 Q582.861 1241.32 580.917 1239.59 Q578.995 1237.85 575.893 1237.85 Q573.694 1237.85 571.241 1238.61 Q568.81 1239.38 566.032 1240.93 L566.032 1236.21 Q568.856 1235.07 571.31 1234.49 Q573.764 1233.91 575.801 1233.91 Q581.171 1233.91 584.366 1236.6 Q587.56 1239.29 587.56 1243.78 Q587.56 1245.91 586.75 1247.83 Q585.963 1249.72 583.856 1252.32 Q583.278 1252.99 580.176 1256.21 Q577.074 1259.4 571.426 1265.16 Z" fill="#000000" fill-rule="evenodd" fill-opacity="1" /><path clip-path="url(#clip920)" d="M597.606 1234.54 L615.963 1234.54 L615.963 1238.48 L601.889 1238.48 L601.889 1246.95 Q602.907 1246.6 603.926 1246.44 Q604.944 1246.25 605.963 1246.25 Q611.75 1246.25 615.129 1249.42 Q618.509 1252.6 618.509 1258.01 Q618.509 1263.59 615.037 1266.69 Q611.565 1269.77 605.245 1269.77 Q603.069 1269.77 600.801 1269.4 Q598.555 1269.03 596.148 1268.29 L596.148 1263.59 Q598.231 1264.72 600.453 1265.28 Q602.676 1265.84 605.153 1265.84 Q609.157 1265.84 611.495 1263.73 Q613.833 1261.62 613.833 1258.01 Q613.833 1254.4 611.495 1252.29 Q609.157 1250.19 605.153 1250.19 Q603.278 1250.19 601.403 1250.6 Q599.551 1251.02 597.606 1251.9 L597.606 1234.54 Z" fill="#000000" fill-rule="evenodd" fill-opacity="1" /><path clip-path="url(#clip920)" d="M939.128 1234.54 L957.484 1234.54 L957.484 1238.48 L943.41 1238.48 L943.41 1246.95 Q944.429 1246.6 945.447 1246.44 Q946.466 1246.25 947.484 1246.25 Q953.271 1246.25 956.651 1249.42 Q960.031 1252.6 960.031 1258.01 Q960.031 1263.59 956.558 1266.69 Q953.086 1269.77 946.767 1269.77 Q944.591 1269.77 942.322 1269.4 Q940.077 1269.03 937.67 1268.29 L937.67 1263.59 Q939.753 1264.72 941.975 1265.28 Q944.197 1265.84 946.674 1265.84 Q950.679 1265.84 953.017 1263.73 Q955.355 1261.62 955.355 1258.01 Q955.355 1254.4 953.017 1252.29 Q950.679 1250.19 946.674 1250.19 Q944.799 1250.19 942.924 1250.6 Q941.072 1251.02 939.128 1251.9 L939.128 1234.54 Z" fill="#000000" fill-rule="evenodd" fill-opacity="1" /><path clip-path="url(#clip920)" d="M979.244 1237.62 Q975.632 1237.62 973.804 1241.18 Q971.998 1244.72 971.998 1251.85 Q971.998 1258.96 973.804 1262.53 Q975.632 1266.07 979.244 1266.07 Q982.878 1266.07 984.683 1262.53 Q986.512 1258.96 986.512 1251.85 Q986.512 1244.72 984.683 1241.18 Q982.878 1237.62 979.244 1237.62 M979.244 1233.91 Q985.054 1233.91 988.109 1238.52 Q991.188 1243.1 991.188 1251.85 Q991.188 1260.58 988.109 1265.19 Q985.054 1269.77 979.244 1269.77 Q973.433 1269.77 970.355 1265.19 Q967.299 1260.58 967.299 1251.85 Q967.299 1243.1 970.355 1238.52 Q973.433 1233.91 979.244 1233.91 Z" fill="#000000" fill-rule="evenodd" fill-opacity="1" /><path clip-path="url(#clip920)" d="M1310.56 1234.54 L1332.78 1234.54 L1332.78 1236.53 L1320.23 1269.1 L1315.35 1269.1 L1327.15 1238.48 L1310.56 1238.48 L1310.56 1234.54 Z" fill="#000000" fill-rule="evenodd" fill-opacity="1" /><path clip-path="url(#clip920)" d="M1341.95 1234.54 L1360.3 1234.54 L1360.3 1238.48 L1346.23 1238.48 L1346.23 1246.95 Q1347.25 1246.6 1348.27 1246.44 Q1349.28 1246.25 1350.3 1246.25 Q1356.09 1246.25 1359.47 1249.42 Q1362.85 1252.6 1362.85 1258.01 Q1362.85 1263.59 1359.38 1266.69 Q1355.9 1269.77 1349.58 1269.77 Q1347.41 1269.77 1345.14 1269.4 Q1342.89 1269.03 1340.49 1268.29 L1340.49 1263.59 Q1342.57 1264.72 1344.79 1265.28 Q1347.02 1265.84 1349.49 1265.84 Q1353.5 1265.84 1355.83 1263.73 Q1358.17 1261.62 1358.17 1258.01 Q1358.17 1254.4 1355.83 1252.29 Q1353.5 1250.19 1349.49 1250.19 Q1347.62 1250.19 1345.74 1250.6 Q1343.89 1251.02 1341.95 1251.9 L1341.95 1234.54 Z" fill="#000000" fill-rule="evenodd" fill-opacity="1" /><path clip-path="url(#clip920)" d="M1668.58 1265.16 L1676.22 1265.16 L1676.22 1238.8 L1667.91 1240.47 L1667.91 1236.21 L1676.18 1234.54 L1680.85 1234.54 L1680.85 1265.16 L1688.49 1265.16 L1688.49 1269.1 L1668.58 1269.1 L1668.58 1265.16 Z" fill="#000000" fill-rule="evenodd" fill-opacity="1" /><path clip-path="url(#clip920)" d="M1707.93 1237.62 Q1704.32 1237.62 1702.5 1241.18 Q1700.69 1244.72 1700.69 1251.85 Q1700.69 1258.96 1702.5 1262.53 Q1704.32 1266.07 1707.93 1266.07 Q1711.57 1266.07 1713.37 1262.53 Q1715.2 1258.96 1715.2 1251.85 Q1715.2 1244.72 1713.37 1241.18 Q1711.57 1237.62 1707.93 1237.62 M1707.93 1233.91 Q1713.74 1233.91 1716.8 1238.52 Q1719.88 1243.1 1719.88 1251.85 Q1719.88 1260.58 1716.8 1265.19 Q1713.74 1269.77 1707.93 1269.77 Q1702.12 1269.77 1699.05 1265.19 Q1695.99 1260.58 1695.99 1251.85 Q1695.99 1243.1 1699.05 1238.52 Q1702.12 1233.91 1707.93 1233.91 Z" fill="#000000" fill-rule="evenodd" fill-opacity="1" /><path clip-path="url(#clip920)" d="M1738.1 1237.62 Q1734.49 1237.62 1732.66 1241.18 Q1730.85 1244.72 1730.85 1251.85 Q1730.85 1258.96 1732.66 1262.53 Q1734.49 1266.07 1738.1 1266.07 Q1741.73 1266.07 1743.54 1262.53 Q1745.37 1258.96 1745.37 1251.85 Q1745.37 1244.72 1743.54 1241.18 Q1741.73 1237.62 1738.1 1237.62 M1738.1 1233.91 Q1743.91 1233.91 1746.96 1238.52 Q1750.04 1243.1 1750.04 1251.85 Q1750.04 1260.58 1746.96 1265.19 Q1743.91 1269.77 1738.1 1269.77 Q1732.29 1269.77 1729.21 1265.19 Q1726.15 1260.58 1726.15 1251.85 Q1726.15 1243.1 1729.21 1238.52 Q1732.29 1233.91 1738.1 1233.91 Z" fill="#000000" fill-rule="evenodd" fill-opacity="1" /><path clip-path="url(#clip920)" d="M993.752 1296.09 L984.252 1334.22 Q983.865 1335.93 983.865 1337.38 Q983.865 1340.41 985.83 1340.41 Q986.796 1340.41 987.569 1339.79 Q988.342 1339.18 988.954 1337.89 Q989.566 1336.61 989.952 1335.41 Q990.339 1334.19 990.854 1332.26 Q991.015 1331.49 991.144 1331.29 Q991.305 1331.07 991.756 1331.07 Q992.561 1331.07 992.561 1331.71 Q991.691 1335.87 990.564 1338.25 Q988.761 1341.89 985.701 1341.89 Q983.382 1341.89 981.74 1340.47 Q980.097 1339.05 979.711 1336.93 Q975.492 1341.89 971.112 1341.89 Q967.247 1341.89 964.799 1338.96 Q962.352 1335.99 962.352 1331.32 Q962.352 1326.62 964.671 1322.11 Q967.022 1317.6 970.725 1314.8 Q974.429 1312 978.229 1312 Q982.255 1312 984.316 1316.22 L988.277 1300.57 L988.471 1299.28 Q988.471 1298.89 988.31 1298.7 Q988.181 1298.47 987.408 1298.31 Q986.667 1298.15 985.186 1298.15 Q984.574 1298.15 984.284 1298.12 Q984.026 1298.09 983.801 1297.93 Q983.575 1297.73 983.575 1297.35 Q983.575 1296.22 984.509 1296.09 Q990.693 1295.38 992.883 1295.38 Q993.269 1295.38 993.495 1295.58 Q993.72 1295.74 993.72 1295.93 L993.752 1296.09 M983.511 1319.25 Q983.511 1318.96 983.286 1318.15 Q983.06 1317.35 982.545 1316.22 Q982.03 1315.09 980.902 1314.29 Q979.807 1313.45 978.326 1313.45 Q976.329 1313.45 974.236 1315.16 Q972.175 1316.86 970.661 1319.76 Q969.501 1322.08 968.245 1326.94 Q967.022 1331.81 967.022 1334.22 Q967.022 1335.7 967.344 1337.02 Q967.698 1338.31 968.696 1339.38 Q969.695 1340.41 971.241 1340.41 Q975.009 1340.41 978.712 1335.74 Q979.421 1334.93 979.582 1334.61 Q979.775 1334.25 980.033 1333.29 L983.318 1320.37 Q983.511 1319.41 983.511 1319.25 Z" fill="#000000" fill-rule="evenodd" fill-opacity="1" /><polyline clip-path="url(#clip922)" style="stroke:#000000; stroke-linecap:round; stroke-linejoin:round; stroke-width:2; stroke-opacity:0.1; fill:none" points="205.884,1192.86 1752.76,1192.86 "/>
<polyline clip-path="url(#clip922)" style="stroke:#000000; stroke-linecap:round; stroke-linejoin:round; stroke-width:2; stroke-opacity:0.1; fill:none" points="205.884,917.587 1752.76,917.587 "/>
<polyline clip-path="url(#clip922)" style="stroke:#000000; stroke-linecap:round; stroke-linejoin:round; stroke-width:2; stroke-opacity:0.1; fill:none" points="205.884,642.31 1752.76,642.31 "/>
<polyline clip-path="url(#clip922)" style="stroke:#000000; stroke-linecap:round; stroke-linejoin:round; stroke-width:2; stroke-opacity:0.1; fill:none" points="205.884,367.033 1752.76,367.033 "/>
<polyline clip-path="url(#clip922)" style="stroke:#000000; stroke-linecap:round; stroke-linejoin:round; stroke-width:2; stroke-opacity:0.1; fill:none" points="205.884,91.7564 1752.76,91.7564 "/>
<polyline clip-path="url(#clip920)" style="stroke:#000000; stroke-linecap:round; stroke-linejoin:round; stroke-width:4; stroke-opacity:1; fill:none" points="205.884,1211.5 205.884,47.2441 "/>
<polyline clip-path="url(#clip920)" style="stroke:#000000; stroke-linecap:round; stroke-linejoin:round; stroke-width:4; stroke-opacity:1; fill:none" points="205.884,1192.86 224.781,1192.86 "/>
<polyline clip-path="url(#clip920)" style="stroke:#000000; stroke-linecap:round; stroke-linejoin:round; stroke-width:4; stroke-opacity:1; fill:none" points="205.884,917.587 224.781,917.587 "/>
<polyline clip-path="url(#clip920)" style="stroke:#000000; stroke-linecap:round; stroke-linejoin:round; stroke-width:4; stroke-opacity:1; fill:none" points="205.884,642.31 224.781,642.31 "/>
<polyline clip-path="url(#clip920)" style="stroke:#000000; stroke-linecap:round; stroke-linejoin:round; stroke-width:4; stroke-opacity:1; fill:none" points="205.884,367.033 224.781,367.033 "/>
<polyline clip-path="url(#clip920)" style="stroke:#000000; stroke-linecap:round; stroke-linejoin:round; stroke-width:4; stroke-opacity:1; fill:none" points="205.884,91.7564 224.781,91.7564 "/>
<path clip-path="url(#clip920)" d="M166.939 1178.66 Q163.328 1178.66 161.499 1182.23 Q159.694 1185.77 159.694 1192.9 Q159.694 1200 161.499 1203.57 Q163.328 1207.11 166.939 1207.11 Q170.573 1207.11 172.379 1203.57 Q174.208 1200 174.208 1192.9 Q174.208 1185.77 172.379 1182.23 Q170.573 1178.66 166.939 1178.66 M166.939 1174.96 Q172.749 1174.96 175.805 1179.57 Q178.884 1184.15 178.884 1192.9 Q178.884 1201.63 175.805 1206.23 Q172.749 1210.81 166.939 1210.81 Q161.129 1210.81 158.05 1206.23 Q154.995 1201.63 154.995 1192.9 Q154.995 1184.15 158.05 1179.57 Q161.129 1174.96 166.939 1174.96 Z" fill="#000000" fill-rule="evenodd" fill-opacity="1" /><path clip-path="url(#clip920)" d="M157.981 900.307 L176.337 900.307 L176.337 904.242 L162.263 904.242 L162.263 912.714 Q163.282 912.367 164.3 912.205 Q165.319 912.02 166.337 912.02 Q172.124 912.02 175.504 915.191 Q178.884 918.362 178.884 923.779 Q178.884 929.358 175.411 932.459 Q171.939 935.538 165.62 935.538 Q163.444 935.538 161.175 935.168 Q158.93 934.797 156.523 934.057 L156.523 929.358 Q158.606 930.492 160.828 931.047 Q163.05 931.603 165.527 931.603 Q169.532 931.603 171.87 929.496 Q174.208 927.39 174.208 923.779 Q174.208 920.168 171.87 918.061 Q169.532 915.955 165.527 915.955 Q163.652 915.955 161.777 916.372 Q159.925 916.788 157.981 917.668 L157.981 900.307 Z" fill="#000000" fill-rule="evenodd" fill-opacity="1" /><path clip-path="url(#clip920)" d="M127.588 655.655 L135.226 655.655 L135.226 629.289 L126.916 630.956 L126.916 626.697 L135.18 625.03 L139.856 625.03 L139.856 655.655 L147.495 655.655 L147.495 659.59 L127.588 659.59 L127.588 655.655 Z" fill="#000000" fill-rule="evenodd" fill-opacity="1" /><path clip-path="url(#clip920)" d="M166.939 628.109 Q163.328 628.109 161.499 631.673 Q159.694 635.215 159.694 642.345 Q159.694 649.451 161.499 653.016 Q163.328 656.558 166.939 656.558 Q170.573 656.558 172.379 653.016 Q174.208 649.451 174.208 642.345 Q174.208 635.215 172.379 631.673 Q170.573 628.109 166.939 628.109 M166.939 624.405 Q172.749 624.405 175.805 629.011 Q178.884 633.595 178.884 642.345 Q178.884 651.072 175.805 655.678 Q172.749 660.261 166.939 660.261 Q161.129 660.261 158.05 655.678 Q154.995 651.072 154.995 642.345 Q154.995 633.595 158.05 629.011 Q161.129 624.405 166.939 624.405 Z" fill="#000000" fill-rule="evenodd" fill-opacity="1" /><path clip-path="url(#clip920)" d="M128.583 380.378 L136.222 380.378 L136.222 354.012 L127.912 355.679 L127.912 351.42 L136.175 349.753 L140.851 349.753 L140.851 380.378 L148.49 380.378 L148.49 384.313 L128.583 384.313 L128.583 380.378 Z" fill="#000000" fill-rule="evenodd" fill-opacity="1" /><path clip-path="url(#clip920)" d="M157.981 349.753 L176.337 349.753 L176.337 353.688 L162.263 353.688 L162.263 362.161 Q163.282 361.813 164.3 361.651 Q165.319 361.466 166.337 361.466 Q172.124 361.466 175.504 364.637 Q178.884 367.809 178.884 373.225 Q178.884 378.804 175.411 381.906 Q171.939 384.984 165.62 384.984 Q163.444 384.984 161.175 384.614 Q158.93 384.244 156.523 383.503 L156.523 378.804 Q158.606 379.938 160.828 380.494 Q163.05 381.049 165.527 381.049 Q169.532 381.049 171.87 378.943 Q174.208 376.836 174.208 373.225 Q174.208 369.614 171.87 367.508 Q169.532 365.401 165.527 365.401 Q163.652 365.401 161.777 365.818 Q159.925 366.235 157.981 367.114 L157.981 349.753 Z" fill="#000000" fill-rule="evenodd" fill-opacity="1" /><path clip-path="url(#clip920)" d="M130.805 105.101 L147.124 105.101 L147.124 109.036 L125.18 109.036 L125.18 105.101 Q127.842 102.347 132.425 97.717 Q137.032 93.0642 138.212 91.7216 Q140.458 89.1985 141.337 87.4624 Q142.24 85.7031 142.24 84.0133 Q142.24 81.2587 140.296 79.5226 Q138.375 77.7865 135.273 77.7865 Q133.074 77.7865 130.62 78.5504 Q128.189 79.3143 125.412 80.8652 L125.412 76.143 Q128.236 75.0088 130.689 74.4301 Q133.143 73.8514 135.18 73.8514 Q140.55 73.8514 143.745 76.5365 Q146.939 79.2217 146.939 83.7124 Q146.939 85.842 146.129 87.7633 Q145.342 89.6615 143.236 92.254 Q142.657 92.9253 139.555 96.1429 Q136.453 99.3373 130.805 105.101 Z" fill="#000000" fill-rule="evenodd" fill-opacity="1" /><path clip-path="url(#clip920)" d="M166.939 77.555 Q163.328 77.555 161.499 81.1198 Q159.694 84.6615 159.694 91.7911 Q159.694 98.8975 161.499 102.462 Q163.328 106.004 166.939 106.004 Q170.573 106.004 172.379 102.462 Q174.208 98.8975 174.208 91.7911 Q174.208 84.6615 172.379 81.1198 Q170.573 77.555 166.939 77.555 M166.939 73.8514 Q172.749 73.8514 175.805 78.4578 Q178.884 83.0411 178.884 91.7911 Q178.884 100.518 175.805 105.124 Q172.749 109.708 166.939 109.708 Q161.129 109.708 158.05 105.124 Q154.995 100.518 154.995 91.7911 Q154.995 83.0411 158.05 78.4578 Q161.129 73.8514 166.939 73.8514 Z" fill="#000000" fill-rule="evenodd" fill-opacity="1" /><path clip-path="url(#clip920)" d="M37.8155 612.487 Q38.3953 612.487 38.7173 612.713 Q39.0072 612.938 39.0394 613.132 Q39.0716 613.293 39.136 613.743 Q39.2648 615.225 39.7157 616.384 Q40.1666 617.544 41.0361 618.413 Q41.8735 619.283 42.6464 619.83 Q43.4194 620.378 44.7398 621.119 L82.324 642.761 Q82.7105 642.986 82.9038 643.147 Q83.1292 643.276 83.3546 643.598 Q83.5801 643.92 83.5801 644.339 Q83.5801 644.919 83.258 645.112 Q82.936 645.305 81.8732 645.402 L48.5723 647.817 L82.1952 667.237 Q82.8071 667.592 83.0004 667.753 Q83.2258 667.882 83.3868 668.171 Q83.5801 668.429 83.5801 668.816 Q83.5801 669.266 83.3546 669.492 Q83.1614 669.717 82.8715 669.782 Q82.5817 669.814 81.8732 669.846 L41.5514 672.841 Q40.0378 672.938 39.5869 673.485 Q39.136 674.001 39.136 676.319 Q39.136 676.964 39.1038 677.253 Q39.0716 677.511 38.9105 677.737 Q38.7173 677.962 38.3308 677.962 Q37.0748 677.962 37.0748 676.77 Q37.0748 675.643 37.1714 673.324 Q37.268 671.006 37.268 669.846 Q37.268 668.493 37.1714 665.788 Q37.0748 663.083 37.0748 661.762 Q37.0748 660.828 37.8155 660.828 Q38.4275 660.828 38.7495 661.086 Q39.0394 661.312 39.1038 661.537 Q39.136 661.762 39.136 662.213 Q39.1682 663.985 39.3936 665.112 Q39.6191 666.207 40.07 666.626 Q40.4886 667.044 40.7785 667.141 Q41.0361 667.237 41.487 667.237 L74.9489 664.725 L45.867 648.043 L40.7785 648.429 Q39.7801 648.526 39.458 649.17 Q39.136 649.814 39.136 651.907 Q39.136 652.487 39.1038 652.777 Q39.0716 653.035 38.9105 653.292 Q38.7495 653.518 38.3953 653.518 Q37.7833 653.518 37.4935 653.26 Q37.1714 653.002 37.1392 652.809 Q37.0748 652.584 37.0748 652.262 Q37.0748 651.521 37.1714 648.816 Q37.268 646.11 37.268 645.337 Q37.268 644.017 37.1714 641.312 Q37.0748 638.606 37.0748 637.286 Q37.0748 636.288 37.8155 636.288 Q38.7173 636.288 38.9428 636.674 Q39.136 637.061 39.136 638.059 Q39.1682 639.766 39.4258 640.829 Q39.6835 641.859 40.2632 642.246 Q40.8107 642.6 41.165 642.664 Q41.5192 642.729 42.2278 642.697 L74.9489 640.249 L43.8703 622.439 Q43.7414 622.375 43.3872 622.181 Q43.0007 621.956 42.9041 621.924 Q42.8075 621.859 42.5498 621.763 Q42.2922 621.634 42.1311 621.602 Q41.9379 621.57 41.7125 621.57 Q40.392 621.57 39.8123 622.761 Q39.2004 623.953 39.136 625.466 Q39.136 626.465 38.3308 626.465 Q37.7511 626.465 37.4613 626.207 Q37.1392 625.95 37.107 625.756 Q37.0748 625.531 37.0748 625.209 Q37.0748 624.114 37.1714 621.795 Q37.268 619.476 37.268 618.349 Q37.268 617.512 37.1714 615.772 Q37.0748 614.033 37.0748 613.26 Q37.0748 612.906 37.3325 612.713 Q37.5901 612.487 37.8155 612.487 Z" fill="#000000" fill-rule="evenodd" fill-opacity="1" /><path clip-path="url(#clip920)" d="M101.831 606.082 Q100.996 606.082 100.748 606.014 Q100.5 605.924 100.117 605.564 L90.2428 596.704 Q84.7872 591.857 80.0304 591.857 Q76.9418 591.857 74.7325 593.48 Q72.5232 595.081 72.5232 598.034 Q72.5232 600.063 73.7631 601.776 Q75.003 603.49 77.2123 604.279 Q77.1673 604.143 77.1673 603.67 Q77.1673 602.52 77.8887 601.889 Q78.6101 601.235 79.5795 601.235 Q80.8194 601.235 81.4281 602.047 Q82.0142 602.836 82.0142 603.625 Q82.0142 603.94 81.9466 604.369 Q81.879 604.775 81.2477 605.428 Q80.594 606.082 79.4442 606.082 Q76.2204 606.082 73.6504 603.647 Q71.0803 601.19 71.0803 597.448 Q71.0803 593.209 73.6053 590.437 Q76.1077 587.641 80.0304 587.641 Q81.4055 587.641 82.668 588.069 Q83.9079 588.475 84.8773 589.039 Q85.8467 589.58 87.4023 591.068 Q88.9578 592.556 90.0625 593.751 Q91.1671 594.945 93.5117 597.628 L98.2685 602.52 L98.2685 594.201 Q98.2685 590.143 97.9078 589.828 Q97.254 589.377 93.8048 588.813 L93.8048 587.641 L101.831 588.949 L101.831 606.082 Z" fill="#000000" fill-rule="evenodd" fill-opacity="1" /><polyline clip-path="url(#clip922)" style="stroke:#009af9; stroke-linecap:round; stroke-linejoin:round; stroke-width:10; stroke-opacity:1; fill:none" points="249.663,1009.53 368.791,887.306 517.7,748.567 964.429,471.088 1708.98,115.981 "/>
<circle clip-path="url(#clip922)" cx="249.663" cy="1009.53" r="14.4" fill="#000000" fill-rule="evenodd" fill-opacity="1" stroke="none"/>
<circle clip-path="url(#clip922)" cx="368.791" cy="887.306" r="14.4" fill="#000000" fill-rule="evenodd" fill-opacity="1" stroke="none"/>
<circle clip-path="url(#clip922)" cx="517.7" cy="748.567" r="14.4" fill="#000000" fill-rule="evenodd" fill-opacity="1" stroke="none"/>
<circle clip-path="url(#clip922)" cx="964.429" cy="471.088" r="14.4" fill="#000000" fill-rule="evenodd" fill-opacity="1" stroke="none"/>
<circle clip-path="url(#clip922)" cx="1708.98" cy="115.981" r="14.4" fill="#000000" fill-rule="evenodd" fill-opacity="1" stroke="none"/>
<polyline clip-path="url(#clip922)" style="stroke:#3da44d; stroke-linecap:round; stroke-linejoin:round; stroke-width:10; stroke-opacity:1; fill:none" points="249.663,1171.39 368.791,1150.47 517.7,1118.54 964.429,1083.3 1708.98,1000.17 "/>
<circle clip-path="url(#clip922)" cx="249.663" cy="1171.39" r="14.4" fill="#000000" fill-rule="evenodd" fill-opacity="1" stroke="none"/>
<circle clip-path="url(#clip922)" cx="368.791" cy="1150.47" r="14.4" fill="#000000" fill-rule="evenodd" fill-opacity="1" stroke="none"/>
<circle clip-path="url(#clip922)" cx="517.7" cy="1118.54" r="14.4" fill="#000000" fill-rule="evenodd" fill-opacity="1" stroke="none"/>
<circle clip-path="url(#clip922)" cx="964.429" cy="1083.3" r="14.4" fill="#000000" fill-rule="evenodd" fill-opacity="1" stroke="none"/>
<circle clip-path="url(#clip922)" cx="1708.98" cy="1000.17" r="14.4" fill="#000000" fill-rule="evenodd" fill-opacity="1" stroke="none"/>
<polyline clip-path="url(#clip922)" style="stroke:#ac8d18; stroke-linecap:round; stroke-linejoin:round; stroke-width:10; stroke-opacity:1; fill:none" points="249.663,1178.55 368.791,892.261 517.7,745.814 964.429,449.616 1708.98,80.1947 "/>
<circle clip-path="url(#clip922)" cx="249.663" cy="1178.55" r="14.4" fill="#000000" fill-rule="evenodd" fill-opacity="1" stroke="none"/>
<circle clip-path="url(#clip922)" cx="368.791" cy="892.261" r="14.4" fill="#000000" fill-rule="evenodd" fill-opacity="1" stroke="none"/>
<circle clip-path="url(#clip922)" cx="517.7" cy="745.814" r="14.4" fill="#000000" fill-rule="evenodd" fill-opacity="1" stroke="none"/>
<circle clip-path="url(#clip922)" cx="964.429" cy="449.616" r="14.4" fill="#000000" fill-rule="evenodd" fill-opacity="1" stroke="none"/>
<circle clip-path="url(#clip922)" cx="1708.98" cy="80.1947" r="14.4" fill="#000000" fill-rule="evenodd" fill-opacity="1" stroke="none"/>
<polyline clip-path="url(#clip922)" style="stroke:#ed5d92; stroke-linecap:round; stroke-linejoin:round; stroke-width:10; stroke-opacity:1; fill:none" points="249.663,1153.77 368.791,984.204 517.7,827.296 964.429,509.627 1708.98,156.171 "/>
<circle clip-path="url(#clip922)" cx="249.663" cy="1153.77" r="14.4" fill="#000000" fill-rule="evenodd" fill-opacity="1" stroke="none"/>
<circle clip-path="url(#clip922)" cx="368.791" cy="984.204" r="14.4" fill="#000000" fill-rule="evenodd" fill-opacity="1" stroke="none"/>
<circle clip-path="url(#clip922)" cx="517.7" cy="827.296" r="14.4" fill="#000000" fill-rule="evenodd" fill-opacity="1" stroke="none"/>
<circle clip-path="url(#clip922)" cx="964.429" cy="509.627" r="14.4" fill="#000000" fill-rule="evenodd" fill-opacity="1" stroke="none"/>
<circle clip-path="url(#clip922)" cx="1708.98" cy="156.171" r="14.4" fill="#000000" fill-rule="evenodd" fill-opacity="1" stroke="none"/>
<path clip-path="url(#clip920)" d="M257.446 345.253 L594.077 345.253 L594.077 86.0526 L257.446 86.0526  Z" fill="#ffffff" fill-rule="evenodd" fill-opacity="1"/>
<polyline clip-path="url(#clip920)" style="stroke:#000000; stroke-linecap:round; stroke-linejoin:round; stroke-width:4; stroke-opacity:1; fill:none" points="257.446,345.253 594.077,345.253 594.077,86.0526 257.446,86.0526 257.446,345.253 "/>
<polyline clip-path="url(#clip920)" style="stroke:#009af9; stroke-linecap:round; stroke-linejoin:round; stroke-width:10; stroke-opacity:1; fill:none" points="274.633,137.893 377.758,137.893 "/>
<path clip-path="url(#clip920)" d="M394.946 120.613 L399.622 120.613 L399.622 134.779 L416.612 134.779 L416.612 120.613 L421.288 120.613 L421.288 155.173 L416.612 155.173 L416.612 138.714 L399.622 138.714 L399.622 155.173 L394.946 155.173 L394.946 120.613 Z" fill="#000000" fill-rule="evenodd" fill-opacity="1" /><path clip-path="url(#clip920)" d="M430.594 120.613 L437.561 120.613 L446.381 144.131 L455.246 120.613 L462.214 120.613 L462.214 155.173 L457.654 155.173 L457.654 124.826 L448.742 148.529 L444.043 148.529 L435.131 124.826 L435.131 155.173 L430.594 155.173 L430.594 120.613 Z" fill="#000000" fill-rule="evenodd" fill-opacity="1" /><path clip-path="url(#clip920)" d="M497.376 123.275 L497.376 128.205 Q495.015 126.006 492.329 124.918 Q489.667 123.83 486.658 123.83 Q480.732 123.83 477.584 127.464 Q474.436 131.076 474.436 137.927 Q474.436 144.756 477.584 148.39 Q480.732 152.001 486.658 152.001 Q489.667 152.001 492.329 150.913 Q495.015 149.825 497.376 147.626 L497.376 152.511 Q494.922 154.177 492.167 155.011 Q489.436 155.844 486.38 155.844 Q478.533 155.844 474.019 151.052 Q469.506 146.237 469.506 137.927 Q469.506 129.594 474.019 124.802 Q478.533 119.988 486.38 119.988 Q489.482 119.988 492.214 120.821 Q494.968 121.631 497.376 123.275 Z" fill="#000000" fill-rule="evenodd" fill-opacity="1" /><polyline clip-path="url(#clip920)" style="stroke:#3da44d; stroke-linecap:round; stroke-linejoin:round; stroke-width:10; stroke-opacity:1; fill:none" points="274.633,189.733 377.758,189.733 "/>
<path clip-path="url(#clip920)" d="M411.335 190.809 Q412.839 191.318 414.251 192.985 Q415.686 194.652 417.122 197.568 L421.867 207.013 L416.844 207.013 L412.423 198.147 Q410.71 194.675 409.089 193.54 Q407.492 192.406 404.714 192.406 L399.622 192.406 L399.622 207.013 L394.946 207.013 L394.946 172.453 L405.501 172.453 Q411.427 172.453 414.344 174.929 Q417.26 177.406 417.26 182.406 Q417.26 185.67 415.733 187.823 Q414.228 189.976 411.335 190.809 M399.622 176.295 L399.622 188.564 L405.501 188.564 Q408.881 188.564 410.594 187.013 Q412.33 185.439 412.33 182.406 Q412.33 179.374 410.594 177.846 Q408.881 176.295 405.501 176.295 L399.622 176.295 Z" fill="#000000" fill-rule="evenodd" fill-opacity="1" /><path clip-path="url(#clip920)" d="M437.515 177.059 L431.172 194.258 L443.881 194.258 L437.515 177.059 M434.876 172.453 L440.177 172.453 L453.348 207.013 L448.487 207.013 L445.339 198.147 L429.76 198.147 L426.612 207.013 L421.682 207.013 L434.876 172.453 Z" fill="#000000" fill-rule="evenodd" fill-opacity="1" /><path clip-path="url(#clip920)" d="M455.015 192.128 L467.492 192.128 L467.492 195.925 L455.015 195.925 L455.015 192.128 Z" fill="#000000" fill-rule="evenodd" fill-opacity="1" /><path clip-path="url(#clip920)" d="M474.459 172.453 L479.135 172.453 L479.135 186.619 L496.126 186.619 L496.126 172.453 L500.802 172.453 L500.802 207.013 L496.126 207.013 L496.126 190.554 L479.135 190.554 L479.135 207.013 L474.459 207.013 L474.459 172.453 Z" fill="#000000" fill-rule="evenodd" fill-opacity="1" /><path clip-path="url(#clip920)" d="M510.107 172.453 L517.075 172.453 L525.894 195.971 L534.76 172.453 L541.727 172.453 L541.727 207.013 L537.167 207.013 L537.167 176.666 L528.255 200.369 L523.556 200.369 L514.644 176.666 L514.644 207.013 L510.107 207.013 L510.107 172.453 Z" fill="#000000" fill-rule="evenodd" fill-opacity="1" /><path clip-path="url(#clip920)" d="M576.889 175.115 L576.889 180.045 Q574.528 177.846 571.843 176.758 Q569.181 175.67 566.172 175.67 Q560.246 175.67 557.098 179.304 Q553.95 182.916 553.95 189.767 Q553.95 196.596 557.098 200.23 Q560.246 203.841 566.172 203.841 Q569.181 203.841 571.843 202.753 Q574.528 201.665 576.889 199.466 L576.889 204.351 Q574.436 206.017 571.681 206.851 Q568.949 207.684 565.894 207.684 Q558.047 207.684 553.533 202.892 Q549.019 198.077 549.019 189.767 Q549.019 181.434 553.533 176.642 Q558.047 171.828 565.894 171.828 Q568.996 171.828 571.727 172.661 Q574.482 173.471 576.889 175.115 Z" fill="#000000" fill-rule="evenodd" fill-opacity="1" /><polyline clip-path="url(#clip920)" style="stroke:#ac8d18; stroke-linecap:round; stroke-linejoin:round; stroke-width:10; stroke-opacity:1; fill:none" points="274.633,241.573 377.758,241.573 "/>
<path clip-path="url(#clip920)" d="M411.335 242.649 Q412.839 243.158 414.251 244.825 Q415.686 246.492 417.122 249.408 L421.867 258.853 L416.844 258.853 L412.423 249.987 Q410.71 246.515 409.089 245.38 Q407.492 244.246 404.714 244.246 L399.622 244.246 L399.622 258.853 L394.946 258.853 L394.946 224.293 L405.501 224.293 Q411.427 224.293 414.344 226.769 Q417.26 229.246 417.26 234.246 Q417.26 237.51 415.733 239.663 Q414.228 241.816 411.335 242.649 M399.622 228.135 L399.622 240.404 L405.501 240.404 Q408.881 240.404 410.594 238.853 Q412.33 237.279 412.33 234.246 Q412.33 231.214 410.594 229.686 Q408.881 228.135 405.501 228.135 L399.622 228.135 Z" fill="#000000" fill-rule="evenodd" fill-opacity="1" /><path clip-path="url(#clip920)" d="M437.515 228.899 L431.172 246.098 L443.881 246.098 L437.515 228.899 M434.876 224.293 L440.177 224.293 L453.348 258.853 L448.487 258.853 L445.339 249.987 L429.76 249.987 L426.612 258.853 L421.682 258.853 L434.876 224.293 Z" fill="#000000" fill-rule="evenodd" fill-opacity="1" /><path clip-path="url(#clip920)" d="M458.394 224.293 L465.362 224.293 L474.181 247.811 L483.047 224.293 L490.015 224.293 L490.015 258.853 L485.455 258.853 L485.455 228.506 L476.543 252.209 L471.843 252.209 L462.931 228.506 L462.931 258.853 L458.394 258.853 L458.394 224.293 Z" fill="#000000" fill-rule="evenodd" fill-opacity="1" /><polyline clip-path="url(#clip920)" style="stroke:#ed5d92; stroke-linecap:round; stroke-linejoin:round; stroke-width:10; stroke-opacity:1; fill:none" points="274.633,293.413 377.758,293.413 "/>
<path clip-path="url(#clip920)" d="M399.622 279.975 L399.622 292.961 L405.501 292.961 Q408.765 292.961 410.548 291.271 Q412.33 289.582 412.33 286.457 Q412.33 283.355 410.548 281.665 Q408.765 279.975 405.501 279.975 L399.622 279.975 M394.946 276.133 L405.501 276.133 Q411.311 276.133 414.274 278.771 Q417.26 281.387 417.26 286.457 Q417.26 291.572 414.274 294.188 Q411.311 296.804 405.501 296.804 L399.622 296.804 L399.622 310.693 L394.946 310.693 L394.946 276.133 Z" fill="#000000" fill-rule="evenodd" fill-opacity="1" /><path clip-path="url(#clip920)" d="M423.534 276.133 L445.385 276.133 L445.385 280.068 L428.209 280.068 L428.209 290.299 L444.668 290.299 L444.668 294.234 L428.209 294.234 L428.209 306.757 L445.802 306.757 L445.802 310.693 L423.534 310.693 L423.534 276.133 Z" fill="#000000" fill-rule="evenodd" fill-opacity="1" /><path clip-path="url(#clip920)" d="M453.487 276.133 L458.163 276.133 L458.163 290.299 L475.154 290.299 L475.154 276.133 L479.83 276.133 L479.83 310.693 L475.154 310.693 L475.154 294.234 L458.163 294.234 L458.163 310.693 L453.487 310.693 L453.487 276.133 Z" fill="#000000" fill-rule="evenodd" fill-opacity="1" /><path clip-path="url(#clip920)" d="M489.135 276.133 L496.103 276.133 L504.922 299.651 L513.788 276.133 L520.755 276.133 L520.755 310.693 L516.195 310.693 L516.195 280.346 L507.283 304.049 L502.584 304.049 L493.672 280.346 L493.672 310.693 L489.135 310.693 L489.135 276.133 Z" fill="#000000" fill-rule="evenodd" fill-opacity="1" /><path clip-path="url(#clip920)" d="M555.917 278.795 L555.917 283.725 Q553.556 281.526 550.871 280.438 Q548.209 279.35 545.2 279.35 Q539.274 279.35 536.126 282.984 Q532.977 286.596 532.977 293.447 Q532.977 300.276 536.126 303.91 Q539.274 307.521 545.2 307.521 Q548.209 307.521 550.871 306.433 Q553.556 305.345 555.917 303.146 L555.917 308.031 Q553.463 309.697 550.709 310.531 Q547.977 311.364 544.922 311.364 Q537.075 311.364 532.561 306.572 Q528.047 301.757 528.047 293.447 Q528.047 285.114 532.561 280.322 Q537.075 275.508 544.922 275.508 Q548.024 275.508 550.755 276.341 Q553.51 277.151 555.917 278.795 Z" fill="#000000" fill-rule="evenodd" fill-opacity="1" /></svg>
