<?xml version="1.0" encoding="utf-8"?>
<svg xmlns="http://www.w3.org/2000/svg" xmlns:xlink="http://www.w3.org/1999/xlink" width="900" height="150" viewBox="0 0 3600 600">
<defs>
  <clipPath id="clip780">
    <rect x="0" y="0" width="3600" height="600"/>
  </clipPath>
</defs>
<path clip-path="url(#clip780)" d="M0 600 L3600 600 L3600 0 L0 0  Z" fill="#ffffff" fill-rule="evenodd" fill-opacity="1"/>
<defs>
  <clipPath id="clip781">
    <rect x="720" y="0" width="2521" height="600"/>
  </clipPath>
</defs>
<path clip-path="url(#clip780)" d="M152.696 522.368 L3552.76 522.368 L3552.76 47.2441 L152.696 47.2441  Z" fill="#ffffff" fill-rule="evenodd" fill-opacity="1"/>
<defs>
  <clipPath id="clip782">
    <rect x="152" y="47" width="3401" height="476"/>
  </clipPath>
</defs>
<polyline clip-path="url(#clip782)" style="stroke:#000000; stroke-linecap:round; stroke-linejoin:round; stroke-width:2; stroke-opacity:0.1; fill:none" points="247.601,522.368 247.601,47.2441 "/>
<polyline clip-path="url(#clip782)" style="stroke:#000000; stroke-linecap:round; stroke-linejoin:round; stroke-width:2; stroke-opacity:0.1; fill:none" points="908.691,522.368 908.691,47.2441 "/>
<polyline clip-path="url(#clip782)" style="stroke:#000000; stroke-linecap:round; stroke-linejoin:round; stroke-width:2; stroke-opacity:0.1; fill:none" points="1569.78,522.368 1569.78,47.2441 "/>
<polyline clip-path="url(#clip782)" style="stroke:#000000; stroke-linecap:round; stroke-linejoin:round; stroke-width:2; stroke-opacity:0.1; fill:none" points="2230.87,522.368 2230.87,47.2441 "/>
<polyline clip-path="url(#clip782)" style="stroke:#000000; stroke-linecap:round; stroke-linejoin:round; stroke-width:2; stroke-opacity:0.1; fill:none" points="2891.96,522.368 2891.96,47.2441 "/>
<polyline clip-path="url(#clip780)" style="stroke:#000000; stroke-linecap:round; stroke-linejoin:round; stroke-width:4; stroke-opacity:1; fill:none" points="152.696,522.368 3552.76,522.368 "/>
<polyline clip-path="url(#clip780)" style="stroke:#000000; stroke-linecap:round; stroke-linejoin:round; stroke-width:4; stroke-opacity:1; fill:none" points="247.601,522.368 247.601,503.47 "/>
<polyline clip-path="url(#clip780)" style="stroke:#000000; stroke-linecap:round; stroke-linejoin:round; stroke-width:4; stroke-opacity:1; fill:none" points="908.691,522.368 908.691,503.47 "/>
<polyline clip-path="url(#clip780)" style="stroke:#000000; stroke-linecap:round; stroke-linejoin:round; stroke-width:4; stroke-opacity:1; fill:none" points="1569.78,522.368 1569.78,503.47 "/>
<polyline clip-path="url(#clip780)" style="stroke:#000000; stroke-linecap:round; stroke-linejoin:round; stroke-width:4; stroke-opacity:1; fill:none" points="2230.87,522.368 2230.87,503.47 "/>
<polyline clip-path="url(#clip780)" style="stroke:#000000; stroke-linecap:round; stroke-linejoin:round; stroke-width:4; stroke-opacity:1; fill:none" points="2891.96,522.368 2891.96,503.47 "/>
<path clip-path="url(#clip780)" d="M247.601 562.887 Q243.99 562.887 242.162 566.451 Q240.356 569.993 240.356 577.123 Q240.356 584.229 242.162 587.794 Q243.99 591.335 247.601 591.335 Q251.236 591.335 253.041 587.794 Q254.87 584.229 254.87 577.123 Q254.87 569.993 253.041 566.451 Q251.236 562.887 247.601 562.887 M247.601 559.183 Q253.412 559.183 256.467 563.789 Q259.546 568.373 259.546 577.123 Q259.546 585.849 256.467 590.456 Q253.412 595.039 247.601 595.039 Q241.791 595.039 238.713 590.456 Q235.657 585.849 235.657 577.123 Q235.657 568.373 238.713 563.789 Q241.791 559.183 247.601 559.183 Z" fill="#000000" fill-rule="evenodd" fill-opacity="1" /><path clip-path="url(#clip780)" d="M868.309 559.808 L886.665 559.808 L886.665 563.743 L872.591 563.743 L872.591 572.215 Q873.61 571.868 874.628 571.706 Q875.647 571.521 876.665 571.521 Q882.452 571.521 885.832 574.692 Q889.211 577.863 889.211 583.28 Q889.211 588.859 885.739 591.96 Q882.267 595.039 875.948 595.039 Q873.772 595.039 871.503 594.669 Q869.258 594.298 866.85 593.558 L866.85 588.859 Q868.934 589.993 871.156 590.548 Q873.378 591.104 875.855 591.104 Q879.86 591.104 882.198 588.998 Q884.536 586.891 884.536 583.28 Q884.536 579.669 882.198 577.562 Q879.86 575.456 875.855 575.456 Q873.98 575.456 872.105 575.873 Q870.253 576.289 868.309 577.169 L868.309 559.808 Z" fill="#000000" fill-rule="evenodd" fill-opacity="1" /><path clip-path="url(#clip780)" d="M908.424 562.887 Q904.813 562.887 902.985 566.451 Q901.179 569.993 901.179 577.123 Q901.179 584.229 902.985 587.794 Q904.813 591.335 908.424 591.335 Q912.059 591.335 913.864 587.794 Q915.693 584.229 915.693 577.123 Q915.693 569.993 913.864 566.451 Q912.059 562.887 908.424 562.887 M908.424 559.183 Q914.234 559.183 917.29 563.789 Q920.369 568.373 920.369 577.123 Q920.369 585.849 917.29 590.456 Q914.234 595.039 908.424 595.039 Q902.614 595.039 899.536 590.456 Q896.48 585.849 896.48 577.123 Q896.48 568.373 899.536 563.789 Q902.614 559.183 908.424 559.183 Z" fill="#000000" fill-rule="evenodd" fill-opacity="1" /><path clip-path="url(#clip780)" d="M938.586 562.887 Q934.975 562.887 933.146 566.451 Q931.341 569.993 931.341 577.123 Q931.341 584.229 933.146 587.794 Q934.975 591.335 938.586 591.335 Q942.22 591.335 944.026 587.794 Q945.855 584.229 945.855 577.123 Q945.855 569.993 944.026 566.451 Q942.22 562.887 938.586 562.887 M938.586 559.183 Q944.396 559.183 947.452 563.789 Q950.531 568.373 950.531 577.123 Q950.531 585.849 947.452 590.456 Q944.396 595.039 938.586 595.039 Q932.776 595.039 929.697 590.456 Q926.642 585.849 926.642 577.123 Q926.642 568.373 929.697 563.789 Q932.776 559.183 938.586 559.183 Z" fill="#000000" fill-rule="evenodd" fill-opacity="1" /><path clip-path="url(#clip780)" d="M1514.31 590.433 L1521.94 590.433 L1521.94 564.067 L1513.63 565.734 L1513.63 561.475 L1521.9 559.808 L1526.57 559.808 L1526.57 590.433 L1534.21 590.433 L1534.21 594.368 L1514.31 594.368 L1514.31 590.433 Z" fill="#000000" fill-rule="evenodd" fill-opacity="1" /><path clip-path="url(#clip780)" d="M1553.66 562.887 Q1550.05 562.887 1548.22 566.451 Q1546.41 569.993 1546.41 577.123 Q1546.41 584.229 1548.22 587.794 Q1550.05 591.335 1553.66 591.335 Q1557.29 591.335 1559.1 587.794 Q1560.93 584.229 1560.93 577.123 Q1560.93 569.993 1559.1 566.451 Q1557.29 562.887 1553.66 562.887 M1553.66 559.183 Q1559.47 559.183 1562.52 563.789 Q1565.6 568.373 1565.6 577.123 Q1565.6 585.849 1562.52 590.456 Q1559.47 595.039 1553.66 595.039 Q1547.85 595.039 1544.77 590.456 Q1541.71 585.849 1541.71 577.123 Q1541.71 568.373 1544.77 563.789 Q1547.85 559.183 1553.66 559.183 Z" fill="#000000" fill-rule="evenodd" fill-opacity="1" /><path clip-path="url(#clip780)" d="M1583.82 562.887 Q1580.21 562.887 1578.38 566.451 Q1576.57 569.993 1576.57 577.123 Q1576.57 584.229 1578.38 587.794 Q1580.21 591.335 1583.82 591.335 Q1587.45 591.335 1589.26 587.794 Q1591.09 584.229 1591.09 577.123 Q1591.09 569.993 1589.26 566.451 Q1587.45 562.887 1583.82 562.887 M1583.82 559.183 Q1589.63 559.183 1592.68 563.789 Q1595.76 568.373 1595.76 577.123 Q1595.76 585.849 1592.68 590.456 Q1589.63 595.039 1583.82 595.039 Q1578.01 595.039 1574.93 590.456 Q1571.87 585.849 1571.87 577.123 Q1571.87 568.373 1574.93 563.789 Q1578.01 559.183 1583.82 559.183 Z" fill="#000000" fill-rule="evenodd" fill-opacity="1" /><path clip-path="url(#clip780)" d="M1613.98 562.887 Q1610.37 562.887 1608.54 566.451 Q1606.74 569.993 1606.74 577.123 Q1606.74 584.229 1608.54 587.794 Q1610.37 591.335 1613.98 591.335 Q1617.61 591.335 1619.42 587.794 Q1621.25 584.229 1621.25 577.123 Q1621.25 569.993 1619.42 566.451 Q1617.61 562.887 1613.98 562.887 M1613.98 559.183 Q1619.79 559.183 1622.85 563.789 Q1625.93 568.373 1625.93 577.123 Q1625.93 585.849 1622.85 590.456 Q1619.79 595.039 1613.98 595.039 Q1608.17 595.039 1605.09 590.456 Q1602.04 585.849 1602.04 577.123 Q1602.04 568.373 1605.09 563.789 Q1608.17 559.183 1613.98 559.183 Z" fill="#000000" fill-rule="evenodd" fill-opacity="1" /><path clip-path="url(#clip780)" d="M2175.39 590.433 L2183.03 590.433 L2183.03 564.067 L2174.72 565.734 L2174.72 561.475 L2182.99 559.808 L2187.66 559.808 L2187.66 590.433 L2195.3 590.433 L2195.3 594.368 L2175.39 594.368 L2175.39 590.433 Z" fill="#000000" fill-rule="evenodd" fill-opacity="1" /><path clip-path="url(#clip780)" d="M2204.79 559.808 L2223.15 559.808 L2223.15 563.743 L2209.07 563.743 L2209.07 572.215 Q2210.09 571.868 2211.11 571.706 Q2212.13 571.521 2213.15 571.521 Q2218.94 571.521 2222.32 574.692 Q2225.7 577.863 2225.7 583.28 Q2225.7 588.859 2222.22 591.96 Q2218.75 595.039 2212.43 595.039 Q2210.26 595.039 2207.99 594.669 Q2205.74 594.298 2203.33 593.558 L2203.33 588.859 Q2205.42 589.993 2207.64 590.548 Q2209.86 591.104 2212.34 591.104 Q2216.34 591.104 2218.68 588.998 Q2221.02 586.891 2221.02 583.28 Q2221.02 579.669 2218.68 577.562 Q2216.34 575.456 2212.34 575.456 Q2210.46 575.456 2208.59 575.873 Q2206.74 576.289 2204.79 577.169 L2204.79 559.808 Z" fill="#000000" fill-rule="evenodd" fill-opacity="1" /><path clip-path="url(#clip780)" d="M2244.91 562.887 Q2241.3 562.887 2239.47 566.451 Q2237.66 569.993 2237.66 577.123 Q2237.66 584.229 2239.47 587.794 Q2241.3 591.335 2244.91 591.335 Q2248.54 591.335 2250.35 587.794 Q2252.18 584.229 2252.18 577.123 Q2252.18 569.993 2250.35 566.451 Q2248.54 562.887 2244.91 562.887 M2244.91 559.183 Q2250.72 559.183 2253.77 563.789 Q2256.85 568.373 2256.85 577.123 Q2256.85 585.849 2253.77 590.456 Q2250.72 595.039 2244.91 595.039 Q2239.1 595.039 2236.02 590.456 Q2232.96 585.849 2232.96 577.123 Q2232.96 568.373 2236.02 563.789 Q2239.1 559.183 2244.91 559.183 Z" fill="#000000" fill-rule="evenodd" fill-opacity="1" /><path clip-path="url(#clip780)" d="M2275.07 562.887 Q2271.46 562.887 2269.63 566.451 Q2267.82 569.993 2267.82 577.123 Q2267.82 584.229 2269.63 587.794 Q2271.46 591.335 2275.07 591.335 Q2278.7 591.335 2280.51 587.794 Q2282.34 584.229 2282.34 577.123 Q2282.34 569.993 2280.51 566.451 Q2278.7 562.887 2275.07 562.887 M2275.07 559.183 Q2280.88 559.183 2283.94 563.789 Q2287.01 568.373 2287.01 577.123 Q2287.01 585.849 2283.94 590.456 Q2280.88 595.039 2275.07 595.039 Q2269.26 595.039 2266.18 590.456 Q2263.13 585.849 2263.13 577.123 Q2263.13 568.373 2266.18 563.789 Q2269.26 559.183 2275.07 559.183 Z" fill="#000000" fill-rule="evenodd" fill-opacity="1" /><path clip-path="url(#clip780)" d="M2840.57 590.433 L2856.89 590.433 L2856.89 594.368 L2834.94 594.368 L2834.94 590.433 Q2837.61 587.678 2842.19 583.048 Q2846.8 578.396 2847.98 577.053 Q2850.22 574.53 2851.1 572.794 Q2852 571.035 2852 569.345 Q2852 566.59 2850.06 564.854 Q2848.14 563.118 2845.04 563.118 Q2842.84 563.118 2840.38 563.882 Q2837.95 564.646 2835.18 566.197 L2835.18 561.475 Q2838 560.34 2840.45 559.762 Q2842.91 559.183 2844.94 559.183 Q2850.31 559.183 2853.51 561.868 Q2856.7 564.553 2856.7 569.044 Q2856.7 571.174 2855.89 573.095 Q2855.11 574.993 2853 577.586 Q2852.42 578.257 2849.32 581.474 Q2846.22 584.669 2840.57 590.433 Z" fill="#000000" fill-rule="evenodd" fill-opacity="1" /><path clip-path="url(#clip780)" d="M2876.7 562.887 Q2873.09 562.887 2871.26 566.451 Q2869.46 569.993 2869.46 577.123 Q2869.46 584.229 2871.26 587.794 Q2873.09 591.335 2876.7 591.335 Q2880.34 591.335 2882.14 587.794 Q2883.97 584.229 2883.97 577.123 Q2883.97 569.993 2882.14 566.451 Q2880.34 562.887 2876.7 562.887 M2876.7 559.183 Q2882.51 559.183 2885.57 563.789 Q2888.65 568.373 2888.65 577.123 Q2888.65 585.849 2885.57 590.456 Q2882.51 595.039 2876.7 595.039 Q2870.89 595.039 2867.81 590.456 Q2864.76 585.849 2864.76 577.123 Q2864.76 568.373 2867.81 563.789 Q2870.89 559.183 2876.7 559.183 Z" fill="#000000" fill-rule="evenodd" fill-opacity="1" /><path clip-path="url(#clip780)" d="M2906.87 562.887 Q2903.25 562.887 2901.43 566.451 Q2899.62 569.993 2899.62 577.123 Q2899.62 584.229 2901.43 587.794 Q2903.25 591.335 2906.87 591.335 Q2910.5 591.335 2912.3 587.794 Q2914.13 584.229 2914.13 577.123 Q2914.13 569.993 2912.3 566.451 Q2910.5 562.887 2906.87 562.887 M2906.87 559.183 Q2912.68 559.183 2915.73 563.789 Q2918.81 568.373 2918.81 577.123 Q2918.81 585.849 2915.73 590.456 Q2912.68 595.039 2906.87 595.039 Q2901.05 595.039 2897.98 590.456 Q2894.92 585.849 2894.92 577.123 Q2894.92 568.373 2897.98 563.789 Q2901.05 559.183 2906.87 559.183 Z" fill="#000000" fill-rule="evenodd" fill-opacity="1" /><path clip-path="url(#clip780)" d="M2937.03 562.887 Q2933.42 562.887 2931.59 566.451 Q2929.78 569.993 2929.78 577.123 Q2929.78 584.229 2931.59 587.794 Q2933.42 591.335 2937.03 591.335 Q2940.66 591.335 2942.47 587.794 Q2944.3 584.229 2944.3 577.123 Q2944.3 569.993 2942.47 566.451 Q2940.66 562.887 2937.03 562.887 M2937.03 559.183 Q2942.84 559.183 2945.89 563.789 Q2948.97 568.373 2948.97 577.123 Q2948.97 585.849 2945.89 590.456 Q2942.84 595.039 2937.03 595.039 Q2931.22 595.039 2928.14 590.456 Q2925.08 585.849 2925.08 577.123 Q2925.08 568.373 2928.14 563.789 Q2931.22 559.183 2937.03 559.183 Z" fill="#000000" fill-rule="evenodd" fill-opacity="1" /><polyline clip-path="url(#clip782)" style="stroke:#000000; stroke-linecap:round; stroke-linejoin:round; stroke-width:2; stroke-opacity:0.1; fill:none" points="152.696,449.645 3552.76,449.645 "/>
<polyline clip-path="url(#clip782)" style="stroke:#000000; stroke-linecap:round; stroke-linejoin:round; stroke-width:2; stroke-opacity:0.1; fill:none" points="152.696,328.44 3552.76,328.44 "/>
<polyline clip-path="url(#clip782)" style="stroke:#000000; stroke-linecap:round; stroke-linejoin:round; stroke-width:2; stroke-opacity:0.1; fill:none" points="152.696,207.235 3552.76,207.235 "/>
<polyline clip-path="url(#clip782)" style="stroke:#000000; stroke-linecap:round; stroke-linejoin:round; stroke-width:2; stroke-opacity:0.1; fill:none" points="152.696,86.0297 3552.76,86.0297 "/>
<polyline clip-path="url(#clip780)" style="stroke:#000000; stroke-linecap:round; stroke-linejoin:round; stroke-width:4; stroke-opacity:1; fill:none" points="152.696,522.368 152.696,47.2441 "/>
<polyline clip-path="url(#clip780)" style="stroke:#000000; stroke-linecap:round; stroke-linejoin:round; stroke-width:4; stroke-opacity:1; fill:none" points="152.696,449.645 171.593,449.645 "/>
<polyline clip-path="url(#clip780)" style="stroke:#000000; stroke-linecap:round; stroke-linejoin:round; stroke-width:4; stroke-opacity:1; fill:none" points="152.696,328.44 171.593,328.44 "/>
<polyline clip-path="url(#clip780)" style="stroke:#000000; stroke-linecap:round; stroke-linejoin:round; stroke-width:4; stroke-opacity:1; fill:none" points="152.696,207.235 171.593,207.235 "/>
<polyline clip-path="url(#clip780)" style="stroke:#000000; stroke-linecap:round; stroke-linejoin:round; stroke-width:4; stroke-opacity:1; fill:none" points="152.696,86.0297 171.593,86.0297 "/>
<path clip-path="url(#clip780)" d="M77.7929 432.365 L96.1493 432.365 L96.1493 436.3 L82.0753 436.3 L82.0753 444.772 Q83.0938 444.425 84.1123 444.263 Q85.1308 444.078 86.1493 444.078 Q91.9363 444.078 95.3159 447.249 Q98.6955 450.42 98.6955 455.837 Q98.6955 461.416 95.2233 464.517 Q91.7511 467.596 85.4317 467.596 Q83.2558 467.596 80.9873 467.226 Q78.7419 466.855 76.3346 466.115 L76.3346 461.416 Q78.4179 462.55 80.6401 463.105 Q82.8623 463.661 85.3391 463.661 Q89.3437 463.661 91.6817 461.555 Q94.0196 459.448 94.0196 455.837 Q94.0196 452.226 91.6817 450.119 Q89.3437 448.013 85.3391 448.013 Q83.4641 448.013 81.5892 448.43 Q79.7373 448.846 77.7929 449.726 L77.7929 432.365 Z" fill="#000000" fill-rule="evenodd" fill-opacity="1" /><path clip-path="url(#clip780)" d="M47.3995 341.785 L55.0384 341.785 L55.0384 315.419 L46.7282 317.086 L46.7282 312.826 L54.9921 311.16 L59.668 311.16 L59.668 341.785 L67.3068 341.785 L67.3068 345.72 L47.3995 345.72 L47.3995 341.785 Z" fill="#000000" fill-rule="evenodd" fill-opacity="1" /><path clip-path="url(#clip780)" d="M86.7512 314.238 Q83.1401 314.238 81.3114 317.803 Q79.5058 321.345 79.5058 328.475 Q79.5058 335.581 81.3114 339.146 Q83.1401 342.687 86.7512 342.687 Q90.3854 342.687 92.1909 339.146 Q94.0196 335.581 94.0196 328.475 Q94.0196 321.345 92.1909 317.803 Q90.3854 314.238 86.7512 314.238 M86.7512 310.535 Q92.5613 310.535 95.6169 315.141 Q98.6955 319.725 98.6955 328.475 Q98.6955 337.201 95.6169 341.808 Q92.5613 346.391 86.7512 346.391 Q80.941 346.391 77.8623 341.808 Q74.8068 337.201 74.8068 328.475 Q74.8068 319.725 77.8623 315.141 Q80.941 310.535 86.7512 310.535 Z" fill="#000000" fill-rule="evenodd" fill-opacity="1" /><path clip-path="url(#clip780)" d="M48.3949 220.58 L56.0337 220.58 L56.0337 194.214 L47.7236 195.881 L47.7236 191.621 L55.9874 189.955 L60.6633 189.955 L60.6633 220.58 L68.3022 220.58 L68.3022 224.515 L48.3949 224.515 L48.3949 220.58 Z" fill="#000000" fill-rule="evenodd" fill-opacity="1" /><path clip-path="url(#clip780)" d="M77.7929 189.955 L96.1493 189.955 L96.1493 193.89 L82.0753 193.89 L82.0753 202.362 Q83.0938 202.015 84.1123 201.853 Q85.1308 201.668 86.1493 201.668 Q91.9363 201.668 95.3159 204.839 Q98.6955 208.01 98.6955 213.427 Q98.6955 219.006 95.2233 222.107 Q91.7511 225.186 85.4317 225.186 Q83.2558 225.186 80.9873 224.816 Q78.7419 224.445 76.3346 223.705 L76.3346 219.006 Q78.4179 220.14 80.6401 220.695 Q82.8623 221.251 85.3391 221.251 Q89.3437 221.251 91.6817 219.144 Q94.0196 217.038 94.0196 213.427 Q94.0196 209.816 91.6817 207.709 Q89.3437 205.603 85.3391 205.603 Q83.4641 205.603 81.5892 206.019 Q79.7373 206.436 77.7929 207.316 L77.7929 189.955 Z" fill="#000000" fill-rule="evenodd" fill-opacity="1" /><path clip-path="url(#clip780)" d="M50.6171 99.3745 L66.9365 99.3745 L66.9365 103.31 L44.9921 103.31 L44.9921 99.3745 Q47.6541 96.6199 52.2375 91.9903 Q56.8439 87.3376 58.0245 85.995 Q60.2698 83.4719 61.1494 81.7358 Q62.0522 79.9765 62.0522 78.2867 Q62.0522 75.5321 60.1078 73.796 Q58.1865 72.0599 55.0847 72.0599 Q52.8856 72.0599 50.4319 72.8238 Q48.0014 73.5876 45.2236 75.1386 L45.2236 70.4164 Q48.0477 69.2821 50.5014 68.7034 Q52.955 68.1247 54.9921 68.1247 Q60.3624 68.1247 63.5568 70.8099 Q66.7513 73.4951 66.7513 77.9858 Q66.7513 80.1154 65.9411 82.0367 Q65.1541 83.9348 63.0476 86.5274 Q62.4689 87.1987 59.367 90.4163 Q56.2652 93.6107 50.6171 99.3745 Z" fill="#000000" fill-rule="evenodd" fill-opacity="1" /><path clip-path="url(#clip780)" d="M86.7512 71.8284 Q83.1401 71.8284 81.3114 75.3932 Q79.5058 78.9348 79.5058 86.0644 Q79.5058 93.1709 81.3114 96.7357 Q83.1401 100.277 86.7512 100.277 Q90.3854 100.277 92.1909 96.7357 Q94.0196 93.1709 94.0196 86.0644 Q94.0196 78.9348 92.1909 75.3932 Q90.3854 71.8284 86.7512 71.8284 M86.7512 68.1247 Q92.5613 68.1247 95.6169 72.7312 Q98.6955 77.3145 98.6955 86.0644 Q98.6955 94.7912 95.6169 99.3977 Q92.5613 103.981 86.7512 103.981 Q80.941 103.981 77.8623 99.3977 Q74.8068 94.7912 74.8068 86.0644 Q74.8068 77.3145 77.8623 72.7312 Q80.941 68.1247 86.7512 68.1247 Z" fill="#000000" fill-rule="evenodd" fill-opacity="1" /><polyline clip-path="url(#clip782)" style="stroke:#009af9; stroke-linecap:round; stroke-linejoin:round; stroke-width:2; stroke-opacity:1; fill:none" points="248.924,138.355 250.246,132.791 251.568,124.138 252.89,139.197 254.212,132.125 255.535,133.301 256.857,141.749 258.179,135.58 259.501,118.471 260.823,151.279 262.145,137.192 263.468,140.865 264.79,126.233 266.112,125.986 267.434,118.856 268.756,147.958 270.079,131.29 271.401,147.785 272.723,146.655 274.045,317.173 275.367,339.494 276.689,448.461 278.012,448.265 279.334,377.823 280.656,405.076 281.978,406.961 283.3,385.692 284.622,322 285.945,377.615 287.267,391.572 288.589,461.253 289.911,358.313 291.233,475.081 292.556,526.035 293.878,358.649 295.2,333.587 296.522,437.565 297.844,329.959 299.166,332.612 300.489,322.302 301.811,321.582 303.133,367.886 304.455,374.101 305.777,492.606 307.1,421.404 308.422,439.554 309.744,516.032 311.066,499.758 312.388,475.726 313.71,330.084 315.033,433.826 316.355,462.434 317.677,413.371 318.999,375.587 320.321,338.405 321.643,312.416 322.966,347.423 324.288,104.911 325.61,143.431 326.932,313.6 328.254,371.701 329.577,451.496 330.899,372.022 332.221,144.223 333.543,395.678 334.865,459.96 336.187,393.765 337.51,474.847 338.832,466.511 340.154,510.829 341.476,336.067 342.798,362.446 344.12,392.562 345.443,501.104 346.765,454.795 348.087,383.976 349.409,368.305 350.731,445.263 352.054,520.195 353.376,332.884 354.698,343.808 356.02,331.272 357.342,330.944 358.664,124.536 359.987,142.143 361.309,131.291 362.631,117.791 363.953,120.326 365.275,120.388 366.598,130.992 367.92,131.341 369.242,114.566 370.564,149.428 371.886,123.123 373.208,125.703 374.531,141.832 375.853,127.662 377.175,141.041 378.497,114.816 379.819,110.225 381.141,95.2753 382.464,122.838 383.786,132.212 385.108,136.205 386.43,143.475 387.752,134.961 389.075,148.553 390.397,123.104 391.719,117.576 393.041,128.719 394.363,137.742 395.685,118.247 397.008,305.738 398.33,343.596 399.652,312.023 400.974,458.463 402.296,326.162 403.619,369.767 404.941,449.541 406.263,515.423 407.585,476.892 408.907,534.755 410.229,453.704 411.552,328.161 412.874,330.352 414.196,335.064 415.518,399.956 416.84,505.216 418.162,410.899 419.485,324.038 420.807,376.537 422.129,500.508 423.451,375.283 424.773,338.851 426.096,335.155 427.418,326.884 428.74,492.534 430.062,453.581 431.384,456.277 432.706,391.152 434.029,320.248 435.351,335.334 436.673,357.962 437.995,350.864 439.317,351.302 440.639,480.054 441.962,395.741 443.284,338.019 444.606,338.475 445.928,329.608 447.25,325.303 448.573,329.303 449.895,307.665 451.217,344.26 452.539,315.647 453.861,320.397 455.183,320.393 456.506,324.135 457.828,136.424 459.15,128.715 460.472,147.325 461.794,122.983 463.117,379.184 464.439,355.221 465.761,452.253 467.083,493.35 468.405,412.621 469.727,300.452 471.05,378.488 472.372,472.093 473.694,422.836 475.016,361.201 476.338,378.694 477.66,328.472 478.983,451.859 480.305,480.062 481.627,339.693 482.949,386.148 484.271,465.131 485.594,503.031 486.916,421.665 488.238,356.613 489.56,400.612 490.882,466.322 492.204,308.357 493.527,343.888 494.849,150.769 496.171,142.922 497.493,127.775 498.815,123.424 500.138,122.697 501.46,110.686 502.782,119.024 504.104,143.075 505.426,126.673 506.748,155.705 508.071,157.881 509.393,151.391 510.715,159.4 512.037,114.265 513.359,115.728 514.681,132.309 516.004,114.551 517.326,144.66 518.648,148.344 519.97,353.154 521.292,339.389 522.615,321.189 523.937,329.393 525.259,410.033 526.581,328.403 527.903,393.914 529.225,315.565 530.548,331.907 531.87,328.921 533.192,327.854 534.514,364.701 535.836,415.663 537.158,361.059 538.481,341.427 539.803,354.388 541.125,335.838 542.447,369.758 543.769,340.227 545.092,405.834 546.414,428.063 547.736,385.921 549.058,512.129 550.38,485.178 551.702,448.738 553.025,435.233 554.347,335.714 555.669,307.273 556.991,127.223 558.313,134.449 559.636,128.473 560.958,139.398 562.28,138.889 563.602,124.5 564.924,122.76 566.246,142.963 567.569,146.934 568.891,131.847 570.213,143.622 571.535,138.662 572.857,117.576 574.179,317.325 575.502,384.399 576.824,474.716 578.146,499.05 579.468,449.096 580.79,496.408 582.113,510.937 583.435,320.434 584.757,443.97 586.079,525.327 587.401,461.121 588.723,333.389 590.046,340.29 591.368,335.73 592.69,324.412 594.012,319.33 595.334,322.671 596.657,149.568 597.979,106.151 599.301,172.908 600.623,288.934 601.945,169.002 603.267,167.685 604.59,112.424 605.912,109.278 607.234,111.322 608.556,324.648 609.878,128.449 611.2,130.367 612.523,132.286 613.845,121.099 615.167,123.397 616.489,126.115 617.811,153.031 619.134,123.112 620.456,145.363 621.778,143.039 623.1,125.904 624.422,130.904 625.744,154.34 627.067,126.649 628.389,135.939 629.711,118.032 631.033,160.082 632.355,148.721 633.677,151.726 635,140.798 636.322,131.938 637.644,119.925 638.966,155.803 640.288,119.469 641.611,142.463 642.933,146.145 644.255,136.272 645.577,126.33 646.899,144.312 648.221,147.801 649.544,146.422 650.866,140.349 652.188,114.665 653.51,116.214 654.832,104.12 656.155,102.568 657.477,153.764 658.799,118.152 660.121,133.053 661.443,135.858 662.765,140.67 664.088,328.94 665.41,442.97 666.732,514.202 668.054,441.273 669.376,502.786 670.698,516.983 672.021,481.752 673.343,513.557 674.665,329.12 675.987,343.179 677.309,364.869 678.632,413.07 679.954,477.111 681.276,453.898 682.598,448.553 683.92,359.895 685.242,432.26 686.565,320.14 687.887,323.194 689.209,335.244 690.531,372.069 691.853,321.164 693.176,384.526 694.498,328.837 695.82,323.003 697.142,147.54 698.464,326.156 699.786,403.664 701.109,324.042 702.431,377.902 703.753,316.638 705.075,166.876 706.397,149.297 707.719,367.8 709.042,307.588 710.364,395.237 711.686,430.493 713.008,500.472 714.33,486.328 715.653,485.515 716.975,481.043 718.297,399.294 719.619,449.565 720.941,438.475 722.263,393.135 723.586,312.321 724.908,334.935 726.23,300.705 727.552,123.619 728.874,134.081 730.197,145.799 731.519,158.485 732.841,130.696 734.163,154.345 735.485,130.621 736.807,121.519 738.13,152.051 739.452,109.449 740.774,121.468 742.096,147.842 743.418,128.322 744.74,136.181 746.063,140.348 747.385,346.152 748.707,306.853 750.029,353.013 751.351,321.455 752.674,333.776 753.996,319.119 755.318,340.408 756.64,422.263 757.962,533.795 759.284,458.136 760.607,426.831 761.929,458.013 763.251,497.091 764.573,412.797 765.895,339.717 767.217,334.823 768.54,318.366 769.862,389.751 771.184,478.373 772.506,449.522 773.828,366.821 775.151,409.851 776.473,499.103 777.795,494.463 779.117,393.306 780.439,406.185 781.761,330.726 783.084,335.134 784.406,354.16 785.728,325.793 787.05,148.229 788.372,134.507 789.695,143.211 791.017,124.238 792.339,144.021 793.661,125.573 794.983,145.846 796.305,117.473 797.628,129.161 798.95,387.486 800.272,331.121 801.594,326.013 802.916,425.855 804.238,343.841 805.561,392.43 806.883,328.601 808.205,135.379 809.527,140.988 810.849,140.54 812.172,301.723 813.494,448.323 814.816,387.745 816.138,479.253 817.46,323.747 818.782,384.855 820.105,450.086 821.427,383.205 822.749,418.986 824.071,482.667 825.393,536.052 826.716,499.519 828.038,451.685 829.36,374.966 830.682,420.892 832.004,327.084 833.326,449.706 834.649,414.438 835.971,334.08 837.293,333.711 838.615,320.87 839.937,398.522 841.259,338.59 842.582,332.884 843.904,383.212 845.226,435.179 846.548,420.718 847.87,503.782 849.193,446.344 850.515,327.565 851.837,302.642 853.159,132.441 854.481,130.379 855.803,119.878 857.126,120.815 858.448,153.702 859.77,124.761 861.092,114.969 862.414,153.867 863.736,153.128 865.059,134.191 866.381,134.456 867.703,144.033 869.025,133.441 870.347,161.564 871.67,151.912 872.992,106.072 874.314,108.388 875.636,129.588 876.958,112.965 878.28,136.442 879.603,155.501 880.925,127.523 882.247,121.875 883.569,108.218 884.891,135.566 886.214,137.4 887.536,318.178 888.858,317.08 890.18,380.618 891.502,390.608 892.824,353.305 894.147,328.023 895.469,453.182 896.791,335.258 898.113,119.009 899.435,154.131 900.757,447.989 902.08,361.578 903.402,369.532 904.724,323.455 906.046,324.759 907.368,386.345 908.691,365.772 910.013,336.224 911.335,321.873 912.657,426.758 913.979,430.592 915.301,454.903 916.624,359.543 917.946,326.018 919.268,143.513 920.59,126.711 921.912,151.818 923.235,153.619 924.557,125.884 925.879,131.558 927.201,138.425 928.523,148.09 929.845,140.611 931.168,129.856 932.49,121.635 933.812,309.302 935.134,341.404 936.456,504.214 937.778,465.984 939.101,514.206 940.423,335.864 941.745,321.018 943.067,363.962 944.389,342.619 945.712,325.369 947.034,442.936 948.356,350.231 949.678,340.266 951,338.41 952.322,311.718 953.645,322.066 954.967,414.846 956.289,320.978 957.611,324.917 958.933,347.662 960.255,314.52 961.578,454.933 962.9,427.332 964.222,494.458 965.544,486.561 966.866,509.702 968.189,420.214 969.511,503.203 970.833,320.431 972.155,338.939 973.477,151.037 974.799,135.442 976.122,117.294 977.444,107.327 978.766,155.995 980.088,144.458 981.41,133.04 982.733,140.891 984.055,152.055 985.377,118.185 986.699,137.994 988.021,137.624 989.343,358.364 990.666,429.205 991.988,325.477 993.31,325.607 994.632,425.648 995.954,468.432 997.276,370.994 998.599,343.314 999.921,344.983 1001.24,376.587 1002.57,335.745 1003.89,334.571 1005.21,337.496 1006.53,328.285 1007.85,140.582 1009.18,116.7 1010.5,151.031 1011.82,145.89 1013.14,117.282 1014.46,154.374 1015.79,149.767 1017.11,127.713 1018.43,126.49 1019.75,127.319 1021.08,145.577 1022.4,127.032 1023.72,333.835 1025.04,327.125 1026.36,326.44 1027.69,324.176 1029.01,335.517 1030.33,484.613 1031.65,316.559 1032.98,339.632 1034.3,311.88 1035.62,349.272 1036.94,466.876 1038.26,405.928 1039.59,343.785 1040.91,308.672 1042.23,149.79 1043.55,134.366 1044.87,121.059 1046.2,133.053 1047.52,140.445 1048.84,144.152 1050.16,154.498 1051.49,144.952 1052.81,100.483 1054.13,167.306 1055.45,121.606 1056.77,138.389 1058.1,141.035 1059.42,135.868 1060.74,136.879 1062.06,128.495 1063.39,126.676 1064.71,142.944 1066.03,132.312 1067.35,137.06 1068.67,131.729 1070,135.216 1071.32,133.288 1072.64,126.156 1073.96,144.641 1075.28,119.856 1076.61,134.973 1077.93,129.478 1079.25,141.679 1080.57,142.629 1081.9,134.559 1083.22,324.137 1084.54,296.042 1085.86,320.369 1087.18,313.208 1088.51,315.397 1089.83,337.151 1091.15,335.627 1092.47,337.524 1093.8,355.663 1095.12,334.268 1096.44,292.356 1097.76,356.706 1099.08,488.561 1100.41,430.203 1101.73,494.701 1103.05,512.396 1104.37,438.614 1105.7,500.841 1107.02,524.474 1108.34,476.284 1109.66,447.452 1110.98,370.556 1112.31,305.05 1113.63,456.058 1114.95,468.697 1116.27,433.221 1117.59,326.78 1118.92,331.82 1120.24,362.212 1121.56,501.241 1122.88,374.124 1124.21,435.124 1125.53,440.175 1126.85,466.429 1128.17,336.958 1129.49,328.09 1130.82,415.965 1132.14,504.721 1133.46,437.506 1134.78,367.801 1136.11,328.887 1137.43,351.334 1138.75,129.974 1140.07,132.712 1141.39,137.696 1142.72,142.354 1144.04,136.629 1145.36,137.744 1146.68,343.258 1148,324.444 1149.33,381.933 1150.65,340.458 1151.97,143.801 1153.29,130.473 1154.62,132.111 1155.94,147.208 1157.26,147.516 1158.58,149.032 1159.9,150.883 1161.23,120.212 1162.55,127.39 1163.87,147.472 1165.19,138.036 1166.52,112.315 1167.84,114.913 1169.16,132.766 1170.48,139.81 1171.8,120.078 1173.13,131.955 1174.45,136.975 1175.77,140.886 1177.09,145.323 1178.41,115.932 1179.74,139.306 1181.06,147.176 1182.38,118.59 1183.7,124.445 1185.03,106.39 1186.35,127.47 1187.67,142.944 1188.99,114.207 1190.31,128.407 1191.64,114.281 1192.96,132.684 1194.28,133.739 1195.6,127.732 1196.93,115.321 1198.25,121.278 1199.57,142.545 1200.89,144.762 1202.21,132.997 1203.54,143.212 1204.86,126.343 1206.18,150.137 1207.5,315.097 1208.82,316.706 1210.15,316.784 1211.47,432.112 1212.79,328.04 1214.11,329.388 1215.44,310.65 1216.76,335.924 1218.08,333.618 1219.4,346.828 1220.72,351.031 1222.05,310.741 1223.37,324.664 1224.69,481.066 1226.01,456.037 1227.34,328.672 1228.66,322.379 1229.98,399.442 1231.3,475.01 1232.62,444.512 1233.95,486.476 1235.27,421.439 1236.59,351.568 1237.91,341.079 1239.24,309.444 1240.56,361.654 1241.88,491.464 1243.2,445.646 1244.52,415.407 1245.85,409.328 1247.17,467.458 1248.49,417.872 1249.81,431.781 1251.13,395.101 1252.46,355.787 1253.78,336.292 1255.1,346.931 1256.42,348.888 1257.75,346.437 1259.07,332.973 1260.39,337.556 1261.71,331.336 1263.03,320.66 1264.36,321.493 1265.68,345.346 1267,145.903 1268.32,144.772 1269.65,116.085 1270.97,118.64 1272.29,131.422 1273.61,133.627 1274.93,139.32 1276.26,138.687 1277.58,109.777 1278.9,129.531 1280.22,137.957 1281.54,145.303 1282.87,152.722 1284.19,316.558 1285.51,123.977 1286.83,139.821 1288.16,118.788 1289.48,153.62 1290.8,138.84 1292.12,144.819 1293.44,128.79 1294.77,124.557 1296.09,148.797 1297.41,129.986 1298.73,125.686 1300.06,332.292 1301.38,330.79 1302.7,332.628 1304.02,434.182 1305.34,489.948 1306.67,365.166 1307.99,363.474 1309.31,441.926 1310.63,466.843 1311.95,314.844 1313.28,373.187 1314.6,345.375 1315.92,351.187 1317.24,356.438 1318.57,485.535 1319.89,321.34 1321.21,353.697 1322.53,418.651 1323.85,387.657 1325.18,332.697 1326.5,349.778 1327.82,331.256 1329.14,327.771 1330.47,321.631 1331.79,327.804 1333.11,329.502 1334.43,334.123 1335.75,328.341 1337.08,327.757 1338.4,335.51 1339.72,331.89 1341.04,331.306 1342.36,331.961 1343.69,339.138 1345.01,426.534 1346.33,452.491 1347.65,485.13 1348.98,357.502 1350.3,374.251 1351.62,348.696 1352.94,321.475 1354.26,337.625 1355.59,357.939 1356.91,323.522 1358.23,320.65 1359.55,126.961 1360.88,163.069 1362.2,114.368 1363.52,152.671 1364.84,136.869 1366.16,131.287 1367.49,120.469 1368.81,129.063 1370.13,152.04 1371.45,114.144 1372.78,117.696 1374.1,121.766 1375.42,109.878 1376.74,125.53 1378.06,107.518 1379.39,142.195 1380.71,116.767 1382.03,152.725 1383.35,133.631 1384.67,144.957 1386,124.513 1387.32,137.642 1388.64,132.348 1389.96,145.642 1391.29,150.556 1392.61,129.779 1393.93,146.701 1395.25,120.767 1396.57,126.975 1397.9,143.465 1399.22,133.695 1400.54,132.826 1401.86,105.999 1403.19,164.218 1404.51,131.286 1405.83,125.262 1407.15,149.887 1408.47,141.524 1409.8,140.325 1411.12,146.758 1412.44,129.331 1413.76,138.113 1415.08,142.861 1416.41,128.961 1417.73,134.514 1419.05,120.552 1420.37,144.21 1421.7,121.91 1423.02,137.7 1424.34,116.586 1425.66,117.342 1426.98,134.633 1428.31,126.992 1429.63,141.297 1430.95,140.845 1432.27,151.194 1433.6,132.965 1434.92,129.955 1436.24,117.096 1437.56,144.084 1438.88,151.003 1440.21,142.244 1441.53,138.214 1442.85,145.843 1444.17,120.439 1445.49,131.719 1446.82,138.096 1448.14,131.148 1449.46,124.233 1450.78,331.016 1452.11,322.825 1453.43,336.109 1454.75,388.858 1456.07,358.298 1457.39,328.283 1458.72,343.726 1460.04,156.981 1461.36,125.941 1462.68,156.865 1464.01,116.851 1465.33,135.241 1466.65,153.148 1467.97,138.646 1469.29,123.711 1470.62,112.276 1471.94,137.236 1473.26,133.228 1474.58,332.693 1475.9,337.925 1477.23,471.726 1478.55,456.414 1479.87,486.682 1481.19,444.136 1482.52,392.199 1483.84,483.318 1485.16,313.371 1486.48,336.927 1487.8,489.875 1489.13,521.32 1490.45,435.587 1491.77,433.639 1493.09,468.05 1494.42,336.599 1495.74,329.964 1497.06,323.492 1498.38,461.009 1499.7,459.618 1501.03,475.39 1502.35,449.074 1503.67,357.427 1504.99,359.315 1506.32,436.893 1507.64,328.269 1508.96,390.685 1510.28,323.595 1511.6,322.466 1512.93,320.919 1514.25,321.243 1515.57,318.592 1516.89,317.482 1518.21,352.495 1519.54,356.624 1520.86,310.13 1522.18,305.144 1523.5,305.929 1524.83,326.433 1526.15,317.811 1527.47,329.393 1528.79,383.038 1530.11,330.864 1531.44,333.415 1532.76,403.423 1534.08,369.612 1535.4,135.777 1536.73,114.857 1538.05,151.79 1539.37,124.786 1540.69,121.243 1542.01,141.654 1543.34,140.736 1544.66,125.97 1545.98,140.769 1547.3,121.908 1548.62,143.243 1549.95,310.035 1551.27,389.734 1552.59,318.01 1553.91,136.987 1555.24,147.117 1556.56,150.376 1557.88,145.341 1559.2,117.03 1560.52,129.149 1561.85,133.135 1563.17,140.112 1564.49,322.379 1565.81,320.074 1567.14,396.207 1568.46,473.799 1569.78,396.857 1571.1,430.518 1572.42,379.635 1573.75,456.194 1575.07,493.828 1576.39,393.443 1577.71,342.205 1579.03,341.412 1580.36,323.619 1581.68,314.071 1583,456.871 1584.32,425.029 1585.65,480.759 1586.97,380.516 1588.29,308.62 1589.61,144.727 1590.93,145.398 1592.26,138.954 1593.58,125.818 1594.9,131.052 1596.22,151.088 1597.55,137.091 1598.87,336.405 1600.19,333.86 1601.51,323.672 1602.83,334.114 1604.16,336.809 1605.48,326.33 1606.8,329.603 1608.12,311.546 1609.44,322.818 1610.77,315.481 1612.09,432.133 1613.41,505.646 1614.73,331.12 1616.06,342.29 1617.38,382.923 1618.7,519.887 1620.02,524.629 1621.34,491.785 1622.67,435.866 1623.99,314.394 1625.31,339.313 1626.63,323.903 1627.96,316.985 1629.28,146.795 1630.6,123.196 1631.92,144.804 1633.24,143.521 1634.57,126.334 1635.89,121.205 1637.21,128.988 1638.53,133.595 1639.86,151.21 1641.18,162.025 1642.5,127.592 1643.82,124.1 1645.14,154.398 1646.47,137.104 1647.79,133.946 1649.11,334.19 1650.43,332.569 1651.75,336.505 1653.08,317.597 1654.4,310.201 1655.72,310.164 1657.04,309.399 1658.37,459.303 1659.69,496.749 1661.01,452.842 1662.33,467.192 1663.65,392.524 1664.98,397.128 1666.3,305.386 1667.62,337.824 1668.94,332.711 1670.27,307.709 1671.59,116.404 1672.91,130.043 1674.23,128.437 1675.55,126.301 1676.88,121.371 1678.2,158.653 1679.52,110.023 1680.84,134.015 1682.16,124.752 1683.49,134.533 1684.81,125.971 1686.13,133.547 1687.45,145.835 1688.78,134.761 1690.1,134.286 1691.42,144.81 1692.74,317.056 1694.06,337.928 1695.39,336.261 1696.71,325.001 1698.03,327.405 1699.35,331.376 1700.68,423.738 1702,423.467 1703.32,520.347 1704.64,480.833 1705.96,527.244 1707.29,487.752 1708.61,447.875 1709.93,386.415 1711.25,502.608 1712.57,458.316 1713.9,367.934 1715.22,332.155 1716.54,511.687 1717.86,465.703 1719.19,490.932 1720.51,491.226 1721.83,521.349 1723.15,505.662 1724.47,331.401 1725.8,333.824 1727.12,383.389 1728.44,338.165 1729.76,377.179 1731.09,393.51 1732.41,494.51 1733.73,381.772 1735.05,511.031 1736.37,502.544 1737.7,410.392 1739.02,395.466 1740.34,497.577 1741.66,508.479 1742.98,501 1744.31,523.762 1745.63,466.728 1746.95,474.002 1748.27,325.871 1749.6,330.41 1750.92,328.353 1752.24,320.52 1753.56,311.88 1754.88,316.818 1756.21,354.161 1757.53,348.405 1758.85,404.828 1760.17,339.904 1761.5,463.746 1762.82,389.082 1764.14,340.045 1765.46,133.944 1766.78,133.414 1768.11,128.421 1769.43,125.585 1770.75,124.467 1772.07,152.778 1773.4,140.768 1774.72,129.978 1776.04,295.364 1777.36,123.869 1778.68,137.096 1780.01,148.575 1781.33,327.821 1782.65,337.609 1783.97,150.75 1785.29,131.929 1786.62,139.609 1787.94,122.468 1789.26,327.553 1790.58,312.896 1791.91,302.073 1793.23,447.048 1794.55,438.704 1795.87,493.935 1797.19,517.994 1798.52,447.995 1799.84,482.589 1801.16,503.913 1802.48,458.793 1803.81,410.131 1805.13,351.457 1806.45,351.771 1807.77,349.688 1809.09,330.506 1810.42,328.162 1811.74,323.392 1813.06,130.788 1814.38,133.094 1815.7,144.684 1817.03,132.118 1818.35,143.08 1819.67,152.788 1820.99,148.815 1822.32,129.26 1823.64,131.754 1824.96,129.725 1826.28,139.125 1827.6,160.671 1828.93,120.22 1830.25,111.926 1831.57,115.317 1832.89,118.659 1834.22,148.038 1835.54,145.076 1836.86,167.18 1838.18,131.049 1839.5,137.956 1840.83,129.937 1842.15,132.303 1843.47,141.396 1844.79,126.567 1846.11,125.871 1847.44,122.944 1848.76,141.744 1850.08,136.481 1851.4,145.487 1852.73,133.421 1854.05,323.898 1855.37,158.989 1856.69,133.616 1858.01,118.298 1859.34,115.997 1860.66,333.64 1861.98,374.219 1863.3,473.133 1864.63,448.419 1865.95,404.772 1867.27,370.163 1868.59,333.089 1869.91,467.942 1871.24,414.622 1872.56,497.67 1873.88,482.957 1875.2,418.579 1876.52,493.174 1877.85,443.717 1879.17,392.439 1880.49,321.638 1881.81,375.089 1883.14,312.058 1884.46,346.102 1885.78,338.012 1887.1,331.561 1888.42,321.029 1889.75,493.495 1891.07,422.195 1892.39,419.512 1893.71,483.955 1895.04,337.136 1896.36,482.137 1897.68,513.85 1899,363.139 1900.32,334.976 1901.65,334.737 1902.97,329.69 1904.29,333.225 1905.61,135.219 1906.94,145.963 1908.26,306.396 1909.58,323.758 1910.9,315.102 1912.22,316.403 1913.55,313.478 1914.87,324.224 1916.19,327.948 1917.51,331.707 1918.83,325.095 1920.16,138.178 1921.48,127.497 1922.8,142.728 1924.12,335.853 1925.45,310.826 1926.77,346.446 1928.09,522.919 1929.41,446.865 1930.73,387.69 1932.06,477.903 1933.38,411.159 1934.7,501.93 1936.02,379.354 1937.35,443.42 1938.67,454.354 1939.99,328.399 1941.31,329.916 1942.63,324.457 1943.96,306.34 1945.28,139.306 1946.6,146.251 1947.92,137.451 1949.24,329.597 1950.57,346.022 1951.89,344.665 1953.21,109.504 1954.53,135.484 1955.86,131.144 1957.18,152.976 1958.5,100.411 1959.82,127.503 1961.14,114.058 1962.47,116.319 1963.79,143.593 1965.11,162.531 1966.43,120.118 1967.76,144.933 1969.08,131.283 1970.4,116.062 1971.72,147.893 1973.04,335.438 1974.37,341.409 1975.69,498.358 1977.01,371.114 1978.33,316.327 1979.65,349.326 1980.98,337.147 1982.3,315.688 1983.62,352.172 1984.94,457.674 1986.27,323.893 1987.59,372.083 1988.91,327.925 1990.23,315.205 1991.55,325.424 1992.88,132.758 1994.2,126.528 1995.52,149.191 1996.84,114.153 1998.17,116.663 1999.49,152.787 2000.81,138.651 2002.13,315.349 2003.45,406.009 2004.78,396.407 2006.1,330.723 2007.42,149.166 2008.74,132.066 2010.06,115.053 2011.39,339.942 2012.71,301.851 2014.03,304.218 2015.35,345.293 2016.68,132.032 2018,126.8 2019.32,128.156 2020.64,133.573 2021.96,123.829 2023.29,127.26 2024.61,117.913 2025.93,137.71 2027.25,124.525 2028.58,123.783 2029.9,126.763 2031.22,117.999 2032.54,309.559 2033.86,303.017 2035.19,309.739 2036.51,366.141 2037.83,336.461 2039.15,306.635 2040.48,342.975 2041.8,452.42 2043.12,417.46 2044.44,469.27 2045.76,397.55 2047.09,510.964 2048.41,486.875 2049.73,329.435 2051.05,381.366 2052.37,451.708 2053.7,354.716 2055.02,348.006 2056.34,448.919 2057.66,512.168 2058.99,507.022 2060.31,447.087 2061.63,354.823 2062.95,394.784 2064.27,517.562 2065.6,517.223 2066.92,494.403 2068.24,481.911 2069.56,354.716 2070.89,332.975 2072.21,133.938 2073.53,129.934 2074.85,121.142 2076.17,121.786 2077.5,135.757 2078.82,150.264 2080.14,118.41 2081.46,132.906 2082.78,138.697 2084.11,140.7 2085.43,135.095 2086.75,127.223 2088.07,121.272 2089.4,146.735 2090.72,129.815 2092.04,131.437 2093.36,135.923 2094.68,116.825 2096.01,115.89 2097.33,106.631 2098.65,152.008 2099.97,118.805 2101.3,128.805 2102.62,110.973 2103.94,309.888 2105.26,320.176 2106.58,157.689 2107.91,330.649 2109.23,330.591 2110.55,389.421 2111.87,315.813 2113.19,317.909 2114.52,315.547 2115.84,381.012 2117.16,346.499 2118.48,301.111 2119.81,328.802 2121.13,468.045 2122.45,346.01 2123.77,331.513 2125.09,345.77 2126.42,333.608 2127.74,135.135 2129.06,157.723 2130.38,144.617 2131.71,124.326 2133.03,354.533 2134.35,353.981 2135.67,366.78 2136.99,358.228 2138.32,379.807 2139.64,328.319 2140.96,298.713 2142.28,344.534 2143.6,337.597 2144.93,127.515 2146.25,144.704 2147.57,126.939 2148.89,135.533 2150.22,135.323 2151.54,132.595 2152.86,334.316 2154.18,325.19 2155.5,396.157 2156.83,426.366 2158.15,424.669 2159.47,465.03 2160.79,428.039 2162.12,377.519 2163.44,357.829 2164.76,307.885 2166.08,307.369 2167.4,369.091 2168.73,512.594 2170.05,500.271 2171.37,433.607 2172.69,343.14 2174.02,400.648 2175.34,443.449 2176.66,344.865 2177.98,312.934 2179.3,321.496 2180.63,132.745 2181.95,140.15 2183.27,142.553 2184.59,131.19 2185.91,138.004 2187.24,115.73 2188.56,136.319 2189.88,118.085 2191.2,144.178 2192.53,130.007 2193.85,143.713 2195.17,154.216 2196.49,114.379 2197.81,108.583 2199.14,137.402 2200.46,125.293 2201.78,150.701 2203.1,130.721 2204.43,121.285 2205.75,152.664 2207.07,139.17 2208.39,120.084 2209.71,137.692 2211.04,143.321 2212.36,133.016 2213.68,136.393 2215,135.974 2216.32,133.046 2217.65,122.016 2218.97,117.812 2220.29,131.214 2221.61,119.99 2222.94,130.063 2224.26,125.082 2225.58,116.479 2226.9,156.102 2228.22,161.82 2229.55,298.464 2230.87,344.6 2232.19,434.748 2233.51,523.626 2234.84,491.462 2236.16,510.493 2237.48,332.072 2238.8,341.948 2240.12,350.18 2241.45,124.385 2242.77,155.892 2244.09,142.644 2245.41,118.777 2246.73,106.924 2248.06,147.721 2249.38,150.639 2250.7,140.867 2252.02,132.247 2253.35,130.94 2254.67,151.936 2255.99,150.041 2257.31,134.551 2258.63,140.923 2259.96,143.771 2261.28,127.973 2262.6,123.558 2263.92,149.746 2265.25,122.526 2266.57,110.371 2267.89,128.294 2269.21,135.784 2270.53,138.337 2271.86,136.718 2273.18,154.79 2274.5,137.663 2275.82,121.596 2277.14,153.695 2278.47,151.524 2279.79,120.648 2281.11,135.357 2282.43,136.016 2283.76,128.581 2285.08,123.716 2286.4,148.281 2287.72,114.5 2289.04,117.755 2290.37,148.847 2291.69,141.465 2293.01,132.848 2294.33,142.62 2295.66,136.265 2296.98,139.833 2298.3,130.322 2299.62,119.861 2300.94,144.118 2302.27,129.712 2303.59,133.322 2304.91,146.84 2306.23,140.255 2307.55,143.777 2308.88,157.407 2310.2,150.199 2311.52,122.495 2312.84,137.216 2314.17,133.692 2315.49,134.303 2316.81,122.31 2318.13,135.576 2319.45,133.779 2320.78,131.293 2322.1,124.505 2323.42,125.856 2324.74,124.969 2326.07,125.895 2327.39,129.075 2328.71,313.626 2330.03,316.626 2331.35,338.197 2332.68,348.654 2334,351.197 2335.32,499.663 2336.64,331.67 2337.97,331.031 2339.29,329.473 2340.61,321.097 2341.93,316.042 2343.25,126.132 2344.58,152.349 2345.9,137.469 2347.22,139.604 2348.54,133.713 2349.86,133.403 2351.19,143.351 2352.51,146.737 2353.83,130.282 2355.15,138.081 2356.48,112.849 2357.8,139.225 2359.12,137.754 2360.44,116.557 2361.76,135.74 2363.09,140.719 2364.41,121.033 2365.73,139.955 2367.05,135.084 2368.38,122.348 2369.7,137.684 2371.02,136.093 2372.34,121.121 2373.66,127.86 2374.99,134.407 2376.31,344.581 2377.63,317.615 2378.95,131.719 2380.27,137.371 2381.6,120.089 2382.92,128.47 2384.24,141.623 2385.56,123.004 2386.89,142.926 2388.21,137.921 2389.53,143.746 2390.85,135.513 2392.17,135.002 2393.5,125.186 2394.82,121.548 2396.14,121.691 2397.46,155.971 2398.79,131.419 2400.11,128.398 2401.43,149.323 2402.75,154.009 2404.07,134.709 2405.4,146.213 2406.72,148.875 2408.04,121.492 2409.36,129.824 2410.68,136.118 2412.01,126.257 2413.33,145.858 2414.65,141.351 2415.97,150.275 2417.3,320.018 2418.62,370.639 2419.94,516.876 2421.26,453.432 2422.58,516.509 2423.91,449.929 2425.23,384.925 2426.55,457.952 2427.87,352.93 2429.2,377.844 2430.52,377.631 2431.84,372.41 2433.16,400.198 2434.48,339.333 2435.81,299.356 2437.13,424.598 2438.45,364.672 2439.77,156.169 2441.09,149.9 2442.42,115.982 2443.74,120.366 2445.06,128.13 2446.38,346.881 2447.71,334.587 2449.03,337.032 2450.35,316.05 2451.67,335.094 2452.99,356.282 2454.32,498.049 2455.64,463.21 2456.96,462.839 2458.28,328.251 2459.61,328.845 2460.93,325.075 2462.25,339.151 2463.57,503.216 2464.89,505.525 2466.22,311.264 2467.54,500.151 2468.86,420.952 2470.18,408.947 2471.51,464.734 2472.83,373.253 2474.15,444.233 2475.47,531.651 2476.79,462.45 2478.12,462.721 2479.44,475.552 2480.76,484.247 2482.08,416.128 2483.4,454.557 2484.73,326.49 2486.05,326.02 2487.37,333.727 2488.69,493.383 2490.02,469.155 2491.34,322.649 2492.66,330.654 2493.98,335.983 2495.3,493.549 2496.63,458.98 2497.95,398.095 2499.27,320.813 2500.59,121.712 2501.92,122.962 2503.24,159.021 2504.56,146.489 2505.88,164.081 2507.2,142.029 2508.53,129.754 2509.85,150.885 2511.17,126.434 2512.49,135.444 2513.81,134.96 2515.14,145.009 2516.46,139.006 2517.78,139.109 2519.1,146.187 2520.43,132.585 2521.75,138.549 2523.07,327.876 2524.39,322.222 2525.71,333.094 2527.04,389.239 2528.36,433.024 2529.68,464.801 2531,367.124 2532.33,345.49 2533.65,504.502 2534.97,510.844 2536.29,480.981 2537.61,484.884 2538.94,416.906 2540.26,417.177 2541.58,351.864 2542.9,333.71 2544.22,336.845 2545.55,368.667 2546.87,314.974 2548.19,432.854 2549.51,491.846 2550.84,334.037 2552.16,319.965 2553.48,312.646 2554.8,464.026 2556.12,443.262 2557.45,447.993 2558.77,434.162 2560.09,363.316 2561.41,361.06 2562.74,456.242 2564.06,336.598 2565.38,345.298 2566.7,395.131 2568.02,382.77 2569.35,450.975 2570.67,381.752 2571.99,340.57 2573.31,309.588 2574.63,347.273 2575.96,521.254 2577.28,357.987 2578.6,394.48 2579.92,392.818 2581.25,345.088 2582.57,344.342 2583.89,327.393 2585.21,315.82 2586.53,334.048 2587.86,335.806 2589.18,308.024 2590.5,312.127 2591.82,142.953 2593.15,120.417 2594.47,116.41 2595.79,119.144 2597.11,338.675 2598.43,331.16 2599.76,328.826 2601.08,146.078 2602.4,151.502 2603.72,156.09 2605.05,134.065 2606.37,126.69 2607.69,123.707 2609.01,146.636 2610.33,136.451 2611.66,148.098 2612.98,145.759 2614.3,332.009 2615.62,470.694 2616.94,397.983 2618.27,316.324 2619.59,313.856 2620.91,352.064 2622.23,369.137 2623.56,404.356 2624.88,321.38 2626.2,325.292 2627.52,332.621 2628.84,321.316 2630.17,337.162 2631.49,306.584 2632.81,306.296 2634.13,310.482 2635.46,327.712 2636.78,311.85 2638.1,146.962 2639.42,125.871 2640.74,123.675 2642.07,149.17 2643.39,159.64 2644.71,111.334 2646.03,111.052 2647.35,158.052 2648.68,353.763 2650,351.588 2651.32,330.9 2652.64,143.086 2653.97,154.336 2655.29,114.544 2656.61,127.912 2657.93,149.923 2659.25,149.241 2660.58,124.784 2661.9,117.045 2663.22,330.063 2664.54,380.452 2665.87,334.618 2667.19,325.463 2668.51,421.495 2669.83,439.558 2671.15,355.226 2672.48,310.99 2673.8,113.16 2675.12,120.805 2676.44,123.273 2677.76,139.687 2679.09,139.641 2680.41,134.053 2681.73,124.468 2683.05,116.53 2684.38,149.849 2685.7,121.32 2687.02,123.184 2688.34,140.231 2689.66,115.874 2690.99,137.666 2692.31,136.122 2693.63,135.306 2694.95,326.098 2696.28,323.844 2697.6,339.789 2698.92,386.776 2700.24,467.967 2701.56,331.539 2702.89,136.666 2704.21,142.895 2705.53,137.441 2706.85,109.802 2708.17,126.321 2709.5,130.623 2710.82,135.635 2712.14,138.404 2713.46,150.812 2714.79,138.571 2716.11,116.697 2717.43,148.46 2718.75,324.358 2720.07,320.951 2721.4,322.365 2722.72,151.077 2724.04,129.074 2725.36,136.622 2726.69,146.641 2728.01,134.094 2729.33,114.861 2730.65,128.76 2731.97,129.264 2733.3,159.176 2734.62,139.474 2735.94,325.44 2737.26,355.392 2738.59,324.877 2739.91,127.241 2741.23,132.216 2742.55,122.059 2743.87,121.559 2745.2,145.302 2746.52,146.709 2747.84,139.523 2749.16,128.169 2750.48,131.398 2751.81,136.093 2753.13,143.623 2754.45,141.114 2755.77,124.363 2757.1,143.141 2758.42,141.242 2759.74,132.298 2761.06,135.148 2762.38,135.036 2763.71,122.76 2765.03,137.137 2766.35,119.836 2767.67,139.244 2769,127.242 2770.32,147.431 2771.64,130.49 2772.96,137.592 2774.28,137.407 2775.61,319.728 2776.93,140.455 2778.25,113.015 2779.57,108.935 2780.89,168.09 2782.22,170.835 2783.54,118.252 2784.86,141.466 2786.18,114.278 2787.51,149.721 2788.83,128.229 2790.15,147.005 2791.47,140.225 2792.79,141.188 2794.12,152.411 2795.44,142.332 2796.76,141.272 2798.08,127.24 2799.41,140.628 2800.73,130.577 2802.05,137.716 2803.37,169.164 2804.69,126.307 2806.02,158.681 2807.34,140.088 2808.66,129.221 2809.98,139.687 2811.3,142.726 2812.63,122.329 2813.95,139.02 2815.27,139.099 2816.59,137.382 2817.92,137.893 2819.24,138.607 2820.56,143.034 2821.88,132.738 2823.2,152.853 2824.53,144.728 2825.85,129.635 2827.17,134.115 2828.49,336.704 2829.82,347.134 2831.14,332.208 2832.46,315.095 2833.78,325.145 2835.1,320.787 2836.43,338.221 2837.75,324.793 2839.07,325.597 2840.39,376.509 2841.71,461.553 2843.04,494.61 2844.36,480.395 2845.68,451.106 2847,410.197 2848.33,399.561 2849.65,314.459 2850.97,313.575 2852.29,317.736 2853.61,317.407 2854.94,362.451 2856.26,129.133 2857.58,133.303 2858.9,138.42 2860.23,136.015 2861.55,110.946 2862.87,110.554 2864.19,158.776 2865.51,120.536 2866.84,145.001 2868.16,141.506 2869.48,124.876 2870.8,142.452 2872.13,149.368 2873.45,135.473 2874.77,330.988 2876.09,334.431 2877.41,325.97 2878.74,344.717 2880.06,150.73 2881.38,126.383 2882.7,141.571 2884.02,135.114 2885.35,162.317 2886.67,143.421 2887.99,327.792 2889.31,357.23 2890.64,315.821 2891.96,130.392 2893.28,134.649 2894.6,141.823 2895.92,140.069 2897.25,322.571 2898.57,323.141 2899.89,324.373 2901.21,331.384 2902.54,385.468 2903.86,400.276 2905.18,373.087 2906.5,316.173 2907.82,148.514 2909.15,314.63 2910.47,373.103 2911.79,353.621 2913.11,417.719 2914.43,326.049 2915.76,495.835 2917.08,503.139 2918.4,484.756 2919.72,456.918 2921.05,416.883 2922.37,332.216 2923.69,333.654 2925.01,319.962 2926.33,345.826 2927.66,317.565 2928.98,355.31 2930.3,319.535 2931.62,391.007 2932.95,332.668 2934.27,333.412 2935.59,335.671 2936.91,126.821 2938.23,128.164 2939.56,123.445 2940.88,160.863 2942.2,118.271 2943.52,127.96 2944.84,129.59 2946.17,159.979 2947.49,158.867 2948.81,308.866 2950.13,144.218 2951.46,149.675 2952.78,133.101 2954.1,129.945 2955.42,120.683 2956.74,133.867 2958.07,124.405 2959.39,130.922 2960.71,117.855 2962.03,305.823 2963.36,351.741 2964.68,307.798 2966,349.532 2967.32,334.812 2968.64,396.051 2969.97,340.783 2971.29,333.319 2972.61,312.131 2973.93,343.329 2975.25,458.952 2976.58,376.176 2977.9,375.21 2979.22,296.106 2980.54,294.094 2981.87,154.011 2983.19,146.837 2984.51,125.58 2985.83,130.779 2987.15,333.375 2988.48,414.158 2989.8,467.044 2991.12,480.825 2992.44,457.742 2993.77,335.164 2995.09,348.183 2996.41,409.097 2997.73,369.345 2999.05,121.54 3000.38,141.661 3001.7,134.222 3003.02,122.874 3004.34,131.856 3005.67,149.6 3006.99,143.918 3008.31,130.01 3009.63,125.542 3010.95,144.172 3012.28,136.165 3013.6,123.249 3014.92,134.306 3016.24,127.622 3017.56,162.133 3018.89,162.824 3020.21,105.528 3021.53,138.255 3022.85,138.77 3024.18,136.847 3025.5,141.693 3026.82,150.316 3028.14,131.641 3029.46,143.977 3030.79,152.185 3032.11,124.274 3033.43,139.328 3034.75,131.586 3036.08,144.748 3037.4,307.399 3038.72,326.699 3040.04,521.627 3041.36,333.159 3042.69,320.787 3044.01,457.363 3045.33,528.214 3046.65,486.1 3047.97,425.127 3049.3,484.617 3050.62,502.748 3051.94,475.462 3053.26,515.262 3054.59,524.236 3055.91,518.566 3057.23,415.591 3058.55,306.535 3059.87,459.16 3061.2,143.604 3062.52,136.286 3063.84,134.415 3065.16,145.689 3066.49,153.339 3067.81,135.275 3069.13,128.953 3070.45,138.201 3071.77,154.472 3073.1,118.988 3074.42,141.055 3075.74,112.296 3077.06,146.977 3078.38,115.803 3079.71,115.902 3081.03,108.333 3082.35,105.36 3083.67,123.822 3085,149.581 3086.32,100.432 3087.64,102.82 3088.96,154.833 3090.28,128.675 3091.61,114.973 3092.93,119.111 3094.25,303.651 3095.57,138.217 3096.9,134.599 3098.22,121.082 3099.54,141.767 3100.86,155.088 3102.18,155.322 3103.51,122.651 3104.83,134.305 3106.15,312.933 3107.47,329.494 3108.79,342.573 3110.12,340.037 3111.44,321.378 3112.76,137.934 3114.08,140.059 3115.41,146.466 3116.73,149.505 3118.05,116.871 3119.37,119.833 3120.69,403.34 3122.02,418.872 3123.34,492.608 3124.66,396.514 3125.98,327.282 3127.31,328.08 3128.63,315.568 3129.95,335.288 3131.27,304.411 3132.59,345.282 3133.92,340.252 3135.24,325.091 3136.56,314.043 3137.88,332.316 3139.21,156.185 3140.53,144.654 3141.85,136.822 3143.17,127.905 3144.49,131.082 3145.82,151.359 3147.14,308.012 3148.46,316.354 3149.78,313.106 3151.1,490.196 3152.43,492.339 3153.75,330.433 3155.07,118.215 3156.39,154.862 3157.72,152.755 3159.04,115.793 3160.36,158.186 3161.68,130.528 3163,143.36 3164.33,142.103 3165.65,146.887 3166.97,152.963 3168.29,114.207 3169.62,108.832 3170.94,109.993 3172.26,148.657 3173.58,117.11 3174.9,108.029 3176.23,159.551 3177.55,328.261 3178.87,325.071 3180.19,340.548 3181.51,455.2 3182.84,364.873 3184.16,488.019 3185.48,461.244 3186.8,524.621 3188.13,521.455 3189.45,434.457 3190.77,314.714 3192.09,132.29 3193.41,109.2 3194.74,127.358 3196.06,139.954 3197.38,122.814 3198.7,113.373 3200.03,156.421 3201.35,142.557 3202.67,323.383 3203.99,382.921 3205.31,410.121 3206.64,485.456 3207.96,499.084 3209.28,471.202 3210.6,439.618 3211.92,341.603 3213.25,479.618 3214.57,328.851 3215.89,139.383 3217.21,145.853 3218.54,145.068 3219.86,130.475 3221.18,139.378 3222.5,125.087 3223.82,141.035 3225.15,132.491 3226.47,136.704 3227.79,142.637 3229.11,138.447 3230.44,134.106 3231.76,115.746 3233.08,155.223 3234.4,103.96 3235.72,146.754 3237.05,120.053 3238.37,141.175 3239.69,120.725 3241.01,139.278 3242.33,129.623 3243.66,158.28 3244.98,176.25 3246.3,125.879 3247.62,137.726 3248.95,126.656 3250.27,123.783 3251.59,122.499 3252.91,135.872 3254.23,129.135 3255.56,143.921 3256.88,125.953 3258.2,149.077 3259.52,131.355 3260.85,136.322 3262.17,306.212 3263.49,303.377 3264.81,332.715 3266.13,309.902 3267.46,322.335 3268.78,395.796 3270.1,330.102 3271.42,320.104 3272.75,297.713 3274.07,295.975 3275.39,388.143 3276.71,410.59 3278.03,329.783 3279.36,365.377 3280.68,419.365 3282,392.351 3283.32,492.724 3284.64,534.093 3285.97,427.586 3287.29,527.4 3288.61,444.444 3289.93,360.459 3291.26,373.379 3292.58,451.183 3293.9,459.341 3295.22,452.613 3296.54,516.355 3297.87,425.371 3299.19,497.752 3300.51,464.844 3301.83,386.305 3303.16,440.195 3304.48,297.41 3305.8,126.284 3307.12,130.058 3308.44,124.485 3309.77,149.229 3311.09,128.745 3312.41,141.711 3313.73,132.355 3315.05,130.455 3316.38,141.288 3317.7,133.38 3319.02,118.482 3320.34,142.159 3321.67,135.543 3322.99,124.182 3324.31,126.953 3325.63,160.637 3326.95,155.463 3328.28,150.706 3329.6,128.367 3330.92,130.107 3332.24,141.241 3333.57,129.904 3334.89,125.374 3336.21,126.643 3337.53,124.331 3338.85,134.902 3340.18,142.537 3341.5,133.25 3342.82,157.636 3344.14,305.559 3345.46,144.027 3346.79,151.002 3348.11,326.973 3349.43,404.36 3350.75,302.037 3352.08,328.674 3353.4,373.413 3354.72,337.712 3356.04,329.78 3357.36,424.569 3358.69,394.643 3360.01,428.237 3361.33,326.565 3362.65,337.77 3363.98,338.309 3365.3,319.744 3366.62,338.122 3367.94,312.334 3369.26,135.435 3370.59,140.678 3371.91,119.992 3373.23,141.917 3374.55,125.848 3375.87,117.533 3377.2,141.365 3378.52,144.048 3379.84,136.526 3381.16,130.335 3382.49,144.964 3383.81,124.637 3385.13,125.157 3386.45,158.606 3387.77,148.869 3389.1,119.647 3390.42,133.341 3391.74,135.776 3393.06,320.519 3394.39,469.819 3395.71,401.968 3397.03,341.191 3398.35,522.301 3399.67,453.262 3401,335.177 3402.32,125.724 3403.64,151.822 3404.96,145.55 3406.29,145.39 3407.61,140.671 3408.93,150.648 3410.25,119.12 3411.57,133.454 3412.9,133.833 3414.22,142.377 3415.54,149.013 3416.86,337.887 3418.18,325.761 3419.51,322.449 3420.83,320.396 3422.15,321.324 3423.47,119.869 3424.8,109.39 3426.12,127.271 3427.44,127.341 3428.76,150.039 3430.08,123.726 3431.41,144.732 3432.73,121.727 3434.05,107.241 3435.37,159.49 3436.7,150.9 3438.02,112.369 3439.34,138.352 3440.66,145.476 3441.98,140.095 3443.31,149.242 3444.63,127.709 3445.95,119.159 3447.27,142.014 3448.59,145.749 3449.92,122.029 3451.24,143.572 3452.56,122.381 3453.88,129.789 3455.21,144.066 3456.53,146.107 "/>
<path clip-path="url(#clip780)" d="M3004.35 166.762 L3439.42 166.762 L3439.42 63.0816 L3004.35 63.0816  Z" fill="#ffffff" fill-rule="evenodd" fill-opacity="1"/>
<polyline clip-path="url(#clip780)" style="stroke:#000000; stroke-linecap:round; stroke-linejoin:round; stroke-width:4; stroke-opacity:1; fill:none" points="3004.35,166.762 3439.42,166.762 3439.42,63.0816 3004.35,63.0816 3004.35,166.762 "/>
<polyline clip-path="url(#clip780)" style="stroke:#009af9; stroke-linecap:round; stroke-linejoin:round; stroke-width:2; stroke-opacity:1; fill:none" points="3042.12,114.922 3268.79,114.922 "/>
<path clip-path="url(#clip780)" d="M3322.96 115.998 Q3324.47 116.507 3325.88 118.174 Q3327.31 119.841 3328.75 122.757 L3333.49 132.202 L3328.47 132.202 L3324.05 123.336 Q3322.34 119.864 3320.72 118.729 Q3319.12 117.595 3316.34 117.595 L3311.25 117.595 L3311.25 132.202 L3306.57 132.202 L3306.57 97.6416 L3317.13 97.6416 Q3323.05 97.6416 3325.97 100.118 Q3328.89 102.595 3328.89 107.595 Q3328.89 110.859 3327.36 113.012 Q3325.86 115.165 3322.96 115.998 M3311.25 101.484 L3311.25 113.753 L3317.13 113.753 Q3320.51 113.753 3322.22 112.202 Q3323.96 110.628 3323.96 107.595 Q3323.96 104.563 3322.22 103.035 Q3320.51 101.484 3317.13 101.484 L3311.25 101.484 Z" fill="#000000" fill-rule="evenodd" fill-opacity="1" /><path clip-path="url(#clip780)" d="M3349.14 102.248 L3342.8 119.447 L3355.51 119.447 L3349.14 102.248 M3346.5 97.6416 L3351.8 97.6416 L3364.98 132.202 L3360.11 132.202 L3356.97 123.336 L3341.39 123.336 L3338.24 132.202 L3333.31 132.202 L3346.5 97.6416 Z" fill="#000000" fill-rule="evenodd" fill-opacity="1" /><path clip-path="url(#clip780)" d="M3370.02 97.6416 L3376.99 97.6416 L3385.81 121.16 L3394.67 97.6416 L3401.64 97.6416 L3401.64 132.202 L3397.08 132.202 L3397.08 101.854 L3388.17 125.558 L3383.47 125.558 L3374.56 101.854 L3374.56 132.202 L3370.02 132.202 L3370.02 97.6416 Z" fill="#000000" fill-rule="evenodd" fill-opacity="1" /></svg>
