<?xml version="1.0" encoding="utf-8"?>
<svg xmlns="http://www.w3.org/2000/svg" xmlns:xlink="http://www.w3.org/1999/xlink" width="900" height="150" viewBox="0 0 3600 600">
<defs>
  <clipPath id="clip730">
    <rect x="0" y="0" width="3600" height="600"/>
  </clipPath>
</defs>
<path clip-path="url(#clip730)" d="M0 600 L3600 600 L3600 0 L0 0  Z" fill="#ffffff" fill-rule="evenodd" fill-opacity="1"/>
<defs>
  <clipPath id="clip731">
    <rect x="720" y="0" width="2521" height="600"/>
  </clipPath>
</defs>
<path clip-path="url(#clip730)" d="M152.696 522.368 L3552.76 522.368 L3552.76 47.2441 L152.696 47.2441  Z" fill="#ffffff" fill-rule="evenodd" fill-opacity="1"/>
<defs>
  <clipPath id="clip732">
    <rect x="152" y="47" width="3401" height="476"/>
  </clipPath>
</defs>
<polyline clip-path="url(#clip732)" style="stroke:#000000; stroke-linecap:round; stroke-linejoin:round; stroke-width:2; stroke-opacity:0.1; fill:none" points="247.861,522.368 247.861,47.2441 "/>
<polyline clip-path="url(#clip732)" style="stroke:#000000; stroke-linecap:round; stroke-linejoin:round; stroke-width:2; stroke-opacity:0.1; fill:none" points="1310.33,522.368 1310.33,47.2441 "/>
<polyline clip-path="url(#clip732)" style="stroke:#000000; stroke-linecap:round; stroke-linejoin:round; stroke-width:2; stroke-opacity:0.1; fill:none" points="2372.81,522.368 2372.81,47.2441 "/>
<polyline clip-path="url(#clip732)" style="stroke:#000000; stroke-linecap:round; stroke-linejoin:round; stroke-width:2; stroke-opacity:0.1; fill:none" points="3435.28,522.368 3435.28,47.2441 "/>
<polyline clip-path="url(#clip730)" style="stroke:#000000; stroke-linecap:round; stroke-linejoin:round; stroke-width:4; stroke-opacity:1; fill:none" points="152.696,522.368 3552.76,522.368 "/>
<polyline clip-path="url(#clip730)" style="stroke:#000000; stroke-linecap:round; stroke-linejoin:round; stroke-width:4; stroke-opacity:1; fill:none" points="247.861,522.368 247.861,503.47 "/>
<polyline clip-path="url(#clip730)" style="stroke:#000000; stroke-linecap:round; stroke-linejoin:round; stroke-width:4; stroke-opacity:1; fill:none" points="1310.33,522.368 1310.33,503.47 "/>
<polyline clip-path="url(#clip730)" style="stroke:#000000; stroke-linecap:round; stroke-linejoin:round; stroke-width:4; stroke-opacity:1; fill:none" points="2372.81,522.368 2372.81,503.47 "/>
<polyline clip-path="url(#clip730)" style="stroke:#000000; stroke-linecap:round; stroke-linejoin:round; stroke-width:4; stroke-opacity:1; fill:none" points="3435.28,522.368 3435.28,503.47 "/>
<path clip-path="url(#clip730)" d="M247.861 562.887 Q244.25 562.887 242.421 566.451 Q240.616 569.993 240.616 577.123 Q240.616 584.229 242.421 587.794 Q244.25 591.335 247.861 591.335 Q251.495 591.335 253.301 587.794 Q255.13 584.229 255.13 577.123 Q255.13 569.993 253.301 566.451 Q251.495 562.887 247.861 562.887 M247.861 559.183 Q253.671 559.183 256.727 563.789 Q259.806 568.373 259.806 577.123 Q259.806 585.849 256.727 590.456 Q253.671 595.039 247.861 595.039 Q242.051 595.039 238.972 590.456 Q235.917 585.849 235.917 577.123 Q235.917 568.373 238.972 563.789 Q242.051 559.183 247.861 559.183 Z" fill="#000000" fill-rule="evenodd" fill-opacity="1" /><path clip-path="url(#clip730)" d="M1254.86 590.433 L1262.5 590.433 L1262.5 564.067 L1254.19 565.734 L1254.19 561.475 L1262.45 559.808 L1267.13 559.808 L1267.13 590.433 L1274.77 590.433 L1274.77 594.368 L1254.86 594.368 L1254.86 590.433 Z" fill="#000000" fill-rule="evenodd" fill-opacity="1" /><path clip-path="url(#clip730)" d="M1294.21 562.887 Q1290.6 562.887 1288.77 566.451 Q1286.97 569.993 1286.97 577.123 Q1286.97 584.229 1288.77 587.794 Q1290.6 591.335 1294.21 591.335 Q1297.85 591.335 1299.65 587.794 Q1301.48 584.229 1301.48 577.123 Q1301.48 569.993 1299.65 566.451 Q1297.85 562.887 1294.21 562.887 M1294.21 559.183 Q1300.02 559.183 1303.08 563.789 Q1306.16 568.373 1306.16 577.123 Q1306.16 585.849 1303.08 590.456 Q1300.02 595.039 1294.21 595.039 Q1288.4 595.039 1285.32 590.456 Q1282.27 585.849 1282.27 577.123 Q1282.27 568.373 1285.32 563.789 Q1288.4 559.183 1294.21 559.183 Z" fill="#000000" fill-rule="evenodd" fill-opacity="1" /><path clip-path="url(#clip730)" d="M1324.37 562.887 Q1320.76 562.887 1318.93 566.451 Q1317.13 569.993 1317.13 577.123 Q1317.13 584.229 1318.93 587.794 Q1320.76 591.335 1324.37 591.335 Q1328.01 591.335 1329.81 587.794 Q1331.64 584.229 1331.64 577.123 Q1331.64 569.993 1329.81 566.451 Q1328.01 562.887 1324.37 562.887 M1324.37 559.183 Q1330.18 559.183 1333.24 563.789 Q1336.32 568.373 1336.32 577.123 Q1336.32 585.849 1333.24 590.456 Q1330.18 595.039 1324.37 595.039 Q1318.56 595.039 1315.48 590.456 Q1312.43 585.849 1312.43 577.123 Q1312.43 568.373 1315.48 563.789 Q1318.56 559.183 1324.37 559.183 Z" fill="#000000" fill-rule="evenodd" fill-opacity="1" /><path clip-path="url(#clip730)" d="M1354.53 562.887 Q1350.92 562.887 1349.09 566.451 Q1347.29 569.993 1347.29 577.123 Q1347.29 584.229 1349.09 587.794 Q1350.92 591.335 1354.53 591.335 Q1358.17 591.335 1359.97 587.794 Q1361.8 584.229 1361.8 577.123 Q1361.8 569.993 1359.97 566.451 Q1358.17 562.887 1354.53 562.887 M1354.53 559.183 Q1360.34 559.183 1363.4 563.789 Q1366.48 568.373 1366.48 577.123 Q1366.48 585.849 1363.4 590.456 Q1360.34 595.039 1354.53 595.039 Q1348.72 595.039 1345.65 590.456 Q1342.59 585.849 1342.59 577.123 Q1342.59 568.373 1345.65 563.789 Q1348.72 559.183 1354.53 559.183 Z" fill="#000000" fill-rule="evenodd" fill-opacity="1" /><path clip-path="url(#clip730)" d="M2321.42 590.433 L2337.74 590.433 L2337.74 594.368 L2315.79 594.368 L2315.79 590.433 Q2318.45 587.678 2323.04 583.048 Q2327.64 578.396 2328.82 577.053 Q2331.07 574.53 2331.95 572.794 Q2332.85 571.035 2332.85 569.345 Q2332.85 566.59 2330.91 564.854 Q2328.99 563.118 2325.88 563.118 Q2323.69 563.118 2321.23 563.882 Q2318.8 564.646 2316.02 566.197 L2316.02 561.475 Q2318.85 560.34 2321.3 559.762 Q2323.76 559.183 2325.79 559.183 Q2331.16 559.183 2334.36 561.868 Q2337.55 564.553 2337.55 569.044 Q2337.55 571.174 2336.74 573.095 Q2335.95 574.993 2333.85 577.586 Q2333.27 578.257 2330.17 581.474 Q2327.07 584.669 2321.42 590.433 Z" fill="#000000" fill-rule="evenodd" fill-opacity="1" /><path clip-path="url(#clip730)" d="M2357.55 562.887 Q2353.94 562.887 2352.11 566.451 Q2350.31 569.993 2350.31 577.123 Q2350.31 584.229 2352.11 587.794 Q2353.94 591.335 2357.55 591.335 Q2361.19 591.335 2362.99 587.794 Q2364.82 584.229 2364.82 577.123 Q2364.82 569.993 2362.99 566.451 Q2361.19 562.887 2357.55 562.887 M2357.55 559.183 Q2363.36 559.183 2366.42 563.789 Q2369.5 568.373 2369.5 577.123 Q2369.5 585.849 2366.42 590.456 Q2363.36 595.039 2357.55 595.039 Q2351.74 595.039 2348.66 590.456 Q2345.61 585.849 2345.61 577.123 Q2345.61 568.373 2348.66 563.789 Q2351.74 559.183 2357.55 559.183 Z" fill="#000000" fill-rule="evenodd" fill-opacity="1" /><path clip-path="url(#clip730)" d="M2387.71 562.887 Q2384.1 562.887 2382.27 566.451 Q2380.47 569.993 2380.47 577.123 Q2380.47 584.229 2382.27 587.794 Q2384.1 591.335 2387.71 591.335 Q2391.35 591.335 2393.15 587.794 Q2394.98 584.229 2394.98 577.123 Q2394.98 569.993 2393.15 566.451 Q2391.35 562.887 2387.71 562.887 M2387.71 559.183 Q2393.52 559.183 2396.58 563.789 Q2399.66 568.373 2399.66 577.123 Q2399.66 585.849 2396.58 590.456 Q2393.52 595.039 2387.71 595.039 Q2381.9 595.039 2378.82 590.456 Q2375.77 585.849 2375.77 577.123 Q2375.77 568.373 2378.82 563.789 Q2381.9 559.183 2387.71 559.183 Z" fill="#000000" fill-rule="evenodd" fill-opacity="1" /><path clip-path="url(#clip730)" d="M2417.88 562.887 Q2414.26 562.887 2412.44 566.451 Q2410.63 569.993 2410.63 577.123 Q2410.63 584.229 2412.44 587.794 Q2414.26 591.335 2417.88 591.335 Q2421.51 591.335 2423.31 587.794 Q2425.14 584.229 2425.14 577.123 Q2425.14 569.993 2423.31 566.451 Q2421.51 562.887 2417.88 562.887 M2417.88 559.183 Q2423.69 559.183 2426.74 563.789 Q2429.82 568.373 2429.82 577.123 Q2429.82 585.849 2426.74 590.456 Q2423.69 595.039 2417.88 595.039 Q2412.07 595.039 2408.99 590.456 Q2405.93 585.849 2405.93 577.123 Q2405.93 568.373 2408.99 563.789 Q2412.07 559.183 2417.88 559.183 Z" fill="#000000" fill-rule="evenodd" fill-opacity="1" /><path clip-path="url(#clip730)" d="M3393.96 575.734 Q3397.32 576.451 3399.19 578.72 Q3401.09 580.988 3401.09 584.322 Q3401.09 589.437 3397.57 592.238 Q3394.05 595.039 3387.57 595.039 Q3385.39 595.039 3383.08 594.599 Q3380.79 594.183 3378.33 593.326 L3378.33 588.812 Q3380.28 589.947 3382.59 590.525 Q3384.91 591.104 3387.43 591.104 Q3391.83 591.104 3394.12 589.368 Q3396.44 587.632 3396.44 584.322 Q3396.44 581.266 3394.28 579.553 Q3392.15 577.817 3388.33 577.817 L3384.31 577.817 L3384.31 573.974 L3388.52 573.974 Q3391.97 573.974 3393.8 572.609 Q3395.63 571.22 3395.63 568.627 Q3395.63 565.965 3393.73 564.553 Q3391.85 563.118 3388.33 563.118 Q3386.41 563.118 3384.21 563.535 Q3382.01 563.951 3379.38 564.831 L3379.38 560.664 Q3382.04 559.924 3384.35 559.553 Q3386.69 559.183 3388.75 559.183 Q3394.07 559.183 3397.18 561.613 Q3400.28 564.021 3400.28 568.141 Q3400.28 571.012 3398.64 573.002 Q3396.99 574.97 3393.96 575.734 Z" fill="#000000" fill-rule="evenodd" fill-opacity="1" /><path clip-path="url(#clip730)" d="M3419.95 562.887 Q3416.34 562.887 3414.51 566.451 Q3412.71 569.993 3412.71 577.123 Q3412.71 584.229 3414.51 587.794 Q3416.34 591.335 3419.95 591.335 Q3423.59 591.335 3425.39 587.794 Q3427.22 584.229 3427.22 577.123 Q3427.22 569.993 3425.39 566.451 Q3423.59 562.887 3419.95 562.887 M3419.95 559.183 Q3425.76 559.183 3428.82 563.789 Q3431.9 568.373 3431.9 577.123 Q3431.9 585.849 3428.82 590.456 Q3425.76 595.039 3419.95 595.039 Q3414.14 595.039 3411.07 590.456 Q3408.01 585.849 3408.01 577.123 Q3408.01 568.373 3411.07 563.789 Q3414.14 559.183 3419.95 559.183 Z" fill="#000000" fill-rule="evenodd" fill-opacity="1" /><path clip-path="url(#clip730)" d="M3450.12 562.887 Q3446.51 562.887 3444.68 566.451 Q3442.87 569.993 3442.87 577.123 Q3442.87 584.229 3444.68 587.794 Q3446.51 591.335 3450.12 591.335 Q3453.75 591.335 3455.56 587.794 Q3457.38 584.229 3457.38 577.123 Q3457.38 569.993 3455.56 566.451 Q3453.75 562.887 3450.12 562.887 M3450.12 559.183 Q3455.93 559.183 3458.98 563.789 Q3462.06 568.373 3462.06 577.123 Q3462.06 585.849 3458.98 590.456 Q3455.93 595.039 3450.12 595.039 Q3444.31 595.039 3441.23 590.456 Q3438.17 585.849 3438.17 577.123 Q3438.17 568.373 3441.23 563.789 Q3444.31 559.183 3450.12 559.183 Z" fill="#000000" fill-rule="evenodd" fill-opacity="1" /><path clip-path="url(#clip730)" d="M3480.28 562.887 Q3476.67 562.887 3474.84 566.451 Q3473.03 569.993 3473.03 577.123 Q3473.03 584.229 3474.84 587.794 Q3476.67 591.335 3480.28 591.335 Q3483.91 591.335 3485.72 587.794 Q3487.55 584.229 3487.55 577.123 Q3487.55 569.993 3485.72 566.451 Q3483.91 562.887 3480.28 562.887 M3480.28 559.183 Q3486.09 559.183 3489.14 563.789 Q3492.22 568.373 3492.22 577.123 Q3492.22 585.849 3489.14 590.456 Q3486.09 595.039 3480.28 595.039 Q3474.47 595.039 3471.39 590.456 Q3468.33 585.849 3468.33 577.123 Q3468.33 568.373 3471.39 563.789 Q3474.47 559.183 3480.28 559.183 Z" fill="#000000" fill-rule="evenodd" fill-opacity="1" /><polyline clip-path="url(#clip732)" style="stroke:#000000; stroke-linecap:round; stroke-linejoin:round; stroke-width:2; stroke-opacity:0.1; fill:none" points="152.696,449.645 3552.76,449.645 "/>
<polyline clip-path="url(#clip732)" style="stroke:#000000; stroke-linecap:round; stroke-linejoin:round; stroke-width:2; stroke-opacity:0.1; fill:none" points="152.696,328.44 3552.76,328.44 "/>
<polyline clip-path="url(#clip732)" style="stroke:#000000; stroke-linecap:round; stroke-linejoin:round; stroke-width:2; stroke-opacity:0.1; fill:none" points="152.696,207.235 3552.76,207.235 "/>
<polyline clip-path="url(#clip732)" style="stroke:#000000; stroke-linecap:round; stroke-linejoin:round; stroke-width:2; stroke-opacity:0.1; fill:none" points="152.696,86.0297 3552.76,86.0297 "/>
<polyline clip-path="url(#clip730)" style="stroke:#000000; stroke-linecap:round; stroke-linejoin:round; stroke-width:4; stroke-opacity:1; fill:none" points="152.696,522.368 152.696,47.2441 "/>
<polyline clip-path="url(#clip730)" style="stroke:#000000; stroke-linecap:round; stroke-linejoin:round; stroke-width:4; stroke-opacity:1; fill:none" points="152.696,449.645 171.593,449.645 "/>
<polyline clip-path="url(#clip730)" style="stroke:#000000; stroke-linecap:round; stroke-linejoin:round; stroke-width:4; stroke-opacity:1; fill:none" points="152.696,328.44 171.593,328.44 "/>
<polyline clip-path="url(#clip730)" style="stroke:#000000; stroke-linecap:round; stroke-linejoin:round; stroke-width:4; stroke-opacity:1; fill:none" points="152.696,207.235 171.593,207.235 "/>
<polyline clip-path="url(#clip730)" style="stroke:#000000; stroke-linecap:round; stroke-linejoin:round; stroke-width:4; stroke-opacity:1; fill:none" points="152.696,86.0297 171.593,86.0297 "/>
<path clip-path="url(#clip730)" d="M77.7929 432.365 L96.1493 432.365 L96.1493 436.3 L82.0753 436.3 L82.0753 444.772 Q83.0938 444.425 84.1123 444.263 Q85.1308 444.078 86.1493 444.078 Q91.9363 444.078 95.3159 447.249 Q98.6955 450.42 98.6955 455.837 Q98.6955 461.416 95.2233 464.517 Q91.7511 467.596 85.4317 467.596 Q83.2558 467.596 80.9873 467.226 Q78.7419 466.855 76.3346 466.115 L76.3346 461.416 Q78.4179 462.55 80.6401 463.105 Q82.8623 463.661 85.3391 463.661 Q89.3437 463.661 91.6817 461.555 Q94.0196 459.448 94.0196 455.837 Q94.0196 452.226 91.6817 450.119 Q89.3437 448.013 85.3391 448.013 Q83.4641 448.013 81.5892 448.43 Q79.7373 448.846 77.7929 449.726 L77.7929 432.365 Z" fill="#000000" fill-rule="evenodd" fill-opacity="1" /><path clip-path="url(#clip730)" d="M47.3995 341.785 L55.0384 341.785 L55.0384 315.419 L46.7282 317.086 L46.7282 312.826 L54.9921 311.16 L59.668 311.16 L59.668 341.785 L67.3068 341.785 L67.3068 345.72 L47.3995 345.72 L47.3995 341.785 Z" fill="#000000" fill-rule="evenodd" fill-opacity="1" /><path clip-path="url(#clip730)" d="M86.7512 314.238 Q83.1401 314.238 81.3114 317.803 Q79.5058 321.345 79.5058 328.475 Q79.5058 335.581 81.3114 339.146 Q83.1401 342.687 86.7512 342.687 Q90.3854 342.687 92.1909 339.146 Q94.0196 335.581 94.0196 328.475 Q94.0196 321.345 92.1909 317.803 Q90.3854 314.238 86.7512 314.238 M86.7512 310.535 Q92.5613 310.535 95.6169 315.141 Q98.6955 319.725 98.6955 328.475 Q98.6955 337.201 95.6169 341.808 Q92.5613 346.391 86.7512 346.391 Q80.941 346.391 77.8623 341.808 Q74.8068 337.201 74.8068 328.475 Q74.8068 319.725 77.8623 315.141 Q80.941 310.535 86.7512 310.535 Z" fill="#000000" fill-rule="evenodd" fill-opacity="1" /><path clip-path="url(#clip730)" d="M48.3949 220.58 L56.0337 220.58 L56.0337 194.214 L47.7236 195.881 L47.7236 191.621 L55.9874 189.955 L60.6633 189.955 L60.6633 220.58 L68.3022 220.58 L68.3022 224.515 L48.3949 224.515 L48.3949 220.58 Z" fill="#000000" fill-rule="evenodd" fill-opacity="1" /><path clip-path="url(#clip730)" d="M77.7929 189.955 L96.1493 189.955 L96.1493 193.89 L82.0753 193.89 L82.0753 202.362 Q83.0938 202.015 84.1123 201.853 Q85.1308 201.668 86.1493 201.668 Q91.9363 201.668 95.3159 204.839 Q98.6955 208.01 98.6955 213.427 Q98.6955 219.006 95.2233 222.107 Q91.7511 225.186 85.4317 225.186 Q83.2558 225.186 80.9873 224.816 Q78.7419 224.445 76.3346 223.705 L76.3346 219.006 Q78.4179 220.14 80.6401 220.695 Q82.8623 221.251 85.3391 221.251 Q89.3437 221.251 91.6817 219.144 Q94.0196 217.038 94.0196 213.427 Q94.0196 209.816 91.6817 207.709 Q89.3437 205.603 85.3391 205.603 Q83.4641 205.603 81.5892 206.019 Q79.7373 206.436 77.7929 207.316 L77.7929 189.955 Z" fill="#000000" fill-rule="evenodd" fill-opacity="1" /><path clip-path="url(#clip730)" d="M50.6171 99.3745 L66.9365 99.3745 L66.9365 103.31 L44.9921 103.31 L44.9921 99.3745 Q47.6541 96.6199 52.2375 91.9903 Q56.8439 87.3376 58.0245 85.995 Q60.2698 83.4719 61.1494 81.7358 Q62.0522 79.9765 62.0522 78.2867 Q62.0522 75.5321 60.1078 73.796 Q58.1865 72.0599 55.0847 72.0599 Q52.8856 72.0599 50.4319 72.8238 Q48.0014 73.5876 45.2236 75.1386 L45.2236 70.4164 Q48.0477 69.2821 50.5014 68.7034 Q52.955 68.1247 54.9921 68.1247 Q60.3624 68.1247 63.5568 70.8099 Q66.7513 73.4951 66.7513 77.9858 Q66.7513 80.1154 65.9411 82.0367 Q65.1541 83.9348 63.0476 86.5274 Q62.4689 87.1987 59.367 90.4163 Q56.2652 93.6107 50.6171 99.3745 Z" fill="#000000" fill-rule="evenodd" fill-opacity="1" /><path clip-path="url(#clip730)" d="M86.7512 71.8284 Q83.1401 71.8284 81.3114 75.3932 Q79.5058 78.9348 79.5058 86.0644 Q79.5058 93.1709 81.3114 96.7357 Q83.1401 100.277 86.7512 100.277 Q90.3854 100.277 92.1909 96.7357 Q94.0196 93.1709 94.0196 86.0644 Q94.0196 78.9348 92.1909 75.3932 Q90.3854 71.8284 86.7512 71.8284 M86.7512 68.1247 Q92.5613 68.1247 95.6169 72.7312 Q98.6955 77.3145 98.6955 86.0644 Q98.6955 94.7912 95.6169 99.3977 Q92.5613 103.981 86.7512 103.981 Q80.941 103.981 77.8623 99.3977 Q74.8068 94.7912 74.8068 86.0644 Q74.8068 77.3145 77.8623 72.7312 Q80.941 68.1247 86.7512 68.1247 Z" fill="#000000" fill-rule="evenodd" fill-opacity="1" /><polyline clip-path="url(#clip732)" style="stroke:#009af9; stroke-linecap:round; stroke-linejoin:round; stroke-width:2; stroke-opacity:1; fill:none" points="248.924,331.363 249.986,342.53 251.049,335.796 252.111,413.881 253.174,307.759 254.236,321.115 255.298,404.9 256.361,324.498 257.423,330.939 258.486,339.669 259.548,356.433 260.611,361.38 261.673,515.23 262.736,322.376 263.798,321.782 264.861,417.599 265.923,319.34 266.986,378.621 268.048,324.092 269.111,315.72 270.173,455.53 271.236,321.153 272.298,387.516 273.361,352.202 274.423,486.128 275.485,371.897 276.548,345.39 277.61,324.084 278.673,117.789 279.735,117.61 280.798,110.212 281.86,118.833 282.923,131.36 283.985,135.361 285.048,141.28 286.11,123.475 287.173,141.931 288.235,141.664 289.298,150.279 290.36,137.808 291.423,127.057 292.485,126.709 293.548,156.336 294.61,146.358 295.672,136.362 296.735,144.985 297.797,129.17 298.86,119.67 299.922,129.703 300.985,135.696 302.047,350.405 303.11,338.248 304.172,327.434 305.235,495.76 306.297,322.869 307.36,448.322 308.422,339.008 309.485,322.319 310.547,329.731 311.61,335.648 312.672,410.591 313.734,319.93 314.797,320.53 315.859,112.202 316.922,112.497 317.984,137.771 319.047,135.493 320.109,129.311 321.172,122.343 322.234,145.291 323.297,139.495 324.359,128.777 325.422,126.848 326.484,131.713 327.547,124.449 328.609,145.094 329.672,152.373 330.734,113.076 331.797,130.226 332.859,149.088 333.921,152.232 334.984,166.304 336.046,156.042 337.109,130.254 338.171,139.688 339.234,144.778 340.296,145.943 341.359,109.686 342.421,114.454 343.484,122.012 344.546,145.258 345.609,139.17 346.671,145.737 347.734,142.226 348.796,145.023 349.859,130.101 350.921,133.861 351.983,150.291 353.046,105.887 354.108,128.887 355.171,124.422 356.233,124.875 357.296,130.064 358.358,140.881 359.421,141.222 360.483,153.441 361.546,150.137 362.608,144.372 363.671,139.177 364.733,126.191 365.796,155.662 366.858,123.266 367.921,125.379 368.983,139.18 370.046,135.192 371.108,113.743 372.17,146.682 373.233,131.738 374.295,157.038 375.358,157.516 376.42,149.667 377.483,137.748 378.545,331.197 379.608,343.907 380.67,492.299 381.733,328.354 382.795,337.575 383.858,343.248 384.92,345.584 385.983,338.14 387.045,343.81 388.108,323.131 389.17,355.968 390.232,373.306 391.295,335.774 392.357,459.265 393.42,461.987 394.482,454.222 395.545,375.208 396.607,325.959 397.67,520.412 398.732,427.007 399.795,446.492 400.857,400.583 401.92,346.467 402.982,322.262 404.045,491.636 405.107,356.067 406.17,410.61 407.232,335.035 408.295,362.145 409.357,322.546 410.419,491.622 411.482,534.007 412.544,447.869 413.607,315.928 414.669,319.248 415.732,492.124 416.794,306.706 417.857,419.668 418.919,322.911 419.982,473.671 421.044,408.101 422.107,317.354 423.169,442.455 424.232,321.881 425.294,306.684 426.357,399.838 427.419,327.94 428.481,326.471 429.544,488.812 430.606,434.71 431.669,403.478 432.731,342.747 433.794,347.279 434.856,323.505 435.919,375.743 436.981,338.503 438.044,319.569 439.106,314.19 440.169,422.724 441.231,483.737 442.294,388.618 443.356,314.517 444.419,332.982 445.481,338.05 446.544,321.945 447.606,512.99 448.668,465.289 449.731,348.312 450.793,321.562 451.856,332.864 452.918,345.932 453.981,367.546 455.043,335.612 456.106,434.693 457.168,321.715 458.231,320.768 459.293,144.386 460.356,144.578 461.418,148.565 462.481,111.365 463.543,141.449 464.606,132.542 465.668,137.748 466.731,133.63 467.793,132.454 468.855,131.186 469.918,134.242 470.98,136.683 472.043,150.662 473.105,151.214 474.168,162.995 475.23,154.347 476.293,126.334 477.355,135.426 478.418,144.842 479.48,163.785 480.543,158.606 481.605,131.156 482.668,141.757 483.73,138.312 484.793,123.55 485.855,124.046 486.917,136.823 487.98,133.846 489.042,146.952 490.105,139.108 491.167,138.496 492.23,130.567 493.292,130.166 494.355,140.332 495.417,125.303 496.48,123.705 497.542,123.45 498.605,144.629 499.667,132.644 500.73,115.736 501.792,106.508 502.855,102.073 503.917,359.916 504.98,144.103 506.042,137.208 507.104,141.84 508.167,131.486 509.229,130.224 510.292,134.161 511.354,121.96 512.417,137.832 513.479,140.213 514.542,127.587 515.604,129.111 516.667,134.03 517.729,133.445 518.792,145.677 519.854,130.583 520.917,142.791 521.979,149.823 523.042,146.064 524.104,130.185 525.166,136.468 526.229,134.537 527.291,143.097 528.354,135.815 529.416,125.563 530.479,134.364 531.541,124.798 532.604,310.415 533.666,324.076 534.729,329.136 535.791,323.444 536.854,325.8 537.916,323.923 538.979,414.94 540.041,335.01 541.104,335.931 542.166,460.688 543.229,452.251 544.291,484.852 545.353,317.879 546.416,322.073 547.478,519.127 548.541,505.106 549.603,391.139 550.666,320.658 551.728,300.752 552.791,425.604 553.853,394.073 554.916,428.318 555.978,329.705 557.041,327.988 558.103,326.557 559.166,338.94 560.228,312.417 561.291,378.884 562.353,331.15 563.415,337.979 564.478,393.744 565.54,341.587 566.603,345.02 567.665,340.431 568.728,339.697 569.79,367.519 570.853,329.528 571.915,431.223 572.978,330.457 574.04,499.272 575.103,414.094 576.165,431.972 577.228,124.445 578.29,125.169 579.353,141.273 580.415,141.816 581.478,124.436 582.54,308.5 583.602,435.742 584.665,453.91 585.727,331.864 586.79,323.221 587.852,468.61 588.915,488.845 589.977,437.325 591.04,427.46 592.102,341.729 593.165,357.958 594.227,456.48 595.29,333.59 596.352,317.373 597.415,330.679 598.477,330.04 599.54,431.972 600.602,325.59 601.664,503.332 602.727,514.822 603.789,314.564 604.852,308.4 605.914,460.756 606.977,310.706 608.039,311.825 609.102,317.198 610.164,421.577 611.227,505.654 612.289,315.169 613.352,335.054 614.414,343.631 615.477,313.145 616.539,342.558 617.602,429.289 618.664,512.105 619.727,492.114 620.789,326.03 621.851,334.101 622.914,427.3 623.976,481.611 625.039,310.28 626.101,435.642 627.164,499.692 628.226,367.262 629.289,329.325 630.351,508.731 631.414,332.985 632.476,324.095 633.539,333.862 634.601,360.814 635.664,479.886 636.726,428.29 637.789,316.712 638.851,331.797 639.914,338.547 640.976,459.93 642.038,315.08 643.101,334.985 644.163,486.497 645.226,467.096 646.288,319.522 647.351,465.903 648.413,486.656 649.476,314.722 650.538,341.255 651.601,448.24 652.663,468.775 653.726,325.605 654.788,334.204 655.851,413.989 656.913,508.861 657.976,325.906 659.038,435.215 660.1,319.499 661.163,474.58 662.225,461.203 663.288,391.162 664.35,364.021 665.413,308.369 666.475,517.113 667.538,323.114 668.6,322.44 669.663,331.96 670.725,330.052 671.788,320.303 672.85,426.969 673.913,370.512 674.975,407.535 676.038,311.047 677.1,486.141 678.163,355.736 679.225,338.618 680.287,363.448 681.35,395.731 682.412,352.841 683.475,335.656 684.537,332.108 685.6,325.004 686.662,337.257 687.725,330.223 688.787,327.132 689.85,499.506 690.912,371.479 691.975,447.773 693.037,502.354 694.1,332.14 695.162,341.354 696.225,337.602 697.287,439.92 698.349,329.723 699.412,355.592 700.474,470.739 701.537,370.353 702.599,359.28 703.662,324.684 704.724,322.803 705.787,394.082 706.849,425.584 707.912,320.45 708.974,398.687 710.037,335.885 711.099,335.46 712.162,525.69 713.224,329.786 714.287,361.412 715.349,322.255 716.412,327.533 717.474,319.984 718.536,336.676 719.599,391.329 720.661,396.69 721.724,341.307 722.786,343.336 723.849,352.645 724.911,506.109 725.974,511.558 727.036,444.409 728.099,306.771 729.161,106.06 730.224,135.763 731.286,132.665 732.349,122.731 733.411,126.956 734.474,129.848 735.536,130.02 736.598,142.727 737.661,147.214 738.723,148.858 739.786,151.313 740.848,144.465 741.911,144.516 742.973,132.307 744.036,141.111 745.098,141.774 746.161,130.844 747.223,127.902 748.286,129.13 749.348,137.067 750.411,130.993 751.473,133.238 752.536,131.206 753.598,141.637 754.661,125.914 755.723,140.962 756.785,129.027 757.848,128.011 758.91,147.007 759.973,136.853 761.035,124.546 762.098,137.379 763.16,128.623 764.223,136.691 765.285,129.699 766.348,148.42 767.41,146.959 768.473,143.799 769.535,148.2 770.598,133.679 771.66,135.096 772.723,132.463 773.785,148.291 774.847,117.036 775.91,139.225 776.972,113.663 778.035,135.665 779.097,130.832 780.16,130.904 781.222,157.554 782.285,156.677 783.347,136.585 784.41,133.73 785.472,123.696 786.535,130.369 787.597,129.858 788.66,125.772 789.722,134.926 790.785,148.929 791.847,141.172 792.91,139.445 793.972,134.686 795.034,128.513 796.097,128.992 797.159,145.532 798.222,139.907 799.284,130.306 800.347,142.551 801.409,133.558 802.472,134.162 803.534,114.838 804.597,120.701 805.659,147.891 806.722,120.033 807.784,147.125 808.847,125.652 809.909,138.719 810.972,128.906 812.034,135.986 813.096,123.06 814.159,135.85 815.221,116.591 816.284,128.556 817.346,145.218 818.409,144.819 819.471,119.244 820.534,140.717 821.596,138.053 822.659,130.842 823.721,125.385 824.784,143.406 825.846,159.948 826.909,117.887 827.971,111.236 829.034,135.406 830.096,140.726 831.159,146.368 832.221,126.589 833.283,139.953 834.346,144.588 835.408,144.132 836.471,136.117 837.533,136.256 838.596,132.532 839.658,135.213 840.721,143.412 841.783,138.299 842.846,139.853 843.908,137.522 844.971,110.06 846.033,120.159 847.096,160.502 848.158,135.45 849.221,148.768 850.283,131.579 851.346,126.22 852.408,120.12 853.47,134.193 854.533,132.618 855.595,140.25 856.658,157.898 857.72,155.394 858.783,162.672 859.845,159.21 860.908,136.799 861.97,114.867 863.033,122.169 864.095,131.994 865.158,131.043 866.22,137.327 867.283,135.744 868.345,147.253 869.408,158.189 870.47,141.805 871.532,138.827 872.595,129.162 873.657,125.154 874.72,134.764 875.782,142.72 876.845,138.098 877.907,132.683 878.97,131.665 880.032,142.189 881.095,134.51 882.157,130.04 883.22,116.753 884.282,118.352 885.345,130.848 886.407,132.041 887.47,133.632 888.532,313.379 889.595,318.5 890.657,373.726 891.719,312.367 892.782,336.752 893.844,318.679 894.907,383.449 895.969,373.173 897.032,356.441 898.094,323.648 899.157,328.466 900.219,326.754 901.282,409.126 902.344,323.375 903.407,327.683 904.469,311.587 905.532,482.509 906.594,329.157 907.657,330.357 908.719,455.915 909.781,117.411 910.844,110.046 911.906,109.693 912.969,155.275 914.031,144.694 915.094,128.994 916.156,132.364 917.219,129.416 918.281,156.423 919.344,131.483 920.406,141.178 921.469,126.411 922.531,128.877 923.594,132.107 924.656,142.062 925.719,154.489 926.781,125.802 927.844,139.861 928.906,129.258 929.968,120.277 931.031,117.942 932.093,123.301 933.156,138.94 934.218,130.743 935.281,140.3 936.343,122.225 937.406,132.705 938.468,130.353 939.531,117.816 940.593,135.55 941.656,149.139 942.718,141.754 943.781,152.239 944.843,145.632 945.906,132.136 946.968,312.61 948.03,302.363 949.093,323.258 950.155,449.849 951.218,536.894 952.28,395.141 953.343,377.029 954.405,337.731 955.468,515.388 956.53,375.112 957.593,317.373 958.655,339.08 959.718,398.229 960.78,323.744 961.843,406.572 962.905,348.941 963.968,327.846 965.03,324.818 966.093,326.619 967.155,328.767 968.217,328.338 969.28,330.44 970.342,315.222 971.405,322.566 972.467,344.339 973.53,508.447 974.592,366.073 975.655,307.815 976.717,424.006 977.78,353.052 978.842,375.975 979.905,462.629 980.967,405.823 982.03,333.581 983.092,505.3 984.155,450.41 985.217,350.59 986.279,414.521 987.342,418.201 988.404,437.551 989.467,352.495 990.529,476.622 991.592,341.171 992.654,311.16 993.717,384.623 994.779,457.01 995.842,425.833 996.904,328.748 997.967,334.261 999.029,444.74 1000.09,322.656 1001.15,408.107 1002.22,320.161 1003.28,308.835 1004.34,475.395 1005.4,353.133 1006.47,377.909 1007.53,368.031 1008.59,441.837 1009.65,329.822 1010.72,396.281 1011.78,326.389 1012.84,328.565 1013.9,406.236 1014.97,150.797 1016.03,123.15 1017.09,142.602 1018.15,111.436 1019.22,116.936 1020.28,132.366 1021.34,135.79 1022.4,128.031 1023.47,136.771 1024.53,141.493 1025.59,136.72 1026.65,152.036 1027.72,126.526 1028.78,137.934 1029.84,121.992 1030.9,150.147 1031.97,148.888 1033.03,140.971 1034.09,149.278 1035.15,150.315 1036.22,149.376 1037.28,134.703 1038.34,128.438 1039.4,130.514 1040.47,132.59 1041.53,128.168 1042.59,138.096 1043.65,130.783 1044.72,129.575 1045.78,134.947 1046.84,134.895 1047.9,141.164 1048.97,126.01 1050.03,141.961 1051.09,123.821 1052.15,148.131 1053.22,151.073 1054.28,114.831 1055.34,124.961 1056.4,136.251 1057.47,138.708 1058.53,122.414 1059.59,109.776 1060.65,156.701 1061.72,118.099 1062.78,150.613 1063.84,129.672 1064.9,152.088 1065.96,146.6 1067.03,148.932 1068.09,140.917 1069.15,139.877 1070.21,139.306 1071.28,149.557 1072.34,146.792 1073.4,148.588 1074.46,145.172 1075.53,133.618 1076.59,122.765 1077.65,137.08 1078.71,141.315 1079.78,118.127 1080.84,162.085 1081.9,124.514 1082.96,130.823 1084.03,139.423 1085.09,126.842 1086.15,117.81 1087.21,151.015 1088.28,140.964 1089.34,141.811 1090.4,137.918 1091.46,122.813 1092.53,130.954 1093.59,139.589 1094.65,136.64 1095.71,126.868 1096.78,120.902 1097.84,154.87 1098.9,160.985 1099.96,168.56 1101.03,132.045 1102.09,129.515 1103.15,137.466 1104.21,133.68 1105.28,136.258 1106.34,128.784 1107.4,127.354 1108.46,149.242 1109.53,120.665 1110.59,120.471 1111.65,132.882 1112.71,134.619 1113.78,141.441 1114.84,113.779 1115.9,158.119 1116.96,129.873 1118.03,149.184 1119.09,126.183 1120.15,142.68 1121.21,143.107 1122.28,137.69 1123.34,135.672 1124.4,135.104 1125.46,139.819 1126.53,136.11 1127.59,126.909 1128.65,128.964 1129.71,140.898 1130.78,125.93 1131.84,141.616 1132.9,133.648 1133.96,129.671 1135.03,136.313 1136.09,134.97 1137.15,133.044 1138.21,122.351 1139.28,120.149 1140.34,129.774 1141.4,153.182 1142.46,158.477 1143.53,161.617 1144.59,161.722 1145.65,123.247 1146.71,135.875 1147.78,142.348 1148.84,126.155 1149.9,139.673 1150.96,133.137 1152.03,118.153 1153.09,104.13 1154.15,112.887 1155.21,134.647 1156.28,143.182 1157.34,428.859 1158.4,309.326 1159.46,431.691 1160.52,489.887 1161.59,317.758 1162.65,319.164 1163.71,329.918 1164.77,322.766 1165.84,463.362 1166.9,452.725 1167.96,318.566 1169.02,315.257 1170.09,318.665 1171.15,478.814 1172.21,325.015 1173.27,488.559 1174.34,473.529 1175.4,326.504 1176.46,450.229 1177.52,362.999 1178.59,455.573 1179.65,332.483 1180.71,421.206 1181.77,412.208 1182.84,385.415 1183.9,470.266 1184.96,334.713 1186.02,143.535 1187.09,125.724 1188.15,142.444 1189.21,137.63 1190.27,142.077 1191.34,120.809 1192.4,142.419 1193.46,140.322 1194.52,140.072 1195.59,119.782 1196.65,129.979 1197.71,130.668 1198.77,131.123 1199.84,104.125 1200.9,121.955 1201.96,118.092 1203.02,159.838 1204.09,137.646 1205.15,133.017 1206.21,152.509 1207.27,132.421 1208.34,135.657 1209.4,120.768 1210.46,116.894 1211.52,133.003 1212.59,132.347 1213.65,141.004 1214.71,122.272 1215.77,121.981 1216.84,137.02 1217.9,130.129 1218.96,122.484 1220.02,121.254 1221.09,110.835 1222.15,120.416 1223.21,127.588 1224.27,130.922 1225.34,147.506 1226.4,146.166 1227.46,136.948 1228.52,134.223 1229.59,123.692 1230.65,118.341 1231.71,114.865 1232.77,152.087 1233.84,105.998 1234.9,125.347 1235.96,122.258 1237.02,138.718 1238.09,161.923 1239.15,159.21 1240.21,132.595 1241.27,141.145 1242.34,150.695 1243.4,146.859 1244.46,137.389 1245.52,125.858 1246.59,135.427 1247.65,147.955 1248.71,155.188 1249.77,129.415 1250.84,137.811 1251.9,133.753 1252.96,126.386 1254.02,134.552 1255.09,149.151 1256.15,116.497 1257.21,128.032 1258.27,143.327 1259.33,145.317 1260.4,128.044 1261.46,134.273 1262.52,137.098 1263.58,132.128 1264.65,139.51 1265.71,150.319 1266.77,153.401 1267.83,153.118 1268.9,123.625 1269.96,134.94 1271.02,134.159 1272.08,127.867 1273.15,142.215 1274.21,125.723 1275.27,124.821 1276.33,135.463 1277.4,134.622 1278.46,136.075 1279.52,141.665 1280.58,118.667 1281.65,120.744 1282.71,123.655 1283.77,137.93 1284.83,136.767 1285.9,119.58 1286.96,127.404 1288.02,126.016 1289.08,116.076 1290.15,131.015 1291.21,141.009 1292.27,131.37 1293.33,124.079 1294.4,137.299 1295.46,116.27 1296.52,115.641 1297.58,135.301 1298.65,123.275 1299.71,139.681 1300.77,128.718 1301.83,150.273 1302.9,146.669 1303.96,126.378 1305.02,102.939 1306.08,178.067 1307.15,307.025 1308.21,460.443 1309.27,348.043 1310.33,376.648 1311.4,339.485 1312.46,331.126 1313.52,341.145 1314.58,308.829 1315.65,446.055 1316.71,95.9543 1317.77,113.636 1318.83,122.571 1319.9,138.919 1320.96,142.381 1322.02,137.103 1323.08,149.607 1324.15,158.494 1325.21,146.852 1326.27,140.036 1327.33,130.639 1328.4,130.43 1329.46,122.02 1330.52,143.015 1331.58,146.076 1332.65,160.837 1333.71,111.768 1334.77,156.158 1335.83,515.385 1336.9,410.365 1337.96,334.009 1339.02,328.839 1340.08,358.603 1341.15,454.633 1342.21,357.188 1343.27,329.079 1344.33,331.946 1345.4,511.748 1346.46,324.694 1347.52,315.559 1348.58,315.974 1349.65,415.226 1350.71,337.314 1351.77,322.375 1352.83,475.011 1353.89,462.955 1354.96,322.854 1356.02,457.102 1357.08,309.576 1358.14,356.995 1359.21,338.319 1360.27,473.261 1361.33,339.525 1362.39,334.808 1363.46,430.814 1364.52,330.891 1365.58,399.853 1366.64,311.041 1367.71,138.484 1368.77,136.165 1369.83,143.078 1370.89,125.598 1371.96,110.32 1373.02,385.014 1374.08,293.363 1375.14,503.233 1376.21,368.882 1377.27,396.096 1378.33,394.943 1379.39,416.485 1380.46,332.618 1381.52,488.84 1382.58,390.028 1383.64,414.939 1384.71,422.253 1385.77,467.463 1386.83,544.112 1387.89,490.474 1388.96,507.023 1390.02,326.045 1391.08,468.207 1392.14,400.895 1393.21,515.695 1394.27,514.942 1395.33,331.382 1396.39,339.231 1397.46,337.757 1398.52,374.3 1399.58,394.923 1400.64,351.515 1401.71,352.227 1402.77,436.585 1403.83,330.893 1404.89,443.647 1405.96,473.399 1407.02,299.876 1408.08,312.755 1409.14,314.888 1410.21,419.935 1411.27,339.9 1412.33,440.034 1413.39,343.252 1414.46,328.538 1415.52,447.999 1416.58,326.088 1417.64,326.438 1418.71,341.16 1419.77,383.841 1420.83,322.927 1421.89,512.37 1422.96,342.549 1424.02,342.871 1425.08,444.7 1426.14,339.38 1427.21,346.074 1428.27,322.478 1429.33,326.539 1430.39,388.615 1431.46,504.214 1432.52,326.997 1433.58,323.071 1434.64,366.102 1435.71,329.829 1436.77,446.678 1437.83,337.622 1438.89,346.101 1439.96,434.755 1441.02,336.952 1442.08,378.252 1443.14,323.72 1444.21,340.452 1445.27,329.326 1446.33,445.76 1447.39,475.014 1448.45,333.56 1449.52,331.545 1450.58,403.061 1451.64,466.716 1452.7,353.563 1453.77,327.22 1454.83,329.145 1455.89,372.098 1456.95,322.889 1458.02,311.962 1459.08,511.117 1460.14,494.654 1461.2,440.235 1462.27,316.754 1463.33,480.062 1464.39,332.472 1465.45,399.427 1466.52,323.493 1467.58,337.514 1468.64,425.834 1469.7,324.602 1470.77,465.25 1471.83,318.882 1472.89,425.657 1473.95,532.105 1475.02,376.535 1476.08,424.412 1477.14,309.78 1478.2,312.701 1479.27,310.033 1480.33,320.644 1481.39,332.833 1482.45,406.812 1483.52,339.048 1484.58,334.079 1485.64,334.218 1486.7,317.134 1487.77,360.442 1488.83,323.695 1489.89,328.044 1490.95,326.242 1492.02,432.431 1493.08,437.998 1494.14,324.71 1495.2,326.504 1496.27,325.052 1497.33,316.919 1498.39,428.822 1499.45,400.103 1500.52,322.606 1501.58,311.051 1502.64,340.717 1503.7,474.128 1504.77,480.025 1505.83,321.99 1506.89,327.358 1507.95,319.912 1509.02,335.385 1510.08,385.566 1511.14,467.518 1512.2,321.064 1513.27,314 1514.33,151.636 1515.39,109.006 1516.45,120.891 1517.52,123.867 1518.58,142.8 1519.64,139.202 1520.7,137.664 1521.77,135.866 1522.83,135.394 1523.89,113.647 1524.95,139.92 1526.02,120.574 1527.08,145.79 1528.14,128.645 1529.2,104.354 1530.27,110.663 1531.33,121.117 1532.39,128.183 1533.45,142.99 1534.52,116.787 1535.58,128.79 1536.64,136.572 1537.7,124.184 1538.77,132.191 1539.83,131.371 1540.89,132.469 1541.95,148.164 1543.02,121.656 1544.08,136.034 1545.14,129.671 1546.2,140.735 1547.26,147.25 1548.33,128.125 1549.39,128.673 1550.45,138.871 1551.51,130.469 1552.58,123.596 1553.64,119.1 1554.7,128.211 1555.76,139.387 1556.83,142.254 1557.89,122.549 1558.95,121.246 1560.01,120.068 1561.08,119.733 1562.14,146.893 1563.2,130.509 1564.26,143.554 1565.33,125.408 1566.39,125.975 1567.45,154.939 1568.51,143.474 1569.58,140.945 1570.64,134.035 1571.7,137.137 1572.76,138.985 1573.83,134.521 1574.89,140.924 1575.95,131.814 1577.01,131.75 1578.08,145.762 1579.14,116.24 1580.2,143.14 1581.26,129.38 1582.33,121.687 1583.39,123.88 1584.45,140.253 1585.51,144.203 1586.58,124.603 1587.64,137.611 1588.7,147.636 1589.76,125.807 1590.83,142.573 1591.89,121.188 1592.95,122.666 1594.01,123.807 1595.08,140.065 1596.14,140.489 1597.2,143.954 1598.26,134.178 1599.33,132.105 1600.39,126.441 1601.45,121.544 1602.51,146.486 1603.58,133.932 1604.64,127.011 1605.7,140.698 1606.76,122.295 1607.83,116.453 1608.89,107.138 1609.95,100.978 1611.01,363.303 1612.08,348.653 1613.14,484.794 1614.2,329.678 1615.26,329.543 1616.33,437.635 1617.39,324.955 1618.45,319.788 1619.51,345.069 1620.58,316.472 1621.64,333.707 1622.7,470.758 1623.76,325.94 1624.83,388.082 1625.89,501.687 1626.95,328.707 1628.01,431.324 1629.08,330.289 1630.14,339.374 1631.2,322.509 1632.26,333.647 1633.33,467.681 1634.39,454.33 1635.45,342.321 1636.51,360.264 1637.58,326.694 1638.64,500.404 1639.7,477.85 1640.76,326.507 1641.82,480.922 1642.89,336.215 1643.95,320.162 1645.01,504.662 1646.07,319.036 1647.14,467.829 1648.2,338.04 1649.26,331.89 1650.32,329.958 1651.39,328.864 1652.45,317.847 1653.51,490.444 1654.57,335.495 1655.64,340.654 1656.7,348.649 1657.76,324.403 1658.82,392.576 1659.89,318.954 1660.95,321.939 1662.01,442.386 1663.07,320.079 1664.14,348.242 1665.2,332.636 1666.26,365.68 1667.32,323.203 1668.39,460.479 1669.45,328.272 1670.51,332.793 1671.57,314.265 1672.64,314.661 1673.7,396.04 1674.76,381.851 1675.82,294.817 1676.89,447.514 1677.95,332.507 1679.01,467.571 1680.07,341.268 1681.14,365.587 1682.2,126.536 1683.26,137.79 1684.32,141.553 1685.39,147.943 1686.45,129.868 1687.51,137.986 1688.57,136.06 1689.64,137.781 1690.7,130.747 1691.76,147.996 1692.82,128.24 1693.89,148.11 1694.95,151.63 1696.01,122.393 1697.07,133.296 1698.14,140.533 1699.2,114.133 1700.26,146.804 1701.32,112.623 1702.39,132.603 1703.45,135.563 1704.51,142.495 1705.57,135.095 1706.64,138.406 1707.7,137.5 1708.76,122.415 1709.82,139.712 1710.89,130.68 1711.95,136.782 1713.01,134.536 1714.07,134.035 1715.14,137.352 1716.2,127.202 1717.26,143.705 1718.32,115.119 1719.39,112.305 1720.45,119.44 1721.51,137.513 1722.57,150.319 1723.64,146.504 1724.7,138.033 1725.76,129.55 1726.82,137.159 1727.89,124.045 1728.95,114.307 1730.01,139.032 1731.07,123.809 1732.14,142.478 1733.2,146.37 1734.26,132.795 1735.32,137.38 1736.38,149.071 1737.45,136.742 1738.51,131.506 1739.57,129.786 1740.63,144.704 1741.7,152.313 1742.76,149.62 1743.82,156.811 1744.88,143.451 1745.95,147.036 1747.01,137.519 1748.07,133.994 1749.13,136.861 1750.2,130.479 1751.26,122.66 1752.32,131.12 1753.38,136.671 1754.45,140.526 1755.51,143.205 1756.57,142.784 1757.63,141.074 1758.7,135.178 1759.76,119.503 1760.82,138.768 1761.88,134.705 1762.95,147.092 1764.01,140.86 1765.07,105.238 1766.13,147.232 1767.2,151.479 1768.26,131.777 1769.32,137.283 1770.38,138.524 1771.45,142.196 1772.51,132.544 1773.57,129.889 1774.63,136.963 1775.7,134.72 1776.76,130.281 1777.82,145.477 1778.88,149.347 1779.95,140.825 1781.01,128.063 1782.07,125.503 1783.13,131.367 1784.2,131.65 1785.26,141.177 1786.32,145.959 1787.38,114.472 1788.45,151.899 1789.51,147.49 1790.57,136.812 1791.63,127.178 1792.7,134.614 1793.76,118.621 1794.82,147.891 1795.88,153.528 1796.95,110.573 1798.01,149.269 1799.07,144.573 1800.13,151.454 1801.2,135.931 1802.26,131.469 1803.32,131.447 1804.38,130.015 1805.45,147.728 1806.51,122.269 1807.57,121.925 1808.63,135.656 1809.7,149.37 1810.76,122.241 1811.82,103.533 1812.88,325.25 1813.95,483.754 1815.01,346.817 1816.07,336.882 1817.13,347.683 1818.2,358.591 1819.26,331.441 1820.32,467.908 1821.38,317.775 1822.45,308.316 1823.51,496.974 1824.57,328.757 1825.63,321.658 1826.7,322.207 1827.76,322.845 1828.82,339.953 1829.88,335.977 1830.95,325.731 1832.01,450.703 1833.07,317.042 1834.13,332.952 1835.19,316.98 1836.26,463.25 1837.32,316.958 1838.38,331.711 1839.44,327.369 1840.51,370.306 1841.57,398.773 1842.63,331.054 1843.69,478.545 1844.76,344.517 1845.82,429.851 1846.88,336.069 1847.94,327.564 1849.01,384.06 1850.07,366.054 1851.13,508.065 1852.19,327.395 1853.26,412.527 1854.32,337.72 1855.38,330.612 1856.44,423.865 1857.51,316.567 1858.57,320.032 1859.63,318.552 1860.69,314.295 1861.76,440.848 1862.82,428.856 1863.88,345.488 1864.94,397.849 1866.01,445.412 1867.07,371.525 1868.13,321.217 1869.19,330.761 1870.26,301.059 1871.32,394.007 1872.38,325.354 1873.44,398.979 1874.51,309.687 1875.57,457.169 1876.63,332.982 1877.69,506.677 1878.76,422.97 1879.82,320.389 1880.88,323.499 1881.94,336.612 1883.01,358.003 1884.07,363.009 1885.13,330.838 1886.19,326.667 1887.26,374.099 1888.32,410.153 1889.38,332.003 1890.44,328.43 1891.51,340.406 1892.57,520.171 1893.63,320.077 1894.69,414.068 1895.76,318.277 1896.82,335.378 1897.88,404.351 1898.94,498.203 1900.01,489.156 1901.07,331.447 1902.13,338.061 1903.19,423.416 1904.26,362.948 1905.32,478.727 1906.38,325.661 1907.44,355.673 1908.51,453.469 1909.57,510.999 1910.63,320.34 1911.69,318.61 1912.76,326.029 1913.82,477.147 1914.88,321.862 1915.94,331.126 1917.01,320.306 1918.07,324.487 1919.13,344.451 1920.19,497.642 1921.26,335.999 1922.32,333.575 1923.38,334.144 1924.44,506.819 1925.51,312.374 1926.57,424.902 1927.63,379.328 1928.69,454.891 1929.75,459.392 1930.82,368.712 1931.88,324.654 1932.94,511.644 1934,312.43 1935.07,353.484 1936.13,326.951 1937.19,302.594 1938.25,316.817 1939.32,389.165 1940.38,140.922 1941.44,131.39 1942.5,130.827 1943.57,136.249 1944.63,140.469 1945.69,140.081 1946.75,126.336 1947.82,114 1948.88,122.663 1949.94,143.059 1951,139.697 1952.07,152.321 1953.13,148.989 1954.19,144.863 1955.25,128.473 1956.32,124.458 1957.38,111.689 1958.44,155.926 1959.5,143.25 1960.57,102.87 1961.63,119.34 1962.69,136.677 1963.75,145.528 1964.82,125.299 1965.88,135.413 1966.94,135.182 1968,131.81 1969.07,136.489 1970.13,130.482 1971.19,134.248 1972.25,133.53 1973.32,138.513 1974.38,154 1975.44,143.047 1976.5,150.423 1977.57,159.365 1978.63,138.383 1979.69,140.696 1980.75,127.759 1981.82,136.073 1982.88,157.127 1983.94,151.779 1985,137.901 1986.07,133.774 1987.13,137.829 1988.19,143.399 1989.25,124.039 1990.32,132.816 1991.38,139.839 1992.44,132.783 1993.5,119.519 1994.57,127.948 1995.63,137.201 1996.69,114.879 1997.75,155.927 1998.82,147.849 1999.88,123.38 2000.94,119.887 2002,136.37 2003.07,131.863 2004.13,134.295 2005.19,129.824 2006.25,130 2007.32,138.054 2008.38,134.799 2009.44,114.21 2010.5,113.348 2011.57,131.051 2012.63,126.378 2013.69,139.781 2014.75,116.522 2015.82,117.937 2016.88,154.725 2017.94,115.338 2019,125.826 2020.07,132.894 2021.13,122.209 2022.19,122.977 2023.25,127.424 2024.32,131.067 2025.38,148.679 2026.44,149.973 2027.5,146.082 2028.56,139.615 2029.63,135.451 2030.69,135.059 2031.75,140.657 2032.81,127.151 2033.88,142.945 2034.94,136.11 2036,167.333 2037.06,98.8266 2038.13,105.524 2039.19,107.751 2040.25,104.861 2041.31,108.236 2042.38,111.328 2043.44,112.004 2044.5,150.77 2045.56,125.45 2046.63,128.703 2047.69,138.67 2048.75,126.826 2049.81,137.636 2050.88,131.446 2051.94,133.492 2053,133.903 2054.06,129.537 2055.13,140.243 2056.19,130.393 2057.25,152.066 2058.31,114.822 2059.38,132.182 2060.44,138.947 2061.5,151.632 2062.56,158.042 2063.63,150.332 2064.69,144.334 2065.75,124.732 2066.81,138.214 2067.88,134.82 2068.94,148.054 2070,110.118 2071.06,151.635 2072.13,145.476 2073.19,138.611 2074.25,130.849 2075.31,134.404 2076.38,133.391 2077.44,147.278 2078.5,137.653 2079.56,139.707 2080.63,127.56 2081.69,122.35 2082.75,111.828 2083.81,108.648 2084.88,117.023 2085.94,144.478 2087,151.346 2088.06,143.506 2089.13,148.505 2090.19,122.942 2091.25,149.363 2092.31,143.557 2093.38,122.023 2094.44,122.583 2095.5,136.819 2096.56,122.425 2097.63,124.522 2098.69,143.975 2099.75,146.368 2100.81,160.579 2101.88,118.99 2102.94,126.958 2104,140.549 2105.06,140.245 2106.13,143.955 2107.19,140.849 2108.25,151.877 2109.31,162.833 2110.38,117.423 2111.44,122.72 2112.5,126.175 2113.56,125.783 2114.63,114.957 2115.69,302.376 2116.75,312.943 2117.81,313.364 2118.88,348.052 2119.94,333.844 2121,349.472 2122.06,119.866 2123.12,118.662 2124.19,106.315 2125.25,147.922 2126.31,109.358 2127.37,134.753 2128.44,121.426 2129.5,132.156 2130.56,139.675 2131.62,136.503 2132.69,140.024 2133.75,120.034 2134.81,135.7 2135.87,132.068 2136.94,127.862 2138,134.117 2139.06,122.347 2140.12,122.751 2141.19,121.484 2142.25,121.715 2143.31,153.241 2144.37,157.47 2145.44,123.995 2146.5,135.344 2147.56,133.018 2148.62,162.454 2149.69,132.627 2150.75,161.71 2151.81,163.021 2152.87,124.75 2153.94,109.018 2155,160.151 2156.06,118.227 2157.12,150.489 2158.19,153.283 2159.25,166.291 2160.31,152.226 2161.37,128.236 2162.44,133.237 2163.5,136.275 2164.56,148.925 2165.62,143.002 2166.69,128.889 2167.75,135.03 2168.81,139.16 2169.87,138.544 2170.94,126.849 2172,122.718 2173.06,396.12 2174.12,393.462 2175.19,415.117 2176.25,334.824 2177.31,322.875 2178.37,329.993 2179.44,389.555 2180.5,315.638 2181.56,393.315 2182.62,346.963 2183.69,348.506 2184.75,325.304 2185.81,359.892 2186.87,445.832 2187.94,432.593 2189,393.035 2190.06,335.897 2191.12,332.602 2192.19,339.616 2193.25,129.939 2194.31,135.278 2195.37,127.753 2196.44,130.352 2197.5,128.17 2198.56,147.98 2199.62,150.15 2200.69,152.425 2201.75,118.449 2202.81,129.058 2203.87,134.672 2204.94,128.989 2206,129.5 2207.06,134.39 2208.12,136.289 2209.19,125.062 2210.25,155.457 2211.31,139.13 2212.37,115.083 2213.44,144.932 2214.5,131.901 2215.56,130.732 2216.62,151.198 2217.68,151.094 2218.75,114.945 2219.81,119.127 2220.87,125.676 2221.93,114.143 2223,114.44 2224.06,95.7864 2225.12,343.064 2226.18,327.501 2227.25,331.947 2228.31,318.301 2229.37,348.689 2230.43,445.886 2231.5,414.108 2232.56,336.132 2233.62,474.898 2234.68,323.865 2235.75,336.504 2236.81,383.155 2237.87,327.065 2238.93,406.096 2240,449.633 2241.06,326.384 2242.12,318.681 2243.18,366.316 2244.25,319.384 2245.31,474.534 2246.37,372.463 2247.43,313.034 2248.5,378.288 2249.56,355.502 2250.62,310.166 2251.68,326.313 2252.75,343.085 2253.81,345.202 2254.87,334.755 2255.93,517.616 2257,400.754 2258.06,334.532 2259.12,135.949 2260.18,143.379 2261.25,134.912 2262.31,134.566 2263.37,136.428 2264.43,154.091 2265.5,129.723 2266.56,140.68 2267.62,125.836 2268.68,117.643 2269.75,121.203 2270.81,134.856 2271.87,129.564 2272.93,131.644 2274,136.238 2275.06,137.938 2276.12,123.469 2277.18,138.624 2278.25,119.866 2279.31,113.557 2280.37,127.285 2281.43,138.481 2282.5,137.365 2283.56,137.759 2284.62,132.737 2285.68,140.999 2286.75,147.487 2287.81,102.567 2288.87,138.168 2289.93,127.663 2291,138.306 2292.06,122.733 2293.12,131.733 2294.18,135.809 2295.25,140.12 2296.31,149.785 2297.37,144.585 2298.43,132.135 2299.5,117.186 2300.56,121.798 2301.62,140.204 2302.68,141.745 2303.75,134.02 2304.81,140.033 2305.87,129.511 2306.93,141.116 2308,157.557 2309.06,138.261 2310.12,141.153 2311.18,115.944 2312.25,144.462 2313.31,119.811 2314.37,124.75 2315.43,152.268 2316.49,149.811 2317.56,139.535 2318.62,151.839 2319.68,123.565 2320.74,142.769 2321.81,127.702 2322.87,137.407 2323.93,132.222 2324.99,130.18 2326.06,141.406 2327.12,125.26 2328.18,149.15 2329.24,145.024 2330.31,135.066 2331.37,140.642 2332.43,156.456 2333.49,114.521 2334.56,125.187 2335.62,134.003 2336.68,144.862 2337.74,142.96 2338.81,122.678 2339.87,130.318 2340.93,120.008 2341.99,125.309 2343.06,133.319 2344.12,124.056 2345.18,137.457 2346.24,128.757 2347.31,134.891 2348.37,136.197 2349.43,152.012 2350.49,157.459 2351.56,115.609 2352.62,172.397 2353.68,116.376 2354.74,123.346 2355.81,124.874 2356.87,159.245 2357.93,162.06 2358.99,118.607 2360.06,142.387 2361.12,124.859 2362.18,119.152 2363.24,114.576 2364.31,121.92 2365.37,124.072 2366.43,141.623 2367.49,137.445 2368.56,132.56 2369.62,128.064 2370.68,120.41 2371.74,143.193 2372.81,152.373 2373.87,147.684 2374.93,157.216 2375.99,155.855 2377.06,136.682 2378.12,139.789 2379.18,126.671 2380.24,148.904 2381.31,350.637 2382.37,503.273 2383.43,324.482 2384.49,428.081 2385.56,443.454 2386.62,508.833 2387.68,360.411 2388.74,391.874 2389.81,310.686 2390.87,347.786 2391.93,353.914 2392.99,339.646 2394.06,336.594 2395.12,314.067 2396.18,476.717 2397.24,325.879 2398.31,397.102 2399.37,343.136 2400.43,331.13 2401.49,453.273 2402.56,336.825 2403.62,345.731 2404.68,467.609 2405.74,432.349 2406.81,325.77 2407.87,418.826 2408.93,322.488 2409.99,427.541 2411.05,323.835 2412.12,340.83 2413.18,418.162 2414.24,462.803 2415.3,325.277 2416.37,309.601 2417.43,393.18 2418.49,511.907 2419.55,311.56 2420.62,112.277 2421.68,110.844 2422.74,115.138 2423.8,142.23 2424.87,142.937 2425.93,145.841 2426.99,142.59 2428.05,131.348 2429.12,152.72 2430.18,128.657 2431.24,125.023 2432.3,136.433 2433.37,133.216 2434.43,113.335 2435.49,120.619 2436.55,124.556 2437.62,139.722 2438.68,150.991 2439.74,127.786 2440.8,128.019 2441.87,116.405 2442.93,126.228 2443.99,132.522 2445.05,136.61 2446.12,134.075 2447.18,117.039 2448.24,132.41 2449.3,135.927 2450.37,135.354 2451.43,148.332 2452.49,150.599 2453.55,118.161 2454.62,111.881 2455.68,144.07 2456.74,120.77 2457.8,124.889 2458.87,149.275 2459.93,134.765 2460.99,153.978 2462.05,129.149 2463.12,148.947 2464.18,115.511 2465.24,138.008 2466.3,130.572 2467.37,161.536 2468.43,141.202 2469.49,134.499 2470.55,132.081 2471.62,142.268 2472.68,152.408 2473.74,151.627 2474.8,142.756 2475.87,132.889 2476.93,151.621 2477.99,149.723 2479.05,139.466 2480.12,142.43 2481.18,132.622 2482.24,139.581 2483.3,155.706 2484.37,159.594 2485.43,145.229 2486.49,124.321 2487.55,135.789 2488.62,147.716 2489.68,135.118 2490.74,121.662 2491.8,134.945 2492.87,136.112 2493.93,135.157 2494.99,140.125 2496.05,132.143 2497.12,127.082 2498.18,147.037 2499.24,137.638 2500.3,129.521 2501.37,155.015 2502.43,141.09 2503.49,129.115 2504.55,132.6 2505.62,139.041 2506.68,317.196 2507.74,342.217 2508.8,430.789 2509.86,325.682 2510.93,349.561 2511.99,399.824 2513.05,325.041 2514.11,336.956 2515.18,309.934 2516.24,309.836 2517.3,321.398 2518.36,333.806 2519.43,362.77 2520.49,332.565 2521.55,333.558 2522.61,324.931 2523.68,326.253 2524.74,342.38 2525.8,304.742 2526.86,306.662 2527.93,463.428 2528.99,475.94 2530.05,404.241 2531.11,447.471 2532.18,342.798 2533.24,319.326 2534.3,411.226 2535.36,328.077 2536.43,489.319 2537.49,495.639 2538.55,447.74 2539.61,325.697 2540.68,339.908 2541.74,321.626 2542.8,430.224 2543.86,338.141 2544.93,358.737 2545.99,335.07 2547.05,436.093 2548.11,377.904 2549.18,325.963 2550.24,121.552 2551.3,115.431 2552.36,149.345 2553.43,149.063 2554.49,136.783 2555.55,148.652 2556.61,143.914 2557.68,111.779 2558.74,159.076 2559.8,150.49 2560.86,129.095 2561.93,125.344 2562.99,143.711 2564.05,145.38 2565.11,124.138 2566.18,125.144 2567.24,116.997 2568.3,130.164 2569.36,139.094 2570.43,135.092 2571.49,142.116 2572.55,127.721 2573.61,136.697 2574.68,151.339 2575.74,142.011 2576.8,128.176 2577.86,131.386 2578.93,128.78 2579.99,141.489 2581.05,139.353 2582.11,137.532 2583.18,118.364 2584.24,130.708 2585.3,138.047 2586.36,132.505 2587.43,149.952 2588.49,150.293 2589.55,121.874 2590.61,145.733 2591.68,149.522 2592.74,154.851 2593.8,155.54 2594.86,134.566 2595.93,157.662 2596.99,150.123 2598.05,156.369 2599.11,115.243 2600.18,113.853 2601.24,150.686 2602.3,113.788 2603.36,141.824 2604.42,134.813 2605.49,121.122 2606.55,134.143 2607.61,120.277 2608.67,137.235 2609.74,149.808 2610.8,161.898 2611.86,135.265 2612.92,121.679 2613.99,122.154 2615.05,120.899 2616.11,124.587 2617.17,122.152 2618.24,156.72 2619.3,153.445 2620.36,149.231 2621.42,131.795 2622.49,133.015 2623.55,137.013 2624.61,120.643 2625.67,125.78 2626.74,131.331 2627.8,129.797 2628.86,141.574 2629.92,141.574 2630.99,154.412 2632.05,116.784 2633.11,140.061 2634.17,138.679 2635.24,131.028 2636.3,137.589 2637.36,111.393 2638.42,127.335 2639.49,140.821 2640.55,139.079 2641.61,144.369 2642.67,144.019 2643.74,145.393 2644.8,146.044 2645.86,125.523 2646.92,121.904 2647.99,156.708 2649.05,129.198 2650.11,124.871 2651.17,127.121 2652.24,124.355 2653.3,117.065 2654.36,125.114 2655.42,151.028 2656.49,170.661 2657.55,327.62 2658.61,342.328 2659.67,323.814 2660.74,322.575 2661.8,437.301 2662.86,335.028 2663.92,451.359 2664.99,505.437 2666.05,325.342 2667.11,357.264 2668.17,313.237 2669.24,406.585 2670.3,311.441 2671.36,341.152 2672.42,369.661 2673.49,319.437 2674.55,333.052 2675.61,319.654 2676.67,315.911 2677.74,381.711 2678.8,524.435 2679.86,459.675 2680.92,319.498 2681.99,328.332 2683.05,409.528 2684.11,392.855 2685.17,319.799 2686.24,312.597 2687.3,308.705 2688.36,335.606 2689.42,376.501 2690.49,311.844 2691.55,392.163 2692.61,339.989 2693.67,332.003 2694.74,328.146 2695.8,410.754 2696.86,329.631 2697.92,331.793 2698.98,336.116 2700.05,326.161 2701.11,341.563 2702.17,318.577 2703.23,316.708 2704.3,478.493 2705.36,343.022 2706.42,340.823 2707.48,358.985 2708.55,435.165 2709.61,379.835 2710.67,341.852 2711.73,453.808 2712.8,320.513 2713.86,314.416 2714.92,317.87 2715.98,329.361 2717.05,370.481 2718.11,325.916 2719.17,321.326 2720.23,323.733 2721.3,316.14 2722.36,347.46 2723.42,334.84 2724.48,321.112 2725.55,340.964 2726.61,497.772 2727.67,458.582 2728.73,494.63 2729.8,338.896 2730.86,312.226 2731.92,317.398 2732.98,359.561 2734.05,505.186 2735.11,525.501 2736.17,375.99 2737.23,362.148 2738.3,326.896 2739.36,486.464 2740.42,480.08 2741.48,403.158 2742.55,325.075 2743.61,333.379 2744.67,452.927 2745.73,321.821 2746.8,398.463 2747.86,325.806 2748.92,348.347 2749.98,436.13 2751.05,324.329 2752.11,316.544 2753.17,336.297 2754.23,399.386 2755.3,392.289 2756.36,342.665 2757.42,324.554 2758.48,481.483 2759.55,363.425 2760.61,334.194 2761.67,425.765 2762.73,422.988 2763.8,471.902 2764.86,462.287 2765.92,326.916 2766.98,527.358 2768.05,121.373 2769.11,146.721 2770.17,138.309 2771.23,138.333 2772.3,114.318 2773.36,115.425 2774.42,149.976 2775.48,129.976 2776.55,135.284 2777.61,136.774 2778.67,134.053 2779.73,142.125 2780.8,145.878 2781.86,135.187 2782.92,142.72 2783.98,140.76 2785.05,140.2 2786.11,118.419 2787.17,143.746 2788.23,154.899 2789.3,124.684 2790.36,148.977 2791.42,132.14 2792.48,134.023 2793.55,142.384 2794.61,122.907 2795.67,140.187 2796.73,141.341 2797.79,144.086 2798.86,115.174 2799.92,134.103 2800.98,125.602 2802.04,338.619 2803.11,397.917 2804.17,148.502 2805.23,152.531 2806.29,141.33 2807.36,146.934 2808.42,115.847 2809.48,119.984 2810.54,122.806 2811.61,126.29 2812.67,123.729 2813.73,134.354 2814.79,129.759 2815.86,144.925 2816.92,111.645 2817.98,136.629 2819.04,131.687 2820.11,134.075 2821.17,140.609 2822.23,122.565 2823.29,154.31 2824.36,151.942 2825.42,149.293 2826.48,134.354 2827.54,122.655 2828.61,120.981 2829.67,125.387 2830.73,126.081 2831.79,123.634 2832.86,134.608 2833.92,130.13 2834.98,134.617 2836.04,104.607 2837.11,94.8323 2838.17,319.189 2839.23,401.998 2840.29,313.584 2841.36,435.493 2842.42,312.86 2843.48,339.96 2844.54,306.124 2845.61,517.52 2846.67,315.141 2847.73,314.181 2848.79,511.329 2849.86,335.453 2850.92,418.278 2851.98,325.171 2853.04,331.878 2854.11,453.393 2855.17,460.227 2856.23,316.98 2857.29,401.973 2858.36,322.265 2859.42,426.968 2860.48,488.71 2861.54,344.795 2862.61,333.953 2863.67,387.485 2864.73,341.248 2865.79,430.485 2866.86,400.365 2867.92,317.377 2868.98,341.562 2870.04,315.464 2871.11,159.4 2872.17,146.194 2873.23,165.997 2874.29,125.964 2875.36,124.405 2876.42,132.46 2877.48,132.789 2878.54,124.518 2879.61,114.058 2880.67,115.606 2881.73,140.254 2882.79,127.786 2883.86,123.235 2884.92,132.466 2885.98,132.491 2887.04,118.699 2888.11,124.945 2889.17,127.602 2890.23,143.246 2891.29,146.081 2892.35,147.442 2893.42,138.575 2894.48,119.52 2895.54,120.437 2896.6,121.823 2897.67,133.462 2898.73,127.464 2899.79,138.231 2900.85,123.963 2901.92,158.487 2902.98,138.556 2904.04,162.178 2905.1,144.684 2906.17,131.284 2907.23,147.371 2908.29,145.92 2909.35,148.666 2910.42,120.134 2911.48,118.668 2912.54,138.347 2913.6,149.277 2914.67,150.452 2915.73,143.915 2916.79,148.889 2917.85,142.422 2918.92,124.648 2919.98,130.415 2921.04,133.661 2922.1,143.292 2923.17,150.627 2924.23,162.375 2925.29,123.727 2926.35,142.447 2927.42,131.596 2928.48,115.85 2929.54,120.791 2930.6,124.55 2931.67,124.203 2932.73,127.388 2933.79,124.869 2934.85,124.604 2935.92,142.448 2936.98,131.17 2938.04,142.315 2939.1,142.27 2940.17,145.358 2941.23,127.121 2942.29,128.647 2943.35,125.638 2944.42,113.919 2945.48,120.695 2946.54,122.337 2947.6,141.677 2948.67,133.748 2949.73,142.091 2950.79,126.095 2951.85,122.709 2952.92,131.91 2953.98,134.091 2955.04,137.929 2956.1,131.416 2957.17,130.968 2958.23,136.13 2959.29,121.419 2960.35,152.68 2961.42,135.114 2962.48,128.099 2963.54,123.756 2964.6,130.219 2965.67,140.143 2966.73,156.718 2967.79,148.223 2968.85,136.444 2969.92,117.501 2970.98,138.592 2972.04,116.545 2973.1,128.325 2974.17,126.45 2975.23,133.821 2976.29,104.487 2977.35,121.569 2978.42,125.765 2979.48,134.673 2980.54,128.392 2981.6,146.104 2982.67,139.828 2983.73,118.658 2984.79,137.438 2985.85,136.997 2986.91,130.033 2987.98,138.716 2989.04,134.951 2990.1,126.823 2991.16,117.782 2992.23,124.688 2993.29,122.445 2994.35,119.128 2995.41,155.52 2996.48,153.166 2997.54,150.816 2998.6,141.856 2999.66,139.671 3000.73,142.272 3001.79,141.92 3002.85,134.609 3003.91,121.738 3004.98,135.206 3006.04,132.425 3007.1,140.19 3008.16,122.232 3009.23,145.02 3010.29,145.377 3011.35,131.112 3012.41,137.715 3013.48,145.618 3014.54,130.878 3015.6,129.048 3016.66,128.965 3017.73,142.701 3018.79,124.58 3019.85,150.364 3020.91,149.098 3021.98,139.758 3023.04,149.528 3024.1,136.21 3025.16,142.099 3026.23,119.988 3027.29,112.6 3028.35,155.113 3029.41,131.365 3030.48,139.708 3031.54,151.775 3032.6,131.928 3033.66,128.384 3034.73,132.075 3035.79,133.094 3036.85,131.024 3037.91,115.735 3038.98,136.732 3040.04,142.673 3041.1,128.896 3042.16,149.29 3043.23,134.374 3044.29,135.387 3045.35,126.777 3046.41,159.002 3047.48,148.874 3048.54,146.629 3049.6,122.946 3050.66,138.24 3051.73,156.849 3052.79,141.698 3053.85,120.059 3054.91,108.982 3055.98,143.751 3057.04,140.946 3058.1,134.201 3059.16,140.078 3060.23,112.831 3061.29,123.663 3062.35,147.495 3063.41,132.012 3064.48,135.789 3065.54,146.762 3066.6,146.725 3067.66,155.322 3068.73,148.811 3069.79,149.795 3070.85,137.427 3071.91,137.923 3072.98,132.449 3074.04,120.965 3075.1,135.922 3076.16,125.166 3077.23,126.662 3078.29,126.391 3079.35,163.27 3080.41,148.041 3081.48,116.584 3082.54,130.315 3083.6,135.609 3084.66,136.552 3085.72,133.338 3086.79,133.196 3087.85,144.457 3088.91,127.002 3089.97,142.218 3091.04,117.717 3092.1,114.576 3093.16,119.968 3094.22,441.817 3095.29,445.746 3096.35,355.896 3097.41,302.081 3098.47,309.848 3099.54,325.337 3100.6,522.738 3101.66,406.887 3102.72,472.722 3103.79,330.699 3104.85,392.362 3105.91,331.421 3106.97,527.607 3108.04,445.267 3109.1,334.583 3110.16,341.928 3111.22,435.514 3112.29,357.877 3113.35,315.602 3114.41,378.522 3115.47,334.948 3116.54,338.977 3117.6,323.519 3118.66,455.161 3119.72,337.036 3120.79,338.947 3121.85,489.598 3122.91,409.919 3123.97,497.402 3125.04,457.213 3126.1,318.251 3127.16,329.141 3128.22,330.316 3129.29,327.726 3130.35,450.13 3131.41,320.672 3132.47,491.699 3133.54,464.025 3134.6,453.466 3135.66,386.087 3136.72,367.216 3137.79,332.794 3138.85,404.189 3139.91,470.58 3140.97,327.371 3142.04,323.131 3143.1,329.393 3144.16,318.537 3145.22,329.606 3146.29,305.236 3147.35,376.235 3148.41,382.701 3149.47,367.173 3150.54,440.756 3151.6,373.198 3152.66,400.575 3153.72,316.726 3154.79,496.581 3155.85,459.998 3156.91,340.528 3157.97,366.495 3159.04,340.707 3160.1,311.185 3161.16,492.074 3162.22,326.988 3163.29,473.876 3164.35,457.302 3165.41,492.958 3166.47,411.472 3167.54,478.684 3168.6,406.202 3169.66,459.819 3170.72,348.357 3171.79,334.526 3172.85,355.276 3173.91,359.636 3174.97,347.237 3176.04,321.537 3177.1,321.589 3178.16,331.029 3179.22,420.294 3180.28,395.649 3181.35,333.376 3182.41,498.133 3183.47,414.671 3184.53,468.558 3185.6,386.945 3186.66,366.47 3187.72,492.398 3188.78,375.717 3189.85,512.914 3190.91,326.105 3191.97,318.964 3193.03,329.082 3194.1,461.937 3195.16,432.323 3196.22,337.293 3197.28,325.119 3198.35,384.749 3199.41,319.553 3200.47,416.185 3201.53,338.052 3202.6,381.205 3203.66,321.186 3204.72,367.465 3205.78,326.766 3206.85,318.704 3207.91,450.541 3208.97,334.415 3210.03,409.188 3211.1,423.754 3212.16,334.885 3213.22,325.931 3214.28,439.839 3215.35,414.207 3216.41,472.655 3217.47,342.102 3218.53,357.677 3219.6,496.495 3220.66,497.53 3221.72,340.012 3222.78,354.731 3223.85,329.464 3224.91,402.593 3225.97,324.308 3227.03,415.706 3228.1,362.6 3229.16,451.738 3230.22,342.597 3231.28,430.037 3232.35,391.687 3233.41,325.54 3234.47,433.862 3235.53,395.99 3236.6,458.008 3237.66,439.42 3238.72,336.755 3239.78,390.317 3240.85,379.526 3241.91,333.339 3242.97,331.359 3244.03,517.74 3245.1,449.982 3246.16,341.381 3247.22,366.901 3248.28,465.975 3249.35,452.825 3250.41,426.112 3251.47,448.455 3252.53,360.321 3253.6,335.039 3254.66,318.601 3255.72,313.417 3256.78,342.322 3257.85,393.018 3258.91,364.533 3259.97,511.251 3261.03,496.215 3262.1,314.985 3263.16,384.944 3264.22,395.8 3265.28,339.607 3266.35,334.05 3267.41,318.689 3268.47,300.889 3269.53,542.105 3270.6,357.72 3271.66,94.1112 3272.72,164.964 3273.78,500.899 3274.85,521.116 3275.91,335.521 3276.97,332.218 3278.03,304.065 3279.09,360.964 3280.16,409.628 3281.22,482.768 3282.28,428.222 3283.34,422.944 3284.41,424.918 3285.47,311.971 3286.53,479.227 3287.59,323.086 3288.66,340.472 3289.72,340.386 3290.78,305.635 3291.84,348.752 3292.91,430.414 3293.97,341.693 3295.03,492.098 3296.09,403.082 3297.16,337.968 3298.22,398.625 3299.28,475.83 3300.34,319.042 3301.41,313.898 3302.47,511.21 3303.53,534.85 3304.59,308.456 3305.66,117.84 3306.72,153.308 3307.78,117.594 3308.84,146.535 3309.91,126.622 3310.97,123.731 3312.03,129.367 3313.09,127.932 3314.16,131.707 3315.22,145.852 3316.28,122.598 3317.34,116.12 3318.41,125.009 3319.47,123.811 3320.53,131.187 3321.59,117.404 3322.66,126.229 3323.72,142.408 3324.78,146.787 3325.84,134.353 3326.91,128.081 3327.97,137.789 3329.03,137.344 3330.09,141.07 3331.16,143.186 3332.22,135.7 3333.28,140.775 3334.34,132.722 3335.41,135.177 3336.47,112.754 3337.53,128.568 3338.59,135.13 3339.66,137.499 3340.72,132.569 3341.78,113.726 3342.84,147.682 3343.91,125.689 3344.97,136.289 3346.03,127.068 3347.09,145.987 3348.16,148.896 3349.22,154.092 3350.28,126.511 3351.34,139.53 3352.41,127.429 3353.47,151.487 3354.53,167.377 3355.59,167.125 3356.66,155.052 3357.72,150.573 3358.78,125.44 3359.84,126.404 3360.91,157.988 3361.97,161.756 3363.03,149.713 3364.09,121.409 3365.16,147.244 3366.22,141.72 3367.28,135.377 3368.34,129.911 3369.41,127.232 3370.47,129.922 3371.53,128.725 3372.59,128.681 3373.65,120.237 3374.72,125.547 3375.78,141.636 3376.84,132.797 3377.9,142.034 3378.97,151.237 3380.03,144.147 3381.09,138.375 3382.15,133.41 3383.22,142.951 3384.28,142.065 3385.34,162.814 3386.4,160.598 3387.47,144.901 3388.53,153.694 3389.59,162.524 3390.65,109.199 3391.72,124.989 3392.78,129.551 3393.84,115.483 3394.9,138.246 3395.97,142.202 3397.03,115.418 3398.09,119.051 3399.15,130.575 3400.22,134.681 3401.28,138.942 3402.34,123.084 3403.4,129.307 3404.47,137.754 3405.53,150.338 3406.59,154.75 3407.65,150.958 3408.72,128.44 3409.78,135.571 3410.84,136.525 3411.9,136.507 3412.97,138.534 3414.03,146.802 3415.09,144.766 3416.15,120.171 3417.22,123.551 3418.28,152.254 3419.34,135.65 3420.4,139.461 3421.47,134.072 3422.53,128.559 3423.59,138.959 3424.65,141.615 3425.72,147.93 3426.78,157.623 3427.84,155.23 3428.9,136.426 3429.97,141.808 3431.03,151.029 3432.09,139.212 3433.15,132.828 3434.22,133.695 3435.28,144.269 3436.34,144.114 3437.4,131.788 3438.47,132.771 3439.53,132.603 3440.59,138.103 3441.65,135.476 3442.72,128.937 3443.78,138.008 3444.84,155.682 3445.9,118.985 3446.97,122.207 3448.03,122.395 3449.09,136.314 3450.15,130.951 3451.22,136.177 3452.28,144.522 3453.34,124.29 3454.4,124.233 3455.47,139.072 3456.53,131.19 "/>
<path clip-path="url(#clip730)" d="M2917.47 166.762 L3439.42 166.762 L3439.42 63.0816 L2917.47 63.0816  Z" fill="#ffffff" fill-rule="evenodd" fill-opacity="1"/>
<polyline clip-path="url(#clip730)" style="stroke:#000000; stroke-linecap:round; stroke-linejoin:round; stroke-width:4; stroke-opacity:1; fill:none" points="2917.47,166.762 3439.42,166.762 3439.42,63.0816 2917.47,63.0816 2917.47,166.762 "/>
<polyline clip-path="url(#clip730)" style="stroke:#009af9; stroke-linecap:round; stroke-linejoin:round; stroke-width:2; stroke-opacity:1; fill:none" points="2955.25,114.922 3181.92,114.922 "/>
<path clip-path="url(#clip730)" d="M3236.09 115.998 Q3237.59 116.507 3239 118.174 Q3240.44 119.841 3241.87 122.757 L3246.62 132.202 L3241.6 132.202 L3237.18 123.336 Q3235.46 119.864 3233.84 118.729 Q3232.24 117.595 3229.47 117.595 L3224.37 117.595 L3224.37 132.202 L3219.7 132.202 L3219.7 97.6416 L3230.25 97.6416 Q3236.18 97.6416 3239.1 100.118 Q3242.01 102.595 3242.01 107.595 Q3242.01 110.859 3240.49 113.012 Q3238.98 115.165 3236.09 115.998 M3224.37 101.484 L3224.37 113.753 L3230.25 113.753 Q3233.63 113.753 3235.35 112.202 Q3237.08 110.628 3237.08 107.595 Q3237.08 104.563 3235.35 103.035 Q3233.63 101.484 3230.25 101.484 L3224.37 101.484 Z" fill="#000000" fill-rule="evenodd" fill-opacity="1" /><path clip-path="url(#clip730)" d="M3262.27 102.248 L3255.93 119.447 L3268.63 119.447 L3262.27 102.248 M3259.63 97.6416 L3264.93 97.6416 L3278.1 132.202 L3273.24 132.202 L3270.09 123.336 L3254.51 123.336 L3251.37 132.202 L3246.43 132.202 L3259.63 97.6416 Z" fill="#000000" fill-rule="evenodd" fill-opacity="1" /><path clip-path="url(#clip730)" d="M3279.77 117.317 L3292.24 117.317 L3292.24 121.114 L3279.77 121.114 L3279.77 117.317 Z" fill="#000000" fill-rule="evenodd" fill-opacity="1" /><path clip-path="url(#clip730)" d="M3299.21 97.6416 L3303.89 97.6416 L3303.89 111.808 L3320.88 111.808 L3320.88 97.6416 L3325.55 97.6416 L3325.55 132.202 L3320.88 132.202 L3320.88 115.743 L3303.89 115.743 L3303.89 132.202 L3299.21 132.202 L3299.21 97.6416 Z" fill="#000000" fill-rule="evenodd" fill-opacity="1" /><path clip-path="url(#clip730)" d="M3334.86 97.6416 L3341.83 97.6416 L3350.65 121.16 L3359.51 97.6416 L3366.48 97.6416 L3366.48 132.202 L3361.92 132.202 L3361.92 101.854 L3353.01 125.558 L3348.31 125.558 L3339.4 101.854 L3339.4 132.202 L3334.86 132.202 L3334.86 97.6416 Z" fill="#000000" fill-rule="evenodd" fill-opacity="1" /><path clip-path="url(#clip730)" d="M3401.64 100.304 L3401.64 105.234 Q3399.28 103.035 3396.6 101.947 Q3393.93 100.859 3390.92 100.859 Q3385 100.859 3381.85 104.493 Q3378.7 108.104 3378.7 114.956 Q3378.7 121.785 3381.85 125.419 Q3385 129.03 3390.92 129.03 Q3393.93 129.03 3396.6 127.942 Q3399.28 126.854 3401.64 124.655 L3401.64 129.54 Q3399.19 131.206 3396.43 132.04 Q3393.7 132.873 3390.65 132.873 Q3382.8 132.873 3378.29 128.081 Q3373.77 123.266 3373.77 114.956 Q3373.77 106.623 3378.29 101.831 Q3382.8 97.0166 3390.65 97.0166 Q3393.75 97.0166 3396.48 97.8499 Q3399.23 98.6601 3401.64 100.304 Z" fill="#000000" fill-rule="evenodd" fill-opacity="1" /></svg>
