<?xml version="1.0" encoding="utf-8"?>
<svg xmlns="http://www.w3.org/2000/svg" xmlns:xlink="http://www.w3.org/1999/xlink" width="900" height="150" viewBox="0 0 3600 600">
<defs>
  <clipPath id="clip630">
    <rect x="0" y="0" width="3600" height="600"/>
  </clipPath>
</defs>
<path clip-path="url(#clip630)" d="M0 600 L3600 600 L3600 0 L0 0  Z" fill="#ffffff" fill-rule="evenodd" fill-opacity="1"/>
<defs>
  <clipPath id="clip631">
    <rect x="720" y="0" width="2521" height="600"/>
  </clipPath>
</defs>
<path clip-path="url(#clip630)" d="M152.696 522.368 L3552.76 522.368 L3552.76 47.2441 L152.696 47.2441  Z" fill="#ffffff" fill-rule="evenodd" fill-opacity="1"/>
<defs>
  <clipPath id="clip632">
    <rect x="152" y="47" width="3401" height="476"/>
  </clipPath>
</defs>
<polyline clip-path="url(#clip632)" style="stroke:#000000; stroke-linecap:round; stroke-linejoin:round; stroke-width:2; stroke-opacity:0.1; fill:none" points="243.081,522.368 243.081,47.2441 "/>
<polyline clip-path="url(#clip632)" style="stroke:#000000; stroke-linecap:round; stroke-linejoin:round; stroke-width:2; stroke-opacity:0.1; fill:none" points="827.344,522.368 827.344,47.2441 "/>
<polyline clip-path="url(#clip632)" style="stroke:#000000; stroke-linecap:round; stroke-linejoin:round; stroke-width:2; stroke-opacity:0.1; fill:none" points="1411.61,522.368 1411.61,47.2441 "/>
<polyline clip-path="url(#clip632)" style="stroke:#000000; stroke-linecap:round; stroke-linejoin:round; stroke-width:2; stroke-opacity:0.1; fill:none" points="1995.87,522.368 1995.87,47.2441 "/>
<polyline clip-path="url(#clip632)" style="stroke:#000000; stroke-linecap:round; stroke-linejoin:round; stroke-width:2; stroke-opacity:0.1; fill:none" points="2580.13,522.368 2580.13,47.2441 "/>
<polyline clip-path="url(#clip632)" style="stroke:#000000; stroke-linecap:round; stroke-linejoin:round; stroke-width:2; stroke-opacity:0.1; fill:none" points="3164.4,522.368 3164.4,47.2441 "/>
<polyline clip-path="url(#clip630)" style="stroke:#000000; stroke-linecap:round; stroke-linejoin:round; stroke-width:4; stroke-opacity:1; fill:none" points="152.696,522.368 3552.76,522.368 "/>
<polyline clip-path="url(#clip630)" style="stroke:#000000; stroke-linecap:round; stroke-linejoin:round; stroke-width:4; stroke-opacity:1; fill:none" points="243.081,522.368 243.081,503.47 "/>
<polyline clip-path="url(#clip630)" style="stroke:#000000; stroke-linecap:round; stroke-linejoin:round; stroke-width:4; stroke-opacity:1; fill:none" points="827.344,522.368 827.344,503.47 "/>
<polyline clip-path="url(#clip630)" style="stroke:#000000; stroke-linecap:round; stroke-linejoin:round; stroke-width:4; stroke-opacity:1; fill:none" points="1411.61,522.368 1411.61,503.47 "/>
<polyline clip-path="url(#clip630)" style="stroke:#000000; stroke-linecap:round; stroke-linejoin:round; stroke-width:4; stroke-opacity:1; fill:none" points="1995.87,522.368 1995.87,503.47 "/>
<polyline clip-path="url(#clip630)" style="stroke:#000000; stroke-linecap:round; stroke-linejoin:round; stroke-width:4; stroke-opacity:1; fill:none" points="2580.13,522.368 2580.13,503.47 "/>
<polyline clip-path="url(#clip630)" style="stroke:#000000; stroke-linecap:round; stroke-linejoin:round; stroke-width:4; stroke-opacity:1; fill:none" points="3164.4,522.368 3164.4,503.47 "/>
<path clip-path="url(#clip630)" d="M243.081 562.887 Q239.47 562.887 237.641 566.451 Q235.836 569.993 235.836 577.123 Q235.836 584.229 237.641 587.794 Q239.47 591.335 243.081 591.335 Q246.715 591.335 248.521 587.794 Q250.35 584.229 250.35 577.123 Q250.35 569.993 248.521 566.451 Q246.715 562.887 243.081 562.887 M243.081 559.183 Q248.891 559.183 251.947 563.789 Q255.025 568.373 255.025 577.123 Q255.025 585.849 251.947 590.456 Q248.891 595.039 243.081 595.039 Q237.271 595.039 234.192 590.456 Q231.137 585.849 231.137 577.123 Q231.137 568.373 234.192 563.789 Q237.271 559.183 243.081 559.183 Z" fill="#000000" fill-rule="evenodd" fill-opacity="1" /><path clip-path="url(#clip630)" d="M786.951 590.433 L794.59 590.433 L794.59 564.067 L786.279 565.734 L786.279 561.475 L794.543 559.808 L799.219 559.808 L799.219 590.433 L806.858 590.433 L806.858 594.368 L786.951 594.368 L786.951 590.433 Z" fill="#000000" fill-rule="evenodd" fill-opacity="1" /><path clip-path="url(#clip630)" d="M826.302 562.887 Q822.691 562.887 820.863 566.451 Q819.057 569.993 819.057 577.123 Q819.057 584.229 820.863 587.794 Q822.691 591.335 826.302 591.335 Q829.937 591.335 831.742 587.794 Q833.571 584.229 833.571 577.123 Q833.571 569.993 831.742 566.451 Q829.937 562.887 826.302 562.887 M826.302 559.183 Q832.113 559.183 835.168 563.789 Q838.247 568.373 838.247 577.123 Q838.247 585.849 835.168 590.456 Q832.113 595.039 826.302 595.039 Q820.492 595.039 817.414 590.456 Q814.358 585.849 814.358 577.123 Q814.358 568.373 817.414 563.789 Q820.492 559.183 826.302 559.183 Z" fill="#000000" fill-rule="evenodd" fill-opacity="1" /><path clip-path="url(#clip630)" d="M856.464 562.887 Q852.853 562.887 851.025 566.451 Q849.219 569.993 849.219 577.123 Q849.219 584.229 851.025 587.794 Q852.853 591.335 856.464 591.335 Q860.099 591.335 861.904 587.794 Q863.733 584.229 863.733 577.123 Q863.733 569.993 861.904 566.451 Q860.099 562.887 856.464 562.887 M856.464 559.183 Q862.274 559.183 865.33 563.789 Q868.409 568.373 868.409 577.123 Q868.409 585.849 865.33 590.456 Q862.274 595.039 856.464 595.039 Q850.654 595.039 847.575 590.456 Q844.52 585.849 844.52 577.123 Q844.52 568.373 847.575 563.789 Q850.654 559.183 856.464 559.183 Z" fill="#000000" fill-rule="evenodd" fill-opacity="1" /><path clip-path="url(#clip630)" d="M1375.3 590.433 L1391.62 590.433 L1391.62 594.368 L1369.67 594.368 L1369.67 590.433 Q1372.34 587.678 1376.92 583.048 Q1381.53 578.396 1382.71 577.053 Q1384.95 574.53 1385.83 572.794 Q1386.73 571.035 1386.73 569.345 Q1386.73 566.59 1384.79 564.854 Q1382.87 563.118 1379.77 563.118 Q1377.57 563.118 1375.11 563.882 Q1372.68 564.646 1369.91 566.197 L1369.91 561.475 Q1372.73 560.34 1375.18 559.762 Q1377.64 559.183 1379.67 559.183 Q1385.04 559.183 1388.24 561.868 Q1391.43 564.553 1391.43 569.044 Q1391.43 571.174 1390.62 573.095 Q1389.84 574.993 1387.73 577.586 Q1387.15 578.257 1384.05 581.474 Q1380.95 584.669 1375.3 590.433 Z" fill="#000000" fill-rule="evenodd" fill-opacity="1" /><path clip-path="url(#clip630)" d="M1411.43 562.887 Q1407.82 562.887 1405.99 566.451 Q1404.19 569.993 1404.19 577.123 Q1404.19 584.229 1405.99 587.794 Q1407.82 591.335 1411.43 591.335 Q1415.07 591.335 1416.87 587.794 Q1418.7 584.229 1418.7 577.123 Q1418.7 569.993 1416.87 566.451 Q1415.07 562.887 1411.43 562.887 M1411.43 559.183 Q1417.24 559.183 1420.3 563.789 Q1423.38 568.373 1423.38 577.123 Q1423.38 585.849 1420.3 590.456 Q1417.24 595.039 1411.43 595.039 Q1405.62 595.039 1402.54 590.456 Q1399.49 585.849 1399.49 577.123 Q1399.49 568.373 1402.54 563.789 Q1405.62 559.183 1411.43 559.183 Z" fill="#000000" fill-rule="evenodd" fill-opacity="1" /><path clip-path="url(#clip630)" d="M1441.6 562.887 Q1437.98 562.887 1436.16 566.451 Q1434.35 569.993 1434.35 577.123 Q1434.35 584.229 1436.16 587.794 Q1437.98 591.335 1441.6 591.335 Q1445.23 591.335 1447.04 587.794 Q1448.86 584.229 1448.86 577.123 Q1448.86 569.993 1447.04 566.451 Q1445.23 562.887 1441.6 562.887 M1441.6 559.183 Q1447.41 559.183 1450.46 563.789 Q1453.54 568.373 1453.54 577.123 Q1453.54 585.849 1450.46 590.456 Q1447.41 595.039 1441.6 595.039 Q1435.79 595.039 1432.71 590.456 Q1429.65 585.849 1429.65 577.123 Q1429.65 568.373 1432.71 563.789 Q1435.79 559.183 1441.6 559.183 Z" fill="#000000" fill-rule="evenodd" fill-opacity="1" /><path clip-path="url(#clip630)" d="M1969.63 575.734 Q1972.99 576.451 1974.86 578.72 Q1976.76 580.988 1976.76 584.322 Q1976.76 589.437 1973.24 592.238 Q1969.72 595.039 1963.24 595.039 Q1961.07 595.039 1958.75 594.599 Q1956.46 594.183 1954.01 593.326 L1954.01 588.812 Q1955.95 589.947 1958.27 590.525 Q1960.58 591.104 1963.1 591.104 Q1967.5 591.104 1969.79 589.368 Q1972.11 587.632 1972.11 584.322 Q1972.11 581.266 1969.96 579.553 Q1967.83 577.817 1964.01 577.817 L1959.98 577.817 L1959.98 573.974 L1964.19 573.974 Q1967.64 573.974 1969.47 572.609 Q1971.3 571.22 1971.3 568.627 Q1971.3 565.965 1969.4 564.553 Q1967.53 563.118 1964.01 563.118 Q1962.09 563.118 1959.89 563.535 Q1957.69 563.951 1955.05 564.831 L1955.05 560.664 Q1957.71 559.924 1960.03 559.553 Q1962.36 559.183 1964.42 559.183 Q1969.75 559.183 1972.85 561.613 Q1975.95 564.021 1975.95 568.141 Q1975.95 571.012 1974.31 573.002 Q1972.66 574.97 1969.63 575.734 Z" fill="#000000" fill-rule="evenodd" fill-opacity="1" /><path clip-path="url(#clip630)" d="M1995.63 562.887 Q1992.02 562.887 1990.19 566.451 Q1988.38 569.993 1988.38 577.123 Q1988.38 584.229 1990.19 587.794 Q1992.02 591.335 1995.63 591.335 Q1999.26 591.335 2001.07 587.794 Q2002.9 584.229 2002.9 577.123 Q2002.9 569.993 2001.07 566.451 Q1999.26 562.887 1995.63 562.887 M1995.63 559.183 Q2001.44 559.183 2004.49 563.789 Q2007.57 568.373 2007.57 577.123 Q2007.57 585.849 2004.49 590.456 Q2001.44 595.039 1995.63 595.039 Q1989.82 595.039 1986.74 590.456 Q1983.68 585.849 1983.68 577.123 Q1983.68 568.373 1986.74 563.789 Q1989.82 559.183 1995.63 559.183 Z" fill="#000000" fill-rule="evenodd" fill-opacity="1" /><path clip-path="url(#clip630)" d="M2025.79 562.887 Q2022.18 562.887 2020.35 566.451 Q2018.54 569.993 2018.54 577.123 Q2018.54 584.229 2020.35 587.794 Q2022.18 591.335 2025.79 591.335 Q2029.42 591.335 2031.23 587.794 Q2033.06 584.229 2033.06 577.123 Q2033.06 569.993 2031.23 566.451 Q2029.42 562.887 2025.79 562.887 M2025.79 559.183 Q2031.6 559.183 2034.65 563.789 Q2037.73 568.373 2037.73 577.123 Q2037.73 585.849 2034.65 590.456 Q2031.6 595.039 2025.79 595.039 Q2019.98 595.039 2016.9 590.456 Q2013.84 585.849 2013.84 577.123 Q2013.84 568.373 2016.9 563.789 Q2019.98 559.183 2025.79 559.183 Z" fill="#000000" fill-rule="evenodd" fill-opacity="1" /><path clip-path="url(#clip630)" d="M2553.22 563.882 L2541.42 582.331 L2553.22 582.331 L2553.22 563.882 M2552 559.808 L2557.88 559.808 L2557.88 582.331 L2562.81 582.331 L2562.81 586.22 L2557.88 586.22 L2557.88 594.368 L2553.22 594.368 L2553.22 586.22 L2537.62 586.22 L2537.62 581.706 L2552 559.808 Z" fill="#000000" fill-rule="evenodd" fill-opacity="1" /><path clip-path="url(#clip630)" d="M2580.54 562.887 Q2576.93 562.887 2575.1 566.451 Q2573.29 569.993 2573.29 577.123 Q2573.29 584.229 2575.1 587.794 Q2576.93 591.335 2580.54 591.335 Q2584.17 591.335 2585.98 587.794 Q2587.81 584.229 2587.81 577.123 Q2587.81 569.993 2585.98 566.451 Q2584.17 562.887 2580.54 562.887 M2580.54 559.183 Q2586.35 559.183 2589.4 563.789 Q2592.48 568.373 2592.48 577.123 Q2592.48 585.849 2589.4 590.456 Q2586.35 595.039 2580.54 595.039 Q2574.73 595.039 2571.65 590.456 Q2568.59 585.849 2568.59 577.123 Q2568.59 568.373 2571.65 563.789 Q2574.73 559.183 2580.54 559.183 Z" fill="#000000" fill-rule="evenodd" fill-opacity="1" /><path clip-path="url(#clip630)" d="M2610.7 562.887 Q2607.09 562.887 2605.26 566.451 Q2603.45 569.993 2603.45 577.123 Q2603.45 584.229 2605.26 587.794 Q2607.09 591.335 2610.7 591.335 Q2614.33 591.335 2616.14 587.794 Q2617.97 584.229 2617.97 577.123 Q2617.97 569.993 2616.14 566.451 Q2614.33 562.887 2610.7 562.887 M2610.7 559.183 Q2616.51 559.183 2619.57 563.789 Q2622.64 568.373 2622.64 577.123 Q2622.64 585.849 2619.57 590.456 Q2616.51 595.039 2610.7 595.039 Q2604.89 595.039 2601.81 590.456 Q2598.76 585.849 2598.76 577.123 Q2598.76 568.373 2601.81 563.789 Q2604.89 559.183 2610.7 559.183 Z" fill="#000000" fill-rule="evenodd" fill-opacity="1" /><path clip-path="url(#clip630)" d="M3124.01 559.808 L3142.37 559.808 L3142.37 563.743 L3128.3 563.743 L3128.3 572.215 Q3129.32 571.868 3130.33 571.706 Q3131.35 571.521 3132.37 571.521 Q3138.16 571.521 3141.54 574.692 Q3144.92 577.863 3144.92 583.28 Q3144.92 588.859 3141.44 591.96 Q3137.97 595.039 3131.65 595.039 Q3129.48 595.039 3127.21 594.669 Q3124.96 594.298 3122.56 593.558 L3122.56 588.859 Q3124.64 589.993 3126.86 590.548 Q3129.08 591.104 3131.56 591.104 Q3135.57 591.104 3137.9 588.998 Q3140.24 586.891 3140.24 583.28 Q3140.24 579.669 3137.9 577.562 Q3135.57 575.456 3131.56 575.456 Q3129.69 575.456 3127.81 575.873 Q3125.96 576.289 3124.01 577.169 L3124.01 559.808 Z" fill="#000000" fill-rule="evenodd" fill-opacity="1" /><path clip-path="url(#clip630)" d="M3164.13 562.887 Q3160.52 562.887 3158.69 566.451 Q3156.88 569.993 3156.88 577.123 Q3156.88 584.229 3158.69 587.794 Q3160.52 591.335 3164.13 591.335 Q3167.76 591.335 3169.57 587.794 Q3171.4 584.229 3171.4 577.123 Q3171.4 569.993 3169.57 566.451 Q3167.76 562.887 3164.13 562.887 M3164.13 559.183 Q3169.94 559.183 3173 563.789 Q3176.07 568.373 3176.07 577.123 Q3176.07 585.849 3173 590.456 Q3169.94 595.039 3164.13 595.039 Q3158.32 595.039 3155.24 590.456 Q3152.19 585.849 3152.19 577.123 Q3152.19 568.373 3155.24 563.789 Q3158.32 559.183 3164.13 559.183 Z" fill="#000000" fill-rule="evenodd" fill-opacity="1" /><path clip-path="url(#clip630)" d="M3194.29 562.887 Q3190.68 562.887 3188.85 566.451 Q3187.05 569.993 3187.05 577.123 Q3187.05 584.229 3188.85 587.794 Q3190.68 591.335 3194.29 591.335 Q3197.93 591.335 3199.73 587.794 Q3201.56 584.229 3201.56 577.123 Q3201.56 569.993 3199.73 566.451 Q3197.93 562.887 3194.29 562.887 M3194.29 559.183 Q3200.1 559.183 3203.16 563.789 Q3206.24 568.373 3206.24 577.123 Q3206.24 585.849 3203.16 590.456 Q3200.1 595.039 3194.29 595.039 Q3188.48 595.039 3185.4 590.456 Q3182.35 585.849 3182.35 577.123 Q3182.35 568.373 3185.4 563.789 Q3188.48 559.183 3194.29 559.183 Z" fill="#000000" fill-rule="evenodd" fill-opacity="1" /><polyline clip-path="url(#clip632)" style="stroke:#000000; stroke-linecap:round; stroke-linejoin:round; stroke-width:2; stroke-opacity:0.1; fill:none" points="152.696,449.645 3552.76,449.645 "/>
<polyline clip-path="url(#clip632)" style="stroke:#000000; stroke-linecap:round; stroke-linejoin:round; stroke-width:2; stroke-opacity:0.1; fill:none" points="152.696,328.44 3552.76,328.44 "/>
<polyline clip-path="url(#clip632)" style="stroke:#000000; stroke-linecap:round; stroke-linejoin:round; stroke-width:2; stroke-opacity:0.1; fill:none" points="152.696,207.235 3552.76,207.235 "/>
<polyline clip-path="url(#clip632)" style="stroke:#000000; stroke-linecap:round; stroke-linejoin:round; stroke-width:2; stroke-opacity:0.1; fill:none" points="152.696,86.0297 3552.76,86.0297 "/>
<polyline clip-path="url(#clip630)" style="stroke:#000000; stroke-linecap:round; stroke-linejoin:round; stroke-width:4; stroke-opacity:1; fill:none" points="152.696,522.368 152.696,47.2441 "/>
<polyline clip-path="url(#clip630)" style="stroke:#000000; stroke-linecap:round; stroke-linejoin:round; stroke-width:4; stroke-opacity:1; fill:none" points="152.696,449.645 171.593,449.645 "/>
<polyline clip-path="url(#clip630)" style="stroke:#000000; stroke-linecap:round; stroke-linejoin:round; stroke-width:4; stroke-opacity:1; fill:none" points="152.696,328.44 171.593,328.44 "/>
<polyline clip-path="url(#clip630)" style="stroke:#000000; stroke-linecap:round; stroke-linejoin:round; stroke-width:4; stroke-opacity:1; fill:none" points="152.696,207.235 171.593,207.235 "/>
<polyline clip-path="url(#clip630)" style="stroke:#000000; stroke-linecap:round; stroke-linejoin:round; stroke-width:4; stroke-opacity:1; fill:none" points="152.696,86.0297 171.593,86.0297 "/>
<path clip-path="url(#clip630)" d="M77.7929 432.365 L96.1493 432.365 L96.1493 436.3 L82.0753 436.3 L82.0753 444.772 Q83.0938 444.425 84.1123 444.263 Q85.1308 444.078 86.1493 444.078 Q91.9363 444.078 95.3159 447.249 Q98.6955 450.42 98.6955 455.837 Q98.6955 461.416 95.2233 464.517 Q91.7511 467.596 85.4317 467.596 Q83.2558 467.596 80.9873 467.226 Q78.7419 466.855 76.3346 466.115 L76.3346 461.416 Q78.4179 462.55 80.6401 463.105 Q82.8623 463.661 85.3391 463.661 Q89.3437 463.661 91.6817 461.555 Q94.0196 459.448 94.0196 455.837 Q94.0196 452.226 91.6817 450.119 Q89.3437 448.013 85.3391 448.013 Q83.4641 448.013 81.5892 448.43 Q79.7373 448.846 77.7929 449.726 L77.7929 432.365 Z" fill="#000000" fill-rule="evenodd" fill-opacity="1" /><path clip-path="url(#clip630)" d="M47.3995 341.785 L55.0384 341.785 L55.0384 315.419 L46.7282 317.086 L46.7282 312.826 L54.9921 311.16 L59.668 311.16 L59.668 341.785 L67.3068 341.785 L67.3068 345.72 L47.3995 345.72 L47.3995 341.785 Z" fill="#000000" fill-rule="evenodd" fill-opacity="1" /><path clip-path="url(#clip630)" d="M86.7512 314.238 Q83.1401 314.238 81.3114 317.803 Q79.5058 321.345 79.5058 328.475 Q79.5058 335.581 81.3114 339.146 Q83.1401 342.687 86.7512 342.687 Q90.3854 342.687 92.1909 339.146 Q94.0196 335.581 94.0196 328.475 Q94.0196 321.345 92.1909 317.803 Q90.3854 314.238 86.7512 314.238 M86.7512 310.535 Q92.5613 310.535 95.6169 315.141 Q98.6955 319.725 98.6955 328.475 Q98.6955 337.201 95.6169 341.808 Q92.5613 346.391 86.7512 346.391 Q80.941 346.391 77.8623 341.808 Q74.8068 337.201 74.8068 328.475 Q74.8068 319.725 77.8623 315.141 Q80.941 310.535 86.7512 310.535 Z" fill="#000000" fill-rule="evenodd" fill-opacity="1" /><path clip-path="url(#clip630)" d="M48.3949 220.58 L56.0337 220.58 L56.0337 194.214 L47.7236 195.881 L47.7236 191.621 L55.9874 189.955 L60.6633 189.955 L60.6633 220.58 L68.3022 220.58 L68.3022 224.515 L48.3949 224.515 L48.3949 220.58 Z" fill="#000000" fill-rule="evenodd" fill-opacity="1" /><path clip-path="url(#clip630)" d="M77.7929 189.955 L96.1493 189.955 L96.1493 193.89 L82.0753 193.89 L82.0753 202.362 Q83.0938 202.015 84.1123 201.853 Q85.1308 201.668 86.1493 201.668 Q91.9363 201.668 95.3159 204.839 Q98.6955 208.01 98.6955 213.427 Q98.6955 219.006 95.2233 222.107 Q91.7511 225.186 85.4317 225.186 Q83.2558 225.186 80.9873 224.816 Q78.7419 224.445 76.3346 223.705 L76.3346 219.006 Q78.4179 220.14 80.6401 220.695 Q82.8623 221.251 85.3391 221.251 Q89.3437 221.251 91.6817 219.144 Q94.0196 217.038 94.0196 213.427 Q94.0196 209.816 91.6817 207.709 Q89.3437 205.603 85.3391 205.603 Q83.4641 205.603 81.5892 206.019 Q79.7373 206.436 77.7929 207.316 L77.7929 189.955 Z" fill="#000000" fill-rule="evenodd" fill-opacity="1" /><path clip-path="url(#clip630)" d="M50.6171 99.3745 L66.9365 99.3745 L66.9365 103.31 L44.9921 103.31 L44.9921 99.3745 Q47.6541 96.6199 52.2375 91.9903 Q56.8439 87.3376 58.0245 85.995 Q60.2698 83.4719 61.1494 81.7358 Q62.0522 79.9765 62.0522 78.2867 Q62.0522 75.5321 60.1078 73.796 Q58.1865 72.0599 55.0847 72.0599 Q52.8856 72.0599 50.4319 72.8238 Q48.0014 73.5876 45.2236 75.1386 L45.2236 70.4164 Q48.0477 69.2821 50.5014 68.7034 Q52.955 68.1247 54.9921 68.1247 Q60.3624 68.1247 63.5568 70.8099 Q66.7513 73.4951 66.7513 77.9858 Q66.7513 80.1154 65.9411 82.0367 Q65.1541 83.9348 63.0476 86.5274 Q62.4689 87.1987 59.367 90.4163 Q56.2652 93.6107 50.6171 99.3745 Z" fill="#000000" fill-rule="evenodd" fill-opacity="1" /><path clip-path="url(#clip630)" d="M86.7512 71.8284 Q83.1401 71.8284 81.3114 75.3932 Q79.5058 78.9348 79.5058 86.0644 Q79.5058 93.1709 81.3114 96.7357 Q83.1401 100.277 86.7512 100.277 Q90.3854 100.277 92.1909 96.7357 Q94.0196 93.1709 94.0196 86.0644 Q94.0196 78.9348 92.1909 75.3932 Q90.3854 71.8284 86.7512 71.8284 M86.7512 68.1247 Q92.5613 68.1247 95.6169 72.7312 Q98.6955 77.3145 98.6955 86.0644 Q98.6955 94.7912 95.6169 99.3977 Q92.5613 103.981 86.7512 103.981 Q80.941 103.981 77.8623 99.3977 Q74.8068 94.7912 74.8068 86.0644 Q74.8068 77.3145 77.8623 72.7312 Q80.941 68.1247 86.7512 68.1247 Z" fill="#000000" fill-rule="evenodd" fill-opacity="1" /><polyline clip-path="url(#clip632)" style="stroke:#009af9; stroke-linecap:round; stroke-linejoin:round; stroke-width:2; stroke-opacity:1; fill:none" points="248.924,448.384 254.766,405.949 260.609,429.154 266.452,414.731 272.294,401.408 278.137,412.866 283.979,455.753 289.822,441.978 295.665,442.726 301.507,409.525 307.35,409.267 313.193,425.597 319.035,416.179 324.878,372.297 330.72,389.077 336.563,374.307 342.406,438.579 348.248,370.382 354.091,332.856 359.934,333.906 365.776,326.755 371.619,330.703 377.462,374.538 383.304,372.163 389.147,402.115 394.989,450.807 400.832,457.442 406.675,446.941 412.517,377.997 418.36,362.42 424.203,359.893 430.045,387.142 435.888,413.448 441.73,406.531 447.573,413.456 453.416,407.683 459.258,459.757 465.101,451.048 470.944,419.144 476.786,443.124 482.629,393.524 488.472,338.274 494.314,327.722 500.157,334.954 505.999,324.205 511.842,336.065 517.685,323.563 523.527,328.708 529.37,332.882 535.213,316.062 541.055,317.637 546.898,355.941 552.74,392.617 558.583,387.163 564.426,447.715 570.268,407.759 576.111,390.575 581.954,365.215 587.796,342.285 593.639,320.754 599.481,331.619 605.324,323.865 611.167,335.474 617.009,320.942 622.852,332.162 628.695,310.315 634.537,338.29 640.38,317.843 646.223,329.119 652.065,370.151 657.908,384.127 663.75,397.319 669.593,394.447 675.436,419.567 681.278,388.44 687.121,316.758 692.964,341.783 698.806,323.082 704.649,331.227 710.491,333.977 716.334,324.682 722.177,342.567 728.019,326.676 733.862,341.392 739.705,328.979 745.547,349.909 751.39,362.808 757.233,366.57 763.075,372.135 768.918,398.582 774.76,382.137 780.603,380.273 786.446,344.327 792.288,349.296 798.131,376.781 803.974,440.578 809.816,409.107 815.659,360.696 821.501,376.162 827.344,335.405 833.187,334.35 839.029,326.239 844.872,336.013 850.715,333.469 856.557,398.29 862.4,407.282 868.242,392.873 874.085,364.092 879.928,415.264 885.77,393.517 891.613,378.682 897.456,342.888 903.298,430.747 909.141,443.476 914.984,411.734 920.826,398.548 926.669,424.623 932.511,458.217 938.354,437.832 944.197,446.571 950.039,447.086 955.882,424.848 961.725,403.944 967.567,344.794 973.41,399.79 979.252,426.803 985.095,450.682 990.938,469.418 996.78,402.255 1002.62,385.409 1008.47,335.999 1014.31,310.969 1020.15,320.074 1025.99,334.313 1031.84,321.601 1037.68,342.593 1043.52,306.66 1049.36,334.849 1055.21,313.455 1061.05,331.127 1066.89,322.554 1072.73,329.846 1078.58,335.866 1084.42,340.79 1090.26,345.37 1096.11,316.524 1101.95,322.855 1107.79,334.912 1113.63,326.358 1119.48,325.299 1125.32,350.833 1131.16,365.237 1137,316.426 1142.85,335.798 1148.69,320.394 1154.53,331.207 1160.37,324.802 1166.22,318.003 1172.06,333.365 1177.9,322.388 1183.74,319.271 1189.59,332.824 1195.43,322.653 1201.27,334.362 1207.12,342.243 1212.96,325.851 1218.8,328.113 1224.64,326.314 1230.49,330.296 1236.33,320.021 1242.17,334.556 1248.01,337.045 1253.86,324.482 1259.7,334.885 1265.54,330.302 1271.38,327.399 1277.23,338.518 1283.07,328.617 1288.91,311.597 1294.75,342.807 1300.6,325.177 1306.44,327.762 1312.28,328.883 1318.13,312.321 1323.97,322.098 1329.81,323.723 1335.65,330.436 1341.5,329.468 1347.34,335.337 1353.18,320.856 1359.02,341.442 1364.87,312.469 1370.71,345.759 1376.55,342.911 1382.39,318.5 1388.24,339.789 1394.08,365.187 1399.92,344.027 1405.76,322.204 1411.61,335.953 1417.45,318.479 1423.29,328.294 1429.14,332.454 1434.98,321.472 1440.82,321.04 1446.66,334.766 1452.51,317.08 1458.35,342.16 1464.19,316.851 1470.03,342.557 1475.88,328.536 1481.72,327.436 1487.56,321.125 1493.4,334.483 1499.25,326.788 1505.09,317.408 1510.93,330.248 1516.77,316.116 1522.62,315.28 1528.46,313.805 1534.3,313.293 1540.14,314.669 1545.99,335.294 1551.83,319.456 1557.67,325.533 1563.52,321.418 1569.36,335.934 1575.2,321.819 1581.04,330.833 1586.89,332.827 1592.73,311.093 1598.57,345.995 1604.41,314.755 1610.26,320.031 1616.1,334.972 1621.94,319.385 1627.78,330.389 1633.63,327.588 1639.47,330.501 1645.31,331.27 1651.15,324.002 1657,339.76 1662.84,306.01 1668.68,338.966 1674.53,330.926 1680.37,317.343 1686.21,344.805 1692.05,315.84 1697.9,339.294 1703.74,317.857 1709.58,322.659 1715.42,321.952 1721.27,323.865 1727.11,320.97 1732.95,316.993 1738.79,327.987 1744.64,328.55 1750.48,327.861 1756.32,333.956 1762.16,320.811 1768.01,356.976 1773.85,419.67 1779.69,422.611 1785.54,449.681 1791.38,452.741 1797.22,438.93 1803.06,462.727 1808.91,465.275 1814.75,418.8 1820.59,416.496 1826.43,387.236 1832.28,369.223 1838.12,373.898 1843.96,351.743 1849.8,413.026 1855.65,427.961 1861.49,442.524 1867.33,446.911 1873.17,473.018 1879.02,458.559 1884.86,463.958 1890.7,461.23 1896.55,437.374 1902.39,432.104 1908.23,415.261 1914.07,414.678 1919.92,440.51 1925.76,452.801 1931.6,441.339 1937.44,451.647 1943.29,460.278 1949.13,456.432 1954.97,460.363 1960.81,421.395 1966.66,427.787 1972.5,358.043 1978.34,410.889 1984.18,390.252 1990.03,414.032 1995.87,334.739 2001.71,335.852 2007.56,335.415 2013.4,322.335 2019.24,325.608 2025.08,338.546 2030.93,326.924 2036.77,318.509 2042.61,339.87 2048.45,315.388 2054.3,337.28 2060.14,309.899 2065.98,341.176 2071.82,314.708 2077.67,348.777 2083.51,319.292 2089.35,348.258 2095.19,347.371 2101.04,355.861 2106.88,324.959 2112.72,327.135 2118.57,326.295 2124.41,315.557 2130.25,324.943 2136.09,324.221 2141.94,319.755 2147.78,315.885 2153.62,339.255 2159.46,310.506 2165.31,333.223 2171.15,332.332 2176.99,334.278 2182.83,332.702 2188.68,322.515 2194.52,319.372 2200.36,323.151 2206.2,330.09 2212.05,331.217 2217.89,320.191 2223.73,329.799 2229.58,330.496 2235.42,338.057 2241.26,325.999 2247.1,342.313 2252.95,314.799 2258.79,343.328 2264.63,313.761 2270.47,335.623 2276.32,327.942 2282.16,340.401 2288,325.595 2293.84,327.708 2299.69,321.39 2305.53,330.488 2311.37,318.139 2317.21,312.686 2323.06,318.168 2328.9,349.594 2334.74,341.793 2340.59,322.236 2346.43,335.722 2352.27,361.469 2358.11,362.55 2363.96,317.997 2369.8,350.578 2375.64,324.281 2381.48,333.291 2387.33,343.035 2393.17,346.667 2399.01,396.426 2404.85,391.374 2410.7,395.242 2416.54,411.099 2422.38,397.609 2428.22,395.916 2434.07,423.76 2439.91,421.452 2445.75,398.771 2451.6,420.027 2457.44,426.948 2463.28,473.084 2469.12,465.295 2474.97,459.732 2480.81,451.396 2486.65,457.45 2492.49,361.802 2498.34,346.921 2504.18,336.605 2510.02,371.673 2515.86,387.512 2521.71,368.941 2527.55,403.394 2533.39,418.715 2539.23,472.97 2545.08,478.398 2550.92,387.213 2556.76,408.628 2562.61,438.312 2568.45,426.619 2574.29,430.788 2580.13,433.882 2585.98,453.551 2591.82,444.813 2597.66,472.505 2603.5,414.856 2609.35,468.521 2615.19,417.443 2621.03,391.035 2626.87,399.558 2632.72,415.538 2638.56,416.388 2644.4,411.311 2650.24,453.308 2656.09,457.121 2661.93,448.19 2667.77,493.31 2673.62,482.169 2679.46,433.11 2685.3,426.81 2691.14,429.75 2696.99,436.777 2702.83,446.852 2708.67,473.231 2714.51,439.693 2720.36,446.426 2726.2,454.002 2732.04,419.083 2737.88,385.29 2743.73,412.981 2749.57,371.738 2755.41,420.292 2761.25,419.102 2767.1,399.985 2772.94,367.87 2778.78,379.33 2784.63,434.093 2790.47,469.34 2796.31,451.823 2802.15,355.945 2808,346.423 2813.84,344.678 2819.68,344.087 2825.52,342.668 2831.37,457.685 2837.21,426.713 2843.05,407.084 2848.89,415.984 2854.74,417.031 2860.58,413.068 2866.42,413.642 2872.26,412.401 2878.11,385.782 2883.95,333.51 2889.79,346.799 2895.64,345.982 2901.48,351.865 2907.32,360.547 2913.16,423.154 2919.01,441.868 2924.85,418.213 2930.69,415.279 2936.53,424.179 2942.38,351.268 2948.22,433.428 2954.06,394.37 2959.9,390.022 2965.75,336.61 2971.59,321.235 2977.43,332.957 2983.27,326.602 2989.12,329.609 2994.96,321.906 3000.8,342.623 3006.65,321.193 3012.49,349.093 3018.33,319.591 3024.17,332.622 3030.02,327.932 3035.86,338.355 3041.7,317.51 3047.54,402.946 3053.39,417.67 3059.23,407.212 3065.07,420.854 3070.91,401.077 3076.76,354.003 3082.6,358.141 3088.44,325.697 3094.28,334.683 3100.13,342.884 3105.97,314.809 3111.81,334.444 3117.66,316.642 3123.5,339.452 3129.34,330.97 3135.18,326.216 3141.03,325.837 3146.87,329.241 3152.71,333.121 3158.55,323.707 3164.4,336.003 3170.24,314.808 3176.08,335.966 3181.92,332.352 3187.77,319.164 3193.61,342.662 3199.45,316.904 3205.29,341.002 3211.14,323.29 3216.98,345.122 3222.82,334.557 3228.67,347.647 3234.51,380.824 3240.35,330.403 3246.19,375.032 3252.04,386.408 3257.88,395.139 3263.72,373.132 3269.56,347.851 3275.41,329.052 3281.25,329.879 3287.09,327.393 3292.93,339.808 3298.78,325.333 3304.62,309.799 3310.46,350.402 3316.3,437.539 3322.15,410.779 3327.99,452.64 3333.83,480.863 3339.68,470.743 3345.52,434.12 3351.36,415.032 3357.2,408.093 3363.05,410.635 3368.89,386.376 3374.73,366.286 3380.57,375.841 3386.42,363.9 3392.26,401.302 3398.1,389.989 3403.94,439.599 3409.79,482.994 3415.63,484.297 3421.47,464.477 3427.31,425.58 3433.16,446.73 3439,436.109 3444.84,435.312 3450.69,419.212 3456.53,453.896 "/>
<path clip-path="url(#clip630)" d="M2947.03 166.762 L3439.42 166.762 L3439.42 63.0816 L2947.03 63.0816  Z" fill="#ffffff" fill-rule="evenodd" fill-opacity="1"/>
<polyline clip-path="url(#clip630)" style="stroke:#000000; stroke-linecap:round; stroke-linejoin:round; stroke-width:4; stroke-opacity:1; fill:none" points="2947.03,166.762 3439.42,166.762 3439.42,63.0816 2947.03,63.0816 2947.03,166.762 "/>
<polyline clip-path="url(#clip630)" style="stroke:#009af9; stroke-linecap:round; stroke-linejoin:round; stroke-width:2; stroke-opacity:1; fill:none" points="2984.81,114.922 3211.48,114.922 "/>
<path clip-path="url(#clip630)" d="M3249.26 97.6416 L3253.98 97.6416 L3261.25 126.854 L3268.49 97.6416 L3273.75 97.6416 L3281.02 126.854 L3288.26 97.6416 L3293.01 97.6416 L3284.33 132.202 L3278.45 132.202 L3271.16 102.202 L3263.8 132.202 L3257.92 132.202 L3249.26 97.6416 Z" fill="#000000" fill-rule="evenodd" fill-opacity="1" /><path clip-path="url(#clip630)" d="M3299.21 97.6416 L3303.89 97.6416 L3303.89 111.808 L3320.88 111.808 L3320.88 97.6416 L3325.55 97.6416 L3325.55 132.202 L3320.88 132.202 L3320.88 115.743 L3303.89 115.743 L3303.89 132.202 L3299.21 132.202 L3299.21 97.6416 Z" fill="#000000" fill-rule="evenodd" fill-opacity="1" /><path clip-path="url(#clip630)" d="M3334.86 97.6416 L3341.83 97.6416 L3350.65 121.16 L3359.51 97.6416 L3366.48 97.6416 L3366.48 132.202 L3361.92 132.202 L3361.92 101.854 L3353.01 125.558 L3348.31 125.558 L3339.4 101.854 L3339.4 132.202 L3334.86 132.202 L3334.86 97.6416 Z" fill="#000000" fill-rule="evenodd" fill-opacity="1" /><path clip-path="url(#clip630)" d="M3401.64 100.304 L3401.64 105.234 Q3399.28 103.035 3396.6 101.947 Q3393.93 100.859 3390.92 100.859 Q3385 100.859 3381.85 104.493 Q3378.7 108.104 3378.7 114.956 Q3378.7 121.785 3381.85 125.419 Q3385 129.03 3390.92 129.03 Q3393.93 129.03 3396.6 127.942 Q3399.28 126.854 3401.64 124.655 L3401.64 129.54 Q3399.19 131.206 3396.43 132.04 Q3393.7 132.873 3390.65 132.873 Q3382.8 132.873 3378.29 128.081 Q3373.77 123.266 3373.77 114.956 Q3373.77 106.623 3378.29 101.831 Q3382.8 97.0166 3390.65 97.0166 Q3393.75 97.0166 3396.48 97.8499 Q3399.23 98.6601 3401.64 100.304 Z" fill="#000000" fill-rule="evenodd" fill-opacity="1" /></svg>
