<?xml version="1.0" encoding="utf-8"?>
<svg xmlns="http://www.w3.org/2000/svg" xmlns:xlink="http://www.w3.org/1999/xlink" width="900" height="150" viewBox="0 0 3600 600">
<defs>
  <clipPath id="clip480">
    <rect x="0" y="0" width="3600" height="600"/>
  </clipPath>
</defs>
<path clip-path="url(#clip480)" d="M0 600 L3600 600 L3600 0 L0 0  Z" fill="#ffffff" fill-rule="evenodd" fill-opacity="1"/>
<defs>
  <clipPath id="clip481">
    <rect x="720" y="0" width="2521" height="600"/>
  </clipPath>
</defs>
<path clip-path="url(#clip480)" d="M152.696 522.368 L3552.76 522.368 L3552.76 47.2441 L152.696 47.2441  Z" fill="#ffffff" fill-rule="evenodd" fill-opacity="1"/>
<defs>
  <clipPath id="clip482">
    <rect x="152" y="47" width="3401" height="476"/>
  </clipPath>
</defs>
<polyline clip-path="url(#clip482)" style="stroke:#000000; stroke-linecap:round; stroke-linejoin:round; stroke-width:2; stroke-opacity:0.1; fill:none" points="247.666,522.368 247.666,47.2441 "/>
<polyline clip-path="url(#clip482)" style="stroke:#000000; stroke-linecap:round; stroke-linejoin:round; stroke-width:2; stroke-opacity:0.1; fill:none" points="876.362,522.368 876.362,47.2441 "/>
<polyline clip-path="url(#clip482)" style="stroke:#000000; stroke-linecap:round; stroke-linejoin:round; stroke-width:2; stroke-opacity:0.1; fill:none" points="1505.06,522.368 1505.06,47.2441 "/>
<polyline clip-path="url(#clip482)" style="stroke:#000000; stroke-linecap:round; stroke-linejoin:round; stroke-width:2; stroke-opacity:0.1; fill:none" points="2133.75,522.368 2133.75,47.2441 "/>
<polyline clip-path="url(#clip482)" style="stroke:#000000; stroke-linecap:round; stroke-linejoin:round; stroke-width:2; stroke-opacity:0.1; fill:none" points="2762.45,522.368 2762.45,47.2441 "/>
<polyline clip-path="url(#clip482)" style="stroke:#000000; stroke-linecap:round; stroke-linejoin:round; stroke-width:2; stroke-opacity:0.1; fill:none" points="3391.14,522.368 3391.14,47.2441 "/>
<polyline clip-path="url(#clip480)" style="stroke:#000000; stroke-linecap:round; stroke-linejoin:round; stroke-width:4; stroke-opacity:1; fill:none" points="152.696,522.368 3552.76,522.368 "/>
<polyline clip-path="url(#clip480)" style="stroke:#000000; stroke-linecap:round; stroke-linejoin:round; stroke-width:4; stroke-opacity:1; fill:none" points="247.666,522.368 247.666,503.47 "/>
<polyline clip-path="url(#clip480)" style="stroke:#000000; stroke-linecap:round; stroke-linejoin:round; stroke-width:4; stroke-opacity:1; fill:none" points="876.362,522.368 876.362,503.47 "/>
<polyline clip-path="url(#clip480)" style="stroke:#000000; stroke-linecap:round; stroke-linejoin:round; stroke-width:4; stroke-opacity:1; fill:none" points="1505.06,522.368 1505.06,503.47 "/>
<polyline clip-path="url(#clip480)" style="stroke:#000000; stroke-linecap:round; stroke-linejoin:round; stroke-width:4; stroke-opacity:1; fill:none" points="2133.75,522.368 2133.75,503.47 "/>
<polyline clip-path="url(#clip480)" style="stroke:#000000; stroke-linecap:round; stroke-linejoin:round; stroke-width:4; stroke-opacity:1; fill:none" points="2762.45,522.368 2762.45,503.47 "/>
<polyline clip-path="url(#clip480)" style="stroke:#000000; stroke-linecap:round; stroke-linejoin:round; stroke-width:4; stroke-opacity:1; fill:none" points="3391.14,522.368 3391.14,503.47 "/>
<path clip-path="url(#clip480)" d="M247.666 562.887 Q244.055 562.887 242.226 566.451 Q240.421 569.993 240.421 577.123 Q240.421 584.229 242.226 587.794 Q244.055 591.335 247.666 591.335 Q251.301 591.335 253.106 587.794 Q254.935 584.229 254.935 577.123 Q254.935 569.993 253.106 566.451 Q251.301 562.887 247.666 562.887 M247.666 559.183 Q253.476 559.183 256.532 563.789 Q259.611 568.373 259.611 577.123 Q259.611 585.849 256.532 590.456 Q253.476 595.039 247.666 595.039 Q241.856 595.039 238.777 590.456 Q235.722 585.849 235.722 577.123 Q235.722 568.373 238.777 563.789 Q241.856 559.183 247.666 559.183 Z" fill="#000000" fill-rule="evenodd" fill-opacity="1" /><path clip-path="url(#clip480)" d="M835.98 559.808 L854.336 559.808 L854.336 563.743 L840.262 563.743 L840.262 572.215 Q841.281 571.868 842.299 571.706 Q843.318 571.521 844.336 571.521 Q850.123 571.521 853.503 574.692 Q856.883 577.863 856.883 583.28 Q856.883 588.859 853.41 591.96 Q849.938 595.039 843.619 595.039 Q841.443 595.039 839.174 594.669 Q836.929 594.298 834.522 593.558 L834.522 588.859 Q836.605 589.993 838.827 590.548 Q841.049 591.104 843.526 591.104 Q847.531 591.104 849.869 588.998 Q852.207 586.891 852.207 583.28 Q852.207 579.669 849.869 577.562 Q847.531 575.456 843.526 575.456 Q841.651 575.456 839.776 575.873 Q837.924 576.289 835.98 577.169 L835.98 559.808 Z" fill="#000000" fill-rule="evenodd" fill-opacity="1" /><path clip-path="url(#clip480)" d="M876.096 562.887 Q872.484 562.887 870.656 566.451 Q868.85 569.993 868.85 577.123 Q868.85 584.229 870.656 587.794 Q872.484 591.335 876.096 591.335 Q879.73 591.335 881.535 587.794 Q883.364 584.229 883.364 577.123 Q883.364 569.993 881.535 566.451 Q879.73 562.887 876.096 562.887 M876.096 559.183 Q881.906 559.183 884.961 563.789 Q888.04 568.373 888.04 577.123 Q888.04 585.849 884.961 590.456 Q881.906 595.039 876.096 595.039 Q870.285 595.039 867.207 590.456 Q864.151 585.849 864.151 577.123 Q864.151 568.373 867.207 563.789 Q870.285 559.183 876.096 559.183 Z" fill="#000000" fill-rule="evenodd" fill-opacity="1" /><path clip-path="url(#clip480)" d="M906.257 562.887 Q902.646 562.887 900.818 566.451 Q899.012 569.993 899.012 577.123 Q899.012 584.229 900.818 587.794 Q902.646 591.335 906.257 591.335 Q909.892 591.335 911.697 587.794 Q913.526 584.229 913.526 577.123 Q913.526 569.993 911.697 566.451 Q909.892 562.887 906.257 562.887 M906.257 559.183 Q912.068 559.183 915.123 563.789 Q918.202 568.373 918.202 577.123 Q918.202 585.849 915.123 590.456 Q912.068 595.039 906.257 595.039 Q900.447 595.039 897.369 590.456 Q894.313 585.849 894.313 577.123 Q894.313 568.373 897.369 563.789 Q900.447 559.183 906.257 559.183 Z" fill="#000000" fill-rule="evenodd" fill-opacity="1" /><path clip-path="url(#clip480)" d="M1449.58 590.433 L1457.22 590.433 L1457.22 564.067 L1448.91 565.734 L1448.91 561.475 L1457.18 559.808 L1461.85 559.808 L1461.85 590.433 L1469.49 590.433 L1469.49 594.368 L1449.58 594.368 L1449.58 590.433 Z" fill="#000000" fill-rule="evenodd" fill-opacity="1" /><path clip-path="url(#clip480)" d="M1488.93 562.887 Q1485.32 562.887 1483.49 566.451 Q1481.69 569.993 1481.69 577.123 Q1481.69 584.229 1483.49 587.794 Q1485.32 591.335 1488.93 591.335 Q1492.57 591.335 1494.37 587.794 Q1496.2 584.229 1496.2 577.123 Q1496.2 569.993 1494.37 566.451 Q1492.57 562.887 1488.93 562.887 M1488.93 559.183 Q1494.74 559.183 1497.8 563.789 Q1500.88 568.373 1500.88 577.123 Q1500.88 585.849 1497.8 590.456 Q1494.74 595.039 1488.93 595.039 Q1483.12 595.039 1480.05 590.456 Q1476.99 585.849 1476.99 577.123 Q1476.99 568.373 1480.05 563.789 Q1483.12 559.183 1488.93 559.183 Z" fill="#000000" fill-rule="evenodd" fill-opacity="1" /><path clip-path="url(#clip480)" d="M1519.1 562.887 Q1515.49 562.887 1513.66 566.451 Q1511.85 569.993 1511.85 577.123 Q1511.85 584.229 1513.66 587.794 Q1515.49 591.335 1519.1 591.335 Q1522.73 591.335 1524.54 587.794 Q1526.36 584.229 1526.36 577.123 Q1526.36 569.993 1524.54 566.451 Q1522.73 562.887 1519.1 562.887 M1519.1 559.183 Q1524.91 559.183 1527.96 563.789 Q1531.04 568.373 1531.04 577.123 Q1531.04 585.849 1527.96 590.456 Q1524.91 595.039 1519.1 595.039 Q1513.29 595.039 1510.21 590.456 Q1507.15 585.849 1507.15 577.123 Q1507.15 568.373 1510.21 563.789 Q1513.29 559.183 1519.1 559.183 Z" fill="#000000" fill-rule="evenodd" fill-opacity="1" /><path clip-path="url(#clip480)" d="M1549.26 562.887 Q1545.65 562.887 1543.82 566.451 Q1542.01 569.993 1542.01 577.123 Q1542.01 584.229 1543.82 587.794 Q1545.65 591.335 1549.26 591.335 Q1552.89 591.335 1554.7 587.794 Q1556.53 584.229 1556.53 577.123 Q1556.53 569.993 1554.7 566.451 Q1552.89 562.887 1549.26 562.887 M1549.26 559.183 Q1555.07 559.183 1558.12 563.789 Q1561.2 568.373 1561.2 577.123 Q1561.2 585.849 1558.12 590.456 Q1555.07 595.039 1549.26 595.039 Q1543.45 595.039 1540.37 590.456 Q1537.31 585.849 1537.31 577.123 Q1537.31 568.373 1540.37 563.789 Q1543.45 559.183 1549.26 559.183 Z" fill="#000000" fill-rule="evenodd" fill-opacity="1" /><path clip-path="url(#clip480)" d="M2078.28 590.433 L2085.92 590.433 L2085.92 564.067 L2077.61 565.734 L2077.61 561.475 L2085.87 559.808 L2090.55 559.808 L2090.55 590.433 L2098.19 590.433 L2098.19 594.368 L2078.28 594.368 L2078.28 590.433 Z" fill="#000000" fill-rule="evenodd" fill-opacity="1" /><path clip-path="url(#clip480)" d="M2107.68 559.808 L2126.03 559.808 L2126.03 563.743 L2111.96 563.743 L2111.96 572.215 Q2112.98 571.868 2114 571.706 Q2115.01 571.521 2116.03 571.521 Q2121.82 571.521 2125.2 574.692 Q2128.58 577.863 2128.58 583.28 Q2128.58 588.859 2125.11 591.96 Q2121.63 595.039 2115.32 595.039 Q2113.14 595.039 2110.87 594.669 Q2108.63 594.298 2106.22 593.558 L2106.22 588.859 Q2108.3 589.993 2110.52 590.548 Q2112.75 591.104 2115.22 591.104 Q2119.23 591.104 2121.57 588.998 Q2123.9 586.891 2123.9 583.28 Q2123.9 579.669 2121.57 577.562 Q2119.23 575.456 2115.22 575.456 Q2113.35 575.456 2111.47 575.873 Q2109.62 576.289 2107.68 577.169 L2107.68 559.808 Z" fill="#000000" fill-rule="evenodd" fill-opacity="1" /><path clip-path="url(#clip480)" d="M2147.79 562.887 Q2144.18 562.887 2142.35 566.451 Q2140.55 569.993 2140.55 577.123 Q2140.55 584.229 2142.35 587.794 Q2144.18 591.335 2147.79 591.335 Q2151.43 591.335 2153.23 587.794 Q2155.06 584.229 2155.06 577.123 Q2155.06 569.993 2153.23 566.451 Q2151.43 562.887 2147.79 562.887 M2147.79 559.183 Q2153.6 559.183 2156.66 563.789 Q2159.74 568.373 2159.74 577.123 Q2159.74 585.849 2156.66 590.456 Q2153.6 595.039 2147.79 595.039 Q2141.98 595.039 2138.9 590.456 Q2135.85 585.849 2135.85 577.123 Q2135.85 568.373 2138.9 563.789 Q2141.98 559.183 2147.79 559.183 Z" fill="#000000" fill-rule="evenodd" fill-opacity="1" /><path clip-path="url(#clip480)" d="M2177.95 562.887 Q2174.34 562.887 2172.51 566.451 Q2170.71 569.993 2170.71 577.123 Q2170.71 584.229 2172.51 587.794 Q2174.34 591.335 2177.95 591.335 Q2181.59 591.335 2183.39 587.794 Q2185.22 584.229 2185.22 577.123 Q2185.22 569.993 2183.39 566.451 Q2181.59 562.887 2177.95 562.887 M2177.95 559.183 Q2183.76 559.183 2186.82 563.789 Q2189.9 568.373 2189.9 577.123 Q2189.9 585.849 2186.82 590.456 Q2183.76 595.039 2177.95 595.039 Q2172.14 595.039 2169.06 590.456 Q2166.01 585.849 2166.01 577.123 Q2166.01 568.373 2169.06 563.789 Q2172.14 559.183 2177.95 559.183 Z" fill="#000000" fill-rule="evenodd" fill-opacity="1" /><path clip-path="url(#clip480)" d="M2711.06 590.433 L2727.38 590.433 L2727.38 594.368 L2705.43 594.368 L2705.43 590.433 Q2708.1 587.678 2712.68 583.048 Q2717.29 578.396 2718.47 577.053 Q2720.71 574.53 2721.59 572.794 Q2722.49 571.035 2722.49 569.345 Q2722.49 566.59 2720.55 564.854 Q2718.63 563.118 2715.53 563.118 Q2713.33 563.118 2710.87 563.882 Q2708.44 564.646 2705.67 566.197 L2705.67 561.475 Q2708.49 560.34 2710.94 559.762 Q2713.4 559.183 2715.43 559.183 Q2720.8 559.183 2724 561.868 Q2727.19 564.553 2727.19 569.044 Q2727.19 571.174 2726.38 573.095 Q2725.6 574.993 2723.49 577.586 Q2722.91 578.257 2719.81 581.474 Q2716.71 584.669 2711.06 590.433 Z" fill="#000000" fill-rule="evenodd" fill-opacity="1" /><path clip-path="url(#clip480)" d="M2747.19 562.887 Q2743.58 562.887 2741.75 566.451 Q2739.95 569.993 2739.95 577.123 Q2739.95 584.229 2741.75 587.794 Q2743.58 591.335 2747.19 591.335 Q2750.83 591.335 2752.63 587.794 Q2754.46 584.229 2754.46 577.123 Q2754.46 569.993 2752.63 566.451 Q2750.83 562.887 2747.19 562.887 M2747.19 559.183 Q2753 559.183 2756.06 563.789 Q2759.14 568.373 2759.14 577.123 Q2759.14 585.849 2756.06 590.456 Q2753 595.039 2747.19 595.039 Q2741.38 595.039 2738.3 590.456 Q2735.25 585.849 2735.25 577.123 Q2735.25 568.373 2738.3 563.789 Q2741.38 559.183 2747.19 559.183 Z" fill="#000000" fill-rule="evenodd" fill-opacity="1" /><path clip-path="url(#clip480)" d="M2777.36 562.887 Q2773.74 562.887 2771.92 566.451 Q2770.11 569.993 2770.11 577.123 Q2770.11 584.229 2771.92 587.794 Q2773.74 591.335 2777.36 591.335 Q2780.99 591.335 2782.8 587.794 Q2784.62 584.229 2784.62 577.123 Q2784.62 569.993 2782.8 566.451 Q2780.99 562.887 2777.36 562.887 M2777.36 559.183 Q2783.17 559.183 2786.22 563.789 Q2789.3 568.373 2789.3 577.123 Q2789.3 585.849 2786.22 590.456 Q2783.17 595.039 2777.36 595.039 Q2771.55 595.039 2768.47 590.456 Q2765.41 585.849 2765.41 577.123 Q2765.41 568.373 2768.47 563.789 Q2771.55 559.183 2777.36 559.183 Z" fill="#000000" fill-rule="evenodd" fill-opacity="1" /><path clip-path="url(#clip480)" d="M2807.52 562.887 Q2803.91 562.887 2802.08 566.451 Q2800.27 569.993 2800.27 577.123 Q2800.27 584.229 2802.08 587.794 Q2803.91 591.335 2807.52 591.335 Q2811.15 591.335 2812.96 587.794 Q2814.79 584.229 2814.79 577.123 Q2814.79 569.993 2812.96 566.451 Q2811.15 562.887 2807.52 562.887 M2807.52 559.183 Q2813.33 559.183 2816.38 563.789 Q2819.46 568.373 2819.46 577.123 Q2819.46 585.849 2816.38 590.456 Q2813.33 595.039 2807.52 595.039 Q2801.71 595.039 2798.63 590.456 Q2795.57 585.849 2795.57 577.123 Q2795.57 568.373 2798.63 563.789 Q2801.71 559.183 2807.52 559.183 Z" fill="#000000" fill-rule="evenodd" fill-opacity="1" /><path clip-path="url(#clip480)" d="M3339.75 590.433 L3356.07 590.433 L3356.07 594.368 L3334.13 594.368 L3334.13 590.433 Q3336.79 587.678 3341.38 583.048 Q3345.98 578.396 3347.16 577.053 Q3349.41 574.53 3350.29 572.794 Q3351.19 571.035 3351.19 569.345 Q3351.19 566.59 3349.25 564.854 Q3347.32 563.118 3344.22 563.118 Q3342.02 563.118 3339.57 563.882 Q3337.14 564.646 3334.36 566.197 L3334.36 561.475 Q3337.19 560.34 3339.64 559.762 Q3342.09 559.183 3344.13 559.183 Q3349.5 559.183 3352.69 561.868 Q3355.89 564.553 3355.89 569.044 Q3355.89 571.174 3355.08 573.095 Q3354.29 574.993 3352.19 577.586 Q3351.61 578.257 3348.5 581.474 Q3345.4 584.669 3339.75 590.433 Z" fill="#000000" fill-rule="evenodd" fill-opacity="1" /><path clip-path="url(#clip480)" d="M3365.94 559.808 L3384.29 559.808 L3384.29 563.743 L3370.22 563.743 L3370.22 572.215 Q3371.24 571.868 3372.25 571.706 Q3373.27 571.521 3374.29 571.521 Q3380.08 571.521 3383.46 574.692 Q3386.84 577.863 3386.84 583.28 Q3386.84 588.859 3383.37 591.96 Q3379.89 595.039 3373.57 595.039 Q3371.4 595.039 3369.13 594.669 Q3366.88 594.298 3364.48 593.558 L3364.48 588.859 Q3366.56 589.993 3368.78 590.548 Q3371 591.104 3373.48 591.104 Q3377.49 591.104 3379.82 588.998 Q3382.16 586.891 3382.16 583.28 Q3382.16 579.669 3379.82 577.562 Q3377.49 575.456 3373.48 575.456 Q3371.61 575.456 3369.73 575.873 Q3367.88 576.289 3365.94 577.169 L3365.94 559.808 Z" fill="#000000" fill-rule="evenodd" fill-opacity="1" /><path clip-path="url(#clip480)" d="M3406.05 562.887 Q3402.44 562.887 3400.61 566.451 Q3398.81 569.993 3398.81 577.123 Q3398.81 584.229 3400.61 587.794 Q3402.44 591.335 3406.05 591.335 Q3409.69 591.335 3411.49 587.794 Q3413.32 584.229 3413.32 577.123 Q3413.32 569.993 3411.49 566.451 Q3409.69 562.887 3406.05 562.887 M3406.05 559.183 Q3411.86 559.183 3414.92 563.789 Q3418 568.373 3418 577.123 Q3418 585.849 3414.92 590.456 Q3411.86 595.039 3406.05 595.039 Q3400.24 595.039 3397.16 590.456 Q3394.11 585.849 3394.11 577.123 Q3394.11 568.373 3397.16 563.789 Q3400.24 559.183 3406.05 559.183 Z" fill="#000000" fill-rule="evenodd" fill-opacity="1" /><path clip-path="url(#clip480)" d="M3436.21 562.887 Q3432.6 562.887 3430.77 566.451 Q3428.97 569.993 3428.97 577.123 Q3428.97 584.229 3430.77 587.794 Q3432.6 591.335 3436.21 591.335 Q3439.85 591.335 3441.65 587.794 Q3443.48 584.229 3443.48 577.123 Q3443.48 569.993 3441.65 566.451 Q3439.85 562.887 3436.21 562.887 M3436.21 559.183 Q3442.02 559.183 3445.08 563.789 Q3448.16 568.373 3448.16 577.123 Q3448.16 585.849 3445.08 590.456 Q3442.02 595.039 3436.21 595.039 Q3430.4 595.039 3427.32 590.456 Q3424.27 585.849 3424.27 577.123 Q3424.27 568.373 3427.32 563.789 Q3430.4 559.183 3436.21 559.183 Z" fill="#000000" fill-rule="evenodd" fill-opacity="1" /><polyline clip-path="url(#clip482)" style="stroke:#000000; stroke-linecap:round; stroke-linejoin:round; stroke-width:2; stroke-opacity:0.1; fill:none" points="152.696,449.645 3552.76,449.645 "/>
<polyline clip-path="url(#clip482)" style="stroke:#000000; stroke-linecap:round; stroke-linejoin:round; stroke-width:2; stroke-opacity:0.1; fill:none" points="152.696,328.44 3552.76,328.44 "/>
<polyline clip-path="url(#clip482)" style="stroke:#000000; stroke-linecap:round; stroke-linejoin:round; stroke-width:2; stroke-opacity:0.1; fill:none" points="152.696,207.235 3552.76,207.235 "/>
<polyline clip-path="url(#clip482)" style="stroke:#000000; stroke-linecap:round; stroke-linejoin:round; stroke-width:2; stroke-opacity:0.1; fill:none" points="152.696,86.0297 3552.76,86.0297 "/>
<polyline clip-path="url(#clip480)" style="stroke:#000000; stroke-linecap:round; stroke-linejoin:round; stroke-width:4; stroke-opacity:1; fill:none" points="152.696,522.368 152.696,47.2441 "/>
<polyline clip-path="url(#clip480)" style="stroke:#000000; stroke-linecap:round; stroke-linejoin:round; stroke-width:4; stroke-opacity:1; fill:none" points="152.696,449.645 171.593,449.645 "/>
<polyline clip-path="url(#clip480)" style="stroke:#000000; stroke-linecap:round; stroke-linejoin:round; stroke-width:4; stroke-opacity:1; fill:none" points="152.696,328.44 171.593,328.44 "/>
<polyline clip-path="url(#clip480)" style="stroke:#000000; stroke-linecap:round; stroke-linejoin:round; stroke-width:4; stroke-opacity:1; fill:none" points="152.696,207.235 171.593,207.235 "/>
<polyline clip-path="url(#clip480)" style="stroke:#000000; stroke-linecap:round; stroke-linejoin:round; stroke-width:4; stroke-opacity:1; fill:none" points="152.696,86.0297 171.593,86.0297 "/>
<path clip-path="url(#clip480)" d="M77.7929 432.365 L96.1493 432.365 L96.1493 436.3 L82.0753 436.3 L82.0753 444.772 Q83.0938 444.425 84.1123 444.263 Q85.1308 444.078 86.1493 444.078 Q91.9363 444.078 95.3159 447.249 Q98.6955 450.42 98.6955 455.837 Q98.6955 461.416 95.2233 464.517 Q91.7511 467.596 85.4317 467.596 Q83.2558 467.596 80.9873 467.226 Q78.7419 466.855 76.3346 466.115 L76.3346 461.416 Q78.4179 462.55 80.6401 463.105 Q82.8623 463.661 85.3391 463.661 Q89.3437 463.661 91.6817 461.555 Q94.0196 459.448 94.0196 455.837 Q94.0196 452.226 91.6817 450.119 Q89.3437 448.013 85.3391 448.013 Q83.4641 448.013 81.5892 448.43 Q79.7373 448.846 77.7929 449.726 L77.7929 432.365 Z" fill="#000000" fill-rule="evenodd" fill-opacity="1" /><path clip-path="url(#clip480)" d="M47.3995 341.785 L55.0384 341.785 L55.0384 315.419 L46.7282 317.086 L46.7282 312.826 L54.9921 311.16 L59.668 311.16 L59.668 341.785 L67.3068 341.785 L67.3068 345.72 L47.3995 345.72 L47.3995 341.785 Z" fill="#000000" fill-rule="evenodd" fill-opacity="1" /><path clip-path="url(#clip480)" d="M86.7512 314.238 Q83.1401 314.238 81.3114 317.803 Q79.5058 321.345 79.5058 328.475 Q79.5058 335.581 81.3114 339.146 Q83.1401 342.687 86.7512 342.687 Q90.3854 342.687 92.1909 339.146 Q94.0196 335.581 94.0196 328.475 Q94.0196 321.345 92.1909 317.803 Q90.3854 314.238 86.7512 314.238 M86.7512 310.535 Q92.5613 310.535 95.6169 315.141 Q98.6955 319.725 98.6955 328.475 Q98.6955 337.201 95.6169 341.808 Q92.5613 346.391 86.7512 346.391 Q80.941 346.391 77.8623 341.808 Q74.8068 337.201 74.8068 328.475 Q74.8068 319.725 77.8623 315.141 Q80.941 310.535 86.7512 310.535 Z" fill="#000000" fill-rule="evenodd" fill-opacity="1" /><path clip-path="url(#clip480)" d="M48.3949 220.58 L56.0337 220.58 L56.0337 194.214 L47.7236 195.881 L47.7236 191.621 L55.9874 189.955 L60.6633 189.955 L60.6633 220.58 L68.3022 220.58 L68.3022 224.515 L48.3949 224.515 L48.3949 220.58 Z" fill="#000000" fill-rule="evenodd" fill-opacity="1" /><path clip-path="url(#clip480)" d="M77.7929 189.955 L96.1493 189.955 L96.1493 193.89 L82.0753 193.89 L82.0753 202.362 Q83.0938 202.015 84.1123 201.853 Q85.1308 201.668 86.1493 201.668 Q91.9363 201.668 95.3159 204.839 Q98.6955 208.01 98.6955 213.427 Q98.6955 219.006 95.2233 222.107 Q91.7511 225.186 85.4317 225.186 Q83.2558 225.186 80.9873 224.816 Q78.7419 224.445 76.3346 223.705 L76.3346 219.006 Q78.4179 220.14 80.6401 220.695 Q82.8623 221.251 85.3391 221.251 Q89.3437 221.251 91.6817 219.144 Q94.0196 217.038 94.0196 213.427 Q94.0196 209.816 91.6817 207.709 Q89.3437 205.603 85.3391 205.603 Q83.4641 205.603 81.5892 206.019 Q79.7373 206.436 77.7929 207.316 L77.7929 189.955 Z" fill="#000000" fill-rule="evenodd" fill-opacity="1" /><path clip-path="url(#clip480)" d="M50.6171 99.3745 L66.9365 99.3745 L66.9365 103.31 L44.9921 103.31 L44.9921 99.3745 Q47.6541 96.6199 52.2375 91.9903 Q56.8439 87.3376 58.0245 85.995 Q60.2698 83.4719 61.1494 81.7358 Q62.0522 79.9765 62.0522 78.2867 Q62.0522 75.5321 60.1078 73.796 Q58.1865 72.0599 55.0847 72.0599 Q52.8856 72.0599 50.4319 72.8238 Q48.0014 73.5876 45.2236 75.1386 L45.2236 70.4164 Q48.0477 69.2821 50.5014 68.7034 Q52.955 68.1247 54.9921 68.1247 Q60.3624 68.1247 63.5568 70.8099 Q66.7513 73.4951 66.7513 77.9858 Q66.7513 80.1154 65.9411 82.0367 Q65.1541 83.9348 63.0476 86.5274 Q62.4689 87.1987 59.367 90.4163 Q56.2652 93.6107 50.6171 99.3745 Z" fill="#000000" fill-rule="evenodd" fill-opacity="1" /><path clip-path="url(#clip480)" d="M86.7512 71.8284 Q83.1401 71.8284 81.3114 75.3932 Q79.5058 78.9348 79.5058 86.0644 Q79.5058 93.1709 81.3114 96.7357 Q83.1401 100.277 86.7512 100.277 Q90.3854 100.277 92.1909 96.7357 Q94.0196 93.1709 94.0196 86.0644 Q94.0196 78.9348 92.1909 75.3932 Q90.3854 71.8284 86.7512 71.8284 M86.7512 68.1247 Q92.5613 68.1247 95.6169 72.7312 Q98.6955 77.3145 98.6955 86.0644 Q98.6955 94.7912 95.6169 99.3977 Q92.5613 103.981 86.7512 103.981 Q80.941 103.981 77.8623 99.3977 Q74.8068 94.7912 74.8068 86.0644 Q74.8068 77.3145 77.8623 72.7312 Q80.941 68.1247 86.7512 68.1247 Z" fill="#000000" fill-rule="evenodd" fill-opacity="1" /><polyline clip-path="url(#clip482)" style="stroke:#009af9; stroke-linecap:round; stroke-linejoin:round; stroke-width:2; stroke-opacity:1; fill:none" points="248.924,132.635 250.181,143.745 251.438,135.137 252.696,141.508 253.953,335.356 255.211,148.619 256.468,125.66 257.725,416.956 258.983,138.6 260.24,117.574 261.498,134.521 262.755,131.797 264.012,120.227 265.27,336.287 266.527,139.124 267.785,134.957 269.042,128.604 270.299,119.204 271.557,139.569 272.814,138.189 274.071,142.925 275.329,134.998 276.586,134.199 277.844,345.763 279.101,140.142 280.358,134.861 281.616,145.653 282.873,125.693 284.131,141.207 285.388,127.597 286.645,124.494 287.903,150.453 289.16,121.806 290.418,147.841 291.675,422.544 292.932,325.373 294.19,136.194 295.447,132.501 296.705,123.37 297.962,122.962 299.219,381.935 300.477,135.106 301.734,126.208 302.991,136.85 304.249,138.469 305.506,138.349 306.764,131.81 308.021,128.719 309.278,349.922 310.536,385.746 311.793,141.293 313.051,427.705 314.308,514.287 315.565,136.808 316.823,138.621 318.08,127.36 319.338,147.672 320.595,135.69 321.852,134.946 323.11,138.213 324.367,131.685 325.625,134.88 326.882,123.761 328.139,323.445 329.397,407.486 330.654,131.041 331.911,131.741 333.169,130.314 334.426,121.964 335.684,130.458 336.941,138.289 338.198,126.952 339.456,134.57 340.713,143.352 341.971,137.72 343.228,129.698 344.485,142.655 345.743,131.379 347,130.034 348.258,134.323 349.515,136.722 350.772,145.234 352.03,136.901 353.287,122.579 354.544,121.19 355.802,136.177 357.059,133.758 358.317,124.519 359.574,138.689 360.831,138.22 362.089,141.08 363.346,142.013 364.604,132.727 365.861,141.43 367.118,127.056 368.376,133.469 369.633,138.964 370.891,127.297 372.148,143.737 373.405,122.366 374.663,124.258 375.92,134.021 377.178,122.564 378.435,139.264 379.692,135.722 380.95,136.608 382.207,155.191 383.464,128.644 384.722,145.006 385.979,140.989 387.237,134.029 388.494,135.908 389.751,128.17 391.009,138.674 392.266,125.742 393.524,124.919 394.781,127.173 396.038,132.033 397.296,140.865 398.553,119.226 399.811,357.18 401.068,321.464 402.325,356.117 403.583,334.14 404.84,341.344 406.098,130.951 407.355,128.293 408.612,145.332 409.87,129.127 411.127,137.099 412.384,145.648 413.642,152.343 414.899,131.38 416.157,133.122 417.414,125.917 418.671,140.436 419.929,130.316 421.186,130.991 422.444,151.699 423.701,124.932 424.958,127.58 426.216,144.652 427.473,145.389 428.731,351.778 429.988,119.756 431.245,125.156 432.503,137.449 433.76,134.502 435.018,123.137 436.275,140.263 437.532,130.667 438.79,329.45 440.047,137.496 441.304,132.906 442.562,129.981 443.819,323.851 445.077,355.219 446.334,437.45 447.591,143.427 448.849,138.294 450.106,144.07 451.364,352.743 452.621,146.944 453.878,129.769 455.136,138.675 456.393,143.636 457.651,141.28 458.908,141.237 460.165,132.603 461.423,136.662 462.68,125.888 463.938,142.147 465.195,380.212 466.452,421.795 467.71,329.561 468.967,143.147 470.224,126.72 471.482,124.032 472.739,341.97 473.997,148.448 475.254,144.027 476.511,140.32 477.769,132.222 479.026,120.257 480.284,128.522 481.541,473.015 482.798,331.309 484.056,130.443 485.313,134.368 486.571,374.72 487.828,161.633 489.085,139.297 490.343,136.762 491.6,137.029 492.857,130.455 494.115,139.842 495.372,145.04 496.63,127.417 497.887,136 499.144,131.207 500.402,143.378 501.659,120.369 502.917,145.355 504.174,143.345 505.431,128.172 506.689,122.702 507.946,121.737 509.204,336.548 510.461,334.077 511.718,348.166 512.976,422.984 514.233,338.227 515.491,334.211 516.748,138.653 518.005,137.968 519.263,142.96 520.52,144.131 521.777,134.309 523.035,133.489 524.292,132.718 525.55,336.271 526.807,127.573 528.064,134.796 529.322,126.629 530.579,135.427 531.837,135.539 533.094,131.208 534.351,138.353 535.609,340.3 536.866,156.439 538.124,144.527 539.381,125.33 540.638,130.671 541.896,317.718 543.153,391.846 544.411,381.971 545.668,328.787 546.925,124.739 548.183,132.373 549.44,127.311 550.697,131.786 551.955,143.929 553.212,144.831 554.47,131.572 555.727,142.113 556.984,140.135 558.242,139.907 559.499,322.444 560.757,128.248 562.014,328.055 563.271,330.374 564.529,135.281 565.786,136.368 567.044,139.913 568.301,139.448 569.558,136.671 570.816,147.781 572.073,313.677 573.331,500.089 574.588,359.75 575.845,117.174 577.103,140.634 578.36,144.366 579.617,134.555 580.875,128.304 582.132,128.563 583.39,128.453 584.647,132.426 585.904,125.953 587.162,129.84 588.419,126.7 589.677,129.403 590.934,130.928 592.191,132.681 593.449,127.322 594.706,146.856 595.964,125.808 597.221,126.601 598.478,503.308 599.736,132.84 600.993,136.055 602.251,132.778 603.508,138.787 604.765,386.542 606.023,388.677 607.28,435.199 608.537,413.211 609.795,326.955 611.052,364.046 612.31,133.032 613.567,125.634 614.824,134.008 616.082,130.794 617.339,140.273 618.597,362.528 619.854,131.418 621.111,141.031 622.369,121.449 623.626,138.579 624.884,141.887 626.141,137.04 627.398,134.722 628.656,140.095 629.913,121.466 631.17,130.454 632.428,156.944 633.685,364.077 634.943,320.496 636.2,331.962 637.457,131.89 638.715,128.12 639.972,132.369 641.23,132.31 642.487,132.981 643.744,140.502 645.002,137.818 646.259,145.992 647.517,133.483 648.774,136.081 650.031,133.044 651.289,130.815 652.546,129.531 653.804,146.177 655.061,152.331 656.318,150.356 657.576,133.49 658.833,124.733 660.09,147.169 661.348,145.849 662.605,143.629 663.863,152.361 665.12,126.325 666.377,131.61 667.635,136.069 668.892,127.062 670.15,145.538 671.407,123.876 672.664,128.535 673.922,129.308 675.179,122.924 676.437,127.498 677.694,460.953 678.951,124.88 680.209,131.055 681.466,144.848 682.724,149.716 683.981,140.64 685.238,136.157 686.496,143.781 687.753,139.436 689.01,135.596 690.268,125.993 691.525,141.265 692.783,129.885 694.04,153.227 695.297,400.137 696.555,134.218 697.812,406.906 699.07,316.566 700.327,135.907 701.584,136.28 702.842,128.401 704.099,150.183 705.357,116.573 706.614,153.302 707.871,122.547 709.129,142.813 710.386,337.231 711.644,315.4 712.901,128.438 714.158,135.596 715.416,136.012 716.673,145.802 717.93,116.093 719.188,123.944 720.445,133.884 721.703,354.796 722.96,139.096 724.217,139.491 725.475,143.92 726.732,402.844 727.99,314.927 729.247,145.348 730.504,138.85 731.762,323.494 733.019,361.358 734.277,141.298 735.534,121.16 736.791,140.324 738.049,313.725 739.306,148.814 740.563,145.91 741.821,135.696 743.078,119.493 744.336,131.226 745.593,317.079 746.85,131.756 748.108,129.538 749.365,130.375 750.623,136.506 751.88,129.545 753.137,394.585 754.395,330.873 755.652,134.299 756.91,134.016 758.167,141.674 759.424,129.038 760.682,342.595 761.939,116.793 763.197,122.748 764.454,133.931 765.711,132.62 766.969,124.351 768.226,142.933 769.483,134.154 770.741,139.839 771.998,130.2 773.256,130.459 774.513,340.194 775.77,330.023 777.028,145.378 778.285,149.093 779.543,326.986 780.8,458.759 782.057,334.28 783.315,135.029 784.572,134.856 785.83,136.042 787.087,137.921 788.344,139.989 789.602,140.543 790.859,152.206 792.117,310.663 793.374,116.996 794.631,124.466 795.889,148.976 797.146,318.762 798.403,128.281 799.661,146.779 800.918,135.154 802.176,142.307 803.433,126.632 804.69,116.337 805.948,121.256 807.205,320.56 808.463,342.381 809.72,126.265 810.977,135.583 812.235,139.27 813.492,130.761 814.75,137.439 816.007,134.913 817.264,141.377 818.522,117.014 819.779,132.629 821.037,133.824 822.294,138.293 823.551,316.546 824.809,148.284 826.066,110.191 827.323,156.082 828.581,330.708 829.838,325.696 831.096,420.726 832.353,121.532 833.61,134.506 834.868,147.198 836.125,133.554 837.383,331.985 838.64,322.714 839.897,132.361 841.155,331.072 842.412,324.589 843.67,387.404 844.927,129.424 846.184,141.035 847.442,141.898 848.699,140.238 849.957,133.173 851.214,142.271 852.471,115.465 853.729,134.637 854.986,121.821 856.243,136.902 857.501,124.293 858.758,134.21 860.016,133.538 861.273,125.776 862.53,318.146 863.788,137.891 865.045,126.395 866.303,136.21 867.56,128.962 868.817,132.401 870.075,139.112 871.332,137.836 872.59,136.652 873.847,139.706 875.104,138.715 876.362,135.067 877.619,148.707 878.876,120.008 880.134,113.992 881.391,122.066 882.649,140.629 883.906,141.788 885.163,125.875 886.421,117.623 887.678,124.135 888.936,135.283 890.193,144.447 891.45,133.615 892.708,137.524 893.965,131.356 895.223,408.21 896.48,373.683 897.737,142.612 898.995,130.066 900.252,128.691 901.51,147.32 902.767,133.041 904.024,141.493 905.282,142.37 906.539,134.082 907.796,137.014 909.054,131.733 910.311,144.527 911.569,330.196 912.826,151.216 914.083,137.986 915.341,132.476 916.598,134.678 917.856,148.841 919.113,346.203 920.37,126.145 921.628,128.537 922.885,128.284 924.143,444.463 925.4,345.424 926.657,413.925 927.915,361.264 929.172,497.867 930.43,341.145 931.687,139.476 932.944,141.988 934.202,126.398 935.459,129.599 936.716,133.89 937.974,155.907 939.231,111.835 940.489,127.145 941.746,128.179 943.003,134.558 944.261,148.333 945.518,114.349 946.776,319.775 948.033,147.064 949.29,118.582 950.548,127.083 951.805,141.265 953.063,124.942 954.32,137.257 955.577,126.411 956.835,147.9 958.092,404.995 959.35,453.657 960.607,150.198 961.864,124.997 963.122,148.324 964.379,126.484 965.636,397.631 966.894,351.039 968.151,135.48 969.409,136.168 970.666,393.909 971.923,141.913 973.181,135.258 974.438,336.826 975.696,142.426 976.953,118.483 978.21,319.181 979.468,144.037 980.725,116.084 981.983,118.335 983.24,327.057 984.497,369.056 985.755,319.998 987.012,124.956 988.269,123.937 989.527,136.532 990.784,130.949 992.042,148.404 993.299,127.718 994.556,133.677 995.814,141.615 997.071,132.396 998.329,128.857 999.586,127.595 1000.84,134.783 1002.1,144.253 1003.36,133.744 1004.62,139.733 1005.87,128.925 1007.13,136.077 1008.39,133.495 1009.65,117.296 1010.9,133.889 1012.16,137.387 1013.42,131.647 1014.67,136.233 1015.93,135.882 1017.19,127.445 1018.45,125.073 1019.7,319.09 1020.96,126.067 1022.22,134.453 1023.48,123.125 1024.73,363.291 1025.99,107.134 1027.25,318.228 1028.51,379.623 1029.76,366.231 1031.02,131.661 1032.28,148.92 1033.54,128.389 1034.79,130.547 1036.05,136.116 1037.31,146.923 1038.57,142.564 1039.82,126.576 1041.08,139.765 1042.34,140.689 1043.59,128.9 1044.85,139.417 1046.11,123.138 1047.37,130.704 1048.62,141.029 1049.88,132.576 1051.14,138.113 1052.4,137.369 1053.65,124.747 1054.91,126.374 1056.17,131.77 1057.43,134.413 1058.68,131.329 1059.94,126.089 1061.2,150.127 1062.46,144.127 1063.71,143.28 1064.97,148.373 1066.23,125.13 1067.49,136.068 1068.74,137.714 1070,382.218 1071.26,350.004 1072.51,153.202 1073.77,134.194 1075.03,122.9 1076.29,128.179 1077.54,142.545 1078.8,133.755 1080.06,335.925 1081.32,315.945 1082.57,126.95 1083.83,115.691 1085.09,120.026 1086.35,145.17 1087.6,155.75 1088.86,128.554 1090.12,142.633 1091.38,133.047 1092.63,136.125 1093.89,129.058 1095.15,116.449 1096.41,142.933 1097.66,142.757 1098.92,138.7 1100.18,108.261 1101.43,153.585 1102.69,133.775 1103.95,143.31 1105.21,148.546 1106.46,125.288 1107.72,111.285 1108.98,351.977 1110.24,139.881 1111.49,335.792 1112.75,115.488 1114.01,140.981 1115.27,123.325 1116.52,400.64 1117.78,321.86 1119.04,388.463 1120.3,414.004 1121.55,133.41 1122.81,140.413 1124.07,140.351 1125.33,126.797 1126.58,124.901 1127.84,151.13 1129.1,315.948 1130.35,128.644 1131.61,119.603 1132.87,133.586 1134.13,320.512 1135.38,335.418 1136.64,328.419 1137.9,366.771 1139.16,138.413 1140.41,131.442 1141.67,142.954 1142.93,146.527 1144.19,316.924 1145.44,123.192 1146.7,138.765 1147.96,133.481 1149.22,137.117 1150.47,139.948 1151.73,130.314 1152.99,133.702 1154.25,131.709 1155.5,133.892 1156.76,340.411 1158.02,132.755 1159.27,133.161 1160.53,118.593 1161.79,126.741 1163.05,334.632 1164.3,121.962 1165.56,124.847 1166.82,133.315 1168.08,346.034 1169.33,143.013 1170.59,130.235 1171.85,135.655 1173.11,471.383 1174.36,320.838 1175.62,330.656 1176.88,437.09 1178.14,403.451 1179.39,139.73 1180.65,123.179 1181.91,134.487 1183.17,136.593 1184.42,132.775 1185.68,143.322 1186.94,147.434 1188.19,131.403 1189.45,132.421 1190.71,146.248 1191.97,147.305 1193.22,129.981 1194.48,133.159 1195.74,130.759 1197,122.989 1198.25,135.139 1199.51,129.241 1200.77,139.117 1202.03,138.738 1203.28,147.811 1204.54,137.986 1205.8,148.835 1207.06,138.969 1208.31,315.964 1209.57,127.728 1210.83,140.776 1212.09,338.61 1213.34,124.462 1214.6,138.767 1215.86,138.858 1217.11,132.021 1218.37,135.396 1219.63,138.172 1220.89,120.699 1222.14,150.108 1223.4,145.657 1224.66,137.756 1225.92,137.1 1227.17,139.672 1228.43,134.657 1229.69,119.792 1230.95,131.883 1232.2,341.265 1233.46,443.509 1234.72,126.507 1235.98,321.755 1237.23,333.831 1238.49,144.854 1239.75,141.056 1241.01,141.659 1242.26,121.067 1243.52,148.387 1244.78,128.704 1246.03,133.483 1247.29,129.957 1248.55,133.993 1249.81,130.884 1251.06,131.841 1252.32,125.128 1253.58,151.959 1254.84,139.356 1256.09,127.209 1257.35,115.127 1258.61,148.307 1259.87,393.843 1261.12,148.823 1262.38,132.906 1263.64,131.443 1264.9,122.9 1266.15,472.667 1267.41,332.075 1268.67,144.884 1269.93,317.854 1271.18,329.288 1272.44,327.407 1273.7,331.912 1274.95,327.365 1276.21,134.419 1277.47,135.235 1278.73,131.791 1279.98,140.506 1281.24,134.851 1282.5,133.578 1283.76,127.251 1285.01,146.985 1286.27,133.215 1287.53,132.577 1288.79,128.064 1290.04,135.003 1291.3,133.136 1292.56,359.083 1293.82,131.144 1295.07,130.229 1296.33,142.787 1297.59,137.284 1298.85,472.278 1300.1,124.779 1301.36,146.206 1302.62,136.421 1303.87,138.979 1305.13,508.436 1306.39,322.794 1307.65,322.857 1308.9,323.246 1310.16,419.451 1311.42,331.646 1312.68,131.487 1313.93,132.169 1315.19,148.705 1316.45,139.454 1317.71,131.66 1318.96,405.618 1320.22,321.389 1321.48,327.937 1322.74,320.961 1323.99,148.047 1325.25,373.91 1326.51,148.777 1327.77,136.119 1329.02,141.664 1330.28,146.144 1331.54,137.188 1332.79,131.362 1334.05,343.939 1335.31,140.121 1336.57,139.902 1337.82,127.462 1339.08,422.208 1340.34,432.299 1341.6,414.649 1342.85,411.173 1344.11,138.37 1345.37,131.229 1346.63,131.025 1347.88,133.156 1349.14,131.802 1350.4,135.09 1351.66,135.59 1352.91,137.032 1354.17,111.827 1355.43,142.828 1356.69,123.389 1357.94,137.428 1359.2,119.879 1360.46,143.164 1361.71,129.93 1362.97,135.97 1364.23,137.731 1365.49,141.546 1366.74,123.821 1368,151.602 1369.26,145.261 1370.52,148.537 1371.77,339.818 1373.03,124.606 1374.29,130.154 1375.55,138.352 1376.8,126.756 1378.06,117.435 1379.32,148.893 1380.58,127.546 1381.83,336.538 1383.09,125.331 1384.35,127.013 1385.61,118.732 1386.86,136.141 1388.12,135.102 1389.38,118.175 1390.63,131.795 1391.89,131.215 1393.15,125.6 1394.41,127.351 1395.66,342.105 1396.92,124.382 1398.18,133.733 1399.44,133.982 1400.69,135.389 1401.95,368.42 1403.21,130.53 1404.47,136.049 1405.72,142.639 1406.98,150.246 1408.24,141.938 1409.5,144.028 1410.75,314.111 1412.01,131.837 1413.27,131.619 1414.53,132.853 1415.78,131.551 1417.04,136.429 1418.3,131.641 1419.55,124.097 1420.81,139.246 1422.07,136.98 1423.33,115.114 1424.58,382.907 1425.84,138.273 1427.1,143.767 1428.36,139.272 1429.61,141.997 1430.87,147.39 1432.13,344.823 1433.39,327.736 1434.64,135.826 1435.9,125.18 1437.16,122.352 1438.42,142.141 1439.67,132.952 1440.93,125.55 1442.19,127.64 1443.44,122.771 1444.7,141.624 1445.96,147.988 1447.22,131.861 1448.47,125.402 1449.73,139.366 1450.99,140.731 1452.25,142.852 1453.5,139.017 1454.76,137.673 1456.02,141.34 1457.28,143.022 1458.53,127.735 1459.79,149.535 1461.05,136.671 1462.31,125.246 1463.56,130.591 1464.82,143.4 1466.08,144.932 1467.34,137.245 1468.59,130.068 1469.85,137.625 1471.11,139.902 1472.36,138.424 1473.62,323.533 1474.88,143.567 1476.14,134.384 1477.39,141.884 1478.65,138.609 1479.91,146.039 1481.17,114.502 1482.42,120.422 1483.68,129.696 1484.94,327.739 1486.2,384.084 1487.45,460.529 1488.71,146.379 1489.97,135.805 1491.23,141.018 1492.48,137.715 1493.74,135.999 1495,139.542 1496.26,149.013 1497.51,137.65 1498.77,137.911 1500.03,133.942 1501.28,322.647 1502.54,149.378 1503.8,140.948 1505.06,127.287 1506.31,116.486 1507.57,118.35 1508.83,139.878 1510.09,128.068 1511.34,137.487 1512.6,139.899 1513.86,140.139 1515.12,137.284 1516.37,135.517 1517.63,136.281 1518.89,144.256 1520.15,137.926 1521.4,149.038 1522.66,373.615 1523.92,444.7 1525.18,136.325 1526.43,127.948 1527.69,133.774 1528.95,136.917 1530.2,136.742 1531.46,131.842 1532.72,129.119 1533.98,130.612 1535.23,126.494 1536.49,127.133 1537.75,130.526 1539.01,134.711 1540.26,134.592 1541.52,125.607 1542.78,129.621 1544.04,135.397 1545.29,135.789 1546.55,129.438 1547.81,360.494 1549.07,147.379 1550.32,139.302 1551.58,143.64 1552.84,130.545 1554.1,128.46 1555.35,131.082 1556.61,131.895 1557.87,127.65 1559.12,129.566 1560.38,140.849 1561.64,133.451 1562.9,137.164 1564.15,127.521 1565.41,132.366 1566.67,373.099 1567.93,116.568 1569.18,140.653 1570.44,140.145 1571.7,340.365 1572.96,129.659 1574.21,134.897 1575.47,354.045 1576.73,325.113 1577.99,132.406 1579.24,136.299 1580.5,140.631 1581.76,133.564 1583.02,142.372 1584.27,133.512 1585.53,130.89 1586.79,420.605 1588.04,136.035 1589.3,135.641 1590.56,132.476 1591.82,130.536 1593.07,138.622 1594.33,128.463 1595.59,450.907 1596.85,405.446 1598.1,364.265 1599.36,320.87 1600.62,139.832 1601.88,131.859 1603.13,143.542 1604.39,321.479 1605.65,128.379 1606.91,142.64 1608.16,143.758 1609.42,124.373 1610.68,122.54 1611.94,142.104 1613.19,131.16 1614.45,133.536 1615.71,133.809 1616.96,136.731 1618.22,119.134 1619.48,139.735 1620.74,120.084 1621.99,139.08 1623.25,152.183 1624.51,331.841 1625.77,138.769 1627.02,116.515 1628.28,132.482 1629.54,123.271 1630.8,130.534 1632.05,138.983 1633.31,141.191 1634.57,130.103 1635.83,144.69 1637.08,132.025 1638.34,134.979 1639.6,134.245 1640.86,308.108 1642.11,135.755 1643.37,129.781 1644.63,314.683 1645.88,134.411 1647.14,122.832 1648.4,149.98 1649.66,139.395 1650.91,321.781 1652.17,322.47 1653.43,365.652 1654.69,121.819 1655.94,130.434 1657.2,147.196 1658.46,140.772 1659.72,132.258 1660.97,135.397 1662.23,127.618 1663.49,431.543 1664.75,137.928 1666,139.613 1667.26,147.362 1668.52,336.368 1669.78,148.395 1671.03,128.995 1672.29,143.418 1673.55,129.995 1674.8,133.96 1676.06,334.12 1677.32,145.639 1678.58,408.216 1679.83,135.773 1681.09,131.115 1682.35,147.004 1683.61,137.246 1684.86,131.649 1686.12,314.531 1687.38,410.822 1688.64,123.192 1689.89,132.591 1691.15,129.694 1692.41,140.886 1693.67,140.572 1694.92,137.915 1696.18,132.942 1697.44,134.401 1698.7,135.565 1699.95,311.697 1701.21,130.582 1702.47,139.645 1703.72,307.098 1704.98,133.414 1706.24,370.2 1707.5,393.539 1708.75,335.004 1710.01,332.632 1711.27,353.893 1712.53,140.751 1713.78,128.839 1715.04,134.062 1716.3,131.505 1717.56,127.601 1718.81,116.813 1720.07,140.739 1721.33,149.365 1722.59,136.583 1723.84,122.407 1725.1,144.386 1726.36,133.269 1727.62,395.448 1728.87,130.809 1730.13,142.693 1731.39,117.835 1732.64,124.852 1733.9,134.139 1735.16,137.326 1736.42,139.857 1737.67,131.618 1738.93,327.733 1740.19,148.695 1741.45,143.979 1742.7,133.218 1743.96,132.436 1745.22,132.391 1746.48,131.493 1747.73,131.999 1748.99,124.346 1750.25,118.811 1751.51,132.46 1752.76,122.247 1754.02,341.783 1755.28,332.539 1756.54,118.874 1757.79,131.25 1759.05,136.747 1760.31,133.554 1761.56,124.255 1762.82,123.429 1764.08,117.589 1765.34,119.267 1766.59,141.876 1767.85,131.148 1769.11,136.97 1770.37,127.812 1771.62,123.391 1772.88,127.475 1774.14,132.451 1775.4,129.88 1776.65,140.899 1777.91,135.927 1779.17,128.118 1780.43,126.817 1781.68,128.05 1782.94,126.309 1784.2,147.456 1785.46,118.888 1786.71,145.079 1787.97,133.06 1789.23,141.967 1790.48,130.425 1791.74,338.087 1793,313.875 1794.26,144.521 1795.51,142.104 1796.77,135.213 1798.03,134.887 1799.29,145.522 1800.54,139.756 1801.8,143.268 1803.06,135.552 1804.32,122.786 1805.57,128.764 1806.83,132.795 1808.09,127.345 1809.35,156.24 1810.6,117.262 1811.86,129.879 1813.12,129.524 1814.38,129.384 1815.63,135.344 1816.89,138.102 1818.15,130.526 1819.4,142.348 1820.66,138.535 1821.92,143.068 1823.18,125.556 1824.43,321.02 1825.69,144.886 1826.95,148.5 1828.21,145.553 1829.46,326.536 1830.72,429.66 1831.98,125.971 1833.24,145.008 1834.49,138.827 1835.75,118.633 1837.01,144.814 1838.27,134.825 1839.52,436.921 1840.78,122.089 1842.04,144.317 1843.3,121.137 1844.55,129.223 1845.81,143.003 1847.07,130.836 1848.32,129.705 1849.58,131.394 1850.84,119.436 1852.1,133.667 1853.35,136.859 1854.61,137.683 1855.87,140.896 1857.13,120.007 1858.38,158.466 1859.64,339.836 1860.9,132.906 1862.16,325.593 1863.41,325.871 1864.67,138.376 1865.93,130.163 1867.19,334.488 1868.44,143.077 1869.7,138.207 1870.96,133.861 1872.22,133.312 1873.47,131.978 1874.73,130.114 1875.99,127.74 1877.24,123.835 1878.5,133.352 1879.76,146.8 1881.02,109.516 1882.27,137.081 1883.53,135.084 1884.79,125.536 1886.05,139.011 1887.3,123.867 1888.56,134.681 1889.82,142.633 1891.08,137.595 1892.33,138.026 1893.59,125.869 1894.85,146.655 1896.11,140.673 1897.36,136.426 1898.62,136.911 1899.88,134.806 1901.14,148.718 1902.39,119.013 1903.65,337.344 1904.91,326.379 1906.16,511.804 1907.42,359.865 1908.68,143.609 1909.94,141.005 1911.19,145.773 1912.45,123.78 1913.71,348.658 1914.97,440.27 1916.22,337.826 1917.48,352.212 1918.74,118.431 1920,126.121 1921.25,139.104 1922.51,137.24 1923.77,127.348 1925.03,144.524 1926.28,124.676 1927.54,143.512 1928.8,126.621 1930.06,344.173 1931.31,422.437 1932.57,121.896 1933.83,135.169 1935.08,131.712 1936.34,155.19 1937.6,123.967 1938.86,126.786 1940.11,138.937 1941.37,137.709 1942.63,118.83 1943.89,132.77 1945.14,133.564 1946.4,128.296 1947.66,122.11 1948.92,130.621 1950.17,130.629 1951.43,143.895 1952.69,132.224 1953.95,146.936 1955.2,137.272 1956.46,121.173 1957.72,331.016 1958.98,143.979 1960.23,447.571 1961.49,327.536 1962.75,146.376 1964,121.429 1965.26,126.58 1966.52,127.314 1967.78,119.267 1969.03,145.703 1970.29,129.018 1971.55,129.351 1972.81,142.417 1974.06,144.396 1975.32,119.68 1976.58,325.711 1977.84,145.617 1979.09,341.221 1980.35,319.601 1981.61,136.585 1982.87,124.447 1984.12,147.5 1985.38,393.479 1986.64,124.849 1987.9,131.931 1989.15,129.868 1990.41,130.144 1991.67,139.09 1992.92,132.983 1994.18,131.685 1995.44,132.856 1996.7,134.577 1997.95,133.727 1999.21,127.517 2000.47,143.223 2001.73,134.626 2002.98,121.667 2004.24,374.486 2005.5,356.368 2006.76,368.601 2008.01,420.413 2009.27,329.831 2010.53,140.254 2011.79,138.749 2013.04,135.187 2014.3,136.031 2015.56,125.756 2016.82,122.101 2018.07,133.58 2019.33,143.664 2020.59,137.095 2021.84,133.962 2023.1,134.03 2024.36,123.548 2025.62,148.089 2026.87,140.173 2028.13,143.14 2029.39,126.137 2030.65,128.872 2031.9,125.234 2033.16,125.011 2034.42,150.887 2035.68,123.786 2036.93,134.042 2038.19,128.952 2039.45,145.3 2040.71,147.296 2041.96,140.391 2043.22,133.55 2044.48,135.768 2045.74,349.101 2046.99,127.928 2048.25,136.746 2049.51,130.047 2050.76,333.31 2052.02,129.467 2053.28,134.492 2054.54,134.209 2055.79,130.579 2057.05,151.777 2058.31,145.93 2059.57,132.405 2060.82,137.197 2062.08,138.067 2063.34,374.629 2064.6,132.534 2065.85,131.183 2067.11,131.195 2068.37,122.09 2069.63,125.654 2070.88,130.681 2072.14,138.932 2073.4,131.48 2074.66,147.189 2075.91,140.009 2077.17,129.885 2078.43,129.221 2079.68,124.944 2080.94,142.349 2082.2,140.779 2083.46,138.305 2084.71,137.964 2085.97,133.001 2087.23,131.62 2088.49,133.202 2089.74,117.27 2091,128.955 2092.26,124.941 2093.52,136.544 2094.77,143.141 2096.03,139.808 2097.29,329.339 2098.55,445.982 2099.8,407.242 2101.06,361.601 2102.32,127.635 2103.58,132.802 2104.83,128.338 2106.09,128.938 2107.35,136.491 2108.6,128.013 2109.86,117.923 2111.12,369.79 2112.38,375.077 2113.63,336.703 2114.89,139.46 2116.15,142.519 2117.41,133.824 2118.66,128.193 2119.92,131.745 2121.18,121.094 2122.44,146.341 2123.69,133.982 2124.95,430.766 2126.21,122.474 2127.47,128.585 2128.72,132.675 2129.98,121.803 2131.24,124.833 2132.5,147.468 2133.75,116.752 2135.01,130.662 2136.27,144.084 2137.52,364.711 2138.78,142.043 2140.04,135.559 2141.3,140.314 2142.55,142.99 2143.81,134.826 2145.07,135.309 2146.33,113.711 2147.58,331.755 2148.84,325.629 2150.1,130.084 2151.36,140.861 2152.61,132.989 2153.87,136.313 2155.13,119.568 2156.39,131.632 2157.64,356.411 2158.9,332.832 2160.16,320.925 2161.42,454.437 2162.67,320.647 2163.93,125.25 2165.19,148.953 2166.44,146.458 2167.7,148.494 2168.96,124.796 2170.22,124.309 2171.47,142.475 2172.73,136.071 2173.99,342.361 2175.25,336.124 2176.5,135.856 2177.76,322.706 2179.02,417.49 2180.28,146.294 2181.53,115.022 2182.79,139.603 2184.05,133.373 2185.31,335.198 2186.56,324.909 2187.82,318.55 2189.08,335.733 2190.34,131.108 2191.59,133.382 2192.85,134.395 2194.11,141.112 2195.36,134.792 2196.62,137.879 2197.88,134.386 2199.14,129.834 2200.39,132.964 2201.65,135.017 2202.91,345.499 2204.17,315.563 2205.42,123.329 2206.68,307.392 2207.94,146.529 2209.2,140.602 2210.45,140.683 2211.71,134.245 2212.97,130.83 2214.23,129.399 2215.48,132.754 2216.74,126.994 2218,142.462 2219.26,134.648 2220.51,131.547 2221.77,134.265 2223.03,153.922 2224.28,321.085 2225.54,148.598 2226.8,143.109 2228.06,148.917 2229.31,141.207 2230.57,142.822 2231.83,118.615 2233.09,124.004 2234.34,129.059 2235.6,143.724 2236.86,128.243 2238.12,137.891 2239.37,130.933 2240.63,143.866 2241.89,124.638 2243.15,136.127 2244.4,137.159 2245.66,132.417 2246.92,137.831 2248.18,129.223 2249.43,124.166 2250.69,117.037 2251.95,139.389 2253.2,133.188 2254.46,129.448 2255.72,132.124 2256.98,145.377 2258.23,122.942 2259.49,137.669 2260.75,133.783 2262.01,120.16 2263.26,144.364 2264.52,135.006 2265.78,333.817 2267.04,332.582 2268.29,431.738 2269.55,151.014 2270.81,122.25 2272.07,134.27 2273.32,141.98 2274.58,123.931 2275.84,134.17 2277.1,144.775 2278.35,150.044 2279.61,465.327 2280.87,131.23 2282.12,131.486 2283.38,141.226 2284.64,133.21 2285.9,132.027 2287.15,136.247 2288.41,139.967 2289.67,325.96 2290.93,136.383 2292.18,133.81 2293.44,148.682 2294.7,134.947 2295.96,338.931 2297.21,334.517 2298.47,329.224 2299.73,144.56 2300.99,139.794 2302.24,136.988 2303.5,140.031 2304.76,337.043 2306.02,148.96 2307.27,139.19 2308.53,137.548 2309.79,136.233 2311.04,140.573 2312.3,125.147 2313.56,134.087 2314.82,141.974 2316.07,134.719 2317.33,130.106 2318.59,322.103 2319.85,121.509 2321.1,120.025 2322.36,120.115 2323.62,340.41 2324.88,141.274 2326.13,136.439 2327.39,132.746 2328.65,129.843 2329.91,484.134 2331.16,117.704 2332.42,132.607 2333.68,328.62 2334.94,128.679 2336.19,134.515 2337.45,130.391 2338.71,134.16 2339.96,120.952 2341.22,112.892 2342.48,129.017 2343.74,138.747 2344.99,131.301 2346.25,127.014 2347.51,131.847 2348.77,135.41 2350.02,131.533 2351.28,142.12 2352.54,127.989 2353.8,329.521 2355.05,136.067 2356.31,136.929 2357.57,135.478 2358.83,487.855 2360.08,358.516 2361.34,133.999 2362.6,131.116 2363.86,128.649 2365.11,119.857 2366.37,132.924 2367.63,123.811 2368.88,126.612 2370.14,132.409 2371.4,132.727 2372.66,126.254 2373.91,148.966 2375.17,120.167 2376.43,122.231 2377.69,121.734 2378.94,135.312 2380.2,127.215 2381.46,132.968 2382.72,329.323 2383.97,327.468 2385.23,125.191 2386.49,125.485 2387.75,127.844 2389,145.824 2390.26,127.838 2391.52,147.093 2392.78,147.171 2394.03,131.7 2395.29,130.267 2396.55,127.532 2397.8,137.981 2399.06,134.982 2400.32,127.749 2401.58,139.348 2402.83,360.499 2404.09,322.731 2405.35,149.714 2406.61,131.68 2407.86,141.707 2409.12,140.041 2410.38,133.54 2411.64,139.967 2412.89,325.922 2414.15,145.89 2415.41,123.915 2416.67,349.91 2417.92,329.882 2419.18,330.635 2420.44,405.666 2421.7,151.158 2422.95,134.644 2424.21,132.791 2425.47,119.603 2426.72,126.443 2427.98,335.637 2429.24,144.44 2430.5,132.601 2431.75,128.361 2433.01,132.938 2434.27,137.551 2435.53,143.645 2436.78,137.857 2438.04,143.599 2439.3,119.958 2440.56,136.36 2441.81,136.013 2443.07,136.713 2444.33,482.024 2445.59,351.289 2446.84,131.21 2448.1,136.406 2449.36,129.274 2450.62,136.442 2451.87,147.356 2453.13,141.515 2454.39,139.39 2455.64,135.768 2456.9,130.759 2458.16,135.995 2459.42,135.692 2460.67,123.08 2461.93,145.131 2463.19,125.722 2464.45,319.803 2465.7,444.88 2466.96,141.582 2468.22,129.469 2469.48,127.073 2470.73,129.42 2471.99,132.033 2473.25,133.792 2474.51,147.455 2475.76,119.922 2477.02,134.295 2478.28,126.527 2479.54,131.084 2480.79,141.952 2482.05,142.098 2483.31,123.48 2484.56,136.154 2485.82,145.114 2487.08,128.844 2488.34,131.507 2489.59,133.655 2490.85,129.147 2492.11,133.657 2493.37,134.968 2494.62,147.473 2495.88,121.998 2497.14,129.342 2498.4,143.032 2499.65,140.963 2500.91,143.231 2502.17,141.56 2503.43,124.911 2504.68,118.787 2505.94,123.008 2507.2,128.888 2508.46,131.912 2509.71,138.897 2510.97,135.994 2512.23,132.907 2513.48,125.388 2514.74,330.117 2516,128.235 2517.26,139.895 2518.51,129.502 2519.77,133.376 2521.03,137.836 2522.29,135.245 2523.54,132.554 2524.8,141.884 2526.06,130.807 2527.32,413.674 2528.57,321.748 2529.83,329.715 2531.09,332.968 2532.35,136.565 2533.6,146.669 2534.86,139.134 2536.12,131.732 2537.38,150.324 2538.63,137.772 2539.89,130.122 2541.15,134.342 2542.4,124.228 2543.66,127.01 2544.92,135.775 2546.18,128.253 2547.43,138.464 2548.69,132.397 2549.95,139.52 2551.21,138.954 2552.46,358.788 2553.72,144.946 2554.98,133.689 2556.24,126.462 2557.49,130.332 2558.75,130.324 2560.01,127.907 2561.27,144.427 2562.52,120.911 2563.78,127.648 2565.04,124.603 2566.3,127.407 2567.55,132.324 2568.81,353.935 2570.07,143.299 2571.32,125.758 2572.58,141.173 2573.84,152.989 2575.1,140.538 2576.35,130.084 2577.61,136.156 2578.87,143.395 2580.13,131.374 2581.38,131.746 2582.64,124.268 2583.9,134.227 2585.16,134.399 2586.41,135.542 2587.67,342.114 2588.93,119.882 2590.19,143.336 2591.44,150.783 2592.7,127.164 2593.96,111.856 2595.22,138.538 2596.47,143.369 2597.73,130.176 2598.99,127.967 2600.24,143.525 2601.5,134.631 2602.76,131.224 2604.02,148.978 2605.27,131.177 2606.53,137.319 2607.79,352.713 2609.05,124.957 2610.3,129.173 2611.56,137.808 2612.82,136.207 2614.08,142.904 2615.33,126.481 2616.59,132.015 2617.85,126.877 2619.11,324.422 2620.36,385.488 2621.62,321.606 2622.88,140.343 2624.14,405.327 2625.39,322.825 2626.65,321.072 2627.91,129.076 2629.16,135.025 2630.42,141.156 2631.68,134.512 2632.94,127.686 2634.19,128.297 2635.45,121.699 2636.71,145.936 2637.97,131.629 2639.22,134.714 2640.48,130.398 2641.74,130.992 2643,133.619 2644.25,131.223 2645.51,325.473 2646.77,138.559 2648.03,138.468 2649.28,133.507 2650.54,136.462 2651.8,438.217 2653.06,368.869 2654.31,131.96 2655.57,131.633 2656.83,129.891 2658.08,126.669 2659.34,128.868 2660.6,141.335 2661.86,140.51 2663.11,125.96 2664.37,135.035 2665.63,131.038 2666.89,138.699 2668.14,355.728 2669.4,128.266 2670.66,144.968 2671.92,134.544 2673.17,134.792 2674.43,117.983 2675.69,346.317 2676.95,112.445 2678.2,119.727 2679.46,306.563 2680.72,129.301 2681.98,137.164 2683.23,130.36 2684.49,125.531 2685.75,484.787 2687,122.834 2688.26,126.899 2689.52,133.035 2690.78,138.915 2692.03,117.719 2693.29,140.638 2694.55,142.876 2695.81,136.08 2697.06,132.376 2698.32,132.441 2699.58,337.444 2700.84,138.683 2702.09,129.107 2703.35,141.651 2704.61,137.39 2705.87,139.833 2707.12,143.454 2708.38,138.207 2709.64,133.787 2710.89,133.442 2712.15,136.029 2713.41,137.464 2714.67,341.74 2715.92,113.619 2717.18,144.537 2718.44,136.303 2719.7,145.562 2720.95,369.514 2722.21,492.382 2723.47,141.31 2724.73,134.795 2725.98,149.868 2727.24,126.565 2728.5,146.32 2729.76,370.426 2731.01,148.346 2732.27,132.327 2733.53,126.959 2734.79,123.884 2736.04,120.366 2737.3,324.78 2738.56,124.716 2739.81,144.135 2741.07,132.28 2742.33,132.933 2743.59,142.728 2744.84,129.842 2746.1,132.725 2747.36,115.337 2748.62,123.325 2749.87,311.212 2751.13,141.841 2752.39,143.019 2753.65,134.882 2754.9,130.663 2756.16,133.523 2757.42,130.888 2758.68,310.037 2759.93,133.03 2761.19,136.497 2762.45,128.852 2763.71,149.272 2764.96,135.579 2766.22,465.905 2767.48,133.733 2768.73,122.747 2769.99,505.535 2771.25,131.414 2772.51,337.965 2773.76,334.633 2775.02,316.739 2776.28,423.812 2777.54,366.784 2778.79,325.409 2780.05,400.793 2781.31,137.787 2782.57,152.306 2783.82,139.542 2785.08,140.442 2786.34,133.02 2787.6,133.232 2788.85,140.065 2790.11,146.29 2791.37,139.705 2792.63,121.431 2793.88,139.848 2795.14,137.379 2796.4,126.54 2797.65,127.24 2798.91,136.098 2800.17,143.415 2801.43,140.122 2802.68,141.953 2803.94,133.716 2805.2,127.492 2806.46,339.972 2807.71,417.5 2808.97,350.438 2810.23,334.576 2811.49,336.967 2812.74,138.084 2814,133.042 2815.26,121.52 2816.52,143.007 2817.77,133.22 2819.03,141.734 2820.29,140.491 2821.55,131.249 2822.8,134.767 2824.06,116.384 2825.32,151.063 2826.57,131.975 2827.83,138.099 2829.09,142.792 2830.35,129.106 2831.6,135.293 2832.86,124.426 2834.12,122.752 2835.38,138.606 2836.63,138.453 2837.89,120.317 2839.15,122.395 2840.41,137.488 2841.66,508.104 2842.92,136.262 2844.18,130.234 2845.44,131.391 2846.69,136.758 2847.95,151.99 2849.21,147.377 2850.47,130.485 2851.72,137.393 2852.98,147.914 2854.24,133.55 2855.49,341.916 2856.75,133.765 2858.01,134.581 2859.27,342.372 2860.52,131.817 2861.78,153.782 2863.04,122.055 2864.3,117.156 2865.55,134.485 2866.81,311.122 2868.07,149.29 2869.33,140.375 2870.58,136.565 2871.84,150.242 2873.1,132.451 2874.36,144.89 2875.61,135.169 2876.87,129.256 2878.13,132.103 2879.39,129.403 2880.64,140.171 2881.9,138.228 2883.16,121.27 2884.41,121.937 2885.67,124.733 2886.93,131.642 2888.19,129.641 2889.44,130.331 2890.7,134.956 2891.96,128.416 2893.22,130.416 2894.47,325.351 2895.73,128.27 2896.99,137.862 2898.25,360.903 2899.5,114.576 2900.76,132.654 2902.02,128.536 2903.28,123.493 2904.53,129.89 2905.79,473.242 2907.05,138.082 2908.31,119.545 2909.56,140.732 2910.82,134.724 2912.08,138.619 2913.33,130.623 2914.59,144.425 2915.85,140.844 2917.11,131.937 2918.36,148.139 2919.62,117.826 2920.88,401.479 2922.14,120.473 2923.39,128.433 2924.65,147.353 2925.91,129.341 2927.17,135.332 2928.42,133.277 2929.68,142.731 2930.94,142.504 2932.2,315.672 2933.45,129.162 2934.71,137.099 2935.97,125.936 2937.23,126.051 2938.48,334.605 2939.74,125.874 2941,130.28 2942.25,326.751 2943.51,117.832 2944.77,132.127 2946.03,135.602 2947.28,143.833 2948.54,134.812 2949.8,130.821 2951.06,123.773 2952.31,135.246 2953.57,133.553 2954.83,134.497 2956.09,154.658 2957.34,121.319 2958.6,140.703 2959.86,142.644 2961.12,138.317 2962.37,128.381 2963.63,142.82 2964.89,132.883 2966.15,129.482 2967.4,133.951 2968.66,127.19 2969.92,128.177 2971.17,122.018 2972.43,131.983 2973.69,140.675 2974.95,150.569 2976.2,121.404 2977.46,138.061 2978.72,130.974 2979.98,140.758 2981.23,136.304 2982.49,137.766 2983.75,135.927 2985.01,132.595 2986.26,143.412 2987.52,137.341 2988.78,132.316 2990.04,148.944 2991.29,317.84 2992.55,137.982 2993.81,131.38 2995.07,151.806 2996.32,137.71 2997.58,140.278 2998.84,145.097 3000.09,471.47 3001.35,124.012 3002.61,126.788 3003.87,141.627 3005.12,136.299 3006.38,135.112 3007.64,113.464 3008.9,123.704 3010.15,130.826 3011.41,126.535 3012.67,120.147 3013.93,381.337 3015.18,129.796 3016.44,129.205 3017.7,137.082 3018.96,135.348 3020.21,356.387 3021.47,382.693 3022.73,441.525 3023.99,142.679 3025.24,132.492 3026.5,129.743 3027.76,127.331 3029.01,129.299 3030.27,144.668 3031.53,131.247 3032.79,126.841 3034.04,121.196 3035.3,128.902 3036.56,129.421 3037.82,111.837 3039.07,136.694 3040.33,135.633 3041.59,134.932 3042.85,136.474 3044.1,129.789 3045.36,128.561 3046.62,127.911 3047.88,128.336 3049.13,129.708 3050.39,139.386 3051.65,125.476 3052.91,138.22 3054.16,141.677 3055.42,412.227 3056.68,387.413 3057.93,125.16 3059.19,132.394 3060.45,126.852 3061.71,134.24 3062.96,127.134 3064.22,145.084 3065.48,135.495 3066.74,125.957 3067.99,132.797 3069.25,320.537 3070.51,137.648 3071.77,111.464 3073.02,128.525 3074.28,143.351 3075.54,411.945 3076.8,316.231 3078.05,124.229 3079.31,130.626 3080.57,134.767 3081.83,136.941 3083.08,145.31 3084.34,127.055 3085.6,118.833 3086.85,113.38 3088.11,133.929 3089.37,127.21 3090.63,403.985 3091.88,139.201 3093.14,131.416 3094.4,320.509 3095.66,369.823 3096.91,338.971 3098.17,335.083 3099.43,324.336 3100.69,147.727 3101.94,154.877 3103.2,106.268 3104.46,495.814 3105.72,140.863 3106.97,126.503 3108.23,126.921 3109.49,127.142 3110.75,149.383 3112,134.782 3113.26,128.115 3114.52,127.209 3115.77,122.072 3117.03,412.429 3118.29,320.299 3119.55,434.467 3120.8,333.273 3122.06,372.556 3123.32,394.101 3124.58,121.416 3125.83,142.862 3127.09,499.224 3128.35,324.64 3129.61,418.238 3130.86,118.085 3132.12,314.365 3133.38,302.199 3134.64,340.418 3135.89,123.367 3137.15,122.585 3138.41,120.222 3139.67,136.961 3140.92,135.872 3142.18,124.561 3143.44,134.565 3144.69,130.832 3145.95,131.206 3147.21,139.685 3148.47,148.991 3149.72,146.104 3150.98,361.493 3152.24,154.484 3153.5,140.69 3154.75,136.128 3156.01,130.902 3157.27,338.832 3158.53,124.029 3159.78,136.151 3161.04,123.551 3162.3,139.416 3163.56,129.028 3164.81,130.323 3166.07,127.004 3167.33,128.634 3168.59,141.063 3169.84,134.84 3171.1,123.485 3172.36,141.617 3173.61,328.327 3174.87,125.081 3176.13,129.388 3177.39,124.219 3178.64,125.028 3179.9,131.153 3181.16,133.089 3182.42,322.787 3183.67,134.311 3184.93,319.336 3186.19,126.547 3187.45,126.815 3188.7,129.923 3189.96,132.444 3191.22,130.897 3192.48,127.009 3193.73,153.174 3194.99,136.38 3196.25,123.248 3197.51,132.966 3198.76,135.286 3200.02,137.885 3201.28,130.818 3202.53,137.117 3203.79,145.154 3205.05,124.452 3206.31,128.779 3207.56,423.571 3208.82,417.2 3210.08,148.178 3211.34,116.436 3212.59,133.633 3213.85,128.69 3215.11,142.931 3216.37,118.741 3217.62,439.925 3218.88,145.276 3220.14,138.297 3221.4,129.323 3222.65,134.975 3223.91,125.575 3225.17,327.346 3226.43,147.881 3227.68,321.132 3228.94,317.236 3230.2,119.414 3231.45,138.233 3232.71,125.981 3233.97,136.34 3235.23,407.346 3236.48,137.698 3237.74,140.982 3239,130.404 3240.26,130.709 3241.51,124.498 3242.77,330.342 3244.03,147.151 3245.29,124.805 3246.54,139.613 3247.8,120.406 3249.06,137.941 3250.32,130.221 3251.57,136.95 3252.83,123.586 3254.09,124.946 3255.35,140.203 3256.6,136.77 3257.86,326.571 3259.12,336.885 3260.37,141.464 3261.63,404.251 3262.89,139.548 3264.15,141.95 3265.4,128.671 3266.66,144.57 3267.92,141.304 3269.18,137.304 3270.43,129.933 3271.69,131.566 3272.95,130.936 3274.21,156.547 3275.46,337.106 3276.72,128.207 3277.98,137.525 3279.24,118.513 3280.49,326.87 3281.75,137.019 3283.01,129.713 3284.27,143.899 3285.52,133.559 3286.78,121.927 3288.04,123.421 3289.29,141.513 3290.55,128.858 3291.81,134.455 3293.07,328.116 3294.32,128.229 3295.58,133.846 3296.84,133.873 3298.1,131.506 3299.35,134.336 3300.61,136.652 3301.87,509.852 3303.13,370.859 3304.38,130.859 3305.64,125.332 3306.9,133.965 3308.16,145.034 3309.41,128.959 3310.67,140.193 3311.93,129.927 3313.19,137.66 3314.44,140.116 3315.7,124.325 3316.96,130.481 3318.21,126.71 3319.47,326.995 3320.73,131.982 3321.99,151.346 3323.24,126.053 3324.5,123.802 3325.76,137.8 3327.02,317.563 3328.27,128.445 3329.53,134.983 3330.79,138.954 3332.05,143.366 3333.3,118.553 3334.56,141.55 3335.82,128.666 3337.08,337.994 3338.33,144.508 3339.59,124.651 3340.85,146.484 3342.11,125.517 3343.36,145.795 3344.62,136.174 3345.88,136.389 3347.13,135.369 3348.39,387.31 3349.65,143.805 3350.91,136.45 3352.16,129.097 3353.42,142.878 3354.68,130.038 3355.94,128.127 3357.19,124.818 3358.45,121.859 3359.71,148.368 3360.97,450.126 3362.22,139.037 3363.48,135.601 3364.74,354.408 3366,358.327 3367.25,148.472 3368.51,141.175 3369.77,151.092 3371.03,124.897 3372.28,129.57 3373.54,132.236 3374.8,456.626 3376.05,328.784 3377.31,129.284 3378.57,471.788 3379.83,128.474 3381.08,144.375 3382.34,134.535 3383.6,122.336 3384.86,128.096 3386.11,131.67 3387.37,124.137 3388.63,141.322 3389.89,131.887 3391.14,139.111 3392.4,137.942 3393.66,134.793 3394.92,133.585 3396.17,126.262 3397.43,321.451 3398.69,332.52 3399.95,143.64 3401.2,130.48 3402.46,137.382 3403.72,117.689 3404.97,394.714 3406.23,131.716 3407.49,132.964 3408.75,146.783 3410,141.802 3411.26,125.467 3412.52,138.076 3413.78,138.76 3415.03,125.892 3416.29,127.061 3417.55,138.185 3418.81,135.384 3420.06,111.321 3421.32,141.646 3422.58,125.577 3423.84,137.401 3425.09,129.535 3426.35,134.196 3427.61,138.137 3428.87,144.961 3430.12,134.184 3431.38,128.43 3432.64,135.85 3433.89,135.044 3435.15,140.717 3436.41,469.422 3437.67,138.713 3438.92,139.361 3440.18,136.864 3441.44,125.604 3442.7,151.196 3443.95,332.173 3445.21,129.594 3446.47,137.961 3447.73,133.373 3448.98,141.324 3450.24,138.523 3451.5,357.681 3452.76,131.386 3454.01,122.835 3455.27,123.543 3456.53,118.757 "/>
<path clip-path="url(#clip480)" d="M2917.47 166.762 L3439.42 166.762 L3439.42 63.0816 L2917.47 63.0816  Z" fill="#ffffff" fill-rule="evenodd" fill-opacity="1"/>
<polyline clip-path="url(#clip480)" style="stroke:#000000; stroke-linecap:round; stroke-linejoin:round; stroke-width:4; stroke-opacity:1; fill:none" points="2917.47,166.762 3439.42,166.762 3439.42,63.0816 2917.47,63.0816 2917.47,166.762 "/>
<polyline clip-path="url(#clip480)" style="stroke:#009af9; stroke-linecap:round; stroke-linejoin:round; stroke-width:2; stroke-opacity:1; fill:none" points="2955.25,114.922 3181.92,114.922 "/>
<path clip-path="url(#clip480)" d="M3236.09 115.998 Q3237.59 116.507 3239 118.174 Q3240.44 119.841 3241.87 122.757 L3246.62 132.202 L3241.6 132.202 L3237.18 123.336 Q3235.46 119.864 3233.84 118.729 Q3232.24 117.595 3229.47 117.595 L3224.37 117.595 L3224.37 132.202 L3219.7 132.202 L3219.7 97.6416 L3230.25 97.6416 Q3236.18 97.6416 3239.1 100.118 Q3242.01 102.595 3242.01 107.595 Q3242.01 110.859 3240.49 113.012 Q3238.98 115.165 3236.09 115.998 M3224.37 101.484 L3224.37 113.753 L3230.25 113.753 Q3233.63 113.753 3235.35 112.202 Q3237.08 110.628 3237.08 107.595 Q3237.08 104.563 3235.35 103.035 Q3233.63 101.484 3230.25 101.484 L3224.37 101.484 Z" fill="#000000" fill-rule="evenodd" fill-opacity="1" /><path clip-path="url(#clip480)" d="M3262.27 102.248 L3255.93 119.447 L3268.63 119.447 L3262.27 102.248 M3259.63 97.6416 L3264.93 97.6416 L3278.1 132.202 L3273.24 132.202 L3270.09 123.336 L3254.51 123.336 L3251.37 132.202 L3246.43 132.202 L3259.63 97.6416 Z" fill="#000000" fill-rule="evenodd" fill-opacity="1" /><path clip-path="url(#clip480)" d="M3279.77 117.317 L3292.24 117.317 L3292.24 121.114 L3279.77 121.114 L3279.77 117.317 Z" fill="#000000" fill-rule="evenodd" fill-opacity="1" /><path clip-path="url(#clip480)" d="M3299.21 97.6416 L3303.89 97.6416 L3303.89 111.808 L3320.88 111.808 L3320.88 97.6416 L3325.55 97.6416 L3325.55 132.202 L3320.88 132.202 L3320.88 115.743 L3303.89 115.743 L3303.89 132.202 L3299.21 132.202 L3299.21 97.6416 Z" fill="#000000" fill-rule="evenodd" fill-opacity="1" /><path clip-path="url(#clip480)" d="M3334.86 97.6416 L3341.83 97.6416 L3350.65 121.16 L3359.51 97.6416 L3366.48 97.6416 L3366.48 132.202 L3361.92 132.202 L3361.92 101.854 L3353.01 125.558 L3348.31 125.558 L3339.4 101.854 L3339.4 132.202 L3334.86 132.202 L3334.86 97.6416 Z" fill="#000000" fill-rule="evenodd" fill-opacity="1" /><path clip-path="url(#clip480)" d="M3401.64 100.304 L3401.64 105.234 Q3399.28 103.035 3396.6 101.947 Q3393.93 100.859 3390.92 100.859 Q3385 100.859 3381.85 104.493 Q3378.7 108.104 3378.7 114.956 Q3378.7 121.785 3381.85 125.419 Q3385 129.03 3390.92 129.03 Q3393.93 129.03 3396.6 127.942 Q3399.28 126.854 3401.64 124.655 L3401.64 129.54 Q3399.19 131.206 3396.43 132.04 Q3393.7 132.873 3390.65 132.873 Q3382.8 132.873 3378.29 128.081 Q3373.77 123.266 3373.77 114.956 Q3373.77 106.623 3378.29 101.831 Q3382.8 97.0166 3390.65 97.0166 Q3393.75 97.0166 3396.48 97.8499 Q3399.23 98.6601 3401.64 100.304 Z" fill="#000000" fill-rule="evenodd" fill-opacity="1" /></svg>
