<?xml version="1.0" encoding="utf-8"?>
<svg xmlns="http://www.w3.org/2000/svg" xmlns:xlink="http://www.w3.org/1999/xlink" width="900" height="150" viewBox="0 0 3600 600">
<defs>
  <clipPath id="clip880">
    <rect x="0" y="0" width="3600" height="600"/>
  </clipPath>
</defs>
<path clip-path="url(#clip880)" d="M0 600 L3600 600 L3600 0 L0 0  Z" fill="#ffffff" fill-rule="evenodd" fill-opacity="1"/>
<defs>
  <clipPath id="clip881">
    <rect x="720" y="0" width="2521" height="600"/>
  </clipPath>
</defs>
<path clip-path="url(#clip880)" d="M152.696 522.368 L3552.76 522.368 L3552.76 47.2441 L152.696 47.2441  Z" fill="#ffffff" fill-rule="evenodd" fill-opacity="1"/>
<defs>
  <clipPath id="clip882">
    <rect x="152" y="47" width="3401" height="476"/>
  </clipPath>
</defs>
<polyline clip-path="url(#clip882)" style="stroke:#000000; stroke-linecap:round; stroke-linejoin:round; stroke-width:2; stroke-opacity:0.1; fill:none" points="248.134,522.368 248.134,47.2441 "/>
<polyline clip-path="url(#clip882)" style="stroke:#000000; stroke-linecap:round; stroke-linejoin:round; stroke-width:2; stroke-opacity:0.1; fill:none" points="1038.18,522.368 1038.18,47.2441 "/>
<polyline clip-path="url(#clip882)" style="stroke:#000000; stroke-linecap:round; stroke-linejoin:round; stroke-width:2; stroke-opacity:0.1; fill:none" points="1828.23,522.368 1828.23,47.2441 "/>
<polyline clip-path="url(#clip882)" style="stroke:#000000; stroke-linecap:round; stroke-linejoin:round; stroke-width:2; stroke-opacity:0.1; fill:none" points="2618.28,522.368 2618.28,47.2441 "/>
<polyline clip-path="url(#clip882)" style="stroke:#000000; stroke-linecap:round; stroke-linejoin:round; stroke-width:2; stroke-opacity:0.1; fill:none" points="3408.33,522.368 3408.33,47.2441 "/>
<polyline clip-path="url(#clip880)" style="stroke:#000000; stroke-linecap:round; stroke-linejoin:round; stroke-width:4; stroke-opacity:1; fill:none" points="152.696,522.368 3552.76,522.368 "/>
<polyline clip-path="url(#clip880)" style="stroke:#000000; stroke-linecap:round; stroke-linejoin:round; stroke-width:4; stroke-opacity:1; fill:none" points="248.134,522.368 248.134,503.47 "/>
<polyline clip-path="url(#clip880)" style="stroke:#000000; stroke-linecap:round; stroke-linejoin:round; stroke-width:4; stroke-opacity:1; fill:none" points="1038.18,522.368 1038.18,503.47 "/>
<polyline clip-path="url(#clip880)" style="stroke:#000000; stroke-linecap:round; stroke-linejoin:round; stroke-width:4; stroke-opacity:1; fill:none" points="1828.23,522.368 1828.23,503.47 "/>
<polyline clip-path="url(#clip880)" style="stroke:#000000; stroke-linecap:round; stroke-linejoin:round; stroke-width:4; stroke-opacity:1; fill:none" points="2618.28,522.368 2618.28,503.47 "/>
<polyline clip-path="url(#clip880)" style="stroke:#000000; stroke-linecap:round; stroke-linejoin:round; stroke-width:4; stroke-opacity:1; fill:none" points="3408.33,522.368 3408.33,503.47 "/>
<path clip-path="url(#clip880)" d="M248.134 562.887 Q244.523 562.887 242.694 566.451 Q240.888 569.993 240.888 577.123 Q240.888 584.229 242.694 587.794 Q244.523 591.335 248.134 591.335 Q251.768 591.335 253.573 587.794 Q255.402 584.229 255.402 577.123 Q255.402 569.993 253.573 566.451 Q251.768 562.887 248.134 562.887 M248.134 559.183 Q253.944 559.183 256.999 563.789 Q260.078 568.373 260.078 577.123 Q260.078 585.849 256.999 590.456 Q253.944 595.039 248.134 595.039 Q242.323 595.039 239.245 590.456 Q236.189 585.849 236.189 577.123 Q236.189 568.373 239.245 563.789 Q242.323 559.183 248.134 559.183 Z" fill="#000000" fill-rule="evenodd" fill-opacity="1" /><path clip-path="url(#clip880)" d="M982.71 590.433 L990.348 590.433 L990.348 564.067 L982.038 565.734 L982.038 561.475 L990.302 559.808 L994.978 559.808 L994.978 590.433 L1002.62 590.433 L1002.62 594.368 L982.71 594.368 L982.71 590.433 Z" fill="#000000" fill-rule="evenodd" fill-opacity="1" /><path clip-path="url(#clip880)" d="M1022.06 562.887 Q1018.45 562.887 1016.62 566.451 Q1014.82 569.993 1014.82 577.123 Q1014.82 584.229 1016.62 587.794 Q1018.45 591.335 1022.06 591.335 Q1025.7 591.335 1027.5 587.794 Q1029.33 584.229 1029.33 577.123 Q1029.33 569.993 1027.5 566.451 Q1025.7 562.887 1022.06 562.887 M1022.06 559.183 Q1027.87 559.183 1030.93 563.789 Q1034.01 568.373 1034.01 577.123 Q1034.01 585.849 1030.93 590.456 Q1027.87 595.039 1022.06 595.039 Q1016.25 595.039 1013.17 590.456 Q1010.12 585.849 1010.12 577.123 Q1010.12 568.373 1013.17 563.789 Q1016.25 559.183 1022.06 559.183 Z" fill="#000000" fill-rule="evenodd" fill-opacity="1" /><path clip-path="url(#clip880)" d="M1052.22 562.887 Q1048.61 562.887 1046.78 566.451 Q1044.98 569.993 1044.98 577.123 Q1044.98 584.229 1046.78 587.794 Q1048.61 591.335 1052.22 591.335 Q1055.86 591.335 1057.66 587.794 Q1059.49 584.229 1059.49 577.123 Q1059.49 569.993 1057.66 566.451 Q1055.86 562.887 1052.22 562.887 M1052.22 559.183 Q1058.03 559.183 1061.09 563.789 Q1064.17 568.373 1064.17 577.123 Q1064.17 585.849 1061.09 590.456 Q1058.03 595.039 1052.22 595.039 Q1046.41 595.039 1043.33 590.456 Q1040.28 585.849 1040.28 577.123 Q1040.28 568.373 1043.33 563.789 Q1046.41 559.183 1052.22 559.183 Z" fill="#000000" fill-rule="evenodd" fill-opacity="1" /><path clip-path="url(#clip880)" d="M1082.39 562.887 Q1078.77 562.887 1076.95 566.451 Q1075.14 569.993 1075.14 577.123 Q1075.14 584.229 1076.95 587.794 Q1078.77 591.335 1082.39 591.335 Q1086.02 591.335 1087.82 587.794 Q1089.65 584.229 1089.65 577.123 Q1089.65 569.993 1087.82 566.451 Q1086.02 562.887 1082.39 562.887 M1082.39 559.183 Q1088.2 559.183 1091.25 563.789 Q1094.33 568.373 1094.33 577.123 Q1094.33 585.849 1091.25 590.456 Q1088.2 595.039 1082.39 595.039 Q1076.57 595.039 1073.5 590.456 Q1070.44 585.849 1070.44 577.123 Q1070.44 568.373 1073.5 563.789 Q1076.57 559.183 1082.39 559.183 Z" fill="#000000" fill-rule="evenodd" fill-opacity="1" /><path clip-path="url(#clip880)" d="M1776.85 590.433 L1793.16 590.433 L1793.16 594.368 L1771.22 594.368 L1771.22 590.433 Q1773.88 587.678 1778.47 583.048 Q1783.07 578.396 1784.25 577.053 Q1786.5 574.53 1787.38 572.794 Q1788.28 571.035 1788.28 569.345 Q1788.28 566.59 1786.34 564.854 Q1784.41 563.118 1781.31 563.118 Q1779.11 563.118 1776.66 563.882 Q1774.23 564.646 1771.45 566.197 L1771.45 561.475 Q1774.28 560.34 1776.73 559.762 Q1779.18 559.183 1781.22 559.183 Q1786.59 559.183 1789.79 561.868 Q1792.98 564.553 1792.98 569.044 Q1792.98 571.174 1792.17 573.095 Q1791.38 574.993 1789.28 577.586 Q1788.7 578.257 1785.6 581.474 Q1782.49 584.669 1776.85 590.433 Z" fill="#000000" fill-rule="evenodd" fill-opacity="1" /><path clip-path="url(#clip880)" d="M1812.98 562.887 Q1809.37 562.887 1807.54 566.451 Q1805.73 569.993 1805.73 577.123 Q1805.73 584.229 1807.54 587.794 Q1809.37 591.335 1812.98 591.335 Q1816.61 591.335 1818.42 587.794 Q1820.25 584.229 1820.25 577.123 Q1820.25 569.993 1818.42 566.451 Q1816.61 562.887 1812.98 562.887 M1812.98 559.183 Q1818.79 559.183 1821.85 563.789 Q1824.92 568.373 1824.92 577.123 Q1824.92 585.849 1821.85 590.456 Q1818.79 595.039 1812.98 595.039 Q1807.17 595.039 1804.09 590.456 Q1801.04 585.849 1801.04 577.123 Q1801.04 568.373 1804.09 563.789 Q1807.17 559.183 1812.98 559.183 Z" fill="#000000" fill-rule="evenodd" fill-opacity="1" /><path clip-path="url(#clip880)" d="M1843.14 562.887 Q1839.53 562.887 1837.7 566.451 Q1835.9 569.993 1835.9 577.123 Q1835.9 584.229 1837.7 587.794 Q1839.53 591.335 1843.14 591.335 Q1846.78 591.335 1848.58 587.794 Q1850.41 584.229 1850.41 577.123 Q1850.41 569.993 1848.58 566.451 Q1846.78 562.887 1843.14 562.887 M1843.14 559.183 Q1848.95 559.183 1852.01 563.789 Q1855.09 568.373 1855.09 577.123 Q1855.09 585.849 1852.01 590.456 Q1848.95 595.039 1843.14 595.039 Q1837.33 595.039 1834.25 590.456 Q1831.2 585.849 1831.2 577.123 Q1831.2 568.373 1834.25 563.789 Q1837.33 559.183 1843.14 559.183 Z" fill="#000000" fill-rule="evenodd" fill-opacity="1" /><path clip-path="url(#clip880)" d="M1873.3 562.887 Q1869.69 562.887 1867.86 566.451 Q1866.06 569.993 1866.06 577.123 Q1866.06 584.229 1867.86 587.794 Q1869.69 591.335 1873.3 591.335 Q1876.94 591.335 1878.74 587.794 Q1880.57 584.229 1880.57 577.123 Q1880.57 569.993 1878.74 566.451 Q1876.94 562.887 1873.3 562.887 M1873.3 559.183 Q1879.11 559.183 1882.17 563.789 Q1885.25 568.373 1885.25 577.123 Q1885.25 585.849 1882.17 590.456 Q1879.11 595.039 1873.3 595.039 Q1867.49 595.039 1864.41 590.456 Q1861.36 585.849 1861.36 577.123 Q1861.36 568.373 1864.41 563.789 Q1867.49 559.183 1873.3 559.183 Z" fill="#000000" fill-rule="evenodd" fill-opacity="1" /><path clip-path="url(#clip880)" d="M2576.97 575.734 Q2580.32 576.451 2582.2 578.72 Q2584.09 580.988 2584.09 584.322 Q2584.09 589.437 2580.58 592.238 Q2577.06 595.039 2570.58 595.039 Q2568.4 595.039 2566.09 594.599 Q2563.79 594.183 2561.34 593.326 L2561.34 588.812 Q2563.28 589.947 2565.6 590.525 Q2567.91 591.104 2570.44 591.104 Q2574.84 591.104 2577.13 589.368 Q2579.44 587.632 2579.44 584.322 Q2579.44 581.266 2577.29 579.553 Q2575.16 577.817 2571.34 577.817 L2567.31 577.817 L2567.31 573.974 L2571.53 573.974 Q2574.97 573.974 2576.8 572.609 Q2578.63 571.22 2578.63 568.627 Q2578.63 565.965 2576.73 564.553 Q2574.86 563.118 2571.34 563.118 Q2569.42 563.118 2567.22 563.535 Q2565.02 563.951 2562.38 564.831 L2562.38 560.664 Q2565.04 559.924 2567.36 559.553 Q2569.7 559.183 2571.76 559.183 Q2577.08 559.183 2580.18 561.613 Q2583.28 564.021 2583.28 568.141 Q2583.28 571.012 2581.64 573.002 Q2580 574.97 2576.97 575.734 Z" fill="#000000" fill-rule="evenodd" fill-opacity="1" /><path clip-path="url(#clip880)" d="M2602.96 562.887 Q2599.35 562.887 2597.52 566.451 Q2595.72 569.993 2595.72 577.123 Q2595.72 584.229 2597.52 587.794 Q2599.35 591.335 2602.96 591.335 Q2606.59 591.335 2608.4 587.794 Q2610.23 584.229 2610.23 577.123 Q2610.23 569.993 2608.4 566.451 Q2606.59 562.887 2602.96 562.887 M2602.96 559.183 Q2608.77 559.183 2611.83 563.789 Q2614.9 568.373 2614.9 577.123 Q2614.9 585.849 2611.83 590.456 Q2608.77 595.039 2602.96 595.039 Q2597.15 595.039 2594.07 590.456 Q2591.02 585.849 2591.02 577.123 Q2591.02 568.373 2594.07 563.789 Q2597.15 559.183 2602.96 559.183 Z" fill="#000000" fill-rule="evenodd" fill-opacity="1" /><path clip-path="url(#clip880)" d="M2633.12 562.887 Q2629.51 562.887 2627.68 566.451 Q2625.88 569.993 2625.88 577.123 Q2625.88 584.229 2627.68 587.794 Q2629.51 591.335 2633.12 591.335 Q2636.76 591.335 2638.56 587.794 Q2640.39 584.229 2640.39 577.123 Q2640.39 569.993 2638.56 566.451 Q2636.76 562.887 2633.12 562.887 M2633.12 559.183 Q2638.93 559.183 2641.99 563.789 Q2645.07 568.373 2645.07 577.123 Q2645.07 585.849 2641.99 590.456 Q2638.93 595.039 2633.12 595.039 Q2627.31 595.039 2624.23 590.456 Q2621.18 585.849 2621.18 577.123 Q2621.18 568.373 2624.23 563.789 Q2627.31 559.183 2633.12 559.183 Z" fill="#000000" fill-rule="evenodd" fill-opacity="1" /><path clip-path="url(#clip880)" d="M2663.28 562.887 Q2659.67 562.887 2657.84 566.451 Q2656.04 569.993 2656.04 577.123 Q2656.04 584.229 2657.84 587.794 Q2659.67 591.335 2663.28 591.335 Q2666.92 591.335 2668.72 587.794 Q2670.55 584.229 2670.55 577.123 Q2670.55 569.993 2668.72 566.451 Q2666.92 562.887 2663.28 562.887 M2663.28 559.183 Q2669.09 559.183 2672.15 563.789 Q2675.23 568.373 2675.23 577.123 Q2675.23 585.849 2672.15 590.456 Q2669.09 595.039 2663.28 595.039 Q2657.47 595.039 2654.4 590.456 Q2651.34 585.849 2651.34 577.123 Q2651.34 568.373 2654.4 563.789 Q2657.47 559.183 2663.28 559.183 Z" fill="#000000" fill-rule="evenodd" fill-opacity="1" /><path clip-path="url(#clip880)" d="M3366.34 563.882 L3354.54 582.331 L3366.34 582.331 L3366.34 563.882 M3365.12 559.808 L3371 559.808 L3371 582.331 L3375.93 582.331 L3375.93 586.22 L3371 586.22 L3371 594.368 L3366.34 594.368 L3366.34 586.22 L3350.74 586.22 L3350.74 581.706 L3365.12 559.808 Z" fill="#000000" fill-rule="evenodd" fill-opacity="1" /><path clip-path="url(#clip880)" d="M3393.66 562.887 Q3390.05 562.887 3388.22 566.451 Q3386.41 569.993 3386.41 577.123 Q3386.41 584.229 3388.22 587.794 Q3390.05 591.335 3393.66 591.335 Q3397.29 591.335 3399.1 587.794 Q3400.93 584.229 3400.93 577.123 Q3400.93 569.993 3399.1 566.451 Q3397.29 562.887 3393.66 562.887 M3393.66 559.183 Q3399.47 559.183 3402.52 563.789 Q3405.6 568.373 3405.6 577.123 Q3405.6 585.849 3402.52 590.456 Q3399.47 595.039 3393.66 595.039 Q3387.85 595.039 3384.77 590.456 Q3381.71 585.849 3381.71 577.123 Q3381.71 568.373 3384.77 563.789 Q3387.85 559.183 3393.66 559.183 Z" fill="#000000" fill-rule="evenodd" fill-opacity="1" /><path clip-path="url(#clip880)" d="M3423.82 562.887 Q3420.21 562.887 3418.38 566.451 Q3416.58 569.993 3416.58 577.123 Q3416.58 584.229 3418.38 587.794 Q3420.21 591.335 3423.82 591.335 Q3427.45 591.335 3429.26 587.794 Q3431.09 584.229 3431.09 577.123 Q3431.09 569.993 3429.26 566.451 Q3427.45 562.887 3423.82 562.887 M3423.82 559.183 Q3429.63 559.183 3432.69 563.789 Q3435.77 568.373 3435.77 577.123 Q3435.77 585.849 3432.69 590.456 Q3429.63 595.039 3423.82 595.039 Q3418.01 595.039 3414.93 590.456 Q3411.88 585.849 3411.88 577.123 Q3411.88 568.373 3414.93 563.789 Q3418.01 559.183 3423.82 559.183 Z" fill="#000000" fill-rule="evenodd" fill-opacity="1" /><path clip-path="url(#clip880)" d="M3453.98 562.887 Q3450.37 562.887 3448.54 566.451 Q3446.74 569.993 3446.74 577.123 Q3446.74 584.229 3448.54 587.794 Q3450.37 591.335 3453.98 591.335 Q3457.62 591.335 3459.42 587.794 Q3461.25 584.229 3461.25 577.123 Q3461.25 569.993 3459.42 566.451 Q3457.62 562.887 3453.98 562.887 M3453.98 559.183 Q3459.79 559.183 3462.85 563.789 Q3465.93 568.373 3465.93 577.123 Q3465.93 585.849 3462.85 590.456 Q3459.79 595.039 3453.98 595.039 Q3448.17 595.039 3445.09 590.456 Q3442.04 585.849 3442.04 577.123 Q3442.04 568.373 3445.09 563.789 Q3448.17 559.183 3453.98 559.183 Z" fill="#000000" fill-rule="evenodd" fill-opacity="1" /><polyline clip-path="url(#clip882)" style="stroke:#000000; stroke-linecap:round; stroke-linejoin:round; stroke-width:2; stroke-opacity:0.1; fill:none" points="152.696,449.645 3552.76,449.645 "/>
<polyline clip-path="url(#clip882)" style="stroke:#000000; stroke-linecap:round; stroke-linejoin:round; stroke-width:2; stroke-opacity:0.1; fill:none" points="152.696,328.44 3552.76,328.44 "/>
<polyline clip-path="url(#clip882)" style="stroke:#000000; stroke-linecap:round; stroke-linejoin:round; stroke-width:2; stroke-opacity:0.1; fill:none" points="152.696,207.235 3552.76,207.235 "/>
<polyline clip-path="url(#clip882)" style="stroke:#000000; stroke-linecap:round; stroke-linejoin:round; stroke-width:2; stroke-opacity:0.1; fill:none" points="152.696,86.0297 3552.76,86.0297 "/>
<polyline clip-path="url(#clip880)" style="stroke:#000000; stroke-linecap:round; stroke-linejoin:round; stroke-width:4; stroke-opacity:1; fill:none" points="152.696,522.368 152.696,47.2441 "/>
<polyline clip-path="url(#clip880)" style="stroke:#000000; stroke-linecap:round; stroke-linejoin:round; stroke-width:4; stroke-opacity:1; fill:none" points="152.696,449.645 171.593,449.645 "/>
<polyline clip-path="url(#clip880)" style="stroke:#000000; stroke-linecap:round; stroke-linejoin:round; stroke-width:4; stroke-opacity:1; fill:none" points="152.696,328.44 171.593,328.44 "/>
<polyline clip-path="url(#clip880)" style="stroke:#000000; stroke-linecap:round; stroke-linejoin:round; stroke-width:4; stroke-opacity:1; fill:none" points="152.696,207.235 171.593,207.235 "/>
<polyline clip-path="url(#clip880)" style="stroke:#000000; stroke-linecap:round; stroke-linejoin:round; stroke-width:4; stroke-opacity:1; fill:none" points="152.696,86.0297 171.593,86.0297 "/>
<path clip-path="url(#clip880)" d="M77.7929 432.365 L96.1493 432.365 L96.1493 436.3 L82.0753 436.3 L82.0753 444.772 Q83.0938 444.425 84.1123 444.263 Q85.1308 444.078 86.1493 444.078 Q91.9363 444.078 95.3159 447.249 Q98.6955 450.42 98.6955 455.837 Q98.6955 461.416 95.2233 464.517 Q91.7511 467.596 85.4317 467.596 Q83.2558 467.596 80.9873 467.226 Q78.7419 466.855 76.3346 466.115 L76.3346 461.416 Q78.4179 462.55 80.6401 463.105 Q82.8623 463.661 85.3391 463.661 Q89.3437 463.661 91.6817 461.555 Q94.0196 459.448 94.0196 455.837 Q94.0196 452.226 91.6817 450.119 Q89.3437 448.013 85.3391 448.013 Q83.4641 448.013 81.5892 448.43 Q79.7373 448.846 77.7929 449.726 L77.7929 432.365 Z" fill="#000000" fill-rule="evenodd" fill-opacity="1" /><path clip-path="url(#clip880)" d="M47.3995 341.785 L55.0384 341.785 L55.0384 315.419 L46.7282 317.086 L46.7282 312.826 L54.9921 311.16 L59.668 311.16 L59.668 341.785 L67.3068 341.785 L67.3068 345.72 L47.3995 345.72 L47.3995 341.785 Z" fill="#000000" fill-rule="evenodd" fill-opacity="1" /><path clip-path="url(#clip880)" d="M86.7512 314.238 Q83.1401 314.238 81.3114 317.803 Q79.5058 321.345 79.5058 328.475 Q79.5058 335.581 81.3114 339.146 Q83.1401 342.687 86.7512 342.687 Q90.3854 342.687 92.1909 339.146 Q94.0196 335.581 94.0196 328.475 Q94.0196 321.345 92.1909 317.803 Q90.3854 314.238 86.7512 314.238 M86.7512 310.535 Q92.5613 310.535 95.6169 315.141 Q98.6955 319.725 98.6955 328.475 Q98.6955 337.201 95.6169 341.808 Q92.5613 346.391 86.7512 346.391 Q80.941 346.391 77.8623 341.808 Q74.8068 337.201 74.8068 328.475 Q74.8068 319.725 77.8623 315.141 Q80.941 310.535 86.7512 310.535 Z" fill="#000000" fill-rule="evenodd" fill-opacity="1" /><path clip-path="url(#clip880)" d="M48.3949 220.58 L56.0337 220.58 L56.0337 194.214 L47.7236 195.881 L47.7236 191.621 L55.9874 189.955 L60.6633 189.955 L60.6633 220.58 L68.3022 220.58 L68.3022 224.515 L48.3949 224.515 L48.3949 220.58 Z" fill="#000000" fill-rule="evenodd" fill-opacity="1" /><path clip-path="url(#clip880)" d="M77.7929 189.955 L96.1493 189.955 L96.1493 193.89 L82.0753 193.89 L82.0753 202.362 Q83.0938 202.015 84.1123 201.853 Q85.1308 201.668 86.1493 201.668 Q91.9363 201.668 95.3159 204.839 Q98.6955 208.01 98.6955 213.427 Q98.6955 219.006 95.2233 222.107 Q91.7511 225.186 85.4317 225.186 Q83.2558 225.186 80.9873 224.816 Q78.7419 224.445 76.3346 223.705 L76.3346 219.006 Q78.4179 220.14 80.6401 220.695 Q82.8623 221.251 85.3391 221.251 Q89.3437 221.251 91.6817 219.144 Q94.0196 217.038 94.0196 213.427 Q94.0196 209.816 91.6817 207.709 Q89.3437 205.603 85.3391 205.603 Q83.4641 205.603 81.5892 206.019 Q79.7373 206.436 77.7929 207.316 L77.7929 189.955 Z" fill="#000000" fill-rule="evenodd" fill-opacity="1" /><path clip-path="url(#clip880)" d="M50.6171 99.3745 L66.9365 99.3745 L66.9365 103.31 L44.9921 103.31 L44.9921 99.3745 Q47.6541 96.6199 52.2375 91.9903 Q56.8439 87.3376 58.0245 85.995 Q60.2698 83.4719 61.1494 81.7358 Q62.0522 79.9765 62.0522 78.2867 Q62.0522 75.5321 60.1078 73.796 Q58.1865 72.0599 55.0847 72.0599 Q52.8856 72.0599 50.4319 72.8238 Q48.0014 73.5876 45.2236 75.1386 L45.2236 70.4164 Q48.0477 69.2821 50.5014 68.7034 Q52.955 68.1247 54.9921 68.1247 Q60.3624 68.1247 63.5568 70.8099 Q66.7513 73.4951 66.7513 77.9858 Q66.7513 80.1154 65.9411 82.0367 Q65.1541 83.9348 63.0476 86.5274 Q62.4689 87.1987 59.367 90.4163 Q56.2652 93.6107 50.6171 99.3745 Z" fill="#000000" fill-rule="evenodd" fill-opacity="1" /><path clip-path="url(#clip880)" d="M86.7512 71.8284 Q83.1401 71.8284 81.3114 75.3932 Q79.5058 78.9348 79.5058 86.0644 Q79.5058 93.1709 81.3114 96.7357 Q83.1401 100.277 86.7512 100.277 Q90.3854 100.277 92.1909 96.7357 Q94.0196 93.1709 94.0196 86.0644 Q94.0196 78.9348 92.1909 75.3932 Q90.3854 71.8284 86.7512 71.8284 M86.7512 68.1247 Q92.5613 68.1247 95.6169 72.7312 Q98.6955 77.3145 98.6955 86.0644 Q98.6955 94.7912 95.6169 99.3977 Q92.5613 103.981 86.7512 103.981 Q80.941 103.981 77.8623 99.3977 Q74.8068 94.7912 74.8068 86.0644 Q74.8068 77.3145 77.8623 72.7312 Q80.941 68.1247 86.7512 68.1247 Z" fill="#000000" fill-rule="evenodd" fill-opacity="1" /><polyline clip-path="url(#clip882)" style="stroke:#009af9; stroke-linecap:round; stroke-linejoin:round; stroke-width:2; stroke-opacity:1; fill:none" points="248.924,309.614 249.714,484.762 250.504,409.432 251.294,326.739 252.084,325.308 252.874,316.329 253.664,402.645 254.454,458.643 255.244,404.152 256.034,446.629 256.824,440.844 257.614,500.898 258.404,472.186 259.194,498.708 259.984,458.304 260.774,331.586 261.564,475.53 262.355,384.07 263.145,344.846 263.935,502.911 264.725,471.269 265.515,505.671 266.305,472.949 267.095,461.6 267.885,479.621 268.675,459.746 269.465,500.02 270.255,450.363 271.045,299.296 271.835,307.375 272.625,354.637 273.415,432.547 274.205,322.831 274.995,323.371 275.785,322.592 276.575,324.066 277.365,337.293 278.156,334.822 278.946,335.322 279.736,490.591 280.526,484.759 281.316,444.626 282.106,346.609 282.896,341.379 283.686,321.786 284.476,320.304 285.266,313.352 286.056,314.161 286.846,336.568 287.636,306.469 288.426,350.63 289.216,323.964 290.006,321.216 290.796,388.871 291.586,404.718 292.376,500.902 293.166,375.564 293.957,525.922 294.747,443.942 295.537,474.277 296.327,479.136 297.117,492.784 297.907,471.787 298.697,497.864 299.487,366.608 300.277,511.872 301.067,443.941 301.857,447.698 302.647,420.311 303.437,321.761 304.227,402.83 305.017,514.694 305.807,390.932 306.597,513.533 307.387,372.753 308.177,347.764 308.967,327.948 309.758,460.326 310.548,371.2 311.338,318.012 312.128,374.127 312.918,330.948 313.708,325.807 314.498,324.679 315.288,317.111 316.078,336.713 316.868,329.367 317.658,351.823 318.448,349.096 319.238,316.591 320.028,330.85 320.818,339.98 321.608,327.81 322.398,334 323.188,327.013 323.978,336.462 324.768,324.681 325.559,347.055 326.349,399.699 327.139,471.918 327.929,497.944 328.719,424.717 329.509,316.979 330.299,435.417 331.089,326.679 331.879,359.293 332.669,378.656 333.459,402.093 334.249,367.766 335.039,381.942 335.829,329.331 336.619,336.767 337.409,316.687 338.199,314.412 338.989,333.063 339.779,345.717 340.569,350.54 341.36,356.494 342.15,438.691 342.94,485.763 343.73,356.847 344.52,531.191 345.31,347.634 346.1,461.592 346.89,434.687 347.68,412.927 348.47,343.264 349.26,339.927 350.05,332.814 350.84,323.999 351.63,323.247 352.42,463.272 353.21,413.24 354,450.77 354.79,493.61 355.58,504.8 356.371,477.228 357.161,352.727 357.951,322.686 358.741,322.767 359.531,337.317 360.321,311.248 361.111,318.677 361.901,331.285 362.691,336.075 363.481,333.647 364.271,324.22 365.061,387.353 365.851,444.872 366.641,351.167 367.431,419.902 368.221,450.196 369.011,404.718 369.801,489.427 370.591,449.766 371.381,392.06 372.172,425.809 372.962,525.409 373.752,484.203 374.542,493.599 375.332,514.487 376.122,381.534 376.912,368.213 377.702,340.002 378.492,446.36 379.282,521.924 380.072,474.654 380.862,343.438 381.652,332.037 382.442,325.562 383.232,318.411 384.022,320.223 384.812,320.679 385.602,325.549 386.392,299.054 387.182,504.118 387.973,520.486 388.763,498.961 389.553,493.461 390.343,505.878 391.133,330.352 391.923,327.97 392.713,392.545 393.503,439.714 394.293,408.111 395.083,396.97 395.873,408.401 396.663,346.25 397.453,343.146 398.243,336.729 399.033,392.975 399.823,421.976 400.613,360.499 401.403,305.946 402.193,391.493 402.983,517.229 403.774,436.213 404.564,318.569 405.354,431.012 406.144,409.409 406.934,515.261 407.724,517.82 408.514,437.299 409.304,398.959 410.094,408.565 410.884,453.071 411.674,419.626 412.464,461.053 413.254,450.224 414.044,440.554 414.834,356.834 415.624,336.081 416.414,354.585 417.204,382.632 417.994,508.012 418.784,429.752 419.575,458.183 420.365,503.637 421.155,443.489 421.945,394.463 422.735,513.999 423.525,473.561 424.315,458.645 425.105,383.252 425.895,397.61 426.685,436.205 427.475,493.196 428.265,439.603 429.055,527.377 429.845,470.353 430.635,441.797 431.425,461.779 432.215,420.253 433.005,431.78 433.795,446.589 434.585,442.312 435.376,301.574 436.166,360.234 436.956,335.14 437.746,334.864 438.536,332.453 439.326,332.277 440.116,460.005 440.906,440.726 441.696,318.021 442.486,331.755 443.276,329.942 444.066,328.483 444.856,328.8 445.646,323.36 446.436,321.404 447.226,328.055 448.016,323.975 448.806,323.183 449.596,338 450.386,335.327 451.177,337.62 451.967,336.567 452.757,355.479 453.547,368.586 454.337,365.798 455.127,375.858 455.917,329.388 456.707,317.52 457.497,511.459 458.287,482.49 459.077,485.006 459.867,469.469 460.657,446.202 461.447,359.458 462.237,321.298 463.027,318.064 463.817,324.613 464.607,480.381 465.397,317.654 466.187,512.915 466.978,417.749 467.768,438.879 468.558,440.744 469.348,382.36 470.138,337.417 470.928,332.035 471.718,321.591 472.508,323.955 473.298,319.259 474.088,323.907 474.878,316.114 475.668,481.411 476.458,483.1 477.248,312.935 478.038,317.338 478.828,311.247 479.618,306.969 480.408,299.629 481.198,301.672 481.988,299.981 482.779,505.666 483.569,300.568 484.359,305.996 485.149,314.373 485.939,323.946 486.729,341.92 487.519,325.225 488.309,319.892 489.099,320.066 489.889,346.688 490.679,331.953 491.469,319.807 492.259,313.229 493.049,331.578 493.839,460.653 494.629,433.291 495.419,346.129 496.209,327.096 496.999,442.639 497.79,428.733 498.58,335.945 499.37,353.757 500.16,516.725 500.95,355.676 501.74,375.808 502.53,315.813 503.32,431.77 504.11,300.063 504.9,547.078 505.69,317.661 506.48,321.258 507.27,329.241 508.06,397.289 508.85,484.306 509.64,362.574 510.43,312.912 511.22,315.672 512.01,416.442 512.8,468.448 513.591,450.896 514.381,366.579 515.171,424.906 515.961,366.347 516.751,496.535 517.541,413.609 518.331,357.929 519.121,462.352 519.911,439.373 520.701,423.883 521.491,433.597 522.281,444.301 523.071,474.051 523.861,346.563 524.651,422.848 525.441,479.682 526.231,463.425 527.021,369.622 527.811,319.579 528.601,386.599 529.392,437.021 530.182,350.729 530.972,347.662 531.762,315.262 532.552,317.896 533.342,308.268 534.132,516.139 534.922,324.426 535.712,339.705 536.502,344.68 537.292,335.103 538.082,330.774 538.872,329.372 539.662,323.628 540.452,440.262 541.242,326.727 542.032,335.172 542.822,419.391 543.612,408.635 544.402,504.906 545.193,423.611 545.983,485.541 546.773,401.951 547.563,435.608 548.353,464.882 549.143,411.396 549.933,341.527 550.723,342.87 551.513,323.754 552.303,329.338 553.093,315.713 553.883,354.965 554.673,361.162 555.463,355.832 556.253,355.298 557.043,337.959 557.833,484.6 558.623,412.46 559.413,466.77 560.203,401.52 560.994,319.164 561.784,305.858 562.574,300.802 563.364,438.787 564.154,318.609 564.944,468.167 565.734,431.701 566.524,318.74 567.314,317.176 568.104,318.339 568.894,313.87 569.684,314.257 570.474,462.841 571.264,323.972 572.054,323.351 572.844,325.335 573.634,346.488 574.424,335.32 575.214,329.36 576.004,326.929 576.795,327.187 577.585,339.063 578.375,420.365 579.165,444.87 579.955,411.708 580.745,450.265 581.535,472.678 582.325,379.178 583.115,417.792 583.905,345.624 584.695,337.795 585.485,461.886 586.275,451.259 587.065,322.356 587.855,404.38 588.645,395.06 589.435,389.634 590.225,401.274 591.015,401.403 591.805,344.362 592.596,346.301 593.386,431.627 594.176,493.924 594.966,480.692 595.756,471.757 596.546,345.918 597.336,341.851 598.126,345.251 598.916,324.739 599.706,327.593 600.496,315.064 601.286,326.056 602.076,339.697 602.866,376.937 603.656,491.128 604.446,367.843 605.236,485.677 606.026,378.312 606.816,505.951 607.606,511.275 608.397,471.411 609.187,398.592 609.977,386.983 610.767,386.504 611.557,379.343 612.347,440.387 613.137,485.467 613.927,475.077 614.717,398.045 615.507,455.571 616.297,502.945 617.087,442.122 617.877,397.625 618.667,360.738 619.457,466.371 620.247,447.988 621.037,374.672 621.827,399.844 622.617,500 623.407,344.489 624.198,336.073 624.988,421.16 625.778,327.676 626.568,475.219 627.358,459.18 628.148,463.062 628.938,443.237 629.728,392.773 630.518,331.712 631.308,324.662 632.098,539.589 632.888,332.44 633.678,316.515 634.468,309.411 635.258,308.193 636.048,332.719 636.838,332.089 637.628,479.194 638.418,348.394 639.209,354.356 639.999,433.371 640.789,395.169 641.579,302.043 642.369,443.97 643.159,402.419 643.949,477.149 644.739,460.726 645.529,346.224 646.319,344.586 647.109,351.315 647.899,388.158 648.689,345.417 649.479,341.093 650.269,336.832 651.059,322.424 651.849,324.62 652.639,328.048 653.429,328.331 654.219,317.34 655.01,326.645 655.8,333.251 656.59,345.558 657.38,343.726 658.17,342.916 658.96,339.871 659.75,336.962 660.54,336.195 661.33,330.124 662.12,388.667 662.91,372.797 663.7,321.738 664.49,340.059 665.28,346.722 666.07,330.048 666.86,467.13 667.65,443.645 668.44,485.976 669.23,505.874 670.02,349.741 670.811,408.687 671.601,475.731 672.391,440.633 673.181,341.826 673.971,402.478 674.761,524.716 675.551,323.34 676.341,318.095 677.131,326.896 677.921,371.207 678.711,494.86 679.501,311.287 680.291,475.012 681.081,380.251 681.871,497.358 682.661,327.697 683.451,299.836 684.241,310.127 685.031,311.819 685.821,325.977 686.612,330.292 687.402,327.131 688.192,331.349 688.982,327.959 689.772,332.855 690.562,332.952 691.352,335.492 692.142,342.05 692.932,331.608 693.722,293.089 694.512,349.188 695.302,342.326 696.092,346.01 696.882,337.444 697.672,387.314 698.462,308.221 699.252,308.985 700.042,316.081 700.832,320.107 701.622,504.196 702.413,334.858 703.203,331.199 703.993,330.85 704.783,336.285 705.573,331.298 706.363,322.944 707.153,340.305 707.943,333.414 708.733,328.138 709.523,331.39 710.313,347.413 711.103,331.239 711.893,366.958 712.683,405.302 713.473,336.452 714.263,405.01 715.053,495.288 715.843,343.08 716.633,478.103 717.423,382.297 718.214,352.997 719.004,369.472 719.794,337.826 720.584,330.773 721.374,327.802 722.164,331.273 722.954,333.525 723.744,324.175 724.534,383.083 725.324,430.931 726.114,447.037 726.904,399.395 727.694,486.526 728.484,352.687 729.274,481.363 730.064,330.382 730.854,339.232 731.644,415.154 732.434,335.62 733.224,318.605 734.015,323.89 734.805,329.913 735.595,331.768 736.385,335.354 737.175,450.17 737.965,389.606 738.755,417.449 739.545,516.188 740.335,382.197 741.125,316.523 741.915,350.65 742.705,333.412 743.495,329.32 744.285,366.21 745.075,403.519 745.865,309.672 746.655,307.918 747.445,397.35 748.235,435.89 749.025,422.107 749.816,420.334 750.606,478.911 751.396,439.937 752.186,483.783 752.976,396.253 753.766,329.151 754.556,336.102 755.346,339.844 756.136,342.03 756.926,411.876 757.716,336.793 758.506,340.105 759.296,336.96 760.086,357.908 760.876,397.825 761.666,328.904 762.456,350.022 763.246,321.434 764.036,317.552 764.826,331.202 765.617,319.119 766.407,326.732 767.197,323.621 767.987,306.831 768.777,312.073 769.567,313.379 770.357,477.994 771.147,370.056 771.937,336.995 772.727,468.971 773.517,396.556 774.307,326.545 775.097,354.073 775.887,326.125 776.677,331.437 777.467,335.136 778.257,329.03 779.047,333.001 779.837,323.837 780.628,334.724 781.418,337.025 782.208,325.912 782.998,327.93 783.788,341.5 784.578,340.068 785.368,503.929 786.158,430.963 786.948,510.185 787.738,374.457 788.528,463.352 789.318,500.274 790.108,376.035 790.898,319.926 791.688,351.464 792.478,334.558 793.268,326.138 794.058,319.137 794.848,331.159 795.638,320.572 796.429,315.082 797.219,310.413 798.009,296.575 798.799,312.353 799.589,314.122 800.379,341.845 801.169,314.318 801.959,355.922 802.749,326.646 803.539,330.599 804.329,349.645 805.119,373.248 805.909,536.631 806.699,345.163 807.489,345.038 808.279,320.312 809.069,352.578 809.859,332.772 810.649,337.926 811.439,326.015 812.23,352.714 813.02,351.397 813.81,512.757 814.6,314.871 815.39,490.004 816.18,468.33 816.97,442.096 817.76,482.775 818.55,413.463 819.34,500.426 820.13,444.768 820.92,476.696 821.71,348.357 822.5,341.159 823.29,345.448 824.08,382.55 824.87,503.963 825.66,378.91 826.45,363.712 827.24,321.004 828.031,321.296 828.821,328.019 829.611,325.163 830.401,485.712 831.191,287.974 831.981,298.948 832.771,448.78 833.561,443.522 834.351,428.647 835.141,440.68 835.931,461.587 836.721,481.782 837.511,307.836 838.301,367.405 839.091,495.698 839.881,370.634 840.671,315.278 841.461,415.784 842.251,446.237 843.041,384.161 843.832,336.324 844.622,330.633 845.412,337.53 846.202,323.566 846.992,333.362 847.782,415.678 848.572,331.775 849.362,355.591 850.152,332.945 850.942,320.875 851.732,327.008 852.522,322.548 853.312,354.138 854.102,349.503 854.892,340.132 855.682,420.874 856.472,343.551 857.262,307.231 858.052,321.441 858.842,407.347 859.633,426.781 860.423,395.433 861.213,470.577 862.003,421.146 862.793,343.482 863.583,343.372 864.373,329.004 865.163,365.321 865.953,330.652 866.743,326.116 867.533,334.882 868.323,335.433 869.113,330.875 869.903,320.531 870.693,341.411 871.483,351.633 872.273,340.957 873.063,342.708 873.853,334.018 874.643,323.576 875.434,378.102 876.224,342.614 877.014,335.389 877.804,422.484 878.594,471.234 879.384,450.164 880.174,365.327 880.964,449.796 881.754,327.65 882.544,319.853 883.334,315.697 884.124,436.112 884.914,442.965 885.704,528.54 886.494,303.437 887.284,496.161 888.074,434.589 888.864,367.382 889.654,385.87 890.444,337.277 891.235,332.901 892.025,323.017 892.815,337.63 893.605,318.208 894.395,335.447 895.185,342.45 895.975,331.381 896.765,490.702 897.555,408.236 898.345,479.509 899.135,312.056 899.925,479.955 900.715,424.702 901.505,529.368 902.295,394.737 903.085,320.677 903.875,322.281 904.665,327.712 905.455,326.439 906.245,332.4 907.036,336.113 907.826,436.703 908.616,470.669 909.406,476.635 910.196,346.733 910.986,513.761 911.776,356.272 912.566,464.481 913.356,440.932 914.146,428.896 914.936,498.071 915.726,447.485 916.516,418.501 917.306,491.323 918.096,501.979 918.886,404.831 919.676,479.282 920.466,427.072 921.256,445.576 922.046,435.554 922.837,343.998 923.627,335.126 924.417,323.375 925.207,335.008 925.997,334.932 926.787,310.281 927.577,405.531 928.367,462.981 929.157,393.432 929.947,469.474 930.737,385.485 931.527,469.924 932.317,365.717 933.107,321.571 933.897,335.08 934.687,329.284 935.477,321.509 936.267,329.96 937.057,442.745 937.848,306.112 938.638,484.209 939.428,468.734 940.218,454.324 941.008,418.209 941.798,379.689 942.588,385.074 943.378,374.579 944.168,302.29 944.958,445.427 945.748,445.593 946.538,523.678 947.328,504.543 948.118,377.627 948.908,323.105 949.698,329.65 950.488,336.914 951.278,331.607 952.068,339.942 952.858,326.157 953.649,320.546 954.439,339.862 955.229,348.385 956.019,314.97 956.809,305.334 957.599,338.3 958.389,332.845 959.179,347.372 959.969,339.375 960.759,311.419 961.549,339.266 962.339,312.252 963.129,324.668 963.919,356.585 964.709,527.43 965.499,357.463 966.289,414.984 967.079,328.559 967.869,316.077 968.659,311.599 969.45,455.036 970.24,387.979 971.03,424.999 971.82,486.986 972.61,395.065 973.4,399.625 974.19,423.362 974.98,390.27 975.77,311.694 976.56,360.103 977.35,322.759 978.14,352.853 978.93,321.317 979.72,318.433 980.51,404.407 981.3,361.583 982.09,466.448 982.88,380.44 983.67,349.092 984.46,376.71 985.251,408.418 986.041,475.51 986.831,468.133 987.621,437.97 988.411,471.795 989.201,483.764 989.991,309.553 990.781,515.359 991.571,407.704 992.361,379.784 993.151,324.402 993.941,340.727 994.731,338.174 995.521,346.201 996.311,438.856 997.101,345.712 997.891,338.587 998.681,334.578 999.471,346.631 1000.26,385.088 1001.05,318.763 1001.84,319.357 1002.63,319.592 1003.42,326.784 1004.21,328.174 1005,310.46 1005.79,305.248 1006.58,467.986 1007.37,471.537 1008.16,310.692 1008.95,308.97 1009.74,312.103 1010.53,323.176 1011.32,327.92 1012.11,328.818 1012.9,329.357 1013.69,345.41 1014.48,316.242 1015.27,327.098 1016.06,338.714 1016.85,348.668 1017.64,338.288 1018.43,330.251 1019.22,327.773 1020.01,327.334 1020.8,305.874 1021.59,315.442 1022.38,316.47 1023.17,315.037 1023.96,313.38 1024.75,319.096 1025.54,316.496 1026.33,311.509 1027.12,314.585 1027.91,313.195 1028.7,449.027 1029.49,317.507 1030.28,310.322 1031.07,324.993 1031.86,312.298 1032.65,313.924 1033.44,322.887 1034.23,324.78 1035.02,335.557 1035.81,330.717 1036.6,331.011 1037.39,329.945 1038.18,321.892 1038.97,338.142 1039.76,335 1040.55,318.088 1041.34,318.886 1042.13,323.182 1042.92,313.512 1043.71,307.235 1044.5,315.797 1045.29,328.9 1046.08,335.825 1046.87,330.392 1047.66,452.53 1048.45,420.69 1049.24,311.145 1050.03,305.143 1050.82,305.12 1051.61,337.857 1052.4,340.299 1053.19,317.371 1053.98,359.828 1054.77,507.977 1055.56,477.922 1056.36,447.579 1057.15,497.676 1057.94,343.509 1058.73,335.582 1059.52,329.805 1060.31,326.478 1061.1,315.985 1061.89,310.719 1062.68,315.807 1063.47,324.239 1064.26,327.601 1065.05,341.39 1065.84,441.66 1066.63,406.193 1067.42,411.31 1068.21,443.585 1069,483.404 1069.79,415.141 1070.58,349.854 1071.37,486.372 1072.16,478.455 1072.95,443.119 1073.74,315.838 1074.53,460.119 1075.32,319.069 1076.11,327.744 1076.9,360.134 1077.69,338.493 1078.48,332.23 1079.27,370.492 1080.06,398.637 1080.85,410.889 1081.64,510.005 1082.43,432.408 1083.22,449.948 1084.01,327.85 1084.8,436.414 1085.59,490.314 1086.38,425 1087.17,449.624 1087.96,458.66 1088.75,520.699 1089.54,395.412 1090.33,418.612 1091.12,495.738 1091.91,405.831 1092.7,504.738 1093.49,404.671 1094.28,447.235 1095.07,326.916 1095.86,328.499 1096.65,312.58 1097.44,319.391 1098.23,422.107 1099.02,488.152 1099.81,379.454 1100.6,300.124 1101.39,339.958 1102.18,316.408 1102.97,391.559 1103.76,319.951 1104.55,372.641 1105.34,389.086 1106.13,483.199 1106.92,512.455 1107.71,379.792 1108.5,350.803 1109.29,355.418 1110.08,323.658 1110.87,332.16 1111.66,340.679 1112.45,332.042 1113.24,328.259 1114.03,413.644 1114.82,437.791 1115.61,368.84 1116.4,388.389 1117.19,415.072 1117.98,329.304 1118.77,327.173 1119.56,375.316 1120.35,526.16 1121.14,349.22 1121.93,537.42 1122.72,398.358 1123.51,476.934 1124.3,413.925 1125.09,375.187 1125.88,381.853 1126.67,444.663 1127.46,371.115 1128.25,431.762 1129.04,410.947 1129.83,487.41 1130.62,398.311 1131.41,461.542 1132.2,438.682 1132.99,496.314 1133.78,351.803 1134.57,375.446 1135.36,401.321 1136.15,331.441 1136.94,333.362 1137.73,391.62 1138.52,319.162 1139.31,336.407 1140.1,357.071 1140.89,417.977 1141.68,312.813 1142.47,314.692 1143.26,313.432 1144.05,324.02 1144.84,337.703 1145.63,332 1146.42,337.052 1147.21,482.12 1148,342.812 1148.79,387.402 1149.58,393.644 1150.37,414.006 1151.16,405.185 1151.95,484.658 1152.74,451.308 1153.53,496.249 1154.32,334.403 1155.11,431.25 1155.9,392.834 1156.69,336.932 1157.48,338.644 1158.27,332.871 1159.06,348.834 1159.85,349.116 1160.64,415.354 1161.43,353.279 1162.22,358.114 1163.01,349.168 1163.8,336.192 1164.59,329.939 1165.38,329.771 1166.17,319.001 1166.96,313.322 1167.75,326.143 1168.54,327.286 1169.33,322.406 1170.12,339.444 1170.91,340.529 1171.7,336.37 1172.49,395.613 1173.28,405.832 1174.07,344.247 1174.86,339.125 1175.65,352.832 1176.44,344.345 1177.23,338.939 1178.02,439.488 1178.81,438.205 1179.6,391.488 1180.39,457.14 1181.18,376.865 1181.97,329.995 1182.76,340.785 1183.55,347.168 1184.34,382.882 1185.13,339.315 1185.92,455.509 1186.71,505.551 1187.5,512.104 1188.29,442.881 1189.08,407.197 1189.87,408.818 1190.66,507.34 1191.45,369.584 1192.24,428.061 1193.03,498.269 1193.82,421.492 1194.61,355.307 1195.4,460.974 1196.19,374.403 1196.98,322.63 1197.77,384.161 1198.56,323.752 1199.35,326.565 1200.14,407.557 1200.93,483.789 1201.72,502.46 1202.51,465.294 1203.3,348.863 1204.09,308.246 1204.88,322.496 1205.67,317.57 1206.46,317.041 1207.25,331.326 1208.04,330.356 1208.83,334.092 1209.62,317.939 1210.41,322.829 1211.2,344.754 1211.99,313.361 1212.79,309.82 1213.58,368.694 1214.37,490.415 1215.16,468.53 1215.95,495.411 1216.74,514.237 1217.53,424.865 1218.32,447.157 1219.11,332.761 1219.9,385.057 1220.69,399.027 1221.48,499.479 1222.27,446.221 1223.06,313.456 1223.85,456.759 1224.64,315.48 1225.43,458.979 1226.22,389.04 1227.01,522.779 1227.8,338.66 1228.59,301.961 1229.38,302.694 1230.17,508.925 1230.96,477.314 1231.75,474.578 1232.54,342.681 1233.33,424.743 1234.12,376.655 1234.91,351.464 1235.7,354.512 1236.49,423.426 1237.28,443.514 1238.07,348.609 1238.86,460.619 1239.65,463.121 1240.44,419.748 1241.23,350.954 1242.02,466.319 1242.81,518.276 1243.6,416.141 1244.39,434.763 1245.18,471.136 1245.97,346.514 1246.76,350.771 1247.55,348.613 1248.34,335.074 1249.13,329.701 1249.92,324.139 1250.71,313.56 1251.5,307.279 1252.29,303.875 1253.08,305.974 1253.87,314.48 1254.66,308.276 1255.45,309.7 1256.24,325.419 1257.03,400.941 1257.82,398.22 1258.61,452.294 1259.4,512.371 1260.19,414.421 1260.98,412.517 1261.77,465.21 1262.56,409.012 1263.35,306.705 1264.14,305.111 1264.93,324.279 1265.72,448.031 1266.51,378.84 1267.3,415.476 1268.09,497.997 1268.88,304.441 1269.67,309.036 1270.46,322.199 1271.25,329.677 1272.04,354.608 1272.83,317.45 1273.62,315.651 1274.41,320.059 1275.2,310.913 1275.99,309.36 1276.78,317.69 1277.57,320.245 1278.36,333.287 1279.15,323.547 1279.94,316.389 1280.73,316.334 1281.52,323.668 1282.31,318.224 1283.1,386.954 1283.89,481.202 1284.68,484.266 1285.47,459.226 1286.26,420.14 1287.05,508.586 1287.84,455.352 1288.63,317.917 1289.42,443.335 1290.21,445.544 1291,332.768 1291.79,318.425 1292.58,319.342 1293.37,314.848 1294.16,504.259 1294.95,418.165 1295.74,480.1 1296.53,406.443 1297.32,332.209 1298.11,327.541 1298.9,325.832 1299.69,325.529 1300.48,381.482 1301.27,459.746 1302.06,487.602 1302.85,496.051 1303.64,482.544 1304.43,457.968 1305.22,488.749 1306.01,397.598 1306.8,341.858 1307.59,456.053 1308.38,460.821 1309.17,312.287 1309.96,478.21 1310.75,405.803 1311.54,328.453 1312.33,333.309 1313.12,342.895 1313.91,404.857 1314.7,406.33 1315.49,494.924 1316.28,461.294 1317.07,382.445 1317.86,426.609 1318.65,418.72 1319.44,477.814 1320.23,516.659 1321.02,472.167 1321.81,318.283 1322.6,487.52 1323.39,414.415 1324.18,491.776 1324.97,474.49 1325.76,481.849 1326.55,320.465 1327.34,387.116 1328.13,494.535 1328.92,384.26 1329.71,317.833 1330.5,399.603 1331.29,321.57 1332.08,354.204 1332.87,343.771 1333.66,345.593 1334.45,343.703 1335.24,323.066 1336.03,329.582 1336.82,335.241 1337.61,338.262 1338.4,505.139 1339.19,377.836 1339.98,313.694 1340.77,379.808 1341.56,459.91 1342.35,430.709 1343.14,378.605 1343.93,518.024 1344.72,309.971 1345.51,310.71 1346.3,316.089 1347.09,308.96 1347.88,312.592 1348.67,343.489 1349.46,514.238 1350.25,371.559 1351.04,323.276 1351.83,309.409 1352.62,325.586 1353.41,330.336 1354.2,336.105 1354.99,333.601 1355.78,336.341 1356.57,332.476 1357.36,301.963 1358.15,315.987 1358.94,325.489 1359.73,329.078 1360.52,367.716 1361.31,440.362 1362.1,320.362 1362.89,335.86 1363.68,334.15 1364.47,331.659 1365.26,398.597 1366.05,318.381 1366.84,418.133 1367.63,340.595 1368.42,497.306 1369.21,483.98 1370.01,377.732 1370.8,300.197 1371.59,305.542 1372.38,316.898 1373.17,343.657 1373.96,342.142 1374.75,342.703 1375.54,314.139 1376.33,314.438 1377.12,313.035 1377.91,328.653 1378.7,328.602 1379.49,331.894 1380.28,320.223 1381.07,327.692 1381.86,335.156 1382.65,327.983 1383.44,329.833 1384.23,337.614 1385.02,318.364 1385.81,309.903 1386.6,312.574 1387.39,310.204 1388.18,319.31 1388.97,308.956 1389.76,321.323 1390.55,317.598 1391.34,442.013 1392.13,337.744 1392.92,336.054 1393.71,334.602 1394.5,343.43 1395.29,335.38 1396.08,333.552 1396.87,310.681 1397.66,338.301 1398.45,326.086 1399.24,338.96 1400.03,331.985 1400.82,311.042 1401.61,299.657 1402.4,333.734 1403.19,342.53 1403.98,341.392 1404.77,415.374 1405.56,390.72 1406.35,318.994 1407.14,314.724 1407.93,334.739 1408.72,307.686 1409.51,378.156 1410.3,340.586 1411.09,336.007 1411.88,333.384 1412.67,332.306 1413.46,329.754 1414.25,338.269 1415.04,333.15 1415.83,328.025 1416.62,344.896 1417.41,534.804 1418.2,435.368 1418.99,501.096 1419.78,466.926 1420.57,471.537 1421.36,489.874 1422.15,476.364 1422.94,444.302 1423.73,338.173 1424.52,340.335 1425.31,345.186 1426.1,317.877 1426.89,323.816 1427.68,372.765 1428.47,375.484 1429.26,378.028 1430.05,398.335 1430.84,317.051 1431.63,325.062 1432.42,313.364 1433.21,304.534 1434,419.133 1434.79,437.755 1435.58,391.403 1436.37,311.077 1437.16,309.171 1437.95,329.007 1438.74,308.753 1439.53,319.117 1440.32,427.434 1441.11,480.204 1441.9,358.369 1442.69,519.591 1443.48,486.498 1444.27,503.831 1445.06,505.923 1445.85,423.167 1446.64,333.091 1447.43,476.77 1448.22,461.411 1449.01,403.154 1449.8,336.036 1450.59,330.033 1451.38,326.466 1452.17,326.758 1452.96,338.238 1453.75,333.156 1454.54,336.924 1455.33,347.211 1456.12,344.475 1456.91,387.087 1457.7,404.815 1458.49,366.266 1459.28,404.131 1460.07,313.709 1460.86,327.431 1461.65,331.202 1462.44,325.399 1463.23,317.091 1464.02,321.443 1464.81,466.587 1465.6,500.236 1466.39,310.008 1467.18,307.093 1467.97,307.149 1468.76,510.379 1469.55,303.172 1470.34,494.827 1471.13,470.816 1471.92,402.357 1472.71,341.054 1473.5,319.009 1474.29,349.056 1475.08,419.998 1475.87,339.95 1476.66,326.467 1477.45,323.558 1478.24,339.11 1479.03,326.091 1479.82,518.929 1480.61,385.9 1481.4,350.626 1482.19,310.086 1482.98,332.819 1483.77,339.417 1484.56,357.728 1485.35,348.439 1486.14,312.485 1486.93,317.841 1487.72,340.263 1488.51,338.005 1489.3,335.772 1490.09,346.512 1490.88,348.033 1491.67,345.749 1492.46,339.183 1493.25,336.71 1494.04,335.369 1494.83,329.492 1495.62,333.642 1496.41,327.012 1497.2,324.117 1497.99,321.785 1498.78,314.456 1499.57,321.398 1500.36,321.662 1501.15,341.389 1501.94,323.753 1502.73,325.207 1503.52,327.975 1504.31,331.82 1505.1,327.39 1505.89,333.721 1506.68,329.813 1507.47,332.379 1508.26,339.648 1509.05,458.306 1509.84,472.917 1510.63,511.455 1511.42,424.066 1512.21,416.686 1513,425.971 1513.79,479.176 1514.58,352.756 1515.37,420.642 1516.16,457.487 1516.95,401.032 1517.74,373.884 1518.53,404.726 1519.32,423.022 1520.11,362.935 1520.9,500.364 1521.69,404.829 1522.48,495.796 1523.27,482.966 1524.06,417.382 1524.85,514.317 1525.64,511.558 1526.43,424.681 1527.23,497.373 1528.02,497.577 1528.81,410.031 1529.6,329.151 1530.39,322.07 1531.18,371.199 1531.97,457.95 1532.76,463.243 1533.55,490.194 1534.34,324.912 1535.13,437.498 1535.92,424.047 1536.71,383.53 1537.5,398.56 1538.29,319.045 1539.08,412.404 1539.87,466.75 1540.66,456.091 1541.45,483.6 1542.24,468.623 1543.03,370.611 1543.82,340.816 1544.61,521.7 1545.4,381.353 1546.19,515.524 1546.98,429.686 1547.77,438.175 1548.56,359.81 1549.35,342.973 1550.14,340.87 1550.93,402.692 1551.72,341.123 1552.51,326.309 1553.3,335.408 1554.09,313.567 1554.88,374.839 1555.67,472.386 1556.46,523.309 1557.25,395.284 1558.04,500.88 1558.83,433.34 1559.62,318.263 1560.41,309.605 1561.2,347.376 1561.99,354.339 1562.78,334.763 1563.57,337.733 1564.36,323.678 1565.15,359.961 1565.94,491.573 1566.73,316.347 1567.52,418.178 1568.31,393.131 1569.1,339.944 1569.89,333.222 1570.68,332.812 1571.47,326.323 1572.26,336.423 1573.05,331.108 1573.84,356.716 1574.63,448.322 1575.42,302.391 1576.21,543.425 1577,356.235 1577.79,403.131 1578.58,530.157 1579.37,364.508 1580.16,406.304 1580.95,358.481 1581.74,371.831 1582.53,336.059 1583.32,333.59 1584.11,328.317 1584.9,331.6 1585.69,430.178 1586.48,391.503 1587.27,440.545 1588.06,403.939 1588.85,452.594 1589.64,422.24 1590.43,512.232 1591.22,357.512 1592.01,445.919 1592.8,504.253 1593.59,494.495 1594.38,389.605 1595.17,437.18 1595.96,433.948 1596.75,307.666 1597.54,309.382 1598.33,339.868 1599.12,335.601 1599.91,323.457 1600.7,446.628 1601.49,387.574 1602.28,445.459 1603.07,423.51 1603.86,395.844 1604.65,502.606 1605.44,438.712 1606.23,431.438 1607.02,498.992 1607.81,443.886 1608.6,346.157 1609.39,324.435 1610.18,334.668 1610.97,324.074 1611.76,319.751 1612.55,326.458 1613.34,325.966 1614.13,326.145 1614.92,349.833 1615.71,347.953 1616.5,398.834 1617.29,440.95 1618.08,495.507 1618.87,480.552 1619.66,314.666 1620.45,311.992 1621.24,487.317 1622.03,489.828 1622.82,488.441 1623.61,370.505 1624.4,404.642 1625.19,506.505 1625.98,341.827 1626.77,323.065 1627.56,332.688 1628.35,323.673 1629.14,325.771 1629.93,323.293 1630.72,474.034 1631.51,325.171 1632.3,431.137 1633.09,519.137 1633.88,317.676 1634.67,323.396 1635.46,339.337 1636.25,336.278 1637.04,338.942 1637.83,318.91 1638.62,378.475 1639.41,433.833 1640.2,493.588 1640.99,480.965 1641.78,437.131 1642.57,517.038 1643.36,309.506 1644.15,496.027 1644.94,308.453 1645.73,407.116 1646.52,428.92 1647.31,343.65 1648.1,322.642 1648.89,334.6 1649.68,346.808 1650.47,337.681 1651.26,410.471 1652.05,384.324 1652.84,412.376 1653.63,427.695 1654.42,473.205 1655.21,373.802 1656,352.67 1656.79,480.601 1657.58,455.927 1658.37,424.801 1659.16,513.174 1659.95,333.577 1660.74,342.517 1661.53,411.595 1662.32,491.548 1663.11,408.736 1663.9,420.584 1664.69,381.041 1665.48,447.199 1666.27,339.615 1667.06,328.213 1667.85,339.437 1668.64,345.76 1669.43,304.801 1670.22,305.426 1671.01,343.602 1671.8,331.701 1672.59,322.107 1673.38,324 1674.17,337.034 1674.96,332.678 1675.75,333.816 1676.54,329.276 1677.33,329.452 1678.12,318.924 1678.91,467.19 1679.7,500.944 1680.49,413.264 1681.28,503.487 1682.07,416.534 1682.86,336.946 1683.65,326.625 1684.45,330.701 1685.24,364.652 1686.03,473.1 1686.82,433.327 1687.61,317.734 1688.4,326.236 1689.19,326.88 1689.98,336.58 1690.77,441.904 1691.56,406.675 1692.35,434.752 1693.14,415.743 1693.93,479.578 1694.72,482.634 1695.51,332.565 1696.3,331.044 1697.09,331.788 1697.88,321.116 1698.67,331.023 1699.46,409.905 1700.25,480.546 1701.04,378.057 1701.83,540.564 1702.62,303.749 1703.41,352.424 1704.2,341.667 1704.99,419.336 1705.78,348.174 1706.57,325.223 1707.36,313.979 1708.15,331.379 1708.94,321.667 1709.73,333.985 1710.52,324.525 1711.31,332.666 1712.1,323.432 1712.89,335.992 1713.68,348.074 1714.47,439.457 1715.26,334.438 1716.05,504.514 1716.84,491.334 1717.63,418.672 1718.42,314.846 1719.21,506.126 1720,463.33 1720.79,443.942 1721.58,461.053 1722.37,477.144 1723.16,482.672 1723.95,511.155 1724.74,398.296 1725.53,452.942 1726.32,430.449 1727.11,394.308 1727.9,492.347 1728.69,459.596 1729.48,454.189 1730.27,371.532 1731.06,352.119 1731.85,320.857 1732.64,341.055 1733.43,348.156 1734.22,449.076 1735.01,393.484 1735.8,487.07 1736.59,443.999 1737.38,504.819 1738.17,336.025 1738.96,329.789 1739.75,328.243 1740.54,330.583 1741.33,329.393 1742.12,325.397 1742.91,332.307 1743.7,331.454 1744.49,338.248 1745.28,346.262 1746.07,349.687 1746.86,350.483 1747.65,327.518 1748.44,312.695 1749.23,317.032 1750.02,429.816 1750.81,449.999 1751.6,429.837 1752.39,347.46 1753.18,483.35 1753.97,454.37 1754.76,339.295 1755.55,458.716 1756.34,520.695 1757.13,349.369 1757.92,333.036 1758.71,327.564 1759.5,321.757 1760.29,341.242 1761.08,332.08 1761.87,336.589 1762.66,349.662 1763.45,427.073 1764.24,504.26 1765.03,479.647 1765.82,329.651 1766.61,502.406 1767.4,308.736 1768.19,508.995 1768.98,437.646 1769.77,328.662 1770.56,330.25 1771.35,317.816 1772.14,317.376 1772.93,324.433 1773.72,319.59 1774.51,321.307 1775.3,326.268 1776.09,416.294 1776.88,412.607 1777.67,495.656 1778.46,425.017 1779.25,489.701 1780.04,339.56 1780.83,332.803 1781.62,336.07 1782.41,319.376 1783.2,315.34 1783.99,316.91 1784.78,325.041 1785.57,323.94 1786.36,321.211 1787.15,322.56 1787.94,374.774 1788.73,421.834 1789.52,319.898 1790.31,323.837 1791.1,378.396 1791.89,412.229 1792.68,366.119 1793.47,466.816 1794.26,450.519 1795.05,486.195 1795.84,307.794 1796.63,299.797 1797.42,376.587 1798.21,472.989 1799,422.611 1799.79,310.465 1800.58,496.777 1801.37,326.73 1802.16,340.039 1802.95,325.483 1803.74,331.237 1804.53,317.558 1805.32,318.841 1806.11,337.154 1806.9,338.459 1807.69,330.636 1808.48,325.261 1809.27,337.421 1810.06,331.079 1810.85,327.151 1811.64,317.386 1812.43,313.174 1813.22,310.828 1814.01,308.383 1814.8,302.565 1815.59,343.165 1816.38,490.831 1817.17,335.671 1817.96,316.202 1818.75,336.145 1819.54,337.771 1820.33,333.89 1821.12,331.462 1821.91,320.72 1822.7,328.509 1823.49,327.638 1824.28,372.206 1825.07,360.969 1825.86,357.227 1826.65,329.299 1827.44,327.493 1828.23,322.137 1829.02,324.066 1829.81,322.241 1830.6,312.599 1831.39,312.02 1832.18,318.898 1832.97,324.182 1833.76,322.271 1834.55,312.452 1835.34,318.419 1836.13,325.274 1836.92,335.037 1837.71,337.379 1838.5,329.583 1839.29,334.99 1840.08,330.359 1840.87,328.992 1841.67,342.829 1842.46,396.989 1843.25,489.499 1844.04,366.522 1844.83,331.911 1845.62,399.283 1846.41,421.133 1847.2,412.349 1847.99,352.973 1848.78,433.482 1849.57,328.317 1850.36,496.383 1851.15,448.191 1851.94,392.484 1852.73,325.322 1853.52,330.233 1854.31,328.617 1855.1,324.911 1855.89,324.803 1856.68,328.362 1857.47,330.243 1858.26,328.244 1859.05,333.22 1859.84,339.79 1860.63,327.988 1861.42,321.29 1862.21,320.849 1863,316.234 1863.79,323.214 1864.58,388.424 1865.37,399.594 1866.16,402.924 1866.95,485.888 1867.74,354.112 1868.53,457.421 1869.32,318.648 1870.11,329.965 1870.9,465.383 1871.69,393.863 1872.48,409.097 1873.27,514.378 1874.06,349.125 1874.85,382.635 1875.64,336.526 1876.43,427.145 1877.22,495.533 1878.01,376.614 1878.8,512.046 1879.59,473.481 1880.38,378.567 1881.17,328.957 1881.96,322.798 1882.75,339.026 1883.54,332.606 1884.33,373.093 1885.12,344.355 1885.91,324.816 1886.7,343.19 1887.49,443.017 1888.28,467.603 1889.07,508.024 1889.86,489.225 1890.65,497.501 1891.44,463.362 1892.23,401 1893.02,434.677 1893.81,462.079 1894.6,435.442 1895.39,497.623 1896.18,417.407 1896.97,447.127 1897.76,501.638 1898.55,488.507 1899.34,313.44 1900.13,317.031 1900.92,322.167 1901.71,362.544 1902.5,411.987 1903.29,329.693 1904.08,331.836 1904.87,331.796 1905.66,344.093 1906.45,341.489 1907.24,434.044 1908.03,384.813 1908.82,460.032 1909.61,489.539 1910.4,494.283 1911.19,446.027 1911.98,344.186 1912.77,347.665 1913.56,321.396 1914.35,317.075 1915.14,312.512 1915.93,327.572 1916.72,341.325 1917.51,323.833 1918.3,343.372 1919.09,338.21 1919.88,331.461 1920.67,334.38 1921.46,334.222 1922.25,318.436 1923.04,337.613 1923.83,340.694 1924.62,338.313 1925.41,522.759 1926.2,394.574 1926.99,483.254 1927.78,426.245 1928.57,514.575 1929.36,347.169 1930.15,473.842 1930.94,320.292 1931.73,325.225 1932.52,319.213 1933.31,415.428 1934.1,349.001 1934.89,374.319 1935.68,409.49 1936.47,339.154 1937.26,328.415 1938.05,327.891 1938.84,332.248 1939.63,321.866 1940.42,318.863 1941.21,401.24 1942,457.832 1942.79,415.189 1943.58,322.612 1944.37,312.128 1945.16,312.847 1945.95,304.614 1946.74,471.135 1947.53,346.541 1948.32,337.077 1949.11,325.405 1949.9,331.318 1950.69,331.051 1951.48,414.932 1952.27,386.796 1953.06,507.625 1953.85,435.291 1954.64,351.29 1955.43,497.333 1956.22,295.454 1957.01,472.852 1957.8,378.355 1958.59,459.127 1959.38,389.644 1960.17,516.507 1960.96,449.595 1961.75,504.93 1962.54,416.503 1963.33,381.903 1964.12,370.113 1964.91,331.948 1965.7,339.931 1966.49,334.228 1967.28,344.366 1968.07,329.672 1968.86,317.242 1969.65,389.736 1970.44,464.826 1971.23,311.248 1972.02,316.924 1972.81,324.841 1973.6,320.208 1974.39,320.06 1975.18,333.001 1975.97,321.143 1976.76,319.453 1977.55,316.374 1978.34,315.493 1979.13,315.451 1979.92,422.856 1980.71,449.248 1981.5,485.455 1982.29,425.867 1983.08,359.888 1983.87,309.998 1984.66,330.564 1985.45,329.048 1986.24,324.711 1987.03,309.87 1987.82,331.905 1988.61,332.762 1989.4,399.553 1990.19,460.962 1990.98,489.505 1991.77,482.277 1992.56,328.84 1993.35,417.498 1994.14,355.459 1994.93,343.703 1995.72,335.265 1996.51,321.906 1997.3,319.826 1998.09,328.133 1998.89,331.914 1999.68,323.741 2000.47,315.315 2001.26,317.521 2002.05,314.625 2002.84,325.499 2003.63,355.855 2004.42,387.712 2005.21,418.504 2006,498.644 2006.79,456.686 2007.58,425.091 2008.37,440.318 2009.16,387.025 2009.95,343.493 2010.74,336.601 2011.53,333.912 2012.32,315.474 2013.11,318.291 2013.9,319.866 2014.69,378.161 2015.48,332.605 2016.27,341.521 2017.06,355.783 2017.85,472.11 2018.64,460.932 2019.43,482.568 2020.22,375.186 2021.01,361.737 2021.8,469.941 2022.59,357.037 2023.38,421.296 2024.17,450.383 2024.96,405.033 2025.75,341.232 2026.54,337.424 2027.33,373.136 2028.12,487.205 2028.91,505.017 2029.7,327.482 2030.49,332.423 2031.28,381.796 2032.07,420.938 2032.86,451.989 2033.65,384.636 2034.44,457.361 2035.23,449.541 2036.02,332.455 2036.81,386.252 2037.6,500.19 2038.39,358.509 2039.18,354.676 2039.97,347.681 2040.76,335.018 2041.55,490.876 2042.34,365.815 2043.13,381.469 2043.92,427.572 2044.71,491.139 2045.5,392.58 2046.29,491.24 2047.08,501.123 2047.87,481.714 2048.66,378.454 2049.45,333.894 2050.24,384.554 2051.03,498.538 2051.82,349.667 2052.61,454.58 2053.4,490.175 2054.19,490.92 2054.98,415.773 2055.77,344.189 2056.56,327.271 2057.35,331.958 2058.14,356.419 2058.93,397.606 2059.72,321.006 2060.51,322.347 2061.3,324.505 2062.09,336.892 2062.88,335.695 2063.67,407.215 2064.46,512.991 2065.25,360.249 2066.04,508.175 2066.83,321.316 2067.62,493.209 2068.41,435.168 2069.2,457.929 2069.99,504.482 2070.78,365.223 2071.57,410.71 2072.36,362.934 2073.15,455.626 2073.94,406.462 2074.73,474.872 2075.52,468.503 2076.31,402.923 2077.1,346.653 2077.89,501.188 2078.68,376.879 2079.47,501.243 2080.26,475.089 2081.05,505.685 2081.84,368.824 2082.63,453.883 2083.42,378.737 2084.21,332.844 2085,322.55 2085.79,313.442 2086.58,335.367 2087.37,399.659 2088.16,439.697 2088.95,331.631 2089.74,317.851 2090.53,318.266 2091.32,517.8 2092.11,406.757 2092.9,513.773 2093.69,326.189 2094.48,332.014 2095.27,338.607 2096.06,339.913 2096.85,340.394 2097.64,500.373 2098.43,488.054 2099.22,353.39 2100.01,328.206 2100.8,332.814 2101.59,331.575 2102.38,326.923 2103.17,329.383 2103.96,332.81 2104.75,336.766 2105.54,336.046 2106.33,312.022 2107.12,314.145 2107.91,315.694 2108.7,319.05 2109.49,310.86 2110.28,308.931 2111.07,328.196 2111.86,325.915 2112.65,314.64 2113.44,361.71 2114.23,438.221 2115.02,330.044 2115.81,328.351 2116.6,324.25 2117.39,337.728 2118.18,324.385 2118.97,326.189 2119.76,334.357 2120.55,326.687 2121.34,322.161 2122.13,330.502 2122.92,317.922 2123.71,311.369 2124.5,320.941 2125.29,389.122 2126.08,354.131 2126.87,337.831 2127.66,323.422 2128.45,376.391 2129.24,440.039 2130.03,494.581 2130.82,393.423 2131.61,308.846 2132.4,474.481 2133.19,339.903 2133.98,344.115 2134.77,328.825 2135.56,318.888 2136.35,330.214 2137.14,324.693 2137.93,358.323 2138.72,326.098 2139.51,334.991 2140.3,334.625 2141.09,343.954 2141.88,338.437 2142.67,465.712 2143.46,477.758 2144.25,368.8 2145.04,489.837 2145.83,314.695 2146.62,312.862 2147.41,302.684 2148.2,304.106 2148.99,426.363 2149.78,328.372 2150.57,401.939 2151.36,313.133 2152.15,333.404 2152.94,431.558 2153.73,348.475 2154.52,348.393 2155.31,330.133 2156.11,322.998 2156.9,327.101 2157.69,320.97 2158.48,324.549 2159.27,322.616 2160.06,313.969 2160.85,307.981 2161.64,318.013 2162.43,333.105 2163.22,338.415 2164.01,342.738 2164.8,339.941 2165.59,324.361 2166.38,326.706 2167.17,323.112 2167.96,326.449 2168.75,328.559 2169.54,324.956 2170.33,430.067 2171.12,520.096 2171.91,477.489 2172.7,496.749 2173.49,471.327 2174.28,387.988 2175.07,445.552 2175.86,436.392 2176.65,460.697 2177.44,422.781 2178.23,488.17 2179.02,349.196 2179.81,322.57 2180.6,318.477 2181.39,323.991 2182.18,315.285 2182.97,320.012 2183.76,326.055 2184.55,338.443 2185.34,474.401 2186.13,322.422 2186.92,330.469 2187.71,348.811 2188.5,434.696 2189.29,476.678 2190.08,313.775 2190.87,316.978 2191.66,328.461 2192.45,318.64 2193.24,315.979 2194.03,322.472 2194.82,325.469 2195.61,330.702 2196.4,454.974 2197.19,505.572 2197.98,468.514 2198.77,514.436 2199.56,500.367 2200.35,494.287 2201.14,491.665 2201.93,493.503 2202.72,328.575 2203.51,332.031 2204.3,316.101 2205.09,325.6 2205.88,322.344 2206.67,331.777 2207.46,336.403 2208.25,350.827 2209.04,410.555 2209.83,502.107 2210.62,438.17 2211.41,318.856 2212.2,317.312 2212.99,357.009 2213.78,325.349 2214.57,329.231 2215.36,328.114 2216.15,323.768 2216.94,345.663 2217.73,319.194 2218.52,312.531 2219.31,335.151 2220.1,332.543 2220.89,363.231 2221.68,438.118 2222.47,344.468 2223.26,340.543 2224.05,349.699 2224.84,342.422 2225.63,309.213 2226.42,340.016 2227.21,323.946 2228,315.592 2228.79,315.653 2229.58,329.678 2230.37,406.942 2231.16,334.46 2231.95,511.96 2232.74,441.742 2233.53,341.26 2234.32,483.639 2235.11,391.796 2235.9,339.045 2236.69,339.637 2237.48,342.289 2238.27,321.051 2239.06,328.493 2239.85,328.401 2240.64,329.719 2241.43,328.922 2242.22,322.156 2243.01,325.645 2243.8,316.931 2244.59,333.977 2245.38,327.181 2246.17,333.238 2246.96,336.288 2247.75,335.11 2248.54,347.842 2249.33,535.036 2250.12,347.165 2250.91,454.781 2251.7,461.156 2252.49,423.136 2253.28,507.635 2254.07,347.433 2254.86,320.817 2255.65,346.129 2256.44,335.455 2257.23,338.531 2258.02,327.857 2258.81,314.661 2259.6,334.546 2260.39,322.327 2261.18,356.008 2261.97,504.734 2262.76,363.919 2263.55,463.871 2264.34,388.393 2265.13,413.429 2265.92,486.341 2266.71,453.305 2267.5,344.905 2268.29,477.842 2269.08,408.839 2269.87,502.848 2270.66,424.137 2271.45,353.109 2272.24,424.718 2273.03,338.346 2273.82,510.506 2274.61,467.856 2275.4,497.627 2276.19,323.245 2276.98,327.052 2277.77,337.266 2278.56,334.61 2279.35,325.381 2280.14,331.336 2280.93,312.617 2281.72,326.273 2282.51,327.442 2283.3,326.585 2284.09,323.335 2284.88,314.261 2285.67,485.505 2286.46,368.8 2287.25,365.725 2288.04,319.57 2288.83,363.37 2289.62,320.874 2290.41,323.527 2291.2,338.98 2291.99,356.081 2292.78,456.361 2293.57,399.717 2294.36,376.48 2295.15,403.066 2295.94,409.793 2296.73,323.715 2297.52,320.348 2298.31,329.391 2299.1,538.795 2299.89,326.911 2300.68,330.571 2301.47,328.065 2302.26,333.409 2303.05,338.938 2303.84,340.04 2304.63,334.898 2305.42,341.769 2306.21,327.196 2307,291.422 2307.79,401.427 2308.58,400.468 2309.37,432.875 2310.16,411.708 2310.95,431.138 2311.74,410.189 2312.53,350.775 2313.33,335.573 2314.12,496.759 2314.91,468.758 2315.7,369.828 2316.49,337.196 2317.28,321.24 2318.07,325.441 2318.86,329.599 2319.65,320.853 2320.44,326.16 2321.23,332.348 2322.02,336.347 2322.81,324.766 2323.6,338.804 2324.39,543.07 2325.18,301.287 2325.97,336.62 2326.76,354.459 2327.55,468.293 2328.34,442.106 2329.13,402.091 2329.92,510.905 2330.71,473.099 2331.5,497.128 2332.29,386.063 2333.08,477.117 2333.87,394.035 2334.66,310.171 2335.45,429.805 2336.24,457.281 2337.03,471.598 2337.82,313.577 2338.61,315.014 2339.4,325.587 2340.19,308.83 2340.98,314.055 2341.77,415.027 2342.56,520.776 2343.35,445.241 2344.14,478.742 2344.93,429.513 2345.72,384.392 2346.51,417.818 2347.3,307.554 2348.09,316.091 2348.88,333.089 2349.67,334.119 2350.46,350.883 2351.25,425.589 2352.04,427.984 2352.83,470.93 2353.62,407.709 2354.41,354.32 2355.2,313.674 2355.99,345.812 2356.78,332.249 2357.57,315.417 2358.36,334.128 2359.15,325.335 2359.94,352.749 2360.73,329.332 2361.52,328.68 2362.31,323.453 2363.1,325.587 2363.89,323.281 2364.68,310.97 2365.47,505.134 2366.26,443.615 2367.05,339.653 2367.84,345.4 2368.63,373.876 2369.42,464.679 2370.21,433.399 2371,339.55 2371.79,342.848 2372.58,351.114 2373.37,350.025 2374.16,434.71 2374.95,492.195 2375.74,453.332 2376.53,486.589 2377.32,363.293 2378.11,324.057 2378.9,334.131 2379.69,501.168 2380.48,459.781 2381.27,447.178 2382.06,491.188 2382.85,355.3 2383.64,368.225 2384.43,419.077 2385.22,319.344 2386.01,320.763 2386.8,333.819 2387.59,359.755 2388.38,331.375 2389.17,332.769 2389.96,332.837 2390.75,328.134 2391.54,345.871 2392.33,349.8 2393.12,497.661 2393.91,399.814 2394.7,453.375 2395.49,407.031 2396.28,319.076 2397.07,379.619 2397.86,504.829 2398.65,445.764 2399.44,317.915 2400.23,318.811 2401.02,317.119 2401.81,353.987 2402.6,342.799 2403.39,329.587 2404.18,322.583 2404.97,328.244 2405.76,331.168 2406.55,374.825 2407.34,345.995 2408.13,328.107 2408.92,328.661 2409.71,333.074 2410.5,335.993 2411.29,324.706 2412.08,319.814 2412.87,325.824 2413.66,334.76 2414.45,333.349 2415.24,327.988 2416.03,409.621 2416.82,420.956 2417.61,314.426 2418.4,460.802 2419.19,490.676 2419.98,321.682 2420.77,410.563 2421.56,422.443 2422.35,334.951 2423.14,346.357 2423.93,336.258 2424.72,461.053 2425.51,486.709 2426.3,399.77 2427.09,465.317 2427.88,406.514 2428.67,334.838 2429.46,343.049 2430.25,348.44 2431.04,316.661 2431.83,329.354 2432.62,331.746 2433.41,337.329 2434.2,327.093 2434.99,334.194 2435.78,326.794 2436.57,326.021 2437.36,310.596 2438.15,309.714 2438.94,464.642 2439.73,306.035 2440.52,514.35 2441.31,410.762 2442.1,342.827 2442.89,456.352 2443.68,421.564 2444.47,346.416 2445.26,342.53 2446.05,339.734 2446.84,329.239 2447.63,317.799 2448.42,323.015 2449.21,369.544 2450,502.896 2450.79,435.167 2451.58,480.994 2452.37,432.205 2453.16,492.441 2453.95,492.51 2454.74,440.261 2455.53,397.163 2456.32,324.262 2457.11,333.398 2457.9,339.208 2458.69,328.24 2459.48,330.276 2460.27,356.964 2461.06,331.785 2461.85,325.653 2462.64,469.152 2463.43,490.573 2464.22,473.104 2465.01,378.259 2465.8,354.538 2466.59,501.668 2467.38,522.418 2468.17,383.951 2468.96,382.555 2469.75,323.7 2470.55,325.273 2471.34,316.725 2472.13,312.646 2472.92,310.538 2473.71,332.731 2474.5,418.917 2475.29,349.962 2476.08,404.944 2476.87,325.354 2477.66,328.461 2478.45,331.759 2479.24,327.287 2480.03,327.2 2480.82,324.252 2481.61,329.565 2482.4,415.976 2483.19,489.241 2483.98,311.878 2484.77,454.048 2485.56,417.83 2486.35,498.183 2487.14,505.121 2487.93,511.209 2488.72,486.024 2489.51,412.706 2490.3,513.296 2491.09,470.354 2491.88,504.56 2492.67,473.26 2493.46,375.638 2494.25,350.655 2495.04,315.859 2495.83,388.99 2496.62,336.86 2497.41,317.886 2498.2,323.619 2498.99,349.88 2499.78,337.871 2500.57,398.508 2501.36,395.699 2502.15,501.731 2502.94,299.346 2503.73,513.365 2504.52,416.868 2505.31,441.474 2506.1,437.649 2506.89,516.374 2507.68,455.565 2508.47,425.641 2509.26,359.719 2510.05,332.045 2510.84,336.95 2511.63,322.582 2512.42,334.596 2513.21,330.159 2514,331.188 2514.79,338.051 2515.58,338.445 2516.37,340.034 2517.16,341.606 2517.95,345.377 2518.74,344.915 2519.53,374.763 2520.32,339.383 2521.11,338.03 2521.9,335.172 2522.69,337.383 2523.48,407.376 2524.27,390.955 2525.06,404.831 2525.85,353.375 2526.64,440.954 2527.43,377.163 2528.22,418.077 2529.01,328.698 2529.8,400.243 2530.59,456.483 2531.38,438.74 2532.17,507.176 2532.96,483.136 2533.75,463.146 2534.54,398.272 2535.33,496.473 2536.12,426.527 2536.91,340.38 2537.7,343.617 2538.49,346.382 2539.28,344.126 2540.07,314.992 2540.86,314.992 2541.65,332.234 2542.44,416.952 2543.23,322.961 2544.02,359.231 2544.81,331.623 2545.6,372.592 2546.39,391.378 2547.18,452.372 2547.97,406.193 2548.76,453.125 2549.55,366.189 2550.34,301.663 2551.13,303.464 2551.92,296.641 2552.71,303.183 2553.5,336.767 2554.29,337.861 2555.08,443.312 2555.87,416.321 2556.66,351.343 2557.45,491.952 2558.24,492.09 2559.03,477.488 2559.82,316.81 2560.61,441.714 2561.4,459.306 2562.19,450.272 2562.98,312.712 2563.77,417.336 2564.56,314.592 2565.35,316.142 2566.14,333.11 2566.93,337.882 2567.72,325.375 2568.51,317.494 2569.3,320.389 2570.09,354.236 2570.88,319.464 2571.67,311.258 2572.46,406.049 2573.25,394.979 2574.04,401.637 2574.83,462.412 2575.62,515.109 2576.41,301.509 2577.2,304.067 2577.99,310.176 2578.78,305.421 2579.57,311.456 2580.36,314.28 2581.15,314.507 2581.94,317.553 2582.73,325.372 2583.52,337.704 2584.31,325.936 2585.1,322.76 2585.89,318.197 2586.68,319.251 2587.47,340.266 2588.26,330.194 2589.05,334.159 2589.84,328.424 2590.63,315.862 2591.42,320.938 2592.21,391.012 2593,365.722 2593.79,330.154 2594.58,328.854 2595.37,324.004 2596.16,317.643 2596.95,336.241 2597.74,421.883 2598.53,386.225 2599.32,456.934 2600.11,517.937 2600.9,331.858 2601.69,445.473 2602.48,495.802 2603.27,471.424 2604.06,490.12 2604.85,465.225 2605.64,341.971 2606.43,343.949 2607.22,341.366 2608.01,324.923 2608.8,333.547 2609.59,328.54 2610.38,322.179 2611.17,326.815 2611.96,351.349 2612.75,394.77 2613.54,496.755 2614.33,308.748 2615.12,535.811 2615.91,354.652 2616.7,335.933 2617.49,324.208 2618.28,341.604 2619.07,347.516 2619.86,334.992 2620.65,330.175 2621.44,319.783 2622.23,328.378 2623.02,332.351 2623.81,320.526 2624.6,326.512 2625.39,343.424 2626.18,350.618 2626.97,327.627 2627.77,331.886 2628.56,320.004 2629.35,332.796 2630.14,321.186 2630.93,320.812 2631.72,334.167 2632.51,417.965 2633.3,452.873 2634.09,439.682 2634.88,421.061 2635.67,380.942 2636.46,476.627 2637.25,489.424 2638.04,439.58 2638.83,344.546 2639.62,348.832 2640.41,326.21 2641.2,322.973 2641.99,347.977 2642.78,325.122 2643.57,323.536 2644.36,329.621 2645.15,330.754 2645.94,323.452 2646.73,324.893 2647.52,345.759 2648.31,314.963 2649.1,322.556 2649.89,389.075 2650.68,491.762 2651.47,445.433 2652.26,423.889 2653.05,452.765 2653.84,398.061 2654.63,320.114 2655.42,315.288 2656.21,309.037 2657,321.787 2657.79,326.027 2658.58,336.219 2659.37,340.679 2660.16,324.394 2660.95,336.001 2661.74,336.182 2662.53,334.179 2663.32,333.684 2664.11,329.938 2664.9,327.304 2665.69,331.908 2666.48,517.593 2667.27,401.431 2668.06,321.835 2668.85,396.094 2669.64,499.993 2670.43,426.763 2671.22,487.318 2672.01,500.671 2672.8,404.358 2673.59,314.98 2674.38,337.627 2675.17,327.376 2675.96,324.443 2676.75,318.703 2677.54,363.054 2678.33,426.679 2679.12,392.074 2679.91,407.059 2680.7,349.519 2681.49,339.469 2682.28,330.44 2683.07,318.915 2683.86,316.727 2684.65,461.315 2685.44,402.136 2686.23,367.838 2687.02,343.26 2687.81,336.997 2688.6,334.924 2689.39,318.124 2690.18,334.084 2690.97,330.511 2691.76,332.553 2692.55,329.197 2693.34,333.69 2694.13,389.174 2694.92,503.708 2695.71,372.923 2696.5,389.74 2697.29,402.087 2698.08,417.516 2698.87,427.912 2699.66,328.359 2700.45,327.086 2701.24,325.42 2702.03,324.863 2702.82,337.221 2703.61,335.016 2704.4,329.759 2705.19,323.96 2705.98,323.958 2706.77,323.673 2707.56,333.206 2708.35,334.125 2709.14,332.744 2709.93,323.533 2710.72,329.669 2711.51,318.931 2712.3,315.761 2713.09,343.281 2713.88,339.09 2714.67,338.075 2715.46,342.208 2716.25,341.122 2717.04,331.341 2717.83,307.729 2718.62,313.555 2719.41,471.154 2720.2,352.616 2720.99,518.41 2721.78,457.507 2722.57,325.132 2723.36,329.652 2724.15,333.458 2724.94,322.065 2725.73,329.069 2726.52,330.976 2727.31,306.81 2728.1,323.49 2728.89,328.87 2729.68,391.96 2730.47,510.288 2731.26,514.321 2732.05,465.656 2732.84,406.88 2733.63,524.479 2734.42,310.609 2735.21,311.195 2736,332.523 2736.79,405.192 2737.58,469.428 2738.37,415.45 2739.16,453.485 2739.95,441.397 2740.74,443.718 2741.53,506.924 2742.32,309.508 2743.11,314.368 2743.9,355.134 2744.69,509.806 2745.48,306.154 2746.27,297.939 2747.06,460.774 2747.85,456.597 2748.64,310.077 2749.43,302.573 2750.22,428.875 2751.01,466.478 2751.8,428.968 2752.59,491.142 2753.38,312.853 2754.17,471.582 2754.96,454.264 2755.75,349.895 2756.54,346.223 2757.33,322.697 2758.12,329.199 2758.91,337.337 2759.7,374.726 2760.49,412.454 2761.28,511.28 2762.07,471.73 2762.86,502.789 2763.65,489.612 2764.44,515.607 2765.23,462.504 2766.02,329.259 2766.81,471.853 2767.6,491.892 2768.39,465.6 2769.18,407.244 2769.97,432.241 2770.76,414.518 2771.55,305.595 2772.34,303.405 2773.13,296.174 2773.92,463.657 2774.71,502.884 2775.5,396.399 2776.29,412.192 2777.08,489.243 2777.87,426.309 2778.66,473.867 2779.45,519.609 2780.24,309.95 2781.03,501.19 2781.82,477.356 2782.61,505.502 2783.4,331.986 2784.19,323.25 2784.99,333.198 2785.78,326.062 2786.57,329.69 2787.36,329.555 2788.15,315.859 2788.94,384.603 2789.73,308.165 2790.52,326.472 2791.31,377.925 2792.1,322.833 2792.89,333.694 2793.68,342.987 2794.47,327.257 2795.26,319.306 2796.05,322.53 2796.84,326.019 2797.63,340.265 2798.42,336.67 2799.21,333.267 2800,326.883 2800.79,330.115 2801.58,432.987 2802.37,315.433 2803.16,438.5 2803.95,424.697 2804.74,326.253 2805.53,340.299 2806.32,331.68 2807.11,318.609 2807.9,328.268 2808.69,352.784 2809.48,525.312 2810.27,452.475 2811.06,408.467 2811.85,351.572 2812.64,443.561 2813.43,460.217 2814.22,386.524 2815.01,461.701 2815.8,442.124 2816.59,387.143 2817.38,506.382 2818.17,467.512 2818.96,322.836 2819.75,430.121 2820.54,493.739 2821.33,345.735 2822.12,505.962 2822.91,349.066 2823.7,488.005 2824.49,489.375 2825.28,381.035 2826.07,386.485 2826.86,428.144 2827.65,311.276 2828.44,398.791 2829.23,324.462 2830.02,505.358 2830.81,498.21 2831.6,492.027 2832.39,462.547 2833.18,484.37 2833.97,406.929 2834.76,526.325 2835.55,337.793 2836.34,382.513 2837.13,314.897 2837.92,346.036 2838.71,336.318 2839.5,332.764 2840.29,335.23 2841.08,318.716 2841.87,310.058 2842.66,330.224 2843.45,329.101 2844.24,308.078 2845.03,308.258 2845.82,347.38 2846.61,341.742 2847.4,538.68 2848.19,389.382 2848.98,479.178 2849.77,501.535 2850.56,337.599 2851.35,320.741 2852.14,331.674 2852.93,337.878 2853.72,338.763 2854.51,512.135 2855.3,458.577 2856.09,361.795 2856.88,329.549 2857.67,330.554 2858.46,336.518 2859.25,314.18 2860.04,332.05 2860.83,308.938 2861.62,303.915 2862.41,307.055 2863.2,502.217 2863.99,465.467 2864.78,429.763 2865.57,476.578 2866.36,345.03 2867.15,347.343 2867.94,324.667 2868.73,326.238 2869.52,329.912 2870.31,371.046 2871.1,489.743 2871.89,375.969 2872.68,507.825 2873.47,393.047 2874.26,380.048 2875.05,505.842 2875.84,427.994 2876.63,491.111 2877.42,339.532 2878.21,351.122 2879,495.481 2879.79,477.993 2880.58,493.738 2881.37,481.328 2882.16,331.069 2882.95,404.58 2883.74,494.227 2884.53,355.596 2885.32,439.045 2886.11,436.211 2886.9,313.774 2887.69,312.802 2888.48,399.945 2889.27,346.277 2890.06,364.692 2890.85,527.806 2891.64,333.665 2892.43,333.421 2893.22,530.545 2894.01,393.327 2894.8,415.486 2895.59,492.952 2896.38,486.481 2897.17,424.248 2897.96,493.414 2898.75,418.85 2899.54,484.544 2900.33,500.179 2901.12,483.17 2901.91,472.193 2902.7,418.322 2903.49,319.342 2904.28,440.597 2905.07,489.79 2905.86,432.728 2906.65,473.103 2907.44,349.811 2908.23,498.427 2909.02,388.908 2909.81,389.476 2910.6,346.645 2911.39,495.217 2912.18,419.456 2912.97,491.309 2913.76,341.508 2914.55,378.598 2915.34,505.699 2916.13,488.024 2916.92,409.519 2917.71,462.446 2918.5,409.785 2919.29,306.814 2920.08,537.475 2920.87,299.083 2921.66,436.936 2922.45,376.393 2923.24,419.825 2924.03,340.696 2924.82,341.853 2925.61,324.794 2926.4,334.03 2927.19,339.473 2927.98,338.829 2928.77,485.382 2929.56,484.258 2930.35,436.616 2931.14,365.116 2931.93,373.999 2932.72,422.432 2933.51,524.391 2934.3,355.078 2935.09,520.303 2935.88,501.189 2936.67,309.386 2937.46,342.65 2938.25,334.418 2939.04,323.788 2939.83,324.884 2940.62,311.618 2941.42,312.353 2942.21,304.965 2943,442.405 2943.79,338.367 2944.58,315.512 2945.37,416.338 2946.16,327.974 2946.95,323.197 2947.74,332.524 2948.53,332.822 2949.32,327.882 2950.11,330.517 2950.9,324.637 2951.69,316.844 2952.48,322.984 2953.27,322.707 2954.06,457.625 2954.85,506.556 2955.64,345.644 2956.43,440.857 2957.22,429.681 2958.01,360.748 2958.8,410.862 2959.59,483.593 2960.38,415.819 2961.17,420.886 2961.96,316.815 2962.75,316.173 2963.54,322.403 2964.33,320.943 2965.12,334.327 2965.91,445.283 2966.7,450.019 2967.49,525.449 2968.28,460.998 2969.07,392.903 2969.86,445.67 2970.65,352.59 2971.44,513.951 2972.23,327.503 2973.02,326.985 2973.81,318.869 2974.6,338.848 2975.39,461.977 2976.18,412.905 2976.97,472.917 2977.76,514.086 2978.55,364.315 2979.34,318.132 2980.13,319.831 2980.92,330.167 2981.71,341.875 2982.5,347.54 2983.29,341.116 2984.08,526.149 2984.87,419.369 2985.66,389.112 2986.45,433.91 2987.24,452.3 2988.03,399.814 2988.82,486.322 2989.61,508.454 2990.4,313.45 2991.19,434.886 2991.98,458.573 2992.77,485.537 2993.56,397.785 2994.35,312.836 2995.14,331.989 2995.93,335.771 2996.72,314.111 2997.51,313.484 2998.3,305.93 2999.09,313.936 2999.88,487.879 3000.67,361.252 3001.46,363.08 3002.25,361.958 3003.04,326.121 3003.83,338.195 3004.62,321.542 3005.41,320.677 3006.2,344.657 3006.99,339.196 3007.78,337.145 3008.57,345.511 3009.36,333.338 3010.15,324.767 3010.94,354.595 3011.73,358.608 3012.52,330.843 3013.31,331.005 3014.1,297.908 3014.89,326.565 3015.68,327.317 3016.47,327.917 3017.26,337.827 3018.05,459.425 3018.84,320.496 3019.63,327.923 3020.42,333.937 3021.21,321.917 3022,333.374 3022.79,324.856 3023.58,329.592 3024.37,340.478 3025.16,483.892 3025.95,371.67 3026.74,316.686 3027.53,315.633 3028.32,343.112 3029.11,409.759 3029.9,340.557 3030.69,410.674 3031.48,458.905 3032.27,418.369 3033.06,475.787 3033.85,459.558 3034.64,464.507 3035.43,430.382 3036.22,339.455 3037.01,333.191 3037.8,329.161 3038.59,324.713 3039.38,365.277 3040.17,451.95 3040.96,353.231 3041.75,416.304 3042.54,427.219 3043.33,368.084 3044.12,394.506 3044.91,407.558 3045.7,373.208 3046.49,407.252 3047.28,318.541 3048.07,326.044 3048.86,337.721 3049.65,331.766 3050.44,327.425 3051.23,338.914 3052.02,320.171 3052.81,318.567 3053.6,346.248 3054.39,316.212 3055.18,338.441 3055.97,324.171 3056.76,316.014 3057.55,309.586 3058.34,349.713 3059.13,350.055 3059.92,414.672 3060.71,487.086 3061.5,497.917 3062.29,491.066 3063.08,473.712 3063.87,377.122 3064.66,376.357 3065.45,376.925 3066.24,536.086 3067.03,339.37 3067.82,319.574 3068.61,318.741 3069.4,316.399 3070.19,314.585 3070.98,319.12 3071.77,314.867 3072.56,314.828 3073.35,321.684 3074.14,325.81 3074.93,321.173 3075.72,382.566 3076.51,453.47 3077.3,312.887 3078.09,309.889 3078.88,314.408 3079.67,335.537 3080.46,344.527 3081.25,318.809 3082.04,326.312 3082.83,323.278 3083.62,317.898 3084.41,427.045 3085.2,327.395 3085.99,328.604 3086.78,328.492 3087.57,321.527 3088.36,380.958 3089.15,390.361 3089.94,508.7 3090.73,438.251 3091.52,474.584 3092.31,526.121 3093.1,322.548 3093.89,425.281 3094.68,377.963 3095.47,410.454 3096.26,454.37 3097.05,360.376 3097.84,336.599 3098.64,312.933 3099.43,332.35 3100.22,329.46 3101.01,339.289 3101.8,363.732 3102.59,476.438 3103.38,483.051 3104.17,381.751 3104.96,418.537 3105.75,405.654 3106.54,348.993 3107.33,310.491 3108.12,318.619 3108.91,380.173 3109.7,486.194 3110.49,368.489 3111.28,377.412 3112.07,522.896 3112.86,318.984 3113.65,319.371 3114.44,360.604 3115.23,431.966 3116.02,507.057 3116.81,442.77 3117.6,381.115 3118.39,469.183 3119.18,460.21 3119.97,473.897 3120.76,298.333 3121.55,500.272 3122.34,421.916 3123.13,408.614 3123.92,378.047 3124.71,406.522 3125.5,383.609 3126.29,469.723 3127.08,497.545 3127.87,416.028 3128.66,429.978 3129.45,472.209 3130.24,419.404 3131.03,337.509 3131.82,499.651 3132.61,444.983 3133.4,467.1 3134.19,460.928 3134.98,489.564 3135.77,422.943 3136.56,318.444 3137.35,412.926 3138.14,504.468 3138.93,432.056 3139.72,402.273 3140.51,505.271 3141.3,486.727 3142.09,342.624 3142.88,339.519 3143.67,322.449 3144.46,328.271 3145.25,341.481 3146.04,333.791 3146.83,312.373 3147.62,336.586 3148.41,431.968 3149.2,481.286 3149.99,318.28 3150.78,376.948 3151.57,437.787 3152.36,452.111 3153.15,364.912 3153.94,473.118 3154.73,447.905 3155.52,338.797 3156.31,441.23 3157.1,371.147 3157.89,516.827 3158.68,320.36 3159.47,347.75 3160.26,347.676 3161.05,515.028 3161.84,397.628 3162.63,328.617 3163.42,332.214 3164.21,349.915 3165,352.672 3165.79,326.362 3166.58,332.893 3167.37,332.237 3168.16,324.878 3168.95,331.798 3169.74,326.74 3170.53,334.963 3171.32,321.066 3172.11,330.355 3172.9,323.97 3173.69,330.052 3174.48,328.546 3175.27,321.787 3176.06,327.291 3176.85,336.911 3177.64,333.02 3178.43,332.845 3179.22,333.572 3180.01,339.03 3180.8,338.46 3181.59,329.779 3182.38,341.066 3183.17,339.149 3183.96,329.411 3184.75,334.743 3185.54,348.951 3186.33,329.586 3187.12,342.062 3187.91,340.432 3188.7,415.979 3189.49,489.25 3190.28,394 3191.07,326.073 3191.86,319.237 3192.65,333.436 3193.44,325.872 3194.23,460.629 3195.02,332.449 3195.81,337.053 3196.6,326.787 3197.39,333.252 3198.18,344.357 3198.97,342.912 3199.76,400.729 3200.55,336.272 3201.34,528.337 3202.13,314.846 3202.92,492.045 3203.71,452.926 3204.5,415.807 3205.29,461.757 3206.08,359.23 3206.87,415.224 3207.66,320.127 3208.45,332.941 3209.24,328.587 3210.03,329.154 3210.82,335.111 3211.61,324.136 3212.4,336.781 3213.19,328.373 3213.98,328.689 3214.77,342.894 3215.56,330.964 3216.35,332.643 3217.14,341.164 3217.93,309.24 3218.72,307.701 3219.51,313.515 3220.3,343.387 3221.09,493.864 3221.88,306.491 3222.67,322.862 3223.46,340.665 3224.25,304.37 3225.04,318.161 3225.83,307.146 3226.62,436.687 3227.41,490.154 3228.2,346.94 3228.99,325.862 3229.78,331.578 3230.57,370.613 3231.36,378.116 3232.15,337.093 3232.94,330.71 3233.73,319.77 3234.52,320.97 3235.31,325.991 3236.1,343.808 3236.89,345.718 3237.68,448.367 3238.47,484.399 3239.26,517.103 3240.05,484.068 3240.84,414.658 3241.63,471.021 3242.42,441.065 3243.21,512.568 3244,303.347 3244.79,312.871 3245.58,323.95 3246.37,317.759 3247.16,329.986 3247.95,330.531 3248.74,331.635 3249.53,332.118 3250.32,346.675 3251.11,341.183 3251.9,337.569 3252.69,411.349 3253.48,481.403 3254.27,315.276 3255.06,321.248 3255.86,322.457 3256.65,314.656 3257.44,320.32 3258.23,327.756 3259.02,316.277 3259.81,326.797 3260.6,331.502 3261.39,336.519 3262.18,337.991 3262.97,334.158 3263.76,331.639 3264.55,332.109 3265.34,333.343 3266.13,310.863 3266.92,383.76 3267.71,373.641 3268.5,480.52 3269.29,353.337 3270.08,376.007 3270.87,323.884 3271.66,331.809 3272.45,327.491 3273.24,339.956 3274.03,337.345 3274.82,329.883 3275.61,413.072 3276.4,382.603 3277.19,329.53 3277.98,327.615 3278.77,322.257 3279.56,329.089 3280.35,342.925 3281.14,346.453 3281.93,339.73 3282.72,487.642 3283.51,308.484 3284.3,447.959 3285.09,506.774 3285.88,308.419 3286.67,303.637 3287.46,346.402 3288.25,305.126 3289.04,317.993 3289.83,331.102 3290.62,352.046 3291.41,322.987 3292.2,324.354 3292.99,325.813 3293.78,331.933 3294.57,389.9 3295.36,332.417 3296.15,346.698 3296.94,355.455 3297.73,354.455 3298.52,391.403 3299.31,429.741 3300.1,351.322 3300.89,444.475 3301.68,454.106 3302.47,355.272 3303.26,417.161 3304.05,346.18 3304.84,422.112 3305.63,430.454 3306.42,506.38 3307.21,445.93 3308,496.605 3308.79,394.231 3309.58,504.089 3310.37,335.336 3311.16,438.272 3311.95,474.213 3312.74,348.647 3313.53,339.43 3314.32,323.702 3315.11,314.767 3315.9,318.855 3316.69,357.673 3317.48,332.532 3318.27,331.593 3319.06,340.619 3319.85,348.372 3320.64,345.637 3321.43,372.122 3322.22,352.725 3323.01,331.162 3323.8,328.141 3324.59,315.018 3325.38,320.969 3326.17,327.176 3326.96,328.551 3327.75,329.603 3328.54,333.202 3329.33,336.496 3330.12,341.807 3330.91,344.127 3331.7,348.508 3332.49,337.91 3333.28,339.096 3334.07,360.531 3334.86,310.072 3335.65,308.081 3336.44,318.692 3337.23,327.296 3338.02,315.603 3338.81,309.548 3339.6,333.47 3340.39,330.179 3341.18,335.964 3341.97,326.684 3342.76,322.842 3343.55,313.677 3344.34,384.381 3345.13,486.381 3345.92,480.205 3346.71,417.671 3347.5,329.51 3348.29,492.421 3349.08,499.978 3349.87,447.873 3350.66,414.715 3351.45,328.789 3352.24,335.127 3353.03,344.436 3353.82,347.2 3354.61,338.931 3355.4,467.106 3356.19,501.476 3356.98,325.92 3357.77,477.571 3358.56,469.679 3359.35,440.434 3360.14,451.128 3360.93,393.352 3361.72,439.009 3362.51,368.212 3363.3,326.953 3364.09,340.132 3364.88,336.465 3365.67,336.37 3366.46,371.737 3367.25,341.27 3368.04,338.321 3368.83,324.358 3369.62,326.883 3370.41,307.267 3371.2,432.209 3371.99,478.162 3372.78,456.083 3373.57,432.044 3374.36,328.852 3375.15,439.605 3375.94,301.789 3376.73,293.587 3377.52,312.253 3378.31,320.781 3379.1,326.979 3379.89,468.982 3380.68,432.177 3381.47,520.602 3382.26,307.82 3383.05,318.575 3383.84,321.517 3384.63,315.3 3385.42,323.481 3386.21,326.831 3387,328.234 3387.79,307.252 3388.58,310.488 3389.37,407.6 3390.16,494.476 3390.95,477.542 3391.74,495.131 3392.53,326.76 3393.32,328.279 3394.11,328.271 3394.9,329.351 3395.69,329.627 3396.48,326.214 3397.27,320.685 3398.06,341.617 3398.85,401.82 3399.64,444.124 3400.43,294.051 3401.22,500.475 3402.01,391.23 3402.8,434.709 3403.59,405.629 3404.38,409.14 3405.17,340.121 3405.96,325.793 3406.75,332.295 3407.54,333.778 3408.33,316.914 3409.12,321.13 3409.91,328.031 3410.7,320.365 3411.49,322.572 3412.28,315.535 3413.08,311.387 3413.87,329.928 3414.66,426.936 3415.45,437.678 3416.24,432.476 3417.03,385.252 3417.82,412.285 3418.61,440.51 3419.4,496.324 3420.19,472.553 3420.98,477.218 3421.77,418.604 3422.56,321.203 3423.35,420.529 3424.14,335.373 3424.93,336.448 3425.72,335.504 3426.51,347.563 3427.3,322.748 3428.09,331.326 3428.88,336.33 3429.67,339.916 3430.46,348.576 3431.25,353.789 3432.04,456.438 3432.83,351.145 3433.62,323.694 3434.41,326.155 3435.2,353.4 3435.99,339.446 3436.78,436.58 3437.57,461.431 3438.36,333.381 3439.15,507.118 3439.94,403.472 3440.73,358.038 3441.52,412.896 3442.31,473.802 3443.1,432.122 3443.89,465.663 3444.68,314.775 3445.47,510.941 3446.26,306.865 3447.05,312.738 3447.84,336.799 3448.63,327.627 3449.42,316.547 3450.21,492.149 3451,351.708 3451.79,530.758 3452.58,312.275 3453.37,313.903 3454.16,316.548 3454.95,333.74 3455.74,333.098 3456.53,326.573 "/>
<path clip-path="url(#clip880)" d="M2947.03 166.762 L3439.42 166.762 L3439.42 63.0816 L2947.03 63.0816  Z" fill="#ffffff" fill-rule="evenodd" fill-opacity="1"/>
<polyline clip-path="url(#clip880)" style="stroke:#000000; stroke-linecap:round; stroke-linejoin:round; stroke-width:4; stroke-opacity:1; fill:none" points="2947.03,166.762 3439.42,166.762 3439.42,63.0816 2947.03,63.0816 2947.03,166.762 "/>
<polyline clip-path="url(#clip880)" style="stroke:#009af9; stroke-linecap:round; stroke-linejoin:round; stroke-width:2; stroke-opacity:1; fill:none" points="2984.81,114.922 3211.48,114.922 "/>
<path clip-path="url(#clip880)" d="M3249.26 97.6416 L3253.98 97.6416 L3261.25 126.854 L3268.49 97.6416 L3273.75 97.6416 L3281.02 126.854 L3288.26 97.6416 L3293.01 97.6416 L3284.33 132.202 L3278.45 132.202 L3271.16 102.202 L3263.8 132.202 L3257.92 132.202 L3249.26 97.6416 Z" fill="#000000" fill-rule="evenodd" fill-opacity="1" /><path clip-path="url(#clip880)" d="M3299.21 97.6416 L3303.89 97.6416 L3303.89 111.808 L3320.88 111.808 L3320.88 97.6416 L3325.55 97.6416 L3325.55 132.202 L3320.88 132.202 L3320.88 115.743 L3303.89 115.743 L3303.89 132.202 L3299.21 132.202 L3299.21 97.6416 Z" fill="#000000" fill-rule="evenodd" fill-opacity="1" /><path clip-path="url(#clip880)" d="M3334.86 97.6416 L3341.83 97.6416 L3350.65 121.16 L3359.51 97.6416 L3366.48 97.6416 L3366.48 132.202 L3361.92 132.202 L3361.92 101.854 L3353.01 125.558 L3348.31 125.558 L3339.4 101.854 L3339.4 132.202 L3334.86 132.202 L3334.86 97.6416 Z" fill="#000000" fill-rule="evenodd" fill-opacity="1" /><path clip-path="url(#clip880)" d="M3401.64 100.304 L3401.64 105.234 Q3399.28 103.035 3396.6 101.947 Q3393.93 100.859 3390.92 100.859 Q3385 100.859 3381.85 104.493 Q3378.7 108.104 3378.7 114.956 Q3378.7 121.785 3381.85 125.419 Q3385 129.03 3390.92 129.03 Q3393.93 129.03 3396.6 127.942 Q3399.28 126.854 3401.64 124.655 L3401.64 129.54 Q3399.19 131.206 3396.43 132.04 Q3393.7 132.873 3390.65 132.873 Q3382.8 132.873 3378.29 128.081 Q3373.77 123.266 3373.77 114.956 Q3373.77 106.623 3378.29 101.831 Q3382.8 97.0166 3390.65 97.0166 Q3393.75 97.0166 3396.48 97.8499 Q3399.23 98.6601 3401.64 100.304 Z" fill="#000000" fill-rule="evenodd" fill-opacity="1" /></svg>
