<?xml version="1.0" encoding="utf-8"?>
<svg xmlns="http://www.w3.org/2000/svg" xmlns:xlink="http://www.w3.org/1999/xlink" width="900" height="150" viewBox="0 0 3600 600">
<defs>
  <clipPath id="clip680">
    <rect x="0" y="0" width="3600" height="600"/>
  </clipPath>
</defs>
<path clip-path="url(#clip680)" d="M0 600 L3600 600 L3600 0 L0 0  Z" fill="#ffffff" fill-rule="evenodd" fill-opacity="1"/>
<defs>
  <clipPath id="clip681">
    <rect x="720" y="0" width="2521" height="600"/>
  </clipPath>
</defs>
<path clip-path="url(#clip680)" d="M152.696 522.368 L3552.76 522.368 L3552.76 47.2441 L152.696 47.2441  Z" fill="#ffffff" fill-rule="evenodd" fill-opacity="1"/>
<defs>
  <clipPath id="clip682">
    <rect x="152" y="47" width="3401" height="476"/>
  </clipPath>
</defs>
<polyline clip-path="url(#clip682)" style="stroke:#000000; stroke-linecap:round; stroke-linejoin:round; stroke-width:2; stroke-opacity:0.1; fill:none" points="247.388,522.368 247.388,47.2441 "/>
<polyline clip-path="url(#clip682)" style="stroke:#000000; stroke-linecap:round; stroke-linejoin:round; stroke-width:2; stroke-opacity:0.1; fill:none" points="1015.12,522.368 1015.12,47.2441 "/>
<polyline clip-path="url(#clip682)" style="stroke:#000000; stroke-linecap:round; stroke-linejoin:round; stroke-width:2; stroke-opacity:0.1; fill:none" points="1782.86,522.368 1782.86,47.2441 "/>
<polyline clip-path="url(#clip682)" style="stroke:#000000; stroke-linecap:round; stroke-linejoin:round; stroke-width:2; stroke-opacity:0.1; fill:none" points="2550.6,522.368 2550.6,47.2441 "/>
<polyline clip-path="url(#clip682)" style="stroke:#000000; stroke-linecap:round; stroke-linejoin:round; stroke-width:2; stroke-opacity:0.1; fill:none" points="3318.34,522.368 3318.34,47.2441 "/>
<polyline clip-path="url(#clip680)" style="stroke:#000000; stroke-linecap:round; stroke-linejoin:round; stroke-width:4; stroke-opacity:1; fill:none" points="152.696,522.368 3552.76,522.368 "/>
<polyline clip-path="url(#clip680)" style="stroke:#000000; stroke-linecap:round; stroke-linejoin:round; stroke-width:4; stroke-opacity:1; fill:none" points="247.388,522.368 247.388,503.47 "/>
<polyline clip-path="url(#clip680)" style="stroke:#000000; stroke-linecap:round; stroke-linejoin:round; stroke-width:4; stroke-opacity:1; fill:none" points="1015.12,522.368 1015.12,503.47 "/>
<polyline clip-path="url(#clip680)" style="stroke:#000000; stroke-linecap:round; stroke-linejoin:round; stroke-width:4; stroke-opacity:1; fill:none" points="1782.86,522.368 1782.86,503.47 "/>
<polyline clip-path="url(#clip680)" style="stroke:#000000; stroke-linecap:round; stroke-linejoin:round; stroke-width:4; stroke-opacity:1; fill:none" points="2550.6,522.368 2550.6,503.47 "/>
<polyline clip-path="url(#clip680)" style="stroke:#000000; stroke-linecap:round; stroke-linejoin:round; stroke-width:4; stroke-opacity:1; fill:none" points="3318.34,522.368 3318.34,503.47 "/>
<path clip-path="url(#clip680)" d="M247.388 562.887 Q243.777 562.887 241.948 566.451 Q240.143 569.993 240.143 577.123 Q240.143 584.229 241.948 587.794 Q243.777 591.335 247.388 591.335 Q251.022 591.335 252.828 587.794 Q254.657 584.229 254.657 577.123 Q254.657 569.993 252.828 566.451 Q251.022 562.887 247.388 562.887 M247.388 559.183 Q253.198 559.183 256.254 563.789 Q259.333 568.373 259.333 577.123 Q259.333 585.849 256.254 590.456 Q253.198 595.039 247.388 595.039 Q241.578 595.039 238.499 590.456 Q235.444 585.849 235.444 577.123 Q235.444 568.373 238.499 563.789 Q241.578 559.183 247.388 559.183 Z" fill="#000000" fill-rule="evenodd" fill-opacity="1" /><path clip-path="url(#clip680)" d="M974.743 559.808 L993.1 559.808 L993.1 563.743 L979.026 563.743 L979.026 572.215 Q980.044 571.868 981.063 571.706 Q982.081 571.521 983.1 571.521 Q988.887 571.521 992.266 574.692 Q995.646 577.863 995.646 583.28 Q995.646 588.859 992.174 591.96 Q988.701 595.039 982.382 595.039 Q980.206 595.039 977.938 594.669 Q975.692 594.298 973.285 593.558 L973.285 588.859 Q975.368 589.993 977.59 590.548 Q979.813 591.104 982.289 591.104 Q986.294 591.104 988.632 588.998 Q990.97 586.891 990.97 583.28 Q990.97 579.669 988.632 577.562 Q986.294 575.456 982.289 575.456 Q980.414 575.456 978.539 575.873 Q976.688 576.289 974.743 577.169 L974.743 559.808 Z" fill="#000000" fill-rule="evenodd" fill-opacity="1" /><path clip-path="url(#clip680)" d="M1014.86 562.887 Q1011.25 562.887 1009.42 566.451 Q1007.61 569.993 1007.61 577.123 Q1007.61 584.229 1009.42 587.794 Q1011.25 591.335 1014.86 591.335 Q1018.49 591.335 1020.3 587.794 Q1022.13 584.229 1022.13 577.123 Q1022.13 569.993 1020.3 566.451 Q1018.49 562.887 1014.86 562.887 M1014.86 559.183 Q1020.67 559.183 1023.72 563.789 Q1026.8 568.373 1026.8 577.123 Q1026.8 585.849 1023.72 590.456 Q1020.67 595.039 1014.86 595.039 Q1009.05 595.039 1005.97 590.456 Q1002.91 585.849 1002.91 577.123 Q1002.91 568.373 1005.97 563.789 Q1009.05 559.183 1014.86 559.183 Z" fill="#000000" fill-rule="evenodd" fill-opacity="1" /><path clip-path="url(#clip680)" d="M1045.02 562.887 Q1041.41 562.887 1039.58 566.451 Q1037.78 569.993 1037.78 577.123 Q1037.78 584.229 1039.58 587.794 Q1041.41 591.335 1045.02 591.335 Q1048.65 591.335 1050.46 587.794 Q1052.29 584.229 1052.29 577.123 Q1052.29 569.993 1050.46 566.451 Q1048.65 562.887 1045.02 562.887 M1045.02 559.183 Q1050.83 559.183 1053.89 563.789 Q1056.96 568.373 1056.96 577.123 Q1056.96 585.849 1053.89 590.456 Q1050.83 595.039 1045.02 595.039 Q1039.21 595.039 1036.13 590.456 Q1033.08 585.849 1033.08 577.123 Q1033.08 568.373 1036.13 563.789 Q1039.21 559.183 1045.02 559.183 Z" fill="#000000" fill-rule="evenodd" fill-opacity="1" /><path clip-path="url(#clip680)" d="M1727.39 590.433 L1735.03 590.433 L1735.03 564.067 L1726.72 565.734 L1726.72 561.475 L1734.98 559.808 L1739.66 559.808 L1739.66 590.433 L1747.29 590.433 L1747.29 594.368 L1727.39 594.368 L1727.39 590.433 Z" fill="#000000" fill-rule="evenodd" fill-opacity="1" /><path clip-path="url(#clip680)" d="M1766.74 562.887 Q1763.13 562.887 1761.3 566.451 Q1759.49 569.993 1759.49 577.123 Q1759.49 584.229 1761.3 587.794 Q1763.13 591.335 1766.74 591.335 Q1770.37 591.335 1772.18 587.794 Q1774.01 584.229 1774.01 577.123 Q1774.01 569.993 1772.18 566.451 Q1770.37 562.887 1766.74 562.887 M1766.74 559.183 Q1772.55 559.183 1775.6 563.789 Q1778.68 568.373 1778.68 577.123 Q1778.68 585.849 1775.6 590.456 Q1772.55 595.039 1766.74 595.039 Q1760.93 595.039 1757.85 590.456 Q1754.79 585.849 1754.79 577.123 Q1754.79 568.373 1757.85 563.789 Q1760.93 559.183 1766.74 559.183 Z" fill="#000000" fill-rule="evenodd" fill-opacity="1" /><path clip-path="url(#clip680)" d="M1796.9 562.887 Q1793.29 562.887 1791.46 566.451 Q1789.66 569.993 1789.66 577.123 Q1789.66 584.229 1791.46 587.794 Q1793.29 591.335 1796.9 591.335 Q1800.54 591.335 1802.34 587.794 Q1804.17 584.229 1804.17 577.123 Q1804.17 569.993 1802.34 566.451 Q1800.54 562.887 1796.9 562.887 M1796.9 559.183 Q1802.71 559.183 1805.77 563.789 Q1808.85 568.373 1808.85 577.123 Q1808.85 585.849 1805.77 590.456 Q1802.71 595.039 1796.9 595.039 Q1791.09 595.039 1788.01 590.456 Q1784.96 585.849 1784.96 577.123 Q1784.96 568.373 1788.01 563.789 Q1791.09 559.183 1796.9 559.183 Z" fill="#000000" fill-rule="evenodd" fill-opacity="1" /><path clip-path="url(#clip680)" d="M1827.06 562.887 Q1823.45 562.887 1821.62 566.451 Q1819.82 569.993 1819.82 577.123 Q1819.82 584.229 1821.62 587.794 Q1823.45 591.335 1827.06 591.335 Q1830.7 591.335 1832.5 587.794 Q1834.33 584.229 1834.33 577.123 Q1834.33 569.993 1832.5 566.451 Q1830.7 562.887 1827.06 562.887 M1827.06 559.183 Q1832.87 559.183 1835.93 563.789 Q1839.01 568.373 1839.01 577.123 Q1839.01 585.849 1835.93 590.456 Q1832.87 595.039 1827.06 595.039 Q1821.25 595.039 1818.17 590.456 Q1815.12 585.849 1815.12 577.123 Q1815.12 568.373 1818.17 563.789 Q1821.25 559.183 1827.06 559.183 Z" fill="#000000" fill-rule="evenodd" fill-opacity="1" /><path clip-path="url(#clip680)" d="M2495.12 590.433 L2502.76 590.433 L2502.76 564.067 L2494.45 565.734 L2494.45 561.475 L2502.72 559.808 L2507.39 559.808 L2507.39 590.433 L2515.03 590.433 L2515.03 594.368 L2495.12 594.368 L2495.12 590.433 Z" fill="#000000" fill-rule="evenodd" fill-opacity="1" /><path clip-path="url(#clip680)" d="M2524.52 559.808 L2542.88 559.808 L2542.88 563.743 L2528.8 563.743 L2528.8 572.215 Q2529.82 571.868 2530.84 571.706 Q2531.86 571.521 2532.88 571.521 Q2538.67 571.521 2542.05 574.692 Q2545.42 577.863 2545.42 583.28 Q2545.42 588.859 2541.95 591.96 Q2538.48 595.039 2532.16 595.039 Q2529.99 595.039 2527.72 594.669 Q2525.47 594.298 2523.06 593.558 L2523.06 588.859 Q2525.15 589.993 2527.37 590.548 Q2529.59 591.104 2532.07 591.104 Q2536.07 591.104 2538.41 588.998 Q2540.75 586.891 2540.75 583.28 Q2540.75 579.669 2538.41 577.562 Q2536.07 575.456 2532.07 575.456 Q2530.19 575.456 2528.32 575.873 Q2526.47 576.289 2524.52 577.169 L2524.52 559.808 Z" fill="#000000" fill-rule="evenodd" fill-opacity="1" /><path clip-path="url(#clip680)" d="M2564.64 562.887 Q2561.03 562.887 2559.2 566.451 Q2557.39 569.993 2557.39 577.123 Q2557.39 584.229 2559.2 587.794 Q2561.03 591.335 2564.64 591.335 Q2568.27 591.335 2570.08 587.794 Q2571.91 584.229 2571.91 577.123 Q2571.91 569.993 2570.08 566.451 Q2568.27 562.887 2564.64 562.887 M2564.64 559.183 Q2570.45 559.183 2573.5 563.789 Q2576.58 568.373 2576.58 577.123 Q2576.58 585.849 2573.5 590.456 Q2570.45 595.039 2564.64 595.039 Q2558.83 595.039 2555.75 590.456 Q2552.69 585.849 2552.69 577.123 Q2552.69 568.373 2555.75 563.789 Q2558.83 559.183 2564.64 559.183 Z" fill="#000000" fill-rule="evenodd" fill-opacity="1" /><path clip-path="url(#clip680)" d="M2594.8 562.887 Q2591.19 562.887 2589.36 566.451 Q2587.55 569.993 2587.55 577.123 Q2587.55 584.229 2589.36 587.794 Q2591.19 591.335 2594.8 591.335 Q2598.43 591.335 2600.24 587.794 Q2602.07 584.229 2602.07 577.123 Q2602.07 569.993 2600.24 566.451 Q2598.43 562.887 2594.8 562.887 M2594.8 559.183 Q2600.61 559.183 2603.67 563.789 Q2606.74 568.373 2606.74 577.123 Q2606.74 585.849 2603.67 590.456 Q2600.61 595.039 2594.8 595.039 Q2588.99 595.039 2585.91 590.456 Q2582.86 585.849 2582.86 577.123 Q2582.86 568.373 2585.91 563.789 Q2588.99 559.183 2594.8 559.183 Z" fill="#000000" fill-rule="evenodd" fill-opacity="1" /><path clip-path="url(#clip680)" d="M3266.95 590.433 L3283.27 590.433 L3283.27 594.368 L3261.32 594.368 L3261.32 590.433 Q3263.98 587.678 3268.57 583.048 Q3273.17 578.396 3274.35 577.053 Q3276.6 574.53 3277.48 572.794 Q3278.38 571.035 3278.38 569.345 Q3278.38 566.59 3276.44 564.854 Q3274.52 563.118 3271.41 563.118 Q3269.22 563.118 3266.76 563.882 Q3264.33 564.646 3261.55 566.197 L3261.55 561.475 Q3264.38 560.34 3266.83 559.762 Q3269.28 559.183 3271.32 559.183 Q3276.69 559.183 3279.89 561.868 Q3283.08 564.553 3283.08 569.044 Q3283.08 571.174 3282.27 573.095 Q3281.48 574.993 3279.38 577.586 Q3278.8 578.257 3275.7 581.474 Q3272.59 584.669 3266.95 590.433 Z" fill="#000000" fill-rule="evenodd" fill-opacity="1" /><path clip-path="url(#clip680)" d="M3303.08 562.887 Q3299.47 562.887 3297.64 566.451 Q3295.84 569.993 3295.84 577.123 Q3295.84 584.229 3297.64 587.794 Q3299.47 591.335 3303.08 591.335 Q3306.71 591.335 3308.52 587.794 Q3310.35 584.229 3310.35 577.123 Q3310.35 569.993 3308.52 566.451 Q3306.71 562.887 3303.08 562.887 M3303.08 559.183 Q3308.89 559.183 3311.95 563.789 Q3315.03 568.373 3315.03 577.123 Q3315.03 585.849 3311.95 590.456 Q3308.89 595.039 3303.08 595.039 Q3297.27 595.039 3294.19 590.456 Q3291.14 585.849 3291.14 577.123 Q3291.14 568.373 3294.19 563.789 Q3297.27 559.183 3303.08 559.183 Z" fill="#000000" fill-rule="evenodd" fill-opacity="1" /><path clip-path="url(#clip680)" d="M3333.24 562.887 Q3329.63 562.887 3327.8 566.451 Q3326 569.993 3326 577.123 Q3326 584.229 3327.8 587.794 Q3329.63 591.335 3333.24 591.335 Q3336.88 591.335 3338.68 587.794 Q3340.51 584.229 3340.51 577.123 Q3340.51 569.993 3338.68 566.451 Q3336.88 562.887 3333.24 562.887 M3333.24 559.183 Q3339.05 559.183 3342.11 563.789 Q3345.19 568.373 3345.19 577.123 Q3345.19 585.849 3342.11 590.456 Q3339.05 595.039 3333.24 595.039 Q3327.43 595.039 3324.35 590.456 Q3321.3 585.849 3321.3 577.123 Q3321.3 568.373 3324.35 563.789 Q3327.43 559.183 3333.24 559.183 Z" fill="#000000" fill-rule="evenodd" fill-opacity="1" /><path clip-path="url(#clip680)" d="M3363.4 562.887 Q3359.79 562.887 3357.96 566.451 Q3356.16 569.993 3356.16 577.123 Q3356.16 584.229 3357.96 587.794 Q3359.79 591.335 3363.4 591.335 Q3367.04 591.335 3368.84 587.794 Q3370.67 584.229 3370.67 577.123 Q3370.67 569.993 3368.84 566.451 Q3367.04 562.887 3363.4 562.887 M3363.4 559.183 Q3369.21 559.183 3372.27 563.789 Q3375.35 568.373 3375.35 577.123 Q3375.35 585.849 3372.27 590.456 Q3369.21 595.039 3363.4 595.039 Q3357.59 595.039 3354.52 590.456 Q3351.46 585.849 3351.46 577.123 Q3351.46 568.373 3354.52 563.789 Q3357.59 559.183 3363.4 559.183 Z" fill="#000000" fill-rule="evenodd" fill-opacity="1" /><polyline clip-path="url(#clip682)" style="stroke:#000000; stroke-linecap:round; stroke-linejoin:round; stroke-width:2; stroke-opacity:0.1; fill:none" points="152.696,449.645 3552.76,449.645 "/>
<polyline clip-path="url(#clip682)" style="stroke:#000000; stroke-linecap:round; stroke-linejoin:round; stroke-width:2; stroke-opacity:0.1; fill:none" points="152.696,328.44 3552.76,328.44 "/>
<polyline clip-path="url(#clip682)" style="stroke:#000000; stroke-linecap:round; stroke-linejoin:round; stroke-width:2; stroke-opacity:0.1; fill:none" points="152.696,207.235 3552.76,207.235 "/>
<polyline clip-path="url(#clip682)" style="stroke:#000000; stroke-linecap:round; stroke-linejoin:round; stroke-width:2; stroke-opacity:0.1; fill:none" points="152.696,86.0297 3552.76,86.0297 "/>
<polyline clip-path="url(#clip680)" style="stroke:#000000; stroke-linecap:round; stroke-linejoin:round; stroke-width:4; stroke-opacity:1; fill:none" points="152.696,522.368 152.696,47.2441 "/>
<polyline clip-path="url(#clip680)" style="stroke:#000000; stroke-linecap:round; stroke-linejoin:round; stroke-width:4; stroke-opacity:1; fill:none" points="152.696,449.645 171.593,449.645 "/>
<polyline clip-path="url(#clip680)" style="stroke:#000000; stroke-linecap:round; stroke-linejoin:round; stroke-width:4; stroke-opacity:1; fill:none" points="152.696,328.44 171.593,328.44 "/>
<polyline clip-path="url(#clip680)" style="stroke:#000000; stroke-linecap:round; stroke-linejoin:round; stroke-width:4; stroke-opacity:1; fill:none" points="152.696,207.235 171.593,207.235 "/>
<polyline clip-path="url(#clip680)" style="stroke:#000000; stroke-linecap:round; stroke-linejoin:round; stroke-width:4; stroke-opacity:1; fill:none" points="152.696,86.0297 171.593,86.0297 "/>
<path clip-path="url(#clip680)" d="M77.7929 432.365 L96.1493 432.365 L96.1493 436.3 L82.0753 436.3 L82.0753 444.772 Q83.0938 444.425 84.1123 444.263 Q85.1308 444.078 86.1493 444.078 Q91.9363 444.078 95.3159 447.249 Q98.6955 450.42 98.6955 455.837 Q98.6955 461.416 95.2233 464.517 Q91.7511 467.596 85.4317 467.596 Q83.2558 467.596 80.9873 467.226 Q78.7419 466.855 76.3346 466.115 L76.3346 461.416 Q78.4179 462.55 80.6401 463.105 Q82.8623 463.661 85.3391 463.661 Q89.3437 463.661 91.6817 461.555 Q94.0196 459.448 94.0196 455.837 Q94.0196 452.226 91.6817 450.119 Q89.3437 448.013 85.3391 448.013 Q83.4641 448.013 81.5892 448.43 Q79.7373 448.846 77.7929 449.726 L77.7929 432.365 Z" fill="#000000" fill-rule="evenodd" fill-opacity="1" /><path clip-path="url(#clip680)" d="M47.3995 341.785 L55.0384 341.785 L55.0384 315.419 L46.7282 317.086 L46.7282 312.826 L54.9921 311.16 L59.668 311.16 L59.668 341.785 L67.3068 341.785 L67.3068 345.72 L47.3995 345.72 L47.3995 341.785 Z" fill="#000000" fill-rule="evenodd" fill-opacity="1" /><path clip-path="url(#clip680)" d="M86.7512 314.238 Q83.1401 314.238 81.3114 317.803 Q79.5058 321.345 79.5058 328.475 Q79.5058 335.581 81.3114 339.146 Q83.1401 342.687 86.7512 342.687 Q90.3854 342.687 92.1909 339.146 Q94.0196 335.581 94.0196 328.475 Q94.0196 321.345 92.1909 317.803 Q90.3854 314.238 86.7512 314.238 M86.7512 310.535 Q92.5613 310.535 95.6169 315.141 Q98.6955 319.725 98.6955 328.475 Q98.6955 337.201 95.6169 341.808 Q92.5613 346.391 86.7512 346.391 Q80.941 346.391 77.8623 341.808 Q74.8068 337.201 74.8068 328.475 Q74.8068 319.725 77.8623 315.141 Q80.941 310.535 86.7512 310.535 Z" fill="#000000" fill-rule="evenodd" fill-opacity="1" /><path clip-path="url(#clip680)" d="M48.3949 220.58 L56.0337 220.58 L56.0337 194.214 L47.7236 195.881 L47.7236 191.621 L55.9874 189.955 L60.6633 189.955 L60.6633 220.58 L68.3022 220.58 L68.3022 224.515 L48.3949 224.515 L48.3949 220.58 Z" fill="#000000" fill-rule="evenodd" fill-opacity="1" /><path clip-path="url(#clip680)" d="M77.7929 189.955 L96.1493 189.955 L96.1493 193.89 L82.0753 193.89 L82.0753 202.362 Q83.0938 202.015 84.1123 201.853 Q85.1308 201.668 86.1493 201.668 Q91.9363 201.668 95.3159 204.839 Q98.6955 208.01 98.6955 213.427 Q98.6955 219.006 95.2233 222.107 Q91.7511 225.186 85.4317 225.186 Q83.2558 225.186 80.9873 224.816 Q78.7419 224.445 76.3346 223.705 L76.3346 219.006 Q78.4179 220.14 80.6401 220.695 Q82.8623 221.251 85.3391 221.251 Q89.3437 221.251 91.6817 219.144 Q94.0196 217.038 94.0196 213.427 Q94.0196 209.816 91.6817 207.709 Q89.3437 205.603 85.3391 205.603 Q83.4641 205.603 81.5892 206.019 Q79.7373 206.436 77.7929 207.316 L77.7929 189.955 Z" fill="#000000" fill-rule="evenodd" fill-opacity="1" /><path clip-path="url(#clip680)" d="M50.6171 99.3745 L66.9365 99.3745 L66.9365 103.31 L44.9921 103.31 L44.9921 99.3745 Q47.6541 96.6199 52.2375 91.9903 Q56.8439 87.3376 58.0245 85.995 Q60.2698 83.4719 61.1494 81.7358 Q62.0522 79.9765 62.0522 78.2867 Q62.0522 75.5321 60.1078 73.796 Q58.1865 72.0599 55.0847 72.0599 Q52.8856 72.0599 50.4319 72.8238 Q48.0014 73.5876 45.2236 75.1386 L45.2236 70.4164 Q48.0477 69.2821 50.5014 68.7034 Q52.955 68.1247 54.9921 68.1247 Q60.3624 68.1247 63.5568 70.8099 Q66.7513 73.4951 66.7513 77.9858 Q66.7513 80.1154 65.9411 82.0367 Q65.1541 83.9348 63.0476 86.5274 Q62.4689 87.1987 59.367 90.4163 Q56.2652 93.6107 50.6171 99.3745 Z" fill="#000000" fill-rule="evenodd" fill-opacity="1" /><path clip-path="url(#clip680)" d="M86.7512 71.8284 Q83.1401 71.8284 81.3114 75.3932 Q79.5058 78.9348 79.5058 86.0644 Q79.5058 93.1709 81.3114 96.7357 Q83.1401 100.277 86.7512 100.277 Q90.3854 100.277 92.1909 96.7357 Q94.0196 93.1709 94.0196 86.0644 Q94.0196 78.9348 92.1909 75.3932 Q90.3854 71.8284 86.7512 71.8284 M86.7512 68.1247 Q92.5613 68.1247 95.6169 72.7312 Q98.6955 77.3145 98.6955 86.0644 Q98.6955 94.7912 95.6169 99.3977 Q92.5613 103.981 86.7512 103.981 Q80.941 103.981 77.8623 99.3977 Q74.8068 94.7912 74.8068 86.0644 Q74.8068 77.3145 77.8623 72.7312 Q80.941 68.1247 86.7512 68.1247 Z" fill="#000000" fill-rule="evenodd" fill-opacity="1" /><polyline clip-path="url(#clip682)" style="stroke:#009af9; stroke-linecap:round; stroke-linejoin:round; stroke-width:2; stroke-opacity:1; fill:none" points="248.924,320.093 250.459,332.022 251.995,330.55 253.53,330.498 255.066,426.664 256.601,429.187 258.137,331.636 259.672,373.372 261.207,487.074 262.743,429.476 264.278,393.548 265.814,343.004 267.349,335.708 268.885,337.423 270.42,340.351 271.956,328.201 273.491,344.567 275.027,436.477 276.562,399.014 278.098,365.998 279.633,327.272 281.169,354.339 282.704,436.97 284.24,458.242 285.775,330.826 287.311,506.692 288.846,317.724 290.381,309.636 291.917,302.907 293.452,299.573 294.988,354.305 296.523,483.116 298.059,404.262 299.594,333.006 301.13,486.714 302.665,515.691 304.201,405.776 305.736,449.011 307.272,326.575 308.807,493.13 310.343,326.299 311.878,320.612 313.414,472.961 314.949,461.641 316.484,436.582 318.02,301.976 319.555,298.566 321.091,301.257 322.626,300.957 324.162,300.72 325.697,326.874 327.233,318.003 328.768,325.234 330.304,345.372 331.839,315.792 333.375,314.763 334.91,431.662 336.446,312.757 337.981,402.467 339.517,480.648 341.052,425.681 342.588,369.492 344.123,483.99 345.658,462.373 347.194,363.033 348.729,327.435 350.265,472.647 351.8,355.604 353.336,363.251 354.871,487.57 356.407,344.173 357.942,379.55 359.478,334.779 361.013,406.224 362.549,320.181 364.084,423.608 365.62,384.888 367.155,418.808 368.691,442.905 370.226,458.552 371.762,476.409 373.297,481.085 374.832,311.563 376.368,351.631 377.903,411.522 379.439,437.237 380.974,333.843 382.51,335.284 384.045,317.168 385.581,474.493 387.116,341.776 388.652,486.171 390.187,498.777 391.723,401.776 393.258,325.235 394.794,357.622 396.329,369.118 397.865,476.969 399.4,464.572 400.936,492.662 402.471,509.985 404.006,384.126 405.542,320.021 407.077,407.172 408.613,341.931 410.148,343.036 411.684,325.803 413.219,337.249 414.755,329.589 416.29,508.273 417.826,315.139 419.361,333.044 420.897,332.428 422.432,339.724 423.968,334.482 425.503,331.202 427.039,317.304 428.574,327.541 430.11,334.967 431.645,327.135 433.18,491.479 434.716,347.532 436.251,339.432 437.787,429.164 439.322,399.765 440.858,328.576 442.393,327.217 443.929,328.066 445.464,387.095 447,374.857 448.535,321.984 450.071,315.328 451.606,312.013 453.142,329.949 454.677,332.461 456.213,342.76 457.748,313.891 459.284,317.881 460.819,321.665 462.354,322.888 463.89,328.766 465.425,323.797 466.961,331.553 468.496,338.563 470.032,404.054 471.567,330.722 473.103,317.578 474.638,491.025 476.174,464.205 477.709,418.845 479.245,331.709 480.78,340.557 482.316,500.467 483.851,468.154 485.387,490.86 486.922,455.891 488.458,329.921 489.993,328.668 491.528,330.58 493.064,406.489 494.599,371.018 496.135,362.483 497.67,350.282 499.206,352.944 500.741,344.522 502.277,345.323 503.812,341.683 505.348,341.454 506.883,341.463 508.419,350.659 509.954,351.426 511.49,412.849 513.025,503.305 514.561,316.915 516.096,315.735 517.632,312.275 519.167,325.085 520.702,325.872 522.238,343.34 523.773,342.288 525.309,331.405 526.844,321.585 528.38,315.792 529.915,319.433 531.451,338.999 532.986,338.926 534.522,460.823 536.057,313.803 537.593,369.896 539.128,404.917 540.664,488.723 542.199,390.455 543.735,456.907 545.27,332.5 546.806,335.294 548.341,340.832 549.876,307.357 551.412,325.604 552.947,324.513 554.483,328.029 556.018,324.126 557.554,326.317 559.089,324.372 560.625,327.194 562.16,330.452 563.696,387.574 565.231,394.551 566.767,490.76 568.302,355.964 569.838,492.25 571.373,329.17 572.909,346.122 574.444,377.297 575.98,385.588 577.515,345.448 579.05,321.778 580.586,332.063 582.121,319.045 583.657,453.185 585.192,372.262 586.728,437.124 588.263,462.533 589.799,338.847 591.334,527.074 592.87,348.886 594.405,480.08 595.941,340.928 597.476,308.14 599.012,315.265 600.547,452.136 602.083,392.327 603.618,482.949 605.154,325.417 606.689,329.731 608.224,330.112 609.76,404.364 611.295,417.146 612.831,417.019 614.366,343.783 615.902,461.036 617.437,432.648 618.973,317.753 620.508,336.092 622.044,327.609 623.579,332.714 625.115,420.248 626.65,310.673 628.186,323.818 629.721,309.027 631.257,413.54 632.792,346.695 634.328,347.285 635.863,351.271 637.398,324.864 638.934,326.693 640.469,319.997 642.005,313.496 643.54,342.454 645.076,326.969 646.611,332.373 648.147,414.945 649.682,493.234 651.218,385.708 652.753,497.595 654.289,364.571 655.824,347.894 657.36,333.518 658.895,473.533 660.431,411.472 661.966,348.451 663.502,333.246 665.037,297.916 666.572,411.15 668.108,407.955 669.643,393.972 671.179,337.132 672.714,347.453 674.25,422.026 675.785,343.488 677.321,311.079 678.856,399.3 680.392,480.053 681.927,331.495 683.463,348.183 684.998,341.059 686.534,326.837 688.069,327.404 689.605,318.161 691.14,312.915 692.676,461.016 694.211,338.186 695.746,326.853 697.282,328.694 698.817,326.921 700.353,340.434 701.888,472.719 703.424,329.488 704.959,316.831 706.495,387.381 708.03,502.832 709.566,314.673 711.101,404.506 712.637,518.616 714.172,477.948 715.708,388.269 717.243,450.974 718.779,328.766 720.314,318.953 721.849,318.14 723.385,401.931 724.92,417.572 726.456,358.347 727.991,314.112 729.527,327.432 731.062,433.307 732.598,458.045 734.133,416.634 735.669,441.863 737.204,327.52 738.74,335.815 740.275,333.108 741.811,441.407 743.346,427.715 744.882,429.915 746.417,465.617 747.953,313.732 749.488,307.762 751.023,310.519 752.559,361.619 754.094,313.783 755.63,335.487 757.165,330.557 758.701,343.01 760.236,428.469 761.772,304.587 763.307,339.104 764.843,303.895 766.378,304.58 767.914,425.27 769.449,335.504 770.985,323.36 772.52,503.456 774.056,498.603 775.591,486.391 777.127,427.682 778.662,461.228 780.197,325.091 781.733,404.882 783.268,339.338 784.804,339.365 786.339,329.932 787.875,334.533 789.41,316.303 790.946,323.006 792.481,344.088 794.017,327.108 795.552,327.894 797.088,391.805 798.623,400.157 800.159,328.721 801.694,331.176 803.23,326.822 804.765,329.059 806.301,455.447 807.836,340.562 809.371,436.818 810.907,442.915 812.442,402.648 813.978,286.896 815.513,450.247 817.049,417.771 818.584,307.681 820.12,303.942 821.655,301.193 823.191,477.689 824.726,336.393 826.262,334.189 827.797,335.078 829.333,325.84 830.868,328.227 832.404,403.046 833.939,399.221 835.475,454.906 837.01,392.694 838.545,416.643 840.081,411.057 841.616,502.537 843.152,346.053 844.687,505.226 846.223,367.254 847.758,518.664 849.294,432.388 850.829,385.674 852.365,483.044 853.9,473.097 855.436,379.716 856.971,325.192 858.507,368.097 860.042,317.942 861.578,323.959 863.113,454.165 864.649,316.389 866.184,459.059 867.719,415.467 869.255,326.654 870.79,389.266 872.326,316.78 873.861,314.041 875.397,329.45 876.932,337.131 878.468,466.324 880.003,404.296 881.539,512.451 883.074,337.653 884.61,341.928 886.145,344.375 887.681,350.32 889.216,499.243 890.752,344.8 892.287,335.416 893.823,327.895 895.358,324.561 896.893,327.261 898.429,316.888 899.964,446.66 901.5,376.593 903.035,314.228 904.571,425.052 906.106,450.22 907.642,333.648 909.177,327.908 910.713,486.312 912.248,312.527 913.784,338.509 915.319,491.663 916.855,474.35 918.39,381.339 919.926,327.235 921.461,335.467 922.997,439.414 924.532,325.607 926.067,329.788 927.603,451.958 929.138,474.708 930.674,464.184 932.209,475.412 933.745,442.034 935.28,447.065 936.816,341.858 938.351,330.672 939.887,326.877 941.422,347.221 942.958,320.581 944.493,318.275 946.029,416.338 947.564,522.477 949.1,321.565 950.635,316.21 952.171,500.654 953.706,424.105 955.241,323.958 956.777,328.04 958.312,436.324 959.848,405.65 961.383,404.267 962.919,469.691 964.454,485.006 965.99,364.298 967.525,339.935 969.061,327.67 970.596,333.755 972.132,338.183 973.667,329.178 975.203,405.513 976.738,452.219 978.274,355.813 979.809,386.483 981.345,336.673 982.88,313.716 984.415,338.124 985.951,425.182 987.486,509.158 989.022,339.07 990.557,336.82 992.093,428.447 993.628,417.316 995.164,420.947 996.699,324.354 998.235,329.105 999.77,337.339 1001.31,307.798 1002.84,335.382 1004.38,318.436 1005.91,331.727 1007.45,375.797 1008.98,340.616 1010.52,340.817 1012.05,338.565 1013.59,343.981 1015.12,391.585 1016.66,317.897 1018.2,329.819 1019.73,339.938 1021.27,465.103 1022.8,336.303 1024.34,323.374 1025.87,311.304 1027.41,316.925 1028.94,338.749 1030.48,344.938 1032.02,351.939 1033.55,326.38 1035.09,331.958 1036.62,333.42 1038.16,331.108 1039.69,335.951 1041.23,443.332 1042.76,312.507 1044.3,321.091 1045.83,315.408 1047.37,315.581 1048.91,403.748 1050.44,386.512 1051.98,463.803 1053.51,396.644 1055.05,332.776 1056.58,316.891 1058.12,319.641 1059.65,502.635 1061.19,428.984 1062.72,413.31 1064.26,336.482 1065.8,435.55 1067.33,337.447 1068.87,318.013 1070.4,331.927 1071.94,348.678 1073.47,341.588 1075.01,336.477 1076.54,437.688 1078.08,395.234 1079.61,491.839 1081.15,379.882 1082.69,522.383 1084.22,326.356 1085.76,333.463 1087.29,337.666 1088.83,330.231 1090.36,324.394 1091.9,313.105 1093.43,320.465 1094.97,327.746 1096.51,303.3 1098.04,417.201 1099.58,385.833 1101.11,485.685 1102.65,308.014 1104.18,309.204 1105.72,439.955 1107.25,515.912 1108.79,390.939 1110.32,348.823 1111.86,340 1113.4,387.976 1114.93,486.635 1116.47,492.548 1118,463.199 1119.54,340.325 1121.07,346.913 1122.61,449.028 1124.14,492.829 1125.68,367.17 1127.21,476.819 1128.75,470.259 1130.29,389.812 1131.82,325.535 1133.36,324.234 1134.89,336.435 1136.43,385.81 1137.96,500.348 1139.5,370.782 1141.03,486.397 1142.57,397.494 1144.1,415.393 1145.64,465.23 1147.18,429.231 1148.71,335.99 1150.25,340.585 1151.78,414.543 1153.32,403.763 1154.85,502.034 1156.39,484.153 1157.92,515.946 1159.46,335.036 1160.99,364.44 1162.53,448.861 1164.07,455.012 1165.6,341.149 1167.14,333.518 1168.67,408.662 1170.21,308.626 1171.74,318.257 1173.28,316.29 1174.81,402.457 1176.35,387.926 1177.89,409.727 1179.42,503.496 1180.96,311.777 1182.49,418.204 1184.03,339.2 1185.56,328.958 1187.1,335.276 1188.63,518.651 1190.17,446.566 1191.7,331.809 1193.24,396.947 1194.78,346.237 1196.31,329.369 1197.85,332.168 1199.38,453.257 1200.92,344.208 1202.45,332.165 1203.99,337.037 1205.52,365.517 1207.06,322.336 1208.59,339.334 1210.13,338.718 1211.67,349.218 1213.2,315.97 1214.74,346.905 1216.27,337.289 1217.81,341.689 1219.34,334.342 1220.88,452.699 1222.41,489.202 1223.95,380.29 1225.48,405.56 1227.02,353.077 1228.56,346.446 1230.09,342.711 1231.63,313.831 1233.16,443.36 1234.7,330.546 1236.23,529.5 1237.77,411.385 1239.3,346.016 1240.84,345.798 1242.38,319.666 1243.91,365.925 1245.45,480.299 1246.98,418.13 1248.52,324.427 1250.05,339.862 1251.59,343.857 1253.12,522.958 1254.66,389.816 1256.19,439.224 1257.73,463.628 1259.27,463.397 1260.8,430.962 1262.34,335.371 1263.87,330.306 1265.41,331.338 1266.94,460.964 1268.48,442.366 1270.01,437.768 1271.55,399.31 1273.08,512.78 1274.62,402.679 1276.16,396.658 1277.69,330.287 1279.23,331.469 1280.76,335.918 1282.3,338.213 1283.83,498.27 1285.37,303.643 1286.9,333.931 1288.44,400.508 1289.97,412.914 1291.51,334.194 1293.05,335.52 1294.58,323.912 1296.12,399.514 1297.65,345.88 1299.19,371.65 1300.72,475.977 1302.26,447.546 1303.79,419.74 1305.33,327.833 1306.86,325.956 1308.4,339.113 1309.94,493.304 1311.47,394.791 1313.01,469.432 1314.54,412.755 1316.08,489.216 1317.61,388.559 1319.15,302.244 1320.68,368.83 1322.22,319.001 1323.76,488.434 1325.29,341.23 1326.83,319.242 1328.36,317.369 1329.9,338.615 1331.43,333.736 1332.97,346.164 1334.5,342.11 1336.04,332.527 1337.57,477.2 1339.11,486.848 1340.65,390.364 1342.18,453.299 1343.72,428.012 1345.25,384.868 1346.79,402.103 1348.32,405.234 1349.86,336.51 1351.39,459.872 1352.93,353.002 1354.46,448.034 1356,415.453 1357.54,361.981 1359.07,445.48 1360.61,338.719 1362.14,338.667 1363.68,327.018 1365.21,330.74 1366.75,422.791 1368.28,344.188 1369.82,336.589 1371.35,321.783 1372.89,491.304 1374.43,491.197 1375.96,345.686 1377.5,321.887 1379.03,325.603 1380.57,342.487 1382.1,344.225 1383.64,338.061 1385.17,325.17 1386.71,402.301 1388.24,506.619 1389.78,363.394 1391.32,476.234 1392.85,319.381 1394.39,305.308 1395.92,318.375 1397.46,328.489 1398.99,334.404 1400.53,340.722 1402.06,344.38 1403.6,489.808 1405.14,406.386 1406.67,514.76 1408.21,381.682 1409.74,341.459 1411.28,472.399 1412.81,315.439 1414.35,307.02 1415.88,337.275 1417.42,352.871 1418.95,313.249 1420.49,488.477 1422.03,392.469 1423.56,352.069 1425.1,327.633 1426.63,472.015 1428.17,510.91 1429.7,328.884 1431.24,337.995 1432.77,333.804 1434.31,327.345 1435.84,326.317 1437.38,326.923 1438.92,324.121 1440.45,337.719 1441.99,510.033 1443.52,366.908 1445.06,447.754 1446.59,372.193 1448.13,305.474 1449.66,339.554 1451.2,334.613 1452.73,343.835 1454.27,346.318 1455.81,348.126 1457.34,338.78 1458.88,356.634 1460.41,438.13 1461.95,330.822 1463.48,338.423 1465.02,330.059 1466.55,328.826 1468.09,407.242 1469.63,362.701 1471.16,364.604 1472.7,488.519 1474.23,285.405 1475.77,412.438 1477.3,378.758 1478.84,314.4 1480.37,321.17 1481.91,325.599 1483.44,332.05 1484.98,335.823 1486.52,327.128 1488.05,332.762 1489.59,315.237 1491.12,319.108 1492.66,321.456 1494.19,313.922 1495.73,322.75 1497.26,326.543 1498.8,459.021 1500.33,337.319 1501.87,365.735 1503.41,347.371 1504.94,351.434 1506.48,333.746 1508.01,327.139 1509.55,368.088 1511.08,386.194 1512.62,432.651 1514.15,342.649 1515.69,379.843 1517.22,391.889 1518.76,306.499 1520.3,315.626 1521.83,386.727 1523.37,486.631 1524.9,512.953 1526.44,472.24 1527.97,387.507 1529.51,530.112 1531.04,349.286 1532.58,531.696 1534.11,341.722 1535.65,337.134 1537.19,442.564 1538.72,333.166 1540.26,338.568 1541.79,348.509 1543.33,498.084 1544.86,338.614 1546.4,343.106 1547.93,340.537 1549.47,335.824 1551.01,339.82 1552.54,400.831 1554.08,398.983 1555.61,322.238 1557.15,360.11 1558.68,462.422 1560.22,507.548 1561.75,458.936 1563.29,440.877 1564.82,472.246 1566.36,494.66 1567.9,460.005 1569.43,306.121 1570.97,307.171 1572.5,491.534 1574.04,341.543 1575.57,340.754 1577.11,343.8 1578.64,350.084 1580.18,497.9 1581.71,425.074 1583.25,382.865 1584.79,426.637 1586.32,327.782 1587.86,327.368 1589.39,307.694 1590.93,334.366 1592.46,459.774 1594,386.833 1595.53,437.551 1597.07,496.036 1598.6,447 1600.14,401.344 1601.68,377.734 1603.21,418.785 1604.75,387.26 1606.28,391.049 1607.82,313.086 1609.35,324.891 1610.89,324.125 1612.42,327.643 1613.96,332.951 1615.5,337.63 1617.03,319.678 1618.57,375.474 1620.1,499.637 1621.64,377.614 1623.17,329.924 1624.71,342.703 1626.24,341.235 1627.78,339.781 1629.31,337.123 1630.85,312.722 1632.39,333.244 1633.92,311.981 1635.46,320.51 1636.99,325.745 1638.53,320.107 1640.06,408.864 1641.6,383.621 1643.13,474.378 1644.67,342.65 1646.2,321.539 1647.74,320.299 1649.28,337.261 1650.81,338.214 1652.35,366.95 1653.88,386.726 1655.42,407.704 1656.95,484.962 1658.49,334.036 1660.02,331.588 1661.56,322.308 1663.09,321.466 1664.63,341.101 1666.17,476.243 1667.7,315.643 1669.24,321.224 1670.77,323.49 1672.31,504.945 1673.84,500.906 1675.38,445.388 1676.91,474.55 1678.45,459.003 1679.98,478.381 1681.52,430.82 1683.06,358.456 1684.59,421.479 1686.13,329.159 1687.66,318.538 1689.2,372.568 1690.73,347.258 1692.27,364.049 1693.8,324.413 1695.34,333.73 1696.88,342.606 1698.41,315.175 1699.95,336.816 1701.48,441.883 1703.02,399.024 1704.55,445.889 1706.09,415.604 1707.62,327.528 1709.16,335.747 1710.69,339.485 1712.23,459.119 1713.77,319.359 1715.3,415.658 1716.84,480.74 1718.37,458.034 1719.91,307.939 1721.44,338.428 1722.98,335.077 1724.51,317.248 1726.05,372.581 1727.58,317.456 1729.12,333.3 1730.66,328.407 1732.19,317.278 1733.73,471.166 1735.26,423.115 1736.8,496.601 1738.33,319.495 1739.87,321.071 1741.4,470.953 1742.94,384.433 1744.47,322.888 1746.01,321.959 1747.55,320.434 1749.08,387.55 1750.62,354.125 1752.15,354.172 1753.69,365.272 1755.22,345.935 1756.76,476.243 1758.29,305.747 1759.83,428.901 1761.37,346.747 1762.9,324.932 1764.44,338.969 1765.97,440.987 1767.51,346.332 1769.04,328.1 1770.58,336.62 1772.11,480.847 1773.65,323.504 1775.18,450.26 1776.72,426.408 1778.26,372.665 1779.79,471.964 1781.33,453.767 1782.86,481.526 1784.4,329.006 1785.93,326.622 1787.47,333.853 1789,332.646 1790.54,335.077 1792.07,318.398 1793.61,332.283 1795.15,341.804 1796.68,522.038 1798.22,317.544 1799.75,328.521 1801.29,339.848 1802.82,418.688 1804.36,327.44 1805.89,327.197 1807.43,321.811 1808.96,315.255 1810.5,396.108 1812.04,491.891 1813.57,455.882 1815.11,514.46 1816.64,328.742 1818.18,423.922 1819.71,378.335 1821.25,328.222 1822.78,327.377 1824.32,316.432 1825.85,319.647 1827.39,431.868 1828.93,398.366 1830.46,426.95 1832,490.988 1833.53,335.777 1835.07,325.261 1836.6,330.242 1838.14,322.214 1839.67,329.425 1841.21,331.846 1842.75,320.042 1844.28,501.126 1845.82,495.612 1847.35,321.152 1848.89,453.785 1850.42,445.991 1851.96,431.807 1853.49,386.401 1855.03,431.229 1856.56,320.387 1858.1,364.553 1859.64,370.747 1861.17,461.087 1862.71,333.866 1864.24,456.565 1865.78,475.037 1867.31,338.16 1868.85,308.334 1870.38,456.109 1871.92,330.918 1873.45,396.231 1874.99,324.124 1876.53,338.376 1878.06,331.718 1879.6,334.61 1881.13,338.507 1882.67,324.651 1884.2,326.457 1885.74,304.909 1887.27,339.219 1888.81,337.061 1890.34,413.799 1891.88,371.82 1893.42,306.927 1894.95,368.773 1896.49,502.398 1898.02,328.15 1899.56,330.114 1901.09,518.433 1902.63,485.17 1904.16,508.674 1905.7,426.299 1907.24,381.674 1908.77,384.666 1910.31,316.642 1911.84,342.87 1913.38,348.971 1914.91,341.151 1916.45,519.744 1917.98,301.139 1919.52,372.059 1921.05,331.408 1922.59,311.051 1924.13,396.501 1925.66,380.945 1927.2,484.882 1928.73,443.297 1930.27,419.463 1931.8,436.113 1933.34,338.293 1934.87,410.451 1936.41,317.002 1937.94,305.664 1939.48,505.341 1941.02,368.614 1942.55,355.788 1944.09,406.625 1945.62,313.163 1947.16,309.298 1948.69,392.781 1950.23,329.61 1951.76,340.931 1953.3,461.182 1954.83,305.281 1956.37,495.46 1957.91,333.325 1959.44,428.113 1960.98,340.861 1962.51,408.592 1964.05,456.177 1965.58,340.613 1967.12,527.111 1968.65,356.656 1970.19,324.253 1971.72,325.279 1973.26,352.773 1974.8,464.137 1976.33,388.326 1977.87,408.248 1979.4,485.48 1980.94,356.843 1982.47,360.542 1984.01,476.258 1985.54,462.288 1987.08,413.947 1988.62,505.901 1990.15,370.446 1991.69,499.14 1993.22,488.75 1994.76,381.003 1996.29,315.461 1997.83,317.801 1999.36,322.212 2000.9,343.028 2002.43,332.561 2003.97,391.932 2005.51,517.304 2007.04,409.888 2008.58,345.703 2010.11,330.503 2011.65,337.306 2013.18,336.479 2014.72,328.684 2016.25,328.892 2017.79,424.552 2019.32,440.152 2020.86,419.283 2022.4,375.649 2023.93,451.907 2025.47,427.479 2027,324.392 2028.54,320.102 2030.07,487.157 2031.61,362.171 2033.14,333.85 2034.68,333.665 2036.21,314.112 2037.75,495.296 2039.29,343.473 2040.82,437.151 2042.36,342.166 2043.89,324.349 2045.43,329.986 2046.96,501.38 2048.5,455.157 2050.03,387.382 2051.57,345.934 2053.11,411.014 2054.64,309.265 2056.18,407.784 2057.71,442.201 2059.25,445.34 2060.78,519.444 2062.32,341.739 2063.85,322.193 2065.39,314.604 2066.92,326.14 2068.46,323.166 2070,322.045 2071.53,331.431 2073.07,367.547 2074.6,338.327 2076.14,337.008 2077.67,306.139 2079.21,336.988 2080.74,355.649 2082.28,489.858 2083.81,352.123 2085.35,322.433 2086.89,331.424 2088.42,336.031 2089.96,346.023 2091.49,354.53 2093.03,465.735 2094.56,365.627 2096.1,338.099 2097.63,347.355 2099.17,420.471 2100.7,336.636 2102.24,321.978 2103.78,392.391 2105.31,489.58 2106.85,325.547 2108.38,350.571 2109.92,324.325 2111.45,499.752 2112.99,324.893 2114.52,330.902 2116.06,324.825 2117.59,339.219 2119.13,346.242 2120.67,491.925 2122.2,341.405 2123.74,388.679 2125.27,399.606 2126.81,505.637 2128.34,302.412 2129.88,501.099 2131.41,459.386 2132.95,484.063 2134.49,383.319 2136.02,330.605 2137.56,326.339 2139.09,322.288 2140.63,311.209 2142.16,321.747 2143.7,322.581 2145.23,338.595 2146.77,332.157 2148.3,312.479 2149.84,316.763 2151.38,327.807 2152.91,331.111 2154.45,334.242 2155.98,315.142 2157.52,315.023 2159.05,318.287 2160.59,423.318 2162.12,345.113 2163.66,382.898 2165.19,318.077 2166.73,326.729 2168.27,338.549 2169.8,494.563 2171.34,430.423 2172.87,417.589 2174.41,378.159 2175.94,320.726 2177.48,454.434 2179.01,368.507 2180.55,339.193 2182.08,334.987 2183.62,325.277 2185.16,324.287 2186.69,317.852 2188.23,340.459 2189.76,346.217 2191.3,393.552 2192.83,344.024 2194.37,410.797 2195.9,341.34 2197.44,378.256 2198.97,356.243 2200.51,346.32 2202.05,340.368 2203.58,337.404 2205.12,449.734 2206.65,440.183 2208.19,327.304 2209.72,480.877 2211.26,402.025 2212.79,442.811 2214.33,329.646 2215.87,333.784 2217.4,350.424 2218.94,501.905 2220.47,319.551 2222.01,526.781 2223.54,356.393 2225.08,326.829 2226.61,513.376 2228.15,347.549 2229.68,318.594 2231.22,312.128 2232.76,309.969 2234.29,300.808 2235.83,334.056 2237.36,338.222 2238.9,319.494 2240.43,320.737 2241.97,325.756 2243.5,327.676 2245.04,318.53 2246.57,516.384 2248.11,466.329 2249.65,337.376 2251.18,507.127 2252.72,324.848 2254.25,438.883 2255.79,443.591 2257.32,332.868 2258.86,339.227 2260.39,468.176 2261.93,340.286 2263.46,327.562 2265,506.049 2266.54,504.835 2268.07,410.121 2269.61,464.094 2271.14,328.549 2272.68,305.324 2274.21,308.623 2275.75,330.064 2277.28,341.015 2278.82,333.883 2280.36,334.415 2281.89,318.033 2283.43,312.243 2284.96,394.81 2286.5,443.735 2288.03,471.541 2289.57,370.945 2291.1,329.399 2292.64,448.71 2294.17,336.502 2295.71,336.882 2297.25,327.342 2298.78,329.691 2300.32,325.113 2301.85,321.309 2303.39,319.979 2304.92,308.345 2306.46,319.13 2307.99,313.566 2309.53,313.396 2311.06,398.956 2312.6,523.927 2314.14,443.876 2315.67,396.928 2317.21,470.603 2318.74,400.997 2320.28,464.599 2321.81,320.315 2323.35,321.268 2324.88,337.627 2326.42,340.906 2327.95,334.866 2329.49,437.221 2331.03,326.532 2332.56,344.741 2334.1,342.398 2335.63,339.796 2337.17,504.112 2338.7,344.204 2340.24,346.281 2341.77,464.168 2343.31,394.593 2344.84,360.209 2346.38,370.451 2347.92,480.521 2349.45,326.371 2350.99,329.848 2352.52,469.393 2354.06,329.375 2355.59,467.155 2357.13,399.522 2358.66,467.441 2360.2,406.266 2361.74,326.017 2363.27,315.662 2364.81,379.756 2366.34,476.161 2367.88,366.149 2369.41,348.964 2370.95,453.132 2372.48,480.395 2374.02,393.65 2375.55,383.029 2377.09,489.85 2378.63,316.021 2380.16,312.523 2381.7,325.33 2383.23,325.321 2384.77,339.915 2386.3,338.743 2387.84,307.746 2389.37,338.95 2390.91,334.208 2392.44,316.638 2393.98,314.478 2395.52,315.306 2397.05,312.436 2398.59,378.328 2400.12,354.766 2401.66,477.638 2403.19,399.955 2404.73,336.433 2406.26,375.737 2407.8,319.477 2409.33,407.032 2410.87,443.518 2412.41,505.265 2413.94,328.86 2415.48,327.952 2417.01,326.528 2418.55,440.387 2420.08,344.151 2421.62,336.255 2423.15,338.438 2424.69,336.871 2426.23,400.449 2427.76,398.153 2429.3,352.442 2430.83,511.628 2432.37,336.178 2433.9,332.93 2435.44,347.847 2436.97,395.164 2438.51,330.132 2440.04,307.893 2441.58,496.357 2443.12,342.64 2444.65,337.341 2446.19,323.806 2447.72,329.166 2449.26,331.74 2450.79,336.143 2452.33,311.572 2453.86,419.698 2455.4,407.622 2456.93,352.191 2458.47,349.404 2460.01,348.931 2461.54,354.057 2463.08,382.477 2464.61,335.799 2466.15,326.324 2467.68,325.101 2469.22,513.285 2470.75,459.187 2472.29,516.456 2473.82,377.849 2475.36,458.047 2476.9,336.085 2478.43,489.972 2479.97,320.85 2481.5,345.056 2483.04,489.333 2484.57,505.175 2486.11,436.237 2487.64,338.66 2489.18,518.351 2490.71,501.663 2492.25,443.114 2493.79,342.511 2495.32,415.448 2496.86,323.879 2498.39,320.101 2499.93,331.188 2501.46,335.713 2503,423.066 2504.53,473.453 2506.07,329.07 2507.61,478.952 2509.14,357.517 2510.68,331.604 2512.21,326.367 2513.75,388.899 2515.28,405.891 2516.82,404.949 2518.35,484.654 2519.89,341.266 2521.42,322.749 2522.96,460.06 2524.5,466.212 2526.03,490.832 2527.57,346.355 2529.1,311.713 2530.64,316.331 2532.17,329.881 2533.71,320.529 2535.24,321.41 2536.78,315.538 2538.31,313.597 2539.85,448.186 2541.39,437.21 2542.92,512.295 2544.46,325.92 2545.99,331.902 2547.53,338.19 2549.06,314.607 2550.6,482.212 2552.13,412.387 2553.67,477.902 2555.2,354.012 2556.74,327.819 2558.28,319.046 2559.81,328.789 2561.35,329.104 2562.88,329.36 2564.42,331.95 2565.95,323.537 2567.49,338.917 2569.02,402.512 2570.56,523.845 2572.1,338.866 2573.63,325.709 2575.17,328.869 2576.7,318.024 2578.24,318.706 2579.77,322.158 2581.31,330.989 2582.84,321.936 2584.38,500.199 2585.91,409.154 2587.45,394.494 2588.99,311.492 2590.52,457.488 2592.06,365.941 2593.59,322.125 2595.13,324.328 2596.66,322.714 2598.2,411.46 2599.73,486.806 2601.27,415.402 2602.8,414.302 2604.34,494.963 2605.88,306.148 2607.41,329.555 2608.95,346.346 2610.48,344.263 2612.02,325.578 2613.55,459.014 2615.09,308.146 2616.62,330.712 2618.16,326.83 2619.69,355.392 2621.23,488.562 2622.77,354.363 2624.3,454.49 2625.84,510.631 2627.37,478.226 2628.91,328.836 2630.44,422.901 2631.98,324.603 2633.51,495.298 2635.05,468.069 2636.58,319.345 2638.12,323.713 2639.66,325.591 2641.19,316.489 2642.73,311.015 2644.26,316.002 2645.8,323.02 2647.33,328.91 2648.87,324.946 2650.4,336.921 2651.94,338.357 2653.48,518.583 2655.01,455.152 2656.55,332.131 2658.08,312.795 2659.62,315.229 2661.15,311.31 2662.69,392.856 2664.22,472.089 2665.76,330.594 2667.29,434.626 2668.83,495.614 2670.37,345.175 2671.9,340.273 2673.44,339.73 2674.97,341.488 2676.51,405.871 2678.04,444.806 2679.58,500.759 2681.11,539.308 2682.65,345.172 2684.18,330.255 2685.72,420.661 2687.26,425.771 2688.79,514.379 2690.33,475.202 2691.86,357.314 2693.4,375.821 2694.93,386.463 2696.47,433.22 2698,342.969 2699.54,510.145 2701.07,440.362 2702.61,307.065 2704.15,301.513 2705.68,459.421 2707.22,348.569 2708.75,402.745 2710.29,334.856 2711.82,329.192 2713.36,351.951 2714.89,327.529 2716.43,353.652 2717.97,378.869 2719.5,314.453 2721.04,339.331 2722.57,338.06 2724.11,396.774 2725.64,332.155 2727.18,338.068 2728.71,317.258 2730.25,323.246 2731.78,325.441 2733.32,335.12 2734.86,520.567 2736.39,341.256 2737.93,340.155 2739.46,336.548 2741,317.777 2742.53,338.043 2744.07,331.114 2745.6,438.998 2747.14,446.008 2748.67,476.602 2750.21,399.335 2751.75,480.529 2753.28,457.812 2754.82,308.589 2756.35,323.741 2757.89,429.418 2759.42,344.348 2760.96,324.163 2762.49,334.344 2764.03,341.915 2765.56,500.571 2767.1,312.411 2768.64,311.404 2770.17,332.966 2771.71,317.403 2773.24,338.227 2774.78,345.378 2776.31,344.035 2777.85,348.636 2779.38,534.296 2780.92,511.912 2782.45,313.745 2783.99,464.089 2785.53,338.61 2787.06,325.188 2788.6,332.403 2790.13,312.68 2791.67,315.521 2793.2,308.242 2794.74,304.668 2796.27,338.177 2797.81,330.468 2799.35,327.537 2800.88,328.999 2802.42,519.967 2803.95,395.795 2805.49,345.262 2807.02,297.471 2808.56,501.091 2810.09,342.743 2811.63,523.451 2813.16,514.357 2814.7,342.373 2816.24,406.63 2817.77,441.574 2819.31,322.916 2820.84,321.845 2822.38,339.976 2823.91,522.631 2825.45,336.604 2826.98,303.629 2828.52,328.9 2830.05,338.551 2831.59,319.74 2833.13,320.53 2834.66,326.005 2836.2,329.593 2837.73,339.003 2839.27,338.817 2840.8,474.159 2842.34,483.62 2843.87,506.488 2845.41,311.802 2846.94,458.099 2848.48,462.274 2850.02,431.78 2851.55,410.843 2853.09,318.118 2854.62,462.025 2856.16,510.006 2857.69,482.548 2859.23,512.608 2860.76,484.01 2862.3,359.232 2863.84,397.784 2865.37,508.809 2866.91,333.879 2868.44,332.477 2869.98,337.783 2871.51,318.992 2873.05,373.284 2874.58,336.354 2876.12,480.326 2877.65,435.322 2879.19,455.219 2880.73,297.86 2882.26,483.039 2883.8,409.422 2885.33,322.698 2886.87,332.893 2888.4,339.851 2889.94,356.799 2891.47,400.989 2893.01,320.654 2894.54,321.982 2896.08,307.25 2897.62,376.874 2899.15,347.195 2900.69,365.839 2902.22,319.909 2903.76,334.035 2905.29,488.945 2906.83,336.13 2908.36,338.324 2909.9,328.358 2911.43,333.328 2912.97,332.291 2914.51,437.14 2916.04,481.787 2917.58,449.129 2919.11,344.333 2920.65,391.718 2922.18,326.905 2923.72,327.829 2925.25,317.901 2926.79,327.798 2928.32,336.492 2929.86,330.647 2931.4,330.885 2932.93,325.917 2934.47,330.285 2936,335.857 2937.54,313.518 2939.07,324.863 2940.61,333.952 2942.14,340.57 2943.68,337.445 2945.22,331.25 2946.75,311.232 2948.29,317.499 2949.82,335.767 2951.36,348.059 2952.89,341.969 2954.43,340.081 2955.96,394.478 2957.5,345.239 2959.03,446.298 2960.57,311.242 2962.11,399.517 2963.64,377.666 2965.18,348.056 2966.71,331.026 2968.25,321.024 2969.78,329.886 2971.32,331.163 2972.85,335.28 2974.39,389.865 2975.92,387.822 2977.46,309.99 2979,316.873 2980.53,338.083 2982.07,334.973 2983.6,330.979 2985.14,378.511 2986.67,517.602 2988.21,310.828 2989.74,400.893 2991.28,406.209 2992.81,325.885 2994.35,326.94 2995.89,314.595 2997.42,319.956 2998.96,316.848 3000.49,320.752 3002.03,328.342 3003.56,324.085 3005.1,331.181 3006.63,330.074 3008.17,324.025 3009.7,331.303 3011.24,317.645 3012.78,310.163 3014.31,331.284 3015.85,355.464 3017.38,322.598 3018.92,318.709 3020.45,315.278 3021.99,311.379 3023.52,321.149 3025.06,318.864 3026.6,341.427 3028.13,343.812 3029.67,320.933 3031.2,335.039 3032.74,357.671 3034.27,325.29 3035.81,320.424 3037.34,322.864 3038.88,331.169 3040.41,331.256 3041.95,324.94 3043.49,326.122 3045.02,322.139 3046.56,317.868 3048.09,400.849 3049.63,339.702 3051.16,362.691 3052.7,320.291 3054.23,531.099 3055.77,331.427 3057.3,526.415 3058.84,508.454 3060.38,491.769 3061.91,462.14 3063.45,347.656 3064.98,330.643 3066.52,330.92 3068.05,331.204 3069.59,351.007 3071.12,380.547 3072.66,416.58 3074.19,449.081 3075.73,390.072 3077.27,342.903 3078.8,323.484 3080.34,318.319 3081.87,330.656 3083.41,329.913 3084.94,329.991 3086.48,390.675 3088.01,472.779 3089.55,492.013 3091.09,445.834 3092.62,416.321 3094.16,346.464 3095.69,484.882 3097.23,413.194 3098.76,406.157 3100.3,313.225 3101.83,326.675 3103.37,384.182 3104.9,353.123 3106.44,454.819 3107.98,413.943 3109.51,506.228 3111.05,438.548 3112.58,370.956 3114.12,500.85 3115.65,418.396 3117.19,432.629 3118.72,342.195 3120.26,369.544 3121.79,340.169 3123.33,336.119 3124.87,343.227 3126.4,320.735 3127.94,338.035 3129.47,345.798 3131.01,451.346 3132.54,327.525 3134.08,308.82 3135.61,308.49 3137.15,519.162 3138.68,361.703 3140.22,325.787 3141.76,512.285 3143.29,465.49 3144.83,401.451 3146.36,426.451 3147.9,380.124 3149.43,360.82 3150.97,425.532 3152.5,421.625 3154.04,305.789 3155.57,458.007 3157.11,516.542 3158.65,337.557 3160.18,317.566 3161.72,442.783 3163.25,491.332 3164.79,341.082 3166.32,334.529 3167.86,332.632 3169.39,518.935 3170.93,493 3172.47,458.08 3174,450.961 3175.54,499.984 3177.07,418.355 3178.61,518.343 3180.14,359.495 3181.68,434.594 3183.21,317.831 3184.75,434.093 3186.28,379.195 3187.82,306.61 3189.36,411.113 3190.89,405.914 3192.43,400.584 3193.96,434.991 3195.5,474.289 3197.03,426.673 3198.57,341.452 3200.1,364.962 3201.64,385.136 3203.17,349.445 3204.71,318.462 3206.25,314.859 3207.78,316.534 3209.32,319.012 3210.85,347.269 3212.39,522.92 3213.92,422.238 3215.46,403.87 3216.99,353.679 3218.53,319.807 3220.06,330.937 3221.6,318.009 3223.14,330.715 3224.67,325.77 3226.21,332.127 3227.74,387.674 3229.28,334.577 3230.81,481.911 3232.35,367.836 3233.88,329.942 3235.42,336.835 3236.96,307.918 3238.49,458.368 3240.03,421.883 3241.56,338.281 3243.1,409.386 3244.63,391.768 3246.17,503.261 3247.7,504.425 3249.24,396.192 3250.77,373.862 3252.31,353.408 3253.85,332.659 3255.38,340.239 3256.92,482.923 3258.45,466.178 3259.99,388.412 3261.52,375.725 3263.06,442.28 3264.59,472.316 3266.13,335.545 3267.66,325.942 3269.2,329.096 3270.74,321.016 3272.27,333.332 3273.81,313.015 3275.34,313.853 3276.88,392.395 3278.41,471.477 3279.95,474.59 3281.48,414.058 3283.02,469.603 3284.55,337.61 3286.09,499.752 3287.63,340.126 3289.16,344.515 3290.7,322.516 3292.23,313.466 3293.77,313.769 3295.3,314.931 3296.84,385.209 3298.37,445.465 3299.91,331.104 3301.44,321.858 3302.98,498.079 3304.52,447.297 3306.05,304.935 3307.59,332.807 3309.12,353.725 3310.66,462.527 3312.19,488.756 3313.73,349.695 3315.26,381.13 3316.8,463.344 3318.34,329.517 3319.87,330.483 3321.41,324.32 3322.94,316.212 3324.48,321.301 3326.01,318.089 3327.55,309.877 3329.08,311.461 3330.62,498.808 3332.15,341.423 3333.69,314.263 3335.23,312.659 3336.76,315.041 3338.3,310.791 3339.83,328.949 3341.37,328.004 3342.9,316.879 3344.44,319.327 3345.97,323.786 3347.51,316.802 3349.04,510.688 3350.58,334.368 3352.12,332.612 3353.65,338.376 3355.19,334.987 3356.72,508.239 3358.26,339.218 3359.79,405.447 3361.33,473.695 3362.86,460.132 3364.4,358.501 3365.93,494.635 3367.47,322.035 3369.01,341.954 3370.54,339.763 3372.08,332.157 3373.61,332.905 3375.15,446.088 3376.68,421.63 3378.22,390.142 3379.75,361.628 3381.29,329.493 3382.83,325.036 3384.36,341.944 3385.9,515.161 3387.43,463.993 3388.97,344.461 3390.5,314.257 3392.04,329.49 3393.57,327.114 3395.11,343.684 3396.64,338.285 3398.18,324.401 3399.72,320.626 3401.25,344.08 3402.79,338.857 3404.32,322.976 3405.86,325.112 3407.39,320.477 3408.93,323.754 3410.46,335.438 3412,333.242 3413.53,322.804 3415.07,494.554 3416.61,407.158 3418.14,327.588 3419.68,329.601 3421.21,402.805 3422.75,490.704 3424.28,387.681 3425.82,361.151 3427.35,302.769 3428.89,301.935 3430.42,384.879 3431.96,452.273 3433.5,466.551 3435.03,449.613 3436.57,418.982 3438.1,372.922 3439.64,344.803 3441.17,341.984 3442.71,465.31 3444.24,323.235 3445.78,313.815 3447.31,320.398 3448.85,495.001 3450.39,298.536 3451.92,381.155 3453.46,364.522 3454.99,421.81 3456.53,320.648 "/>
<path clip-path="url(#clip680)" d="M2996.98 166.762 L3439.42 166.762 L3439.42 63.0816 L2996.98 63.0816  Z" fill="#ffffff" fill-rule="evenodd" fill-opacity="1"/>
<polyline clip-path="url(#clip680)" style="stroke:#000000; stroke-linecap:round; stroke-linejoin:round; stroke-width:4; stroke-opacity:1; fill:none" points="2996.98,166.762 3439.42,166.762 3439.42,63.0816 2996.98,63.0816 2996.98,166.762 "/>
<polyline clip-path="url(#clip680)" style="stroke:#009af9; stroke-linecap:round; stroke-linejoin:round; stroke-width:2; stroke-opacity:1; fill:none" points="3034.76,114.922 3261.43,114.922 "/>
<path clip-path="url(#clip680)" d="M3299.21 97.6416 L3303.89 97.6416 L3303.89 111.808 L3320.88 111.808 L3320.88 97.6416 L3325.55 97.6416 L3325.55 132.202 L3320.88 132.202 L3320.88 115.743 L3303.89 115.743 L3303.89 132.202 L3299.21 132.202 L3299.21 97.6416 Z" fill="#000000" fill-rule="evenodd" fill-opacity="1" /><path clip-path="url(#clip680)" d="M3334.86 97.6416 L3341.83 97.6416 L3350.65 121.16 L3359.51 97.6416 L3366.48 97.6416 L3366.48 132.202 L3361.92 132.202 L3361.92 101.854 L3353.01 125.558 L3348.31 125.558 L3339.4 101.854 L3339.4 132.202 L3334.86 132.202 L3334.86 97.6416 Z" fill="#000000" fill-rule="evenodd" fill-opacity="1" /><path clip-path="url(#clip680)" d="M3401.64 100.304 L3401.64 105.234 Q3399.28 103.035 3396.6 101.947 Q3393.93 100.859 3390.92 100.859 Q3385 100.859 3381.85 104.493 Q3378.7 108.104 3378.7 114.956 Q3378.7 121.785 3381.85 125.419 Q3385 129.03 3390.92 129.03 Q3393.93 129.03 3396.6 127.942 Q3399.28 126.854 3401.64 124.655 L3401.64 129.54 Q3399.19 131.206 3396.43 132.04 Q3393.7 132.873 3390.65 132.873 Q3382.8 132.873 3378.29 128.081 Q3373.77 123.266 3373.77 114.956 Q3373.77 106.623 3378.29 101.831 Q3382.8 97.0166 3390.65 97.0166 Q3393.75 97.0166 3396.48 97.8499 Q3399.23 98.6601 3401.64 100.304 Z" fill="#000000" fill-rule="evenodd" fill-opacity="1" /></svg>
