<?xml version="1.0" encoding="utf-8"?>
<svg xmlns="http://www.w3.org/2000/svg" xmlns:xlink="http://www.w3.org/1999/xlink" width="900" height="150" viewBox="0 0 3600 600">
<defs>
  <clipPath id="clip430">
    <rect x="0" y="0" width="3600" height="600"/>
  </clipPath>
</defs>
<path clip-path="url(#clip430)" d="M0 600 L3600 600 L3600 0 L0 0  Z" fill="#ffffff" fill-rule="evenodd" fill-opacity="1"/>
<defs>
  <clipPath id="clip431">
    <rect x="720" y="0" width="2521" height="600"/>
  </clipPath>
</defs>
<path clip-path="url(#clip430)" d="M152.696 522.368 L3552.76 522.368 L3552.76 47.2441 L152.696 47.2441  Z" fill="#ffffff" fill-rule="evenodd" fill-opacity="1"/>
<defs>
  <clipPath id="clip432">
    <rect x="152" y="47" width="3401" height="476"/>
  </clipPath>
</defs>
<polyline clip-path="url(#clip432)" style="stroke:#000000; stroke-linecap:round; stroke-linejoin:round; stroke-width:2; stroke-opacity:0.1; fill:none" points="247.428,522.368 247.428,47.2441 "/>
<polyline clip-path="url(#clip432)" style="stroke:#000000; stroke-linecap:round; stroke-linejoin:round; stroke-width:2; stroke-opacity:0.1; fill:none" points="995.47,522.368 995.47,47.2441 "/>
<polyline clip-path="url(#clip432)" style="stroke:#000000; stroke-linecap:round; stroke-linejoin:round; stroke-width:2; stroke-opacity:0.1; fill:none" points="1743.51,522.368 1743.51,47.2441 "/>
<polyline clip-path="url(#clip432)" style="stroke:#000000; stroke-linecap:round; stroke-linejoin:round; stroke-width:2; stroke-opacity:0.1; fill:none" points="2491.55,522.368 2491.55,47.2441 "/>
<polyline clip-path="url(#clip432)" style="stroke:#000000; stroke-linecap:round; stroke-linejoin:round; stroke-width:2; stroke-opacity:0.1; fill:none" points="3239.6,522.368 3239.6,47.2441 "/>
<polyline clip-path="url(#clip430)" style="stroke:#000000; stroke-linecap:round; stroke-linejoin:round; stroke-width:4; stroke-opacity:1; fill:none" points="152.696,522.368 3552.76,522.368 "/>
<polyline clip-path="url(#clip430)" style="stroke:#000000; stroke-linecap:round; stroke-linejoin:round; stroke-width:4; stroke-opacity:1; fill:none" points="247.428,522.368 247.428,503.47 "/>
<polyline clip-path="url(#clip430)" style="stroke:#000000; stroke-linecap:round; stroke-linejoin:round; stroke-width:4; stroke-opacity:1; fill:none" points="995.47,522.368 995.47,503.47 "/>
<polyline clip-path="url(#clip430)" style="stroke:#000000; stroke-linecap:round; stroke-linejoin:round; stroke-width:4; stroke-opacity:1; fill:none" points="1743.51,522.368 1743.51,503.47 "/>
<polyline clip-path="url(#clip430)" style="stroke:#000000; stroke-linecap:round; stroke-linejoin:round; stroke-width:4; stroke-opacity:1; fill:none" points="2491.55,522.368 2491.55,503.47 "/>
<polyline clip-path="url(#clip430)" style="stroke:#000000; stroke-linecap:round; stroke-linejoin:round; stroke-width:4; stroke-opacity:1; fill:none" points="3239.6,522.368 3239.6,503.47 "/>
<path clip-path="url(#clip430)" d="M247.428 562.887 Q243.816 562.887 241.988 566.451 Q240.182 569.993 240.182 577.123 Q240.182 584.229 241.988 587.794 Q243.816 591.335 247.428 591.335 Q251.062 591.335 252.867 587.794 Q254.696 584.229 254.696 577.123 Q254.696 569.993 252.867 566.451 Q251.062 562.887 247.428 562.887 M247.428 559.183 Q253.238 559.183 256.293 563.789 Q259.372 568.373 259.372 577.123 Q259.372 585.849 256.293 590.456 Q253.238 595.039 247.428 595.039 Q241.617 595.039 238.539 590.456 Q235.483 585.849 235.483 577.123 Q235.483 568.373 238.539 563.789 Q241.617 559.183 247.428 559.183 Z" fill="#000000" fill-rule="evenodd" fill-opacity="1" /><path clip-path="url(#clip430)" d="M955.088 559.808 L973.444 559.808 L973.444 563.743 L959.37 563.743 L959.37 572.215 Q960.389 571.868 961.407 571.706 Q962.426 571.521 963.444 571.521 Q969.231 571.521 972.611 574.692 Q975.991 577.863 975.991 583.28 Q975.991 588.859 972.518 591.96 Q969.046 595.039 962.727 595.039 Q960.551 595.039 958.282 594.669 Q956.037 594.298 953.63 593.558 L953.63 588.859 Q955.713 589.993 957.935 590.548 Q960.157 591.104 962.634 591.104 Q966.639 591.104 968.977 588.998 Q971.315 586.891 971.315 583.28 Q971.315 579.669 968.977 577.562 Q966.639 575.456 962.634 575.456 Q960.759 575.456 958.884 575.873 Q957.032 576.289 955.088 577.169 L955.088 559.808 Z" fill="#000000" fill-rule="evenodd" fill-opacity="1" /><path clip-path="url(#clip430)" d="M995.203 562.887 Q991.592 562.887 989.764 566.451 Q987.958 569.993 987.958 577.123 Q987.958 584.229 989.764 587.794 Q991.592 591.335 995.203 591.335 Q998.838 591.335 1000.64 587.794 Q1002.47 584.229 1002.47 577.123 Q1002.47 569.993 1000.64 566.451 Q998.838 562.887 995.203 562.887 M995.203 559.183 Q1001.01 559.183 1004.07 563.789 Q1007.15 568.373 1007.15 577.123 Q1007.15 585.849 1004.07 590.456 Q1001.01 595.039 995.203 595.039 Q989.393 595.039 986.315 590.456 Q983.259 585.849 983.259 577.123 Q983.259 568.373 986.315 563.789 Q989.393 559.183 995.203 559.183 Z" fill="#000000" fill-rule="evenodd" fill-opacity="1" /><path clip-path="url(#clip430)" d="M1025.37 562.887 Q1021.75 562.887 1019.93 566.451 Q1018.12 569.993 1018.12 577.123 Q1018.12 584.229 1019.93 587.794 Q1021.75 591.335 1025.37 591.335 Q1029 591.335 1030.81 587.794 Q1032.63 584.229 1032.63 577.123 Q1032.63 569.993 1030.81 566.451 Q1029 562.887 1025.37 562.887 M1025.37 559.183 Q1031.18 559.183 1034.23 563.789 Q1037.31 568.373 1037.31 577.123 Q1037.31 585.849 1034.23 590.456 Q1031.18 595.039 1025.37 595.039 Q1019.56 595.039 1016.48 590.456 Q1013.42 585.849 1013.42 577.123 Q1013.42 568.373 1016.48 563.789 Q1019.56 559.183 1025.37 559.183 Z" fill="#000000" fill-rule="evenodd" fill-opacity="1" /><path clip-path="url(#clip430)" d="M1688.04 590.433 L1695.68 590.433 L1695.68 564.067 L1687.37 565.734 L1687.37 561.475 L1695.63 559.808 L1700.31 559.808 L1700.31 590.433 L1707.94 590.433 L1707.94 594.368 L1688.04 594.368 L1688.04 590.433 Z" fill="#000000" fill-rule="evenodd" fill-opacity="1" /><path clip-path="url(#clip430)" d="M1727.39 562.887 Q1723.78 562.887 1721.95 566.451 Q1720.14 569.993 1720.14 577.123 Q1720.14 584.229 1721.95 587.794 Q1723.78 591.335 1727.39 591.335 Q1731.02 591.335 1732.83 587.794 Q1734.66 584.229 1734.66 577.123 Q1734.66 569.993 1732.83 566.451 Q1731.02 562.887 1727.39 562.887 M1727.39 559.183 Q1733.2 559.183 1736.25 563.789 Q1739.33 568.373 1739.33 577.123 Q1739.33 585.849 1736.25 590.456 Q1733.2 595.039 1727.39 595.039 Q1721.58 595.039 1718.5 590.456 Q1715.44 585.849 1715.44 577.123 Q1715.44 568.373 1718.5 563.789 Q1721.58 559.183 1727.39 559.183 Z" fill="#000000" fill-rule="evenodd" fill-opacity="1" /><path clip-path="url(#clip430)" d="M1757.55 562.887 Q1753.94 562.887 1752.11 566.451 Q1750.31 569.993 1750.31 577.123 Q1750.31 584.229 1752.11 587.794 Q1753.94 591.335 1757.55 591.335 Q1761.19 591.335 1762.99 587.794 Q1764.82 584.229 1764.82 577.123 Q1764.82 569.993 1762.99 566.451 Q1761.19 562.887 1757.55 562.887 M1757.55 559.183 Q1763.36 559.183 1766.42 563.789 Q1769.5 568.373 1769.5 577.123 Q1769.5 585.849 1766.42 590.456 Q1763.36 595.039 1757.55 595.039 Q1751.74 595.039 1748.66 590.456 Q1745.61 585.849 1745.61 577.123 Q1745.61 568.373 1748.66 563.789 Q1751.74 559.183 1757.55 559.183 Z" fill="#000000" fill-rule="evenodd" fill-opacity="1" /><path clip-path="url(#clip430)" d="M1787.71 562.887 Q1784.1 562.887 1782.27 566.451 Q1780.47 569.993 1780.47 577.123 Q1780.47 584.229 1782.27 587.794 Q1784.1 591.335 1787.71 591.335 Q1791.35 591.335 1793.15 587.794 Q1794.98 584.229 1794.98 577.123 Q1794.98 569.993 1793.15 566.451 Q1791.35 562.887 1787.71 562.887 M1787.71 559.183 Q1793.52 559.183 1796.58 563.789 Q1799.66 568.373 1799.66 577.123 Q1799.66 585.849 1796.58 590.456 Q1793.52 595.039 1787.71 595.039 Q1781.9 595.039 1778.82 590.456 Q1775.77 585.849 1775.77 577.123 Q1775.77 568.373 1778.82 563.789 Q1781.9 559.183 1787.71 559.183 Z" fill="#000000" fill-rule="evenodd" fill-opacity="1" /><path clip-path="url(#clip430)" d="M2436.08 590.433 L2443.72 590.433 L2443.72 564.067 L2435.41 565.734 L2435.41 561.475 L2443.67 559.808 L2448.35 559.808 L2448.35 590.433 L2455.99 590.433 L2455.99 594.368 L2436.08 594.368 L2436.08 590.433 Z" fill="#000000" fill-rule="evenodd" fill-opacity="1" /><path clip-path="url(#clip430)" d="M2465.48 559.808 L2483.83 559.808 L2483.83 563.743 L2469.76 563.743 L2469.76 572.215 Q2470.78 571.868 2471.8 571.706 Q2472.82 571.521 2473.83 571.521 Q2479.62 571.521 2483 574.692 Q2486.38 577.863 2486.38 583.28 Q2486.38 588.859 2482.91 591.96 Q2479.44 595.039 2473.12 595.039 Q2470.94 595.039 2468.67 594.669 Q2466.43 594.298 2464.02 593.558 L2464.02 588.859 Q2466.1 589.993 2468.32 590.548 Q2470.55 591.104 2473.02 591.104 Q2477.03 591.104 2479.37 588.998 Q2481.7 586.891 2481.7 583.28 Q2481.7 579.669 2479.37 577.562 Q2477.03 575.456 2473.02 575.456 Q2471.15 575.456 2469.27 575.873 Q2467.42 576.289 2465.48 577.169 L2465.48 559.808 Z" fill="#000000" fill-rule="evenodd" fill-opacity="1" /><path clip-path="url(#clip430)" d="M2505.59 562.887 Q2501.98 562.887 2500.15 566.451 Q2498.35 569.993 2498.35 577.123 Q2498.35 584.229 2500.15 587.794 Q2501.98 591.335 2505.59 591.335 Q2509.23 591.335 2511.03 587.794 Q2512.86 584.229 2512.86 577.123 Q2512.86 569.993 2511.03 566.451 Q2509.23 562.887 2505.59 562.887 M2505.59 559.183 Q2511.4 559.183 2514.46 563.789 Q2517.54 568.373 2517.54 577.123 Q2517.54 585.849 2514.46 590.456 Q2511.4 595.039 2505.59 595.039 Q2499.78 595.039 2496.7 590.456 Q2493.65 585.849 2493.65 577.123 Q2493.65 568.373 2496.7 563.789 Q2499.78 559.183 2505.59 559.183 Z" fill="#000000" fill-rule="evenodd" fill-opacity="1" /><path clip-path="url(#clip430)" d="M2535.75 562.887 Q2532.14 562.887 2530.31 566.451 Q2528.51 569.993 2528.51 577.123 Q2528.51 584.229 2530.31 587.794 Q2532.14 591.335 2535.75 591.335 Q2539.39 591.335 2541.19 587.794 Q2543.02 584.229 2543.02 577.123 Q2543.02 569.993 2541.19 566.451 Q2539.39 562.887 2535.75 562.887 M2535.75 559.183 Q2541.56 559.183 2544.62 563.789 Q2547.7 568.373 2547.7 577.123 Q2547.7 585.849 2544.62 590.456 Q2541.56 595.039 2535.75 595.039 Q2529.94 595.039 2526.87 590.456 Q2523.81 585.849 2523.81 577.123 Q2523.81 568.373 2526.87 563.789 Q2529.94 559.183 2535.75 559.183 Z" fill="#000000" fill-rule="evenodd" fill-opacity="1" /><path clip-path="url(#clip430)" d="M3188.21 590.433 L3204.53 590.433 L3204.53 594.368 L3182.58 594.368 L3182.58 590.433 Q3185.24 587.678 3189.83 583.048 Q3194.43 578.396 3195.61 577.053 Q3197.86 574.53 3198.74 572.794 Q3199.64 571.035 3199.64 569.345 Q3199.64 566.59 3197.7 564.854 Q3195.78 563.118 3192.67 563.118 Q3190.48 563.118 3188.02 563.882 Q3185.59 564.646 3182.81 566.197 L3182.81 561.475 Q3185.64 560.34 3188.09 559.762 Q3190.54 559.183 3192.58 559.183 Q3197.95 559.183 3201.15 561.868 Q3204.34 564.553 3204.34 569.044 Q3204.34 571.174 3203.53 573.095 Q3202.74 574.993 3200.64 577.586 Q3200.06 578.257 3196.96 581.474 Q3193.86 584.669 3188.21 590.433 Z" fill="#000000" fill-rule="evenodd" fill-opacity="1" /><path clip-path="url(#clip430)" d="M3224.34 562.887 Q3220.73 562.887 3218.9 566.451 Q3217.1 569.993 3217.1 577.123 Q3217.1 584.229 3218.9 587.794 Q3220.73 591.335 3224.34 591.335 Q3227.98 591.335 3229.78 587.794 Q3231.61 584.229 3231.61 577.123 Q3231.61 569.993 3229.78 566.451 Q3227.98 562.887 3224.34 562.887 M3224.34 559.183 Q3230.15 559.183 3233.21 563.789 Q3236.29 568.373 3236.29 577.123 Q3236.29 585.849 3233.21 590.456 Q3230.15 595.039 3224.34 595.039 Q3218.53 595.039 3215.45 590.456 Q3212.4 585.849 3212.4 577.123 Q3212.4 568.373 3215.45 563.789 Q3218.53 559.183 3224.34 559.183 Z" fill="#000000" fill-rule="evenodd" fill-opacity="1" /><path clip-path="url(#clip430)" d="M3254.5 562.887 Q3250.89 562.887 3249.06 566.451 Q3247.26 569.993 3247.26 577.123 Q3247.26 584.229 3249.06 587.794 Q3250.89 591.335 3254.5 591.335 Q3258.14 591.335 3259.94 587.794 Q3261.77 584.229 3261.77 577.123 Q3261.77 569.993 3259.94 566.451 Q3258.14 562.887 3254.5 562.887 M3254.5 559.183 Q3260.31 559.183 3263.37 563.789 Q3266.45 568.373 3266.45 577.123 Q3266.45 585.849 3263.37 590.456 Q3260.31 595.039 3254.5 595.039 Q3248.69 595.039 3245.61 590.456 Q3242.56 585.849 3242.56 577.123 Q3242.56 568.373 3245.61 563.789 Q3248.69 559.183 3254.5 559.183 Z" fill="#000000" fill-rule="evenodd" fill-opacity="1" /><path clip-path="url(#clip430)" d="M3284.66 562.887 Q3281.05 562.887 3279.23 566.451 Q3277.42 569.993 3277.42 577.123 Q3277.42 584.229 3279.23 587.794 Q3281.05 591.335 3284.66 591.335 Q3288.3 591.335 3290.1 587.794 Q3291.93 584.229 3291.93 577.123 Q3291.93 569.993 3290.1 566.451 Q3288.3 562.887 3284.66 562.887 M3284.66 559.183 Q3290.47 559.183 3293.53 563.789 Q3296.61 568.373 3296.61 577.123 Q3296.61 585.849 3293.53 590.456 Q3290.47 595.039 3284.66 595.039 Q3278.85 595.039 3275.78 590.456 Q3272.72 585.849 3272.72 577.123 Q3272.72 568.373 3275.78 563.789 Q3278.85 559.183 3284.66 559.183 Z" fill="#000000" fill-rule="evenodd" fill-opacity="1" /><polyline clip-path="url(#clip432)" style="stroke:#000000; stroke-linecap:round; stroke-linejoin:round; stroke-width:2; stroke-opacity:0.1; fill:none" points="152.696,449.645 3552.76,449.645 "/>
<polyline clip-path="url(#clip432)" style="stroke:#000000; stroke-linecap:round; stroke-linejoin:round; stroke-width:2; stroke-opacity:0.1; fill:none" points="152.696,328.44 3552.76,328.44 "/>
<polyline clip-path="url(#clip432)" style="stroke:#000000; stroke-linecap:round; stroke-linejoin:round; stroke-width:2; stroke-opacity:0.1; fill:none" points="152.696,207.235 3552.76,207.235 "/>
<polyline clip-path="url(#clip432)" style="stroke:#000000; stroke-linecap:round; stroke-linejoin:round; stroke-width:2; stroke-opacity:0.1; fill:none" points="152.696,86.0297 3552.76,86.0297 "/>
<polyline clip-path="url(#clip430)" style="stroke:#000000; stroke-linecap:round; stroke-linejoin:round; stroke-width:4; stroke-opacity:1; fill:none" points="152.696,522.368 152.696,47.2441 "/>
<polyline clip-path="url(#clip430)" style="stroke:#000000; stroke-linecap:round; stroke-linejoin:round; stroke-width:4; stroke-opacity:1; fill:none" points="152.696,449.645 171.593,449.645 "/>
<polyline clip-path="url(#clip430)" style="stroke:#000000; stroke-linecap:round; stroke-linejoin:round; stroke-width:4; stroke-opacity:1; fill:none" points="152.696,328.44 171.593,328.44 "/>
<polyline clip-path="url(#clip430)" style="stroke:#000000; stroke-linecap:round; stroke-linejoin:round; stroke-width:4; stroke-opacity:1; fill:none" points="152.696,207.235 171.593,207.235 "/>
<polyline clip-path="url(#clip430)" style="stroke:#000000; stroke-linecap:round; stroke-linejoin:round; stroke-width:4; stroke-opacity:1; fill:none" points="152.696,86.0297 171.593,86.0297 "/>
<path clip-path="url(#clip430)" d="M77.7929 432.365 L96.1493 432.365 L96.1493 436.3 L82.0753 436.3 L82.0753 444.772 Q83.0938 444.425 84.1123 444.263 Q85.1308 444.078 86.1493 444.078 Q91.9363 444.078 95.3159 447.249 Q98.6955 450.42 98.6955 455.837 Q98.6955 461.416 95.2233 464.517 Q91.7511 467.596 85.4317 467.596 Q83.2558 467.596 80.9873 467.226 Q78.7419 466.855 76.3346 466.115 L76.3346 461.416 Q78.4179 462.55 80.6401 463.105 Q82.8623 463.661 85.3391 463.661 Q89.3437 463.661 91.6817 461.555 Q94.0196 459.448 94.0196 455.837 Q94.0196 452.226 91.6817 450.119 Q89.3437 448.013 85.3391 448.013 Q83.4641 448.013 81.5892 448.43 Q79.7373 448.846 77.7929 449.726 L77.7929 432.365 Z" fill="#000000" fill-rule="evenodd" fill-opacity="1" /><path clip-path="url(#clip430)" d="M47.3995 341.785 L55.0384 341.785 L55.0384 315.419 L46.7282 317.086 L46.7282 312.826 L54.9921 311.16 L59.668 311.16 L59.668 341.785 L67.3068 341.785 L67.3068 345.72 L47.3995 345.72 L47.3995 341.785 Z" fill="#000000" fill-rule="evenodd" fill-opacity="1" /><path clip-path="url(#clip430)" d="M86.7512 314.238 Q83.1401 314.238 81.3114 317.803 Q79.5058 321.345 79.5058 328.475 Q79.5058 335.581 81.3114 339.146 Q83.1401 342.687 86.7512 342.687 Q90.3854 342.687 92.1909 339.146 Q94.0196 335.581 94.0196 328.475 Q94.0196 321.345 92.1909 317.803 Q90.3854 314.238 86.7512 314.238 M86.7512 310.535 Q92.5613 310.535 95.6169 315.141 Q98.6955 319.725 98.6955 328.475 Q98.6955 337.201 95.6169 341.808 Q92.5613 346.391 86.7512 346.391 Q80.941 346.391 77.8623 341.808 Q74.8068 337.201 74.8068 328.475 Q74.8068 319.725 77.8623 315.141 Q80.941 310.535 86.7512 310.535 Z" fill="#000000" fill-rule="evenodd" fill-opacity="1" /><path clip-path="url(#clip430)" d="M48.3949 220.58 L56.0337 220.58 L56.0337 194.214 L47.7236 195.881 L47.7236 191.621 L55.9874 189.955 L60.6633 189.955 L60.6633 220.58 L68.3022 220.58 L68.3022 224.515 L48.3949 224.515 L48.3949 220.58 Z" fill="#000000" fill-rule="evenodd" fill-opacity="1" /><path clip-path="url(#clip430)" d="M77.7929 189.955 L96.1493 189.955 L96.1493 193.89 L82.0753 193.89 L82.0753 202.362 Q83.0938 202.015 84.1123 201.853 Q85.1308 201.668 86.1493 201.668 Q91.9363 201.668 95.3159 204.839 Q98.6955 208.01 98.6955 213.427 Q98.6955 219.006 95.2233 222.107 Q91.7511 225.186 85.4317 225.186 Q83.2558 225.186 80.9873 224.816 Q78.7419 224.445 76.3346 223.705 L76.3346 219.006 Q78.4179 220.14 80.6401 220.695 Q82.8623 221.251 85.3391 221.251 Q89.3437 221.251 91.6817 219.144 Q94.0196 217.038 94.0196 213.427 Q94.0196 209.816 91.6817 207.709 Q89.3437 205.603 85.3391 205.603 Q83.4641 205.603 81.5892 206.019 Q79.7373 206.436 77.7929 207.316 L77.7929 189.955 Z" fill="#000000" fill-rule="evenodd" fill-opacity="1" /><path clip-path="url(#clip430)" d="M50.6171 99.3745 L66.9365 99.3745 L66.9365 103.31 L44.9921 103.31 L44.9921 99.3745 Q47.6541 96.6199 52.2375 91.9903 Q56.8439 87.3376 58.0245 85.995 Q60.2698 83.4719 61.1494 81.7358 Q62.0522 79.9765 62.0522 78.2867 Q62.0522 75.5321 60.1078 73.796 Q58.1865 72.0599 55.0847 72.0599 Q52.8856 72.0599 50.4319 72.8238 Q48.0014 73.5876 45.2236 75.1386 L45.2236 70.4164 Q48.0477 69.2821 50.5014 68.7034 Q52.955 68.1247 54.9921 68.1247 Q60.3624 68.1247 63.5568 70.8099 Q66.7513 73.4951 66.7513 77.9858 Q66.7513 80.1154 65.9411 82.0367 Q65.1541 83.9348 63.0476 86.5274 Q62.4689 87.1987 59.367 90.4163 Q56.2652 93.6107 50.6171 99.3745 Z" fill="#000000" fill-rule="evenodd" fill-opacity="1" /><path clip-path="url(#clip430)" d="M86.7512 71.8284 Q83.1401 71.8284 81.3114 75.3932 Q79.5058 78.9348 79.5058 86.0644 Q79.5058 93.1709 81.3114 96.7357 Q83.1401 100.277 86.7512 100.277 Q90.3854 100.277 92.1909 96.7357 Q94.0196 93.1709 94.0196 86.0644 Q94.0196 78.9348 92.1909 75.3932 Q90.3854 71.8284 86.7512 71.8284 M86.7512 68.1247 Q92.5613 68.1247 95.6169 72.7312 Q98.6955 77.3145 98.6955 86.0644 Q98.6955 94.7912 95.6169 99.3977 Q92.5613 103.981 86.7512 103.981 Q80.941 103.981 77.8623 99.3977 Q74.8068 94.7912 74.8068 86.0644 Q74.8068 77.3145 77.8623 72.7312 Q80.941 68.1247 86.7512 68.1247 Z" fill="#000000" fill-rule="evenodd" fill-opacity="1" /><polyline clip-path="url(#clip432)" style="stroke:#009af9; stroke-linecap:round; stroke-linejoin:round; stroke-width:2; stroke-opacity:1; fill:none" points="248.924,336.023 250.42,342.4 251.916,329.681 253.412,374.706 254.908,415.039 256.404,379.764 257.9,329.908 259.396,319.333 260.892,464.939 262.388,324.647 263.885,407.702 265.381,358.897 266.877,334.503 268.373,420.851 269.869,400.869 271.365,387.616 272.861,324.324 274.357,321.404 275.853,348.229 277.349,320.299 278.845,357.182 280.341,323.932 281.838,368.022 283.334,338.057 284.83,324.127 286.326,322.207 287.822,522.579 289.318,345.733 290.814,329.912 292.31,313.987 293.806,327.198 295.302,354.883 296.798,316.131 298.294,406.714 299.791,372.5 301.287,321.43 302.783,351.276 304.279,435.927 305.775,341.904 307.271,343.761 308.767,315.442 310.263,311.294 311.759,339.731 313.255,399.404 314.751,479.953 316.247,324.088 317.744,347.641 319.24,370.439 320.736,445.299 322.232,329.873 323.728,320.331 325.224,327.133 326.72,471.284 328.216,331.991 329.712,339.021 331.208,329.302 332.704,349.144 334.2,329.181 335.697,483.034 337.193,451.879 338.689,330.116 340.185,323.461 341.681,416.446 343.177,441.532 344.673,375.52 346.169,333.648 347.665,330.35 349.161,329.135 350.657,325.897 352.153,324.46 353.65,330.346 355.146,325.008 356.642,327.626 358.138,338.101 359.634,350.036 361.13,420.712 362.626,354.28 364.122,438.002 365.618,326.287 367.114,322.397 368.61,318.283 370.106,391.857 371.603,396.572 373.099,341.479 374.595,434.757 376.091,324.597 377.587,387.308 379.083,397.922 380.579,346.093 382.075,331.128 383.571,334.725 385.067,329.664 386.563,421.224 388.059,360.258 389.556,498.281 391.052,319.739 392.548,335.772 394.044,320.493 395.54,342.146 397.036,333.446 398.532,362.311 400.028,318.372 401.524,333.299 403.02,410.317 404.516,367.737 406.012,333.545 407.509,502.22 409.005,327.724 410.501,412.825 411.997,388.256 413.493,317.434 414.989,332.133 416.485,443.194 417.981,490.922 419.477,416.527 420.973,315.222 422.469,485.555 423.965,330.567 425.462,386.196 426.958,328.258 428.454,360.926 429.95,321.33 431.446,417.972 432.942,329.411 434.438,457.132 435.934,319.706 437.43,356.4 438.926,329.244 440.422,421.991 441.919,327.294 443.415,374.503 444.911,451.333 446.407,330.871 447.903,323.253 449.399,379.222 450.895,323.116 452.391,356.337 453.887,333.617 455.383,337.905 456.879,326.531 458.375,327.687 459.872,453.169 461.368,325.446 462.864,396.503 464.36,400.99 465.856,328.609 467.352,336.264 468.848,470.629 470.344,321.182 471.84,339.394 473.336,394.154 474.832,322.806 476.328,312.042 477.825,345.534 479.321,337.401 480.817,333.057 482.313,323.71 483.809,328.464 485.305,321.824 486.801,316.853 488.297,327.291 489.793,322.084 491.289,317.755 492.785,319.248 494.281,323.551 495.778,365 497.274,326.837 498.77,317.034 500.266,344.695 501.762,333.487 503.258,397.989 504.754,432.844 506.25,331.383 507.746,374.669 509.242,429.973 510.738,428.517 512.234,455.373 513.731,323.337 515.227,319.736 516.723,409.563 518.219,328.785 519.715,311.719 521.211,321.718 522.707,329.151 524.203,472.166 525.699,340.786 527.195,317.806 528.691,389.891 530.187,375.757 531.684,356.409 533.18,327.151 534.676,326.158 536.172,387.202 537.668,319.002 539.164,321.041 540.66,329.617 542.156,405.727 543.652,399.594 545.148,484.171 546.644,315.876 548.14,331.049 549.637,366.316 551.133,448.527 552.629,401.368 554.125,387.58 555.621,370.889 557.117,321.558 558.613,419.475 560.109,322.531 561.605,329.585 563.101,373.371 564.597,332.002 566.093,323.545 567.59,328.894 569.086,407.176 570.582,334.224 572.078,326.66 573.574,351.092 575.07,348.307 576.566,322.1 578.062,324.013 579.558,335.105 581.054,323.136 582.55,331.816 584.046,339.162 585.543,326.77 587.039,340.988 588.535,320.172 590.031,440.864 591.527,333.573 593.023,358.28 594.519,356.103 596.015,344.611 597.511,323.125 599.007,323.284 600.503,334.134 601.999,378.092 603.496,335.716 604.992,321.474 606.488,326.631 607.984,479.458 609.48,328.487 610.976,326.723 612.472,317.829 613.968,322.135 615.464,320.116 616.96,328.098 618.456,453.761 619.952,400.975 621.449,330.65 622.945,397.663 624.441,449.033 625.937,487.9 627.433,335.396 628.929,332.518 630.425,434.943 631.921,330.429 633.417,372.426 634.913,422.337 636.409,437.374 637.906,316.925 639.402,322.796 640.898,366.439 642.394,358.167 643.89,345.174 645.386,327.317 646.882,330.49 648.378,321.69 649.874,325.495 651.37,365.469 652.866,381.968 654.362,448.823 655.859,333.336 657.355,339.39 658.851,337.813 660.347,322.342 661.843,313.932 663.339,330.487 664.835,403.996 666.331,347.649 667.827,392.285 669.323,341.703 670.819,347.652 672.315,330.171 673.812,327.97 675.308,501.351 676.804,420.274 678.3,450.7 679.796,319.789 681.292,325.903 682.788,349.652 684.284,345.402 685.78,452.616 687.276,325.032 688.772,333.481 690.268,323.923 691.765,338.133 693.261,417.931 694.757,338.138 696.253,327.207 697.749,326.087 699.245,354.025 700.741,371.222 702.237,333.416 703.733,326.436 705.229,328.42 706.725,341.156 708.221,446.4 709.718,408.055 711.214,325.841 712.71,442.375 714.206,352.124 715.702,359.348 717.198,344.521 718.694,338.827 720.19,329.182 721.686,413.632 723.182,320.32 724.678,322.373 726.174,323.869 727.671,317.16 729.167,328.325 730.663,333.409 732.159,327.89 733.655,431.285 735.151,435.299 736.647,345.259 738.143,448.877 739.639,323.968 741.135,417.313 742.631,396.024 744.127,328.349 745.624,327.191 747.12,330.115 748.616,418.845 750.112,328.771 751.608,475.743 753.104,342.403 754.6,357.918 756.096,452.974 757.592,331.971 759.088,316.965 760.584,340.652 762.08,342.858 763.577,317.108 765.073,378.089 766.569,376.76 768.065,320.885 769.561,317.149 771.057,346.075 772.553,357.902 774.049,334.234 775.545,320.673 777.041,418.073 778.537,398.422 780.033,330.759 781.53,345.597 783.026,327.427 784.522,387.707 786.018,418.679 787.514,358.667 789.01,366.188 790.506,335.124 792.002,327.635 793.498,334.599 794.994,383.508 796.49,374.965 797.986,327.172 799.483,355.841 800.979,325.061 802.475,513.636 803.971,351.286 805.467,342.429 806.963,329.473 808.459,499.267 809.955,326.619 811.451,502.348 812.947,321.327 814.443,324.117 815.94,325.934 817.436,336.362 818.932,322.408 820.428,329.773 821.924,324.638 823.42,497.958 824.916,393.692 826.412,324.999 827.908,407.795 829.404,361.987 830.9,345.789 832.396,419.69 833.893,333.931 835.389,418.327 836.885,332.801 838.381,340.237 839.877,326.287 841.373,415.289 842.869,340.453 844.365,435.53 845.861,316.328 847.357,316.157 848.853,481.065 850.349,368.083 851.846,380.989 853.342,319.735 854.838,350.515 856.334,374.236 857.83,320.624 859.326,372.516 860.822,327.737 862.318,346.038 863.814,329.538 865.31,374.82 866.806,315.957 868.302,454.927 869.799,332.612 871.295,324.907 872.791,336.712 874.287,331.829 875.783,442.248 877.279,423.74 878.775,409.305 880.271,315.429 881.767,528.369 883.263,340.56 884.759,333.465 886.255,430.307 887.752,332.001 889.248,396.141 890.744,351.476 892.24,388.217 893.736,351.029 895.232,324.218 896.728,402.873 898.224,314.879 899.72,341.686 901.216,329.471 902.712,414.47 904.208,331.566 905.705,325.795 907.201,431.296 908.697,474.699 910.193,327.393 911.689,354.718 913.185,318.521 914.681,433.7 916.177,337.815 917.673,326.557 919.169,344.921 920.665,315.615 922.161,349.52 923.658,436.259 925.154,321.366 926.65,318.566 928.146,405.601 929.642,424.276 931.138,323.525 932.634,319.856 934.13,379.63 935.626,330.078 937.122,319.21 938.618,322.232 940.114,428.839 941.611,457.998 943.107,313.97 944.603,409.984 946.099,375.566 947.595,418.911 949.091,356.824 950.587,331.267 952.083,324.708 953.579,392.818 955.075,335.859 956.571,334.938 958.067,345.748 959.564,352.74 961.06,334.286 962.556,324.351 964.052,351.219 965.548,382.205 967.044,362.471 968.54,451.28 970.036,348.656 971.532,325.942 973.028,335.638 974.524,403.586 976.02,324.346 977.517,449.437 979.013,382.637 980.509,332.573 982.005,391.283 983.501,376.293 984.997,334.899 986.493,475.538 987.989,514.839 989.485,322.749 990.981,343.445 992.477,335.937 993.974,414.916 995.47,458.331 996.966,318.699 998.462,317.712 999.958,327.288 1001.45,337.536 1002.95,388.494 1004.45,414.243 1005.94,321.978 1007.44,318.653 1008.93,334.915 1010.43,328.015 1011.93,321.851 1013.42,321.465 1014.92,331.367 1016.41,444.09 1017.91,443.865 1019.41,349.419 1020.9,320.834 1022.4,379.432 1023.9,330.804 1025.39,321.304 1026.89,325.166 1028.38,326.178 1029.88,326.218 1031.38,435.625 1032.87,316.644 1034.37,332.528 1035.86,325.468 1037.36,351.452 1038.86,328.377 1040.35,329.854 1041.85,378.416 1043.34,334.049 1044.84,385.553 1046.34,354.036 1047.83,328.228 1049.33,490.277 1050.82,411.588 1052.32,335.624 1053.82,346.365 1055.31,470.349 1056.81,312.109 1058.31,321.849 1059.8,333.33 1061.3,338.291 1062.79,336.628 1064.29,328.96 1065.79,322.537 1067.28,399.217 1068.78,320.348 1070.27,316.7 1071.77,386.917 1073.27,460.355 1074.76,322.095 1076.26,373.94 1077.75,355.255 1079.25,327.67 1080.75,381.673 1082.24,385.129 1083.74,329.611 1085.23,329.421 1086.73,338.669 1088.23,339.179 1089.72,330.147 1091.22,346.396 1092.72,330.467 1094.21,499.988 1095.71,417.029 1097.2,332.991 1098.7,324.916 1100.2,445.953 1101.69,389.774 1103.19,379.966 1104.68,324.404 1106.18,363.384 1107.68,338.469 1109.17,324.348 1110.67,394.914 1112.16,471.612 1113.66,410.124 1115.16,353.408 1116.65,331.58 1118.15,326.231 1119.64,403.559 1121.14,330.534 1122.64,327.583 1124.13,336.313 1125.63,377.774 1127.12,323.463 1128.62,340.733 1130.12,340.955 1131.61,324.511 1133.11,363.792 1134.61,325.085 1136.1,318.113 1137.6,356.089 1139.09,337.992 1140.59,323.515 1142.09,403.396 1143.58,327.544 1145.08,334.641 1146.57,337.954 1148.07,325.809 1149.57,328.976 1151.06,323.982 1152.56,317.602 1154.05,335.871 1155.55,429.532 1157.05,324.84 1158.54,359.075 1160.04,366.181 1161.53,344.646 1163.03,323.272 1164.53,454.507 1166.02,435.512 1167.52,326.267 1169.02,461.932 1170.51,319.684 1172.01,336.543 1173.5,338.691 1175,376.258 1176.5,324.493 1177.99,332.7 1179.49,327.521 1180.98,324.92 1182.48,355.325 1183.98,325.523 1185.47,335.163 1186.97,329.1 1188.46,362.751 1189.96,331.282 1191.46,329.541 1192.95,325.926 1194.45,374.839 1195.94,475.447 1197.44,320.936 1198.94,323.001 1200.43,319.825 1201.93,411.341 1203.43,311.575 1204.92,445.849 1206.42,325.29 1207.91,325.043 1209.41,326.31 1210.91,388.883 1212.4,343.836 1213.9,332.788 1215.39,342.221 1216.89,324.807 1218.39,343.084 1219.88,411.958 1221.38,367.586 1222.87,340.994 1224.37,320.149 1225.87,317.925 1227.36,338.209 1228.86,350.34 1230.35,319.323 1231.85,497.131 1233.35,341.563 1234.84,332.028 1236.34,328.189 1237.84,405.064 1239.33,443.405 1240.83,330.997 1242.32,328.061 1243.82,328.281 1245.32,332.396 1246.81,333.083 1248.31,316.047 1249.8,321.946 1251.3,346.99 1252.8,325.423 1254.29,355.135 1255.79,457.161 1257.28,316.781 1258.78,364.605 1260.28,333.004 1261.77,325.307 1263.27,389.986 1264.76,330.513 1266.26,325.839 1267.76,346.463 1269.25,320.065 1270.75,325.963 1272.25,314.014 1273.74,401.829 1275.24,372.936 1276.73,367.718 1278.23,332.116 1279.73,333.596 1281.22,335.661 1282.72,329.524 1284.21,333.739 1285.71,319.331 1287.21,357.204 1288.7,402.058 1290.2,357.79 1291.69,401.984 1293.19,324.93 1294.69,342.213 1296.18,333.32 1297.68,331.237 1299.17,321.54 1300.67,371.657 1302.17,320.927 1303.66,318.684 1305.16,329.542 1306.66,331.683 1308.15,339.965 1309.65,330.129 1311.14,323.782 1312.64,342.947 1314.14,327.821 1315.63,341.372 1317.13,330.266 1318.62,315.335 1320.12,336.646 1321.62,326.328 1323.11,411.952 1324.61,343.847 1326.1,340.683 1327.6,475.491 1329.1,354.925 1330.59,340.517 1332.09,369.1 1333.58,326.864 1335.08,318.218 1336.58,337.022 1338.07,332.769 1339.57,332.474 1341.06,370.452 1342.56,357.243 1344.06,337.358 1345.55,319.415 1347.05,325.912 1348.55,338.319 1350.04,326.749 1351.54,372.081 1353.03,337.266 1354.53,405.314 1356.03,348.452 1357.52,452.038 1359.02,327.675 1360.51,305.694 1362.01,347.166 1363.51,357.241 1365,319.659 1366.5,377.33 1367.99,337.509 1369.49,328.904 1370.99,330.892 1372.48,319.403 1373.98,320.344 1375.47,392.117 1376.97,480.08 1378.47,400.499 1379.96,387.393 1381.46,359.969 1382.96,328.042 1384.45,336.844 1385.95,353.288 1387.44,343.888 1388.94,359.683 1390.44,328.455 1391.93,403.411 1393.43,354.039 1394.92,321.957 1396.42,416.329 1397.92,337.174 1399.41,342.508 1400.91,334.693 1402.4,384.842 1403.9,318.665 1405.4,377.853 1406.89,322.043 1408.39,327.968 1409.88,321.311 1411.38,349.284 1412.88,413.111 1414.37,332.891 1415.87,321.732 1417.37,493.337 1418.86,333.707 1420.36,322.584 1421.85,392.804 1423.35,364.786 1424.85,324.632 1426.34,441.851 1427.84,442.893 1429.33,350.313 1430.83,337.507 1432.33,363.548 1433.82,327.306 1435.32,329.762 1436.81,469.724 1438.31,429.08 1439.81,327.807 1441.3,321.483 1442.8,465.107 1444.29,325.958 1445.79,341.661 1447.29,409.744 1448.78,329.514 1450.28,326.29 1451.78,322.808 1453.27,328.705 1454.77,459.793 1456.26,438.034 1457.76,355.382 1459.26,330.782 1460.75,382.455 1462.25,510.957 1463.74,407.891 1465.24,330.284 1466.74,322.821 1468.23,330.808 1469.73,374.232 1471.22,338.269 1472.72,352.621 1474.22,322.745 1475.71,334.606 1477.21,323.986 1478.7,334.753 1480.2,328.469 1481.7,334.535 1483.19,329.506 1484.69,393.578 1486.19,402.979 1487.68,332.785 1489.18,401.627 1490.67,378.005 1492.17,333.928 1493.67,353.5 1495.16,335.269 1496.66,327.829 1498.15,381.829 1499.65,323.637 1501.15,373.729 1502.64,314.118 1504.14,334.228 1505.63,351.498 1507.13,330.221 1508.63,431.733 1510.12,327.083 1511.62,427.004 1513.11,417.762 1514.61,382.978 1516.11,327.991 1517.6,370.572 1519.1,316.017 1520.6,326.16 1522.09,322.207 1523.59,317.289 1525.08,326.03 1526.58,372.476 1528.08,324.09 1529.57,450.253 1531.07,316.806 1532.56,369.023 1534.06,335.863 1535.56,334.347 1537.05,331.557 1538.55,326.281 1540.04,323.84 1541.54,328.063 1543.04,317.482 1544.53,316.578 1546.03,371.07 1547.52,420.02 1549.02,323.903 1550.52,419.828 1552.01,329.824 1553.51,443.158 1555.01,331.282 1556.5,323.159 1558,363.94 1559.49,336.87 1560.99,322.798 1562.49,329.922 1563.98,337.181 1565.48,321.158 1566.97,329.098 1568.47,328.544 1569.97,330.296 1571.46,328.269 1572.96,410.823 1574.45,324.253 1575.95,326.859 1577.45,474.121 1578.94,336.059 1580.44,315.474 1581.93,473.611 1583.43,332.418 1584.93,332.546 1586.42,356.139 1587.92,335.206 1589.41,376.053 1590.91,323.224 1592.41,347.638 1593.9,357.235 1595.4,342.977 1596.9,323.262 1598.39,440.177 1599.89,328.902 1601.38,364.908 1602.88,365.837 1604.38,416.71 1605.87,414.941 1607.37,405.822 1608.86,326.632 1610.36,333.477 1611.86,331.136 1613.35,378.221 1614.85,327.173 1616.34,329.996 1617.84,373.861 1619.34,386.457 1620.83,360.468 1622.33,369.519 1623.82,384.002 1625.32,318.691 1626.82,311.437 1628.31,326.099 1629.81,321.074 1631.31,340.493 1632.8,326.319 1634.3,314.278 1635.79,342.409 1637.29,320.024 1638.79,440.229 1640.28,467.498 1641.78,327.922 1643.27,363.462 1644.77,331.36 1646.27,450.238 1647.76,321.725 1649.26,492.273 1650.75,335.226 1652.25,333.97 1653.75,478.294 1655.24,385.841 1656.74,441.129 1658.23,323.038 1659.73,332.257 1661.23,323.485 1662.72,313.129 1664.22,313.817 1665.72,339.699 1667.21,321.987 1668.71,341.323 1670.2,315.94 1671.7,414.935 1673.2,374.136 1674.69,326.988 1676.19,333.073 1677.68,319.837 1679.18,388.353 1680.68,328.487 1682.17,396.815 1683.67,347.496 1685.16,324.92 1686.66,328.316 1688.16,327.278 1689.65,419.864 1691.15,340.382 1692.64,341.023 1694.14,388.656 1695.64,319.42 1697.13,343.604 1698.63,438.477 1700.13,339.926 1701.62,314.004 1703.12,362.689 1704.61,380.902 1706.11,322.265 1707.61,312.17 1709.1,415.102 1710.6,346.272 1712.09,326.321 1713.59,335.466 1715.09,331.669 1716.58,339.053 1718.08,313.679 1719.57,317.148 1721.07,329.328 1722.57,339.414 1724.06,431.276 1725.56,324.368 1727.05,302.723 1728.55,311.594 1730.05,351.692 1731.54,335.946 1733.04,390.818 1734.54,403.923 1736.03,328.934 1737.53,398.35 1739.02,325.42 1740.52,336.957 1742.02,311.069 1743.51,342.141 1745.01,337.775 1746.5,356.999 1748,428.846 1749.5,372.042 1750.99,420.219 1752.49,388.626 1753.98,333.88 1755.48,334.21 1756.98,448.181 1758.47,363.501 1759.97,329.353 1761.46,411.909 1762.96,318.622 1764.46,446.189 1765.95,358.08 1767.45,335.464 1768.95,379.731 1770.44,325.844 1771.94,329.08 1773.43,416.625 1774.93,318.989 1776.43,370.836 1777.92,350.625 1779.42,327.961 1780.91,461.155 1782.41,324.702 1783.91,352.913 1785.4,329.909 1786.9,322.553 1788.39,324.303 1789.89,334.143 1791.39,327.178 1792.88,318.611 1794.38,507.554 1795.87,349.733 1797.37,315.889 1798.87,364.529 1800.36,339.904 1801.86,310.48 1803.35,333.433 1804.85,355.59 1806.35,334.944 1807.84,324.305 1809.34,375.195 1810.84,392.311 1812.33,426.488 1813.83,331.008 1815.32,436.249 1816.82,314.811 1818.32,340.59 1819.81,339.996 1821.31,363.557 1822.8,324.083 1824.3,498.342 1825.8,358.839 1827.29,383.218 1828.79,323.849 1830.28,413.347 1831.78,333.611 1833.28,358.485 1834.77,370.83 1836.27,383.622 1837.76,428.521 1839.26,346.251 1840.76,330.106 1842.25,383.609 1843.75,324.531 1845.25,447.033 1846.74,325.548 1848.24,331.957 1849.73,423.242 1851.23,355.327 1852.73,378.837 1854.22,313.005 1855.72,382.34 1857.21,304.819 1858.71,448.871 1860.21,339.583 1861.7,340.277 1863.2,346.684 1864.69,334.747 1866.19,319.554 1867.69,331.922 1869.18,393.831 1870.68,334.567 1872.17,321.228 1873.67,325.601 1875.17,343.728 1876.66,336.4 1878.16,336.499 1879.66,413.52 1881.15,333.009 1882.65,428.613 1884.14,328.883 1885.64,477.879 1887.14,318.558 1888.63,337.839 1890.13,327.479 1891.62,327.418 1893.12,329.863 1894.62,326.212 1896.11,428.327 1897.61,330.074 1899.1,476.142 1900.6,329.936 1902.1,331.779 1903.59,337.888 1905.09,445.836 1906.58,336.82 1908.08,339.011 1909.58,448.435 1911.07,325.127 1912.57,317.508 1914.07,330.546 1915.56,340.664 1917.06,357.253 1918.55,342.304 1920.05,338.193 1921.55,336.19 1923.04,385.507 1924.54,323.795 1926.03,487.569 1927.53,447.703 1929.03,321.593 1930.52,328.444 1932.02,407.725 1933.51,412.459 1935.01,327.019 1936.51,331.168 1938,332.283 1939.5,406.545 1940.99,444.369 1942.49,318.534 1943.99,391.847 1945.48,319.78 1946.98,385.395 1948.48,462.94 1949.97,352.072 1951.47,327.816 1952.96,340.541 1954.46,338.587 1955.96,391.679 1957.45,461.661 1958.95,434.26 1960.44,426.586 1961.94,342.878 1963.44,386.039 1964.93,318.872 1966.43,325.787 1967.92,336.096 1969.42,470.692 1970.92,448.844 1972.41,399.161 1973.91,393.781 1975.4,327.309 1976.9,329.33 1978.4,323.737 1979.89,324.439 1981.39,328.313 1982.89,330.272 1984.38,357.913 1985.88,328.24 1987.37,363.337 1988.87,388.099 1990.37,352.046 1991.86,322.294 1993.36,354.23 1994.85,344.708 1996.35,325.709 1997.85,376.492 1999.34,331.627 2000.84,427.003 2002.33,323.393 2003.83,335.675 2005.33,325.42 2006.82,322.715 2008.32,453.173 2009.81,352.06 2011.31,445.272 2012.81,358.653 2014.3,456.697 2015.8,339.517 2017.29,315.683 2018.79,455.002 2020.29,317.463 2021.78,322.747 2023.28,331.176 2024.78,327.374 2026.27,333.115 2027.77,333.863 2029.26,357.179 2030.76,325.97 2032.26,362.915 2033.75,449.891 2035.25,346.769 2036.74,366.386 2038.24,331.237 2039.74,325.213 2041.23,337.669 2042.73,331.16 2044.22,326.74 2045.72,445.84 2047.22,372.642 2048.71,322.596 2050.21,326.383 2051.7,390.709 2053.2,328.499 2054.7,336.26 2056.19,345.886 2057.69,365.269 2059.19,332.373 2060.68,319.45 2062.18,327.686 2063.67,473.529 2065.17,334.182 2066.67,324.869 2068.16,434.943 2069.66,429.775 2071.15,330.634 2072.65,400.271 2074.15,326.798 2075.64,389.237 2077.14,343.29 2078.63,326.886 2080.13,394.949 2081.63,434.466 2083.12,322.969 2084.62,458.056 2086.11,329.079 2087.61,444.885 2089.11,328.339 2090.6,424.184 2092.1,469.991 2093.6,325.893 2095.09,354.093 2096.59,514.048 2098.08,337.629 2099.58,365.045 2101.08,321.197 2102.57,329.654 2104.07,332.571 2105.56,327.575 2107.06,326.42 2108.56,339.146 2110.05,319.442 2111.55,349.246 2113.04,340.899 2114.54,351.743 2116.04,386.444 2117.53,326.083 2119.03,394.861 2120.52,325.845 2122.02,455.339 2123.52,333.342 2125.01,435.785 2126.51,365.173 2128.01,368.587 2129.5,319.515 2131,329.095 2132.49,332.468 2133.99,331.315 2135.49,473.013 2136.98,354.264 2138.48,328.179 2139.97,325.758 2141.47,331.768 2142.97,402.243 2144.46,331.189 2145.96,433.369 2147.45,327.383 2148.95,467.66 2150.45,328.763 2151.94,331.961 2153.44,355.572 2154.93,335.838 2156.43,424.159 2157.93,332.633 2159.42,329.088 2160.92,349.734 2162.42,391.806 2163.91,329.555 2165.41,389.779 2166.9,418.739 2168.4,313.134 2169.9,334.94 2171.39,498.759 2172.89,515.283 2174.38,332.22 2175.88,333.893 2177.38,329.799 2178.87,466.568 2180.37,334.35 2181.86,342.046 2183.36,328.066 2184.86,348.396 2186.35,335.271 2187.85,335.759 2189.34,465.301 2190.84,329.274 2192.34,329.494 2193.83,326.003 2195.33,395.227 2196.83,337.557 2198.32,329.401 2199.82,322.145 2201.31,474.057 2202.81,417.079 2204.31,327.238 2205.8,443.293 2207.3,349.576 2208.79,341.619 2210.29,432.848 2211.79,324.96 2213.28,334.766 2214.78,494.944 2216.27,347.904 2217.77,328.58 2219.27,318.599 2220.76,396.568 2222.26,332.749 2223.75,367.502 2225.25,327.168 2226.75,323.03 2228.24,312.166 2229.74,396.436 2231.23,392.117 2232.73,329.695 2234.23,325.229 2235.72,403.311 2237.22,360.699 2238.72,369.413 2240.21,389.588 2241.71,449.08 2243.2,332.403 2244.7,418.92 2246.2,370.943 2247.69,379.765 2249.19,342.492 2250.68,356.496 2252.18,402.582 2253.68,326.609 2255.17,338.842 2256.67,446.202 2258.16,343.321 2259.66,334.898 2261.16,327.392 2262.65,327.077 2264.15,391.955 2265.64,328.055 2267.14,317.586 2268.64,327.179 2270.13,333.63 2271.63,407.457 2273.13,325.528 2274.62,339.284 2276.12,344.259 2277.61,340.52 2279.11,482.065 2280.61,330.506 2282.1,439.78 2283.6,316.02 2285.09,329.443 2286.59,328.156 2288.09,418.246 2289.58,327.418 2291.08,331.844 2292.57,322.395 2294.07,478.169 2295.57,349.542 2297.06,326.632 2298.56,347.624 2300.05,314.646 2301.55,394.011 2303.05,325.961 2304.54,325.529 2306.04,319.954 2307.54,328.749 2309.03,378.519 2310.53,321.074 2312.02,322.996 2313.52,327.327 2315.02,459.785 2316.51,327.517 2318.01,448.298 2319.5,368.737 2321,465.556 2322.5,333.532 2323.99,323.288 2325.49,354.443 2326.98,320.503 2328.48,326.011 2329.98,433.725 2331.47,322.352 2332.97,375.56 2334.46,507.417 2335.96,332.287 2337.46,359.2 2338.95,416.252 2340.45,319.764 2341.95,340.785 2343.44,431.511 2344.94,509.714 2346.43,316.401 2347.93,370.542 2349.43,341.797 2350.92,428.287 2352.42,310.171 2353.91,340.195 2355.41,410.387 2356.91,467.068 2358.4,343.97 2359.9,338.901 2361.39,400.518 2362.89,340.301 2364.39,423.058 2365.88,331.115 2367.38,452.923 2368.87,333.032 2370.37,323.165 2371.87,360.921 2373.36,323.2 2374.86,337.79 2376.36,315.335 2377.85,309.133 2379.35,459.369 2380.84,338.373 2382.34,496.12 2383.84,331.876 2385.33,397.037 2386.83,390.923 2388.32,391.082 2389.82,380.757 2391.32,314.653 2392.81,338.72 2394.31,340.418 2395.8,342.817 2397.3,425.02 2398.8,340.447 2400.29,314.491 2401.79,332.148 2403.28,321.647 2404.78,316.911 2406.28,449.69 2407.77,318.132 2409.27,322.37 2410.77,340.683 2412.26,446.681 2413.76,480.497 2415.25,424.209 2416.75,438.717 2418.25,457.376 2419.74,494.468 2421.24,413.953 2422.73,321.126 2424.23,327.512 2425.73,375 2427.22,322.81 2428.72,327.688 2430.21,503.696 2431.71,335.207 2433.21,479.275 2434.7,319.283 2436.2,329.48 2437.69,323.042 2439.19,424.331 2440.69,321.166 2442.18,338.8 2443.68,411.638 2445.17,328.537 2446.67,330.36 2448.17,390.898 2449.66,329.558 2451.16,486.314 2452.66,487.608 2454.15,325.326 2455.65,458.629 2457.14,395.004 2458.64,333.772 2460.14,330.298 2461.63,329.608 2463.13,417.37 2464.62,332.616 2466.12,319.222 2467.62,353.966 2469.11,377.634 2470.61,334.937 2472.1,381.957 2473.6,329.457 2475.1,327.285 2476.59,381.061 2478.09,334.298 2479.58,411.989 2481.08,357.774 2482.58,322.772 2484.07,334.222 2485.57,435.362 2487.07,370.727 2488.56,376.096 2490.06,448.524 2491.55,325.645 2493.05,431.048 2494.55,445.228 2496.04,325.705 2497.54,447.63 2499.03,321.8 2500.53,438.707 2502.03,345.331 2503.52,353.379 2505.02,320.145 2506.51,322.721 2508.01,319.286 2509.51,349.843 2511,457.883 2512.5,383.696 2513.99,326.344 2515.49,328.744 2516.99,513.062 2518.48,331.841 2519.98,324.162 2521.48,435.441 2522.97,425.396 2524.47,323.748 2525.96,367.932 2527.46,451.35 2528.96,413.089 2530.45,322.581 2531.95,364.371 2533.44,326.411 2534.94,328.628 2536.44,352.678 2537.93,326.752 2539.43,345.167 2540.92,334.784 2542.42,423.571 2543.92,323.553 2545.41,325.692 2546.91,444.42 2548.4,414.865 2549.9,401.667 2551.4,497.998 2552.89,338.09 2554.39,469.223 2555.89,334.975 2557.38,360.811 2558.88,323.081 2560.37,493.63 2561.87,352.58 2563.37,414.043 2564.86,444.043 2566.36,366.089 2567.85,324.975 2569.35,428.32 2570.85,413.114 2572.34,408.765 2573.84,319.97 2575.33,321.717 2576.83,337.029 2578.33,319.36 2579.82,336.494 2581.32,333.079 2582.81,327.779 2584.31,390.496 2585.81,332.097 2587.3,318.659 2588.8,389.417 2590.3,324.051 2591.79,340.512 2593.29,342.908 2594.78,444.162 2596.28,395.59 2597.78,350.158 2599.27,325.94 2600.77,322.995 2602.26,377.754 2603.76,367.749 2605.26,338.843 2606.75,339.226 2608.25,456.798 2609.74,337.446 2611.24,332.501 2612.74,482.517 2614.23,325.932 2615.73,361.849 2617.22,428.527 2618.72,442.841 2620.22,400.929 2621.71,336.187 2623.21,409.34 2624.71,344.718 2626.2,333.805 2627.7,320.395 2629.19,313.236 2630.69,416.293 2632.19,355.979 2633.68,326.462 2635.18,426.462 2636.67,337.386 2638.17,310.866 2639.67,322.289 2641.16,419.974 2642.66,336.008 2644.15,449.961 2645.65,334.231 2647.15,336.864 2648.64,321.406 2650.14,326.598 2651.63,486.859 2653.13,410.758 2654.63,418.767 2656.12,356.276 2657.62,334.695 2659.12,417.347 2660.61,392.142 2662.11,324.591 2663.6,331.4 2665.1,418.35 2666.6,356.537 2668.09,319.151 2669.59,340.029 2671.08,314.1 2672.58,476.611 2674.08,334.589 2675.57,316.882 2677.07,323.996 2678.56,323.227 2680.06,330.092 2681.56,426.41 2683.05,467.777 2684.55,337.66 2686.04,319.516 2687.54,388.87 2689.04,342.632 2690.53,323.419 2692.03,328.058 2693.52,446.091 2695.02,347.133 2696.52,350.65 2698.01,327.054 2699.51,410.397 2701.01,405.294 2702.5,328.253 2704,319.087 2705.49,323.141 2706.99,390.879 2708.49,343.725 2709.98,411.931 2711.48,338.685 2712.97,331.783 2714.47,319.584 2715.97,327.949 2717.46,363.328 2718.96,322.811 2720.45,326.346 2721.95,344.413 2723.45,372.014 2724.94,327.397 2726.44,323.74 2727.93,321.5 2729.43,318.769 2730.93,358.983 2732.42,450.23 2733.92,320.855 2735.42,332.837 2736.91,324.767 2738.41,322.127 2739.9,323.965 2741.4,327.779 2742.9,331.154 2744.39,317.795 2745.89,328.531 2747.38,390.215 2748.88,326.97 2750.38,380.308 2751.87,354.76 2753.37,328.698 2754.86,340.102 2756.36,321.436 2757.86,319.375 2759.35,335.879 2760.85,358.287 2762.34,318.116 2763.84,394.361 2765.34,387.714 2766.83,327.304 2768.33,316.538 2769.83,474.939 2771.32,323.155 2772.82,382.019 2774.31,411.052 2775.81,436.196 2777.31,412.054 2778.8,337.687 2780.3,318.316 2781.79,316.361 2783.29,318.977 2784.79,359.988 2786.28,395.84 2787.78,325.015 2789.27,367.07 2790.77,331.12 2792.27,369.379 2793.76,323.373 2795.26,319.412 2796.75,329.492 2798.25,343.795 2799.75,323.348 2801.24,332.153 2802.74,324.631 2804.24,327.068 2805.73,331.438 2807.23,318.143 2808.72,394.102 2810.22,373.782 2811.72,321.615 2813.21,329.277 2814.71,377.724 2816.2,309.332 2817.7,373.586 2819.2,325.504 2820.69,322.787 2822.19,378.508 2823.68,365.511 2825.18,337.793 2826.68,342.138 2828.17,327.566 2829.67,349.693 2831.16,406.92 2832.66,373.796 2834.16,347.053 2835.65,379.599 2837.15,356.455 2838.65,339.363 2840.14,321.39 2841.64,428.935 2843.13,339.208 2844.63,434.434 2846.13,342.306 2847.62,334.905 2849.12,338.073 2850.61,454.224 2852.11,326.426 2853.61,323.303 2855.1,405.925 2856.6,332.332 2858.09,317.531 2859.59,334.249 2861.09,441.301 2862.58,392.219 2864.08,320.002 2865.57,372.565 2867.07,318.132 2868.57,434.186 2870.06,321.709 2871.56,319.193 2873.06,355.942 2874.55,352.272 2876.05,325.421 2877.54,382.466 2879.04,309.141 2880.54,364.681 2882.03,325.921 2883.53,325.54 2885.02,349.825 2886.52,478.854 2888.02,316.737 2889.51,324.567 2891.01,336.475 2892.5,345.814 2894,324.195 2895.5,332.735 2896.99,325.97 2898.49,349.013 2899.98,363.688 2901.48,343.656 2902.98,334.851 2904.47,349.938 2905.97,416.524 2907.46,335.827 2908.96,427.888 2910.46,326.707 2911.95,329.125 2913.45,323.968 2914.95,318.598 2916.44,316.094 2917.94,324.618 2919.43,312.514 2920.93,343.599 2922.43,339.476 2923.92,360.687 2925.42,334.706 2926.91,329.614 2928.41,333.927 2929.91,354.332 2931.4,431.045 2932.9,324.569 2934.39,389.469 2935.89,392.019 2937.39,459.711 2938.88,345.784 2940.38,383.275 2941.87,327.948 2943.37,507.021 2944.87,330.207 2946.36,413.293 2947.86,390.189 2949.36,420.413 2950.85,331.721 2952.35,414.202 2953.84,384.84 2955.34,400.191 2956.84,463.079 2958.33,337.871 2959.83,331.295 2961.32,442.8 2962.82,324.448 2964.32,411.713 2965.81,462.042 2967.31,327.746 2968.8,332.474 2970.3,335.726 2971.8,312.452 2973.29,390.743 2974.79,333.566 2976.28,331.217 2977.78,312.577 2979.28,350.146 2980.77,324.305 2982.27,327.776 2983.77,477.115 2985.26,335.053 2986.76,329.664 2988.25,387.213 2989.75,343.541 2991.25,318.849 2992.74,423.631 2994.24,329.358 2995.73,331.191 2997.23,318 2998.73,325.706 3000.22,374.558 3001.72,319.653 3003.21,335.293 3004.71,446.823 3006.21,348.054 3007.7,430.503 3009.2,319.605 3010.69,367.562 3012.19,332.552 3013.69,314.926 3015.18,357.711 3016.68,328.91 3018.18,371.091 3019.67,409.567 3021.17,364.173 3022.66,327.698 3024.16,319.184 3025.66,433.462 3027.15,348.506 3028.65,332.154 3030.14,320.613 3031.64,414.318 3033.14,421.353 3034.63,401.608 3036.13,326.534 3037.62,456.6 3039.12,372.946 3040.62,329.499 3042.11,327.814 3043.61,328.281 3045.1,319.364 3046.6,336.934 3048.1,367.754 3049.59,427.221 3051.09,436.277 3052.59,332.921 3054.08,408.022 3055.58,323.23 3057.07,402.961 3058.57,321.824 3060.07,323.29 3061.56,473.977 3063.06,398.514 3064.55,323.293 3066.05,336.477 3067.55,332.753 3069.04,474.396 3070.54,341.305 3072.03,341.29 3073.53,321.715 3075.03,439.23 3076.52,348.785 3078.02,418.112 3079.51,320.358 3081.01,323.635 3082.51,408.429 3084,440.871 3085.5,335.028 3087,369.471 3088.49,423.988 3089.99,455.096 3091.48,325.365 3092.98,326.07 3094.48,341.614 3095.97,324.583 3097.47,434.623 3098.96,331.235 3100.46,322.043 3101.96,321.39 3103.45,326.034 3104.95,345.617 3106.44,393.428 3107.94,333.251 3109.44,494.271 3110.93,341.867 3112.43,369.932 3113.92,334.824 3115.42,355.913 3116.92,342.267 3118.41,383.985 3119.91,319.294 3121.4,320.887 3122.9,336.026 3124.4,363.269 3125.89,329.345 3127.39,320.664 3128.89,473.013 3130.38,346.329 3131.88,374.995 3133.37,328.039 3134.87,330.878 3136.37,420.917 3137.86,336.506 3139.36,326.236 3140.85,339.885 3142.35,393.672 3143.85,429.886 3145.34,389.128 3146.84,320.762 3148.33,323.477 3149.83,327.335 3151.33,329.653 3152.82,358.249 3154.32,324.227 3155.81,317.239 3157.31,335.926 3158.81,322.798 3160.3,418.694 3161.8,376.248 3163.3,319.817 3164.79,350.061 3166.29,388.921 3167.78,327.838 3169.28,327.586 3170.78,323.404 3172.27,403.205 3173.77,339.199 3175.26,329.074 3176.76,319.919 3178.26,462.575 3179.75,328.182 3181.25,435.081 3182.74,321.788 3184.24,445.797 3185.74,379.52 3187.23,366.663 3188.73,408.414 3190.22,392.626 3191.72,324.792 3193.22,317.916 3194.71,333.413 3196.21,465.382 3197.71,340.662 3199.2,345.351 3200.7,395.012 3202.19,342.101 3203.69,391.226 3205.19,347.524 3206.68,332.378 3208.18,342.927 3209.67,431.843 3211.17,319.443 3212.67,356.883 3214.16,333.514 3215.66,315.613 3217.15,353.273 3218.65,331.243 3220.15,322.453 3221.64,417.782 3223.14,327.066 3224.63,340.285 3226.13,339.087 3227.63,350.213 3229.12,447.273 3230.62,306.902 3232.12,311.194 3233.61,343.239 3235.11,394.173 3236.6,371.2 3238.1,329.462 3239.6,348.416 3241.09,455.238 3242.59,327.693 3244.08,333.575 3245.58,327.4 3247.08,335.114 3248.57,391.825 3250.07,471.369 3251.56,345.052 3253.06,320.004 3254.56,322.882 3256.05,315.391 3257.55,332.357 3259.04,318.632 3260.54,326.206 3262.04,399.58 3263.53,406.604 3265.03,376.553 3266.53,314.597 3268.02,331.132 3269.52,324.364 3271.01,339.744 3272.51,318.938 3274.01,347.812 3275.5,328.405 3277,447.371 3278.49,317.123 3279.99,420.921 3281.49,371.968 3282.98,379.19 3284.48,328.528 3285.97,399.511 3287.47,344.262 3288.97,398.981 3290.46,445.765 3291.96,424.643 3293.45,378.917 3294.95,326.417 3296.45,486.483 3297.94,375.979 3299.44,318.089 3300.94,332.708 3302.43,330.181 3303.93,323.308 3305.42,329.457 3306.92,401.886 3308.42,532.217 3309.91,477.366 3311.41,360.281 3312.9,329.76 3314.4,364.734 3315.9,499.636 3317.39,440.788 3318.89,431.463 3320.38,361.882 3321.88,402.05 3323.38,338.11 3324.87,340.335 3326.37,315.233 3327.86,373.874 3329.36,329.993 3330.86,312.401 3332.35,319.326 3333.85,365.86 3335.34,324.822 3336.84,333.264 3338.34,414.143 3339.83,317.33 3341.33,423.274 3342.83,321.339 3344.32,423.241 3345.82,406.034 3347.31,349.553 3348.81,345.593 3350.31,324.22 3351.8,325.421 3353.3,339.071 3354.79,373.726 3356.29,328.29 3357.79,335.999 3359.28,352.133 3360.78,392.458 3362.27,369.577 3363.77,334.18 3365.27,337.642 3366.76,320.939 3368.26,383.19 3369.75,339.376 3371.25,497.72 3372.75,339.314 3374.24,329.812 3375.74,339.329 3377.24,495.092 3378.73,339.789 3380.23,357.463 3381.72,411.244 3383.22,342.539 3384.72,382.52 3386.21,373.06 3387.71,343.653 3389.2,356.894 3390.7,325.434 3392.2,321.712 3393.69,427.791 3395.19,328.949 3396.68,377.707 3398.18,415.176 3399.68,347.962 3401.17,362.411 3402.67,347.677 3404.16,429.58 3405.66,472.316 3407.16,367.075 3408.65,325.687 3410.15,340.513 3411.65,404.536 3413.14,412.799 3414.64,425.45 3416.13,331.628 3417.63,338.741 3419.13,322.386 3420.62,330.862 3422.12,328.656 3423.61,473.778 3425.11,342.133 3426.61,392.909 3428.1,342.944 3429.6,457.177 3431.09,330.778 3432.59,322.758 3434.09,344.239 3435.58,429.181 3437.08,333.598 3438.57,326.793 3440.07,338.085 3441.57,430.917 3443.06,331.767 3444.56,369.118 3446.06,430.951 3447.55,356.434 3449.05,319.977 3450.54,448.352 3452.04,318.86 3453.54,358.52 3455.03,463.593 3456.53,314.825 "/>
<path clip-path="url(#clip430)" d="M2996.98 166.762 L3439.42 166.762 L3439.42 63.0816 L2996.98 63.0816  Z" fill="#ffffff" fill-rule="evenodd" fill-opacity="1"/>
<polyline clip-path="url(#clip430)" style="stroke:#000000; stroke-linecap:round; stroke-linejoin:round; stroke-width:4; stroke-opacity:1; fill:none" points="2996.98,166.762 3439.42,166.762 3439.42,63.0816 2996.98,63.0816 2996.98,166.762 "/>
<polyline clip-path="url(#clip430)" style="stroke:#009af9; stroke-linecap:round; stroke-linejoin:round; stroke-width:2; stroke-opacity:1; fill:none" points="3034.76,114.922 3261.43,114.922 "/>
<path clip-path="url(#clip430)" d="M3299.21 97.6416 L3303.89 97.6416 L3303.89 111.808 L3320.88 111.808 L3320.88 97.6416 L3325.55 97.6416 L3325.55 132.202 L3320.88 132.202 L3320.88 115.743 L3303.89 115.743 L3303.89 132.202 L3299.21 132.202 L3299.21 97.6416 Z" fill="#000000" fill-rule="evenodd" fill-opacity="1" /><path clip-path="url(#clip430)" d="M3334.86 97.6416 L3341.83 97.6416 L3350.65 121.16 L3359.51 97.6416 L3366.48 97.6416 L3366.48 132.202 L3361.92 132.202 L3361.92 101.854 L3353.01 125.558 L3348.31 125.558 L3339.4 101.854 L3339.4 132.202 L3334.86 132.202 L3334.86 97.6416 Z" fill="#000000" fill-rule="evenodd" fill-opacity="1" /><path clip-path="url(#clip430)" d="M3401.64 100.304 L3401.64 105.234 Q3399.28 103.035 3396.6 101.947 Q3393.93 100.859 3390.92 100.859 Q3385 100.859 3381.85 104.493 Q3378.7 108.104 3378.7 114.956 Q3378.7 121.785 3381.85 125.419 Q3385 129.03 3390.92 129.03 Q3393.93 129.03 3396.6 127.942 Q3399.28 126.854 3401.64 124.655 L3401.64 129.54 Q3399.19 131.206 3396.43 132.04 Q3393.7 132.873 3390.65 132.873 Q3382.8 132.873 3378.29 128.081 Q3373.77 123.266 3373.77 114.956 Q3373.77 106.623 3378.29 101.831 Q3382.8 97.0166 3390.65 97.0166 Q3393.75 97.0166 3396.48 97.8499 Q3399.23 98.6601 3401.64 100.304 Z" fill="#000000" fill-rule="evenodd" fill-opacity="1" /></svg>
