<?xml version="1.0" encoding="utf-8"?>
<svg xmlns="http://www.w3.org/2000/svg" xmlns:xlink="http://www.w3.org/1999/xlink" width="900" height="150" viewBox="0 0 3600 600">
<defs>
  <clipPath id="clip530">
    <rect x="0" y="0" width="3600" height="600"/>
  </clipPath>
</defs>
<path clip-path="url(#clip530)" d="M0 600 L3600 600 L3600 0 L0 0  Z" fill="#ffffff" fill-rule="evenodd" fill-opacity="1"/>
<defs>
  <clipPath id="clip531">
    <rect x="720" y="0" width="2521" height="600"/>
  </clipPath>
</defs>
<path clip-path="url(#clip530)" d="M152.696 522.368 L3552.76 522.368 L3552.76 47.2441 L152.696 47.2441  Z" fill="#ffffff" fill-rule="evenodd" fill-opacity="1"/>
<defs>
  <clipPath id="clip532">
    <rect x="152" y="47" width="3401" height="476"/>
  </clipPath>
</defs>
<polyline clip-path="url(#clip532)" style="stroke:#000000; stroke-linecap:round; stroke-linejoin:round; stroke-width:2; stroke-opacity:0.1; fill:none" points="247.026,522.368 247.026,47.2441 "/>
<polyline clip-path="url(#clip532)" style="stroke:#000000; stroke-linecap:round; stroke-linejoin:round; stroke-width:2; stroke-opacity:0.1; fill:none" points="1196.02,522.368 1196.02,47.2441 "/>
<polyline clip-path="url(#clip532)" style="stroke:#000000; stroke-linecap:round; stroke-linejoin:round; stroke-width:2; stroke-opacity:0.1; fill:none" points="2145.02,522.368 2145.02,47.2441 "/>
<polyline clip-path="url(#clip532)" style="stroke:#000000; stroke-linecap:round; stroke-linejoin:round; stroke-width:2; stroke-opacity:0.1; fill:none" points="3094.01,522.368 3094.01,47.2441 "/>
<polyline clip-path="url(#clip530)" style="stroke:#000000; stroke-linecap:round; stroke-linejoin:round; stroke-width:4; stroke-opacity:1; fill:none" points="152.696,522.368 3552.76,522.368 "/>
<polyline clip-path="url(#clip530)" style="stroke:#000000; stroke-linecap:round; stroke-linejoin:round; stroke-width:4; stroke-opacity:1; fill:none" points="247.026,522.368 247.026,503.47 "/>
<polyline clip-path="url(#clip530)" style="stroke:#000000; stroke-linecap:round; stroke-linejoin:round; stroke-width:4; stroke-opacity:1; fill:none" points="1196.02,522.368 1196.02,503.47 "/>
<polyline clip-path="url(#clip530)" style="stroke:#000000; stroke-linecap:round; stroke-linejoin:round; stroke-width:4; stroke-opacity:1; fill:none" points="2145.02,522.368 2145.02,503.47 "/>
<polyline clip-path="url(#clip530)" style="stroke:#000000; stroke-linecap:round; stroke-linejoin:round; stroke-width:4; stroke-opacity:1; fill:none" points="3094.01,522.368 3094.01,503.47 "/>
<path clip-path="url(#clip530)" d="M247.026 562.887 Q243.415 562.887 241.586 566.451 Q239.78 569.993 239.78 577.123 Q239.78 584.229 241.586 587.794 Q243.415 591.335 247.026 591.335 Q250.66 591.335 252.465 587.794 Q254.294 584.229 254.294 577.123 Q254.294 569.993 252.465 566.451 Q250.66 562.887 247.026 562.887 M247.026 559.183 Q252.836 559.183 255.891 563.789 Q258.97 568.373 258.97 577.123 Q258.97 585.849 255.891 590.456 Q252.836 595.039 247.026 595.039 Q241.216 595.039 238.137 590.456 Q235.081 585.849 235.081 577.123 Q235.081 568.373 238.137 563.789 Q241.216 559.183 247.026 559.183 Z" fill="#000000" fill-rule="evenodd" fill-opacity="1" /><path clip-path="url(#clip530)" d="M1155.64 559.808 L1174 559.808 L1174 563.743 L1159.92 563.743 L1159.92 572.215 Q1160.94 571.868 1161.96 571.706 Q1162.98 571.521 1164 571.521 Q1169.78 571.521 1173.16 574.692 Q1176.54 577.863 1176.54 583.28 Q1176.54 588.859 1173.07 591.96 Q1169.6 595.039 1163.28 595.039 Q1161.1 595.039 1158.83 594.669 Q1156.59 594.298 1154.18 593.558 L1154.18 588.859 Q1156.26 589.993 1158.49 590.548 Q1160.71 591.104 1163.19 591.104 Q1167.19 591.104 1169.53 588.998 Q1171.87 586.891 1171.87 583.28 Q1171.87 579.669 1169.53 577.562 Q1167.19 575.456 1163.19 575.456 Q1161.31 575.456 1159.44 575.873 Q1157.58 576.289 1155.64 577.169 L1155.64 559.808 Z" fill="#000000" fill-rule="evenodd" fill-opacity="1" /><path clip-path="url(#clip530)" d="M1195.75 562.887 Q1192.14 562.887 1190.31 566.451 Q1188.51 569.993 1188.51 577.123 Q1188.51 584.229 1190.31 587.794 Q1192.14 591.335 1195.75 591.335 Q1199.39 591.335 1201.19 587.794 Q1203.02 584.229 1203.02 577.123 Q1203.02 569.993 1201.19 566.451 Q1199.39 562.887 1195.75 562.887 M1195.75 559.183 Q1201.56 559.183 1204.62 563.789 Q1207.7 568.373 1207.7 577.123 Q1207.7 585.849 1204.62 590.456 Q1201.56 595.039 1195.75 595.039 Q1189.94 595.039 1186.87 590.456 Q1183.81 585.849 1183.81 577.123 Q1183.81 568.373 1186.87 563.789 Q1189.94 559.183 1195.75 559.183 Z" fill="#000000" fill-rule="evenodd" fill-opacity="1" /><path clip-path="url(#clip530)" d="M1225.92 562.887 Q1222.31 562.887 1220.48 566.451 Q1218.67 569.993 1218.67 577.123 Q1218.67 584.229 1220.48 587.794 Q1222.31 591.335 1225.92 591.335 Q1229.55 591.335 1231.36 587.794 Q1233.19 584.229 1233.19 577.123 Q1233.19 569.993 1231.36 566.451 Q1229.55 562.887 1225.92 562.887 M1225.92 559.183 Q1231.73 559.183 1234.78 563.789 Q1237.86 568.373 1237.86 577.123 Q1237.86 585.849 1234.78 590.456 Q1231.73 595.039 1225.92 595.039 Q1220.11 595.039 1217.03 590.456 Q1213.97 585.849 1213.97 577.123 Q1213.97 568.373 1217.03 563.789 Q1220.11 559.183 1225.92 559.183 Z" fill="#000000" fill-rule="evenodd" fill-opacity="1" /><path clip-path="url(#clip530)" d="M2089.54 590.433 L2097.18 590.433 L2097.18 564.067 L2088.87 565.734 L2088.87 561.475 L2097.13 559.808 L2101.81 559.808 L2101.81 590.433 L2109.45 590.433 L2109.45 594.368 L2089.54 594.368 L2089.54 590.433 Z" fill="#000000" fill-rule="evenodd" fill-opacity="1" /><path clip-path="url(#clip530)" d="M2128.89 562.887 Q2125.28 562.887 2123.45 566.451 Q2121.65 569.993 2121.65 577.123 Q2121.65 584.229 2123.45 587.794 Q2125.28 591.335 2128.89 591.335 Q2132.53 591.335 2134.33 587.794 Q2136.16 584.229 2136.16 577.123 Q2136.16 569.993 2134.33 566.451 Q2132.53 562.887 2128.89 562.887 M2128.89 559.183 Q2134.7 559.183 2137.76 563.789 Q2140.84 568.373 2140.84 577.123 Q2140.84 585.849 2137.76 590.456 Q2134.7 595.039 2128.89 595.039 Q2123.08 595.039 2120 590.456 Q2116.95 585.849 2116.95 577.123 Q2116.95 568.373 2120 563.789 Q2123.08 559.183 2128.89 559.183 Z" fill="#000000" fill-rule="evenodd" fill-opacity="1" /><path clip-path="url(#clip530)" d="M2159.06 562.887 Q2155.44 562.887 2153.62 566.451 Q2151.81 569.993 2151.81 577.123 Q2151.81 584.229 2153.62 587.794 Q2155.44 591.335 2159.06 591.335 Q2162.69 591.335 2164.5 587.794 Q2166.32 584.229 2166.32 577.123 Q2166.32 569.993 2164.5 566.451 Q2162.69 562.887 2159.06 562.887 M2159.06 559.183 Q2164.87 559.183 2167.92 563.789 Q2171 568.373 2171 577.123 Q2171 585.849 2167.92 590.456 Q2164.87 595.039 2159.06 595.039 Q2153.25 595.039 2150.17 590.456 Q2147.11 585.849 2147.11 577.123 Q2147.11 568.373 2150.17 563.789 Q2153.25 559.183 2159.06 559.183 Z" fill="#000000" fill-rule="evenodd" fill-opacity="1" /><path clip-path="url(#clip530)" d="M2189.22 562.887 Q2185.61 562.887 2183.78 566.451 Q2181.97 569.993 2181.97 577.123 Q2181.97 584.229 2183.78 587.794 Q2185.61 591.335 2189.22 591.335 Q2192.85 591.335 2194.66 587.794 Q2196.49 584.229 2196.49 577.123 Q2196.49 569.993 2194.66 566.451 Q2192.85 562.887 2189.22 562.887 M2189.22 559.183 Q2195.03 559.183 2198.08 563.789 Q2201.16 568.373 2201.16 577.123 Q2201.16 585.849 2198.08 590.456 Q2195.03 595.039 2189.22 595.039 Q2183.41 595.039 2180.33 590.456 Q2177.27 585.849 2177.27 577.123 Q2177.27 568.373 2180.33 563.789 Q2183.41 559.183 2189.22 559.183 Z" fill="#000000" fill-rule="evenodd" fill-opacity="1" /><path clip-path="url(#clip530)" d="M3038.54 590.433 L3046.18 590.433 L3046.18 564.067 L3037.87 565.734 L3037.87 561.475 L3046.13 559.808 L3050.81 559.808 L3050.81 590.433 L3058.44 590.433 L3058.44 594.368 L3038.54 594.368 L3038.54 590.433 Z" fill="#000000" fill-rule="evenodd" fill-opacity="1" /><path clip-path="url(#clip530)" d="M3067.94 559.808 L3086.29 559.808 L3086.29 563.743 L3072.22 563.743 L3072.22 572.215 Q3073.24 571.868 3074.25 571.706 Q3075.27 571.521 3076.29 571.521 Q3082.08 571.521 3085.46 574.692 Q3088.84 577.863 3088.84 583.28 Q3088.84 588.859 3085.37 591.96 Q3081.89 595.039 3075.57 595.039 Q3073.4 595.039 3071.13 594.669 Q3068.88 594.298 3066.48 593.558 L3066.48 588.859 Q3068.56 589.993 3070.78 590.548 Q3073 591.104 3075.48 591.104 Q3079.49 591.104 3081.82 588.998 Q3084.16 586.891 3084.16 583.28 Q3084.16 579.669 3081.82 577.562 Q3079.49 575.456 3075.48 575.456 Q3073.61 575.456 3071.73 575.873 Q3069.88 576.289 3067.94 577.169 L3067.94 559.808 Z" fill="#000000" fill-rule="evenodd" fill-opacity="1" /><path clip-path="url(#clip530)" d="M3108.05 562.887 Q3104.44 562.887 3102.61 566.451 Q3100.81 569.993 3100.81 577.123 Q3100.81 584.229 3102.61 587.794 Q3104.44 591.335 3108.05 591.335 Q3111.69 591.335 3113.49 587.794 Q3115.32 584.229 3115.32 577.123 Q3115.32 569.993 3113.49 566.451 Q3111.69 562.887 3108.05 562.887 M3108.05 559.183 Q3113.86 559.183 3116.92 563.789 Q3120 568.373 3120 577.123 Q3120 585.849 3116.92 590.456 Q3113.86 595.039 3108.05 595.039 Q3102.24 595.039 3099.16 590.456 Q3096.11 585.849 3096.11 577.123 Q3096.11 568.373 3099.16 563.789 Q3102.24 559.183 3108.05 559.183 Z" fill="#000000" fill-rule="evenodd" fill-opacity="1" /><path clip-path="url(#clip530)" d="M3138.21 562.887 Q3134.6 562.887 3132.77 566.451 Q3130.97 569.993 3130.97 577.123 Q3130.97 584.229 3132.77 587.794 Q3134.6 591.335 3138.21 591.335 Q3141.85 591.335 3143.65 587.794 Q3145.48 584.229 3145.48 577.123 Q3145.48 569.993 3143.65 566.451 Q3141.85 562.887 3138.21 562.887 M3138.21 559.183 Q3144.02 559.183 3147.08 563.789 Q3150.16 568.373 3150.16 577.123 Q3150.16 585.849 3147.08 590.456 Q3144.02 595.039 3138.21 595.039 Q3132.4 595.039 3129.32 590.456 Q3126.27 585.849 3126.27 577.123 Q3126.27 568.373 3129.32 563.789 Q3132.4 559.183 3138.21 559.183 Z" fill="#000000" fill-rule="evenodd" fill-opacity="1" /><polyline clip-path="url(#clip532)" style="stroke:#000000; stroke-linecap:round; stroke-linejoin:round; stroke-width:2; stroke-opacity:0.1; fill:none" points="152.696,449.645 3552.76,449.645 "/>
<polyline clip-path="url(#clip532)" style="stroke:#000000; stroke-linecap:round; stroke-linejoin:round; stroke-width:2; stroke-opacity:0.1; fill:none" points="152.696,328.44 3552.76,328.44 "/>
<polyline clip-path="url(#clip532)" style="stroke:#000000; stroke-linecap:round; stroke-linejoin:round; stroke-width:2; stroke-opacity:0.1; fill:none" points="152.696,207.235 3552.76,207.235 "/>
<polyline clip-path="url(#clip532)" style="stroke:#000000; stroke-linecap:round; stroke-linejoin:round; stroke-width:2; stroke-opacity:0.1; fill:none" points="152.696,86.0297 3552.76,86.0297 "/>
<polyline clip-path="url(#clip530)" style="stroke:#000000; stroke-linecap:round; stroke-linejoin:round; stroke-width:4; stroke-opacity:1; fill:none" points="152.696,522.368 152.696,47.2441 "/>
<polyline clip-path="url(#clip530)" style="stroke:#000000; stroke-linecap:round; stroke-linejoin:round; stroke-width:4; stroke-opacity:1; fill:none" points="152.696,449.645 171.593,449.645 "/>
<polyline clip-path="url(#clip530)" style="stroke:#000000; stroke-linecap:round; stroke-linejoin:round; stroke-width:4; stroke-opacity:1; fill:none" points="152.696,328.44 171.593,328.44 "/>
<polyline clip-path="url(#clip530)" style="stroke:#000000; stroke-linecap:round; stroke-linejoin:round; stroke-width:4; stroke-opacity:1; fill:none" points="152.696,207.235 171.593,207.235 "/>
<polyline clip-path="url(#clip530)" style="stroke:#000000; stroke-linecap:round; stroke-linejoin:round; stroke-width:4; stroke-opacity:1; fill:none" points="152.696,86.0297 171.593,86.0297 "/>
<path clip-path="url(#clip530)" d="M77.7929 432.365 L96.1493 432.365 L96.1493 436.3 L82.0753 436.3 L82.0753 444.772 Q83.0938 444.425 84.1123 444.263 Q85.1308 444.078 86.1493 444.078 Q91.9363 444.078 95.3159 447.249 Q98.6955 450.42 98.6955 455.837 Q98.6955 461.416 95.2233 464.517 Q91.7511 467.596 85.4317 467.596 Q83.2558 467.596 80.9873 467.226 Q78.7419 466.855 76.3346 466.115 L76.3346 461.416 Q78.4179 462.55 80.6401 463.105 Q82.8623 463.661 85.3391 463.661 Q89.3437 463.661 91.6817 461.555 Q94.0196 459.448 94.0196 455.837 Q94.0196 452.226 91.6817 450.119 Q89.3437 448.013 85.3391 448.013 Q83.4641 448.013 81.5892 448.43 Q79.7373 448.846 77.7929 449.726 L77.7929 432.365 Z" fill="#000000" fill-rule="evenodd" fill-opacity="1" /><path clip-path="url(#clip530)" d="M47.3995 341.785 L55.0384 341.785 L55.0384 315.419 L46.7282 317.086 L46.7282 312.826 L54.9921 311.16 L59.668 311.16 L59.668 341.785 L67.3068 341.785 L67.3068 345.72 L47.3995 345.72 L47.3995 341.785 Z" fill="#000000" fill-rule="evenodd" fill-opacity="1" /><path clip-path="url(#clip530)" d="M86.7512 314.238 Q83.1401 314.238 81.3114 317.803 Q79.5058 321.345 79.5058 328.475 Q79.5058 335.581 81.3114 339.146 Q83.1401 342.687 86.7512 342.687 Q90.3854 342.687 92.1909 339.146 Q94.0196 335.581 94.0196 328.475 Q94.0196 321.345 92.1909 317.803 Q90.3854 314.238 86.7512 314.238 M86.7512 310.535 Q92.5613 310.535 95.6169 315.141 Q98.6955 319.725 98.6955 328.475 Q98.6955 337.201 95.6169 341.808 Q92.5613 346.391 86.7512 346.391 Q80.941 346.391 77.8623 341.808 Q74.8068 337.201 74.8068 328.475 Q74.8068 319.725 77.8623 315.141 Q80.941 310.535 86.7512 310.535 Z" fill="#000000" fill-rule="evenodd" fill-opacity="1" /><path clip-path="url(#clip530)" d="M48.3949 220.58 L56.0337 220.58 L56.0337 194.214 L47.7236 195.881 L47.7236 191.621 L55.9874 189.955 L60.6633 189.955 L60.6633 220.58 L68.3022 220.58 L68.3022 224.515 L48.3949 224.515 L48.3949 220.58 Z" fill="#000000" fill-rule="evenodd" fill-opacity="1" /><path clip-path="url(#clip530)" d="M77.7929 189.955 L96.1493 189.955 L96.1493 193.89 L82.0753 193.89 L82.0753 202.362 Q83.0938 202.015 84.1123 201.853 Q85.1308 201.668 86.1493 201.668 Q91.9363 201.668 95.3159 204.839 Q98.6955 208.01 98.6955 213.427 Q98.6955 219.006 95.2233 222.107 Q91.7511 225.186 85.4317 225.186 Q83.2558 225.186 80.9873 224.816 Q78.7419 224.445 76.3346 223.705 L76.3346 219.006 Q78.4179 220.14 80.6401 220.695 Q82.8623 221.251 85.3391 221.251 Q89.3437 221.251 91.6817 219.144 Q94.0196 217.038 94.0196 213.427 Q94.0196 209.816 91.6817 207.709 Q89.3437 205.603 85.3391 205.603 Q83.4641 205.603 81.5892 206.019 Q79.7373 206.436 77.7929 207.316 L77.7929 189.955 Z" fill="#000000" fill-rule="evenodd" fill-opacity="1" /><path clip-path="url(#clip530)" d="M50.6171 99.3745 L66.9365 99.3745 L66.9365 103.31 L44.9921 103.31 L44.9921 99.3745 Q47.6541 96.6199 52.2375 91.9903 Q56.8439 87.3376 58.0245 85.995 Q60.2698 83.4719 61.1494 81.7358 Q62.0522 79.9765 62.0522 78.2867 Q62.0522 75.5321 60.1078 73.796 Q58.1865 72.0599 55.0847 72.0599 Q52.8856 72.0599 50.4319 72.8238 Q48.0014 73.5876 45.2236 75.1386 L45.2236 70.4164 Q48.0477 69.2821 50.5014 68.7034 Q52.955 68.1247 54.9921 68.1247 Q60.3624 68.1247 63.5568 70.8099 Q66.7513 73.4951 66.7513 77.9858 Q66.7513 80.1154 65.9411 82.0367 Q65.1541 83.9348 63.0476 86.5274 Q62.4689 87.1987 59.367 90.4163 Q56.2652 93.6107 50.6171 99.3745 Z" fill="#000000" fill-rule="evenodd" fill-opacity="1" /><path clip-path="url(#clip530)" d="M86.7512 71.8284 Q83.1401 71.8284 81.3114 75.3932 Q79.5058 78.9348 79.5058 86.0644 Q79.5058 93.1709 81.3114 96.7357 Q83.1401 100.277 86.7512 100.277 Q90.3854 100.277 92.1909 96.7357 Q94.0196 93.1709 94.0196 86.0644 Q94.0196 78.9348 92.1909 75.3932 Q90.3854 71.8284 86.7512 71.8284 M86.7512 68.1247 Q92.5613 68.1247 95.6169 72.7312 Q98.6955 77.3145 98.6955 86.0644 Q98.6955 94.7912 95.6169 99.3977 Q92.5613 103.981 86.7512 103.981 Q80.941 103.981 77.8623 99.3977 Q74.8068 94.7912 74.8068 86.0644 Q74.8068 77.3145 77.8623 72.7312 Q80.941 68.1247 86.7512 68.1247 Z" fill="#000000" fill-rule="evenodd" fill-opacity="1" /><polyline clip-path="url(#clip532)" style="stroke:#009af9; stroke-linecap:round; stroke-linejoin:round; stroke-width:2; stroke-opacity:1; fill:none" points="248.924,158.417 250.822,153.754 252.72,140.222 254.618,130.169 256.516,145.906 258.414,133.888 260.312,123.576 262.21,139.558 264.108,130.006 266.006,145.955 267.904,121.494 269.802,128.807 271.7,143.557 273.598,125.336 275.496,141.216 277.394,132.076 279.292,123.224 281.19,126.742 283.087,138.903 284.985,124.556 286.883,127.154 288.781,144.064 290.679,121.331 292.577,334.745 294.475,376.108 296.373,346.103 298.271,341.33 300.169,145.107 302.067,128.869 303.965,135.845 305.863,138.052 307.761,130.072 309.659,130.449 311.557,144.316 313.455,138.01 315.353,122.122 317.251,130.324 319.149,139.886 321.047,141.63 322.945,140.847 324.843,132.877 326.741,130.755 328.639,143.858 330.537,139.374 332.435,130.277 334.333,132.904 336.231,122.424 338.129,145.815 340.027,127.997 341.925,126.62 343.823,144.304 345.721,144.868 347.619,140.52 349.517,138.6 351.415,135.113 353.313,132.281 355.211,143.061 357.109,147.914 359.007,130.414 360.905,131.159 362.803,131.741 364.701,146.386 366.599,140.19 368.497,150.968 370.395,150.931 372.293,156.814 374.191,113.454 376.089,127.526 377.987,151.956 379.885,135.397 381.783,326.302 383.681,353.141 385.579,339.522 387.477,326.337 389.375,326.315 391.273,345.684 393.171,333.997 395.069,379.084 396.967,416.606 398.865,133.445 400.763,151.616 402.661,144.686 404.559,134.36 406.457,142.199 408.355,123.56 410.253,134.013 412.151,126.184 414.049,131.01 415.947,119.787 417.845,118.329 419.743,137.877 421.641,145.629 423.539,137.722 425.437,144.026 427.335,126.003 429.233,138.968 431.131,126.966 433.029,132.959 434.927,135.821 436.825,122.61 438.723,141.844 440.621,126.831 442.519,117.855 444.417,138.604 446.315,147.204 448.213,140.589 450.111,124.712 452.009,145.825 453.907,127.753 455.805,139.507 457.703,136.123 459.601,126.053 461.499,123.588 463.397,151.028 465.295,125.818 467.193,116.981 469.091,147.254 470.989,135.496 472.887,134.935 474.785,139.942 476.683,137.087 478.581,155.363 480.479,140.593 482.377,129.268 484.275,141.238 486.172,144.238 488.07,139.615 489.968,141.15 491.866,125.686 493.764,120.124 495.662,136.144 497.56,146.496 499.458,140.954 501.356,132.147 503.254,134.104 505.152,126.654 507.05,136.377 508.948,134.374 510.846,125.917 512.744,139.051 514.642,136.39 516.54,139.038 518.438,127.331 520.336,142.385 522.234,143.179 524.132,144.881 526.03,118.591 527.928,323.761 529.826,144.725 531.724,122.804 533.622,139.861 535.52,137.377 537.418,135.641 539.316,148.038 541.214,133.443 543.112,141.114 545.01,125.942 546.908,146.442 548.806,337.788 550.704,326.988 552.602,327.816 554.5,318.831 556.398,332.217 558.296,321.56 560.194,423.96 562.092,328.305 563.99,330.038 565.888,328.474 567.786,328.397 569.684,450.891 571.582,335.319 573.48,465.677 575.378,397.541 577.276,326.091 579.174,326.041 581.072,319.586 582.97,317.04 584.868,381.318 586.766,129.35 588.664,326.201 590.562,338.414 592.46,369.632 594.358,389.909 596.256,356.493 598.154,346.694 600.052,321.167 601.95,326.231 603.848,335.996 605.746,125.771 607.644,125.09 609.542,147.456 611.44,135.696 613.338,134.931 615.236,142.346 617.134,126.921 619.032,139.861 620.93,133.691 622.828,143.686 624.726,126.225 626.624,137.815 628.522,126.189 630.42,145.045 632.318,139.034 634.216,125.59 636.114,142.259 638.012,156.35 639.91,125.694 641.808,142.495 643.706,127.364 645.604,143.417 647.502,128.645 649.4,153.574 651.298,131.318 653.196,130.669 655.094,146.302 656.992,134.2 658.89,141.394 660.788,379.385 662.686,482.42 664.584,393.408 666.482,422.406 668.38,381.721 670.278,132.789 672.176,138.56 674.074,122.809 675.972,126.265 677.87,140.165 679.768,143.435 681.666,133.536 683.564,135.524 685.462,132.241 687.359,138.222 689.257,139.789 691.155,128.212 693.053,138.238 694.951,134.662 696.849,127.839 698.747,134.528 700.645,317.98 702.543,327.697 704.441,316.686 706.339,114.398 708.237,146.872 710.135,136.97 712.033,136.772 713.931,128.923 715.829,133.943 717.727,127.804 719.625,134.719 721.523,122.867 723.421,141.861 725.319,121.09 727.217,138.969 729.115,141.942 731.013,125.128 732.911,120.38 734.809,333.558 736.707,371.758 738.605,327.591 740.503,375.956 742.401,347.23 744.299,399.024 746.197,351.633 748.095,432.475 749.993,137.683 751.891,151.707 753.789,323.142 755.687,123.036 757.585,140.582 759.483,136.809 761.381,146.052 763.279,130.691 765.177,129.088 767.075,138.257 768.973,137.685 770.871,135.668 772.769,127.827 774.667,138.152 776.565,123.067 778.463,121.81 780.361,141.226 782.259,146.887 784.157,147.359 786.055,123.392 787.953,144.611 789.851,144.232 791.749,143.967 793.647,124.905 795.545,132.474 797.443,143.253 799.341,127.12 801.239,126.872 803.137,141.803 805.035,137.721 806.933,129.831 808.831,136.468 810.729,144.085 812.627,131.435 814.525,138.118 816.423,119.198 818.321,153.156 820.219,144.437 822.117,143.116 824.015,157.48 825.913,128.617 827.811,140.698 829.709,147.249 831.607,121.001 833.505,122.947 835.403,153.903 837.301,149.638 839.199,120.329 841.097,144.402 842.995,125.607 844.893,143.827 846.791,130.531 848.689,121.529 850.587,127.398 852.485,142.131 854.383,142.035 856.281,140.142 858.179,147.297 860.077,118.886 861.975,128.11 863.873,131.684 865.771,135.795 867.669,130.733 869.567,142.051 871.465,132.787 873.363,138.599 875.261,132.769 877.159,134.95 879.057,131.444 880.955,140.525 882.853,347.989 884.751,332.34 886.649,473.707 888.546,418.762 890.444,325.276 892.342,331.661 894.24,435.326 896.138,438.723 898.036,440.341 899.934,396.791 901.832,442.07 903.73,323.487 905.628,143.009 907.526,126.81 909.424,137.49 911.322,133.678 913.22,126.175 915.118,131.571 917.016,123.358 918.914,131.046 920.812,116.996 922.71,142.566 924.608,145.016 926.506,127.452 928.404,154.987 930.302,139.296 932.2,326.979 934.098,405.221 935.996,363.625 937.894,369.426 939.792,334.301 941.69,386.463 943.588,356.782 945.486,475.707 947.384,359.593 949.282,321.499 951.18,136.398 953.078,152.617 954.976,128.095 956.874,141.764 958.772,122.722 960.67,130.681 962.568,136.252 964.466,134.691 966.364,137.529 968.262,126.286 970.16,141.321 972.058,137.47 973.956,145.108 975.854,147.862 977.752,136.641 979.65,129.02 981.548,139.226 983.446,128.683 985.344,139.02 987.242,137.676 989.14,131.967 991.038,156.474 992.936,139.214 994.834,142.292 996.732,126.895 998.63,138.679 1000.53,148.712 1002.43,340.019 1004.32,135.349 1006.22,131.416 1008.12,144.696 1010.02,121.207 1011.92,129.581 1013.81,140.881 1015.71,143.978 1017.61,124.64 1019.51,134.615 1021.41,134.853 1023.3,146.156 1025.2,129.053 1027.1,348.868 1029,364.361 1030.9,407.041 1032.79,143.453 1034.69,141.883 1036.59,148.356 1038.49,152.897 1040.39,150.133 1042.28,136.874 1044.18,117.645 1046.08,137.832 1047.98,124.076 1049.88,150.497 1051.77,133.522 1053.67,133.075 1055.57,129.017 1057.47,111.236 1059.37,138.239 1061.26,131.647 1063.16,130.414 1065.06,140.763 1066.96,140.249 1068.86,129.998 1070.75,108.045 1072.65,152.185 1074.55,145.991 1076.45,135.634 1078.35,144.732 1080.24,129.839 1082.14,120.338 1084.04,128.169 1085.94,139.088 1087.84,141.347 1089.73,396.8 1091.63,380.814 1093.53,321.272 1095.43,320.438 1097.33,370.116 1099.22,352.144 1101.12,340.092 1103.02,437.851 1104.92,335.234 1106.82,334.106 1108.71,418.954 1110.61,349.541 1112.51,339.441 1114.41,488.538 1116.31,379.845 1118.2,373.008 1120.1,490.475 1122,412.932 1123.9,399.351 1125.8,464.36 1127.69,476.339 1129.59,414.647 1131.49,335.816 1133.39,332.474 1135.29,337.807 1137.18,324.293 1139.08,332.148 1140.98,336.66 1142.88,315.518 1144.78,332.726 1146.67,318.262 1148.57,327.672 1150.47,318.695 1152.37,320.172 1154.27,461.724 1156.16,311.972 1158.06,392.513 1159.96,381.502 1161.86,408.075 1163.76,393.265 1165.65,426.386 1167.55,428.542 1169.45,327.839 1171.35,331.231 1173.25,325.427 1175.14,340.174 1177.04,123.037 1178.94,131.001 1180.84,129.841 1182.74,122.117 1184.63,134.783 1186.53,139.089 1188.43,127.216 1190.33,146.584 1192.22,121.519 1194.12,140.682 1196.02,136.471 1197.92,126.682 1199.82,124.955 1201.71,125.849 1203.61,137.543 1205.51,129.411 1207.41,127.954 1209.31,125.946 1211.2,130.988 1213.1,130.211 1215,143.63 1216.9,144.776 1218.8,324.123 1220.69,152.806 1222.59,135.853 1224.49,144.417 1226.39,125.93 1228.29,129.627 1230.18,126.313 1232.08,145.24 1233.98,142.053 1235.88,152.068 1237.78,158.272 1239.67,117.29 1241.57,113.045 1243.47,368.203 1245.37,123.111 1247.27,336.703 1249.16,336.699 1251.06,435.988 1252.96,399.918 1254.86,324.97 1256.76,331.302 1258.65,424.937 1260.55,457.01 1262.45,326.059 1264.35,339.722 1266.25,315.084 1268.14,144.002 1270.04,150.536 1271.94,148.682 1273.84,140.809 1275.74,316.693 1277.63,145.711 1279.53,139.818 1281.43,129.709 1283.33,137.227 1285.23,131.98 1287.12,145.375 1289.02,149.571 1290.92,135.133 1292.82,134.839 1294.72,317.2 1296.61,319.103 1298.51,123.478 1300.41,130.989 1302.31,134.336 1304.21,136.779 1306.1,148.065 1308,133.317 1309.9,136.342 1311.8,151.461 1313.7,121.689 1315.59,136.077 1317.49,144.64 1319.39,133.888 1321.29,136.899 1323.19,126.452 1325.08,137.819 1326.98,127.561 1328.88,135.226 1330.78,128.076 1332.68,157.394 1334.57,130.663 1336.47,145.322 1338.37,137.786 1340.27,136.878 1342.17,129.947 1344.06,149.817 1345.96,314.826 1347.86,317.221 1349.76,128.714 1351.66,142.715 1353.55,144.451 1355.45,124.41 1357.35,135.441 1359.25,141.993 1361.15,137.674 1363.04,130.39 1364.94,130.32 1366.84,119.734 1368.74,144.196 1370.64,128.524 1372.53,140.041 1374.43,137.633 1376.33,141.358 1378.23,134.594 1380.13,139.006 1382.02,144.59 1383.92,132.639 1385.82,136.524 1387.72,135.022 1389.62,147.875 1391.51,118.641 1393.41,135.85 1395.31,137.143 1397.21,138.364 1399.11,132.628 1401,126.704 1402.9,125.082 1404.8,138.272 1406.7,130.606 1408.6,126.816 1410.49,144.888 1412.39,118.105 1414.29,123.882 1416.19,116.577 1418.09,136.476 1419.98,140.279 1421.88,122.142 1423.78,154.497 1425.68,142.444 1427.58,391.886 1429.47,375.826 1431.37,501.105 1433.27,339.228 1435.17,316.294 1437.07,343.1 1438.96,349.024 1440.86,312.266 1442.76,132.166 1444.66,125.831 1446.56,122.142 1448.45,150.555 1450.35,137.977 1452.25,134.212 1454.15,127.816 1456.05,131.843 1457.94,316.205 1459.84,122.731 1461.74,140.725 1463.64,126.506 1465.54,135.142 1467.43,124.262 1469.33,123.477 1471.23,117.38 1473.13,137.113 1475.03,142.418 1476.92,124.848 1478.82,127.885 1480.72,138.802 1482.62,122.121 1484.52,146.902 1486.41,141.771 1488.31,139.29 1490.21,128.151 1492.11,129.462 1494.01,122.434 1495.9,125.377 1497.8,124.846 1499.7,122.199 1501.6,122.349 1503.5,146.454 1505.39,131.347 1507.29,137.619 1509.19,138.431 1511.09,127.531 1512.99,146.116 1514.88,143.406 1516.78,126.846 1518.68,127.17 1520.58,150.112 1522.48,334.551 1524.37,322.835 1526.27,327.282 1528.17,333.131 1530.07,132.491 1531.97,146.622 1533.86,319.525 1535.76,133.441 1537.66,132.79 1539.56,132.67 1541.46,138.877 1543.35,146.915 1545.25,150.78 1547.15,144.357 1549.05,128.704 1550.95,144.736 1552.84,116.263 1554.74,115.05 1556.64,134.189 1558.54,151.613 1560.44,140.438 1562.33,132.706 1564.23,140.12 1566.13,141.202 1568.03,132.433 1569.93,127.332 1571.82,124.492 1573.72,125.649 1575.62,128.183 1577.52,140.178 1579.42,124.551 1581.31,132.11 1583.21,131.53 1585.11,333.301 1587.01,322.001 1588.91,143.715 1590.8,142.545 1592.7,144.564 1594.6,132.972 1596.5,144.268 1598.39,129.764 1600.29,125.959 1602.19,140.538 1604.09,125.831 1605.99,141.32 1607.88,112.053 1609.78,134.366 1611.68,134.338 1613.58,138.284 1615.48,124.435 1617.37,142.604 1619.27,128.28 1621.17,128.84 1623.07,146.556 1624.97,134.556 1626.86,142.619 1628.76,132.176 1630.66,126.202 1632.56,121.262 1634.46,135.022 1636.35,133.748 1638.25,136.099 1640.15,139.194 1642.05,134.333 1643.95,137.509 1645.84,139.223 1647.74,137.223 1649.64,127.724 1651.54,125.526 1653.44,130.267 1655.33,134.941 1657.23,144.698 1659.13,124.357 1661.03,118.685 1662.93,135.859 1664.82,132.694 1666.72,133.688 1668.62,139.169 1670.52,131.589 1672.42,132.507 1674.31,133.107 1676.21,136.569 1678.11,130.946 1680.01,126.284 1681.91,138.497 1683.8,127.316 1685.7,125.847 1687.6,133.153 1689.5,131.069 1691.4,117.259 1693.29,148.188 1695.19,128.48 1697.09,120.567 1698.99,128.932 1700.89,128.08 1702.78,138.538 1704.68,136.843 1706.58,128.788 1708.48,131.51 1710.38,144.32 1712.27,121.808 1714.17,345.567 1716.07,397.275 1717.97,320.573 1719.87,335.397 1721.76,316.76 1723.66,405.336 1725.56,312.688 1727.46,403.625 1729.36,397.956 1731.25,423.657 1733.15,409.178 1735.05,318.487 1736.95,337.323 1738.85,336.092 1740.74,325.785 1742.64,144.158 1744.54,136.885 1746.44,140.934 1748.34,130.915 1750.23,130.029 1752.13,133.511 1754.03,121.649 1755.93,143.432 1757.83,124.735 1759.72,130.183 1761.62,129.256 1763.52,131.744 1765.42,120.284 1767.32,121.889 1769.21,136.44 1771.11,129.614 1773.01,127.453 1774.91,132.348 1776.81,146.048 1778.7,140.311 1780.6,130.491 1782.5,112.079 1784.4,135.452 1786.3,120.718 1788.19,151.114 1790.09,145.352 1791.99,121.405 1793.89,147.615 1795.79,133.161 1797.68,137.63 1799.58,133.62 1801.48,145.451 1803.38,335.988 1805.28,333.709 1807.17,136.001 1809.07,123.764 1810.97,121.293 1812.87,116.177 1814.77,338.758 1816.66,324.393 1818.56,435.237 1820.46,389.325 1822.36,332.818 1824.26,348.502 1826.15,452.812 1828.05,467.402 1829.95,411.265 1831.85,449.28 1833.75,467.975 1835.64,328.872 1837.54,403.2 1839.44,323.079 1841.34,352.263 1843.24,388.263 1845.13,358.352 1847.03,413.154 1848.93,322.158 1850.83,323.341 1852.73,333.034 1854.62,376.732 1856.52,325.914 1858.42,119.373 1860.32,140.259 1862.22,126.917 1864.11,141.013 1866.01,136.803 1867.91,117.896 1869.81,125.033 1871.71,146.665 1873.6,140.05 1875.5,125.398 1877.4,327.878 1879.3,338.365 1881.2,132.634 1883.09,130.314 1884.99,141.816 1886.89,141.704 1888.79,127.988 1890.69,132.825 1892.58,130.062 1894.48,126.396 1896.38,142.107 1898.28,138.016 1900.18,140.878 1902.07,144.116 1903.97,130.178 1905.87,141.944 1907.77,133.002 1909.67,384.646 1911.56,455.115 1913.46,481.304 1915.36,352.163 1917.26,134.412 1919.16,137.872 1921.05,132.445 1922.95,146.177 1924.85,116.65 1926.75,124.666 1928.65,127.753 1930.54,129.809 1932.44,125.775 1934.34,122.297 1936.24,130.151 1938.14,135.655 1940.03,122.595 1941.93,137.879 1943.83,118.896 1945.73,138.517 1947.63,117.579 1949.52,125.756 1951.42,143.55 1953.32,119.58 1955.22,135.22 1957.12,127.034 1959.01,137.52 1960.91,129.875 1962.81,135.796 1964.71,131.195 1966.61,135.699 1968.5,138.006 1970.4,122.666 1972.3,118.181 1974.2,150.42 1976.1,152.861 1977.99,132.569 1979.89,120.699 1981.79,124.957 1983.69,141.997 1985.59,133.714 1987.48,146.227 1989.38,128.42 1991.28,131.694 1993.18,132.927 1995.08,150.537 1996.97,119.804 1998.87,128.003 2000.77,133.473 2002.67,125.991 2004.56,138.46 2006.46,133.958 2008.36,137.634 2010.26,134.512 2012.16,134.995 2014.05,141.72 2015.95,144.392 2017.85,140.241 2019.75,126.801 2021.65,128.518 2023.54,133.239 2025.44,145.764 2027.34,132.601 2029.24,128.289 2031.14,128.888 2033.03,131.538 2034.93,117.385 2036.83,147.661 2038.73,121.141 2040.63,151.274 2042.52,115.577 2044.42,124.759 2046.32,131.844 2048.22,133.556 2050.12,138.784 2052.01,383.06 2053.91,453.389 2055.81,466.509 2057.71,315.476 2059.61,142.852 2061.5,141.353 2063.4,144.61 2065.3,131.329 2067.2,121.113 2069.1,143.82 2070.99,129.664 2072.89,128.343 2074.79,132.639 2076.69,137.869 2078.59,118.577 2080.48,122.353 2082.38,141.021 2084.28,131.952 2086.18,131.948 2088.08,125.251 2089.97,131.388 2091.87,134.339 2093.77,135.88 2095.67,143.966 2097.57,139.002 2099.46,141.811 2101.36,141.562 2103.26,148.513 2105.16,131.86 2107.06,133.379 2108.95,132.378 2110.85,138.588 2112.75,132.652 2114.65,139.088 2116.55,147.009 2118.44,117.69 2120.34,145.692 2122.24,139.714 2124.14,135.955 2126.04,111.496 2127.93,109.894 2129.83,144.775 2131.73,138.052 2133.63,115.449 2135.53,142.824 2137.42,145.253 2139.32,148.679 2141.22,141.401 2143.12,117.617 2145.02,115.015 2146.91,121.802 2148.81,151.364 2150.71,129.955 2152.61,144.031 2154.51,138.486 2156.4,135.739 2158.3,148.964 2160.2,127.092 2162.1,146.574 2164,136.688 2165.89,125.804 2167.79,136.23 2169.69,128.798 2171.59,136.319 2173.49,143.779 2175.38,144.067 2177.28,115.074 2179.18,145.698 2181.08,135.648 2182.98,133.579 2184.87,117.113 2186.77,119.088 2188.67,144.942 2190.57,388.459 2192.47,381.23 2194.36,349.433 2196.26,322.198 2198.16,344.158 2200.06,373.818 2201.96,446.031 2203.85,361.465 2205.75,324.083 2207.65,349.888 2209.55,316.857 2211.45,319.974 2213.34,424.698 2215.24,445.636 2217.14,391.754 2219.04,323.1 2220.94,467.204 2222.83,391.379 2224.73,127.209 2226.63,135.083 2228.53,139.047 2230.43,119.211 2232.32,134.881 2234.22,147.694 2236.12,126.846 2238.02,125.642 2239.92,146.425 2241.81,127.954 2243.71,130.863 2245.61,327.474 2247.51,314.995 2249.41,134.764 2251.3,112.375 2253.2,147.739 2255.1,146.398 2257,147.411 2258.9,135.364 2260.79,140.169 2262.69,146.518 2264.59,146.885 2266.49,141.473 2268.39,151.234 2270.28,117.402 2272.18,124.982 2274.08,143.965 2275.98,124.56 2277.88,132.408 2279.77,140.592 2281.67,141.031 2283.57,136.548 2285.47,138.14 2287.37,117.012 2289.26,129.817 2291.16,139.07 2293.06,131.189 2294.96,121.241 2296.86,121.525 2298.75,152.608 2300.65,143.735 2302.55,129.796 2304.45,126.854 2306.35,147.2 2308.24,146.532 2310.14,144.76 2312.04,144.913 2313.94,136.091 2315.84,133.893 2317.73,146.645 2319.63,334.871 2321.53,358.483 2323.43,394.918 2325.33,347.023 2327.22,308.151 2329.12,311.772 2331.02,318.907 2332.92,356.686 2334.82,364.847 2336.71,138.818 2338.61,142.197 2340.51,122.018 2342.41,125.345 2344.31,142.629 2346.2,124.415 2348.1,126.391 2350,132.007 2351.9,135.294 2353.8,128.871 2355.69,128.019 2357.59,137.105 2359.49,143.958 2361.39,147.852 2363.29,144.942 2365.18,136.263 2367.08,126.836 2368.98,122.724 2370.88,134.819 2372.78,121.869 2374.67,116.634 2376.57,120.859 2378.47,120.463 2380.37,119.78 2382.27,346.519 2384.16,379.297 2386.06,489.437 2387.96,394.033 2389.86,471.979 2391.76,411.85 2393.65,443.341 2395.55,439.129 2397.45,360.25 2399.35,339.188 2401.25,388.438 2403.14,457.654 2405.04,468.14 2406.94,379.025 2408.84,339.529 2410.73,337.867 2412.63,142.351 2414.53,127.319 2416.43,125.396 2418.33,135.706 2420.22,131.134 2422.12,143.689 2424.02,138.945 2425.92,145.534 2427.82,139.502 2429.71,135.347 2431.61,131.14 2433.51,147.886 2435.41,120.034 2437.31,136.962 2439.2,114.736 2441.1,141.957 2443,131.296 2444.9,143.531 2446.8,122.63 2448.69,127.833 2450.59,142.494 2452.49,131.399 2454.39,147.344 2456.29,121.821 2458.18,146.526 2460.08,124.475 2461.98,143.011 2463.88,144.462 2465.78,124.301 2467.67,149.022 2469.57,123.012 2471.47,144.957 2473.37,130.749 2475.27,125.226 2477.16,135.801 2479.06,137.377 2480.96,130.207 2482.86,140.603 2484.76,132.562 2486.65,134.198 2488.55,129.051 2490.45,122.81 2492.35,135.146 2494.25,124.202 2496.14,142.305 2498.04,131.176 2499.94,144.305 2501.84,116.526 2503.74,149.862 2505.63,120.171 2507.53,130.032 2509.43,135.358 2511.33,133.83 2513.23,125.687 2515.12,127.608 2517.02,130.871 2518.92,143.973 2520.82,129.822 2522.72,142.598 2524.61,147.577 2526.51,409.628 2528.41,374.538 2530.31,340.257 2532.21,146.501 2534.1,122.44 2536,127.134 2537.9,115.066 2539.8,154.695 2541.7,329.076 2543.59,332.395 2545.49,326.898 2547.39,416.91 2549.29,393.358 2551.19,321.988 2553.08,330.927 2554.98,318.019 2556.88,348.914 2558.78,384.946 2560.68,420.947 2562.57,493.107 2564.47,471.021 2566.37,386.855 2568.27,338.697 2570.17,324.809 2572.06,349.166 2573.96,348.686 2575.86,344.644 2577.76,312.786 2579.66,150.4 2581.55,146.218 2583.45,129.941 2585.35,128.19 2587.25,132.355 2589.15,130.308 2591.04,133.178 2592.94,130.626 2594.84,119.209 2596.74,129.645 2598.64,322.467 2600.53,340.835 2602.43,130.135 2604.33,131.194 2606.23,139.507 2608.13,129.067 2610.02,131.735 2611.92,137.273 2613.82,125.59 2615.72,138.729 2617.62,118.762 2619.51,141.519 2621.41,143 2623.31,134.186 2625.21,128.522 2627.11,134.255 2629,139.711 2630.9,127.627 2632.8,126.865 2634.7,129.983 2636.6,137.006 2638.49,136.251 2640.39,132.911 2642.29,136.579 2644.19,138.027 2646.09,119.939 2647.98,148.806 2649.88,140.936 2651.78,136.506 2653.68,138.04 2655.58,140.354 2657.47,144.802 2659.37,123.824 2661.27,138.118 2663.17,153.063 2665.07,139.889 2666.96,139.993 2668.86,140.136 2670.76,137.729 2672.66,126.85 2674.56,131.5 2676.45,118.656 2678.35,124.499 2680.25,120.808 2682.15,144.123 2684.05,138.706 2685.94,129.279 2687.84,131.343 2689.74,123.239 2691.64,137.202 2693.54,129.375 2695.43,126.354 2697.33,376.505 2699.23,438.133 2701.13,354.807 2703.03,346.959 2704.92,128.622 2706.82,133.551 2708.72,130.948 2710.62,151.042 2712.52,134.104 2714.41,131.259 2716.31,144.415 2718.21,125.491 2720.11,126.839 2722.01,146.748 2723.9,142.811 2725.8,137.928 2727.7,143.436 2729.6,122.566 2731.5,145.648 2733.39,131.981 2735.29,139.546 2737.19,139.236 2739.09,139.222 2740.99,135.546 2742.88,130.096 2744.78,145.505 2746.68,325.235 2748.58,344.62 2750.48,324.282 2752.37,342.225 2754.27,378.143 2756.17,339.173 2758.07,139.193 2759.97,127.448 2761.86,322.276 2763.76,315.528 2765.66,150.518 2767.56,343.811 2769.46,315.735 2771.35,333.803 2773.25,415.16 2775.15,336.978 2777.05,309.267 2778.95,338.483 2780.84,407.506 2782.74,420.186 2784.64,323.873 2786.54,322.803 2788.44,137.289 2790.33,130.132 2792.23,136.907 2794.13,135.615 2796.03,127.17 2797.93,132.335 2799.82,140.895 2801.72,118.501 2803.62,148.662 2805.52,130.369 2807.41,140.919 2809.31,137.926 2811.21,139.13 2813.11,114.718 2815.01,121.146 2816.9,147.938 2818.8,139.321 2820.7,131.614 2822.6,312.229 2824.5,411.775 2826.39,408.251 2828.29,321.683 2830.19,355.111 2832.09,404.836 2833.99,320.538 2835.88,310.68 2837.78,329.315 2839.68,146.483 2841.58,119.19 2843.48,129.131 2845.37,132.532 2847.27,144.83 2849.17,137.346 2851.07,140.507 2852.97,129.795 2854.86,132.895 2856.76,137.846 2858.66,127.134 2860.56,357.69 2862.46,391.602 2864.35,362.225 2866.25,133.843 2868.15,142.611 2870.05,106.934 2871.95,136.654 2873.84,140.31 2875.74,128.278 2877.64,133.801 2879.54,140.943 2881.44,150.628 2883.33,136.084 2885.23,132.65 2887.13,136.363 2889.03,137.23 2890.93,125.34 2892.82,146.789 2894.72,147.153 2896.62,123.834 2898.52,122.08 2900.42,131.328 2902.31,126.001 2904.21,143.771 2906.11,130.291 2908.01,129.244 2909.91,123.979 2911.8,148.495 2913.7,126.353 2915.6,120.596 2917.5,134.254 2919.4,137.303 2921.29,137.267 2923.19,127.589 2925.09,148.986 2926.99,152.725 2928.89,310.301 2930.78,456.15 2932.68,441.156 2934.58,493.486 2936.48,498.591 2938.38,334.141 2940.27,458.318 2942.17,316.624 2944.07,474.806 2945.97,417.314 2947.87,449.358 2949.76,427.703 2951.66,482.671 2953.56,454.443 2955.46,477.027 2957.36,379.241 2959.25,323.706 2961.15,140.756 2963.05,134.129 2964.95,138.102 2966.85,141.537 2968.74,141.319 2970.64,136.96 2972.54,135.062 2974.44,312.406 2976.34,131.227 2978.23,143.225 2980.13,138.037 2982.03,137.861 2983.93,136.125 2985.83,109.761 2987.72,133.66 2989.62,138.404 2991.52,137.761 2993.42,129.189 2995.32,151.923 2997.21,126.147 2999.11,135.678 3001.01,136.853 3002.91,146.792 3004.81,139.169 3006.7,128.61 3008.6,130.245 3010.5,321.204 3012.4,384.125 3014.3,336.266 3016.19,394.242 3018.09,413.978 3019.99,393.076 3021.89,430.002 3023.79,393.031 3025.68,319.908 3027.58,324.824 3029.48,324.546 3031.38,327.335 3033.28,334.751 3035.17,132.702 3037.07,132.414 3038.97,138.203 3040.87,137.625 3042.77,150.705 3044.66,139.548 3046.56,137.922 3048.46,132.349 3050.36,129.568 3052.26,138.8 3054.15,133.17 3056.05,143.615 3057.95,126.728 3059.85,122.124 3061.75,137.162 3063.64,127.64 3065.54,131.956 3067.44,126.222 3069.34,127.511 3071.24,129.428 3073.13,135.832 3075.03,149.674 3076.93,136.789 3078.83,132.359 3080.73,133.382 3082.62,139.057 3084.52,137.264 3086.42,126.527 3088.32,133.168 3090.22,121.791 3092.11,131.273 3094.01,123.131 3095.91,123.796 3097.81,126.522 3099.71,126.539 3101.6,144.732 3103.5,139.834 3105.4,126.353 3107.3,141.979 3109.2,134.978 3111.09,132.682 3112.99,151.362 3114.89,144.31 3116.79,138.384 3118.69,146.789 3120.58,113.703 3122.48,133.748 3124.38,135.298 3126.28,139.6 3128.18,142.323 3130.07,128.618 3131.97,122.895 3133.87,123.512 3135.77,325.754 3137.67,330.188 3139.56,344.203 3141.46,404.882 3143.36,422.189 3145.26,388.277 3147.16,338.545 3149.05,376.242 3150.95,422.133 3152.85,141.303 3154.75,146.007 3156.65,133.861 3158.54,137.47 3160.44,127.201 3162.34,140.224 3164.24,126.052 3166.14,139.715 3168.03,140.765 3169.93,122.709 3171.83,117.549 3173.73,133.555 3175.63,131.165 3177.52,405.288 3179.42,433.389 3181.32,329.738 3183.22,330.608 3185.12,353.245 3187.01,139.761 3188.91,126.659 3190.81,131.115 3192.71,128.726 3194.61,133.65 3196.5,134.013 3198.4,142.767 3200.3,131.072 3202.2,133.234 3204.1,138.252 3205.99,126.447 3207.89,401.019 3209.79,327.828 3211.69,345.012 3213.58,330.493 3215.48,327.171 3217.38,322.276 3219.28,411.921 3221.18,455.712 3223.07,425.759 3224.97,445.482 3226.87,334.194 3228.77,422.753 3230.67,442.701 3232.56,351.575 3234.46,320.097 3236.36,337.402 3238.26,377.253 3240.16,339.394 3242.05,397.296 3243.95,387.626 3245.85,399.178 3247.75,325.508 3249.65,329.108 3251.54,131.151 3253.44,136.297 3255.34,132.523 3257.24,142.731 3259.14,128.725 3261.03,128.757 3262.93,133.24 3264.83,135.822 3266.73,145.977 3268.63,128.759 3270.52,142.327 3272.42,127.398 3274.32,134.278 3276.22,132.58 3278.12,143.335 3280.01,138.402 3281.91,134.393 3283.81,138.324 3285.71,138.721 3287.61,133.924 3289.5,391.9 3291.4,325.957 3293.3,336.273 3295.2,382.56 3297.1,451.828 3298.99,428.325 3300.89,387.818 3302.79,304.176 3304.69,119.698 3306.59,132.151 3308.48,134.745 3310.38,137.01 3312.28,147.548 3314.18,125.31 3316.08,142.217 3317.97,120.398 3319.87,159.586 3321.77,127.98 3323.67,141.158 3325.57,123.247 3327.46,139.691 3329.36,125.529 3331.26,126.734 3333.16,122.208 3335.06,319.135 3336.95,338.145 3338.85,388.454 3340.75,394.729 3342.65,463.049 3344.55,376.668 3346.44,321.871 3348.34,321.11 3350.24,334.877 3352.14,446.018 3354.04,405.982 3355.93,351.465 3357.83,325.517 3359.73,322.595 3361.63,314.545 3363.53,354.022 3365.42,130.754 3367.32,116.885 3369.22,113.486 3371.12,155.921 3373.02,148.606 3374.91,127.664 3376.81,136.065 3378.71,125.905 3380.61,126.958 3382.51,126.787 3384.4,129.655 3386.3,130.894 3388.2,122.948 3390.1,134.153 3392,120.751 3393.89,121.045 3395.79,119.144 3397.69,153.086 3399.59,146.131 3401.49,123.751 3403.38,125.399 3405.28,139.791 3407.18,137.042 3409.08,129.386 3410.98,139.551 3412.87,131.916 3414.77,137.481 3416.67,141.991 3418.57,145.517 3420.47,138.182 3422.36,120.932 3424.26,142.849 3426.16,129.944 3428.06,131.643 3429.96,123.281 3431.85,150.038 3433.75,127.113 3435.65,135.649 3437.55,135.878 3439.45,148.829 3441.34,346.67 3443.24,122.042 3445.14,144.847 3447.04,139.255 3448.94,148.523 3450.83,139.137 3452.73,137.248 3454.63,143.949 3456.53,137.806 "/>
<path clip-path="url(#clip530)" d="M3004.35 166.762 L3439.42 166.762 L3439.42 63.0816 L3004.35 63.0816  Z" fill="#ffffff" fill-rule="evenodd" fill-opacity="1"/>
<polyline clip-path="url(#clip530)" style="stroke:#000000; stroke-linecap:round; stroke-linejoin:round; stroke-width:4; stroke-opacity:1; fill:none" points="3004.35,166.762 3439.42,166.762 3439.42,63.0816 3004.35,63.0816 3004.35,166.762 "/>
<polyline clip-path="url(#clip530)" style="stroke:#009af9; stroke-linecap:round; stroke-linejoin:round; stroke-width:2; stroke-opacity:1; fill:none" points="3042.12,114.922 3268.79,114.922 "/>
<path clip-path="url(#clip530)" d="M3322.96 115.998 Q3324.47 116.507 3325.88 118.174 Q3327.31 119.841 3328.75 122.757 L3333.49 132.202 L3328.47 132.202 L3324.05 123.336 Q3322.34 119.864 3320.72 118.729 Q3319.12 117.595 3316.34 117.595 L3311.25 117.595 L3311.25 132.202 L3306.57 132.202 L3306.57 97.6416 L3317.13 97.6416 Q3323.05 97.6416 3325.97 100.118 Q3328.89 102.595 3328.89 107.595 Q3328.89 110.859 3327.36 113.012 Q3325.86 115.165 3322.96 115.998 M3311.25 101.484 L3311.25 113.753 L3317.13 113.753 Q3320.51 113.753 3322.22 112.202 Q3323.96 110.628 3323.96 107.595 Q3323.96 104.563 3322.22 103.035 Q3320.51 101.484 3317.13 101.484 L3311.25 101.484 Z" fill="#000000" fill-rule="evenodd" fill-opacity="1" /><path clip-path="url(#clip530)" d="M3349.14 102.248 L3342.8 119.447 L3355.51 119.447 L3349.14 102.248 M3346.5 97.6416 L3351.8 97.6416 L3364.98 132.202 L3360.11 132.202 L3356.97 123.336 L3341.39 123.336 L3338.24 132.202 L3333.31 132.202 L3346.5 97.6416 Z" fill="#000000" fill-rule="evenodd" fill-opacity="1" /><path clip-path="url(#clip530)" d="M3370.02 97.6416 L3376.99 97.6416 L3385.81 121.16 L3394.67 97.6416 L3401.64 97.6416 L3401.64 132.202 L3397.08 132.202 L3397.08 101.854 L3388.17 125.558 L3383.47 125.558 L3374.56 101.854 L3374.56 132.202 L3370.02 132.202 L3370.02 97.6416 Z" fill="#000000" fill-rule="evenodd" fill-opacity="1" /></svg>
