<?xml version="1.0" encoding="utf-8"?>
<svg xmlns="http://www.w3.org/2000/svg" xmlns:xlink="http://www.w3.org/1999/xlink" width="900" height="150" viewBox="0 0 3600 600">
<defs>
  <clipPath id="clip830">
    <rect x="0" y="0" width="3600" height="600"/>
  </clipPath>
</defs>
<path clip-path="url(#clip830)" d="M0 600 L3600 600 L3600 0 L0 0  Z" fill="#ffffff" fill-rule="evenodd" fill-opacity="1"/>
<defs>
  <clipPath id="clip831">
    <rect x="720" y="0" width="2521" height="600"/>
  </clipPath>
</defs>
<path clip-path="url(#clip830)" d="M152.696 522.368 L3552.76 522.368 L3552.76 47.2441 L152.696 47.2441  Z" fill="#ffffff" fill-rule="evenodd" fill-opacity="1"/>
<defs>
  <clipPath id="clip832">
    <rect x="152" y="47" width="3401" height="476"/>
  </clipPath>
</defs>
<polyline clip-path="url(#clip832)" style="stroke:#000000; stroke-linecap:round; stroke-linejoin:round; stroke-width:2; stroke-opacity:0.1; fill:none" points="240.885,522.368 240.885,47.2441 "/>
<polyline clip-path="url(#clip832)" style="stroke:#000000; stroke-linecap:round; stroke-linejoin:round; stroke-width:2; stroke-opacity:0.1; fill:none" points="1044.8,522.368 1044.8,47.2441 "/>
<polyline clip-path="url(#clip832)" style="stroke:#000000; stroke-linecap:round; stroke-linejoin:round; stroke-width:2; stroke-opacity:0.1; fill:none" points="1848.71,522.368 1848.71,47.2441 "/>
<polyline clip-path="url(#clip832)" style="stroke:#000000; stroke-linecap:round; stroke-linejoin:round; stroke-width:2; stroke-opacity:0.1; fill:none" points="2652.62,522.368 2652.62,47.2441 "/>
<polyline clip-path="url(#clip832)" style="stroke:#000000; stroke-linecap:round; stroke-linejoin:round; stroke-width:2; stroke-opacity:0.1; fill:none" points="3456.53,522.368 3456.53,47.2441 "/>
<polyline clip-path="url(#clip830)" style="stroke:#000000; stroke-linecap:round; stroke-linejoin:round; stroke-width:4; stroke-opacity:1; fill:none" points="152.696,522.368 3552.76,522.368 "/>
<polyline clip-path="url(#clip830)" style="stroke:#000000; stroke-linecap:round; stroke-linejoin:round; stroke-width:4; stroke-opacity:1; fill:none" points="240.885,522.368 240.885,503.47 "/>
<polyline clip-path="url(#clip830)" style="stroke:#000000; stroke-linecap:round; stroke-linejoin:round; stroke-width:4; stroke-opacity:1; fill:none" points="1044.8,522.368 1044.8,503.47 "/>
<polyline clip-path="url(#clip830)" style="stroke:#000000; stroke-linecap:round; stroke-linejoin:round; stroke-width:4; stroke-opacity:1; fill:none" points="1848.71,522.368 1848.71,503.47 "/>
<polyline clip-path="url(#clip830)" style="stroke:#000000; stroke-linecap:round; stroke-linejoin:round; stroke-width:4; stroke-opacity:1; fill:none" points="2652.62,522.368 2652.62,503.47 "/>
<polyline clip-path="url(#clip830)" style="stroke:#000000; stroke-linecap:round; stroke-linejoin:round; stroke-width:4; stroke-opacity:1; fill:none" points="3456.53,522.368 3456.53,503.47 "/>
<path clip-path="url(#clip830)" d="M240.885 562.887 Q237.273 562.887 235.445 566.451 Q233.639 569.993 233.639 577.123 Q233.639 584.229 235.445 587.794 Q237.273 591.335 240.885 591.335 Q244.519 591.335 246.324 587.794 Q248.153 584.229 248.153 577.123 Q248.153 569.993 246.324 566.451 Q244.519 562.887 240.885 562.887 M240.885 559.183 Q246.695 559.183 249.75 563.789 Q252.829 568.373 252.829 577.123 Q252.829 585.849 249.75 590.456 Q246.695 595.039 240.885 595.039 Q235.074 595.039 231.996 590.456 Q228.94 585.849 228.94 577.123 Q228.94 568.373 231.996 563.789 Q235.074 559.183 240.885 559.183 Z" fill="#000000" fill-rule="evenodd" fill-opacity="1" /><path clip-path="url(#clip830)" d="M1004.4 590.433 L1012.04 590.433 L1012.04 564.067 L1003.73 565.734 L1003.73 561.475 L1011.99 559.808 L1016.67 559.808 L1016.67 590.433 L1024.31 590.433 L1024.31 594.368 L1004.4 594.368 L1004.4 590.433 Z" fill="#000000" fill-rule="evenodd" fill-opacity="1" /><path clip-path="url(#clip830)" d="M1043.75 562.887 Q1040.14 562.887 1038.31 566.451 Q1036.51 569.993 1036.51 577.123 Q1036.51 584.229 1038.31 587.794 Q1040.14 591.335 1043.75 591.335 Q1047.39 591.335 1049.19 587.794 Q1051.02 584.229 1051.02 577.123 Q1051.02 569.993 1049.19 566.451 Q1047.39 562.887 1043.75 562.887 M1043.75 559.183 Q1049.56 559.183 1052.62 563.789 Q1055.7 568.373 1055.7 577.123 Q1055.7 585.849 1052.62 590.456 Q1049.56 595.039 1043.75 595.039 Q1037.94 595.039 1034.86 590.456 Q1031.81 585.849 1031.81 577.123 Q1031.81 568.373 1034.86 563.789 Q1037.94 559.183 1043.75 559.183 Z" fill="#000000" fill-rule="evenodd" fill-opacity="1" /><path clip-path="url(#clip830)" d="M1073.92 562.887 Q1070.3 562.887 1068.48 566.451 Q1066.67 569.993 1066.67 577.123 Q1066.67 584.229 1068.48 587.794 Q1070.3 591.335 1073.92 591.335 Q1077.55 591.335 1079.36 587.794 Q1081.18 584.229 1081.18 577.123 Q1081.18 569.993 1079.36 566.451 Q1077.55 562.887 1073.92 562.887 M1073.92 559.183 Q1079.73 559.183 1082.78 563.789 Q1085.86 568.373 1085.86 577.123 Q1085.86 585.849 1082.78 590.456 Q1079.73 595.039 1073.92 595.039 Q1068.11 595.039 1065.03 590.456 Q1061.97 585.849 1061.97 577.123 Q1061.97 568.373 1065.03 563.789 Q1068.11 559.183 1073.92 559.183 Z" fill="#000000" fill-rule="evenodd" fill-opacity="1" /><path clip-path="url(#clip830)" d="M1812.4 590.433 L1828.72 590.433 L1828.72 594.368 L1806.77 594.368 L1806.77 590.433 Q1809.44 587.678 1814.02 583.048 Q1818.63 578.396 1819.81 577.053 Q1822.05 574.53 1822.93 572.794 Q1823.83 571.035 1823.83 569.345 Q1823.83 566.59 1821.89 564.854 Q1819.97 563.118 1816.87 563.118 Q1814.67 563.118 1812.21 563.882 Q1809.78 564.646 1807.01 566.197 L1807.01 561.475 Q1809.83 560.34 1812.28 559.762 Q1814.74 559.183 1816.77 559.183 Q1822.14 559.183 1825.34 561.868 Q1828.53 564.553 1828.53 569.044 Q1828.53 571.174 1827.72 573.095 Q1826.94 574.993 1824.83 577.586 Q1824.25 578.257 1821.15 581.474 Q1818.05 584.669 1812.4 590.433 Z" fill="#000000" fill-rule="evenodd" fill-opacity="1" /><path clip-path="url(#clip830)" d="M1848.53 562.887 Q1844.92 562.887 1843.09 566.451 Q1841.29 569.993 1841.29 577.123 Q1841.29 584.229 1843.09 587.794 Q1844.92 591.335 1848.53 591.335 Q1852.17 591.335 1853.97 587.794 Q1855.8 584.229 1855.8 577.123 Q1855.8 569.993 1853.97 566.451 Q1852.17 562.887 1848.53 562.887 M1848.53 559.183 Q1854.34 559.183 1857.4 563.789 Q1860.48 568.373 1860.48 577.123 Q1860.48 585.849 1857.4 590.456 Q1854.34 595.039 1848.53 595.039 Q1842.72 595.039 1839.64 590.456 Q1836.59 585.849 1836.59 577.123 Q1836.59 568.373 1839.64 563.789 Q1842.72 559.183 1848.53 559.183 Z" fill="#000000" fill-rule="evenodd" fill-opacity="1" /><path clip-path="url(#clip830)" d="M1878.69 562.887 Q1875.08 562.887 1873.25 566.451 Q1871.45 569.993 1871.45 577.123 Q1871.45 584.229 1873.25 587.794 Q1875.08 591.335 1878.69 591.335 Q1882.33 591.335 1884.13 587.794 Q1885.96 584.229 1885.96 577.123 Q1885.96 569.993 1884.13 566.451 Q1882.33 562.887 1878.69 562.887 M1878.69 559.183 Q1884.5 559.183 1887.56 563.789 Q1890.64 568.373 1890.64 577.123 Q1890.64 585.849 1887.56 590.456 Q1884.5 595.039 1878.69 595.039 Q1872.88 595.039 1869.81 590.456 Q1866.75 585.849 1866.75 577.123 Q1866.75 568.373 1869.81 563.789 Q1872.88 559.183 1878.69 559.183 Z" fill="#000000" fill-rule="evenodd" fill-opacity="1" /><path clip-path="url(#clip830)" d="M2626.38 575.734 Q2629.74 576.451 2631.61 578.72 Q2633.51 580.988 2633.51 584.322 Q2633.51 589.437 2629.99 592.238 Q2626.47 595.039 2619.99 595.039 Q2617.81 595.039 2615.5 594.599 Q2613.21 594.183 2610.75 593.326 L2610.75 588.812 Q2612.7 589.947 2615.01 590.525 Q2617.33 591.104 2619.85 591.104 Q2624.25 591.104 2626.54 589.368 Q2628.86 587.632 2628.86 584.322 Q2628.86 581.266 2626.7 579.553 Q2624.57 577.817 2620.75 577.817 L2616.73 577.817 L2616.73 573.974 L2620.94 573.974 Q2624.39 573.974 2626.22 572.609 Q2628.05 571.22 2628.05 568.627 Q2628.05 565.965 2626.15 564.553 Q2624.27 563.118 2620.75 563.118 Q2618.83 563.118 2616.63 563.535 Q2614.43 563.951 2611.8 564.831 L2611.8 560.664 Q2614.46 559.924 2616.77 559.553 Q2619.11 559.183 2621.17 559.183 Q2626.49 559.183 2629.6 561.613 Q2632.7 564.021 2632.7 568.141 Q2632.7 571.012 2631.05 573.002 Q2629.41 574.97 2626.38 575.734 Z" fill="#000000" fill-rule="evenodd" fill-opacity="1" /><path clip-path="url(#clip830)" d="M2652.37 562.887 Q2648.76 562.887 2646.93 566.451 Q2645.13 569.993 2645.13 577.123 Q2645.13 584.229 2646.93 587.794 Q2648.76 591.335 2652.37 591.335 Q2656.01 591.335 2657.81 587.794 Q2659.64 584.229 2659.64 577.123 Q2659.64 569.993 2657.81 566.451 Q2656.01 562.887 2652.37 562.887 M2652.37 559.183 Q2658.18 559.183 2661.24 563.789 Q2664.32 568.373 2664.32 577.123 Q2664.32 585.849 2661.24 590.456 Q2658.18 595.039 2652.37 595.039 Q2646.56 595.039 2643.49 590.456 Q2640.43 585.849 2640.43 577.123 Q2640.43 568.373 2643.49 563.789 Q2646.56 559.183 2652.37 559.183 Z" fill="#000000" fill-rule="evenodd" fill-opacity="1" /><path clip-path="url(#clip830)" d="M2682.54 562.887 Q2678.92 562.887 2677.1 566.451 Q2675.29 569.993 2675.29 577.123 Q2675.29 584.229 2677.1 587.794 Q2678.92 591.335 2682.54 591.335 Q2686.17 591.335 2687.98 587.794 Q2689.8 584.229 2689.8 577.123 Q2689.8 569.993 2687.98 566.451 Q2686.17 562.887 2682.54 562.887 M2682.54 559.183 Q2688.35 559.183 2691.4 563.789 Q2694.48 568.373 2694.48 577.123 Q2694.48 585.849 2691.4 590.456 Q2688.35 595.039 2682.54 595.039 Q2676.73 595.039 2673.65 590.456 Q2670.59 585.849 2670.59 577.123 Q2670.59 568.373 2673.65 563.789 Q2676.73 559.183 2682.54 559.183 Z" fill="#000000" fill-rule="evenodd" fill-opacity="1" /><path clip-path="url(#clip830)" d="M3429.62 563.882 L3417.81 582.331 L3429.62 582.331 L3429.62 563.882 M3428.39 559.808 L3434.27 559.808 L3434.27 582.331 L3439.2 582.331 L3439.2 586.22 L3434.27 586.22 L3434.27 594.368 L3429.62 594.368 L3429.62 586.22 L3414.02 586.22 L3414.02 581.706 L3428.39 559.808 Z" fill="#000000" fill-rule="evenodd" fill-opacity="1" /><path clip-path="url(#clip830)" d="M3456.93 562.887 Q3453.32 562.887 3451.49 566.451 Q3449.69 569.993 3449.69 577.123 Q3449.69 584.229 3451.49 587.794 Q3453.32 591.335 3456.93 591.335 Q3460.57 591.335 3462.37 587.794 Q3464.2 584.229 3464.2 577.123 Q3464.2 569.993 3462.37 566.451 Q3460.57 562.887 3456.93 562.887 M3456.93 559.183 Q3462.74 559.183 3465.8 563.789 Q3468.88 568.373 3468.88 577.123 Q3468.88 585.849 3465.8 590.456 Q3462.74 595.039 3456.93 595.039 Q3451.12 595.039 3448.04 590.456 Q3444.99 585.849 3444.99 577.123 Q3444.99 568.373 3448.04 563.789 Q3451.12 559.183 3456.93 559.183 Z" fill="#000000" fill-rule="evenodd" fill-opacity="1" /><path clip-path="url(#clip830)" d="M3487.09 562.887 Q3483.48 562.887 3481.65 566.451 Q3479.85 569.993 3479.85 577.123 Q3479.85 584.229 3481.65 587.794 Q3483.48 591.335 3487.09 591.335 Q3490.73 591.335 3492.53 587.794 Q3494.36 584.229 3494.36 577.123 Q3494.36 569.993 3492.53 566.451 Q3490.73 562.887 3487.09 562.887 M3487.09 559.183 Q3492.9 559.183 3495.96 563.789 Q3499.04 568.373 3499.04 577.123 Q3499.04 585.849 3495.96 590.456 Q3492.9 595.039 3487.09 595.039 Q3481.28 595.039 3478.21 590.456 Q3475.15 585.849 3475.15 577.123 Q3475.15 568.373 3478.21 563.789 Q3481.28 559.183 3487.09 559.183 Z" fill="#000000" fill-rule="evenodd" fill-opacity="1" /><polyline clip-path="url(#clip832)" style="stroke:#000000; stroke-linecap:round; stroke-linejoin:round; stroke-width:2; stroke-opacity:0.1; fill:none" points="152.696,449.645 3552.76,449.645 "/>
<polyline clip-path="url(#clip832)" style="stroke:#000000; stroke-linecap:round; stroke-linejoin:round; stroke-width:2; stroke-opacity:0.1; fill:none" points="152.696,328.44 3552.76,328.44 "/>
<polyline clip-path="url(#clip832)" style="stroke:#000000; stroke-linecap:round; stroke-linejoin:round; stroke-width:2; stroke-opacity:0.1; fill:none" points="152.696,207.235 3552.76,207.235 "/>
<polyline clip-path="url(#clip832)" style="stroke:#000000; stroke-linecap:round; stroke-linejoin:round; stroke-width:2; stroke-opacity:0.1; fill:none" points="152.696,86.0297 3552.76,86.0297 "/>
<polyline clip-path="url(#clip830)" style="stroke:#000000; stroke-linecap:round; stroke-linejoin:round; stroke-width:4; stroke-opacity:1; fill:none" points="152.696,522.368 152.696,47.2441 "/>
<polyline clip-path="url(#clip830)" style="stroke:#000000; stroke-linecap:round; stroke-linejoin:round; stroke-width:4; stroke-opacity:1; fill:none" points="152.696,449.645 171.593,449.645 "/>
<polyline clip-path="url(#clip830)" style="stroke:#000000; stroke-linecap:round; stroke-linejoin:round; stroke-width:4; stroke-opacity:1; fill:none" points="152.696,328.44 171.593,328.44 "/>
<polyline clip-path="url(#clip830)" style="stroke:#000000; stroke-linecap:round; stroke-linejoin:round; stroke-width:4; stroke-opacity:1; fill:none" points="152.696,207.235 171.593,207.235 "/>
<polyline clip-path="url(#clip830)" style="stroke:#000000; stroke-linecap:round; stroke-linejoin:round; stroke-width:4; stroke-opacity:1; fill:none" points="152.696,86.0297 171.593,86.0297 "/>
<path clip-path="url(#clip830)" d="M77.7929 432.365 L96.1493 432.365 L96.1493 436.3 L82.0753 436.3 L82.0753 444.772 Q83.0938 444.425 84.1123 444.263 Q85.1308 444.078 86.1493 444.078 Q91.9363 444.078 95.3159 447.249 Q98.6955 450.42 98.6955 455.837 Q98.6955 461.416 95.2233 464.517 Q91.7511 467.596 85.4317 467.596 Q83.2558 467.596 80.9873 467.226 Q78.7419 466.855 76.3346 466.115 L76.3346 461.416 Q78.4179 462.55 80.6401 463.105 Q82.8623 463.661 85.3391 463.661 Q89.3437 463.661 91.6817 461.555 Q94.0196 459.448 94.0196 455.837 Q94.0196 452.226 91.6817 450.119 Q89.3437 448.013 85.3391 448.013 Q83.4641 448.013 81.5892 448.43 Q79.7373 448.846 77.7929 449.726 L77.7929 432.365 Z" fill="#000000" fill-rule="evenodd" fill-opacity="1" /><path clip-path="url(#clip830)" d="M47.3995 341.785 L55.0384 341.785 L55.0384 315.419 L46.7282 317.086 L46.7282 312.826 L54.9921 311.16 L59.668 311.16 L59.668 341.785 L67.3068 341.785 L67.3068 345.72 L47.3995 345.72 L47.3995 341.785 Z" fill="#000000" fill-rule="evenodd" fill-opacity="1" /><path clip-path="url(#clip830)" d="M86.7512 314.238 Q83.1401 314.238 81.3114 317.803 Q79.5058 321.345 79.5058 328.475 Q79.5058 335.581 81.3114 339.146 Q83.1401 342.687 86.7512 342.687 Q90.3854 342.687 92.1909 339.146 Q94.0196 335.581 94.0196 328.475 Q94.0196 321.345 92.1909 317.803 Q90.3854 314.238 86.7512 314.238 M86.7512 310.535 Q92.5613 310.535 95.6169 315.141 Q98.6955 319.725 98.6955 328.475 Q98.6955 337.201 95.6169 341.808 Q92.5613 346.391 86.7512 346.391 Q80.941 346.391 77.8623 341.808 Q74.8068 337.201 74.8068 328.475 Q74.8068 319.725 77.8623 315.141 Q80.941 310.535 86.7512 310.535 Z" fill="#000000" fill-rule="evenodd" fill-opacity="1" /><path clip-path="url(#clip830)" d="M48.3949 220.58 L56.0337 220.58 L56.0337 194.214 L47.7236 195.881 L47.7236 191.621 L55.9874 189.955 L60.6633 189.955 L60.6633 220.58 L68.3022 220.58 L68.3022 224.515 L48.3949 224.515 L48.3949 220.58 Z" fill="#000000" fill-rule="evenodd" fill-opacity="1" /><path clip-path="url(#clip830)" d="M77.7929 189.955 L96.1493 189.955 L96.1493 193.89 L82.0753 193.89 L82.0753 202.362 Q83.0938 202.015 84.1123 201.853 Q85.1308 201.668 86.1493 201.668 Q91.9363 201.668 95.3159 204.839 Q98.6955 208.01 98.6955 213.427 Q98.6955 219.006 95.2233 222.107 Q91.7511 225.186 85.4317 225.186 Q83.2558 225.186 80.9873 224.816 Q78.7419 224.445 76.3346 223.705 L76.3346 219.006 Q78.4179 220.14 80.6401 220.695 Q82.8623 221.251 85.3391 221.251 Q89.3437 221.251 91.6817 219.144 Q94.0196 217.038 94.0196 213.427 Q94.0196 209.816 91.6817 207.709 Q89.3437 205.603 85.3391 205.603 Q83.4641 205.603 81.5892 206.019 Q79.7373 206.436 77.7929 207.316 L77.7929 189.955 Z" fill="#000000" fill-rule="evenodd" fill-opacity="1" /><path clip-path="url(#clip830)" d="M50.6171 99.3745 L66.9365 99.3745 L66.9365 103.31 L44.9921 103.31 L44.9921 99.3745 Q47.6541 96.6199 52.2375 91.9903 Q56.8439 87.3376 58.0245 85.995 Q60.2698 83.4719 61.1494 81.7358 Q62.0522 79.9765 62.0522 78.2867 Q62.0522 75.5321 60.1078 73.796 Q58.1865 72.0599 55.0847 72.0599 Q52.8856 72.0599 50.4319 72.8238 Q48.0014 73.5876 45.2236 75.1386 L45.2236 70.4164 Q48.0477 69.2821 50.5014 68.7034 Q52.955 68.1247 54.9921 68.1247 Q60.3624 68.1247 63.5568 70.8099 Q66.7513 73.4951 66.7513 77.9858 Q66.7513 80.1154 65.9411 82.0367 Q65.1541 83.9348 63.0476 86.5274 Q62.4689 87.1987 59.367 90.4163 Q56.2652 93.6107 50.6171 99.3745 Z" fill="#000000" fill-rule="evenodd" fill-opacity="1" /><path clip-path="url(#clip830)" d="M86.7512 71.8284 Q83.1401 71.8284 81.3114 75.3932 Q79.5058 78.9348 79.5058 86.0644 Q79.5058 93.1709 81.3114 96.7357 Q83.1401 100.277 86.7512 100.277 Q90.3854 100.277 92.1909 96.7357 Q94.0196 93.1709 94.0196 86.0644 Q94.0196 78.9348 92.1909 75.3932 Q90.3854 71.8284 86.7512 71.8284 M86.7512 68.1247 Q92.5613 68.1247 95.6169 72.7312 Q98.6955 77.3145 98.6955 86.0644 Q98.6955 94.7912 95.6169 99.3977 Q92.5613 103.981 86.7512 103.981 Q80.941 103.981 77.8623 99.3977 Q74.8068 94.7912 74.8068 86.0644 Q74.8068 77.3145 77.8623 72.7312 Q80.941 68.1247 86.7512 68.1247 Z" fill="#000000" fill-rule="evenodd" fill-opacity="1" /><polyline clip-path="url(#clip832)" style="stroke:#009af9; stroke-linecap:round; stroke-linejoin:round; stroke-width:2; stroke-opacity:1; fill:none" points="248.924,513.296 256.963,409.866 265.002,399.166 273.041,342.783 281.08,328.686 289.119,375.023 297.158,380.284 305.197,524.325 313.237,435.587 321.276,339.771 329.315,401.661 337.354,344.015 345.393,329.019 353.432,331.223 361.471,307.357 369.51,307.537 377.549,333.887 385.589,294.094 393.628,335.196 401.667,443.735 409.706,305.148 417.745,443.142 425.784,401.358 433.823,424.016 441.862,404.71 449.901,352.632 457.94,404.151 465.98,376.12 474.019,325.606 482.058,374.018 490.097,306.403 498.136,458.05 506.175,416.678 514.214,385.39 522.253,323.966 530.292,345.39 538.332,471.507 546.371,403.805 554.41,456.108 562.449,535.205 570.488,335.465 578.527,320.162 586.566,458.313 594.605,339.594 602.644,362.813 610.684,385.351 618.723,298.596 626.762,339.805 634.801,305.561 642.84,322.089 650.879,306.805 658.918,325.434 666.957,309.436 674.996,327.359 683.036,351.339 691.075,387.761 699.114,408.482 707.153,338.416 715.192,495.627 723.231,347.183 731.27,396.17 739.309,394.782 747.348,380.803 755.387,498.238 763.427,407.445 771.466,545.896 779.505,419.095 787.544,510.539 795.583,401.639 803.622,540.608 811.661,448.611 819.7,295.521 827.739,470.004 835.779,438.372 843.818,357.218 851.857,469.67 859.896,441.491 867.935,294.889 875.974,419.317 884.013,302.516 892.052,320.95 900.091,340.844 908.131,327.298 916.17,329.054 924.209,329.124 932.248,327.389 940.287,330.497 948.326,332.461 956.365,491.005 964.404,369.485 972.443,353.425 980.482,472.033 988.522,508.88 996.561,439.458 1004.6,505.53 1012.64,433.26 1020.68,415.561 1028.72,501.239 1036.76,413.805 1044.8,470.573 1052.83,438.988 1060.87,318.379 1068.91,329.395 1076.95,320.644 1084.99,362.459 1093.03,355.62 1101.07,335.072 1109.11,336.524 1117.15,422.021 1125.19,519.76 1133.23,412.373 1141.26,475.561 1149.3,411.206 1157.34,403.367 1165.38,498.546 1173.42,449.973 1181.46,360.155 1189.5,321.743 1197.54,311.783 1205.58,311.49 1213.62,307.783 1221.66,323.918 1229.69,348.02 1237.73,319.221 1245.77,331.452 1253.81,326.28 1261.85,351.093 1269.89,309.464 1277.93,325.471 1285.97,332.328 1294.01,328.154 1302.05,328.656 1310.09,311.358 1318.13,352.901 1326.16,359.24 1334.2,337.578 1342.24,326.427 1350.28,312.729 1358.32,344.376 1366.36,421.054 1374.4,423.655 1382.44,342.859 1390.48,330.931 1398.52,395.121 1406.56,358.575 1414.59,366.258 1422.63,504.702 1430.67,291.035 1438.71,501.4 1446.75,392.461 1454.79,411.766 1462.83,308.125 1470.87,358.6 1478.91,311.822 1486.95,328.777 1494.99,345.628 1503.02,353.722 1511.06,354.437 1519.1,336.106 1527.14,326.305 1535.18,414.153 1543.22,470.987 1551.26,526.25 1559.3,310.724 1567.34,305.798 1575.38,387.158 1583.42,481.444 1591.45,307.745 1599.49,338.445 1607.53,309.821 1615.57,302.764 1623.61,313.979 1631.65,514.427 1639.69,398.948 1647.73,418.783 1655.77,313.169 1663.81,376.403 1671.85,451.477 1679.88,477.294 1687.92,448.32 1695.96,426.101 1704,317.622 1712.04,334.177 1720.08,335.625 1728.12,322.765 1736.16,333.227 1744.2,296.496 1752.24,348.019 1760.28,328.326 1768.32,303.567 1776.35,343.112 1784.39,339.448 1792.43,331.697 1800.47,324.473 1808.51,335.401 1816.55,325.812 1824.59,316.02 1832.63,348.962 1840.67,310.925 1848.71,338.955 1856.75,327.842 1864.78,483.092 1872.82,466.223 1880.86,431.379 1888.9,338.673 1896.94,291.272 1904.98,332.591 1913.02,323.485 1921.06,320.522 1929.1,339.436 1937.14,357.728 1945.18,409.632 1953.21,517.769 1961.25,439.206 1969.29,478.753 1977.33,378.676 1985.37,355.019 1993.41,351.672 2001.45,329.715 2009.49,352.488 2017.53,450.82 2025.57,301.862 2033.61,308.349 2041.64,308.333 2049.68,377.816 2057.72,543.154 2065.76,314.175 2073.8,371.401 2081.84,360.425 2089.88,341.683 2097.92,314.123 2105.96,329.065 2114,328.156 2122.04,334.049 2130.07,325.135 2138.11,308.699 2146.15,310.706 2154.19,296.669 2162.23,490.398 2170.27,327.6 2178.31,308.352 2186.35,304.674 2194.39,409.447 2202.43,298.191 2210.47,334.851 2218.51,302.854 2226.54,301.855 2234.58,458.907 2242.62,458.532 2250.66,460.682 2258.7,448.543 2266.74,382.112 2274.78,323.908 2282.82,324.37 2290.86,320.708 2298.9,345.074 2306.94,344.527 2314.97,361.366 2323.01,345.019 2331.05,316.353 2339.09,314.471 2347.13,352.28 2355.17,352.024 2363.21,375.45 2371.25,322.142 2379.29,333.863 2387.33,330.195 2395.37,310.56 2403.4,410.198 2411.44,361.748 2419.48,472.967 2427.52,432.205 2435.56,516.022 2443.6,504.46 2451.64,485.316 2459.68,365.096 2467.72,464.693 2475.76,436.473 2483.8,420.226 2491.83,428.916 2499.87,331.864 2507.91,352.404 2515.95,445.787 2523.99,449.978 2532.03,332.617 2540.07,519.827 2548.11,337.518 2556.15,316.958 2564.19,342.668 2572.23,327.007 2580.27,342.789 2588.3,433.81 2596.34,475.555 2604.38,335.112 2612.42,333.002 2620.46,327.917 2628.5,327.266 2636.54,330.908 2644.58,345.88 2652.62,315.871 2660.66,352.345 2668.7,338.334 2676.73,334.554 2684.77,327.54 2692.81,327.404 2700.85,323.489 2708.89,329.816 2716.93,313.042 2724.97,326.323 2733.01,325.431 2741.05,337.959 2749.09,334.705 2757.13,328.025 2765.16,329.07 2773.2,330.393 2781.24,323.282 2789.28,341.938 2797.32,472.223 2805.36,411.009 2813.4,431.572 2821.44,510.148 2829.48,366.632 2837.52,311.042 2845.56,329.103 2853.59,391.304 2861.63,433.921 2869.67,346.184 2877.71,348.64 2885.75,323.137 2893.79,325.444 2901.83,452.466 2909.87,315.132 2917.91,323.809 2925.95,314.174 2933.99,341.728 2942.02,338.308 2950.06,323.043 2958.1,318.833 2966.14,318.609 2974.18,314.123 2982.22,332.563 2990.26,314.703 2998.3,340.029 3006.34,325.982 3014.38,324.071 3022.42,365.668 3030.46,368.523 3038.49,369.323 3046.53,533.041 3054.57,311.451 3062.61,330.291 3070.65,339.978 3078.69,384.949 3086.73,458.324 3094.77,495.594 3102.81,365.695 3110.85,315.41 3118.89,313.844 3126.92,351.864 3134.96,326.146 3143,339.435 3151.04,422.296 3159.08,472.813 3167.12,425.504 3175.16,379.261 3183.2,414.245 3191.24,459.493 3199.28,349.807 3207.32,374.355 3215.35,411.058 3223.39,343.426 3231.43,328.566 3239.47,318.592 3247.51,339.876 3255.55,320.106 3263.59,314.873 3271.63,309.612 3279.67,368.906 3287.71,437.665 3295.75,404.021 3303.78,337.898 3311.82,327.422 3319.86,507.751 3327.9,359.27 3335.94,325.402 3343.98,325.854 3352.02,307.656 3360.06,323.813 3368.1,349.44 3376.14,342.33 3384.18,436.137 3392.21,476.487 3400.25,338.255 3408.29,315.616 3416.33,344.91 3424.37,412.538 3432.41,460.656 3440.45,353.026 3448.49,518.786 3456.53,389.497 "/>
<path clip-path="url(#clip830)" d="M2938.44 166.762 L3439.42 166.762 L3439.42 63.0816 L2938.44 63.0816  Z" fill="#ffffff" fill-rule="evenodd" fill-opacity="1"/>
<polyline clip-path="url(#clip830)" style="stroke:#000000; stroke-linecap:round; stroke-linejoin:round; stroke-width:4; stroke-opacity:1; fill:none" points="2938.44,166.762 3439.42,166.762 3439.42,63.0816 2938.44,63.0816 2938.44,166.762 "/>
<polyline clip-path="url(#clip830)" style="stroke:#009af9; stroke-linecap:round; stroke-linejoin:round; stroke-width:2; stroke-opacity:1; fill:none" points="2976.22,114.922 3202.89,114.922 "/>
<path clip-path="url(#clip830)" d="M3245.35 101.484 L3245.35 114.47 L3251.23 114.47 Q3254.49 114.47 3256.27 112.78 Q3258.05 111.091 3258.05 107.966 Q3258.05 104.864 3256.27 103.174 Q3254.49 101.484 3251.23 101.484 L3245.35 101.484 M3240.67 97.6416 L3251.23 97.6416 Q3257.04 97.6416 3260 100.28 Q3262.99 102.896 3262.99 107.966 Q3262.99 113.081 3260 115.697 Q3257.04 118.313 3251.23 118.313 L3245.35 118.313 L3245.35 132.202 L3240.67 132.202 L3240.67 97.6416 Z" fill="#000000" fill-rule="evenodd" fill-opacity="1" /><path clip-path="url(#clip830)" d="M3269.26 97.6416 L3291.11 97.6416 L3291.11 101.577 L3273.93 101.577 L3273.93 111.808 L3290.39 111.808 L3290.39 115.743 L3273.93 115.743 L3273.93 128.266 L3291.53 128.266 L3291.53 132.202 L3269.26 132.202 L3269.26 97.6416 Z" fill="#000000" fill-rule="evenodd" fill-opacity="1" /><path clip-path="url(#clip830)" d="M3299.21 97.6416 L3303.89 97.6416 L3303.89 111.808 L3320.88 111.808 L3320.88 97.6416 L3325.55 97.6416 L3325.55 132.202 L3320.88 132.202 L3320.88 115.743 L3303.89 115.743 L3303.89 132.202 L3299.21 132.202 L3299.21 97.6416 Z" fill="#000000" fill-rule="evenodd" fill-opacity="1" /><path clip-path="url(#clip830)" d="M3334.86 97.6416 L3341.83 97.6416 L3350.65 121.16 L3359.51 97.6416 L3366.48 97.6416 L3366.48 132.202 L3361.92 132.202 L3361.92 101.854 L3353.01 125.558 L3348.31 125.558 L3339.4 101.854 L3339.4 132.202 L3334.86 132.202 L3334.86 97.6416 Z" fill="#000000" fill-rule="evenodd" fill-opacity="1" /><path clip-path="url(#clip830)" d="M3401.64 100.304 L3401.64 105.234 Q3399.28 103.035 3396.6 101.947 Q3393.93 100.859 3390.92 100.859 Q3385 100.859 3381.85 104.493 Q3378.7 108.104 3378.7 114.956 Q3378.7 121.785 3381.85 125.419 Q3385 129.03 3390.92 129.03 Q3393.93 129.03 3396.6 127.942 Q3399.28 126.854 3401.64 124.655 L3401.64 129.54 Q3399.19 131.206 3396.43 132.04 Q3393.7 132.873 3390.65 132.873 Q3382.8 132.873 3378.29 128.081 Q3373.77 123.266 3373.77 114.956 Q3373.77 106.623 3378.29 101.831 Q3382.8 97.0166 3390.65 97.0166 Q3393.75 97.0166 3396.48 97.8499 Q3399.23 98.6601 3401.64 100.304 Z" fill="#000000" fill-rule="evenodd" fill-opacity="1" /></svg>
