<?xml version="1.0" encoding="utf-8"?>
<svg xmlns="http://www.w3.org/2000/svg" xmlns:xlink="http://www.w3.org/1999/xlink" width="800" height="200" viewBox="0 0 3200 800">
<defs>
  <clipPath id="clip520">
    <rect x="0" y="0" width="3200" height="800"/>
  </clipPath>
</defs>
<path clip-path="url(#clip520)" d="M0 800 L3200 800 L3200 0 L0 0  Z" fill="#ffffff" fill-rule="evenodd" fill-opacity="1"/>
<defs>
  <clipPath id="clip521">
    <rect x="640" y="0" width="2241" height="800"/>
  </clipPath>
</defs>
<path clip-path="url(#clip520)" d="M192.191 716.048 L3152.76 716.048 L3152.76 47.2441 L192.191 47.2441  Z" fill="#ffffff" fill-rule="evenodd" fill-opacity="1"/>
<defs>
  <clipPath id="clip522">
    <rect x="192" y="47" width="2962" height="670"/>
  </clipPath>
</defs>
<polyline clip-path="url(#clip522)" style="stroke:#000000; stroke-linecap:round; stroke-linejoin:round; stroke-width:2; stroke-opacity:0.1; fill:none" points="275.15,716.048 275.15,47.2441 "/>
<polyline clip-path="url(#clip522)" style="stroke:#000000; stroke-linecap:round; stroke-linejoin:round; stroke-width:2; stroke-opacity:0.1; fill:none" points="1105.9,716.048 1105.9,47.2441 "/>
<polyline clip-path="url(#clip522)" style="stroke:#000000; stroke-linecap:round; stroke-linejoin:round; stroke-width:2; stroke-opacity:0.1; fill:none" points="1936.65,716.048 1936.65,47.2441 "/>
<polyline clip-path="url(#clip522)" style="stroke:#000000; stroke-linecap:round; stroke-linejoin:round; stroke-width:2; stroke-opacity:0.1; fill:none" points="2767.4,716.048 2767.4,47.2441 "/>
<polyline clip-path="url(#clip520)" style="stroke:#000000; stroke-linecap:round; stroke-linejoin:round; stroke-width:4; stroke-opacity:1; fill:none" points="192.191,716.048 3152.76,716.048 "/>
<polyline clip-path="url(#clip520)" style="stroke:#000000; stroke-linecap:round; stroke-linejoin:round; stroke-width:4; stroke-opacity:1; fill:none" points="275.15,716.048 275.15,697.15 "/>
<polyline clip-path="url(#clip520)" style="stroke:#000000; stroke-linecap:round; stroke-linejoin:round; stroke-width:4; stroke-opacity:1; fill:none" points="1105.9,716.048 1105.9,697.15 "/>
<polyline clip-path="url(#clip520)" style="stroke:#000000; stroke-linecap:round; stroke-linejoin:round; stroke-width:4; stroke-opacity:1; fill:none" points="1936.65,716.048 1936.65,697.15 "/>
<polyline clip-path="url(#clip520)" style="stroke:#000000; stroke-linecap:round; stroke-linejoin:round; stroke-width:4; stroke-opacity:1; fill:none" points="2767.4,716.048 2767.4,697.15 "/>
<path clip-path="url(#clip520)" d="M275.15 753.367 Q271.538 753.367 269.71 756.931 Q267.904 760.473 267.904 767.603 Q267.904 774.709 269.71 778.274 Q271.538 781.815 275.15 781.815 Q278.784 781.815 280.589 778.274 Q282.418 774.709 282.418 767.603 Q282.418 760.473 280.589 756.931 Q278.784 753.367 275.15 753.367 M275.15 749.663 Q280.96 749.663 284.015 754.269 Q287.094 758.853 287.094 767.603 Q287.094 776.329 284.015 780.936 Q280.96 785.519 275.15 785.519 Q269.339 785.519 266.261 780.936 Q263.205 776.329 263.205 767.603 Q263.205 758.853 266.261 754.269 Q269.339 749.663 275.15 749.663 Z" fill="#000000" fill-rule="evenodd" fill-opacity="1" /><path clip-path="url(#clip520)" d="M1050.43 780.913 L1058.07 780.913 L1058.07 754.547 L1049.76 756.214 L1049.76 751.955 L1058.02 750.288 L1062.7 750.288 L1062.7 780.913 L1070.33 780.913 L1070.33 784.848 L1050.43 784.848 L1050.43 780.913 Z" fill="#000000" fill-rule="evenodd" fill-opacity="1" /><path clip-path="url(#clip520)" d="M1089.78 753.367 Q1086.17 753.367 1084.34 756.931 Q1082.53 760.473 1082.53 767.603 Q1082.53 774.709 1084.34 778.274 Q1086.17 781.815 1089.78 781.815 Q1093.41 781.815 1095.22 778.274 Q1097.05 774.709 1097.05 767.603 Q1097.05 760.473 1095.22 756.931 Q1093.41 753.367 1089.78 753.367 M1089.78 749.663 Q1095.59 749.663 1098.64 754.269 Q1101.72 758.853 1101.72 767.603 Q1101.72 776.329 1098.64 780.936 Q1095.59 785.519 1089.78 785.519 Q1083.97 785.519 1080.89 780.936 Q1077.83 776.329 1077.83 767.603 Q1077.83 758.853 1080.89 754.269 Q1083.97 749.663 1089.78 749.663 Z" fill="#000000" fill-rule="evenodd" fill-opacity="1" /><path clip-path="url(#clip520)" d="M1119.94 753.367 Q1116.33 753.367 1114.5 756.931 Q1112.69 760.473 1112.69 767.603 Q1112.69 774.709 1114.5 778.274 Q1116.33 781.815 1119.94 781.815 Q1123.57 781.815 1125.38 778.274 Q1127.21 774.709 1127.21 767.603 Q1127.21 760.473 1125.38 756.931 Q1123.57 753.367 1119.94 753.367 M1119.94 749.663 Q1125.75 749.663 1128.81 754.269 Q1131.88 758.853 1131.88 767.603 Q1131.88 776.329 1128.81 780.936 Q1125.75 785.519 1119.94 785.519 Q1114.13 785.519 1111.05 780.936 Q1108 776.329 1108 767.603 Q1108 758.853 1111.05 754.269 Q1114.13 749.663 1119.94 749.663 Z" fill="#000000" fill-rule="evenodd" fill-opacity="1" /><path clip-path="url(#clip520)" d="M1150.1 753.367 Q1146.49 753.367 1144.66 756.931 Q1142.86 760.473 1142.86 767.603 Q1142.86 774.709 1144.66 778.274 Q1146.49 781.815 1150.1 781.815 Q1153.74 781.815 1155.54 778.274 Q1157.37 774.709 1157.37 767.603 Q1157.37 760.473 1155.54 756.931 Q1153.74 753.367 1150.1 753.367 M1150.1 749.663 Q1155.91 749.663 1158.97 754.269 Q1162.05 758.853 1162.05 767.603 Q1162.05 776.329 1158.97 780.936 Q1155.91 785.519 1150.1 785.519 Q1144.29 785.519 1141.21 780.936 Q1138.16 776.329 1138.16 767.603 Q1138.16 758.853 1141.21 754.269 Q1144.29 749.663 1150.1 749.663 Z" fill="#000000" fill-rule="evenodd" fill-opacity="1" /><path clip-path="url(#clip520)" d="M1885.26 780.913 L1901.58 780.913 L1901.58 784.848 L1879.64 784.848 L1879.64 780.913 Q1882.3 778.158 1886.88 773.528 Q1891.49 768.876 1892.67 767.533 Q1894.92 765.01 1895.8 763.274 Q1896.7 761.515 1896.7 759.825 Q1896.7 757.07 1894.75 755.334 Q1892.83 753.598 1889.73 753.598 Q1887.53 753.598 1885.08 754.362 Q1882.65 755.126 1879.87 756.677 L1879.87 751.955 Q1882.69 750.82 1885.15 750.242 Q1887.6 749.663 1889.64 749.663 Q1895.01 749.663 1898.2 752.348 Q1901.4 755.033 1901.4 759.524 Q1901.4 761.654 1900.59 763.575 Q1899.8 765.473 1897.69 768.066 Q1897.12 768.737 1894.01 771.954 Q1890.91 775.149 1885.26 780.913 Z" fill="#000000" fill-rule="evenodd" fill-opacity="1" /><path clip-path="url(#clip520)" d="M1921.4 753.367 Q1917.79 753.367 1915.96 756.931 Q1914.15 760.473 1914.15 767.603 Q1914.15 774.709 1915.96 778.274 Q1917.79 781.815 1921.4 781.815 Q1925.03 781.815 1926.84 778.274 Q1928.67 774.709 1928.67 767.603 Q1928.67 760.473 1926.84 756.931 Q1925.03 753.367 1921.4 753.367 M1921.4 749.663 Q1927.21 749.663 1930.26 754.269 Q1933.34 758.853 1933.34 767.603 Q1933.34 776.329 1930.26 780.936 Q1927.21 785.519 1921.4 785.519 Q1915.59 785.519 1912.51 780.936 Q1909.45 776.329 1909.45 767.603 Q1909.45 758.853 1912.51 754.269 Q1915.59 749.663 1921.4 749.663 Z" fill="#000000" fill-rule="evenodd" fill-opacity="1" /><path clip-path="url(#clip520)" d="M1951.56 753.367 Q1947.95 753.367 1946.12 756.931 Q1944.31 760.473 1944.31 767.603 Q1944.31 774.709 1946.12 778.274 Q1947.95 781.815 1951.56 781.815 Q1955.19 781.815 1957 778.274 Q1958.83 774.709 1958.83 767.603 Q1958.83 760.473 1957 756.931 Q1955.19 753.367 1951.56 753.367 M1951.56 749.663 Q1957.37 749.663 1960.43 754.269 Q1963.5 758.853 1963.5 767.603 Q1963.5 776.329 1960.43 780.936 Q1957.37 785.519 1951.56 785.519 Q1945.75 785.519 1942.67 780.936 Q1939.62 776.329 1939.62 767.603 Q1939.62 758.853 1942.67 754.269 Q1945.75 749.663 1951.56 749.663 Z" fill="#000000" fill-rule="evenodd" fill-opacity="1" /><path clip-path="url(#clip520)" d="M1981.72 753.367 Q1978.11 753.367 1976.28 756.931 Q1974.48 760.473 1974.48 767.603 Q1974.48 774.709 1976.28 778.274 Q1978.11 781.815 1981.72 781.815 Q1985.36 781.815 1987.16 778.274 Q1988.99 774.709 1988.99 767.603 Q1988.99 760.473 1987.16 756.931 Q1985.36 753.367 1981.72 753.367 M1981.72 749.663 Q1987.53 749.663 1990.59 754.269 Q1993.67 758.853 1993.67 767.603 Q1993.67 776.329 1990.59 780.936 Q1987.53 785.519 1981.72 785.519 Q1975.91 785.519 1972.83 780.936 Q1969.78 776.329 1969.78 767.603 Q1969.78 758.853 1972.83 754.269 Q1975.91 749.663 1981.72 749.663 Z" fill="#000000" fill-rule="evenodd" fill-opacity="1" /><path clip-path="url(#clip520)" d="M2726.08 766.214 Q2729.44 766.931 2731.32 769.2 Q2733.21 771.468 2733.21 774.802 Q2733.21 779.917 2729.7 782.718 Q2726.18 785.519 2719.7 785.519 Q2717.52 785.519 2715.2 785.079 Q2712.91 784.663 2710.46 783.806 L2710.46 779.292 Q2712.4 780.427 2714.72 781.005 Q2717.03 781.584 2719.56 781.584 Q2723.95 781.584 2726.25 779.848 Q2728.56 778.112 2728.56 774.802 Q2728.56 771.746 2726.41 770.033 Q2724.28 768.297 2720.46 768.297 L2716.43 768.297 L2716.43 764.454 L2720.64 764.454 Q2724.09 764.454 2725.92 763.089 Q2727.75 761.7 2727.75 759.107 Q2727.75 756.445 2725.85 755.033 Q2723.98 753.598 2720.46 753.598 Q2718.54 753.598 2716.34 754.015 Q2714.14 754.431 2711.5 755.311 L2711.5 751.144 Q2714.16 750.404 2716.48 750.033 Q2718.82 749.663 2720.88 749.663 Q2726.2 749.663 2729.3 752.093 Q2732.4 754.501 2732.4 758.621 Q2732.4 761.492 2730.76 763.482 Q2729.12 765.45 2726.08 766.214 Z" fill="#000000" fill-rule="evenodd" fill-opacity="1" /><path clip-path="url(#clip520)" d="M2752.08 753.367 Q2748.47 753.367 2746.64 756.931 Q2744.83 760.473 2744.83 767.603 Q2744.83 774.709 2746.64 778.274 Q2748.47 781.815 2752.08 781.815 Q2755.71 781.815 2757.52 778.274 Q2759.35 774.709 2759.35 767.603 Q2759.35 760.473 2757.52 756.931 Q2755.71 753.367 2752.08 753.367 M2752.08 749.663 Q2757.89 749.663 2760.95 754.269 Q2764.02 758.853 2764.02 767.603 Q2764.02 776.329 2760.95 780.936 Q2757.89 785.519 2752.08 785.519 Q2746.27 785.519 2743.19 780.936 Q2740.14 776.329 2740.14 767.603 Q2740.14 758.853 2743.19 754.269 Q2746.27 749.663 2752.08 749.663 Z" fill="#000000" fill-rule="evenodd" fill-opacity="1" /><path clip-path="url(#clip520)" d="M2782.24 753.367 Q2778.63 753.367 2776.8 756.931 Q2775 760.473 2775 767.603 Q2775 774.709 2776.8 778.274 Q2778.63 781.815 2782.24 781.815 Q2785.88 781.815 2787.68 778.274 Q2789.51 774.709 2789.51 767.603 Q2789.51 760.473 2787.68 756.931 Q2785.88 753.367 2782.24 753.367 M2782.24 749.663 Q2788.05 749.663 2791.11 754.269 Q2794.19 758.853 2794.19 767.603 Q2794.19 776.329 2791.11 780.936 Q2788.05 785.519 2782.24 785.519 Q2776.43 785.519 2773.35 780.936 Q2770.3 776.329 2770.3 767.603 Q2770.3 758.853 2773.35 754.269 Q2776.43 749.663 2782.24 749.663 Z" fill="#000000" fill-rule="evenodd" fill-opacity="1" /><path clip-path="url(#clip520)" d="M2812.4 753.367 Q2808.79 753.367 2806.96 756.931 Q2805.16 760.473 2805.16 767.603 Q2805.16 774.709 2806.96 778.274 Q2808.79 781.815 2812.4 781.815 Q2816.04 781.815 2817.84 778.274 Q2819.67 774.709 2819.67 767.603 Q2819.67 760.473 2817.84 756.931 Q2816.04 753.367 2812.4 753.367 M2812.4 749.663 Q2818.21 749.663 2821.27 754.269 Q2824.35 758.853 2824.35 767.603 Q2824.35 776.329 2821.27 780.936 Q2818.21 785.519 2812.4 785.519 Q2806.59 785.519 2803.51 780.936 Q2800.46 776.329 2800.46 767.603 Q2800.46 758.853 2803.51 754.269 Q2806.59 749.663 2812.4 749.663 Z" fill="#000000" fill-rule="evenodd" fill-opacity="1" /><polyline clip-path="url(#clip522)" style="stroke:#000000; stroke-linecap:round; stroke-linejoin:round; stroke-width:2; stroke-opacity:0.1; fill:none" points="192.191,716.048 3152.76,716.048 "/>
<polyline clip-path="url(#clip522)" style="stroke:#000000; stroke-linecap:round; stroke-linejoin:round; stroke-width:2; stroke-opacity:0.1; fill:none" points="192.191,599.936 3152.76,599.936 "/>
<polyline clip-path="url(#clip522)" style="stroke:#000000; stroke-linecap:round; stroke-linejoin:round; stroke-width:2; stroke-opacity:0.1; fill:none" points="192.191,483.824 3152.76,483.824 "/>
<polyline clip-path="url(#clip522)" style="stroke:#000000; stroke-linecap:round; stroke-linejoin:round; stroke-width:2; stroke-opacity:0.1; fill:none" points="192.191,367.713 3152.76,367.713 "/>
<polyline clip-path="url(#clip522)" style="stroke:#000000; stroke-linecap:round; stroke-linejoin:round; stroke-width:2; stroke-opacity:0.1; fill:none" points="192.191,251.601 3152.76,251.601 "/>
<polyline clip-path="url(#clip522)" style="stroke:#000000; stroke-linecap:round; stroke-linejoin:round; stroke-width:2; stroke-opacity:0.1; fill:none" points="192.191,135.489 3152.76,135.489 "/>
<polyline clip-path="url(#clip520)" style="stroke:#000000; stroke-linecap:round; stroke-linejoin:round; stroke-width:4; stroke-opacity:1; fill:none" points="192.191,716.048 192.191,47.2441 "/>
<polyline clip-path="url(#clip520)" style="stroke:#000000; stroke-linecap:round; stroke-linejoin:round; stroke-width:4; stroke-opacity:1; fill:none" points="192.191,716.048 211.088,716.048 "/>
<polyline clip-path="url(#clip520)" style="stroke:#000000; stroke-linecap:round; stroke-linejoin:round; stroke-width:4; stroke-opacity:1; fill:none" points="192.191,599.936 211.088,599.936 "/>
<polyline clip-path="url(#clip520)" style="stroke:#000000; stroke-linecap:round; stroke-linejoin:round; stroke-width:4; stroke-opacity:1; fill:none" points="192.191,483.824 211.088,483.824 "/>
<polyline clip-path="url(#clip520)" style="stroke:#000000; stroke-linecap:round; stroke-linejoin:round; stroke-width:4; stroke-opacity:1; fill:none" points="192.191,367.713 211.088,367.713 "/>
<polyline clip-path="url(#clip520)" style="stroke:#000000; stroke-linecap:round; stroke-linejoin:round; stroke-width:4; stroke-opacity:1; fill:none" points="192.191,251.601 211.088,251.601 "/>
<polyline clip-path="url(#clip520)" style="stroke:#000000; stroke-linecap:round; stroke-linejoin:round; stroke-width:4; stroke-opacity:1; fill:none" points="192.191,135.489 211.088,135.489 "/>
<path clip-path="url(#clip520)" d="M87.0151 701.847 Q83.404 701.847 81.5753 705.411 Q79.7697 708.953 79.7697 716.083 Q79.7697 723.189 81.5753 726.754 Q83.404 730.295 87.0151 730.295 Q90.6493 730.295 92.4548 726.754 Q94.2835 723.189 94.2835 716.083 Q94.2835 708.953 92.4548 705.411 Q90.6493 701.847 87.0151 701.847 M87.0151 698.143 Q92.8252 698.143 95.8808 702.749 Q98.9594 707.333 98.9594 716.083 Q98.9594 724.809 95.8808 729.416 Q92.8252 733.999 87.0151 733.999 Q81.2049 733.999 78.1262 729.416 Q75.0707 724.809 75.0707 716.083 Q75.0707 707.333 78.1262 702.749 Q81.2049 698.143 87.0151 698.143 Z" fill="#000000" fill-rule="evenodd" fill-opacity="1" /><path clip-path="url(#clip520)" d="M107.177 727.448 L112.061 727.448 L112.061 733.328 L107.177 733.328 L107.177 727.448 Z" fill="#000000" fill-rule="evenodd" fill-opacity="1" /><path clip-path="url(#clip520)" d="M132.246 701.847 Q128.635 701.847 126.807 705.411 Q125.001 708.953 125.001 716.083 Q125.001 723.189 126.807 726.754 Q128.635 730.295 132.246 730.295 Q135.881 730.295 137.686 726.754 Q139.515 723.189 139.515 716.083 Q139.515 708.953 137.686 705.411 Q135.881 701.847 132.246 701.847 M132.246 698.143 Q138.056 698.143 141.112 702.749 Q144.191 707.333 144.191 716.083 Q144.191 724.809 141.112 729.416 Q138.056 733.999 132.246 733.999 Q126.436 733.999 123.357 729.416 Q120.302 724.809 120.302 716.083 Q120.302 707.333 123.357 702.749 Q126.436 698.143 132.246 698.143 Z" fill="#000000" fill-rule="evenodd" fill-opacity="1" /><path clip-path="url(#clip520)" d="M82.0382 613.281 L98.3576 613.281 L98.3576 617.216 L76.4133 617.216 L76.4133 613.281 Q79.0753 610.526 83.6586 605.897 Q88.2651 601.244 89.4456 599.901 Q91.691 597.378 92.5706 595.642 Q93.4734 593.883 93.4734 592.193 Q93.4734 589.438 91.5289 587.702 Q89.6076 585.966 86.5058 585.966 Q84.3067 585.966 81.8531 586.73 Q79.4225 587.494 76.6447 589.045 L76.6447 584.323 Q79.4688 583.189 81.9225 582.61 Q84.3762 582.031 86.4132 582.031 Q91.7836 582.031 94.978 584.716 Q98.1724 587.401 98.1724 591.892 Q98.1724 594.022 97.3622 595.943 Q96.5752 597.841 94.4687 600.434 Q93.89 601.105 90.7882 604.323 Q87.6864 607.517 82.0382 613.281 Z" fill="#000000" fill-rule="evenodd" fill-opacity="1" /><path clip-path="url(#clip520)" d="M108.172 611.337 L113.057 611.337 L113.057 617.216 L108.172 617.216 L108.172 611.337 Z" fill="#000000" fill-rule="evenodd" fill-opacity="1" /><path clip-path="url(#clip520)" d="M123.288 582.656 L141.644 582.656 L141.644 586.591 L127.57 586.591 L127.57 595.063 Q128.589 594.716 129.607 594.554 Q130.626 594.369 131.644 594.369 Q137.431 594.369 140.811 597.54 Q144.191 600.712 144.191 606.128 Q144.191 611.707 140.718 614.809 Q137.246 617.887 130.927 617.887 Q128.751 617.887 126.482 617.517 Q124.237 617.147 121.83 616.406 L121.83 611.707 Q123.913 612.841 126.135 613.397 Q128.357 613.952 130.834 613.952 Q134.839 613.952 137.177 611.846 Q139.515 609.739 139.515 606.128 Q139.515 602.517 137.177 600.411 Q134.839 598.304 130.834 598.304 Q128.959 598.304 127.084 598.721 Q125.232 599.137 123.288 600.017 L123.288 582.656 Z" fill="#000000" fill-rule="evenodd" fill-opacity="1" /><path clip-path="url(#clip520)" d="M77.0614 466.544 L95.4178 466.544 L95.4178 470.48 L81.3438 470.48 L81.3438 478.952 Q82.3623 478.604 83.3808 478.442 Q84.3993 478.257 85.4178 478.257 Q91.2049 478.257 94.5845 481.429 Q97.9641 484.6 97.9641 490.016 Q97.9641 495.595 94.4919 498.697 Q91.0197 501.776 84.7003 501.776 Q82.5243 501.776 80.2558 501.405 Q78.0105 501.035 75.6031 500.294 L75.6031 495.595 Q77.6864 496.729 79.9086 497.285 Q82.1308 497.84 84.6077 497.84 Q88.6123 497.84 90.9502 495.734 Q93.2882 493.628 93.2882 490.016 Q93.2882 486.405 90.9502 484.299 Q88.6123 482.192 84.6077 482.192 Q82.7327 482.192 80.8577 482.609 Q79.0058 483.026 77.0614 483.905 L77.0614 466.544 Z" fill="#000000" fill-rule="evenodd" fill-opacity="1" /><path clip-path="url(#clip520)" d="M107.177 495.225 L112.061 495.225 L112.061 501.104 L107.177 501.104 L107.177 495.225 Z" fill="#000000" fill-rule="evenodd" fill-opacity="1" /><path clip-path="url(#clip520)" d="M132.246 469.623 Q128.635 469.623 126.807 473.188 Q125.001 476.729 125.001 483.859 Q125.001 490.966 126.807 494.53 Q128.635 498.072 132.246 498.072 Q135.881 498.072 137.686 494.53 Q139.515 490.966 139.515 483.859 Q139.515 476.729 137.686 473.188 Q135.881 469.623 132.246 469.623 M132.246 465.919 Q138.056 465.919 141.112 470.526 Q144.191 475.109 144.191 483.859 Q144.191 492.586 141.112 497.192 Q138.056 501.776 132.246 501.776 Q126.436 501.776 123.357 497.192 Q120.302 492.586 120.302 483.859 Q120.302 475.109 123.357 470.526 Q126.436 465.919 132.246 465.919 Z" fill="#000000" fill-rule="evenodd" fill-opacity="1" /><path clip-path="url(#clip520)" d="M76.8299 350.433 L99.052 350.433 L99.052 352.423 L86.5058 384.993 L81.6216 384.993 L93.4271 354.368 L76.8299 354.368 L76.8299 350.433 Z" fill="#000000" fill-rule="evenodd" fill-opacity="1" /><path clip-path="url(#clip520)" d="M108.172 379.113 L113.057 379.113 L113.057 384.993 L108.172 384.993 L108.172 379.113 Z" fill="#000000" fill-rule="evenodd" fill-opacity="1" /><path clip-path="url(#clip520)" d="M123.288 350.433 L141.644 350.433 L141.644 354.368 L127.57 354.368 L127.57 362.84 Q128.589 362.493 129.607 362.331 Q130.626 362.145 131.644 362.145 Q137.431 362.145 140.811 365.317 Q144.191 368.488 144.191 373.905 Q144.191 379.483 140.718 382.585 Q137.246 385.664 130.927 385.664 Q128.751 385.664 126.482 385.293 Q124.237 384.923 121.83 384.182 L121.83 379.483 Q123.913 380.618 126.135 381.173 Q128.357 381.729 130.834 381.729 Q134.839 381.729 137.177 379.622 Q139.515 377.516 139.515 373.905 Q139.515 370.294 137.177 368.187 Q134.839 366.081 130.834 366.081 Q128.959 366.081 127.084 366.497 Q125.232 366.914 123.288 367.794 L123.288 350.433 Z" fill="#000000" fill-rule="evenodd" fill-opacity="1" /><path clip-path="url(#clip520)" d="M47.6634 264.946 L55.3023 264.946 L55.3023 238.58 L46.9921 240.247 L46.9921 235.987 L55.256 234.321 L59.9319 234.321 L59.9319 264.946 L67.5707 264.946 L67.5707 268.881 L47.6634 268.881 L47.6634 264.946 Z" fill="#000000" fill-rule="evenodd" fill-opacity="1" /><path clip-path="url(#clip520)" d="M87.0151 237.399 Q83.404 237.399 81.5753 240.964 Q79.7697 244.506 79.7697 251.636 Q79.7697 258.742 81.5753 262.307 Q83.404 265.848 87.0151 265.848 Q90.6493 265.848 92.4548 262.307 Q94.2835 258.742 94.2835 251.636 Q94.2835 244.506 92.4548 240.964 Q90.6493 237.399 87.0151 237.399 M87.0151 233.696 Q92.8252 233.696 95.8808 238.302 Q98.9594 242.886 98.9594 251.636 Q98.9594 260.362 95.8808 264.969 Q92.8252 269.552 87.0151 269.552 Q81.2049 269.552 78.1262 264.969 Q75.0707 260.362 75.0707 251.636 Q75.0707 242.886 78.1262 238.302 Q81.2049 233.696 87.0151 233.696 Z" fill="#000000" fill-rule="evenodd" fill-opacity="1" /><path clip-path="url(#clip520)" d="M107.177 263.001 L112.061 263.001 L112.061 268.881 L107.177 268.881 L107.177 263.001 Z" fill="#000000" fill-rule="evenodd" fill-opacity="1" /><path clip-path="url(#clip520)" d="M132.246 237.399 Q128.635 237.399 126.807 240.964 Q125.001 244.506 125.001 251.636 Q125.001 258.742 126.807 262.307 Q128.635 265.848 132.246 265.848 Q135.881 265.848 137.686 262.307 Q139.515 258.742 139.515 251.636 Q139.515 244.506 137.686 240.964 Q135.881 237.399 132.246 237.399 M132.246 233.696 Q138.056 233.696 141.112 238.302 Q144.191 242.886 144.191 251.636 Q144.191 260.362 141.112 264.969 Q138.056 269.552 132.246 269.552 Q126.436 269.552 123.357 264.969 Q120.302 260.362 120.302 251.636 Q120.302 242.886 123.357 238.302 Q126.436 233.696 132.246 233.696 Z" fill="#000000" fill-rule="evenodd" fill-opacity="1" /><path clip-path="url(#clip520)" d="M48.6588 148.834 L56.2976 148.834 L56.2976 122.468 L47.9875 124.135 L47.9875 119.876 L56.2513 118.209 L60.9272 118.209 L60.9272 148.834 L68.5661 148.834 L68.5661 152.769 L48.6588 152.769 L48.6588 148.834 Z" fill="#000000" fill-rule="evenodd" fill-opacity="1" /><path clip-path="url(#clip520)" d="M82.0382 148.834 L98.3576 148.834 L98.3576 152.769 L76.4133 152.769 L76.4133 148.834 Q79.0753 146.079 83.6586 141.45 Q88.2651 136.797 89.4456 135.454 Q91.691 132.931 92.5706 131.195 Q93.4734 129.436 93.4734 127.746 Q93.4734 124.991 91.5289 123.255 Q89.6076 121.519 86.5058 121.519 Q84.3067 121.519 81.8531 122.283 Q79.4225 123.047 76.6447 124.598 L76.6447 119.876 Q79.4688 118.741 81.9225 118.163 Q84.3762 117.584 86.4132 117.584 Q91.7836 117.584 94.978 120.269 Q98.1724 122.954 98.1724 127.445 Q98.1724 129.575 97.3622 131.496 Q96.5752 133.394 94.4687 135.987 Q93.89 136.658 90.7882 139.876 Q87.6864 143.07 82.0382 148.834 Z" fill="#000000" fill-rule="evenodd" fill-opacity="1" /><path clip-path="url(#clip520)" d="M108.172 146.889 L113.057 146.889 L113.057 152.769 L108.172 152.769 L108.172 146.889 Z" fill="#000000" fill-rule="evenodd" fill-opacity="1" /><path clip-path="url(#clip520)" d="M123.288 118.209 L141.644 118.209 L141.644 122.144 L127.57 122.144 L127.57 130.616 Q128.589 130.269 129.607 130.107 Q130.626 129.922 131.644 129.922 Q137.431 129.922 140.811 133.093 Q144.191 136.264 144.191 141.681 Q144.191 147.26 140.718 150.362 Q137.246 153.44 130.927 153.44 Q128.751 153.44 126.482 153.07 Q124.237 152.7 121.83 151.959 L121.83 147.26 Q123.913 148.394 126.135 148.95 Q128.357 149.505 130.834 149.505 Q134.839 149.505 137.177 147.399 Q139.515 145.292 139.515 141.681 Q139.515 138.07 137.177 135.964 Q134.839 133.857 130.834 133.857 Q128.959 133.857 127.084 134.274 Q125.232 134.69 123.288 135.57 L123.288 118.209 Z" fill="#000000" fill-rule="evenodd" fill-opacity="1" /><polyline clip-path="url(#clip522)" style="stroke:#009af9; stroke-linecap:round; stroke-linejoin:round; stroke-width:2; stroke-opacity:1; fill:none" points="275.98,152.052 276.811,158.631 277.642,158.944 278.473,156.954 279.303,156.282 280.134,157.018 280.965,153.925 281.796,158.472 282.626,156.89 283.457,148.243 284.288,168.519 285.119,150.836 285.949,160.813 286.78,154.857 287.611,161.418 288.442,154.039 289.272,158.111 290.103,155.369 290.934,160.266 291.765,154.563 292.595,159.321 293.426,161.295 294.257,164.788 295.088,152.251 295.918,166.518 296.749,153.587 297.58,166.48 298.411,151.427 299.241,161.276 300.072,153.527 300.903,158.518 301.734,154.072 302.564,150.36 303.395,167.804 304.226,153.541 305.057,156.108 305.887,162.038 306.718,158.604 307.549,162.402 308.38,151.253 309.21,165.687 310.041,158.939 310.872,158.859 311.703,149.887 312.533,160.542 313.364,153.524 314.195,151.449 315.026,157.449 315.856,150.62 316.687,168.811 317.518,159.3 318.349,165.028 319.179,151.598 320.01,167.847 320.841,156.586 321.672,156.067 322.502,156.768 323.333,161.142 324.164,159.298 324.995,163.944 325.825,158.199 326.656,155.685 327.487,150.669 328.318,168.811 329.148,160.468 329.979,164.205 330.81,161.234 331.641,160.339 332.471,160.456 333.302,158.633 334.133,162.386 334.964,157.776 335.794,152.02 336.625,158.019 337.456,160.009 338.287,159.727 339.117,164.361 339.948,153.866 340.779,165.435 341.61,157.591 342.44,159.781 343.271,157.182 344.102,153.261 344.933,155.125 345.763,165.675 346.594,149.284 347.425,164.737 348.256,157.572 349.086,154.677 349.917,163.234 350.748,154.921 351.579,155.655 352.409,156.211 353.24,154.327 354.071,153.783 354.902,161.951 355.732,152.016 356.563,155.566 357.394,156.731 358.225,154.122 359.055,153.23 359.886,160.662 360.717,162.754 361.548,159.436 362.378,165.387 363.209,158.252 364.04,154.828 364.871,158.531 365.701,158.981 366.532,157.391 367.363,157.716 368.194,155.636 369.024,150.294 369.855,165.069 370.686,152.879 371.517,158.13 372.347,158.524 373.178,155.672 374.009,159.226 374.84,151.925 375.67,173.742 376.501,163.39 377.332,153.021 378.163,161.137 378.993,160.295 379.824,164.18 380.655,159.901 381.486,157.084 382.316,170.473 383.147,167.176 383.978,154.199 384.809,163.756 385.639,161.797 386.47,159.486 387.301,167.077 388.132,154.311 388.962,159.035 389.793,157.739 390.624,162.393 391.455,165.194 392.285,163.482 393.116,154.468 393.947,154.282 394.778,167.718 395.608,169.102 396.439,154.045 397.27,157.976 398.101,164.521 398.931,154.662 399.762,157.517 400.593,164.669 401.424,163.988 402.254,157.863 403.085,162.102 403.916,156.512 404.747,165.384 405.577,148.647 406.408,173.121 407.239,147.651 408.07,165.045 408.9,161.955 409.731,152.098 410.562,165.705 411.393,161.389 412.223,152.669 413.054,161.06 413.885,155.396 414.716,166.928 415.546,153.802 416.377,157.389 417.208,158.404 418.039,159.286 418.869,155.995 419.7,148.513 420.531,152.688 421.362,157.138 422.192,159.022 423.023,163.034 423.854,149.921 424.685,157.485 425.516,155.828 426.346,155.399 427.177,150.525 428.008,153.075 428.839,162.311 429.669,155.56 430.5,163.02 431.331,157.746 432.162,158.154 432.992,161.853 433.823,161.489 434.654,167.103 435.485,157.586 436.315,159.285 437.146,174.984 437.977,144.243 438.808,148.944 439.638,167.356 440.469,153.133 441.3,160.748 442.131,153.121 442.961,162.888 443.792,156.155 444.623,154.98 445.454,156.367 446.284,151.805 447.115,159.129 447.946,155.474 448.777,157.629 449.607,154.477 450.438,157.359 451.269,160.645 452.1,170.179 452.93,144.873 453.761,152.058 454.592,158.903 455.423,154.89 456.253,154.548 457.084,160.52 457.915,164.906 458.746,161.385 459.576,169.996 460.407,156.353 461.238,158.408 462.069,160.328 462.899,148.934 463.73,167.129 464.561,151.965 465.392,157.773 466.222,160.938 467.053,159.979 467.884,153.088 468.715,158.658 469.545,158.603 470.376,154.336 471.207,152.405 472.038,150.747 472.868,162.378 473.699,153.207 474.53,168.063 475.361,158.878 476.191,163.398 477.022,154.823 477.853,165.933 478.684,155.086 479.514,164.137 480.345,162.056 481.176,154.311 482.007,158.741 482.837,158.387 483.668,163.386 484.499,165.071 485.33,147.943 486.16,172.472 486.991,147.433 487.822,165.367 488.653,147.944 489.483,165.297 490.314,151.722 491.145,162.664 491.976,159.88 492.806,159.283 493.637,165.837 494.468,162.769 495.299,165.916 496.129,148.684 496.96,157.481 497.791,155.727 498.622,156.781 499.452,166.573 500.283,150.635 501.114,167.217 501.945,149.34 502.775,165.77 503.606,155.253 504.437,167.464 505.268,148.915 506.098,169.734 506.929,160.169 507.76,158.533 508.591,160.006 509.421,155.326 510.252,158.573 511.083,156.93 511.914,164.741 512.744,158.609 513.575,163.189 514.406,155.536 515.237,159.77 516.067,157.936 516.898,148.864 517.729,164.885 518.56,162.704 519.39,153.57 520.221,161.627 521.052,164.429 521.883,150.707 522.713,161.557 523.544,151.121 524.375,163.937 525.206,152.593 526.036,166.448 526.867,155.171 527.698,157.684 528.529,165.108 529.359,151.71 530.19,164.569 531.021,159.577 531.852,164.633 532.682,156.922 533.513,163.361 534.344,157.751 535.175,158.821 536.005,161.203 536.836,153.436 537.667,153.856 538.498,166.772 539.328,154.329 540.159,173.153 540.99,150.114 541.821,164.71 542.651,161.208 543.482,157.667 544.313,152.874 545.144,159.142 545.974,159.272 546.805,163.133 547.636,163.456 548.467,153.881 549.297,152.545 550.128,155.894 550.959,164.211 551.79,156.736 552.62,166.048 553.451,159.265 554.282,165.755 555.113,160.479 555.943,161.172 556.774,157.88 557.605,154.572 558.436,161.151 559.266,161.341 560.097,162.402 560.928,162.174 561.759,147.545 562.589,172.131 563.42,148.818 564.251,165.095 565.082,157.012 565.912,157.961 566.743,162.658 567.574,163.88 568.405,156.76 569.235,161.154 570.066,160.516 570.897,157.641 571.728,154.027 572.558,155.564 573.389,156.93 574.22,159.395 575.051,159.97 575.882,161.767 576.712,152.675 577.543,155.556 578.374,164.044 579.205,155.233 580.035,168.365 580.866,151.995 581.697,162.539 582.528,155.892 583.358,152.288 584.189,163.01 585.02,162.309 585.851,160.125 586.681,157.632 587.512,160.836 588.343,161.732 589.174,153.58 590.004,175.603 590.835,151.033 591.666,164.092 592.497,151.092 593.327,166.344 594.158,151.864 594.989,164.867 595.82,162.819 596.65,154.174 597.481,166.651 598.312,160.018 599.143,158.621 599.973,152.463 600.804,153.793 601.635,159.839 602.466,168.249 603.296,155.07 604.127,161.073 604.958,156.535 605.789,143.459 606.619,170.137 607.45,157.549 608.281,159.48 609.112,155.534 609.942,164.865 610.773,154.855 611.604,153.987 612.435,154.266 613.265,157.613 614.096,162.166 614.927,154.333 615.758,163.987 616.588,156.247 617.419,156.431 618.25,160.299 619.081,161.84 619.911,157.582 620.742,167.586 621.573,148.803 622.404,154.618 623.234,171.307 624.065,158.604 624.896,158.544 625.727,156.884 626.557,163.25 627.388,158.58 628.219,160.65 629.05,158.227 629.88,158.306 630.711,155.759 631.542,161.886 632.373,151.373 633.203,166.149 634.034,149.349 634.865,157.701 635.696,162.013 636.526,159.537 637.357,166.395 638.188,165.293 639.019,157.937 639.849,158.491 640.68,149.335 641.511,158.767 642.342,161.399 643.172,150.998 644.003,158.866 644.834,161.671 645.665,163.804 646.495,147.646 647.326,152.899 648.157,165.898 648.988,155.865 649.818,159.974 650.649,159.214 651.48,168.596 652.311,157.267 653.141,152.857 653.972,163.46 654.803,160.573 655.634,167.293 656.464,147.997 657.295,155.445 658.126,162.79 658.957,160.541 659.787,158.155 660.618,167.035 661.449,170.823 662.28,151.147 663.11,159.701 663.941,144.928 664.772,157.613 665.603,161.144 666.433,154.697 667.264,160.01 668.095,155.364 668.926,170.48 669.756,148.769 670.587,163.905 671.418,147.92 672.249,170.346 673.079,158.189 673.91,158.676 674.741,154.955 675.572,160.959 676.402,169.979 677.233,151.742 678.064,161.976 678.895,166.652 679.725,157.779 680.556,163.527 681.387,155.442 682.218,159.465 683.048,146.39 683.879,158.088 684.71,160.036 685.541,161.533 686.371,160.315 687.202,164.439 688.033,152.442 688.864,158.245 689.694,159.832 690.525,156.413 691.356,160.716 692.187,150.126 693.017,163.268 693.848,154.765 694.679,156.374 695.51,152.409 696.34,156.947 697.171,159.567 698.002,161.228 698.833,160.495 699.663,158.809 700.494,157.115 701.325,156.383 702.156,156.778 702.986,161.536 703.817,154.8 704.648,163.433 705.479,150.757 706.309,164.342 707.14,163.295 707.971,152.314 708.802,170.131 709.632,147.915 710.463,168.879 711.294,148.253 712.125,156.244 712.955,153.341 713.786,150.804 714.617,161.013 715.448,164.748 716.278,160.678 717.109,160.458 717.94,159.142 718.771,155.563 719.601,157.533 720.432,161.302 721.263,156.873 722.094,160.933 722.924,164.836 723.755,155.785 724.586,161.737 725.417,160.854 726.247,159.078 727.078,168.478 727.909,156.764 728.74,161.183 729.571,153.406 730.401,167.424 731.232,158.231 732.063,158.188 732.894,157.804 733.724,151.857 734.555,157.436 735.386,149.553 736.217,168.584 737.047,151.357 737.878,155.32 738.709,156.66 739.54,156.97 740.37,156.974 741.201,152.287 742.032,166.546 742.863,155.79 743.693,160.209 744.524,161.231 745.355,158.796 746.186,157.442 747.016,156.188 747.847,165.165 748.678,159.363 749.509,164.897 750.339,150.711 751.17,164.407 752.001,158.948 752.832,154.803 753.662,156.095 754.493,166.867 755.324,154.163 756.155,167.86 756.985,154.783 757.816,159.511 758.647,167.936 759.478,145.655 760.308,156.482 761.139,162.2 761.97,158.497 762.801,149.869 763.631,170.641 764.462,144.881 765.293,167.472 766.124,146.318 766.954,157.537 767.785,155.977 768.616,159.802 769.447,164.138 770.277,162.894 771.108,160.267 771.939,168.686 772.77,153.557 773.6,158.105 774.431,154.282 775.262,161.323 776.093,159.033 776.923,157.506 777.754,163.696 778.585,156.38 779.416,161.796 780.246,153.796 781.077,160.498 781.908,163.306 782.739,158.408 783.569,155.034 784.4,161.821 785.231,152.904 786.062,159.808 786.892,167.109 787.723,152.315 788.554,165.536 789.385,162.324 790.215,151.94 791.046,158.819 791.877,153.171 792.708,168.658 793.538,156.102 794.369,162.435 795.2,160.894 796.031,157.001 796.861,157.112 797.692,150.663 798.523,162.19 799.354,157.673 800.184,150.604 801.015,163.634 801.846,154.383 802.677,161.657 803.507,162.935 804.338,164.603 805.169,151.925 806,161.101 806.83,154.156 807.661,159.07 808.492,152.919 809.323,163.167 810.153,164.361 810.984,165.62 811.815,154.101 812.646,170.512 813.476,156.424 814.307,163.199 815.138,162.867 815.969,165.506 816.799,145.639 817.63,171.995 818.461,158.48 819.292,168.234 820.122,159.57 820.953,163.551 821.784,149.876 822.615,156.036 823.445,157.508 824.276,163.212 825.107,155.532 825.938,155.81 826.768,160.971 827.599,157.123 828.43,161.427 829.261,153.768 830.091,157.575 830.922,160.019 831.753,164.363 832.584,148.115 833.414,156.513 834.245,157.954 835.076,157.896 835.907,161.812 836.737,160.658 837.568,157.258 838.399,162.51 839.23,166.352 840.06,159.443 840.891,164.679 841.722,166.082 842.553,160.797 843.383,148.957 844.214,173.576 845.045,143.144 845.876,158.527 846.706,159.293 847.537,163.175 848.368,156.498 849.199,157.497 850.029,160.822 850.86,160.362 851.691,153.555 852.522,164.283 853.352,157.826 854.183,159.827 855.014,156.732 855.845,158.515 856.675,157.861 857.506,158.144 858.337,167.351 859.168,157.828 859.998,156.903 860.829,153.554 861.66,162.395 862.491,154.382 863.321,158.83 864.152,157.314 864.983,156.217 865.814,167.852 866.644,163.459 867.475,162.069 868.306,152.301 869.137,161.129 869.967,159.019 870.798,154.445 871.629,160.336 872.46,164.034 873.29,154.88 874.121,157.003 874.952,158.864 875.783,160.851 876.613,152.183 877.444,169.174 878.275,151.701 879.106,167.416 879.936,149.103 880.767,169.977 881.598,152.605 882.429,171.677 883.26,159.82 884.09,154.616 884.921,160.644 885.752,154.688 886.583,169.718 887.413,149.355 888.244,152.976 889.075,161.079 889.906,165.914 890.736,158.708 891.567,163.71 892.398,155.05 893.229,161.606 894.059,153.728 894.89,162.89 895.721,158.507 896.552,158.241 897.382,151.103 898.213,158.435 899.044,158.073 899.875,158.608 900.705,159.888 901.536,157.952 902.367,160.187 903.198,157.374 904.028,164.124 904.859,159.169 905.69,160.223 906.521,154.175 907.351,167.443 908.182,149.236 909.013,168.592 909.844,148.02 910.674,156.421 911.505,155.061 912.336,163.674 913.167,155.883 913.997,157.614 914.828,165.599 915.659,152.902 916.49,148.307 917.32,164.438 918.151,161.291 918.982,158.849 919.813,152.49 920.643,159.914 921.474,155.379 922.305,156.866 923.136,156.705 923.966,163.821 924.797,164.198 925.628,152.289 926.459,160.606 927.289,161.882 928.12,157.803 928.951,165.89 929.782,152.991 930.612,167.034 931.443,151.629 932.274,166.297 933.105,156.493 933.935,158.869 934.766,164.699 935.597,157.392 936.428,159.006 937.258,153.597 938.089,164.363 938.92,161.157 939.751,159.354 940.581,158.907 941.412,158.488 942.243,158.527 943.074,157.044 943.904,161.784 944.735,162.239 945.566,159.279 946.397,154.445 947.227,157.536 948.058,152.901 948.889,162.543 949.72,170.945 950.55,162.157 951.381,158.873 952.212,161.082 953.043,155.772 953.873,159.763 954.704,156.716 955.535,158.674 956.366,159.27 957.196,161.195 958.027,151.81 958.858,146.708 959.689,166.176 960.519,149.699 961.35,168.986 962.181,154.266 963.012,154.123 963.842,157.728 964.673,160.413 965.504,158.502 966.335,164.682 967.165,157.33 967.996,162.098 968.827,162.598 969.658,161.083 970.488,153.933 971.319,162.153 972.15,157.871 972.981,165.027 973.811,158.443 974.642,158.627 975.473,170.919 976.304,148.282 977.134,156.174 977.965,149.572 978.796,164.128 979.627,151.814 980.457,167.359 981.288,159.16 982.119,155.582 982.95,156.463 983.78,157.399 984.611,160.246 985.442,163.764 986.273,149.435 987.103,162.602 987.934,160.668 988.765,160.918 989.596,156.66 990.426,158.414 991.257,157.019 992.088,160.037 992.919,157.19 993.749,162.093 994.58,156.146 995.411,151.71 996.242,154.662 997.072,151.413 997.903,158.256 998.734,158.782 999.565,157.801 1000.4,161.41 1001.23,166.256 1002.06,152.511 1002.89,166.738 1003.72,156.68 1004.55,158.652 1005.38,149.422 1006.21,156.748 1007.04,165.39 1007.87,150.749 1008.7,168.787 1009.53,161.871 1010.36,156.233 1011.2,170.159 1012.03,146.722 1012.86,161.874 1013.69,146.393 1014.52,167.584 1015.35,155.066 1016.18,157.187 1017.01,173.781 1017.84,146.803 1018.67,168.89 1019.5,147.424 1020.33,169.604 1021.16,151.437 1021.99,157.278 1022.83,163.992 1023.66,162.975 1024.49,152.284 1025.32,159.155 1026.15,156.214 1026.98,156.878 1027.81,156.116 1028.64,153.317 1029.47,164.146 1030.3,161.695 1031.13,162.667 1031.96,160.275 1032.79,151.963 1033.63,164.439 1034.46,153.004 1035.29,157.073 1036.12,158.532 1036.95,152.014 1037.78,165.02 1038.61,157.532 1039.44,164.95 1040.27,151.457 1041.1,159.331 1041.93,156.139 1042.76,160.33 1043.59,167.395 1044.43,163.045 1045.26,146.438 1046.09,149.285 1046.92,168.81 1047.75,168.852 1048.58,149.346 1049.41,159.624 1050.24,159.379 1051.07,158.384 1051.9,156.702 1052.73,159.651 1053.56,158.075 1054.39,159.894 1055.23,159.305 1056.06,156.667 1056.89,156.344 1057.72,154.384 1058.55,162.673 1059.38,163.93 1060.21,157.04 1061.04,156.483 1061.87,166.764 1062.7,153.599 1063.53,158.186 1064.36,155.931 1065.19,163.481 1066.02,151.474 1066.86,156.501 1067.69,166.166 1068.52,153.757 1069.35,163.66 1070.18,162.014 1071.01,157.718 1071.84,155.416 1072.67,153.499 1073.5,156.857 1074.33,153.175 1075.16,158.512 1075.99,159.235 1076.82,161.929 1077.66,159.707 1078.49,152.398 1079.32,159.821 1080.15,156.379 1080.98,158.732 1081.81,160.721 1082.64,157.452 1083.47,161.025 1084.3,162.186 1085.13,154.305 1085.96,151.59 1086.79,151.556 1087.62,163.515 1088.46,158.766 1089.29,163.142 1090.12,155.117 1090.95,158.523 1091.78,158.262 1092.61,147.041 1093.44,162.944 1094.27,158.806 1095.1,159.905 1095.93,158.295 1096.76,164.939 1097.59,150.916 1098.42,152.418 1099.25,159.289 1100.09,159.929 1100.92,158.278 1101.75,146.156 1102.58,170.202 1103.41,152.332 1104.24,164.4 1105.07,160.592 1105.9,157.702 1106.73,149.591 1107.56,164.151 1108.39,161.725 1109.22,162.513 1110.05,161.527 1110.89,152.463 1111.72,164.7 1112.55,153.266 1113.38,162.742 1114.21,156.429 1115.04,163.45 1115.87,155.523 1116.7,152.228 1117.53,160.265 1118.36,159.254 1119.19,152.355 1120.02,155.603 1120.85,150.343 1121.69,160.646 1122.52,154.997 1123.35,153.826 1124.18,165.271 1125.01,153.563 1125.84,159.883 1126.67,148.643 1127.5,164.254 1128.33,156.711 1129.16,161.783 1129.99,160.262 1130.82,161.798 1131.65,152.321 1132.48,167.318 1133.32,148.967 1134.15,168.817 1134.98,151.901 1135.81,169.352 1136.64,162.17 1137.47,154.147 1138.3,166.15 1139.13,160.571 1139.96,167.921 1140.79,151.847 1141.62,158.097 1142.45,164.982 1143.28,150.833 1144.12,163.824 1144.95,149.645 1145.78,164.992 1146.61,155.346 1147.44,153.644 1148.27,168.718 1149.1,161.54 1149.93,159.636 1150.76,162.751 1151.59,161.14 1152.42,158.38 1153.25,157.887 1154.08,160.455 1154.92,151.468 1155.75,163.068 1156.58,163.399 1157.41,163.083 1158.24,158.918 1159.07,147.607 1159.9,161.45 1160.73,155.187 1161.56,153.385 1162.39,160.972 1163.22,153.048 1164.05,163.25 1164.88,160.783 1165.71,154.155 1166.55,165.402 1167.38,157.697 1168.21,161.044 1169.04,152.059 1169.87,162.419 1170.7,158.296 1171.53,160.966 1172.36,155.882 1173.19,155.058 1174.02,159.597 1174.85,158.649 1175.68,157.784 1176.51,163.939 1177.35,156.882 1178.18,158.415 1179.01,154.459 1179.84,158.675 1180.67,160.25 1181.5,158.717 1182.33,149.208 1183.16,158.019 1183.99,160.495 1184.82,152.759 1185.65,159.807 1186.48,159.802 1187.31,151.754 1188.15,164.862 1188.98,158.305 1189.81,159.068 1190.64,160.331 1191.47,159.32 1192.3,156.914 1193.13,152.785 1193.96,150.005 1194.79,161.901 1195.62,155.762 1196.45,154.248 1197.28,152.974 1198.11,162.255 1198.95,165.082 1199.78,158.116 1200.61,162.292 1201.44,157.91 1202.27,154.992 1203.1,163.022 1203.93,162.631 1204.76,169.23 1205.59,151.769 1206.42,155.322 1207.25,162.906 1208.08,159.385 1208.91,156.822 1209.74,155.325 1210.58,155.981 1211.41,157.005 1212.24,166.644 1213.07,155.794 1213.9,155.176 1214.73,157.407 1215.56,155.223 1216.39,150.478 1217.22,162.204 1218.05,161.908 1218.88,165.177 1219.71,157.514 1220.54,168.938 1221.38,157.754 1222.21,150.153 1223.04,164.273 1223.87,164.042 1224.7,157.591 1225.53,164.878 1226.36,148.781 1227.19,160.536 1228.02,150.339 1228.85,154.088 1229.68,159.66 1230.51,153.774 1231.34,154.619 1232.18,164.76 1233.01,150.533 1233.84,161.756 1234.67,160.654 1235.5,155.567 1236.33,162.56 1237.16,166.942 1237.99,152.334 1238.82,149.38 1239.65,152.971 1240.48,153.196 1241.31,159.692 1242.14,157.621 1242.97,158.762 1243.81,157.091 1244.64,166.363 1245.47,158.894 1246.3,157.222 1247.13,158.152 1247.96,161.009 1248.79,158.869 1249.62,154.688 1250.45,159.757 1251.28,157.667 1252.11,170.798 1252.94,148.772 1253.77,166.33 1254.61,151.691 1255.44,160.668 1256.27,167.338 1257.1,155.804 1257.93,153.393 1258.76,156.481 1259.59,154.77 1260.42,167.38 1261.25,158.998 1262.08,158.603 1262.91,154.743 1263.74,157.285 1264.57,162.373 1265.41,163.62 1266.24,153.663 1267.07,163.042 1267.9,164.55 1268.73,147.274 1269.56,171.197 1270.39,148.186 1271.22,152.852 1272.05,163.096 1272.88,164.497 1273.71,159.138 1274.54,158.156 1275.37,165.509 1276.2,164.755 1277.04,151.936 1277.87,161.844 1278.7,162.069 1279.53,152.501 1280.36,155.712 1281.19,154.824 1282.02,160.803 1282.85,157.32 1283.68,157.984 1284.51,157.94 1285.34,155.497 1286.17,160.797 1287,151.253 1287.84,152.946 1288.67,161.338 1289.5,151.432 1290.33,169.535 1291.16,162.99 1291.99,159.391 1292.82,158.847 1293.65,156.73 1294.48,157.298 1295.31,162.003 1296.14,159.059 1296.97,158.693 1297.8,154.014 1298.64,165.699 1299.47,147.994 1300.3,165.906 1301.13,161.674 1301.96,156.457 1302.79,154.36 1303.62,156.219 1304.45,164.213 1305.28,144.711 1306.11,173.953 1306.94,151.029 1307.77,163.138 1308.6,161.646 1309.43,160.534 1310.27,162.442 1311.1,162.428 1311.93,166.633 1312.76,149.115 1313.59,159.986 1314.42,162.635 1315.25,156.501 1316.08,165.278 1316.91,153.918 1317.74,152.059 1318.57,168.783 1319.4,148.249 1320.23,171.924 1321.07,148.128 1321.9,172.152 1322.73,151.775 1323.56,168.113 1324.39,156.198 1325.22,151.221 1326.05,170.505 1326.88,139.866 1327.71,164.827 1328.54,155.228 1329.37,158.722 1330.2,158.248 1331.03,162.423 1331.87,160.862 1332.7,155.043 1333.53,162.315 1334.36,161.33 1335.19,158.357 1336.02,159.315 1336.85,163.92 1337.68,158.485 1338.51,159.5 1339.34,153.826 1340.17,151.392 1341,169.41 1341.83,151.058 1342.67,165.404 1343.5,157.632 1344.33,159.604 1345.16,162.154 1345.99,161.176 1346.82,155.767 1347.65,155.702 1348.48,152.638 1349.31,165.538 1350.14,156.011 1350.97,151.862 1351.8,159.891 1352.63,152.754 1353.46,165.775 1354.3,159.531 1355.13,163.819 1355.96,160.744 1356.79,156.451 1357.62,170.287 1358.45,156.988 1359.28,160.36 1360.11,153.656 1360.94,159.261 1361.77,165.493 1362.6,157.851 1363.43,157.645 1364.26,157.736 1365.1,165.328 1365.93,149.991 1366.76,167.093 1367.59,164.179 1368.42,153.735 1369.25,158.856 1370.08,155.682 1370.91,159.487 1371.74,161.436 1372.57,159.555 1373.4,151.051 1374.23,149.62 1375.06,156.241 1375.9,152.495 1376.73,165.228 1377.56,153.994 1378.39,164.452 1379.22,163.798 1380.05,154.075 1380.88,150.726 1381.71,159.155 1382.54,156.197 1383.37,159.528 1384.2,158.284 1385.03,162.478 1385.86,158.734 1386.69,158.993 1387.53,158.687 1388.36,159.998 1389.19,164.004 1390.02,150.545 1390.85,152.648 1391.68,159.012 1392.51,156.151 1393.34,163.716 1394.17,156.337 1395,160.3 1395.83,156.391 1396.66,158.613 1397.49,163.683 1398.33,155.973 1399.16,159.431 1399.99,157.288 1400.82,164.019 1401.65,154.597 1402.48,158.843 1403.31,164.039 1404.14,158.31 1404.97,154.48 1405.8,159.278 1406.63,160.177 1407.46,165.112 1408.29,148.666 1409.13,157.637 1409.96,168.126 1410.79,151.928 1411.62,165.223 1412.45,166.692 1413.28,154.678 1414.11,154.678 1414.94,157.286 1415.77,147.227 1416.6,163.294 1417.43,156.713 1418.26,157.702 1419.09,162.234 1419.92,158.603 1420.76,149.191 1421.59,166.763 1422.42,152.705 1423.25,162.968 1424.08,158.66 1424.91,160.193 1425.74,151.766 1426.57,154.851 1427.4,166.806 1428.23,157.664 1429.06,155.184 1429.89,161.868 1430.72,162.6 1431.56,156.53 1432.39,157.226 1433.22,154.54 1434.05,159.006 1434.88,150.195 1435.71,161.121 1436.54,159.451 1437.37,158.94 1438.2,158.378 1439.03,170.841 1439.86,160.483 1440.69,158.402 1441.52,159.438 1442.36,162.536 1443.19,162.685 1444.02,157.119 1444.85,166.703 1445.68,154.471 1446.51,168.287 1447.34,163.069 1448.17,160.732 1449,158.859 1449.83,153.211 1450.66,166.142 1451.49,159.723 1452.32,160.777 1453.15,161.055 1453.99,160.626 1454.82,154.27 1455.65,156.124 1456.48,162.802 1457.31,152.953 1458.14,153.067 1458.97,166.997 1459.8,147.893 1460.63,166.094 1461.46,152.308 1462.29,156.269 1463.12,163.449 1463.95,146.13 1464.79,149.335 1465.62,162.553 1466.45,164.967 1467.28,158.458 1468.11,171.085 1468.94,171.005 1469.77,150.622 1470.6,159.25 1471.43,153.564 1472.26,156.496 1473.09,163.887 1473.92,159.55 1474.75,151.373 1475.59,159.713 1476.42,159.46 1477.25,164.668 1478.08,147.42 1478.91,167.251 1479.74,165.88 1480.57,152.251 1481.4,165.775 1482.23,151.103 1483.06,152.05 1483.89,154.213 1484.72,162.528 1485.55,158.801 1486.38,166.23 1487.22,148.654 1488.05,169.683 1488.88,146.62 1489.71,153.31 1490.54,158.038 1491.37,154.521 1492.2,167.427 1493.03,143.775 1493.86,160.382 1494.69,156.451 1495.52,165.583 1496.35,152.266 1497.18,166.816 1498.02,156.976 1498.85,161.678 1499.68,144.773 1500.51,167.097 1501.34,156.665 1502.17,158.509 1503,167.909 1503.83,166.015 1504.66,156.383 1505.49,159.811 1506.32,162.188 1507.15,155.562 1507.98,155.708 1508.82,165.055 1509.65,156.77 1510.48,158.618 1511.31,160.946 1512.14,158.711 1512.97,155.011 1513.8,167.956 1514.63,149.356 1515.46,163.842 1516.29,153.978 1517.12,157.498 1517.95,159.224 1518.78,165.821 1519.62,160.781 1520.45,161.944 1521.28,158.854 1522.11,156.962 1522.94,160.542 1523.77,158.878 1524.6,155.468 1525.43,163.281 1526.26,154.569 1527.09,159.231 1527.92,149.309 1528.75,163.31 1529.58,162.498 1530.41,146.991 1531.25,163.673 1532.08,154.531 1532.91,160.331 1533.74,156.253 1534.57,155.524 1535.4,163.576 1536.23,161.346 1537.06,162.191 1537.89,169.983 1538.72,151.46 1539.55,163.614 1540.38,163.957 1541.21,150.095 1542.05,167.149 1542.88,159.693 1543.71,151.878 1544.54,154.76 1545.37,162.787 1546.2,155.348 1547.03,155.717 1547.86,164.091 1548.69,153.574 1549.52,150.576 1550.35,156.199 1551.18,156.977 1552.01,159.268 1552.85,160.908 1553.68,159.951 1554.51,154.891 1555.34,151.694 1556.17,158.437 1557,156.286 1557.83,160.956 1558.66,156.887 1559.49,159.633 1560.32,160.349 1561.15,155.557 1561.98,160.814 1562.81,159.254 1563.64,161.867 1564.48,165.518 1565.31,151.149 1566.14,160.778 1566.97,153.466 1567.8,161.563 1568.63,153.243 1569.46,164.976 1570.29,154.113 1571.12,157.404 1571.95,162.551 1572.78,156.293 1573.61,162.541 1574.44,154.716 1575.28,159.95 1576.11,156.605 1576.94,157.207 1577.77,161.965 1578.6,159.571 1579.43,161.069 1580.26,154.733 1581.09,160.98 1581.92,158.098 1582.75,163.667 1583.58,154.493 1584.41,166.236 1585.24,146.454 1586.08,165.864 1586.91,161.15 1587.74,151.74 1588.57,153.5 1589.4,165.217 1590.23,157.406 1591.06,157.637 1591.89,155.767 1592.72,163.844 1593.55,153.551 1594.38,155.826 1595.21,162.176 1596.04,158.908 1596.87,157.015 1597.71,158.722 1598.54,155.909 1599.37,162.765 1600.2,158.385 1601.03,157.989 1601.86,163.544 1602.69,151.797 1603.52,158.97 1604.35,160.983 1605.18,162.227 1606.01,158.448 1606.84,159.234 1607.67,157.952 1608.51,154.42 1609.34,159.537 1610.17,159.911 1611,155.777 1611.83,157.062 1612.66,163.028 1613.49,157.011 1614.32,166.361 1615.15,159.051 1615.98,160.08 1616.81,161.471 1617.64,159.841 1618.47,154.03 1619.31,153.583 1620.14,157.098 1620.97,157.781 1621.8,152.789 1622.63,168.048 1623.46,147.559 1624.29,166.69 1625.12,162.505 1625.95,160.235 1626.78,168.082 1627.61,152.838 1628.44,161.797 1629.27,160.033 1630.1,167.081 1630.94,163.642 1631.77,154.821 1632.6,155.397 1633.43,155.47 1634.26,150.07 1635.09,147.528 1635.92,149.425 1636.75,166.375 1637.58,151.358 1638.41,166.371 1639.24,153.733 1640.07,153.242 1640.9,166.443 1641.74,147.874 1642.57,171.579 1643.4,146.502 1644.23,152.358 1645.06,168.484 1645.89,153.562 1646.72,158.272 1647.55,160.498 1648.38,152.94 1649.21,151.458 1650.04,162.627 1650.87,155.535 1651.7,162.803 1652.54,160.191 1653.37,156.135 1654.2,155.089 1655.03,160.048 1655.86,158.317 1656.69,161.099 1657.52,155.718 1658.35,165.378 1659.18,153.063 1660.01,154.333 1660.84,165.336 1661.67,154.198 1662.5,155.485 1663.34,155.576 1664.17,154.457 1665,155.339 1665.83,158.173 1666.66,164.362 1667.49,149.174 1668.32,166.639 1669.15,151.332 1669.98,154.955 1670.81,156.642 1671.64,163.097 1672.47,156.85 1673.3,155.862 1674.13,164.608 1674.97,158.492 1675.8,159.347 1676.63,155.485 1677.46,158.17 1678.29,163.445 1679.12,149.381 1679.95,163.842 1680.78,149.092 1681.61,169.033 1682.44,146.249 1683.27,156.688 1684.1,159.377 1684.93,160.429 1685.77,172.472 1686.6,167.888 1687.43,146.115 1688.26,161.297 1689.09,151.991 1689.92,158.876 1690.75,152.303 1691.58,158.336 1692.41,157.183 1693.24,159.461 1694.07,164.612 1694.9,156.217 1695.73,155.492 1696.57,163.917 1697.4,156.368 1698.23,159.194 1699.06,163.649 1699.89,152.911 1700.72,165.972 1701.55,151.161 1702.38,161.541 1703.21,155.806 1704.04,159.502 1704.87,160.494 1705.7,156.032 1706.53,155.595 1707.36,152.539 1708.2,162.574 1709.03,147.908 1709.86,158.522 1710.69,158.903 1711.52,164.177 1712.35,150.185 1713.18,162.261 1714.01,164.232 1714.84,152.51 1715.67,163.343 1716.5,157.195 1717.33,157.35 1718.16,152.322 1719,164.52 1719.83,159.965 1720.66,151.262 1721.49,163.09 1722.32,155.166 1723.15,155.485 1723.98,162.372 1724.81,154.69 1725.64,159.628 1726.47,164.095 1727.3,151.265 1728.13,162.94 1728.96,149.77 1729.8,158.592 1730.63,156.818 1731.46,165.268 1732.29,151.049 1733.12,165.832 1733.95,146.204 1734.78,153.792 1735.61,158.766 1736.44,157.992 1737.27,161.134 1738.1,151.814 1738.93,161.933 1739.76,152.835 1740.59,159.34 1741.43,166.439 1742.26,159.335 1743.09,155.612 1743.92,155.633 1744.75,155.958 1745.58,162.922 1746.41,164.314 1747.24,152.594 1748.07,169.493 1748.9,158.864 1749.73,154.966 1750.56,159.741 1751.39,150.991 1752.23,169.111 1753.06,149.684 1753.89,157.626 1754.72,158.106 1755.55,169.716 1756.38,146.67 1757.21,161.147 1758.04,154.479 1758.87,158.528 1759.7,151.791 1760.53,164.359 1761.36,141.097 1762.19,176.277 1763.03,138.985 1763.86,156.581 1764.69,156.694 1765.52,154.699 1766.35,156.725 1767.18,154.47 1768.01,153.839 1768.84,158.539 1769.67,160.146 1770.5,151.809 1771.33,166.311 1772.16,160.23 1772.99,153.618 1773.82,163.203 1774.66,155.783 1775.49,162.383 1776.32,155.731 1777.15,158.469 1777.98,152.253 1778.81,165.849 1779.64,151.316 1780.47,157.48 1781.3,151.42 1782.13,160.24 1782.96,157.58 1783.79,158.979 1784.62,156.417 1785.46,150.784 1786.29,162.909 1787.12,164.318 1787.95,150.321 1788.78,160.197 1789.61,164.808 1790.44,162.695 1791.27,159.907 1792.1,156.093 1792.93,159.255 1793.76,163.341 1794.59,155.909 1795.42,161.216 1796.26,158.071 1797.09,161.195 1797.92,154.867 1798.75,162.396 1799.58,154.999 1800.41,155.258 1801.24,161.931 1802.07,158.63 1802.9,153.799 1803.73,158.008 1804.56,160.234 1805.39,161.197 1806.22,153.037 1807.06,160.944 1807.89,159.893 1808.72,156.168 1809.55,161.168 1810.38,161.941 1811.21,160.359 1812.04,156.523 1812.87,164.231 1813.7,159.79 1814.53,159.319 1815.36,162.406 1816.19,158.768 1817.02,160.954 1817.85,160.338 1818.69,159.982 1819.52,161.81 1820.35,168.69 1821.18,169.202 1822.01,147.799 1822.84,159.179 1823.67,153.025 1824.5,160.248 1825.33,152.617 1826.16,155.981 1826.99,157.509 1827.82,159.742 1828.65,164.756 1829.49,163.377 1830.32,159.562 1831.15,157.789 1831.98,161.985 1832.81,156.815 1833.64,172.484 1834.47,161.522 1835.3,164.747 1836.13,168.401 1836.96,151.237 1837.79,162.201 1838.62,152.549 1839.45,149.654 1840.29,157.056 1841.12,167.67 1841.95,156.84 1842.78,165.81 1843.61,157.428 1844.44,156.162 1845.27,151.866 1846.1,157.756 1846.93,152.146 1847.76,159.051 1848.59,155.845 1849.42,157.677 1850.25,160.394 1851.08,154.011 1851.92,160.128 1852.75,159.548 1853.58,166.707 1854.41,163.561 1855.24,146.85 1856.07,172.972 1856.9,153.432 1857.73,155.184 1858.56,159.406 1859.39,158.388 1860.22,161.948 1861.05,156.719 1861.88,155.813 1862.72,156.377 1863.55,157.802 1864.38,158.881 1865.21,152.217 1866.04,158.595 1866.87,158.344 1867.7,162.473 1868.53,162.261 1869.36,155.408 1870.19,154.529 1871.02,150.621 1871.85,162.726 1872.68,159.125 1873.52,157.832 1874.35,165.898 1875.18,153.054 1876.01,159.642 1876.84,158.498 1877.67,156.805 1878.5,166.306 1879.33,154.43 1880.16,159.403 1880.99,153.717 1881.82,169.65 1882.65,156.567 1883.48,163.563 1884.31,150.324 1885.15,169.918 1885.98,150.525 1886.81,151.801 1887.64,158.074 1888.47,167.119 1889.3,155.576 1890.13,161.206 1890.96,157.77 1891.79,147.038 1892.62,154.3 1893.45,161.566 1894.28,161.411 1895.11,158.351 1895.95,163.424 1896.78,155.026 1897.61,155.078 1898.44,159.817 1899.27,154.128 1900.1,150.418 1900.93,150.221 1901.76,166.509 1902.59,152.121 1903.42,156.946 1904.25,155.016 1905.08,156.567 1905.91,162.073 1906.75,156.209 1907.58,160.289 1908.41,156.802 1909.24,152.941 1910.07,166.371 1910.9,168.807 1911.73,145.488 1912.56,170.368 1913.39,150.309 1914.22,158.822 1915.05,155.113 1915.88,149.556 1916.71,167.611 1917.54,159.038 1918.38,151.734 1919.21,160.551 1920.04,149.587 1920.87,161.101 1921.7,163.622 1922.53,155.946 1923.36,159.966 1924.19,159.253 1925.02,161.757 1925.85,155.306 1926.68,155.035 1927.51,162.194 1928.34,158.454 1929.18,153.916 1930.01,155.08 1930.84,164.59 1931.67,150.898 1932.5,161.198 1933.33,161.175 1934.16,156.19 1934.99,162.282 1935.82,160.024 1936.65,153.047 1937.48,166.292 1938.31,161.436 1939.14,162.131 1939.98,166.446 1940.81,162.717 1941.64,158.249 1942.47,155.153 1943.3,166.483 1944.13,151.211 1944.96,166.098 1945.79,143.495 1946.62,148.452 1947.45,164.572 1948.28,150.96 1949.11,163.288 1949.94,157.003 1950.77,160.126 1951.61,164.305 1952.44,160.687 1953.27,155.361 1954.1,156.417 1954.93,164.032 1955.76,160.321 1956.59,161.025 1957.42,155.415 1958.25,161.528 1959.08,152.873 1959.91,161.37 1960.74,163.799 1961.57,149.992 1962.41,159.947 1963.24,156.833 1964.07,152.752 1964.9,171.468 1965.73,160.529 1966.56,155.85 1967.39,162.048 1968.22,153.889 1969.05,155.516 1969.88,155.782 1970.71,159.764 1971.54,150.151 1972.37,168.073 1973.21,158.555 1974.04,146.548 1974.87,168.098 1975.7,149.405 1976.53,166.952 1977.36,146.426 1978.19,168.907 1979.02,148.903 1979.85,168.497 1980.68,154.543 1981.51,159.519 1982.34,162.586 1983.17,157.726 1984.01,155.332 1984.84,158.248 1985.67,168.125 1986.5,161.721 1987.33,166.037 1988.16,149.853 1988.99,153.649 1989.82,157.698 1990.65,158.161 1991.48,158.102 1992.31,159.324 1993.14,163.891 1993.97,164.537 1994.8,162.605 1995.64,160.026 1996.47,154.355 1997.3,159.132 1998.13,159.71 1998.96,156.999 1999.79,155.776 2000.62,160.855 2001.45,167.927 2002.28,157.001 2003.11,157.728 2003.94,158.685 2004.77,165.514 2005.6,156.901 2006.44,155.132 2007.27,165.269 2008.1,158.803 2008.93,154.322 2009.76,162.442 2010.59,155.92 2011.42,156.515 2012.25,159.738 2013.08,159.195 2013.91,138.777 2014.74,167.916 2015.57,155.24 2016.4,153.353 2017.24,160.656 2018.07,155.57 2018.9,161.927 2019.73,155.711 2020.56,156.51 2021.39,162.475 2022.22,155.819 2023.05,149.284 2023.88,170.371 2024.71,150.225 2025.54,148.303 2026.37,161.623 2027.2,154.763 2028.03,169.014 2028.87,163.612 2029.7,149.803 2030.53,159.905 2031.36,161.107 2032.19,161.272 2033.02,158.498 2033.85,162.63 2034.68,151.555 2035.51,160.079 2036.34,156.634 2037.17,158.99 2038,159.367 2038.83,155.394 2039.67,153.378 2040.5,167.902 2041.33,157.174 2042.16,152.84 2042.99,165.224 2043.82,148.192 2044.65,170.026 2045.48,152.587 2046.31,164.329 2047.14,153.821 2047.97,160.571 2048.8,162.077 2049.63,156.598 2050.47,164.788 2051.3,157.761 2052.13,153.054 2052.96,150.511 2053.79,165.099 2054.62,143.635 2055.45,167.196 2056.28,159.12 2057.11,168.851 2057.94,156.348 2058.77,166.452 2059.6,161.861 2060.43,150.095 2061.26,168.574 2062.1,153.962 2062.93,156.462 2063.76,153.501 2064.59,170.614 2065.42,155.817 2066.25,154.504 2067.08,166.89 2067.91,155.679 2068.74,161.216 2069.57,154.271 2070.4,156.852 2071.23,157.8 2072.06,159.148 2072.9,157.359 2073.73,153.104 2074.56,169.52 2075.39,155.173 2076.22,165.275 2077.05,162.771 2077.88,155.51 2078.71,162.999 2079.54,160.711 2080.37,162.211 2081.2,158.669 2082.03,173.065 2082.86,142.021 2083.7,166.988 2084.53,152.092 2085.36,156.963 2086.19,150.734 2087.02,164.075 2087.85,161.537 2088.68,158.388 2089.51,160.553 2090.34,161.447 2091.17,153.596 2092,161.769 2092.83,150.365 2093.66,154.602 2094.49,163.487 2095.33,146.739 2096.16,180.39 2096.99,147.899 2097.82,169.398 2098.65,150.974 2099.48,163.251 2100.31,153.506 2101.14,167.942 2101.97,154.658 2102.8,164.133 2103.63,163.299 2104.46,146.034 2105.29,143.501 2106.13,161.383 2106.96,162.099 2107.79,160.883 2108.62,166.674 2109.45,153.077 2110.28,156.981 2111.11,161.217 2111.94,151.006 2112.77,161.674 2113.6,157.387 2114.43,160.156 2115.26,165.57 2116.09,154.11 2116.93,168.32 2117.76,149.603 2118.59,165.335 2119.42,152.241 2120.25,151.472 2121.08,164.171 2121.91,159.946 2122.74,156.88 2123.57,163.648 2124.4,164.43 2125.23,151.272 2126.06,163.626 2126.89,163.643 2127.73,157.899 2128.56,159.933 2129.39,150.573 2130.22,162.516 2131.05,155.883 2131.88,155.74 2132.71,155.722 2133.54,158.253 2134.37,160.896 2135.2,163.188 2136.03,160.949 2136.86,160.914 2137.69,155.664 2138.52,162.001 2139.36,169.454 2140.19,159.523 2141.02,151.187 2141.85,163.169 2142.68,161.633 2143.51,156.82 2144.34,166.548 2145.17,161.727 2146,159.676 2146.83,163.819 2147.66,155.459 2148.49,165.047 2149.32,161.839 2150.16,157.907 2150.99,154.023 2151.82,161.999 2152.65,152.053 2153.48,154.446 2154.31,155.989 2155.14,155.607 2155.97,155.672 2156.8,164.777 2157.63,153.251 2158.46,159.271 2159.29,163.047 2160.12,154.767 2160.96,156.716 2161.79,158.477 2162.62,160.282 2163.45,160.249 2164.28,151.249 2165.11,167.804 2165.94,154.256 2166.77,164.692 2167.6,160.621 2168.43,161.268 2169.26,159.365 2170.09,162.902 2170.92,158.399 2171.75,155.896 2172.59,155.727 2173.42,156.865 2174.25,159.842 2175.08,151.523 2175.91,160.071 2176.74,149.093 2177.57,151.342 2178.4,158.965 2179.23,158.437 2180.06,158.434 2180.89,159.822 2181.72,162.699 2182.55,150.737 2183.39,154.651 2184.22,160.886 2185.05,161.486 2185.88,152.583 2186.71,150.041 2187.54,165.558 2188.37,163.672 2189.2,145.914 2190.03,174.775 2190.86,155.033 2191.69,166.484 2192.52,166.022 2193.35,158.659 2194.19,161.933 2195.02,158.876 2195.85,151.187 2196.68,164.248 2197.51,150.061 2198.34,157.073 2199.17,158.576 2200,160.455 2200.83,151.63 2201.66,162.322 2202.49,149.603 2203.32,168.5 2204.15,160.394 2204.98,156.684 2205.82,154.274 2206.65,171.018 2207.48,151.627 2208.31,155.701 2209.14,159.351 2209.97,157.751 2210.8,158.855 2211.63,164.172 2212.46,150.581 2213.29,166.869 2214.12,164.303 2214.95,150.414 2215.78,166.94 2216.62,148.316 2217.45,168.931 2218.28,163.55 2219.11,155.272 2219.94,156.395 2220.77,158.177 2221.6,158.305 2222.43,154.093 2223.26,159.847 2224.09,161.365 2224.92,160.769 2225.75,155.305 2226.58,147.41 2227.42,166.672 2228.25,145.055 2229.08,167.342 2229.91,150.935 2230.74,156.022 2231.57,161.658 2232.4,161.892 2233.23,153.664 2234.06,155.677 2234.89,160.655 2235.72,160.962 2236.55,144.744 2237.38,163.452 2238.21,156.684 2239.05,153.342 2239.88,166.919 2240.71,153.165 2241.54,165.896 2242.37,152.771 2243.2,155.01 2244.03,161.122 2244.86,159.094 2245.69,158.542 2246.52,153.375 2247.35,160.666 2248.18,163.067 2249.01,159.325 2249.85,159.113 2250.68,153.909 2251.51,154.931 2252.34,156.652 2253.17,154.979 2254,162.412 2254.83,157.189 2255.66,161.643 2256.49,150.624 2257.32,149.409 2258.15,163.624 2258.98,151.972 2259.81,159.774 2260.65,153.174 2261.48,160.776 2262.31,160.969 2263.14,164.563 2263.97,159.6 2264.8,168.309 2265.63,160.197 2266.46,157.888 2267.29,163.084 2268.12,152.953 2268.95,159.565 2269.78,159.774 2270.61,162.807 2271.45,158.032 2272.28,160.418 2273.11,161.111 2273.94,167.092 2274.77,152.209 2275.6,165.025 2276.43,153.956 2277.26,159.652 2278.09,160.022 2278.92,159.655 2279.75,152.419 2280.58,154.771 2281.41,160.145 2282.24,154.087 2283.08,166.452 2283.91,161.579 2284.74,155.716 2285.57,165.466 2286.4,145.355 2287.23,156.336 2288.06,158.486 2288.89,159.933 2289.72,157.255 2290.55,161.914 2291.38,158.91 2292.21,166.931 2293.04,146.629 2293.88,172.043 2294.71,149.748 2295.54,167.961 2296.37,152.123 2297.2,160.605 2298.03,163.726 2298.86,157.052 2299.69,158.485 2300.52,167.595 2301.35,150.251 2302.18,165.439 2303.01,150.119 2303.84,164.723 2304.68,153.852 2305.51,159.83 2306.34,158.77 2307.17,162.365 2308,161.551 2308.83,160.661 2309.66,160.459 2310.49,153.388 2311.32,159.894 2312.15,170.574 2312.98,154.781 2313.81,156.677 2314.64,162.053 2315.47,152.795 2316.31,169.591 2317.14,154.283 2317.97,158.932 2318.8,155.109 2319.63,162.55 2320.46,158.511 2321.29,163.112 2322.12,155.092 2322.95,158.294 2323.78,154.881 2324.61,155.273 2325.44,163.313 2326.27,155.468 2327.11,153.614 2327.94,169.159 2328.77,147.971 2329.6,163.114 2330.43,155.87 2331.26,158.335 2332.09,166.619 2332.92,160.079 2333.75,156.587 2334.58,163.109 2335.41,158.776 2336.24,155.292 2337.07,160.657 2337.91,149.73 2338.74,165.225 2339.57,159.288 2340.4,158.77 2341.23,164.738 2342.06,159.041 2342.89,162.537 2343.72,160.689 2344.55,162.878 2345.38,155.707 2346.21,162.049 2347.04,154.799 2347.87,150.076 2348.7,169.185 2349.54,161.898 2350.37,161.739 2351.2,161.795 2352.03,149.777 2352.86,155.569 2353.69,151.471 2354.52,168.715 2355.35,164.219 2356.18,157.626 2357.01,163.802 2357.84,152.063 2358.67,162.552 2359.5,158.234 2360.34,156.846 2361.17,158.192 2362,161.672 2362.83,162.646 2363.66,151.64 2364.49,156.718 2365.32,162.798 2366.15,162.827 2366.98,159.069 2367.81,173.443 2368.64,146.031 2369.47,162.929 2370.3,161.626 2371.14,150.981 2371.97,168.018 2372.8,167.473 2373.63,163.289 2374.46,157.777 2375.29,167.553 2376.12,143.221 2376.95,151.448 2377.78,153.399 2378.61,156.869 2379.44,157.318 2380.27,157.26 2381.1,163.845 2381.93,158.44 2382.77,158.757 2383.6,162.887 2384.43,160.059 2385.26,155.198 2386.09,162.578 2386.92,154.867 2387.75,153.16 2388.58,162.158 2389.41,156.395 2390.24,158.064 2391.07,165.82 2391.9,150.748 2392.73,163.57 2393.57,149.555 2394.4,166.286 2395.23,143.261 2396.06,152.592 2396.89,163.04 2397.72,155.581 2398.55,158.319 2399.38,163.592 2400.21,166.108 2401.04,155.016 2401.87,161.111 2402.7,157.734 2403.53,162.119 2404.37,166.684 2405.2,152.35 2406.03,163.062 2406.86,155.728 2407.69,166.601 2408.52,153.744 2409.35,159.634 2410.18,159.928 2411.01,162.794 2411.84,151.229 2412.67,156.967 2413.5,166.209 2414.33,164.033 2415.17,158.92 2416,154.68 2416.83,152.22 2417.66,153.897 2418.49,163.588 2419.32,162.577 2420.15,151.55 2420.98,161.924 2421.81,173.11 2422.64,153.441 2423.47,172.073 2424.3,146.836 2425.13,156.498 2425.96,154.043 2426.8,159.836 2427.63,162.019 2428.46,156.183 2429.29,167.062 2430.12,156.875 2430.95,154.346 2431.78,160.195 2432.61,153.843 2433.44,173.796 2434.27,158.973 2435.1,159.055 2435.93,157.894 2436.76,160.087 2437.6,145.76 2438.43,151.173 2439.26,163.757 2440.09,152.414 2440.92,166.03 2441.75,162.518 2442.58,150.799 2443.41,151.799 2444.24,167.689 2445.07,156.823 2445.9,161.456 2446.73,159.367 2447.56,157.936 2448.4,157.193 2449.23,160.321 2450.06,154.416 2450.89,158.628 2451.72,155.493 2452.55,161.797 2453.38,159.052 2454.21,154.084 2455.04,165.092 2455.87,158.063 2456.7,159.775 2457.53,164.51 2458.36,153.444 2459.19,156.959 2460.03,161.968 2460.86,162.441 2461.69,155.244 2462.52,164.533 2463.35,149.681 2464.18,167.954 2465.01,150.101 2465.84,159.77 2466.67,158.255 2467.5,152.47 2468.33,158.953 2469.16,158.784 2469.99,166.505 2470.83,147.39 2471.66,169.046 2472.49,150.876 2473.32,157.454 2474.15,160.004 2474.98,154.955 2475.81,161.457 2476.64,156.276 2477.47,160.945 2478.3,154.299 2479.13,161.071 2479.96,161.046 2480.79,154.396 2481.63,165.334 2482.46,158.044 2483.29,160.585 2484.12,165.666 2484.95,154.297 2485.78,161.232 2486.61,154.436 2487.44,160.814 2488.27,151.974 2489.1,171.354 2489.93,159.597 2490.76,156.155 2491.59,160.115 2492.42,161.227 2493.26,156.972 2494.09,152.838 2494.92,162.355 2495.75,154.66 2496.58,146.431 2497.41,158.525 2498.24,160.092 2499.07,154.189 2499.9,159.907 2500.73,151.483 2501.56,160.152 2502.39,154.08 2503.22,154.134 2504.06,158.813 2504.89,156.28 2505.72,162.212 2506.55,159.546 2507.38,161.131 2508.21,151.957 2509.04,162.824 2509.87,156.768 2510.7,155.828 2511.53,160.031 2512.36,147.564 2513.19,164.39 2514.02,146.913 2514.86,164.427 2515.69,148.375 2516.52,162.22 2517.35,154.826 2518.18,155.194 2519.01,163.47 2519.84,164.697 2520.67,153.618 2521.5,158.787 2522.33,157.638 2523.16,156.38 2523.99,156.291 2524.82,142.323 2525.65,163.958 2526.49,149.268 2527.32,166.906 2528.15,159.488 2528.98,159.87 2529.81,164.781 2530.64,164.729 2531.47,158.32 2532.3,160.333 2533.13,157.8 2533.96,155.028 2534.79,162.384 2535.62,153.441 2536.45,165.689 2537.29,157.554 2538.12,164.066 2538.95,156.795 2539.78,162.536 2540.61,151.543 2541.44,159.06 2542.27,158.772 2543.1,155.127 2543.93,160.628 2544.76,158.754 2545.59,164.415 2546.42,160.686 2547.25,156.561 2548.09,156.39 2548.92,154.139 2549.75,168.462 2550.58,154.608 2551.41,162.766 2552.24,158.538 2553.07,160.494 2553.9,148.542 2554.73,164.498 2555.56,159.271 2556.39,155.156 2557.22,159.936 2558.05,156.828 2558.88,157.29 2559.72,160.04 2560.55,156.882 2561.38,156.172 2562.21,168.466 2563.04,153.332 2563.87,150.119 2564.7,175.329 2565.53,145.355 2566.36,154.933 2567.19,163.294 2568.02,171.426 2568.85,152.943 2569.68,164.156 2570.52,156.981 2571.35,155.51 2572.18,157.604 2573.01,156.607 2573.84,161.057 2574.67,151.195 2575.5,155.706 2576.33,164.201 2577.16,158.678 2577.99,161.372 2578.82,162.399 2579.65,161.283 2580.48,156.323 2581.32,161.02 2582.15,168.136 2582.98,150.587 2583.81,162.661 2584.64,156.047 2585.47,159.363 2586.3,148.61 2587.13,150.861 2587.96,162.37 2588.79,154.431 2589.62,156.287 2590.45,154.75 2591.28,163.139 2592.12,158.726 2592.95,155.556 2593.78,154.081 2594.61,165.118 2595.44,157.784 2596.27,166.634 2597.1,158.338 2597.93,160.586 2598.76,163.256 2599.59,160.917 2600.42,157.569 2601.25,163.375 2602.08,158.134 2602.91,152.322 2603.75,168.731 2604.58,150.293 2605.41,158.523 2606.24,165.227 2607.07,154.089 2607.9,161.887 2608.73,155.036 2609.56,158.03 2610.39,162.069 2611.22,166.466 2612.05,154.729 2612.88,154.265 2613.71,165.093 2614.55,158.479 2615.38,165.761 2616.21,162.265 2617.04,145.737 2617.87,174.648 2618.7,144.528 2619.53,151.977 2620.36,162.482 2621.19,151.246 2622.02,167.903 2622.85,153.638 2623.68,163.736 2624.51,161.532 2625.35,157.959 2626.18,159.291 2627.01,161.057 2627.84,152.727 2628.67,161.231 2629.5,156.136 2630.33,153.183 2631.16,171.587 2631.99,165.695 2632.82,164.615 2633.65,162.635 2634.48,158.296 2635.31,159.654 2636.14,158.715 2636.98,154.187 2637.81,160.312 2638.64,160.313 2639.47,154.543 2640.3,163.505 2641.13,152.452 2641.96,163.215 2642.79,149.557 2643.62,165.179 2644.45,154.331 2645.28,173.608 2646.11,140.069 2646.94,175.149 2647.78,143.174 2648.61,170.395 2649.44,147.81 2650.27,172.158 2651.1,143.376 2651.93,168.258 2652.76,146.006 2653.59,172.836 2654.42,147.867 2655.25,166.691 2656.08,161.277 2656.91,157.719 2657.74,151.279 2658.58,160.656 2659.41,164.192 2660.24,161.863 2661.07,163.423 2661.9,158.617 2662.73,156.177 2663.56,155.852 2664.39,163.493 2665.22,166.492 2666.05,157.444 2666.88,158.734 2667.71,162.412 2668.54,155.469 2669.37,157.575 2670.21,169.695 2671.04,152.582 2671.87,156.758 2672.7,157.674 2673.53,155.387 2674.36,153.369 2675.19,163.115 2676.02,162.496 2676.85,162.92 2677.68,164.723 2678.51,153.339 2679.34,161.013 2680.17,158.877 2681.01,163.864 2681.84,157.229 2682.67,157.943 2683.5,154.05 2684.33,152.631 2685.16,165.829 2685.99,156.435 2686.82,162.436 2687.65,152.958 2688.48,169.097 2689.31,141.836 2690.14,172.351 2690.97,154.775 2691.81,159.938 2692.64,159.695 2693.47,157.42 2694.3,161.408 2695.13,156.237 2695.96,164.499 2696.79,150.873 2697.62,153.147 2698.45,151.438 2699.28,155.686 2700.11,159.265 2700.94,159.06 2701.77,157.93 2702.6,159.993 2703.44,171.409 2704.27,151.387 2705.1,161.392 2705.93,156.263 2706.76,160.619 2707.59,155.857 2708.42,158.274 2709.25,167.661 2710.08,156.789 2710.91,157.416 2711.74,162.086 2712.57,159.027 2713.4,159.544 2714.24,153.885 2715.07,164.281 2715.9,161.4 2716.73,154.893 2717.56,160.854 2718.39,155.722 2719.22,151.807 2720.05,160.733 2720.88,160.74 2721.71,157.377 2722.54,163.26 2723.37,160.313 2724.2,164.789 2725.04,161.594 2725.87,167.785 2726.7,168.639 2727.53,156.706 2728.36,154.315 2729.19,151 2730.02,167.98 2730.85,152.033 2731.68,158.541 2732.51,162.297 2733.34,154.17 2734.17,160.67 2735,159.514 2735.84,156.41 2736.67,153.65 2737.5,154.204 2738.33,171.039 2739.16,142.081 2739.99,156.901 2740.82,159.32 2741.65,161.695 2742.48,158.078 2743.31,158.939 2744.14,152.307 2744.97,163.274 2745.8,157.917 2746.63,162.374 2747.47,156.909 2748.3,164.771 2749.13,155.013 2749.96,163.053 2750.79,156.336 2751.62,161.27 2752.45,162.003 2753.28,156.583 2754.11,167.606 2754.94,155.522 2755.77,165.476 2756.6,154.339 2757.43,156.394 2758.27,152.798 2759.1,155.85 2759.93,160.66 2760.76,147.668 2761.59,167.194 2762.42,152.438 2763.25,161.635 2764.08,157.206 2764.91,162.898 2765.74,157.631 2766.57,164.205 2767.4,154.087 2768.23,161.624 2769.07,154.679 2769.9,157.456 2770.73,158.42 2771.56,160.471 2772.39,157.09 2773.22,156.254 2774.05,158.107 2774.88,147.513 2775.71,161.179 2776.54,162.914 2777.37,150.906 2778.2,156.618 2779.03,153.025 2779.86,166.913 2780.7,155.475 2781.53,147.836 2782.36,154.62 2783.19,161.949 2784.02,155.649 2784.85,161.802 2785.68,162.761 2786.51,164.312 2787.34,152.737 2788.17,165.987 2789,153.906 2789.83,161.249 2790.66,145.238 2791.5,149.164 2792.33,165.96 2793.16,155.951 2793.99,161.066 2794.82,153.974 2795.65,162.808 2796.48,154.676 2797.31,153.048 2798.14,166.451 2798.97,159.484 2799.8,160.91 2800.63,156.106 2801.46,160.357 2802.3,164.148 2803.13,155.406 2803.96,162.344 2804.79,153.997 2805.62,166.213 2806.45,152.135 2807.28,163.871 2808.11,162.406 2808.94,155.87 2809.77,161.058 2810.6,156.343 2811.43,151.819 2812.26,160.086 2813.09,157.537 2813.93,171.404 2814.76,155.349 2815.59,156.563 2816.42,161.825 2817.25,162.711 2818.08,163.088 2818.91,164.46 2819.74,168.343 2820.57,154.256 2821.4,157.063 2822.23,162.862 2823.06,152.557 2823.89,155.769 2824.73,162.921 2825.56,157.193 2826.39,162.869 2827.22,167.051 2828.05,159.414 2828.88,152.244 2829.71,153.689 2830.54,157.875 2831.37,164.94 2832.2,157.99 2833.03,156.985 2833.86,159.05 2834.69,159.944 2835.53,152.164 2836.36,159.029 2837.19,170.336 2838.02,152.414 2838.85,157.901 2839.68,161.254 2840.51,159.983 2841.34,155.568 2842.17,159.816 2843,160.158 2843.83,160.517 2844.66,154.554 2845.49,157.433 2846.32,146.634 2847.16,160.542 2847.99,165.694 2848.82,152.525 2849.65,164.466 2850.48,149.318 2851.31,168.436 2852.14,153.237 2852.97,163.585 2853.8,157.448 2854.63,159.09 2855.46,153.287 2856.29,160.934 2857.12,158.02 2857.96,160.01 2858.79,157.219 2859.62,159.194 2860.45,163.398 2861.28,161.016 2862.11,160.97 2862.94,161.455 2863.77,165.037 2864.6,157.164 2865.43,157.229 2866.26,152.517 2867.09,157.623 2867.92,162.029 2868.76,155.753 2869.59,158.977 2870.42,166.435 2871.25,153.477 2872.08,162.916 2872.91,162.487 2873.74,145.637 2874.57,163.026 2875.4,158.251 2876.23,164.428 2877.06,161.869 2877.89,150.451 2878.72,161.336 2879.56,159.156 2880.39,158.306 2881.22,153.691 2882.05,156.587 2882.88,158.916 2883.71,165.216 2884.54,166.29 2885.37,145.769 2886.2,166.132 2887.03,147.917 2887.86,161.804 2888.69,157.971 2889.52,155.108 2890.35,161.078 2891.19,153.345 2892.02,155.042 2892.85,165.321 2893.68,162.508 2894.51,159.294 2895.34,160.114 2896.17,152.405 2897,163.758 2897.83,152.336 2898.66,158.751 2899.49,165.401 2900.32,156.748 2901.15,150.884 2901.99,157.876 2902.82,157.813 2903.65,160.029 2904.48,153.97 2905.31,157.861 2906.14,166.266 2906.97,161.339 2907.8,153.971 2908.63,160.814 2909.46,155.336 2910.29,154.353 2911.12,164.944 2911.95,151.137 2912.79,150.366 2913.62,157.177 2914.45,157.749 2915.28,164.175 2916.11,155.9 2916.94,160.315 2917.77,159.733 2918.6,154.262 2919.43,160.648 2920.26,161.75 2921.09,149.152 2921.92,164.604 2922.75,158.443 2923.58,164.244 2924.42,158.222 2925.25,160.376 2926.08,158.146 2926.91,161.223 2927.74,152.456 2928.57,159.784 2929.4,152.889 2930.23,164.512 2931.06,152.938 2931.89,177.701 2932.72,154.762 2933.55,159.918 2934.38,159.687 2935.22,159.109 2936.05,158.574 2936.88,159.234 2937.71,159.221 2938.54,169.601 2939.37,146.405 2940.2,161.668 2941.03,162.916 2941.86,162.139 2942.69,175.594 2943.52,169.118 2944.35,158.177 2945.18,162.351 2946.02,161.628 2946.85,160.253 2947.68,161.535 2948.51,158.885 2949.34,160.083 2950.17,148.926 2951,166.833 2951.83,153.091 2952.66,156.549 2953.49,166.379 2954.32,156.89 2955.15,162.462 2955.98,160.022 2956.81,154.862 2957.65,154.012 2958.48,157.478 2959.31,146.489 2960.14,168.925 2960.97,151.587 2961.8,169.479 2962.63,149.816 2963.46,161.598 2964.29,159.714 2965.12,161.685 2965.95,152.23 2966.78,160.02 2967.61,168.433 2968.45,160.776 2969.28,155.529 2970.11,159.664 2970.94,156.051 2971.77,166.763 2972.6,153.997 2973.43,159.199 2974.26,160.042 2975.09,159.832 2975.92,153.747 2976.75,159.529 2977.58,160.918 2978.41,153.272 2979.25,158.795 2980.08,156.09 2980.91,165.339 2981.74,162.553 2982.57,162.386 2983.4,153.599 2984.23,162.153 2985.06,150.368 2985.89,166.056 2986.72,153.815 2987.55,143.736 2988.38,161.503 2989.21,157.14 2990.04,159.333 2990.88,147.927 2991.71,160.233 2992.54,159.29 2993.37,166.504 2994.2,152.292 2995.03,162.264 2995.86,159.735 2996.69,164.196 2997.52,164.149 2998.35,155.384 2999.18,162.843 3000.01,158.715 3000.84,151.421 3001.68,157.311 3002.51,162.304 3003.34,156.361 3004.17,159.72 3005,157.663 3005.83,159.012 3006.66,149.647 3007.49,152.244 3008.32,153.629 3009.15,153.848 3009.98,159.79 3010.81,158.458 3011.64,164.176 3012.48,155.67 3013.31,158.076 3014.14,156.417 3014.97,156.911 3015.8,164.704 3016.63,157.255 3017.46,159.516 3018.29,162.928 3019.12,161.685 3019.95,159.337 3020.78,156.849 3021.61,157.308 3022.44,160.424 3023.27,162.488 3024.11,160.032 3024.94,161.024 3025.77,153.189 3026.6,167.004 3027.43,158.15 3028.26,155.972 3029.09,154.467 3029.92,150.231 3030.75,155.583 3031.58,168.993 3032.41,155.944 3033.24,156.304 3034.07,156.162 3034.91,169.801 3035.74,147.899 3036.57,159.36 3037.4,162.052 3038.23,159.197 3039.06,159.005 3039.89,155.677 3040.72,157.146 3041.55,160.094 3042.38,161.627 3043.21,153.485 3044.04,166.323 3044.87,157.156 3045.71,170.374 3046.54,145.764 3047.37,166.674 3048.2,152.861 3049.03,153.93 3049.86,158.713 3050.69,161.183 3051.52,150.777 3052.35,163.697 3053.18,166.499 3054.01,158.108 3054.84,165.53 3055.67,157.645 3056.51,157.162 3057.34,145.535 3058.17,164.211 3059,155.719 3059.83,165.324 3060.66,146.871 3061.49,175.068 3062.32,151.535 3063.15,170.339 3063.98,152.839 3064.81,155.273 3065.64,157.494 3066.47,158.269 3067.3,150.517 3068.14,158.059 3068.97,158.239 "/>
<path clip-path="url(#clip520)" d="M2655.58 693.754 L3054.07 693.754 L3054.07 590.074 L2655.58 590.074  Z" fill="#ffffff" fill-rule="evenodd" fill-opacity="1"/>
<polyline clip-path="url(#clip520)" style="stroke:#000000; stroke-linecap:round; stroke-linejoin:round; stroke-width:4; stroke-opacity:1; fill:none" points="2655.58,693.754 3054.07,693.754 3054.07,590.074 2655.58,590.074 2655.58,693.754 "/>
<polyline clip-path="url(#clip520)" style="stroke:#009af9; stroke-linecap:round; stroke-linejoin:round; stroke-width:2; stroke-opacity:1; fill:none" points="2688.48,641.914 2885.85,641.914 "/>
<path clip-path="url(#clip520)" d="M2918.75 624.634 L2923.42 624.634 L2923.42 638.801 L2940.41 638.801 L2940.41 624.634 L2945.09 624.634 L2945.09 659.194 L2940.41 659.194 L2940.41 642.736 L2923.42 642.736 L2923.42 659.194 L2918.75 659.194 L2918.75 624.634 Z" fill="#000000" fill-rule="evenodd" fill-opacity="1" /><path clip-path="url(#clip520)" d="M2954.39 624.634 L2961.36 624.634 L2970.18 648.153 L2979.05 624.634 L2986.01 624.634 L2986.01 659.194 L2981.45 659.194 L2981.45 628.847 L2972.54 652.551 L2967.84 652.551 L2958.93 628.847 L2958.93 659.194 L2954.39 659.194 L2954.39 624.634 Z" fill="#000000" fill-rule="evenodd" fill-opacity="1" /><path clip-path="url(#clip520)" d="M3021.18 627.296 L3021.18 632.227 Q3018.81 630.028 3016.13 628.94 Q3013.47 627.852 3010.46 627.852 Q3004.53 627.852 3001.38 631.486 Q2998.24 635.097 2998.24 641.949 Q2998.24 648.778 3001.38 652.412 Q3004.53 656.023 3010.46 656.023 Q3013.47 656.023 3016.13 654.935 Q3018.81 653.847 3021.18 651.648 L3021.18 656.532 Q3018.72 658.199 3015.97 659.032 Q3013.24 659.866 3010.18 659.866 Q3002.33 659.866 2997.82 655.074 Q2993.31 650.259 2993.31 641.949 Q2993.31 633.616 2997.82 628.824 Q3002.33 624.009 3010.18 624.009 Q3013.28 624.009 3016.01 624.843 Q3018.77 625.653 3021.18 627.296 Z" fill="#000000" fill-rule="evenodd" fill-opacity="1" /></svg>
