<?xml version="1.0" encoding="utf-8"?>
<svg xmlns="http://www.w3.org/2000/svg" xmlns:xlink="http://www.w3.org/1999/xlink" width="800" height="200" viewBox="0 0 3200 800">
<defs>
  <clipPath id="clip220">
    <rect x="0" y="0" width="3200" height="800"/>
  </clipPath>
</defs>
<path clip-path="url(#clip220)" d="M0 800 L3200 800 L3200 0 L0 0  Z" fill="#ffffff" fill-rule="evenodd" fill-opacity="1"/>
<defs>
  <clipPath id="clip221">
    <rect x="640" y="0" width="2241" height="800"/>
  </clipPath>
</defs>
<path clip-path="url(#clip220)" d="M192.191 716.048 L3152.76 716.048 L3152.76 47.2441 L192.191 47.2441  Z" fill="#ffffff" fill-rule="evenodd" fill-opacity="1"/>
<defs>
  <clipPath id="clip222">
    <rect x="192" y="47" width="2962" height="670"/>
  </clipPath>
</defs>
<polyline clip-path="url(#clip222)" style="stroke:#000000; stroke-linecap:round; stroke-linejoin:round; stroke-width:2; stroke-opacity:0.1; fill:none" points="275.05,716.048 275.05,47.2441 "/>
<polyline clip-path="url(#clip222)" style="stroke:#000000; stroke-linecap:round; stroke-linejoin:round; stroke-width:2; stroke-opacity:0.1; fill:none" points="1205.42,716.048 1205.42,47.2441 "/>
<polyline clip-path="url(#clip222)" style="stroke:#000000; stroke-linecap:round; stroke-linejoin:round; stroke-width:2; stroke-opacity:0.1; fill:none" points="2135.8,716.048 2135.8,47.2441 "/>
<polyline clip-path="url(#clip222)" style="stroke:#000000; stroke-linecap:round; stroke-linejoin:round; stroke-width:2; stroke-opacity:0.1; fill:none" points="3066.18,716.048 3066.18,47.2441 "/>
<polyline clip-path="url(#clip220)" style="stroke:#000000; stroke-linecap:round; stroke-linejoin:round; stroke-width:4; stroke-opacity:1; fill:none" points="192.191,716.048 3152.76,716.048 "/>
<polyline clip-path="url(#clip220)" style="stroke:#000000; stroke-linecap:round; stroke-linejoin:round; stroke-width:4; stroke-opacity:1; fill:none" points="275.05,716.048 275.05,697.15 "/>
<polyline clip-path="url(#clip220)" style="stroke:#000000; stroke-linecap:round; stroke-linejoin:round; stroke-width:4; stroke-opacity:1; fill:none" points="1205.42,716.048 1205.42,697.15 "/>
<polyline clip-path="url(#clip220)" style="stroke:#000000; stroke-linecap:round; stroke-linejoin:round; stroke-width:4; stroke-opacity:1; fill:none" points="2135.8,716.048 2135.8,697.15 "/>
<polyline clip-path="url(#clip220)" style="stroke:#000000; stroke-linecap:round; stroke-linejoin:round; stroke-width:4; stroke-opacity:1; fill:none" points="3066.18,716.048 3066.18,697.15 "/>
<path clip-path="url(#clip220)" d="M275.05 753.367 Q271.439 753.367 269.61 756.931 Q267.805 760.473 267.805 767.603 Q267.805 774.709 269.61 778.274 Q271.439 781.815 275.05 781.815 Q278.684 781.815 280.49 778.274 Q282.318 774.709 282.318 767.603 Q282.318 760.473 280.49 756.931 Q278.684 753.367 275.05 753.367 M275.05 749.663 Q280.86 749.663 283.916 754.269 Q286.994 758.853 286.994 767.603 Q286.994 776.329 283.916 780.936 Q280.86 785.519 275.05 785.519 Q269.24 785.519 266.161 780.936 Q263.106 776.329 263.106 767.603 Q263.106 758.853 266.161 754.269 Q269.24 749.663 275.05 749.663 Z" fill="#000000" fill-rule="evenodd" fill-opacity="1" /><path clip-path="url(#clip220)" d="M1149.95 780.913 L1157.59 780.913 L1157.59 754.547 L1149.28 756.214 L1149.28 751.955 L1157.54 750.288 L1162.22 750.288 L1162.22 780.913 L1169.86 780.913 L1169.86 784.848 L1149.95 784.848 L1149.95 780.913 Z" fill="#000000" fill-rule="evenodd" fill-opacity="1" /><path clip-path="url(#clip220)" d="M1189.3 753.367 Q1185.69 753.367 1183.86 756.931 Q1182.06 760.473 1182.06 767.603 Q1182.06 774.709 1183.86 778.274 Q1185.69 781.815 1189.3 781.815 Q1192.94 781.815 1194.74 778.274 Q1196.57 774.709 1196.57 767.603 Q1196.57 760.473 1194.74 756.931 Q1192.94 753.367 1189.3 753.367 M1189.3 749.663 Q1195.11 749.663 1198.17 754.269 Q1201.25 758.853 1201.25 767.603 Q1201.25 776.329 1198.17 780.936 Q1195.11 785.519 1189.3 785.519 Q1183.49 785.519 1180.41 780.936 Q1177.36 776.329 1177.36 767.603 Q1177.36 758.853 1180.41 754.269 Q1183.49 749.663 1189.3 749.663 Z" fill="#000000" fill-rule="evenodd" fill-opacity="1" /><path clip-path="url(#clip220)" d="M1219.46 753.367 Q1215.85 753.367 1214.02 756.931 Q1212.22 760.473 1212.22 767.603 Q1212.22 774.709 1214.02 778.274 Q1215.85 781.815 1219.46 781.815 Q1223.1 781.815 1224.9 778.274 Q1226.73 774.709 1226.73 767.603 Q1226.73 760.473 1224.9 756.931 Q1223.1 753.367 1219.46 753.367 M1219.46 749.663 Q1225.27 749.663 1228.33 754.269 Q1231.41 758.853 1231.41 767.603 Q1231.41 776.329 1228.33 780.936 Q1225.27 785.519 1219.46 785.519 Q1213.65 785.519 1210.58 780.936 Q1207.52 776.329 1207.52 767.603 Q1207.52 758.853 1210.58 754.269 Q1213.65 749.663 1219.46 749.663 Z" fill="#000000" fill-rule="evenodd" fill-opacity="1" /><path clip-path="url(#clip220)" d="M1249.63 753.367 Q1246.02 753.367 1244.19 756.931 Q1242.38 760.473 1242.38 767.603 Q1242.38 774.709 1244.19 778.274 Q1246.02 781.815 1249.63 781.815 Q1253.26 781.815 1255.07 778.274 Q1256.89 774.709 1256.89 767.603 Q1256.89 760.473 1255.07 756.931 Q1253.26 753.367 1249.63 753.367 M1249.63 749.663 Q1255.44 749.663 1258.49 754.269 Q1261.57 758.853 1261.57 767.603 Q1261.57 776.329 1258.49 780.936 Q1255.44 785.519 1249.63 785.519 Q1243.82 785.519 1240.74 780.936 Q1237.68 776.329 1237.68 767.603 Q1237.68 758.853 1240.74 754.269 Q1243.82 749.663 1249.63 749.663 Z" fill="#000000" fill-rule="evenodd" fill-opacity="1" /><path clip-path="url(#clip220)" d="M2084.41 780.913 L2100.73 780.913 L2100.73 784.848 L2078.79 784.848 L2078.79 780.913 Q2081.45 778.158 2086.03 773.528 Q2090.64 768.876 2091.82 767.533 Q2094.06 765.01 2094.94 763.274 Q2095.85 761.515 2095.85 759.825 Q2095.85 757.07 2093.9 755.334 Q2091.98 753.598 2088.88 753.598 Q2086.68 753.598 2084.23 754.362 Q2081.8 755.126 2079.02 756.677 L2079.02 751.955 Q2081.84 750.82 2084.3 750.242 Q2086.75 749.663 2088.79 749.663 Q2094.16 749.663 2097.35 752.348 Q2100.55 755.033 2100.55 759.524 Q2100.55 761.654 2099.74 763.575 Q2098.95 765.473 2096.84 768.066 Q2096.26 768.737 2093.16 771.954 Q2090.06 775.149 2084.41 780.913 Z" fill="#000000" fill-rule="evenodd" fill-opacity="1" /><path clip-path="url(#clip220)" d="M2120.55 753.367 Q2116.93 753.367 2115.11 756.931 Q2113.3 760.473 2113.3 767.603 Q2113.3 774.709 2115.11 778.274 Q2116.93 781.815 2120.55 781.815 Q2124.18 781.815 2125.99 778.274 Q2127.81 774.709 2127.81 767.603 Q2127.81 760.473 2125.99 756.931 Q2124.18 753.367 2120.55 753.367 M2120.55 749.663 Q2126.36 749.663 2129.41 754.269 Q2132.49 758.853 2132.49 767.603 Q2132.49 776.329 2129.41 780.936 Q2126.36 785.519 2120.55 785.519 Q2114.74 785.519 2111.66 780.936 Q2108.6 776.329 2108.6 767.603 Q2108.6 758.853 2111.66 754.269 Q2114.74 749.663 2120.55 749.663 Z" fill="#000000" fill-rule="evenodd" fill-opacity="1" /><path clip-path="url(#clip220)" d="M2150.71 753.367 Q2147.1 753.367 2145.27 756.931 Q2143.46 760.473 2143.46 767.603 Q2143.46 774.709 2145.27 778.274 Q2147.1 781.815 2150.71 781.815 Q2154.34 781.815 2156.15 778.274 Q2157.98 774.709 2157.98 767.603 Q2157.98 760.473 2156.15 756.931 Q2154.34 753.367 2150.71 753.367 M2150.71 749.663 Q2156.52 749.663 2159.57 754.269 Q2162.65 758.853 2162.65 767.603 Q2162.65 776.329 2159.57 780.936 Q2156.52 785.519 2150.71 785.519 Q2144.9 785.519 2141.82 780.936 Q2138.76 776.329 2138.76 767.603 Q2138.76 758.853 2141.82 754.269 Q2144.9 749.663 2150.71 749.663 Z" fill="#000000" fill-rule="evenodd" fill-opacity="1" /><path clip-path="url(#clip220)" d="M2180.87 753.367 Q2177.26 753.367 2175.43 756.931 Q2173.62 760.473 2173.62 767.603 Q2173.62 774.709 2175.43 778.274 Q2177.26 781.815 2180.87 781.815 Q2184.5 781.815 2186.31 778.274 Q2188.14 774.709 2188.14 767.603 Q2188.14 760.473 2186.31 756.931 Q2184.5 753.367 2180.87 753.367 M2180.87 749.663 Q2186.68 749.663 2189.73 754.269 Q2192.81 758.853 2192.81 767.603 Q2192.81 776.329 2189.73 780.936 Q2186.68 785.519 2180.87 785.519 Q2175.06 785.519 2171.98 780.936 Q2168.92 776.329 2168.92 767.603 Q2168.92 758.853 2171.98 754.269 Q2175.06 749.663 2180.87 749.663 Z" fill="#000000" fill-rule="evenodd" fill-opacity="1" /><path clip-path="url(#clip220)" d="M3024.86 766.214 Q3028.21 766.931 3030.09 769.2 Q3031.99 771.468 3031.99 774.802 Q3031.99 779.917 3028.47 782.718 Q3024.95 785.519 3018.47 785.519 Q3016.29 785.519 3013.98 785.079 Q3011.68 784.663 3009.23 783.806 L3009.23 779.292 Q3011.18 780.427 3013.49 781.005 Q3015.81 781.584 3018.33 781.584 Q3022.73 781.584 3025.02 779.848 Q3027.33 778.112 3027.33 774.802 Q3027.33 771.746 3025.18 770.033 Q3023.05 768.297 3019.23 768.297 L3015.2 768.297 L3015.2 764.454 L3019.42 764.454 Q3022.87 764.454 3024.69 763.089 Q3026.52 761.7 3026.52 759.107 Q3026.52 756.445 3024.62 755.033 Q3022.75 753.598 3019.23 753.598 Q3017.31 753.598 3015.11 754.015 Q3012.91 754.431 3010.27 755.311 L3010.27 751.144 Q3012.93 750.404 3015.25 750.033 Q3017.59 749.663 3019.65 749.663 Q3024.97 749.663 3028.07 752.093 Q3031.18 754.501 3031.18 758.621 Q3031.18 761.492 3029.53 763.482 Q3027.89 765.45 3024.86 766.214 Z" fill="#000000" fill-rule="evenodd" fill-opacity="1" /><path clip-path="url(#clip220)" d="M3050.85 753.367 Q3047.24 753.367 3045.41 756.931 Q3043.61 760.473 3043.61 767.603 Q3043.61 774.709 3045.41 778.274 Q3047.24 781.815 3050.85 781.815 Q3054.49 781.815 3056.29 778.274 Q3058.12 774.709 3058.12 767.603 Q3058.12 760.473 3056.29 756.931 Q3054.49 753.367 3050.85 753.367 M3050.85 749.663 Q3056.66 749.663 3059.72 754.269 Q3062.8 758.853 3062.8 767.603 Q3062.8 776.329 3059.72 780.936 Q3056.66 785.519 3050.85 785.519 Q3045.04 785.519 3041.96 780.936 Q3038.91 776.329 3038.91 767.603 Q3038.91 758.853 3041.96 754.269 Q3045.04 749.663 3050.85 749.663 Z" fill="#000000" fill-rule="evenodd" fill-opacity="1" /><path clip-path="url(#clip220)" d="M3081.01 753.367 Q3077.4 753.367 3075.57 756.931 Q3073.77 760.473 3073.77 767.603 Q3073.77 774.709 3075.57 778.274 Q3077.4 781.815 3081.01 781.815 Q3084.65 781.815 3086.45 778.274 Q3088.28 774.709 3088.28 767.603 Q3088.28 760.473 3086.45 756.931 Q3084.65 753.367 3081.01 753.367 M3081.01 749.663 Q3086.82 749.663 3089.88 754.269 Q3092.96 758.853 3092.96 767.603 Q3092.96 776.329 3089.88 780.936 Q3086.82 785.519 3081.01 785.519 Q3075.2 785.519 3072.12 780.936 Q3069.07 776.329 3069.07 767.603 Q3069.07 758.853 3072.12 754.269 Q3075.2 749.663 3081.01 749.663 Z" fill="#000000" fill-rule="evenodd" fill-opacity="1" /><path clip-path="url(#clip220)" d="M3111.17 753.367 Q3107.56 753.367 3105.74 756.931 Q3103.93 760.473 3103.93 767.603 Q3103.93 774.709 3105.74 778.274 Q3107.56 781.815 3111.17 781.815 Q3114.81 781.815 3116.61 778.274 Q3118.44 774.709 3118.44 767.603 Q3118.44 760.473 3116.61 756.931 Q3114.81 753.367 3111.17 753.367 M3111.17 749.663 Q3116.99 749.663 3120.04 754.269 Q3123.12 758.853 3123.12 767.603 Q3123.12 776.329 3120.04 780.936 Q3116.99 785.519 3111.17 785.519 Q3105.36 785.519 3102.29 780.936 Q3099.23 776.329 3099.23 767.603 Q3099.23 758.853 3102.29 754.269 Q3105.36 749.663 3111.17 749.663 Z" fill="#000000" fill-rule="evenodd" fill-opacity="1" /><polyline clip-path="url(#clip222)" style="stroke:#000000; stroke-linecap:round; stroke-linejoin:round; stroke-width:2; stroke-opacity:0.1; fill:none" points="192.191,716.048 3152.76,716.048 "/>
<polyline clip-path="url(#clip222)" style="stroke:#000000; stroke-linecap:round; stroke-linejoin:round; stroke-width:2; stroke-opacity:0.1; fill:none" points="192.191,599.936 3152.76,599.936 "/>
<polyline clip-path="url(#clip222)" style="stroke:#000000; stroke-linecap:round; stroke-linejoin:round; stroke-width:2; stroke-opacity:0.1; fill:none" points="192.191,483.824 3152.76,483.824 "/>
<polyline clip-path="url(#clip222)" style="stroke:#000000; stroke-linecap:round; stroke-linejoin:round; stroke-width:2; stroke-opacity:0.1; fill:none" points="192.191,367.713 3152.76,367.713 "/>
<polyline clip-path="url(#clip222)" style="stroke:#000000; stroke-linecap:round; stroke-linejoin:round; stroke-width:2; stroke-opacity:0.1; fill:none" points="192.191,251.601 3152.76,251.601 "/>
<polyline clip-path="url(#clip222)" style="stroke:#000000; stroke-linecap:round; stroke-linejoin:round; stroke-width:2; stroke-opacity:0.1; fill:none" points="192.191,135.489 3152.76,135.489 "/>
<polyline clip-path="url(#clip220)" style="stroke:#000000; stroke-linecap:round; stroke-linejoin:round; stroke-width:4; stroke-opacity:1; fill:none" points="192.191,716.048 192.191,47.2441 "/>
<polyline clip-path="url(#clip220)" style="stroke:#000000; stroke-linecap:round; stroke-linejoin:round; stroke-width:4; stroke-opacity:1; fill:none" points="192.191,716.048 211.088,716.048 "/>
<polyline clip-path="url(#clip220)" style="stroke:#000000; stroke-linecap:round; stroke-linejoin:round; stroke-width:4; stroke-opacity:1; fill:none" points="192.191,599.936 211.088,599.936 "/>
<polyline clip-path="url(#clip220)" style="stroke:#000000; stroke-linecap:round; stroke-linejoin:round; stroke-width:4; stroke-opacity:1; fill:none" points="192.191,483.824 211.088,483.824 "/>
<polyline clip-path="url(#clip220)" style="stroke:#000000; stroke-linecap:round; stroke-linejoin:round; stroke-width:4; stroke-opacity:1; fill:none" points="192.191,367.713 211.088,367.713 "/>
<polyline clip-path="url(#clip220)" style="stroke:#000000; stroke-linecap:round; stroke-linejoin:round; stroke-width:4; stroke-opacity:1; fill:none" points="192.191,251.601 211.088,251.601 "/>
<polyline clip-path="url(#clip220)" style="stroke:#000000; stroke-linecap:round; stroke-linejoin:round; stroke-width:4; stroke-opacity:1; fill:none" points="192.191,135.489 211.088,135.489 "/>
<path clip-path="url(#clip220)" d="M87.0151 701.847 Q83.404 701.847 81.5753 705.411 Q79.7697 708.953 79.7697 716.083 Q79.7697 723.189 81.5753 726.754 Q83.404 730.295 87.0151 730.295 Q90.6493 730.295 92.4548 726.754 Q94.2835 723.189 94.2835 716.083 Q94.2835 708.953 92.4548 705.411 Q90.6493 701.847 87.0151 701.847 M87.0151 698.143 Q92.8252 698.143 95.8808 702.749 Q98.9594 707.333 98.9594 716.083 Q98.9594 724.809 95.8808 729.416 Q92.8252 733.999 87.0151 733.999 Q81.2049 733.999 78.1262 729.416 Q75.0707 724.809 75.0707 716.083 Q75.0707 707.333 78.1262 702.749 Q81.2049 698.143 87.0151 698.143 Z" fill="#000000" fill-rule="evenodd" fill-opacity="1" /><path clip-path="url(#clip220)" d="M107.177 727.448 L112.061 727.448 L112.061 733.328 L107.177 733.328 L107.177 727.448 Z" fill="#000000" fill-rule="evenodd" fill-opacity="1" /><path clip-path="url(#clip220)" d="M132.246 701.847 Q128.635 701.847 126.807 705.411 Q125.001 708.953 125.001 716.083 Q125.001 723.189 126.807 726.754 Q128.635 730.295 132.246 730.295 Q135.881 730.295 137.686 726.754 Q139.515 723.189 139.515 716.083 Q139.515 708.953 137.686 705.411 Q135.881 701.847 132.246 701.847 M132.246 698.143 Q138.056 698.143 141.112 702.749 Q144.191 707.333 144.191 716.083 Q144.191 724.809 141.112 729.416 Q138.056 733.999 132.246 733.999 Q126.436 733.999 123.357 729.416 Q120.302 724.809 120.302 716.083 Q120.302 707.333 123.357 702.749 Q126.436 698.143 132.246 698.143 Z" fill="#000000" fill-rule="evenodd" fill-opacity="1" /><path clip-path="url(#clip220)" d="M82.0382 613.281 L98.3576 613.281 L98.3576 617.216 L76.4133 617.216 L76.4133 613.281 Q79.0753 610.526 83.6586 605.897 Q88.2651 601.244 89.4456 599.901 Q91.691 597.378 92.5706 595.642 Q93.4734 593.883 93.4734 592.193 Q93.4734 589.438 91.5289 587.702 Q89.6076 585.966 86.5058 585.966 Q84.3067 585.966 81.8531 586.73 Q79.4225 587.494 76.6447 589.045 L76.6447 584.323 Q79.4688 583.189 81.9225 582.61 Q84.3762 582.031 86.4132 582.031 Q91.7836 582.031 94.978 584.716 Q98.1724 587.401 98.1724 591.892 Q98.1724 594.022 97.3622 595.943 Q96.5752 597.841 94.4687 600.434 Q93.89 601.105 90.7882 604.323 Q87.6864 607.517 82.0382 613.281 Z" fill="#000000" fill-rule="evenodd" fill-opacity="1" /><path clip-path="url(#clip220)" d="M108.172 611.337 L113.057 611.337 L113.057 617.216 L108.172 617.216 L108.172 611.337 Z" fill="#000000" fill-rule="evenodd" fill-opacity="1" /><path clip-path="url(#clip220)" d="M123.288 582.656 L141.644 582.656 L141.644 586.591 L127.57 586.591 L127.57 595.063 Q128.589 594.716 129.607 594.554 Q130.626 594.369 131.644 594.369 Q137.431 594.369 140.811 597.54 Q144.191 600.712 144.191 606.128 Q144.191 611.707 140.718 614.809 Q137.246 617.887 130.927 617.887 Q128.751 617.887 126.482 617.517 Q124.237 617.147 121.83 616.406 L121.83 611.707 Q123.913 612.841 126.135 613.397 Q128.357 613.952 130.834 613.952 Q134.839 613.952 137.177 611.846 Q139.515 609.739 139.515 606.128 Q139.515 602.517 137.177 600.411 Q134.839 598.304 130.834 598.304 Q128.959 598.304 127.084 598.721 Q125.232 599.137 123.288 600.017 L123.288 582.656 Z" fill="#000000" fill-rule="evenodd" fill-opacity="1" /><path clip-path="url(#clip220)" d="M77.0614 466.544 L95.4178 466.544 L95.4178 470.48 L81.3438 470.48 L81.3438 478.952 Q82.3623 478.604 83.3808 478.442 Q84.3993 478.257 85.4178 478.257 Q91.2049 478.257 94.5845 481.429 Q97.9641 484.6 97.9641 490.016 Q97.9641 495.595 94.4919 498.697 Q91.0197 501.776 84.7003 501.776 Q82.5243 501.776 80.2558 501.405 Q78.0105 501.035 75.6031 500.294 L75.6031 495.595 Q77.6864 496.729 79.9086 497.285 Q82.1308 497.84 84.6077 497.84 Q88.6123 497.84 90.9502 495.734 Q93.2882 493.628 93.2882 490.016 Q93.2882 486.405 90.9502 484.299 Q88.6123 482.192 84.6077 482.192 Q82.7327 482.192 80.8577 482.609 Q79.0058 483.026 77.0614 483.905 L77.0614 466.544 Z" fill="#000000" fill-rule="evenodd" fill-opacity="1" /><path clip-path="url(#clip220)" d="M107.177 495.225 L112.061 495.225 L112.061 501.104 L107.177 501.104 L107.177 495.225 Z" fill="#000000" fill-rule="evenodd" fill-opacity="1" /><path clip-path="url(#clip220)" d="M132.246 469.623 Q128.635 469.623 126.807 473.188 Q125.001 476.729 125.001 483.859 Q125.001 490.966 126.807 494.53 Q128.635 498.072 132.246 498.072 Q135.881 498.072 137.686 494.53 Q139.515 490.966 139.515 483.859 Q139.515 476.729 137.686 473.188 Q135.881 469.623 132.246 469.623 M132.246 465.919 Q138.056 465.919 141.112 470.526 Q144.191 475.109 144.191 483.859 Q144.191 492.586 141.112 497.192 Q138.056 501.776 132.246 501.776 Q126.436 501.776 123.357 497.192 Q120.302 492.586 120.302 483.859 Q120.302 475.109 123.357 470.526 Q126.436 465.919 132.246 465.919 Z" fill="#000000" fill-rule="evenodd" fill-opacity="1" /><path clip-path="url(#clip220)" d="M76.8299 350.433 L99.052 350.433 L99.052 352.423 L86.5058 384.993 L81.6216 384.993 L93.4271 354.368 L76.8299 354.368 L76.8299 350.433 Z" fill="#000000" fill-rule="evenodd" fill-opacity="1" /><path clip-path="url(#clip220)" d="M108.172 379.113 L113.057 379.113 L113.057 384.993 L108.172 384.993 L108.172 379.113 Z" fill="#000000" fill-rule="evenodd" fill-opacity="1" /><path clip-path="url(#clip220)" d="M123.288 350.433 L141.644 350.433 L141.644 354.368 L127.57 354.368 L127.57 362.84 Q128.589 362.493 129.607 362.331 Q130.626 362.145 131.644 362.145 Q137.431 362.145 140.811 365.317 Q144.191 368.488 144.191 373.905 Q144.191 379.483 140.718 382.585 Q137.246 385.664 130.927 385.664 Q128.751 385.664 126.482 385.293 Q124.237 384.923 121.83 384.182 L121.83 379.483 Q123.913 380.618 126.135 381.173 Q128.357 381.729 130.834 381.729 Q134.839 381.729 137.177 379.622 Q139.515 377.516 139.515 373.905 Q139.515 370.294 137.177 368.187 Q134.839 366.081 130.834 366.081 Q128.959 366.081 127.084 366.497 Q125.232 366.914 123.288 367.794 L123.288 350.433 Z" fill="#000000" fill-rule="evenodd" fill-opacity="1" /><path clip-path="url(#clip220)" d="M47.6634 264.946 L55.3023 264.946 L55.3023 238.58 L46.9921 240.247 L46.9921 235.987 L55.256 234.321 L59.9319 234.321 L59.9319 264.946 L67.5707 264.946 L67.5707 268.881 L47.6634 268.881 L47.6634 264.946 Z" fill="#000000" fill-rule="evenodd" fill-opacity="1" /><path clip-path="url(#clip220)" d="M87.0151 237.399 Q83.404 237.399 81.5753 240.964 Q79.7697 244.506 79.7697 251.636 Q79.7697 258.742 81.5753 262.307 Q83.404 265.848 87.0151 265.848 Q90.6493 265.848 92.4548 262.307 Q94.2835 258.742 94.2835 251.636 Q94.2835 244.506 92.4548 240.964 Q90.6493 237.399 87.0151 237.399 M87.0151 233.696 Q92.8252 233.696 95.8808 238.302 Q98.9594 242.886 98.9594 251.636 Q98.9594 260.362 95.8808 264.969 Q92.8252 269.552 87.0151 269.552 Q81.2049 269.552 78.1262 264.969 Q75.0707 260.362 75.0707 251.636 Q75.0707 242.886 78.1262 238.302 Q81.2049 233.696 87.0151 233.696 Z" fill="#000000" fill-rule="evenodd" fill-opacity="1" /><path clip-path="url(#clip220)" d="M107.177 263.001 L112.061 263.001 L112.061 268.881 L107.177 268.881 L107.177 263.001 Z" fill="#000000" fill-rule="evenodd" fill-opacity="1" /><path clip-path="url(#clip220)" d="M132.246 237.399 Q128.635 237.399 126.807 240.964 Q125.001 244.506 125.001 251.636 Q125.001 258.742 126.807 262.307 Q128.635 265.848 132.246 265.848 Q135.881 265.848 137.686 262.307 Q139.515 258.742 139.515 251.636 Q139.515 244.506 137.686 240.964 Q135.881 237.399 132.246 237.399 M132.246 233.696 Q138.056 233.696 141.112 238.302 Q144.191 242.886 144.191 251.636 Q144.191 260.362 141.112 264.969 Q138.056 269.552 132.246 269.552 Q126.436 269.552 123.357 264.969 Q120.302 260.362 120.302 251.636 Q120.302 242.886 123.357 238.302 Q126.436 233.696 132.246 233.696 Z" fill="#000000" fill-rule="evenodd" fill-opacity="1" /><path clip-path="url(#clip220)" d="M48.6588 148.834 L56.2976 148.834 L56.2976 122.468 L47.9875 124.135 L47.9875 119.876 L56.2513 118.209 L60.9272 118.209 L60.9272 148.834 L68.5661 148.834 L68.5661 152.769 L48.6588 152.769 L48.6588 148.834 Z" fill="#000000" fill-rule="evenodd" fill-opacity="1" /><path clip-path="url(#clip220)" d="M82.0382 148.834 L98.3576 148.834 L98.3576 152.769 L76.4133 152.769 L76.4133 148.834 Q79.0753 146.079 83.6586 141.45 Q88.2651 136.797 89.4456 135.454 Q91.691 132.931 92.5706 131.195 Q93.4734 129.436 93.4734 127.746 Q93.4734 124.991 91.5289 123.255 Q89.6076 121.519 86.5058 121.519 Q84.3067 121.519 81.8531 122.283 Q79.4225 123.047 76.6447 124.598 L76.6447 119.876 Q79.4688 118.741 81.9225 118.163 Q84.3762 117.584 86.4132 117.584 Q91.7836 117.584 94.978 120.269 Q98.1724 122.954 98.1724 127.445 Q98.1724 129.575 97.3622 131.496 Q96.5752 133.394 94.4687 135.987 Q93.89 136.658 90.7882 139.876 Q87.6864 143.07 82.0382 148.834 Z" fill="#000000" fill-rule="evenodd" fill-opacity="1" /><path clip-path="url(#clip220)" d="M108.172 146.889 L113.057 146.889 L113.057 152.769 L108.172 152.769 L108.172 146.889 Z" fill="#000000" fill-rule="evenodd" fill-opacity="1" /><path clip-path="url(#clip220)" d="M123.288 118.209 L141.644 118.209 L141.644 122.144 L127.57 122.144 L127.57 130.616 Q128.589 130.269 129.607 130.107 Q130.626 129.922 131.644 129.922 Q137.431 129.922 140.811 133.093 Q144.191 136.264 144.191 141.681 Q144.191 147.26 140.718 150.362 Q137.246 153.44 130.927 153.44 Q128.751 153.44 126.482 153.07 Q124.237 152.7 121.83 151.959 L121.83 147.26 Q123.913 148.394 126.135 148.95 Q128.357 149.505 130.834 149.505 Q134.839 149.505 137.177 147.399 Q139.515 145.292 139.515 141.681 Q139.515 138.07 137.177 135.964 Q134.839 133.857 130.834 133.857 Q128.959 133.857 127.084 134.274 Q125.232 134.69 123.288 135.57 L123.288 118.209 Z" fill="#000000" fill-rule="evenodd" fill-opacity="1" /><polyline clip-path="url(#clip222)" style="stroke:#009af9; stroke-linecap:round; stroke-linejoin:round; stroke-width:2; stroke-opacity:1; fill:none" points="275.98,170.405 276.911,163.516 277.841,154.491 278.771,149.226 279.702,172.29 280.632,175.944 281.563,195.906 282.493,184.88 283.423,177.113 284.354,185.835 285.284,189.728 286.214,186.359 287.145,181.281 288.075,171.764 289.006,179.986 289.936,181.052 290.866,182.96 291.797,185.933 292.727,189.817 293.657,179.96 294.588,181.084 295.518,188.201 296.449,190.378 297.379,187.182 298.309,187.451 299.24,178.574 300.17,167.045 301.1,159.374 302.031,161.844 302.961,162.051 303.892,170.877 304.822,155.053 305.752,153.114 306.683,154.56 307.613,165.553 308.543,166.465 309.474,161.094 310.404,168.549 311.335,170.293 312.265,175.654 313.195,162.933 314.126,162.352 315.056,165.094 315.986,154.931 316.917,157.441 317.847,151.898 318.778,151.235 319.708,148.637 320.638,153.245 321.569,157.966 322.499,152.937 323.429,152.182 324.36,150.119 325.29,150.075 326.221,147.746 327.151,150.968 328.081,151.028 329.012,155.3 329.942,149.443 330.872,151.702 331.803,160.62 332.733,162.032 333.664,155.028 334.594,154.045 335.524,150.643 336.455,148.734 337.385,151.25 338.315,145.656 339.246,153.035 340.176,152.388 341.107,145.368 342.037,137.817 342.967,138.629 343.898,143.545 344.828,146.55 345.758,148.318 346.689,143.922 347.619,140.477 348.55,144.976 349.48,146.04 350.41,154.176 351.341,151.182 352.271,157.199 353.201,157.919 354.132,161.799 355.062,144.181 355.993,147.818 356.923,159.945 357.853,163.403 358.784,156.116 359.714,157.07 360.644,167.282 361.575,189.758 362.505,192.906 363.436,350.823 364.366,339.942 365.296,362.24 366.227,342.89 367.157,166.294 368.087,164.549 369.018,161.158 369.948,168.705 370.879,163.188 371.809,163.48 372.739,161.836 373.67,157.804 374.6,158.462 375.53,155.984 376.461,171.704 377.391,174.57 378.322,167.364 379.252,158.391 380.182,148.718 381.113,151.751 382.043,157.607 382.973,162.84 383.904,165.828 384.834,161.072 385.765,149.199 386.695,152.926 387.625,162.411 388.556,159.61 389.486,164.523 390.416,171.917 391.347,173.862 392.277,169.027 393.208,172.926 394.138,170.931 395.068,179.807 395.999,171.261 396.929,167.022 397.859,171.746 398.79,166.056 399.72,160.549 400.651,165.477 401.581,161.628 402.511,163.994 403.442,170.718 404.372,166.691 405.302,160.738 406.233,155.428 407.163,163.299 408.094,165.594 409.024,161.692 409.954,162.035 410.885,164.039 411.815,161.607 412.745,134.482 413.676,158.302 414.606,163.238 415.537,166.72 416.467,165.881 417.397,163.838 418.328,160.242 419.258,158.33 420.188,165.502 421.119,168.47 422.049,168.119 422.98,171.89 423.91,161.262 424.84,155.603 425.771,139.337 426.701,148.867 427.631,160.078 428.562,156.586 429.492,152.201 430.423,153.714 431.353,150.511 432.283,146.838 433.214,162.452 434.144,153.933 435.074,159.521 436.005,167.981 436.935,151.925 437.866,148.712 438.796,152.012 439.726,151.852 440.657,162.099 441.587,155.916 442.517,167.546 443.448,153.827 444.378,153.446 445.309,161.864 446.239,160.822 447.169,153.958 448.1,156.585 449.03,173.983 449.96,172.945 450.891,166.51 451.821,173.258 452.752,171.367 453.682,179.421 454.612,178.133 455.543,168.916 456.473,171.974 457.403,179.621 458.334,176.351 459.264,167.37 460.195,156.22 461.125,148.487 462.055,146.59 462.986,147.415 463.916,153.441 464.846,166.505 465.777,168.177 466.707,167.347 467.638,174.657 468.568,180.352 469.498,188.496 470.429,172.556 471.359,168.474 472.289,175.749 473.22,167.872 474.15,151.225 475.081,148.21 476.011,143.96 476.941,142.011 477.872,144.402 478.802,141.755 479.732,144.146 480.663,139.012 481.593,152.233 482.524,145.094 483.454,150.027 484.384,139.939 485.315,142.141 486.245,143.267 487.175,142.027 488.106,150.976 489.036,147.182 489.967,141.025 490.897,149.887 491.827,141.081 492.758,143.921 493.688,158.461 494.618,152.376 495.549,160.8 496.479,153.637 497.41,149.792 498.34,172.682 499.27,172.437 500.201,164.142 501.131,157.481 502.061,158.368 502.992,160.236 503.922,176.188 504.853,168.786 505.783,160.529 506.713,171.841 507.644,174.108 508.574,170.017 509.504,164.497 510.435,170.914 511.365,171.514 512.296,172.467 513.226,156.957 514.156,160.219 515.087,154.51 516.017,157.37 516.947,159.871 517.878,152.506 518.808,137.956 519.739,153.707 520.669,167.242 521.599,160.292 522.53,149.789 523.46,157.145 524.39,154.974 525.321,170.72 526.251,163.213 527.182,160.608 528.112,159.033 529.042,171.833 529.973,157.813 530.903,158.026 531.833,156.141 532.764,154.324 533.694,159.476 534.625,163.163 535.555,151.834 536.485,141.036 537.416,152.237 538.346,155.272 539.276,159.941 540.207,167.571 541.137,151.476 542.068,162.864 542.998,172.283 543.928,165.475 544.859,160.395 545.789,164.202 546.719,160.233 547.65,165.168 548.58,175.121 549.511,166.44 550.441,164.955 551.371,172.259 552.302,178.324 553.232,181.87 554.162,175.404 555.093,152.364 556.023,161.146 556.954,156.762 557.884,174.138 558.814,169.762 559.745,164.507 560.675,160.038 561.605,148.418 562.536,152.941 563.466,162.951 564.397,175.209 565.327,179.18 566.257,174.185 567.188,164.013 568.118,162.037 569.048,159.894 569.979,149.069 570.909,147.267 571.84,150.124 572.77,144.758 573.7,140.174 574.631,140.81 575.561,138.283 576.491,146.24 577.422,132.275 578.352,131.942 579.283,135.036 580.213,150.769 581.143,146.571 582.074,159.269 583.004,162.912 583.934,159.364 584.865,155.972 585.795,145.192 586.726,148.041 587.656,152.585 588.586,148.336 589.517,151.419 590.447,157.202 591.377,149.231 592.308,154.198 593.238,149.384 594.169,140.936 595.099,152.058 596.029,154.8 596.96,175.531 597.89,174.325 598.82,172.838 599.751,167.596 600.681,175.03 601.612,157.873 602.542,146.734 603.472,147.796 604.403,139.712 605.333,149.135 606.263,145.657 607.194,160.047 608.124,155.392 609.055,153.351 609.985,153.871 610.915,167.619 611.846,155.047 612.776,152.821 613.706,153.992 614.637,157.377 615.567,156.429 616.498,153.137 617.428,157.932 618.358,162.013 619.289,159.413 620.219,175.536 621.149,168.257 622.08,159.951 623.01,162.647 623.941,171.352 624.871,149.731 625.801,171.08 626.732,168.296 627.662,149.486 628.592,161.955 629.523,157.74 630.453,159.402 631.384,150.262 632.314,146.631 633.244,150.829 634.175,155.906 635.105,156.735 636.035,146.267 636.966,147.871 637.896,147.724 638.827,164.64 639.757,172.351 640.687,165.55 641.618,134.458 642.548,142.306 643.478,150.382 644.409,159.632 645.339,154.789 646.27,148.243 647.2,146.191 648.13,139.807 649.061,141.948 649.991,161.044 650.921,174.394 651.852,158.552 652.782,156.377 653.713,163.864 654.643,156.787 655.573,150.198 656.504,159.477 657.434,155.526 658.364,148.093 659.295,132.068 660.225,163.445 661.156,152.799 662.086,155.921 663.016,159.906 663.947,168.238 664.877,168.464 665.807,173.935 666.738,178.522 667.668,170.391 668.599,149.387 669.529,148.782 670.459,141.46 671.39,158.322 672.32,161.49 673.25,165.163 674.181,167.794 675.111,165.191 676.042,165.241 676.972,170.027 677.902,164.592 678.833,163.285 679.763,166.085 680.693,160.653 681.624,164.645 682.554,163.367 683.485,151.287 684.415,158.43 685.345,151.645 686.276,148.444 687.206,148.439 688.136,151.773 689.067,144.666 689.997,137.691 690.928,133.866 691.858,142.149 692.788,147.418 693.719,149.676 694.649,151.85 695.579,153.649 696.51,145.615 697.44,153.448 698.371,166.547 699.301,161.7 700.231,170.461 701.162,168.938 702.092,160.584 703.022,161.968 703.953,173.343 704.883,173.563 705.814,171.53 706.744,167.998 707.674,167.849 708.605,173.894 709.535,178.361 710.465,180.042 711.396,178.676 712.326,176.685 713.257,175.713 714.187,163.995 715.117,165.582 716.048,155.07 716.978,156.778 717.908,164.286 718.839,162.343 719.769,172.595 720.7,166.785 721.63,172.952 722.56,168.208 723.491,170.298 724.421,167.43 725.351,152.66 726.282,147.581 727.212,140.463 728.143,159.968 729.073,175.895 730.003,184.657 730.934,182.869 731.864,179.76 732.794,183.629 733.725,182.272 734.655,178.95 735.586,168.33 736.516,168.231 737.446,171.545 738.377,165.186 739.307,181.658 740.237,169.332 741.168,172.691 742.098,176.485 743.029,179.253 743.959,165.589 744.889,154.226 745.82,153.439 746.75,153.433 747.68,153.966 748.611,164.027 749.541,168.53 750.472,173.076 751.402,164.172 752.332,163.147 753.263,173.086 754.193,184.733 755.123,170.359 756.054,167.849 756.984,160.651 757.915,160.097 758.845,165.503 759.775,160.939 760.706,160.71 761.636,165.685 762.566,155.628 763.497,160.248 764.427,149.619 765.358,157.376 766.288,155.833 767.218,156.055 768.149,151.458 769.079,152.651 770.009,156.722 770.94,167.854 771.87,170.183 772.801,173.453 773.731,174.4 774.661,172.857 775.592,161.911 776.522,159.875 777.452,149.999 778.383,156.268 779.313,146.705 780.244,138.645 781.174,131.617 782.104,131.659 783.035,131.254 783.965,135.99 784.895,158.802 785.826,159.128 786.756,156.722 787.687,167.935 788.617,179.913 789.547,185.469 790.478,176.21 791.408,166.098 792.338,157.316 793.269,170.729 794.199,164.701 795.13,165.412 796.06,178.102 796.99,162.717 797.921,161.231 798.851,154.659 799.781,150.842 800.712,149.155 801.642,150.813 802.573,154.131 803.503,151.083 804.433,149.896 805.364,148.579 806.294,170.695 807.224,166.038 808.155,164.944 809.085,164.679 810.016,157.934 810.946,154.776 811.876,140.11 812.807,138.455 813.737,130.384 814.667,146.779 815.598,147.038 816.528,148.037 817.459,155.22 818.389,152.551 819.319,158.035 820.25,157.879 821.18,142.35 822.11,141.361 823.041,157.542 823.971,166.521 824.902,174.538 825.832,177.761 826.762,173.086 827.693,165.008 828.623,155.421 829.553,165.963 830.484,171.044 831.414,166.14 832.345,169.098 833.275,159.517 834.205,158.236 835.136,148.866 836.066,148.769 836.996,142.274 837.927,142.844 838.857,141.302 839.788,140.187 840.718,150.896 841.648,142.984 842.579,148.274 843.509,146.484 844.439,136.211 845.37,136.596 846.3,137.438 847.231,147.389 848.161,132.31 849.091,143.031 850.022,146.231 850.952,156.53 851.882,148.457 852.813,157.979 853.743,159.183 854.674,157.268 855.604,152.482 856.534,164.201 857.465,165.533 858.395,162.699 859.325,168.629 860.256,174.79 861.186,178.533 862.117,169.541 863.047,152.322 863.977,158.115 864.908,162.26 865.838,156.697 866.768,148.499 867.699,151.811 868.629,156.114 869.56,153.083 870.49,152.515 871.42,156.939 872.351,162.249 873.281,167.528 874.211,170.698 875.142,161.071 876.072,159.672 877.003,155.326 877.933,151.386 878.863,158.624 879.794,163.17 880.724,141.66 881.654,155.014 882.585,161.539 883.515,174.078 884.446,176.694 885.376,177.455 886.306,172.323 887.237,164.9 888.167,161.579 889.097,151.68 890.028,146.093 890.958,151.388 891.889,165.646 892.819,140.958 893.749,132.267 894.68,131.295 895.61,133.489 896.54,142.848 897.471,148.176 898.401,144.35 899.332,154.926 900.262,142.737 901.192,144.407 902.123,148.846 903.053,150.336 903.983,168.457 904.914,166.378 905.844,169.295 906.775,155.721 907.705,150.945 908.635,160.812 909.566,142.14 910.496,156.367 911.426,155.545 912.357,164.709 913.287,156.749 914.218,157.204 915.148,153.752 916.078,157.498 917.009,151.499 917.939,162.695 918.869,169.936 919.8,164.136 920.73,167.216 921.661,161.155 922.591,155.646 923.521,146.952 924.452,159.368 925.382,162.554 926.312,154.027 927.243,154.457 928.173,159.131 929.104,159.563 930.034,170.743 930.964,180.342 931.895,172.892 932.825,166.045 933.755,162.549 934.686,157.277 935.616,142.368 936.547,148.624 937.477,153.47 938.407,153.315 939.338,159.772 940.268,148.711 941.198,155.337 942.129,166.732 943.059,156.182 943.99,151.788 944.92,156.528 945.85,172.842 946.781,171.749 947.711,165.651 948.641,165.325 949.572,160.965 950.502,166.32 951.433,164.776 952.363,156.737 953.293,159.47 954.224,153.884 955.154,147.131 956.084,156.857 957.015,161.14 957.945,164.221 958.876,160.432 959.806,151.234 960.736,147.763 961.667,154.48 962.597,156.697 963.527,157.113 964.458,156.768 965.388,164.282 966.319,162.588 967.249,166.558 968.179,170.661 969.11,168.83 970.04,156.139 970.97,155.03 971.901,152.249 972.831,156.848 973.762,158.869 974.692,158.894 975.622,150.255 976.553,143.801 977.483,148.168 978.413,137.902 979.344,145.578 980.274,153.052 981.205,155.472 982.135,138.383 983.065,140.953 983.996,150.63 984.926,156.902 985.856,154.791 986.787,174.507 987.717,178.557 988.648,166.077 989.578,157.085 990.508,160.18 991.439,151.951 992.369,128.939 993.299,130.786 994.23,145.634 995.16,153.565 996.091,145.761 997.021,146.183 997.951,145.977 998.882,134.994 999.812,149.752 1000.74,141.098 1001.67,137.013 1002.6,145.07 1003.53,140.482 1004.46,138.136 1005.39,137.824 1006.32,153.11 1007.26,161.743 1008.19,155.849 1009.12,159.609 1010.05,170.788 1010.98,165.139 1011.91,169.928 1012.84,168.52 1013.77,174.162 1014.7,152.197 1015.63,149.33 1016.56,146.465 1017.49,152.272 1018.42,163.458 1019.35,155.522 1020.28,168.471 1021.21,175.767 1022.14,176.326 1023.07,166.6 1024,164.415 1024.93,168.555 1025.86,134.871 1026.79,152.993 1027.72,156.408 1028.65,157.583 1029.58,158.633 1030.51,167.446 1031.44,166.949 1032.38,159.038 1033.31,162.533 1034.24,151.978 1035.17,154.684 1036.1,150.573 1037.03,146.819 1037.96,148.253 1038.89,151.603 1039.82,157.181 1040.75,147.211 1041.68,152.84 1042.61,149.793 1043.54,149.814 1044.47,148.108 1045.4,141.575 1046.33,148.934 1047.26,155.952 1048.19,131.01 1049.12,140.588 1050.05,169.95 1050.98,172.838 1051.91,169.701 1052.84,177.702 1053.77,174.989 1054.7,173.484 1055.63,174.674 1056.56,160.009 1057.5,168.617 1058.43,166.666 1059.36,160.361 1060.29,160.347 1061.22,146.794 1062.15,153.179 1063.08,159.738 1064.01,158.371 1064.94,151.636 1065.87,162.606 1066.8,158.515 1067.73,159.693 1068.66,156.245 1069.59,154.554 1070.52,153.368 1071.45,148.555 1072.38,147.373 1073.31,148.686 1074.24,168.071 1075.17,163.181 1076.1,172.909 1077.03,167.86 1077.96,162.494 1078.89,144.198 1079.82,139.624 1080.75,144.322 1081.69,146.263 1082.62,153.615 1083.55,157.422 1084.48,165.516 1085.41,164.778 1086.34,149.417 1087.27,145.447 1088.2,143.626 1089.13,152.908 1090.06,155.084 1090.99,141.616 1091.92,147.274 1092.85,152.704 1093.78,165.043 1094.71,157.871 1095.64,159.993 1096.57,155.672 1097.5,150.635 1098.43,150.227 1099.36,148.571 1100.29,152.5 1101.22,158.361 1102.15,156.726 1103.08,158.379 1104.01,159.914 1104.94,158.959 1105.87,150.436 1106.81,165.19 1107.74,163.326 1108.67,151.654 1109.6,171.42 1110.53,164.998 1111.46,146.725 1112.39,150.262 1113.32,165.1 1114.25,161.444 1115.18,163.091 1116.11,167.879 1117.04,167.096 1117.97,173.698 1118.9,173.914 1119.83,151.865 1120.76,158.253 1121.69,164.594 1122.62,165.175 1123.55,155.719 1124.48,160.983 1125.41,166.92 1126.34,169.451 1127.27,158.749 1128.2,153.395 1129.13,148.865 1130.06,153.627 1130.99,154.565 1131.93,157.288 1132.86,158.495 1133.79,151.873 1134.72,160.772 1135.65,167.316 1136.58,168.493 1137.51,173.418 1138.44,158.719 1139.37,160.182 1140.3,150.078 1141.23,157.603 1142.16,156.104 1143.09,153.265 1144.02,158.593 1144.95,162.396 1145.88,150.738 1146.81,145.494 1147.74,140.209 1148.67,145.69 1149.6,147.04 1150.53,155.855 1151.46,157.034 1152.39,155.934 1153.32,167.572 1154.25,159.661 1155.18,163.561 1156.12,169.652 1157.05,175.636 1157.98,166.989 1158.91,161.671 1159.84,175.233 1160.77,172.589 1161.7,163.277 1162.63,154.884 1163.56,153.934 1164.49,149.657 1165.42,142.586 1166.35,152.322 1167.28,155.972 1168.21,148.164 1169.14,154.37 1170.07,140.807 1171,153.097 1171.93,150.604 1172.86,150.057 1173.79,146.96 1174.72,148.283 1175.65,143.076 1176.58,134.325 1177.51,141.603 1178.44,141.245 1179.37,149.758 1180.3,157.697 1181.24,161.019 1182.17,163.865 1183.1,168.932 1184.03,180.234 1184.96,179.883 1185.89,172.613 1186.82,160.471 1187.75,152.514 1188.68,153.058 1189.61,152.424 1190.54,157.992 1191.47,165.632 1192.4,169.37 1193.33,161.835 1194.26,164.64 1195.19,164.006 1196.12,160.914 1197.05,153.066 1197.98,161.516 1198.91,156.943 1199.84,159.727 1200.77,159.836 1201.7,148.726 1202.63,146.677 1203.56,170.329 1204.49,159.234 1205.42,161.393 1206.36,159.042 1207.29,160.418 1208.22,159.317 1209.15,148.216 1210.08,156.261 1211.01,154.262 1211.94,154.954 1212.87,153.496 1213.8,160.574 1214.73,163.538 1215.66,170.047 1216.59,171.029 1217.52,173.54 1218.45,178.455 1219.38,176.64 1220.31,174.887 1221.24,177.301 1222.17,161.354 1223.1,160.276 1224.03,148.121 1224.96,164.78 1225.89,155.594 1226.82,147.759 1227.75,143.59 1228.68,146.352 1229.61,138.336 1230.55,148.427 1231.48,147.04 1232.41,139.521 1233.34,144.949 1234.27,145.382 1235.2,153.804 1236.13,148.114 1237.06,157.145 1237.99,163.436 1238.92,159.518 1239.85,158.206 1240.78,153.507 1241.71,152.353 1242.64,153.864 1243.57,168.12 1244.5,170.703 1245.43,150.012 1246.36,155.312 1247.29,155.883 1248.22,165.384 1249.15,134.844 1250.08,144.556 1251.01,150.147 1251.94,149.645 1252.87,150.864 1253.8,153.287 1254.73,148.143 1255.67,147.811 1256.6,145.658 1257.53,134.909 1258.46,126.255 1259.39,140.333 1260.32,141.182 1261.25,155.021 1262.18,150.037 1263.11,145.46 1264.04,145.839 1264.97,141.464 1265.9,151.945 1266.83,158.013 1267.76,159.247 1268.69,157.717 1269.62,152.912 1270.55,149.854 1271.48,136.697 1272.41,138.407 1273.34,164.086 1274.27,162.182 1275.2,171.461 1276.13,162.22 1277.06,167.572 1277.99,159.567 1278.92,167.864 1279.85,161.571 1280.79,158.809 1281.72,162.069 1282.65,158.484 1283.58,156.707 1284.51,150.76 1285.44,152.087 1286.37,169.489 1287.3,169.675 1288.23,159.041 1289.16,150.913 1290.09,148.41 1291.02,150.335 1291.95,141.107 1292.88,148.93 1293.81,157.697 1294.74,164.907 1295.67,166.022 1296.6,160.575 1297.53,165.414 1298.46,172.005 1299.39,164.779 1300.32,157.553 1301.25,148.989 1302.18,142.834 1303.11,144.122 1304.04,147.003 1304.98,146.627 1305.91,144.403 1306.84,145.598 1307.77,141.753 1308.7,133.349 1309.63,140.842 1310.56,145.137 1311.49,157.073 1312.42,164.036 1313.35,156.803 1314.28,158.316 1315.21,160.461 1316.14,160.555 1317.07,159.904 1318,148.441 1318.93,154.929 1319.86,153.192 1320.79,148.705 1321.72,154.191 1322.65,156.274 1323.58,153.396 1324.51,157.917 1325.44,154.533 1326.37,161.792 1327.3,155.884 1328.23,154.969 1329.16,158.664 1330.1,159.326 1331.03,158.857 1331.96,154.021 1332.89,167.634 1333.82,167.363 1334.75,168.602 1335.68,168.977 1336.61,159.808 1337.54,159.141 1338.47,148.425 1339.4,150.698 1340.33,156.914 1341.26,152.848 1342.19,148.866 1343.12,162.624 1344.05,171.739 1344.98,164.276 1345.91,173.249 1346.84,173.183 1347.77,166.059 1348.7,157.716 1349.63,160.846 1350.56,161.492 1351.49,163.364 1352.42,156.913 1353.35,172.241 1354.29,155.736 1355.22,148.19 1356.15,149.688 1357.08,154.65 1358.01,142.332 1358.94,159.192 1359.87,161.264 1360.8,163.851 1361.73,162.21 1362.66,172.76 1363.59,164.017 1364.52,153.805 1365.45,164.773 1366.38,151.101 1367.31,163.862 1368.24,165.965 1369.17,167.766 1370.1,168.363 1371.03,162.709 1371.96,161.359 1372.89,160.621 1373.82,152.12 1374.75,150.887 1375.68,139.315 1376.61,130.261 1377.54,140.281 1378.47,137.269 1379.41,146.415 1380.34,146.42 1381.27,144.34 1382.2,129.737 1383.13,143.659 1384.06,154.642 1384.99,159.747 1385.92,162.868 1386.85,158.494 1387.78,153.903 1388.71,146.915 1389.64,147.68 1390.57,144.806 1391.5,145.339 1392.43,148.889 1393.36,148.286 1394.29,145.189 1395.22,156.661 1396.15,158.213 1397.08,153.074 1398.01,159.032 1398.94,163.278 1399.87,160.119 1400.8,152.143 1401.73,162.378 1402.66,155.758 1403.59,152.175 1404.53,154.681 1405.46,154.57 1406.39,158.605 1407.32,148.891 1408.25,155.192 1409.18,149.28 1410.11,152.727 1411.04,153.396 1411.97,155.024 1412.9,157.782 1413.83,150.928 1414.76,148.891 1415.69,163.433 1416.62,165.742 1417.55,161.489 1418.48,162.125 1419.41,160.021 1420.34,164.002 1421.27,178.433 1422.2,162.875 1423.13,168.848 1424.06,166.102 1424.99,159.938 1425.92,162.905 1426.85,173.365 1427.78,173.247 1428.72,183.185 1429.65,179.923 1430.58,184.975 1431.51,191.508 1432.44,180.603 1433.37,169.711 1434.3,157.004 1435.23,166.576 1436.16,161.422 1437.09,165.107 1438.02,163.936 1438.95,170.883 1439.88,164.877 1440.81,163.586 1441.74,162.532 1442.67,174.775 1443.6,170.966 1444.53,165.4 1445.46,168.983 1446.39,178.757 1447.32,174.593 1448.25,175.224 1449.18,161.787 1450.11,154.89 1451.04,150.188 1451.97,149.491 1452.9,153.74 1453.84,150.472 1454.77,141.29 1455.7,158.079 1456.63,160.479 1457.56,165.985 1458.49,159.361 1459.42,165.264 1460.35,162.644 1461.28,156.337 1462.21,156.074 1463.14,157.193 1464.07,147.471 1465,161.632 1465.93,167.358 1466.86,149.593 1467.79,169.377 1468.72,162.751 1469.65,156.189 1470.58,151.442 1471.51,171.582 1472.44,173.154 1473.37,178.09 1474.3,162.123 1475.23,158.54 1476.16,156.484 1477.09,157.971 1478.02,161.692 1478.96,158.179 1479.89,159.846 1480.82,159.691 1481.75,158.892 1482.68,154.81 1483.61,157.804 1484.54,155.491 1485.47,154.622 1486.4,176.336 1487.33,178.485 1488.26,146.433 1489.19,167.217 1490.12,156.201 1491.05,139.771 1491.98,136.472 1492.91,147.286 1493.84,163.87 1494.77,159.039 1495.7,156.938 1496.63,165.138 1497.56,163.51 1498.49,168.519 1499.42,176.356 1500.35,176.755 1501.28,171.514 1502.21,177.783 1503.15,174.617 1504.08,165.324 1505.01,159.218 1505.94,160.604 1506.87,156.851 1507.8,155.687 1508.73,157.104 1509.66,150.272 1510.59,151.543 1511.52,147.79 1512.45,151.156 1513.38,158.568 1514.31,158.509 1515.24,163.155 1516.17,157.802 1517.1,155.795 1518.03,158.076 1518.96,149.373 1519.89,156.333 1520.82,171.477 1521.75,173.678 1522.68,155.981 1523.61,151.195 1524.54,150.27 1525.47,153.726 1526.4,151.881 1527.33,167.035 1528.27,172.907 1529.2,168.246 1530.13,169.304 1531.06,179.735 1531.99,171.035 1532.92,180.796 1533.85,174.998 1534.78,182.236 1535.71,189.286 1536.64,186.042 1537.57,180.523 1538.5,163.646 1539.43,162.604 1540.36,161.159 1541.29,155.754 1542.22,156.532 1543.15,153.041 1544.08,156.562 1545.01,166.535 1545.94,155.869 1546.87,144.567 1547.8,148.223 1548.73,154.883 1549.66,159.804 1550.59,170.323 1551.52,177.07 1552.45,174.188 1553.39,159.199 1554.32,165.423 1555.25,162.735 1556.18,154.121 1557.11,159.226 1558.04,165.3 1558.97,160.154 1559.9,157.455 1560.83,154.481 1561.76,139.204 1562.69,145.221 1563.62,140.104 1564.55,138.739 1565.48,139.7 1566.41,136.763 1567.34,146.783 1568.27,159.455 1569.2,160.565 1570.13,164.878 1571.06,153.403 1571.99,144.486 1572.92,151.346 1573.85,163.493 1574.78,167.438 1575.71,162.77 1576.64,168.188 1577.58,177.679 1578.51,176.056 1579.44,170.434 1580.37,175.143 1581.3,164.582 1582.23,162.786 1583.16,163.893 1584.09,153.94 1585.02,152.389 1585.95,156.58 1586.88,157.012 1587.81,160.657 1588.74,161.156 1589.67,174.108 1590.6,170.852 1591.53,154.545 1592.46,159.282 1593.39,160.985 1594.32,168.867 1595.25,170.893 1596.18,159.667 1597.11,158.156 1598.04,153.14 1598.97,155.972 1599.9,155.624 1600.83,156.179 1601.76,160.866 1602.7,165.526 1603.63,169.336 1604.56,164.45 1605.49,161.483 1606.42,147.214 1607.35,154.286 1608.28,147.941 1609.21,142.472 1610.14,129.837 1611.07,131.147 1612,143.819 1612.93,155.505 1613.86,144.776 1614.79,147.639 1615.72,148.712 1616.65,162.58 1617.58,160.911 1618.51,157.693 1619.44,154.728 1620.37,155.537 1621.3,150.319 1622.23,151.269 1623.16,151.793 1624.09,162.003 1625.02,155.617 1625.95,156.355 1626.88,148.331 1627.82,149.854 1628.75,145.226 1629.68,146.743 1630.61,151.722 1631.54,162.678 1632.47,152.104 1633.4,134.942 1634.33,150.143 1635.26,156.602 1636.19,160.616 1637.12,156.592 1638.05,156.26 1638.98,157.519 1639.91,156.192 1640.84,148.437 1641.77,161.453 1642.7,157.888 1643.63,157.936 1644.56,151.126 1645.49,153.67 1646.42,154.268 1647.35,155.434 1648.28,162.366 1649.21,166.664 1650.14,172.554 1651.07,168.49 1652.01,168.463 1652.94,166.552 1653.87,166.88 1654.8,156.993 1655.73,146.704 1656.66,155.797 1657.59,145.934 1658.52,157.109 1659.45,155.657 1660.38,147.863 1661.31,151.114 1662.24,160.707 1663.17,159.672 1664.1,160.2 1665.03,157.733 1665.96,161.869 1666.89,165.961 1667.82,178.222 1668.75,177.997 1669.68,164.411 1670.61,162.719 1671.54,152.363 1672.47,153.646 1673.4,141.422 1674.33,152.118 1675.26,148.045 1676.19,148.282 1677.13,137.164 1678.06,142.442 1678.99,136.465 1679.92,151.645 1680.85,150.727 1681.78,147.682 1682.71,160 1683.64,160.906 1684.57,161.883 1685.5,158.088 1686.43,155.801 1687.36,157.431 1688.29,151.74 1689.22,150.742 1690.15,165.821 1691.08,167.779 1692.01,157.583 1692.94,155.258 1693.87,164.743 1694.8,163.58 1695.73,159.182 1696.66,151.469 1697.59,156.25 1698.52,153.794 1699.45,146.086 1700.38,140.873 1701.31,144.488 1702.25,168.807 1703.18,177.49 1704.11,159.673 1705.04,161.081 1705.97,175.445 1706.9,183.006 1707.83,167.27 1708.76,163.023 1709.69,157.582 1710.62,161.331 1711.55,162.401 1712.48,146.272 1713.41,179.216 1714.34,148.175 1715.27,178.209 1716.2,178.296 1717.13,178.044 1718.06,182.17 1718.99,145.505 1719.92,149.251 1720.85,151.592 1721.78,146.939 1722.71,160.996 1723.64,148.631 1724.57,152.802 1725.5,155.66 1726.44,160.815 1727.37,160.258 1728.3,149.079 1729.23,358.654 1730.16,509.951 1731.09,512.88 1732.02,528.716 1732.95,538.608 1733.88,544.299 1734.81,539.928 1735.74,538.252 1736.67,541.57 1737.6,540.04 1738.53,541.073 1739.46,538.22 1740.39,541.317 1741.32,530.344 1742.25,528.32 1743.18,529.187 1744.11,540.228 1745.04,543.001 1745.97,535.695 1746.9,530.438 1747.83,523.375 1748.76,524.583 1749.69,533.624 1750.62,534.527 1751.56,522.357 1752.49,519.581 1753.42,529.965 1754.35,530.997 1755.28,523.925 1756.21,519.401 1757.14,525.276 1758.07,532.809 1759,531.904 1759.93,529.397 1760.86,534.079 1761.79,535.106 1762.72,546.926 1763.65,545.246 1764.58,381.353 1765.51,513.108 1766.44,519.148 1767.37,335.903 1768.3,518.153 1769.23,513.867 1770.16,524.247 1771.09,529.04 1772.02,517.344 1772.95,511.703 1773.88,345.124 1774.81,343.823 1775.74,346.253 1776.68,170.787 1777.61,172.68 1778.54,157.687 1779.47,149.892 1780.4,150.075 1781.33,149.392 1782.26,146.124 1783.19,135.448 1784.12,146.506 1785.05,147.224 1785.98,155.307 1786.91,152.561 1787.84,156.563 1788.77,173.358 1789.7,151.779 1790.63,143.305 1791.56,132.914 1792.49,182.615 1793.42,175.611 1794.35,135.072 1795.28,137.271 1796.21,186.007 1797.14,176.349 1798.07,180.468 1799,177.713 1799.93,147.882 1800.87,148.412 1801.8,167.963 1802.73,172.067 1803.66,154.13 1804.59,165.537 1805.52,170.269 1806.45,161.519 1807.38,159.358 1808.31,162.931 1809.24,154.537 1810.17,161.027 1811.1,159.012 1812.03,145.925 1812.96,153.421 1813.89,150.279 1814.82,165.157 1815.75,155.691 1816.68,163.519 1817.61,186.689 1818.54,188.031 1819.47,169.879 1820.4,183.276 1821.33,176.665 1822.26,151.963 1823.19,166.475 1824.12,160.702 1825.05,150.622 1825.99,151.349 1826.92,151.108 1827.85,146.095 1828.78,155.493 1829.71,158.93 1830.64,152.404 1831.57,158.252 1832.5,150.586 1833.43,143.317 1834.36,150.606 1835.29,154.89 1836.22,165.35 1837.15,168.77 1838.08,169.125 1839.01,167.248 1839.94,176.121 1840.87,166.488 1841.8,166.595 1842.73,167.542 1843.66,158.588 1844.59,159.903 1845.52,164.532 1846.45,166.289 1847.38,159.31 1848.31,142.2 1849.24,141.798 1850.17,158.776 1851.11,166.24 1852.04,168.713 1852.97,162.723 1853.9,163.14 1854.83,158.649 1855.76,163.081 1856.69,164.886 1857.62,161.446 1858.55,168.558 1859.48,169.247 1860.41,152.782 1861.34,152.79 1862.27,163.593 1863.2,168.312 1864.13,160.415 1865.06,173.9 1865.99,169.053 1866.92,169.281 1867.85,169.889 1868.78,177.931 1869.71,171.329 1870.64,175.582 1871.57,176.425 1872.5,173.027 1873.43,168.653 1874.36,171.161 1875.3,161.615 1876.23,158.2 1877.16,157.418 1878.09,156.683 1879.02,161.563 1879.95,163.197 1880.88,157.234 1881.81,145.184 1882.74,146.881 1883.67,145.719 1884.6,156.027 1885.53,164.568 1886.46,175.51 1887.39,174.673 1888.32,170.517 1889.25,170.076 1890.18,160.16 1891.11,168.695 1892.04,159.653 1892.97,153.162 1893.9,144.795 1894.83,142.139 1895.76,140.794 1896.69,182.647 1897.62,176.25 1898.55,170.29 1899.48,173.908 1900.42,171.838 1901.35,179.087 1902.28,180.555 1903.21,172.098 1904.14,160.722 1905.07,158.371 1906,157.705 1906.93,153.863 1907.86,165.505 1908.79,150.529 1909.72,147.451 1910.65,147.779 1911.58,144.238 1912.51,143.055 1913.44,146.931 1914.37,148.019 1915.3,148.415 1916.23,156.189 1917.16,156.781 1918.09,155.744 1919.02,145.414 1919.95,149.886 1920.88,150.304 1921.81,149.092 1922.74,163.281 1923.67,162.331 1924.6,160.873 1925.54,169.624 1926.47,162.219 1927.4,155.703 1928.33,138.096 1929.26,148.464 1930.19,123.652 1931.12,142.787 1932.05,130.359 1932.98,138.994 1933.91,141.405 1934.84,142.379 1935.77,148.46 1936.7,162.157 1937.63,162.67 1938.56,158.285 1939.49,125.559 1940.42,142.899 1941.35,140.029 1942.28,140.012 1943.21,149.698 1944.14,160.662 1945.07,172.83 1946,177.568 1946.93,170.392 1947.86,177.631 1948.79,171.769 1949.73,157.005 1950.66,158.337 1951.59,151.755 1952.52,146.278 1953.45,152.782 1954.38,167.018 1955.31,160.737 1956.24,146.387 1957.17,141.751 1958.1,138.949 1959.03,140.953 1959.96,149.959 1960.89,143.411 1961.82,144.619 1962.75,151.787 1963.68,150.814 1964.61,141.441 1965.54,139.022 1966.47,136.308 1967.4,145.088 1968.33,145.708 1969.26,155.061 1970.19,154.749 1971.12,156.533 1972.05,144.021 1972.98,150.429 1973.91,156.225 1974.85,152.495 1975.78,151.694 1976.71,144.645 1977.64,143.184 1978.57,164.958 1979.5,151.256 1980.43,157.558 1981.36,149.971 1982.29,154.405 1983.22,164.296 1984.15,160.369 1985.08,168.206 1986.01,167.08 1986.94,163.114 1987.87,167.336 1988.8,165.164 1989.73,170.517 1990.66,171.532 1991.59,165.6 1992.52,160.537 1993.45,164.756 1994.38,160.892 1995.31,158.14 1996.24,151.621 1997.17,154.481 1998.1,162.306 1999.03,160.787 1999.97,147.753 2000.9,154.763 2001.83,161.57 2002.76,174.789 2003.69,172.099 2004.62,162.158 2005.55,151.024 2006.48,151.513 2007.41,161.027 2008.34,161.843 2009.27,167.887 2010.2,163.948 2011.13,170.624 2012.06,164.25 2012.99,160.273 2013.92,151.272 2014.85,151.848 2015.78,152.311 2016.71,146.271 2017.64,162.529 2018.57,164.059 2019.5,160.425 2020.43,166.945 2021.36,166.694 2022.29,169.318 2023.22,169.089 2024.16,177.007 2025.09,166.94 2026.02,155.87 2026.95,151.476 2027.88,156.333 2028.81,163.004 2029.74,158.569 2030.67,154.305 2031.6,147.135 2032.53,150.821 2033.46,167.428 2034.39,164.363 2035.32,163.117 2036.25,166.469 2037.18,171.556 2038.11,135.389 2039.04,141.303 2039.97,151.674 2040.9,155.898 2041.83,158.904 2042.76,154.904 2043.69,151.427 2044.62,141.284 2045.55,145.412 2046.48,158.176 2047.41,152.146 2048.34,152.946 2049.28,146.935 2050.21,147.601 2051.14,134.247 2052.07,135.51 2053,128.777 2053.93,137.819 2054.86,142.044 2055.79,138.769 2056.72,140.371 2057.65,149.771 2058.58,161.576 2059.51,165.469 2060.44,152.297 2061.37,165.364 2062.3,170.544 2063.23,169.343 2064.16,177.307 2065.09,186.928 2066.02,177.918 2066.95,175.238 2067.88,169.406 2068.81,171.413 2069.74,171.247 2070.67,167.601 2071.6,172.314 2072.53,160.346 2073.46,154.767 2074.4,139.755 2075.33,137.564 2076.26,148.025 2077.19,143.169 2078.12,141.172 2079.05,148.868 2079.98,160.395 2080.91,166.016 2081.84,167.77 2082.77,166.357 2083.7,182.197 2084.63,176.619 2085.56,189.104 2086.49,181.232 2087.42,172.966 2088.35,172.177 2089.28,179.513 2090.21,177.212 2091.14,163.955 2092.07,160.203 2093,149.375 2093.93,147.086 2094.86,153.971 2095.79,157.282 2096.72,159.321 2097.65,161.03 2098.59,166.765 2099.52,167.24 2100.45,164.668 2101.38,172.428 2102.31,165.903 2103.24,161.101 2104.17,150.567 2105.1,160.905 2106.03,170.654 2106.96,174.949 2107.89,178.94 2108.82,167.529 2109.75,158.32 2110.68,162.954 2111.61,150.395 2112.54,168.96 2113.47,185.307 2114.4,175.291 2115.33,158.738 2116.26,141.945 2117.19,162.536 2118.12,149.447 2119.05,140.966 2119.98,161.828 2120.91,160.175 2121.84,151.801 2122.77,151.394 2123.71,157.759 2124.64,153.932 2125.57,168.448 2126.5,166.711 2127.43,171.893 2128.36,164.888 2129.29,170.554 2130.22,161.966 2131.15,168.804 2132.08,167.999 2133.01,163.106 2133.94,175.277 2134.87,178.467 2135.8,163.291 2136.73,154.34 2137.66,155.835 2138.59,157.096 2139.52,159.964 2140.45,162.053 2141.38,165.107 2142.31,170.717 2143.24,169.6 2144.17,165.798 2145.1,160.478 2146.03,170.909 2146.96,182.888 2147.89,186.031 2148.83,169.471 2149.76,161.377 2150.69,161.748 2151.62,156.973 2152.55,148.404 2153.48,154.271 2154.41,163.772 2155.34,169.02 2156.27,160.122 2157.2,167.522 2158.13,158.096 2159.06,169.426 2159.99,167.445 2160.92,159.484 2161.85,149.4 2162.78,159.574 2163.71,155.668 2164.64,148.799 2165.57,162.321 2166.5,162.492 2167.43,154.963 2168.36,163.75 2169.29,167.568 2170.22,161.125 2171.15,151.684 2172.08,138.924 2173.02,145.938 2173.95,129.74 2174.88,122.27 2175.81,121.621 2176.74,128.69 2177.67,142.834 2178.6,140.492 2179.53,145.641 2180.46,145.408 2181.39,145.795 2182.32,156.889 2183.25,158.368 2184.18,165.837 2185.11,170.558 2186.04,163.092 2186.97,156.364 2187.9,154.33 2188.83,154.89 2189.76,160.726 2190.69,159.885 2191.62,149.848 2192.55,163.995 2193.48,153.761 2194.41,152.649 2195.34,154.106 2196.27,177.859 2197.2,148.769 2198.14,147.87 2199.07,154.501 2200,163.334 2200.93,171.426 2201.86,172.028 2202.79,139.16 2203.72,141.445 2204.65,139.75 2205.58,137.452 2206.51,177.845 2207.44,180.248 2208.37,173.696 2209.3,161.276 2210.23,153.86 2211.16,151.466 2212.09,155.863 2213.02,163.681 2213.95,168.23 2214.88,153.734 2215.81,160.022 2216.74,175.108 2217.67,168.187 2218.6,170.099 2219.53,171.146 2220.46,155.331 2221.39,165.009 2222.32,164.272 2223.26,158.902 2224.19,157.642 2225.12,159.983 2226.05,165.732 2226.98,166.96 2227.91,155.51 2228.84,157.604 2229.77,161.699 2230.7,170.424 2231.63,166.428 2232.56,174.839 2233.49,163.586 2234.42,170.538 2235.35,175.987 2236.28,167.154 2237.21,182 2238.14,186.089 2239.07,173.903 2240,171.192 2240.93,162.185 2241.86,168.232 2242.79,171.753 2243.72,164.096 2244.65,164.809 2245.58,168.108 2246.51,172.237 2247.45,167.677 2248.38,171.324 2249.31,171.437 2250.24,161.973 2251.17,164.961 2252.1,159.512 2253.03,166.628 2253.96,163.441 2254.89,148.901 2255.82,142.417 2256.75,144.867 2257.68,147.619 2258.61,143.407 2259.54,153.467 2260.47,143.222 2261.4,144.139 2262.33,137.801 2263.26,138.288 2264.19,141.428 2265.12,140.098 2266.05,173.171 2266.98,168.235 2267.91,159.549 2268.84,163.778 2269.77,149.538 2270.7,175.017 2271.63,151.447 2272.57,147.824 2273.5,153.12 2274.43,161.49 2275.36,142.648 2276.29,148.925 2277.22,152.267 2278.15,144.168 2279.08,159.073 2280.01,156.102 2280.94,158.185 2281.87,171.944 2282.8,167.833 2283.73,162.856 2284.66,163.615 2285.59,172.526 2286.52,168.463 2287.45,170.048 2288.38,168.65 2289.31,166.643 2290.24,170.238 2291.17,165.587 2292.1,153.857 2293.03,154.663 2293.96,167.907 2294.89,165.889 2295.82,165.697 2296.75,166.396 2297.69,164.858 2298.62,150.895 2299.55,154.371 2300.48,155.729 2301.41,168.048 2302.34,172.513 2303.27,176.917 2304.2,176.305 2305.13,182.796 2306.06,179.401 2306.99,154.554 2307.92,168.845 2308.85,171.568 2309.78,165.982 2310.71,157.525 2311.64,166.598 2312.57,165.523 2313.5,159.063 2314.43,141.24 2315.36,142.896 2316.29,160.406 2317.22,161.508 2318.15,171.808 2319.08,149.979 2320.01,147.651 2320.94,146.351 2321.88,140.399 2322.81,164.098 2323.74,177.968 2324.67,174.749 2325.6,159.387 2326.53,158.257 2327.46,153.398 2328.39,154.501 2329.32,161.999 2330.25,154.468 2331.18,159.399 2332.11,151.953 2333.04,143.908 2333.97,150.084 2334.9,151.07 2335.83,151.706 2336.76,147.645 2337.69,137.19 2338.62,147.409 2339.55,146.242 2340.48,143.156 2341.41,153.302 2342.34,141.624 2343.27,153.445 2344.2,146.136 2345.13,147.212 2346.06,147.799 2347,144.481 2347.93,141.227 2348.86,144.534 2349.79,143.136 2350.72,141.787 2351.65,153.042 2352.58,146.556 2353.51,154.147 2354.44,150.335 2355.37,136.812 2356.3,149.781 2357.23,147.802 2358.16,149.863 2359.09,156.596 2360.02,155.523 2360.95,138.793 2361.88,150.721 2362.81,162.412 2363.74,153.645 2364.67,174.814 2365.6,163.641 2366.53,156.887 2367.46,162.891 2368.39,166.128 2369.32,175.679 2370.25,165.057 2371.18,152.928 2372.12,151.964 2373.05,153.09 2373.98,157.397 2374.91,150.093 2375.84,150.488 2376.77,142.85 2377.7,142.973 2378.63,149.81 2379.56,164.632 2380.49,160.805 2381.42,142.412 2382.35,154.268 2383.28,166.255 2384.21,148.65 2385.14,150.311 2386.07,159.878 2387,156.078 2387.93,148.035 2388.86,148.956 2389.79,146.026 2390.72,148.701 2391.65,140.314 2392.58,138.803 2393.51,130.778 2394.44,137.795 2395.37,144.663 2396.31,145.085 2397.24,151.732 2398.17,149.885 2399.1,145.045 2400.03,160.727 2400.96,163.862 2401.89,160.696 2402.82,170.371 2403.75,172.211 2404.68,175.274 2405.61,167.968 2406.54,162.935 2407.47,159.027 2408.4,154.5 2409.33,153.043 2410.26,150.631 2411.19,144.716 2412.12,141.088 2413.05,147.698 2413.98,154.76 2414.91,156.406 2415.84,158.299 2416.77,161.063 2417.7,152.212 2418.63,151.902 2419.56,163.535 2420.49,181.284 2421.43,182.142 2422.36,179.526 2423.29,181.369 2424.22,162.369 2425.15,164.982 2426.08,154.716 2427.01,160.249 2427.94,152.281 2428.87,153.987 2429.8,163.842 2430.73,155.705 2431.66,149.184 2432.59,145.576 2433.52,148.35 2434.45,160.286 2435.38,166.922 2436.31,162.829 2437.24,163.774 2438.17,171.714 2439.1,168.73 2440.03,169.598 2440.96,159.01 2441.89,163.309 2442.82,159.499 2443.75,155.272 2444.68,157.84 2445.62,148.515 2446.55,166.449 2447.48,140.63 2448.41,135.391 2449.34,138.113 2450.27,140.127 2451.2,153.582 2452.13,154.338 2453.06,168.348 2453.99,155.376 2454.92,157.329 2455.85,152.272 2456.78,148.026 2457.71,151.071 2458.64,144.927 2459.57,141.111 2460.5,160.676 2461.43,157.597 2462.36,168.191 2463.29,139.64 2464.22,144.136 2465.15,146.665 2466.08,147.961 2467.01,151.715 2467.94,133.287 2468.87,132.309 2469.8,132.206 2470.74,137.672 2471.67,147.925 2472.6,137.908 2473.53,137.069 2474.46,151.115 2475.39,148.968 2476.32,151.018 2477.25,150.567 2478.18,148.063 2479.11,149.517 2480.04,153.714 2480.97,156.239 2481.9,162.737 2482.83,155.636 2483.76,148.966 2484.69,151.013 2485.62,161.051 2486.55,156.074 2487.48,170.192 2488.41,171.636 2489.34,166.836 2490.27,150.09 2491.2,152.166 2492.13,152.235 2493.06,151.944 2493.99,154.169 2494.92,163.001 2495.86,170.433 2496.79,165.149 2497.72,148.415 2498.65,135.105 2499.58,143.059 2500.51,141.548 2501.44,149.499 2502.37,144.882 2503.3,148.051 2504.23,142.633 2505.16,147.024 2506.09,158.729 2507.02,145.614 2507.95,140.277 2508.88,130.447 2509.81,124.494 2510.74,127.782 2511.67,143.078 2512.6,145.587 2513.53,149.384 2514.46,131.098 2515.39,132.436 2516.32,136.673 2517.25,137.463 2518.18,151.103 2519.11,165.989 2520.05,155.687 2520.98,161.83 2521.91,158.31 2522.84,163.163 2523.77,167.844 2524.7,156.971 2525.63,165.401 2526.56,167.93 2527.49,164.871 2528.42,161.299 2529.35,155.768 2530.28,159.579 2531.21,160.295 2532.14,172.242 2533.07,169.502 2534,181.868 2534.93,171.655 2535.86,169.062 2536.79,169.813 2537.72,161.138 2538.65,161.443 2539.58,159.471 2540.51,161.848 2541.44,166.91 2542.37,162.065 2543.3,148.065 2544.23,139.612 2545.17,142.033 2546.1,128.128 2547.03,120.184 2547.96,128.323 2548.89,129.553 2549.82,132.786 2550.75,140.065 2551.68,147.88 2552.61,161.002 2553.54,156.447 2554.47,161.175 2555.4,160.984 2556.33,151.744 2557.26,174.555 2558.19,170.657 2559.12,169.441 2560.05,174.124 2560.98,168.905 2561.91,162.716 2562.84,160.301 2563.77,156.387 2564.7,151.992 2565.63,153.059 2566.56,156.503 2567.49,152.995 2568.42,153.032 2569.35,153.105 2570.29,153.386 2571.22,139.642 2572.15,145.401 2573.08,146.368 2574.01,145.716 2574.94,142.633 2575.87,142.538 2576.8,144.389 2577.73,139.494 2578.66,146.745 2579.59,167.97 2580.52,165.882 2581.45,171.217 2582.38,158.003 2583.31,157.888 2584.24,157.001 2585.17,151.137 2586.1,162.27 2587.03,146.011 2587.96,141.094 2588.89,151.459 2589.82,159.619 2590.75,160.356 2591.68,163.806 2592.61,164.045 2593.54,168.473 2594.48,171.215 2595.41,160.722 2596.34,157.064 2597.27,152.372 2598.2,173.991 2599.13,185.704 2600.06,188.783 2600.99,191.91 2601.92,194.066 2602.85,195.329 2603.78,185.523 2604.71,172.214 2605.64,170.977 2606.57,163.817 2607.5,163.784 2608.43,160.904 2609.36,158.23 2610.29,171.488 2611.22,171.446 2612.15,169.955 2613.08,165.834 2614.01,171.939 2614.94,173.545 2615.87,172.649 2616.8,177.936 2617.73,178.001 2618.66,176.506 2619.6,171.001 2620.53,166.088 2621.46,158.982 2622.39,156.453 2623.32,156.147 2624.25,157.158 2625.18,159.508 2626.11,155.364 2627.04,151.164 2627.97,146.646 2628.9,153.156 2629.83,149.104 2630.76,158.344 2631.69,162.369 2632.62,164.906 2633.55,177.878 2634.48,166.481 2635.41,151.949 2636.34,167.692 2637.27,155.455 2638.2,156.359 2639.13,161.825 2640.06,159.459 2640.99,158.922 2641.92,154.276 2642.85,171.834 2643.78,165.02 2644.72,161.142 2645.65,159.848 2646.58,158.054 2647.51,169.592 2648.44,155.002 2649.37,164.837 2650.3,174.064 2651.23,173.226 2652.16,157.45 2653.09,157.988 2654.02,164.875 2654.95,177.075 2655.88,170.548 2656.81,171.694 2657.74,179.261 2658.67,180.352 2659.6,176.827 2660.53,181.785 2661.46,178.383 2662.39,181.361 2663.32,186.791 2664.25,185.164 2665.18,178.102 2666.11,165.55 2667.04,166.774 2667.97,156.791 2668.91,159.866 2669.84,164.048 2670.77,165.41 2671.7,155.183 2672.63,164.734 2673.56,160.908 2674.49,148.586 2675.42,140.22 2676.35,142.585 2677.28,148.225 2678.21,150.721 2679.14,156.099 2680.07,160.881 2681,160.753 2681.93,170.937 2682.86,168.612 2683.79,171.222 2684.72,169.995 2685.65,174.954 2686.58,172.16 2687.51,169.951 2688.44,182.892 2689.37,172.233 2690.3,176.629 2691.23,180.065 2692.16,180.823 2693.09,179.012 2694.03,358.918 2694.96,174.203 2695.89,163.964 2696.82,152.664 2697.75,149.69 2698.68,139.511 2699.61,140.044 2700.54,136.378 2701.47,158.098 2702.4,163.413 2703.33,158.242 2704.26,158.211 2705.19,164.241 2706.12,164.061 2707.05,169.276 2707.98,177.503 2708.91,171.053 2709.84,161.092 2710.77,152.538 2711.7,157.547 2712.63,161.459 2713.56,159.291 2714.49,149.445 2715.42,151.652 2716.35,148.259 2717.28,134.909 2718.21,131.223 2719.15,146.994 2720.08,157.203 2721.01,147.275 2721.94,147.835 2722.87,154.157 2723.8,166.956 2724.73,161.611 2725.66,141.024 2726.59,148.434 2727.52,151.118 2728.45,147.8 2729.38,142.93 2730.31,157.659 2731.24,171.045 2732.17,177.676 2733.1,173.562 2734.03,170.082 2734.96,169.763 2735.89,163.781 2736.82,161.743 2737.75,175.6 2738.68,159.334 2739.61,153.653 2740.54,153.213 2741.47,154.045 2742.4,156.981 2743.34,167.132 2744.27,160.259 2745.2,163.274 2746.13,166.057 2747.06,156.312 2747.99,153.842 2748.92,142.618 2749.85,140.595 2750.78,144.559 2751.71,147.752 2752.64,146.287 2753.57,157.041 2754.5,148.175 2755.43,151.378 2756.36,140.401 2757.29,135.362 2758.22,137.238 2759.15,137.71 2760.08,135.62 2761.01,132.602 2761.94,143.542 2762.87,163.197 2763.8,153.758 2764.73,157.131 2765.66,162.281 2766.59,163.361 2767.52,165.589 2768.46,147.442 2769.39,160.137 2770.32,158.383 2771.25,154.192 2772.18,168.69 2773.11,169.99 2774.04,162.589 2774.97,164.725 2775.9,165.798 2776.83,170.096 2777.76,168.89 2778.69,167.866 2779.62,149.106 2780.55,141.43 2781.48,133.093 2782.41,138.15 2783.34,140.489 2784.27,155.925 2785.2,153.071 2786.13,162.198 2787.06,169.43 2787.99,177.507 2788.92,160.435 2789.85,163.498 2790.78,162.273 2791.71,162.659 2792.64,161.547 2793.58,163.248 2794.51,150.591 2795.44,154.521 2796.37,156.995 2797.3,165.86 2798.23,164.832 2799.16,166.523 2800.09,164.443 2801.02,161.929 2801.95,166.99 2802.88,160.166 2803.81,159.247 2804.74,158.854 2805.67,160.862 2806.6,167.323 2807.53,161.167 2808.46,169.504 2809.39,168.66 2810.32,167.298 2811.25,163.475 2812.18,166.193 2813.11,150.045 2814.04,167.763 2814.97,174.777 2815.9,171.146 2816.83,181.247 2817.77,176.328 2818.7,171.302 2819.63,156.45 2820.56,149.113 2821.49,155.898 2822.42,168.389 2823.35,179.006 2824.28,173.61 2825.21,167.471 2826.14,171.24 2827.07,177.24 2828,168.278 2828.93,167.82 2829.86,162.891 2830.79,175.227 2831.72,164.088 2832.65,173.092 2833.58,161.78 2834.51,158.682 2835.44,162.84 2836.37,150.812 2837.3,155.66 2838.23,144.557 2839.16,147.651 2840.09,149.331 2841.02,156.825 2841.95,152.632 2842.89,154.11 2843.82,165.695 2844.75,161.388 2845.68,173.373 2846.61,159.733 2847.54,156.28 2848.47,156.641 2849.4,158.74 2850.33,161.513 2851.26,157.317 2852.19,163.246 2853.12,157.135 2854.05,155.336 2854.98,154.957 2855.91,154.888 2856.84,160.137 2857.77,155.386 2858.7,167.302 2859.63,167.566 2860.56,164.3 2861.49,164.298 2862.42,175.637 2863.35,166.273 2864.28,161.123 2865.21,165.886 2866.14,168.136 2867.07,167.79 2868.01,165.482 2868.94,161.121 2869.87,160.7 2870.8,158.514 2871.73,152.98 2872.66,143.689 2873.59,158.143 2874.52,160.879 2875.45,155.18 2876.38,150.304 2877.31,150.238 2878.24,151.454 2879.17,155.893 2880.1,160.051 2881.03,166.142 2881.96,172.178 2882.89,166.464 2883.82,171.266 2884.75,167.815 2885.68,163.957 2886.61,152.671 2887.54,159.375 2888.47,155.782 2889.4,163.447 2890.33,149.993 2891.26,163.517 2892.2,156.948 2893.13,144.875 2894.06,144.988 2894.99,145.603 2895.92,147.47 2896.85,142.95 2897.78,152.306 2898.71,156.483 2899.64,165.119 2900.57,167.127 2901.5,168.51 2902.43,171.36 2903.36,170.808 2904.29,181.612 2905.22,189.022 2906.15,182.92 2907.08,168.195 2908.01,147.437 2908.94,144.315 2909.87,147.629 2910.8,145.695 2911.73,151.164 2912.66,158.056 2913.59,149.252 2914.52,163.055 2915.45,159.853 2916.38,170.707 2917.32,156.343 2918.25,157.107 2919.18,169.974 2920.11,179.035 2921.04,169.993 2921.97,168.101 2922.9,168.782 2923.83,159.67 2924.76,170.09 2925.69,172.179 2926.62,164.668 2927.55,161.603 2928.48,153.694 2929.41,155.368 2930.34,152.683 2931.27,152.86 2932.2,153.815 2933.13,155.794 2934.06,151.37 2934.99,146.941 2935.92,140.873 2936.85,142.674 2937.78,166.176 2938.71,170.03 2939.64,155.332 2940.57,163.433 2941.5,166.341 2942.44,159.57 2943.37,156.099 2944.3,155.65 2945.23,153.498 2946.16,161.345 2947.09,169.479 2948.02,155.071 2948.95,154.379 2949.88,149.202 2950.81,155.195 2951.74,156.621 2952.67,145.198 2953.6,142.443 2954.53,134.576 2955.46,152.162 2956.39,154.044 2957.32,140.967 2958.25,146.869 2959.18,140.327 2960.11,148.331 2961.04,146.75 2961.97,150.851 2962.9,153.919 2963.83,154.749 2964.76,150.626 2965.69,160.067 2966.63,160.254 2967.56,168.359 2968.49,176.789 2969.42,166.889 2970.35,153.823 2971.28,145.365 2972.21,137.481 2973.14,145.146 2974.07,149.614 2975,151.664 2975.93,145.024 2976.86,152.73 2977.79,145.218 2978.72,150.418 2979.65,158.443 2980.58,157.802 2981.51,156.537 2982.44,162.405 2983.37,169.799 2984.3,176.41 2985.23,161.008 2986.16,146.228 2987.09,153.307 2988.02,167.611 2988.95,172.124 2989.88,172.177 2990.81,176.218 2991.75,172.46 2992.68,171.951 2993.61,170.463 2994.54,166.758 2995.47,159.179 2996.4,156.53 2997.33,157.913 2998.26,147.772 2999.19,154.878 3000.12,141.067 3001.05,136.986 3001.98,132.758 3002.91,127.921 3003.84,131.705 3004.77,146.465 3005.7,150.087 3006.63,145.855 3007.56,139.006 3008.49,150.591 3009.42,146.115 3010.35,167.438 3011.28,171.529 3012.21,166.212 3013.14,163.583 3014.07,169.123 3015,166.348 3015.93,171.892 3016.87,167.856 3017.8,173.155 3018.73,174.041 3019.66,172.409 3020.59,176.164 3021.52,158.691 3022.45,150.947 3023.38,151.973 3024.31,161.22 3025.24,150.298 3026.17,155.743 3027.1,154.239 3028.03,161.04 3028.96,151.305 3029.89,161.312 3030.82,159.883 3031.75,158.209 3032.68,158.451 3033.61,156.345 3034.54,141.192 3035.47,147.833 3036.4,141.884 3037.33,155.12 3038.26,142.985 3039.19,150.066 3040.12,152.144 3041.06,158.141 3041.99,169.508 3042.92,177.59 3043.85,175.353 3044.78,171.508 3045.71,162.059 3046.64,160.501 3047.57,168.878 3048.5,165.265 3049.43,169.952 3050.36,177.433 3051.29,173.267 3052.22,175.198 3053.15,154.938 3054.08,149.566 3055.01,149.532 3055.94,145.387 3056.87,143.691 3057.8,152.745 3058.73,163.85 3059.66,166.722 3060.59,171.869 3061.52,172.968 3062.45,165.776 3063.38,163.281 3064.31,156.352 3065.24,149.368 3066.18,143.618 3067.11,145.841 3068.04,151.831 3068.97,157.592 "/>
<path clip-path="url(#clip220)" d="M2605.63 693.754 L3054.07 693.754 L3054.07 590.074 L2605.63 590.074  Z" fill="#ffffff" fill-rule="evenodd" fill-opacity="1"/>
<polyline clip-path="url(#clip220)" style="stroke:#000000; stroke-linecap:round; stroke-linejoin:round; stroke-width:4; stroke-opacity:1; fill:none" points="2605.63,693.754 3054.07,693.754 3054.07,590.074 2605.63,590.074 2605.63,693.754 "/>
<polyline clip-path="url(#clip220)" style="stroke:#009af9; stroke-linecap:round; stroke-linejoin:round; stroke-width:2; stroke-opacity:1; fill:none" points="2638.53,641.914 2835.9,641.914 "/>
<path clip-path="url(#clip220)" d="M2868.79 624.634 L2873.51 624.634 L2880.78 653.847 L2888.03 624.634 L2893.28 624.634 L2900.55 653.847 L2907.8 624.634 L2912.54 624.634 L2903.86 659.194 L2897.98 659.194 L2890.69 629.195 L2883.33 659.194 L2877.45 659.194 L2868.79 624.634 Z" fill="#000000" fill-rule="evenodd" fill-opacity="1" /><path clip-path="url(#clip220)" d="M2918.75 624.634 L2923.42 624.634 L2923.42 638.801 L2940.41 638.801 L2940.41 624.634 L2945.09 624.634 L2945.09 659.194 L2940.41 659.194 L2940.41 642.736 L2923.42 642.736 L2923.42 659.194 L2918.75 659.194 L2918.75 624.634 Z" fill="#000000" fill-rule="evenodd" fill-opacity="1" /><path clip-path="url(#clip220)" d="M2954.39 624.634 L2961.36 624.634 L2970.18 648.153 L2979.05 624.634 L2986.01 624.634 L2986.01 659.194 L2981.45 659.194 L2981.45 628.847 L2972.54 652.551 L2967.84 652.551 L2958.93 628.847 L2958.93 659.194 L2954.39 659.194 L2954.39 624.634 Z" fill="#000000" fill-rule="evenodd" fill-opacity="1" /><path clip-path="url(#clip220)" d="M3021.18 627.296 L3021.18 632.227 Q3018.81 630.028 3016.13 628.94 Q3013.47 627.852 3010.46 627.852 Q3004.53 627.852 3001.38 631.486 Q2998.24 635.097 2998.24 641.949 Q2998.24 648.778 3001.38 652.412 Q3004.53 656.023 3010.46 656.023 Q3013.47 656.023 3016.13 654.935 Q3018.81 653.847 3021.18 651.648 L3021.18 656.532 Q3018.72 658.199 3015.97 659.032 Q3013.24 659.866 3010.18 659.866 Q3002.33 659.866 2997.82 655.074 Q2993.31 650.259 2993.31 641.949 Q2993.31 633.616 2997.82 628.824 Q3002.33 624.009 3010.18 624.009 Q3013.28 624.009 3016.01 624.843 Q3018.77 625.653 3021.18 627.296 Z" fill="#000000" fill-rule="evenodd" fill-opacity="1" /></svg>
