<?xml version="1.0" encoding="utf-8"?>
<svg xmlns="http://www.w3.org/2000/svg" xmlns:xlink="http://www.w3.org/1999/xlink" width="800" height="200" viewBox="0 0 3200 800">
<defs>
  <clipPath id="clip820">
    <rect x="0" y="0" width="3200" height="800"/>
  </clipPath>
</defs>
<path clip-path="url(#clip820)" d="M0 800 L3200 800 L3200 0 L0 0  Z" fill="#ffffff" fill-rule="evenodd" fill-opacity="1"/>
<defs>
  <clipPath id="clip821">
    <rect x="640" y="0" width="2241" height="800"/>
  </clipPath>
</defs>
<path clip-path="url(#clip820)" d="M192.191 716.048 L3152.76 716.048 L3152.76 47.2441 L192.191 47.2441  Z" fill="#ffffff" fill-rule="evenodd" fill-opacity="1"/>
<defs>
  <clipPath id="clip822">
    <rect x="192" y="47" width="2962" height="670"/>
  </clipPath>
</defs>
<polyline clip-path="url(#clip822)" style="stroke:#000000; stroke-linecap:round; stroke-linejoin:round; stroke-width:2; stroke-opacity:0.1; fill:none" points="274.706,716.048 274.706,47.2441 "/>
<polyline clip-path="url(#clip822)" style="stroke:#000000; stroke-linecap:round; stroke-linejoin:round; stroke-width:2; stroke-opacity:0.1; fill:none" points="911.792,716.048 911.792,47.2441 "/>
<polyline clip-path="url(#clip822)" style="stroke:#000000; stroke-linecap:round; stroke-linejoin:round; stroke-width:2; stroke-opacity:0.1; fill:none" points="1548.88,716.048 1548.88,47.2441 "/>
<polyline clip-path="url(#clip822)" style="stroke:#000000; stroke-linecap:round; stroke-linejoin:round; stroke-width:2; stroke-opacity:0.1; fill:none" points="2185.96,716.048 2185.96,47.2441 "/>
<polyline clip-path="url(#clip822)" style="stroke:#000000; stroke-linecap:round; stroke-linejoin:round; stroke-width:2; stroke-opacity:0.1; fill:none" points="2823.05,716.048 2823.05,47.2441 "/>
<polyline clip-path="url(#clip820)" style="stroke:#000000; stroke-linecap:round; stroke-linejoin:round; stroke-width:4; stroke-opacity:1; fill:none" points="192.191,716.048 3152.76,716.048 "/>
<polyline clip-path="url(#clip820)" style="stroke:#000000; stroke-linecap:round; stroke-linejoin:round; stroke-width:4; stroke-opacity:1; fill:none" points="274.706,716.048 274.706,697.15 "/>
<polyline clip-path="url(#clip820)" style="stroke:#000000; stroke-linecap:round; stroke-linejoin:round; stroke-width:4; stroke-opacity:1; fill:none" points="911.792,716.048 911.792,697.15 "/>
<polyline clip-path="url(#clip820)" style="stroke:#000000; stroke-linecap:round; stroke-linejoin:round; stroke-width:4; stroke-opacity:1; fill:none" points="1548.88,716.048 1548.88,697.15 "/>
<polyline clip-path="url(#clip820)" style="stroke:#000000; stroke-linecap:round; stroke-linejoin:round; stroke-width:4; stroke-opacity:1; fill:none" points="2185.96,716.048 2185.96,697.15 "/>
<polyline clip-path="url(#clip820)" style="stroke:#000000; stroke-linecap:round; stroke-linejoin:round; stroke-width:4; stroke-opacity:1; fill:none" points="2823.05,716.048 2823.05,697.15 "/>
<path clip-path="url(#clip820)" d="M274.706 753.367 Q271.095 753.367 269.266 756.931 Q267.461 760.473 267.461 767.603 Q267.461 774.709 269.266 778.274 Q271.095 781.815 274.706 781.815 Q278.34 781.815 280.146 778.274 Q281.975 774.709 281.975 767.603 Q281.975 760.473 280.146 756.931 Q278.34 753.367 274.706 753.367 M274.706 749.663 Q280.516 749.663 283.572 754.269 Q286.65 758.853 286.65 767.603 Q286.65 776.329 283.572 780.936 Q280.516 785.519 274.706 785.519 Q268.896 785.519 265.817 780.936 Q262.762 776.329 262.762 767.603 Q262.762 758.853 265.817 754.269 Q268.896 749.663 274.706 749.663 Z" fill="#000000" fill-rule="evenodd" fill-opacity="1" /><path clip-path="url(#clip820)" d="M871.411 750.288 L889.767 750.288 L889.767 754.223 L875.693 754.223 L875.693 762.695 Q876.711 762.348 877.73 762.186 Q878.749 762.001 879.767 762.001 Q885.554 762.001 888.934 765.172 Q892.313 768.343 892.313 773.76 Q892.313 779.339 888.841 782.44 Q885.369 785.519 879.049 785.519 Q876.874 785.519 874.605 785.149 Q872.36 784.778 869.952 784.038 L869.952 779.339 Q872.036 780.473 874.258 781.028 Q876.48 781.584 878.957 781.584 Q882.961 781.584 885.299 779.478 Q887.637 777.371 887.637 773.76 Q887.637 770.149 885.299 768.042 Q882.961 765.936 878.957 765.936 Q877.082 765.936 875.207 766.353 Q873.355 766.769 871.411 767.649 L871.411 750.288 Z" fill="#000000" fill-rule="evenodd" fill-opacity="1" /><path clip-path="url(#clip820)" d="M911.526 753.367 Q907.915 753.367 906.086 756.931 Q904.281 760.473 904.281 767.603 Q904.281 774.709 906.086 778.274 Q907.915 781.815 911.526 781.815 Q915.16 781.815 916.966 778.274 Q918.795 774.709 918.795 767.603 Q918.795 760.473 916.966 756.931 Q915.16 753.367 911.526 753.367 M911.526 749.663 Q917.336 749.663 920.392 754.269 Q923.471 758.853 923.471 767.603 Q923.471 776.329 920.392 780.936 Q917.336 785.519 911.526 785.519 Q905.716 785.519 902.637 780.936 Q899.582 776.329 899.582 767.603 Q899.582 758.853 902.637 754.269 Q905.716 749.663 911.526 749.663 Z" fill="#000000" fill-rule="evenodd" fill-opacity="1" /><path clip-path="url(#clip820)" d="M941.688 753.367 Q938.077 753.367 936.248 756.931 Q934.443 760.473 934.443 767.603 Q934.443 774.709 936.248 778.274 Q938.077 781.815 941.688 781.815 Q945.322 781.815 947.128 778.274 Q948.956 774.709 948.956 767.603 Q948.956 760.473 947.128 756.931 Q945.322 753.367 941.688 753.367 M941.688 749.663 Q947.498 749.663 950.554 754.269 Q953.632 758.853 953.632 767.603 Q953.632 776.329 950.554 780.936 Q947.498 785.519 941.688 785.519 Q935.878 785.519 932.799 780.936 Q929.744 776.329 929.744 767.603 Q929.744 758.853 932.799 754.269 Q935.878 749.663 941.688 749.663 Z" fill="#000000" fill-rule="evenodd" fill-opacity="1" /><path clip-path="url(#clip820)" d="M1493.4 780.913 L1501.04 780.913 L1501.04 754.547 L1492.73 756.214 L1492.73 751.955 L1501 750.288 L1505.67 750.288 L1505.67 780.913 L1513.31 780.913 L1513.31 784.848 L1493.4 784.848 L1493.4 780.913 Z" fill="#000000" fill-rule="evenodd" fill-opacity="1" /><path clip-path="url(#clip820)" d="M1532.76 753.367 Q1529.14 753.367 1527.32 756.931 Q1525.51 760.473 1525.51 767.603 Q1525.51 774.709 1527.32 778.274 Q1529.14 781.815 1532.76 781.815 Q1536.39 781.815 1538.2 778.274 Q1540.02 774.709 1540.02 767.603 Q1540.02 760.473 1538.2 756.931 Q1536.39 753.367 1532.76 753.367 M1532.76 749.663 Q1538.57 749.663 1541.62 754.269 Q1544.7 758.853 1544.7 767.603 Q1544.7 776.329 1541.62 780.936 Q1538.57 785.519 1532.76 785.519 Q1526.95 785.519 1523.87 780.936 Q1520.81 776.329 1520.81 767.603 Q1520.81 758.853 1523.87 754.269 Q1526.95 749.663 1532.76 749.663 Z" fill="#000000" fill-rule="evenodd" fill-opacity="1" /><path clip-path="url(#clip820)" d="M1562.92 753.367 Q1559.31 753.367 1557.48 756.931 Q1555.67 760.473 1555.67 767.603 Q1555.67 774.709 1557.48 778.274 Q1559.31 781.815 1562.92 781.815 Q1566.55 781.815 1568.36 778.274 Q1570.19 774.709 1570.19 767.603 Q1570.19 760.473 1568.36 756.931 Q1566.55 753.367 1562.92 753.367 M1562.92 749.663 Q1568.73 749.663 1571.78 754.269 Q1574.86 758.853 1574.86 767.603 Q1574.86 776.329 1571.78 780.936 Q1568.73 785.519 1562.92 785.519 Q1557.11 785.519 1554.03 780.936 Q1550.97 776.329 1550.97 767.603 Q1550.97 758.853 1554.03 754.269 Q1557.11 749.663 1562.92 749.663 Z" fill="#000000" fill-rule="evenodd" fill-opacity="1" /><path clip-path="url(#clip820)" d="M1593.08 753.367 Q1589.47 753.367 1587.64 756.931 Q1585.83 760.473 1585.83 767.603 Q1585.83 774.709 1587.64 778.274 Q1589.47 781.815 1593.08 781.815 Q1596.71 781.815 1598.52 778.274 Q1600.35 774.709 1600.35 767.603 Q1600.35 760.473 1598.52 756.931 Q1596.71 753.367 1593.08 753.367 M1593.08 749.663 Q1598.89 749.663 1601.95 754.269 Q1605.02 758.853 1605.02 767.603 Q1605.02 776.329 1601.95 780.936 Q1598.89 785.519 1593.08 785.519 Q1587.27 785.519 1584.19 780.936 Q1581.14 776.329 1581.14 767.603 Q1581.14 758.853 1584.19 754.269 Q1587.27 749.663 1593.08 749.663 Z" fill="#000000" fill-rule="evenodd" fill-opacity="1" /><path clip-path="url(#clip820)" d="M2130.49 780.913 L2138.13 780.913 L2138.13 754.547 L2129.82 756.214 L2129.82 751.955 L2138.08 750.288 L2142.76 750.288 L2142.76 780.913 L2150.4 780.913 L2150.4 784.848 L2130.49 784.848 L2130.49 780.913 Z" fill="#000000" fill-rule="evenodd" fill-opacity="1" /><path clip-path="url(#clip820)" d="M2159.89 750.288 L2178.24 750.288 L2178.24 754.223 L2164.17 754.223 L2164.17 762.695 Q2165.19 762.348 2166.21 762.186 Q2167.23 762.001 2168.24 762.001 Q2174.03 762.001 2177.41 765.172 Q2180.79 768.343 2180.79 773.76 Q2180.79 779.339 2177.32 782.44 Q2173.85 785.519 2167.53 785.519 Q2165.35 785.519 2163.08 785.149 Q2160.84 784.778 2158.43 784.038 L2158.43 779.339 Q2160.51 780.473 2162.74 781.028 Q2164.96 781.584 2167.43 781.584 Q2171.44 781.584 2173.78 779.478 Q2176.12 777.371 2176.12 773.76 Q2176.12 770.149 2173.78 768.042 Q2171.44 765.936 2167.43 765.936 Q2165.56 765.936 2163.68 766.353 Q2161.83 766.769 2159.89 767.649 L2159.89 750.288 Z" fill="#000000" fill-rule="evenodd" fill-opacity="1" /><path clip-path="url(#clip820)" d="M2200 753.367 Q2196.39 753.367 2194.56 756.931 Q2192.76 760.473 2192.76 767.603 Q2192.76 774.709 2194.56 778.274 Q2196.39 781.815 2200 781.815 Q2203.64 781.815 2205.44 778.274 Q2207.27 774.709 2207.27 767.603 Q2207.27 760.473 2205.44 756.931 Q2203.64 753.367 2200 753.367 M2200 749.663 Q2205.81 749.663 2208.87 754.269 Q2211.95 758.853 2211.95 767.603 Q2211.95 776.329 2208.87 780.936 Q2205.81 785.519 2200 785.519 Q2194.19 785.519 2191.12 780.936 Q2188.06 776.329 2188.06 767.603 Q2188.06 758.853 2191.12 754.269 Q2194.19 749.663 2200 749.663 Z" fill="#000000" fill-rule="evenodd" fill-opacity="1" /><path clip-path="url(#clip820)" d="M2230.17 753.367 Q2226.55 753.367 2224.73 756.931 Q2222.92 760.473 2222.92 767.603 Q2222.92 774.709 2224.73 778.274 Q2226.55 781.815 2230.17 781.815 Q2233.8 781.815 2235.61 778.274 Q2237.43 774.709 2237.43 767.603 Q2237.43 760.473 2235.61 756.931 Q2233.8 753.367 2230.17 753.367 M2230.17 749.663 Q2235.98 749.663 2239.03 754.269 Q2242.11 758.853 2242.11 767.603 Q2242.11 776.329 2239.03 780.936 Q2235.98 785.519 2230.17 785.519 Q2224.36 785.519 2221.28 780.936 Q2218.22 776.329 2218.22 767.603 Q2218.22 758.853 2221.28 754.269 Q2224.36 749.663 2230.17 749.663 Z" fill="#000000" fill-rule="evenodd" fill-opacity="1" /><path clip-path="url(#clip820)" d="M2771.66 780.913 L2787.98 780.913 L2787.98 784.848 L2766.04 784.848 L2766.04 780.913 Q2768.7 778.158 2773.28 773.528 Q2777.89 768.876 2779.07 767.533 Q2781.32 765.01 2782.19 763.274 Q2783.1 761.515 2783.1 759.825 Q2783.1 757.07 2781.15 755.334 Q2779.23 753.598 2776.13 753.598 Q2773.93 753.598 2771.48 754.362 Q2769.05 755.126 2766.27 756.677 L2766.27 751.955 Q2769.09 750.82 2771.55 750.242 Q2774 749.663 2776.04 749.663 Q2781.41 749.663 2784.6 752.348 Q2787.8 755.033 2787.8 759.524 Q2787.8 761.654 2786.99 763.575 Q2786.2 765.473 2784.09 768.066 Q2783.51 768.737 2780.41 771.954 Q2777.31 775.149 2771.66 780.913 Z" fill="#000000" fill-rule="evenodd" fill-opacity="1" /><path clip-path="url(#clip820)" d="M2807.8 753.367 Q2804.19 753.367 2802.36 756.931 Q2800.55 760.473 2800.55 767.603 Q2800.55 774.709 2802.36 778.274 Q2804.19 781.815 2807.8 781.815 Q2811.43 781.815 2813.24 778.274 Q2815.06 774.709 2815.06 767.603 Q2815.06 760.473 2813.24 756.931 Q2811.43 753.367 2807.8 753.367 M2807.8 749.663 Q2813.61 749.663 2816.66 754.269 Q2819.74 758.853 2819.74 767.603 Q2819.74 776.329 2816.66 780.936 Q2813.61 785.519 2807.8 785.519 Q2801.99 785.519 2798.91 780.936 Q2795.85 776.329 2795.85 767.603 Q2795.85 758.853 2798.91 754.269 Q2801.99 749.663 2807.8 749.663 Z" fill="#000000" fill-rule="evenodd" fill-opacity="1" /><path clip-path="url(#clip820)" d="M2837.96 753.367 Q2834.35 753.367 2832.52 756.931 Q2830.71 760.473 2830.71 767.603 Q2830.71 774.709 2832.52 778.274 Q2834.35 781.815 2837.96 781.815 Q2841.59 781.815 2843.4 778.274 Q2845.23 774.709 2845.23 767.603 Q2845.23 760.473 2843.4 756.931 Q2841.59 753.367 2837.96 753.367 M2837.96 749.663 Q2843.77 749.663 2846.82 754.269 Q2849.9 758.853 2849.9 767.603 Q2849.9 776.329 2846.82 780.936 Q2843.77 785.519 2837.96 785.519 Q2832.15 785.519 2829.07 780.936 Q2826.01 776.329 2826.01 767.603 Q2826.01 758.853 2829.07 754.269 Q2832.15 749.663 2837.96 749.663 Z" fill="#000000" fill-rule="evenodd" fill-opacity="1" /><path clip-path="url(#clip820)" d="M2868.12 753.367 Q2864.51 753.367 2862.68 756.931 Q2860.87 760.473 2860.87 767.603 Q2860.87 774.709 2862.68 778.274 Q2864.51 781.815 2868.12 781.815 Q2871.75 781.815 2873.56 778.274 Q2875.39 774.709 2875.39 767.603 Q2875.39 760.473 2873.56 756.931 Q2871.75 753.367 2868.12 753.367 M2868.12 749.663 Q2873.93 749.663 2876.99 754.269 Q2880.06 758.853 2880.06 767.603 Q2880.06 776.329 2876.99 780.936 Q2873.93 785.519 2868.12 785.519 Q2862.31 785.519 2859.23 780.936 Q2856.18 776.329 2856.18 767.603 Q2856.18 758.853 2859.23 754.269 Q2862.31 749.663 2868.12 749.663 Z" fill="#000000" fill-rule="evenodd" fill-opacity="1" /><polyline clip-path="url(#clip822)" style="stroke:#000000; stroke-linecap:round; stroke-linejoin:round; stroke-width:2; stroke-opacity:0.1; fill:none" points="192.191,716.048 3152.76,716.048 "/>
<polyline clip-path="url(#clip822)" style="stroke:#000000; stroke-linecap:round; stroke-linejoin:round; stroke-width:2; stroke-opacity:0.1; fill:none" points="192.191,599.936 3152.76,599.936 "/>
<polyline clip-path="url(#clip822)" style="stroke:#000000; stroke-linecap:round; stroke-linejoin:round; stroke-width:2; stroke-opacity:0.1; fill:none" points="192.191,483.824 3152.76,483.824 "/>
<polyline clip-path="url(#clip822)" style="stroke:#000000; stroke-linecap:round; stroke-linejoin:round; stroke-width:2; stroke-opacity:0.1; fill:none" points="192.191,367.713 3152.76,367.713 "/>
<polyline clip-path="url(#clip822)" style="stroke:#000000; stroke-linecap:round; stroke-linejoin:round; stroke-width:2; stroke-opacity:0.1; fill:none" points="192.191,251.601 3152.76,251.601 "/>
<polyline clip-path="url(#clip822)" style="stroke:#000000; stroke-linecap:round; stroke-linejoin:round; stroke-width:2; stroke-opacity:0.1; fill:none" points="192.191,135.489 3152.76,135.489 "/>
<polyline clip-path="url(#clip820)" style="stroke:#000000; stroke-linecap:round; stroke-linejoin:round; stroke-width:4; stroke-opacity:1; fill:none" points="192.191,716.048 192.191,47.2441 "/>
<polyline clip-path="url(#clip820)" style="stroke:#000000; stroke-linecap:round; stroke-linejoin:round; stroke-width:4; stroke-opacity:1; fill:none" points="192.191,716.048 211.088,716.048 "/>
<polyline clip-path="url(#clip820)" style="stroke:#000000; stroke-linecap:round; stroke-linejoin:round; stroke-width:4; stroke-opacity:1; fill:none" points="192.191,599.936 211.088,599.936 "/>
<polyline clip-path="url(#clip820)" style="stroke:#000000; stroke-linecap:round; stroke-linejoin:round; stroke-width:4; stroke-opacity:1; fill:none" points="192.191,483.824 211.088,483.824 "/>
<polyline clip-path="url(#clip820)" style="stroke:#000000; stroke-linecap:round; stroke-linejoin:round; stroke-width:4; stroke-opacity:1; fill:none" points="192.191,367.713 211.088,367.713 "/>
<polyline clip-path="url(#clip820)" style="stroke:#000000; stroke-linecap:round; stroke-linejoin:round; stroke-width:4; stroke-opacity:1; fill:none" points="192.191,251.601 211.088,251.601 "/>
<polyline clip-path="url(#clip820)" style="stroke:#000000; stroke-linecap:round; stroke-linejoin:round; stroke-width:4; stroke-opacity:1; fill:none" points="192.191,135.489 211.088,135.489 "/>
<path clip-path="url(#clip820)" d="M87.0151 701.847 Q83.404 701.847 81.5753 705.411 Q79.7697 708.953 79.7697 716.083 Q79.7697 723.189 81.5753 726.754 Q83.404 730.295 87.0151 730.295 Q90.6493 730.295 92.4548 726.754 Q94.2835 723.189 94.2835 716.083 Q94.2835 708.953 92.4548 705.411 Q90.6493 701.847 87.0151 701.847 M87.0151 698.143 Q92.8252 698.143 95.8808 702.749 Q98.9594 707.333 98.9594 716.083 Q98.9594 724.809 95.8808 729.416 Q92.8252 733.999 87.0151 733.999 Q81.2049 733.999 78.1262 729.416 Q75.0707 724.809 75.0707 716.083 Q75.0707 707.333 78.1262 702.749 Q81.2049 698.143 87.0151 698.143 Z" fill="#000000" fill-rule="evenodd" fill-opacity="1" /><path clip-path="url(#clip820)" d="M107.177 727.448 L112.061 727.448 L112.061 733.328 L107.177 733.328 L107.177 727.448 Z" fill="#000000" fill-rule="evenodd" fill-opacity="1" /><path clip-path="url(#clip820)" d="M132.246 701.847 Q128.635 701.847 126.807 705.411 Q125.001 708.953 125.001 716.083 Q125.001 723.189 126.807 726.754 Q128.635 730.295 132.246 730.295 Q135.881 730.295 137.686 726.754 Q139.515 723.189 139.515 716.083 Q139.515 708.953 137.686 705.411 Q135.881 701.847 132.246 701.847 M132.246 698.143 Q138.056 698.143 141.112 702.749 Q144.191 707.333 144.191 716.083 Q144.191 724.809 141.112 729.416 Q138.056 733.999 132.246 733.999 Q126.436 733.999 123.357 729.416 Q120.302 724.809 120.302 716.083 Q120.302 707.333 123.357 702.749 Q126.436 698.143 132.246 698.143 Z" fill="#000000" fill-rule="evenodd" fill-opacity="1" /><path clip-path="url(#clip820)" d="M82.0382 613.281 L98.3576 613.281 L98.3576 617.216 L76.4133 617.216 L76.4133 613.281 Q79.0753 610.526 83.6586 605.897 Q88.2651 601.244 89.4456 599.901 Q91.691 597.378 92.5706 595.642 Q93.4734 593.883 93.4734 592.193 Q93.4734 589.438 91.5289 587.702 Q89.6076 585.966 86.5058 585.966 Q84.3067 585.966 81.8531 586.73 Q79.4225 587.494 76.6447 589.045 L76.6447 584.323 Q79.4688 583.189 81.9225 582.61 Q84.3762 582.031 86.4132 582.031 Q91.7836 582.031 94.978 584.716 Q98.1724 587.401 98.1724 591.892 Q98.1724 594.022 97.3622 595.943 Q96.5752 597.841 94.4687 600.434 Q93.89 601.105 90.7882 604.323 Q87.6864 607.517 82.0382 613.281 Z" fill="#000000" fill-rule="evenodd" fill-opacity="1" /><path clip-path="url(#clip820)" d="M108.172 611.337 L113.057 611.337 L113.057 617.216 L108.172 617.216 L108.172 611.337 Z" fill="#000000" fill-rule="evenodd" fill-opacity="1" /><path clip-path="url(#clip820)" d="M123.288 582.656 L141.644 582.656 L141.644 586.591 L127.57 586.591 L127.57 595.063 Q128.589 594.716 129.607 594.554 Q130.626 594.369 131.644 594.369 Q137.431 594.369 140.811 597.54 Q144.191 600.712 144.191 606.128 Q144.191 611.707 140.718 614.809 Q137.246 617.887 130.927 617.887 Q128.751 617.887 126.482 617.517 Q124.237 617.147 121.83 616.406 L121.83 611.707 Q123.913 612.841 126.135 613.397 Q128.357 613.952 130.834 613.952 Q134.839 613.952 137.177 611.846 Q139.515 609.739 139.515 606.128 Q139.515 602.517 137.177 600.411 Q134.839 598.304 130.834 598.304 Q128.959 598.304 127.084 598.721 Q125.232 599.137 123.288 600.017 L123.288 582.656 Z" fill="#000000" fill-rule="evenodd" fill-opacity="1" /><path clip-path="url(#clip820)" d="M77.0614 466.544 L95.4178 466.544 L95.4178 470.48 L81.3438 470.48 L81.3438 478.952 Q82.3623 478.604 83.3808 478.442 Q84.3993 478.257 85.4178 478.257 Q91.2049 478.257 94.5845 481.429 Q97.9641 484.6 97.9641 490.016 Q97.9641 495.595 94.4919 498.697 Q91.0197 501.776 84.7003 501.776 Q82.5243 501.776 80.2558 501.405 Q78.0105 501.035 75.6031 500.294 L75.6031 495.595 Q77.6864 496.729 79.9086 497.285 Q82.1308 497.84 84.6077 497.84 Q88.6123 497.84 90.9502 495.734 Q93.2882 493.628 93.2882 490.016 Q93.2882 486.405 90.9502 484.299 Q88.6123 482.192 84.6077 482.192 Q82.7327 482.192 80.8577 482.609 Q79.0058 483.026 77.0614 483.905 L77.0614 466.544 Z" fill="#000000" fill-rule="evenodd" fill-opacity="1" /><path clip-path="url(#clip820)" d="M107.177 495.225 L112.061 495.225 L112.061 501.104 L107.177 501.104 L107.177 495.225 Z" fill="#000000" fill-rule="evenodd" fill-opacity="1" /><path clip-path="url(#clip820)" d="M132.246 469.623 Q128.635 469.623 126.807 473.188 Q125.001 476.729 125.001 483.859 Q125.001 490.966 126.807 494.53 Q128.635 498.072 132.246 498.072 Q135.881 498.072 137.686 494.53 Q139.515 490.966 139.515 483.859 Q139.515 476.729 137.686 473.188 Q135.881 469.623 132.246 469.623 M132.246 465.919 Q138.056 465.919 141.112 470.526 Q144.191 475.109 144.191 483.859 Q144.191 492.586 141.112 497.192 Q138.056 501.776 132.246 501.776 Q126.436 501.776 123.357 497.192 Q120.302 492.586 120.302 483.859 Q120.302 475.109 123.357 470.526 Q126.436 465.919 132.246 465.919 Z" fill="#000000" fill-rule="evenodd" fill-opacity="1" /><path clip-path="url(#clip820)" d="M76.8299 350.433 L99.052 350.433 L99.052 352.423 L86.5058 384.993 L81.6216 384.993 L93.4271 354.368 L76.8299 354.368 L76.8299 350.433 Z" fill="#000000" fill-rule="evenodd" fill-opacity="1" /><path clip-path="url(#clip820)" d="M108.172 379.113 L113.057 379.113 L113.057 384.993 L108.172 384.993 L108.172 379.113 Z" fill="#000000" fill-rule="evenodd" fill-opacity="1" /><path clip-path="url(#clip820)" d="M123.288 350.433 L141.644 350.433 L141.644 354.368 L127.57 354.368 L127.57 362.84 Q128.589 362.493 129.607 362.331 Q130.626 362.145 131.644 362.145 Q137.431 362.145 140.811 365.317 Q144.191 368.488 144.191 373.905 Q144.191 379.483 140.718 382.585 Q137.246 385.664 130.927 385.664 Q128.751 385.664 126.482 385.293 Q124.237 384.923 121.83 384.182 L121.83 379.483 Q123.913 380.618 126.135 381.173 Q128.357 381.729 130.834 381.729 Q134.839 381.729 137.177 379.622 Q139.515 377.516 139.515 373.905 Q139.515 370.294 137.177 368.187 Q134.839 366.081 130.834 366.081 Q128.959 366.081 127.084 366.497 Q125.232 366.914 123.288 367.794 L123.288 350.433 Z" fill="#000000" fill-rule="evenodd" fill-opacity="1" /><path clip-path="url(#clip820)" d="M47.6634 264.946 L55.3023 264.946 L55.3023 238.58 L46.9921 240.247 L46.9921 235.987 L55.256 234.321 L59.9319 234.321 L59.9319 264.946 L67.5707 264.946 L67.5707 268.881 L47.6634 268.881 L47.6634 264.946 Z" fill="#000000" fill-rule="evenodd" fill-opacity="1" /><path clip-path="url(#clip820)" d="M87.0151 237.399 Q83.404 237.399 81.5753 240.964 Q79.7697 244.506 79.7697 251.636 Q79.7697 258.742 81.5753 262.307 Q83.404 265.848 87.0151 265.848 Q90.6493 265.848 92.4548 262.307 Q94.2835 258.742 94.2835 251.636 Q94.2835 244.506 92.4548 240.964 Q90.6493 237.399 87.0151 237.399 M87.0151 233.696 Q92.8252 233.696 95.8808 238.302 Q98.9594 242.886 98.9594 251.636 Q98.9594 260.362 95.8808 264.969 Q92.8252 269.552 87.0151 269.552 Q81.2049 269.552 78.1262 264.969 Q75.0707 260.362 75.0707 251.636 Q75.0707 242.886 78.1262 238.302 Q81.2049 233.696 87.0151 233.696 Z" fill="#000000" fill-rule="evenodd" fill-opacity="1" /><path clip-path="url(#clip820)" d="M107.177 263.001 L112.061 263.001 L112.061 268.881 L107.177 268.881 L107.177 263.001 Z" fill="#000000" fill-rule="evenodd" fill-opacity="1" /><path clip-path="url(#clip820)" d="M132.246 237.399 Q128.635 237.399 126.807 240.964 Q125.001 244.506 125.001 251.636 Q125.001 258.742 126.807 262.307 Q128.635 265.848 132.246 265.848 Q135.881 265.848 137.686 262.307 Q139.515 258.742 139.515 251.636 Q139.515 244.506 137.686 240.964 Q135.881 237.399 132.246 237.399 M132.246 233.696 Q138.056 233.696 141.112 238.302 Q144.191 242.886 144.191 251.636 Q144.191 260.362 141.112 264.969 Q138.056 269.552 132.246 269.552 Q126.436 269.552 123.357 264.969 Q120.302 260.362 120.302 251.636 Q120.302 242.886 123.357 238.302 Q126.436 233.696 132.246 233.696 Z" fill="#000000" fill-rule="evenodd" fill-opacity="1" /><path clip-path="url(#clip820)" d="M48.6588 148.834 L56.2976 148.834 L56.2976 122.468 L47.9875 124.135 L47.9875 119.876 L56.2513 118.209 L60.9272 118.209 L60.9272 148.834 L68.5661 148.834 L68.5661 152.769 L48.6588 152.769 L48.6588 148.834 Z" fill="#000000" fill-rule="evenodd" fill-opacity="1" /><path clip-path="url(#clip820)" d="M82.0382 148.834 L98.3576 148.834 L98.3576 152.769 L76.4133 152.769 L76.4133 148.834 Q79.0753 146.079 83.6586 141.45 Q88.2651 136.797 89.4456 135.454 Q91.691 132.931 92.5706 131.195 Q93.4734 129.436 93.4734 127.746 Q93.4734 124.991 91.5289 123.255 Q89.6076 121.519 86.5058 121.519 Q84.3067 121.519 81.8531 122.283 Q79.4225 123.047 76.6447 124.598 L76.6447 119.876 Q79.4688 118.741 81.9225 118.163 Q84.3762 117.584 86.4132 117.584 Q91.7836 117.584 94.978 120.269 Q98.1724 122.954 98.1724 127.445 Q98.1724 129.575 97.3622 131.496 Q96.5752 133.394 94.4687 135.987 Q93.89 136.658 90.7882 139.876 Q87.6864 143.07 82.0382 148.834 Z" fill="#000000" fill-rule="evenodd" fill-opacity="1" /><path clip-path="url(#clip820)" d="M108.172 146.889 L113.057 146.889 L113.057 152.769 L108.172 152.769 L108.172 146.889 Z" fill="#000000" fill-rule="evenodd" fill-opacity="1" /><path clip-path="url(#clip820)" d="M123.288 118.209 L141.644 118.209 L141.644 122.144 L127.57 122.144 L127.57 130.616 Q128.589 130.269 129.607 130.107 Q130.626 129.922 131.644 129.922 Q137.431 129.922 140.811 133.093 Q144.191 136.264 144.191 141.681 Q144.191 147.26 140.718 150.362 Q137.246 153.44 130.927 153.44 Q128.751 153.44 126.482 153.07 Q124.237 152.7 121.83 151.959 L121.83 147.26 Q123.913 148.394 126.135 148.95 Q128.357 149.505 130.834 149.505 Q134.839 149.505 137.177 147.399 Q139.515 145.292 139.515 141.681 Q139.515 138.07 137.177 135.964 Q134.839 133.857 130.834 133.857 Q128.959 133.857 127.084 134.274 Q125.232 134.69 123.288 135.57 L123.288 118.209 Z" fill="#000000" fill-rule="evenodd" fill-opacity="1" /><polyline clip-path="url(#clip822)" style="stroke:#009af9; stroke-linecap:round; stroke-linejoin:round; stroke-width:2; stroke-opacity:1; fill:none" points="275.98,159.477 277.254,159.803 278.529,158.107 279.803,175.037 281.077,152.212 282.351,160.506 283.625,172.14 284.899,141.916 286.174,167.606 287.448,182.662 288.722,161.736 289.996,168.365 291.27,170.683 292.545,160.638 293.819,151.189 295.093,149.315 296.367,156.222 297.641,131.035 298.915,181.931 300.19,137.217 301.464,155.687 302.738,138.555 304.012,152.896 305.286,164.07 306.56,340.826 307.835,327.402 309.109,198.669 310.383,375.368 311.657,346.451 312.931,513.015 314.205,557.521 315.48,532.647 316.754,545.96 318.028,356.657 319.302,171.386 320.576,178.142 321.85,154.245 323.125,159.998 324.399,185.244 325.673,325.958 326.947,334.414 328.221,341.777 329.496,345.752 330.77,339.432 332.044,341.746 333.318,335.249 334.592,339.844 335.866,345.98 337.141,364.213 338.415,344.92 339.689,352.852 340.963,349.406 342.237,163.23 343.511,152.034 344.786,175.687 346.06,360.222 347.334,339.518 348.608,342.242 349.882,343.226 351.156,336.589 352.431,343.159 353.705,341.74 354.979,323.94 356.253,137.454 357.527,176.361 358.801,165.676 360.076,161.05 361.35,170.979 362.624,159.268 363.898,158.069 365.172,172.919 366.447,168.609 367.721,348.085 368.995,331.169 370.269,352.601 371.543,550.004 372.817,537.908 374.092,530.83 375.366,529.268 376.64,514.287 377.914,515.809 379.188,538.69 380.462,529.541 381.737,513.678 383.011,536.213 384.285,523.238 385.559,563.152 386.833,504.542 388.107,503.211 389.382,492.44 390.656,498.489 391.93,543.604 393.204,525.362 394.478,533.127 395.752,526.719 397.027,517.772 398.301,524.886 399.575,340.835 400.849,358.45 402.123,348.933 403.398,345.826 404.672,342.494 405.946,344.699 407.22,339.006 408.494,324.262 409.768,147.823 411.043,166.1 412.317,168.995 413.591,140.26 414.865,137.884 416.139,141.102 417.413,135.291 418.688,163.815 419.962,163.166 421.236,155.065 422.51,183.06 423.784,160.263 425.058,177.975 426.333,151.882 427.607,162.166 428.881,163.022 430.155,142.269 431.429,159.209 432.703,170.877 433.978,169.887 435.252,155.642 436.526,150.424 437.8,157.149 439.074,156.059 440.349,163.155 441.623,356.223 442.897,320.974 444.171,162.239 445.445,174.173 446.719,159.94 447.994,172.169 449.268,328.287 450.542,338.357 451.816,336.941 453.09,340.923 454.364,349.139 455.639,542.563 456.913,526.45 458.187,510.513 459.461,514.892 460.735,538.736 462.009,524.267 463.284,338.876 464.558,352.016 465.832,525.474 467.106,516.528 468.38,331.702 469.654,313.756 470.929,353.02 472.203,348.794 473.477,331.828 474.751,357.737 476.025,349.287 477.3,340.469 478.574,343.935 479.848,355.617 481.122,154.059 482.396,162.611 483.67,168.664 484.945,143.468 486.219,152.419 487.493,153.839 488.767,154.206 490.041,344.321 491.315,342.908 492.59,163.907 493.864,147.119 495.138,146.995 496.412,180.969 497.686,133.782 498.96,162.522 500.235,179.056 501.509,164.74 502.783,170.915 504.057,178.631 505.331,177.654 506.605,160.834 507.88,167.195 509.154,159.554 510.428,147.402 511.702,175.888 512.976,163.778 514.251,152.706 515.525,149.637 516.799,167.745 518.073,146.635 519.347,160.432 520.621,176.643 521.896,145.773 523.17,164.892 524.444,159.248 525.718,311.939 526.992,363.4 528.266,349.441 529.541,331.608 530.815,365.895 532.089,358.639 533.363,532.988 534.637,513.552 535.911,533.337 537.186,513.169 538.46,547.335 539.734,522.923 541.008,529.642 542.282,534.361 543.556,521.96 544.831,525.693 546.105,542.714 547.379,544.279 548.653,526.502 549.927,516.989 551.202,541.615 552.476,530.029 553.75,534.41 555.024,529.328 556.298,509.14 557.572,527.575 558.847,535.7 560.121,534.538 561.395,538.726 562.669,542.471 563.943,524.648 565.217,537.082 566.492,546.011 567.766,523.492 569.04,535.965 570.314,535.634 571.588,524.187 572.862,535.54 574.137,516.419 575.411,525.659 576.685,526.29 577.959,358.148 579.233,332.448 580.507,170 581.782,157.017 583.056,137.554 584.33,174.063 585.604,159.552 586.878,168.803 588.153,159.807 589.427,151.513 590.701,156.333 591.975,144.761 593.249,139.543 594.523,148.623 595.798,145.955 597.072,161.42 598.346,156.322 599.62,161.274 600.894,132.822 602.168,159.73 603.443,181.367 604.717,166.451 605.991,171.562 607.265,143.695 608.539,156.724 609.813,168.309 611.088,166.388 612.362,135.617 613.636,169.273 614.91,158.98 616.184,147.108 617.458,153.677 618.733,162.776 620.007,146.671 621.281,138.027 622.555,158.363 623.829,173.224 625.104,173.625 626.378,160.827 627.652,143.823 628.926,151.714 630.2,155.451 631.474,154.683 632.749,173.261 634.023,132.99 635.297,145.384 636.571,183.473 637.845,161.587 639.119,177.923 640.394,148.414 641.668,173.777 642.942,148.157 644.216,148.885 645.49,173.535 646.764,147.417 648.039,149.315 649.313,155.708 650.587,154.87 651.861,153.767 653.135,168.689 654.409,158.016 655.684,173.922 656.958,148.482 658.232,152.179 659.506,148.997 660.78,150.836 662.055,175.461 663.329,170.493 664.603,166.669 665.877,151.417 667.151,156.14 668.425,159.714 669.7,136.815 670.974,165.824 672.248,155.07 673.522,164.639 674.796,155.488 676.07,151.574 677.345,161.208 678.619,141.816 679.893,175.09 681.167,173.493 682.441,171.89 683.715,137.197 684.99,152.95 686.264,142.173 687.538,132.383 688.812,179.764 690.086,153.315 691.36,157.68 692.635,159.054 693.909,164.334 695.183,157.428 696.457,164.125 697.731,167.583 699.006,160.882 700.28,171.805 701.554,157.78 702.828,175.354 704.102,145.504 705.376,166.695 706.651,171.739 707.925,178.312 709.199,162.401 710.473,151.402 711.747,149.085 713.021,330.386 714.296,160.237 715.57,148.755 716.844,160.488 718.118,163.624 719.392,332.941 720.666,358.19 721.941,343.941 723.215,353.674 724.489,333.675 725.763,158.451 727.037,158.621 728.311,151.291 729.586,155.157 730.86,335.423 732.134,159.042 733.408,152.099 734.682,159.919 735.957,156.21 737.231,175.51 738.505,144.994 739.779,174.82 741.053,170.552 742.327,131.901 743.602,154.453 744.876,161.246 746.15,179.096 747.424,158.135 748.698,159.658 749.972,149.309 751.247,184.771 752.521,366.445 753.795,349.911 755.069,338.369 756.343,362.252 757.617,355.944 758.892,329.467 760.166,354.865 761.44,339.746 762.714,359.079 763.988,356.171 765.262,518.482 766.537,529.275 767.811,511.41 769.085,551.584 770.359,535.703 771.633,539.151 772.908,524.228 774.182,327.118 775.456,359.207 776.73,337.025 778.004,158.445 779.278,178.525 780.553,354.465 781.827,345.953 783.101,344.13 784.375,353.139 785.649,364.768 786.923,341.62 788.198,340.62 789.472,154.834 790.746,149.75 792.02,173.295 793.294,167.84 794.568,352.594 795.843,354.129 797.117,353.227 798.391,366.136 799.665,351.374 800.939,345.001 802.213,327.979 803.488,354.772 804.762,366.15 806.036,340.214 807.31,330.794 808.584,332.389 809.859,343.864 811.133,350.597 812.407,350.922 813.681,364.145 814.955,339.127 816.229,349.738 817.504,337.576 818.778,354.57 820.052,528.039 821.326,512.131 822.6,349.23 823.874,336.484 825.149,335.271 826.423,351.42 827.697,347.012 828.971,338.181 830.245,358.879 831.519,320.662 832.794,317.552 834.068,320.841 835.342,169.915 836.616,165.183 837.89,169.356 839.164,346.011 840.439,162.455 841.713,160.789 842.987,166.545 844.261,152.777 845.535,160.171 846.81,163.53 848.084,170.204 849.358,167.434 850.632,145.139 851.906,155.481 853.18,166.209 854.455,162.036 855.729,170.115 857.003,166.101 858.277,147.207 859.551,164.862 860.825,145.735 862.1,159.459 863.374,155.334 864.648,169.735 865.922,167.55 867.196,172.003 868.47,160.236 869.745,158.927 871.019,156.321 872.293,146.43 873.567,168.212 874.841,173.352 876.115,175.375 877.39,142.482 878.664,160.44 879.938,344.414 881.212,357.75 882.486,359.464 883.761,331.256 885.035,335.872 886.309,329.329 887.583,353.822 888.857,348.222 890.131,366.111 891.406,339.75 892.68,341.826 893.954,354.192 895.228,363.293 896.502,314.719 897.776,355.571 899.051,343.263 900.325,344.191 901.599,345.088 902.873,351.251 904.147,174.268 905.421,150.078 906.696,148.388 907.97,329.021 909.244,349.978 910.518,345.424 911.792,331.491 913.066,361.241 914.341,330.184 915.615,329.763 916.889,369.287 918.163,330.546 919.437,326.77 920.712,326.033 921.986,348.271 923.26,541.576 924.534,515.503 925.808,548.168 927.082,521.17 928.357,334.947 929.631,337.755 930.905,362.604 932.179,547.207 933.453,549.847 934.727,517.026 936.002,546.246 937.276,529.823 938.55,532.984 939.824,524.734 941.098,540.328 942.372,535.633 943.647,538.105 944.921,526.231 946.195,516.305 947.469,328.697 948.743,334.692 950.017,348.344 951.292,340.002 952.566,343.717 953.84,340.71 955.114,167.816 956.388,166.654 957.663,153.892 958.937,156.092 960.211,161.634 961.485,153.094 962.759,359.764 964.033,342.317 965.308,360.617 966.582,352.053 967.856,349.246 969.13,363.367 970.404,355.774 971.678,373.75 972.953,517.685 974.227,543.553 975.501,539.696 976.775,544.41 978.049,547.38 979.323,525.272 980.598,367.748 981.872,346.598 983.146,340.8 984.42,519.624 985.694,519.983 986.969,332.517 988.243,350.712 989.517,346.516 990.791,336.724 992.065,355.55 993.339,341.451 994.614,361.733 995.888,308.408 997.162,167.341 998.436,155.939 999.71,134.091 1000.98,160.033 1002.26,164.491 1003.53,144.283 1004.81,144.139 1006.08,153.371 1007.36,142.804 1008.63,146.44 1009.9,159.938 1011.18,165.956 1012.45,159.841 1013.73,153.916 1015,155.825 1016.27,134.719 1017.55,145.337 1018.82,156.503 1020.1,156.022 1021.37,158.645 1022.65,160.846 1023.92,162.551 1025.19,157.258 1026.47,145.516 1027.74,188.184 1029.02,341.574 1030.29,346.473 1031.56,348.213 1032.84,323.039 1034.11,330.288 1035.39,173.398 1036.66,147.96 1037.94,160.838 1039.21,157.877 1040.48,140.977 1041.76,149.436 1043.03,169.381 1044.31,151.537 1045.58,147.256 1046.85,143.284 1048.13,155.741 1049.4,159.095 1050.68,162.114 1051.95,171.581 1053.23,147.631 1054.5,171.759 1055.77,177.326 1057.05,165.051 1058.32,170.72 1059.6,140.681 1060.87,166.66 1062.14,176.298 1063.42,155.783 1064.69,157.603 1065.97,159.716 1067.24,161.71 1068.52,178.183 1069.79,159.262 1071.06,162.986 1072.34,157.364 1073.61,162.274 1074.89,156.467 1076.16,142.718 1077.43,138.388 1078.71,159.864 1079.98,175.365 1081.26,148.445 1082.53,161.601 1083.81,364.261 1085.08,363.761 1086.35,347.621 1087.63,340.945 1088.9,329.161 1090.18,335.017 1091.45,358.784 1092.72,359.591 1094,320.602 1095.27,353.258 1096.55,185.673 1097.82,363.758 1099.1,362.774 1100.37,320.485 1101.64,346.205 1102.92,348.083 1104.19,359.862 1105.47,342.976 1106.74,341.053 1108.01,534.59 1109.29,350.328 1110.56,343.322 1111.84,361.197 1113.11,340.422 1114.39,358.244 1115.66,359.159 1116.93,336.561 1118.21,356.177 1119.48,371.898 1120.76,507.55 1122.03,539.773 1123.3,529.537 1124.58,535.543 1125.85,508.902 1127.13,524.203 1128.4,543.242 1129.68,537.551 1130.95,336.666 1132.22,349.881 1133.5,336.196 1134.77,331.479 1136.05,358.096 1137.32,341.675 1138.6,344.623 1139.87,352.479 1141.14,330.194 1142.42,362.496 1143.69,339.151 1144.97,333.728 1146.24,346.759 1147.51,334.621 1148.79,529.239 1150.06,519.455 1151.34,539.366 1152.61,529.59 1153.89,539.675 1155.16,532.902 1156.43,545.735 1157.71,328.626 1158.98,324.346 1160.26,358.899 1161.53,373.02 1162.8,327.035 1164.08,356.87 1165.35,356.703 1166.63,323.996 1167.9,317.25 1169.18,353.853 1170.45,336.518 1171.72,365.611 1173,356.81 1174.27,338.835 1175.55,169.207 1176.82,162.005 1178.09,157.158 1179.37,135.663 1180.64,140.539 1181.92,150.881 1183.19,157.021 1184.47,148.44 1185.74,168.382 1187.01,151.999 1188.29,170.706 1189.56,334.981 1190.84,351.624 1192.11,331.823 1193.38,161.088 1194.66,168.285 1195.93,338.49 1197.21,335.384 1198.48,154.186 1199.76,157.251 1201.03,164.671 1202.3,162.177 1203.58,154.55 1204.85,331.698 1206.13,538.15 1207.4,527.327 1208.67,521.274 1209.95,538.119 1211.22,533.839 1212.5,518.488 1213.77,530.552 1215.05,547.511 1216.32,337.715 1217.59,332.114 1218.87,341.913 1220.14,360.627 1221.42,350.94 1222.69,345.954 1223.96,346.933 1225.24,343.78 1226.51,358.069 1227.79,331.411 1229.06,342.572 1230.34,345.07 1231.61,353.24 1232.88,332.147 1234.16,360.173 1235.43,344.858 1236.71,355.619 1237.98,343.844 1239.25,348.91 1240.53,336.031 1241.8,350.753 1243.08,355.483 1244.35,342.581 1245.63,339.174 1246.9,360.293 1248.17,349.183 1249.45,351.896 1250.72,336.813 1252,141.095 1253.27,182.065 1254.54,135.15 1255.82,148.275 1257.09,160.042 1258.37,151.121 1259.64,133.812 1260.92,166.345 1262.19,145.126 1263.46,175.554 1264.74,143.674 1266.01,153.695 1267.29,338.581 1268.56,345.512 1269.83,341.384 1271.11,337.312 1272.38,348.44 1273.66,490.944 1274.93,500.79 1276.21,345.003 1277.48,338.141 1278.75,335.996 1280.03,359.039 1281.3,340.219 1282.58,350.968 1283.85,360.457 1285.12,359.038 1286.4,341.076 1287.67,357.786 1288.95,356.54 1290.22,345.494 1291.5,360.099 1292.77,355.668 1294.04,322.729 1295.32,358.516 1296.59,344.487 1297.87,347.07 1299.14,351.885 1300.41,349.548 1301.69,350.682 1302.96,336.931 1304.24,331.255 1305.51,184.295 1306.79,177.218 1308.06,165.327 1309.33,138.783 1310.61,172.941 1311.88,162.906 1313.16,161.44 1314.43,155.039 1315.7,362.428 1316.98,349.051 1318.25,343.72 1319.53,328.957 1320.8,353.59 1322.08,167.377 1323.35,154.719 1324.62,132.289 1325.9,162.896 1327.17,150.889 1328.45,147.165 1329.72,143.05 1331,168.553 1332.27,165.281 1333.54,181.199 1334.82,163.372 1336.09,164.559 1337.37,158.02 1338.64,142.993 1339.91,163.63 1341.19,149.918 1342.46,183.116 1343.74,133.634 1345.01,173.096 1346.29,154.136 1347.56,144.774 1348.83,149.525 1350.11,143.703 1351.38,167.5 1352.66,160.6 1353.93,134.716 1355.2,178.278 1356.48,325.069 1357.75,338.843 1359.03,354.245 1360.3,356.064 1361.58,370.664 1362.85,362.216 1364.12,320.812 1365.4,352.851 1366.67,332.548 1367.95,162.044 1369.22,166.234 1370.49,161.604 1371.77,342.474 1373.04,522.09 1374.32,547.022 1375.59,542.929 1376.87,514.332 1378.14,362.259 1379.41,147.672 1380.69,150.592 1381.96,148.632 1383.24,172.376 1384.51,144.415 1385.78,178.787 1387.06,150.329 1388.33,134.825 1389.61,184.936 1390.88,160.944 1392.16,150.694 1393.43,155.073 1394.7,149.53 1395.98,165.387 1397.25,152.471 1398.53,152.627 1399.8,157.065 1401.07,179.671 1402.35,161.26 1403.62,155.634 1404.9,166.234 1406.17,149.381 1407.45,153.724 1408.72,147.468 1409.99,168.184 1411.27,145.734 1412.54,143.855 1413.82,171.023 1415.09,153.081 1416.36,143.667 1417.64,158.2 1418.91,182.8 1420.19,161.152 1421.46,159.336 1422.74,139.416 1424.01,176.919 1425.28,142.158 1426.56,140.209 1427.83,150.813 1429.11,131.67 1430.38,150.22 1431.65,164.519 1432.93,182.148 1434.2,129.092 1435.48,179.635 1436.75,340.033 1438.03,325.504 1439.3,362.366 1440.57,340.021 1441.85,357.574 1443.12,334.824 1444.4,351.382 1445.67,326.435 1446.94,342.322 1448.22,337.896 1449.49,343.593 1450.77,342.495 1452.04,361.323 1453.32,355.172 1454.59,335.746 1455.86,326.825 1457.14,186.162 1458.41,172.672 1459.69,324.66 1460.96,333.953 1462.23,344.185 1463.51,362.744 1464.78,341.423 1466.06,351.853 1467.33,330.037 1468.61,342.775 1469.88,355.116 1471.15,340.884 1472.43,357.328 1473.7,329.535 1474.98,340.453 1476.25,364.545 1477.52,346.231 1478.8,352.217 1480.07,361.911 1481.35,370.174 1482.62,334.102 1483.9,341.092 1485.17,350.283 1486.44,342.095 1487.72,358.364 1488.99,343.464 1490.27,355.714 1491.54,362.377 1492.81,326.766 1494.09,333.555 1495.36,161.354 1496.64,140.269 1497.91,142.648 1499.19,157.964 1500.46,150.823 1501.73,149.9 1503.01,165.634 1504.28,154.45 1505.56,156.525 1506.83,175.549 1508.11,164.549 1509.38,173.649 1510.65,176.488 1511.93,142.734 1513.2,160.736 1514.48,164.59 1515.75,148.493 1517.02,138.179 1518.3,147.261 1519.57,145.817 1520.85,343.085 1522.12,334.962 1523.4,336.593 1524.67,174.064 1525.94,174.454 1527.22,173.54 1528.49,175.33 1529.77,153.314 1531.04,169.655 1532.31,153.578 1533.59,193.742 1534.86,153.062 1536.14,156.439 1537.41,153.946 1538.69,171.083 1539.96,143.978 1541.23,159.751 1542.51,179.177 1543.78,161.276 1545.06,167.868 1546.33,153.994 1547.6,176.091 1548.88,179.293 1550.15,152.06 1551.43,334.944 1552.7,147.675 1553.98,170.104 1555.25,174.441 1556.52,134.652 1557.8,158.862 1559.07,152.909 1560.35,151.26 1561.62,159.924 1562.89,164.282 1564.17,144.143 1565.44,166.265 1566.72,184.129 1567.99,156.714 1569.27,151.909 1570.54,163.353 1571.81,146.256 1573.09,167.114 1574.36,135.216 1575.64,137.914 1576.91,163.409 1578.18,160.522 1579.46,164.848 1580.73,164.709 1582.01,153.304 1583.28,172.518 1584.56,172.374 1585.83,146.722 1587.1,159.992 1588.38,155.016 1589.65,165.525 1590.93,150.674 1592.2,325.248 1593.47,350.565 1594.75,337.777 1596.02,345.044 1597.3,343.397 1598.57,330.673 1599.85,358.622 1601.12,343.786 1602.39,338.767 1603.67,332.877 1604.94,351.92 1606.22,319.217 1607.49,334.503 1608.76,366.529 1610.04,362.551 1611.31,347.563 1612.59,347.304 1613.86,360.438 1615.14,328.16 1616.41,362.989 1617.68,317.708 1618.96,376.348 1620.23,546.956 1621.51,539.82 1622.78,523.806 1624.05,525.35 1625.33,537.885 1626.6,523.807 1627.88,535.699 1629.15,549.401 1630.43,510.944 1631.7,529.006 1632.97,545.846 1634.25,540.396 1635.52,528.461 1636.8,514.175 1638.07,520.219 1639.34,518.985 1640.62,531.916 1641.89,530.41 1643.17,546.753 1644.44,371.204 1645.72,331.627 1646.99,336.579 1648.26,332.796 1649.54,337.345 1650.81,358.148 1652.09,356.424 1653.36,330.18 1654.63,334.423 1655.91,343.278 1657.18,337.09 1658.46,358.03 1659.73,331.851 1661.01,352.063 1662.28,523.532 1663.55,535.538 1664.83,519.404 1666.1,536.399 1667.38,521.33 1668.65,544.282 1669.92,542.2 1671.2,513.887 1672.47,540.279 1673.75,542.643 1675.02,535.333 1676.3,542.238 1677.57,520.908 1678.84,522.145 1680.12,521.008 1681.39,533.433 1682.67,345.277 1683.94,358.267 1685.22,515.436 1686.49,541.243 1687.76,520.481 1689.04,542.184 1690.31,525.147 1691.59,357.174 1692.86,361.829 1694.13,330.803 1695.41,354.088 1696.68,326.899 1697.96,350.858 1699.23,338.5 1700.51,325.565 1701.78,334.215 1703.05,357.605 1704.33,338.914 1705.6,346.069 1706.88,331.615 1708.15,328.578 1709.42,344.352 1710.7,344.711 1711.97,323.22 1713.25,176.629 1714.52,126.107 1715.8,148.352 1717.07,174.947 1718.34,154.998 1719.62,174.578 1720.89,140.698 1722.17,157.412 1723.44,146.016 1724.71,135.376 1725.99,152.66 1727.26,170.545 1728.54,354.525 1729.81,334.89 1731.09,345.724 1732.36,368.216 1733.63,351.999 1734.91,513.17 1736.18,542.287 1737.46,517.108 1738.73,535.649 1740,531.358 1741.28,545.624 1742.55,516.674 1743.83,537.033 1745.1,519.073 1746.38,498.626 1747.65,518.859 1748.92,507.024 1750.2,503.289 1751.47,313.425 1752.75,374.96 1754.02,547.527 1755.29,525.277 1756.57,515.085 1757.84,542.998 1759.12,507.576 1760.39,551.805 1761.67,365.802 1762.94,327.085 1764.21,329.144 1765.49,348.262 1766.76,335.526 1768.04,369.268 1769.31,342.681 1770.58,334.006 1771.86,338.705 1773.13,338.285 1774.41,357.045 1775.68,332.241 1776.96,359.234 1778.23,145.364 1779.5,163.051 1780.78,165.241 1782.05,177.464 1783.33,330.633 1784.6,360.535 1785.87,160.574 1787.15,174.54 1788.42,151.715 1789.7,136.113 1790.97,174.238 1792.25,164.408 1793.52,148.274 1794.79,165.684 1796.07,166.304 1797.34,150.362 1798.62,161.36 1799.89,153.173 1801.16,154.79 1802.44,169.126 1803.71,332.431 1804.99,360.55 1806.26,350.72 1807.54,348.34 1808.81,352.406 1810.08,333.978 1811.36,336.042 1812.63,148.888 1813.91,345.331 1815.18,337.591 1816.45,336.581 1817.73,361.932 1819,361.028 1820.28,339.438 1821.55,346.851 1822.83,351.975 1824.1,166.274 1825.37,158.163 1826.65,181.886 1827.92,145.55 1829.2,157.823 1830.47,152.147 1831.74,152.474 1833.02,131.588 1834.29,131.689 1835.57,169.32 1836.84,173.495 1838.12,157.753 1839.39,166.217 1840.66,163.588 1841.94,149.456 1843.21,164.283 1844.49,162.95 1845.76,165.797 1847.03,152.348 1848.31,149.427 1849.58,146.233 1850.86,139.269 1852.13,174.487 1853.41,150.537 1854.68,164.524 1855.95,176.218 1857.23,316.601 1858.5,348.315 1859.78,332.027 1861.05,327.039 1862.32,330.064 1863.6,322.653 1864.87,328.938 1866.15,179.206 1867.42,147.086 1868.7,171.107 1869.97,156.875 1871.24,155.356 1872.52,183.378 1873.79,174.214 1875.07,167.477 1876.34,155.77 1877.62,160.531 1878.89,153.574 1880.16,164.23 1881.44,344.269 1882.71,334.391 1883.99,361.311 1885.26,345.246 1886.53,340.418 1887.81,346.193 1889.08,348.59 1890.36,346.503 1891.63,320.539 1892.91,333.737 1894.18,355.508 1895.45,335.297 1896.73,144.481 1898,150.928 1899.28,149.254 1900.55,330.757 1901.82,345.191 1903.1,351.794 1904.37,548.967 1905.65,538.85 1906.92,514.218 1908.2,530.038 1909.47,521.667 1910.74,525.53 1912.02,515.895 1913.29,516.664 1914.57,536.389 1915.84,541.727 1917.11,515.932 1918.39,518.12 1919.66,529.39 1920.94,521.571 1922.21,516.156 1923.49,338.145 1924.76,346.951 1926.03,331.358 1927.31,342.965 1928.58,340.383 1929.86,363.84 1931.13,348.873 1932.4,523.805 1933.68,533.455 1934.95,539.608 1936.23,528.893 1937.5,543.474 1938.78,544.356 1940.05,342.396 1941.32,342.48 1942.6,350.208 1943.87,157.684 1945.15,173.947 1946.42,171.22 1947.69,145.833 1948.97,159.406 1950.24,139.944 1951.52,152.839 1952.79,157.982 1954.07,176.024 1955.34,136.406 1956.61,143.227 1957.89,168.307 1959.16,164.402 1960.44,140.944 1961.71,179.587 1962.98,160.647 1964.26,163.892 1965.53,158.217 1966.81,157.075 1968.08,165.797 1969.36,167.646 1970.63,339.924 1971.9,340.999 1973.18,344.17 1974.45,331.226 1975.73,345.226 1977,331.124 1978.27,333.246 1979.55,357.627 1980.82,359.392 1982.1,367.941 1983.37,337.592 1984.65,349.223 1985.92,337.222 1987.19,346.376 1988.47,330.433 1989.74,356.353 1991.02,361.305 1992.29,331.979 1993.56,154.404 1994.84,136.612 1996.11,163.615 1997.39,156.464 1998.66,163.036 1999.94,167.726 2001.21,172.269 2002.48,149.608 2003.76,160.513 2005.03,164.312 2006.31,157.337 2007.58,150.287 2008.85,145.806 2010.13,167.719 2011.4,148.602 2012.68,140.775 2013.95,163.529 2015.23,162.697 2016.5,165.119 2017.77,163.933 2019.05,166.785 2020.32,151.694 2021.6,157.095 2022.87,148.262 2024.14,184.948 2025.42,130.573 2026.69,138.265 2027.97,158.02 2029.24,157.632 2030.52,129.397 2031.79,158.136 2033.06,159.225 2034.34,163.792 2035.61,151.506 2036.89,149.625 2038.16,173.175 2039.43,154.848 2040.71,165.758 2041.98,153.769 2043.26,351 2044.53,353.303 2045.81,354.067 2047.08,346.655 2048.35,155.781 2049.63,161.985 2050.9,162.923 2052.18,163.734 2053.45,160.715 2054.73,154.547 2056,159.334 2057.27,146.248 2058.55,149.283 2059.82,155.372 2061.1,160.072 2062.37,164.582 2063.64,151.336 2064.92,166.911 2066.19,171.265 2067.47,346.568 2068.74,351.701 2070.02,349.526 2071.29,352.118 2072.56,335.551 2073.84,370.383 2075.11,320.091 2076.39,377.057 2077.66,338.326 2078.93,341.663 2080.21,343.368 2081.48,173.088 2082.76,348.072 2084.03,346.568 2085.31,361.532 2086.58,333.951 2087.85,332.625 2089.13,351.007 2090.4,329.724 2091.68,345.929 2092.95,335.783 2094.22,352.683 2095.5,365.528 2096.77,377.783 2098.05,367.753 2099.32,347.016 2100.6,332.969 2101.87,347.524 2103.14,332.234 2104.42,153.856 2105.69,162.063 2106.97,154.191 2108.24,160.054 2109.51,142.953 2110.79,136.607 2112.06,171.483 2113.34,119 2114.61,140.678 2115.89,174.74 2117.16,151.75 2118.43,166.427 2119.71,166.092 2120.98,168.72 2122.26,122.349 2123.53,170.616 2124.8,340.006 2126.08,349.837 2127.35,343.319 2128.63,352.827 2129.9,336.395 2131.18,351.789 2132.45,349.313 2133.72,339.286 2135,336.003 2136.27,338.568 2137.55,328.185 2138.82,165.929 2140.09,166.588 2141.37,166.28 2142.64,136.508 2143.92,185.124 2145.19,324.859 2146.47,333.625 2147.74,343.945 2149.01,356.847 2150.29,345.682 2151.56,354.12 2152.84,336.469 2154.11,349.7 2155.38,349.297 2156.66,339.404 2157.93,342.71 2159.21,324.928 2160.48,366.267 2161.76,319.546 2163.03,336.792 2164.3,331.149 2165.58,138.881 2166.85,170.211 2168.13,173.883 2169.4,173.333 2170.67,173.773 2171.95,144.461 2173.22,137.64 2174.5,171.374 2175.77,164.389 2177.05,152.907 2178.32,139.464 2179.59,134.917 2180.87,171.917 2182.14,160.627 2183.42,176.099 2184.69,138.373 2185.96,159.423 2187.24,162.343 2188.51,155.79 2189.79,149.953 2191.06,147.027 2192.34,156.951 2193.61,149.384 2194.88,152.09 2196.16,155.598 2197.43,166.216 2198.71,329.437 2199.98,368.377 2201.25,331.271 2202.53,348.746 2203.8,336.487 2205.08,347.013 2206.35,346.07 2207.63,342.47 2208.9,336.88 2210.17,341.493 2211.45,351.904 2212.72,344.52 2214,329.176 2215.27,342.092 2216.54,350.63 2217.82,350.526 2219.09,358.387 2220.37,326.223 2221.64,338.383 2222.92,358.778 2224.19,356.49 2225.46,339.969 2226.74,344.501 2228.01,328.311 2229.29,325.774 2230.56,175.681 2231.84,163.691 2233.11,169.381 2234.38,171.142 2235.66,153.075 2236.93,157.991 2238.21,162.334 2239.48,151.07 2240.75,154.899 2242.03,152.217 2243.3,168.489 2244.58,162.268 2245.85,162.995 2247.13,172.949 2248.4,166.544 2249.67,154.82 2250.95,158.25 2252.22,140.86 2253.5,153.599 2254.77,161.731 2256.04,365.15 2257.32,349.786 2258.59,330.618 2259.87,342.746 2261.14,322.658 2262.42,181.276 2263.69,185.801 2264.96,173.234 2266.24,149.299 2267.51,168.289 2268.79,170.921 2270.06,175.456 2271.33,171.467 2272.61,168.513 2273.88,145.942 2275.16,148.218 2276.43,151.521 2277.71,351.503 2278.98,348.827 2280.25,350.824 2281.53,348.751 2282.8,341.724 2284.08,373.369 2285.35,536.89 2286.62,526.06 2287.9,535.981 2289.17,539.097 2290.45,349.301 2291.72,346.077 2293,359.558 2294.27,336.757 2295.54,511.003 2296.82,515.14 2298.09,526.152 2299.37,521.991 2300.64,526.624 2301.91,521.116 2303.19,520.933 2304.46,324.42 2305.74,324.41 2307.01,155.095 2308.29,153.12 2309.56,161.705 2310.83,350.26 2312.11,360.565 2313.38,332.684 2314.66,343.412 2315.93,355.633 2317.2,338.429 2318.48,323.903 2319.75,330.437 2321.03,322.831 2322.3,339.996 2323.58,349.096 2324.85,341.429 2326.12,338.068 2327.4,339.435 2328.67,348.49 2329.95,366.149 2331.22,525.793 2332.49,518.639 2333.77,550.57 2335.04,520.165 2336.32,519.781 2337.59,514.218 2338.87,548.077 2340.14,546.991 2341.41,519.729 2342.69,532.979 2343.96,520.405 2345.24,525.241 2346.51,522.669 2347.78,525.742 2349.06,545.077 2350.33,534.873 2351.61,524.2 2352.88,510.379 2354.16,555.166 2355.43,526.638 2356.7,516.221 2357.98,535.788 2359.25,533.7 2360.53,539.902 2361.8,366.502 2363.07,327.873 2364.35,342.93 2365.62,358.583 2366.9,350.493 2368.17,338.474 2369.45,337.852 2370.72,322.001 2371.99,332.33 2373.27,339.307 2374.54,338.805 2375.82,349.546 2377.09,333.718 2378.36,339.981 2379.64,354.66 2380.91,342.591 2382.19,339.855 2383.46,175.414 2384.74,152.744 2386.01,348.762 2387.28,325.787 2388.56,362.705 2389.83,356.234 2391.11,532.208 2392.38,521.96 2393.65,512.652 2394.93,534.892 2396.2,531.48 2397.48,504.523 2398.75,360.55 2400.03,371.254 2401.3,519.324 2402.57,518.188 2403.85,517.54 2405.12,536.4 2406.4,541.205 2407.67,351.278 2408.94,334.404 2410.22,167.714 2411.49,138.502 2412.77,336.141 2414.04,343.407 2415.32,355.396 2416.59,361.845 2417.86,352.845 2419.14,362.011 2420.41,342.527 2421.69,343.2 2422.96,340.024 2424.24,337.311 2425.51,153.084 2426.78,146.339 2428.06,145.317 2429.33,181.082 2430.61,149.269 2431.88,336.293 2433.15,346.199 2434.43,359.45 2435.7,514.789 2436.98,534.974 2438.25,354.907 2439.53,354.134 2440.8,534.975 2442.07,525.598 2443.35,343.035 2444.62,335.622 2445.9,542.179 2447.17,526.965 2448.44,533.599 2449.72,522.517 2450.99,542.405 2452.27,550.634 2453.54,521.125 2454.82,510.358 2456.09,345.91 2457.36,338.053 2458.64,343.833 2459.91,341.856 2461.19,139.614 2462.46,150.298 2463.73,155.854 2465.01,156.38 2466.28,347.147 2467.56,346.084 2468.83,325.84 2470.11,173.88 2471.38,139 2472.65,147.29 2473.93,148.628 2475.2,133.448 2476.48,171.743 2477.75,157.431 2479.02,153.023 2480.3,159.33 2481.57,155.124 2482.85,158.445 2484.12,147.921 2485.4,169.056 2486.67,142.328 2487.94,173.226 2489.22,183.456 2490.49,147.833 2491.77,165.907 2493.04,177.791 2494.31,162.177 2495.59,171.172 2496.86,169.681 2498.14,157.754 2499.41,164.191 2500.69,170.453 2501.96,340.791 2503.23,346.304 2504.51,330.691 2505.78,355.441 2507.06,322.985 2508.33,339.684 2509.6,351.445 2510.88,335.536 2512.15,339.824 2513.43,343.975 2514.7,351.097 2515.98,351.779 2517.25,348.692 2518.52,336.346 2519.8,338.369 2521.07,332.65 2522.35,339.244 2523.62,340.005 2524.89,346.07 2526.17,336.526 2527.44,350.142 2528.72,344.289 2529.99,349.33 2531.27,145.538 2532.54,166.264 2533.81,339.469 2535.09,338.404 2536.36,342.354 2537.64,154.286 2538.91,169.285 2540.18,155.732 2541.46,161.522 2542.73,167.31 2544.01,151.144 2545.28,167.404 2546.56,157.208 2547.83,156.212 2549.1,348.734 2550.38,325.699 2551.65,362.62 2552.93,327.844 2554.2,338.209 2555.47,355.695 2556.75,165.33 2558.02,171.272 2559.3,161.684 2560.57,138.079 2561.85,180.577 2563.12,132.327 2564.39,146.41 2565.67,151.894 2566.94,161.548 2568.22,155.422 2569.49,154.208 2570.76,155.318 2572.04,165.153 2573.31,160.662 2574.59,133.922 2575.86,174.084 2577.14,159.401 2578.41,162.578 2579.68,159.176 2580.96,143.979 2582.23,132.614 2583.51,143.033 2584.78,173.593 2586.05,151.663 2587.33,160.063 2588.6,159.325 2589.88,163.376 2591.15,344.773 2592.43,344.834 2593.7,335.182 2594.97,338.977 2596.25,343.567 2597.52,354.964 2598.8,350.37 2600.07,353.587 2601.35,331.661 2602.62,167.682 2603.89,165.999 2605.17,148.001 2606.44,132.587 2607.72,163.428 2608.99,154.683 2610.26,192.773 2611.54,131.143 2612.81,159.019 2614.09,173.357 2615.36,155.675 2616.64,324.647 2617.91,337.993 2619.18,352.79 2620.46,349.565 2621.73,339.271 2623.01,341.675 2624.28,333.652 2625.55,351.334 2626.83,333.382 2628.1,347.395 2629.38,356.155 2630.65,343.06 2631.93,348.063 2633.2,335.315 2634.47,348.383 2635.75,345.631 2637.02,335.516 2638.3,359.436 2639.57,329.716 2640.84,368.409 2642.12,324.176 2643.39,337.493 2644.67,150.079 2645.94,166.471 2647.22,181.392 2648.49,171.911 2649.76,342.045 2651.04,164.569 2652.31,157.963 2653.59,162.699 2654.86,141.328 2656.13,149.182 2657.41,146.596 2658.68,153.871 2659.96,158.068 2661.23,174.003 2662.51,138.32 2663.78,152.519 2665.05,154.054 2666.33,331.8 2667.6,342.037 2668.88,332.814 2670.15,345.894 2671.42,350.996 2672.7,354.202 2673.97,327.71 2675.25,165.213 2676.52,173.96 2677.8,169.969 2679.07,133.687 2680.34,146.04 2681.62,136.612 2682.89,192.815 2684.17,182.403 2685.44,168.713 2686.71,144.093 2687.99,147.993 2689.26,161.389 2690.54,149.606 2691.81,151.197 2693.09,166.295 2694.36,178.198 2695.63,154.687 2696.91,161.707 2698.18,165.999 2699.46,145.705 2700.73,173.343 2702,152.673 2703.28,163.774 2704.55,165.888 2705.83,142.716 2707.1,166.797 2708.38,156.764 2709.65,166.947 2710.92,154.81 2712.2,163.893 2713.47,146.991 2714.75,175.805 2716.02,140.005 2717.29,166.88 2718.57,170.717 2719.84,185.281 2721.12,145.118 2722.39,156.258 2723.67,159.31 2724.94,165.98 2726.21,151.302 2727.49,149.754 2728.76,148.037 2730.04,187.97 2731.31,134.156 2732.58,162.883 2733.86,169.882 2735.13,164.032 2736.41,152.488 2737.68,163.724 2738.96,159.427 2740.23,148.49 2741.5,158.161 2742.78,152.097 2744.05,151.42 2745.33,155.637 2746.6,163.147 2747.87,163.041 2749.15,167.473 2750.42,338.399 2751.7,330.555 2752.97,347.179 2754.25,347.642 2755.52,347.454 2756.79,338.4 2758.07,339.679 2759.34,343.513 2760.62,347.209 2761.89,343.515 2763.16,341.577 2764.44,348.463 2765.71,347.15 2766.99,336.541 2768.26,328.754 2769.54,359.378 2770.81,346.664 2772.08,337.203 2773.36,362.005 2774.63,142.406 2775.91,164.734 2777.18,151.954 2778.45,160.95 2779.73,339.177 2781,340.311 2782.28,353.867 2783.55,356.432 2784.83,336.739 2786.1,344.643 2787.37,341.05 2788.65,345.702 2789.92,338.088 2791.2,347.28 2792.47,361.102 2793.75,345.085 2795.02,159.332 2796.29,168.239 2797.57,166.999 2798.84,337.666 2800.12,346.113 2801.39,353.126 2802.66,321.608 2803.94,326.492 2805.21,356.313 2806.49,341.793 2807.76,176.365 2809.04,158.233 2810.31,164.84 2811.58,159.13 2812.86,157.88 2814.13,152.724 2815.41,176.76 2816.68,337.313 2817.95,361.296 2819.23,344.125 2820.5,164.03 2821.78,157.046 2823.05,174.021 2824.33,363.427 2825.6,522.746 2826.87,529.271 2828.15,530.269 2829.42,524.739 2830.7,533.652 2831.97,528.767 2833.24,525.624 2834.52,519.674 2835.79,515.151 2837.07,542.943 2838.34,532.918 2839.62,509.475 2840.89,346.017 2842.16,363.263 2843.44,322.917 2844.71,334.344 2845.99,344.697 2847.26,337.853 2848.53,340.751 2849.81,347.821 2851.08,340.46 2852.36,348.013 2853.63,356.76 2854.91,338.29 2856.18,339.625 2857.45,345.874 2858.73,324.348 2860,339.267 2861.28,343.207 2862.55,510.669 2863.82,517.212 2865.1,526.25 2866.37,501.363 2867.65,350.057 2868.92,169.396 2870.2,169.465 2871.47,347.349 2872.74,324.766 2874.02,346.516 2875.29,348.657 2876.57,339.832 2877.84,332.249 2879.11,135.484 2880.39,321.619 2881.66,144.649 2882.94,154.237 2884.21,177.949 2885.49,152.802 2886.76,164.021 2888.03,162.925 2889.31,177.085 2890.58,168.882 2891.86,147.729 2893.13,163.13 2894.4,165.579 2895.68,168.723 2896.95,142.431 2898.23,339.245 2899.5,179.866 2900.78,174.343 2902.05,166.477 2903.32,163.469 2904.6,133.758 2905.87,174.964 2907.15,146.566 2908.42,174.312 2909.69,166.191 2910.97,156.817 2912.24,162.986 2913.52,155.166 2914.79,146.361 2916.07,160.854 2917.34,145.428 2918.61,168.796 2919.89,166.11 2921.16,173.965 2922.44,166.384 2923.71,144.243 2924.98,140.824 2926.26,173.306 2927.53,164.322 2928.81,154.232 2930.08,171.68 2931.36,156.295 2932.63,140.996 2933.9,162.923 2935.18,166.179 2936.45,165.461 2937.73,150.241 2939,146.017 2940.27,169.05 2941.55,166.358 2942.82,157.954 2944.1,169.393 2945.37,151.38 2946.65,152.709 2947.92,163.295 2949.19,147.473 2950.47,154.088 2951.74,188.893 2953.02,163.606 2954.29,149.061 2955.56,177.082 2956.84,142.057 2958.11,170.043 2959.39,369.839 2960.66,343.64 2961.94,348.5 2963.21,332.762 2964.48,324.94 2965.76,314.833 2967.03,344.503 2968.31,348.754 2969.58,341.906 2970.86,184.808 2972.13,133.258 2973.4,135.923 2974.68,147.217 2975.95,151.276 2977.23,164.605 2978.5,180.342 2979.77,157.755 2981.05,172.783 2982.32,177.416 2983.6,172.841 2984.87,162.606 2986.15,150.881 2987.42,152.858 2988.69,161.394 2989.97,163.467 2991.24,155.19 2992.52,170.175 2993.79,128.531 2995.06,172.837 2996.34,172.418 2997.61,172.022 2998.89,153.26 3000.16,164.123 3001.44,146.457 3002.71,171.938 3003.98,156.443 3005.26,174.651 3006.53,157.581 3007.81,171.47 3009.08,166.181 3010.35,169.374 3011.63,180.422 3012.9,155.109 3014.18,180.368 3015.45,166.726 3016.73,152.442 3018,329.618 3019.27,361.199 3020.55,345.629 3021.82,335.658 3023.1,345.403 3024.37,346.035 3025.64,359.465 3026.92,329.772 3028.19,145.082 3029.47,132.286 3030.74,118.5 3032.02,162.721 3033.29,166.134 3034.56,169.43 3035.84,144.093 3037.11,176.14 3038.39,350.74 3039.66,537.924 3040.93,520.285 3042.21,361.523 3043.48,359.448 3044.76,343.601 3046.03,345.883 3047.31,341.412 3048.58,349.058 3049.85,349.108 3051.13,342.203 3052.4,331.137 3053.68,333.968 3054.95,159.507 3056.22,343.133 3057.5,330.134 3058.77,326.613 3060.05,172.62 3061.32,134.877 3062.6,155.204 3063.87,157.843 3065.14,190.45 3066.42,182.445 3067.69,157.485 3068.97,137.012 "/>
<path clip-path="url(#clip820)" d="M2662.94 693.754 L3054.07 693.754 L3054.07 590.074 L2662.94 590.074  Z" fill="#ffffff" fill-rule="evenodd" fill-opacity="1"/>
<polyline clip-path="url(#clip820)" style="stroke:#000000; stroke-linecap:round; stroke-linejoin:round; stroke-width:4; stroke-opacity:1; fill:none" points="2662.94,693.754 3054.07,693.754 3054.07,590.074 2662.94,590.074 2662.94,693.754 "/>
<polyline clip-path="url(#clip820)" style="stroke:#009af9; stroke-linecap:round; stroke-linejoin:round; stroke-width:2; stroke-opacity:1; fill:none" points="2695.84,641.914 2893.21,641.914 "/>
<path clip-path="url(#clip820)" d="M2942.5 642.991 Q2944 643.5 2945.41 645.167 Q2946.85 646.833 2948.28 649.75 L2953.03 659.194 L2948 659.194 L2943.58 650.329 Q2941.87 646.857 2940.25 645.722 Q2938.65 644.588 2935.87 644.588 L2930.78 644.588 L2930.78 659.194 L2926.11 659.194 L2926.11 624.634 L2936.66 624.634 Q2942.59 624.634 2945.5 627.111 Q2948.42 629.588 2948.42 634.588 Q2948.42 637.852 2946.89 640.005 Q2945.39 642.157 2942.5 642.991 M2930.78 628.477 L2930.78 640.745 L2936.66 640.745 Q2940.04 640.745 2941.75 639.195 Q2943.49 637.62 2943.49 634.588 Q2943.49 631.556 2941.75 630.028 Q2940.04 628.477 2936.66 628.477 L2930.78 628.477 Z" fill="#000000" fill-rule="evenodd" fill-opacity="1" /><path clip-path="url(#clip820)" d="M2968.68 629.241 L2962.33 646.44 L2975.04 646.44 L2968.68 629.241 M2966.04 624.634 L2971.34 624.634 L2984.51 659.194 L2979.65 659.194 L2976.5 650.329 L2960.92 650.329 L2957.77 659.194 L2952.84 659.194 L2966.04 624.634 Z" fill="#000000" fill-rule="evenodd" fill-opacity="1" /><path clip-path="url(#clip820)" d="M2989.56 624.634 L2996.52 624.634 L3005.34 648.153 L3014.21 624.634 L3021.18 624.634 L3021.18 659.194 L3016.62 659.194 L3016.62 628.847 L3007.7 652.551 L3003 652.551 L2994.09 628.847 L2994.09 659.194 L2989.56 659.194 L2989.56 624.634 Z" fill="#000000" fill-rule="evenodd" fill-opacity="1" /></svg>
