<?xml version="1.0" encoding="utf-8"?>
<svg xmlns="http://www.w3.org/2000/svg" xmlns:xlink="http://www.w3.org/1999/xlink" width="800" height="200" viewBox="0 0 3200 800">
<defs>
  <clipPath id="clip120">
    <rect x="0" y="0" width="3200" height="800"/>
  </clipPath>
</defs>
<path clip-path="url(#clip120)" d="M0 800 L3200 800 L3200 0 L0 0  Z" fill="#ffffff" fill-rule="evenodd" fill-opacity="1"/>
<defs>
  <clipPath id="clip121">
    <rect x="640" y="0" width="2241" height="800"/>
  </clipPath>
</defs>
<path clip-path="url(#clip120)" d="M192.191 716.048 L3152.76 716.048 L3152.76 47.2441 L192.191 47.2441  Z" fill="#ffffff" fill-rule="evenodd" fill-opacity="1"/>
<defs>
  <clipPath id="clip122">
    <rect x="192" y="47" width="2962" height="670"/>
  </clipPath>
</defs>
<polyline clip-path="url(#clip122)" style="stroke:#000000; stroke-linecap:round; stroke-linejoin:round; stroke-width:2; stroke-opacity:0.1; fill:none" points="275.29,716.048 275.29,47.2441 "/>
<polyline clip-path="url(#clip122)" style="stroke:#000000; stroke-linecap:round; stroke-linejoin:round; stroke-width:2; stroke-opacity:0.1; fill:none" points="965.087,716.048 965.087,47.2441 "/>
<polyline clip-path="url(#clip122)" style="stroke:#000000; stroke-linecap:round; stroke-linejoin:round; stroke-width:2; stroke-opacity:0.1; fill:none" points="1654.88,716.048 1654.88,47.2441 "/>
<polyline clip-path="url(#clip122)" style="stroke:#000000; stroke-linecap:round; stroke-linejoin:round; stroke-width:2; stroke-opacity:0.1; fill:none" points="2344.68,716.048 2344.68,47.2441 "/>
<polyline clip-path="url(#clip122)" style="stroke:#000000; stroke-linecap:round; stroke-linejoin:round; stroke-width:2; stroke-opacity:0.1; fill:none" points="3034.48,716.048 3034.48,47.2441 "/>
<polyline clip-path="url(#clip120)" style="stroke:#000000; stroke-linecap:round; stroke-linejoin:round; stroke-width:4; stroke-opacity:1; fill:none" points="192.191,716.048 3152.76,716.048 "/>
<polyline clip-path="url(#clip120)" style="stroke:#000000; stroke-linecap:round; stroke-linejoin:round; stroke-width:4; stroke-opacity:1; fill:none" points="275.29,716.048 275.29,697.15 "/>
<polyline clip-path="url(#clip120)" style="stroke:#000000; stroke-linecap:round; stroke-linejoin:round; stroke-width:4; stroke-opacity:1; fill:none" points="965.087,716.048 965.087,697.15 "/>
<polyline clip-path="url(#clip120)" style="stroke:#000000; stroke-linecap:round; stroke-linejoin:round; stroke-width:4; stroke-opacity:1; fill:none" points="1654.88,716.048 1654.88,697.15 "/>
<polyline clip-path="url(#clip120)" style="stroke:#000000; stroke-linecap:round; stroke-linejoin:round; stroke-width:4; stroke-opacity:1; fill:none" points="2344.68,716.048 2344.68,697.15 "/>
<polyline clip-path="url(#clip120)" style="stroke:#000000; stroke-linecap:round; stroke-linejoin:round; stroke-width:4; stroke-opacity:1; fill:none" points="3034.48,716.048 3034.48,697.15 "/>
<path clip-path="url(#clip120)" d="M275.29 753.367 Q271.679 753.367 269.851 756.931 Q268.045 760.473 268.045 767.603 Q268.045 774.709 269.851 778.274 Q271.679 781.815 275.29 781.815 Q278.925 781.815 280.73 778.274 Q282.559 774.709 282.559 767.603 Q282.559 760.473 280.73 756.931 Q278.925 753.367 275.29 753.367 M275.29 749.663 Q281.101 749.663 284.156 754.269 Q287.235 758.853 287.235 767.603 Q287.235 776.329 284.156 780.936 Q281.101 785.519 275.29 785.519 Q269.48 785.519 266.402 780.936 Q263.346 776.329 263.346 767.603 Q263.346 758.853 266.402 754.269 Q269.48 749.663 275.29 749.663 Z" fill="#000000" fill-rule="evenodd" fill-opacity="1" /><path clip-path="url(#clip120)" d="M909.613 780.913 L917.252 780.913 L917.252 754.547 L908.941 756.214 L908.941 751.955 L917.205 750.288 L921.881 750.288 L921.881 780.913 L929.52 780.913 L929.52 784.848 L909.613 784.848 L909.613 780.913 Z" fill="#000000" fill-rule="evenodd" fill-opacity="1" /><path clip-path="url(#clip120)" d="M948.964 753.367 Q945.353 753.367 943.525 756.931 Q941.719 760.473 941.719 767.603 Q941.719 774.709 943.525 778.274 Q945.353 781.815 948.964 781.815 Q952.599 781.815 954.404 778.274 Q956.233 774.709 956.233 767.603 Q956.233 760.473 954.404 756.931 Q952.599 753.367 948.964 753.367 M948.964 749.663 Q954.775 749.663 957.83 754.269 Q960.909 758.853 960.909 767.603 Q960.909 776.329 957.83 780.936 Q954.775 785.519 948.964 785.519 Q943.154 785.519 940.076 780.936 Q937.02 776.329 937.02 767.603 Q937.02 758.853 940.076 754.269 Q943.154 749.663 948.964 749.663 Z" fill="#000000" fill-rule="evenodd" fill-opacity="1" /><path clip-path="url(#clip120)" d="M979.126 753.367 Q975.515 753.367 973.686 756.931 Q971.881 760.473 971.881 767.603 Q971.881 774.709 973.686 778.274 Q975.515 781.815 979.126 781.815 Q982.76 781.815 984.566 778.274 Q986.395 774.709 986.395 767.603 Q986.395 760.473 984.566 756.931 Q982.76 753.367 979.126 753.367 M979.126 749.663 Q984.936 749.663 987.992 754.269 Q991.071 758.853 991.071 767.603 Q991.071 776.329 987.992 780.936 Q984.936 785.519 979.126 785.519 Q973.316 785.519 970.237 780.936 Q967.182 776.329 967.182 767.603 Q967.182 758.853 970.237 754.269 Q973.316 749.663 979.126 749.663 Z" fill="#000000" fill-rule="evenodd" fill-opacity="1" /><path clip-path="url(#clip120)" d="M1009.29 753.367 Q1005.68 753.367 1003.85 756.931 Q1002.04 760.473 1002.04 767.603 Q1002.04 774.709 1003.85 778.274 Q1005.68 781.815 1009.29 781.815 Q1012.92 781.815 1014.73 778.274 Q1016.56 774.709 1016.56 767.603 Q1016.56 760.473 1014.73 756.931 Q1012.92 753.367 1009.29 753.367 M1009.29 749.663 Q1015.1 749.663 1018.15 754.269 Q1021.23 758.853 1021.23 767.603 Q1021.23 776.329 1018.15 780.936 Q1015.1 785.519 1009.29 785.519 Q1003.48 785.519 1000.4 780.936 Q997.344 776.329 997.344 767.603 Q997.344 758.853 1000.4 754.269 Q1003.48 749.663 1009.29 749.663 Z" fill="#000000" fill-rule="evenodd" fill-opacity="1" /><path clip-path="url(#clip120)" d="M1603.49 780.913 L1619.81 780.913 L1619.81 784.848 L1597.87 784.848 L1597.87 780.913 Q1600.53 778.158 1605.12 773.528 Q1609.72 768.876 1610.9 767.533 Q1613.15 765.01 1614.03 763.274 Q1614.93 761.515 1614.93 759.825 Q1614.93 757.07 1612.99 755.334 Q1611.06 753.598 1607.96 753.598 Q1605.76 753.598 1603.31 754.362 Q1600.88 755.126 1598.1 756.677 L1598.1 751.955 Q1600.93 750.82 1603.38 750.242 Q1605.83 749.663 1607.87 749.663 Q1613.24 749.663 1616.43 752.348 Q1619.63 755.033 1619.63 759.524 Q1619.63 761.654 1618.82 763.575 Q1618.03 765.473 1615.93 768.066 Q1615.35 768.737 1612.24 771.954 Q1609.14 775.149 1603.49 780.913 Z" fill="#000000" fill-rule="evenodd" fill-opacity="1" /><path clip-path="url(#clip120)" d="M1639.63 753.367 Q1636.02 753.367 1634.19 756.931 Q1632.38 760.473 1632.38 767.603 Q1632.38 774.709 1634.19 778.274 Q1636.02 781.815 1639.63 781.815 Q1643.26 781.815 1645.07 778.274 Q1646.9 774.709 1646.9 767.603 Q1646.9 760.473 1645.07 756.931 Q1643.26 753.367 1639.63 753.367 M1639.63 749.663 Q1645.44 749.663 1648.49 754.269 Q1651.57 758.853 1651.57 767.603 Q1651.57 776.329 1648.49 780.936 Q1645.44 785.519 1639.63 785.519 Q1633.82 785.519 1630.74 780.936 Q1627.68 776.329 1627.68 767.603 Q1627.68 758.853 1630.74 754.269 Q1633.82 749.663 1639.63 749.663 Z" fill="#000000" fill-rule="evenodd" fill-opacity="1" /><path clip-path="url(#clip120)" d="M1669.79 753.367 Q1666.18 753.367 1664.35 756.931 Q1662.55 760.473 1662.55 767.603 Q1662.55 774.709 1664.35 778.274 Q1666.18 781.815 1669.79 781.815 Q1673.43 781.815 1675.23 778.274 Q1677.06 774.709 1677.06 767.603 Q1677.06 760.473 1675.23 756.931 Q1673.43 753.367 1669.79 753.367 M1669.79 749.663 Q1675.6 749.663 1678.66 754.269 Q1681.74 758.853 1681.74 767.603 Q1681.74 776.329 1678.66 780.936 Q1675.6 785.519 1669.79 785.519 Q1663.98 785.519 1660.9 780.936 Q1657.85 776.329 1657.85 767.603 Q1657.85 758.853 1660.9 754.269 Q1663.98 749.663 1669.79 749.663 Z" fill="#000000" fill-rule="evenodd" fill-opacity="1" /><path clip-path="url(#clip120)" d="M1699.95 753.367 Q1696.34 753.367 1694.51 756.931 Q1692.71 760.473 1692.71 767.603 Q1692.71 774.709 1694.51 778.274 Q1696.34 781.815 1699.95 781.815 Q1703.59 781.815 1705.39 778.274 Q1707.22 774.709 1707.22 767.603 Q1707.22 760.473 1705.39 756.931 Q1703.59 753.367 1699.95 753.367 M1699.95 749.663 Q1705.76 749.663 1708.82 754.269 Q1711.9 758.853 1711.9 767.603 Q1711.9 776.329 1708.82 780.936 Q1705.76 785.519 1699.95 785.519 Q1694.14 785.519 1691.06 780.936 Q1688.01 776.329 1688.01 767.603 Q1688.01 758.853 1691.06 754.269 Q1694.14 749.663 1699.95 749.663 Z" fill="#000000" fill-rule="evenodd" fill-opacity="1" /><path clip-path="url(#clip120)" d="M2303.36 766.214 Q2306.72 766.931 2308.59 769.2 Q2310.49 771.468 2310.49 774.802 Q2310.49 779.917 2306.97 782.718 Q2303.45 785.519 2296.97 785.519 Q2294.8 785.519 2292.48 785.079 Q2290.19 784.663 2287.74 783.806 L2287.74 779.292 Q2289.68 780.427 2292 781.005 Q2294.31 781.584 2296.83 781.584 Q2301.23 781.584 2303.52 779.848 Q2305.84 778.112 2305.84 774.802 Q2305.84 771.746 2303.68 770.033 Q2301.56 768.297 2297.74 768.297 L2293.71 768.297 L2293.71 764.454 L2297.92 764.454 Q2301.37 764.454 2303.2 763.089 Q2305.03 761.7 2305.03 759.107 Q2305.03 756.445 2303.13 755.033 Q2301.25 753.598 2297.74 753.598 Q2295.81 753.598 2293.62 754.015 Q2291.42 754.431 2288.78 755.311 L2288.78 751.144 Q2291.44 750.404 2293.75 750.033 Q2296.09 749.663 2298.15 749.663 Q2303.48 749.663 2306.58 752.093 Q2309.68 754.501 2309.68 758.621 Q2309.68 761.492 2308.04 763.482 Q2306.39 765.45 2303.36 766.214 Z" fill="#000000" fill-rule="evenodd" fill-opacity="1" /><path clip-path="url(#clip120)" d="M2329.36 753.367 Q2325.74 753.367 2323.92 756.931 Q2322.11 760.473 2322.11 767.603 Q2322.11 774.709 2323.92 778.274 Q2325.74 781.815 2329.36 781.815 Q2332.99 781.815 2334.8 778.274 Q2336.62 774.709 2336.62 767.603 Q2336.62 760.473 2334.8 756.931 Q2332.99 753.367 2329.36 753.367 M2329.36 749.663 Q2335.17 749.663 2338.22 754.269 Q2341.3 758.853 2341.3 767.603 Q2341.3 776.329 2338.22 780.936 Q2335.17 785.519 2329.36 785.519 Q2323.55 785.519 2320.47 780.936 Q2317.41 776.329 2317.41 767.603 Q2317.41 758.853 2320.47 754.269 Q2323.55 749.663 2329.36 749.663 Z" fill="#000000" fill-rule="evenodd" fill-opacity="1" /><path clip-path="url(#clip120)" d="M2359.52 753.367 Q2355.91 753.367 2354.08 756.931 Q2352.27 760.473 2352.27 767.603 Q2352.27 774.709 2354.08 778.274 Q2355.91 781.815 2359.52 781.815 Q2363.15 781.815 2364.96 778.274 Q2366.79 774.709 2366.79 767.603 Q2366.79 760.473 2364.96 756.931 Q2363.15 753.367 2359.52 753.367 M2359.52 749.663 Q2365.33 749.663 2368.38 754.269 Q2371.46 758.853 2371.46 767.603 Q2371.46 776.329 2368.38 780.936 Q2365.33 785.519 2359.52 785.519 Q2353.71 785.519 2350.63 780.936 Q2347.57 776.329 2347.57 767.603 Q2347.57 758.853 2350.63 754.269 Q2353.71 749.663 2359.52 749.663 Z" fill="#000000" fill-rule="evenodd" fill-opacity="1" /><path clip-path="url(#clip120)" d="M2389.68 753.367 Q2386.07 753.367 2384.24 756.931 Q2382.43 760.473 2382.43 767.603 Q2382.43 774.709 2384.24 778.274 Q2386.07 781.815 2389.68 781.815 Q2393.31 781.815 2395.12 778.274 Q2396.95 774.709 2396.95 767.603 Q2396.95 760.473 2395.12 756.931 Q2393.31 753.367 2389.68 753.367 M2389.68 749.663 Q2395.49 749.663 2398.55 754.269 Q2401.62 758.853 2401.62 767.603 Q2401.62 776.329 2398.55 780.936 Q2395.49 785.519 2389.68 785.519 Q2383.87 785.519 2380.79 780.936 Q2377.74 776.329 2377.74 767.603 Q2377.74 758.853 2380.79 754.269 Q2383.87 749.663 2389.68 749.663 Z" fill="#000000" fill-rule="evenodd" fill-opacity="1" /><path clip-path="url(#clip120)" d="M2992.49 754.362 L2980.68 772.811 L2992.49 772.811 L2992.49 754.362 M2991.26 750.288 L2997.14 750.288 L2997.14 772.811 L3002.07 772.811 L3002.07 776.7 L2997.14 776.7 L2997.14 784.848 L2992.49 784.848 L2992.49 776.7 L2976.88 776.7 L2976.88 772.186 L2991.26 750.288 Z" fill="#000000" fill-rule="evenodd" fill-opacity="1" /><path clip-path="url(#clip120)" d="M3019.8 753.367 Q3016.19 753.367 3014.36 756.931 Q3012.56 760.473 3012.56 767.603 Q3012.56 774.709 3014.36 778.274 Q3016.19 781.815 3019.8 781.815 Q3023.43 781.815 3025.24 778.274 Q3027.07 774.709 3027.07 767.603 Q3027.07 760.473 3025.24 756.931 Q3023.43 753.367 3019.8 753.367 M3019.8 749.663 Q3025.61 749.663 3028.67 754.269 Q3031.75 758.853 3031.75 767.603 Q3031.75 776.329 3028.67 780.936 Q3025.61 785.519 3019.8 785.519 Q3013.99 785.519 3010.91 780.936 Q3007.86 776.329 3007.86 767.603 Q3007.86 758.853 3010.91 754.269 Q3013.99 749.663 3019.8 749.663 Z" fill="#000000" fill-rule="evenodd" fill-opacity="1" /><path clip-path="url(#clip120)" d="M3049.96 753.367 Q3046.35 753.367 3044.52 756.931 Q3042.72 760.473 3042.72 767.603 Q3042.72 774.709 3044.52 778.274 Q3046.35 781.815 3049.96 781.815 Q3053.6 781.815 3055.4 778.274 Q3057.23 774.709 3057.23 767.603 Q3057.23 760.473 3055.4 756.931 Q3053.6 753.367 3049.96 753.367 M3049.96 749.663 Q3055.77 749.663 3058.83 754.269 Q3061.91 758.853 3061.91 767.603 Q3061.91 776.329 3058.83 780.936 Q3055.77 785.519 3049.96 785.519 Q3044.15 785.519 3041.07 780.936 Q3038.02 776.329 3038.02 767.603 Q3038.02 758.853 3041.07 754.269 Q3044.15 749.663 3049.96 749.663 Z" fill="#000000" fill-rule="evenodd" fill-opacity="1" /><path clip-path="url(#clip120)" d="M3080.12 753.367 Q3076.51 753.367 3074.68 756.931 Q3072.88 760.473 3072.88 767.603 Q3072.88 774.709 3074.68 778.274 Q3076.51 781.815 3080.12 781.815 Q3083.76 781.815 3085.56 778.274 Q3087.39 774.709 3087.39 767.603 Q3087.39 760.473 3085.56 756.931 Q3083.76 753.367 3080.12 753.367 M3080.12 749.663 Q3085.93 749.663 3088.99 754.269 Q3092.07 758.853 3092.07 767.603 Q3092.07 776.329 3088.99 780.936 Q3085.93 785.519 3080.12 785.519 Q3074.31 785.519 3071.24 780.936 Q3068.18 776.329 3068.18 767.603 Q3068.18 758.853 3071.24 754.269 Q3074.31 749.663 3080.12 749.663 Z" fill="#000000" fill-rule="evenodd" fill-opacity="1" /><polyline clip-path="url(#clip122)" style="stroke:#000000; stroke-linecap:round; stroke-linejoin:round; stroke-width:2; stroke-opacity:0.1; fill:none" points="192.191,716.048 3152.76,716.048 "/>
<polyline clip-path="url(#clip122)" style="stroke:#000000; stroke-linecap:round; stroke-linejoin:round; stroke-width:2; stroke-opacity:0.1; fill:none" points="192.191,599.936 3152.76,599.936 "/>
<polyline clip-path="url(#clip122)" style="stroke:#000000; stroke-linecap:round; stroke-linejoin:round; stroke-width:2; stroke-opacity:0.1; fill:none" points="192.191,483.824 3152.76,483.824 "/>
<polyline clip-path="url(#clip122)" style="stroke:#000000; stroke-linecap:round; stroke-linejoin:round; stroke-width:2; stroke-opacity:0.1; fill:none" points="192.191,367.713 3152.76,367.713 "/>
<polyline clip-path="url(#clip122)" style="stroke:#000000; stroke-linecap:round; stroke-linejoin:round; stroke-width:2; stroke-opacity:0.1; fill:none" points="192.191,251.601 3152.76,251.601 "/>
<polyline clip-path="url(#clip122)" style="stroke:#000000; stroke-linecap:round; stroke-linejoin:round; stroke-width:2; stroke-opacity:0.1; fill:none" points="192.191,135.489 3152.76,135.489 "/>
<polyline clip-path="url(#clip120)" style="stroke:#000000; stroke-linecap:round; stroke-linejoin:round; stroke-width:4; stroke-opacity:1; fill:none" points="192.191,716.048 192.191,47.2441 "/>
<polyline clip-path="url(#clip120)" style="stroke:#000000; stroke-linecap:round; stroke-linejoin:round; stroke-width:4; stroke-opacity:1; fill:none" points="192.191,716.048 211.088,716.048 "/>
<polyline clip-path="url(#clip120)" style="stroke:#000000; stroke-linecap:round; stroke-linejoin:round; stroke-width:4; stroke-opacity:1; fill:none" points="192.191,599.936 211.088,599.936 "/>
<polyline clip-path="url(#clip120)" style="stroke:#000000; stroke-linecap:round; stroke-linejoin:round; stroke-width:4; stroke-opacity:1; fill:none" points="192.191,483.824 211.088,483.824 "/>
<polyline clip-path="url(#clip120)" style="stroke:#000000; stroke-linecap:round; stroke-linejoin:round; stroke-width:4; stroke-opacity:1; fill:none" points="192.191,367.713 211.088,367.713 "/>
<polyline clip-path="url(#clip120)" style="stroke:#000000; stroke-linecap:round; stroke-linejoin:round; stroke-width:4; stroke-opacity:1; fill:none" points="192.191,251.601 211.088,251.601 "/>
<polyline clip-path="url(#clip120)" style="stroke:#000000; stroke-linecap:round; stroke-linejoin:round; stroke-width:4; stroke-opacity:1; fill:none" points="192.191,135.489 211.088,135.489 "/>
<path clip-path="url(#clip120)" d="M87.0151 701.847 Q83.404 701.847 81.5753 705.411 Q79.7697 708.953 79.7697 716.083 Q79.7697 723.189 81.5753 726.754 Q83.404 730.295 87.0151 730.295 Q90.6493 730.295 92.4548 726.754 Q94.2835 723.189 94.2835 716.083 Q94.2835 708.953 92.4548 705.411 Q90.6493 701.847 87.0151 701.847 M87.0151 698.143 Q92.8252 698.143 95.8808 702.749 Q98.9594 707.333 98.9594 716.083 Q98.9594 724.809 95.8808 729.416 Q92.8252 733.999 87.0151 733.999 Q81.2049 733.999 78.1262 729.416 Q75.0707 724.809 75.0707 716.083 Q75.0707 707.333 78.1262 702.749 Q81.2049 698.143 87.0151 698.143 Z" fill="#000000" fill-rule="evenodd" fill-opacity="1" /><path clip-path="url(#clip120)" d="M107.177 727.448 L112.061 727.448 L112.061 733.328 L107.177 733.328 L107.177 727.448 Z" fill="#000000" fill-rule="evenodd" fill-opacity="1" /><path clip-path="url(#clip120)" d="M132.246 701.847 Q128.635 701.847 126.807 705.411 Q125.001 708.953 125.001 716.083 Q125.001 723.189 126.807 726.754 Q128.635 730.295 132.246 730.295 Q135.881 730.295 137.686 726.754 Q139.515 723.189 139.515 716.083 Q139.515 708.953 137.686 705.411 Q135.881 701.847 132.246 701.847 M132.246 698.143 Q138.056 698.143 141.112 702.749 Q144.191 707.333 144.191 716.083 Q144.191 724.809 141.112 729.416 Q138.056 733.999 132.246 733.999 Q126.436 733.999 123.357 729.416 Q120.302 724.809 120.302 716.083 Q120.302 707.333 123.357 702.749 Q126.436 698.143 132.246 698.143 Z" fill="#000000" fill-rule="evenodd" fill-opacity="1" /><path clip-path="url(#clip120)" d="M82.0382 613.281 L98.3576 613.281 L98.3576 617.216 L76.4133 617.216 L76.4133 613.281 Q79.0753 610.526 83.6586 605.897 Q88.2651 601.244 89.4456 599.901 Q91.691 597.378 92.5706 595.642 Q93.4734 593.883 93.4734 592.193 Q93.4734 589.438 91.5289 587.702 Q89.6076 585.966 86.5058 585.966 Q84.3067 585.966 81.8531 586.73 Q79.4225 587.494 76.6447 589.045 L76.6447 584.323 Q79.4688 583.189 81.9225 582.61 Q84.3762 582.031 86.4132 582.031 Q91.7836 582.031 94.978 584.716 Q98.1724 587.401 98.1724 591.892 Q98.1724 594.022 97.3622 595.943 Q96.5752 597.841 94.4687 600.434 Q93.89 601.105 90.7882 604.323 Q87.6864 607.517 82.0382 613.281 Z" fill="#000000" fill-rule="evenodd" fill-opacity="1" /><path clip-path="url(#clip120)" d="M108.172 611.337 L113.057 611.337 L113.057 617.216 L108.172 617.216 L108.172 611.337 Z" fill="#000000" fill-rule="evenodd" fill-opacity="1" /><path clip-path="url(#clip120)" d="M123.288 582.656 L141.644 582.656 L141.644 586.591 L127.57 586.591 L127.57 595.063 Q128.589 594.716 129.607 594.554 Q130.626 594.369 131.644 594.369 Q137.431 594.369 140.811 597.54 Q144.191 600.712 144.191 606.128 Q144.191 611.707 140.718 614.809 Q137.246 617.887 130.927 617.887 Q128.751 617.887 126.482 617.517 Q124.237 617.147 121.83 616.406 L121.83 611.707 Q123.913 612.841 126.135 613.397 Q128.357 613.952 130.834 613.952 Q134.839 613.952 137.177 611.846 Q139.515 609.739 139.515 606.128 Q139.515 602.517 137.177 600.411 Q134.839 598.304 130.834 598.304 Q128.959 598.304 127.084 598.721 Q125.232 599.137 123.288 600.017 L123.288 582.656 Z" fill="#000000" fill-rule="evenodd" fill-opacity="1" /><path clip-path="url(#clip120)" d="M77.0614 466.544 L95.4178 466.544 L95.4178 470.48 L81.3438 470.48 L81.3438 478.952 Q82.3623 478.604 83.3808 478.442 Q84.3993 478.257 85.4178 478.257 Q91.2049 478.257 94.5845 481.429 Q97.9641 484.6 97.9641 490.016 Q97.9641 495.595 94.4919 498.697 Q91.0197 501.776 84.7003 501.776 Q82.5243 501.776 80.2558 501.405 Q78.0105 501.035 75.6031 500.294 L75.6031 495.595 Q77.6864 496.729 79.9086 497.285 Q82.1308 497.84 84.6077 497.84 Q88.6123 497.84 90.9502 495.734 Q93.2882 493.628 93.2882 490.016 Q93.2882 486.405 90.9502 484.299 Q88.6123 482.192 84.6077 482.192 Q82.7327 482.192 80.8577 482.609 Q79.0058 483.026 77.0614 483.905 L77.0614 466.544 Z" fill="#000000" fill-rule="evenodd" fill-opacity="1" /><path clip-path="url(#clip120)" d="M107.177 495.225 L112.061 495.225 L112.061 501.104 L107.177 501.104 L107.177 495.225 Z" fill="#000000" fill-rule="evenodd" fill-opacity="1" /><path clip-path="url(#clip120)" d="M132.246 469.623 Q128.635 469.623 126.807 473.188 Q125.001 476.729 125.001 483.859 Q125.001 490.966 126.807 494.53 Q128.635 498.072 132.246 498.072 Q135.881 498.072 137.686 494.53 Q139.515 490.966 139.515 483.859 Q139.515 476.729 137.686 473.188 Q135.881 469.623 132.246 469.623 M132.246 465.919 Q138.056 465.919 141.112 470.526 Q144.191 475.109 144.191 483.859 Q144.191 492.586 141.112 497.192 Q138.056 501.776 132.246 501.776 Q126.436 501.776 123.357 497.192 Q120.302 492.586 120.302 483.859 Q120.302 475.109 123.357 470.526 Q126.436 465.919 132.246 465.919 Z" fill="#000000" fill-rule="evenodd" fill-opacity="1" /><path clip-path="url(#clip120)" d="M76.8299 350.433 L99.052 350.433 L99.052 352.423 L86.5058 384.993 L81.6216 384.993 L93.4271 354.368 L76.8299 354.368 L76.8299 350.433 Z" fill="#000000" fill-rule="evenodd" fill-opacity="1" /><path clip-path="url(#clip120)" d="M108.172 379.113 L113.057 379.113 L113.057 384.993 L108.172 384.993 L108.172 379.113 Z" fill="#000000" fill-rule="evenodd" fill-opacity="1" /><path clip-path="url(#clip120)" d="M123.288 350.433 L141.644 350.433 L141.644 354.368 L127.57 354.368 L127.57 362.84 Q128.589 362.493 129.607 362.331 Q130.626 362.145 131.644 362.145 Q137.431 362.145 140.811 365.317 Q144.191 368.488 144.191 373.905 Q144.191 379.483 140.718 382.585 Q137.246 385.664 130.927 385.664 Q128.751 385.664 126.482 385.293 Q124.237 384.923 121.83 384.182 L121.83 379.483 Q123.913 380.618 126.135 381.173 Q128.357 381.729 130.834 381.729 Q134.839 381.729 137.177 379.622 Q139.515 377.516 139.515 373.905 Q139.515 370.294 137.177 368.187 Q134.839 366.081 130.834 366.081 Q128.959 366.081 127.084 366.497 Q125.232 366.914 123.288 367.794 L123.288 350.433 Z" fill="#000000" fill-rule="evenodd" fill-opacity="1" /><path clip-path="url(#clip120)" d="M47.6634 264.946 L55.3023 264.946 L55.3023 238.58 L46.9921 240.247 L46.9921 235.987 L55.256 234.321 L59.9319 234.321 L59.9319 264.946 L67.5707 264.946 L67.5707 268.881 L47.6634 268.881 L47.6634 264.946 Z" fill="#000000" fill-rule="evenodd" fill-opacity="1" /><path clip-path="url(#clip120)" d="M87.0151 237.399 Q83.404 237.399 81.5753 240.964 Q79.7697 244.506 79.7697 251.636 Q79.7697 258.742 81.5753 262.307 Q83.404 265.848 87.0151 265.848 Q90.6493 265.848 92.4548 262.307 Q94.2835 258.742 94.2835 251.636 Q94.2835 244.506 92.4548 240.964 Q90.6493 237.399 87.0151 237.399 M87.0151 233.696 Q92.8252 233.696 95.8808 238.302 Q98.9594 242.886 98.9594 251.636 Q98.9594 260.362 95.8808 264.969 Q92.8252 269.552 87.0151 269.552 Q81.2049 269.552 78.1262 264.969 Q75.0707 260.362 75.0707 251.636 Q75.0707 242.886 78.1262 238.302 Q81.2049 233.696 87.0151 233.696 Z" fill="#000000" fill-rule="evenodd" fill-opacity="1" /><path clip-path="url(#clip120)" d="M107.177 263.001 L112.061 263.001 L112.061 268.881 L107.177 268.881 L107.177 263.001 Z" fill="#000000" fill-rule="evenodd" fill-opacity="1" /><path clip-path="url(#clip120)" d="M132.246 237.399 Q128.635 237.399 126.807 240.964 Q125.001 244.506 125.001 251.636 Q125.001 258.742 126.807 262.307 Q128.635 265.848 132.246 265.848 Q135.881 265.848 137.686 262.307 Q139.515 258.742 139.515 251.636 Q139.515 244.506 137.686 240.964 Q135.881 237.399 132.246 237.399 M132.246 233.696 Q138.056 233.696 141.112 238.302 Q144.191 242.886 144.191 251.636 Q144.191 260.362 141.112 264.969 Q138.056 269.552 132.246 269.552 Q126.436 269.552 123.357 264.969 Q120.302 260.362 120.302 251.636 Q120.302 242.886 123.357 238.302 Q126.436 233.696 132.246 233.696 Z" fill="#000000" fill-rule="evenodd" fill-opacity="1" /><path clip-path="url(#clip120)" d="M48.6588 148.834 L56.2976 148.834 L56.2976 122.468 L47.9875 124.135 L47.9875 119.876 L56.2513 118.209 L60.9272 118.209 L60.9272 148.834 L68.5661 148.834 L68.5661 152.769 L48.6588 152.769 L48.6588 148.834 Z" fill="#000000" fill-rule="evenodd" fill-opacity="1" /><path clip-path="url(#clip120)" d="M82.0382 148.834 L98.3576 148.834 L98.3576 152.769 L76.4133 152.769 L76.4133 148.834 Q79.0753 146.079 83.6586 141.45 Q88.2651 136.797 89.4456 135.454 Q91.691 132.931 92.5706 131.195 Q93.4734 129.436 93.4734 127.746 Q93.4734 124.991 91.5289 123.255 Q89.6076 121.519 86.5058 121.519 Q84.3067 121.519 81.8531 122.283 Q79.4225 123.047 76.6447 124.598 L76.6447 119.876 Q79.4688 118.741 81.9225 118.163 Q84.3762 117.584 86.4132 117.584 Q91.7836 117.584 94.978 120.269 Q98.1724 122.954 98.1724 127.445 Q98.1724 129.575 97.3622 131.496 Q96.5752 133.394 94.4687 135.987 Q93.89 136.658 90.7882 139.876 Q87.6864 143.07 82.0382 148.834 Z" fill="#000000" fill-rule="evenodd" fill-opacity="1" /><path clip-path="url(#clip120)" d="M108.172 146.889 L113.057 146.889 L113.057 152.769 L108.172 152.769 L108.172 146.889 Z" fill="#000000" fill-rule="evenodd" fill-opacity="1" /><path clip-path="url(#clip120)" d="M123.288 118.209 L141.644 118.209 L141.644 122.144 L127.57 122.144 L127.57 130.616 Q128.589 130.269 129.607 130.107 Q130.626 129.922 131.644 129.922 Q137.431 129.922 140.811 133.093 Q144.191 136.264 144.191 141.681 Q144.191 147.26 140.718 150.362 Q137.246 153.44 130.927 153.44 Q128.751 153.44 126.482 153.07 Q124.237 152.7 121.83 151.959 L121.83 147.26 Q123.913 148.394 126.135 148.95 Q128.357 149.505 130.834 149.505 Q134.839 149.505 137.177 147.399 Q139.515 145.292 139.515 141.681 Q139.515 138.07 137.177 135.964 Q134.839 133.857 130.834 133.857 Q128.959 133.857 127.084 134.274 Q125.232 134.69 123.288 135.57 L123.288 118.209 Z" fill="#000000" fill-rule="evenodd" fill-opacity="1" /><polyline clip-path="url(#clip122)" style="stroke:#009af9; stroke-linecap:round; stroke-linejoin:round; stroke-width:2; stroke-opacity:1; fill:none" points="275.98,542.303 276.67,529.22 277.36,543.024 278.05,529.745 278.739,518.393 279.429,523.683 280.119,528.208 280.809,528.822 281.499,541.533 282.188,533.257 282.878,506.821 283.568,534.414 284.258,525.133 284.948,513.327 285.637,533.092 286.327,530.707 287.017,536.001 287.707,531.033 288.397,535.467 289.086,545.948 289.776,535.314 290.466,528.784 291.156,512.879 291.846,533.949 292.535,506.335 293.225,538.62 293.915,544.042 294.605,526.062 295.295,528.035 295.984,536.781 296.674,530.879 297.364,540.43 298.054,521.506 298.744,528.119 299.433,534.263 300.123,541.48 300.813,541.021 301.503,536.775 302.193,542.059 302.882,523.243 303.572,533.76 304.262,511.761 304.952,528.05 305.642,514.194 306.331,525.46 307.021,550.027 307.711,518.597 308.401,523.061 309.09,514.531 309.78,525.194 310.47,540.367 311.16,526.493 311.85,529.2 312.539,536.318 313.229,529.182 313.919,549.147 314.609,516.839 315.299,528.459 315.988,513.816 316.678,523.138 317.368,533.85 318.058,519.828 318.748,546.049 319.437,519.733 320.127,525.485 320.817,536.761 321.507,510.394 322.197,534.103 322.886,537.228 323.576,537.5 324.266,518.58 324.956,516.157 325.646,550.994 326.335,527.602 327.025,528.866 327.715,524.425 328.405,533.14 329.095,541.425 329.784,544.061 330.474,536.901 331.164,531.274 331.854,547.48 332.544,532.925 333.233,548.39 333.923,530.615 334.613,526.068 335.303,525.124 335.993,517.226 336.682,528.974 337.372,514.393 338.062,534.864 338.752,530.036 339.442,530.854 340.131,540.165 340.821,536.298 341.511,531.864 342.201,515.581 342.891,522.443 343.58,542.358 344.27,533.827 344.96,530.209 345.65,517.113 346.34,529.383 347.029,528.112 347.719,525.193 348.409,512.186 349.099,511.639 349.788,535.728 350.478,528.332 351.168,512.561 351.858,526.562 352.548,545.906 353.237,535.537 353.927,539.215 354.617,508.779 355.307,536.759 355.997,511.069 356.686,525.704 357.376,522.724 358.066,511.633 358.756,528.712 359.446,532.932 360.135,521.579 360.825,529.809 361.515,531.748 362.205,513.096 362.895,524.964 363.584,525.592 364.274,515.531 364.964,517.91 365.654,531.396 366.344,542.09 367.033,539.361 367.723,511.748 368.413,530.112 369.103,533.505 369.793,530.304 370.482,523.918 371.172,522.321 371.862,526.397 372.552,545.472 373.242,509.967 373.931,531.859 374.621,526.809 375.311,530.285 376.001,536.28 376.691,523.801 377.38,506.945 378.07,519.695 378.76,523.59 379.45,512.706 380.14,530.75 380.829,522.713 381.519,551.156 382.209,510.704 382.899,533.945 383.589,538.045 384.278,517.555 384.968,524.074 385.658,514.636 386.348,524.938 387.037,533.539 387.727,521.935 388.417,537.994 389.107,519.587 389.797,542.352 390.486,512.002 391.176,544.189 391.866,526.266 392.556,517.102 393.246,519.059 393.935,550.638 394.625,525.476 395.315,516.273 396.005,530.75 396.695,532.472 397.384,514.187 398.074,527.592 398.764,529.037 399.454,530.946 400.144,509.52 400.833,528.014 401.523,535.879 402.213,509.258 402.903,521.822 403.593,525.381 404.282,525.057 404.972,528.706 405.662,516.862 406.352,508.098 407.042,523.099 407.731,522.034 408.421,522.661 409.111,527.75 409.801,539.361 410.491,515.726 411.18,528.019 411.87,525.617 412.56,527.485 413.25,535.06 413.94,533.405 414.629,531.628 415.319,523.403 416.009,539.912 416.699,539.664 417.389,522.634 418.078,539.024 418.768,522.592 419.458,520.901 420.148,544.437 420.838,508.598 421.527,532.697 422.217,524.207 422.907,522.155 423.597,526.483 424.287,524.054 424.976,536.419 425.666,515.492 426.356,530.195 427.046,530.999 427.735,518.901 428.425,530.456 429.115,542.962 429.805,517.314 430.495,525.272 431.184,524.096 431.874,532.406 432.564,530.69 433.254,527.087 433.944,536.905 434.633,530.943 435.323,527.377 436.013,549.414 436.703,535.443 437.393,530.647 438.082,542.657 438.772,510.111 439.462,536.958 440.152,511.686 440.842,549.546 441.531,531.129 442.221,540.632 442.911,523.055 443.601,523.046 444.291,534.927 444.98,526.884 445.67,529.132 446.36,522.676 447.05,536.173 447.74,520.235 448.429,538.347 449.119,531.338 449.809,528.731 450.499,533.863 451.189,533.577 451.878,522.434 452.568,536.131 453.258,519.488 453.948,532.114 454.638,530.865 455.327,517.155 456.017,532.412 456.707,528.888 457.397,536.836 458.087,528.106 458.776,538.823 459.466,516.546 460.156,544.772 460.846,524.424 461.536,543.868 462.225,529.574 462.915,534.146 463.605,526.79 464.295,528.295 464.985,538.875 465.674,521.175 466.364,549.955 467.054,513.859 467.744,549.651 468.433,515.649 469.123,542.186 469.813,532.912 470.503,521.391 471.193,523.54 471.882,540.641 472.572,523.16 473.262,545.28 473.952,527.068 474.642,525.313 475.331,530.69 476.021,530.674 476.711,534.407 477.401,531.951 478.091,527.064 478.78,536.693 479.47,521.161 480.16,537.21 480.85,534.402 481.54,520.451 482.229,539.169 482.919,518.017 483.609,539.774 484.299,522.763 484.989,530.671 485.678,538.121 486.368,529.108 487.058,529.481 487.748,519.454 488.438,536.572 489.127,515.634 489.817,547.176 490.507,520.261 491.197,543.952 491.887,516.587 492.576,541.041 493.266,531.215 493.956,535.145 494.646,520.596 495.336,535.945 496.025,521.603 496.715,534.818 497.405,531.29 498.095,529.347 498.785,528.4 499.474,523.333 500.164,539.806 500.854,523.196 501.544,541.58 502.234,523.247 502.923,532.088 503.613,523.001 504.303,538.548 504.993,524.777 505.682,534.121 506.372,530.573 507.062,527.442 507.752,526.801 508.442,531.227 509.131,517.263 509.821,524.098 510.511,540.252 511.201,527.573 511.891,525.768 512.58,528.556 513.27,537.643 513.96,526.268 514.65,534.846 515.34,524.631 516.029,536.641 516.719,516.716 517.409,536.125 518.099,526.645 518.789,533.211 519.478,529.485 520.168,538.439 520.858,520.108 521.548,536.391 522.238,520.026 522.927,540.885 523.617,519.758 524.307,539.409 524.997,517.879 525.687,535.997 526.376,527.284 527.066,530.464 527.756,527.898 528.446,526.687 529.136,527.135 529.825,531.229 530.515,526.625 531.205,534.119 531.895,526.879 532.585,526.95 533.274,530.235 533.964,530.687 534.654,532.059 535.344,528.727 536.034,521.683 536.723,537.306 537.413,526.488 538.103,537.441 538.793,526.519 539.483,534.197 540.172,526.954 540.862,535.018 541.552,533.39 542.242,530.971 542.932,535.462 543.621,528.781 544.311,533.776 545.001,531.305 545.691,535.977 546.38,532.313 547.07,522.237 547.76,539.964 548.45,516.979 549.14,545.982 549.829,519.869 550.519,543.122 551.209,518.76 551.899,539.347 552.589,528.61 553.278,532.822 553.968,535.488 554.658,533.923 555.348,511.606 556.038,531.778 556.727,526.187 557.417,529.797 558.107,535.991 558.797,542.041 559.487,513.238 560.176,543.175 560.866,521.053 561.556,525.063 562.246,532.919 562.936,524.166 563.625,543.224 564.315,523.426 565.005,524.38 565.695,544.737 566.385,521.969 567.074,534.889 567.764,519.213 568.454,536.005 569.144,533.909 569.834,534.302 570.523,518.348 571.213,536.995 571.903,522.056 572.593,532.466 573.283,518.01 573.972,539.156 574.662,517.422 575.352,538.138 576.042,516.426 576.732,532.378 577.421,517.672 578.111,542.555 578.801,531.343 579.491,527.416 580.181,527.601 580.87,523.611 581.56,521.902 582.25,532.249 582.94,521.427 583.63,523.692 584.319,538.043 585.009,539.209 585.699,536.529 586.389,524.312 587.078,531.381 587.768,524.247 588.458,528.875 589.148,523.28 589.838,534.31 590.527,539.544 591.217,527.937 591.907,533.461 592.597,512.539 593.287,540.794 593.976,519.611 594.666,523.23 595.356,537.799 596.046,541.812 596.736,535.47 597.425,517.049 598.115,525.033 598.805,529.116 599.495,520.857 600.185,523.322 600.874,522.668 601.564,520.223 602.254,531.169 602.944,533.844 603.634,535.341 604.323,526.917 605.013,528.035 605.703,526.833 606.393,529.737 607.083,525.058 607.772,531.301 608.462,536.592 609.152,530.173 609.842,524.246 610.532,525.88 611.221,527.324 611.911,528.23 612.601,525.707 613.291,545.781 613.981,517.842 614.67,524.416 615.36,535.815 616.05,520.375 616.74,533.098 617.43,521.77 618.119,532.641 618.809,534.031 619.499,519.836 620.189,535.822 620.879,527.619 621.568,535.843 622.258,530.379 622.948,539.089 623.638,524.304 624.327,536.906 625.017,526.334 625.707,528.725 626.397,531.38 627.087,522.939 627.776,536.872 628.466,516.671 629.156,532.582 629.846,515.123 630.536,534.824 631.225,514.781 631.915,531.512 632.605,529.372 633.295,530.434 633.985,532.316 634.674,524.299 635.364,540.709 636.054,524.166 636.744,521.88 637.434,541.821 638.123,522.538 638.813,533.431 639.503,535.413 640.193,519.304 640.883,525.801 641.572,530.788 642.262,534.769 642.952,507.897 643.642,537.657 644.332,537.331 645.021,523.621 645.711,541.184 646.401,521.714 647.091,536.064 647.781,526.853 648.47,544.359 649.16,520.212 649.85,531.338 650.54,534.387 651.23,516.21 651.919,534.028 652.609,524.157 653.299,542.403 653.989,528.09 654.679,518.532 655.368,538.48 656.058,528.83 656.748,529.134 657.438,526.187 658.128,535.957 658.817,526.454 659.507,536.2 660.197,523.704 660.887,533.29 661.577,533.24 662.266,532.812 662.956,533.951 663.646,532.156 664.336,516.197 665.025,541.103 665.715,520.508 666.405,536.516 667.095,533.4 667.785,532.013 668.474,531.166 669.164,528.375 669.854,530.806 670.544,535.152 671.234,525.907 671.923,536.397 672.613,523.914 673.303,533.864 673.993,522.26 674.683,537.484 675.372,527.731 676.062,532.873 676.752,526.784 677.442,534.457 678.132,529.589 678.821,531.915 679.511,529.447 680.201,531.106 680.891,526.265 681.581,537.393 682.27,522.592 682.96,534.113 683.65,523.08 684.34,537.747 685.03,522.982 685.719,535.213 686.409,526.503 687.099,532.01 687.789,519.202 688.479,539.311 689.168,521.708 689.858,538.409 690.548,526.626 691.238,531.699 691.928,528.888 692.617,528.465 693.307,533.567 693.997,532.308 694.687,526.459 695.377,537.535 696.066,520.149 696.756,538.963 697.446,517.216 698.136,541.635 698.826,519.35 699.515,540.025 700.205,524.984 700.895,536.844 701.585,526.277 702.275,528.867 702.964,527.401 703.654,535.201 704.344,520.641 705.034,543.253 705.723,521.007 706.413,537.116 707.103,525.4 707.793,534.924 708.483,524.186 709.172,533.4 709.862,522.543 710.552,535.216 711.242,523.181 711.932,535.577 712.621,524.504 713.311,534.235 714.001,526.357 714.691,526.025 715.381,531.033 716.07,531.873 716.76,531.418 717.45,515.645 718.14,542.342 718.83,517.68 719.519,545.614 720.209,516.898 720.899,541.363 721.589,524.995 722.279,532.019 722.968,541.619 723.658,524.821 724.348,536.575 725.038,522.546 725.728,543.757 726.417,516.839 727.107,539.99 727.797,519.458 728.487,546.381 729.177,512.641 729.866,544.052 730.556,521.171 731.246,542.329 731.936,517.488 732.626,539.823 733.315,520.925 734.005,539.953 734.695,530.598 735.385,529.161 736.075,535.341 736.764,524.264 737.454,535.201 738.144,523.69 738.834,528.346 739.524,532.455 740.213,532.457 740.903,530.842 741.593,530.366 742.283,535.39 742.972,528.746 743.662,532.675 744.352,522.891 745.042,537.584 745.732,524.02 746.421,540.406 747.111,522.05 747.801,519.476 748.491,540.468 749.181,523.866 749.87,522.526 750.56,537.424 751.25,525.542 751.94,527.832 752.63,535.995 753.319,525.097 754.009,533.91 754.699,531.508 755.389,530.22 756.079,534.285 756.768,531.476 757.458,530.933 758.148,523.802 758.838,531.468 759.528,526.761 760.217,527.53 760.907,532.122 761.597,526.043 762.287,525.76 762.977,529.7 763.666,527.579 764.356,534.944 765.046,521.893 765.736,541.41 766.426,517.94 767.115,542.435 767.805,519.418 768.495,528.334 769.185,542.501 769.875,527.259 770.564,536.176 771.254,522.589 771.944,540.988 772.634,522.71 773.324,537.743 774.013,526.433 774.703,534.718 775.393,519.96 776.083,537.572 776.773,522.169 777.462,533.415 778.152,524.193 778.842,524.883 779.532,529.786 780.222,531.376 780.911,536 781.601,526.151 782.291,538.106 782.981,531 783.67,532.923 784.36,535.011 785.05,530.015 785.74,541.814 786.43,528.948 787.119,545.056 787.809,516.798 788.499,532.816 789.189,531.062 789.879,520.654 790.568,541.771 791.258,520.685 791.948,542.109 792.638,515.93 793.328,543.035 794.017,527.105 794.707,533.876 795.397,526.055 796.087,529.778 796.777,530.264 797.466,524.64 798.156,530.608 798.846,546.168 799.536,515.356 800.226,542.699 800.915,518.41 801.605,544.713 802.295,517.364 802.985,537.706 803.675,525.662 804.364,527.484 805.054,528.593 805.744,523.51 806.434,533.621 807.124,524.174 807.813,529.048 808.503,529.956 809.193,544.242 809.883,515.944 810.573,546.163 811.262,525.567 811.952,532.38 812.642,527.693 813.332,541.479 814.022,522.528 814.711,533.834 815.401,538.454 816.091,530.179 816.781,537.185 817.471,518.494 818.16,543.475 818.85,521.931 819.54,536.852 820.23,524.649 820.92,536.386 821.609,516.551 822.299,539.836 822.989,527.495 823.679,527.08 824.368,525.943 825.058,533.552 825.748,533.134 826.438,521.84 827.128,544.161 827.817,527.15 828.507,530.101 829.197,533.491 829.887,535.595 830.577,532.195 831.266,529.453 831.956,537.249 832.646,518.745 833.336,545.229 834.026,511.223 834.715,536.705 835.405,526.013 836.095,533.889 836.785,525.648 837.475,534.51 838.164,524.553 838.854,539.375 839.544,524.324 840.234,533.386 840.924,524.203 841.613,533.911 842.303,523.147 842.993,530.741 843.683,524.515 844.373,526.41 845.062,532.001 845.752,527.627 846.442,528.515 847.132,527.712 847.822,523.437 848.511,543.497 849.201,513.009 849.891,545.644 850.581,519.164 851.271,546.7 851.96,510.626 852.65,532.118 853.34,513.243 854.03,540.102 854.72,521.367 855.409,540.021 856.099,511.464 856.789,531.278 857.479,533.781 858.169,526.567 858.858,516.075 859.548,535.502 860.238,522.756 860.928,537.735 861.617,527.078 862.307,544.437 862.997,514.959 863.687,549.533 864.377,519.325 865.066,539.833 865.756,519.586 866.446,546.238 867.136,514.952 867.826,537.382 868.515,527.863 869.205,532.528 869.895,523.18 870.585,530.981 871.275,539.508 871.964,525.097 872.654,533.307 873.344,528.389 874.034,534.535 874.724,528.873 875.413,538.929 876.103,514.023 876.793,544.477 877.483,517.814 878.173,539.521 878.862,521.366 879.552,535.738 880.242,525.481 880.932,538.041 881.622,528.082 882.311,533.416 883.001,528.385 883.691,531.389 884.381,532.049 885.071,527.656 885.76,535.933 886.45,529.651 887.14,522.997 887.83,538.769 888.52,519.394 889.209,529.63 889.899,534.232 890.589,531.008 891.279,531.654 891.969,532.149 892.658,535.925 893.348,529.179 894.038,530.809 894.728,528.364 895.418,542.088 896.107,528.904 896.797,516.745 897.487,549.798 898.177,508.003 898.867,546.345 899.556,523.091 900.246,530.118 900.936,533.789 901.626,521.564 902.315,533.176 903.005,529.449 903.695,532.463 904.385,529.354 905.075,533.571 905.764,526.59 906.454,530.923 907.144,525.522 907.834,527.024 908.524,532.266 909.213,529.126 909.903,532.791 910.593,523.115 911.283,531.937 911.973,524.94 912.662,529.217 913.352,533.991 914.042,533.869 914.732,525.588 915.422,535.1 916.111,519.773 916.801,527.363 917.491,528.779 918.181,537.709 918.871,529.21 919.56,527.794 920.25,534.948 920.94,524.243 921.63,529.726 922.32,521.675 923.009,534.039 923.699,524.491 924.389,539.761 925.079,526.649 925.769,537.151 926.458,529.494 927.148,528.904 927.838,536.928 928.528,526.139 929.218,534.536 929.907,520.669 930.597,544.782 931.287,521.211 931.977,533.102 932.667,525.491 933.356,533.139 934.046,527.009 934.736,525.44 935.426,530.572 936.116,527.612 936.805,530.891 937.495,519.714 938.185,533.731 938.875,529.536 939.565,532.3 940.254,527.277 940.944,530.499 941.634,529.762 942.324,522.719 943.013,536.462 943.703,527.784 944.393,531.398 945.083,519.486 945.773,534.529 946.462,543.376 947.152,532.296 947.842,521.612 948.532,545.88 949.222,528.748 949.911,533.44 950.601,526.668 951.291,533.571 951.981,539.217 952.671,522.788 953.36,530.581 954.05,531.296 954.74,525.697 955.43,537.931 956.12,526.835 956.809,529.784 957.499,528.599 958.189,524.282 958.879,539.476 959.569,532.062 960.258,517.85 960.948,528.075 961.638,524.411 962.328,532.271 963.018,512.736 963.707,526.706 964.397,513.37 965.087,520.35 965.777,534.056 966.467,529.952 967.156,531.905 967.846,526.569 968.536,540.81 969.226,505.099 969.916,540.614 970.605,512.976 971.295,525.866 971.985,527.65 972.675,533.595 973.365,515.362 974.054,517.366 974.744,530.644 975.434,522.324 976.124,518.251 976.814,530.524 977.503,535.349 978.193,532.284 978.883,539 979.573,512.837 980.262,533.027 980.952,524.748 981.642,528.428 982.332,523.84 983.022,522.553 983.711,528.805 984.401,533.487 985.091,516.673 985.781,527.423 986.471,519.753 987.16,525.392 987.85,531.08 988.54,526.77 989.23,533.364 989.92,526.566 990.609,534.068 991.299,532.907 991.989,529.325 992.679,533.431 993.369,529.053 994.058,522.391 994.748,534.695 995.438,544.264 996.128,522.056 996.818,526.443 997.507,542.242 998.197,527.809 998.887,546.538 999.577,514.948 1000.27,532.968 1000.96,542.882 1001.65,522.228 1002.34,530.101 1003.03,529.826 1003.72,535.846 1004.41,524.515 1005.1,531.341 1005.78,522.218 1006.47,536.427 1007.16,525.187 1007.85,533.184 1008.54,521.028 1009.23,534.446 1009.92,527.961 1010.61,522.783 1011.3,544.034 1011.99,519.525 1012.68,532.693 1013.37,530.729 1014.06,523.91 1014.75,534.698 1015.44,517.464 1016.13,535.774 1016.82,520.196 1017.51,540.935 1018.2,518.643 1018.89,533.177 1019.58,524.615 1020.27,516.206 1020.96,534.475 1021.65,532.729 1022.34,526.865 1023.03,539.718 1023.72,527.35 1024.41,537.54 1025.1,529.581 1025.79,530.038 1026.48,525.453 1027.17,530.668 1027.86,530.848 1028.55,533.623 1029.24,528.916 1029.93,534.23 1030.62,513.365 1031.31,541.509 1032,522.279 1032.69,536.816 1033.38,526.951 1034.07,528.581 1034.76,515.279 1035.45,530.659 1036.14,519.955 1036.83,529.946 1037.52,523.303 1038.21,532.394 1038.9,520.562 1039.58,532.882 1040.27,524.897 1040.96,537.454 1041.65,526.123 1042.34,532.492 1043.03,533.091 1043.72,529.72 1044.41,536.533 1045.1,525.979 1045.79,526.178 1046.48,536.249 1047.17,522.575 1047.86,529.075 1048.55,526.379 1049.24,532.271 1049.93,525.325 1050.62,530.338 1051.31,529.52 1052,526.023 1052.69,525.163 1053.38,538.966 1054.07,524.069 1054.76,532.222 1055.45,531.965 1056.14,528.677 1056.83,519.157 1057.52,533.048 1058.21,525.497 1058.9,539.506 1059.59,521.602 1060.28,533.651 1060.97,522.717 1061.66,536.585 1062.35,523.63 1063.04,545.019 1063.73,523.308 1064.42,534.982 1065.11,528.554 1065.8,529.148 1066.49,535.47 1067.18,529.591 1067.87,534.732 1068.56,527.4 1069.25,527.968 1069.94,529.707 1070.63,529.901 1071.32,529.72 1072.01,532.86 1072.7,532.364 1073.39,528.691 1074.07,533.273 1074.76,528.397 1075.45,531.462 1076.14,538.469 1076.83,516.476 1077.52,537.735 1078.21,525.598 1078.9,540.374 1079.59,523.032 1080.28,539.744 1080.97,524.217 1081.66,534.479 1082.35,528.427 1083.04,532.602 1083.73,522.967 1084.42,540.958 1085.11,523.425 1085.8,538.794 1086.49,524.723 1087.18,544.491 1087.87,524.843 1088.56,536.249 1089.25,535.511 1089.94,527.362 1090.63,539.193 1091.32,522.05 1092.01,533.409 1092.7,525.868 1093.39,528.596 1094.08,529.53 1094.77,535.035 1095.46,522.298 1096.15,524.84 1096.84,525.879 1097.53,525.397 1098.22,535.612 1098.91,531.943 1099.6,525.581 1100.29,543.029 1100.98,525.203 1101.67,533.058 1102.36,527.176 1103.05,529.653 1103.74,529.245 1104.43,536.451 1105.12,519.937 1105.81,535.643 1106.5,527.508 1107.19,535.431 1107.87,529.429 1108.56,525.95 1109.25,537.188 1109.94,524.259 1110.63,536.655 1111.32,521.489 1112.01,535.628 1112.7,524.737 1113.39,540.521 1114.08,527.957 1114.77,515.817 1115.46,538.795 1116.15,523.437 1116.84,544.413 1117.53,519.956 1118.22,530.944 1118.91,526.884 1119.6,515.813 1120.29,537.413 1120.98,518.63 1121.67,537.312 1122.36,525.885 1123.05,528.255 1123.74,533.518 1124.43,513.196 1125.12,531.851 1125.81,527.448 1126.5,532.239 1127.19,520.957 1127.88,534.46 1128.57,526.61 1129.26,524.196 1129.95,535.241 1130.64,525.988 1131.33,529.014 1132.02,536.416 1132.71,521.624 1133.4,533.543 1134.09,524.639 1134.78,530.954 1135.47,536.228 1136.16,526.009 1136.85,535.686 1137.54,528.071 1138.23,534.974 1138.92,522.988 1139.61,522.82 1140.3,538.085 1140.99,523.628 1141.67,512.766 1142.36,541.073 1143.05,525.098 1143.74,528.825 1144.43,536.395 1145.12,520.476 1145.81,530.118 1146.5,534.008 1147.19,531.372 1147.88,530.231 1148.57,534.269 1149.26,537.29 1149.95,520.946 1150.64,530.043 1151.33,532.445 1152.02,523.091 1152.71,524.698 1153.4,543.953 1154.09,528.915 1154.78,526.89 1155.47,543.685 1156.16,528.12 1156.85,532.983 1157.54,537.698 1158.23,528.399 1158.92,539.818 1159.61,533.991 1160.3,536.419 1160.99,526.531 1161.68,529.515 1162.37,525.38 1163.06,535.939 1163.75,531.056 1164.44,533.605 1165.13,529.567 1165.82,537.326 1166.51,529.136 1167.2,523.991 1167.89,529.088 1168.58,530.87 1169.27,530.838 1169.96,530.611 1170.65,532.124 1171.34,527.312 1172.03,536.861 1172.72,527.166 1173.41,532.056 1174.1,529.827 1174.79,530.961 1175.47,528.51 1176.16,531.819 1176.85,528.017 1177.54,533.68 1178.23,528.527 1178.92,532.638 1179.61,524.487 1180.3,535.541 1180.99,523.18 1181.68,537.89 1182.37,524.291 1183.06,543.033 1183.75,516.322 1184.44,527.389 1185.13,530.37 1185.82,529.44 1186.51,526.237 1187.2,533.046 1187.89,525.386 1188.58,518.227 1189.27,529.692 1189.96,524.904 1190.65,526.245 1191.34,524.133 1192.03,518.627 1192.72,531.811 1193.41,526.677 1194.1,529.192 1194.79,526.104 1195.48,528.737 1196.17,529.431 1196.86,530.02 1197.55,524.824 1198.24,532.851 1198.93,528.669 1199.62,532.208 1200.31,525.485 1201,531.584 1201.69,526.611 1202.38,530.008 1203.07,522.475 1203.76,535.271 1204.45,520.756 1205.14,534.585 1205.83,528.853 1206.52,515.469 1207.21,531.157 1207.9,528.402 1208.59,534.406 1209.27,525.175 1209.96,536.619 1210.65,525.741 1211.34,533.08 1212.03,528.835 1212.72,531.495 1213.41,531.854 1214.1,524.595 1214.79,536.508 1215.48,525.46 1216.17,538.411 1216.86,524.531 1217.55,539.705 1218.24,521.484 1218.93,534.556 1219.62,526.598 1220.31,529.666 1221,524.909 1221.69,526.858 1222.38,537.371 1223.07,524.06 1223.76,537.36 1224.45,523.285 1225.14,534.827 1225.83,536.213 1226.52,523.036 1227.21,535.751 1227.9,519.611 1228.59,539.63 1229.28,521.492 1229.97,540.702 1230.66,518.863 1231.35,541.58 1232.04,525.549 1232.73,530.41 1233.42,529.107 1234.11,528.309 1234.8,528.788 1235.49,532.23 1236.18,528.232 1236.87,531.746 1237.56,525.2 1238.25,534.061 1238.94,527.673 1239.63,531.194 1240.32,529.196 1241.01,535.053 1241.7,523.752 1242.39,535.525 1243.07,526.824 1243.76,535.375 1244.45,523.962 1245.14,533.329 1245.83,531.186 1246.52,519.843 1247.21,541.455 1247.9,522.807 1248.59,540.001 1249.28,524.32 1249.97,519.089 1250.66,523.3 1251.35,527.734 1252.04,526.694 1252.73,519.973 1253.42,536.915 1254.11,519.744 1254.8,534.389 1255.49,519.548 1256.18,537.443 1256.87,521.246 1257.56,521.546 1258.25,532.796 1258.94,522.781 1259.63,523.826 1260.32,537.434 1261.01,525.299 1261.7,532.973 1262.39,528.273 1263.08,533.549 1263.77,529.157 1264.46,529.864 1265.15,525.342 1265.84,532.915 1266.53,515.364 1267.22,545.151 1267.91,520.088 1268.6,536.729 1269.29,526.122 1269.98,518.805 1270.67,527.551 1271.36,523.27 1272.05,531.519 1272.74,531.369 1273.43,529.218 1274.12,528.312 1274.81,528.858 1275.5,525.773 1276.19,531.908 1276.87,529.022 1277.56,532.056 1278.25,534.107 1278.94,522.887 1279.63,539.921 1280.32,517.379 1281.01,542.431 1281.7,536.74 1282.39,513.363 1283.08,541.733 1283.77,522.862 1284.46,551.019 1285.15,524.066 1285.84,551.601 1286.53,522.599 1287.22,526.833 1287.91,534.708 1288.6,545.072 1289.29,523.853 1289.98,545.39 1290.67,530.998 1291.36,545.917 1292.05,520.181 1292.74,544.574 1293.43,527.407 1294.12,534.247 1294.81,510.569 1295.5,535.902 1296.19,544.882 1296.88,530.415 1297.57,529.052 1298.26,540.114 1298.95,531.772 1299.64,530.67 1300.33,539.818 1301.02,541.054 1301.71,532.033 1302.4,532.189 1303.09,531.772 1303.78,540.15 1304.47,521.648 1305.16,533.754 1305.85,510.53 1306.54,544.245 1307.23,533.356 1307.92,547.194 1308.61,530.138 1309.3,528.634 1309.99,540.637 1310.68,528.366 1311.36,533.127 1312.05,534.1 1312.74,528.624 1313.43,541.086 1314.12,525.16 1314.81,521.96 1315.5,540.283 1316.19,510.387 1316.88,543.851 1317.57,519.77 1318.26,542.696 1318.95,533.111 1319.64,547.135 1320.33,524.762 1321.02,528.992 1321.71,540.14 1322.4,538.705 1323.09,531.112 1323.78,519.776 1324.47,541.776 1325.16,531.112 1325.85,531.765 1326.54,538.114 1327.23,522.435 1327.92,540.698 1328.61,520.463 1329.3,538.134 1329.99,528.861 1330.68,531.558 1331.37,512.531 1332.06,541.234 1332.75,514.264 1333.44,518.286 1334.13,536.203 1334.82,525.515 1335.51,532.156 1336.2,546.339 1336.89,530.349 1337.58,524.634 1338.27,521.221 1338.96,517.686 1339.65,514.197 1340.34,533.091 1341.03,542.308 1341.72,539.608 1342.41,508.714 1343.1,531.161 1343.79,544.246 1344.48,526.995 1345.16,538.37 1345.85,533.085 1346.54,525.432 1347.23,517.226 1347.92,526.99 1348.61,520.426 1349.3,547.114 1349.99,536.654 1350.68,528.523 1351.37,550.501 1352.06,513.618 1352.75,539.411 1353.44,525.752 1354.13,552.02 1354.82,531.855 1355.51,537.153 1356.2,527.718 1356.89,523.015 1357.58,524.807 1358.27,531.465 1358.96,536.475 1359.65,532.291 1360.34,522.007 1361.03,524.233 1361.72,507.242 1362.41,522.031 1363.1,520.757 1363.79,519.929 1364.48,516.711 1365.17,530.653 1365.86,532.224 1366.55,528.342 1367.24,520.696 1367.93,525.966 1368.62,518.941 1369.31,542.055 1370,512.735 1370.69,526.468 1371.38,534.714 1372.07,511.227 1372.76,529.965 1373.45,536.089 1374.14,525.453 1374.83,518.036 1375.52,521.811 1376.21,524.907 1376.9,521.107 1377.59,530.288 1378.28,527.179 1378.96,518.703 1379.65,520.797 1380.34,516.705 1381.03,541.465 1381.72,526.661 1382.41,526.833 1383.1,514.3 1383.79,525.386 1384.48,537.452 1385.17,536.313 1385.86,515.913 1386.55,524.805 1387.24,526.94 1387.93,527.391 1388.62,523.26 1389.31,520.269 1390,531.156 1390.69,525.146 1391.38,530.879 1392.07,515.719 1392.76,529.422 1393.45,523.637 1394.14,535.468 1394.83,521.851 1395.52,530.446 1396.21,530.688 1396.9,536.562 1397.59,531.357 1398.28,526.432 1398.97,539.984 1399.66,514.634 1400.35,534.997 1401.04,529.437 1401.73,540.23 1402.42,528.585 1403.11,516.45 1403.8,536.076 1404.49,524.776 1405.18,527.714 1405.87,529.32 1406.56,530.644 1407.25,527.228 1407.94,526.201 1408.63,529.799 1409.32,519.393 1410.01,534.096 1410.7,526.869 1411.39,539.93 1412.08,514.189 1412.76,553.714 1413.45,513.894 1414.14,542.897 1414.83,515.898 1415.52,544.397 1416.21,517.337 1416.9,537.136 1417.59,530.022 1418.28,528.365 1418.97,526.548 1419.66,535.13 1420.35,522.236 1421.04,545.652 1421.73,521.984 1422.42,530.367 1423.11,517.218 1423.8,526.491 1424.49,536.589 1425.18,528.864 1425.87,525.643 1426.56,529.409 1427.25,527.367 1427.94,529.9 1428.63,527.99 1429.32,527.55 1430.01,519.616 1430.7,539.479 1431.39,527.662 1432.08,530.26 1432.77,527.004 1433.46,533.063 1434.15,519.049 1434.84,525.443 1435.53,511.925 1436.22,509.865 1436.91,526.511 1437.6,530.479 1438.29,520.559 1438.98,540.493 1439.67,527.114 1440.36,533.728 1441.05,525.198 1441.74,512.173 1442.43,521.177 1443.12,531.054 1443.81,534.88 1444.5,512.787 1445.19,538.861 1445.88,518.097 1446.56,541.683 1447.25,531.075 1447.94,526.896 1448.63,528.431 1449.32,541.764 1450.01,520.08 1450.7,536.345 1451.39,530.449 1452.08,521.817 1452.77,544.963 1453.46,519.98 1454.15,532.278 1454.84,514.247 1455.53,529.995 1456.22,543.785 1456.91,526.257 1457.6,548.351 1458.29,521.688 1458.98,540.13 1459.67,533.842 1460.36,523.822 1461.05,527.363 1461.74,540.543 1462.43,532.534 1463.12,533.453 1463.81,525.318 1464.5,537.685 1465.19,527.038 1465.88,537.526 1466.57,526.46 1467.26,540.948 1467.95,521.083 1468.64,531.852 1469.33,536.771 1470.02,522.06 1470.71,541.887 1471.4,516.347 1472.09,533.957 1472.78,529.047 1473.47,537.954 1474.16,538.573 1474.85,526.699 1475.54,518.859 1476.23,542.224 1476.92,508.615 1477.61,542.985 1478.3,524.82 1478.99,538.698 1479.68,522.357 1480.36,528.062 1481.05,530.393 1481.74,529.447 1482.43,538.208 1483.12,524.277 1483.81,548.105 1484.5,528.948 1485.19,518.246 1485.88,536.986 1486.57,530.295 1487.26,520.742 1487.95,534.608 1488.64,542.293 1489.33,516.079 1490.02,534.066 1490.71,517.713 1491.4,526.025 1492.09,532.113 1492.78,518.029 1493.47,537.683 1494.16,533.399 1494.85,534.232 1495.54,522.547 1496.23,538.63 1496.92,519.493 1497.61,540.334 1498.3,521.471 1498.99,527.829 1499.68,532.835 1500.37,541.444 1501.06,529.549 1501.75,528.999 1502.44,523.287 1503.13,527.46 1503.82,546.951 1504.51,516.206 1505.2,523.459 1505.89,518.745 1506.58,534.338 1507.27,529.145 1507.96,549.459 1508.65,529.665 1509.34,541.052 1510.03,538.338 1510.72,535.288 1511.41,547.711 1512.1,508.449 1512.79,535.22 1513.48,512.629 1514.16,525.147 1514.85,512.577 1515.54,529.015 1516.23,515.116 1516.92,526.34 1517.61,546.818 1518.3,532.199 1518.99,523.602 1519.68,521.644 1520.37,522.633 1521.06,527.607 1521.75,541.898 1522.44,540.87 1523.13,541.678 1523.82,534.877 1524.51,517.017 1525.2,550.233 1525.89,532.524 1526.58,543.203 1527.27,510.531 1527.96,540.286 1528.65,532.069 1529.34,527.979 1530.03,526.911 1530.72,532.038 1531.41,540.808 1532.1,509.78 1532.79,533.565 1533.48,534.975 1534.17,546.582 1534.86,536.428 1535.55,525.792 1536.24,531.194 1536.93,542.334 1537.62,532.065 1538.31,548.339 1539,517.865 1539.69,522.546 1540.38,523.829 1541.07,544.902 1541.76,540.465 1542.45,540.983 1543.14,545.797 1543.83,534.269 1544.52,539.227 1545.21,544.04 1545.9,517.278 1546.59,524.259 1547.28,517.438 1547.97,543.599 1548.65,522.515 1549.34,516.154 1550.03,528.48 1550.72,527.504 1551.41,532.647 1552.1,522.893 1552.79,508.899 1553.48,522.975 1554.17,512.852 1554.86,518.602 1555.55,511.393 1556.24,528.819 1556.93,537.487 1557.62,542.506 1558.31,537.612 1559,523.385 1559.69,516.617 1560.38,519.802 1561.07,524.862 1561.76,535.55 1562.45,524.986 1563.14,533.381 1563.83,524.976 1564.52,541.055 1565.21,527.117 1565.9,530.598 1566.59,530.937 1567.28,531.457 1567.97,531.873 1568.66,528.813 1569.35,532.278 1570.04,528.512 1570.73,529.939 1571.42,528.882 1572.11,540.769 1572.8,518.142 1573.49,542.094 1574.18,528.981 1574.87,520.758 1575.56,544.476 1576.25,514.671 1576.94,534.219 1577.63,513.575 1578.32,534.588 1579.01,528.801 1579.7,529.044 1580.39,529.427 1581.08,531.597 1581.77,523.249 1582.45,535.519 1583.14,533.216 1583.83,541.512 1584.52,523.502 1585.21,527.916 1585.9,532.058 1586.59,525.624 1587.28,535.339 1587.97,533.164 1588.66,526.671 1589.35,534.467 1590.04,529.659 1590.73,536.847 1591.42,523.798 1592.11,531.465 1592.8,539.083 1593.49,525.476 1594.18,536.388 1594.87,535.272 1595.56,518.471 1596.25,538.801 1596.94,521.34 1597.63,542.269 1598.32,524.57 1599.01,533.126 1599.7,528.9 1600.39,530.675 1601.08,525.771 1601.77,530.971 1602.46,532.908 1603.15,530.051 1603.84,534.745 1604.53,528.982 1605.22,524.973 1605.91,529.167 1606.6,529.206 1607.29,523.914 1607.98,533.318 1608.67,525.031 1609.36,536.628 1610.05,532.537 1610.74,529.101 1611.43,529.958 1612.12,525.091 1612.81,533.319 1613.5,522.092 1614.19,524.887 1614.88,522.737 1615.57,539.684 1616.25,526.913 1616.94,528.668 1617.63,533.556 1618.32,524.247 1619.01,515.658 1619.7,527.757 1620.39,548.237 1621.08,512.667 1621.77,539.717 1622.46,522.489 1623.15,528.381 1623.84,537.243 1624.53,540.606 1625.22,538.312 1625.91,522.256 1626.6,526.937 1627.29,538.299 1627.98,532.059 1628.67,539.599 1629.36,519.474 1630.05,526.493 1630.74,532.481 1631.43,522.84 1632.12,542.796 1632.81,523.752 1633.5,521.786 1634.19,535.644 1634.88,524.641 1635.57,525.977 1636.26,524.887 1636.95,528.891 1637.64,528.524 1638.33,545.03 1639.02,521.952 1639.71,530.15 1640.4,533.094 1641.09,544.134 1641.78,519.053 1642.47,523.113 1643.16,521.258 1643.85,522.484 1644.54,529.957 1645.23,517.132 1645.92,529.471 1646.61,513.188 1647.3,532.459 1647.99,520.911 1648.68,535.199 1649.37,512.186 1650.05,535.633 1650.74,529.494 1651.43,532.737 1652.12,527.699 1652.81,513.884 1653.5,531.003 1654.19,528.856 1654.88,531.963 1655.57,532.344 1656.26,541.169 1656.95,511.792 1657.64,541.037 1658.33,520.745 1659.02,519.54 1659.71,529.126 1660.4,526.163 1661.09,540.958 1661.78,530.62 1662.47,539.098 1663.16,539.92 1663.85,522.144 1664.54,547.985 1665.23,506.75 1665.92,543.229 1666.61,526.231 1667.3,514.569 1667.99,534.346 1668.68,539.506 1669.37,523.95 1670.06,525.54 1670.75,522.9 1671.44,531.238 1672.13,531.349 1672.82,538.281 1673.51,522.754 1674.2,534.454 1674.89,528.321 1675.58,532.16 1676.27,528.591 1676.96,531.062 1677.65,527.681 1678.34,537.21 1679.03,528.297 1679.72,530.036 1680.41,524.437 1681.1,536.685 1681.79,525.651 1682.48,524.11 1683.17,536.78 1683.85,527.305 1684.54,532.723 1685.23,526.437 1685.92,540.069 1686.61,519.462 1687.3,540.171 1687.99,518.971 1688.68,543.061 1689.37,515.404 1690.06,529.258 1690.75,533.427 1691.44,527.548 1692.13,520.381 1692.82,534.644 1693.51,519.087 1694.2,533.826 1694.89,526.346 1695.58,532.448 1696.27,519.321 1696.96,531.761 1697.65,525.977 1698.34,530.174 1699.03,527.639 1699.72,526.006 1700.41,529.476 1701.1,527.254 1701.79,526.598 1702.48,540.184 1703.17,519.982 1703.86,539.543 1704.55,519.875 1705.24,538.729 1705.93,524.086 1706.62,527.656 1707.31,530.179 1708,531.641 1708.69,521.511 1709.38,533.78 1710.07,530.191 1710.76,538.237 1711.45,526.393 1712.14,535.814 1712.83,523.295 1713.52,537.534 1714.21,519.131 1714.9,537.143 1715.59,510.681 1716.28,546.149 1716.97,517.011 1717.65,529.054 1718.34,534.355 1719.03,526.657 1719.72,535.088 1720.41,520.988 1721.1,541.335 1721.79,519.39 1722.48,543.518 1723.17,517.578 1723.86,541.146 1724.55,522.028 1725.24,534.088 1725.93,531.555 1726.62,529.108 1727.31,525.278 1728,536.043 1728.69,514.577 1729.38,525.226 1730.07,525.339 1730.76,522.644 1731.45,529.415 1732.14,538.344 1732.83,524.151 1733.52,534.08 1734.21,524.988 1734.9,514.668 1735.59,535.257 1736.28,525.175 1736.97,528.62 1737.66,517.333 1738.35,535.881 1739.04,534.461 1739.73,529.261 1740.42,536.105 1741.11,528.365 1741.8,540.971 1742.49,527.15 1743.18,535.904 1743.87,513.917 1744.56,535.396 1745.25,527.69 1745.94,518.687 1746.63,532.713 1747.32,530.425 1748.01,527.393 1748.7,517.738 1749.39,515.096 1750.08,526.869 1750.77,533.544 1751.45,522.595 1752.14,530.377 1752.83,528.331 1753.52,518.646 1754.21,529.27 1754.9,521.2 1755.59,526.263 1756.28,532.232 1756.97,523.518 1757.66,522.378 1758.35,522.051 1759.04,537.396 1759.73,526.695 1760.42,522.329 1761.11,531.564 1761.8,526.298 1762.49,520.144 1763.18,524.125 1763.87,527.875 1764.56,545.895 1765.25,520.846 1765.94,533.535 1766.63,532.35 1767.32,524.584 1768.01,530.709 1768.7,528.318 1769.39,532.757 1770.08,538.954 1770.77,538.535 1771.46,522.817 1772.15,530.276 1772.84,516.926 1773.53,544.639 1774.22,531.167 1774.91,536.946 1775.6,525.832 1776.29,551.222 1776.98,506.017 1777.67,547.288 1778.36,513.989 1779.05,515.246 1779.74,518.069 1780.43,534.713 1781.12,542.158 1781.81,514.399 1782.5,525.713 1783.19,527.527 1783.88,547.206 1784.57,536.809 1785.26,532.06 1785.94,526.571 1786.63,533.96 1787.32,530.168 1788.01,530.453 1788.7,528.631 1789.39,515.611 1790.08,545.714 1790.77,522.352 1791.46,533.973 1792.15,541.561 1792.84,520.922 1793.53,538.844 1794.22,525.763 1794.91,531.666 1795.6,536.456 1796.29,525.158 1796.98,538.845 1797.67,535.925 1798.36,523.529 1799.05,530.947 1799.74,530.997 1800.43,522.044 1801.12,533.654 1801.81,518.873 1802.5,540.793 1803.19,522.547 1803.88,531.168 1804.57,531.752 1805.26,530.906 1805.95,529.269 1806.64,534.879 1807.33,525.883 1808.02,529.7 1808.71,536.189 1809.4,526.623 1810.09,526.184 1810.78,534.956 1811.47,533.844 1812.16,527.805 1812.85,537.57 1813.54,532.129 1814.23,522.868 1814.92,533.914 1815.61,539.438 1816.3,516.634 1816.99,540.437 1817.68,532.753 1818.37,528.84 1819.06,535.544 1819.74,528.174 1820.43,536.266 1821.12,531.163 1821.81,535.026 1822.5,520.921 1823.19,540.774 1823.88,528.758 1824.57,527.486 1825.26,541.904 1825.95,529.576 1826.64,537.96 1827.33,517.208 1828.02,530.481 1828.71,520.59 1829.4,535.022 1830.09,527.214 1830.78,528.99 1831.47,525.124 1832.16,537.275 1832.85,521.514 1833.54,517.082 1834.23,532.01 1834.92,532.177 1835.61,527.241 1836.3,526.595 1836.99,534.676 1837.68,523.284 1838.37,526.234 1839.06,531.395 1839.75,526.343 1840.44,537.656 1841.13,538.8 1841.82,523.405 1842.51,534.97 1843.2,530.224 1843.89,528.953 1844.58,533.445 1845.27,539.289 1845.96,516.527 1846.65,535.492 1847.34,534.498 1848.03,529.615 1848.72,530.044 1849.41,529.736 1850.1,525.293 1850.79,529.384 1851.48,528.034 1852.17,542.931 1852.86,518.63 1853.54,512.61 1854.23,539.471 1854.92,519.25 1855.61,543.027 1856.3,520.863 1856.99,540.126 1857.68,523.608 1858.37,536.902 1859.06,535.383 1859.75,522.627 1860.44,534.873 1861.13,527.409 1861.82,525.285 1862.51,523.858 1863.2,526.764 1863.89,528.611 1864.58,543.428 1865.27,508.717 1865.96,551.03 1866.65,510.542 1867.34,546.449 1868.03,519.653 1868.72,540.261 1869.41,529.18 1870.1,543.093 1870.79,523.729 1871.48,535.434 1872.17,525.666 1872.86,525.997 1873.55,532.876 1874.24,532.388 1874.93,533.545 1875.62,524.793 1876.31,530.486 1877,527.106 1877.69,526.478 1878.38,532.731 1879.07,524.849 1879.76,534.454 1880.45,524.277 1881.14,539.348 1881.83,518.423 1882.52,543.256 1883.21,523.634 1883.9,538.058 1884.59,513.521 1885.28,535.464 1885.97,523.178 1886.66,536.505 1887.34,523.15 1888.03,531.64 1888.72,523.414 1889.41,542.241 1890.1,513.772 1890.79,539.236 1891.48,517.764 1892.17,524.07 1892.86,512.958 1893.55,536.711 1894.24,530.356 1894.93,528.249 1895.62,538.265 1896.31,534.037 1897,527.016 1897.69,534.001 1898.38,526.454 1899.07,533.677 1899.76,526.995 1900.45,524.392 1901.14,536.425 1901.83,524.942 1902.52,535.528 1903.21,523.794 1903.9,535.959 1904.59,524.572 1905.28,536.822 1905.97,523.561 1906.66,537.329 1907.35,522.855 1908.04,537.891 1908.73,521.529 1909.42,539.645 1910.11,522.05 1910.8,539.295 1911.49,521.338 1912.18,539.132 1912.87,521.311 1913.56,540.065 1914.25,520.43 1914.94,538.736 1915.63,522 1916.32,518.216 1917.01,542.308 1917.7,517.627 1918.39,536.693 1919.08,524.701 1919.77,536.066 1920.46,524.678 1921.14,536.111 1921.83,524.911 1922.52,519.434 1923.21,541.222 1923.9,518.966 1924.59,541.753 1925.28,519.334 1925.97,537.419 1926.66,522.344 1927.35,529.144 1928.04,531.035 1928.73,517.144 1929.42,521.231 1930.11,539.34 1930.8,521.032 1931.49,538.658 1932.18,523.024 1932.87,536.116 1933.56,524.208 1934.25,536.238 1934.94,524.149 1935.63,536.287 1936.32,517.852 1937.01,538.894 1937.7,522.211 1938.39,537.042 1939.08,523.648 1939.77,525.765 1940.46,535.364 1941.15,524.055 1941.84,527.508 1942.53,529.024 1943.22,531.113 1943.91,529.887 1944.6,530.332 1945.29,530.206 1945.98,530.892 1946.67,530.268 1947.36,530.874 1948.05,529.021 1948.74,531.263 1949.43,529.72 1950.12,530.795 1950.81,530.023 1951.5,523.735 1952.19,530.874 1952.88,520.868 1953.57,534.292 1954.26,522.883 1954.94,536.978 1955.63,513.912 1956.32,555.09 1957.01,504.811 1957.7,545.185 1958.39,527.777 1959.08,525.054 1959.77,549.424 1960.46,525.788 1961.15,533.024 1961.84,531.766 1962.53,523.639 1963.22,528.642 1963.91,547.552 1964.6,532.789 1965.29,520.279 1965.98,523.009 1966.67,530.67 1967.36,543.667 1968.05,514.163 1968.74,531.099 1969.43,524.324 1970.12,531.389 1970.81,513.465 1971.5,534.037 1972.19,548.573 1972.88,505.982 1973.57,547.121 1974.26,512.757 1974.95,547.383 1975.64,531.568 1976.33,532.825 1977.02,544.086 1977.71,536.098 1978.4,512.457 1979.09,555.219 1979.78,511.358 1980.47,544.759 1981.16,517.119 1981.85,521.041 1982.54,519.514 1983.23,531.026 1983.92,546.23 1984.61,529.511 1985.3,528.971 1985.99,521.16 1986.68,537.665 1987.37,541.89 1988.06,510.109 1988.74,519.289 1989.43,543.318 1990.12,538.203 1990.81,534.743 1991.5,517.722 1992.19,541.004 1992.88,519.143 1993.57,541.725 1994.26,529.229 1994.95,522.334 1995.64,526.405 1996.33,525.544 1997.02,524.472 1997.71,521.423 1998.4,516.086 1999.09,527.732 1999.78,534.163 2000.47,526.329 2001.16,526.113 2001.85,521.91 2002.54,527.798 2003.23,519.169 2003.92,529.659 2004.61,540.178 2005.3,523.436 2005.99,514.831 2006.68,532.167 2007.37,514.011 2008.06,539.135 2008.75,514.412 2009.44,526.264 2010.13,520.045 2010.82,531.61 2011.51,526.661 2012.2,549.648 2012.89,529.85 2013.58,545.905 2014.27,531.557 2014.96,529.357 2015.65,512.748 2016.34,530.114 2017.03,540.847 2017.72,524.828 2018.41,521.031 2019.1,536.736 2019.79,527.339 2020.48,533.851 2021.17,525.196 2021.86,532.902 2022.55,523.852 2023.23,516.743 2023.92,529.084 2024.61,514.073 2025.3,521.909 2025.99,538.273 2026.68,524.77 2027.37,522.269 2028.06,531.968 2028.75,525.74 2029.44,545.181 2030.13,531.843 2030.82,530.667 2031.51,540.578 2032.2,531.257 2032.89,529.446 2033.58,519.714 2034.27,541.37 2034.96,529.277 2035.65,537.433 2036.34,536.807 2037.03,538.093 2037.72,543.558 2038.41,533.57 2039.1,519.116 2039.79,539.455 2040.48,527.394 2041.17,538.904 2041.86,521.091 2042.55,528.763 2043.24,539.275 2043.93,518.528 2044.62,523.363 2045.31,526.784 2046,509.996 2046.69,545.436 2047.38,530.56 2048.07,529.877 2048.76,515.758 2049.45,525.986 2050.14,524.009 2050.83,514.547 2051.52,533.453 2052.21,534.644 2052.9,528.605 2053.59,538.206 2054.28,519.553 2054.97,521.497 2055.66,514.242 2056.35,516.735 2057.03,532.419 2057.72,522.918 2058.41,538.012 2059.1,523.753 2059.79,532.939 2060.48,522.395 2061.17,521.084 2061.86,543.965 2062.55,513.972 2063.24,543.358 2063.93,538.11 2064.62,529.045 2065.31,515.297 2066,540.56 2066.69,522.615 2067.38,528.646 2068.07,545.721 2068.76,528.961 2069.45,537.45 2070.14,525.729 2070.83,532.207 2071.52,526.461 2072.21,529.817 2072.9,538.746 2073.59,529.979 2074.28,532.62 2074.97,517.098 2075.66,535.96 2076.35,527.113 2077.04,538.309 2077.73,522.094 2078.42,536.051 2079.11,527.376 2079.8,525.386 2080.49,540.925 2081.18,529.178 2081.87,535.819 2082.56,523.108 2083.25,543.83 2083.94,505.871 2084.63,544.016 2085.32,518.068 2086.01,545.962 2086.7,529.038 2087.39,529.599 2088.08,532.794 2088.77,528.497 2089.46,534.66 2090.15,531.291 2090.83,523.589 2091.52,526.991 2092.21,529.698 2092.9,527.966 2093.59,525.192 2094.28,545.313 2094.97,524.903 2095.66,519.143 2096.35,543.16 2097.04,521.733 2097.73,535.229 2098.42,512.019 2099.11,520.652 2099.8,531.965 2100.49,522.184 2101.18,537.389 2101.87,528.128 2102.56,516.775 2103.25,535.429 2103.94,513.03 2104.63,539.051 2105.32,514.629 2106.01,530.632 2106.7,537.453 2107.39,532.615 2108.08,525.312 2108.77,530.101 2109.46,519.523 2110.15,546.03 2110.84,506.977 2111.53,548.736 2112.22,505.575 2112.91,540.353 2113.6,521.563 2114.29,521.474 2114.98,537.541 2115.67,524.809 2116.36,534.511 2117.05,531.076 2117.74,535.2 2118.43,540.628 2119.12,515.792 2119.81,541.793 2120.5,516.863 2121.19,543.323 2121.88,524.741 2122.57,543.436 2123.26,518.22 2123.95,534.23 2124.63,528.493 2125.32,527.143 2126.01,532.817 2126.7,527.787 2127.39,541.363 2128.08,517.185 2128.77,540.746 2129.46,510.5 2130.15,547.265 2130.84,523.654 2131.53,531.432 2132.22,523.765 2132.91,535.777 2133.6,512.931 2134.29,543.774 2134.98,523.555 2135.67,531.371 2136.36,528.238 2137.05,526.27 2137.74,532.275 2138.43,516.86 2139.12,536.619 2139.81,522.102 2140.5,535.385 2141.19,523.705 2141.88,528.98 2142.57,531.926 2143.26,525.165 2143.95,532.22 2144.64,533.355 2145.33,522.21 2146.02,528.328 2146.71,521.625 2147.4,544.831 2148.09,520.913 2148.78,542.956 2149.47,522.118 2150.16,537.798 2150.85,526.368 2151.54,526.86 2152.23,536.013 2152.92,525.633 2153.61,541.212 2154.3,522.911 2154.99,520.548 2155.68,533.533 2156.37,528.149 2157.06,528.339 2157.75,529.966 2158.43,529.145 2159.12,528.611 2159.81,527.282 2160.5,532.52 2161.19,524.713 2161.88,533.35 2162.57,529.86 2163.26,535.905 2163.95,532.082 2164.64,520.981 2165.33,529.841 2166.02,530.735 2166.71,533.824 2167.4,520.711 2168.09,517.217 2168.78,536.193 2169.47,524.6 2170.16,532.753 2170.85,530.659 2171.54,514.934 2172.23,534.611 2172.92,525.276 2173.61,522.707 2174.3,529.858 2174.99,532.378 2175.68,544.003 2176.37,519.511 2177.06,529.568 2177.75,517.796 2178.44,537.87 2179.13,525.193 2179.82,523.431 2180.51,530.521 2181.2,537.155 2181.89,520.48 2182.58,530.132 2183.27,525.398 2183.96,534.113 2184.65,531.132 2185.34,532.615 2186.03,533.178 2186.72,532.117 2187.41,534.842 2188.1,527.397 2188.79,542.789 2189.48,521.76 2190.17,530.947 2190.86,529.882 2191.55,534.38 2192.23,539.508 2192.92,519.355 2193.61,539.825 2194.3,524.709 2194.99,519.573 2195.68,546.382 2196.37,517.851 2197.06,534.45 2197.75,532.089 2198.44,539.727 2199.13,533.653 2199.82,527.838 2200.51,532.992 2201.2,518.663 2201.89,547.636 2202.58,510.878 2203.27,521.049 2203.96,545.379 2204.65,513.479 2205.34,531.572 2206.03,540.875 2206.72,526.226 2207.41,541.11 2208.1,528.562 2208.79,515.372 2209.48,533.379 2210.17,541.539 2210.86,523.879 2211.55,541.677 2212.24,536.08 2212.93,523.341 2213.62,542.337 2214.31,508.574 2215,541.447 2215.69,533.046 2216.38,525.895 2217.07,521.004 2217.76,540.273 2218.45,526.514 2219.14,530.708 2219.83,533.048 2220.52,526.75 2221.21,537.644 2221.9,522.62 2222.59,528.602 2223.28,516.91 2223.97,536.238 2224.66,530.126 2225.35,531.142 2226.03,540.09 2226.72,527.048 2227.41,532.361 2228.1,535.31 2228.79,537.446 2229.48,513.465 2230.17,547.733 2230.86,524.58 2231.55,546.691 2232.24,512.347 2232.93,542.176 2233.62,518.124 2234.31,542.466 2235,519.227 2235.69,544.534 2236.38,517.969 2237.07,545.182 2237.76,518.159 2238.45,521.859 2239.14,528.084 2239.83,535.551 2240.52,529.607 2241.21,523.749 2241.9,535.752 2242.59,526.044 2243.28,524.426 2243.97,521.131 2244.66,533.707 2245.35,518.493 2246.04,528.36 2246.73,536.881 2247.42,526.204 2248.11,525.963 2248.8,522.233 2249.49,526.883 2250.18,535.546 2250.87,525.723 2251.56,533.284 2252.25,535.781 2252.94,535.242 2253.63,528.894 2254.32,526.004 2255.01,537.331 2255.7,533.193 2256.39,520.226 2257.08,535.651 2257.77,526.304 2258.46,533.157 2259.15,532.001 2259.84,530.572 2260.52,525.076 2261.21,538.113 2261.9,519.448 2262.59,542.607 2263.28,524.332 2263.97,514.954 2264.66,527.375 2265.35,534.326 2266.04,529.191 2266.73,525.008 2267.42,533.413 2268.11,538.081 2268.8,522.633 2269.49,535.544 2270.18,521.726 2270.87,543.708 2271.56,524.855 2272.25,529.553 2272.94,517.03 2273.63,535.509 2274.32,536.743 2275.01,523.481 2275.7,534.336 2276.39,528.506 2277.08,527.927 2277.77,527.71 2278.46,541.155 2279.15,517.667 2279.84,539.551 2280.53,524.187 2281.22,534.208 2281.91,532.338 2282.6,529.632 2283.29,526.855 2283.98,530.546 2284.67,530.262 2285.36,526.639 2286.05,536.644 2286.74,527.907 2287.43,524.288 2288.12,535.728 2288.81,521.525 2289.5,537.261 2290.19,525.279 2290.88,532.831 2291.57,526.638 2292.26,530.072 2292.95,513.855 2293.64,545.177 2294.32,513.357 2295.01,544.361 2295.7,522.882 2296.39,527.096 2297.08,530.233 2297.77,537.216 2298.46,525.097 2299.15,536.804 2299.84,518.617 2300.53,539.705 2301.22,526.623 2301.91,536.32 2302.6,518.656 2303.29,526.582 2303.98,536.004 2304.67,515.005 2305.36,548.428 2306.05,513.937 2306.74,544.457 2307.43,521.93 2308.12,537.235 2308.81,527.685 2309.5,536.669 2310.19,519.304 2310.88,530.417 2311.57,523.204 2312.26,534.169 2312.95,531.787 2313.64,530.385 2314.33,532.516 2315.02,530.279 2315.71,535.163 2316.4,528.33 2317.09,533.469 2317.78,522.261 2318.47,532.171 2319.16,526.537 2319.85,534.747 2320.54,515.045 2321.23,545.411 2321.92,519.243 2322.61,532.267 2323.3,532.611 2323.99,529.456 2324.68,527.591 2325.37,523.328 2326.06,537.123 2326.75,526.064 2327.44,534.582 2328.12,528.62 2328.81,527.844 2329.5,522.209 2330.19,534.359 2330.88,530.929 2331.57,525.263 2332.26,545.253 2332.95,518.418 2333.64,534.274 2334.33,525.322 2335.02,523.433 2335.71,541.956 2336.4,522.647 2337.09,537.134 2337.78,523.991 2338.47,535.171 2339.16,517.586 2339.85,538.914 2340.54,523.863 2341.23,529.718 2341.92,524.722 2342.61,539.514 2343.3,517.93 2343.99,539.774 2344.68,520.7 2345.37,538.766 2346.06,523.767 2346.75,534.239 2347.44,526.42 2348.13,535.519 2348.82,522.077 2349.51,539.732 2350.2,519.936 2350.89,540.607 2351.58,521.857 2352.27,537.967 2352.96,525.488 2353.65,534.722 2354.34,525.61 2355.03,532.939 2355.72,527.419 2356.41,530.568 2357.1,530.914 2357.79,528.741 2358.48,530.741 2359.17,530.448 2359.86,527.8 2360.55,530.578 2361.24,527.294 2361.92,531.365 2362.61,528.283 2363.3,532.698 2363.99,527.965 2364.68,532.217 2365.37,525.918 2366.06,534.083 2366.75,524.17 2367.44,541.454 2368.13,520.001 2368.82,541.232 2369.51,520.058 2370.2,538.656 2370.89,521.12 2371.58,537.827 2372.27,522.943 2372.96,535.45 2373.65,526.907 2374.34,534.88 2375.03,525.027 2375.72,537.002 2376.41,523.275 2377.1,533.624 2377.79,528.437 2378.48,531.128 2379.17,527.363 2379.86,529.827 2380.55,532.691 2381.24,528.009 2381.93,528.434 2382.62,532.95 2383.31,530.117 2384,530.027 2384.69,532.018 2385.38,527.496 2386.07,533.494 2386.76,522.863 2387.45,535.248 2388.14,526.91 2388.83,533.598 2389.52,525.166 2390.21,539.304 2390.9,521.941 2391.59,538.35 2392.28,518.822 2392.97,541.107 2393.66,518.805 2394.35,539.967 2395.04,524.611 2395.72,536.59 2396.41,524.464 2397.1,538.304 2397.79,522.792 2398.48,536.872 2399.17,512.513 2399.86,539.577 2400.55,509.478 2401.24,539.42 2401.93,511.588 2402.62,537.553 2403.31,517.633 2404,543.445 2404.69,516.658 2405.38,533.748 2406.07,521.739 2406.76,516.796 2407.45,529.782 2408.14,525.119 2408.83,531.552 2409.52,531.86 2410.21,527.449 2410.9,523.834 2411.59,538.36 2412.28,525.314 2412.97,534.257 2413.66,516.697 2414.35,532.199 2415.04,521.34 2415.73,534.77 2416.42,528.402 2417.11,525.465 2417.8,530.117 2418.49,530.235 2419.18,524.045 2419.87,533.342 2420.56,524.268 2421.25,527.737 2421.94,534.913 2422.63,521.693 2423.32,535.328 2424.01,522.217 2424.7,527.58 2425.39,513.676 2426.08,536.572 2426.77,520.208 2427.46,524.709 2428.15,531.209 2428.84,544.536 2429.52,527.513 2430.21,529.178 2430.9,533.776 2431.59,522.513 2432.28,529.909 2432.97,538.897 2433.66,521.765 2434.35,542.724 2435.04,518.792 2435.73,532.625 2436.42,530.046 2437.11,531.989 2437.8,530.725 2438.49,526.134 2439.18,535.908 2439.87,524.624 2440.56,545.716 2441.25,527.707 2441.94,521.793 2442.63,539.669 2443.32,526.274 2444.01,530.771 2444.7,540.58 2445.39,528.18 2446.08,530.234 2446.77,520.079 2447.46,537.306 2448.15,536.323 2448.84,531.123 2449.53,529.078 2450.22,537.363 2450.91,531.492 2451.6,527.397 2452.29,546.576 2452.98,522.271 2453.67,532.234 2454.36,528.444 2455.05,519.493 2455.74,519.001 2456.43,527.205 2457.12,518.7 2457.81,527.672 2458.5,511.931 2459.19,520.599 2459.88,523.444 2460.57,526.506 2461.26,520.956 2461.95,532.46 2462.64,540.76 2463.32,529.473 2464.01,541.631 2464.7,529.965 2465.39,530.312 2466.08,543.857 2466.77,519.006 2467.46,518.482 2468.15,534.778 2468.84,525.513 2469.53,531.518 2470.22,531.656 2470.91,527.548 2471.6,529.95 2472.29,526.96 2472.98,537.228 2473.67,539.349 2474.36,515.892 2475.05,528.639 2475.74,531.589 2476.43,535.716 2477.12,525.675 2477.81,516.926 2478.5,520.133 2479.19,521.347 2479.88,537.422 2480.57,520.093 2481.26,543.34 2481.95,538.482 2482.64,513.019 2483.33,553.493 2484.02,518.704 2484.71,524.551 2485.4,530.976 2486.09,542.919 2486.78,518.561 2487.47,530.569 2488.16,539.301 2488.85,540.7 2489.54,536.933 2490.23,535.045 2490.92,529.425 2491.61,515.883 2492.3,524.153 2492.99,529.771 2493.68,538.87 2494.37,541.167 2495.06,524.126 2495.75,528.325 2496.44,539.584 2497.13,534.812 2497.81,515.255 2498.5,540.651 2499.19,524.805 2499.88,531.716 2500.57,526.638 2501.26,543.826 2501.95,515.492 2502.64,516.474 2503.33,527.861 2504.02,530.521 2504.71,536.267 2505.4,535.997 2506.09,510.561 2506.78,553.172 2507.47,514.404 2508.16,538.174 2508.85,530.692 2509.54,536.81 2510.23,522.661 2510.92,527.506 2511.61,524.779 2512.3,517.759 2512.99,534.23 2513.68,535.348 2514.37,540.443 2515.06,527.314 2515.75,516.928 2516.44,527.734 2517.13,525.963 2517.82,545.983 2518.51,528.864 2519.2,545.802 2519.89,509.833 2520.58,540.242 2521.27,522.288 2521.96,528.795 2522.65,519.628 2523.34,534.823 2524.03,523.911 2524.72,542.969 2525.41,521.05 2526.1,530.721 2526.79,526.556 2527.48,527.606 2528.17,522.04 2528.86,530.967 2529.55,528.592 2530.24,534.454 2530.93,535.255 2531.61,534.837 2532.3,529.083 2532.99,536.863 2533.68,523.581 2534.37,544.87 2535.06,513.663 2535.75,535.732 2536.44,532.802 2537.13,539.081 2537.82,533.729 2538.51,516.199 2539.2,531.469 2539.89,539.64 2540.58,540.168 2541.27,529.947 2541.96,546.296 2542.65,527.955 2543.34,527.572 2544.03,538.484 2544.72,529.557 2545.41,534.09 2546.1,532.198 2546.79,524.87 2547.48,544.425 2548.17,527.976 2548.86,541.297 2549.55,531.414 2550.24,541.83 2550.93,529.161 2551.62,532.213 2552.31,519.711 2553,533.902 2553.69,536.022 2554.38,524.719 2555.07,533.316 2555.76,526.465 2556.45,543.401 2557.14,518.867 2557.83,530.859 2558.52,525.616 2559.21,529.593 2559.9,520.927 2560.59,523.492 2561.28,518.925 2561.97,524.435 2562.66,525.539 2563.35,540.715 2564.04,538.714 2564.73,516.127 2565.41,551.934 2566.1,515.373 2566.79,521.699 2567.48,535.1 2568.17,520.943 2568.86,540.317 2569.55,514.116 2570.24,538.772 2570.93,529.036 2571.62,536.06 2572.31,530.164 2573,545.358 2573.69,521.509 2574.38,537.365 2575.07,538.735 2575.76,531.328 2576.45,535.53 2577.14,526.753 2577.83,531.03 2578.52,523.228 2579.21,528.684 2579.9,538.239 2580.59,513.679 2581.28,553.211 2581.97,511.898 2582.66,534.515 2583.35,528.779 2584.04,523.87 2584.73,530.582 2585.42,513.606 2586.11,532.845 2586.8,528.875 2587.49,518.922 2588.18,534.623 2588.87,540.972 2589.56,524.48 2590.25,530.013 2590.94,536.708 2591.63,522.171 2592.32,529.541 2593.01,533.225 2593.7,523.692 2594.39,534.166 2595.08,523.972 2595.77,533.723 2596.46,532.538 2597.15,516.392 2597.84,537.316 2598.53,531.698 2599.21,527.556 2599.9,533.678 2600.59,530.076 2601.28,543.907 2601.97,535.392 2602.66,538.108 2603.35,515.18 2604.04,536.845 2604.73,526.184 2605.42,528.223 2606.11,540.494 2606.8,521.427 2607.49,539.335 2608.18,522.184 2608.87,532.313 2609.56,530.98 2610.25,527.831 2610.94,526.033 2611.63,531.154 2612.32,541.091 2613.01,525.266 2613.7,525.184 2614.39,526.804 2615.08,526.582 2615.77,531.324 2616.46,521.609 2617.15,519.937 2617.84,524.247 2618.53,529.621 2619.22,542.813 2619.91,511.016 2620.6,530.767 2621.29,527.831 2621.98,536.12 2622.67,526.396 2623.36,532.033 2624.05,524.567 2624.74,539.365 2625.43,521.693 2626.12,538.058 2626.81,520.302 2627.5,540.958 2628.19,522.742 2628.88,536.431 2629.57,526.314 2630.26,531.757 2630.95,530.296 2631.64,529.329 2632.33,534.595 2633.01,523.186 2633.7,536.269 2634.39,527.399 2635.08,528.892 2635.77,531.549 2636.46,530.147 2637.15,527.427 2637.84,530.048 2638.53,531.288 2639.22,528.505 2639.91,530.957 2640.6,530.768 2641.29,530.631 2641.98,527.525 2642.67,532.792 2643.36,524.297 2644.05,524.819 2644.74,535.022 2645.43,524.648 2646.12,535.679 2646.81,525.904 2647.5,532.989 2648.19,525.851 2648.88,533.248 2649.57,525.349 2650.26,532.582 2650.95,528.132 2651.64,531.778 2652.33,527.751 2653.02,531.108 2653.71,526.148 2654.4,534.31 2655.09,523.326 2655.78,536.284 2656.47,525.692 2657.16,537.148 2657.85,521.283 2658.54,540.576 2659.23,520.497 2659.92,517.027 2660.61,527.535 2661.3,532.081 2661.99,526.336 2662.68,526.373 2663.37,530.787 2664.06,531.781 2664.75,530.212 2665.44,530.148 2666.13,530.236 2666.81,524.02 2667.5,534.276 2668.19,529.029 2668.88,533.914 2669.57,528.053 2670.26,531.616 2670.95,527.028 2671.64,530.148 2672.33,524.837 2673.02,527.218 2673.71,533.651 2674.4,526.999 2675.09,533.003 2675.78,526.975 2676.47,528.881 2677.16,531.591 2677.85,526.625 2678.54,533.764 2679.23,525.14 2679.92,534.878 2680.61,523.568 2681.3,535.869 2681.99,524.029 2682.68,536.721 2683.37,526.703 2684.06,524.773 2684.75,526.777 2685.44,534.704 2686.13,528.076 2686.82,527.337 2687.51,529.751 2688.2,527.42 2688.89,531.8 2689.58,528.253 2690.27,531.639 2690.96,528.1 2691.65,531.155 2692.34,529.541 2693.03,521.909 2693.72,540.256 2694.41,519.797 2695.1,539.427 2695.79,525.307 2696.48,524.095 2697.17,535.361 2697.86,527.884 2698.55,534.2 2699.24,527.947 2699.93,531.101 2700.61,530.97 2701.3,528.337 2701.99,533.901 2702.68,527.372 2703.37,534.221 2704.06,526.984 2704.75,532.772 2705.44,527.767 2706.13,533.611 2706.82,528.766 2707.51,529.49 2708.2,531.784 2708.89,528.847 2709.58,532.194 2710.27,529.891 2710.96,533.155 2711.65,525.808 2712.34,537.364 2713.03,523.286 2713.72,539.184 2714.41,520.092 2715.1,540.258 2715.79,520.409 2716.48,544.183 2717.17,517.68 2717.86,544.911 2718.55,515.361 2719.24,547.391 2719.93,514.592 2720.62,542.861 2721.31,517.804 2722,529.303 2722.69,532.417 2723.38,527.72 2724.07,532.59 2724.76,524.577 2725.45,533.059 2726.14,528.644 2726.83,535.51 2727.52,526.171 2728.21,534.937 2728.9,526.176 2729.59,537.099 2730.28,523.039 2730.97,533.611 2731.66,523.943 2732.35,538.694 2733.04,524.183 2733.73,535.669 2734.42,540.412 2735.1,523.742 2735.79,539.372 2736.48,521.645 2737.17,539.063 2737.86,526.66 2738.55,539.739 2739.24,519.466 2739.93,544.877 2740.62,521.542 2741.31,536.836 2742,518.119 2742.69,533.273 2743.38,533.508 2744.07,521.74 2744.76,542.296 2745.45,522.677 2746.14,538.781 2746.83,527.547 2747.52,530.538 2748.21,530.248 2748.9,527.13 2749.59,529.439 2750.28,526.934 2750.97,522.06 2751.66,533.458 2752.35,521.964 2753.04,537.222 2753.73,523.458 2754.42,539.747 2755.11,518.12 2755.8,543.483 2756.49,520.743 2757.18,538.807 2757.87,519.896 2758.56,527.608 2759.25,525.595 2759.94,532.991 2760.63,520.498 2761.32,535.755 2762.01,523.756 2762.7,540.678 2763.39,524.223 2764.08,537.299 2764.77,522.615 2765.46,538.657 2766.15,525.62 2766.84,530.387 2767.53,534.283 2768.22,517.356 2768.9,544.449 2769.59,517.088 2770.28,542.374 2770.97,523.76 2771.66,537.858 2772.35,525.102 2773.04,539.371 2773.73,515.119 2774.42,543.062 2775.11,518.42 2775.8,538.246 2776.49,528.757 2777.18,534.515 2777.87,520.847 2778.56,529.154 2779.25,528.692 2779.94,535.409 2780.63,521.295 2781.32,538.951 2782.01,528.554 2782.7,532.132 2783.39,520.871 2784.08,536.483 2784.77,522.361 2785.46,532.218 2786.15,536.718 2786.84,523.331 2787.53,540.381 2788.22,526.087 2788.91,533.618 2789.6,531.316 2790.29,525.012 2790.98,534.821 2791.67,524.11 2792.36,533.338 2793.05,513.981 2793.74,543.856 2794.43,526.722 2795.12,517.228 2795.81,526.814 2796.5,531.972 2797.19,527.839 2797.88,531.192 2798.57,514.601 2799.26,534.354 2799.95,523.271 2800.64,531.689 2801.33,531.532 2802.02,525.68 2802.7,530.177 2803.39,526.812 2804.08,512.875 2804.77,530.213 2805.46,529.002 2806.15,519.808 2806.84,536.852 2807.53,534.041 2808.22,520.202 2808.91,530.835 2809.6,519.914 2810.29,519.198 2810.98,529.257 2811.67,519.938 2812.36,531.277 2813.05,530.91 2813.74,531.464 2814.43,526.739 2815.12,524.934 2815.81,521.933 2816.5,522.796 2817.19,527.332 2817.88,522.746 2818.57,531.402 2819.26,528.901 2819.95,537.225 2820.64,519.075 2821.33,534.997 2822.02,519.477 2822.71,534.019 2823.4,527.302 2824.09,526.281 2824.78,525.657 2825.47,533.21 2826.16,525.749 2826.85,523.217 2827.54,536.287 2828.23,518.709 2828.92,539.038 2829.61,515.686 2830.3,539.539 2830.99,525.493 2831.68,535.161 2832.37,525.07 2833.06,531.515 2833.75,529.902 2834.44,530.089 2835.13,526.48 2835.82,524.207 2836.5,535.423 2837.19,531.631 2837.88,521.81 2838.57,531.045 2839.26,530.338 2839.95,526.105 2840.64,532.776 2841.33,534.479 2842.02,532.723 2842.71,531.004 2843.4,533.525 2844.09,531.72 2844.78,518.348 2845.47,537 2846.16,523.59 2846.85,522.399 2847.54,535.517 2848.23,530.035 2848.92,523.968 2849.61,541.506 2850.3,513.19 2850.99,539.857 2851.68,526.664 2852.37,534.568 2853.06,522.008 2853.75,534.452 2854.44,524.847 2855.13,534.377 2855.82,527.839 2856.51,537.337 2857.2,523.326 2857.89,537.716 2858.58,516.411 2859.27,528.355 2859.96,517.065 2860.65,541.418 2861.34,518.43 2862.03,533.121 2862.72,529.891 2863.41,521.015 2864.1,535.426 2864.79,528.846 2865.48,530.088 2866.17,525.353 2866.86,532.211 2867.55,526.767 2868.24,540.954 2868.93,520.713 2869.62,534.999 2870.3,530.325 2870.99,526.313 2871.68,526.278 2872.37,535.532 2873.06,526.343 2873.75,536.51 2874.44,527.87 2875.13,528.755 2875.82,530.343 2876.51,523.082 2877.2,525.992 2877.89,534.108 2878.58,533.34 2879.27,517.79 2879.96,534.593 2880.65,524.212 2881.34,533.292 2882.03,526.654 2882.72,531.275 2883.41,532.476 2884.1,533.225 2884.79,525.275 2885.48,541.869 2886.17,519.516 2886.86,533.535 2887.55,526.63 2888.24,531.602 2888.93,539.548 2889.62,525.403 2890.31,539.956 2891,525.618 2891.69,526.461 2892.38,524.523 2893.07,534.173 2893.76,534.9 2894.45,526.427 2895.14,533.777 2895.83,528.516 2896.52,533.408 2897.21,524.757 2897.9,535.499 2898.59,528.315 2899.28,527.868 2899.97,529.603 2900.66,541.675 2901.35,513.412 2902.04,526.066 2902.73,550.68 2903.42,521.196 2904.1,543.325 2904.79,538.031 2905.48,541.252 2906.17,540.417 2906.86,546.407 2907.55,536.814 2908.24,546.01 2908.93,534.713 2909.62,527.449 2910.31,512.032 2911,554.217 2911.69,514.683 2912.38,543.366 2913.07,534.196 2913.76,529.114 2914.45,518.396 2915.14,516.91 2915.83,554.043 2916.52,504.461 2917.21,551.352 2917.9,523.566 2918.59,519.209 2919.28,520.459 2919.97,545.306 2920.66,526.729 2921.35,518.413 2922.04,513.942 2922.73,523.068 2923.42,519.64 2924.11,518.593 2924.8,534.869 2925.49,538.019 2926.18,527.45 2926.87,513.025 2927.56,523.459 2928.25,521.484 2928.94,519.307 2929.63,530.519 2930.32,515.431 2931.01,520.654 2931.7,520.822 2932.39,541.731 2933.08,542.408 2933.77,542.791 2934.46,543.277 2935.15,543.895 2935.84,515.501 2936.53,526.552 2937.22,534.304 2937.9,527.16 2938.59,546.303 2939.28,538.945 2939.97,546.167 2940.66,525.184 2941.35,535.342 2942.04,547.479 2942.73,532.887 2943.42,540.937 2944.11,544.719 2944.8,532.452 2945.49,529.144 2946.18,534.345 2946.87,515.617 2947.56,538.12 2948.25,530.072 2948.94,542.259 2949.63,512.409 2950.32,521.876 2951.01,552.197 2951.7,519.892 2952.39,523.443 2953.08,529.554 2953.77,544.083 2954.46,540.135 2955.15,521.378 2955.84,525.876 2956.53,533.746 2957.22,515.983 2957.91,532.295 2958.6,527.083 2959.29,534.249 2959.98,529.247 2960.67,533.413 2961.36,523.567 2962.05,536.832 2962.74,528.048 2963.43,534.652 2964.12,521.6 2964.81,539.246 2965.5,521.212 2966.19,536.197 2966.88,524.748 2967.57,538.701 2968.26,520.448 2968.95,544.537 2969.64,516.388 2970.33,545.806 2971.02,513.998 2971.71,545.099 2972.39,513.097 2973.08,545.073 2973.77,517.672 2974.46,545.569 2975.15,516.07 2975.84,542.914 2976.53,520.103 2977.22,539.485 2977.91,522.647 2978.6,537.859 2979.29,528.327 2979.98,532.64 2980.67,524.187 2981.36,538.549 2982.05,517.469 2982.74,544.348 2983.43,517.319 2984.12,538.614 2984.81,519.248 2985.5,539.566 2986.19,520.426 2986.88,539.299 2987.57,518.508 2988.26,545.115 2988.95,519.054 2989.64,539.059 2990.33,525.33 2991.02,533.988 2991.71,526.453 2992.4,529.38 2993.09,527.689 2993.78,533.355 2994.47,527.983 2995.16,531.614 2995.85,528.497 2996.54,533.761 2997.23,524.68 2997.92,534.249 2998.61,526.11 2999.3,533.086 2999.99,525.636 3000.68,531.873 3001.37,532.622 3002.06,529.504 3002.75,531.227 3003.44,528.293 3004.13,525.744 3004.82,535.004 3005.51,522.93 3006.19,535.8 3006.88,525.308 3007.57,536.242 3008.26,524.863 3008.95,537.914 3009.64,522.907 3010.33,535.734 3011.02,524.148 3011.71,530.29 3012.4,532.829 3013.09,524.85 3013.78,529.2 3014.47,543.209 3015.16,514.041 3015.85,539.355 3016.54,512.472 3017.23,544.114 3017.92,511.29 3018.61,521.757 3019.3,528.31 3019.99,519.684 3020.68,542.739 3021.37,514.212 3022.06,536.508 3022.75,516.31 3023.44,537.278 3024.13,517.38 3024.82,541.012 3025.51,517.774 3026.2,524.935 3026.89,528.21 3027.58,538.862 3028.27,523.063 3028.96,537.989 3029.65,523.876 3030.34,532.89 3031.03,522.94 3031.72,536.442 3032.41,524.746 3033.1,527.438 3033.79,517.565 3034.48,546.172 3035.17,513.518 3035.86,539.884 3036.55,514.662 3037.24,539.25 3037.93,525.264 3038.62,535.039 3039.31,534.359 3039.99,528.519 3040.68,518.246 3041.37,530.395 3042.06,536.85 3042.75,519.361 3043.44,525.696 3044.13,538.993 3044.82,528.301 3045.51,529.03 3046.2,527.518 3046.89,524.777 3047.58,534.015 3048.27,523.769 3048.96,530.639 3049.65,542.618 3050.34,529.649 3051.03,521.333 3051.72,542.573 3052.41,523.69 3053.1,533.76 3053.79,530.701 3054.48,524.637 3055.17,543.808 3055.86,521.158 3056.55,539.295 3057.24,534.368 3057.93,520.05 3058.62,531.91 3059.31,524.992 3060,532.509 3060.69,532.742 3061.38,515.761 3062.07,531.873 3062.76,532.511 3063.45,516.641 3064.14,524.789 3064.83,533.597 3065.52,531.786 3066.21,526.77 3066.9,524.776 3067.59,537.319 3068.28,523.403 3068.97,536.248 "/>
<path clip-path="url(#clip120)" d="M2597.04 693.754 L3054.07 693.754 L3054.07 590.074 L2597.04 590.074  Z" fill="#ffffff" fill-rule="evenodd" fill-opacity="1"/>
<polyline clip-path="url(#clip120)" style="stroke:#000000; stroke-linecap:round; stroke-linejoin:round; stroke-width:4; stroke-opacity:1; fill:none" points="2597.04,693.754 3054.07,693.754 3054.07,590.074 2597.04,590.074 2597.04,693.754 "/>
<polyline clip-path="url(#clip120)" style="stroke:#009af9; stroke-linecap:round; stroke-linejoin:round; stroke-width:2; stroke-opacity:1; fill:none" points="2629.94,641.914 2827.31,641.914 "/>
<path clip-path="url(#clip120)" d="M2864.88 628.477 L2864.88 641.463 L2870.76 641.463 Q2874.02 641.463 2875.81 639.773 Q2877.59 638.083 2877.59 634.958 Q2877.59 631.857 2875.81 630.167 Q2874.02 628.477 2870.76 628.477 L2864.88 628.477 M2860.2 624.634 L2870.76 624.634 Q2876.57 624.634 2879.53 627.273 Q2882.52 629.889 2882.52 634.958 Q2882.52 640.074 2879.53 642.69 Q2876.57 645.306 2870.76 645.306 L2864.88 645.306 L2864.88 659.194 L2860.2 659.194 L2860.2 624.634 Z" fill="#000000" fill-rule="evenodd" fill-opacity="1" /><path clip-path="url(#clip120)" d="M2888.79 624.634 L2910.64 624.634 L2910.64 628.57 L2893.47 628.57 L2893.47 638.801 L2909.93 638.801 L2909.93 642.736 L2893.47 642.736 L2893.47 655.259 L2911.06 655.259 L2911.06 659.194 L2888.79 659.194 L2888.79 624.634 Z" fill="#000000" fill-rule="evenodd" fill-opacity="1" /><path clip-path="url(#clip120)" d="M2918.75 624.634 L2923.42 624.634 L2923.42 638.801 L2940.41 638.801 L2940.41 624.634 L2945.09 624.634 L2945.09 659.194 L2940.41 659.194 L2940.41 642.736 L2923.42 642.736 L2923.42 659.194 L2918.75 659.194 L2918.75 624.634 Z" fill="#000000" fill-rule="evenodd" fill-opacity="1" /><path clip-path="url(#clip120)" d="M2954.39 624.634 L2961.36 624.634 L2970.18 648.153 L2979.05 624.634 L2986.01 624.634 L2986.01 659.194 L2981.45 659.194 L2981.45 628.847 L2972.54 652.551 L2967.84 652.551 L2958.93 628.847 L2958.93 659.194 L2954.39 659.194 L2954.39 624.634 Z" fill="#000000" fill-rule="evenodd" fill-opacity="1" /><path clip-path="url(#clip120)" d="M3021.18 627.296 L3021.18 632.227 Q3018.81 630.028 3016.13 628.94 Q3013.47 627.852 3010.46 627.852 Q3004.53 627.852 3001.38 631.486 Q2998.24 635.097 2998.24 641.949 Q2998.24 648.778 3001.38 652.412 Q3004.53 656.023 3010.46 656.023 Q3013.47 656.023 3016.13 654.935 Q3018.81 653.847 3021.18 651.648 L3021.18 656.532 Q3018.72 658.199 3015.97 659.032 Q3013.24 659.866 3010.18 659.866 Q3002.33 659.866 2997.82 655.074 Q2993.31 650.259 2993.31 641.949 Q2993.31 633.616 2997.82 628.824 Q3002.33 624.009 3010.18 624.009 Q3013.28 624.009 3016.01 624.843 Q3018.77 625.653 3021.18 627.296 Z" fill="#000000" fill-rule="evenodd" fill-opacity="1" /></svg>
