<?xml version="1.0" encoding="utf-8"?>
<svg xmlns="http://www.w3.org/2000/svg" xmlns:xlink="http://www.w3.org/1999/xlink" width="800" height="200" viewBox="0 0 3200 800">
<defs>
  <clipPath id="clip020">
    <rect x="0" y="0" width="3200" height="800"/>
  </clipPath>
</defs>
<path clip-path="url(#clip020)" d="M0 800 L3200 800 L3200 0 L0 0  Z" fill="#ffffff" fill-rule="evenodd" fill-opacity="1"/>
<defs>
  <clipPath id="clip021">
    <rect x="640" y="0" width="2241" height="800"/>
  </clipPath>
</defs>
<path clip-path="url(#clip020)" d="M192.191 716.048 L3152.76 716.048 L3152.76 47.2441 L192.191 47.2441  Z" fill="#ffffff" fill-rule="evenodd" fill-opacity="1"/>
<defs>
  <clipPath id="clip022">
    <rect x="192" y="47" width="2962" height="670"/>
  </clipPath>
</defs>
<polyline clip-path="url(#clip022)" style="stroke:#000000; stroke-linecap:round; stroke-linejoin:round; stroke-width:2; stroke-opacity:0.1; fill:none" points="275.345,716.048 275.345,47.2441 "/>
<polyline clip-path="url(#clip022)" style="stroke:#000000; stroke-linecap:round; stroke-linejoin:round; stroke-width:2; stroke-opacity:0.1; fill:none" points="910.259,716.048 910.259,47.2441 "/>
<polyline clip-path="url(#clip022)" style="stroke:#000000; stroke-linecap:round; stroke-linejoin:round; stroke-width:2; stroke-opacity:0.1; fill:none" points="1545.17,716.048 1545.17,47.2441 "/>
<polyline clip-path="url(#clip022)" style="stroke:#000000; stroke-linecap:round; stroke-linejoin:round; stroke-width:2; stroke-opacity:0.1; fill:none" points="2180.09,716.048 2180.09,47.2441 "/>
<polyline clip-path="url(#clip022)" style="stroke:#000000; stroke-linecap:round; stroke-linejoin:round; stroke-width:2; stroke-opacity:0.1; fill:none" points="2815,716.048 2815,47.2441 "/>
<polyline clip-path="url(#clip020)" style="stroke:#000000; stroke-linecap:round; stroke-linejoin:round; stroke-width:4; stroke-opacity:1; fill:none" points="192.191,716.048 3152.76,716.048 "/>
<polyline clip-path="url(#clip020)" style="stroke:#000000; stroke-linecap:round; stroke-linejoin:round; stroke-width:4; stroke-opacity:1; fill:none" points="275.345,716.048 275.345,697.15 "/>
<polyline clip-path="url(#clip020)" style="stroke:#000000; stroke-linecap:round; stroke-linejoin:round; stroke-width:4; stroke-opacity:1; fill:none" points="910.259,716.048 910.259,697.15 "/>
<polyline clip-path="url(#clip020)" style="stroke:#000000; stroke-linecap:round; stroke-linejoin:round; stroke-width:4; stroke-opacity:1; fill:none" points="1545.17,716.048 1545.17,697.15 "/>
<polyline clip-path="url(#clip020)" style="stroke:#000000; stroke-linecap:round; stroke-linejoin:round; stroke-width:4; stroke-opacity:1; fill:none" points="2180.09,716.048 2180.09,697.15 "/>
<polyline clip-path="url(#clip020)" style="stroke:#000000; stroke-linecap:round; stroke-linejoin:round; stroke-width:4; stroke-opacity:1; fill:none" points="2815,716.048 2815,697.15 "/>
<path clip-path="url(#clip020)" d="M275.345 753.367 Q271.734 753.367 269.906 756.931 Q268.1 760.473 268.1 767.603 Q268.1 774.709 269.906 778.274 Q271.734 781.815 275.345 781.815 Q278.98 781.815 280.785 778.274 Q282.614 774.709 282.614 767.603 Q282.614 760.473 280.785 756.931 Q278.98 753.367 275.345 753.367 M275.345 749.663 Q281.156 749.663 284.211 754.269 Q287.29 758.853 287.29 767.603 Q287.29 776.329 284.211 780.936 Q281.156 785.519 275.345 785.519 Q269.535 785.519 266.457 780.936 Q263.401 776.329 263.401 767.603 Q263.401 758.853 266.457 754.269 Q269.535 749.663 275.345 749.663 Z" fill="#000000" fill-rule="evenodd" fill-opacity="1" /><path clip-path="url(#clip020)" d="M854.785 780.913 L862.424 780.913 L862.424 754.547 L854.114 756.214 L854.114 751.955 L862.378 750.288 L867.053 750.288 L867.053 780.913 L874.692 780.913 L874.692 784.848 L854.785 784.848 L854.785 780.913 Z" fill="#000000" fill-rule="evenodd" fill-opacity="1" /><path clip-path="url(#clip020)" d="M894.137 753.367 Q890.526 753.367 888.697 756.931 Q886.891 760.473 886.891 767.603 Q886.891 774.709 888.697 778.274 Q890.526 781.815 894.137 781.815 Q897.771 781.815 899.576 778.274 Q901.405 774.709 901.405 767.603 Q901.405 760.473 899.576 756.931 Q897.771 753.367 894.137 753.367 M894.137 749.663 Q899.947 749.663 903.002 754.269 Q906.081 758.853 906.081 767.603 Q906.081 776.329 903.002 780.936 Q899.947 785.519 894.137 785.519 Q888.326 785.519 885.248 780.936 Q882.192 776.329 882.192 767.603 Q882.192 758.853 885.248 754.269 Q888.326 749.663 894.137 749.663 Z" fill="#000000" fill-rule="evenodd" fill-opacity="1" /><path clip-path="url(#clip020)" d="M924.298 753.367 Q920.687 753.367 918.859 756.931 Q917.053 760.473 917.053 767.603 Q917.053 774.709 918.859 778.274 Q920.687 781.815 924.298 781.815 Q927.933 781.815 929.738 778.274 Q931.567 774.709 931.567 767.603 Q931.567 760.473 929.738 756.931 Q927.933 753.367 924.298 753.367 M924.298 749.663 Q930.109 749.663 933.164 754.269 Q936.243 758.853 936.243 767.603 Q936.243 776.329 933.164 780.936 Q930.109 785.519 924.298 785.519 Q918.488 785.519 915.41 780.936 Q912.354 776.329 912.354 767.603 Q912.354 758.853 915.41 754.269 Q918.488 749.663 924.298 749.663 Z" fill="#000000" fill-rule="evenodd" fill-opacity="1" /><path clip-path="url(#clip020)" d="M954.46 753.367 Q950.849 753.367 949.021 756.931 Q947.215 760.473 947.215 767.603 Q947.215 774.709 949.021 778.274 Q950.849 781.815 954.46 781.815 Q958.095 781.815 959.9 778.274 Q961.729 774.709 961.729 767.603 Q961.729 760.473 959.9 756.931 Q958.095 753.367 954.46 753.367 M954.46 749.663 Q960.271 749.663 963.326 754.269 Q966.405 758.853 966.405 767.603 Q966.405 776.329 963.326 780.936 Q960.271 785.519 954.46 785.519 Q948.65 785.519 945.572 780.936 Q942.516 776.329 942.516 767.603 Q942.516 758.853 945.572 754.269 Q948.65 749.663 954.46 749.663 Z" fill="#000000" fill-rule="evenodd" fill-opacity="1" /><path clip-path="url(#clip020)" d="M1493.78 780.913 L1510.1 780.913 L1510.1 784.848 L1488.16 784.848 L1488.16 780.913 Q1490.82 778.158 1495.4 773.528 Q1500.01 768.876 1501.19 767.533 Q1503.44 765.01 1504.32 763.274 Q1505.22 761.515 1505.22 759.825 Q1505.22 757.07 1503.28 755.334 Q1501.35 753.598 1498.25 753.598 Q1496.05 753.598 1493.6 754.362 Q1491.17 755.126 1488.39 756.677 L1488.39 751.955 Q1491.22 750.82 1493.67 750.242 Q1496.12 749.663 1498.16 749.663 Q1503.53 749.663 1506.72 752.348 Q1509.92 755.033 1509.92 759.524 Q1509.92 761.654 1509.11 763.575 Q1508.32 765.473 1506.21 768.066 Q1505.64 768.737 1502.53 771.954 Q1499.43 775.149 1493.78 780.913 Z" fill="#000000" fill-rule="evenodd" fill-opacity="1" /><path clip-path="url(#clip020)" d="M1529.92 753.367 Q1526.31 753.367 1524.48 756.931 Q1522.67 760.473 1522.67 767.603 Q1522.67 774.709 1524.48 778.274 Q1526.31 781.815 1529.92 781.815 Q1533.55 781.815 1535.36 778.274 Q1537.19 774.709 1537.19 767.603 Q1537.19 760.473 1535.36 756.931 Q1533.55 753.367 1529.92 753.367 M1529.92 749.663 Q1535.73 749.663 1538.78 754.269 Q1541.86 758.853 1541.86 767.603 Q1541.86 776.329 1538.78 780.936 Q1535.73 785.519 1529.92 785.519 Q1524.11 785.519 1521.03 780.936 Q1517.97 776.329 1517.97 767.603 Q1517.97 758.853 1521.03 754.269 Q1524.11 749.663 1529.92 749.663 Z" fill="#000000" fill-rule="evenodd" fill-opacity="1" /><path clip-path="url(#clip020)" d="M1560.08 753.367 Q1556.47 753.367 1554.64 756.931 Q1552.84 760.473 1552.84 767.603 Q1552.84 774.709 1554.64 778.274 Q1556.47 781.815 1560.08 781.815 Q1563.71 781.815 1565.52 778.274 Q1567.35 774.709 1567.35 767.603 Q1567.35 760.473 1565.52 756.931 Q1563.71 753.367 1560.08 753.367 M1560.08 749.663 Q1565.89 749.663 1568.95 754.269 Q1572.02 758.853 1572.02 767.603 Q1572.02 776.329 1568.95 780.936 Q1565.89 785.519 1560.08 785.519 Q1554.27 785.519 1551.19 780.936 Q1548.14 776.329 1548.14 767.603 Q1548.14 758.853 1551.19 754.269 Q1554.27 749.663 1560.08 749.663 Z" fill="#000000" fill-rule="evenodd" fill-opacity="1" /><path clip-path="url(#clip020)" d="M1590.24 753.367 Q1586.63 753.367 1584.8 756.931 Q1583 760.473 1583 767.603 Q1583 774.709 1584.8 778.274 Q1586.63 781.815 1590.24 781.815 Q1593.88 781.815 1595.68 778.274 Q1597.51 774.709 1597.51 767.603 Q1597.51 760.473 1595.68 756.931 Q1593.88 753.367 1590.24 753.367 M1590.24 749.663 Q1596.05 749.663 1599.11 754.269 Q1602.19 758.853 1602.19 767.603 Q1602.19 776.329 1599.11 780.936 Q1596.05 785.519 1590.24 785.519 Q1584.43 785.519 1581.35 780.936 Q1578.3 776.329 1578.3 767.603 Q1578.3 758.853 1581.35 754.269 Q1584.43 749.663 1590.24 749.663 Z" fill="#000000" fill-rule="evenodd" fill-opacity="1" /><path clip-path="url(#clip020)" d="M2138.77 766.214 Q2142.12 766.931 2144 769.2 Q2145.9 771.468 2145.9 774.802 Q2145.9 779.917 2142.38 782.718 Q2138.86 785.519 2132.38 785.519 Q2130.2 785.519 2127.89 785.079 Q2125.6 784.663 2123.14 783.806 L2123.14 779.292 Q2125.09 780.427 2127.4 781.005 Q2129.72 781.584 2132.24 781.584 Q2136.64 781.584 2138.93 779.848 Q2141.24 778.112 2141.24 774.802 Q2141.24 771.746 2139.09 770.033 Q2136.96 768.297 2133.14 768.297 L2129.11 768.297 L2129.11 764.454 L2133.33 764.454 Q2136.78 764.454 2138.61 763.089 Q2140.43 761.7 2140.43 759.107 Q2140.43 756.445 2138.54 755.033 Q2136.66 753.598 2133.14 753.598 Q2131.22 753.598 2129.02 754.015 Q2126.82 754.431 2124.18 755.311 L2124.18 751.144 Q2126.85 750.404 2129.16 750.033 Q2131.5 749.663 2133.56 749.663 Q2138.88 749.663 2141.99 752.093 Q2145.09 754.501 2145.09 758.621 Q2145.09 761.492 2143.44 763.482 Q2141.8 765.45 2138.77 766.214 Z" fill="#000000" fill-rule="evenodd" fill-opacity="1" /><path clip-path="url(#clip020)" d="M2164.76 753.367 Q2161.15 753.367 2159.32 756.931 Q2157.52 760.473 2157.52 767.603 Q2157.52 774.709 2159.32 778.274 Q2161.15 781.815 2164.76 781.815 Q2168.4 781.815 2170.2 778.274 Q2172.03 774.709 2172.03 767.603 Q2172.03 760.473 2170.2 756.931 Q2168.4 753.367 2164.76 753.367 M2164.76 749.663 Q2170.57 749.663 2173.63 754.269 Q2176.71 758.853 2176.71 767.603 Q2176.71 776.329 2173.63 780.936 Q2170.57 785.519 2164.76 785.519 Q2158.95 785.519 2155.87 780.936 Q2152.82 776.329 2152.82 767.603 Q2152.82 758.853 2155.87 754.269 Q2158.95 749.663 2164.76 749.663 Z" fill="#000000" fill-rule="evenodd" fill-opacity="1" /><path clip-path="url(#clip020)" d="M2194.92 753.367 Q2191.31 753.367 2189.49 756.931 Q2187.68 760.473 2187.68 767.603 Q2187.68 774.709 2189.49 778.274 Q2191.31 781.815 2194.92 781.815 Q2198.56 781.815 2200.36 778.274 Q2202.19 774.709 2202.19 767.603 Q2202.19 760.473 2200.36 756.931 Q2198.56 753.367 2194.92 753.367 M2194.92 749.663 Q2200.73 749.663 2203.79 754.269 Q2206.87 758.853 2206.87 767.603 Q2206.87 776.329 2203.79 780.936 Q2200.73 785.519 2194.92 785.519 Q2189.11 785.519 2186.04 780.936 Q2182.98 776.329 2182.98 767.603 Q2182.98 758.853 2186.04 754.269 Q2189.11 749.663 2194.92 749.663 Z" fill="#000000" fill-rule="evenodd" fill-opacity="1" /><path clip-path="url(#clip020)" d="M2225.09 753.367 Q2221.48 753.367 2219.65 756.931 Q2217.84 760.473 2217.84 767.603 Q2217.84 774.709 2219.65 778.274 Q2221.48 781.815 2225.09 781.815 Q2228.72 781.815 2230.53 778.274 Q2232.36 774.709 2232.36 767.603 Q2232.36 760.473 2230.53 756.931 Q2228.72 753.367 2225.09 753.367 M2225.09 749.663 Q2230.9 749.663 2233.95 754.269 Q2237.03 758.853 2237.03 767.603 Q2237.03 776.329 2233.95 780.936 Q2230.9 785.519 2225.09 785.519 Q2219.28 785.519 2216.2 780.936 Q2213.14 776.329 2213.14 767.603 Q2213.14 758.853 2216.2 754.269 Q2219.28 749.663 2225.09 749.663 Z" fill="#000000" fill-rule="evenodd" fill-opacity="1" /><path clip-path="url(#clip020)" d="M2773.01 754.362 L2761.2 772.811 L2773.01 772.811 L2773.01 754.362 M2771.78 750.288 L2777.66 750.288 L2777.66 772.811 L2782.59 772.811 L2782.59 776.7 L2777.66 776.7 L2777.66 784.848 L2773.01 784.848 L2773.01 776.7 L2757.41 776.7 L2757.41 772.186 L2771.78 750.288 Z" fill="#000000" fill-rule="evenodd" fill-opacity="1" /><path clip-path="url(#clip020)" d="M2800.32 753.367 Q2796.71 753.367 2794.89 756.931 Q2793.08 760.473 2793.08 767.603 Q2793.08 774.709 2794.89 778.274 Q2796.71 781.815 2800.32 781.815 Q2803.96 781.815 2805.76 778.274 Q2807.59 774.709 2807.59 767.603 Q2807.59 760.473 2805.76 756.931 Q2803.96 753.367 2800.32 753.367 M2800.32 749.663 Q2806.14 749.663 2809.19 754.269 Q2812.27 758.853 2812.27 767.603 Q2812.27 776.329 2809.19 780.936 Q2806.14 785.519 2800.32 785.519 Q2794.51 785.519 2791.44 780.936 Q2788.38 776.329 2788.38 767.603 Q2788.38 758.853 2791.44 754.269 Q2794.51 749.663 2800.32 749.663 Z" fill="#000000" fill-rule="evenodd" fill-opacity="1" /><path clip-path="url(#clip020)" d="M2830.49 753.367 Q2826.88 753.367 2825.05 756.931 Q2823.24 760.473 2823.24 767.603 Q2823.24 774.709 2825.05 778.274 Q2826.88 781.815 2830.49 781.815 Q2834.12 781.815 2835.93 778.274 Q2837.76 774.709 2837.76 767.603 Q2837.76 760.473 2835.93 756.931 Q2834.12 753.367 2830.49 753.367 M2830.49 749.663 Q2836.3 749.663 2839.35 754.269 Q2842.43 758.853 2842.43 767.603 Q2842.43 776.329 2839.35 780.936 Q2836.3 785.519 2830.49 785.519 Q2824.68 785.519 2821.6 780.936 Q2818.54 776.329 2818.54 767.603 Q2818.54 758.853 2821.6 754.269 Q2824.68 749.663 2830.49 749.663 Z" fill="#000000" fill-rule="evenodd" fill-opacity="1" /><path clip-path="url(#clip020)" d="M2860.65 753.367 Q2857.04 753.367 2855.21 756.931 Q2853.4 760.473 2853.4 767.603 Q2853.4 774.709 2855.21 778.274 Q2857.04 781.815 2860.65 781.815 Q2864.28 781.815 2866.09 778.274 Q2867.92 774.709 2867.92 767.603 Q2867.92 760.473 2866.09 756.931 Q2864.28 753.367 2860.65 753.367 M2860.65 749.663 Q2866.46 749.663 2869.51 754.269 Q2872.59 758.853 2872.59 767.603 Q2872.59 776.329 2869.51 780.936 Q2866.46 785.519 2860.65 785.519 Q2854.84 785.519 2851.76 780.936 Q2848.7 776.329 2848.7 767.603 Q2848.7 758.853 2851.76 754.269 Q2854.84 749.663 2860.65 749.663 Z" fill="#000000" fill-rule="evenodd" fill-opacity="1" /><polyline clip-path="url(#clip022)" style="stroke:#000000; stroke-linecap:round; stroke-linejoin:round; stroke-width:2; stroke-opacity:0.1; fill:none" points="192.191,716.048 3152.76,716.048 "/>
<polyline clip-path="url(#clip022)" style="stroke:#000000; stroke-linecap:round; stroke-linejoin:round; stroke-width:2; stroke-opacity:0.1; fill:none" points="192.191,599.936 3152.76,599.936 "/>
<polyline clip-path="url(#clip022)" style="stroke:#000000; stroke-linecap:round; stroke-linejoin:round; stroke-width:2; stroke-opacity:0.1; fill:none" points="192.191,483.824 3152.76,483.824 "/>
<polyline clip-path="url(#clip022)" style="stroke:#000000; stroke-linecap:round; stroke-linejoin:round; stroke-width:2; stroke-opacity:0.1; fill:none" points="192.191,367.713 3152.76,367.713 "/>
<polyline clip-path="url(#clip022)" style="stroke:#000000; stroke-linecap:round; stroke-linejoin:round; stroke-width:2; stroke-opacity:0.1; fill:none" points="192.191,251.601 3152.76,251.601 "/>
<polyline clip-path="url(#clip022)" style="stroke:#000000; stroke-linecap:round; stroke-linejoin:round; stroke-width:2; stroke-opacity:0.1; fill:none" points="192.191,135.489 3152.76,135.489 "/>
<polyline clip-path="url(#clip020)" style="stroke:#000000; stroke-linecap:round; stroke-linejoin:round; stroke-width:4; stroke-opacity:1; fill:none" points="192.191,716.048 192.191,47.2441 "/>
<polyline clip-path="url(#clip020)" style="stroke:#000000; stroke-linecap:round; stroke-linejoin:round; stroke-width:4; stroke-opacity:1; fill:none" points="192.191,716.048 211.088,716.048 "/>
<polyline clip-path="url(#clip020)" style="stroke:#000000; stroke-linecap:round; stroke-linejoin:round; stroke-width:4; stroke-opacity:1; fill:none" points="192.191,599.936 211.088,599.936 "/>
<polyline clip-path="url(#clip020)" style="stroke:#000000; stroke-linecap:round; stroke-linejoin:round; stroke-width:4; stroke-opacity:1; fill:none" points="192.191,483.824 211.088,483.824 "/>
<polyline clip-path="url(#clip020)" style="stroke:#000000; stroke-linecap:round; stroke-linejoin:round; stroke-width:4; stroke-opacity:1; fill:none" points="192.191,367.713 211.088,367.713 "/>
<polyline clip-path="url(#clip020)" style="stroke:#000000; stroke-linecap:round; stroke-linejoin:round; stroke-width:4; stroke-opacity:1; fill:none" points="192.191,251.601 211.088,251.601 "/>
<polyline clip-path="url(#clip020)" style="stroke:#000000; stroke-linecap:round; stroke-linejoin:round; stroke-width:4; stroke-opacity:1; fill:none" points="192.191,135.489 211.088,135.489 "/>
<path clip-path="url(#clip020)" d="M87.0151 701.847 Q83.404 701.847 81.5753 705.411 Q79.7697 708.953 79.7697 716.083 Q79.7697 723.189 81.5753 726.754 Q83.404 730.295 87.0151 730.295 Q90.6493 730.295 92.4548 726.754 Q94.2835 723.189 94.2835 716.083 Q94.2835 708.953 92.4548 705.411 Q90.6493 701.847 87.0151 701.847 M87.0151 698.143 Q92.8252 698.143 95.8808 702.749 Q98.9594 707.333 98.9594 716.083 Q98.9594 724.809 95.8808 729.416 Q92.8252 733.999 87.0151 733.999 Q81.2049 733.999 78.1262 729.416 Q75.0707 724.809 75.0707 716.083 Q75.0707 707.333 78.1262 702.749 Q81.2049 698.143 87.0151 698.143 Z" fill="#000000" fill-rule="evenodd" fill-opacity="1" /><path clip-path="url(#clip020)" d="M107.177 727.448 L112.061 727.448 L112.061 733.328 L107.177 733.328 L107.177 727.448 Z" fill="#000000" fill-rule="evenodd" fill-opacity="1" /><path clip-path="url(#clip020)" d="M132.246 701.847 Q128.635 701.847 126.807 705.411 Q125.001 708.953 125.001 716.083 Q125.001 723.189 126.807 726.754 Q128.635 730.295 132.246 730.295 Q135.881 730.295 137.686 726.754 Q139.515 723.189 139.515 716.083 Q139.515 708.953 137.686 705.411 Q135.881 701.847 132.246 701.847 M132.246 698.143 Q138.056 698.143 141.112 702.749 Q144.191 707.333 144.191 716.083 Q144.191 724.809 141.112 729.416 Q138.056 733.999 132.246 733.999 Q126.436 733.999 123.357 729.416 Q120.302 724.809 120.302 716.083 Q120.302 707.333 123.357 702.749 Q126.436 698.143 132.246 698.143 Z" fill="#000000" fill-rule="evenodd" fill-opacity="1" /><path clip-path="url(#clip020)" d="M82.0382 613.281 L98.3576 613.281 L98.3576 617.216 L76.4133 617.216 L76.4133 613.281 Q79.0753 610.526 83.6586 605.897 Q88.2651 601.244 89.4456 599.901 Q91.691 597.378 92.5706 595.642 Q93.4734 593.883 93.4734 592.193 Q93.4734 589.438 91.5289 587.702 Q89.6076 585.966 86.5058 585.966 Q84.3067 585.966 81.8531 586.73 Q79.4225 587.494 76.6447 589.045 L76.6447 584.323 Q79.4688 583.189 81.9225 582.61 Q84.3762 582.031 86.4132 582.031 Q91.7836 582.031 94.978 584.716 Q98.1724 587.401 98.1724 591.892 Q98.1724 594.022 97.3622 595.943 Q96.5752 597.841 94.4687 600.434 Q93.89 601.105 90.7882 604.323 Q87.6864 607.517 82.0382 613.281 Z" fill="#000000" fill-rule="evenodd" fill-opacity="1" /><path clip-path="url(#clip020)" d="M108.172 611.337 L113.057 611.337 L113.057 617.216 L108.172 617.216 L108.172 611.337 Z" fill="#000000" fill-rule="evenodd" fill-opacity="1" /><path clip-path="url(#clip020)" d="M123.288 582.656 L141.644 582.656 L141.644 586.591 L127.57 586.591 L127.57 595.063 Q128.589 594.716 129.607 594.554 Q130.626 594.369 131.644 594.369 Q137.431 594.369 140.811 597.54 Q144.191 600.712 144.191 606.128 Q144.191 611.707 140.718 614.809 Q137.246 617.887 130.927 617.887 Q128.751 617.887 126.482 617.517 Q124.237 617.147 121.83 616.406 L121.83 611.707 Q123.913 612.841 126.135 613.397 Q128.357 613.952 130.834 613.952 Q134.839 613.952 137.177 611.846 Q139.515 609.739 139.515 606.128 Q139.515 602.517 137.177 600.411 Q134.839 598.304 130.834 598.304 Q128.959 598.304 127.084 598.721 Q125.232 599.137 123.288 600.017 L123.288 582.656 Z" fill="#000000" fill-rule="evenodd" fill-opacity="1" /><path clip-path="url(#clip020)" d="M77.0614 466.544 L95.4178 466.544 L95.4178 470.48 L81.3438 470.48 L81.3438 478.952 Q82.3623 478.604 83.3808 478.442 Q84.3993 478.257 85.4178 478.257 Q91.2049 478.257 94.5845 481.429 Q97.9641 484.6 97.9641 490.016 Q97.9641 495.595 94.4919 498.697 Q91.0197 501.776 84.7003 501.776 Q82.5243 501.776 80.2558 501.405 Q78.0105 501.035 75.6031 500.294 L75.6031 495.595 Q77.6864 496.729 79.9086 497.285 Q82.1308 497.84 84.6077 497.84 Q88.6123 497.84 90.9502 495.734 Q93.2882 493.628 93.2882 490.016 Q93.2882 486.405 90.9502 484.299 Q88.6123 482.192 84.6077 482.192 Q82.7327 482.192 80.8577 482.609 Q79.0058 483.026 77.0614 483.905 L77.0614 466.544 Z" fill="#000000" fill-rule="evenodd" fill-opacity="1" /><path clip-path="url(#clip020)" d="M107.177 495.225 L112.061 495.225 L112.061 501.104 L107.177 501.104 L107.177 495.225 Z" fill="#000000" fill-rule="evenodd" fill-opacity="1" /><path clip-path="url(#clip020)" d="M132.246 469.623 Q128.635 469.623 126.807 473.188 Q125.001 476.729 125.001 483.859 Q125.001 490.966 126.807 494.53 Q128.635 498.072 132.246 498.072 Q135.881 498.072 137.686 494.53 Q139.515 490.966 139.515 483.859 Q139.515 476.729 137.686 473.188 Q135.881 469.623 132.246 469.623 M132.246 465.919 Q138.056 465.919 141.112 470.526 Q144.191 475.109 144.191 483.859 Q144.191 492.586 141.112 497.192 Q138.056 501.776 132.246 501.776 Q126.436 501.776 123.357 497.192 Q120.302 492.586 120.302 483.859 Q120.302 475.109 123.357 470.526 Q126.436 465.919 132.246 465.919 Z" fill="#000000" fill-rule="evenodd" fill-opacity="1" /><path clip-path="url(#clip020)" d="M76.8299 350.433 L99.052 350.433 L99.052 352.423 L86.5058 384.993 L81.6216 384.993 L93.4271 354.368 L76.8299 354.368 L76.8299 350.433 Z" fill="#000000" fill-rule="evenodd" fill-opacity="1" /><path clip-path="url(#clip020)" d="M108.172 379.113 L113.057 379.113 L113.057 384.993 L108.172 384.993 L108.172 379.113 Z" fill="#000000" fill-rule="evenodd" fill-opacity="1" /><path clip-path="url(#clip020)" d="M123.288 350.433 L141.644 350.433 L141.644 354.368 L127.57 354.368 L127.57 362.84 Q128.589 362.493 129.607 362.331 Q130.626 362.145 131.644 362.145 Q137.431 362.145 140.811 365.317 Q144.191 368.488 144.191 373.905 Q144.191 379.483 140.718 382.585 Q137.246 385.664 130.927 385.664 Q128.751 385.664 126.482 385.293 Q124.237 384.923 121.83 384.182 L121.83 379.483 Q123.913 380.618 126.135 381.173 Q128.357 381.729 130.834 381.729 Q134.839 381.729 137.177 379.622 Q139.515 377.516 139.515 373.905 Q139.515 370.294 137.177 368.187 Q134.839 366.081 130.834 366.081 Q128.959 366.081 127.084 366.497 Q125.232 366.914 123.288 367.794 L123.288 350.433 Z" fill="#000000" fill-rule="evenodd" fill-opacity="1" /><path clip-path="url(#clip020)" d="M47.6634 264.946 L55.3023 264.946 L55.3023 238.58 L46.9921 240.247 L46.9921 235.987 L55.256 234.321 L59.9319 234.321 L59.9319 264.946 L67.5707 264.946 L67.5707 268.881 L47.6634 268.881 L47.6634 264.946 Z" fill="#000000" fill-rule="evenodd" fill-opacity="1" /><path clip-path="url(#clip020)" d="M87.0151 237.399 Q83.404 237.399 81.5753 240.964 Q79.7697 244.506 79.7697 251.636 Q79.7697 258.742 81.5753 262.307 Q83.404 265.848 87.0151 265.848 Q90.6493 265.848 92.4548 262.307 Q94.2835 258.742 94.2835 251.636 Q94.2835 244.506 92.4548 240.964 Q90.6493 237.399 87.0151 237.399 M87.0151 233.696 Q92.8252 233.696 95.8808 238.302 Q98.9594 242.886 98.9594 251.636 Q98.9594 260.362 95.8808 264.969 Q92.8252 269.552 87.0151 269.552 Q81.2049 269.552 78.1262 264.969 Q75.0707 260.362 75.0707 251.636 Q75.0707 242.886 78.1262 238.302 Q81.2049 233.696 87.0151 233.696 Z" fill="#000000" fill-rule="evenodd" fill-opacity="1" /><path clip-path="url(#clip020)" d="M107.177 263.001 L112.061 263.001 L112.061 268.881 L107.177 268.881 L107.177 263.001 Z" fill="#000000" fill-rule="evenodd" fill-opacity="1" /><path clip-path="url(#clip020)" d="M132.246 237.399 Q128.635 237.399 126.807 240.964 Q125.001 244.506 125.001 251.636 Q125.001 258.742 126.807 262.307 Q128.635 265.848 132.246 265.848 Q135.881 265.848 137.686 262.307 Q139.515 258.742 139.515 251.636 Q139.515 244.506 137.686 240.964 Q135.881 237.399 132.246 237.399 M132.246 233.696 Q138.056 233.696 141.112 238.302 Q144.191 242.886 144.191 251.636 Q144.191 260.362 141.112 264.969 Q138.056 269.552 132.246 269.552 Q126.436 269.552 123.357 264.969 Q120.302 260.362 120.302 251.636 Q120.302 242.886 123.357 238.302 Q126.436 233.696 132.246 233.696 Z" fill="#000000" fill-rule="evenodd" fill-opacity="1" /><path clip-path="url(#clip020)" d="M48.6588 148.834 L56.2976 148.834 L56.2976 122.468 L47.9875 124.135 L47.9875 119.876 L56.2513 118.209 L60.9272 118.209 L60.9272 148.834 L68.5661 148.834 L68.5661 152.769 L48.6588 152.769 L48.6588 148.834 Z" fill="#000000" fill-rule="evenodd" fill-opacity="1" /><path clip-path="url(#clip020)" d="M82.0382 148.834 L98.3576 148.834 L98.3576 152.769 L76.4133 152.769 L76.4133 148.834 Q79.0753 146.079 83.6586 141.45 Q88.2651 136.797 89.4456 135.454 Q91.691 132.931 92.5706 131.195 Q93.4734 129.436 93.4734 127.746 Q93.4734 124.991 91.5289 123.255 Q89.6076 121.519 86.5058 121.519 Q84.3067 121.519 81.8531 122.283 Q79.4225 123.047 76.6447 124.598 L76.6447 119.876 Q79.4688 118.741 81.9225 118.163 Q84.3762 117.584 86.4132 117.584 Q91.7836 117.584 94.978 120.269 Q98.1724 122.954 98.1724 127.445 Q98.1724 129.575 97.3622 131.496 Q96.5752 133.394 94.4687 135.987 Q93.89 136.658 90.7882 139.876 Q87.6864 143.07 82.0382 148.834 Z" fill="#000000" fill-rule="evenodd" fill-opacity="1" /><path clip-path="url(#clip020)" d="M108.172 146.889 L113.057 146.889 L113.057 152.769 L108.172 152.769 L108.172 146.889 Z" fill="#000000" fill-rule="evenodd" fill-opacity="1" /><path clip-path="url(#clip020)" d="M123.288 118.209 L141.644 118.209 L141.644 122.144 L127.57 122.144 L127.57 130.616 Q128.589 130.269 129.607 130.107 Q130.626 129.922 131.644 129.922 Q137.431 129.922 140.811 133.093 Q144.191 136.264 144.191 141.681 Q144.191 147.26 140.718 150.362 Q137.246 153.44 130.927 153.44 Q128.751 153.44 126.482 153.07 Q124.237 152.7 121.83 151.959 L121.83 147.26 Q123.913 148.394 126.135 148.95 Q128.357 149.505 130.834 149.505 Q134.839 149.505 137.177 147.399 Q139.515 145.292 139.515 141.681 Q139.515 138.07 137.177 135.964 Q134.839 133.857 130.834 133.857 Q128.959 133.857 127.084 134.274 Q125.232 134.69 123.288 135.57 L123.288 118.209 Z" fill="#000000" fill-rule="evenodd" fill-opacity="1" /><polyline clip-path="url(#clip022)" style="stroke:#009af9; stroke-linecap:round; stroke-linejoin:round; stroke-width:2; stroke-opacity:1; fill:none" points="275.98,520.183 276.615,524.646 277.25,507.151 277.885,532.207 278.52,519.202 279.155,542.581 279.79,536.501 280.425,567.49 281.06,537.129 281.694,525.982 282.329,534.534 282.964,521.304 283.599,531.254 284.234,513.972 284.869,545.769 285.504,530.877 286.139,534.008 286.774,529.481 287.409,526.112 288.044,549.439 288.679,509.383 289.313,531.021 289.948,527.396 290.583,531.938 291.218,529.702 291.853,535.41 292.488,532.324 293.123,545 293.758,516.853 294.393,528.88 295.028,514.572 295.663,531.388 296.298,526.312 296.932,550.253 297.567,525.741 298.202,506.981 298.837,536.997 299.472,522.917 300.107,516.024 300.742,520.318 301.377,536.723 302.012,536.429 302.647,522.253 303.282,534.558 303.916,528.089 304.551,534.194 305.186,558.115 305.821,500.45 306.456,528.03 307.091,556.272 307.726,519.741 308.361,512.736 308.996,537.116 309.631,554.561 310.266,519.586 310.901,536.621 311.535,504.523 312.17,505.453 312.805,552.342 313.44,518.791 314.075,526.372 314.71,532.334 315.345,525.927 315.98,509.694 316.615,530.81 317.25,544.802 317.885,525.667 318.519,519.927 319.154,553.147 319.789,488.402 320.424,570.398 321.059,484.157 321.694,573.365 322.329,478.052 322.964,507.07 323.599,550.099 324.234,512.455 324.869,527.603 325.504,515.665 326.138,586.871 326.773,501.925 327.408,560.414 328.043,516.492 328.678,527.918 329.313,515.893 329.948,539.972 330.583,507.767 331.218,533.737 331.853,329.163 332.488,328.567 333.123,358.431 333.757,340.449 334.392,357.357 335.027,343.46 335.662,361.892 336.297,336.62 336.932,327.98 337.567,366.422 338.202,351.037 338.837,356.525 339.472,351.243 340.107,342.509 340.741,387.998 341.376,337.782 342.011,359.907 342.646,314.477 343.281,369.01 343.916,361.323 344.551,363.936 345.186,344.849 345.821,349.502 346.456,315.252 347.091,386.54 347.726,345.984 348.36,354.306 348.995,353.357 349.63,349.538 350.265,327.576 350.9,382.878 351.535,346.585 352.17,373.664 352.805,322.479 353.44,333.341 354.075,335.184 354.71,362.005 355.344,366.974 355.979,347.523 356.614,333.232 357.249,343.993 357.884,366.167 358.519,334.047 359.154,341.525 359.789,319.334 360.424,376.784 361.059,319.402 361.694,345.082 362.329,368.576 362.963,322.454 363.598,335.604 364.233,357.199 364.868,350.2 365.503,329.303 366.138,373.611 366.773,329.686 367.408,357.623 368.043,342.103 368.678,348.545 369.313,326.774 369.948,374.356 370.582,334.539 371.217,355.259 371.852,340.786 372.487,344.986 373.122,343.394 373.757,338.31 374.392,328.018 375.027,369.935 375.662,341.554 376.297,335.693 376.932,333.464 377.566,358.204 378.201,331.053 378.836,347.67 379.471,345.65 380.106,339.51 380.741,344.652 381.376,345.409 382.011,345.149 382.646,344.628 383.281,339.912 383.916,334.948 384.551,375.269 385.185,333.366 385.82,338.586 386.455,333.874 387.09,391.951 387.725,348.367 388.36,351.632 388.995,342.523 389.63,296.294 390.265,354.474 390.9,296.483 391.535,345.869 392.169,324.062 392.804,365.718 393.439,293.398 394.074,372.147 394.709,310.194 395.344,362.56 395.979,344.948 396.614,339.755 397.249,331.396 397.884,374.902 398.519,323.828 399.154,344.952 399.788,305.671 400.423,338.749 401.058,335.51 401.693,346.777 402.328,316.908 402.963,362.175 403.598,306.913 404.233,352.101 404.868,337.273 405.503,340.434 406.138,345.308 406.773,363.301 407.407,339.392 408.042,305.847 408.677,387.676 409.312,293.464 409.947,379.557 410.582,301.181 411.217,392.172 411.852,298.296 412.487,395.252 413.122,296.346 413.757,375.172 414.391,331.412 415.026,376.433 415.661,332.257 416.296,328.278 416.931,369.406 417.566,298.864 418.201,386.517 418.836,312.586 419.471,372.19 420.106,303.98 420.741,344.326 421.376,338.553 422.01,367.368 422.645,312.394 423.28,369.289 423.915,299.846 424.55,349.567 425.185,315.229 425.82,369.848 426.455,361.514 427.09,305.117 427.725,354.535 428.36,306.935 428.995,401.346 429.629,291.545 430.264,397.69 430.899,310.885 431.534,374.194 432.169,334.911 432.804,317.364 433.439,330.491 434.074,357.704 434.709,316.384 435.344,348.956 435.979,313.485 436.613,326.062 437.248,331.23 437.883,318.926 438.518,383.311 439.153,338.19 439.788,352.685 440.423,364.401 441.058,324.317 441.693,350.884 442.328,320.53 442.963,387.962 443.598,510.565 444.232,543.505 444.867,534.591 445.502,517.411 446.137,531.811 446.772,517.13 447.407,535.268 448.042,546.644 448.677,544.395 449.312,544.466 449.947,551.884 450.582,512.094 451.216,540.657 451.851,518.885 452.486,520.509 453.121,527.524 453.756,528.805 454.391,540.666 455.026,536.764 455.661,546.803 456.296,516.429 456.931,536.051 457.566,518.672 458.201,533.218 458.835,532.373 459.47,526.93 460.105,520.359 460.74,518.091 461.375,506.23 462.01,546.727 462.645,540.65 463.28,550.023 463.915,562.845 464.55,543.748 465.185,510.511 465.82,513.073 466.454,533.19 467.089,519.179 467.724,536.417 468.359,524.755 468.994,519.418 469.629,522.877 470.264,539.823 470.899,525.124 471.534,520.148 472.169,535.223 472.804,535.025 473.438,545.14 474.073,526.813 474.708,514.037 475.343,539.519 475.978,487.634 476.613,569.134 477.248,522.941 477.883,542.769 478.518,508.215 479.153,536.75 479.788,521.098 480.423,533.759 481.057,530.566 481.692,566.522 482.327,516.817 482.962,529.636 483.597,498.736 484.232,537.104 484.867,525.913 485.502,535.414 486.137,540.569 486.772,541.533 487.407,542.749 488.041,523.697 488.676,528.167 489.311,539.458 489.946,537.613 490.581,517.855 491.216,557.8 491.851,551.678 492.486,511.476 493.121,524.057 493.756,502.35 494.391,510.96 495.026,547.568 495.66,542.079 496.295,519.444 496.93,543.93 497.565,507.765 498.2,527.576 498.835,562.735 499.47,544.09 500.105,485.666 500.74,565.369 501.375,518.118 502.01,522.515 502.645,522.22 503.279,550.433 503.914,526.857 504.549,530.396 505.184,530.418 505.819,520.925 506.454,518.74 507.089,547.885 507.724,535.135 508.359,541.744 508.994,546.453 509.629,502.222 510.263,520.57 510.898,544.807 511.533,518.281 512.168,568.718 512.803,521.017 513.438,540.704 514.073,508.503 514.708,533.114 515.343,519.552 515.978,542.461 516.613,537.613 517.248,505.661 517.882,562.197 518.517,486.258 519.152,566.335 519.787,485.259 520.422,557.946 521.057,524.741 521.692,509.136 522.327,537.545 522.962,556.853 523.597,518.851 524.232,531.273 524.866,532.689 525.501,554.033 526.136,517.616 526.771,550.095 527.406,356.618 528.041,347.362 528.676,343.361 529.311,337.398 529.946,328.013 530.581,375.167 531.216,314.322 531.851,383.318 532.485,317.048 533.12,361.003 533.755,331.274 534.39,364.659 535.025,330.006 535.66,365.498 536.295,341.576 536.93,318.198 537.565,357.473 538.2,336.437 538.835,348.005 539.47,372.804 540.104,334.844 540.739,338.23 541.374,353.471 542.009,348.84 542.644,334.743 543.279,361.654 543.914,359.149 544.549,326.484 545.184,354.092 545.819,343.133 546.454,347.416 547.088,339.572 547.723,346.979 548.358,361.685 548.993,326.211 549.628,346.782 550.263,352.931 550.898,364.03 551.533,321.334 552.168,360.801 552.803,341.202 553.438,338.556 554.073,354.395 554.707,330.776 555.342,347.929 555.977,321.134 556.612,363.117 557.247,310.925 557.882,375.935 558.517,313.915 559.152,361.774 559.787,331.815 560.422,347.992 561.057,335.091 561.691,344.843 562.326,339.971 562.961,346.221 563.596,332.198 564.231,363.028 564.866,325.077 565.501,365.625 566.136,329.597 566.771,351.828 567.406,338.529 568.041,355.994 568.676,339.158 569.31,337.47 569.945,367.214 570.58,329.574 571.215,349.376 571.85,347.938 572.485,328.864 573.12,358.257 573.755,327.31 574.39,373.814 575.025,317.554 575.66,355.317 576.295,326.516 576.929,368.606 577.564,312.453 578.199,400.428 578.834,310.422 579.469,321.422 580.104,371.897 580.739,306.933 581.374,383.563 582.009,311.139 582.644,372.147 583.279,348.483 583.913,376.392 584.548,344.572 585.183,310.918 585.818,379.247 586.453,329.817 587.088,341.525 587.723,355.602 588.358,320.057 588.993,336.737 589.628,339.493 590.263,346.509 590.898,336.696 591.532,345.111 592.167,345.548 592.802,343.324 593.437,370.331 594.072,351.054 594.707,363.366 595.342,307.44 595.977,367.775 596.612,300.12 597.247,356.56 597.882,337.452 598.517,321.061 599.151,333.538 599.786,325.699 600.421,342.899 601.056,317.952 601.691,400.875 602.326,318.691 602.961,358.569 603.596,332.495 604.231,331.776 604.866,345.379 605.501,316.463 606.135,362.016 606.77,362.503 607.405,350.066 608.04,333.791 608.675,364.125 609.31,336.012 609.945,362.794 610.58,351.354 611.215,568.442 611.85,513.811 612.485,498.56 613.12,572.733 613.754,484.299 614.389,554.922 615.024,495.457 615.659,545.256 616.294,491.458 616.929,523.084 617.564,559.197 618.199,511.309 618.834,554.885 619.469,526.427 620.104,502.726 620.738,527.926 621.373,554.46 622.008,553.474 622.643,486.624 623.278,545.064 623.913,566.585 624.548,482.946 625.183,522.194 625.818,497.67 626.453,549.864 627.088,558.613 627.723,544.638 628.357,493.113 628.992,530.367 629.627,506.717 630.262,547.658 630.897,507.575 631.532,573.816 632.167,500.927 632.802,570.158 633.437,522.041 634.072,510.999 634.707,535.162 635.342,550.24 635.976,515.32 636.611,508.827 637.246,508.345 637.881,567.973 638.516,539.605 639.151,525.771 639.786,524.151 640.421,535.894 641.056,501.973 641.691,541.482 642.326,525.939 642.96,529.759 643.595,549.845 644.23,541.919 644.865,558.773 645.5,534.458 646.135,527.017 646.77,529.509 647.405,535.279 648.04,536.82 648.675,519.712 649.31,523.604 649.945,519.014 650.579,530.552 651.214,539.431 651.849,521.006 652.484,532.125 653.119,535.896 653.754,513.644 654.389,535.669 655.024,527.612 655.659,524.643 656.294,541.528 656.929,478.931 657.563,566.019 658.198,503.503 658.833,548.052 659.468,530.28 660.103,523.386 660.738,530.848 661.373,526.673 662.008,524.602 662.643,528.959 663.278,513.81 663.913,525.201 664.548,521.548 665.182,532.863 665.817,525.771 666.452,541.996 667.087,360.12 667.722,320.598 668.357,337.727 668.992,333.467 669.627,335.537 670.262,363.638 670.897,362.008 671.532,342.806 672.167,337.21 672.801,348.026 673.436,345.266 674.071,355.258 674.706,329.842 675.341,357.719 675.976,315.252 676.611,313.365 677.246,365.537 677.881,339.909 678.516,345.957 679.151,349.53 679.785,329.678 680.42,354.79 681.055,329.284 681.69,336.913 682.325,336.936 682.96,324.932 683.595,367.277 684.23,346.148 684.865,338.602 685.5,349.367 686.135,372.11 686.77,330.327 687.404,347.117 688.039,335.721 688.674,349.016 689.309,341.835 689.944,350.481 690.579,360.474 691.214,328.497 691.849,325.086 692.484,314.25 693.119,347.563 693.754,349.167 694.388,342.05 695.023,357.914 695.658,317.828 696.293,369.847 696.928,316.376 697.563,374.908 698.198,314.55 698.833,376.927 699.468,295.451 700.103,391.649 700.738,317.136 701.373,371.423 702.007,316.9 702.642,374.814 703.277,317.207 703.912,370.945 704.547,316.438 705.182,377.118 705.817,308.406 706.452,365.547 707.087,319.481 707.722,367.492 708.357,326.963 708.992,359.251 709.626,336.7 710.261,347.887 710.896,332.901 711.531,346.941 712.166,347.691 712.801,333.736 713.436,349.13 714.071,331.331 714.706,349.767 715.341,344.476 715.976,340.681 716.61,355.24 717.245,348.004 717.88,344.144 718.515,310.24 719.15,380.589 719.785,309.398 720.42,379.107 721.055,316.172 721.69,375.69 722.325,311.025 722.96,535.489 723.595,522.651 724.229,529.045 724.864,539.441 725.499,557.312 726.134,521.018 726.769,523.155 727.404,523.084 728.039,514.73 728.674,506.179 729.309,550.176 729.944,558.133 730.579,565.629 731.213,545.312 731.848,541.497 732.483,511.879 733.118,524.569 733.753,535.902 734.388,549.565 735.023,538.661 735.658,539.095 736.293,525.671 736.928,537.069 737.563,503.212 738.198,523.421 738.832,526.215 739.467,540.995 740.102,532.909 740.737,530.449 741.372,534.239 742.007,531.643 742.642,538.065 743.277,527.227 743.912,540.364 744.547,531.597 745.182,534.914 745.817,530.465 746.451,530.921 747.086,522.404 747.721,517.937 748.356,527.561 748.991,540.613 749.626,519.66 750.261,516.308 750.896,341.655 751.531,355.315 752.166,334.422 752.801,350.908 753.435,339.897 754.07,354.168 754.705,326.624 755.34,373.136 755.975,312.017 756.61,347.514 757.245,353.404 757.88,322.149 758.515,362.112 759.15,332.566 759.785,336.004 760.42,366.026 761.054,346.094 761.689,332.228 762.324,344.281 762.959,341.166 763.594,354.507 764.229,344.907 764.864,351.891 765.499,361.442 766.134,335.097 766.769,348.073 767.404,354.391 768.039,334.874 768.673,367.15 769.308,330.143 769.943,336.315 770.578,356.105 771.213,330.063 771.848,365.536 772.483,317.473 773.118,378.067 773.753,297.242 774.388,387.848 775.023,299.412 775.657,385.233 776.292,300.387 776.927,386.512 777.562,300.519 778.197,402.026 778.832,324.968 779.467,343.191 780.102,337.559 780.737,355.848 781.372,349.493 782.007,354.374 782.642,358.759 783.276,348.335 783.911,327.162 784.546,359.099 785.181,323.068 785.816,327.133 786.451,344.649 787.086,329.506 787.721,353.814 788.356,358.387 788.991,328.421 789.626,366.251 790.26,313.929 790.895,362.032 791.53,331.888 792.165,345.566 792.8,331.279 793.435,355.367 794.07,340.911 794.705,308.56 795.34,367.491 795.975,350.056 796.61,366.571 797.245,334.969 797.879,348.686 798.514,339.897 799.149,349.131 799.784,364.972 800.419,331.389 801.054,357.262 801.689,333.332 802.324,356.598 802.959,327.305 803.594,355.519 804.229,374.154 804.864,327.645 805.498,362.547 806.133,339.703 806.768,341.787 807.403,330.77 808.038,368.397 808.673,330.986 809.308,329.083 809.943,351.744 810.578,371.377 811.213,358.892 811.848,355.032 812.482,331.123 813.117,355.99 813.752,345.666 814.387,321.53 815.022,319.382 815.657,335.055 816.292,343.884 816.927,346.612 817.562,365.563 818.197,367.322 818.832,357.826 819.467,348.708 820.101,354.634 820.736,352.094 821.371,372.379 822.006,356.812 822.641,342.412 823.276,367.561 823.911,358.807 824.546,342.029 825.181,343.578 825.816,339.766 826.451,346.466 827.085,346.028 827.72,334.533 828.355,360.197 828.99,362.626 829.625,341.517 830.26,347.886 830.895,348.165 831.53,354.681 832.165,352.798 832.8,351.27 833.435,349.365 834.07,343.948 834.704,365.244 835.339,337.424 835.974,367.125 836.609,351.153 837.244,353.922 837.879,360.197 838.514,331.363 839.149,326.94 839.784,349.171 840.419,330.875 841.054,344.078 841.689,366.342 842.323,356.566 842.958,315.467 843.593,342.903 844.228,338.508 844.863,327.73 845.498,373.536 846.133,370.619 846.768,367.305 847.403,350.557 848.038,326.091 848.673,315.046 849.307,349.284 849.942,334.812 850.577,336.976 851.212,351.575 851.847,344.13 852.482,337.635 853.117,325.163 853.752,353.46 854.387,350.844 855.022,339.236 855.657,340.333 856.292,375.649 856.926,321.7 857.561,347.742 858.196,320.208 858.831,328.054 859.466,362.254 860.101,367 860.736,353.041 861.371,327.63 862.006,342.548 862.641,536.488 863.276,545.528 863.91,536.561 864.545,525.929 865.18,529.604 865.815,507.427 866.45,525.435 867.085,537.749 867.72,528.909 868.355,528.989 868.99,532.148 869.625,509.034 870.26,509.755 870.895,505.651 871.529,531.021 872.164,516.787 872.799,520.641 873.434,524.169 874.069,521.623 874.704,518.579 875.339,524.077 875.974,520.775 876.609,512.596 877.244,535.147 877.879,518.861 878.514,522.373 879.148,526.509 879.783,541.754 880.418,540.322 881.053,528.931 881.688,526.974 882.323,524.717 882.958,514.304 883.593,512.794 884.228,530.258 884.863,530.046 885.498,539.537 886.132,545.724 886.767,541.962 887.402,520.077 888.037,516.803 888.672,531.412 889.307,532.837 889.942,524.27 890.577,384.649 891.212,293.682 891.847,389.204 892.482,297.234 893.117,383.744 893.751,298.648 894.386,383.865 895.021,302.569 895.656,371.652 896.291,318.994 896.926,352.495 897.561,320.87 898.196,365.371 898.831,316.747 899.466,366.761 900.101,320.301 900.735,374.273 901.37,305.65 902.005,384.286 902.64,312.658 903.275,367.181 903.91,306.731 904.545,330.834 905.18,350.491 905.815,327.932 906.45,367.459 907.085,328.998 907.72,332.708 908.354,310.842 908.989,368.511 909.624,329.513 910.259,351.323 910.894,353.51 911.529,334.917 912.164,310.953 912.799,319.262 913.434,349.968 914.069,341.397 914.704,360.922 915.339,339.18 915.973,324.847 916.608,322.234 917.243,380.624 917.878,341.1 918.513,526.556 919.148,530.321 919.783,549.111 920.418,526.783 921.053,528.209 921.688,531.024 922.323,528.218 922.957,522.754 923.592,526.958 924.227,532.687 924.862,551.383 925.497,530.534 926.132,546.548 926.767,548.331 927.402,562.148 928.037,531.415 928.672,549.365 929.307,540.063 929.942,537.455 930.576,543.627 931.211,532.023 931.846,543.032 932.481,543.31 933.116,534.878 933.751,534.53 934.386,532.404 935.021,519.169 935.656,508.455 936.291,521.352 936.926,521.833 937.561,517.397 938.195,541.737 938.83,525.303 939.465,537.511 940.1,524.648 940.735,536.095 941.37,540.886 942.005,525.925 942.64,519.352 943.275,536.272 943.91,530.986 944.545,538.109 945.179,536.202 945.814,542.284 946.449,320.089 947.084,370.335 947.719,310.285 948.354,370.417 948.989,332.499 949.624,354.894 950.259,355.982 950.894,316.83 951.529,365.147 952.164,337.101 952.798,348.485 953.433,317.142 954.068,370.296 954.703,314.391 955.338,356.641 955.973,352.642 956.608,323.539 957.243,360.548 957.878,355.112 958.513,335.967 959.148,344.345 959.782,333.546 960.417,380.686 961.052,299.779 961.687,367.916 962.322,323.492 962.957,361.615 963.592,354.165 964.227,334.355 964.862,356.191 965.497,326.515 966.132,367.145 966.767,339.911 967.401,357.256 968.036,329.146 968.671,351.476 969.306,340.645 969.941,364.061 970.576,340.8 971.211,337.343 971.846,361.98 972.481,313 973.116,367.813 973.751,316.987 974.386,530.763 975.02,544.394 975.655,529.126 976.29,530.15 976.925,525.085 977.56,538.438 978.195,544.952 978.83,523.253 979.465,532.476 980.1,513.381 980.735,538.378 981.37,565.196 982.004,563.067 982.639,542.077 983.274,546.232 983.909,521.515 984.544,525.868 985.179,534.687 985.814,512.942 986.449,540.628 987.084,518.998 987.719,536.35 988.354,518.583 988.989,523.974 989.623,528.248 990.258,531.901 990.893,502.78 991.528,516.771 992.163,522.164 992.798,546.74 993.433,548.759 994.068,551.574 994.703,560.441 995.338,546.239 995.973,530.13 996.607,516.647 997.242,527.797 997.877,546.263 998.512,541.812 999.147,536.147 999.782,542.429 1000.42,536.683 1001.05,548.389 1001.69,556.762 1002.32,368.086 1002.96,343.605 1003.59,359.627 1004.23,360.397 1004.86,348.419 1005.5,372.737 1006.13,349.764 1006.77,351.387 1007.4,344.41 1008.04,336.093 1008.67,340.948 1009.31,353.87 1009.94,326.234 1010.58,373.258 1011.21,341.316 1011.85,327.253 1012.48,345.499 1013.12,337.499 1013.75,360.104 1014.39,328.017 1015.02,364.761 1015.65,347.472 1016.29,352.046 1016.92,351.758 1017.56,336.099 1018.19,317.856 1018.83,376.56 1019.46,317.307 1020.1,345.662 1020.73,328.53 1021.37,368.266 1022,335.062 1022.64,344.894 1023.27,364.495 1023.91,347.241 1024.54,368.591 1025.18,335.581 1025.81,358.513 1026.45,314.161 1027.08,366.413 1027.72,327.189 1028.35,382.007 1028.99,307.991 1029.62,353.244 1030.26,357.92 1030.89,342.025 1031.53,319.065 1032.16,366.771 1032.8,325.659 1033.43,360.611 1034.07,344.68 1034.7,361.695 1035.34,331.287 1035.97,347.756 1036.61,365.165 1037.24,371.223 1037.88,351.869 1038.51,339.965 1039.15,328.531 1039.78,340.537 1040.42,347.249 1041.05,361.179 1041.69,331.746 1042.32,314.257 1042.96,338.039 1043.59,321.848 1044.23,341.577 1044.86,346.658 1045.5,340.536 1046.13,319.662 1046.77,313.672 1047.4,335.22 1048.04,340.258 1048.67,353.927 1049.31,345.926 1049.94,351.332 1050.58,349.363 1051.21,331.584 1051.84,356.321 1052.48,323.255 1053.11,353.156 1053.75,353.456 1054.38,332.675 1055.02,373.367 1055.65,362.221 1056.29,359.473 1056.92,327.109 1057.56,307.186 1058.19,497.944 1058.83,514.032 1059.46,535.522 1060.1,526.174 1060.73,538.394 1061.37,482.138 1062,526.102 1062.64,533.929 1063.27,524.416 1063.91,534.868 1064.54,523.445 1065.18,535.412 1065.81,523.473 1066.45,510.611 1067.08,520.576 1067.72,539.377 1068.35,520.739 1068.99,539.041 1069.62,520.054 1070.26,539.212 1070.89,519.931 1071.53,539.858 1072.16,477.819 1072.8,560.218 1073.43,507.139 1074.07,548.698 1074.7,502.47 1075.34,526.874 1075.97,533.199 1076.61,527.834 1077.24,533.638 1077.88,529.442 1078.51,519.954 1079.15,518.009 1079.78,534.725 1080.42,527.611 1081.05,535.283 1081.69,526.238 1082.32,533.111 1082.96,528.816 1083.59,533.746 1084.23,528.929 1084.86,533.125 1085.5,526.879 1086.13,343.999 1086.77,344.106 1087.4,362.734 1088.04,346.991 1088.67,339.348 1089.3,339.711 1089.94,367.854 1090.57,329.838 1091.21,359.328 1091.84,353.499 1092.48,339.224 1093.11,347.898 1093.75,349.486 1094.38,334.409 1095.02,344.627 1095.65,348.117 1096.29,343.747 1096.92,379.129 1097.56,335.342 1098.19,381.672 1098.83,310.472 1099.46,366.913 1100.1,330.038 1100.73,326.295 1101.37,359.537 1102,326.321 1102.64,337.067 1103.27,325.698 1103.91,324.486 1104.54,348.659 1105.18,334.632 1105.81,332.016 1106.45,361.536 1107.08,357.275 1107.72,352.051 1108.35,358.679 1108.99,355.328 1109.62,348.477 1110.26,319.083 1110.89,353.359 1111.53,329.639 1112.16,315.651 1112.8,362.177 1113.43,347.547 1114.07,352.097 1114.7,313.08 1115.34,365.048 1115.97,338.477 1116.61,354.221 1117.24,329.031 1117.88,342.819 1118.51,346.27 1119.15,328.57 1119.78,349.803 1120.42,364.877 1121.05,327.205 1121.69,340.716 1122.32,365.042 1122.96,312.809 1123.59,389.427 1124.23,323.811 1124.86,377.277 1125.5,316.634 1126.13,380.848 1126.76,334.293 1127.4,337.242 1128.03,356.497 1128.67,312.153 1129.3,361.552 1129.94,324.989 1130.57,383.502 1131.21,347.507 1131.84,375.342 1132.48,333.003 1133.11,348.725 1133.75,324.3 1134.38,360.137 1135.02,319.831 1135.65,354.069 1136.29,325.78 1136.92,345.665 1137.56,358.13 1138.19,344.916 1138.83,355.189 1139.46,349.224 1140.1,342.969 1140.73,329.885 1141.37,364.04 1142,356.065 1142.64,356.89 1143.27,360.936 1143.91,337.898 1144.54,345.873 1145.18,315.314 1145.81,369.689 1146.45,334.588 1147.08,348.669 1147.72,337.358 1148.35,365.475 1148.99,314.94 1149.62,379.295 1150.26,334.307 1150.89,337.265 1151.53,361.51 1152.16,339.475 1152.8,343.547 1153.43,345.648 1154.07,333.996 1154.7,354.107 1155.34,343.385 1155.97,368.639 1156.61,319.481 1157.24,304.432 1157.88,344.294 1158.51,320.132 1159.15,375.036 1159.78,347.369 1160.42,359.122 1161.05,325.485 1161.69,343.858 1162.32,345.484 1162.95,343.775 1163.59,331.563 1164.22,350.413 1164.86,330.418 1165.49,328.825 1166.13,336.336 1166.76,289.809 1167.4,333.451 1168.03,364.487 1168.67,364.087 1169.3,346.725 1169.94,369.188 1170.57,322.179 1171.21,367.353 1171.84,335.958 1172.48,337.688 1173.11,327.018 1173.75,328.003 1174.38,370.234 1175.02,325.657 1175.65,379.099 1176.29,329.982 1176.92,342.221 1177.56,317.938 1178.19,360.623 1178.83,349.071 1179.46,320.399 1180.1,340.321 1180.73,330.537 1181.37,370.469 1182,334.851 1182.64,361.837 1183.27,339.439 1183.91,331.547 1184.54,328.687 1185.18,347.674 1185.81,336.926 1186.45,339.275 1187.08,339.648 1187.72,318.276 1188.35,359.427 1188.99,365.066 1189.62,306.488 1190.26,358.281 1190.89,326.434 1191.53,370.468 1192.16,334.66 1192.8,377.652 1193.43,326.338 1194.07,333.463 1194.7,364.545 1195.34,352.682 1195.97,300.845 1196.61,332.644 1197.24,320.871 1197.88,519.547 1198.51,502.091 1199.15,512.727 1199.78,530.908 1200.41,524.238 1201.05,536.525 1201.68,526.561 1202.32,536.435 1202.95,523.389 1203.59,517.5 1204.22,524.403 1204.86,538.11 1205.49,537.203 1206.13,535.93 1206.76,539.326 1207.4,535.072 1208.03,527.175 1208.67,536.909 1209.3,537.924 1209.94,545.567 1210.57,539.805 1211.21,525.725 1211.84,532.556 1212.48,531.286 1213.11,527.969 1213.75,544.79 1214.38,538.785 1215.02,534.369 1215.65,514.388 1216.29,524.422 1216.92,522.249 1217.56,513.97 1218.19,530.223 1218.83,527.252 1219.46,520.438 1220.1,526.512 1220.73,543.384 1221.37,531.465 1222,528.376 1222.64,546.159 1223.27,529.928 1223.91,526.781 1224.54,520.872 1225.18,527.943 1225.81,388.383 1226.45,306.995 1227.08,368.465 1227.72,309.228 1228.35,369.442 1228.99,310.204 1229.62,366.616 1230.26,315.263 1230.89,362.307 1231.53,318.653 1232.16,362.3 1232.8,321.083 1233.43,354.875 1234.07,329.366 1234.7,365.118 1235.34,324.642 1235.97,363.046 1236.6,323.852 1237.24,353.719 1237.87,328.669 1238.51,344.456 1239.14,335.166 1239.78,334.895 1240.41,352.106 1241.05,336.898 1241.68,362.036 1242.32,328.526 1242.95,374.146 1243.59,325.121 1244.22,355.475 1244.86,336.993 1245.49,346.048 1246.13,329.869 1246.76,343.132 1247.4,351.167 1248.03,326.687 1248.67,363.467 1249.3,326.994 1249.94,360.052 1250.57,324.491 1251.21,360.825 1251.84,339.186 1252.48,346.415 1253.11,333.235 1253.75,298.777 1254.38,381.617 1255.02,312.123 1255.65,349.686 1256.29,345.552 1256.92,335.731 1257.56,358.825 1258.19,323.726 1258.83,361.666 1259.46,331.78 1260.1,351.604 1260.73,338.137 1261.37,350.95 1262,326.759 1262.64,361.54 1263.27,323.178 1263.91,360.651 1264.54,319.483 1265.18,366.368 1265.81,312.15 1266.45,371.491 1267.08,309.596 1267.72,370.92 1268.35,310.911 1268.99,373.345 1269.62,309.416 1270.26,350.506 1270.89,338.181 1271.53,350.445 1272.16,336.408 1272.8,351.29 1273.43,336.559 1274.06,351.426 1274.7,335.053 1275.33,351.447 1275.97,335.048 1276.6,351.714 1277.24,334.827 1277.87,351.214 1278.51,336.498 1279.14,350.791 1279.78,336.341 1280.41,352.524 1281.05,335.14 1281.68,335.792 1282.32,346.245 1282.95,348.627 1283.59,360.858 1284.22,341.05 1284.86,363.783 1285.49,333.47 1286.13,360.569 1286.76,352.619 1287.4,357.52 1288.03,354.362 1288.67,341.83 1289.3,323.513 1289.94,326.505 1290.57,375.584 1291.21,309.023 1291.84,367.256 1292.48,342.083 1293.11,355.664 1293.75,329.309 1294.38,330.701 1295.02,347.565 1295.65,358.516 1296.29,343.85 1296.92,379.466 1297.56,359.698 1298.19,344.006 1298.83,376.075 1299.46,340.38 1300.1,345.751 1300.73,327.737 1301.37,374.925 1302,337.465 1302.64,371.101 1303.27,330.682 1303.91,350.581 1304.54,323.039 1305.18,353.128 1305.81,324.093 1306.45,350.602 1307.08,352.94 1307.72,389.157 1308.35,301.049 1308.99,374.536 1309.62,327.478 1310.25,347.793 1310.89,344.259 1311.52,326.53 1312.16,375.52 1312.79,329.123 1313.43,356.315 1314.06,324.9 1314.7,339.884 1315.33,374.392 1315.97,314.268 1316.6,373.691 1317.24,316.452 1317.87,358.885 1318.51,357.42 1319.14,349.767 1319.78,315.591 1320.41,372.584 1321.05,303.788 1321.68,392.791 1322.32,300.421 1322.95,361.463 1323.59,309.936 1324.22,315.52 1324.86,371.863 1325.49,309.886 1326.13,365.208 1326.76,314.332 1327.4,369.866 1328.03,340.853 1328.67,369.976 1329.3,308.406 1329.94,380.572 1330.57,309.698 1331.21,374.58 1331.84,297.436 1332.48,382.548 1333.11,336.093 1333.75,349.502 1334.38,307.149 1335.02,364.276 1335.65,346.943 1336.29,314.419 1336.92,379.375 1337.56,322.742 1338.19,337.271 1338.83,369.227 1339.46,347.579 1340.1,325.561 1340.73,376.029 1341.37,295.177 1342,348.865 1342.64,319.954 1343.27,330.933 1343.91,332.984 1344.54,342.632 1345.18,345.896 1345.81,352.103 1346.45,334.43 1347.08,336.995 1347.71,331.147 1348.35,360.338 1348.98,326.348 1349.62,381.043 1350.25,325.522 1350.89,351.979 1351.52,365.705 1352.16,308.872 1352.79,362.052 1353.43,328.156 1354.06,345.221 1354.7,345.69 1355.33,351.523 1355.97,368.27 1356.6,350.972 1357.24,310.465 1357.87,357.365 1358.51,318.442 1359.14,355.366 1359.78,320.724 1360.41,354.318 1361.05,368.95 1361.68,338.506 1362.32,318.353 1362.95,379.177 1363.59,300.749 1364.22,357.876 1364.86,331.604 1365.49,396.504 1366.13,347.963 1366.76,362.932 1367.4,306.876 1368.03,346.323 1368.67,295.411 1369.3,355.818 1369.94,371.796 1370.57,337.065 1371.21,343.512 1371.84,325.561 1372.48,365.441 1373.11,339.71 1373.75,353.516 1374.38,317.047 1375.02,379.028 1375.65,331.543 1376.29,353.943 1376.92,333.268 1377.56,327.463 1378.19,373.016 1378.83,331.412 1379.46,344.293 1380.1,314.172 1380.73,346.203 1381.37,333.234 1382,357.816 1382.64,329.765 1383.27,367.411 1383.9,336.714 1384.54,359.553 1385.17,351.95 1385.81,348.035 1386.44,335.241 1387.08,336.585 1387.71,343.316 1388.35,355.476 1388.98,325.262 1389.62,359.488 1390.25,323.135 1390.89,345.865 1391.52,346.033 1392.16,341.802 1392.79,361.427 1393.43,520.626 1394.06,554.728 1394.7,543.672 1395.33,533.135 1395.97,539.725 1396.6,536.194 1397.24,508.254 1397.87,542.944 1398.51,528.031 1399.14,508.17 1399.78,553.359 1400.41,503.05 1401.05,541.56 1401.68,527.746 1402.32,531.61 1402.95,542.524 1403.59,514.905 1404.22,548.903 1404.86,530.831 1405.49,518.901 1406.13,524.421 1406.76,537.554 1407.4,540.087 1408.03,531.371 1408.67,521.884 1409.3,530.403 1409.94,521.848 1410.57,547.37 1411.21,499.442 1411.84,545.908 1412.48,503.883 1413.11,553.505 1413.75,506.853 1414.38,544.872 1415.02,513.588 1415.65,536.976 1416.29,509.98 1416.92,557.011 1417.56,523.293 1418.19,533.014 1418.83,523.697 1419.46,546.418 1420.1,505.448 1420.73,551.754 1421.36,339.425 1422,330.031 1422.63,353.962 1423.27,326.442 1423.9,355.72 1424.54,331.894 1425.17,358.434 1425.81,338.795 1426.44,322.244 1427.08,382.155 1427.71,340.057 1428.35,332.224 1428.98,344.055 1429.62,346.872 1430.25,316.283 1430.89,368.997 1431.52,341.39 1432.16,340.049 1432.79,351.665 1433.43,352.683 1434.06,344.973 1434.7,349.299 1435.33,344.426 1435.97,339.238 1436.6,363.594 1437.24,323.399 1437.87,373.812 1438.51,324.809 1439.14,365.006 1439.78,328.008 1440.41,350.222 1441.05,336.423 1441.68,348.256 1442.32,337.496 1442.95,352.617 1443.59,322.127 1444.22,366.744 1444.86,327.133 1445.49,348.083 1446.13,332.603 1446.76,361.611 1447.4,327.69 1448.03,355.708 1448.67,347.814 1449.3,354.837 1449.94,295.582 1450.57,395.757 1451.21,295.429 1451.84,384.987 1452.48,326.213 1453.11,362.76 1453.75,325.136 1454.38,360.982 1455.02,327.691 1455.65,362.371 1456.29,327.669 1456.92,331.511 1457.55,331.013 1458.19,354.509 1458.82,302.62 1459.46,359.876 1460.09,332.279 1460.73,356.789 1461.36,333.839 1462,357.561 1462.63,331.611 1463.27,362.517 1463.9,329.515 1464.54,362.857 1465.17,332.475 1465.81,355.836 1466.44,324.674 1467.08,363.888 1467.71,325.871 1468.35,365.239 1468.98,324.576 1469.62,365.693 1470.25,325.246 1470.89,365.927 1471.52,325.442 1472.16,364.603 1472.79,326.589 1473.43,363.127 1474.06,325.183 1474.7,365.139 1475.33,323.84 1475.97,365.238 1476.6,323.24 1477.24,355.563 1477.87,350.803 1478.51,335.053 1479.14,353.594 1479.78,332.894 1480.41,320.1 1481.05,361.697 1481.68,360.476 1482.32,354.426 1482.95,298.464 1483.59,357.227 1484.22,329.278 1484.86,349.003 1485.49,350.612 1486.13,308.77 1486.76,301.422 1487.4,360.566 1488.03,337.466 1488.67,337.511 1489.3,326.563 1489.94,352.913 1490.57,342.271 1491.21,322.487 1491.84,353.781 1492.48,337.277 1493.11,324.741 1493.75,336.847 1494.38,366.662 1495.01,348.577 1495.65,334.453 1496.28,357.923 1496.92,326.423 1497.55,338.828 1498.19,353.087 1498.82,321.94 1499.46,326.184 1500.09,345.268 1500.73,352.467 1501.36,332.657 1502,353.358 1502.63,304.125 1503.27,392.979 1503.9,343.213 1504.54,328.021 1505.17,349.989 1505.81,339.519 1506.44,351.48 1507.08,334.917 1507.71,343.159 1508.35,341.959 1508.98,328.662 1509.62,356.061 1510.25,337.366 1510.89,371.341 1511.52,330.583 1512.16,351.476 1512.79,335.108 1513.43,338.086 1514.06,327.402 1514.7,345.378 1515.33,338.239 1515.97,356.247 1516.6,322.075 1517.24,340.683 1517.87,377.091 1518.51,316.172 1519.14,357.533 1519.78,359.832 1520.41,342.875 1521.05,363.526 1521.68,341.116 1522.32,343.155 1522.95,318.24 1523.59,314.69 1524.22,313.75 1524.86,349.569 1525.49,335.291 1526.13,349.42 1526.76,345.664 1527.4,364.242 1528.03,347.617 1528.67,329.067 1529.3,362.97 1529.94,329.107 1530.57,340.496 1531.2,349.808 1531.84,345.809 1532.47,337.699 1533.11,358.469 1533.74,319.362 1534.38,354.438 1535.01,334.642 1535.65,339.25 1536.28,364.958 1536.92,317.15 1537.55,376.278 1538.19,323.653 1538.82,377.349 1539.46,323.051 1540.09,381.949 1540.73,335.378 1541.36,355.221 1542,323.628 1542.63,372.435 1543.27,329.835 1543.9,379.431 1544.54,307.916 1545.17,388.007 1545.81,315.239 1546.44,376.531 1547.08,323.486 1547.71,325.782 1548.35,351.751 1548.98,324.406 1549.62,353.242 1550.25,333.362 1550.89,345.471 1551.52,347.267 1552.16,341.377 1552.79,346.577 1553.43,331.219 1554.06,362.036 1554.7,336.962 1555.33,357.128 1555.97,340.624 1556.6,343.717 1557.24,354.983 1557.87,316.371 1558.51,375.966 1559.14,297.832 1559.78,375.159 1560.41,303.452 1561.05,366.786 1561.68,334.775 1562.32,332.194 1562.95,369.968 1563.59,327.091 1564.22,355.489 1564.86,347.362 1565.49,334.598 1566.13,359.341 1566.76,340.885 1567.4,367.655 1568.03,314.217 1568.66,355.752 1569.3,354.819 1569.93,331.704 1570.57,346.029 1571.2,330.233 1571.84,365.278 1572.47,344.891 1573.11,334.048 1573.74,344.056 1574.38,336.526 1575.01,362.42 1575.65,343.516 1576.28,356.886 1576.92,345.857 1577.55,344.526 1578.19,338.098 1578.82,358.979 1579.46,323.575 1580.09,351.403 1580.73,333.222 1581.36,356.831 1582,334.887 1582.63,352.768 1583.27,349.741 1583.9,318.69 1584.54,358.182 1585.17,360.972 1585.81,369.979 1586.44,332.844 1587.08,376.123 1587.71,325.141 1588.35,351.289 1588.98,556.89 1589.62,521.57 1590.25,552.29 1590.89,501.899 1591.52,538.587 1592.16,499.089 1592.79,548.571 1593.43,502.872 1594.06,489.983 1594.7,511.437 1595.33,521.356 1595.97,523.709 1596.6,550.227 1597.24,536.773 1597.87,555.216 1598.51,543.902 1599.14,514.853 1599.78,521.434 1600.41,563.074 1601.05,532.508 1601.68,506.461 1602.32,528.867 1602.95,551.473 1603.59,534.494 1604.22,536.396 1604.85,493.95 1605.49,524.534 1606.12,523.856 1606.76,527.836 1607.39,524.483 1608.03,526.002 1608.66,547.361 1609.3,530.569 1609.93,527.459 1610.57,534.239 1611.2,517.512 1611.84,519.656 1612.47,530.143 1613.11,484.089 1613.74,527.386 1614.38,526.876 1615.01,513.982 1615.65,538.026 1616.28,522.456 1616.92,336.45 1617.55,349.881 1618.19,334.551 1618.82,340.223 1619.46,307.055 1620.09,389.172 1620.73,303.486 1621.36,339.611 1622,345.005 1622.63,348.992 1623.27,325.673 1623.9,355.515 1624.54,336.277 1625.17,344.83 1625.81,341.681 1626.44,346.486 1627.08,350.969 1627.71,338.67 1628.35,350.572 1628.98,340.693 1629.62,347.721 1630.25,341.003 1630.89,345.581 1631.52,344.736 1632.16,345.282 1632.79,343.789 1633.43,345.754 1634.06,342.484 1634.7,311.467 1635.33,374.089 1635.97,315.473 1636.6,364.593 1637.24,327.52 1637.87,352.277 1638.51,330.149 1639.14,366.086 1639.78,332.633 1640.41,355.289 1641.05,338.313 1641.68,358.828 1642.31,336.622 1642.95,340.472 1643.58,357.449 1644.22,340.232 1644.85,330.055 1645.49,320.578 1646.12,355.954 1646.76,388.637 1647.39,331.847 1648.03,332.614 1648.66,314.844 1649.3,332.543 1649.93,353.433 1650.57,339.151 1651.2,325.052 1651.84,352.834 1652.47,360.819 1653.11,299.153 1653.74,353.127 1654.38,339.227 1655.01,355.506 1655.65,350.003 1656.28,351.65 1656.92,345.948 1657.55,330.256 1658.19,342.938 1658.82,346.989 1659.46,348.728 1660.09,355.824 1660.73,365.063 1661.36,367.753 1662,357.32 1662.63,337.44 1663.27,338.306 1663.9,339.5 1664.54,329.026 1665.17,350.592 1665.81,316.718 1666.44,305.74 1667.08,336.418 1667.71,337.796 1668.35,343.344 1668.98,348.929 1669.62,325.78 1670.25,341.881 1670.89,346.227 1671.52,340.528 1672.16,328.541 1672.79,302.845 1673.43,394.68 1674.06,297.651 1674.7,391.589 1675.33,321.9 1675.97,355.417 1676.6,336.068 1677.24,345.695 1677.87,336.204 1678.5,358.425 1679.14,332.192 1679.77,358.27 1680.41,331.771 1681.04,380.031 1681.68,318.496 1682.31,375.009 1682.95,342.336 1683.58,347.951 1684.22,359.86 1684.85,319.742 1685.49,357.89 1686.12,331.585 1686.76,344.463 1687.39,341.351 1688.03,375.402 1688.66,320.466 1689.3,348.85 1689.93,354.167 1690.57,337.652 1691.2,360.217 1691.84,324.053 1692.47,366.741 1693.11,331.179 1693.74,352.709 1694.38,340.966 1695.01,327.116 1695.65,348.871 1696.28,335.003 1696.92,338.631 1697.55,334.938 1698.19,342.493 1698.82,346.67 1699.46,342.582 1700.09,362.205 1700.73,299.884 1701.36,392.136 1702,300.525 1702.63,383 1703.27,314.653 1703.9,365.257 1704.54,322.325 1705.17,361.785 1705.81,348.308 1706.44,349.916 1707.08,355.589 1707.71,353.939 1708.35,333.061 1708.98,354.864 1709.62,334.159 1710.25,342.612 1710.89,339.819 1711.52,363.78 1712.16,335.414 1712.79,333.385 1713.43,359.165 1714.06,333.822 1714.7,354.998 1715.33,350.59 1715.96,327.684 1716.6,379.175 1717.23,322.739 1717.87,375.363 1718.5,337.122 1719.14,367.213 1719.77,339.459 1720.41,342.841 1721.04,325.93 1721.68,340.685 1722.31,333.335 1722.95,346.922 1723.58,333.486 1724.22,382.645 1724.85,317.185 1725.49,372.574 1726.12,339.8 1726.76,364.492 1727.39,348.596 1728.03,324.637 1728.66,537.388 1729.3,547.209 1729.93,536.069 1730.57,517.326 1731.2,523.968 1731.84,535.685 1732.47,548.833 1733.11,490.646 1733.74,549.051 1734.38,522.797 1735.01,533.51 1735.65,526.99 1736.28,522.369 1736.92,534.265 1737.55,531.627 1738.19,548.42 1738.82,517.308 1739.46,566.03 1740.09,505.24 1740.73,494.446 1741.36,512.115 1742,511.903 1742.63,539.362 1743.27,526.615 1743.9,521.114 1744.54,541.098 1745.17,534.93 1745.81,546.318 1746.44,523.159 1747.08,541.985 1747.71,499.721 1748.35,511.383 1748.98,522.066 1749.62,528.428 1750.25,527.065 1750.89,533.096 1751.52,530.153 1752.15,547.207 1752.79,537.378 1753.42,551.842 1754.06,524.429 1754.69,484.225 1755.33,517.429 1755.96,521.127 1756.6,356.156 1757.23,348.083 1757.87,352.137 1758.5,336.979 1759.14,333.605 1759.77,359.552 1760.41,337.581 1761.04,328.662 1761.68,320.467 1762.31,345.783 1762.95,359.445 1763.58,329.601 1764.22,321.918 1764.85,340.703 1765.49,362.563 1766.12,370.769 1766.76,339.121 1767.39,378.585 1768.03,324.654 1768.66,369.205 1769.3,337.396 1769.93,365.004 1770.57,358.825 1771.2,335.611 1771.84,343.655 1772.47,335.985 1773.11,347.87 1773.74,341.697 1774.38,345.094 1775.01,338.302 1775.65,346.043 1776.28,338.6 1776.92,350.085 1777.55,374.812 1778.19,369.34 1778.82,308.498 1779.46,360.147 1780.09,329.851 1780.73,361.877 1781.36,349.9 1782,357.21 1782.63,349.68 1783.27,344.599 1783.9,339.49 1784.54,375.849 1785.17,318.447 1785.81,364.875 1786.44,313.223 1787.08,368.064 1787.71,308.037 1788.35,364.6 1788.98,319.535 1789.61,373.127 1790.25,318.236 1790.88,366.983 1791.52,323.039 1792.15,360.646 1792.79,303.603 1793.42,382.014 1794.06,307.029 1794.69,375.881 1795.33,324.403 1795.96,365.27 1796.6,317.062 1797.23,342.444 1797.87,367.628 1798.5,330.458 1799.14,371.362 1799.77,330.983 1800.41,351.903 1801.04,341.131 1801.68,349.611 1802.31,355.97 1802.95,333.86 1803.58,368.257 1804.22,297.638 1804.85,377.411 1805.49,309.217 1806.12,361.866 1806.76,337.465 1807.39,362.909 1808.03,315.4 1808.66,371.559 1809.3,289.29 1809.93,381.5 1810.57,299.593 1811.2,362.268 1811.84,343.074 1812.47,342.039 1813.11,348.511 1813.74,340.327 1814.38,350.951 1815.01,341.024 1815.65,352.517 1816.28,338.147 1816.92,348.179 1817.55,344.801 1818.19,342.75 1818.82,342.296 1819.46,339.204 1820.09,349.578 1820.73,341.331 1821.36,351.766 1822,338.71 1822.63,345.764 1823.27,342.212 1823.9,346.891 1824.54,351.272 1825.17,338.904 1825.8,353.983 1826.44,332.407 1827.07,362.117 1827.71,337.456 1828.34,353.714 1828.98,339.476 1829.61,354.109 1830.25,337.279 1830.88,348.123 1831.52,341.556 1832.15,348.844 1832.79,342.137 1833.42,382.066 1834.06,309.281 1834.69,383.846 1835.33,310.557 1835.96,384.783 1836.6,311.422 1837.23,379.956 1837.87,310.637 1838.5,401.567 1839.14,303.56 1839.77,390.94 1840.41,550.944 1841.04,547.927 1841.68,546.617 1842.31,518.519 1842.95,526.895 1843.58,518.514 1844.22,508.625 1844.85,508.942 1845.49,513.791 1846.12,513.374 1846.76,507.679 1847.39,510.51 1848.03,517.995 1848.66,510.342 1849.3,513.844 1849.93,525.662 1850.57,533.066 1851.2,525.04 1851.84,520.894 1852.47,531.671 1853.11,541.059 1853.74,547.62 1854.38,531.617 1855.01,529.492 1855.65,525.763 1856.28,526.055 1856.92,521.455 1857.55,534.224 1858.19,531.012 1858.82,517.338 1859.46,503.304 1860.09,512.15 1860.73,508.343 1861.36,518.871 1862,515.741 1862.63,514.665 1863.26,518.729 1863.9,526.814 1864.53,534.403 1865.17,536.891 1865.8,532.01 1866.44,523.906 1867.07,525.442 1867.71,522.592 1868.34,358.461 1868.98,334.321 1869.61,371.112 1870.25,319.99 1870.88,378.878 1871.52,309.542 1872.15,359.972 1872.79,321.96 1873.42,365.284 1874.06,323.901 1874.69,338.492 1875.33,330.195 1875.96,345.993 1876.6,337.304 1877.23,337.084 1877.87,353.251 1878.5,331.84 1879.14,368.239 1879.77,318.233 1880.41,359.273 1881.04,326.133 1881.68,367.388 1882.31,307.94 1882.95,373.83 1883.58,338.857 1884.22,355.11 1884.85,336.44 1885.49,338.305 1886.12,324.745 1886.76,359.032 1887.39,338.942 1888.03,357.268 1888.66,341.251 1889.3,365.412 1889.93,321.971 1890.57,317.462 1891.2,361.485 1891.84,329.47 1892.47,339.926 1893.11,345.704 1893.74,344.281 1894.38,363.222 1895.01,313.057 1895.65,370.838 1896.28,350.618 1896.92,338.109 1897.55,350.276 1898.19,337.958 1898.82,349.838 1899.45,339.157 1900.09,349.424 1900.72,338.815 1901.36,350.562 1901.99,337.714 1902.63,350.732 1903.26,337.675 1903.9,338.623 1904.53,350.896 1905.17,339.18 1905.8,349.594 1906.44,338.538 1907.07,352.145 1907.71,338.802 1908.34,347.198 1908.98,340.895 1909.61,348.029 1910.25,342.338 1910.88,347.125 1911.52,341.779 1912.15,349.601 1912.79,340.658 1913.42,350.936 1914.06,334.932 1914.69,354.927 1915.33,403.296 1915.96,326.876 1916.6,359.274 1917.23,330.343 1917.87,358.396 1918.5,325.196 1919.14,359.953 1919.77,330.086 1920.41,358.387 1921.04,327.685 1921.68,358.631 1922.31,327.093 1922.95,357.063 1923.58,330.101 1924.22,333.911 1924.85,354.152 1925.49,332.825 1926.12,357.285 1926.76,335.709 1927.39,355.067 1928.03,337.999 1928.66,335.635 1929.3,341.27 1929.93,343.822 1930.57,346.767 1931.2,363.435 1931.84,321.299 1932.47,374.51 1933.11,319.103 1933.74,373.508 1934.38,319.424 1935.01,369.395 1935.65,318.489 1936.28,374.762 1936.91,317.389 1937.55,375.07 1938.18,316.455 1938.82,376.689 1939.45,315.776 1940.09,375.27 1940.72,316.055 1941.36,377.135 1941.99,315.578 1942.63,376.99 1943.26,316.663 1943.9,375.214 1944.53,314.969 1945.17,375.999 1945.8,315.265 1946.44,375.449 1947.07,315.581 1947.71,366.576 1948.34,331.475 1948.98,364.026 1949.61,326.286 1950.25,365.261 1950.88,325.719 1951.52,363.17 1952.15,342.847 1952.79,346.702 1953.42,337.476 1954.06,339.192 1954.69,343.104 1955.33,342.697 1955.96,348.771 1956.6,349.737 1957.23,320.145 1957.87,347.102 1958.5,343.504 1959.14,363.469 1959.77,343.47 1960.41,340.943 1961.04,363.629 1961.68,328.085 1962.31,342.202 1962.95,337.458 1963.58,327.19 1964.22,350.238 1964.85,346.913 1965.49,371.102 1966.12,353.382 1966.76,347.018 1967.39,342.836 1968.03,335.133 1968.66,358.48 1969.3,330.913 1969.93,343.496 1970.57,342.352 1971.2,344.819 1971.84,362.576 1972.47,371.371 1973.11,364.116 1973.74,332.555 1974.37,344.241 1975.01,341.821 1975.64,339.894 1976.28,346.365 1976.91,354.715 1977.55,359.189 1978.18,359.355 1978.82,346.101 1979.45,370.003 1980.09,362.661 1980.72,336.831 1981.36,332.151 1981.99,331.812 1982.63,353.286 1983.26,310.897 1983.9,366.487 1984.53,336.925 1985.17,349.837 1985.8,343.59 1986.44,373.607 1987.07,350.594 1987.71,327.212 1988.34,371.272 1988.98,342.688 1989.61,350.617 1990.25,347.532 1990.88,348.424 1991.52,350.829 1992.15,331.539 1992.79,363.027 1993.42,342.863 1994.06,335.778 1994.69,345.179 1995.33,367.586 1995.96,326.45 1996.6,354.792 1997.23,356.568 1997.87,361.697 1998.5,322.803 1999.14,373.991 1999.77,328.81 2000.41,344.039 2001.04,337.954 2001.68,343.177 2002.31,339.468 2002.95,368.909 2003.58,348.457 2004.22,345.001 2004.85,346.408 2005.49,354.823 2006.12,311.865 2006.76,377.653 2007.39,305.45 2008.03,365.363 2008.66,349.473 2009.3,371.8 2009.93,314.193 2010.56,385.899 2011.2,304.182 2011.83,337.71 2012.47,352.678 2013.1,325.768 2013.74,347.605 2014.37,364.517 2015.01,310.166 2015.64,374.861 2016.28,320.813 2016.91,370.446 2017.55,344.584 2018.18,309.957 2018.82,373.02 2019.45,300.368 2020.09,361.199 2020.72,354.745 2021.36,353.255 2021.99,310.718 2022.63,388.981 2023.26,314.921 2023.9,359.536 2024.53,332.71 2025.17,358.176 2025.8,356.418 2026.44,357.814 2027.07,333.959 2027.71,371.311 2028.34,329.273 2028.98,370.681 2029.61,327.673 2030.25,351.22 2030.88,308.221 2031.52,313.79 2032.15,332.507 2032.79,322.678 2033.42,343.785 2034.06,314.569 2034.69,310.284 2035.33,334.719 2035.96,346.192 2036.6,324.787 2037.23,370.931 2037.87,351.207 2038.5,363.358 2039.14,300.844 2039.77,397.426 2040.41,298.736 2041.04,376.107 2041.68,331.205 2042.31,343.662 2042.95,373.605 2043.58,322.698 2044.22,377.05 2044.85,332.651 2045.49,326.579 2046.12,342.246 2046.76,371.596 2047.39,321.102 2048.02,351.886 2048.66,366.495 2049.29,326.089 2049.93,330.532 2050.56,342.911 2051.2,378.053 2051.83,330.918 2052.47,329.941 2053.1,329.156 2053.74,333.22 2054.37,339.792 2055.01,299.049 2055.64,312.561 2056.28,385.745 2056.91,324.126 2057.55,339.948 2058.18,376.161 2058.82,337.929 2059.45,369.597 2060.09,343.886 2060.72,353.353 2061.36,342.824 2061.99,327.141 2062.63,379.26 2063.26,297.461 2063.9,533.604 2064.53,554.858 2065.17,512.47 2065.8,522.34 2066.44,522.211 2067.07,512.828 2067.71,526.772 2068.34,529.439 2068.98,538.375 2069.61,536.113 2070.25,524.545 2070.88,520.332 2071.52,525.303 2072.15,540.721 2072.79,520.09 2073.42,537.419 2074.06,554.033 2074.69,524.53 2075.33,547.145 2075.96,531.991 2076.6,514.84 2077.23,530.39 2077.87,521.875 2078.5,527.022 2079.14,534.874 2079.77,527.548 2080.41,550.019 2081.04,540.49 2081.68,522.779 2082.31,535.522 2082.95,514.064 2083.58,496.592 2084.21,499.512 2084.85,500.807 2085.48,533.465 2086.12,533.737 2086.75,537.43 2087.39,541.091 2088.02,535.527 2088.66,542.212 2089.29,576.265 2089.93,558.649 2090.56,534.767 2091.2,531.095 2091.83,388.542 2092.47,301.474 2093.1,362.49 2093.74,335.202 2094.37,349.29 2095.01,341.568 2095.64,324.611 2096.28,357.267 2096.91,314.343 2097.55,362.575 2098.18,327.489 2098.82,359.448 2099.45,324.567 2100.09,363.42 2100.72,331.774 2101.36,356.127 2101.99,321.323 2102.63,355.403 2103.26,314.338 2103.9,358.223 2104.53,353.144 2105.17,325.418 2105.8,358.469 2106.44,328.381 2107.07,352.002 2107.71,326.022 2108.34,338.702 2108.98,357.556 2109.61,345.708 2110.25,325.209 2110.88,356.694 2111.52,332.99 2112.15,358.505 2112.79,324.564 2113.42,348.412 2114.06,334.494 2114.69,338.094 2115.33,344.572 2115.96,349.162 2116.6,337.769 2117.23,346.356 2117.87,339.513 2118.5,338.971 2119.14,335.683 2119.77,514.715 2120.41,507.807 2121.04,527.681 2121.67,546.204 2122.31,511.266 2122.94,539.096 2123.58,525.2 2124.21,534.295 2124.85,521.369 2125.48,523.184 2126.12,557.605 2126.75,528.42 2127.39,528.936 2128.02,523.142 2128.66,527.104 2129.29,513.047 2129.93,522.219 2130.56,539.039 2131.2,521.767 2131.83,534.007 2132.47,508.947 2133.1,507.133 2133.74,528.825 2134.37,510.525 2135.01,533.291 2135.64,531.971 2136.28,544.479 2136.91,554.64 2137.55,542.754 2138.18,505.59 2138.82,530.493 2139.45,534.675 2140.09,532.555 2140.72,530.658 2141.36,550.11 2141.99,533.167 2142.63,520.905 2143.26,539.015 2143.9,536.323 2144.53,527.988 2145.17,525.941 2145.8,524.765 2146.44,554.667 2147.07,539.619 2147.71,325.012 2148.34,340.659 2148.98,357.359 2149.61,338.598 2150.25,333.631 2150.88,350.416 2151.52,315.398 2152.15,349.147 2152.79,313.483 2153.42,342.922 2154.06,338.825 2154.69,307.782 2155.33,332.102 2155.96,358.388 2156.6,328.83 2157.23,326.561 2157.86,329.66 2158.5,360.987 2159.13,354.021 2159.77,326.437 2160.4,322.817 2161.04,360.771 2161.67,330.287 2162.31,361.424 2162.94,333.019 2163.58,325.141 2164.21,352.891 2164.85,348.883 2165.48,349.195 2166.12,336.526 2166.75,338.82 2167.39,379.427 2168.02,298.601 2168.66,355.368 2169.29,345.252 2169.93,344.831 2170.56,319.591 2171.2,348.829 2171.83,326.008 2172.47,338.405 2173.1,360.519 2173.74,341.611 2174.37,366.565 2175.01,330.345 2175.64,538.332 2176.28,528.797 2176.91,537.287 2177.55,530.172 2178.18,558.689 2178.82,545.243 2179.45,528.229 2180.09,518.191 2180.72,526.499 2181.36,520.753 2181.99,542.309 2182.63,565.454 2183.26,545.329 2183.9,542.543 2184.53,512.937 2185.17,535.649 2185.8,543.027 2186.44,539.356 2187.07,531.41 2187.71,519.628 2188.34,518.356 2188.98,532.432 2189.61,532.838 2190.25,542.322 2190.88,537.053 2191.52,529.608 2192.15,523.884 2192.79,556.078 2193.42,529.519 2194.06,524.837 2194.69,529.141 2195.32,540.26 2195.96,542.038 2196.59,523.279 2197.23,517.181 2197.86,540.946 2198.5,558.053 2199.13,538.764 2199.77,520.422 2200.4,528.405 2201.04,553.587 2201.67,495.264 2202.31,518.615 2202.94,518.868 2203.58,330.608 2204.21,357.803 2204.85,333.88 2205.48,375.041 2206.12,331.878 2206.75,347.083 2207.39,353.541 2208.02,351.515 2208.66,326.072 2209.29,354.973 2209.93,342.87 2210.56,335 2211.2,344.398 2211.83,353.593 2212.47,338.339 2213.1,344.262 2213.74,333.965 2214.37,353.252 2215.01,342.423 2215.64,331.318 2216.28,358.61 2216.91,341.915 2217.55,328.139 2218.18,379.057 2218.82,316.118 2219.45,385.678 2220.09,311.029 2220.72,384.506 2221.36,316.356 2221.99,351.304 2222.63,327.145 2223.26,364.113 2223.9,326.202 2224.53,371.993 2225.17,334.044 2225.8,354.758 2226.44,335.033 2227.07,349.084 2227.71,329.907 2228.34,344.577 2228.98,346.154 2229.61,354.205 2230.25,311.187 2230.88,372.591 2231.51,525.322 2232.15,529.407 2232.78,492.532 2233.42,526.094 2234.05,505.948 2234.69,507.981 2235.32,515.003 2235.96,500.356 2236.59,535.155 2237.23,487.094 2237.86,494.565 2238.5,537.653 2239.13,547.007 2239.77,512.415 2240.4,513.748 2241.04,505.782 2241.67,560.922 2242.31,498.034 2242.94,528.608 2243.58,565.207 2244.21,476.894 2244.85,568.111 2245.48,481.459 2246.12,562.063 2246.75,508.07 2247.39,539.563 2248.02,533.761 2248.66,519.656 2249.29,567.157 2249.93,503.757 2250.56,522.775 2251.2,539.276 2251.83,514.426 2252.47,508.378 2253.1,522.87 2253.74,507.918 2254.37,529.856 2255.01,512.505 2255.64,534.289 2256.28,562.272 2256.91,525.063 2257.55,557.427 2258.18,483.287 2258.82,556.553 2259.45,371.922 2260.09,304.361 2260.72,358.283 2261.36,320.185 2261.99,369.484 2262.63,334.148 2263.26,354.223 2263.9,323.62 2264.53,366.092 2265.17,344.696 2265.8,354.936 2266.44,336.138 2267.07,354.134 2267.71,348.145 2268.34,345.484 2268.97,333.406 2269.61,342.631 2270.24,365.545 2270.88,320.991 2271.51,367.554 2272.15,324.707 2272.78,362.682 2273.42,352.632 2274.05,335.533 2274.69,367.13 2275.32,326.856 2275.96,373.212 2276.59,328.397 2277.23,381.424 2277.86,312.568 2278.5,350.36 2279.13,331.877 2279.77,354.346 2280.4,346.71 2281.04,342.419 2281.67,324.094 2282.31,331.012 2282.94,352.022 2283.58,351.263 2284.21,364.877 2284.85,347.981 2285.48,351.627 2286.12,332.184 2286.75,360.972 2287.39,373.986 2288.02,311.329 2288.66,355.918 2289.29,330.152 2289.93,361.791 2290.56,323.284 2291.2,364.262 2291.83,326.827 2292.47,364.374 2293.1,310.451 2293.74,374.651 2294.37,299.547 2295.01,359.042 2295.64,326.088 2296.28,359.935 2296.91,323.535 2297.55,361.962 2298.18,322.2 2298.82,361.562 2299.45,323.314 2300.09,363.919 2300.72,320.993 2301.36,361.624 2301.99,328.951 2302.63,362.424 2303.26,326.382 2303.9,367.26 2304.53,323.584 2305.16,369.446 2305.8,319.45 2306.43,363.33 2307.07,330.132 2307.7,351.115 2308.34,343.22 2308.97,336.13 2309.61,353.959 2310.24,333.203 2310.88,354.903 2311.51,332.051 2312.15,333.548 2312.78,362.702 2313.42,331.518 2314.05,365.211 2314.69,333.954 2315.32,325.18 2315.96,369.393 2316.59,313.389 2317.23,378.525 2317.86,313.038 2318.5,379.377 2319.13,313.275 2319.77,377.946 2320.4,313.177 2321.04,378.516 2321.67,312.558 2322.31,377.925 2322.94,313.053 2323.58,378.574 2324.21,312.867 2324.85,377.882 2325.48,318.452 2326.12,341.808 2326.75,342.044 2327.39,344.568 2328.02,350.705 2328.66,332.8 2329.29,359.585 2329.93,315.921 2330.56,361.799 2331.2,328.315 2331.83,358.482 2332.47,319.612 2333.1,347.044 2333.74,343.676 2334.37,347.79 2335.01,338.681 2335.64,348.293 2336.28,344.412 2336.91,342.566 2337.55,345.353 2338.18,337.889 2338.82,352.54 2339.45,337.674 2340.09,351.153 2340.72,340.701 2341.36,348.058 2341.99,337.766 2342.62,348.379 2343.26,381.833 2343.89,306.611 2344.53,379.257 2345.16,306.548 2345.8,381.697 2346.43,305.983 2347.07,381.502 2347.7,307.589 2348.34,379.008 2348.97,301.634 2349.61,391.63 2350.24,298.786 2350.88,387.314 2351.51,302.875 2352.15,365.164 2352.78,317.909 2353.42,370.77 2354.05,317.938 2354.69,367.86 2355.32,321.548 2355.96,335.06 2356.59,351.179 2357.23,335.221 2357.86,357.82 2358.5,329.025 2359.13,361.048 2359.77,326.903 2360.4,346.514 2361.04,339.011 2361.67,351.813 2362.31,339.743 2362.94,348.304 2363.58,339.22 2364.21,352.786 2364.85,336.228 2365.48,312.581 2366.12,376.37 2366.75,311.59 2367.39,378.789 2368.02,326.621 2368.66,361.142 2369.29,327.452 2369.93,358.863 2370.56,327.144 2371.2,525.894 2371.83,523.074 2372.47,523.609 2373.1,517.09 2373.74,517.71 2374.37,524.255 2375.01,530.581 2375.64,516.088 2376.28,536.978 2376.91,544.103 2377.55,518.773 2378.18,525.995 2378.81,526.425 2379.45,503.415 2380.08,538.712 2380.72,535.53 2381.35,537.785 2381.99,526.423 2382.62,524.991 2383.26,526.268 2383.89,533.615 2384.53,530.963 2385.16,532.988 2385.8,523.983 2386.43,543.537 2387.07,540.393 2387.7,537.589 2388.34,561.177 2388.97,531.564 2389.61,532.097 2390.24,525.234 2390.88,541.648 2391.51,516.658 2392.15,535.497 2392.78,519.101 2393.42,512.976 2394.05,528.539 2394.69,527.045 2395.32,522.224 2395.96,524.802 2396.59,521.757 2397.23,524.139 2397.86,540.606 2398.5,542.844 2399.13,377.134 2399.77,316.353 2400.4,352.886 2401.04,328.2 2401.67,344.749 2402.31,332.931 2402.94,355.914 2403.58,329.012 2404.21,376.235 2404.85,325.313 2405.48,365.869 2406.12,321.097 2406.75,362.978 2407.39,329.025 2408.02,331.193 2408.66,374.825 2409.29,334.766 2409.93,357.253 2410.56,314.115 2411.2,374.504 2411.83,323.639 2412.47,366.216 2413.1,337.316 2413.74,374.13 2414.37,323.312 2415.01,358.115 2415.64,340.363 2416.27,326.924 2416.91,340.042 2417.54,316.487 2418.18,321.149 2418.81,372.933 2419.45,292.474 2420.08,393.605 2420.72,322.644 2421.35,370.527 2421.99,321.223 2422.62,345.836 2423.26,362.244 2423.89,348.29 2424.53,372.547 2425.16,331.206 2425.8,378.353 2426.43,335.049 2427.07,352.335 2427.7,343.324 2428.34,347.623 2428.97,353.326 2429.61,342.738 2430.24,350.585 2430.88,340.587 2431.51,350.148 2432.15,346.845 2432.78,329.264 2433.42,340.215 2434.05,352.302 2434.69,343.571 2435.32,354.159 2435.96,325.556 2436.59,356.289 2437.23,339.811 2437.86,346.111 2438.5,336.391 2439.13,339.731 2439.77,352.368 2440.4,326.755 2441.04,357.749 2441.67,326.919 2442.31,358.5 2442.94,320.502 2443.58,338.943 2444.21,351.503 2444.85,334.577 2445.48,354.043 2446.12,335.319 2446.75,355.658 2447.39,334.251 2448.02,350.766 2448.66,344.066 2449.29,347.498 2449.93,337.752 2450.56,356.244 2451.2,349.059 2451.83,335.18 2452.46,354.908 2453.1,342.657 2453.73,334.22 2454.37,356.416 2455,351.716 2455.64,345.681 2456.27,334.568 2456.91,344.114 2457.54,341.759 2458.18,364.834 2458.81,343.009 2459.45,318.258 2460.08,332.043 2460.72,326.66 2461.35,362.746 2461.99,320.058 2462.62,383.458 2463.26,347.618 2463.89,342.137 2464.53,373.391 2465.16,328.344 2465.8,328.846 2466.43,352.057 2467.07,349.428 2467.7,319.373 2468.34,329.001 2468.97,323.19 2469.61,360.764 2470.24,335 2470.88,350.298 2471.51,345.179 2472.15,372.041 2472.78,333.888 2473.42,350.211 2474.05,358.096 2474.69,342.574 2475.32,348.57 2475.96,351.207 2476.59,370.749 2477.23,331.02 2477.86,338.804 2478.5,341.239 2479.13,342.336 2479.77,329.175 2480.4,335.647 2481.04,367.926 2481.67,324.151 2482.31,335.683 2482.94,369.747 2483.58,368.315 2484.21,357.441 2484.85,349.301 2485.48,346.017 2486.12,341.025 2486.75,337.796 2487.39,341.726 2488.02,336.137 2488.66,363.094 2489.29,340.248 2489.92,334.759 2490.56,323.248 2491.19,342.021 2491.83,355.283 2492.46,348.122 2493.1,349.379 2493.73,348.313 2494.37,354.252 2495,349.805 2495.64,375.193 2496.27,334.544 2496.91,335.595 2497.54,333.294 2498.18,342.165 2498.81,357.342 2499.45,351.669 2500.08,348.753 2500.72,332.391 2501.35,333.567 2501.99,343.629 2502.62,325.925 2503.26,331.885 2503.89,336.739 2504.53,357.408 2505.16,352.486 2505.8,350.446 2506.43,362.541 2507.07,347.337 2507.7,341.023 2508.34,336.74 2508.97,335.274 2509.61,332.561 2510.24,332.812 2510.88,347.246 2511.51,340.793 2512.15,351.994 2512.78,331.332 2513.42,316.568 2514.05,351.088 2514.69,371.786 2515.32,327.694 2515.96,341.518 2516.59,373.119 2517.23,327.641 2517.86,350.914 2518.5,357.518 2519.13,292.095 2519.77,319.644 2520.4,328.581 2521.04,337.572 2521.67,328.118 2522.31,352.79 2522.94,329.601 2523.58,341.572 2524.21,388.329 2524.85,362.522 2525.48,353.737 2526.11,301.284 2526.75,357.619 2527.38,351.948 2528.02,358.977 2528.65,347.253 2529.29,364.609 2529.92,364.122 2530.56,322.27 2531.19,352.331 2531.83,332.472 2532.46,333.805 2533.1,354 2533.73,290.716 2534.37,351.516 2535,343.439 2535.64,335.557 2536.27,358.034 2536.91,312.911 2537.54,379.208 2538.18,335.57 2538.81,361.766 2539.45,306.504 2540.08,374.335 2540.72,307.041 2541.35,349.271 2541.99,336.602 2542.62,342.51 2543.26,348.164 2543.89,331.892 2544.53,361.263 2545.16,333.751 2545.8,345.682 2546.43,338.259 2547.07,352.097 2547.7,331.597 2548.34,373.189 2548.97,329.579 2549.61,371.119 2550.24,321.065 2550.88,371.929 2551.51,320.746 2552.15,383.935 2552.78,318.705 2553.42,369.408 2554.05,322.117 2554.69,377.444 2555.32,324.571 2555.96,357.153 2556.59,326.776 2557.23,310.522 2557.86,362.341 2558.5,335.415 2559.13,362.562 2559.77,342.668 2560.4,337.411 2561.04,331.328 2561.67,348.962 2562.31,331.584 2562.94,361.384 2563.57,336.752 2564.21,351.766 2564.84,351.255 2565.48,356.374 2566.11,346.21 2566.75,326.946 2567.38,363.24 2568.02,334.666 2568.65,343.87 2569.29,337.739 2569.92,359.285 2570.56,351.064 2571.19,365.612 2571.83,348.616 2572.46,348.099 2573.1,352.601 2573.73,356.686 2574.37,321.663 2575,349.358 2575.64,329.382 2576.27,341.845 2576.91,345.017 2577.54,359.535 2578.18,320.992 2578.81,345.803 2579.45,347.574 2580.08,354.046 2580.72,349.7 2581.35,324.619 2581.99,336.404 2582.62,332.205 2583.26,356.587 2583.89,360.955 2584.53,343.37 2585.16,326.428 2585.8,336.452 2586.43,355.228 2587.07,355.536 2587.7,352.135 2588.34,326.845 2588.97,368.321 2589.61,315.089 2590.24,354.89 2590.88,351.475 2591.51,345.098 2592.15,342.587 2592.78,356.946 2593.42,351.592 2594.05,347.289 2594.69,339.435 2595.32,363.763 2595.96,302.311 2596.59,328.203 2597.23,355.621 2597.86,329.648 2598.5,356.762 2599.13,322.993 2599.76,360.436 2600.4,328.006 2601.03,362.067 2601.67,308.202 2602.3,356.714 2602.94,327.815 2603.57,359.561 2604.21,324.337 2604.84,350.986 2605.48,324.22 2606.11,355.411 2606.75,324.447 2607.38,356.719 2608.02,331.081 2608.65,346.375 2609.29,363.176 2609.92,334.205 2610.56,366.555 2611.19,321.698 2611.83,376.928 2612.46,310.713 2613.1,379.487 2613.73,334.233 2614.37,372.059 2615,320.639 2615.64,357.276 2616.27,330.642 2616.91,364.666 2617.54,334.359 2618.18,344.22 2618.81,355.703 2619.45,310.989 2620.08,354.083 2620.72,322.203 2621.35,354.727 2621.99,315.802 2622.62,346.595 2623.26,349.332 2623.89,365.611 2624.53,339.477 2625.16,364.074 2625.8,362.9 2626.43,342.206 2627.07,324.878 2627.7,365.097 2628.34,337.073 2628.97,329.474 2629.61,359.399 2630.24,348.003 2630.88,349.001 2631.51,345.274 2632.15,363.41 2632.78,338.144 2633.42,337.098 2634.05,355.71 2634.69,323.87 2635.32,376.655 2635.96,323.052 2636.59,367.386 2637.22,334.266 2637.86,356.27 2638.49,304.662 2639.13,367.903 2639.76,333.708 2640.4,353.063 2641.03,327.401 2641.67,366.358 2642.3,358.207 2642.94,328.154 2643.57,334.352 2644.21,339.698 2644.84,324.888 2645.48,378.668 2646.11,323.176 2646.75,330.701 2647.38,342.436 2648.02,343.225 2648.65,369.165 2649.29,359.013 2649.92,360.003 2650.56,343.682 2651.19,309.964 2651.83,367.143 2652.46,296.655 2653.1,382.559 2653.73,316.493 2654.37,363.703 2655,319.976 2655.64,358.503 2656.27,302.484 2656.91,379.471 2657.54,298.089 2658.18,385.818 2658.81,293.758 2659.45,369.676 2660.08,305.173 2660.72,382.204 2661.35,297.27 2661.99,385.532 2662.62,296.943 2663.26,375.047 2663.89,312.963 2664.53,393.205 2665.16,313.397 2665.8,341.726 2666.43,347.552 2667.07,359.089 2667.7,333.968 2668.34,346.896 2668.97,337.905 2669.61,331.71 2670.24,324.037 2670.88,316.068 2671.51,336.188 2672.15,313.886 2672.78,355.966 2673.41,309.095 2674.05,359.525 2674.68,350.342 2675.32,312.341 2675.95,347.527 2676.59,365.223 2677.22,346.616 2677.86,337.149 2678.49,321.435 2679.13,348.301 2679.76,339.33 2680.4,357.925 2681.03,320.504 2681.67,373.448 2682.3,330.021 2682.94,370.2 2683.57,322.501 2684.21,358.819 2684.84,350.745 2685.48,354.036 2686.11,328.267 2686.75,366.605 2687.38,319.017 2688.02,377.3 2688.65,317.866 2689.29,324.577 2689.92,366.505 2690.56,334.367 2691.19,349.901 2691.83,325.045 2692.46,366.464 2693.1,319.519 2693.73,360.888 2694.37,316.965 2695,364.231 2695.64,327.939 2696.27,362.865 2696.91,321.745 2697.54,359.392 2698.18,326.274 2698.81,358.938 2699.45,320.282 2700.08,369.413 2700.72,317.308 2701.35,364.267 2701.99,335.451 2702.62,345.253 2703.26,345.594 2703.89,357.585 2704.53,327.996 2705.16,367.601 2705.8,326.172 2706.43,301.55 2707.07,378.878 2707.7,332.325 2708.34,338.452 2708.97,379.843 2709.61,284.531 2710.24,395.143 2710.87,293.315 2711.51,366.936 2712.14,338.32 2712.78,358.51 2713.41,369.618 2714.05,316.598 2714.68,382.302 2715.32,298.552 2715.95,377.608 2716.59,298.056 2717.22,391.115 2717.86,300.161 2718.49,388.153 2719.13,323.614 2719.76,346.571 2720.4,303.776 2721.03,376.156 2721.67,307.448 2722.3,337.501 2722.94,326.233 2723.57,337.354 2724.21,319.659 2724.84,381.593 2725.48,358.592 2726.11,309.992 2726.75,360.099 2727.38,334.572 2728.02,352.664 2728.65,370.691 2729.29,322.215 2729.92,351.137 2730.56,324.656 2731.19,338.339 2731.83,361.481 2732.46,348.994 2733.1,369.838 2733.73,344.177 2734.37,344.584 2735,323.082 2735.64,366.453 2736.27,337.72 2736.91,356.93 2737.54,348.818 2738.18,315.873 2738.81,381.693 2739.45,313.181 2740.08,364.642 2740.72,343.613 2741.35,353.423 2741.99,355.554 2742.62,341.122 2743.26,343.909 2743.89,365.264 2744.53,334.944 2745.16,334.934 2745.8,352.562 2746.43,301.485 2747.06,372.008 2747.7,299.864 2748.33,377.027 2748.97,331.027 2749.6,353.117 2750.24,342.13 2750.87,325.544 2751.51,380.332 2752.14,343.656 2752.78,322.919 2753.41,324.107 2754.05,339.177 2754.68,363.132 2755.32,358.994 2755.95,344.597 2756.59,315.086 2757.22,378.272 2757.86,331.568 2758.49,376.655 2759.13,290.347 2759.76,389.221 2760.4,307.771 2761.03,389.173 2761.67,321.997 2762.3,342.846 2762.94,378.945 2763.57,330.447 2764.21,344.155 2764.84,374.274 2765.48,292.425 2766.11,393.25 2766.75,287.601 2767.38,377.518 2768.02,348.597 2768.65,311.555 2769.29,341.525 2769.92,378.309 2770.56,321.959 2771.19,310.427 2771.83,312.755 2772.46,303.281 2773.1,377.891 2773.73,314.574 2774.37,376.357 2775,315.197 2775.64,344.741 2776.27,304.37 2776.91,329.864 2777.54,383.674 2778.18,319.866 2778.81,330.47 2779.45,340.363 2780.08,339.284 2780.72,356.804 2781.35,346.317 2781.99,306.621 2782.62,395.086 2783.26,295.485 2783.89,320.254 2784.52,329.98 2785.16,309.248 2785.79,317.811 2786.43,385.911 2787.06,328.405 2787.7,313.685 2788.33,351.46 2788.97,380.367 2789.6,312.437 2790.24,526.982 2790.87,523.602 2791.51,526.178 2792.14,527.09 2792.78,549.058 2793.41,520.384 2794.05,546.51 2794.68,548.11 2795.32,508.688 2795.95,535.927 2796.59,518.379 2797.22,542.647 2797.86,520.549 2798.49,525.892 2799.13,511.915 2799.76,542.819 2800.4,542.748 2801.03,520.869 2801.67,522.45 2802.3,514.388 2802.94,519.387 2803.57,516.454 2804.21,517.317 2804.84,499.198 2805.48,523.948 2806.11,557.402 2806.75,518.344 2807.38,539.652 2808.02,519.382 2808.65,526.34 2809.29,517.782 2809.92,521.374 2810.56,524.411 2811.19,512.5 2811.83,511.231 2812.46,518.331 2813.1,520.416 2813.73,522.755 2814.37,533.746 2815,524.63 2815.64,524.611 2816.27,553.29 2816.91,526.855 2817.54,517.74 2818.18,517.818 2818.81,530.571 2819.45,523.443 2820.08,539.601 2820.72,518.267 2821.35,531.779 2821.98,524.198 2822.62,545.849 2823.25,514.239 2823.89,533.735 2824.52,537.374 2825.16,532.436 2825.79,518.008 2826.43,552.908 2827.06,482.514 2827.7,554.842 2828.33,518.175 2828.97,550.261 2829.6,517.78 2830.24,532.509 2830.87,528.609 2831.51,527.243 2832.14,521.738 2832.78,551.926 2833.41,507.143 2834.05,540.909 2834.68,524.916 2835.32,534.004 2835.95,536.039 2836.59,520.149 2837.22,520.003 2837.86,544.098 2838.49,511.053 2839.13,555.354 2839.76,520.853 2840.4,537.552 2841.03,522.159 2841.67,512.992 2842.3,548.363 2842.94,514.985 2843.57,546.55 2844.21,511.277 2844.84,539.276 2845.48,523.09 2846.11,571.98 2846.75,511.058 2847.38,507.042 2848.02,528.751 2848.65,527.796 2849.29,538.93 2849.92,540.242 2850.56,518.975 2851.19,525.803 2851.83,527.736 2852.46,525.467 2853.1,512.103 2853.73,524.353 2854.37,528.365 2855,507.487 2855.64,531.005 2856.27,513.048 2856.91,542.663 2857.54,517.917 2858.17,542.354 2858.81,567.515 2859.44,516.298 2860.08,523.097 2860.71,528.559 2861.35,519.463 2861.98,531.033 2862.62,536.087 2863.25,529.172 2863.89,516.336 2864.52,521.399 2865.16,535.882 2865.79,515.852 2866.43,493.923 2867.06,532.869 2867.7,509.104 2868.33,525.861 2868.97,545.847 2869.6,539.913 2870.24,525.768 2870.87,516.578 2871.51,536.636 2872.14,520.839 2872.78,533.824 2873.41,537.833 2874.05,336.086 2874.68,346.612 2875.32,358.185 2875.95,360.496 2876.59,356.636 2877.22,350.158 2877.86,352.945 2878.49,363.482 2879.13,356.846 2879.76,352.409 2880.4,364.664 2881.03,335.446 2881.67,343.956 2882.3,347.802 2882.94,345.381 2883.57,367.824 2884.21,319.918 2884.84,376.374 2885.48,308.087 2886.11,368.657 2886.75,332.699 2887.38,380.696 2888.02,325.868 2888.65,367.378 2889.29,332.215 2889.92,378.362 2890.56,327.21 2891.19,348.468 2891.83,350.513 2892.46,324.485 2893.1,354.142 2893.73,344.632 2894.37,344.729 2895,333.317 2895.63,366.774 2896.27,322.216 2896.9,337.449 2897.54,326.169 2898.17,347.853 2898.81,315.028 2899.44,384.561 2900.08,292.115 2900.71,399.387 2901.35,292.561 2901.98,316.419 2902.62,383.582 2903.25,317.228 2903.89,380.879 2904.52,326.36 2905.16,353.003 2905.79,338.25 2906.43,327.657 2907.06,346.333 2907.7,345.967 2908.33,348.637 2908.97,350.508 2909.6,341.103 2910.24,360.703 2910.87,336.367 2911.51,349.288 2912.14,346.585 2912.78,309.679 2913.41,324.297 2914.05,376.829 2914.68,322.009 2915.32,314.44 2915.95,367.085 2916.59,310.691 2917.22,367.596 2917.86,311.968 2918.49,367.543 2919.13,311.983 2919.76,367.824 2920.4,312.363 2921.03,371.423 2921.67,309.586 2922.3,370.701 2922.94,309.856 2923.57,367.616 2924.21,313.443 2924.84,364.982 2925.48,328.975 2926.11,361.268 2926.75,319.631 2927.38,357.767 2928.02,320.288 2928.65,322.585 2929.29,378.737 2929.92,526.159 2930.56,540.697 2931.19,522.508 2931.82,547.709 2932.46,511.94 2933.09,535.798 2933.73,518.232 2934.36,532.909 2935,540.961 2935.63,535.907 2936.27,512.931 2936.9,530.125 2937.54,549.998 2938.17,522.335 2938.81,533.698 2939.44,535.933 2940.08,550.609 2940.71,546.576 2941.35,539.863 2941.98,509.37 2942.62,534.756 2943.25,535.469 2943.89,517.156 2944.52,547.494 2945.16,536.525 2945.79,501.888 2946.43,527.478 2947.06,530.552 2947.7,521.832 2948.33,517.436 2948.97,529.082 2949.6,519.593 2950.24,515.027 2950.87,557.51 2951.51,560.093 2952.14,534.996 2952.78,543.405 2953.41,543.61 2954.05,539.265 2954.68,533.675 2955.32,524.5 2955.95,542.126 2956.59,515.462 2957.22,523.588 2957.86,514.138 2958.49,555.881 2959.13,528.097 2959.76,532.351 2960.4,527.76 2961.03,539.823 2961.67,546.849 2962.3,513.601 2962.94,517.476 2963.57,535.184 2964.21,540.018 2964.84,530.878 2965.48,522.605 2966.11,544.162 2966.75,517.795 2967.38,527.873 2968.02,527.437 2968.65,516.151 2969.28,536.439 2969.92,510.405 2970.55,531.414 2971.19,533.164 2971.82,534.4 2972.46,500.375 2973.09,520.524 2973.73,521.573 2974.36,526.077 2975,553.75 2975.63,532.826 2976.27,546.49 2976.9,528.809 2977.54,514.931 2978.17,526.182 2978.81,554.112 2979.44,529.415 2980.08,540.628 2980.71,526.233 2981.35,503.278 2981.98,531.33 2982.62,509.498 2983.25,521.541 2983.89,525.703 2984.52,545.679 2985.16,519.243 2985.79,340.904 2986.43,367.054 2987.06,365.146 2987.7,337.493 2988.33,355.599 2988.97,346.19 2989.6,335.663 2990.24,362.174 2990.87,315.824 2991.51,369.011 2992.14,318.206 2992.78,361.605 2993.41,318.356 2994.05,393.553 2994.68,331.237 2995.32,337.901 2995.95,340.355 2996.59,325.671 2997.22,330.346 2997.86,356.032 2998.49,344.996 2999.13,354.862 2999.76,332.16 3000.4,354.443 3001.03,320.208 3001.67,366.833 3002.3,346.132 3002.94,335.628 3003.57,365.586 3004.21,332.662 3004.84,346.649 3005.47,350.083 3006.11,333.354 3006.74,331.729 3007.38,363.643 3008.01,344.229 3008.65,348.194 3009.28,338.973 3009.92,364.273 3010.55,342.028 3011.19,347.788 3011.82,360.832 3012.46,316.039 3013.09,359.795 3013.73,319.514 3014.36,366.058 3015,337.326 3015.63,352.865 3016.27,332.645 3016.9,348.515 3017.54,339.093 3018.17,381.192 3018.81,342.436 3019.44,324.95 3020.08,325.13 3020.71,339.246 3021.35,353.131 3021.98,318.865 3022.62,349.677 3023.25,322.319 3023.89,337.253 3024.52,312.331 3025.16,335.358 3025.79,302.818 3026.43,391.866 3027.06,285.594 3027.7,391.736 3028.33,300.548 3028.97,369.231 3029.6,319.271 3030.24,311.466 3030.87,326.697 3031.51,333.179 3032.14,353.277 3032.78,348.133 3033.41,353.098 3034.05,367.401 3034.68,333.084 3035.32,378.997 3035.95,326.127 3036.59,351.521 3037.22,315.457 3037.86,361.299 3038.49,341.391 3039.13,338.611 3039.76,373.791 3040.4,319.127 3041.03,372.121 3041.67,321.085 3042.3,368.341 3042.93,315.662 3043.57,378.104 3044.2,317.731 3044.84,366.712 3045.47,321.777 3046.11,387.328 3046.74,307.111 3047.38,379.031 3048.01,322.114 3048.65,359.866 3049.28,327.73 3049.92,360.248 3050.55,335.573 3051.19,361.489 3051.82,338.399 3052.46,367.399 3053.09,326.007 3053.73,365.682 3054.36,332.789 3055,350.03 3055.63,333.443 3056.27,364.392 3056.9,321.263 3057.54,376.656 3058.17,323.342 3058.81,382.71 3059.44,316.085 3060.08,379.651 3060.71,308.39 3061.35,389.096 3061.98,309.791 3062.62,386.02 3063.25,313.001 3063.89,388.001 3064.52,308.971 3065.16,389.066 3065.79,304.76 3066.43,393.349 3067.06,307.503 3067.7,380.836 3068.33,313.278 3068.97,384.89 "/>
<path clip-path="url(#clip020)" d="M2597.04 693.754 L3054.07 693.754 L3054.07 590.074 L2597.04 590.074  Z" fill="#ffffff" fill-rule="evenodd" fill-opacity="1"/>
<polyline clip-path="url(#clip020)" style="stroke:#000000; stroke-linecap:round; stroke-linejoin:round; stroke-width:4; stroke-opacity:1; fill:none" points="2597.04,693.754 3054.07,693.754 3054.07,590.074 2597.04,590.074 2597.04,693.754 "/>
<polyline clip-path="url(#clip020)" style="stroke:#009af9; stroke-linecap:round; stroke-linejoin:round; stroke-width:2; stroke-opacity:1; fill:none" points="2629.94,641.914 2827.31,641.914 "/>
<path clip-path="url(#clip020)" d="M2864.88 628.477 L2864.88 641.463 L2870.76 641.463 Q2874.02 641.463 2875.81 639.773 Q2877.59 638.083 2877.59 634.958 Q2877.59 631.857 2875.81 630.167 Q2874.02 628.477 2870.76 628.477 L2864.88 628.477 M2860.2 624.634 L2870.76 624.634 Q2876.57 624.634 2879.53 627.273 Q2882.52 629.889 2882.52 634.958 Q2882.52 640.074 2879.53 642.69 Q2876.57 645.306 2870.76 645.306 L2864.88 645.306 L2864.88 659.194 L2860.2 659.194 L2860.2 624.634 Z" fill="#000000" fill-rule="evenodd" fill-opacity="1" /><path clip-path="url(#clip020)" d="M2888.79 624.634 L2910.64 624.634 L2910.64 628.57 L2893.47 628.57 L2893.47 638.801 L2909.93 638.801 L2909.93 642.736 L2893.47 642.736 L2893.47 655.259 L2911.06 655.259 L2911.06 659.194 L2888.79 659.194 L2888.79 624.634 Z" fill="#000000" fill-rule="evenodd" fill-opacity="1" /><path clip-path="url(#clip020)" d="M2918.75 624.634 L2923.42 624.634 L2923.42 638.801 L2940.41 638.801 L2940.41 624.634 L2945.09 624.634 L2945.09 659.194 L2940.41 659.194 L2940.41 642.736 L2923.42 642.736 L2923.42 659.194 L2918.75 659.194 L2918.75 624.634 Z" fill="#000000" fill-rule="evenodd" fill-opacity="1" /><path clip-path="url(#clip020)" d="M2954.39 624.634 L2961.36 624.634 L2970.18 648.153 L2979.05 624.634 L2986.01 624.634 L2986.01 659.194 L2981.45 659.194 L2981.45 628.847 L2972.54 652.551 L2967.84 652.551 L2958.93 628.847 L2958.93 659.194 L2954.39 659.194 L2954.39 624.634 Z" fill="#000000" fill-rule="evenodd" fill-opacity="1" /><path clip-path="url(#clip020)" d="M3021.18 627.296 L3021.18 632.227 Q3018.81 630.028 3016.13 628.94 Q3013.47 627.852 3010.46 627.852 Q3004.53 627.852 3001.38 631.486 Q2998.24 635.097 2998.24 641.949 Q2998.24 648.778 3001.38 652.412 Q3004.53 656.023 3010.46 656.023 Q3013.47 656.023 3016.13 654.935 Q3018.81 653.847 3021.18 651.648 L3021.18 656.532 Q3018.72 658.199 3015.97 659.032 Q3013.24 659.866 3010.18 659.866 Q3002.33 659.866 2997.82 655.074 Q2993.31 650.259 2993.31 641.949 Q2993.31 633.616 2997.82 628.824 Q3002.33 624.009 3010.18 624.009 Q3013.28 624.009 3016.01 624.843 Q3018.77 625.653 3021.18 627.296 Z" fill="#000000" fill-rule="evenodd" fill-opacity="1" /></svg>
