<?xml version="1.0" encoding="utf-8"?>
<svg xmlns="http://www.w3.org/2000/svg" xmlns:xlink="http://www.w3.org/1999/xlink" width="800" height="200" viewBox="0 0 3200 800">
<defs>
  <clipPath id="clip320">
    <rect x="0" y="0" width="3200" height="800"/>
  </clipPath>
</defs>
<path clip-path="url(#clip320)" d="M0 800 L3200 800 L3200 0 L0 0  Z" fill="#ffffff" fill-rule="evenodd" fill-opacity="1"/>
<defs>
  <clipPath id="clip321">
    <rect x="640" y="0" width="2241" height="800"/>
  </clipPath>
</defs>
<path clip-path="url(#clip320)" d="M192.191 716.048 L3152.76 716.048 L3152.76 47.2441 L192.191 47.2441  Z" fill="#ffffff" fill-rule="evenodd" fill-opacity="1"/>
<defs>
  <clipPath id="clip322">
    <rect x="192" y="47" width="2962" height="670"/>
  </clipPath>
</defs>
<polyline clip-path="url(#clip322)" style="stroke:#000000; stroke-linecap:round; stroke-linejoin:round; stroke-width:2; stroke-opacity:0.1; fill:none" points="275.332,716.048 275.332,47.2441 "/>
<polyline clip-path="url(#clip322)" style="stroke:#000000; stroke-linecap:round; stroke-linejoin:round; stroke-width:2; stroke-opacity:0.1; fill:none" points="923.958,716.048 923.958,47.2441 "/>
<polyline clip-path="url(#clip322)" style="stroke:#000000; stroke-linecap:round; stroke-linejoin:round; stroke-width:2; stroke-opacity:0.1; fill:none" points="1572.58,716.048 1572.58,47.2441 "/>
<polyline clip-path="url(#clip322)" style="stroke:#000000; stroke-linecap:round; stroke-linejoin:round; stroke-width:2; stroke-opacity:0.1; fill:none" points="2221.21,716.048 2221.21,47.2441 "/>
<polyline clip-path="url(#clip322)" style="stroke:#000000; stroke-linecap:round; stroke-linejoin:round; stroke-width:2; stroke-opacity:0.1; fill:none" points="2869.84,716.048 2869.84,47.2441 "/>
<polyline clip-path="url(#clip320)" style="stroke:#000000; stroke-linecap:round; stroke-linejoin:round; stroke-width:4; stroke-opacity:1; fill:none" points="192.191,716.048 3152.76,716.048 "/>
<polyline clip-path="url(#clip320)" style="stroke:#000000; stroke-linecap:round; stroke-linejoin:round; stroke-width:4; stroke-opacity:1; fill:none" points="275.332,716.048 275.332,697.15 "/>
<polyline clip-path="url(#clip320)" style="stroke:#000000; stroke-linecap:round; stroke-linejoin:round; stroke-width:4; stroke-opacity:1; fill:none" points="923.958,716.048 923.958,697.15 "/>
<polyline clip-path="url(#clip320)" style="stroke:#000000; stroke-linecap:round; stroke-linejoin:round; stroke-width:4; stroke-opacity:1; fill:none" points="1572.58,716.048 1572.58,697.15 "/>
<polyline clip-path="url(#clip320)" style="stroke:#000000; stroke-linecap:round; stroke-linejoin:round; stroke-width:4; stroke-opacity:1; fill:none" points="2221.21,716.048 2221.21,697.15 "/>
<polyline clip-path="url(#clip320)" style="stroke:#000000; stroke-linecap:round; stroke-linejoin:round; stroke-width:4; stroke-opacity:1; fill:none" points="2869.84,716.048 2869.84,697.15 "/>
<path clip-path="url(#clip320)" d="M275.332 753.367 Q271.721 753.367 269.892 756.931 Q268.086 760.473 268.086 767.603 Q268.086 774.709 269.892 778.274 Q271.721 781.815 275.332 781.815 Q278.966 781.815 280.771 778.274 Q282.6 774.709 282.6 767.603 Q282.6 760.473 280.771 756.931 Q278.966 753.367 275.332 753.367 M275.332 749.663 Q281.142 749.663 284.197 754.269 Q287.276 758.853 287.276 767.603 Q287.276 776.329 284.197 780.936 Q281.142 785.519 275.332 785.519 Q269.521 785.519 266.443 780.936 Q263.387 776.329 263.387 767.603 Q263.387 758.853 266.443 754.269 Q269.521 749.663 275.332 749.663 Z" fill="#000000" fill-rule="evenodd" fill-opacity="1" /><path clip-path="url(#clip320)" d="M868.484 780.913 L876.123 780.913 L876.123 754.547 L867.813 756.214 L867.813 751.955 L876.077 750.288 L880.752 750.288 L880.752 780.913 L888.391 780.913 L888.391 784.848 L868.484 784.848 L868.484 780.913 Z" fill="#000000" fill-rule="evenodd" fill-opacity="1" /><path clip-path="url(#clip320)" d="M907.836 753.367 Q904.225 753.367 902.396 756.931 Q900.59 760.473 900.59 767.603 Q900.59 774.709 902.396 778.274 Q904.225 781.815 907.836 781.815 Q911.47 781.815 913.275 778.274 Q915.104 774.709 915.104 767.603 Q915.104 760.473 913.275 756.931 Q911.47 753.367 907.836 753.367 M907.836 749.663 Q913.646 749.663 916.701 754.269 Q919.78 758.853 919.78 767.603 Q919.78 776.329 916.701 780.936 Q913.646 785.519 907.836 785.519 Q902.025 785.519 898.947 780.936 Q895.891 776.329 895.891 767.603 Q895.891 758.853 898.947 754.269 Q902.025 749.663 907.836 749.663 Z" fill="#000000" fill-rule="evenodd" fill-opacity="1" /><path clip-path="url(#clip320)" d="M937.997 753.367 Q934.386 753.367 932.558 756.931 Q930.752 760.473 930.752 767.603 Q930.752 774.709 932.558 778.274 Q934.386 781.815 937.997 781.815 Q941.632 781.815 943.437 778.274 Q945.266 774.709 945.266 767.603 Q945.266 760.473 943.437 756.931 Q941.632 753.367 937.997 753.367 M937.997 749.663 Q943.808 749.663 946.863 754.269 Q949.942 758.853 949.942 767.603 Q949.942 776.329 946.863 780.936 Q943.808 785.519 937.997 785.519 Q932.187 785.519 929.109 780.936 Q926.053 776.329 926.053 767.603 Q926.053 758.853 929.109 754.269 Q932.187 749.663 937.997 749.663 Z" fill="#000000" fill-rule="evenodd" fill-opacity="1" /><path clip-path="url(#clip320)" d="M968.159 753.367 Q964.548 753.367 962.72 756.931 Q960.914 760.473 960.914 767.603 Q960.914 774.709 962.72 778.274 Q964.548 781.815 968.159 781.815 Q971.794 781.815 973.599 778.274 Q975.428 774.709 975.428 767.603 Q975.428 760.473 973.599 756.931 Q971.794 753.367 968.159 753.367 M968.159 749.663 Q973.97 749.663 977.025 754.269 Q980.104 758.853 980.104 767.603 Q980.104 776.329 977.025 780.936 Q973.97 785.519 968.159 785.519 Q962.349 785.519 959.271 780.936 Q956.215 776.329 956.215 767.603 Q956.215 758.853 959.271 754.269 Q962.349 749.663 968.159 749.663 Z" fill="#000000" fill-rule="evenodd" fill-opacity="1" /><path clip-path="url(#clip320)" d="M1521.2 780.913 L1537.52 780.913 L1537.52 784.848 L1515.57 784.848 L1515.57 780.913 Q1518.23 778.158 1522.82 773.528 Q1527.42 768.876 1528.6 767.533 Q1530.85 765.01 1531.73 763.274 Q1532.63 761.515 1532.63 759.825 Q1532.63 757.07 1530.69 755.334 Q1528.77 753.598 1525.66 753.598 Q1523.46 753.598 1521.01 754.362 Q1518.58 755.126 1515.8 756.677 L1515.8 751.955 Q1518.63 750.82 1521.08 750.242 Q1523.53 749.663 1525.57 749.663 Q1530.94 749.663 1534.14 752.348 Q1537.33 755.033 1537.33 759.524 Q1537.33 761.654 1536.52 763.575 Q1535.73 765.473 1533.63 768.066 Q1533.05 768.737 1529.95 771.954 Q1526.84 775.149 1521.2 780.913 Z" fill="#000000" fill-rule="evenodd" fill-opacity="1" /><path clip-path="url(#clip320)" d="M1557.33 753.367 Q1553.72 753.367 1551.89 756.931 Q1550.08 760.473 1550.08 767.603 Q1550.08 774.709 1551.89 778.274 Q1553.72 781.815 1557.33 781.815 Q1560.96 781.815 1562.77 778.274 Q1564.6 774.709 1564.6 767.603 Q1564.6 760.473 1562.77 756.931 Q1560.96 753.367 1557.33 753.367 M1557.33 749.663 Q1563.14 749.663 1566.2 754.269 Q1569.27 758.853 1569.27 767.603 Q1569.27 776.329 1566.2 780.936 Q1563.14 785.519 1557.33 785.519 Q1551.52 785.519 1548.44 780.936 Q1545.39 776.329 1545.39 767.603 Q1545.39 758.853 1548.44 754.269 Q1551.52 749.663 1557.33 749.663 Z" fill="#000000" fill-rule="evenodd" fill-opacity="1" /><path clip-path="url(#clip320)" d="M1587.49 753.367 Q1583.88 753.367 1582.05 756.931 Q1580.25 760.473 1580.25 767.603 Q1580.25 774.709 1582.05 778.274 Q1583.88 781.815 1587.49 781.815 Q1591.13 781.815 1592.93 778.274 Q1594.76 774.709 1594.76 767.603 Q1594.76 760.473 1592.93 756.931 Q1591.13 753.367 1587.49 753.367 M1587.49 749.663 Q1593.3 749.663 1596.36 754.269 Q1599.44 758.853 1599.44 767.603 Q1599.44 776.329 1596.36 780.936 Q1593.3 785.519 1587.49 785.519 Q1581.68 785.519 1578.6 780.936 Q1575.55 776.329 1575.55 767.603 Q1575.55 758.853 1578.6 754.269 Q1581.68 749.663 1587.49 749.663 Z" fill="#000000" fill-rule="evenodd" fill-opacity="1" /><path clip-path="url(#clip320)" d="M1617.65 753.367 Q1614.04 753.367 1612.21 756.931 Q1610.41 760.473 1610.41 767.603 Q1610.41 774.709 1612.21 778.274 Q1614.04 781.815 1617.65 781.815 Q1621.29 781.815 1623.09 778.274 Q1624.92 774.709 1624.92 767.603 Q1624.92 760.473 1623.09 756.931 Q1621.29 753.367 1617.65 753.367 M1617.65 749.663 Q1623.46 749.663 1626.52 754.269 Q1629.6 758.853 1629.6 767.603 Q1629.6 776.329 1626.52 780.936 Q1623.46 785.519 1617.65 785.519 Q1611.84 785.519 1608.77 780.936 Q1605.71 776.329 1605.71 767.603 Q1605.71 758.853 1608.77 754.269 Q1611.84 749.663 1617.65 749.663 Z" fill="#000000" fill-rule="evenodd" fill-opacity="1" /><path clip-path="url(#clip320)" d="M2179.89 766.214 Q2183.25 766.931 2185.12 769.2 Q2187.02 771.468 2187.02 774.802 Q2187.02 779.917 2183.5 782.718 Q2179.98 785.519 2173.5 785.519 Q2171.33 785.519 2169.01 785.079 Q2166.72 784.663 2164.27 783.806 L2164.27 779.292 Q2166.21 780.427 2168.53 781.005 Q2170.84 781.584 2173.36 781.584 Q2177.76 781.584 2180.05 779.848 Q2182.37 778.112 2182.37 774.802 Q2182.37 771.746 2180.22 770.033 Q2178.09 768.297 2174.27 768.297 L2170.24 768.297 L2170.24 764.454 L2174.45 764.454 Q2177.9 764.454 2179.73 763.089 Q2181.56 761.7 2181.56 759.107 Q2181.56 756.445 2179.66 755.033 Q2177.79 753.598 2174.27 753.598 Q2172.35 753.598 2170.15 754.015 Q2167.95 754.431 2165.31 755.311 L2165.31 751.144 Q2167.97 750.404 2170.29 750.033 Q2172.62 749.663 2174.68 749.663 Q2180.01 749.663 2183.11 752.093 Q2186.21 754.501 2186.21 758.621 Q2186.21 761.492 2184.57 763.482 Q2182.92 765.45 2179.89 766.214 Z" fill="#000000" fill-rule="evenodd" fill-opacity="1" /><path clip-path="url(#clip320)" d="M2205.89 753.367 Q2202.28 753.367 2200.45 756.931 Q2198.64 760.473 2198.64 767.603 Q2198.64 774.709 2200.45 778.274 Q2202.28 781.815 2205.89 781.815 Q2209.52 781.815 2211.33 778.274 Q2213.16 774.709 2213.16 767.603 Q2213.16 760.473 2211.33 756.931 Q2209.52 753.367 2205.89 753.367 M2205.89 749.663 Q2211.7 749.663 2214.75 754.269 Q2217.83 758.853 2217.83 767.603 Q2217.83 776.329 2214.75 780.936 Q2211.7 785.519 2205.89 785.519 Q2200.08 785.519 2197 780.936 Q2193.94 776.329 2193.94 767.603 Q2193.94 758.853 2197 754.269 Q2200.08 749.663 2205.89 749.663 Z" fill="#000000" fill-rule="evenodd" fill-opacity="1" /><path clip-path="url(#clip320)" d="M2236.05 753.367 Q2232.44 753.367 2230.61 756.931 Q2228.8 760.473 2228.8 767.603 Q2228.8 774.709 2230.61 778.274 Q2232.44 781.815 2236.05 781.815 Q2239.68 781.815 2241.49 778.274 Q2243.32 774.709 2243.32 767.603 Q2243.32 760.473 2241.49 756.931 Q2239.68 753.367 2236.05 753.367 M2236.05 749.663 Q2241.86 749.663 2244.91 754.269 Q2247.99 758.853 2247.99 767.603 Q2247.99 776.329 2244.91 780.936 Q2241.86 785.519 2236.05 785.519 Q2230.24 785.519 2227.16 780.936 Q2224.1 776.329 2224.1 767.603 Q2224.1 758.853 2227.16 754.269 Q2230.24 749.663 2236.05 749.663 Z" fill="#000000" fill-rule="evenodd" fill-opacity="1" /><path clip-path="url(#clip320)" d="M2266.21 753.367 Q2262.6 753.367 2260.77 756.931 Q2258.97 760.473 2258.97 767.603 Q2258.97 774.709 2260.77 778.274 Q2262.6 781.815 2266.21 781.815 Q2269.85 781.815 2271.65 778.274 Q2273.48 774.709 2273.48 767.603 Q2273.48 760.473 2271.65 756.931 Q2269.85 753.367 2266.21 753.367 M2266.21 749.663 Q2272.02 749.663 2275.08 754.269 Q2278.16 758.853 2278.16 767.603 Q2278.16 776.329 2275.08 780.936 Q2272.02 785.519 2266.21 785.519 Q2260.4 785.519 2257.32 780.936 Q2254.27 776.329 2254.27 767.603 Q2254.27 758.853 2257.32 754.269 Q2260.4 749.663 2266.21 749.663 Z" fill="#000000" fill-rule="evenodd" fill-opacity="1" /><path clip-path="url(#clip320)" d="M2827.85 754.362 L2816.04 772.811 L2827.85 772.811 L2827.85 754.362 M2826.62 750.288 L2832.5 750.288 L2832.5 772.811 L2837.43 772.811 L2837.43 776.7 L2832.5 776.7 L2832.5 784.848 L2827.85 784.848 L2827.85 776.7 L2812.25 776.7 L2812.25 772.186 L2826.62 750.288 Z" fill="#000000" fill-rule="evenodd" fill-opacity="1" /><path clip-path="url(#clip320)" d="M2855.16 753.367 Q2851.55 753.367 2849.72 756.931 Q2847.92 760.473 2847.92 767.603 Q2847.92 774.709 2849.72 778.274 Q2851.55 781.815 2855.16 781.815 Q2858.8 781.815 2860.6 778.274 Q2862.43 774.709 2862.43 767.603 Q2862.43 760.473 2860.6 756.931 Q2858.8 753.367 2855.16 753.367 M2855.16 749.663 Q2860.97 749.663 2864.03 754.269 Q2867.11 758.853 2867.11 767.603 Q2867.11 776.329 2864.03 780.936 Q2860.97 785.519 2855.16 785.519 Q2849.35 785.519 2846.27 780.936 Q2843.22 776.329 2843.22 767.603 Q2843.22 758.853 2846.27 754.269 Q2849.35 749.663 2855.16 749.663 Z" fill="#000000" fill-rule="evenodd" fill-opacity="1" /><path clip-path="url(#clip320)" d="M2885.32 753.367 Q2881.71 753.367 2879.88 756.931 Q2878.08 760.473 2878.08 767.603 Q2878.08 774.709 2879.88 778.274 Q2881.71 781.815 2885.32 781.815 Q2888.96 781.815 2890.76 778.274 Q2892.59 774.709 2892.59 767.603 Q2892.59 760.473 2890.76 756.931 Q2888.96 753.367 2885.32 753.367 M2885.32 749.663 Q2891.13 749.663 2894.19 754.269 Q2897.27 758.853 2897.27 767.603 Q2897.27 776.329 2894.19 780.936 Q2891.13 785.519 2885.32 785.519 Q2879.51 785.519 2876.44 780.936 Q2873.38 776.329 2873.38 767.603 Q2873.38 758.853 2876.44 754.269 Q2879.51 749.663 2885.32 749.663 Z" fill="#000000" fill-rule="evenodd" fill-opacity="1" /><path clip-path="url(#clip320)" d="M2915.49 753.367 Q2911.87 753.367 2910.05 756.931 Q2908.24 760.473 2908.24 767.603 Q2908.24 774.709 2910.05 778.274 Q2911.87 781.815 2915.49 781.815 Q2919.12 781.815 2920.93 778.274 Q2922.75 774.709 2922.75 767.603 Q2922.75 760.473 2920.93 756.931 Q2919.12 753.367 2915.49 753.367 M2915.49 749.663 Q2921.3 749.663 2924.35 754.269 Q2927.43 758.853 2927.43 767.603 Q2927.43 776.329 2924.35 780.936 Q2921.3 785.519 2915.49 785.519 Q2909.68 785.519 2906.6 780.936 Q2903.54 776.329 2903.54 767.603 Q2903.54 758.853 2906.6 754.269 Q2909.68 749.663 2915.49 749.663 Z" fill="#000000" fill-rule="evenodd" fill-opacity="1" /><polyline clip-path="url(#clip322)" style="stroke:#000000; stroke-linecap:round; stroke-linejoin:round; stroke-width:2; stroke-opacity:0.1; fill:none" points="192.191,716.048 3152.76,716.048 "/>
<polyline clip-path="url(#clip322)" style="stroke:#000000; stroke-linecap:round; stroke-linejoin:round; stroke-width:2; stroke-opacity:0.1; fill:none" points="192.191,599.936 3152.76,599.936 "/>
<polyline clip-path="url(#clip322)" style="stroke:#000000; stroke-linecap:round; stroke-linejoin:round; stroke-width:2; stroke-opacity:0.1; fill:none" points="192.191,483.824 3152.76,483.824 "/>
<polyline clip-path="url(#clip322)" style="stroke:#000000; stroke-linecap:round; stroke-linejoin:round; stroke-width:2; stroke-opacity:0.1; fill:none" points="192.191,367.713 3152.76,367.713 "/>
<polyline clip-path="url(#clip322)" style="stroke:#000000; stroke-linecap:round; stroke-linejoin:round; stroke-width:2; stroke-opacity:0.1; fill:none" points="192.191,251.601 3152.76,251.601 "/>
<polyline clip-path="url(#clip322)" style="stroke:#000000; stroke-linecap:round; stroke-linejoin:round; stroke-width:2; stroke-opacity:0.1; fill:none" points="192.191,135.489 3152.76,135.489 "/>
<polyline clip-path="url(#clip320)" style="stroke:#000000; stroke-linecap:round; stroke-linejoin:round; stroke-width:4; stroke-opacity:1; fill:none" points="192.191,716.048 192.191,47.2441 "/>
<polyline clip-path="url(#clip320)" style="stroke:#000000; stroke-linecap:round; stroke-linejoin:round; stroke-width:4; stroke-opacity:1; fill:none" points="192.191,716.048 211.088,716.048 "/>
<polyline clip-path="url(#clip320)" style="stroke:#000000; stroke-linecap:round; stroke-linejoin:round; stroke-width:4; stroke-opacity:1; fill:none" points="192.191,599.936 211.088,599.936 "/>
<polyline clip-path="url(#clip320)" style="stroke:#000000; stroke-linecap:round; stroke-linejoin:round; stroke-width:4; stroke-opacity:1; fill:none" points="192.191,483.824 211.088,483.824 "/>
<polyline clip-path="url(#clip320)" style="stroke:#000000; stroke-linecap:round; stroke-linejoin:round; stroke-width:4; stroke-opacity:1; fill:none" points="192.191,367.713 211.088,367.713 "/>
<polyline clip-path="url(#clip320)" style="stroke:#000000; stroke-linecap:round; stroke-linejoin:round; stroke-width:4; stroke-opacity:1; fill:none" points="192.191,251.601 211.088,251.601 "/>
<polyline clip-path="url(#clip320)" style="stroke:#000000; stroke-linecap:round; stroke-linejoin:round; stroke-width:4; stroke-opacity:1; fill:none" points="192.191,135.489 211.088,135.489 "/>
<path clip-path="url(#clip320)" d="M87.0151 701.847 Q83.404 701.847 81.5753 705.411 Q79.7697 708.953 79.7697 716.083 Q79.7697 723.189 81.5753 726.754 Q83.404 730.295 87.0151 730.295 Q90.6493 730.295 92.4548 726.754 Q94.2835 723.189 94.2835 716.083 Q94.2835 708.953 92.4548 705.411 Q90.6493 701.847 87.0151 701.847 M87.0151 698.143 Q92.8252 698.143 95.8808 702.749 Q98.9594 707.333 98.9594 716.083 Q98.9594 724.809 95.8808 729.416 Q92.8252 733.999 87.0151 733.999 Q81.2049 733.999 78.1262 729.416 Q75.0707 724.809 75.0707 716.083 Q75.0707 707.333 78.1262 702.749 Q81.2049 698.143 87.0151 698.143 Z" fill="#000000" fill-rule="evenodd" fill-opacity="1" /><path clip-path="url(#clip320)" d="M107.177 727.448 L112.061 727.448 L112.061 733.328 L107.177 733.328 L107.177 727.448 Z" fill="#000000" fill-rule="evenodd" fill-opacity="1" /><path clip-path="url(#clip320)" d="M132.246 701.847 Q128.635 701.847 126.807 705.411 Q125.001 708.953 125.001 716.083 Q125.001 723.189 126.807 726.754 Q128.635 730.295 132.246 730.295 Q135.881 730.295 137.686 726.754 Q139.515 723.189 139.515 716.083 Q139.515 708.953 137.686 705.411 Q135.881 701.847 132.246 701.847 M132.246 698.143 Q138.056 698.143 141.112 702.749 Q144.191 707.333 144.191 716.083 Q144.191 724.809 141.112 729.416 Q138.056 733.999 132.246 733.999 Q126.436 733.999 123.357 729.416 Q120.302 724.809 120.302 716.083 Q120.302 707.333 123.357 702.749 Q126.436 698.143 132.246 698.143 Z" fill="#000000" fill-rule="evenodd" fill-opacity="1" /><path clip-path="url(#clip320)" d="M82.0382 613.281 L98.3576 613.281 L98.3576 617.216 L76.4133 617.216 L76.4133 613.281 Q79.0753 610.526 83.6586 605.897 Q88.2651 601.244 89.4456 599.901 Q91.691 597.378 92.5706 595.642 Q93.4734 593.883 93.4734 592.193 Q93.4734 589.438 91.5289 587.702 Q89.6076 585.966 86.5058 585.966 Q84.3067 585.966 81.8531 586.73 Q79.4225 587.494 76.6447 589.045 L76.6447 584.323 Q79.4688 583.189 81.9225 582.61 Q84.3762 582.031 86.4132 582.031 Q91.7836 582.031 94.978 584.716 Q98.1724 587.401 98.1724 591.892 Q98.1724 594.022 97.3622 595.943 Q96.5752 597.841 94.4687 600.434 Q93.89 601.105 90.7882 604.323 Q87.6864 607.517 82.0382 613.281 Z" fill="#000000" fill-rule="evenodd" fill-opacity="1" /><path clip-path="url(#clip320)" d="M108.172 611.337 L113.057 611.337 L113.057 617.216 L108.172 617.216 L108.172 611.337 Z" fill="#000000" fill-rule="evenodd" fill-opacity="1" /><path clip-path="url(#clip320)" d="M123.288 582.656 L141.644 582.656 L141.644 586.591 L127.57 586.591 L127.57 595.063 Q128.589 594.716 129.607 594.554 Q130.626 594.369 131.644 594.369 Q137.431 594.369 140.811 597.54 Q144.191 600.712 144.191 606.128 Q144.191 611.707 140.718 614.809 Q137.246 617.887 130.927 617.887 Q128.751 617.887 126.482 617.517 Q124.237 617.147 121.83 616.406 L121.83 611.707 Q123.913 612.841 126.135 613.397 Q128.357 613.952 130.834 613.952 Q134.839 613.952 137.177 611.846 Q139.515 609.739 139.515 606.128 Q139.515 602.517 137.177 600.411 Q134.839 598.304 130.834 598.304 Q128.959 598.304 127.084 598.721 Q125.232 599.137 123.288 600.017 L123.288 582.656 Z" fill="#000000" fill-rule="evenodd" fill-opacity="1" /><path clip-path="url(#clip320)" d="M77.0614 466.544 L95.4178 466.544 L95.4178 470.48 L81.3438 470.48 L81.3438 478.952 Q82.3623 478.604 83.3808 478.442 Q84.3993 478.257 85.4178 478.257 Q91.2049 478.257 94.5845 481.429 Q97.9641 484.6 97.9641 490.016 Q97.9641 495.595 94.4919 498.697 Q91.0197 501.776 84.7003 501.776 Q82.5243 501.776 80.2558 501.405 Q78.0105 501.035 75.6031 500.294 L75.6031 495.595 Q77.6864 496.729 79.9086 497.285 Q82.1308 497.84 84.6077 497.84 Q88.6123 497.84 90.9502 495.734 Q93.2882 493.628 93.2882 490.016 Q93.2882 486.405 90.9502 484.299 Q88.6123 482.192 84.6077 482.192 Q82.7327 482.192 80.8577 482.609 Q79.0058 483.026 77.0614 483.905 L77.0614 466.544 Z" fill="#000000" fill-rule="evenodd" fill-opacity="1" /><path clip-path="url(#clip320)" d="M107.177 495.225 L112.061 495.225 L112.061 501.104 L107.177 501.104 L107.177 495.225 Z" fill="#000000" fill-rule="evenodd" fill-opacity="1" /><path clip-path="url(#clip320)" d="M132.246 469.623 Q128.635 469.623 126.807 473.188 Q125.001 476.729 125.001 483.859 Q125.001 490.966 126.807 494.53 Q128.635 498.072 132.246 498.072 Q135.881 498.072 137.686 494.53 Q139.515 490.966 139.515 483.859 Q139.515 476.729 137.686 473.188 Q135.881 469.623 132.246 469.623 M132.246 465.919 Q138.056 465.919 141.112 470.526 Q144.191 475.109 144.191 483.859 Q144.191 492.586 141.112 497.192 Q138.056 501.776 132.246 501.776 Q126.436 501.776 123.357 497.192 Q120.302 492.586 120.302 483.859 Q120.302 475.109 123.357 470.526 Q126.436 465.919 132.246 465.919 Z" fill="#000000" fill-rule="evenodd" fill-opacity="1" /><path clip-path="url(#clip320)" d="M76.8299 350.433 L99.052 350.433 L99.052 352.423 L86.5058 384.993 L81.6216 384.993 L93.4271 354.368 L76.8299 354.368 L76.8299 350.433 Z" fill="#000000" fill-rule="evenodd" fill-opacity="1" /><path clip-path="url(#clip320)" d="M108.172 379.113 L113.057 379.113 L113.057 384.993 L108.172 384.993 L108.172 379.113 Z" fill="#000000" fill-rule="evenodd" fill-opacity="1" /><path clip-path="url(#clip320)" d="M123.288 350.433 L141.644 350.433 L141.644 354.368 L127.57 354.368 L127.57 362.84 Q128.589 362.493 129.607 362.331 Q130.626 362.145 131.644 362.145 Q137.431 362.145 140.811 365.317 Q144.191 368.488 144.191 373.905 Q144.191 379.483 140.718 382.585 Q137.246 385.664 130.927 385.664 Q128.751 385.664 126.482 385.293 Q124.237 384.923 121.83 384.182 L121.83 379.483 Q123.913 380.618 126.135 381.173 Q128.357 381.729 130.834 381.729 Q134.839 381.729 137.177 379.622 Q139.515 377.516 139.515 373.905 Q139.515 370.294 137.177 368.187 Q134.839 366.081 130.834 366.081 Q128.959 366.081 127.084 366.497 Q125.232 366.914 123.288 367.794 L123.288 350.433 Z" fill="#000000" fill-rule="evenodd" fill-opacity="1" /><path clip-path="url(#clip320)" d="M47.6634 264.946 L55.3023 264.946 L55.3023 238.58 L46.9921 240.247 L46.9921 235.987 L55.256 234.321 L59.9319 234.321 L59.9319 264.946 L67.5707 264.946 L67.5707 268.881 L47.6634 268.881 L47.6634 264.946 Z" fill="#000000" fill-rule="evenodd" fill-opacity="1" /><path clip-path="url(#clip320)" d="M87.0151 237.399 Q83.404 237.399 81.5753 240.964 Q79.7697 244.506 79.7697 251.636 Q79.7697 258.742 81.5753 262.307 Q83.404 265.848 87.0151 265.848 Q90.6493 265.848 92.4548 262.307 Q94.2835 258.742 94.2835 251.636 Q94.2835 244.506 92.4548 240.964 Q90.6493 237.399 87.0151 237.399 M87.0151 233.696 Q92.8252 233.696 95.8808 238.302 Q98.9594 242.886 98.9594 251.636 Q98.9594 260.362 95.8808 264.969 Q92.8252 269.552 87.0151 269.552 Q81.2049 269.552 78.1262 264.969 Q75.0707 260.362 75.0707 251.636 Q75.0707 242.886 78.1262 238.302 Q81.2049 233.696 87.0151 233.696 Z" fill="#000000" fill-rule="evenodd" fill-opacity="1" /><path clip-path="url(#clip320)" d="M107.177 263.001 L112.061 263.001 L112.061 268.881 L107.177 268.881 L107.177 263.001 Z" fill="#000000" fill-rule="evenodd" fill-opacity="1" /><path clip-path="url(#clip320)" d="M132.246 237.399 Q128.635 237.399 126.807 240.964 Q125.001 244.506 125.001 251.636 Q125.001 258.742 126.807 262.307 Q128.635 265.848 132.246 265.848 Q135.881 265.848 137.686 262.307 Q139.515 258.742 139.515 251.636 Q139.515 244.506 137.686 240.964 Q135.881 237.399 132.246 237.399 M132.246 233.696 Q138.056 233.696 141.112 238.302 Q144.191 242.886 144.191 251.636 Q144.191 260.362 141.112 264.969 Q138.056 269.552 132.246 269.552 Q126.436 269.552 123.357 264.969 Q120.302 260.362 120.302 251.636 Q120.302 242.886 123.357 238.302 Q126.436 233.696 132.246 233.696 Z" fill="#000000" fill-rule="evenodd" fill-opacity="1" /><path clip-path="url(#clip320)" d="M48.6588 148.834 L56.2976 148.834 L56.2976 122.468 L47.9875 124.135 L47.9875 119.876 L56.2513 118.209 L60.9272 118.209 L60.9272 148.834 L68.5661 148.834 L68.5661 152.769 L48.6588 152.769 L48.6588 148.834 Z" fill="#000000" fill-rule="evenodd" fill-opacity="1" /><path clip-path="url(#clip320)" d="M82.0382 148.834 L98.3576 148.834 L98.3576 152.769 L76.4133 152.769 L76.4133 148.834 Q79.0753 146.079 83.6586 141.45 Q88.2651 136.797 89.4456 135.454 Q91.691 132.931 92.5706 131.195 Q93.4734 129.436 93.4734 127.746 Q93.4734 124.991 91.5289 123.255 Q89.6076 121.519 86.5058 121.519 Q84.3067 121.519 81.8531 122.283 Q79.4225 123.047 76.6447 124.598 L76.6447 119.876 Q79.4688 118.741 81.9225 118.163 Q84.3762 117.584 86.4132 117.584 Q91.7836 117.584 94.978 120.269 Q98.1724 122.954 98.1724 127.445 Q98.1724 129.575 97.3622 131.496 Q96.5752 133.394 94.4687 135.987 Q93.89 136.658 90.7882 139.876 Q87.6864 143.07 82.0382 148.834 Z" fill="#000000" fill-rule="evenodd" fill-opacity="1" /><path clip-path="url(#clip320)" d="M108.172 146.889 L113.057 146.889 L113.057 152.769 L108.172 152.769 L108.172 146.889 Z" fill="#000000" fill-rule="evenodd" fill-opacity="1" /><path clip-path="url(#clip320)" d="M123.288 118.209 L141.644 118.209 L141.644 122.144 L127.57 122.144 L127.57 130.616 Q128.589 130.269 129.607 130.107 Q130.626 129.922 131.644 129.922 Q137.431 129.922 140.811 133.093 Q144.191 136.264 144.191 141.681 Q144.191 147.26 140.718 150.362 Q137.246 153.44 130.927 153.44 Q128.751 153.44 126.482 153.07 Q124.237 152.7 121.83 151.959 L121.83 147.26 Q123.913 148.394 126.135 148.95 Q128.357 149.505 130.834 149.505 Q134.839 149.505 137.177 147.399 Q139.515 145.292 139.515 141.681 Q139.515 138.07 137.177 135.964 Q134.839 133.857 130.834 133.857 Q128.959 133.857 127.084 134.274 Q125.232 134.69 123.288 135.57 L123.288 118.209 Z" fill="#000000" fill-rule="evenodd" fill-opacity="1" /><polyline clip-path="url(#clip322)" style="stroke:#009af9; stroke-linecap:round; stroke-linejoin:round; stroke-width:2; stroke-opacity:1; fill:none" points="275.98,532.849 276.629,533.571 277.278,525.263 277.926,534.962 278.575,523.39 279.223,536.49 279.872,533.524 280.521,526.62 281.169,534.115 281.818,527.28 282.467,536.914 283.115,536.444 283.764,529.725 284.412,521.326 285.061,539.267 285.71,521.757 286.358,538.005 287.007,520.322 287.656,526.079 288.304,532.793 288.953,527.113 289.601,532.881 290.25,528.987 290.899,530.158 291.547,538.242 292.196,522.361 292.845,530.924 293.493,527.518 294.142,522.782 294.79,528.868 295.439,529.816 296.088,523.604 296.736,536.068 297.385,524.224 298.034,536.956 298.682,524.1 299.331,528.53 299.979,532.183 300.628,529.722 301.277,535.165 301.925,516.13 302.574,535.862 303.223,531.308 303.871,528.611 304.52,531.215 305.168,529.623 305.817,525.219 306.466,535.687 307.114,518.909 307.763,529.256 308.412,531.071 309.06,539.536 309.709,531.752 310.357,528.368 311.006,528.817 311.655,525.936 312.303,527.95 312.952,525.844 313.601,534.555 314.249,527.113 314.898,531.969 315.546,529.046 316.195,531.04 316.844,534.589 317.492,534.195 318.141,525.2 318.79,532.615 319.438,527.056 320.087,532.902 320.735,527.6 321.384,533.568 322.033,525.873 322.681,533.94 323.33,526.466 323.979,528.741 324.627,531.06 325.276,530.72 325.925,528.765 326.573,528.226 327.222,532.289 327.87,532.799 328.519,524.298 329.168,533.293 329.816,527.304 330.465,533.374 331.114,527.685 331.762,534.948 332.411,525.452 333.059,534.9 333.708,525.755 334.357,529.724 335.005,526.597 335.654,534.222 336.303,525.962 336.951,530.23 337.6,535.16 338.248,534.88 338.897,524.992 339.546,513.13 340.194,536.422 340.843,524.255 341.492,533.56 342.14,526.891 342.789,525.78 343.437,533.058 344.086,538.513 344.735,522.164 345.383,532.41 346.032,535.853 346.681,531.718 347.329,528.81 347.978,531.615 348.626,538.116 349.275,522.688 349.924,536.851 350.572,523.875 351.221,526.723 351.87,533.19 352.518,528.951 353.167,530.508 353.815,529.687 354.464,531.726 355.113,533.807 355.761,528.419 356.41,536.555 357.059,524.861 357.707,536.534 358.356,524.917 359.004,524.069 359.653,520.414 360.302,540.286 360.95,519.592 361.599,535.6 362.248,530.448 362.896,529.853 363.545,537.821 364.193,523.078 364.842,536.657 365.491,523.343 366.139,540.208 366.788,519.976 367.437,540.72 368.085,520.526 368.734,540.727 369.382,521.616 370.031,533.497 370.68,526.921 371.328,534.209 371.977,525.765 372.626,534.079 373.274,529.876 373.923,531.122 374.572,534.408 375.22,532.364 375.869,531.328 376.517,535.418 377.166,526.603 377.815,534.228 378.463,534.394 379.112,528.834 379.761,528.267 380.409,523.673 381.058,536.042 381.706,524.43 382.355,536.735 383.004,522.63 383.652,537.183 384.301,523.411 384.95,537.542 385.598,523.799 386.247,536.792 386.895,526.315 387.544,533.842 388.193,525.905 388.841,536.088 389.49,524.929 390.139,535.358 390.787,533.682 391.436,526.671 392.084,534.038 392.733,526.096 393.382,527.1 394.03,524.769 394.679,533.413 395.328,538.267 395.976,523.279 396.625,536.674 397.273,523.995 397.922,534.735 398.571,525.547 399.219,535.469 399.868,529.958 400.517,531.981 401.165,524.751 401.814,533.739 402.462,527.027 403.111,526.315 403.76,530.729 404.408,524.904 405.057,534.238 405.706,536.268 406.354,519.591 407.003,540.462 407.651,519.336 408.3,528.631 408.949,531.192 409.597,532.241 410.246,526.106 410.895,522.585 411.543,520.487 412.192,538.258 412.84,531.344 413.489,529.929 414.138,531.277 414.786,532.037 415.435,534.097 416.084,520.048 416.732,519.527 417.381,539.566 418.029,521.444 418.678,538.826 419.327,521.317 419.975,543.125 420.624,517.528 421.273,542.932 421.921,517.836 422.57,526.614 423.218,534.704 423.867,524.063 424.516,533.411 425.164,528.039 425.813,533.491 426.462,526.108 427.11,533.794 427.759,527.499 428.408,531.974 429.056,527.599 429.705,532.666 430.353,535.911 431.002,524.968 431.651,523.552 432.299,532.438 432.948,529.367 433.597,529.444 434.245,533.275 434.894,532.36 435.542,529.334 436.191,529.739 436.84,529.832 437.488,530.916 438.137,534.343 438.786,526.733 439.434,522.204 440.083,538.203 440.731,522.252 441.38,529.572 442.029,530.505 442.677,527.824 443.326,532.931 443.975,527.529 444.623,532.627 445.272,526.882 445.92,532.172 446.569,519.746 447.218,536.898 447.866,523.948 448.515,537.364 449.164,522.226 449.812,539.204 450.461,520.943 451.109,522.339 451.758,517.573 452.407,532.424 453.055,529.268 453.704,529.908 454.353,522.133 455.001,527.544 455.65,532.926 456.298,526.975 456.947,534.707 457.596,522.216 458.244,539.284 458.893,530.785 459.542,534.362 460.19,525.165 460.839,534.841 461.487,514.093 462.136,530.27 462.785,522.503 463.433,527.643 464.082,534.188 464.731,525.775 465.379,533.292 466.028,526.891 466.676,533.442 467.325,533.49 467.974,529.714 468.622,529.732 469.271,532.498 469.92,526.9 470.568,533.955 471.217,539.145 471.865,520.667 472.514,541.258 473.163,523.177 473.811,533.081 474.46,533.66 475.109,532.633 475.757,528.729 476.406,527.914 477.055,524.945 477.703,527.279 478.352,532.479 479,528.586 479.649,531.182 480.298,529.577 480.946,531.608 481.595,528.091 482.244,524.301 482.892,536.628 483.541,529.658 484.189,526.77 484.838,532.734 485.487,527.225 486.135,525.949 486.784,528.601 487.433,539.619 488.081,521.401 488.73,538.845 489.378,520.274 490.027,526.362 490.676,533.568 491.324,531.6 491.973,528.467 492.622,532.077 493.27,524.824 493.919,526.972 494.567,528.286 495.216,528.201 495.865,532.282 496.513,527.893 497.162,530.72 497.811,530.353 498.459,531.799 499.108,546.66 499.756,514.718 500.405,545.745 501.054,523.305 501.702,537.941 502.351,523.437 503,532.811 503.648,530.213 504.297,529.911 504.945,527.197 505.594,519.408 506.243,540.901 506.891,527.635 507.54,530.418 508.189,512.726 508.837,547.165 509.486,513.543 510.134,548.013 510.783,513.577 511.432,547.389 512.08,513.263 512.729,526.544 513.378,538.077 514.026,523.315 514.675,537.953 515.323,521.449 515.972,531.001 516.621,529.769 517.269,527.193 517.918,529.597 518.567,531.615 519.215,529.472 519.864,530.838 520.512,523.029 521.161,519.825 521.81,536.759 522.458,522.115 523.107,531.229 523.756,529.266 524.404,531.097 525.053,536.904 525.701,529.459 526.35,524.614 526.999,535.346 527.647,521.015 528.296,528.702 528.945,529.316 529.593,523.519 530.242,537.215 530.891,529.369 531.539,532.859 532.188,531.409 532.836,528.568 533.485,530.894 534.134,531.013 534.782,529.828 535.431,534.889 536.08,525.039 536.728,535.976 537.377,525.687 538.025,535.154 538.674,522.15 539.323,536.218 539.971,526.163 540.62,532.832 541.269,525.233 541.917,525.627 542.566,536.202 543.214,534.58 543.863,525.803 544.512,529.537 545.16,530.634 545.809,531.147 546.458,529.934 547.106,530.83 547.755,531.144 548.403,530.735 549.052,529.618 549.701,525.967 550.349,522.681 550.998,531.871 551.647,531.196 552.295,530.286 552.944,535.51 553.592,535.231 554.241,524.85 554.89,535.788 555.538,529.338 556.187,531.898 556.836,530.531 557.484,530.509 558.133,529.339 558.781,531.359 559.43,523.857 560.079,535.334 560.727,515.653 561.376,542.906 562.025,518.16 562.673,542.646 563.322,520.873 563.97,539.783 564.619,518.976 565.268,541.226 565.916,520.272 566.565,540.048 567.214,529.844 567.862,536.953 568.511,527.583 569.159,533.758 569.808,529.576 570.457,528.836 571.105,527.599 571.754,515.81 572.403,544.757 573.051,532.026 573.7,528.854 574.348,531.898 574.997,529.861 575.646,529.908 576.294,529.482 576.943,530.345 577.592,528.942 578.24,532.096 578.889,528.688 579.538,527.763 580.186,534.289 580.835,526.89 581.483,534.064 582.132,533.796 582.781,529.47 583.429,535.058 584.078,526.055 584.727,527.015 585.375,536.612 586.024,523.902 586.672,536.362 587.321,526.173 587.97,533.813 588.618,526.932 589.267,528.135 589.916,531.897 590.564,528.69 591.213,534.445 591.861,526.413 592.51,543.574 593.159,533.716 593.807,527.26 594.456,529.857 595.105,531.473 595.753,529.706 596.402,530.654 597.05,532.193 597.699,528.024 598.348,531.759 598.996,533.988 599.645,520.361 600.294,521.929 600.942,528.553 601.591,530.808 602.239,529.926 602.888,530.56 603.537,529.831 604.185,530.322 604.834,530.922 605.483,530.368 606.131,538.287 606.78,532.507 607.428,528.36 608.077,531.468 608.726,524.016 609.374,536.192 610.023,523.909 610.672,536.579 611.32,533.792 611.969,538.034 612.617,522.422 613.266,539.602 613.915,526.68 614.563,527.063 615.212,526.068 615.861,526.889 616.509,533.054 617.158,530.676 617.806,531.91 618.455,536.128 619.104,525.738 619.752,539.787 620.401,521.534 621.05,539.153 621.698,529.88 622.347,528.985 622.995,530.853 623.644,529.82 624.293,530.604 624.941,530.338 625.59,528.89 626.239,531.434 626.887,528.919 627.536,524.03 628.184,538.14 628.833,521.384 629.482,538.895 630.13,520.504 630.779,526.211 631.428,533.654 632.076,526.316 632.725,535.75 633.374,524.599 634.022,532.314 634.671,526.198 635.319,534.199 635.968,527.073 636.617,532.848 637.265,535.866 637.914,535.072 638.563,522.272 639.211,537.503 639.86,523.591 640.508,528.985 641.157,532.163 641.806,508.86 642.454,520.408 643.103,537.048 643.752,523.567 644.4,523.313 645.049,539.904 645.697,520.935 646.346,534.126 646.995,526.232 647.643,521.015 648.292,524.278 648.941,535.29 649.589,525.376 650.238,531.071 650.886,521.174 651.535,541.149 652.184,518.974 652.832,533.697 653.481,525.862 654.13,534.934 654.778,526.817 655.427,532.287 656.075,529.957 656.724,530.779 657.373,545.207 658.021,514.935 658.67,533.507 659.319,527.013 659.967,534 660.616,525.279 661.264,539.098 661.913,521.935 662.562,541.697 663.21,518.945 663.859,528.015 664.508,532.468 665.156,518.164 665.805,528.328 666.453,531.782 667.102,529.293 667.751,525.167 668.399,537.546 669.048,522.822 669.697,530.037 670.345,530.824 670.994,531.532 671.642,528.812 672.291,531.784 672.94,523.535 673.588,523.052 674.237,529.004 674.886,532.273 675.534,528.125 676.183,533.119 676.831,525.814 677.48,531.595 678.129,529.777 678.777,531.256 679.426,528.977 680.075,527.176 680.723,542.808 681.372,520.342 682.021,531.263 682.669,528.663 683.318,531.168 683.966,530.102 684.615,537.783 685.264,524.654 685.912,530.02 686.561,530.422 687.21,530.386 687.858,529.671 688.507,530.502 689.155,529.916 689.804,516.93 690.453,544.015 691.101,544.999 691.75,515.218 692.399,545.757 693.047,519.855 693.696,516.28 694.344,538.759 694.993,522.531 695.642,537.087 696.29,524.383 696.939,536.617 697.588,523.423 698.236,532.234 698.885,529.596 699.533,528.952 700.182,531.886 700.831,533.018 701.479,527.979 702.128,532.37 702.777,526.524 703.425,535.043 704.074,519.944 704.722,538.515 705.371,521.96 706.02,538.39 706.668,520.99 707.317,539.895 707.966,529.052 708.614,532.761 709.263,530.919 709.911,530.891 710.56,531.186 711.209,520.518 711.857,541.214 712.506,523.947 713.155,527.871 713.803,524.947 714.452,527.662 715.1,526.718 715.749,532.428 716.398,529.985 717.046,529.905 717.695,533.638 718.344,527.575 718.992,523.217 719.641,522.803 720.289,535.764 720.938,528.556 721.587,530.368 722.235,530.061 722.884,529.872 723.533,527.876 724.181,530.721 724.83,529.311 725.478,526.241 726.127,528.298 726.776,531.487 727.424,527.823 728.073,533.024 728.722,527.383 729.37,532.721 730.019,542.02 730.667,518.455 731.316,540.968 731.965,518.821 732.613,542.684 733.262,518.527 733.911,520.926 734.559,537.601 735.208,543.832 735.857,518.56 736.505,541.092 737.154,535.829 737.802,524.537 738.451,537.182 739.1,523.865 739.748,527.74 740.397,533.78 741.046,526.927 741.694,533.658 742.343,523.765 742.991,536.937 743.64,524.203 744.289,528.947 744.937,531.816 745.586,528.149 746.235,533.996 746.883,526.412 747.532,532.038 748.18,529.322 748.829,531.157 749.478,528.608 750.126,532.901 750.775,539.361 751.424,530.641 752.072,531.114 752.721,537.408 753.369,529.844 754.018,542.099 754.667,533.416 755.315,528.454 755.964,530.845 756.613,528.481 757.261,536.047 757.91,523.968 758.558,538.119 759.207,517.591 759.856,518.778 760.504,543.824 761.153,526.454 761.802,522.109 762.45,531.358 763.099,528.914 763.747,530.362 764.396,530.326 765.045,531.542 765.693,530.151 766.342,536.531 766.991,523.539 767.639,531.441 768.288,528.076 768.936,529.182 769.585,530.947 770.234,528.844 770.882,531.113 771.531,528.491 772.18,531.236 772.828,526.397 773.477,533.584 774.125,524.367 774.774,536.632 775.423,523.668 776.071,533.353 776.72,529.669 777.369,529.335 778.017,519.612 778.666,533.444 779.314,530.154 779.963,530.179 780.612,530.211 781.26,526.907 781.909,533.113 782.558,531.037 783.206,527.856 783.855,534.653 784.504,525.198 785.152,535.568 785.801,532.33 786.449,528.1 787.098,534.273 787.747,532.645 788.395,526.476 789.044,533.765 789.693,526.522 790.341,538.23 790.99,521.636 791.638,539.913 792.287,519.963 792.936,538.494 793.584,520.113 794.233,524.754 794.882,537.07 795.53,522.74 796.179,536.183 796.827,528.411 797.476,529.85 798.125,531.069 798.773,526.3 799.422,532.25 800.071,528.493 800.719,531.325 801.368,528.468 802.016,532.36 802.665,525.769 803.314,528.695 803.962,525.37 804.611,522.426 805.26,538.238 805.908,530.402 806.557,531.364 807.205,530.498 807.854,543.399 808.503,518.225 809.151,541.433 809.8,525.223 810.449,535.808 811.097,526.373 811.746,528.518 812.394,533.043 813.043,520.71 813.692,538.093 814.34,534.912 814.989,528.157 815.638,532.819 816.286,526.587 816.935,538.645 817.583,533.65 818.232,527.301 818.881,530.017 819.529,522.109 820.178,538.747 820.827,521.958 821.475,534.198 822.124,524.389 822.772,533.92 823.421,527.253 824.07,533.067 824.718,524.561 825.367,530.43 826.016,528.895 826.664,526.247 827.313,526.203 827.961,528.421 828.61,529.139 829.259,526.865 829.907,533.499 830.556,528.885 831.205,529.65 831.853,529.445 832.502,525.642 833.15,536.024 833.799,527.415 834.448,533.995 835.096,520.453 835.745,539.015 836.394,531.691 837.042,534.504 837.691,526.621 838.34,533.817 838.988,529.619 839.637,528.854 840.285,528.689 840.934,527.95 841.583,532.745 842.231,534.567 842.88,532.718 843.529,527.595 844.177,533.183 844.826,525.841 845.474,526.717 846.123,532.215 846.772,533.453 847.42,525.435 848.069,526.621 848.718,533.907 849.366,525.687 850.015,531.577 850.663,530.137 851.312,529.667 851.961,528.824 852.609,531.649 853.258,532 853.907,537.92 854.555,521.724 855.204,529.649 855.852,543.261 856.501,522.683 857.15,524.51 857.798,537.052 858.447,534.044 859.096,519.43 859.744,537.201 860.393,524.861 861.041,535.332 861.69,526.342 862.339,534.974 862.987,521.589 863.636,534.265 864.285,526.389 864.933,535.273 865.582,532.362 866.23,528.282 866.879,529.85 867.528,533.399 868.176,526.824 868.825,533.153 869.474,527.341 870.122,528.124 870.771,531.917 871.419,528.15 872.068,532.861 872.717,534.808 873.365,525.62 874.014,534.236 874.663,534.671 875.311,535.984 875.96,524.955 876.608,520.877 877.257,530.283 877.906,534.079 878.554,526.89 879.203,535.274 879.852,525.768 880.5,536.695 881.149,523.05 881.797,535.765 882.446,524.21 883.095,536.396 883.743,523.837 884.392,536.029 885.041,524.849 885.689,535.987 886.338,532.964 886.987,528.472 887.635,536.535 888.284,532.095 888.932,528.92 889.581,530.799 890.23,531.99 890.878,525.199 891.527,529.956 892.176,529.204 892.824,531.303 893.473,528.716 894.121,539.171 894.77,528.225 895.419,532.724 896.067,525.401 896.716,521.665 897.365,539.112 898.013,521.135 898.662,538.872 899.31,530.659 899.959,520.017 900.608,540.298 901.256,519.021 901.905,532.73 902.554,528.015 903.202,527.637 903.851,532.765 904.499,527.889 905.148,531.429 905.797,532.463 906.445,534.384 907.094,532.393 907.743,534.314 908.391,526.433 909.04,534.576 909.688,535.358 910.337,535.648 910.986,525.847 911.634,533.772 912.283,531.326 912.932,529.427 913.58,531.643 914.229,530.533 914.877,530.54 915.526,529.485 916.175,531.617 916.823,529.61 917.472,532.378 918.121,529.384 918.769,531.807 919.418,534.139 920.066,529.572 920.715,520.492 921.364,539.82 922.012,519.923 922.661,540.754 923.31,519.606 923.958,540.902 924.607,533.76 925.255,526.952 925.904,524.05 926.553,526.523 927.201,537.829 927.85,523.181 928.499,527.721 929.147,530.565 929.796,527.138 930.444,532.623 931.093,524.879 931.742,526 932.39,531.574 933.039,530.713 933.688,523.309 934.336,537.379 934.985,522.282 935.633,537.524 936.282,523.424 936.931,526.226 937.579,534.861 938.228,528.834 938.877,520.969 939.525,522.366 940.174,537.551 940.823,533.38 941.471,527.427 942.12,528.628 942.768,533.044 943.417,530.854 944.066,535.544 944.714,524.693 945.363,536.614 946.012,534.813 946.66,536.859 947.309,527.296 947.957,528.172 948.606,531.462 949.255,526.429 949.903,535.826 950.552,525.542 951.201,536.594 951.849,535.272 952.498,525.582 953.146,532.8 953.795,529.836 954.444,528.287 955.092,514.466 955.741,546.014 956.39,514.392 957.038,546.244 957.687,528.321 958.335,531.528 958.984,529.753 959.633,531.079 960.281,525.24 960.93,531.201 961.579,518.371 962.227,534.371 962.876,521.587 963.524,538.965 964.173,521.795 964.822,539.686 965.47,529.187 966.119,536.428 966.768,534.424 967.416,537.487 968.065,521.813 968.713,533.214 969.362,534.559 970.011,525.521 970.659,527.714 971.308,533.123 971.957,527.609 972.605,530.626 973.254,527.992 973.902,533.458 974.551,525.673 975.2,535.582 975.848,525.243 976.497,536.021 977.146,524.958 977.794,545.079 978.443,540.918 979.091,519.715 979.74,539.532 980.389,524.813 981.037,535.553 981.686,519.29 982.335,540.377 982.983,526.131 983.632,534.569 984.28,526.565 984.929,533.232 985.578,526.937 986.226,525.28 986.875,535.598 987.524,544.702 988.172,514.196 988.821,533.225 989.47,530.62 990.118,530.596 990.767,529.457 991.415,533.825 992.064,526.422 992.713,532.795 993.361,527.258 994.01,532.266 994.659,528.426 995.307,523.766 995.956,538.057 996.604,522.316 997.253,537.677 997.902,522.974 998.55,521.961 999.199,529.195 999.848,530.346 1000.5,530.241 1001.14,531.346 1001.79,529.452 1002.44,538.625 1003.09,518.203 1003.74,540.549 1004.39,520.091 1005.04,540.439 1005.69,519.553 1006.33,539.342 1006.98,522.078 1007.63,528.258 1008.28,532.667 1008.93,527.043 1009.58,534.871 1010.23,524.6 1010.87,537.855 1011.52,531.682 1012.17,528.88 1012.82,528.153 1013.47,532.818 1014.12,528.075 1014.77,531.439 1015.41,533.009 1016.06,528.813 1016.71,530.561 1017.36,526.783 1018.01,533.411 1018.66,528.257 1019.31,541.176 1019.95,521.432 1020.6,538.484 1021.25,521.836 1021.9,535.721 1022.55,540.419 1023.2,518.996 1023.85,518.766 1024.5,541.96 1025.14,517.669 1025.79,540.859 1026.44,526.97 1027.09,534.615 1027.74,522.474 1028.39,538.503 1029.04,521.964 1029.68,539.63 1030.33,530.203 1030.98,525.063 1031.63,530.104 1032.28,530.664 1032.93,529.516 1033.58,531.565 1034.22,528.781 1034.87,532.24 1035.52,521.915 1036.17,537.376 1036.82,524.329 1037.47,537.515 1038.12,523.879 1038.77,536.646 1039.41,523.46 1040.06,536.749 1040.71,523.794 1041.36,536.395 1042.01,522.822 1042.66,528.83 1043.31,534.394 1043.95,527.07 1044.6,525.411 1045.25,533.881 1045.9,527.372 1046.55,532.986 1047.2,528.58 1047.85,532.775 1048.49,524.881 1049.14,537.106 1049.79,523.814 1050.44,528.349 1051.09,530.002 1051.74,534.084 1052.39,524.866 1053.03,535.804 1053.68,524.055 1054.33,522.293 1054.98,527.698 1055.63,525.473 1056.28,530.837 1056.93,530.25 1057.58,529.808 1058.22,525.283 1058.87,535.241 1059.52,520.541 1060.17,540.474 1060.82,520.142 1061.47,540.789 1062.12,519.763 1062.76,530.815 1063.41,528.593 1064.06,532.536 1064.71,527.059 1065.36,525.193 1066.01,531.382 1066.66,530.49 1067.3,522.823 1067.95,537.601 1068.6,522.006 1069.25,538.257 1069.9,522.128 1070.55,523.165 1071.2,534.106 1071.85,526.392 1072.49,531.301 1073.14,539.324 1073.79,529.485 1074.44,530.34 1075.09,522.264 1075.74,533.752 1076.39,526.946 1077.03,533.061 1077.68,527.708 1078.33,532.515 1078.98,527.246 1079.63,532.162 1080.28,529.017 1080.93,521.033 1081.57,532.269 1082.22,525.691 1082.87,533.438 1083.52,524.817 1084.17,525.572 1084.82,534.246 1085.47,526.353 1086.11,519.381 1086.76,541.714 1087.41,528.337 1088.06,528.32 1088.71,531.437 1089.36,529.361 1090.01,524.738 1090.66,535.798 1091.3,528.342 1091.95,531.788 1092.6,530.575 1093.25,528.366 1093.9,531.915 1094.55,529.75 1095.2,529.728 1095.84,530.823 1096.49,530.013 1097.14,530.035 1097.79,528.441 1098.44,524.387 1099.09,525.868 1099.74,520.19 1100.38,522.736 1101.03,538.006 1101.68,535.553 1102.33,530.248 1102.98,524.923 1103.63,535.739 1104.28,523.547 1104.93,535.359 1105.57,524.993 1106.22,542.973 1106.87,517.109 1107.52,525.296 1108.17,535.211 1108.82,523.6 1109.47,528.435 1110.11,531.77 1110.76,528.109 1111.41,531.802 1112.06,528.192 1112.71,531.629 1113.36,528.091 1114.01,534.224 1114.65,525.517 1115.3,534.783 1115.95,524.322 1116.6,530.629 1117.25,531.293 1117.9,529.886 1118.55,531.233 1119.19,521.384 1119.84,533.253 1120.49,527.295 1121.14,532.811 1121.79,527.884 1122.44,531.224 1123.09,530.776 1123.74,526.214 1124.38,531.131 1125.03,521.966 1125.68,537.324 1126.33,521.575 1126.98,538.468 1127.63,524.897 1128.28,535.823 1128.92,525.735 1129.57,526.252 1130.22,528.708 1130.87,531.207 1131.52,530.915 1132.17,532.064 1132.82,534.032 1133.46,526.754 1134.11,530.263 1134.76,525.025 1135.41,535.426 1136.06,529.443 1136.71,525.483 1137.36,529.855 1138,528.78 1138.65,529.175 1139.3,530.316 1139.95,529.251 1140.6,530.808 1141.25,531.375 1141.9,529.075 1142.55,531.392 1143.19,529.373 1143.84,539.856 1144.49,517.855 1145.14,528.605 1145.79,531.135 1146.44,540.463 1147.09,528.667 1147.73,532.187 1148.38,534.515 1149.03,532.054 1149.68,527.68 1150.33,526.117 1150.98,534.727 1151.63,526.025 1152.27,525.956 1152.92,537.923 1153.57,521.078 1154.22,541.923 1154.87,522.695 1155.52,531.222 1156.17,528.779 1156.82,530.652 1157.46,529.964 1158.11,533.202 1158.76,528.254 1159.41,531.321 1160.06,529.755 1160.71,532.911 1161.36,526.324 1162,535.99 1162.65,523.857 1163.3,537.175 1163.95,523.123 1164.6,527.274 1165.25,528.084 1165.9,532.897 1166.54,529.422 1167.19,531.344 1167.84,527.395 1168.49,531.777 1169.14,527.565 1169.79,531.802 1170.44,530.221 1171.08,526.144 1171.73,535.763 1172.38,525.543 1173.03,535.215 1173.68,524.07 1174.33,537.581 1174.98,523.471 1175.63,536.314 1176.27,524.526 1176.92,534.549 1177.57,535.471 1178.22,527.421 1178.87,532.315 1179.52,522.294 1180.17,538.793 1180.81,529.08 1181.46,535.401 1182.11,524.751 1182.76,523.457 1183.41,536.123 1184.06,533.023 1184.71,528.435 1185.35,522.382 1186,537.863 1186.65,521.567 1187.3,538.454 1187.95,522.895 1188.6,538.347 1189.25,521.621 1189.9,527.47 1190.54,530.988 1191.19,525.435 1191.84,533.508 1192.49,540.126 1193.14,518.004 1193.79,534.202 1194.44,520.31 1195.08,527.863 1195.73,532.484 1196.38,530.074 1197.03,527.167 1197.68,530.703 1198.33,533.869 1198.98,540.806 1199.62,519.637 1200.27,541.49 1200.92,519.21 1201.57,542.007 1202.22,524.695 1202.87,536.187 1203.52,523.743 1204.16,531.041 1204.81,529.676 1205.46,531.198 1206.11,530.177 1206.76,522.337 1207.41,532.67 1208.06,527.247 1208.71,525.565 1209.35,533.678 1210,531.948 1210.65,527.142 1211.3,529.048 1211.95,533.339 1212.6,528.01 1213.25,530.501 1213.89,530.576 1214.54,534.26 1215.19,526.525 1215.84,534.023 1216.49,536.271 1217.14,522.999 1217.79,529.097 1218.43,532.262 1219.08,527.654 1219.73,527.537 1220.38,524.518 1221.03,538.869 1221.68,522.963 1222.33,540.116 1222.98,521.569 1223.62,539.407 1224.27,521.268 1224.92,538.694 1225.57,522.577 1226.22,539.12 1226.87,526.722 1227.52,533.688 1228.16,532.911 1228.81,527.394 1229.46,524.359 1230.11,527.405 1230.76,538.988 1231.41,517.069 1232.06,543.473 1232.7,522.223 1233.35,538.267 1234,524.935 1234.65,534.642 1235.3,525.927 1235.95,530.143 1236.6,528.314 1237.24,525.043 1237.89,535.68 1238.54,524.759 1239.19,534.233 1239.84,519.427 1240.49,523.821 1241.14,522.269 1241.79,539.398 1242.43,522.738 1243.08,536.644 1243.73,524.606 1244.38,522.309 1245.03,534.694 1245.68,527.944 1246.33,533.485 1246.97,527.205 1247.62,532.285 1248.27,534.846 1248.92,531.016 1249.57,529.979 1250.22,529.193 1250.87,531.431 1251.51,521.439 1252.16,528.72 1252.81,531.708 1253.46,528.318 1254.11,510.004 1254.76,550.628 1255.41,531.487 1256.06,531.369 1256.7,533.88 1257.35,525.667 1258,524.076 1258.65,532.544 1259.3,530.004 1259.95,528.991 1260.6,529.184 1261.24,536.419 1261.89,522.267 1262.54,531.757 1263.19,519.078 1263.84,540.323 1264.49,519.302 1265.14,540.195 1265.78,519.253 1266.43,534.055 1267.08,523.377 1267.73,527.334 1268.38,536.506 1269.03,524.755 1269.68,528.376 1270.32,532.398 1270.97,527.213 1271.62,537.891 1272.27,533.923 1272.92,526.627 1273.57,533.138 1274.22,527.166 1274.87,522.258 1275.51,535.929 1276.16,525.262 1276.81,532.096 1277.46,527.787 1278.11,532.7 1278.76,537.553 1279.41,528.373 1280.05,532.902 1280.7,527.361 1281.35,530.995 1282,537.692 1282.65,522.917 1283.3,537.841 1283.95,522.221 1284.59,536.828 1285.24,523.708 1285.89,535.363 1286.54,524.733 1287.19,536.91 1287.84,529.871 1288.49,527.505 1289.13,520.208 1289.78,535.693 1290.43,524.622 1291.08,525.313 1291.73,536.546 1292.38,523.201 1293.03,538.383 1293.68,521.379 1294.32,538.307 1294.97,523.936 1295.62,535.809 1296.27,524.328 1296.92,529.723 1297.57,525.52 1298.22,534.726 1298.86,525.115 1299.51,530.633 1300.16,525.416 1300.81,535.393 1301.46,526.041 1302.11,535.113 1302.76,528.148 1303.4,534.432 1304.05,527.084 1304.7,531.287 1305.35,528.875 1306,534.972 1306.65,525.393 1307.3,535.526 1307.95,524.704 1308.59,533.737 1309.24,526.532 1309.89,534.784 1310.54,525.005 1311.19,537.088 1311.84,526.381 1312.49,533.233 1313.13,536.96 1313.78,523.825 1314.43,525.253 1315.08,535.502 1315.73,529.334 1316.38,531.442 1317.03,529.372 1317.67,531.005 1318.32,529.55 1318.97,529.495 1319.62,521.357 1320.27,525.373 1320.92,525.596 1321.57,534.12 1322.21,525.763 1322.86,536.332 1323.51,525.225 1324.16,530.938 1324.81,521.912 1325.46,529.134 1326.11,538.477 1326.76,521.378 1327.4,530.492 1328.05,533.544 1328.7,525.754 1329.35,527.134 1330,546.486 1330.65,535.226 1331.3,526.571 1331.94,524.903 1332.59,522.128 1333.24,537.316 1333.89,530.108 1334.54,527.851 1335.19,531.001 1335.84,530.481 1336.48,530.651 1337.13,530.957 1337.78,530.427 1338.43,535.673 1339.08,524.437 1339.73,536.519 1340.38,523.212 1341.03,537.164 1341.67,524.512 1342.32,529.953 1342.97,528.279 1343.62,525.573 1344.27,527.615 1344.92,533.499 1345.57,520.561 1346.21,536.16 1346.86,520.08 1347.51,523.498 1348.16,536.951 1348.81,523.392 1349.46,536.786 1350.11,523.848 1350.75,529.722 1351.4,528.75 1352.05,531.565 1352.7,528.377 1353.35,524.419 1354,527.464 1354.65,534.19 1355.29,528.508 1355.94,533.477 1356.59,523.453 1357.24,547.291 1357.89,533.031 1358.54,539.323 1359.19,521.337 1359.84,531.078 1360.48,529.636 1361.13,530.912 1361.78,529.237 1362.43,531.047 1363.08,529.835 1363.73,531.789 1364.38,524.595 1365.02,539.707 1365.67,528.083 1366.32,531.608 1366.97,530.202 1367.62,531.741 1368.27,528.519 1368.92,525.142 1369.56,530.365 1370.21,516.006 1370.86,545.228 1371.51,515.384 1372.16,530.302 1372.81,521.042 1373.46,540.307 1374.11,519.382 1374.75,541.404 1375.4,528.931 1376.05,531.733 1376.7,525.453 1377.35,535.36 1378,523.858 1378.65,532.607 1379.29,527.922 1379.94,529.594 1380.59,530.582 1381.24,530.778 1381.89,530.34 1382.54,531.778 1383.19,529.338 1383.83,530.344 1384.48,530.389 1385.13,524.664 1385.78,521.14 1386.43,542.09 1387.08,518.412 1387.73,540.14 1388.37,520.464 1389.02,536.695 1389.67,523.845 1390.32,529.636 1390.97,528.417 1391.62,531.659 1392.27,535.72 1392.92,523.156 1393.56,526.513 1394.21,533.15 1394.86,532.087 1395.51,536.678 1396.16,534.643 1396.81,524.576 1397.46,515.85 1398.1,526.948 1398.75,533.545 1399.4,526.926 1400.05,531.198 1400.7,530.318 1401.35,526.604 1402,525.649 1402.64,529.629 1403.29,528.943 1403.94,527.282 1404.59,531.559 1405.24,529.45 1405.89,532.098 1406.54,529.961 1407.19,530.942 1407.83,529.727 1408.48,523.714 1409.13,535.52 1409.78,525.127 1410.43,535.837 1411.08,532.888 1411.73,528.666 1412.37,530.442 1413.02,528.085 1413.67,523.683 1414.32,537.761 1414.97,524.163 1415.62,536.232 1416.27,522.682 1416.91,538.711 1417.56,519.868 1418.21,532.067 1418.86,527.357 1419.51,532.57 1420.16,523.831 1420.81,535.597 1421.45,520.493 1422.1,539.776 1422.75,519.195 1423.4,534.206 1424.05,531.932 1424.7,527.386 1425.35,532.463 1426,527.547 1426.64,533.302 1427.29,528.46 1427.94,531.241 1428.59,529.013 1429.24,526.979 1429.89,527.916 1430.54,532.586 1431.18,539.41 1431.83,523.986 1432.48,522.251 1433.13,533.879 1433.78,526.439 1434.43,536.613 1435.08,533.142 1435.72,528.131 1436.37,531.002 1437.02,527.227 1437.67,531.614 1438.32,527.158 1438.97,526.249 1439.62,524.578 1440.26,534.526 1440.91,527.191 1441.56,532.005 1442.21,522.813 1442.86,537.331 1443.51,526.88 1444.16,533.684 1444.81,526.901 1445.45,524.27 1446.1,536.534 1446.75,524.278 1447.4,531.736 1448.05,522.771 1448.7,524.715 1449.35,535.077 1449.99,524.604 1450.64,535.549 1451.29,526.456 1451.94,534.124 1452.59,526.596 1453.24,532.242 1453.89,529.11 1454.53,530.569 1455.18,527.405 1455.83,528.05 1456.48,530.314 1457.13,530.225 1457.78,527.954 1458.43,533.31 1459.08,522.517 1459.72,538.123 1460.37,528.45 1461.02,531.215 1461.67,530.301 1462.32,530.85 1462.97,517.059 1463.62,541.924 1464.26,526.055 1464.91,524.06 1465.56,528.272 1466.21,530.612 1466.86,536.859 1467.51,519.125 1468.16,541.261 1468.8,519.215 1469.45,541.534 1470.1,518.976 1470.75,536.907 1471.4,530.981 1472.05,530.355 1472.7,530.939 1473.34,533.02 1473.99,522.455 1474.64,547.097 1475.29,513.24 1475.94,536.537 1476.59,530.5 1477.24,529.406 1477.89,530.98 1478.53,529.2 1479.18,532.399 1479.83,528.127 1480.48,527.239 1481.13,533.623 1481.78,535.951 1482.43,524.612 1483.07,536.678 1483.72,525.348 1484.37,525.17 1485.02,534.617 1485.67,524.361 1486.32,535.036 1486.97,527.686 1487.61,519.032 1488.26,540.866 1488.91,520.087 1489.56,540.758 1490.21,520.755 1490.86,539.628 1491.51,530.401 1492.16,546.688 1492.8,520.486 1493.45,539.973 1494.1,531.502 1494.75,521.254 1495.4,538.385 1496.05,521.431 1496.7,537.343 1497.34,521.935 1497.99,537.556 1498.64,520.402 1499.29,539.525 1499.94,517.179 1500.59,531.59 1501.24,528.796 1501.88,530.974 1502.53,529.293 1503.18,531.415 1503.83,514.937 1504.48,544.51 1505.13,514.617 1505.78,542.382 1506.42,517.075 1507.07,542.999 1507.72,515.535 1508.37,526.988 1509.02,526.057 1509.67,532.902 1510.32,525.399 1510.97,530.637 1511.61,538.819 1512.26,522.11 1512.91,533.084 1513.56,524.029 1514.21,536.779 1514.86,525.637 1515.51,535.359 1516.15,523.252 1516.8,533.474 1517.45,526.372 1518.1,533.915 1518.75,525.612 1519.4,531.704 1520.05,542.748 1520.69,516.872 1521.34,525.818 1521.99,534.89 1522.64,533.519 1523.29,529.6 1523.94,532.027 1524.59,529.463 1525.24,523.071 1525.88,526.119 1526.53,526.193 1527.18,526.53 1527.83,534.856 1528.48,521.126 1529.13,538.972 1529.78,525.564 1530.42,535.136 1531.07,526.072 1531.72,535.982 1532.37,523.328 1533.02,525.196 1533.67,540.764 1534.32,526.182 1534.96,528.938 1535.61,524.647 1536.26,536.378 1536.91,524.259 1537.56,536.5 1538.21,532.82 1538.86,535.353 1539.5,529.409 1540.15,530.694 1540.8,536.196 1541.45,524.174 1542.1,529.951 1542.75,526.857 1543.4,527.018 1544.05,530.949 1544.69,532.955 1545.34,528.533 1545.99,531.684 1546.64,527.814 1547.29,532.492 1547.94,529.831 1548.59,531.323 1549.23,529.881 1549.88,529.659 1550.53,528.585 1551.18,543.462 1551.83,528.371 1552.48,532.908 1553.13,530.514 1553.77,525.141 1554.42,523.743 1555.07,541.833 1555.72,526.166 1556.37,534.213 1557.02,526.592 1557.67,523.213 1558.32,527.212 1558.96,525.719 1559.61,535.852 1560.26,523.722 1560.91,531.935 1561.56,528.365 1562.21,532.579 1562.86,523.7 1563.5,534.471 1564.15,519.835 1564.8,533.094 1565.45,532.084 1566.1,521.724 1566.75,535.517 1567.4,512.287 1568.04,518.97 1568.69,535.645 1569.34,523.136 1569.99,532.016 1570.64,526.666 1571.29,532.43 1571.94,530.866 1572.58,527.757 1573.23,534.395 1573.88,520.802 1574.53,527.408 1575.18,532.946 1575.83,518.324 1576.48,532.951 1577.13,527.312 1577.77,527.834 1578.42,538.727 1579.07,532.165 1579.72,527.64 1580.37,528.067 1581.02,532.402 1581.67,527.641 1582.31,534.526 1582.96,537.978 1583.61,525.932 1584.26,535.522 1584.91,531.634 1585.56,528.7 1586.21,532.609 1586.85,532.152 1587.5,527.114 1588.15,535.063 1588.8,526.727 1589.45,537.657 1590.1,522.346 1590.75,524.888 1591.39,535.763 1592.04,523.268 1592.69,536.835 1593.34,531.901 1593.99,528.267 1594.64,531.813 1595.29,536.997 1595.94,529.704 1596.58,531.386 1597.23,524.815 1597.88,535.777 1598.53,524.12 1599.18,530.757 1599.83,527.116 1600.48,532.957 1601.12,536.658 1601.77,522.938 1602.42,531.318 1603.07,526.196 1603.72,533.404 1604.37,522.415 1605.02,532.183 1605.66,529.61 1606.31,530.169 1606.96,530.758 1607.61,531.415 1608.26,528.376 1608.91,521.993 1609.56,532.49 1610.21,523.901 1610.85,531.548 1611.5,529.498 1612.15,532.906 1612.8,525.321 1613.45,524.267 1614.1,529.931 1614.75,538.845 1615.39,535.911 1616.04,523.986 1616.69,530.976 1617.34,528.849 1617.99,535.162 1618.64,525.451 1619.29,531.055 1619.93,525.015 1620.58,534.668 1621.23,538.55 1621.88,521.661 1622.53,538.213 1623.18,529.275 1623.83,531.201 1624.47,529.071 1625.12,530.513 1625.77,524.132 1626.42,536.738 1627.07,524.03 1627.72,536.043 1628.37,524.673 1629.02,536.114 1629.66,525.758 1630.31,527.738 1630.96,537.599 1631.61,523.798 1632.26,531.335 1632.91,529.469 1633.56,528.199 1634.2,530.44 1634.85,533.537 1635.5,541.033 1636.15,520.493 1636.8,519.835 1637.45,540.559 1638.1,521.052 1638.74,520.18 1639.39,533.121 1640.04,532.12 1640.69,525.988 1641.34,534.35 1641.99,529.531 1642.64,531.167 1643.29,536.574 1643.93,526.89 1644.58,528.809 1645.23,531.245 1645.88,524.179 1646.53,527.728 1647.18,531.962 1647.83,536.624 1648.47,523.027 1649.12,526.088 1649.77,520.325 1650.42,539.641 1651.07,533.494 1651.72,526.847 1652.37,541.213 1653.01,518.688 1653.66,542.06 1654.31,518.155 1654.96,534.093 1655.61,526.655 1656.26,535.493 1656.91,525.751 1657.55,528.89 1658.2,532.637 1658.85,533.07 1659.5,533.971 1660.15,526.29 1660.8,517.756 1661.45,543.279 1662.1,526.15 1662.74,533.92 1663.39,522.64 1664.04,531.398 1664.69,527.163 1665.34,520.726 1665.99,526.117 1666.64,534.382 1667.28,527.328 1667.93,532.199 1668.58,528.654 1669.23,531.612 1669.88,529.889 1670.53,531.181 1671.18,530.632 1671.82,531.98 1672.47,539.1 1673.12,521.277 1673.77,537.41 1674.42,523.434 1675.07,538.146 1675.72,515.179 1676.37,532.587 1677.01,521.309 1677.66,540.515 1678.31,522.002 1678.96,538.441 1679.61,527.86 1680.26,530.547 1680.91,529.221 1681.55,529.924 1682.2,528.644 1682.85,529.563 1683.5,523.504 1684.15,525.937 1684.8,534.765 1685.45,525.597 1686.09,525.039 1686.74,535.785 1687.39,523.405 1688.04,537.136 1688.69,524.329 1689.34,540.188 1689.99,520.042 1690.63,531.227 1691.28,526.696 1691.93,521.133 1692.58,531.816 1693.23,515.341 1693.88,535.969 1694.53,537.298 1695.18,514.279 1695.82,539.465 1696.47,527.773 1697.12,534.694 1697.77,526.372 1698.42,530.809 1699.07,525.212 1699.72,514.397 1700.36,527.604 1701.01,528.242 1701.66,528.42 1702.31,531.333 1702.96,529.005 1703.61,531.387 1704.26,530.167 1704.9,531.234 1705.55,526.119 1706.2,534.473 1706.85,526.267 1707.5,523.843 1708.15,536.835 1708.8,523.502 1709.45,536.932 1710.09,534.641 1710.74,525.114 1711.39,529.07 1712.04,531.625 1712.69,525.545 1713.34,533.5 1713.99,527.089 1714.63,525.054 1715.28,536.058 1715.93,527.79 1716.58,537.847 1717.23,524.392 1717.88,528.91 1718.53,528.738 1719.17,534.671 1719.82,526.438 1720.47,527.305 1721.12,533.304 1721.77,526.336 1722.42,528.099 1723.07,532.769 1723.71,526.809 1724.36,533.733 1725.01,526.089 1725.66,527.922 1726.31,532.485 1726.96,527.638 1727.61,540.896 1728.26,520.355 1728.9,532.095 1729.55,529.104 1730.2,531.131 1730.85,530.131 1731.5,529.998 1732.15,539.139 1732.8,522.07 1733.44,533.271 1734.09,529.822 1734.74,532.441 1735.39,528.848 1736.04,530.51 1736.69,524.552 1737.34,536.149 1737.98,517.082 1738.63,544.276 1739.28,516.544 1739.93,541.707 1740.58,519.165 1741.23,518.679 1741.88,529.744 1742.52,530.781 1743.17,528.597 1743.82,527.763 1744.47,529.691 1745.12,531.743 1745.77,539.52 1746.42,521.502 1747.07,530.421 1747.71,530.414 1748.36,524.762 1749.01,521.73 1749.66,538.568 1750.31,524.608 1750.96,536.692 1751.61,524.446 1752.25,535.253 1752.9,524.176 1753.55,538.011 1754.2,520.961 1754.85,532.324 1755.5,529.212 1756.15,520.099 1756.79,527.708 1757.44,533.234 1758.09,528.563 1758.74,531.386 1759.39,529.331 1760.04,531.672 1760.69,528.966 1761.34,526.03 1761.98,534.782 1762.63,527.868 1763.28,532.061 1763.93,528.392 1764.58,528.803 1765.23,529.263 1765.88,531.17 1766.52,530.59 1767.17,528.949 1767.82,532.106 1768.47,523.67 1769.12,533.366 1769.77,528.308 1770.42,530.223 1771.06,526.488 1771.71,530.817 1772.36,534.252 1773.01,538.185 1773.66,517.933 1774.31,541.854 1774.96,519.427 1775.6,540.754 1776.25,527.84 1776.9,532.334 1777.55,528.307 1778.2,531.649 1778.85,524.918 1779.5,534.74 1780.15,527.294 1780.79,527.749 1781.44,532.03 1782.09,533.163 1782.74,528.427 1783.39,533.859 1784.04,535.096 1784.69,527.02 1785.33,530.565 1785.98,530.165 1786.63,525.561 1787.28,532.539 1787.93,527.724 1788.58,527.131 1789.23,532.174 1789.87,528.534 1790.52,531.691 1791.17,521.406 1791.82,524.552 1792.47,533.298 1793.12,528.769 1793.77,518.774 1794.42,540.989 1795.06,520.114 1795.71,541.439 1796.36,533.491 1797.01,536.42 1797.66,523.633 1798.31,537.659 1798.96,528.616 1799.6,533.729 1800.25,528.226 1800.9,517.536 1801.55,542.678 1802.2,518.691 1802.85,526.225 1803.5,533.285 1804.14,529.868 1804.79,524.152 1805.44,527.128 1806.09,533.863 1806.74,526.95 1807.39,533.3 1808.04,527.113 1808.68,533.662 1809.33,526.89 1809.98,543.621 1810.63,516.278 1811.28,544.286 1811.93,516.135 1812.58,534.669 1813.23,524.614 1813.87,535.918 1814.52,524.951 1815.17,534.787 1815.82,527.215 1816.47,540.388 1817.12,526.165 1817.77,535.002 1818.41,523.742 1819.06,539.72 1819.71,520.675 1820.36,536.611 1821.01,532.434 1821.66,529.158 1822.31,531.266 1822.95,533.787 1823.6,525.664 1824.25,526.36 1824.9,533.12 1825.55,526.793 1826.2,529.002 1826.85,531.529 1827.5,525.397 1828.14,526.825 1828.79,531.498 1829.44,530.535 1830.09,532.079 1830.74,524.923 1831.39,536.994 1832.04,524.75 1832.68,527.608 1833.33,527.146 1833.98,528.646 1834.63,532.336 1835.28,529.192 1835.93,530.507 1836.58,535.269 1837.22,524.732 1837.87,537.131 1838.52,531.958 1839.17,530.222 1839.82,530.457 1840.47,523.215 1841.12,536.735 1841.76,524.046 1842.41,535.782 1843.06,523.438 1843.71,517.214 1844.36,526.992 1845.01,537.194 1845.66,523.748 1846.31,535.356 1846.95,531.463 1847.6,527.925 1848.25,532.923 1848.9,528.98 1849.55,533.011 1850.2,526.91 1850.85,534.547 1851.49,526.376 1852.14,527.385 1852.79,540.046 1853.44,520.251 1854.09,540.639 1854.74,518.478 1855.39,525.038 1856.03,535.619 1856.68,528.023 1857.33,533.115 1857.98,528.132 1858.63,519.266 1859.28,530.515 1859.93,532.055 1860.58,535.965 1861.22,524.825 1861.87,536.385 1862.52,524.885 1863.17,531.341 1863.82,530.122 1864.47,529.413 1865.12,531.699 1865.76,520.008 1866.41,542.405 1867.06,528.585 1867.71,536.006 1868.36,524.517 1869.01,536.129 1869.66,524.395 1870.3,541.419 1870.95,518.239 1871.6,540.999 1872.25,522.216 1872.9,537.715 1873.55,533.955 1874.2,533.127 1874.84,526.323 1875.49,535.578 1876.14,524.528 1876.79,535.858 1877.44,526.276 1878.09,524.349 1878.74,525.683 1879.39,533.947 1880.03,532.434 1880.68,525.065 1881.33,526.685 1881.98,533.334 1882.63,526.516 1883.28,535.604 1883.93,531.31 1884.57,530.119 1885.22,539.192 1885.87,521.907 1886.52,529.263 1887.17,524.022 1887.82,534.942 1888.47,528.213 1889.11,533.586 1889.76,527.888 1890.41,532.785 1891.06,534.001 1891.71,529.069 1892.36,528.231 1893.01,531.094 1893.65,526.562 1894.3,521.266 1894.95,533.506 1895.6,520.764 1896.25,542.57 1896.9,518.518 1897.55,542.281 1898.2,516.921 1898.84,529.823 1899.49,529.384 1900.14,531.354 1900.79,525.02 1901.44,533.628 1902.09,525.209 1902.74,535.56 1903.38,522.277 1904.03,540.95 1904.68,523.97 1905.33,536.318 1905.98,522.759 1906.63,535.659 1907.28,530.261 1907.92,530.454 1908.57,528.647 1909.22,530.56 1909.87,528.66 1910.52,532.255 1911.17,528.077 1911.82,531.934 1912.47,528.397 1913.11,531.664 1913.76,532.049 1914.41,528.432 1915.06,528.729 1915.71,531.459 1916.36,528.572 1917.01,526.851 1917.65,532.587 1918.3,525.189 1918.95,534.929 1919.6,533.93 1920.25,525.153 1920.9,536.157 1921.55,524.061 1922.19,535.901 1922.84,523.403 1923.49,537.382 1924.14,522.357 1924.79,532.498 1925.44,528.097 1926.09,531.45 1926.73,517.555 1927.38,542.765 1928.03,516.6 1928.68,529.131 1929.33,532.472 1929.98,530.053 1930.63,532.818 1931.28,526.211 1931.92,533.486 1932.57,530.608 1933.22,532.435 1933.87,533.598 1934.52,525.803 1935.17,535.765 1935.82,524.745 1936.46,534.819 1937.11,526.099 1937.76,533.736 1938.41,527.273 1939.06,534.487 1939.71,532.467 1940.36,532.506 1941,526.812 1941.65,530.536 1942.3,530.218 1942.95,529.133 1943.6,524.146 1944.25,529.873 1944.9,532.602 1945.55,532.6 1946.19,528.86 1946.84,531.214 1947.49,540.602 1948.14,516.857 1948.79,542.17 1949.44,536.853 1950.09,525.435 1950.73,536.176 1951.38,524.598 1952.03,528.107 1952.68,532.602 1953.33,528.389 1953.98,531.252 1954.63,528.483 1955.27,525.788 1955.92,533.46 1956.57,525.671 1957.22,541.938 1957.87,527.415 1958.52,532.822 1959.17,529.931 1959.81,529.935 1960.46,529.593 1961.11,530.818 1961.76,526.312 1962.41,521.407 1963.06,531.036 1963.71,529.349 1964.36,523.883 1965,526.112 1965.65,533.306 1966.3,534.328 1966.95,526.201 1967.6,534.519 1968.25,535.946 1968.9,525.172 1969.54,526.336 1970.19,534.836 1970.84,527.114 1971.49,531.006 1972.14,533.374 1972.79,527.845 1973.44,532.977 1974.08,528.09 1974.73,535.014 1975.38,533.773 1976.03,532.889 1976.68,527.414 1977.33,531.865 1977.98,529.173 1978.63,525.32 1979.27,522.353 1979.92,535.178 1980.57,522.591 1981.22,536.446 1981.87,524.296 1982.52,537.079 1983.17,519.595 1983.81,529.813 1984.46,529.734 1985.11,530.533 1985.76,528.588 1986.41,531.894 1987.06,529.505 1987.71,533.471 1988.35,526.135 1989,534.911 1989.65,526.536 1990.3,535.538 1990.95,527.715 1991.6,533.017 1992.25,524.599 1992.89,536.212 1993.54,523.392 1994.19,528.981 1994.84,531.72 1995.49,526.562 1996.14,534.983 1996.79,535.991 1997.44,524.384 1998.08,535.602 1998.73,525.158 1999.38,534.519 2000.03,525.626 2000.68,528.279 2001.33,532.54 2001.98,529.371 2002.62,525.783 2003.27,534.963 2003.92,521.21 2004.57,537.396 2005.22,523.175 2005.87,529.976 2006.52,530.035 2007.16,529.164 2007.81,530.858 2008.46,533.746 2009.11,527.992 2009.76,532.471 2010.41,525.957 2011.06,535.816 2011.7,525.152 2012.35,525.405 2013,526.538 2013.65,527.85 2014.3,523 2014.95,537.489 2015.6,523.25 2016.25,535.688 2016.89,524.028 2017.54,532.775 2018.19,528.042 2018.84,522.174 2019.49,540.104 2020.14,522.307 2020.79,536.532 2021.43,523.659 2022.08,536.95 2022.73,523.579 2023.38,537.157 2024.03,524.229 2024.68,532.527 2025.33,523.65 2025.97,537.61 2026.62,524.014 2027.27,525.791 2027.92,535.951 2028.57,525.757 2029.22,534.55 2029.87,526.445 2030.52,531.405 2031.16,532.418 2031.81,527.804 2032.46,534.713 2033.11,531.073 2033.76,530.573 2034.41,529.535 2035.06,516.977 2035.7,544.109 2036.35,515.138 2037,544.46 2037.65,524.199 2038.3,535.792 2038.95,525.702 2039.6,529.538 2040.24,529.417 2040.89,532.296 2041.54,526.445 2042.19,533.842 2042.84,520.926 2043.49,539.325 2044.14,522.259 2044.78,531.059 2045.43,529.626 2046.08,524.302 2046.73,528.789 2047.38,531.11 2048.03,530.765 2048.68,530.02 2049.33,530.149 2049.97,527.673 2050.62,535.739 2051.27,525.073 2051.92,529.193 2052.57,532.461 2053.22,526.314 2053.87,538.641 2054.51,529.357 2055.16,533.845 2055.81,528.895 2056.46,532.7 2057.11,526.634 2057.76,537.953 2058.41,535.564 2059.05,525.035 2059.7,531.158 2060.35,536.704 2061,528.934 2061.65,537.979 2062.3,532.609 2062.95,528.305 2063.6,533.061 2064.24,528.582 2064.89,532.129 2065.54,527.76 2066.19,531.977 2066.84,529.857 2067.49,529.437 2068.14,531.291 2068.78,528.788 2069.43,536.836 2070.08,524.944 2070.73,533.695 2071.38,513.182 2072.03,546.113 2072.68,528.65 2073.32,532.166 2073.97,528.709 2074.62,531.536 2075.27,530.267 2075.92,517.126 2076.57,543.379 2077.22,529.267 2077.86,535.148 2078.51,527.064 2079.16,533.642 2079.81,525.976 2080.46,535.031 2081.11,523.968 2081.76,535.987 2082.41,536.291 2083.05,521.428 2083.7,539.699 2084.35,520.585 2085,541.27 2085.65,519.779 2086.3,537.659 2086.95,523.695 2087.59,527.095 2088.24,525.91 2088.89,532.383 2089.54,521.055 2090.19,537.505 2090.84,522.113 2091.49,536.234 2092.13,525.878 2092.78,526.649 2093.43,531.967 2094.08,530.911 2094.73,530.599 2095.38,531.305 2096.03,522.271 2096.68,538.385 2097.32,529.93 2097.97,530.492 2098.62,526.671 2099.27,533.341 2099.92,528.257 2100.57,526.229 2101.22,540.198 2101.86,518.922 2102.51,546.338 2103.16,514.385 2103.81,544.198 2104.46,514.002 2105.11,536.892 2105.76,523.378 2106.4,538.193 2107.05,522.379 2107.7,537.178 2108.35,526.178 2109,534.965 2109.65,528.041 2110.3,531.68 2110.94,532.051 2111.59,529.193 2112.24,531.792 2112.89,524.165 2113.54,531.601 2114.19,529.267 2114.84,534.227 2115.49,525.662 2116.13,538.427 2116.78,523.056 2117.43,529.504 2118.08,524.935 2118.73,534.34 2119.38,524.985 2120.03,529.842 2120.67,543.264 2121.32,516.645 2121.97,531.039 2122.62,523.677 2123.27,528.567 2123.92,531.532 2124.57,528.268 2125.21,531.81 2125.86,533.677 2126.51,526.247 2127.16,531.535 2127.81,525.012 2128.46,535.637 2129.11,524.529 2129.76,535.357 2130.4,525.69 2131.05,532.341 2131.7,528.59 2132.35,524.448 2133,536.068 2133.65,525.923 2134.3,534.948 2134.94,531.117 2135.59,529.99 2136.24,534.057 2136.89,541.639 2137.54,518.954 2138.19,529.386 2138.84,530.763 2139.48,528.643 2140.13,524.598 2140.78,535.979 2141.43,526.027 2142.08,532.718 2142.73,526.825 2143.38,516.378 2144.02,532.083 2144.67,528.497 2145.32,536.043 2145.97,531.214 2146.62,527.652 2147.27,532.871 2147.92,529.023 2148.57,534.535 2149.21,520.556 2149.86,538.67 2150.51,526.33 2151.16,533.186 2151.81,539.715 2152.46,524.857 2153.11,535.97 2153.75,526.778 2154.4,539.248 2155.05,520.168 2155.7,538.927 2156.35,519.233 2157,540.414 2157.65,526.888 2158.29,532.841 2158.94,527.076 2159.59,530.241 2160.24,526.744 2160.89,533.443 2161.54,528.025 2162.19,527.912 2162.83,527.785 2163.48,532.001 2164.13,528.32 2164.78,531.651 2165.43,529.532 2166.08,532.706 2166.73,529.5 2167.38,535.911 2168.02,537.862 2168.67,528.264 2169.32,538.721 2169.97,523.097 2170.62,533.901 2171.27,528.043 2171.92,529.677 2172.56,530.736 2173.21,522.614 2173.86,528.525 2174.51,533.037 2175.16,526.607 2175.81,533.337 2176.46,531.324 2177.1,523.827 2177.75,528.691 2178.4,527.374 2179.05,533.869 2179.7,532.249 2180.35,527.665 2181,530.356 2181.65,516.538 2182.29,543.726 2182.94,517.386 2183.59,538.281 2184.24,522.799 2184.89,537.993 2185.54,528.748 2186.19,529.731 2186.83,531.553 2187.48,535.288 2188.13,523.17 2188.78,535.993 2189.43,533.029 2190.08,530.396 2190.73,536.323 2191.37,524.914 2192.02,535.603 2192.67,529.878 2193.32,530.935 2193.97,527.338 2194.62,530.285 2195.27,533.597 2195.91,525.932 2196.56,535.364 2197.21,525.112 2197.86,522.879 2198.51,537.265 2199.16,521.885 2199.81,537.816 2200.46,530.38 2201.1,520.315 2201.75,533.096 2202.4,528.377 2203.05,533.793 2203.7,526.814 2204.35,535.263 2205,525.045 2205.64,535.84 2206.29,524.463 2206.94,537.348 2207.59,531.901 2208.24,530.106 2208.89,528.728 2209.54,531.004 2210.18,523.013 2210.83,533.45 2211.48,528.495 2212.13,540.345 2212.78,520.484 2213.43,540.249 2214.08,520.565 2214.73,536.722 2215.37,524.979 2216.02,535.48 2216.67,525.576 2217.32,530.595 2217.97,530.139 2218.62,535.522 2219.27,524.218 2219.91,535.297 2220.56,525.779 2221.21,533.327 2221.86,528.258 2222.51,532.814 2223.16,531.214 2223.81,538.028 2224.45,524.044 2225.1,541.229 2225.75,515.927 2226.4,536.994 2227.05,523.91 2227.7,537.634 2228.35,536.363 2228.99,528.349 2229.64,532.529 2230.29,528.336 2230.94,527.539 2231.59,532.265 2232.24,528.245 2232.89,533.482 2233.54,528.51 2234.18,524.176 2234.83,524.698 2235.48,535.45 2236.13,524.551 2236.78,536.06 2237.43,528.997 2238.08,531.476 2238.72,526.07 2239.37,521.166 2240.02,539.874 2240.67,524.501 2241.32,535.452 2241.97,522.156 2242.62,535.036 2243.26,535.437 2243.91,525.083 2244.56,537.862 2245.21,524.358 2245.86,531.21 2246.51,528.169 2247.16,536.981 2247.81,521.739 2248.45,524.486 2249.1,531.347 2249.75,529.166 2250.4,521.761 2251.05,539.403 2251.7,521.373 2252.35,531.341 2252.99,537.521 2253.64,528.42 2254.29,532.662 2254.94,528 2255.59,534.623 2256.24,526.145 2256.89,527.212 2257.53,530.619 2258.18,531.568 2258.83,526.937 2259.48,524.411 2260.13,526.813 2260.78,530.372 2261.43,531.447 2262.07,528.496 2262.72,527.814 2263.37,532.314 2264.02,529.452 2264.67,529.836 2265.32,537.475 2265.97,532.797 2266.62,523.669 2267.26,535.707 2267.91,528.306 2268.56,527.407 2269.21,532.095 2269.86,527.994 2270.51,532.122 2271.16,526.456 2271.8,534.211 2272.45,527.07 2273.1,534.052 2273.75,525.116 2274.4,533.082 2275.05,528.347 2275.7,521.001 2276.34,538.065 2276.99,521.746 2277.64,529.04 2278.29,534.329 2278.94,525.26 2279.59,522.56 2280.24,536.761 2280.89,524.737 2281.53,526.8 2282.18,532.25 2282.83,528.315 2283.48,531.433 2284.13,530.552 2284.78,520.135 2285.43,533.057 2286.07,528.074 2286.72,530.171 2287.37,528.455 2288.02,532.006 2288.67,528.258 2289.32,532.736 2289.97,527.149 2290.61,532.988 2291.26,528.228 2291.91,531.996 2292.56,528.802 2293.21,532.177 2293.86,535.484 2294.51,524.214 2295.15,538.575 2295.8,521.929 2296.45,537.763 2297.1,525.025 2297.75,537.745 2298.4,540.577 2299.05,531.972 2299.7,528.675 2300.34,530.942 2300.99,525.54 2301.64,528.602 2302.29,529.704 2302.94,530.81 2303.59,522.202 2304.24,538.467 2304.88,521.859 2305.53,540.006 2306.18,520.372 2306.83,539.88 2307.48,520.815 2308.13,539.196 2308.78,524.403 2309.42,536.11 2310.07,539.698 2310.72,534.697 2311.37,532.234 2312.02,528.396 2312.67,532.846 2313.32,527.236 2313.96,532.299 2314.61,528.595 2315.26,531.941 2315.91,532.488 2316.56,527.663 2317.21,527.581 2317.86,534.058 2318.51,525.886 2319.15,533.934 2319.8,527.712 2320.45,524.156 2321.1,533.941 2321.75,525.513 2322.4,533.754 2323.05,526.714 2323.69,527.711 2324.34,517.441 2324.99,529.041 2325.64,530.861 2326.29,529.026 2326.94,531.878 2327.59,533.998 2328.23,526.46 2328.88,533.196 2329.53,526.8 2330.18,541.817 2330.83,518.76 2331.48,531.355 2332.13,528.662 2332.78,533.531 2333.42,532.221 2334.07,527.577 2334.72,534.001 2335.37,523.832 2336.02,537.4 2336.67,522.967 2337.32,537.178 2337.96,522.984 2338.61,537.406 2339.26,523.5 2339.91,532.337 2340.56,527.836 2341.21,531.881 2341.86,528.091 2342.5,531.284 2343.15,523.131 2343.8,524.924 2344.45,536.011 2345.1,526.355 2345.75,533.245 2346.4,527.577 2347.04,533.588 2347.69,528.684 2348.34,532.557 2348.99,535.512 2349.64,532.515 2350.29,523.397 2350.94,542.653 2351.59,521.702 2352.23,539.131 2352.88,530.071 2353.53,531.827 2354.18,530.673 2354.83,531.657 2355.48,528.744 2356.13,532.135 2356.77,535.233 2357.42,533.064 2358.07,536.563 2358.72,523.813 2359.37,534.319 2360.02,526.612 2360.67,530.652 2361.31,531.008 2361.96,523.595 2362.61,536.931 2363.26,528.76 2363.91,520.169 2364.56,531.731 2365.21,528.551 2365.86,532.047 2366.5,528.743 2367.15,532.621 2367.8,527.84 2368.45,532.19 2369.1,523.67 2369.75,527.006 2370.4,528.078 2371.04,533.865 2371.69,526.054 2372.34,529.641 2372.99,531.491 2373.64,526.601 2374.29,534.121 2374.94,525.641 2375.58,535.763 2376.23,528.871 2376.88,530.128 2377.53,535.114 2378.18,524.599 2378.83,533.837 2379.48,527.059 2380.12,534.902 2380.77,524.36 2381.42,536.792 2382.07,523.359 2382.72,535.449 2383.37,533.25 2384.02,524.531 2384.67,535.93 2385.31,535.437 2385.96,533.892 2386.61,525.926 2387.26,533.468 2387.91,522.245 2388.56,530.1 2389.21,530.635 2389.85,528.685 2390.5,531.656 2391.15,523.293 2391.8,541.137 2392.45,519.528 2393.1,530.233 2393.75,529.738 2394.39,528.912 2395.04,530.769 2395.69,532.237 2396.34,524.249 2396.99,532.339 2397.64,528.963 2398.29,523.985 2398.94,526.465 2399.58,536.416 2400.23,524.194 2400.88,541.055 2401.53,519.692 2402.18,541.949 2402.83,518.852 2403.48,528.473 2404.12,532.63 2404.77,528.514 2405.42,530.667 2406.07,528.601 2406.72,534.716 2407.37,527.397 2408.02,529.25 2408.66,530.208 2409.31,530.452 2409.96,524.904 2410.61,532.661 2411.26,527.944 2411.91,538.764 2412.56,521.428 2413.2,537.481 2413.85,524.019 2414.5,534.162 2415.15,534.06 2415.8,524.649 2416.45,536.116 2417.1,524.442 2417.75,535.944 2418.39,524.056 2419.04,531.29 2419.69,540.065 2420.34,522.491 2420.99,538.079 2421.64,523.191 2422.29,527.527 2422.93,530.641 2423.58,528.9 2424.23,530.261 2424.88,529.641 2425.53,531.808 2426.18,529.602 2426.83,533.702 2427.47,532.676 2428.12,528.167 2428.77,534.322 2429.42,526.376 2430.07,526.537 2430.72,534.309 2431.37,526.412 2432.02,532.387 2432.66,524.267 2433.31,527.265 2433.96,532.703 2434.61,528.716 2435.26,533.447 2435.91,527.04 2436.56,526.144 2437.2,535.818 2437.85,529.351 2438.5,530.114 2439.15,531.295 2439.8,529.346 2440.45,531.953 2441.1,529.103 2441.74,525.847 2442.39,533.972 2443.04,518.909 2443.69,542.262 2444.34,527.771 2444.99,531.841 2445.64,527.674 2446.28,533.969 2446.93,527.636 2447.58,532.885 2448.23,526.349 2448.88,534.594 2449.53,525.75 2450.18,535.501 2450.83,525.646 2451.47,534.243 2452.12,529.318 2452.77,527.295 2453.42,532.111 2454.07,521.032 2454.72,521.978 2455.37,530.512 2456.01,529.499 2456.66,525.779 2457.31,534.505 2457.96,530.085 2458.61,536.305 2459.26,525.462 2459.91,538.687 2460.55,522.934 2461.2,529.121 2461.85,529.432 2462.5,530.413 2463.15,532.412 2463.8,529.008 2464.45,524.226 2465.09,537.348 2465.74,529.169 2466.39,530.823 2467.04,528.328 2467.69,533.08 2468.34,527.298 2468.99,521.016 2469.64,525.667 2470.28,535.591 2470.93,533.529 2471.58,526.666 2472.23,525.236 2472.88,532.536 2473.53,527.933 2474.18,527.017 2474.82,532.441 2475.47,527.254 2476.12,530.943 2476.77,525.394 2477.42,541.313 2478.07,529.003 2478.72,533.208 2479.36,527.686 2480.01,535.218 2480.66,525.523 2481.31,528.087 2481.96,532.224 2482.61,527.387 2483.26,531.956 2483.91,525.158 2484.55,534.698 2485.2,525.594 2485.85,534.494 2486.5,524.947 2487.15,527.988 2487.8,535.996 2488.45,522.627 2489.09,537.992 2489.74,523.567 2490.39,538.884 2491.04,522.96 2491.69,537.398 2492.34,532.497 2492.99,528.75 2493.63,533.038 2494.28,524.904 2494.93,529.28 2495.58,531.287 2496.23,523.91 2496.88,534.337 2497.53,533.909 2498.17,526.961 2498.82,531.305 2499.47,528.459 2500.12,533.224 2500.77,527.687 2501.42,533.071 2502.07,529.494 2502.72,530.242 2503.36,532.544 2504.01,527.813 2504.66,532.341 2505.31,525.09 2505.96,528.803 2506.61,530.334 2507.26,530.164 2507.9,526.886 2508.55,533.438 2509.2,526.174 2509.85,529.863 2510.5,530.634 2511.15,530.287 2511.8,530.362 2512.44,531.036 2513.09,538.762 2513.74,528.733 2514.39,531.786 2515.04,527.504 2515.69,533.361 2516.34,524.513 2516.99,528.16 2517.63,532.882 2518.28,528.148 2518.93,532.104 2519.58,529.012 2520.23,527.542 2520.88,532.659 2521.53,528.668 2522.17,532.211 2522.82,528.317 2523.47,531.998 2524.12,529.109 2524.77,528.303 2525.42,531.743 2526.07,529.419 2526.71,531.307 2527.36,512.809 2528.01,540.293 2528.66,530.949 2529.31,528.977 2529.96,533.004 2530.61,530.003 2531.25,525.347 2531.9,521.941 2532.55,535.839 2533.2,527.17 2533.85,533.998 2534.5,527.069 2535.15,534.786 2535.8,526.527 2536.44,521.576 2537.09,535.959 2537.74,532.449 2538.39,526.252 2539.04,533.023 2539.69,539.585 2540.34,520.623 2540.98,540.124 2541.63,520.699 2542.28,534.424 2542.93,526.216 2543.58,529.014 2544.23,524.116 2544.88,534.128 2545.52,531.491 2546.17,526.554 2546.82,534.954 2547.47,526.77 2548.12,528.421 2548.77,538.115 2549.42,525.26 2550.07,534.261 2550.71,521.357 2551.36,539.67 2552.01,523.141 2552.66,532.592 2553.31,527.771 2553.96,532.37 2554.61,522.603 2555.25,523.399 2555.9,533.256 2556.55,531.048 2557.2,529.281 2557.85,531.477 2558.5,528.393 2559.15,531.027 2559.79,528.561 2560.44,532.371 2561.09,532.69 2561.74,526.037 2562.39,527.545 2563.04,533.693 2563.69,532.563 2564.33,527.085 2564.98,529.89 2565.63,531.056 2566.28,529.401 2566.93,531.821 2567.58,527.523 2568.23,527.835 2568.88,535.346 2569.52,526.237 2570.17,534.091 2570.82,526.355 2571.47,537.607 2572.12,533.845 2572.77,520.114 2573.42,531.929 2574.06,527.668 2574.71,534.311 2575.36,526.433 2576.01,534.043 2576.66,524.97 2577.31,520.767 2577.96,540.407 2578.6,535.672 2579.25,524.944 2579.9,535.417 2580.55,525.67 2581.2,524.69 2581.85,523.156 2582.5,536.28 2583.15,531.429 2583.79,528.695 2584.44,525.056 2585.09,528.903 2585.74,531.098 2586.39,523.592 2587.04,531.349 2587.69,536.291 2588.33,527.326 2588.98,527.403 2589.63,524.008 2590.28,528.999 2590.93,532.851 2591.58,527.576 2592.23,531.692 2592.87,536.059 2593.52,525.228 2594.17,533.619 2594.82,527.358 2595.47,532.399 2596.12,527.312 2596.77,533.977 2597.41,530.601 2598.06,531.54 2598.71,528.218 2599.36,532.169 2600.01,526.865 2600.66,527.803 2601.31,528.961 2601.96,532 2602.6,526.16 2603.25,538.233 2603.9,528.053 2604.55,528.389 2605.2,528.996 2605.85,531.343 2606.5,530.672 2607.14,531.899 2607.79,528.49 2608.44,532.785 2609.09,542.154 2609.74,517.15 2610.39,543.556 2611.04,530.904 2611.68,517.666 2612.33,526.007 2612.98,527.738 2613.63,521.863 2614.28,538.645 2614.93,528.849 2615.58,534.65 2616.22,525.573 2616.87,528.126 2617.52,536.119 2618.17,531.778 2618.82,527 2619.47,528.683 2620.12,531.699 2620.77,530.993 2621.41,533.185 2622.06,523.525 2622.71,534.447 2623.36,525.872 2624.01,534.569 2624.66,526.462 2625.31,533.421 2625.95,528.057 2626.6,534.96 2627.25,524.006 2627.9,532.247 2628.55,530.219 2629.2,526.014 2629.85,531.962 2630.49,527.177 2631.14,535.051 2631.79,537.405 2632.44,524.297 2633.09,537.354 2633.74,524.371 2634.39,530.438 2635.04,535.96 2635.68,523.651 2636.33,529.96 2636.98,532.078 2637.63,533.085 2638.28,532.229 2638.93,530.203 2639.58,534.31 2640.22,527.713 2640.87,532.863 2641.52,528.621 2642.17,537.661 2642.82,523.955 2643.47,536.902 2644.12,523.164 2644.76,537.637 2645.41,529.411 2646.06,537.373 2646.71,522.627 2647.36,537.7 2648.01,530.663 2648.66,533.929 2649.3,521.538 2649.95,537.274 2650.6,523.531 2651.25,536.568 2651.9,529.369 2652.55,520.67 2653.2,537.807 2653.85,522.894 2654.49,536.557 2655.14,520.959 2655.79,528.258 2656.44,520.369 2657.09,526.371 2657.74,533.682 2658.39,526.101 2659.03,534.833 2659.68,524.135 2660.33,533.227 2660.98,527.503 2661.63,532.252 2662.28,525.938 2662.93,526.898 2663.57,533.352 2664.22,527.99 2664.87,532.127 2665.52,526.437 2666.17,533.682 2666.82,526.75 2667.47,526.515 2668.12,534.998 2668.76,533.116 2669.41,526.859 2670.06,534.814 2670.71,534.269 2671.36,529.082 2672.01,540.43 2672.66,528.539 2673.3,532.257 2673.95,529.795 2674.6,527.849 2675.25,529.157 2675.9,531.594 2676.55,528.587 2677.2,528.198 2677.84,531.983 2678.49,527.882 2679.14,528.982 2679.79,523.944 2680.44,535.515 2681.09,524.201 2681.74,538.035 2682.38,525.187 2683.03,534.612 2683.68,525.274 2684.33,529.471 2684.98,531.348 2685.63,525.17 2686.28,526.447 2686.93,534.135 2687.57,526.23 2688.22,526.947 2688.87,528.469 2689.52,532.543 2690.17,532.574 2690.82,526.842 2691.47,537.581 2692.11,522.858 2692.76,524.319 2693.41,534.633 2694.06,529.039 2694.71,521.679 2695.36,534.813 2696.01,524.791 2696.65,536.145 2697.3,524.776 2697.95,531.965 2698.6,529.742 2699.25,534.372 2699.9,526.469 2700.55,535.403 2701.2,524.547 2701.84,537.175 2702.49,521.868 2703.14,538.954 2703.79,523.1 2704.44,536.306 2705.09,524.705 2705.74,529.077 2706.38,524.929 2707.03,534.284 2707.68,525.462 2708.33,526.265 2708.98,533.676 2709.63,527.726 2710.28,528.698 2710.92,528.279 2711.57,527.63 2712.22,533.153 2712.87,528.385 2713.52,532.078 2714.17,535.49 2714.82,525.49 2715.46,535.44 2716.11,529.128 2716.76,531.349 2717.41,530.027 2718.06,530.631 2718.71,529.633 2719.36,529.513 2720.01,530.727 2720.65,537.015 2721.3,524.177 2721.95,536.509 2722.6,523.553 2723.25,529.171 2723.9,531.074 2724.55,536.476 2725.19,524.942 2725.84,536.915 2726.49,525.003 2727.14,535.025 2727.79,523.968 2728.44,535.442 2729.09,531.365 2729.73,530.639 2730.38,529.407 2731.03,531.75 2731.68,534.022 2732.33,526.796 2732.98,523.775 2733.63,537.395 2734.28,531.119 2734.92,539.787 2735.57,534.577 2736.22,531.724 2736.87,528.808 2737.52,530.138 2738.17,530.902 2738.82,531.942 2739.46,528.631 2740.11,540.012 2740.76,520.168 2741.41,540.894 2742.06,518.75 2742.71,537.429 2743.36,529.117 2744,527.396 2744.65,534.248 2745.3,531.64 2745.95,527.606 2746.6,524.104 2747.25,530.113 2747.9,525.711 2748.54,533.582 2749.19,528.201 2749.84,534.856 2750.49,525.91 2751.14,531.765 2751.79,528.749 2752.44,531.115 2753.09,530.027 2753.73,531.896 2754.38,528.137 2755.03,524.693 2755.68,536.586 2756.33,517.906 2756.98,542.511 2757.63,529.474 2758.27,541.17 2758.92,532.998 2759.57,527.082 2760.22,531.999 2760.87,528.582 2761.52,527.356 2762.17,531.415 2762.81,525.295 2763.46,527.733 2764.11,526.745 2764.76,533.75 2765.41,528.054 2766.06,532.724 2766.71,521.737 2767.35,529.126 2768,533.179 2768.65,527.013 2769.3,532.396 2769.95,529.221 2770.6,532.744 2771.25,526.826 2771.9,533.056 2772.54,533.537 2773.19,530.161 2773.84,528.213 2774.49,532.368 2775.14,521.668 2775.79,524.411 2776.44,537.135 2777.08,522.555 2777.73,539.673 2778.38,521.877 2779.03,539.897 2779.68,527.706 2780.33,532.64 2780.98,527.598 2781.62,527.578 2782.27,532.36 2782.92,527.219 2783.57,533.47 2784.22,527.341 2784.87,528.071 2785.52,533.534 2786.17,525.65 2786.81,538.28 2787.46,524.119 2788.11,532.579 2788.76,534.123 2789.41,520.497 2790.06,536.961 2790.71,523.125 2791.35,525.82 2792,533.145 2792.65,528.779 2793.3,531.084 2793.95,538.281 2794.6,521.92 2795.25,535.381 2795.89,524.618 2796.54,527.595 2797.19,532.684 2797.84,526.486 2798.49,533.566 2799.14,528.537 2799.79,528.499 2800.43,525.525 2801.08,529.75 2801.73,531.048 2802.38,530.749 2803.03,527.974 2803.68,533.595 2804.33,528.865 2804.98,527.274 2805.62,532.848 2806.27,520.634 2806.92,529.155 2807.57,532.723 2808.22,529.419 2808.87,518.732 2809.52,538.181 2810.16,522.782 2810.81,536.69 2811.46,524.2 2812.11,527.625 2812.76,535.388 2813.41,531.284 2814.06,527.794 2814.7,531.156 2815.35,529.671 2816,530.064 2816.65,529.042 2817.3,531.208 2817.95,533.563 2818.6,526.943 2819.25,525.713 2819.89,534.125 2820.54,525.85 2821.19,535.335 2821.84,525.805 2822.49,537.078 2823.14,524.204 2823.79,535.594 2824.43,523.489 2825.08,531.523 2825.73,528.257 2826.38,531.509 2827.03,539.898 2827.68,545.33 2828.33,529.094 2828.97,530.713 2829.62,530.726 2830.27,528.514 2830.92,529.677 2831.57,531.56 2832.22,526.014 2832.87,532.785 2833.51,529.057 2834.16,531.267 2834.81,528.543 2835.46,533.287 2836.11,524.714 2836.76,526.523 2837.41,528.286 2838.06,532.576 2838.7,528.509 2839.35,532.819 2840,528.506 2840.65,528.713 2841.3,525.256 2841.95,533.135 2842.6,526.737 2843.24,531.82 2843.89,526.781 2844.54,530.459 2845.19,539.034 2845.84,521.026 2846.49,538.818 2847.14,530.173 2847.78,532.042 2848.43,536.016 2849.08,523.242 2849.73,526.395 2850.38,533.936 2851.03,517.86 2851.68,541.592 2852.33,518.948 2852.97,533.137 2853.62,527.498 2854.27,532.299 2854.92,534.798 2855.57,522.603 2856.22,534.435 2856.87,525.131 2857.51,521.09 2858.16,538.785 2858.81,521.054 2859.46,537.027 2860.11,524.323 2860.76,535.929 2861.41,522.84 2862.05,538.723 2862.7,522.918 2863.35,523.932 2864,536.19 2864.65,525.824 2865.3,528.41 2865.95,531.491 2866.59,529.33 2867.24,532.521 2867.89,527.972 2868.54,536.298 2869.19,529.911 2869.84,535.905 2870.49,524.518 2871.14,535.012 2871.78,526.578 2872.43,531.638 2873.08,529.534 2873.73,524.82 2874.38,523.807 2875.03,537.168 2875.68,521.363 2876.32,540.229 2876.97,520.136 2877.62,529.102 2878.27,537.142 2878.92,523.231 2879.57,535.536 2880.22,532.966 2880.86,526.169 2881.51,534.19 2882.16,522.494 2882.81,537.493 2883.46,524.133 2884.11,532.048 2884.76,535.231 2885.41,532.218 2886.05,531.466 2886.7,534.107 2887.35,529.719 2888,529.637 2888.65,526.857 2889.3,528.913 2889.95,532.334 2890.59,527.071 2891.24,532.538 2891.89,530.3 2892.54,530.95 2893.19,528.99 2893.84,531.236 2894.49,525.749 2895.13,535.587 2895.78,525.579 2896.43,534.31 2897.08,527.162 2897.73,534.126 2898.38,526.959 2899.03,532.922 2899.67,520.093 2900.32,534.332 2900.97,526.354 2901.62,534.759 2902.27,530.649 2902.92,530.051 2903.57,529.358 2904.22,530.766 2904.86,530.463 2905.51,530.262 2906.16,530.462 2906.81,530.309 2907.46,531.139 2908.11,534.119 2908.76,519.874 2909.4,540.483 2910.05,529.909 2910.7,530.54 2911.35,529.394 2912,531.939 2912.65,527.892 2913.3,528.928 2913.94,530.76 2914.59,533.917 2915.24,525.624 2915.89,537.739 2916.54,522.573 2917.19,537.461 2917.84,527.57 2918.48,542.71 2919.13,517.959 2919.78,543.095 2920.43,517.13 2921.08,541.161 2921.73,526.849 2922.38,533.812 2923.03,527.472 2923.67,530.885 2924.32,530.65 2924.97,530.438 2925.62,527.795 2926.27,536.684 2926.92,537.818 2927.57,522.472 2928.21,538.304 2928.86,522.347 2929.51,538.17 2930.16,522.654 2930.81,536.788 2931.46,524.18 2932.11,535.689 2932.75,522.626 2933.4,537.654 2934.05,528.206 2934.7,532.242 2935.35,527.216 2936,532.154 2936.65,530.533 2937.3,521.503 2937.94,530.614 2938.59,527.775 2939.24,530.994 2939.89,528.797 2940.54,518.287 2941.19,530.94 2941.84,529.211 2942.48,530.602 2943.13,532.063 2943.78,527.456 2944.43,535.094 2945.08,538.291 2945.73,523.583 2946.38,544.507 2947.02,515.618 2947.67,536.433 2948.32,531.793 2948.97,528.329 2949.62,532.843 2950.27,527.893 2950.92,533.568 2951.56,534.282 2952.21,525.02 2952.86,540.867 2953.51,520.537 2954.16,519.152 2954.81,543.323 2955.46,517.244 2956.11,542.265 2956.75,528.583 2957.4,532.959 2958.05,532.288 2958.7,531.83 2959.35,524.406 2960,528.757 2960.65,531.024 2961.29,529.898 2961.94,529.501 2962.59,529.285 2963.24,531.782 2963.89,527.019 2964.54,539.316 2965.19,521.061 2965.83,537.443 2966.48,517.735 2967.13,526.416 2967.78,527.663 2968.43,532.55 2969.08,526.715 2969.73,533.413 2970.38,525.81 2971.02,527.766 2971.67,527.439 2972.32,534.569 2972.97,532.442 2973.62,527.895 2974.27,532.731 2974.92,527.286 2975.56,533.535 2976.21,524.61 2976.86,534.091 2977.51,526.148 2978.16,533.267 2978.81,527.672 2979.46,528.387 2980.1,545.821 2980.75,515.27 2981.4,530.497 2982.05,524.816 2982.7,529.197 2983.35,527.875 2984,534.701 2984.64,524.24 2985.29,535.51 2985.94,524.912 2986.59,521.07 2987.24,528.77 2987.89,528.738 2988.54,531.879 2989.19,533.98 2989.83,527.719 2990.48,532.921 2991.13,527.196 2991.78,533.344 2992.43,536.637 2993.08,523.802 2993.73,537.177 2994.37,523.191 2995.02,531.186 2995.67,522.431 2996.32,538.283 2996.97,522.697 2997.62,533.08 2998.27,527.807 2998.91,522.194 2999.56,538.446 3000.21,521.93 3000.86,537.82 3001.51,522.983 3002.16,537.435 3002.81,521.817 3003.46,539.699 3004.1,521.042 3004.75,540.089 3005.4,531.83 3006.05,525.67 3006.7,527.751 3007.35,527.49 3008,541.611 3008.64,517.151 3009.29,544.913 3009.94,514.928 3010.59,538.321 3011.24,528.717 3011.89,525.113 3012.54,528.275 3013.18,530.187 3013.83,530.142 3014.48,530.35 3015.13,531.56 3015.78,528.95 3016.43,530.755 3017.08,530.805 3017.72,531.057 3018.37,524.013 3019.02,536.147 3019.67,524.685 3020.32,534.559 3020.97,525.387 3021.62,536.042 3022.27,522.941 3022.91,537.399 3023.56,537.854 3024.21,522.628 3024.86,538.452 3025.51,522.422 3026.16,534.754 3026.81,528.321 3027.45,532.19 3028.1,528.953 3028.75,534.465 3029.4,526.387 3030.05,533.803 3030.7,527.24 3031.35,533.21 3031.99,529.036 3032.64,530.968 3033.29,531.92 3033.94,523.545 3034.59,538.004 3035.24,531.965 3035.89,519.558 3036.53,539.172 3037.18,520.556 3037.83,534.097 3038.48,526.81 3039.13,538.979 3039.78,524.46 3040.43,535.253 3041.08,534.321 3041.72,526.533 3042.37,526.774 3043.02,533.318 3043.67,519.413 3044.32,534.085 3044.97,525.223 3045.62,535.139 3046.26,526.653 3046.91,533.73 3047.56,531.315 3048.21,529.544 3048.86,529.998 3049.51,529.153 3050.16,526.734 3050.8,533.7 3051.45,526.524 3052.1,535.428 3052.75,530.579 3053.4,540.537 3054.05,539.331 3054.7,520.894 3055.35,538.128 3055.99,531.961 3056.64,532.433 3057.29,530.758 3057.94,528.933 3058.59,529.625 3059.24,529.986 3059.89,534.972 3060.53,524.984 3061.18,535.511 3061.83,529.22 3062.48,530.359 3063.13,535.601 3063.78,532.519 3064.43,526.754 3065.07,533.844 3065.72,527.616 3066.37,530.92 3067.02,534.046 3067.67,526.364 3068.32,534.434 3068.97,526.129 "/>
<path clip-path="url(#clip320)" d="M2605.63 693.754 L3054.07 693.754 L3054.07 590.074 L2605.63 590.074  Z" fill="#ffffff" fill-rule="evenodd" fill-opacity="1"/>
<polyline clip-path="url(#clip320)" style="stroke:#000000; stroke-linecap:round; stroke-linejoin:round; stroke-width:4; stroke-opacity:1; fill:none" points="2605.63,693.754 3054.07,693.754 3054.07,590.074 2605.63,590.074 2605.63,693.754 "/>
<polyline clip-path="url(#clip320)" style="stroke:#009af9; stroke-linecap:round; stroke-linejoin:round; stroke-width:2; stroke-opacity:1; fill:none" points="2638.53,641.914 2835.9,641.914 "/>
<path clip-path="url(#clip320)" d="M2868.79 624.634 L2873.51 624.634 L2880.78 653.847 L2888.03 624.634 L2893.28 624.634 L2900.55 653.847 L2907.8 624.634 L2912.54 624.634 L2903.86 659.194 L2897.98 659.194 L2890.69 629.195 L2883.33 659.194 L2877.45 659.194 L2868.79 624.634 Z" fill="#000000" fill-rule="evenodd" fill-opacity="1" /><path clip-path="url(#clip320)" d="M2918.75 624.634 L2923.42 624.634 L2923.42 638.801 L2940.41 638.801 L2940.41 624.634 L2945.09 624.634 L2945.09 659.194 L2940.41 659.194 L2940.41 642.736 L2923.42 642.736 L2923.42 659.194 L2918.75 659.194 L2918.75 624.634 Z" fill="#000000" fill-rule="evenodd" fill-opacity="1" /><path clip-path="url(#clip320)" d="M2954.39 624.634 L2961.36 624.634 L2970.18 648.153 L2979.05 624.634 L2986.01 624.634 L2986.01 659.194 L2981.45 659.194 L2981.45 628.847 L2972.54 652.551 L2967.84 652.551 L2958.93 628.847 L2958.93 659.194 L2954.39 659.194 L2954.39 624.634 Z" fill="#000000" fill-rule="evenodd" fill-opacity="1" /><path clip-path="url(#clip320)" d="M3021.18 627.296 L3021.18 632.227 Q3018.81 630.028 3016.13 628.94 Q3013.47 627.852 3010.46 627.852 Q3004.53 627.852 3001.38 631.486 Q2998.24 635.097 2998.24 641.949 Q2998.24 648.778 3001.38 652.412 Q3004.53 656.023 3010.46 656.023 Q3013.47 656.023 3016.13 654.935 Q3018.81 653.847 3021.18 651.648 L3021.18 656.532 Q3018.72 658.199 3015.97 659.032 Q3013.24 659.866 3010.18 659.866 Q3002.33 659.866 2997.82 655.074 Q2993.31 650.259 2993.31 641.949 Q2993.31 633.616 2997.82 628.824 Q3002.33 624.009 3010.18 624.009 Q3013.28 624.009 3016.01 624.843 Q3018.77 625.653 3021.18 627.296 Z" fill="#000000" fill-rule="evenodd" fill-opacity="1" /></svg>
