<?xml version="1.0" encoding="utf-8"?>
<svg xmlns="http://www.w3.org/2000/svg" xmlns:xlink="http://www.w3.org/1999/xlink" width="800" height="200" viewBox="0 0 3200 800">
<defs>
  <clipPath id="clip420">
    <rect x="0" y="0" width="3200" height="800"/>
  </clipPath>
</defs>
<path clip-path="url(#clip420)" d="M0 800 L3200 800 L3200 0 L0 0  Z" fill="#ffffff" fill-rule="evenodd" fill-opacity="1"/>
<defs>
  <clipPath id="clip421">
    <rect x="640" y="0" width="2241" height="800"/>
  </clipPath>
</defs>
<path clip-path="url(#clip420)" d="M192.191 716.048 L3152.76 716.048 L3152.76 47.2441 L192.191 47.2441  Z" fill="#ffffff" fill-rule="evenodd" fill-opacity="1"/>
<defs>
  <clipPath id="clip422">
    <rect x="192" y="47" width="2962" height="670"/>
  </clipPath>
</defs>
<polyline clip-path="url(#clip422)" style="stroke:#000000; stroke-linecap:round; stroke-linejoin:round; stroke-width:2; stroke-opacity:0.1; fill:none" points="274.078,716.048 274.078,47.2441 "/>
<polyline clip-path="url(#clip422)" style="stroke:#000000; stroke-linecap:round; stroke-linejoin:round; stroke-width:2; stroke-opacity:0.1; fill:none" points="1225.37,716.048 1225.37,47.2441 "/>
<polyline clip-path="url(#clip422)" style="stroke:#000000; stroke-linecap:round; stroke-linejoin:round; stroke-width:2; stroke-opacity:0.1; fill:none" points="2176.66,716.048 2176.66,47.2441 "/>
<polyline clip-path="url(#clip422)" style="stroke:#000000; stroke-linecap:round; stroke-linejoin:round; stroke-width:2; stroke-opacity:0.1; fill:none" points="3127.95,716.048 3127.95,47.2441 "/>
<polyline clip-path="url(#clip420)" style="stroke:#000000; stroke-linecap:round; stroke-linejoin:round; stroke-width:4; stroke-opacity:1; fill:none" points="192.191,716.048 3152.76,716.048 "/>
<polyline clip-path="url(#clip420)" style="stroke:#000000; stroke-linecap:round; stroke-linejoin:round; stroke-width:4; stroke-opacity:1; fill:none" points="274.078,716.048 274.078,697.15 "/>
<polyline clip-path="url(#clip420)" style="stroke:#000000; stroke-linecap:round; stroke-linejoin:round; stroke-width:4; stroke-opacity:1; fill:none" points="1225.37,716.048 1225.37,697.15 "/>
<polyline clip-path="url(#clip420)" style="stroke:#000000; stroke-linecap:round; stroke-linejoin:round; stroke-width:4; stroke-opacity:1; fill:none" points="2176.66,716.048 2176.66,697.15 "/>
<polyline clip-path="url(#clip420)" style="stroke:#000000; stroke-linecap:round; stroke-linejoin:round; stroke-width:4; stroke-opacity:1; fill:none" points="3127.95,716.048 3127.95,697.15 "/>
<path clip-path="url(#clip420)" d="M274.078 753.367 Q270.467 753.367 268.638 756.931 Q266.832 760.473 266.832 767.603 Q266.832 774.709 268.638 778.274 Q270.467 781.815 274.078 781.815 Q277.712 781.815 279.517 778.274 Q281.346 774.709 281.346 767.603 Q281.346 760.473 279.517 756.931 Q277.712 753.367 274.078 753.367 M274.078 749.663 Q279.888 749.663 282.943 754.269 Q286.022 758.853 286.022 767.603 Q286.022 776.329 282.943 780.936 Q279.888 785.519 274.078 785.519 Q268.268 785.519 265.189 780.936 Q262.133 776.329 262.133 767.603 Q262.133 758.853 265.189 754.269 Q268.268 749.663 274.078 749.663 Z" fill="#000000" fill-rule="evenodd" fill-opacity="1" /><path clip-path="url(#clip420)" d="M1184.99 750.288 L1203.34 750.288 L1203.34 754.223 L1189.27 754.223 L1189.27 762.695 Q1190.29 762.348 1191.3 762.186 Q1192.32 762.001 1193.34 762.001 Q1199.13 762.001 1202.51 765.172 Q1205.89 768.343 1205.89 773.76 Q1205.89 779.339 1202.42 782.44 Q1198.94 785.519 1192.62 785.519 Q1190.45 785.519 1188.18 785.149 Q1185.93 784.778 1183.53 784.038 L1183.53 779.339 Q1185.61 780.473 1187.83 781.028 Q1190.05 781.584 1192.53 781.584 Q1196.54 781.584 1198.87 779.478 Q1201.21 777.371 1201.21 773.76 Q1201.21 770.149 1198.87 768.042 Q1196.54 765.936 1192.53 765.936 Q1190.66 765.936 1188.78 766.353 Q1186.93 766.769 1184.99 767.649 L1184.99 750.288 Z" fill="#000000" fill-rule="evenodd" fill-opacity="1" /><path clip-path="url(#clip420)" d="M1225.1 753.367 Q1221.49 753.367 1219.66 756.931 Q1217.86 760.473 1217.86 767.603 Q1217.86 774.709 1219.66 778.274 Q1221.49 781.815 1225.1 781.815 Q1228.74 781.815 1230.54 778.274 Q1232.37 774.709 1232.37 767.603 Q1232.37 760.473 1230.54 756.931 Q1228.74 753.367 1225.1 753.367 M1225.1 749.663 Q1230.91 749.663 1233.97 754.269 Q1237.05 758.853 1237.05 767.603 Q1237.05 776.329 1233.97 780.936 Q1230.91 785.519 1225.1 785.519 Q1219.29 785.519 1216.21 780.936 Q1213.16 776.329 1213.16 767.603 Q1213.16 758.853 1216.21 754.269 Q1219.29 749.663 1225.1 749.663 Z" fill="#000000" fill-rule="evenodd" fill-opacity="1" /><path clip-path="url(#clip420)" d="M1255.26 753.367 Q1251.65 753.367 1249.82 756.931 Q1248.02 760.473 1248.02 767.603 Q1248.02 774.709 1249.82 778.274 Q1251.65 781.815 1255.26 781.815 Q1258.9 781.815 1260.7 778.274 Q1262.53 774.709 1262.53 767.603 Q1262.53 760.473 1260.7 756.931 Q1258.9 753.367 1255.26 753.367 M1255.26 749.663 Q1261.07 749.663 1264.13 754.269 Q1267.21 758.853 1267.21 767.603 Q1267.21 776.329 1264.13 780.936 Q1261.07 785.519 1255.26 785.519 Q1249.45 785.519 1246.37 780.936 Q1243.32 776.329 1243.32 767.603 Q1243.32 758.853 1246.37 754.269 Q1249.45 749.663 1255.26 749.663 Z" fill="#000000" fill-rule="evenodd" fill-opacity="1" /><path clip-path="url(#clip420)" d="M2121.18 780.913 L2128.82 780.913 L2128.82 754.547 L2120.51 756.214 L2120.51 751.955 L2128.78 750.288 L2133.45 750.288 L2133.45 780.913 L2141.09 780.913 L2141.09 784.848 L2121.18 784.848 L2121.18 780.913 Z" fill="#000000" fill-rule="evenodd" fill-opacity="1" /><path clip-path="url(#clip420)" d="M2160.53 753.367 Q2156.92 753.367 2155.09 756.931 Q2153.29 760.473 2153.29 767.603 Q2153.29 774.709 2155.09 778.274 Q2156.92 781.815 2160.53 781.815 Q2164.17 781.815 2165.97 778.274 Q2167.8 774.709 2167.8 767.603 Q2167.8 760.473 2165.97 756.931 Q2164.17 753.367 2160.53 753.367 M2160.53 749.663 Q2166.34 749.663 2169.4 754.269 Q2172.48 758.853 2172.48 767.603 Q2172.48 776.329 2169.4 780.936 Q2166.34 785.519 2160.53 785.519 Q2154.72 785.519 2151.65 780.936 Q2148.59 776.329 2148.59 767.603 Q2148.59 758.853 2151.65 754.269 Q2154.72 749.663 2160.53 749.663 Z" fill="#000000" fill-rule="evenodd" fill-opacity="1" /><path clip-path="url(#clip420)" d="M2190.7 753.367 Q2187.08 753.367 2185.26 756.931 Q2183.45 760.473 2183.45 767.603 Q2183.45 774.709 2185.26 778.274 Q2187.08 781.815 2190.7 781.815 Q2194.33 781.815 2196.14 778.274 Q2197.96 774.709 2197.96 767.603 Q2197.96 760.473 2196.14 756.931 Q2194.33 753.367 2190.7 753.367 M2190.7 749.663 Q2196.51 749.663 2199.56 754.269 Q2202.64 758.853 2202.64 767.603 Q2202.64 776.329 2199.56 780.936 Q2196.51 785.519 2190.7 785.519 Q2184.89 785.519 2181.81 780.936 Q2178.75 776.329 2178.75 767.603 Q2178.75 758.853 2181.81 754.269 Q2184.89 749.663 2190.7 749.663 Z" fill="#000000" fill-rule="evenodd" fill-opacity="1" /><path clip-path="url(#clip420)" d="M2220.86 753.367 Q2217.25 753.367 2215.42 756.931 Q2213.61 760.473 2213.61 767.603 Q2213.61 774.709 2215.42 778.274 Q2217.25 781.815 2220.86 781.815 Q2224.49 781.815 2226.3 778.274 Q2228.13 774.709 2228.13 767.603 Q2228.13 760.473 2226.3 756.931 Q2224.49 753.367 2220.86 753.367 M2220.86 749.663 Q2226.67 749.663 2229.72 754.269 Q2232.8 758.853 2232.8 767.603 Q2232.8 776.329 2229.72 780.936 Q2226.67 785.519 2220.86 785.519 Q2215.05 785.519 2211.97 780.936 Q2208.91 776.329 2208.91 767.603 Q2208.91 758.853 2211.97 754.269 Q2215.05 749.663 2220.86 749.663 Z" fill="#000000" fill-rule="evenodd" fill-opacity="1" /><path clip-path="url(#clip420)" d="M3072.47 780.913 L3080.11 780.913 L3080.11 754.547 L3071.8 756.214 L3071.8 751.955 L3080.06 750.288 L3084.74 750.288 L3084.74 780.913 L3092.38 780.913 L3092.38 784.848 L3072.47 784.848 L3072.47 780.913 Z" fill="#000000" fill-rule="evenodd" fill-opacity="1" /><path clip-path="url(#clip420)" d="M3101.87 750.288 L3120.23 750.288 L3120.23 754.223 L3106.15 754.223 L3106.15 762.695 Q3107.17 762.348 3108.19 762.186 Q3109.21 762.001 3110.23 762.001 Q3116.01 762.001 3119.39 765.172 Q3122.77 768.343 3122.77 773.76 Q3122.77 779.339 3119.3 782.44 Q3115.83 785.519 3109.51 785.519 Q3107.33 785.519 3105.06 785.149 Q3102.82 784.778 3100.41 784.038 L3100.41 779.339 Q3102.5 780.473 3104.72 781.028 Q3106.94 781.584 3109.42 781.584 Q3113.42 781.584 3115.76 779.478 Q3118.1 777.371 3118.1 773.76 Q3118.1 770.149 3115.76 768.042 Q3113.42 765.936 3109.42 765.936 Q3107.54 765.936 3105.67 766.353 Q3103.81 766.769 3101.87 767.649 L3101.87 750.288 Z" fill="#000000" fill-rule="evenodd" fill-opacity="1" /><path clip-path="url(#clip420)" d="M3141.99 753.367 Q3138.37 753.367 3136.55 756.931 Q3134.74 760.473 3134.74 767.603 Q3134.74 774.709 3136.55 778.274 Q3138.37 781.815 3141.99 781.815 Q3145.62 781.815 3147.43 778.274 Q3149.25 774.709 3149.25 767.603 Q3149.25 760.473 3147.43 756.931 Q3145.62 753.367 3141.99 753.367 M3141.99 749.663 Q3147.8 749.663 3150.85 754.269 Q3153.93 758.853 3153.93 767.603 Q3153.93 776.329 3150.85 780.936 Q3147.8 785.519 3141.99 785.519 Q3136.18 785.519 3133.1 780.936 Q3130.04 776.329 3130.04 767.603 Q3130.04 758.853 3133.1 754.269 Q3136.18 749.663 3141.99 749.663 Z" fill="#000000" fill-rule="evenodd" fill-opacity="1" /><path clip-path="url(#clip420)" d="M3172.15 753.367 Q3168.54 753.367 3166.71 756.931 Q3164.9 760.473 3164.9 767.603 Q3164.9 774.709 3166.71 778.274 Q3168.54 781.815 3172.15 781.815 Q3175.78 781.815 3177.59 778.274 Q3179.42 774.709 3179.42 767.603 Q3179.42 760.473 3177.59 756.931 Q3175.78 753.367 3172.15 753.367 M3172.15 749.663 Q3177.96 749.663 3181.01 754.269 Q3184.09 758.853 3184.09 767.603 Q3184.09 776.329 3181.01 780.936 Q3177.96 785.519 3172.15 785.519 Q3166.34 785.519 3163.26 780.936 Q3160.2 776.329 3160.2 767.603 Q3160.2 758.853 3163.26 754.269 Q3166.34 749.663 3172.15 749.663 Z" fill="#000000" fill-rule="evenodd" fill-opacity="1" /><polyline clip-path="url(#clip422)" style="stroke:#000000; stroke-linecap:round; stroke-linejoin:round; stroke-width:2; stroke-opacity:0.1; fill:none" points="192.191,716.048 3152.76,716.048 "/>
<polyline clip-path="url(#clip422)" style="stroke:#000000; stroke-linecap:round; stroke-linejoin:round; stroke-width:2; stroke-opacity:0.1; fill:none" points="192.191,599.936 3152.76,599.936 "/>
<polyline clip-path="url(#clip422)" style="stroke:#000000; stroke-linecap:round; stroke-linejoin:round; stroke-width:2; stroke-opacity:0.1; fill:none" points="192.191,483.824 3152.76,483.824 "/>
<polyline clip-path="url(#clip422)" style="stroke:#000000; stroke-linecap:round; stroke-linejoin:round; stroke-width:2; stroke-opacity:0.1; fill:none" points="192.191,367.713 3152.76,367.713 "/>
<polyline clip-path="url(#clip422)" style="stroke:#000000; stroke-linecap:round; stroke-linejoin:round; stroke-width:2; stroke-opacity:0.1; fill:none" points="192.191,251.601 3152.76,251.601 "/>
<polyline clip-path="url(#clip422)" style="stroke:#000000; stroke-linecap:round; stroke-linejoin:round; stroke-width:2; stroke-opacity:0.1; fill:none" points="192.191,135.489 3152.76,135.489 "/>
<polyline clip-path="url(#clip420)" style="stroke:#000000; stroke-linecap:round; stroke-linejoin:round; stroke-width:4; stroke-opacity:1; fill:none" points="192.191,716.048 192.191,47.2441 "/>
<polyline clip-path="url(#clip420)" style="stroke:#000000; stroke-linecap:round; stroke-linejoin:round; stroke-width:4; stroke-opacity:1; fill:none" points="192.191,716.048 211.088,716.048 "/>
<polyline clip-path="url(#clip420)" style="stroke:#000000; stroke-linecap:round; stroke-linejoin:round; stroke-width:4; stroke-opacity:1; fill:none" points="192.191,599.936 211.088,599.936 "/>
<polyline clip-path="url(#clip420)" style="stroke:#000000; stroke-linecap:round; stroke-linejoin:round; stroke-width:4; stroke-opacity:1; fill:none" points="192.191,483.824 211.088,483.824 "/>
<polyline clip-path="url(#clip420)" style="stroke:#000000; stroke-linecap:round; stroke-linejoin:round; stroke-width:4; stroke-opacity:1; fill:none" points="192.191,367.713 211.088,367.713 "/>
<polyline clip-path="url(#clip420)" style="stroke:#000000; stroke-linecap:round; stroke-linejoin:round; stroke-width:4; stroke-opacity:1; fill:none" points="192.191,251.601 211.088,251.601 "/>
<polyline clip-path="url(#clip420)" style="stroke:#000000; stroke-linecap:round; stroke-linejoin:round; stroke-width:4; stroke-opacity:1; fill:none" points="192.191,135.489 211.088,135.489 "/>
<path clip-path="url(#clip420)" d="M87.0151 701.847 Q83.404 701.847 81.5753 705.411 Q79.7697 708.953 79.7697 716.083 Q79.7697 723.189 81.5753 726.754 Q83.404 730.295 87.0151 730.295 Q90.6493 730.295 92.4548 726.754 Q94.2835 723.189 94.2835 716.083 Q94.2835 708.953 92.4548 705.411 Q90.6493 701.847 87.0151 701.847 M87.0151 698.143 Q92.8252 698.143 95.8808 702.749 Q98.9594 707.333 98.9594 716.083 Q98.9594 724.809 95.8808 729.416 Q92.8252 733.999 87.0151 733.999 Q81.2049 733.999 78.1262 729.416 Q75.0707 724.809 75.0707 716.083 Q75.0707 707.333 78.1262 702.749 Q81.2049 698.143 87.0151 698.143 Z" fill="#000000" fill-rule="evenodd" fill-opacity="1" /><path clip-path="url(#clip420)" d="M107.177 727.448 L112.061 727.448 L112.061 733.328 L107.177 733.328 L107.177 727.448 Z" fill="#000000" fill-rule="evenodd" fill-opacity="1" /><path clip-path="url(#clip420)" d="M132.246 701.847 Q128.635 701.847 126.807 705.411 Q125.001 708.953 125.001 716.083 Q125.001 723.189 126.807 726.754 Q128.635 730.295 132.246 730.295 Q135.881 730.295 137.686 726.754 Q139.515 723.189 139.515 716.083 Q139.515 708.953 137.686 705.411 Q135.881 701.847 132.246 701.847 M132.246 698.143 Q138.056 698.143 141.112 702.749 Q144.191 707.333 144.191 716.083 Q144.191 724.809 141.112 729.416 Q138.056 733.999 132.246 733.999 Q126.436 733.999 123.357 729.416 Q120.302 724.809 120.302 716.083 Q120.302 707.333 123.357 702.749 Q126.436 698.143 132.246 698.143 Z" fill="#000000" fill-rule="evenodd" fill-opacity="1" /><path clip-path="url(#clip420)" d="M82.0382 613.281 L98.3576 613.281 L98.3576 617.216 L76.4133 617.216 L76.4133 613.281 Q79.0753 610.526 83.6586 605.897 Q88.2651 601.244 89.4456 599.901 Q91.691 597.378 92.5706 595.642 Q93.4734 593.883 93.4734 592.193 Q93.4734 589.438 91.5289 587.702 Q89.6076 585.966 86.5058 585.966 Q84.3067 585.966 81.8531 586.73 Q79.4225 587.494 76.6447 589.045 L76.6447 584.323 Q79.4688 583.189 81.9225 582.61 Q84.3762 582.031 86.4132 582.031 Q91.7836 582.031 94.978 584.716 Q98.1724 587.401 98.1724 591.892 Q98.1724 594.022 97.3622 595.943 Q96.5752 597.841 94.4687 600.434 Q93.89 601.105 90.7882 604.323 Q87.6864 607.517 82.0382 613.281 Z" fill="#000000" fill-rule="evenodd" fill-opacity="1" /><path clip-path="url(#clip420)" d="M108.172 611.337 L113.057 611.337 L113.057 617.216 L108.172 617.216 L108.172 611.337 Z" fill="#000000" fill-rule="evenodd" fill-opacity="1" /><path clip-path="url(#clip420)" d="M123.288 582.656 L141.644 582.656 L141.644 586.591 L127.57 586.591 L127.57 595.063 Q128.589 594.716 129.607 594.554 Q130.626 594.369 131.644 594.369 Q137.431 594.369 140.811 597.54 Q144.191 600.712 144.191 606.128 Q144.191 611.707 140.718 614.809 Q137.246 617.887 130.927 617.887 Q128.751 617.887 126.482 617.517 Q124.237 617.147 121.83 616.406 L121.83 611.707 Q123.913 612.841 126.135 613.397 Q128.357 613.952 130.834 613.952 Q134.839 613.952 137.177 611.846 Q139.515 609.739 139.515 606.128 Q139.515 602.517 137.177 600.411 Q134.839 598.304 130.834 598.304 Q128.959 598.304 127.084 598.721 Q125.232 599.137 123.288 600.017 L123.288 582.656 Z" fill="#000000" fill-rule="evenodd" fill-opacity="1" /><path clip-path="url(#clip420)" d="M77.0614 466.544 L95.4178 466.544 L95.4178 470.48 L81.3438 470.48 L81.3438 478.952 Q82.3623 478.604 83.3808 478.442 Q84.3993 478.257 85.4178 478.257 Q91.2049 478.257 94.5845 481.429 Q97.9641 484.6 97.9641 490.016 Q97.9641 495.595 94.4919 498.697 Q91.0197 501.776 84.7003 501.776 Q82.5243 501.776 80.2558 501.405 Q78.0105 501.035 75.6031 500.294 L75.6031 495.595 Q77.6864 496.729 79.9086 497.285 Q82.1308 497.84 84.6077 497.84 Q88.6123 497.84 90.9502 495.734 Q93.2882 493.628 93.2882 490.016 Q93.2882 486.405 90.9502 484.299 Q88.6123 482.192 84.6077 482.192 Q82.7327 482.192 80.8577 482.609 Q79.0058 483.026 77.0614 483.905 L77.0614 466.544 Z" fill="#000000" fill-rule="evenodd" fill-opacity="1" /><path clip-path="url(#clip420)" d="M107.177 495.225 L112.061 495.225 L112.061 501.104 L107.177 501.104 L107.177 495.225 Z" fill="#000000" fill-rule="evenodd" fill-opacity="1" /><path clip-path="url(#clip420)" d="M132.246 469.623 Q128.635 469.623 126.807 473.188 Q125.001 476.729 125.001 483.859 Q125.001 490.966 126.807 494.53 Q128.635 498.072 132.246 498.072 Q135.881 498.072 137.686 494.53 Q139.515 490.966 139.515 483.859 Q139.515 476.729 137.686 473.188 Q135.881 469.623 132.246 469.623 M132.246 465.919 Q138.056 465.919 141.112 470.526 Q144.191 475.109 144.191 483.859 Q144.191 492.586 141.112 497.192 Q138.056 501.776 132.246 501.776 Q126.436 501.776 123.357 497.192 Q120.302 492.586 120.302 483.859 Q120.302 475.109 123.357 470.526 Q126.436 465.919 132.246 465.919 Z" fill="#000000" fill-rule="evenodd" fill-opacity="1" /><path clip-path="url(#clip420)" d="M76.8299 350.433 L99.052 350.433 L99.052 352.423 L86.5058 384.993 L81.6216 384.993 L93.4271 354.368 L76.8299 354.368 L76.8299 350.433 Z" fill="#000000" fill-rule="evenodd" fill-opacity="1" /><path clip-path="url(#clip420)" d="M108.172 379.113 L113.057 379.113 L113.057 384.993 L108.172 384.993 L108.172 379.113 Z" fill="#000000" fill-rule="evenodd" fill-opacity="1" /><path clip-path="url(#clip420)" d="M123.288 350.433 L141.644 350.433 L141.644 354.368 L127.57 354.368 L127.57 362.84 Q128.589 362.493 129.607 362.331 Q130.626 362.145 131.644 362.145 Q137.431 362.145 140.811 365.317 Q144.191 368.488 144.191 373.905 Q144.191 379.483 140.718 382.585 Q137.246 385.664 130.927 385.664 Q128.751 385.664 126.482 385.293 Q124.237 384.923 121.83 384.182 L121.83 379.483 Q123.913 380.618 126.135 381.173 Q128.357 381.729 130.834 381.729 Q134.839 381.729 137.177 379.622 Q139.515 377.516 139.515 373.905 Q139.515 370.294 137.177 368.187 Q134.839 366.081 130.834 366.081 Q128.959 366.081 127.084 366.497 Q125.232 366.914 123.288 367.794 L123.288 350.433 Z" fill="#000000" fill-rule="evenodd" fill-opacity="1" /><path clip-path="url(#clip420)" d="M47.6634 264.946 L55.3023 264.946 L55.3023 238.58 L46.9921 240.247 L46.9921 235.987 L55.256 234.321 L59.9319 234.321 L59.9319 264.946 L67.5707 264.946 L67.5707 268.881 L47.6634 268.881 L47.6634 264.946 Z" fill="#000000" fill-rule="evenodd" fill-opacity="1" /><path clip-path="url(#clip420)" d="M87.0151 237.399 Q83.404 237.399 81.5753 240.964 Q79.7697 244.506 79.7697 251.636 Q79.7697 258.742 81.5753 262.307 Q83.404 265.848 87.0151 265.848 Q90.6493 265.848 92.4548 262.307 Q94.2835 258.742 94.2835 251.636 Q94.2835 244.506 92.4548 240.964 Q90.6493 237.399 87.0151 237.399 M87.0151 233.696 Q92.8252 233.696 95.8808 238.302 Q98.9594 242.886 98.9594 251.636 Q98.9594 260.362 95.8808 264.969 Q92.8252 269.552 87.0151 269.552 Q81.2049 269.552 78.1262 264.969 Q75.0707 260.362 75.0707 251.636 Q75.0707 242.886 78.1262 238.302 Q81.2049 233.696 87.0151 233.696 Z" fill="#000000" fill-rule="evenodd" fill-opacity="1" /><path clip-path="url(#clip420)" d="M107.177 263.001 L112.061 263.001 L112.061 268.881 L107.177 268.881 L107.177 263.001 Z" fill="#000000" fill-rule="evenodd" fill-opacity="1" /><path clip-path="url(#clip420)" d="M132.246 237.399 Q128.635 237.399 126.807 240.964 Q125.001 244.506 125.001 251.636 Q125.001 258.742 126.807 262.307 Q128.635 265.848 132.246 265.848 Q135.881 265.848 137.686 262.307 Q139.515 258.742 139.515 251.636 Q139.515 244.506 137.686 240.964 Q135.881 237.399 132.246 237.399 M132.246 233.696 Q138.056 233.696 141.112 238.302 Q144.191 242.886 144.191 251.636 Q144.191 260.362 141.112 264.969 Q138.056 269.552 132.246 269.552 Q126.436 269.552 123.357 264.969 Q120.302 260.362 120.302 251.636 Q120.302 242.886 123.357 238.302 Q126.436 233.696 132.246 233.696 Z" fill="#000000" fill-rule="evenodd" fill-opacity="1" /><path clip-path="url(#clip420)" d="M48.6588 148.834 L56.2976 148.834 L56.2976 122.468 L47.9875 124.135 L47.9875 119.876 L56.2513 118.209 L60.9272 118.209 L60.9272 148.834 L68.5661 148.834 L68.5661 152.769 L48.6588 152.769 L48.6588 148.834 Z" fill="#000000" fill-rule="evenodd" fill-opacity="1" /><path clip-path="url(#clip420)" d="M82.0382 148.834 L98.3576 148.834 L98.3576 152.769 L76.4133 152.769 L76.4133 148.834 Q79.0753 146.079 83.6586 141.45 Q88.2651 136.797 89.4456 135.454 Q91.691 132.931 92.5706 131.195 Q93.4734 129.436 93.4734 127.746 Q93.4734 124.991 91.5289 123.255 Q89.6076 121.519 86.5058 121.519 Q84.3067 121.519 81.8531 122.283 Q79.4225 123.047 76.6447 124.598 L76.6447 119.876 Q79.4688 118.741 81.9225 118.163 Q84.3762 117.584 86.4132 117.584 Q91.7836 117.584 94.978 120.269 Q98.1724 122.954 98.1724 127.445 Q98.1724 129.575 97.3622 131.496 Q96.5752 133.394 94.4687 135.987 Q93.89 136.658 90.7882 139.876 Q87.6864 143.07 82.0382 148.834 Z" fill="#000000" fill-rule="evenodd" fill-opacity="1" /><path clip-path="url(#clip420)" d="M108.172 146.889 L113.057 146.889 L113.057 152.769 L108.172 152.769 L108.172 146.889 Z" fill="#000000" fill-rule="evenodd" fill-opacity="1" /><path clip-path="url(#clip420)" d="M123.288 118.209 L141.644 118.209 L141.644 122.144 L127.57 122.144 L127.57 130.616 Q128.589 130.269 129.607 130.107 Q130.626 129.922 131.644 129.922 Q137.431 129.922 140.811 133.093 Q144.191 136.264 144.191 141.681 Q144.191 147.26 140.718 150.362 Q137.246 153.44 130.927 153.44 Q128.751 153.44 126.482 153.07 Q124.237 152.7 121.83 151.959 L121.83 147.26 Q123.913 148.394 126.135 148.95 Q128.357 149.505 130.834 149.505 Q134.839 149.505 137.177 147.399 Q139.515 145.292 139.515 141.681 Q139.515 138.07 137.177 135.964 Q134.839 133.857 130.834 133.857 Q128.959 133.857 127.084 134.274 Q125.232 134.69 123.288 135.57 L123.288 118.209 Z" fill="#000000" fill-rule="evenodd" fill-opacity="1" /><polyline clip-path="url(#clip422)" style="stroke:#009af9; stroke-linecap:round; stroke-linejoin:round; stroke-width:2; stroke-opacity:1; fill:none" points="275.98,356.051 277.883,347.04 279.785,358.265 281.688,335.947 283.591,336.664 285.493,339.343 287.396,333.318 289.298,351.656 291.201,322.9 293.103,349.272 295.006,329.71 296.909,354.322 298.811,360.382 300.714,365.508 302.616,351.091 304.519,339.747 306.422,343.875 308.324,343.043 310.227,353.957 312.129,347.675 314.032,343.013 315.934,350.926 317.837,342.965 319.74,338.849 321.642,338.751 323.545,334.591 325.447,355.745 327.35,323.09 329.252,323.097 331.155,323.402 333.058,350.637 334.96,364.87 336.863,323.237 338.765,347.204 340.668,343.404 342.571,338.749 344.473,346.447 346.376,359.265 348.278,367.171 350.181,359.875 352.083,349.919 353.986,336.094 355.889,354.757 357.791,351.814 359.694,336.919 361.596,329.856 363.499,345.683 365.401,348.931 367.304,344.456 369.207,337.169 371.109,354.034 373.012,319.407 374.914,357.068 376.817,344.364 378.72,339.795 380.622,334.498 382.525,359.27 384.427,371.743 386.33,363.181 388.232,355.874 390.135,364.983 392.038,319.608 393.94,355.881 395.843,347.828 397.745,351.798 399.648,346.303 401.55,381.012 403.453,356.58 405.356,323.708 407.258,347.057 409.161,364.75 411.063,315.494 412.966,314.259 414.869,329.108 416.771,369.88 418.674,371.454 420.576,348.72 422.479,344.039 424.381,344.131 426.284,322.708 428.187,352.985 430.089,360.481 431.992,342.388 433.894,361.524 435.797,337.45 437.699,354.955 439.602,361.035 441.505,346.396 443.407,357.106 445.31,326.491 447.212,345.947 449.115,338.6 451.018,336.701 452.92,338.824 454.823,317.745 456.725,350.61 458.628,326.657 460.53,329.633 462.433,331.164 464.336,340.264 466.238,344.53 468.141,353.954 470.043,334.358 471.946,357.71 473.848,350.409 475.751,319.918 477.654,374.41 479.556,338.126 481.459,344.615 483.361,342.575 485.264,329.755 487.167,337.185 489.069,329.312 490.972,338.229 492.874,342.569 494.777,356.236 496.679,348.363 498.582,342.324 500.485,332.268 502.387,358.515 504.29,335.614 506.192,345.907 508.095,341.623 509.997,350.762 511.9,347.969 513.803,327.243 515.705,356.969 517.608,315.011 519.51,359.14 521.413,345.806 523.316,339.499 525.218,327.838 527.121,324.072 529.023,343.121 530.926,349.938 532.828,331.45 534.731,348.759 536.634,350.814 538.536,370.536 540.439,372.111 542.341,341.587 544.244,326.581 546.146,320.568 548.049,334.916 549.952,350.977 551.854,340.231 553.757,340.137 555.659,335.786 557.562,343.412 559.465,332.645 561.367,345.143 563.27,353.463 565.172,322.194 567.075,353.819 568.977,350.045 570.88,356.251 572.783,335.943 574.685,334.359 576.588,364.421 578.49,324.324 580.393,363.478 582.295,340.113 584.198,335.481 586.101,348.639 588.003,351.532 589.906,359.018 591.808,354.275 593.711,371.284 595.614,342.399 597.516,352.308 599.419,329.267 601.321,318.847 603.224,369.788 605.126,335.429 607.029,362.376 608.932,365.526 610.834,360.363 612.737,346.085 614.639,343.274 616.542,345.371 618.444,352.84 620.347,356.201 622.25,350.828 624.152,344.959 626.055,362.69 627.957,336.257 629.86,350.338 631.763,350.544 633.665,325.969 635.568,363.264 637.47,373.13 639.373,317.173 641.275,365.677 643.178,344.282 645.081,342.769 646.983,334.695 648.886,326.027 650.788,347.826 652.691,352.17 654.593,354.533 656.496,344.247 658.399,351.873 660.301,352.198 662.204,340.065 664.106,340.054 666.009,371.24 667.912,357.834 669.814,356.415 671.717,353.759 673.619,318.165 675.522,347.078 677.424,364.389 679.327,362.749 681.23,341.905 683.132,331.302 685.035,327.059 686.937,340.588 688.84,355.469 690.742,350.174 692.645,346.162 694.548,346.189 696.45,367.681 698.353,352.94 700.255,333.973 702.158,346.942 704.061,330.02 705.963,336.241 707.866,331.067 709.768,331.219 711.671,331.334 713.573,352.828 715.476,360.877 717.379,339.194 719.281,328.385 721.184,347.26 723.086,344.564 724.989,336.52 726.891,335.389 728.794,348.159 730.697,341.327 732.599,346.375 734.502,337.836 736.404,318.314 738.307,358.585 740.21,358.948 742.112,345.331 744.015,327.584 745.917,361.208 747.82,351.09 749.722,332.709 751.625,329.84 753.528,343.157 755.43,360.617 757.333,318.256 759.235,328.387 761.138,345.872 763.041,357.578 764.943,357.838 766.846,361.916 768.748,363.178 770.651,333.563 772.553,327.795 774.456,326.714 776.359,329.823 778.261,358.249 780.164,357.458 782.066,321.074 783.969,331.871 785.871,348.899 787.774,349.83 789.677,347.951 791.579,353.985 793.482,340.685 795.384,323.092 797.287,355.457 799.19,369.244 801.092,323.643 802.995,328.972 804.897,340.279 806.8,329.291 808.702,357.882 810.605,330.6 812.508,352.824 814.41,355.348 816.313,336.35 818.215,335.893 820.118,338.215 822.02,325.602 823.923,329.218 825.826,344.37 827.728,329.856 829.631,346.775 831.533,345.478 833.436,339.795 835.339,354.295 837.241,342.061 839.144,354.334 841.046,336.102 842.949,326.425 844.851,358.309 846.754,337.822 848.657,340.431 850.559,365.981 852.462,324.186 854.364,328.654 856.267,332.547 858.169,335.72 860.072,335.483 861.975,322.536 863.877,321.649 865.78,343.281 867.682,349.638 869.585,352.534 871.488,353.164 873.39,346.746 875.293,345.276 877.195,349.241 879.098,352.345 881,333.848 882.903,346.929 884.806,332.313 886.708,338.272 888.611,354.726 890.513,330.19 892.416,341.364 894.318,355.542 896.221,324.197 898.124,365.051 900.026,340.808 901.929,364.931 903.831,344.989 905.734,338.36 907.637,365.37 909.539,328.012 911.442,333.999 913.344,351.395 915.247,356.806 917.149,332.666 919.052,353.385 920.955,345.017 922.857,338.663 924.76,337.501 926.662,350.498 928.565,343.442 930.467,370.32 932.37,360.763 934.273,367.007 936.175,340.356 938.078,359.532 939.98,347.165 941.883,338.103 943.786,331.266 945.688,325.591 947.591,338.859 949.493,346.183 951.396,330.465 953.298,346.063 955.201,343.037 957.104,345.334 959.006,342.347 960.909,344.171 962.811,352.18 964.714,355.676 966.616,347.408 968.519,341.264 970.422,341.995 972.324,355.858 974.227,338.63 976.129,358.056 978.032,326.825 979.935,351.825 981.837,352.838 983.74,322.297 985.642,356.886 987.545,331.191 989.447,359.502 991.35,347.067 993.253,328.503 995.155,350.217 997.058,329.155 998.96,326.891 1000.86,360.746 1002.77,347.667 1004.67,345.416 1006.57,347.125 1008.47,350.633 1010.38,364.08 1012.28,342.268 1014.18,359.149 1016.08,323.006 1017.99,336.116 1019.89,329.794 1021.79,353.851 1023.69,357.904 1025.6,334.081 1027.5,334.03 1029.4,340.636 1031.3,378.312 1033.21,319.453 1035.11,337.374 1037.01,343.151 1038.91,326.687 1040.82,327.339 1042.72,336.009 1044.62,352.351 1046.52,333.556 1048.43,338.996 1050.33,347.567 1052.23,355.743 1054.14,363.196 1056.04,333.766 1057.94,356.019 1059.84,338.69 1061.75,345.095 1063.65,351.139 1065.55,337.072 1067.45,340.99 1069.36,357.72 1071.26,326.441 1073.16,345.622 1075.06,316.312 1076.97,357.635 1078.87,343.33 1080.77,342.697 1082.67,368.108 1084.58,322.624 1086.48,337.835 1088.38,329.577 1090.28,350.734 1092.19,354.091 1094.09,357.323 1095.99,339.335 1097.89,349.401 1099.8,342.382 1101.7,341.75 1103.6,352.515 1105.5,358.592 1107.41,359.308 1109.31,326.706 1111.21,355.052 1113.12,345.687 1115.02,344.807 1116.92,331.599 1118.82,328.577 1120.73,349.53 1122.63,345.611 1124.53,343.286 1126.43,348.356 1128.34,343.639 1130.24,355.198 1132.14,332.327 1134.04,363.719 1135.95,343.384 1137.85,333.754 1139.75,357.175 1141.65,345.137 1143.56,357.316 1145.46,331.271 1147.36,352.093 1149.26,344.613 1151.17,351.074 1153.07,339.693 1154.97,351.916 1156.87,336.634 1158.78,338.537 1160.68,355.274 1162.58,358.17 1164.48,327.607 1166.39,339.946 1168.29,352.92 1170.19,353.983 1172.09,343.132 1174,325.082 1175.9,336.468 1177.8,335.212 1179.71,330.113 1181.61,315.591 1183.51,372.883 1185.41,335.581 1187.32,335.298 1189.22,340.382 1191.12,329.627 1193.02,339.404 1194.93,337.344 1196.83,327.813 1198.73,331.774 1200.63,339.161 1202.54,354.797 1204.44,335.754 1206.34,355.756 1208.24,365.459 1210.15,324.536 1212.05,351.528 1213.95,347.897 1215.85,343.817 1217.76,357.141 1219.66,322.794 1221.56,332.547 1223.46,354.499 1225.37,335.144 1227.27,334.929 1229.17,342.278 1231.07,350.94 1232.98,342.842 1234.88,345.396 1236.78,328.302 1238.69,348.062 1240.59,346.031 1242.49,352.732 1244.39,331.162 1246.3,354.514 1248.2,345.942 1250.1,330.875 1252,344.146 1253.91,344.214 1255.81,357.139 1257.71,351.738 1259.61,314.801 1261.52,343.432 1263.42,349.883 1265.32,352.075 1267.22,348.759 1269.13,341.995 1271.03,340.563 1272.93,342.989 1274.83,338.985 1276.74,343.723 1278.64,354.336 1280.54,354.968 1282.44,342.881 1284.35,335.07 1286.25,341.174 1288.15,332.613 1290.05,331.846 1291.96,364.295 1293.86,334.684 1295.76,328.13 1297.67,358.488 1299.57,359.093 1301.47,341.084 1303.37,351.087 1305.28,341.027 1307.18,329.22 1309.08,359.63 1310.98,341.492 1312.89,340.184 1314.79,331.719 1316.69,339.187 1318.59,349.342 1320.5,336.06 1322.4,333.862 1324.3,333.297 1326.2,350.727 1328.11,351.259 1330.01,344.454 1331.91,346.835 1333.81,342.952 1335.72,357.182 1337.62,344.206 1339.52,350.06 1341.42,320.694 1343.33,310.179 1345.23,335.068 1347.13,335.182 1349.03,341.295 1350.94,336.384 1352.84,357.779 1354.74,331.453 1356.65,336.455 1358.55,332.236 1360.45,363.87 1362.35,332.32 1364.26,358.838 1366.16,356.992 1368.06,359.883 1369.96,330.586 1371.87,333.84 1373.77,338.744 1375.67,351.093 1377.57,354.364 1379.48,344.877 1381.38,352.473 1383.28,338.513 1385.18,355.845 1387.09,333.716 1388.99,337.409 1390.89,356.881 1392.79,339.739 1394.7,345.313 1396.6,332.72 1398.5,338.609 1400.4,337.073 1402.31,335.746 1404.21,335.327 1406.11,361.205 1408.01,333.32 1409.92,340.7 1411.82,348.208 1413.72,344.345 1415.63,345.127 1417.53,344.74 1419.43,355.625 1421.33,349.112 1423.24,357.203 1425.14,333.224 1427.04,350.779 1428.94,360.741 1430.85,346.307 1432.75,332.577 1434.65,338.43 1436.55,350.286 1438.46,356.853 1440.36,342.598 1442.26,350.813 1444.16,356.549 1446.07,351.715 1447.97,366.983 1449.87,319.713 1451.77,319.931 1453.68,367.968 1455.58,379.055 1457.48,365.436 1459.38,353.044 1461.29,335.46 1463.19,346.9 1465.09,313.424 1466.99,370.188 1468.9,354.663 1470.8,342.117 1472.7,335.566 1474.61,341.743 1476.51,337.728 1478.41,350.775 1480.31,328.169 1482.22,365.327 1484.12,323.354 1486.02,359.464 1487.92,353.109 1489.83,345.487 1491.73,331.317 1493.63,345.307 1495.53,349.841 1497.44,348.569 1499.34,342.402 1501.24,338.95 1503.14,338.871 1505.05,335.472 1506.95,357.324 1508.85,348.429 1510.75,360.593 1512.66,348.11 1514.56,344.5 1516.46,347.538 1518.36,356.364 1520.27,352.381 1522.17,360.272 1524.07,330.512 1525.97,366.896 1527.88,320.335 1529.78,356.619 1531.68,341.683 1533.59,342.402 1535.49,340.605 1537.39,340.609 1539.29,339.2 1541.2,354.548 1543.1,334.147 1545,330.737 1546.9,327.077 1548.81,336.078 1550.71,355.405 1552.61,360.284 1554.51,338.855 1556.42,344.138 1558.32,325.94 1560.22,331.908 1562.12,349.151 1564.03,371.141 1565.93,325.644 1567.83,323.844 1569.73,326.698 1571.64,341.285 1573.54,341.742 1575.44,353.245 1577.34,348.202 1579.25,349.64 1581.15,341 1583.05,325.412 1584.95,343.839 1586.86,340.609 1588.76,351.32 1590.66,359.188 1592.56,339.282 1594.47,349.814 1596.37,343.718 1598.27,354.147 1600.18,343.844 1602.08,342.925 1603.98,347.552 1605.88,366.197 1607.79,323.081 1609.69,338.392 1611.59,333.643 1613.49,340.176 1615.4,357.332 1617.3,339.359 1619.2,348.036 1621.1,335.613 1623.01,327.97 1624.91,352.315 1626.81,345.59 1628.71,356.45 1630.62,341.726 1632.52,358.719 1634.42,363.189 1636.32,367.243 1638.23,318.581 1640.13,323.221 1642.03,344.462 1643.93,353.29 1645.84,337.973 1647.74,350.349 1649.64,331.396 1651.54,325.791 1653.45,367.552 1655.35,359.936 1657.25,347.83 1659.16,352.235 1661.06,363.848 1662.96,376.646 1664.86,314.092 1666.77,325.702 1668.67,341.587 1670.57,342.814 1672.47,354.356 1674.38,341.281 1676.28,340.27 1678.18,359.208 1680.08,334.406 1681.99,331.951 1683.89,320.286 1685.79,345.491 1687.69,320.713 1689.6,339.731 1691.5,332.59 1693.4,342.538 1695.3,329.08 1697.21,338.893 1699.11,350.531 1701.01,345.985 1702.91,337.313 1704.82,362.907 1706.72,348.987 1708.62,345.137 1710.52,343.947 1712.43,356.539 1714.33,350.478 1716.23,333.681 1718.14,361.425 1720.04,323.194 1721.94,359.371 1723.84,358.683 1725.75,361.37 1727.65,335.045 1729.55,335.159 1731.45,350.977 1733.36,342.467 1735.26,342.549 1737.16,361.532 1739.06,317.865 1740.97,359.403 1742.87,346.279 1744.77,339.977 1746.67,328.648 1748.58,356.302 1750.48,353.315 1752.38,358.548 1754.28,337.603 1756.19,361.43 1758.09,348.116 1759.99,349.728 1761.89,340.393 1763.8,358.921 1765.7,340.635 1767.6,343.24 1769.5,352.161 1771.41,354.165 1773.31,355.53 1775.21,352.033 1777.12,325.19 1779.02,348.326 1780.92,349.671 1782.82,326.296 1784.73,330.33 1786.63,329.359 1788.53,346.595 1790.43,361.745 1792.34,309.683 1794.24,342.154 1796.14,353.892 1798.04,343.242 1799.95,337.693 1801.85,330.183 1803.75,357.007 1805.65,330.014 1807.56,344.438 1809.46,350.858 1811.36,334.707 1813.26,325.103 1815.17,362.015 1817.07,326.74 1818.97,341.201 1820.87,344.051 1822.78,336.86 1824.68,358.992 1826.58,338.024 1828.48,340.504 1830.39,347.884 1832.29,340.841 1834.19,340.02 1836.1,369.131 1838,330.371 1839.9,353.31 1841.8,331.071 1843.71,332.668 1845.61,359.266 1847.51,336.764 1849.41,349.207 1851.32,334.147 1853.22,347.275 1855.12,349.191 1857.02,346.92 1858.93,352.488 1860.83,331.226 1862.73,343.446 1864.63,348.717 1866.54,352.573 1868.44,327.417 1870.34,371.489 1872.24,332.335 1874.15,362.097 1876.05,333.313 1877.95,338.061 1879.85,349.659 1881.76,350.181 1883.66,347.968 1885.56,347.358 1887.46,331.962 1889.37,326.199 1891.27,346.284 1893.17,331.64 1895.08,339.118 1896.98,348.165 1898.88,349.131 1900.78,348.728 1902.69,344.784 1904.59,359.361 1906.49,357.562 1908.39,322.106 1910.3,354.014 1912.2,334.773 1914.1,340.028 1916,353.022 1917.91,335.009 1919.81,334.859 1921.71,338.944 1923.61,333.768 1925.52,334.643 1927.42,335.157 1929.32,351.378 1931.22,359.193 1933.13,352.586 1935.03,357.962 1936.93,344.815 1938.83,343.98 1940.74,342.681 1942.64,334.387 1944.54,332.828 1946.44,357.67 1948.35,362.526 1950.25,346.237 1952.15,340.634 1954.05,340.01 1955.96,354.556 1957.86,366.131 1959.76,328.199 1961.67,357.116 1963.57,344.898 1965.47,356.744 1967.37,363.127 1969.28,374.02 1971.18,321.671 1973.08,332.171 1974.98,363.821 1976.89,336.18 1978.79,356.543 1980.69,346.045 1982.59,318.879 1984.5,373.409 1986.4,336.919 1988.3,363.519 1990.2,346.368 1992.11,365.408 1994.01,340.962 1995.91,334.9 1997.81,346.125 1999.72,343.006 2001.62,346.565 2003.52,346.314 2005.42,363.519 2007.33,347.194 2009.23,347.525 2011.13,354.884 2013.03,340.956 2014.94,349.196 2016.84,332.239 2018.74,333.853 2020.65,356.843 2022.55,342.718 2024.45,345.72 2026.35,344.712 2028.26,347.053 2030.16,362.291 2032.06,345.367 2033.96,346.62 2035.87,370.105 2037.77,337.189 2039.67,352.5 2041.57,339.342 2043.48,343.875 2045.38,332.664 2047.28,351.109 2049.18,343.208 2051.09,338.464 2052.99,359.529 2054.89,333.325 2056.79,333.276 2058.7,351.603 2060.6,327.57 2062.5,333.303 2064.4,339.046 2066.31,357.516 2068.21,350.209 2070.11,347.193 2072.01,342.653 2073.92,345.09 2075.82,344.431 2077.72,334.247 2079.63,359.458 2081.53,320.688 2083.43,366.405 2085.33,316.441 2087.24,359.825 2089.14,356.408 2091.04,330.121 2092.94,336.232 2094.85,347.775 2096.75,354.419 2098.65,350.162 2100.55,344.591 2102.46,336.673 2104.36,368.486 2106.26,326.615 2108.16,333.652 2110.07,353.467 2111.97,335.503 2113.87,313.616 2115.77,339.72 2117.68,330.499 2119.58,339.617 2121.48,338.862 2123.38,359.884 2125.29,358.298 2127.19,328.42 2129.09,360.391 2130.99,334.559 2132.9,348.142 2134.8,343.538 2136.7,354.27 2138.61,332.594 2140.51,344.27 2142.41,351.149 2144.31,349.58 2146.22,339.134 2148.12,326.488 2150.02,347.721 2151.92,367.072 2153.83,341.336 2155.73,330.772 2157.63,340.405 2159.53,353.806 2161.44,365.57 2163.34,362.361 2165.24,346.726 2167.14,344.322 2169.05,348.194 2170.95,336.365 2172.85,357.954 2174.75,333.324 2176.66,341.847 2178.56,332.115 2180.46,351.362 2182.36,360.776 2184.27,360.818 2186.17,360.504 2188.07,360.123 2189.97,348.784 2191.88,331.352 2193.78,333.04 2195.68,358.655 2197.59,332.392 2199.49,360.108 2201.39,353.062 2203.29,345.069 2205.2,360.041 2207.1,355.271 2209,350.558 2210.9,336.288 2212.81,327.972 2214.71,342.032 2216.61,340.685 2218.51,342.017 2220.42,356.762 2222.32,361.348 2224.22,344.488 2226.12,351.511 2228.03,358.645 2229.93,358.268 2231.83,345.114 2233.73,337.715 2235.64,354.818 2237.54,346.747 2239.44,339.449 2241.34,359.838 2243.25,319.93 2245.15,327.176 2247.05,325.206 2248.95,356.971 2250.86,336.696 2252.76,354.891 2254.66,344.432 2256.57,328.844 2258.47,345.739 2260.37,329.18 2262.27,340.865 2264.18,340.432 2266.08,332.011 2267.98,355.461 2269.88,339.714 2271.79,352.893 2273.69,357.667 2275.59,348.745 2277.49,332.533 2279.4,328.477 2281.3,328.521 2283.2,344.739 2285.1,343.045 2287.01,352.682 2288.91,350.643 2290.81,351.282 2292.71,329.204 2294.62,356.009 2296.52,333.084 2298.42,331.019 2300.32,358.285 2302.23,359.046 2304.13,330.037 2306.03,354.326 2307.93,338.408 2309.84,348.027 2311.74,353.182 2313.64,338.118 2315.55,340.292 2317.45,333.304 2319.35,331.858 2321.25,347.385 2323.16,353.531 2325.06,332.81 2326.96,348.154 2328.86,366.235 2330.77,331.226 2332.67,332.274 2334.57,327.419 2336.47,358.967 2338.38,359.507 2340.28,358.267 2342.18,341.809 2344.08,342.603 2345.99,347.123 2347.89,347.558 2349.79,348.269 2351.69,344.482 2353.6,348.315 2355.5,339.518 2357.4,342.358 2359.3,357.402 2361.21,342.675 2363.11,346.586 2365.01,329.873 2366.91,353.971 2368.82,355.025 2370.72,335.88 2372.62,345.584 2374.52,331.39 2376.43,346.817 2378.33,340.263 2380.23,329.29 2382.14,322.713 2384.04,360.58 2385.94,370.926 2387.84,311.499 2389.75,376.902 2391.65,329.191 2393.55,351.424 2395.45,335.658 2397.36,329.596 2399.26,362.038 2401.16,327.644 2403.06,359.105 2404.97,355.318 2406.87,328.873 2408.77,336.806 2410.67,328.417 2412.58,355.736 2414.48,345.11 2416.38,338.499 2418.28,336.93 2420.19,326.294 2422.09,344.627 2423.99,327.452 2425.89,334.084 2427.8,341.28 2429.7,342.963 2431.6,336.07 2433.5,338.256 2435.41,330.764 2437.31,333.841 2439.21,353.755 2441.12,365.048 2443.02,332.157 2444.92,321.217 2446.82,321.962 2448.73,353.196 2450.63,359.431 2452.53,338.288 2454.43,358.334 2456.34,335.426 2458.24,329.527 2460.14,349.205 2462.04,342.345 2463.95,336.403 2465.85,380.941 2467.75,341.262 2469.65,364.444 2471.56,357.163 2473.46,348.9 2475.36,345.577 2477.26,333.993 2479.17,369.28 2481.07,360.712 2482.97,334.877 2484.87,363.322 2486.78,360.505 2488.68,328.306 2490.58,336.269 2492.48,349.943 2494.39,350.662 2496.29,331.756 2498.19,336.474 2500.1,338.167 2502,366.067 2503.9,330.065 2505.8,350.864 2507.71,351.455 2509.61,322.66 2511.51,340.098 2513.41,308.438 2515.32,340.549 2517.22,333.712 2519.12,343.429 2521.02,357.068 2522.93,338.589 2524.83,346.304 2526.73,346.618 2528.63,351.485 2530.54,342.34 2532.44,348.824 2534.34,338.739 2536.24,354.195 2538.15,347.523 2540.05,340.77 2541.95,335.704 2543.85,336.484 2545.76,331.582 2547.66,322.588 2549.56,343.752 2551.46,335.153 2553.37,338.127 2555.27,333.235 2557.17,367.714 2559.08,319.469 2560.98,344.966 2562.88,348.456 2564.78,313.996 2566.69,329.34 2568.59,362.439 2570.49,355.928 2572.39,353.912 2574.3,338.286 2576.2,355.893 2578.1,353.333 2580,343.887 2581.91,360.51 2583.81,326.966 2585.71,347.895 2587.61,347.94 2589.52,337.928 2591.42,344.991 2593.32,352.506 2595.22,347.104 2597.13,334.474 2599.03,348.003 2600.93,334.448 2602.83,344.745 2604.74,356.225 2606.64,356.218 2608.54,352.392 2610.44,337.137 2612.35,329.132 2614.25,330.75 2616.15,352.134 2618.06,326.324 2619.96,346.26 2621.86,333.781 2623.76,357.012 2625.67,328.5 2627.57,332.964 2629.47,338.361 2631.37,340.127 2633.28,327.426 2635.18,361.072 2637.08,354.287 2638.98,311.31 2640.89,348.585 2642.79,330.956 2644.69,332.124 2646.59,353.937 2648.5,344.677 2650.4,342.534 2652.3,362.247 2654.2,352.626 2656.11,339.333 2658.01,350.992 2659.91,334.006 2661.81,350.014 2663.72,348.222 2665.62,350.023 2667.52,329.521 2669.42,324.57 2671.33,559.333 2673.23,539.029 2675.13,518.265 2677.04,527.569 2678.94,516.996 2680.84,513.62 2682.74,510.762 2684.65,541.324 2686.55,502.795 2688.45,560.924 2690.35,549.845 2692.26,525.319 2694.16,530.42 2696.06,538.314 2697.96,537.656 2699.87,536.074 2701.77,532.696 2703.67,531.81 2705.57,535.415 2707.48,529.697 2709.38,544.383 2711.28,532.754 2713.18,534.994 2715.09,531.825 2716.99,523.666 2718.89,523.385 2720.79,540.024 2722.7,521.328 2724.6,559.647 2726.5,516.235 2728.4,542.045 2730.31,525.841 2732.21,524.882 2734.11,533.728 2736.01,535.255 2737.92,524.774 2739.82,527.928 2741.72,529.222 2743.63,537.962 2745.53,527.414 2747.43,539.743 2749.33,507.849 2751.24,536.737 2753.14,534.956 2755.04,530.044 2756.94,534.47 2758.85,517.135 2760.75,525.207 2762.65,536.141 2764.55,504.381 2766.46,549.818 2768.36,514.652 2770.26,537.019 2772.16,528.069 2774.07,545.062 2775.97,517.518 2777.87,536.388 2779.77,529.236 2781.68,548.513 2783.58,559.989 2785.48,522.754 2787.38,519.175 2789.29,525.012 2791.19,524.8 2793.09,529.41 2794.99,536.162 2796.9,514.662 2798.8,537.396 2800.7,519.156 2802.61,545.12 2804.51,544.184 2806.41,509.985 2808.31,559.391 2810.22,540.49 2812.12,546.299 2814.02,537.776 2815.92,520.603 2817.83,527.148 2819.73,530.428 2821.63,540.829 2823.53,540.916 2825.44,542.248 2827.34,516.614 2829.24,516.17 2831.14,521.915 2833.05,541.723 2834.95,522.974 2836.85,537.653 2838.75,526.396 2840.66,523.063 2842.56,533.297 2844.46,530.299 2846.36,535.238 2848.27,549.75 2850.17,520.026 2852.07,534.168 2853.97,540.376 2855.88,549.972 2857.78,520.79 2859.68,549.222 2861.59,525.708 2863.49,507.438 2865.39,528.711 2867.29,535.602 2869.2,530.29 2871.1,519.808 2873,517.047 2874.9,523.484 2876.81,517.947 2878.71,546.867 2880.61,523.242 2882.51,526.74 2884.42,510.373 2886.32,539.802 2888.22,542.114 2890.12,526.269 2892.03,554.886 2893.93,538.559 2895.83,519.947 2897.73,509.336 2899.64,533.052 2901.54,537.088 2903.44,548.036 2905.34,529.093 2907.25,530.22 2909.15,524.991 2911.05,541.662 2912.95,546.044 2914.86,522.052 2916.76,524.383 2918.66,522.5 2920.57,520.399 2922.47,550.988 2924.37,518.466 2926.27,511.394 2928.18,511 2930.08,529.284 2931.98,526.147 2933.88,521.857 2935.79,527.283 2937.69,548.047 2939.59,509.38 2941.49,532.09 2943.4,539.707 2945.3,539.061 2947.2,523.717 2949.1,532.481 2951.01,530.778 2952.91,540.655 2954.81,536.827 2956.71,542.224 2958.62,537.287 2960.52,533.934 2962.42,514.303 2964.32,548.751 2966.23,503.129 2968.13,524.273 2970.03,541.755 2971.93,532.763 2973.84,548.197 2975.74,523.319 2977.64,544.985 2979.55,513.622 2981.45,554.136 2983.35,540.412 2985.25,538.454 2987.16,533.246 2989.06,524.72 2990.96,514.511 2992.86,530.501 2994.77,519.043 2996.67,536.612 2998.57,525.166 3000.47,530.551 3002.38,523.51 3004.28,538.604 3006.18,538.416 3008.08,525.864 3009.99,533.901 3011.89,534.228 3013.79,541.83 3015.69,526.39 3017.6,520.14 3019.5,517.381 3021.4,521.088 3023.3,534.263 3025.21,530.563 3027.11,526.162 3029.01,542.95 3030.91,545.106 3032.82,523.317 3034.72,534.817 3036.62,529.131 3038.53,523.925 3040.43,546.272 3042.33,552.953 3044.23,532.842 3046.14,515.648 3048.04,542.483 3049.94,531.455 3051.84,531.719 3053.75,551.364 3055.65,510.958 3057.55,520.955 3059.45,512.087 3061.36,513.867 3063.26,507.363 3065.16,516.28 3067.06,509.226 3068.97,546.982 "/>
<path clip-path="url(#clip420)" d="M2655.58 693.754 L3054.07 693.754 L3054.07 590.074 L2655.58 590.074  Z" fill="#ffffff" fill-rule="evenodd" fill-opacity="1"/>
<polyline clip-path="url(#clip420)" style="stroke:#000000; stroke-linecap:round; stroke-linejoin:round; stroke-width:4; stroke-opacity:1; fill:none" points="2655.58,693.754 3054.07,693.754 3054.07,590.074 2655.58,590.074 2655.58,693.754 "/>
<polyline clip-path="url(#clip420)" style="stroke:#009af9; stroke-linecap:round; stroke-linejoin:round; stroke-width:2; stroke-opacity:1; fill:none" points="2688.48,641.914 2885.85,641.914 "/>
<path clip-path="url(#clip420)" d="M2918.75 624.634 L2923.42 624.634 L2923.42 638.801 L2940.41 638.801 L2940.41 624.634 L2945.09 624.634 L2945.09 659.194 L2940.41 659.194 L2940.41 642.736 L2923.42 642.736 L2923.42 659.194 L2918.75 659.194 L2918.75 624.634 Z" fill="#000000" fill-rule="evenodd" fill-opacity="1" /><path clip-path="url(#clip420)" d="M2954.39 624.634 L2961.36 624.634 L2970.18 648.153 L2979.05 624.634 L2986.01 624.634 L2986.01 659.194 L2981.45 659.194 L2981.45 628.847 L2972.54 652.551 L2967.84 652.551 L2958.93 628.847 L2958.93 659.194 L2954.39 659.194 L2954.39 624.634 Z" fill="#000000" fill-rule="evenodd" fill-opacity="1" /><path clip-path="url(#clip420)" d="M3021.18 627.296 L3021.18 632.227 Q3018.81 630.028 3016.13 628.94 Q3013.47 627.852 3010.46 627.852 Q3004.53 627.852 3001.38 631.486 Q2998.24 635.097 2998.24 641.949 Q2998.24 648.778 3001.38 652.412 Q3004.53 656.023 3010.46 656.023 Q3013.47 656.023 3016.13 654.935 Q3018.81 653.847 3021.18 651.648 L3021.18 656.532 Q3018.72 658.199 3015.97 659.032 Q3013.24 659.866 3010.18 659.866 Q3002.33 659.866 2997.82 655.074 Q2993.31 650.259 2993.31 641.949 Q2993.31 633.616 2997.82 628.824 Q3002.33 624.009 3010.18 624.009 Q3013.28 624.009 3016.01 624.843 Q3018.77 625.653 3021.18 627.296 Z" fill="#000000" fill-rule="evenodd" fill-opacity="1" /></svg>
