<?xml version="1.0" encoding="utf-8"?>
<svg xmlns="http://www.w3.org/2000/svg" xmlns:xlink="http://www.w3.org/1999/xlink" width="800" height="200" viewBox="0 0 3200 800">
<defs>
  <clipPath id="clip620">
    <rect x="0" y="0" width="3200" height="800"/>
  </clipPath>
</defs>
<path clip-path="url(#clip620)" d="M0 800 L3200 800 L3200 0 L0 0  Z" fill="#ffffff" fill-rule="evenodd" fill-opacity="1"/>
<defs>
  <clipPath id="clip621">
    <rect x="640" y="0" width="2241" height="800"/>
  </clipPath>
</defs>
<path clip-path="url(#clip620)" d="M192.191 716.048 L3152.76 716.048 L3152.76 47.2441 L192.191 47.2441  Z" fill="#ffffff" fill-rule="evenodd" fill-opacity="1"/>
<defs>
  <clipPath id="clip622">
    <rect x="192" y="47" width="2962" height="670"/>
  </clipPath>
</defs>
<polyline clip-path="url(#clip622)" style="stroke:#000000; stroke-linecap:round; stroke-linejoin:round; stroke-width:2; stroke-opacity:0.1; fill:none" points="275.096,716.048 275.096,47.2441 "/>
<polyline clip-path="url(#clip622)" style="stroke:#000000; stroke-linecap:round; stroke-linejoin:round; stroke-width:2; stroke-opacity:0.1; fill:none" points="1159.23,716.048 1159.23,47.2441 "/>
<polyline clip-path="url(#clip622)" style="stroke:#000000; stroke-linecap:round; stroke-linejoin:round; stroke-width:2; stroke-opacity:0.1; fill:none" points="2043.37,716.048 2043.37,47.2441 "/>
<polyline clip-path="url(#clip622)" style="stroke:#000000; stroke-linecap:round; stroke-linejoin:round; stroke-width:2; stroke-opacity:0.1; fill:none" points="2927.5,716.048 2927.5,47.2441 "/>
<polyline clip-path="url(#clip620)" style="stroke:#000000; stroke-linecap:round; stroke-linejoin:round; stroke-width:4; stroke-opacity:1; fill:none" points="192.191,716.048 3152.76,716.048 "/>
<polyline clip-path="url(#clip620)" style="stroke:#000000; stroke-linecap:round; stroke-linejoin:round; stroke-width:4; stroke-opacity:1; fill:none" points="275.096,716.048 275.096,697.15 "/>
<polyline clip-path="url(#clip620)" style="stroke:#000000; stroke-linecap:round; stroke-linejoin:round; stroke-width:4; stroke-opacity:1; fill:none" points="1159.23,716.048 1159.23,697.15 "/>
<polyline clip-path="url(#clip620)" style="stroke:#000000; stroke-linecap:round; stroke-linejoin:round; stroke-width:4; stroke-opacity:1; fill:none" points="2043.37,716.048 2043.37,697.15 "/>
<polyline clip-path="url(#clip620)" style="stroke:#000000; stroke-linecap:round; stroke-linejoin:round; stroke-width:4; stroke-opacity:1; fill:none" points="2927.5,716.048 2927.5,697.15 "/>
<path clip-path="url(#clip620)" d="M275.096 753.367 Q271.485 753.367 269.656 756.931 Q267.851 760.473 267.851 767.603 Q267.851 774.709 269.656 778.274 Q271.485 781.815 275.096 781.815 Q278.73 781.815 280.536 778.274 Q282.365 774.709 282.365 767.603 Q282.365 760.473 280.536 756.931 Q278.73 753.367 275.096 753.367 M275.096 749.663 Q280.906 749.663 283.962 754.269 Q287.041 758.853 287.041 767.603 Q287.041 776.329 283.962 780.936 Q280.906 785.519 275.096 785.519 Q269.286 785.519 266.207 780.936 Q263.152 776.329 263.152 767.603 Q263.152 758.853 266.207 754.269 Q269.286 749.663 275.096 749.663 Z" fill="#000000" fill-rule="evenodd" fill-opacity="1" /><path clip-path="url(#clip620)" d="M1103.76 780.913 L1111.4 780.913 L1111.4 754.547 L1103.09 756.214 L1103.09 751.955 L1111.35 750.288 L1116.03 750.288 L1116.03 780.913 L1123.67 780.913 L1123.67 784.848 L1103.76 784.848 L1103.76 780.913 Z" fill="#000000" fill-rule="evenodd" fill-opacity="1" /><path clip-path="url(#clip620)" d="M1143.11 753.367 Q1139.5 753.367 1137.67 756.931 Q1135.86 760.473 1135.86 767.603 Q1135.86 774.709 1137.67 778.274 Q1139.5 781.815 1143.11 781.815 Q1146.74 781.815 1148.55 778.274 Q1150.38 774.709 1150.38 767.603 Q1150.38 760.473 1148.55 756.931 Q1146.74 753.367 1143.11 753.367 M1143.11 749.663 Q1148.92 749.663 1151.98 754.269 Q1155.05 758.853 1155.05 767.603 Q1155.05 776.329 1151.98 780.936 Q1148.92 785.519 1143.11 785.519 Q1137.3 785.519 1134.22 780.936 Q1131.17 776.329 1131.17 767.603 Q1131.17 758.853 1134.22 754.269 Q1137.3 749.663 1143.11 749.663 Z" fill="#000000" fill-rule="evenodd" fill-opacity="1" /><path clip-path="url(#clip620)" d="M1173.27 753.367 Q1169.66 753.367 1167.83 756.931 Q1166.03 760.473 1166.03 767.603 Q1166.03 774.709 1167.83 778.274 Q1169.66 781.815 1173.27 781.815 Q1176.91 781.815 1178.71 778.274 Q1180.54 774.709 1180.54 767.603 Q1180.54 760.473 1178.71 756.931 Q1176.91 753.367 1173.27 753.367 M1173.27 749.663 Q1179.08 749.663 1182.14 754.269 Q1185.22 758.853 1185.22 767.603 Q1185.22 776.329 1182.14 780.936 Q1179.08 785.519 1173.27 785.519 Q1167.46 785.519 1164.38 780.936 Q1161.33 776.329 1161.33 767.603 Q1161.33 758.853 1164.38 754.269 Q1167.46 749.663 1173.27 749.663 Z" fill="#000000" fill-rule="evenodd" fill-opacity="1" /><path clip-path="url(#clip620)" d="M1203.43 753.367 Q1199.82 753.367 1197.99 756.931 Q1196.19 760.473 1196.19 767.603 Q1196.19 774.709 1197.99 778.274 Q1199.82 781.815 1203.43 781.815 Q1207.07 781.815 1208.87 778.274 Q1210.7 774.709 1210.7 767.603 Q1210.7 760.473 1208.87 756.931 Q1207.07 753.367 1203.43 753.367 M1203.43 749.663 Q1209.24 749.663 1212.3 754.269 Q1215.38 758.853 1215.38 767.603 Q1215.38 776.329 1212.3 780.936 Q1209.24 785.519 1203.43 785.519 Q1197.62 785.519 1194.54 780.936 Q1191.49 776.329 1191.49 767.603 Q1191.49 758.853 1194.54 754.269 Q1197.62 749.663 1203.43 749.663 Z" fill="#000000" fill-rule="evenodd" fill-opacity="1" /><path clip-path="url(#clip620)" d="M1991.98 780.913 L2008.3 780.913 L2008.3 784.848 L1986.35 784.848 L1986.35 780.913 Q1989.02 778.158 1993.6 773.528 Q1998.21 768.876 1999.39 767.533 Q2001.63 765.01 2002.51 763.274 Q2003.41 761.515 2003.41 759.825 Q2003.41 757.07 2001.47 755.334 Q1999.55 753.598 1996.45 753.598 Q1994.25 753.598 1991.79 754.362 Q1989.36 755.126 1986.59 756.677 L1986.59 751.955 Q1989.41 750.82 1991.86 750.242 Q1994.32 749.663 1996.35 749.663 Q2001.73 749.663 2004.92 752.348 Q2008.11 755.033 2008.11 759.524 Q2008.11 761.654 2007.3 763.575 Q2006.52 765.473 2004.41 768.066 Q2003.83 768.737 2000.73 771.954 Q1997.63 775.149 1991.98 780.913 Z" fill="#000000" fill-rule="evenodd" fill-opacity="1" /><path clip-path="url(#clip620)" d="M2028.11 753.367 Q2024.5 753.367 2022.67 756.931 Q2020.87 760.473 2020.87 767.603 Q2020.87 774.709 2022.67 778.274 Q2024.5 781.815 2028.11 781.815 Q2031.75 781.815 2033.55 778.274 Q2035.38 774.709 2035.38 767.603 Q2035.38 760.473 2033.55 756.931 Q2031.75 753.367 2028.11 753.367 M2028.11 749.663 Q2033.92 749.663 2036.98 754.269 Q2040.06 758.853 2040.06 767.603 Q2040.06 776.329 2036.98 780.936 Q2033.92 785.519 2028.11 785.519 Q2022.3 785.519 2019.23 780.936 Q2016.17 776.329 2016.17 767.603 Q2016.17 758.853 2019.23 754.269 Q2022.3 749.663 2028.11 749.663 Z" fill="#000000" fill-rule="evenodd" fill-opacity="1" /><path clip-path="url(#clip620)" d="M2058.28 753.367 Q2054.66 753.367 2052.84 756.931 Q2051.03 760.473 2051.03 767.603 Q2051.03 774.709 2052.84 778.274 Q2054.66 781.815 2058.28 781.815 Q2061.91 781.815 2063.72 778.274 Q2065.54 774.709 2065.54 767.603 Q2065.54 760.473 2063.72 756.931 Q2061.91 753.367 2058.28 753.367 M2058.28 749.663 Q2064.09 749.663 2067.14 754.269 Q2070.22 758.853 2070.22 767.603 Q2070.22 776.329 2067.14 780.936 Q2064.09 785.519 2058.28 785.519 Q2052.47 785.519 2049.39 780.936 Q2046.33 776.329 2046.33 767.603 Q2046.33 758.853 2049.39 754.269 Q2052.47 749.663 2058.28 749.663 Z" fill="#000000" fill-rule="evenodd" fill-opacity="1" /><path clip-path="url(#clip620)" d="M2088.44 753.367 Q2084.83 753.367 2083 756.931 Q2081.19 760.473 2081.19 767.603 Q2081.19 774.709 2083 778.274 Q2084.83 781.815 2088.44 781.815 Q2092.07 781.815 2093.88 778.274 Q2095.71 774.709 2095.71 767.603 Q2095.71 760.473 2093.88 756.931 Q2092.07 753.367 2088.44 753.367 M2088.44 749.663 Q2094.25 749.663 2097.3 754.269 Q2100.38 758.853 2100.38 767.603 Q2100.38 776.329 2097.3 780.936 Q2094.25 785.519 2088.44 785.519 Q2082.63 785.519 2079.55 780.936 Q2076.49 776.329 2076.49 767.603 Q2076.49 758.853 2079.55 754.269 Q2082.63 749.663 2088.44 749.663 Z" fill="#000000" fill-rule="evenodd" fill-opacity="1" /><path clip-path="url(#clip620)" d="M2886.19 766.214 Q2889.54 766.931 2891.42 769.2 Q2893.31 771.468 2893.31 774.802 Q2893.31 779.917 2889.8 782.718 Q2886.28 785.519 2879.8 785.519 Q2877.62 785.519 2875.31 785.079 Q2873.01 784.663 2870.56 783.806 L2870.56 779.292 Q2872.5 780.427 2874.82 781.005 Q2877.13 781.584 2879.66 781.584 Q2884.06 781.584 2886.35 779.848 Q2888.66 778.112 2888.66 774.802 Q2888.66 771.746 2886.51 770.033 Q2884.38 768.297 2880.56 768.297 L2876.53 768.297 L2876.53 764.454 L2880.75 764.454 Q2884.19 764.454 2886.02 763.089 Q2887.85 761.7 2887.85 759.107 Q2887.85 756.445 2885.95 755.033 Q2884.08 753.598 2880.56 753.598 Q2878.64 753.598 2876.44 754.015 Q2874.24 754.431 2871.6 755.311 L2871.6 751.144 Q2874.26 750.404 2876.58 750.033 Q2878.92 749.663 2880.98 749.663 Q2886.3 749.663 2889.4 752.093 Q2892.5 754.501 2892.5 758.621 Q2892.5 761.492 2890.86 763.482 Q2889.22 765.45 2886.19 766.214 Z" fill="#000000" fill-rule="evenodd" fill-opacity="1" /><path clip-path="url(#clip620)" d="M2912.18 753.367 Q2908.57 753.367 2906.74 756.931 Q2904.94 760.473 2904.94 767.603 Q2904.94 774.709 2906.74 778.274 Q2908.57 781.815 2912.18 781.815 Q2915.81 781.815 2917.62 778.274 Q2919.45 774.709 2919.45 767.603 Q2919.45 760.473 2917.62 756.931 Q2915.81 753.367 2912.18 753.367 M2912.18 749.663 Q2917.99 749.663 2921.05 754.269 Q2924.12 758.853 2924.12 767.603 Q2924.12 776.329 2921.05 780.936 Q2917.99 785.519 2912.18 785.519 Q2906.37 785.519 2903.29 780.936 Q2900.24 776.329 2900.24 767.603 Q2900.24 758.853 2903.29 754.269 Q2906.37 749.663 2912.18 749.663 Z" fill="#000000" fill-rule="evenodd" fill-opacity="1" /><path clip-path="url(#clip620)" d="M2942.34 753.367 Q2938.73 753.367 2936.9 756.931 Q2935.1 760.473 2935.1 767.603 Q2935.1 774.709 2936.9 778.274 Q2938.73 781.815 2942.34 781.815 Q2945.98 781.815 2947.78 778.274 Q2949.61 774.709 2949.61 767.603 Q2949.61 760.473 2947.78 756.931 Q2945.98 753.367 2942.34 753.367 M2942.34 749.663 Q2948.15 749.663 2951.21 754.269 Q2954.29 758.853 2954.29 767.603 Q2954.29 776.329 2951.21 780.936 Q2948.15 785.519 2942.34 785.519 Q2936.53 785.519 2933.45 780.936 Q2930.4 776.329 2930.4 767.603 Q2930.4 758.853 2933.45 754.269 Q2936.53 749.663 2942.34 749.663 Z" fill="#000000" fill-rule="evenodd" fill-opacity="1" /><path clip-path="url(#clip620)" d="M2972.5 753.367 Q2968.89 753.367 2967.06 756.931 Q2965.26 760.473 2965.26 767.603 Q2965.26 774.709 2967.06 778.274 Q2968.89 781.815 2972.5 781.815 Q2976.14 781.815 2977.94 778.274 Q2979.77 774.709 2979.77 767.603 Q2979.77 760.473 2977.94 756.931 Q2976.14 753.367 2972.5 753.367 M2972.5 749.663 Q2978.31 749.663 2981.37 754.269 Q2984.45 758.853 2984.45 767.603 Q2984.45 776.329 2981.37 780.936 Q2978.31 785.519 2972.5 785.519 Q2966.69 785.519 2963.62 780.936 Q2960.56 776.329 2960.56 767.603 Q2960.56 758.853 2963.62 754.269 Q2966.69 749.663 2972.5 749.663 Z" fill="#000000" fill-rule="evenodd" fill-opacity="1" /><polyline clip-path="url(#clip622)" style="stroke:#000000; stroke-linecap:round; stroke-linejoin:round; stroke-width:2; stroke-opacity:0.1; fill:none" points="192.191,716.048 3152.76,716.048 "/>
<polyline clip-path="url(#clip622)" style="stroke:#000000; stroke-linecap:round; stroke-linejoin:round; stroke-width:2; stroke-opacity:0.1; fill:none" points="192.191,599.936 3152.76,599.936 "/>
<polyline clip-path="url(#clip622)" style="stroke:#000000; stroke-linecap:round; stroke-linejoin:round; stroke-width:2; stroke-opacity:0.1; fill:none" points="192.191,483.824 3152.76,483.824 "/>
<polyline clip-path="url(#clip622)" style="stroke:#000000; stroke-linecap:round; stroke-linejoin:round; stroke-width:2; stroke-opacity:0.1; fill:none" points="192.191,367.713 3152.76,367.713 "/>
<polyline clip-path="url(#clip622)" style="stroke:#000000; stroke-linecap:round; stroke-linejoin:round; stroke-width:2; stroke-opacity:0.1; fill:none" points="192.191,251.601 3152.76,251.601 "/>
<polyline clip-path="url(#clip622)" style="stroke:#000000; stroke-linecap:round; stroke-linejoin:round; stroke-width:2; stroke-opacity:0.1; fill:none" points="192.191,135.489 3152.76,135.489 "/>
<polyline clip-path="url(#clip620)" style="stroke:#000000; stroke-linecap:round; stroke-linejoin:round; stroke-width:4; stroke-opacity:1; fill:none" points="192.191,716.048 192.191,47.2441 "/>
<polyline clip-path="url(#clip620)" style="stroke:#000000; stroke-linecap:round; stroke-linejoin:round; stroke-width:4; stroke-opacity:1; fill:none" points="192.191,716.048 211.088,716.048 "/>
<polyline clip-path="url(#clip620)" style="stroke:#000000; stroke-linecap:round; stroke-linejoin:round; stroke-width:4; stroke-opacity:1; fill:none" points="192.191,599.936 211.088,599.936 "/>
<polyline clip-path="url(#clip620)" style="stroke:#000000; stroke-linecap:round; stroke-linejoin:round; stroke-width:4; stroke-opacity:1; fill:none" points="192.191,483.824 211.088,483.824 "/>
<polyline clip-path="url(#clip620)" style="stroke:#000000; stroke-linecap:round; stroke-linejoin:round; stroke-width:4; stroke-opacity:1; fill:none" points="192.191,367.713 211.088,367.713 "/>
<polyline clip-path="url(#clip620)" style="stroke:#000000; stroke-linecap:round; stroke-linejoin:round; stroke-width:4; stroke-opacity:1; fill:none" points="192.191,251.601 211.088,251.601 "/>
<polyline clip-path="url(#clip620)" style="stroke:#000000; stroke-linecap:round; stroke-linejoin:round; stroke-width:4; stroke-opacity:1; fill:none" points="192.191,135.489 211.088,135.489 "/>
<path clip-path="url(#clip620)" d="M87.0151 701.847 Q83.404 701.847 81.5753 705.411 Q79.7697 708.953 79.7697 716.083 Q79.7697 723.189 81.5753 726.754 Q83.404 730.295 87.0151 730.295 Q90.6493 730.295 92.4548 726.754 Q94.2835 723.189 94.2835 716.083 Q94.2835 708.953 92.4548 705.411 Q90.6493 701.847 87.0151 701.847 M87.0151 698.143 Q92.8252 698.143 95.8808 702.749 Q98.9594 707.333 98.9594 716.083 Q98.9594 724.809 95.8808 729.416 Q92.8252 733.999 87.0151 733.999 Q81.2049 733.999 78.1262 729.416 Q75.0707 724.809 75.0707 716.083 Q75.0707 707.333 78.1262 702.749 Q81.2049 698.143 87.0151 698.143 Z" fill="#000000" fill-rule="evenodd" fill-opacity="1" /><path clip-path="url(#clip620)" d="M107.177 727.448 L112.061 727.448 L112.061 733.328 L107.177 733.328 L107.177 727.448 Z" fill="#000000" fill-rule="evenodd" fill-opacity="1" /><path clip-path="url(#clip620)" d="M132.246 701.847 Q128.635 701.847 126.807 705.411 Q125.001 708.953 125.001 716.083 Q125.001 723.189 126.807 726.754 Q128.635 730.295 132.246 730.295 Q135.881 730.295 137.686 726.754 Q139.515 723.189 139.515 716.083 Q139.515 708.953 137.686 705.411 Q135.881 701.847 132.246 701.847 M132.246 698.143 Q138.056 698.143 141.112 702.749 Q144.191 707.333 144.191 716.083 Q144.191 724.809 141.112 729.416 Q138.056 733.999 132.246 733.999 Q126.436 733.999 123.357 729.416 Q120.302 724.809 120.302 716.083 Q120.302 707.333 123.357 702.749 Q126.436 698.143 132.246 698.143 Z" fill="#000000" fill-rule="evenodd" fill-opacity="1" /><path clip-path="url(#clip620)" d="M82.0382 613.281 L98.3576 613.281 L98.3576 617.216 L76.4133 617.216 L76.4133 613.281 Q79.0753 610.526 83.6586 605.897 Q88.2651 601.244 89.4456 599.901 Q91.691 597.378 92.5706 595.642 Q93.4734 593.883 93.4734 592.193 Q93.4734 589.438 91.5289 587.702 Q89.6076 585.966 86.5058 585.966 Q84.3067 585.966 81.8531 586.73 Q79.4225 587.494 76.6447 589.045 L76.6447 584.323 Q79.4688 583.189 81.9225 582.61 Q84.3762 582.031 86.4132 582.031 Q91.7836 582.031 94.978 584.716 Q98.1724 587.401 98.1724 591.892 Q98.1724 594.022 97.3622 595.943 Q96.5752 597.841 94.4687 600.434 Q93.89 601.105 90.7882 604.323 Q87.6864 607.517 82.0382 613.281 Z" fill="#000000" fill-rule="evenodd" fill-opacity="1" /><path clip-path="url(#clip620)" d="M108.172 611.337 L113.057 611.337 L113.057 617.216 L108.172 617.216 L108.172 611.337 Z" fill="#000000" fill-rule="evenodd" fill-opacity="1" /><path clip-path="url(#clip620)" d="M123.288 582.656 L141.644 582.656 L141.644 586.591 L127.57 586.591 L127.57 595.063 Q128.589 594.716 129.607 594.554 Q130.626 594.369 131.644 594.369 Q137.431 594.369 140.811 597.54 Q144.191 600.712 144.191 606.128 Q144.191 611.707 140.718 614.809 Q137.246 617.887 130.927 617.887 Q128.751 617.887 126.482 617.517 Q124.237 617.147 121.83 616.406 L121.83 611.707 Q123.913 612.841 126.135 613.397 Q128.357 613.952 130.834 613.952 Q134.839 613.952 137.177 611.846 Q139.515 609.739 139.515 606.128 Q139.515 602.517 137.177 600.411 Q134.839 598.304 130.834 598.304 Q128.959 598.304 127.084 598.721 Q125.232 599.137 123.288 600.017 L123.288 582.656 Z" fill="#000000" fill-rule="evenodd" fill-opacity="1" /><path clip-path="url(#clip620)" d="M77.0614 466.544 L95.4178 466.544 L95.4178 470.48 L81.3438 470.48 L81.3438 478.952 Q82.3623 478.604 83.3808 478.442 Q84.3993 478.257 85.4178 478.257 Q91.2049 478.257 94.5845 481.429 Q97.9641 484.6 97.9641 490.016 Q97.9641 495.595 94.4919 498.697 Q91.0197 501.776 84.7003 501.776 Q82.5243 501.776 80.2558 501.405 Q78.0105 501.035 75.6031 500.294 L75.6031 495.595 Q77.6864 496.729 79.9086 497.285 Q82.1308 497.84 84.6077 497.84 Q88.6123 497.84 90.9502 495.734 Q93.2882 493.628 93.2882 490.016 Q93.2882 486.405 90.9502 484.299 Q88.6123 482.192 84.6077 482.192 Q82.7327 482.192 80.8577 482.609 Q79.0058 483.026 77.0614 483.905 L77.0614 466.544 Z" fill="#000000" fill-rule="evenodd" fill-opacity="1" /><path clip-path="url(#clip620)" d="M107.177 495.225 L112.061 495.225 L112.061 501.104 L107.177 501.104 L107.177 495.225 Z" fill="#000000" fill-rule="evenodd" fill-opacity="1" /><path clip-path="url(#clip620)" d="M132.246 469.623 Q128.635 469.623 126.807 473.188 Q125.001 476.729 125.001 483.859 Q125.001 490.966 126.807 494.53 Q128.635 498.072 132.246 498.072 Q135.881 498.072 137.686 494.53 Q139.515 490.966 139.515 483.859 Q139.515 476.729 137.686 473.188 Q135.881 469.623 132.246 469.623 M132.246 465.919 Q138.056 465.919 141.112 470.526 Q144.191 475.109 144.191 483.859 Q144.191 492.586 141.112 497.192 Q138.056 501.776 132.246 501.776 Q126.436 501.776 123.357 497.192 Q120.302 492.586 120.302 483.859 Q120.302 475.109 123.357 470.526 Q126.436 465.919 132.246 465.919 Z" fill="#000000" fill-rule="evenodd" fill-opacity="1" /><path clip-path="url(#clip620)" d="M76.8299 350.433 L99.052 350.433 L99.052 352.423 L86.5058 384.993 L81.6216 384.993 L93.4271 354.368 L76.8299 354.368 L76.8299 350.433 Z" fill="#000000" fill-rule="evenodd" fill-opacity="1" /><path clip-path="url(#clip620)" d="M108.172 379.113 L113.057 379.113 L113.057 384.993 L108.172 384.993 L108.172 379.113 Z" fill="#000000" fill-rule="evenodd" fill-opacity="1" /><path clip-path="url(#clip620)" d="M123.288 350.433 L141.644 350.433 L141.644 354.368 L127.57 354.368 L127.57 362.84 Q128.589 362.493 129.607 362.331 Q130.626 362.145 131.644 362.145 Q137.431 362.145 140.811 365.317 Q144.191 368.488 144.191 373.905 Q144.191 379.483 140.718 382.585 Q137.246 385.664 130.927 385.664 Q128.751 385.664 126.482 385.293 Q124.237 384.923 121.83 384.182 L121.83 379.483 Q123.913 380.618 126.135 381.173 Q128.357 381.729 130.834 381.729 Q134.839 381.729 137.177 379.622 Q139.515 377.516 139.515 373.905 Q139.515 370.294 137.177 368.187 Q134.839 366.081 130.834 366.081 Q128.959 366.081 127.084 366.497 Q125.232 366.914 123.288 367.794 L123.288 350.433 Z" fill="#000000" fill-rule="evenodd" fill-opacity="1" /><path clip-path="url(#clip620)" d="M47.6634 264.946 L55.3023 264.946 L55.3023 238.58 L46.9921 240.247 L46.9921 235.987 L55.256 234.321 L59.9319 234.321 L59.9319 264.946 L67.5707 264.946 L67.5707 268.881 L47.6634 268.881 L47.6634 264.946 Z" fill="#000000" fill-rule="evenodd" fill-opacity="1" /><path clip-path="url(#clip620)" d="M87.0151 237.399 Q83.404 237.399 81.5753 240.964 Q79.7697 244.506 79.7697 251.636 Q79.7697 258.742 81.5753 262.307 Q83.404 265.848 87.0151 265.848 Q90.6493 265.848 92.4548 262.307 Q94.2835 258.742 94.2835 251.636 Q94.2835 244.506 92.4548 240.964 Q90.6493 237.399 87.0151 237.399 M87.0151 233.696 Q92.8252 233.696 95.8808 238.302 Q98.9594 242.886 98.9594 251.636 Q98.9594 260.362 95.8808 264.969 Q92.8252 269.552 87.0151 269.552 Q81.2049 269.552 78.1262 264.969 Q75.0707 260.362 75.0707 251.636 Q75.0707 242.886 78.1262 238.302 Q81.2049 233.696 87.0151 233.696 Z" fill="#000000" fill-rule="evenodd" fill-opacity="1" /><path clip-path="url(#clip620)" d="M107.177 263.001 L112.061 263.001 L112.061 268.881 L107.177 268.881 L107.177 263.001 Z" fill="#000000" fill-rule="evenodd" fill-opacity="1" /><path clip-path="url(#clip620)" d="M132.246 237.399 Q128.635 237.399 126.807 240.964 Q125.001 244.506 125.001 251.636 Q125.001 258.742 126.807 262.307 Q128.635 265.848 132.246 265.848 Q135.881 265.848 137.686 262.307 Q139.515 258.742 139.515 251.636 Q139.515 244.506 137.686 240.964 Q135.881 237.399 132.246 237.399 M132.246 233.696 Q138.056 233.696 141.112 238.302 Q144.191 242.886 144.191 251.636 Q144.191 260.362 141.112 264.969 Q138.056 269.552 132.246 269.552 Q126.436 269.552 123.357 264.969 Q120.302 260.362 120.302 251.636 Q120.302 242.886 123.357 238.302 Q126.436 233.696 132.246 233.696 Z" fill="#000000" fill-rule="evenodd" fill-opacity="1" /><path clip-path="url(#clip620)" d="M48.6588 148.834 L56.2976 148.834 L56.2976 122.468 L47.9875 124.135 L47.9875 119.876 L56.2513 118.209 L60.9272 118.209 L60.9272 148.834 L68.5661 148.834 L68.5661 152.769 L48.6588 152.769 L48.6588 148.834 Z" fill="#000000" fill-rule="evenodd" fill-opacity="1" /><path clip-path="url(#clip620)" d="M82.0382 148.834 L98.3576 148.834 L98.3576 152.769 L76.4133 152.769 L76.4133 148.834 Q79.0753 146.079 83.6586 141.45 Q88.2651 136.797 89.4456 135.454 Q91.691 132.931 92.5706 131.195 Q93.4734 129.436 93.4734 127.746 Q93.4734 124.991 91.5289 123.255 Q89.6076 121.519 86.5058 121.519 Q84.3067 121.519 81.8531 122.283 Q79.4225 123.047 76.6447 124.598 L76.6447 119.876 Q79.4688 118.741 81.9225 118.163 Q84.3762 117.584 86.4132 117.584 Q91.7836 117.584 94.978 120.269 Q98.1724 122.954 98.1724 127.445 Q98.1724 129.575 97.3622 131.496 Q96.5752 133.394 94.4687 135.987 Q93.89 136.658 90.7882 139.876 Q87.6864 143.07 82.0382 148.834 Z" fill="#000000" fill-rule="evenodd" fill-opacity="1" /><path clip-path="url(#clip620)" d="M108.172 146.889 L113.057 146.889 L113.057 152.769 L108.172 152.769 L108.172 146.889 Z" fill="#000000" fill-rule="evenodd" fill-opacity="1" /><path clip-path="url(#clip620)" d="M123.288 118.209 L141.644 118.209 L141.644 122.144 L127.57 122.144 L127.57 130.616 Q128.589 130.269 129.607 130.107 Q130.626 129.922 131.644 129.922 Q137.431 129.922 140.811 133.093 Q144.191 136.264 144.191 141.681 Q144.191 147.26 140.718 150.362 Q137.246 153.44 130.927 153.44 Q128.751 153.44 126.482 153.07 Q124.237 152.7 121.83 151.959 L121.83 147.26 Q123.913 148.394 126.135 148.95 Q128.357 149.505 130.834 149.505 Q134.839 149.505 137.177 147.399 Q139.515 145.292 139.515 141.681 Q139.515 138.07 137.177 135.964 Q134.839 133.857 130.834 133.857 Q128.959 133.857 127.084 134.274 Q125.232 134.69 123.288 135.57 L123.288 118.209 Z" fill="#000000" fill-rule="evenodd" fill-opacity="1" /><polyline clip-path="url(#clip622)" style="stroke:#009af9; stroke-linecap:round; stroke-linejoin:round; stroke-width:2; stroke-opacity:1; fill:none" points="275.98,158.084 276.864,168.49 277.749,141.862 278.633,161.204 279.517,166.314 280.401,131.381 281.285,154.012 282.169,154.985 283.053,161.743 283.937,158.717 284.822,158.951 285.706,162.662 286.59,166.339 287.474,155.875 288.358,159.617 289.242,324.646 290.126,338.999 291.011,345.657 291.895,326.777 292.779,354.917 293.663,333.745 294.547,355.948 295.431,334.987 296.315,351.875 297.2,365.976 298.084,505.347 298.968,512.419 299.852,353.008 300.736,336.669 301.62,353.369 302.504,349.185 303.388,354.67 304.273,338.272 305.157,350.088 306.041,348.136 306.925,348.096 307.809,331.5 308.693,329.14 309.577,355.64 310.462,331.431 311.346,346.806 312.23,346.958 313.114,347.349 313.998,345.312 314.882,350.016 315.766,340.555 316.651,351.497 317.535,340.646 318.419,336.196 319.303,348.902 320.187,345.502 321.071,356.282 321.955,352.846 322.839,340.353 323.724,548.232 324.608,537.536 325.492,528.552 326.376,535.882 327.26,539.477 328.144,530.308 329.028,533.699 329.913,539.597 330.797,519.421 331.681,543.276 332.565,527.421 333.449,544.359 334.333,506.317 335.217,520.449 336.102,530.646 336.986,528.159 337.87,516.394 338.754,531.997 339.638,522.874 340.522,516.427 341.406,523.79 342.29,539.536 343.175,520.32 344.059,325.542 344.943,353.407 345.827,347.78 346.711,333.852 347.595,353.334 348.479,354.402 349.364,337.752 350.248,149.472 351.132,153.634 352.016,173.526 352.9,146.972 353.784,183.043 354.668,127.231 355.553,154.205 356.437,167.604 357.321,328.394 358.205,358.257 359.089,330.137 359.973,345.605 360.857,343.197 361.741,347.99 362.626,340.227 363.51,169.041 364.394,154.075 365.278,158.638 366.162,149.349 367.046,164.676 367.93,147.407 368.815,171.346 369.699,172.071 370.583,170.195 371.467,326.495 372.351,344.116 373.235,345.18 374.119,347.435 375.004,347.645 375.888,342.184 376.772,333.004 377.656,331.659 378.54,338.389 379.424,322.795 380.308,330.623 381.192,150.3 382.077,170.822 382.961,154.504 383.845,159.87 384.729,154.815 385.613,163.969 386.497,168.906 387.381,152.644 388.266,155.559 389.15,170.702 390.034,153.846 390.918,162.49 391.802,156.786 392.686,165.372 393.57,150.642 394.455,151.133 395.339,170.297 396.223,152.611 397.107,545.987 397.991,517.978 398.875,334.883 399.759,158.562 400.643,151.797 401.528,150.583 402.412,170.089 403.296,166.607 404.18,174.802 405.064,164.652 405.948,157.177 406.832,175.014 407.717,148.409 408.601,163.447 409.485,156.464 410.369,171.143 411.253,149.009 412.137,166.81 413.021,135.335 413.905,145.148 414.79,147.767 415.674,164.364 416.558,171.768 417.442,166.92 418.326,156.809 419.21,170.52 420.094,143.593 420.979,177.08 421.863,161.227 422.747,161.177 423.631,145.511 424.515,173.794 425.399,141.588 426.283,143.235 427.168,179.442 428.052,145.28 428.936,143.455 429.82,178.824 430.704,145.939 431.588,171.37 432.472,145.31 433.356,151.564 434.241,156.936 435.125,160.031 436.009,157.328 436.893,148.323 437.777,338.018 438.661,343.681 439.545,351.675 440.43,349.021 441.314,343.668 442.198,334.068 443.082,356.417 443.966,337.309 444.85,528.457 445.734,541.031 446.619,513.117 447.503,520.55 448.387,536.353 449.271,526.951 450.155,148.111 451.039,147.477 451.923,144.402 452.807,151.711 453.692,153.454 454.576,150.165 455.46,151.306 456.344,173.49 457.228,143.448 458.112,164.789 458.996,163.753 459.881,175.796 460.765,133.56 461.649,143.937 462.533,165.171 463.417,160.085 464.301,164.458 465.185,152.084 466.07,166.668 466.954,153.41 467.838,168.171 468.722,333.482 469.606,337.141 470.49,336.037 471.374,348.78 472.258,335.4 473.143,352.22 474.027,352.277 474.911,338.289 475.795,356.104 476.679,349.563 477.563,352.28 478.447,351.33 479.332,334.344 480.216,147.744 481.1,168.293 481.984,174.837 482.868,334.906 483.752,358.594 484.636,340.56 485.521,335.977 486.405,364.44 487.289,325.41 488.173,331.094 489.057,344.803 489.941,334.29 490.825,327.205 491.709,353.669 492.594,333.06 493.478,330.621 494.362,349.54 495.246,348.164 496.13,351.807 497.014,350.534 497.898,343.664 498.783,344.114 499.667,327.784 500.551,357.562 501.435,329.98 502.319,333.763 503.203,139.669 504.087,166.173 504.972,144.108 505.856,152.255 506.74,146.719 507.624,162.08 508.508,165.087 509.392,151.739 510.276,164.636 511.16,175.362 512.045,532.832 512.929,523.954 513.813,536.665 514.697,528.18 515.581,143.749 516.465,171.338 517.349,134.909 518.234,166.717 519.118,156.835 520.002,159.988 520.886,141.097 521.77,170.421 522.654,156.542 523.538,154.71 524.423,173.659 525.307,139.946 526.191,183.124 527.075,166.832 527.959,159.938 528.843,157.353 529.727,142.783 530.611,157.1 531.496,166.622 532.38,172.938 533.264,356.01 534.148,351.126 535.032,150.095 535.916,144.698 536.8,161.023 537.685,168.877 538.569,155.471 539.453,158.434 540.337,161.786 541.221,161.482 542.105,152.043 542.989,158.266 543.874,158.796 544.758,162.177 545.642,154.611 546.526,162.582 547.41,161.2 548.294,158.668 549.178,143.832 550.062,152.313 550.947,164.208 551.831,170.294 552.715,150.336 553.599,159.614 554.483,169.458 555.367,160.027 556.251,159.421 557.136,155.022 558.02,164.201 558.904,148.95 559.788,521.073 560.672,531.737 561.556,530.82 562.44,533.465 563.325,529.602 564.209,540.275 565.093,543.637 565.977,521.051 566.861,541.426 567.745,518.273 568.629,521.031 569.513,536.65 570.398,539.748 571.282,341.425 572.166,345.823 573.05,352.789 573.934,329.008 574.818,342.791 575.702,343.767 576.587,330.574 577.471,136.625 578.355,158.016 579.239,154.33 580.123,155.468 581.007,163.085 581.891,165.127 582.776,151.176 583.66,166.341 584.544,149.611 585.428,165.191 586.312,157.128 587.196,155.705 588.08,169.928 588.964,147.574 589.849,164.207 590.733,167.627 591.617,163.022 592.501,161.589 593.385,171.632 594.269,167.034 595.153,357.344 596.038,337.71 596.922,350.249 597.806,347.251 598.69,349.685 599.574,341.324 600.458,350.417 601.342,336.544 602.226,361.918 603.111,182.338 603.995,330.651 604.879,356.433 605.763,353.792 606.647,367.633 607.531,316.545 608.415,335.989 609.3,352.58 610.184,331.62 611.068,357.23 611.952,321.705 612.836,368.087 613.72,361.387 614.604,359.033 615.489,353.611 616.373,340.947 617.257,352.6 618.141,341.081 619.025,352.817 619.909,167.559 620.793,156.944 621.677,329.332 622.562,336.654 623.446,335.818 624.33,344.561 625.214,351.162 626.098,331.249 626.982,326.127 627.866,354.304 628.751,351.318 629.635,345.223 630.519,345.903 631.403,345.818 632.287,350.333 633.171,336.815 634.055,350.966 634.94,345.802 635.824,347.726 636.708,340.772 637.592,349.039 638.476,350.071 639.36,346.817 640.244,345.363 641.128,334.953 642.013,355.643 642.897,340.478 643.781,348.931 644.665,339.455 645.549,340.558 646.433,331.556 647.317,355.112 648.202,330.549 649.086,341.506 649.97,352.659 650.854,350.865 651.738,345.88 652.622,354.866 653.506,370.721 654.391,370.533 655.275,348.735 656.159,340.308 657.043,342.772 657.927,335.1 658.811,336.101 659.695,555.082 660.579,363.22 661.464,331.811 662.348,347.705 663.232,344.097 664.116,348.278 665,341.306 665.884,355.549 666.768,334.317 667.653,358.35 668.537,347.57 669.421,342.011 670.305,345.393 671.189,344.938 672.073,344.885 672.957,338.88 673.842,344.616 674.726,346.412 675.61,350.346 676.494,138.752 677.378,135.285 678.262,153.434 679.146,162.556 680.03,312.22 680.915,320.882 681.799,332.915 682.683,338.882 683.567,339.836 684.451,341.385 685.335,350.7 686.219,339.05 687.104,351.715 687.988,334.573 688.872,328.31 689.756,338.317 690.64,326.196 691.524,353.598 692.408,324.443 693.293,536.284 694.177,513.869 695.061,512.302 695.945,516.928 696.829,126.588 697.713,562.375 698.597,154.971 699.481,142.685 700.366,160.505 701.25,176.859 702.134,145.679 703.018,161.056 703.902,168.915 704.786,165.329 705.67,542.969 706.555,343.333 707.439,351.301 708.323,347.9 709.207,343.578 710.091,344.721 710.975,347.535 711.859,344.004 712.744,335.814 713.628,355.808 714.512,345.876 715.396,355.249 716.28,351.823 717.164,355.718 718.048,344.713 718.932,340.025 719.817,368.544 720.701,167.535 721.585,164.432 722.469,164.623 723.353,143.591 724.237,174.863 725.121,148.945 726.006,155.336 726.89,163.742 727.774,147.705 728.658,149.531 729.542,139.379 730.426,161.675 731.31,155.884 732.195,158.03 733.079,154.453 733.963,166.08 734.847,170.965 735.731,147.765 736.615,172.371 737.499,169.74 738.383,172.879 739.268,158.53 740.152,163.542 741.036,157.519 741.92,166.647 742.804,150.981 743.688,165.433 744.572,145.245 745.457,165.17 746.341,164.188 747.225,171.936 748.109,152.152 748.993,153.378 749.877,158.291 750.761,187.005 751.646,137.181 752.53,143.2 753.414,157.885 754.298,173.184 755.182,532.757 756.066,536.841 756.95,140.463 757.834,179.768 758.719,140.535 759.603,160.513 760.487,144.496 761.371,181.603 762.255,165.004 763.139,140.001 764.023,184.756 764.908,170.797 765.792,158.364 766.676,158.961 767.56,146.554 768.444,166.101 769.328,139.814 770.212,167.014 771.096,178.8 771.981,152.448 772.865,158.044 773.749,149.376 774.633,171.901 775.517,364.465 776.401,340.036 777.285,357.472 778.17,495.157 779.054,364.348 779.938,338.525 780.822,357.981 781.706,332.227 782.59,357.507 783.474,345.894 784.359,339.156 785.243,504.195 786.127,157.66 787.011,164.715 787.895,180.317 788.779,140.906 789.663,151.368 790.547,151.859 791.432,152.678 792.316,165.537 793.2,170.056 794.084,171.671 794.968,154.485 795.852,168.314 796.736,150.845 797.621,175.069 798.505,143.74 799.389,179.436 800.273,170.506 801.157,142.356 802.041,159.862 802.925,154.83 803.81,154.285 804.694,154.502 805.578,164.556 806.462,169.751 807.346,166.607 808.23,148.273 809.114,178.865 809.998,180.263 810.883,156.977 811.767,159.134 812.651,150.46 813.535,161.799 814.419,164.943 815.303,165.525 816.187,146.602 817.072,157.567 817.956,167.822 818.84,158.651 819.724,156.301 820.608,162.613 821.492,157.085 822.376,165.326 823.261,157.375 824.145,158.862 825.029,149.567 825.913,163.744 826.797,145.181 827.681,173.521 828.565,159.783 829.449,163.188 830.334,163.085 831.218,151.47 832.102,163.682 832.986,158.487 833.87,157.33 834.754,167.109 835.638,149.937 836.523,159.682 837.407,146.889 838.291,184.378 839.175,172.315 840.059,149.804 840.943,162.265 841.827,161.293 842.712,155.605 843.596,152.213 844.48,165.775 845.364,128.949 846.248,189.228 847.132,153.165 848.016,141.839 848.9,167.467 849.785,162.507 850.669,160.582 851.553,161.901 852.437,160.071 853.321,557.919 854.205,359.308 855.089,353.292 855.974,358.228 856.858,349.171 857.742,325.112 858.626,356.441 859.51,341.448 860.394,347.783 861.278,351.596 862.163,339.793 863.047,349.332 863.931,354.358 864.815,360.823 865.699,335.247 866.583,360.807 867.467,348.561 868.351,345.682 869.236,336.075 870.12,351.958 871.004,172.369 871.888,344.332 872.772,347.597 873.656,343.166 874.54,345.233 875.425,339.816 876.309,345.972 877.193,342.111 878.077,341.96 878.961,357.809 879.845,328.083 880.729,363.26 881.614,326.791 882.498,346.075 883.382,348.972 884.266,354.739 885.15,347.352 886.034,334.735 886.918,353.847 887.802,339.041 888.687,355.003 889.571,341.733 890.455,350.398 891.339,365.361 892.223,338.768 893.107,517.129 893.991,534.341 894.876,528.86 895.76,538.95 896.644,521.465 897.528,523.447 898.412,530.756 899.296,540.56 900.18,325.684 901.065,332.467 901.949,344.776 902.833,336.705 903.717,340.147 904.601,348.073 905.485,339.856 906.369,351.577 907.253,338.241 908.138,345.896 909.022,344.174 909.906,347.254 910.79,326.942 911.674,366.195 912.558,557.799 913.442,316.669 914.327,374.209 915.211,523.855 916.095,531.331 916.979,523.05 917.863,520.925 918.747,539.062 919.631,519.817 920.516,526.196 921.4,531.308 922.284,534.793 923.168,508.083 924.052,161.204 924.936,157.841 925.82,149.298 926.704,152.539 927.589,159.059 928.473,156.504 929.357,154.065 930.241,328.408 931.125,361.019 932.009,327.47 932.893,357.142 933.778,328.184 934.662,346.892 935.546,337.639 936.43,343.593 937.314,341.667 938.198,333.67 939.082,331.478 939.967,358.604 940.851,365.671 941.735,347.68 942.619,359.068 943.503,369.818 944.387,356.678 945.271,324.894 946.155,367.748 947.04,328.588 947.924,331.118 948.808,340.145 949.692,327.24 950.576,525.825 951.46,162.559 952.344,164.73 953.229,165.632 954.113,162.146 954.997,168.612 955.881,151.919 956.765,161.049 957.649,141.062 958.533,164.968 959.417,147.853 960.302,181.5 961.186,137.927 962.07,165.412 962.954,161.029 963.838,153.76 964.722,146.407 965.606,168.321 966.491,144.49 967.375,157.166 968.259,146.393 969.143,173.494 970.027,166.289 970.911,145.33 971.795,149.317 972.68,144.67 973.564,162.507 974.448,168.206 975.332,161.844 976.216,161.444 977.1,129.54 977.984,187.636 978.868,504.432 979.753,146.976 980.637,156.674 981.521,162.54 982.405,357.334 983.289,322.176 984.173,341.151 985.057,340.184 985.942,330.263 986.826,348.162 987.71,344.24 988.594,344.767 989.478,344.937 990.362,346.277 991.246,338.418 992.131,341.386 993.015,350.774 993.899,344.135 994.783,345.18 995.667,335.602 996.551,352.148 997.435,356.53 998.319,360.988 999.204,354.085 1000.09,348.686 1000.97,360.972 1001.86,352.517 1002.74,353.58 1003.62,344.592 1004.51,345.027 1005.39,344.606 1006.28,335.257 1007.16,357.737 1008.04,315.365 1008.93,138.683 1009.81,143.205 1010.7,157.206 1011.58,172.267 1012.47,144.512 1013.35,171.639 1014.23,146.263 1015.12,171.074 1016,348.914 1016.89,351.878 1017.77,355.668 1018.65,346.945 1019.54,334.074 1020.42,350.271 1021.31,335.471 1022.19,344.096 1023.08,345.564 1023.96,353.064 1024.84,353.844 1025.73,349.003 1026.61,354.263 1027.5,334.471 1028.38,355.125 1029.26,343.75 1030.15,352.932 1031.03,326.7 1031.92,349.18 1032.8,336.997 1033.68,360.591 1034.57,335.341 1035.45,336.097 1036.34,353.852 1037.22,146.093 1038.11,316.057 1038.99,341.246 1039.87,351.049 1040.76,348.235 1041.64,349.64 1042.53,354.879 1043.41,350.173 1044.29,348.107 1045.18,347.07 1046.06,326.895 1046.95,345.723 1047.83,351.333 1048.72,341.58 1049.6,164.612 1050.48,157.431 1051.37,155.341 1052.25,162.477 1053.14,150.38 1054.02,176.8 1054.9,175.164 1055.79,320.936 1056.67,366.46 1057.56,318.328 1058.44,367.347 1059.32,145.459 1060.21,156.098 1061.09,155.106 1061.98,154.198 1062.86,169.261 1063.75,161.27 1064.63,174.876 1065.51,172.302 1066.4,163.201 1067.28,157.672 1068.17,156.939 1069.05,132.889 1069.93,183.872 1070.82,352.634 1071.7,340.177 1072.59,327.656 1073.47,183.561 1074.36,131.073 1075.24,323.767 1076.12,342.678 1077.01,365.835 1077.89,341.841 1078.78,339.175 1079.66,350.082 1080.54,338.39 1081.43,345.499 1082.31,347.389 1083.2,336.966 1084.08,336.887 1084.96,351.471 1085.85,334.665 1086.73,355.875 1087.62,330.015 1088.5,335.4 1089.39,346.64 1090.27,332.678 1091.15,350.936 1092.04,330.196 1092.92,149.733 1093.81,145.725 1094.69,158.473 1095.57,158.203 1096.46,160.052 1097.34,161.18 1098.23,161.809 1099.11,172.586 1100,162.059 1100.88,163.484 1101.76,153.78 1102.65,150.188 1103.53,144.701 1104.42,174.657 1105.3,141.71 1106.18,155.213 1107.07,170.725 1107.95,147.671 1108.84,153.418 1109.72,164.377 1110.6,151.904 1111.49,153.817 1112.37,162.041 1113.26,135.315 1114.14,362.445 1115.03,338.074 1115.91,326.708 1116.79,360.291 1117.68,338.112 1118.56,362.042 1119.45,339.833 1120.33,351.791 1121.21,330.211 1122.1,359.066 1122.98,341.923 1123.87,351.691 1124.75,354.748 1125.64,353.219 1126.52,130.64 1127.4,178.178 1128.29,525.819 1129.17,525.863 1130.06,531.826 1130.94,532.47 1131.82,530.753 1132.71,531.917 1133.59,538.44 1134.48,327.275 1135.36,338.637 1136.24,326.642 1137.13,336.785 1138.01,349.207 1138.9,335.546 1139.78,342.952 1140.67,339.243 1141.55,343.271 1142.43,342.315 1143.32,354.674 1144.2,334.872 1145.09,341.38 1145.97,353.893 1146.85,344.093 1147.74,341.426 1148.62,354.574 1149.51,330.314 1150.39,354.279 1151.28,335.706 1152.16,355.009 1153.04,346.898 1153.93,329.381 1154.81,337.081 1155.7,332.032 1156.58,356.983 1157.46,336.39 1158.35,344.115 1159.23,348.89 1160.12,341.347 1161,341.163 1161.88,335.097 1162.77,355.245 1163.65,361.559 1164.54,332.238 1165.42,341.663 1166.31,509.094 1167.19,532.325 1168.07,535.352 1168.96,518.021 1169.84,525.005 1170.73,535.495 1171.61,540.772 1172.49,537.217 1173.38,181.034 1174.26,145.381 1175.15,176.382 1176.03,359.452 1176.91,371.515 1177.8,314.139 1178.68,125.717 1179.57,511.68 1180.45,550.651 1181.34,509.424 1182.22,544.343 1183.1,537.59 1183.99,544.851 1184.87,533.759 1185.76,526.61 1186.64,516 1187.52,535.126 1188.41,533.96 1189.29,537.456 1190.18,522.815 1191.06,328.309 1191.95,338.262 1192.83,346.012 1193.71,335.599 1194.6,342.253 1195.48,347.691 1196.37,343.314 1197.25,180.007 1198.13,135.316 1199.02,323.744 1199.9,351.887 1200.79,339.239 1201.67,338.331 1202.55,340.019 1203.44,342.565 1204.32,348.61 1205.21,358.918 1206.09,333.042 1206.98,358.37 1207.86,360.922 1208.74,341.918 1209.63,339.613 1210.51,510.377 1211.4,349.597 1212.28,350.428 1213.16,348.144 1214.05,331.758 1214.93,346.012 1215.82,342.401 1216.7,342.218 1217.59,339.638 1218.47,347.821 1219.35,353.079 1220.24,340.058 1221.12,347.268 1222.01,162.01 1222.89,179.43 1223.77,342.383 1224.66,357.9 1225.54,340.098 1226.43,348.423 1227.31,365.029 1228.19,157.537 1229.08,162.072 1229.96,154.994 1230.85,154.547 1231.73,156.261 1232.62,160.554 1233.5,155.754 1234.38,152.693 1235.27,142.212 1236.15,168.081 1237.04,163.319 1237.92,164.783 1238.8,157.204 1239.69,139.821 1240.57,180.27 1241.46,126.896 1242.34,142.275 1243.23,145.089 1244.11,162.462 1244.99,155.905 1245.88,159.861 1246.76,139.294 1247.65,176.555 1248.53,140.759 1249.41,163.474 1250.3,161.81 1251.18,178.544 1252.07,158.003 1252.95,170.984 1253.83,365.911 1254.72,321.842 1255.6,332.988 1256.49,528.803 1257.37,536.867 1258.26,535.87 1259.14,540.427 1260.02,517.084 1260.91,520.5 1261.79,528.42 1262.68,503.223 1263.56,350.255 1264.44,339.316 1265.33,347.207 1266.21,337.521 1267.1,346.659 1267.98,353.627 1268.87,339.166 1269.75,344.313 1270.63,355.413 1271.52,355.64 1272.4,331.673 1273.29,355.091 1274.17,324.43 1275.05,154.037 1275.94,157.387 1276.82,177.653 1277.71,141.853 1278.59,329.506 1279.47,139.629 1280.36,343.273 1281.24,344.489 1282.13,329.758 1283.01,357.512 1283.9,348.082 1284.78,339.12 1285.66,339.397 1286.55,359.653 1287.43,345.498 1288.32,150.467 1289.2,174.813 1290.08,521.025 1290.97,525.199 1291.85,133.037 1292.74,179.586 1293.62,146.715 1294.51,157.407 1295.39,157.335 1296.27,170.272 1297.16,153.345 1298.04,150.78 1298.93,154.135 1299.81,165.228 1300.69,141.932 1301.58,160.296 1302.46,148.069 1303.35,157.978 1304.23,166.73 1305.11,159.003 1306,150.835 1306.88,166.023 1307.77,147.505 1308.65,175.174 1309.54,157.683 1310.42,160.972 1311.3,162.231 1312.19,156.468 1313.07,162.524 1313.96,139.121 1314.84,128.412 1315.72,164.069 1316.61,159.943 1317.49,157.495 1318.38,139.572 1319.26,167.647 1320.15,150.849 1321.03,156.086 1321.91,154.18 1322.8,150.373 1323.68,174.954 1324.57,132.188 1325.45,183.746 1326.33,164.399 1327.22,149.382 1328.1,184.381 1328.99,180.047 1329.87,135.939 1330.75,356.006 1331.64,330.4 1332.52,340.581 1333.41,344.784 1334.29,333.509 1335.18,355.224 1336.06,356.171 1336.94,352.843 1337.83,508.313 1338.71,332.266 1339.6,339.475 1340.48,337.383 1341.36,355.331 1342.25,328.638 1343.13,349.139 1344.02,336.201 1344.9,353.586 1345.78,343.737 1346.67,353.114 1347.55,354.781 1348.44,353.508 1349.32,342.659 1350.21,343.751 1351.09,337.044 1351.97,344.1 1352.86,343.78 1353.74,356.3 1354.63,331.925 1355.51,340.72 1356.39,335.621 1357.28,350.599 1358.16,359.973 1359.05,348.144 1359.93,348.111 1360.82,343.241 1361.7,361.104 1362.58,367.694 1363.47,335.761 1364.35,365.299 1365.24,176.405 1366.12,164.212 1367,556.69 1367.89,509.165 1368.77,522.15 1369.66,131.345 1370.54,146.432 1371.42,168.861 1372.31,162.127 1373.19,162.333 1374.08,160.812 1374.96,161.548 1375.85,157.37 1376.73,163.103 1377.61,158.086 1378.5,154.851 1379.38,173.389 1380.27,134.586 1381.15,182.315 1382.03,140.56 1382.92,169.191 1383.8,140.886 1384.69,343.969 1385.57,361.231 1386.46,349.182 1387.34,515.707 1388.22,547.75 1389.11,543.954 1389.99,514.159 1390.88,538.982 1391.76,521.082 1392.64,536.243 1393.53,525.736 1394.41,537.01 1395.3,530.306 1396.18,531.179 1397.06,528.466 1397.95,536.295 1398.83,549.644 1399.72,140.323 1400.6,136.112 1401.49,139.839 1402.37,166.307 1403.25,154.487 1404.14,159.655 1405.02,159.422 1405.91,184.278 1406.79,149.729 1407.67,147.809 1408.56,169.419 1409.44,167.005 1410.33,151.566 1411.21,163.66 1412.1,175.241 1412.98,156.59 1413.86,148.249 1414.75,149.465 1415.63,174.632 1416.52,142.155 1417.4,156.258 1418.28,167.973 1419.17,157.381 1420.05,160.424 1420.94,153.528 1421.82,329.375 1422.7,345.099 1423.59,347.186 1424.47,326.15 1425.36,368.105 1426.24,325.382 1427.13,150.9 1428.01,161.408 1428.89,163.75 1429.78,148.577 1430.66,174.952 1431.55,133.833 1432.43,148.016 1433.31,169.041 1434.2,332.701 1435.08,358.856 1435.97,344.989 1436.85,353.418 1437.74,331.373 1438.62,353.768 1439.5,345.811 1440.39,339.491 1441.27,346.273 1442.16,341.731 1443.04,345.6 1443.92,364.324 1444.81,358.428 1445.69,349.714 1446.58,338.841 1447.46,334.799 1448.34,519.904 1449.23,517.687 1450.11,548.207 1451,541.213 1451.88,522.31 1452.77,526.499 1453.65,524.514 1454.53,527.035 1455.42,525.196 1456.3,538.486 1457.19,341.042 1458.07,339.693 1458.95,336.291 1459.84,339.884 1460.72,342.861 1461.61,336.727 1462.49,344.248 1463.38,347.16 1464.26,361.999 1465.14,337.253 1466.03,331.115 1466.91,323.919 1467.8,343.042 1468.68,340.924 1469.56,345.713 1470.45,326.365 1471.33,335.303 1472.22,345.661 1473.1,348.626 1473.98,342.777 1474.87,338.062 1475.75,337.614 1476.64,327.62 1477.52,357.663 1478.41,354.88 1479.29,351.16 1480.17,350.544 1481.06,357.37 1481.94,342.62 1482.83,339.423 1483.71,349.578 1484.59,343.444 1485.48,340.591 1486.36,341.691 1487.25,332.32 1488.13,344.156 1489.02,332.321 1489.9,329.317 1490.78,353.851 1491.67,337.173 1492.55,332.571 1493.44,357.641 1494.32,324.454 1495.2,356.249 1496.09,328.128 1496.97,352.948 1497.86,334.747 1498.74,345.759 1499.62,340.903 1500.51,336.019 1501.39,347.934 1502.28,341.318 1503.16,349.731 1504.05,342.744 1504.93,349.808 1505.81,346.033 1506.7,333.842 1507.58,347.474 1508.47,355.477 1509.35,334.83 1510.23,333.381 1511.12,337.792 1512,337.582 1512.89,350.101 1513.77,340.573 1514.65,350.956 1515.54,541.926 1516.42,318.958 1517.31,354.066 1518.19,336.715 1519.08,340.528 1519.96,325.662 1520.84,330.637 1521.73,352.099 1522.61,343.618 1523.5,324.832 1524.38,134.094 1525.26,186.988 1526.15,142.406 1527.03,163.554 1527.92,165.246 1528.8,169.458 1529.69,166.142 1530.57,141.438 1531.45,140.61 1532.34,175.32 1533.22,166.318 1534.11,172.628 1534.99,169.864 1535.87,337.955 1536.76,352.665 1537.64,324.676 1538.53,174.3 1539.41,175.083 1540.29,153.781 1541.18,143.707 1542.06,142.401 1542.95,126.965 1543.83,334.764 1544.72,352.511 1545.6,334.81 1546.48,348.232 1547.37,338.815 1548.25,343.965 1549.14,338.554 1550.02,334.241 1550.9,362.305 1551.79,350.905 1552.67,336.705 1553.56,355.897 1554.44,363.255 1555.33,338.903 1556.21,358.731 1557.09,354.083 1557.98,338.696 1558.86,195.034 1559.75,164.452 1560.63,171.29 1561.51,143.423 1562.4,158.675 1563.28,159.155 1564.17,156.417 1565.05,152.639 1565.93,167.391 1566.82,154.774 1567.7,159.766 1568.59,173.143 1569.47,133.506 1570.36,187.536 1571.24,168.823 1572.12,152.552 1573.01,171.137 1573.89,144.063 1574.78,167.103 1575.66,138.577 1576.54,176.948 1577.43,149.163 1578.31,165.953 1579.2,168.585 1580.08,136.478 1580.97,159.996 1581.85,168.75 1582.73,160.797 1583.62,159.347 1584.5,153.81 1585.39,130.308 1586.27,373.212 1587.15,329.614 1588.04,314.046 1588.92,153.471 1589.81,156.018 1590.69,157.748 1591.57,159.669 1592.46,323.885 1593.34,145.534 1594.23,161.025 1595.11,162.983 1596,149.11 1596.88,151.444 1597.76,152.084 1598.65,163.268 1599.53,163.246 1600.42,168.002 1601.3,150.946 1602.18,164.768 1603.07,150.722 1603.95,168.165 1604.84,149.982 1605.72,171.952 1606.61,150.467 1607.49,157.111 1608.37,508.92 1609.26,537.835 1610.14,539.905 1611.03,530.517 1611.91,530.559 1612.79,520.842 1613.68,310.227 1614.56,504.83 1615.45,323.032 1616.33,324.711 1617.21,368.301 1618.1,334.205 1618.98,362.452 1619.87,341.405 1620.75,342.243 1621.64,342.597 1622.52,346.82 1623.4,343.512 1624.29,336.435 1625.17,333.898 1626.06,349.658 1626.94,350.099 1627.82,346.889 1628.71,345.76 1629.59,340.437 1630.48,164.624 1631.36,139.253 1632.25,170.405 1633.13,174.314 1634.01,513.903 1634.9,352.819 1635.78,351.803 1636.67,343.87 1637.55,325.431 1638.43,356.44 1639.32,342.221 1640.2,349.292 1641.09,336.166 1641.97,325.769 1642.85,343.476 1643.74,348.382 1644.62,348.889 1645.51,345.21 1646.39,343.906 1647.28,339.421 1648.16,339.634 1649.04,336.502 1649.93,361.172 1650.81,341.139 1651.7,341.599 1652.58,318.526 1653.46,349.332 1654.35,326.134 1655.23,148.753 1656.12,151.662 1657,168.464 1657.89,162.217 1658.77,153.277 1659.65,152.406 1660.54,150.72 1661.42,151.281 1662.31,147.164 1663.19,140.656 1664.07,170.325 1664.96,164.736 1665.84,165.054 1666.73,163.632 1667.61,152.503 1668.49,165.647 1669.38,175.923 1670.26,169.436 1671.15,167.949 1672.03,155.813 1672.92,179.556 1673.8,147.346 1674.68,514.978 1675.57,525.905 1676.45,529.128 1677.34,518.326 1678.22,515.277 1679.1,528.285 1679.99,543.952 1680.87,511.1 1681.76,526.65 1682.64,540.939 1683.52,531.113 1684.41,528.781 1685.29,516.467 1686.18,529.076 1687.06,524.063 1687.95,535.061 1688.83,535.998 1689.71,528.979 1690.6,176.513 1691.48,155.405 1692.37,154.669 1693.25,144.769 1694.13,155.723 1695.02,144.945 1695.9,171.611 1696.79,314.464 1697.67,347.358 1698.56,357.285 1699.44,152.302 1700.32,173.603 1701.21,150.944 1702.09,158.967 1702.98,155.723 1703.86,162.373 1704.74,165.56 1705.63,169.467 1706.51,156.751 1707.4,160.994 1708.28,158.231 1709.16,155.31 1710.05,154.622 1710.93,162.152 1711.82,174.405 1712.7,159.965 1713.59,155.572 1714.47,155.31 1715.35,151.545 1716.24,154.854 1717.12,164.548 1718.01,150.714 1718.89,141.27 1719.77,154.81 1720.66,166.225 1721.54,143.596 1722.43,157.962 1723.31,185.256 1724.2,161.721 1725.08,148.214 1725.96,163.973 1726.85,167.754 1727.73,172.893 1728.62,157.849 1729.5,165.024 1730.38,153.51 1731.27,165.42 1732.15,165.409 1733.04,155.328 1733.92,524.883 1734.8,336.079 1735.69,346.383 1736.57,344.728 1737.46,355.851 1738.34,351.322 1739.23,354.715 1740.11,346.659 1740.99,328.28 1741.88,327.968 1742.76,344.165 1743.65,349.885 1744.53,338.098 1745.41,346.4 1746.3,354.879 1747.18,350.243 1748.07,517.468 1748.95,546.755 1749.84,519.995 1750.72,533.87 1751.6,538.542 1752.49,530.559 1753.37,551.085 1754.26,514.896 1755.14,537.54 1756.02,536.139 1756.91,169.846 1757.79,157.236 1758.68,144.387 1759.56,161.215 1760.44,150.053 1761.33,149.489 1762.21,165.594 1763.1,155.258 1763.98,163.25 1764.87,161.114 1765.75,147.382 1766.63,177.693 1767.52,146.483 1768.4,155.156 1769.29,183.063 1770.17,144.552 1771.05,178.73 1771.94,167.375 1772.82,162.928 1773.71,146.539 1774.59,147.165 1775.48,144.91 1776.36,348.941 1777.24,331.762 1778.13,335.516 1779.01,338.023 1779.9,342.843 1780.78,338.4 1781.66,358.069 1782.55,342.976 1783.43,333.795 1784.32,344.045 1785.2,348.031 1786.08,339.558 1786.97,345.923 1787.85,328.536 1788.74,344.456 1789.62,355.71 1790.51,515.45 1791.39,527.902 1792.27,532.734 1793.16,517.821 1794.04,539.475 1794.93,526.102 1795.81,362.054 1796.69,333.283 1797.58,340.591 1798.46,340.61 1799.35,342.503 1800.23,347.778 1801.12,343.805 1802,346.752 1802.88,329.149 1803.77,344.991 1804.65,344.701 1805.54,351.426 1806.42,354.915 1807.3,357.27 1808.19,341.972 1809.07,345.377 1809.96,338.164 1810.84,347.602 1811.72,339.589 1812.61,338.966 1813.49,332.571 1814.38,349.569 1815.26,339.936 1816.15,354.464 1817.03,354.423 1817.91,350.501 1818.8,335.227 1819.68,337.067 1820.57,358.76 1821.45,336.445 1822.33,361.643 1823.22,130.863 1824.1,136.149 1824.99,170.362 1825.87,157.671 1826.76,158.967 1827.64,172.928 1828.52,156.216 1829.41,344.911 1830.29,346.271 1831.18,330.752 1832.06,362.124 1832.94,336.859 1833.83,334.72 1834.71,340.839 1835.6,353.618 1836.48,353.125 1837.36,336.172 1838.25,334.55 1839.13,346.34 1840.02,338.583 1840.9,345.795 1841.79,343.833 1842.67,352.378 1843.55,330.98 1844.44,330.634 1845.32,182.09 1846.21,145.7 1847.09,163.652 1847.97,154.84 1848.86,170.178 1849.74,151.738 1850.63,172.088 1851.51,153.805 1852.39,152.382 1853.28,147.937 1854.16,169.615 1855.05,155.552 1855.93,163.142 1856.82,177.727 1857.7,143.159 1858.58,173.594 1859.47,175.197 1860.35,158.121 1861.24,150.071 1862.12,142.522 1863,158.473 1863.89,148.165 1864.77,153.623 1865.66,157.1 1866.54,170.532 1867.43,153.307 1868.31,155.16 1869.19,542.652 1870.08,522.287 1870.96,524.184 1871.85,534.043 1872.73,348.541 1873.61,342.522 1874.5,328.528 1875.38,358.792 1876.27,335.436 1877.15,349.676 1878.03,345.529 1878.92,352.648 1879.8,352.288 1880.69,326.776 1881.57,338.721 1882.46,354.976 1883.34,344.438 1884.22,344.629 1885.11,341.116 1885.99,337.298 1886.88,350.887 1887.76,336.454 1888.64,326.347 1889.53,354.295 1890.41,339.007 1891.3,341.837 1892.18,334.812 1893.07,348.696 1893.95,353.471 1894.83,344.406 1895.72,345.61 1896.6,342.799 1897.49,344.018 1898.37,344.366 1899.25,351.877 1900.14,336.795 1901.02,349.493 1901.91,341.579 1902.79,347.475 1903.67,339.683 1904.56,546.103 1905.44,518.611 1906.33,538.876 1907.21,521.944 1908.1,344.733 1908.98,329.54 1909.86,356.013 1910.75,345.746 1911.63,347.508 1912.52,344.728 1913.4,350.409 1914.28,338.827 1915.17,353.076 1916.05,341.581 1916.94,343.097 1917.82,344.711 1918.71,322.977 1919.59,353.775 1920.47,353.979 1921.36,348.977 1922.24,337.282 1923.13,335.755 1924.01,334.724 1924.89,356.128 1925.78,333.161 1926.66,353.221 1927.55,143.806 1928.43,149.235 1929.31,166.691 1930.2,159.497 1931.08,150.084 1931.97,164.131 1932.85,147.881 1933.74,166.052 1934.62,145.473 1935.5,164.727 1936.39,157.896 1937.27,161.514 1938.16,154.982 1939.04,159.497 1939.92,154.331 1940.81,358.99 1941.69,351.488 1942.58,520.712 1943.46,532.724 1944.35,525.885 1945.23,519.047 1946.11,540.503 1947,537.482 1947.88,501.943 1948.77,510.158 1949.65,519.774 1950.53,525.009 1951.42,532.512 1952.3,513.93 1953.19,537.159 1954.07,536.647 1954.95,522.811 1955.84,524.428 1956.72,539.514 1957.61,535.262 1958.49,359.966 1959.38,355.876 1960.26,340.451 1961.14,347.884 1962.03,336.223 1962.91,334.429 1963.8,356.065 1964.68,341.47 1965.56,334.903 1966.45,339.865 1967.33,349.216 1968.22,356.38 1969.1,343.11 1969.99,339.377 1970.87,351.433 1971.75,334.992 1972.64,348.479 1973.52,344.923 1974.41,351.547 1975.29,350.523 1976.17,352.139 1977.06,143.764 1977.94,167.71 1978.83,156.095 1979.71,151.391 1980.59,162.847 1981.48,162.489 1982.36,159.077 1983.25,161.244 1984.13,162.67 1985.02,166.994 1985.9,157.912 1986.78,138.101 1987.67,149.861 1988.55,164.989 1989.44,158.224 1990.32,151.871 1991.2,156.702 1992.09,155.694 1992.97,155.581 1993.86,163.886 1994.74,531.139 1995.63,536.695 1996.51,533.288 1997.39,537.468 1998.28,543.717 1999.16,537.976 2000.05,519.796 2000.93,531.16 2001.81,527.228 2002.7,536.01 2003.58,522.421 2004.47,535.103 2005.35,544.265 2006.23,532.495 2007.12,543.322 2008,516.381 2008.89,534.921 2009.77,378.051 2010.66,141.565 2011.54,161.797 2012.42,150.742 2013.31,173.841 2014.19,155.743 2015.08,169.852 2015.96,165.541 2016.84,151.529 2017.73,137.294 2018.61,172.479 2019.5,164.672 2020.38,147.279 2021.26,167.718 2022.15,175.296 2023.03,168.453 2023.92,147.065 2024.8,162.172 2025.69,166.217 2026.57,150.132 2027.45,170.181 2028.34,152.565 2029.22,166.636 2030.11,142.416 2030.99,182.247 2031.87,145.087 2032.76,140.954 2033.64,152.203 2034.53,162.916 2035.41,173.049 2036.3,165.36 2037.18,160.599 2038.06,172.628 2038.95,143.377 2039.83,556.955 2040.72,152.914 2041.6,152.452 2042.48,153.781 2043.37,150.282 2044.25,149.361 2045.14,169.591 2046.02,171.552 2046.9,179.716 2047.79,174.487 2048.67,327.332 2049.56,351.463 2050.44,344.732 2051.33,356.698 2052.21,339.871 2053.09,346.854 2053.98,329.846 2054.86,339.656 2055.75,355.479 2056.63,334.969 2057.51,539.058 2058.4,550.876 2059.28,540.742 2060.17,524.482 2061.05,540.466 2061.94,527.43 2062.82,523.426 2063.7,525.844 2064.59,511.742 2065.47,168.325 2066.36,170.955 2067.24,153.689 2068.12,170.268 2069.01,159.256 2069.89,152.508 2070.78,140.961 2071.66,176.062 2072.54,139.508 2073.43,152.986 2074.31,154.271 2075.2,151.17 2076.08,354.918 2076.97,335.347 2077.85,356.206 2078.73,343.717 2079.62,343.954 2080.5,351.7 2081.39,187.289 2082.27,310.903 2083.15,525.557 2084.04,543.023 2084.92,506.722 2085.81,171.594 2086.69,165.793 2087.58,149.029 2088.46,147.558 2089.34,164.933 2090.23,149.944 2091.11,165.886 2092,152.228 2092.88,140.985 2093.76,177.072 2094.65,179.59 2095.53,142.944 2096.42,163.683 2097.3,160.597 2098.18,146.872 2099.07,159.994 2099.95,142.806 2100.84,164.671 2101.72,159.047 2102.61,155.936 2103.49,167.725 2104.37,145.93 2105.26,167.088 2106.14,145.042 2107.03,160.303 2107.91,174.411 2108.79,181.442 2109.68,141.996 2110.56,147.723 2111.45,159.498 2112.33,160.416 2113.22,152.51 2114.1,156.415 2114.98,140.42 2115.87,313.352 2116.75,552.115 2117.64,548.845 2118.52,140.469 2119.4,170.608 2120.29,131.004 2121.17,335.348 2122.06,350.089 2122.94,350.412 2123.82,334.514 2124.71,352.908 2125.59,349.491 2126.48,348.878 2127.36,360.673 2128.25,328.074 2129.13,338.69 2130.01,177.053 2130.9,165.155 2131.78,151.61 2132.67,168.682 2133.55,334.072 2134.43,358.104 2135.32,336.349 2136.2,344.138 2137.09,352.86 2137.97,338.471 2138.86,338.939 2139.74,328.8 2140.62,348.862 2141.51,352.282 2142.39,340.877 2143.28,337.76 2144.16,325.134 2145.04,331.539 2145.93,344.421 2146.81,355.259 2147.7,355.443 2148.58,336.267 2149.46,364.38 2150.35,354.723 2151.23,345.855 2152.12,321.209 2153,361.527 2153.89,363.041 2154.77,322.217 2155.65,182.513 2156.54,134.699 2157.42,151.062 2158.31,159.183 2159.19,549.593 2160.07,521.867 2160.96,528.926 2161.84,527.499 2162.73,522.668 2163.61,527.15 2164.5,515.616 2165.38,526.819 2166.26,521.816 2167.15,534.039 2168.03,525.504 2168.92,532.486 2169.8,520.847 2170.68,526.598 2171.57,537.842 2172.45,543.714 2173.34,365.772 2174.22,169.652 2175.1,149.185 2175.99,165.63 2176.87,151.582 2177.76,134.952 2178.64,196.625 2179.53,530.954 2180.41,534.477 2181.29,533.593 2182.18,523.517 2183.06,536.918 2183.95,524.235 2184.83,552.926 2185.71,522.299 2186.6,530.028 2187.48,514.679 2188.37,526.652 2189.25,523.151 2190.14,544.139 2191.02,538.222 2191.9,358.714 2192.79,328.663 2193.67,365.374 2194.56,328.422 2195.44,347.737 2196.32,342.149 2197.21,335.529 2198.09,343.486 2198.98,352.337 2199.86,344.389 2200.74,349.856 2201.63,178.416 2202.51,171.13 2203.4,165.754 2204.28,160.781 2205.17,173.06 2206.05,162 2206.93,150.696 2207.82,136.504 2208.7,169.025 2209.59,152.484 2210.47,542.779 2211.35,542.989 2212.24,534.954 2213.12,515.341 2214.01,543.668 2214.89,548.866 2215.77,536.946 2216.66,528.983 2217.54,529.81 2218.43,530.205 2219.31,520.654 2220.2,533.658 2221.08,522.812 2221.96,357.254 2222.85,362.821 2223.73,326.026 2224.62,164.956 2225.5,165.096 2226.38,145.677 2227.27,174.488 2228.15,166.509 2229.04,151.404 2229.92,162.804 2230.81,148.995 2231.69,169.481 2232.57,179.581 2233.46,351.942 2234.34,335.59 2235.23,329.53 2236.11,345.999 2236.99,334.704 2237.88,336.227 2238.76,352.793 2239.65,331.847 2240.53,174.314 2241.41,174.211 2242.3,150.579 2243.18,163.604 2244.07,158.812 2244.95,163.984 2245.84,135.04 2246.72,165.264 2247.6,322.481 2248.49,361.66 2249.37,328.546 2250.26,534.465 2251.14,326.409 2252.02,349.695 2252.91,516.699 2253.79,514.417 2254.68,521.373 2255.56,537.307 2256.45,523.068 2257.33,516.279 2258.21,334.784 2259.1,360.734 2259.98,335.552 2260.87,345.295 2261.75,332.031 2262.63,333.722 2263.52,330.236 2264.4,349.776 2265.29,340.507 2266.17,355.741 2267.05,355.208 2267.94,340.296 2268.82,368.886 2269.71,370.625 2270.59,325.747 2271.48,333.537 2272.36,334.73 2273.24,358.58 2274.13,367.117 2275.01,173.268 2275.9,151.376 2276.78,141.027 2277.66,177.72 2278.55,316.171 2279.43,344.812 2280.32,340.351 2281.2,338.976 2282.09,340.125 2282.97,342.549 2283.85,359.057 2284.74,339.134 2285.62,340.621 2286.51,344.407 2287.39,347.208 2288.27,345.476 2289.16,351.676 2290.04,339.638 2290.93,346.835 2291.81,328.443 2292.69,178.81 2293.58,155.271 2294.46,144.376 2295.35,354.011 2296.23,336.709 2297.12,338.865 2298,340.989 2298.88,349.134 2299.77,335.741 2300.65,348.122 2301.54,338.367 2302.42,355.062 2303.3,333.817 2304.19,351.349 2305.07,334.103 2305.96,339.281 2306.84,345.979 2307.73,329.571 2308.61,345.467 2309.49,328.563 2310.38,354.829 2311.26,149.3 2312.15,155.049 2313.03,358.591 2313.91,341.393 2314.8,119.725 2315.68,119.653 2316.57,506.217 2317.45,531.54 2318.33,523.512 2319.22,178.836 2320.1,368.569 2320.99,350.818 2321.87,335.566 2322.76,548.185 2323.64,519.187 2324.52,553.101 2325.41,521.822 2326.29,529.878 2327.18,528.014 2328.06,528.375 2328.94,533.647 2329.83,535.194 2330.71,520.67 2331.6,542.158 2332.48,144.969 2333.37,161.679 2334.25,159.003 2335.13,161.292 2336.02,156.712 2336.9,164.767 2337.79,162.062 2338.67,160.071 2339.55,150.941 2340.44,167.635 2341.32,176.691 2342.21,177.392 2343.09,173.778 2343.97,155.637 2344.86,160.716 2345.74,159.746 2346.63,154.137 2347.51,158.227 2348.4,164.676 2349.28,161.413 2350.16,161.104 2351.05,155.2 2351.93,172.841 2352.82,144.486 2353.7,142.676 2354.58,176.318 2355.47,166.445 2356.35,168.531 2357.24,152.536 2358.12,162.07 2359.01,161.49 2359.89,150.081 2360.77,147.019 2361.66,172.487 2362.54,145.208 2363.43,154.478 2364.31,162.074 2365.19,165.839 2366.08,163.628 2366.96,162.602 2367.85,153.271 2368.73,173.53 2369.61,142.822 2370.5,158.922 2371.38,158.282 2372.27,140.808 2373.15,148.824 2374.04,155.264 2374.92,156.571 2375.8,158.933 2376.69,156.335 2377.57,152.515 2378.46,158.763 2379.34,160.931 2380.22,166.144 2381.11,148.31 2381.99,173.04 2382.88,151.405 2383.76,142.349 2384.64,134.25 2385.53,177.028 2386.41,164.1 2387.3,142.487 2388.18,164.722 2389.07,166.055 2389.95,178.698 2390.83,157.69 2391.72,157.867 2392.6,154.895 2393.49,166.978 2394.37,158.858 2395.25,157.345 2396.14,157.605 2397.02,165.021 2397.91,171.609 2398.79,153.904 2399.68,148.232 2400.56,151.65 2401.44,157.911 2402.33,501.266 2403.21,177.741 2404.1,175.365 2404.98,158.157 2405.86,153.887 2406.75,145.033 2407.63,183.528 2408.52,134.137 2409.4,169.444 2410.28,168.358 2411.17,171.442 2412.05,157.599 2412.94,492.796 2413.82,511.01 2414.71,534.088 2415.59,524.917 2416.47,517.844 2417.36,548.735 2418.24,526.755 2419.13,532.417 2420.01,518.804 2420.89,341.39 2421.78,357.237 2422.66,347.987 2423.55,351.289 2424.43,353.417 2425.32,334.882 2426.2,339.213 2427.08,173.434 2427.97,161.252 2428.85,152.313 2429.74,175.009 2430.62,156.143 2431.5,164.7 2432.39,161.636 2433.27,151.42 2434.16,149.522 2435.04,150.955 2435.92,173.189 2436.81,150.186 2437.69,162.321 2438.58,155.687 2439.46,161.936 2440.35,161.967 2441.23,156.068 2442.11,165.791 2443,147.754 2443.88,169.733 2444.77,146.808 2445.65,160 2446.53,165.991 2447.42,152.512 2448.3,159.139 2449.19,149.987 2450.07,145.541 2450.96,173.805 2451.84,152.329 2452.72,156.69 2453.61,154.37 2454.49,155.617 2455.38,161.04 2456.26,141.906 2457.14,524.896 2458.03,528.878 2458.91,527.475 2459.8,550.037 2460.68,548.607 2461.56,509.612 2462.45,528.727 2463.33,545.573 2464.22,551.675 2465.1,529.547 2465.99,538.906 2466.87,521.349 2467.75,348.28 2468.64,348.25 2469.52,338.541 2470.41,343.409 2471.29,146.932 2472.17,512.538 2473.06,173.144 2473.94,144.714 2474.83,165.13 2475.71,155.285 2476.6,165.653 2477.48,164.717 2478.36,148.723 2479.25,154.175 2480.13,170.665 2481.02,561.528 2481.9,350.821 2482.78,335.056 2483.67,355.35 2484.55,339.806 2485.44,350.642 2486.32,338.485 2487.2,325.734 2488.09,317.656 2488.97,361.014 2489.86,181.552 2490.74,165.154 2491.63,151.872 2492.51,155.995 2493.39,159.127 2494.28,154.423 2495.16,165.829 2496.05,162.897 2496.93,156.332 2497.81,159.618 2498.7,163.033 2499.58,347.813 2500.47,354.957 2501.35,340.385 2502.24,340.373 2503.12,351.152 2504,336.06 2504.89,357.724 2505.77,326.674 2506.66,329.361 2507.54,356.843 2508.42,353.492 2509.31,334.38 2510.19,343.3 2511.08,352.763 2511.96,346.595 2512.84,332.813 2513.73,355.439 2514.61,124.832 2515.5,132.422 2516.38,358.144 2517.27,346.249 2518.15,346.388 2519.03,340.519 2519.92,357.855 2520.8,328.551 2521.69,342.837 2522.57,331.488 2523.45,184.899 2524.34,354.105 2525.22,347.982 2526.11,339.124 2526.99,333.02 2527.88,369.443 2528.76,354.586 2529.64,347.243 2530.53,338.482 2531.41,350.087 2532.3,342.762 2533.18,345.647 2534.06,337.392 2534.95,342.357 2535.83,145.866 2536.72,166.486 2537.6,151.674 2538.48,154.612 2539.37,143.337 2540.25,170.502 2541.14,155.531 2542.02,158.534 2542.91,159.258 2543.79,144.387 2544.67,180.148 2545.56,147.683 2546.44,166.252 2547.33,156.666 2548.21,164.133 2549.09,147.48 2549.98,171.278 2550.86,139.847 2551.75,174.608 2552.63,149.683 2553.51,158.053 2554.4,146.496 2555.28,154.142 2556.17,145.11 2557.05,153.314 2557.94,142.291 2558.82,165.005 2559.7,146.715 2560.59,163.732 2561.47,158.837 2562.36,157.401 2563.24,160.615 2564.12,161.932 2565.01,157.547 2565.89,164.717 2566.78,151.718 2567.66,151.818 2568.55,161.869 2569.43,156.358 2570.31,170.093 2571.2,145.389 2572.08,148.425 2572.97,165.76 2573.85,154.755 2574.73,166.738 2575.62,153.045 2576.5,165.014 2577.39,157.431 2578.27,358.234 2579.15,332.969 2580.04,364.488 2580.92,363.87 2581.81,338.302 2582.69,344.756 2583.58,362.978 2584.46,351.639 2585.34,345.587 2586.23,355.675 2587.11,350.388 2588,351.99 2588.88,322.362 2589.76,325.527 2590.65,330.866 2591.53,546.972 2592.42,526.216 2593.3,530.674 2594.19,530.47 2595.07,140.911 2595.95,180.777 2596.84,179.29 2597.72,126.909 2598.61,548.645 2599.49,552.566 2600.37,523.898 2601.26,536.917 2602.14,527.385 2603.03,531.379 2603.91,521.757 2604.79,526.587 2605.68,515.796 2606.56,531.23 2607.45,515.946 2608.33,523.472 2609.22,529.194 2610.1,523.825 2610.98,529.853 2611.87,156.844 2612.75,176.29 2613.64,141.84 2614.52,171.592 2615.4,162.49 2616.29,161.163 2617.17,162.674 2618.06,153.18 2618.94,167.139 2619.83,142.951 2620.71,157.26 2621.59,147.127 2622.48,159.639 2623.36,158.384 2624.25,175.113 2625.13,163.561 2626.01,172.513 2626.9,351.693 2627.78,544.414 2628.67,548.825 2629.55,539.273 2630.43,540.503 2631.32,530.257 2632.2,522.226 2633.09,540.129 2633.97,336.261 2634.86,320.461 2635.74,340.095 2636.62,341.058 2637.51,347.774 2638.39,334.615 2639.28,337.12 2640.16,357.202 2641.04,328.636 2641.93,357.07 2642.81,342.073 2643.7,333.531 2644.58,350.852 2645.47,349.202 2646.35,349.266 2647.23,345.716 2648.12,350.66 2649,331.221 2649.89,362.873 2650.77,352.136 2651.65,348.042 2652.54,339.828 2653.42,336.188 2654.31,326.554 2655.19,350.521 2656.07,197.638 2656.96,309.918 2657.84,361.343 2658.73,339.268 2659.61,338.163 2660.5,351.562 2661.38,326.244 2662.26,341.935 2663.15,361.28 2664.03,352.113 2664.92,332.168 2665.8,330.319 2666.68,359.279 2667.57,339.582 2668.45,352.359 2669.34,343.83 2670.22,338.092 2671.11,343.459 2671.99,327.926 2672.87,334.146 2673.76,355.097 2674.64,348.906 2675.53,362.827 2676.41,347.028 2677.29,345.564 2678.18,347.674 2679.06,344.047 2679.95,341.641 2680.83,348.524 2681.71,335.58 2682.6,335.61 2683.48,339.665 2684.37,138.898 2685.25,177.732 2686.14,139.329 2687.02,170.033 2687.9,180.351 2688.79,144.772 2689.67,156.368 2690.56,155.277 2691.44,155.294 2692.32,169.021 2693.21,141.39 2694.09,149.215 2694.98,159.298 2695.86,158.547 2696.75,163.095 2697.63,146.269 2698.51,168.093 2699.4,166.154 2700.28,159.673 2701.17,160.252 2702.05,156.461 2702.93,152.538 2703.82,163.175 2704.7,158.652 2705.59,147.458 2706.47,139.714 2707.35,166.584 2708.24,161.87 2709.12,167.434 2710.01,172.943 2710.89,156.843 2711.78,157.174 2712.66,158.423 2713.54,153.636 2714.43,171.678 2715.31,157.662 2716.2,145.593 2717.08,156.343 2717.96,152.769 2718.85,144.245 2719.73,173.089 2720.62,155.684 2721.5,151.186 2722.38,152.071 2723.27,161.065 2724.15,161.198 2725.04,146.107 2725.92,150.283 2726.81,145.679 2727.69,343.447 2728.57,336.209 2729.46,340.918 2730.34,347.331 2731.23,337.963 2732.11,335.097 2732.99,356.477 2733.88,324.824 2734.76,363.311 2735.65,333.687 2736.53,332.375 2737.42,340.447 2738.3,526.554 2739.18,519.693 2740.07,526.384 2740.95,531.138 2741.84,537.858 2742.72,530.075 2743.6,533.886 2744.49,517.416 2745.37,543.715 2746.26,527.518 2747.14,532.803 2748.02,526.342 2748.91,534.758 2749.79,532.928 2750.68,532.284 2751.56,529.39 2752.45,530.55 2753.33,543.512 2754.21,521.072 2755.1,540.137 2755.98,539.129 2756.87,521.435 2757.75,516.363 2758.63,543.197 2759.52,548.62 2760.4,549.033 2761.29,553.256 2762.17,541.039 2763.06,341.985 2763.94,344.606 2764.82,345.308 2765.71,341.92 2766.59,345.72 2767.48,335.578 2768.36,339.607 2769.24,350.071 2770.13,348.009 2771.01,341.135 2771.9,322.389 2772.78,362.187 2773.66,345.282 2774.55,341.002 2775.43,334.59 2776.32,351.532 2777.2,348.099 2778.09,331.572 2778.97,349.621 2779.85,347.416 2780.74,357.909 2781.62,342.545 2782.51,344.821 2783.39,341.622 2784.27,359.368 2785.16,340.415 2786.04,362.903 2786.93,335.596 2787.81,328.034 2788.7,343.006 2789.58,353.879 2790.46,346.589 2791.35,353.102 2792.23,347.244 2793.12,345.54 2794,357.265 2794.88,355.47 2795.77,332.252 2796.65,339.233 2797.54,357.598 2798.42,350.721 2799.3,355.51 2800.19,339.604 2801.07,352.914 2801.96,329.408 2802.84,334.81 2803.73,155.942 2804.61,153.059 2805.49,164.45 2806.38,161.373 2807.26,155.113 2808.15,347.757 2809.03,337.895 2809.91,340.639 2810.8,346.423 2811.68,342.771 2812.57,340.879 2813.45,324.483 2814.34,359.611 2815.22,169.616 2816.1,140.712 2816.99,172.857 2817.87,166.897 2818.76,154.17 2819.64,167.099 2820.52,349.652 2821.41,347.065 2822.29,345.357 2823.18,344.1 2824.06,351.707 2824.94,329.385 2825.83,333.299 2826.71,344.723 2827.6,341.678 2828.48,344.361 2829.37,343.742 2830.25,341.172 2831.13,325.426 2832.02,373.8 2832.9,354.407 2833.79,340.132 2834.67,345.08 2835.55,333.008 2836.44,356.401 2837.32,360.531 2838.21,142.559 2839.09,147.678 2839.98,143.398 2840.86,158.977 2841.74,160.625 2842.63,166.772 2843.51,176.354 2844.4,168.222 2845.28,154.635 2846.16,160.168 2847.05,152.83 2847.93,336.759 2848.82,334.281 2849.7,343.681 2850.58,347.084 2851.47,336.68 2852.35,335.293 2853.24,350.417 2854.12,341.525 2855.01,362.639 2855.89,543.895 2856.77,514.203 2857.66,361.342 2858.54,345.258 2859.43,356.098 2860.31,347.084 2861.19,333.032 2862.08,351.709 2862.96,349.1 2863.85,340.076 2864.73,361.063 2865.62,331.116 2866.5,142.433 2867.38,171.688 2868.27,156.188 2869.15,159.672 2870.04,163.57 2870.92,148.578 2871.8,173.335 2872.69,160.678 2873.57,170.383 2874.46,144.441 2875.34,542.811 2876.22,523.636 2877.11,532.424 2877.99,530.625 2878.88,517.629 2879.76,534.088 2880.65,510.798 2881.53,178.15 2882.41,148.636 2883.3,138.62 2884.18,168.553 2885.07,176.179 2885.95,167.377 2886.83,168.097 2887.72,148.597 2888.6,167.275 2889.49,177.027 2890.37,142.297 2891.25,143.863 2892.14,168.141 2893.02,148.709 2893.91,162.622 2894.79,158.405 2895.68,154.688 2896.56,158.09 2897.44,160.42 2898.33,165.692 2899.21,151.176 2900.1,166.062 2900.98,154.83 2901.86,165.184 2902.75,161.452 2903.63,140.486 2904.52,179.714 2905.4,163.387 2906.29,150.502 2907.17,159.088 2908.05,157.842 2908.94,145.149 2909.82,530.567 2910.71,528.353 2911.59,144.63 2912.47,162.754 2913.36,159.499 2914.24,166.83 2915.13,161.569 2916.01,148.579 2916.89,160.278 2917.78,523.12 2918.66,542.41 2919.55,176.484 2920.43,174.408 2921.32,143.267 2922.2,155.159 2923.08,166.133 2923.97,158.071 2924.85,144.441 2925.74,166.741 2926.62,147.142 2927.5,168.417 2928.39,148.748 2929.27,147.013 2930.16,163.82 2931.04,148.633 2931.93,168.826 2932.81,156.105 2933.69,172.688 2934.58,154.199 2935.46,146.061 2936.35,149.528 2937.23,163.849 2938.11,146.461 2939,146.833 2939.88,141.301 2940.77,177.447 2941.65,166.991 2942.53,153.033 2943.42,145.073 2944.3,147.122 2945.19,149.073 2946.07,146.136 2946.96,154.964 2947.84,148.939 2948.72,157.989 2949.61,155.962 2950.49,143.287 2951.38,158.451 2952.26,153.603 2953.14,163.723 2954.03,152.924 2954.91,158.02 2955.8,151.918 2956.68,157.523 2957.57,150.726 2958.45,165.433 2959.33,362.566 2960.22,351.939 2961.1,352.991 2961.99,338.773 2962.87,355.612 2963.75,343.011 2964.64,348.858 2965.52,342.282 2966.41,350.339 2967.29,343.882 2968.17,345.596 2969.06,345.966 2969.94,344.886 2970.83,352.195 2971.71,337.823 2972.6,341.419 2973.48,356.148 2974.36,341.974 2975.25,331.835 2976.13,362.786 2977.02,327.378 2977.9,359.576 2978.78,338.268 2979.67,163.35 2980.55,160.91 2981.44,363.405 2982.32,349.493 2983.21,140.502 2984.09,173.789 2984.97,139.134 2985.86,502.581 2986.74,537.872 2987.63,527.94 2988.51,533.748 2989.39,529.971 2990.28,518.685 2991.16,519.348 2992.05,511.829 2992.93,549.212 2993.81,544.142 2994.7,519.452 2995.58,137.876 2996.47,150.255 2997.35,317.616 2998.24,322.675 2999.12,349.21 3000,342.225 3000.89,330.004 3001.77,351.323 3002.66,362.774 3003.54,335.913 3004.42,339.938 3005.31,350.173 3006.19,337.541 3007.08,346.436 3007.96,148.802 3008.85,157.424 3009.73,153.183 3010.61,146.34 3011.5,157.938 3012.38,155.152 3013.27,161.178 3014.15,150.4 3015.03,173.588 3015.92,172.444 3016.8,170.685 3017.69,167.764 3018.57,173.881 3019.45,170.298 3020.34,153.597 3021.22,169.509 3022.11,152.237 3022.99,161.304 3023.88,163.507 3024.76,148.61 3025.64,168.958 3026.53,146.929 3027.41,161.323 3028.3,151.609 3029.18,157.119 3030.06,169.33 3030.95,157.201 3031.83,167.158 3032.72,147.533 3033.6,178.476 3034.49,141.751 3035.37,530.713 3036.25,524.408 3037.14,525.386 3038.02,527.844 3038.91,522.913 3039.79,527.031 3040.67,521.686 3041.56,527.106 3042.44,544.238 3043.33,517.723 3044.21,168.29 3045.09,148.113 3045.98,179.16 3046.86,147.384 3047.75,162.887 3048.63,154.307 3049.52,153.792 3050.4,169.161 3051.28,170.702 3052.17,180.034 3053.05,143.793 3053.94,166.117 3054.82,149.265 3055.7,164.049 3056.59,169.908 3057.47,139.893 3058.36,177.417 3059.24,144.916 3060.12,183.846 3061.01,140.162 3061.89,157.726 3062.78,134.251 3063.66,188.666 3064.55,336.589 3065.43,344.081 3066.31,341.014 3067.2,345.461 3068.08,347.156 3068.97,343.492 "/>
<path clip-path="url(#clip620)" d="M2576.07 693.754 L3054.07 693.754 L3054.07 590.074 L2576.07 590.074  Z" fill="#ffffff" fill-rule="evenodd" fill-opacity="1"/>
<polyline clip-path="url(#clip620)" style="stroke:#000000; stroke-linecap:round; stroke-linejoin:round; stroke-width:4; stroke-opacity:1; fill:none" points="2576.07,693.754 3054.07,693.754 3054.07,590.074 2576.07,590.074 2576.07,693.754 "/>
<polyline clip-path="url(#clip620)" style="stroke:#009af9; stroke-linecap:round; stroke-linejoin:round; stroke-width:2; stroke-opacity:1; fill:none" points="2608.97,641.914 2806.34,641.914 "/>
<path clip-path="url(#clip620)" d="M2855.62 642.991 Q2857.13 643.5 2858.54 645.167 Q2859.97 646.833 2861.41 649.75 L2866.15 659.194 L2861.13 659.194 L2856.71 650.329 Q2855 646.857 2853.38 645.722 Q2851.78 644.588 2849 644.588 L2843.91 644.588 L2843.91 659.194 L2839.23 659.194 L2839.23 624.634 L2849.79 624.634 Q2855.71 624.634 2858.63 627.111 Q2861.55 629.588 2861.55 634.588 Q2861.55 637.852 2860.02 640.005 Q2858.51 642.157 2855.62 642.991 M2843.91 628.477 L2843.91 640.745 L2849.79 640.745 Q2853.17 640.745 2854.88 639.195 Q2856.62 637.62 2856.62 634.588 Q2856.62 631.556 2854.88 630.028 Q2853.17 628.477 2849.79 628.477 L2843.91 628.477 Z" fill="#000000" fill-rule="evenodd" fill-opacity="1" /><path clip-path="url(#clip620)" d="M2881.8 629.241 L2875.46 646.44 L2888.17 646.44 L2881.8 629.241 M2879.16 624.634 L2884.46 624.634 L2897.63 659.194 L2892.77 659.194 L2889.63 650.329 L2874.05 650.329 L2870.9 659.194 L2865.97 659.194 L2879.16 624.634 Z" fill="#000000" fill-rule="evenodd" fill-opacity="1" /><path clip-path="url(#clip620)" d="M2899.3 644.31 L2911.78 644.31 L2911.78 648.107 L2899.3 648.107 L2899.3 644.31 Z" fill="#000000" fill-rule="evenodd" fill-opacity="1" /><path clip-path="url(#clip620)" d="M2918.75 624.634 L2923.42 624.634 L2923.42 638.801 L2940.41 638.801 L2940.41 624.634 L2945.09 624.634 L2945.09 659.194 L2940.41 659.194 L2940.41 642.736 L2923.42 642.736 L2923.42 659.194 L2918.75 659.194 L2918.75 624.634 Z" fill="#000000" fill-rule="evenodd" fill-opacity="1" /><path clip-path="url(#clip620)" d="M2954.39 624.634 L2961.36 624.634 L2970.18 648.153 L2979.05 624.634 L2986.01 624.634 L2986.01 659.194 L2981.45 659.194 L2981.45 628.847 L2972.54 652.551 L2967.84 652.551 L2958.93 628.847 L2958.93 659.194 L2954.39 659.194 L2954.39 624.634 Z" fill="#000000" fill-rule="evenodd" fill-opacity="1" /><path clip-path="url(#clip620)" d="M3021.18 627.296 L3021.18 632.227 Q3018.81 630.028 3016.13 628.94 Q3013.47 627.852 3010.46 627.852 Q3004.53 627.852 3001.38 631.486 Q2998.24 635.097 2998.24 641.949 Q2998.24 648.778 3001.38 652.412 Q3004.53 656.023 3010.46 656.023 Q3013.47 656.023 3016.13 654.935 Q3018.81 653.847 3021.18 651.648 L3021.18 656.532 Q3018.72 658.199 3015.97 659.032 Q3013.24 659.866 3010.18 659.866 Q3002.33 659.866 2997.82 655.074 Q2993.31 650.259 2993.31 641.949 Q2993.31 633.616 2997.82 628.824 Q3002.33 624.009 3010.18 624.009 Q3013.28 624.009 3016.01 624.843 Q3018.77 625.653 3021.18 627.296 Z" fill="#000000" fill-rule="evenodd" fill-opacity="1" /></svg>
