<?xml version="1.0" encoding="utf-8"?>
<svg xmlns="http://www.w3.org/2000/svg" xmlns:xlink="http://www.w3.org/1999/xlink" width="800" height="200" viewBox="0 0 3200 800">
<defs>
  <clipPath id="clip920">
    <rect x="0" y="0" width="3200" height="800"/>
  </clipPath>
</defs>
<path clip-path="url(#clip920)" d="M0 800 L3200 800 L3200 0 L0 0  Z" fill="#ffffff" fill-rule="evenodd" fill-opacity="1"/>
<defs>
  <clipPath id="clip921">
    <rect x="640" y="0" width="2241" height="800"/>
  </clipPath>
</defs>
<path clip-path="url(#clip920)" d="M192.191 716.048 L3152.76 716.048 L3152.76 47.2441 L192.191 47.2441  Z" fill="#ffffff" fill-rule="evenodd" fill-opacity="1"/>
<defs>
  <clipPath id="clip922">
    <rect x="192" y="47" width="2962" height="670"/>
  </clipPath>
</defs>
<polyline clip-path="url(#clip922)" style="stroke:#000000; stroke-linecap:round; stroke-linejoin:round; stroke-width:2; stroke-opacity:0.1; fill:none" points="273.98,716.048 273.98,47.2441 "/>
<polyline clip-path="url(#clip922)" style="stroke:#000000; stroke-linecap:round; stroke-linejoin:round; stroke-width:2; stroke-opacity:0.1; fill:none" points="774.156,716.048 774.156,47.2441 "/>
<polyline clip-path="url(#clip922)" style="stroke:#000000; stroke-linecap:round; stroke-linejoin:round; stroke-width:2; stroke-opacity:0.1; fill:none" points="1274.33,716.048 1274.33,47.2441 "/>
<polyline clip-path="url(#clip922)" style="stroke:#000000; stroke-linecap:round; stroke-linejoin:round; stroke-width:2; stroke-opacity:0.1; fill:none" points="1774.51,716.048 1774.51,47.2441 "/>
<polyline clip-path="url(#clip922)" style="stroke:#000000; stroke-linecap:round; stroke-linejoin:round; stroke-width:2; stroke-opacity:0.1; fill:none" points="2274.69,716.048 2274.69,47.2441 "/>
<polyline clip-path="url(#clip922)" style="stroke:#000000; stroke-linecap:round; stroke-linejoin:round; stroke-width:2; stroke-opacity:0.1; fill:none" points="2774.86,716.048 2774.86,47.2441 "/>
<polyline clip-path="url(#clip920)" style="stroke:#000000; stroke-linecap:round; stroke-linejoin:round; stroke-width:4; stroke-opacity:1; fill:none" points="192.191,716.048 3152.76,716.048 "/>
<polyline clip-path="url(#clip920)" style="stroke:#000000; stroke-linecap:round; stroke-linejoin:round; stroke-width:4; stroke-opacity:1; fill:none" points="273.98,716.048 273.98,697.15 "/>
<polyline clip-path="url(#clip920)" style="stroke:#000000; stroke-linecap:round; stroke-linejoin:round; stroke-width:4; stroke-opacity:1; fill:none" points="774.156,716.048 774.156,697.15 "/>
<polyline clip-path="url(#clip920)" style="stroke:#000000; stroke-linecap:round; stroke-linejoin:round; stroke-width:4; stroke-opacity:1; fill:none" points="1274.33,716.048 1274.33,697.15 "/>
<polyline clip-path="url(#clip920)" style="stroke:#000000; stroke-linecap:round; stroke-linejoin:round; stroke-width:4; stroke-opacity:1; fill:none" points="1774.51,716.048 1774.51,697.15 "/>
<polyline clip-path="url(#clip920)" style="stroke:#000000; stroke-linecap:round; stroke-linejoin:round; stroke-width:4; stroke-opacity:1; fill:none" points="2274.69,716.048 2274.69,697.15 "/>
<polyline clip-path="url(#clip920)" style="stroke:#000000; stroke-linecap:round; stroke-linejoin:round; stroke-width:4; stroke-opacity:1; fill:none" points="2774.86,716.048 2774.86,697.15 "/>
<path clip-path="url(#clip920)" d="M273.98 753.367 Q270.368 753.367 268.54 756.931 Q266.734 760.473 266.734 767.603 Q266.734 774.709 268.54 778.274 Q270.368 781.815 273.98 781.815 Q277.614 781.815 279.419 778.274 Q281.248 774.709 281.248 767.603 Q281.248 760.473 279.419 756.931 Q277.614 753.367 273.98 753.367 M273.98 749.663 Q279.79 749.663 282.845 754.269 Q285.924 758.853 285.924 767.603 Q285.924 776.329 282.845 780.936 Q279.79 785.519 273.98 785.519 Q268.169 785.519 265.091 780.936 Q262.035 776.329 262.035 767.603 Q262.035 758.853 265.091 754.269 Q268.169 749.663 273.98 749.663 Z" fill="#000000" fill-rule="evenodd" fill-opacity="1" /><path clip-path="url(#clip920)" d="M737.848 780.913 L754.168 780.913 L754.168 784.848 L732.223 784.848 L732.223 780.913 Q734.886 778.158 739.469 773.528 Q744.075 768.876 745.256 767.533 Q747.501 765.01 748.381 763.274 Q749.284 761.515 749.284 759.825 Q749.284 757.07 747.339 755.334 Q745.418 753.598 742.316 753.598 Q740.117 753.598 737.663 754.362 Q735.233 755.126 732.455 756.677 L732.455 751.955 Q735.279 750.82 737.733 750.242 Q740.186 749.663 742.223 749.663 Q747.594 749.663 750.788 752.348 Q753.983 755.033 753.983 759.524 Q753.983 761.654 753.172 763.575 Q752.385 765.473 750.279 768.066 Q749.7 768.737 746.598 771.954 Q743.497 775.149 737.848 780.913 Z" fill="#000000" fill-rule="evenodd" fill-opacity="1" /><path clip-path="url(#clip920)" d="M764.029 750.288 L782.385 750.288 L782.385 754.223 L768.311 754.223 L768.311 762.695 Q769.33 762.348 770.348 762.186 Q771.367 762.001 772.385 762.001 Q778.172 762.001 781.552 765.172 Q784.932 768.343 784.932 773.76 Q784.932 779.339 781.459 782.44 Q777.987 785.519 771.668 785.519 Q769.492 785.519 767.223 785.149 Q764.978 784.778 762.571 784.038 L762.571 779.339 Q764.654 780.473 766.876 781.028 Q769.098 781.584 771.575 781.584 Q775.58 781.584 777.918 779.478 Q780.256 777.371 780.256 773.76 Q780.256 770.149 777.918 768.042 Q775.58 765.936 771.575 765.936 Q769.7 765.936 767.825 766.353 Q765.973 766.769 764.029 767.649 L764.029 750.288 Z" fill="#000000" fill-rule="evenodd" fill-opacity="1" /><path clip-path="url(#clip920)" d="M804.144 753.367 Q800.533 753.367 798.705 756.931 Q796.899 760.473 796.899 767.603 Q796.899 774.709 798.705 778.274 Q800.533 781.815 804.144 781.815 Q807.779 781.815 809.584 778.274 Q811.413 774.709 811.413 767.603 Q811.413 760.473 809.584 756.931 Q807.779 753.367 804.144 753.367 M804.144 749.663 Q809.955 749.663 813.01 754.269 Q816.089 758.853 816.089 767.603 Q816.089 776.329 813.01 780.936 Q809.955 785.519 804.144 785.519 Q798.334 785.519 795.256 780.936 Q792.2 776.329 792.2 767.603 Q792.2 758.853 795.256 754.269 Q798.334 749.663 804.144 749.663 Z" fill="#000000" fill-rule="evenodd" fill-opacity="1" /><path clip-path="url(#clip920)" d="M1233.95 750.288 L1252.31 750.288 L1252.31 754.223 L1238.23 754.223 L1238.23 762.695 Q1239.25 762.348 1240.27 762.186 Q1241.29 762.001 1242.31 762.001 Q1248.09 762.001 1251.47 765.172 Q1254.85 768.343 1254.85 773.76 Q1254.85 779.339 1251.38 782.44 Q1247.91 785.519 1241.59 785.519 Q1239.41 785.519 1237.15 785.149 Q1234.9 784.778 1232.49 784.038 L1232.49 779.339 Q1234.58 780.473 1236.8 781.028 Q1239.02 781.584 1241.5 781.584 Q1245.5 781.584 1247.84 779.478 Q1250.18 777.371 1250.18 773.76 Q1250.18 770.149 1247.84 768.042 Q1245.5 765.936 1241.5 765.936 Q1239.62 765.936 1237.75 766.353 Q1235.9 766.769 1233.95 767.649 L1233.95 750.288 Z" fill="#000000" fill-rule="evenodd" fill-opacity="1" /><path clip-path="url(#clip920)" d="M1274.07 753.367 Q1270.46 753.367 1268.63 756.931 Q1266.82 760.473 1266.82 767.603 Q1266.82 774.709 1268.63 778.274 Q1270.46 781.815 1274.07 781.815 Q1277.7 781.815 1279.51 778.274 Q1281.34 774.709 1281.34 767.603 Q1281.34 760.473 1279.51 756.931 Q1277.7 753.367 1274.07 753.367 M1274.07 749.663 Q1279.88 749.663 1282.93 754.269 Q1286.01 758.853 1286.01 767.603 Q1286.01 776.329 1282.93 780.936 Q1279.88 785.519 1274.07 785.519 Q1268.26 785.519 1265.18 780.936 Q1262.12 776.329 1262.12 767.603 Q1262.12 758.853 1265.18 754.269 Q1268.26 749.663 1274.07 749.663 Z" fill="#000000" fill-rule="evenodd" fill-opacity="1" /><path clip-path="url(#clip920)" d="M1304.23 753.367 Q1300.62 753.367 1298.79 756.931 Q1296.98 760.473 1296.98 767.603 Q1296.98 774.709 1298.79 778.274 Q1300.62 781.815 1304.23 781.815 Q1307.86 781.815 1309.67 778.274 Q1311.5 774.709 1311.5 767.603 Q1311.5 760.473 1309.67 756.931 Q1307.86 753.367 1304.23 753.367 M1304.23 749.663 Q1310.04 749.663 1313.09 754.269 Q1316.17 758.853 1316.17 767.603 Q1316.17 776.329 1313.09 780.936 Q1310.04 785.519 1304.23 785.519 Q1298.42 785.519 1295.34 780.936 Q1292.28 776.329 1292.28 767.603 Q1292.28 758.853 1295.34 754.269 Q1298.42 749.663 1304.23 749.663 Z" fill="#000000" fill-rule="evenodd" fill-opacity="1" /><path clip-path="url(#clip920)" d="M1732.79 750.288 L1755.01 750.288 L1755.01 752.279 L1742.46 784.848 L1737.58 784.848 L1749.38 754.223 L1732.79 754.223 L1732.79 750.288 Z" fill="#000000" fill-rule="evenodd" fill-opacity="1" /><path clip-path="url(#clip920)" d="M1764.17 750.288 L1782.53 750.288 L1782.53 754.223 L1768.46 754.223 L1768.46 762.695 Q1769.47 762.348 1770.49 762.186 Q1771.51 762.001 1772.53 762.001 Q1778.32 762.001 1781.7 765.172 Q1785.08 768.343 1785.08 773.76 Q1785.08 779.339 1781.6 782.44 Q1778.13 785.519 1771.81 785.519 Q1769.64 785.519 1767.37 785.149 Q1765.12 784.778 1762.72 784.038 L1762.72 779.339 Q1764.8 780.473 1767.02 781.028 Q1769.24 781.584 1771.72 781.584 Q1775.72 781.584 1778.06 779.478 Q1780.4 777.371 1780.4 773.76 Q1780.4 770.149 1778.06 768.042 Q1775.72 765.936 1771.72 765.936 Q1769.84 765.936 1767.97 766.353 Q1766.12 766.769 1764.17 767.649 L1764.17 750.288 Z" fill="#000000" fill-rule="evenodd" fill-opacity="1" /><path clip-path="url(#clip920)" d="M1804.29 753.367 Q1800.68 753.367 1798.85 756.931 Q1797.04 760.473 1797.04 767.603 Q1797.04 774.709 1798.85 778.274 Q1800.68 781.815 1804.29 781.815 Q1807.92 781.815 1809.73 778.274 Q1811.56 774.709 1811.56 767.603 Q1811.56 760.473 1809.73 756.931 Q1807.92 753.367 1804.29 753.367 M1804.29 749.663 Q1810.1 749.663 1813.15 754.269 Q1816.23 758.853 1816.23 767.603 Q1816.23 776.329 1813.15 780.936 Q1810.1 785.519 1804.29 785.519 Q1798.48 785.519 1795.4 780.936 Q1792.34 776.329 1792.34 767.603 Q1792.34 758.853 1795.4 754.269 Q1798.48 749.663 1804.29 749.663 Z" fill="#000000" fill-rule="evenodd" fill-opacity="1" /><path clip-path="url(#clip920)" d="M2219.21 780.913 L2226.85 780.913 L2226.85 754.547 L2218.54 756.214 L2218.54 751.955 L2226.8 750.288 L2231.48 750.288 L2231.48 780.913 L2239.12 780.913 L2239.12 784.848 L2219.21 784.848 L2219.21 780.913 Z" fill="#000000" fill-rule="evenodd" fill-opacity="1" /><path clip-path="url(#clip920)" d="M2258.56 753.367 Q2254.95 753.367 2253.12 756.931 Q2251.32 760.473 2251.32 767.603 Q2251.32 774.709 2253.12 778.274 Q2254.95 781.815 2258.56 781.815 Q2262.2 781.815 2264 778.274 Q2265.83 774.709 2265.83 767.603 Q2265.83 760.473 2264 756.931 Q2262.2 753.367 2258.56 753.367 M2258.56 749.663 Q2264.37 749.663 2267.43 754.269 Q2270.51 758.853 2270.51 767.603 Q2270.51 776.329 2267.43 780.936 Q2264.37 785.519 2258.56 785.519 Q2252.75 785.519 2249.67 780.936 Q2246.62 776.329 2246.62 767.603 Q2246.62 758.853 2249.67 754.269 Q2252.75 749.663 2258.56 749.663 Z" fill="#000000" fill-rule="evenodd" fill-opacity="1" /><path clip-path="url(#clip920)" d="M2288.73 753.367 Q2285.11 753.367 2283.29 756.931 Q2281.48 760.473 2281.48 767.603 Q2281.48 774.709 2283.29 778.274 Q2285.11 781.815 2288.73 781.815 Q2292.36 781.815 2294.16 778.274 Q2295.99 774.709 2295.99 767.603 Q2295.99 760.473 2294.16 756.931 Q2292.36 753.367 2288.73 753.367 M2288.73 749.663 Q2294.54 749.663 2297.59 754.269 Q2300.67 758.853 2300.67 767.603 Q2300.67 776.329 2297.59 780.936 Q2294.54 785.519 2288.73 785.519 Q2282.92 785.519 2279.84 780.936 Q2276.78 776.329 2276.78 767.603 Q2276.78 758.853 2279.84 754.269 Q2282.92 749.663 2288.73 749.663 Z" fill="#000000" fill-rule="evenodd" fill-opacity="1" /><path clip-path="url(#clip920)" d="M2318.89 753.367 Q2315.28 753.367 2313.45 756.931 Q2311.64 760.473 2311.64 767.603 Q2311.64 774.709 2313.45 778.274 Q2315.28 781.815 2318.89 781.815 Q2322.52 781.815 2324.33 778.274 Q2326.16 774.709 2326.16 767.603 Q2326.16 760.473 2324.33 756.931 Q2322.52 753.367 2318.89 753.367 M2318.89 749.663 Q2324.7 749.663 2327.75 754.269 Q2330.83 758.853 2330.83 767.603 Q2330.83 776.329 2327.75 780.936 Q2324.7 785.519 2318.89 785.519 Q2313.08 785.519 2310 780.936 Q2306.94 776.329 2306.94 767.603 Q2306.94 758.853 2310 754.269 Q2313.08 749.663 2318.89 749.663 Z" fill="#000000" fill-rule="evenodd" fill-opacity="1" /><path clip-path="url(#clip920)" d="M2719.39 780.913 L2727.03 780.913 L2727.03 754.547 L2718.72 756.214 L2718.72 751.955 L2726.98 750.288 L2731.66 750.288 L2731.66 780.913 L2739.3 780.913 L2739.3 784.848 L2719.39 784.848 L2719.39 780.913 Z" fill="#000000" fill-rule="evenodd" fill-opacity="1" /><path clip-path="url(#clip920)" d="M2752.77 780.913 L2769.09 780.913 L2769.09 784.848 L2747.14 784.848 L2747.14 780.913 Q2749.8 778.158 2754.39 773.528 Q2758.99 768.876 2760.18 767.533 Q2762.42 765.01 2763.3 763.274 Q2764.2 761.515 2764.2 759.825 Q2764.2 757.07 2762.26 755.334 Q2760.34 753.598 2757.24 753.598 Q2755.04 753.598 2752.58 754.362 Q2750.15 755.126 2747.37 756.677 L2747.37 751.955 Q2750.2 750.82 2752.65 750.242 Q2755.11 749.663 2757.14 749.663 Q2762.51 749.663 2765.71 752.348 Q2768.9 755.033 2768.9 759.524 Q2768.9 761.654 2768.09 763.575 Q2767.3 765.473 2765.2 768.066 Q2764.62 768.737 2761.52 771.954 Q2758.42 775.149 2752.77 780.913 Z" fill="#000000" fill-rule="evenodd" fill-opacity="1" /><path clip-path="url(#clip920)" d="M2778.95 750.288 L2797.3 750.288 L2797.3 754.223 L2783.23 754.223 L2783.23 762.695 Q2784.25 762.348 2785.27 762.186 Q2786.29 762.001 2787.3 762.001 Q2793.09 762.001 2796.47 765.172 Q2799.85 768.343 2799.85 773.76 Q2799.85 779.339 2796.38 782.44 Q2792.91 785.519 2786.59 785.519 Q2784.41 785.519 2782.14 785.149 Q2779.9 784.778 2777.49 784.038 L2777.49 779.339 Q2779.57 780.473 2781.8 781.028 Q2784.02 781.584 2786.49 781.584 Q2790.5 781.584 2792.84 779.478 Q2795.17 777.371 2795.17 773.76 Q2795.17 770.149 2792.84 768.042 Q2790.5 765.936 2786.49 765.936 Q2784.62 765.936 2782.74 766.353 Q2780.89 766.769 2778.95 767.649 L2778.95 750.288 Z" fill="#000000" fill-rule="evenodd" fill-opacity="1" /><path clip-path="url(#clip920)" d="M2819.06 753.367 Q2815.45 753.367 2813.62 756.931 Q2811.82 760.473 2811.82 767.603 Q2811.82 774.709 2813.62 778.274 Q2815.45 781.815 2819.06 781.815 Q2822.7 781.815 2824.5 778.274 Q2826.33 774.709 2826.33 767.603 Q2826.33 760.473 2824.5 756.931 Q2822.7 753.367 2819.06 753.367 M2819.06 749.663 Q2824.87 749.663 2827.93 754.269 Q2831.01 758.853 2831.01 767.603 Q2831.01 776.329 2827.93 780.936 Q2824.87 785.519 2819.06 785.519 Q2813.25 785.519 2810.17 780.936 Q2807.12 776.329 2807.12 767.603 Q2807.12 758.853 2810.17 754.269 Q2813.25 749.663 2819.06 749.663 Z" fill="#000000" fill-rule="evenodd" fill-opacity="1" /><polyline clip-path="url(#clip922)" style="stroke:#000000; stroke-linecap:round; stroke-linejoin:round; stroke-width:2; stroke-opacity:0.1; fill:none" points="192.191,716.048 3152.76,716.048 "/>
<polyline clip-path="url(#clip922)" style="stroke:#000000; stroke-linecap:round; stroke-linejoin:round; stroke-width:2; stroke-opacity:0.1; fill:none" points="192.191,599.936 3152.76,599.936 "/>
<polyline clip-path="url(#clip922)" style="stroke:#000000; stroke-linecap:round; stroke-linejoin:round; stroke-width:2; stroke-opacity:0.1; fill:none" points="192.191,483.824 3152.76,483.824 "/>
<polyline clip-path="url(#clip922)" style="stroke:#000000; stroke-linecap:round; stroke-linejoin:round; stroke-width:2; stroke-opacity:0.1; fill:none" points="192.191,367.713 3152.76,367.713 "/>
<polyline clip-path="url(#clip922)" style="stroke:#000000; stroke-linecap:round; stroke-linejoin:round; stroke-width:2; stroke-opacity:0.1; fill:none" points="192.191,251.601 3152.76,251.601 "/>
<polyline clip-path="url(#clip922)" style="stroke:#000000; stroke-linecap:round; stroke-linejoin:round; stroke-width:2; stroke-opacity:0.1; fill:none" points="192.191,135.489 3152.76,135.489 "/>
<polyline clip-path="url(#clip920)" style="stroke:#000000; stroke-linecap:round; stroke-linejoin:round; stroke-width:4; stroke-opacity:1; fill:none" points="192.191,716.048 192.191,47.2441 "/>
<polyline clip-path="url(#clip920)" style="stroke:#000000; stroke-linecap:round; stroke-linejoin:round; stroke-width:4; stroke-opacity:1; fill:none" points="192.191,716.048 211.088,716.048 "/>
<polyline clip-path="url(#clip920)" style="stroke:#000000; stroke-linecap:round; stroke-linejoin:round; stroke-width:4; stroke-opacity:1; fill:none" points="192.191,599.936 211.088,599.936 "/>
<polyline clip-path="url(#clip920)" style="stroke:#000000; stroke-linecap:round; stroke-linejoin:round; stroke-width:4; stroke-opacity:1; fill:none" points="192.191,483.824 211.088,483.824 "/>
<polyline clip-path="url(#clip920)" style="stroke:#000000; stroke-linecap:round; stroke-linejoin:round; stroke-width:4; stroke-opacity:1; fill:none" points="192.191,367.713 211.088,367.713 "/>
<polyline clip-path="url(#clip920)" style="stroke:#000000; stroke-linecap:round; stroke-linejoin:round; stroke-width:4; stroke-opacity:1; fill:none" points="192.191,251.601 211.088,251.601 "/>
<polyline clip-path="url(#clip920)" style="stroke:#000000; stroke-linecap:round; stroke-linejoin:round; stroke-width:4; stroke-opacity:1; fill:none" points="192.191,135.489 211.088,135.489 "/>
<path clip-path="url(#clip920)" d="M87.0151 701.847 Q83.404 701.847 81.5753 705.411 Q79.7697 708.953 79.7697 716.083 Q79.7697 723.189 81.5753 726.754 Q83.404 730.295 87.0151 730.295 Q90.6493 730.295 92.4548 726.754 Q94.2835 723.189 94.2835 716.083 Q94.2835 708.953 92.4548 705.411 Q90.6493 701.847 87.0151 701.847 M87.0151 698.143 Q92.8252 698.143 95.8808 702.749 Q98.9594 707.333 98.9594 716.083 Q98.9594 724.809 95.8808 729.416 Q92.8252 733.999 87.0151 733.999 Q81.2049 733.999 78.1262 729.416 Q75.0707 724.809 75.0707 716.083 Q75.0707 707.333 78.1262 702.749 Q81.2049 698.143 87.0151 698.143 Z" fill="#000000" fill-rule="evenodd" fill-opacity="1" /><path clip-path="url(#clip920)" d="M107.177 727.448 L112.061 727.448 L112.061 733.328 L107.177 733.328 L107.177 727.448 Z" fill="#000000" fill-rule="evenodd" fill-opacity="1" /><path clip-path="url(#clip920)" d="M132.246 701.847 Q128.635 701.847 126.807 705.411 Q125.001 708.953 125.001 716.083 Q125.001 723.189 126.807 726.754 Q128.635 730.295 132.246 730.295 Q135.881 730.295 137.686 726.754 Q139.515 723.189 139.515 716.083 Q139.515 708.953 137.686 705.411 Q135.881 701.847 132.246 701.847 M132.246 698.143 Q138.056 698.143 141.112 702.749 Q144.191 707.333 144.191 716.083 Q144.191 724.809 141.112 729.416 Q138.056 733.999 132.246 733.999 Q126.436 733.999 123.357 729.416 Q120.302 724.809 120.302 716.083 Q120.302 707.333 123.357 702.749 Q126.436 698.143 132.246 698.143 Z" fill="#000000" fill-rule="evenodd" fill-opacity="1" /><path clip-path="url(#clip920)" d="M82.0382 613.281 L98.3576 613.281 L98.3576 617.216 L76.4133 617.216 L76.4133 613.281 Q79.0753 610.526 83.6586 605.897 Q88.2651 601.244 89.4456 599.901 Q91.691 597.378 92.5706 595.642 Q93.4734 593.883 93.4734 592.193 Q93.4734 589.438 91.5289 587.702 Q89.6076 585.966 86.5058 585.966 Q84.3067 585.966 81.8531 586.73 Q79.4225 587.494 76.6447 589.045 L76.6447 584.323 Q79.4688 583.189 81.9225 582.61 Q84.3762 582.031 86.4132 582.031 Q91.7836 582.031 94.978 584.716 Q98.1724 587.401 98.1724 591.892 Q98.1724 594.022 97.3622 595.943 Q96.5752 597.841 94.4687 600.434 Q93.89 601.105 90.7882 604.323 Q87.6864 607.517 82.0382 613.281 Z" fill="#000000" fill-rule="evenodd" fill-opacity="1" /><path clip-path="url(#clip920)" d="M108.172 611.337 L113.057 611.337 L113.057 617.216 L108.172 617.216 L108.172 611.337 Z" fill="#000000" fill-rule="evenodd" fill-opacity="1" /><path clip-path="url(#clip920)" d="M123.288 582.656 L141.644 582.656 L141.644 586.591 L127.57 586.591 L127.57 595.063 Q128.589 594.716 129.607 594.554 Q130.626 594.369 131.644 594.369 Q137.431 594.369 140.811 597.54 Q144.191 600.712 144.191 606.128 Q144.191 611.707 140.718 614.809 Q137.246 617.887 130.927 617.887 Q128.751 617.887 126.482 617.517 Q124.237 617.147 121.83 616.406 L121.83 611.707 Q123.913 612.841 126.135 613.397 Q128.357 613.952 130.834 613.952 Q134.839 613.952 137.177 611.846 Q139.515 609.739 139.515 606.128 Q139.515 602.517 137.177 600.411 Q134.839 598.304 130.834 598.304 Q128.959 598.304 127.084 598.721 Q125.232 599.137 123.288 600.017 L123.288 582.656 Z" fill="#000000" fill-rule="evenodd" fill-opacity="1" /><path clip-path="url(#clip920)" d="M77.0614 466.544 L95.4178 466.544 L95.4178 470.48 L81.3438 470.48 L81.3438 478.952 Q82.3623 478.604 83.3808 478.442 Q84.3993 478.257 85.4178 478.257 Q91.2049 478.257 94.5845 481.429 Q97.9641 484.6 97.9641 490.016 Q97.9641 495.595 94.4919 498.697 Q91.0197 501.776 84.7003 501.776 Q82.5243 501.776 80.2558 501.405 Q78.0105 501.035 75.6031 500.294 L75.6031 495.595 Q77.6864 496.729 79.9086 497.285 Q82.1308 497.84 84.6077 497.84 Q88.6123 497.84 90.9502 495.734 Q93.2882 493.628 93.2882 490.016 Q93.2882 486.405 90.9502 484.299 Q88.6123 482.192 84.6077 482.192 Q82.7327 482.192 80.8577 482.609 Q79.0058 483.026 77.0614 483.905 L77.0614 466.544 Z" fill="#000000" fill-rule="evenodd" fill-opacity="1" /><path clip-path="url(#clip920)" d="M107.177 495.225 L112.061 495.225 L112.061 501.104 L107.177 501.104 L107.177 495.225 Z" fill="#000000" fill-rule="evenodd" fill-opacity="1" /><path clip-path="url(#clip920)" d="M132.246 469.623 Q128.635 469.623 126.807 473.188 Q125.001 476.729 125.001 483.859 Q125.001 490.966 126.807 494.53 Q128.635 498.072 132.246 498.072 Q135.881 498.072 137.686 494.53 Q139.515 490.966 139.515 483.859 Q139.515 476.729 137.686 473.188 Q135.881 469.623 132.246 469.623 M132.246 465.919 Q138.056 465.919 141.112 470.526 Q144.191 475.109 144.191 483.859 Q144.191 492.586 141.112 497.192 Q138.056 501.776 132.246 501.776 Q126.436 501.776 123.357 497.192 Q120.302 492.586 120.302 483.859 Q120.302 475.109 123.357 470.526 Q126.436 465.919 132.246 465.919 Z" fill="#000000" fill-rule="evenodd" fill-opacity="1" /><path clip-path="url(#clip920)" d="M76.8299 350.433 L99.052 350.433 L99.052 352.423 L86.5058 384.993 L81.6216 384.993 L93.4271 354.368 L76.8299 354.368 L76.8299 350.433 Z" fill="#000000" fill-rule="evenodd" fill-opacity="1" /><path clip-path="url(#clip920)" d="M108.172 379.113 L113.057 379.113 L113.057 384.993 L108.172 384.993 L108.172 379.113 Z" fill="#000000" fill-rule="evenodd" fill-opacity="1" /><path clip-path="url(#clip920)" d="M123.288 350.433 L141.644 350.433 L141.644 354.368 L127.57 354.368 L127.57 362.84 Q128.589 362.493 129.607 362.331 Q130.626 362.145 131.644 362.145 Q137.431 362.145 140.811 365.317 Q144.191 368.488 144.191 373.905 Q144.191 379.483 140.718 382.585 Q137.246 385.664 130.927 385.664 Q128.751 385.664 126.482 385.293 Q124.237 384.923 121.83 384.182 L121.83 379.483 Q123.913 380.618 126.135 381.173 Q128.357 381.729 130.834 381.729 Q134.839 381.729 137.177 379.622 Q139.515 377.516 139.515 373.905 Q139.515 370.294 137.177 368.187 Q134.839 366.081 130.834 366.081 Q128.959 366.081 127.084 366.497 Q125.232 366.914 123.288 367.794 L123.288 350.433 Z" fill="#000000" fill-rule="evenodd" fill-opacity="1" /><path clip-path="url(#clip920)" d="M47.6634 264.946 L55.3023 264.946 L55.3023 238.58 L46.9921 240.247 L46.9921 235.987 L55.256 234.321 L59.9319 234.321 L59.9319 264.946 L67.5707 264.946 L67.5707 268.881 L47.6634 268.881 L47.6634 264.946 Z" fill="#000000" fill-rule="evenodd" fill-opacity="1" /><path clip-path="url(#clip920)" d="M87.0151 237.399 Q83.404 237.399 81.5753 240.964 Q79.7697 244.506 79.7697 251.636 Q79.7697 258.742 81.5753 262.307 Q83.404 265.848 87.0151 265.848 Q90.6493 265.848 92.4548 262.307 Q94.2835 258.742 94.2835 251.636 Q94.2835 244.506 92.4548 240.964 Q90.6493 237.399 87.0151 237.399 M87.0151 233.696 Q92.8252 233.696 95.8808 238.302 Q98.9594 242.886 98.9594 251.636 Q98.9594 260.362 95.8808 264.969 Q92.8252 269.552 87.0151 269.552 Q81.2049 269.552 78.1262 264.969 Q75.0707 260.362 75.0707 251.636 Q75.0707 242.886 78.1262 238.302 Q81.2049 233.696 87.0151 233.696 Z" fill="#000000" fill-rule="evenodd" fill-opacity="1" /><path clip-path="url(#clip920)" d="M107.177 263.001 L112.061 263.001 L112.061 268.881 L107.177 268.881 L107.177 263.001 Z" fill="#000000" fill-rule="evenodd" fill-opacity="1" /><path clip-path="url(#clip920)" d="M132.246 237.399 Q128.635 237.399 126.807 240.964 Q125.001 244.506 125.001 251.636 Q125.001 258.742 126.807 262.307 Q128.635 265.848 132.246 265.848 Q135.881 265.848 137.686 262.307 Q139.515 258.742 139.515 251.636 Q139.515 244.506 137.686 240.964 Q135.881 237.399 132.246 237.399 M132.246 233.696 Q138.056 233.696 141.112 238.302 Q144.191 242.886 144.191 251.636 Q144.191 260.362 141.112 264.969 Q138.056 269.552 132.246 269.552 Q126.436 269.552 123.357 264.969 Q120.302 260.362 120.302 251.636 Q120.302 242.886 123.357 238.302 Q126.436 233.696 132.246 233.696 Z" fill="#000000" fill-rule="evenodd" fill-opacity="1" /><path clip-path="url(#clip920)" d="M48.6588 148.834 L56.2976 148.834 L56.2976 122.468 L47.9875 124.135 L47.9875 119.876 L56.2513 118.209 L60.9272 118.209 L60.9272 148.834 L68.5661 148.834 L68.5661 152.769 L48.6588 152.769 L48.6588 148.834 Z" fill="#000000" fill-rule="evenodd" fill-opacity="1" /><path clip-path="url(#clip920)" d="M82.0382 148.834 L98.3576 148.834 L98.3576 152.769 L76.4133 152.769 L76.4133 148.834 Q79.0753 146.079 83.6586 141.45 Q88.2651 136.797 89.4456 135.454 Q91.691 132.931 92.5706 131.195 Q93.4734 129.436 93.4734 127.746 Q93.4734 124.991 91.5289 123.255 Q89.6076 121.519 86.5058 121.519 Q84.3067 121.519 81.8531 122.283 Q79.4225 123.047 76.6447 124.598 L76.6447 119.876 Q79.4688 118.741 81.9225 118.163 Q84.3762 117.584 86.4132 117.584 Q91.7836 117.584 94.978 120.269 Q98.1724 122.954 98.1724 127.445 Q98.1724 129.575 97.3622 131.496 Q96.5752 133.394 94.4687 135.987 Q93.89 136.658 90.7882 139.876 Q87.6864 143.07 82.0382 148.834 Z" fill="#000000" fill-rule="evenodd" fill-opacity="1" /><path clip-path="url(#clip920)" d="M108.172 146.889 L113.057 146.889 L113.057 152.769 L108.172 152.769 L108.172 146.889 Z" fill="#000000" fill-rule="evenodd" fill-opacity="1" /><path clip-path="url(#clip920)" d="M123.288 118.209 L141.644 118.209 L141.644 122.144 L127.57 122.144 L127.57 130.616 Q128.589 130.269 129.607 130.107 Q130.626 129.922 131.644 129.922 Q137.431 129.922 140.811 133.093 Q144.191 136.264 144.191 141.681 Q144.191 147.26 140.718 150.362 Q137.246 153.44 130.927 153.44 Q128.751 153.44 126.482 153.07 Q124.237 152.7 121.83 151.959 L121.83 147.26 Q123.913 148.394 126.135 148.95 Q128.357 149.505 130.834 149.505 Q134.839 149.505 137.177 147.399 Q139.515 145.292 139.515 141.681 Q139.515 138.07 137.177 135.964 Q134.839 133.857 130.834 133.857 Q128.959 133.857 127.084 134.274 Q125.232 134.69 123.288 135.57 L123.288 118.209 Z" fill="#000000" fill-rule="evenodd" fill-opacity="1" /><polyline clip-path="url(#clip922)" style="stroke:#009af9; stroke-linecap:round; stroke-linejoin:round; stroke-width:2; stroke-opacity:1; fill:none" points="275.98,165.796 277.981,154.604 279.982,346.469 281.982,348.98 283.983,161.996 285.984,158.868 287.984,159.87 289.985,155.668 291.986,158.715 293.987,160.671 295.987,165.87 297.988,146.316 299.989,153.247 301.989,160.889 303.99,160.028 305.991,159.47 307.992,148.589 309.992,164.938 311.993,164.266 313.994,153.927 315.994,158.752 317.995,166.331 319.996,336.822 321.997,338.774 323.997,161.488 325.998,162.855 327.999,152.896 329.999,153.553 332,164.159 334.001,343.483 336.001,348.796 338.002,349.3 340.003,344.448 342.004,152.279 344.004,164.657 346.005,152.536 348.006,169.342 350.006,151.934 352.007,170.179 354.008,145.017 356.009,162.937 358.009,163.281 360.01,152.411 362.011,156.92 364.011,152.601 366.012,161.338 368.013,158.001 370.013,344.495 372.014,348.474 374.015,345.45 376.016,166.372 378.016,162.536 380.017,162.842 382.018,347.689 384.018,343.379 386.019,343.98 388.02,336.13 390.021,337.123 392.021,349.519 394.022,347.58 396.023,529.487 398.023,528.319 400.024,344.356 402.025,339.721 404.025,164.289 406.026,159.537 408.027,176.992 410.028,161.547 412.028,153.105 414.029,152.494 416.03,153.976 418.03,164.234 420.031,150.869 422.032,153.172 424.033,156.618 426.033,333.18 428.034,164.473 430.035,161.067 432.035,152.234 434.036,154.877 436.037,173.604 438.037,154.17 440.038,167.421 442.039,146.705 444.04,157.35 446.04,162.295 448.041,154.544 450.042,162.074 452.042,150.924 454.043,167.743 456.044,160.002 458.045,165.999 460.045,159.023 462.046,156.171 464.047,153.899 466.047,155.615 468.048,156.474 470.049,162.41 472.049,155.685 474.05,161.082 476.051,169.807 478.052,169.755 480.052,154.329 482.053,156.61 484.054,158.913 486.054,164.286 488.055,151.075 490.056,159.623 492.057,156.656 494.057,155.327 496.058,160.077 498.059,162.813 500.059,171.125 502.06,170.337 504.061,170.479 506.061,180.244 508.062,347.706 510.063,348.998 512.064,353.715 514.064,340.806 516.065,329.998 518.066,358.46 520.066,331.739 522.067,519.074 524.068,540.143 526.069,337.939 528.069,342.425 530.07,339.918 532.071,167.631 534.071,149.435 536.072,166.49 538.073,148.69 540.073,165.591 542.074,161.567 544.075,155.835 546.076,147.238 548.076,168.553 550.077,160.575 552.078,159.139 554.078,155.272 556.079,151.964 558.08,156.951 560.081,155.943 562.081,153.073 564.082,160.819 566.083,159.931 568.083,155.47 570.084,164.499 572.085,348.797 574.086,335.3 576.086,347.853 578.087,339.226 580.088,344.041 582.088,350.569 584.089,352.16 586.09,343.79 588.09,341.014 590.091,346.518 592.092,344.961 594.093,340.647 596.093,345.495 598.094,352.268 600.095,160.266 602.095,161.423 604.096,156.702 606.097,159.071 608.098,148.091 610.098,170.449 612.099,151.756 614.1,160.685 616.1,150.926 618.101,145.498 620.102,155.495 622.102,155.151 624.103,157.786 626.104,150.978 628.105,168.023 630.105,161.448 632.106,156.083 634.107,158.415 636.107,165.568 638.108,163.405 640.109,162.779 642.11,162.156 644.11,153.61 646.111,163.857 648.112,157.043 650.112,151.51 652.113,158.75 654.114,161.269 656.114,160.882 658.115,159.684 660.116,154.518 662.117,166.466 664.117,158.316 666.118,153.784 668.119,155.97 670.119,347.794 672.12,341.495 674.121,343.662 676.122,349.737 678.122,352.818 680.123,347.312 682.124,353.326 684.124,338.751 686.125,338.693 688.126,333 690.126,340.862 692.127,353.284 694.128,350.567 696.129,543.728 698.129,521.817 700.13,541.215 702.131,522.174 704.131,337.725 706.132,347.503 708.133,334.366 710.134,519.289 712.134,341.955 714.135,534.348 716.136,531.186 718.136,528.319 720.137,532.074 722.138,538.147 724.138,528.372 726.139,538.608 728.14,533.73 730.141,530.409 732.141,527.65 734.142,527.432 736.143,533.46 738.143,540.92 740.144,531.067 742.145,531.455 744.146,539.977 746.146,526.047 748.147,526.452 750.148,338.58 752.148,526.092 754.149,536.396 756.15,525.425 758.15,533.065 760.151,348.358 762.152,351.47 764.153,151.925 766.153,163.878 768.154,345.589 770.155,342.169 772.155,344.641 774.156,340.27 776.157,345.875 778.158,346.085 780.158,153.01 782.159,160.757 784.16,339.957 786.16,343.249 788.161,347.662 790.162,339.978 792.162,342.582 794.163,153.481 796.164,157.779 798.165,153.302 800.165,164.179 802.166,156.441 804.167,160.553 806.167,170.957 808.168,146 810.169,146.883 812.17,148.433 814.17,167.041 816.171,156.572 818.172,158.929 820.172,160.535 822.173,154.003 824.174,156.039 826.175,157.018 828.175,344.494 830.176,344.01 832.177,348.791 834.177,345.222 836.178,339.875 838.179,345.754 840.179,347.27 842.18,348.196 844.181,158.668 846.182,150.87 848.182,161.21 850.183,154.492 852.184,163.255 854.184,355.279 856.185,351.532 858.186,345.934 860.187,528.435 862.187,527.154 864.188,526.246 866.189,537.769 868.189,530.028 870.19,356.249 872.191,339.767 874.191,338.369 876.192,162.951 878.193,143.877 880.194,158.763 882.194,165.4 884.195,338.641 886.196,347.26 888.196,344.349 890.197,161.901 892.198,163.272 894.199,166.753 896.199,169.145 898.2,154.365 900.201,152.311 902.201,152.097 904.202,158.612 906.203,165.842 908.203,157.561 910.204,151.609 912.205,167.055 914.206,158.188 916.206,160.472 918.207,162.143 920.208,151.558 922.208,162.164 924.209,158.067 926.21,158.736 928.211,169.421 930.211,146.741 932.212,159.724 934.213,171.693 936.213,145.043 938.214,146.979 940.215,165.011 942.215,157.152 944.216,152.623 946.217,154.64 948.218,339.642 950.218,346.911 952.219,348.043 954.22,162.72 956.22,145.745 958.221,160.049 960.222,167.246 962.223,166.51 964.223,141.737 966.224,170.531 968.225,158.532 970.225,158.444 972.226,163.637 974.227,162.853 976.227,155.275 978.228,161.891 980.229,167.69 982.23,151.102 984.23,163.94 986.231,345.382 988.232,344.392 990.232,151.424 992.233,165.091 994.234,160.692 996.235,156.446 998.235,156.464 1000.24,152.183 1002.24,160.5 1004.24,158.117 1006.24,156.927 1008.24,159.887 1010.24,154.222 1012.24,151.09 1014.24,162.199 1016.24,157.839 1018.24,161.435 1020.24,161.5 1022.24,156.643 1024.24,160.465 1026.25,152.541 1028.25,338.584 1030.25,347.991 1032.25,338.039 1034.25,351.043 1036.25,340.668 1038.25,159.212 1040.25,158.07 1042.25,163.65 1044.25,155.63 1046.25,156.452 1048.25,169.331 1050.25,152.483 1052.25,163.697 1054.26,148.409 1056.26,158.29 1058.26,155.068 1060.26,157.258 1062.26,154.785 1064.26,157.422 1066.26,155.877 1068.26,153.279 1070.26,159.38 1072.26,147.738 1074.26,151.531 1076.26,151.14 1078.26,163.461 1080.26,350.047 1082.26,335.191 1084.27,354.456 1086.27,353.866 1088.27,339.963 1090.27,167.04 1092.27,351.403 1094.27,341.691 1096.27,348.242 1098.27,356.791 1100.27,360.344 1102.27,359.668 1104.27,329.401 1106.27,343.943 1108.27,339.097 1110.27,338.907 1112.28,337.516 1114.28,528.969 1116.28,535.694 1118.28,532.642 1120.28,519.94 1122.28,524.875 1124.28,524.269 1126.28,348.767 1128.28,346.78 1130.28,348.58 1132.28,152.719 1134.28,169.71 1136.28,168.878 1138.28,156.566 1140.29,160.166 1142.29,162.213 1144.29,160.77 1146.29,348.445 1148.29,151.194 1150.29,160.388 1152.29,159.955 1154.29,347.497 1156.29,347.276 1158.29,519.935 1160.29,520.37 1162.29,335.638 1164.29,359.018 1166.29,355.878 1168.3,345.677 1170.3,346.468 1172.3,339.982 1174.3,160.825 1176.3,162.109 1178.3,154.969 1180.3,352.159 1182.3,330.536 1184.3,357.881 1186.3,155.716 1188.3,161.599 1190.3,155.853 1192.3,162.815 1194.3,154.204 1196.31,344.218 1198.31,343.433 1200.31,349.784 1202.31,344.438 1204.31,342.815 1206.31,343.471 1208.31,342.743 1210.31,346.736 1212.31,341.802 1214.31,344.512 1216.31,529.079 1218.31,532.749 1220.31,530.971 1222.31,527.901 1224.32,527.894 1226.32,525.633 1228.32,529.982 1230.32,527.317 1232.32,356.328 1234.32,355.233 1236.32,337.838 1238.32,345.138 1240.32,336.069 1242.32,157.674 1244.32,156.185 1246.32,161.864 1248.32,162.86 1250.32,151.947 1252.32,161.964 1254.33,162.654 1256.33,152.973 1258.33,154.191 1260.33,157.072 1262.33,158.771 1264.33,155.846 1266.33,155.236 1268.33,157.555 1270.33,159.025 1272.33,152.14 1274.33,151.72 1276.33,159.406 1278.33,157.251 1280.33,154.54 1282.34,145.195 1284.34,153.64 1286.34,158.956 1288.34,152.353 1290.34,163.165 1292.34,167.27 1294.34,168.484 1296.34,139.856 1298.34,161.442 1300.34,158.25 1302.34,160.624 1304.34,344.88 1306.34,540.632 1308.34,525.714 1310.35,530.221 1312.35,517.112 1314.35,342.049 1316.35,351.608 1318.35,341.923 1320.35,349.684 1322.35,341.136 1324.35,166.927 1326.35,164.524 1328.35,151.801 1330.35,161.475 1332.35,159.793 1334.35,148.812 1336.35,165.157 1338.36,158.548 1340.36,158.244 1342.36,156.449 1344.36,161.386 1346.36,160.573 1348.36,153.274 1350.36,362.184 1352.36,175.279 1354.36,145.706 1356.36,144.017 1358.36,160.542 1360.36,154.988 1362.36,157.239 1364.36,173.297 1366.37,147.032 1368.37,152.61 1370.37,342.276 1372.37,350.748 1374.37,349.151 1376.37,521.878 1378.37,524.91 1380.37,532.555 1382.37,533.994 1384.37,349.783 1386.37,337.589 1388.37,333.722 1390.37,152.412 1392.37,159.038 1394.38,157.705 1396.38,159.045 1398.38,153.05 1400.38,160.981 1402.38,163.916 1404.38,166.26 1406.38,167.264 1408.38,148 1410.38,335.969 1412.38,336.819 1414.38,158.854 1416.38,163.103 1418.38,160.868 1420.38,157.153 1422.38,156.036 1424.39,351.608 1426.39,341.015 1428.39,158.969 1430.39,146.627 1432.39,334.731 1434.39,156.352 1436.39,164.013 1438.39,348.868 1440.39,346.425 1442.39,521.061 1444.39,336.321 1446.39,164.622 1448.39,349.667 1450.39,146.642 1452.4,170.348 1454.4,340.824 1456.4,344.941 1458.4,347.641 1460.4,147.671 1462.4,349.734 1464.4,353.337 1466.4,529.341 1468.4,532.635 1470.4,536.106 1472.4,347.112 1474.4,149.645 1476.4,154.211 1478.4,153.631 1480.41,353.102 1482.41,346.479 1484.41,337.548 1486.41,333.63 1488.41,351.154 1490.41,342.921 1492.41,343.84 1494.41,349.023 1496.41,334.998 1498.41,332.766 1500.41,150.371 1502.41,145.553 1504.41,167.059 1506.41,170.549 1508.42,340.284 1510.42,333.12 1512.42,345.98 1514.42,339.134 1516.42,340.298 1518.42,159.212 1520.42,351.92 1522.42,344.025 1524.42,349.98 1526.42,354.87 1528.42,337.673 1530.42,338.979 1532.42,339.363 1534.42,523.37 1536.43,526.246 1538.43,531.506 1540.43,534.287 1542.43,530.523 1544.43,340.59 1546.43,336.868 1548.43,351.672 1550.43,353.96 1552.43,346.562 1554.43,344.365 1556.43,341.489 1558.43,348.246 1560.43,155.649 1562.43,157.198 1564.44,159.154 1566.44,162.502 1568.44,157.114 1570.44,147.113 1572.44,161.541 1574.44,157.074 1576.44,162.02 1578.44,164.555 1580.44,153.904 1582.44,165.881 1584.44,164.86 1586.44,159.607 1588.44,154.989 1590.44,149.909 1592.45,165.21 1594.45,163.337 1596.45,159.592 1598.45,162.07 1600.45,161.304 1602.45,157.755 1604.45,155.65 1606.45,155.982 1608.45,160.886 1610.45,155.092 1612.45,152.074 1614.45,154.741 1616.45,159.918 1618.45,155.292 1620.45,160.904 1622.46,160.553 1624.46,162.118 1626.46,144.985 1628.46,154.346 1630.46,164.968 1632.46,155.696 1634.46,151.121 1636.46,157.981 1638.46,163.202 1640.46,155.735 1642.46,161.679 1644.46,155.894 1646.46,152.145 1648.46,158.776 1650.47,154.784 1652.47,158.761 1654.47,162.736 1656.47,158.121 1658.47,342.847 1660.47,342.332 1662.47,339.12 1664.47,355.791 1666.47,168.734 1668.47,156.735 1670.47,158.979 1672.47,161.357 1674.47,164.674 1676.47,156.56 1678.48,162.143 1680.48,158.943 1682.48,341.145 1684.48,163.227 1686.48,345.225 1688.48,345.231 1690.48,350.9 1692.48,351.623 1694.48,350.805 1696.48,338.184 1698.48,349.837 1700.48,335.352 1702.48,350.885 1704.48,525.582 1706.49,533.608 1708.49,532.202 1710.49,526.12 1712.49,518.996 1714.49,535.952 1716.49,339.72 1718.49,155.139 1720.49,345.961 1722.49,354.443 1724.49,332.002 1726.49,335.231 1728.49,166.832 1730.49,171.601 1732.49,347.991 1734.5,164.524 1736.5,157.183 1738.5,153.7 1740.5,163.377 1742.5,154.989 1744.5,159.825 1746.5,157.807 1748.5,162.774 1750.5,158.187 1752.5,150.443 1754.5,153.662 1756.5,166.134 1758.5,164.69 1760.5,164.879 1762.51,163.068 1764.51,160.969 1766.51,344.003 1768.51,352.006 1770.51,346.114 1772.51,343.357 1774.51,156.682 1776.51,157.619 1778.51,149.737 1780.51,165.61 1782.51,160.838 1784.51,159.746 1786.51,157.129 1788.51,160.845 1790.51,158.592 1792.52,160.609 1794.52,154.187 1796.52,347.02 1798.52,168.875 1800.52,149.748 1802.52,151.119 1804.52,158.154 1806.52,158.699 1808.52,170.64 1810.52,339.045 1812.52,352.533 1814.52,341.18 1816.52,335.243 1818.52,345.359 1820.53,342.726 1822.53,339.367 1824.53,350.969 1826.53,161.805 1828.53,158.625 1830.53,164.21 1832.53,163.806 1834.53,153.994 1836.53,155.657 1838.53,149.6 1840.53,150.367 1842.53,335.671 1844.53,354.471 1846.53,149.678 1848.54,161.198 1850.54,155.494 1852.54,155.754 1854.54,164.52 1856.54,335.734 1858.54,355.299 1860.54,341.37 1862.54,168.038 1864.54,350.11 1866.54,330.794 1868.54,167.6 1870.54,149.53 1872.54,149.869 1874.54,163.228 1876.55,164.767 1878.55,158.913 1880.55,157.869 1882.55,353.949 1884.55,337.586 1886.55,343.981 1888.55,343.18 1890.55,357.349 1892.55,323.745 1894.55,345.878 1896.55,347.499 1898.55,339.204 1900.55,335.965 1902.55,347.248 1904.56,340.518 1906.56,163.011 1908.56,158.661 1910.56,161.556 1912.56,159.64 1914.56,150.44 1916.56,153.581 1918.56,159.443 1920.56,162.545 1922.56,353.375 1924.56,347.602 1926.56,338.251 1928.56,167.569 1930.56,160.319 1932.57,155.275 1934.57,163.69 1936.57,160.334 1938.57,156.17 1940.57,150.982 1942.57,164.83 1944.57,156.214 1946.57,167.295 1948.57,150.995 1950.57,158.721 1952.57,158.396 1954.57,156.271 1956.57,155.172 1958.57,167.026 1960.58,144.03 1962.58,160.452 1964.58,147.362 1966.58,159.257 1968.58,158.311 1970.58,157.188 1972.58,157.806 1974.58,349.017 1976.58,347.944 1978.58,154.653 1980.58,341.266 1982.58,346.47 1984.58,344.679 1986.58,153.243 1988.58,153.877 1990.59,158.665 1992.59,148.589 1994.59,158.982 1996.59,166.906 1998.59,158.368 2000.59,340.065 2002.59,158.007 2004.59,153.659 2006.59,154.384 2008.59,343.061 2010.59,350.107 2012.59,338.906 2014.59,167.813 2016.59,156.52 2018.6,153.06 2020.6,163.058 2022.6,347.025 2024.6,340.088 2026.6,340.086 2028.6,343.406 2030.6,159.014 2032.6,158.801 2034.6,153.648 2036.6,352.947 2038.6,350.252 2040.6,171.841 2042.6,154.924 2044.6,161.608 2046.61,165.631 2048.61,169.945 2050.61,150.572 2052.61,158.335 2054.61,342.859 2056.61,344.235 2058.61,349.512 2060.61,156.982 2062.61,159.233 2064.61,148.301 2066.61,163.748 2068.61,155.804 2070.61,154.421 2072.61,159.785 2074.62,152.156 2076.62,163.145 2078.62,148.842 2080.62,165.586 2082.62,166.694 2084.62,168.533 2086.62,167.702 2088.62,167.24 2090.62,171.152 2092.62,161.204 2094.62,160.416 2096.62,161.059 2098.62,151.802 2100.62,159.36 2102.63,153.389 2104.63,154.32 2106.63,165.585 2108.63,350.886 2110.63,157.877 2112.63,154.69 2114.63,334.356 2116.63,334.454 2118.63,151.917 2120.63,348.012 2122.63,340.336 2124.63,336.588 2126.63,338.78 2128.63,342.027 2130.64,343.718 2132.64,338.783 2134.64,339.581 2136.64,342.68 2138.64,351.133 2140.64,160.811 2142.64,161.839 2144.64,337.517 2146.64,334.969 2148.64,334.659 2150.64,345.781 2152.64,159.235 2154.64,153.324 2156.64,164.971 2158.64,170.376 2160.65,150.188 2162.65,157.832 2164.65,156.065 2166.65,163.589 2168.65,153.086 2170.65,155.08 2172.65,162.303 2174.65,349.87 2176.65,157.462 2178.65,150.134 2180.65,341.584 2182.65,161.125 2184.65,161.023 2186.65,156.943 2188.66,336.736 2190.66,345.216 2192.66,342.549 2194.66,339.694 2196.66,352.983 2198.66,167.273 2200.66,156.522 2202.66,333.196 2204.66,350.62 2206.66,338.727 2208.66,345.286 2210.66,513 2212.66,545.068 2214.66,522.997 2216.67,544.077 2218.67,531.19 2220.67,526.272 2222.67,526.125 2224.67,346.49 2226.67,341.883 2228.67,517.901 2230.67,543.062 2232.67,525.342 2234.67,534.605 2236.67,534.477 2238.67,527.454 2240.67,532.269 2242.67,538.233 2244.68,536.655 2246.68,519.057 2248.68,334.027 2250.68,351.651 2252.68,332.54 2254.68,350.127 2256.68,159.567 2258.68,166.01 2260.68,151.808 2262.68,163.529 2264.68,164.683 2266.68,337.988 2268.68,333.242 2270.68,331.042 2272.69,164.718 2274.69,334.608 2276.69,352.801 2278.69,345.518 2280.69,335.009 2282.69,507.25 2284.69,541.419 2286.69,518.885 2288.69,344.104 2290.69,159.419 2292.69,164.019 2294.69,163.833 2296.69,161.969 2298.69,166.901 2300.7,155.47 2302.7,153.191 2304.7,157.467 2306.7,343.193 2308.7,344.748 2310.7,337.858 2312.7,167.293 2314.7,147.429 2316.7,163.614 2318.7,153.679 2320.7,156.147 2322.7,150.801 2324.7,164.888 2326.7,162.483 2328.7,153.289 2330.71,163.518 2332.71,151.805 2334.71,164.964 2336.71,154.68 2338.71,149 2340.71,169.074 2342.71,169.061 2344.71,151.983 2346.71,168.445 2348.71,164.609 2350.71,154.632 2352.71,153.685 2354.71,156.552 2356.71,162.859 2358.72,153.084 2360.72,167.621 2362.72,160.95 2364.72,150.846 2366.72,152.295 2368.72,169.384 2370.72,147.095 2372.72,160.161 2374.72,152.314 2376.72,155.323 2378.72,151.88 2380.72,154.795 2382.72,164.086 2384.72,155.642 2386.73,159.001 2388.73,157.841 2390.73,163.108 2392.73,156.34 2394.73,155.45 2396.73,154.089 2398.73,155.224 2400.73,346.319 2402.73,342.472 2404.73,173.66 2406.73,166.476 2408.73,156.961 2410.73,163.37 2412.73,163.111 2414.74,165.249 2416.74,148.951 2418.74,165.007 2420.74,152.156 2422.74,151.734 2424.74,160.189 2426.74,154.859 2428.74,154.108 2430.74,157.172 2432.74,157.787 2434.74,148.482 2436.74,156.62 2438.74,162.584 2440.74,148.51 2442.75,165.501 2444.75,152.816 2446.75,155.411 2448.75,166.047 2450.75,160.18 2452.75,156.902 2454.75,156.271 2456.75,158.652 2458.75,156.917 2460.75,164.14 2462.75,151.631 2464.75,156.076 2466.75,152.74 2468.75,162.792 2470.76,147.895 2472.76,145.241 2474.76,156.869 2476.76,162.168 2478.76,155.818 2480.76,158.607 2482.76,337.517 2484.76,352.576 2486.76,346.325 2488.76,345.142 2490.76,159.855 2492.76,160.092 2494.76,164.893 2496.76,162.952 2498.77,162.829 2500.77,146.698 2502.77,155.226 2504.77,162.902 2506.77,162.491 2508.77,164.776 2510.77,161.887 2512.77,341.232 2514.77,155.122 2516.77,162.433 2518.77,161.113 2520.77,163.67 2522.77,145.133 2524.77,165.25 2526.77,164.033 2528.78,150.819 2530.78,142.877 2532.78,169.02 2534.78,160.193 2536.78,155.969 2538.78,152.814 2540.78,151.616 2542.78,166.575 2544.78,157.042 2546.78,161.627 2548.78,151.305 2550.78,164.376 2552.78,156.582 2554.78,159.492 2556.79,169.468 2558.79,341.771 2560.79,341.617 2562.79,346.648 2564.79,342.692 2566.79,349.091 2568.79,168.836 2570.79,147.001 2572.79,158.199 2574.79,160.833 2576.79,166.656 2578.79,163.219 2580.79,166.285 2582.79,334.996 2584.8,332.004 2586.8,347.849 2588.8,347.068 2590.8,339.149 2592.8,540.788 2594.8,537.113 2596.8,532.997 2598.8,528.171 2600.8,537.141 2602.8,535.679 2604.8,530.563 2606.8,534.444 2608.8,539.695 2610.8,537.101 2612.81,524.514 2614.81,536.052 2616.81,342.017 2618.81,350.998 2620.81,342.463 2622.81,338.437 2624.81,337.542 2626.81,163.744 2628.81,340.048 2630.81,342.725 2632.81,351.414 2634.81,337.564 2636.81,155.632 2638.81,155.279 2640.82,160.436 2642.82,159.687 2644.82,175.857 2646.82,146.347 2648.82,169.842 2650.82,165.716 2652.82,163.185 2654.82,148.749 2656.82,147.741 2658.82,170.88 2660.82,345.799 2662.82,158.806 2664.82,157.769 2666.82,162.32 2668.83,149.872 2670.83,163.889 2672.83,160.563 2674.83,164.512 2676.83,161.496 2678.83,152.988 2680.83,150.848 2682.83,155.623 2684.83,162.317 2686.83,163.506 2688.83,160.214 2690.83,339.778 2692.83,337.257 2694.83,344.03 2696.83,343.915 2698.84,342.327 2700.84,343.474 2702.84,339.886 2704.84,347.863 2706.84,156.227 2708.84,160.772 2710.84,148.777 2712.84,171.275 2714.84,163.945 2716.84,153.327 2718.84,153.296 2720.84,166.796 2722.84,153.543 2724.84,155.505 2726.85,152.147 2728.85,341.296 2730.85,528.84 2732.85,538.219 2734.85,531.41 2736.85,541.83 2738.85,338.472 2740.85,348.197 2742.85,148.187 2744.85,347.929 2746.85,521.341 2748.85,542.692 2750.85,351.905 2752.85,347.04 2754.86,347.91 2756.86,347.652 2758.86,336.227 2760.86,341.016 2762.86,339.957 2764.86,340.453 2766.86,349.033 2768.86,350.04 2770.86,339.973 2772.86,339.18 2774.86,343.743 2776.86,346.342 2778.86,342.992 2780.86,337.859 2782.87,336.359 2784.87,354.356 2786.87,342.978 2788.87,358.515 2790.87,176.105 2792.87,355.666 2794.87,344.682 2796.87,347.728 2798.87,335.703 2800.87,158.054 2802.87,161.179 2804.87,153.131 2806.87,164.127 2808.87,150.947 2810.88,151.545 2812.88,158.436 2814.88,155.109 2816.88,158.311 2818.88,342.963 2820.88,529.202 2822.88,530.016 2824.88,530.872 2826.88,345.823 2828.88,347.02 2830.88,341.657 2832.88,338.402 2834.88,161.678 2836.88,158.291 2838.89,151.66 2840.89,156.156 2842.89,160.037 2844.89,159.254 2846.89,147.258 2848.89,159.232 2850.89,161.197 2852.89,165.002 2854.89,157.865 2856.89,162.645 2858.89,159.26 2860.89,169.31 2862.89,158.312 2864.89,162.423 2866.89,159.886 2868.9,165.04 2870.9,160.259 2872.9,150.289 2874.9,167.068 2876.9,161.488 2878.9,164.257 2880.9,153.885 2882.9,155.969 2884.9,155.748 2886.9,141.048 2888.9,161.974 2890.9,161.52 2892.9,162.095 2894.9,158.172 2896.91,151.969 2898.91,162.396 2900.91,156.917 2902.91,165.124 2904.91,156.179 2906.91,161.988 2908.91,151.92 2910.91,165.042 2912.91,163.752 2914.91,165.353 2916.91,159.052 2918.91,344.536 2920.91,346.693 2922.91,338.214 2924.92,534.814 2926.92,520.966 2928.92,525.946 2930.92,335.386 2932.92,336.384 2934.92,345.687 2936.92,338.812 2938.92,536.091 2940.92,525.149 2942.92,527.171 2944.92,344.85 2946.92,335.193 2948.92,333.795 2950.92,330.37 2952.93,348.244 2954.93,352.657 2956.93,337.213 2958.93,523.357 2960.93,539.527 2962.93,347.892 2964.93,348.104 2966.93,346.826 2968.93,348.708 2970.93,167.916 2972.93,154.173 2974.93,348.586 2976.93,340.684 2978.93,338.611 2980.94,334.526 2982.94,354.776 2984.94,344.942 2986.94,342.778 2988.94,338.807 2990.94,355.651 2992.94,338.754 2994.94,353.191 2996.94,161.463 2998.94,154.232 3000.94,144.875 3002.94,169.927 3004.94,147.383 3006.94,172.294 3008.95,172.417 3010.95,337.466 3012.95,353.215 3014.95,536.115 3016.95,527.671 3018.95,524.055 3020.95,523.046 3022.95,519.392 3024.95,536.595 3026.95,533.51 3028.95,535.459 3030.95,350.556 3032.95,338.284 3034.95,528.819 3036.96,342.751 3038.96,345.869 3040.96,336.128 3042.96,350.141 3044.96,334.466 3046.96,355.355 3048.96,332.734 3050.96,358.765 3052.96,347.87 3054.96,342.327 3056.96,518.926 3058.96,354.754 3060.96,355.13 3062.96,333.08 3064.96,333.305 3066.97,333.031 3068.97,338.735 "/>
<path clip-path="url(#clip920)" d="M2662.94 693.754 L3054.07 693.754 L3054.07 590.074 L2662.94 590.074  Z" fill="#ffffff" fill-rule="evenodd" fill-opacity="1"/>
<polyline clip-path="url(#clip920)" style="stroke:#000000; stroke-linecap:round; stroke-linejoin:round; stroke-width:4; stroke-opacity:1; fill:none" points="2662.94,693.754 3054.07,693.754 3054.07,590.074 2662.94,590.074 2662.94,693.754 "/>
<polyline clip-path="url(#clip920)" style="stroke:#009af9; stroke-linecap:round; stroke-linejoin:round; stroke-width:2; stroke-opacity:1; fill:none" points="2695.84,641.914 2893.21,641.914 "/>
<path clip-path="url(#clip920)" d="M2942.5 642.991 Q2944 643.5 2945.41 645.167 Q2946.85 646.833 2948.28 649.75 L2953.03 659.194 L2948 659.194 L2943.58 650.329 Q2941.87 646.857 2940.25 645.722 Q2938.65 644.588 2935.87 644.588 L2930.78 644.588 L2930.78 659.194 L2926.11 659.194 L2926.11 624.634 L2936.66 624.634 Q2942.59 624.634 2945.5 627.111 Q2948.42 629.588 2948.42 634.588 Q2948.42 637.852 2946.89 640.005 Q2945.39 642.157 2942.5 642.991 M2930.78 628.477 L2930.78 640.745 L2936.66 640.745 Q2940.04 640.745 2941.75 639.195 Q2943.49 637.62 2943.49 634.588 Q2943.49 631.556 2941.75 630.028 Q2940.04 628.477 2936.66 628.477 L2930.78 628.477 Z" fill="#000000" fill-rule="evenodd" fill-opacity="1" /><path clip-path="url(#clip920)" d="M2968.68 629.241 L2962.33 646.44 L2975.04 646.44 L2968.68 629.241 M2966.04 624.634 L2971.34 624.634 L2984.51 659.194 L2979.65 659.194 L2976.5 650.329 L2960.92 650.329 L2957.77 659.194 L2952.84 659.194 L2966.04 624.634 Z" fill="#000000" fill-rule="evenodd" fill-opacity="1" /><path clip-path="url(#clip920)" d="M2989.56 624.634 L2996.52 624.634 L3005.34 648.153 L3014.21 624.634 L3021.18 624.634 L3021.18 659.194 L3016.62 659.194 L3016.62 628.847 L3007.7 652.551 L3003 652.551 L2994.09 628.847 L2994.09 659.194 L2989.56 659.194 L2989.56 624.634 Z" fill="#000000" fill-rule="evenodd" fill-opacity="1" /></svg>
