<?xml version="1.0" encoding="utf-8"?>
<svg xmlns="http://www.w3.org/2000/svg" xmlns:xlink="http://www.w3.org/1999/xlink" width="800" height="200" viewBox="0 0 3200 800">
<defs>
  <clipPath id="clip720">
    <rect x="0" y="0" width="3200" height="800"/>
  </clipPath>
</defs>
<path clip-path="url(#clip720)" d="M0 800 L3200 800 L3200 0 L0 0  Z" fill="#ffffff" fill-rule="evenodd" fill-opacity="1"/>
<defs>
  <clipPath id="clip721">
    <rect x="640" y="0" width="2241" height="800"/>
  </clipPath>
</defs>
<path clip-path="url(#clip720)" d="M192.191 716.048 L3152.76 716.048 L3152.76 47.2441 L192.191 47.2441  Z" fill="#ffffff" fill-rule="evenodd" fill-opacity="1"/>
<defs>
  <clipPath id="clip722">
    <rect x="192" y="47" width="2962" height="670"/>
  </clipPath>
</defs>
<polyline clip-path="url(#clip722)" style="stroke:#000000; stroke-linecap:round; stroke-linejoin:round; stroke-width:2; stroke-opacity:0.1; fill:none" points="274.923,716.048 274.923,47.2441 "/>
<polyline clip-path="url(#clip722)" style="stroke:#000000; stroke-linecap:round; stroke-linejoin:round; stroke-width:2; stroke-opacity:0.1; fill:none" points="803.697,716.048 803.697,47.2441 "/>
<polyline clip-path="url(#clip722)" style="stroke:#000000; stroke-linecap:round; stroke-linejoin:round; stroke-width:2; stroke-opacity:0.1; fill:none" points="1332.47,716.048 1332.47,47.2441 "/>
<polyline clip-path="url(#clip722)" style="stroke:#000000; stroke-linecap:round; stroke-linejoin:round; stroke-width:2; stroke-opacity:0.1; fill:none" points="1861.25,716.048 1861.25,47.2441 "/>
<polyline clip-path="url(#clip722)" style="stroke:#000000; stroke-linecap:round; stroke-linejoin:round; stroke-width:2; stroke-opacity:0.1; fill:none" points="2390.02,716.048 2390.02,47.2441 "/>
<polyline clip-path="url(#clip722)" style="stroke:#000000; stroke-linecap:round; stroke-linejoin:round; stroke-width:2; stroke-opacity:0.1; fill:none" points="2918.79,716.048 2918.79,47.2441 "/>
<polyline clip-path="url(#clip720)" style="stroke:#000000; stroke-linecap:round; stroke-linejoin:round; stroke-width:4; stroke-opacity:1; fill:none" points="192.191,716.048 3152.76,716.048 "/>
<polyline clip-path="url(#clip720)" style="stroke:#000000; stroke-linecap:round; stroke-linejoin:round; stroke-width:4; stroke-opacity:1; fill:none" points="274.923,716.048 274.923,697.15 "/>
<polyline clip-path="url(#clip720)" style="stroke:#000000; stroke-linecap:round; stroke-linejoin:round; stroke-width:4; stroke-opacity:1; fill:none" points="803.697,716.048 803.697,697.15 "/>
<polyline clip-path="url(#clip720)" style="stroke:#000000; stroke-linecap:round; stroke-linejoin:round; stroke-width:4; stroke-opacity:1; fill:none" points="1332.47,716.048 1332.47,697.15 "/>
<polyline clip-path="url(#clip720)" style="stroke:#000000; stroke-linecap:round; stroke-linejoin:round; stroke-width:4; stroke-opacity:1; fill:none" points="1861.25,716.048 1861.25,697.15 "/>
<polyline clip-path="url(#clip720)" style="stroke:#000000; stroke-linecap:round; stroke-linejoin:round; stroke-width:4; stroke-opacity:1; fill:none" points="2390.02,716.048 2390.02,697.15 "/>
<polyline clip-path="url(#clip720)" style="stroke:#000000; stroke-linecap:round; stroke-linejoin:round; stroke-width:4; stroke-opacity:1; fill:none" points="2918.79,716.048 2918.79,697.15 "/>
<path clip-path="url(#clip720)" d="M274.923 753.367 Q271.312 753.367 269.483 756.931 Q267.677 760.473 267.677 767.603 Q267.677 774.709 269.483 778.274 Q271.312 781.815 274.923 781.815 Q278.557 781.815 280.362 778.274 Q282.191 774.709 282.191 767.603 Q282.191 760.473 280.362 756.931 Q278.557 753.367 274.923 753.367 M274.923 749.663 Q280.733 749.663 283.788 754.269 Q286.867 758.853 286.867 767.603 Q286.867 776.329 283.788 780.936 Q280.733 785.519 274.923 785.519 Q269.113 785.519 266.034 780.936 Q262.978 776.329 262.978 767.603 Q262.978 758.853 266.034 754.269 Q269.113 749.663 274.923 749.663 Z" fill="#000000" fill-rule="evenodd" fill-opacity="1" /><path clip-path="url(#clip720)" d="M763.315 750.288 L781.672 750.288 L781.672 754.223 L767.598 754.223 L767.598 762.695 Q768.616 762.348 769.635 762.186 Q770.653 762.001 771.672 762.001 Q777.459 762.001 780.838 765.172 Q784.218 768.343 784.218 773.76 Q784.218 779.339 780.746 782.44 Q777.274 785.519 770.954 785.519 Q768.778 785.519 766.51 785.149 Q764.264 784.778 761.857 784.038 L761.857 779.339 Q763.94 780.473 766.163 781.028 Q768.385 781.584 770.862 781.584 Q774.866 781.584 777.204 779.478 Q779.542 777.371 779.542 773.76 Q779.542 770.149 777.204 768.042 Q774.866 765.936 770.862 765.936 Q768.987 765.936 767.112 766.353 Q765.26 766.769 763.315 767.649 L763.315 750.288 Z" fill="#000000" fill-rule="evenodd" fill-opacity="1" /><path clip-path="url(#clip720)" d="M803.431 753.367 Q799.82 753.367 797.991 756.931 Q796.186 760.473 796.186 767.603 Q796.186 774.709 797.991 778.274 Q799.82 781.815 803.431 781.815 Q807.065 781.815 808.871 778.274 Q810.699 774.709 810.699 767.603 Q810.699 760.473 808.871 756.931 Q807.065 753.367 803.431 753.367 M803.431 749.663 Q809.241 749.663 812.297 754.269 Q815.375 758.853 815.375 767.603 Q815.375 776.329 812.297 780.936 Q809.241 785.519 803.431 785.519 Q797.621 785.519 794.542 780.936 Q791.486 776.329 791.486 767.603 Q791.486 758.853 794.542 754.269 Q797.621 749.663 803.431 749.663 Z" fill="#000000" fill-rule="evenodd" fill-opacity="1" /><path clip-path="url(#clip720)" d="M833.593 753.367 Q829.982 753.367 828.153 756.931 Q826.347 760.473 826.347 767.603 Q826.347 774.709 828.153 778.274 Q829.982 781.815 833.593 781.815 Q837.227 781.815 839.033 778.274 Q840.861 774.709 840.861 767.603 Q840.861 760.473 839.033 756.931 Q837.227 753.367 833.593 753.367 M833.593 749.663 Q839.403 749.663 842.458 754.269 Q845.537 758.853 845.537 767.603 Q845.537 776.329 842.458 780.936 Q839.403 785.519 833.593 785.519 Q827.783 785.519 824.704 780.936 Q821.648 776.329 821.648 767.603 Q821.648 758.853 824.704 754.269 Q827.783 749.663 833.593 749.663 Z" fill="#000000" fill-rule="evenodd" fill-opacity="1" /><path clip-path="url(#clip720)" d="M1277 780.913 L1284.64 780.913 L1284.64 754.547 L1276.33 756.214 L1276.33 751.955 L1284.59 750.288 L1289.27 750.288 L1289.27 780.913 L1296.9 780.913 L1296.9 784.848 L1277 784.848 L1277 780.913 Z" fill="#000000" fill-rule="evenodd" fill-opacity="1" /><path clip-path="url(#clip720)" d="M1316.35 753.367 Q1312.74 753.367 1310.91 756.931 Q1309.1 760.473 1309.1 767.603 Q1309.1 774.709 1310.91 778.274 Q1312.74 781.815 1316.35 781.815 Q1319.98 781.815 1321.79 778.274 Q1323.62 774.709 1323.62 767.603 Q1323.62 760.473 1321.79 756.931 Q1319.98 753.367 1316.35 753.367 M1316.35 749.663 Q1322.16 749.663 1325.21 754.269 Q1328.29 758.853 1328.29 767.603 Q1328.29 776.329 1325.21 780.936 Q1322.16 785.519 1316.35 785.519 Q1310.54 785.519 1307.46 780.936 Q1304.4 776.329 1304.4 767.603 Q1304.4 758.853 1307.46 754.269 Q1310.54 749.663 1316.35 749.663 Z" fill="#000000" fill-rule="evenodd" fill-opacity="1" /><path clip-path="url(#clip720)" d="M1346.51 753.367 Q1342.9 753.367 1341.07 756.931 Q1339.27 760.473 1339.27 767.603 Q1339.27 774.709 1341.07 778.274 Q1342.9 781.815 1346.51 781.815 Q1350.14 781.815 1351.95 778.274 Q1353.78 774.709 1353.78 767.603 Q1353.78 760.473 1351.95 756.931 Q1350.14 753.367 1346.51 753.367 M1346.51 749.663 Q1352.32 749.663 1355.38 754.269 Q1358.46 758.853 1358.46 767.603 Q1358.46 776.329 1355.38 780.936 Q1352.32 785.519 1346.51 785.519 Q1340.7 785.519 1337.62 780.936 Q1334.57 776.329 1334.57 767.603 Q1334.57 758.853 1337.62 754.269 Q1340.7 749.663 1346.51 749.663 Z" fill="#000000" fill-rule="evenodd" fill-opacity="1" /><path clip-path="url(#clip720)" d="M1376.67 753.367 Q1373.06 753.367 1371.23 756.931 Q1369.43 760.473 1369.43 767.603 Q1369.43 774.709 1371.23 778.274 Q1373.06 781.815 1376.67 781.815 Q1380.31 781.815 1382.11 778.274 Q1383.94 774.709 1383.94 767.603 Q1383.94 760.473 1382.11 756.931 Q1380.31 753.367 1376.67 753.367 M1376.67 749.663 Q1382.48 749.663 1385.54 754.269 Q1388.62 758.853 1388.62 767.603 Q1388.62 776.329 1385.54 780.936 Q1382.48 785.519 1376.67 785.519 Q1370.86 785.519 1367.78 780.936 Q1364.73 776.329 1364.73 767.603 Q1364.73 758.853 1367.78 754.269 Q1370.86 749.663 1376.67 749.663 Z" fill="#000000" fill-rule="evenodd" fill-opacity="1" /><path clip-path="url(#clip720)" d="M1805.77 780.913 L1813.41 780.913 L1813.41 754.547 L1805.1 756.214 L1805.1 751.955 L1813.36 750.288 L1818.04 750.288 L1818.04 780.913 L1825.68 780.913 L1825.68 784.848 L1805.77 784.848 L1805.77 780.913 Z" fill="#000000" fill-rule="evenodd" fill-opacity="1" /><path clip-path="url(#clip720)" d="M1835.17 750.288 L1853.53 750.288 L1853.53 754.223 L1839.45 754.223 L1839.45 762.695 Q1840.47 762.348 1841.49 762.186 Q1842.51 762.001 1843.53 762.001 Q1849.31 762.001 1852.69 765.172 Q1856.07 768.343 1856.07 773.76 Q1856.07 779.339 1852.6 782.44 Q1849.13 785.519 1842.81 785.519 Q1840.63 785.519 1838.36 785.149 Q1836.12 784.778 1833.71 784.038 L1833.71 779.339 Q1835.79 780.473 1838.02 781.028 Q1840.24 781.584 1842.72 781.584 Q1846.72 781.584 1849.06 779.478 Q1851.4 777.371 1851.4 773.76 Q1851.4 770.149 1849.06 768.042 Q1846.72 765.936 1842.72 765.936 Q1840.84 765.936 1838.97 766.353 Q1837.11 766.769 1835.17 767.649 L1835.17 750.288 Z" fill="#000000" fill-rule="evenodd" fill-opacity="1" /><path clip-path="url(#clip720)" d="M1875.29 753.367 Q1871.67 753.367 1869.85 756.931 Q1868.04 760.473 1868.04 767.603 Q1868.04 774.709 1869.85 778.274 Q1871.67 781.815 1875.29 781.815 Q1878.92 781.815 1880.72 778.274 Q1882.55 774.709 1882.55 767.603 Q1882.55 760.473 1880.72 756.931 Q1878.92 753.367 1875.29 753.367 M1875.29 749.663 Q1881.1 749.663 1884.15 754.269 Q1887.23 758.853 1887.23 767.603 Q1887.23 776.329 1884.15 780.936 Q1881.1 785.519 1875.29 785.519 Q1869.47 785.519 1866.4 780.936 Q1863.34 776.329 1863.34 767.603 Q1863.34 758.853 1866.4 754.269 Q1869.47 749.663 1875.29 749.663 Z" fill="#000000" fill-rule="evenodd" fill-opacity="1" /><path clip-path="url(#clip720)" d="M1905.45 753.367 Q1901.84 753.367 1900.01 756.931 Q1898.2 760.473 1898.2 767.603 Q1898.2 774.709 1900.01 778.274 Q1901.84 781.815 1905.45 781.815 Q1909.08 781.815 1910.89 778.274 Q1912.72 774.709 1912.72 767.603 Q1912.72 760.473 1910.89 756.931 Q1909.08 753.367 1905.45 753.367 M1905.45 749.663 Q1911.26 749.663 1914.31 754.269 Q1917.39 758.853 1917.39 767.603 Q1917.39 776.329 1914.31 780.936 Q1911.26 785.519 1905.45 785.519 Q1899.64 785.519 1896.56 780.936 Q1893.5 776.329 1893.5 767.603 Q1893.5 758.853 1896.56 754.269 Q1899.64 749.663 1905.45 749.663 Z" fill="#000000" fill-rule="evenodd" fill-opacity="1" /><path clip-path="url(#clip720)" d="M2338.63 780.913 L2354.95 780.913 L2354.95 784.848 L2333.01 784.848 L2333.01 780.913 Q2335.67 778.158 2340.25 773.528 Q2344.86 768.876 2346.04 767.533 Q2348.28 765.01 2349.16 763.274 Q2350.07 761.515 2350.07 759.825 Q2350.07 757.07 2348.12 755.334 Q2346.2 753.598 2343.1 753.598 Q2340.9 753.598 2338.45 754.362 Q2336.02 755.126 2333.24 756.677 L2333.24 751.955 Q2336.06 750.82 2338.52 750.242 Q2340.97 749.663 2343.01 749.663 Q2348.38 749.663 2351.57 752.348 Q2354.77 755.033 2354.77 759.524 Q2354.77 761.654 2353.96 763.575 Q2353.17 765.473 2351.06 768.066 Q2350.48 768.737 2347.38 771.954 Q2344.28 775.149 2338.63 780.913 Z" fill="#000000" fill-rule="evenodd" fill-opacity="1" /><path clip-path="url(#clip720)" d="M2374.77 753.367 Q2371.15 753.367 2369.33 756.931 Q2367.52 760.473 2367.52 767.603 Q2367.52 774.709 2369.33 778.274 Q2371.15 781.815 2374.77 781.815 Q2378.4 781.815 2380.21 778.274 Q2382.03 774.709 2382.03 767.603 Q2382.03 760.473 2380.21 756.931 Q2378.4 753.367 2374.77 753.367 M2374.77 749.663 Q2380.58 749.663 2383.63 754.269 Q2386.71 758.853 2386.71 767.603 Q2386.71 776.329 2383.63 780.936 Q2380.58 785.519 2374.77 785.519 Q2368.96 785.519 2365.88 780.936 Q2362.82 776.329 2362.82 767.603 Q2362.82 758.853 2365.88 754.269 Q2368.96 749.663 2374.77 749.663 Z" fill="#000000" fill-rule="evenodd" fill-opacity="1" /><path clip-path="url(#clip720)" d="M2404.93 753.367 Q2401.32 753.367 2399.49 756.931 Q2397.68 760.473 2397.68 767.603 Q2397.68 774.709 2399.49 778.274 Q2401.32 781.815 2404.93 781.815 Q2408.56 781.815 2410.37 778.274 Q2412.2 774.709 2412.2 767.603 Q2412.2 760.473 2410.37 756.931 Q2408.56 753.367 2404.93 753.367 M2404.93 749.663 Q2410.74 749.663 2413.79 754.269 Q2416.87 758.853 2416.87 767.603 Q2416.87 776.329 2413.79 780.936 Q2410.74 785.519 2404.93 785.519 Q2399.12 785.519 2396.04 780.936 Q2392.98 776.329 2392.98 767.603 Q2392.98 758.853 2396.04 754.269 Q2399.12 749.663 2404.93 749.663 Z" fill="#000000" fill-rule="evenodd" fill-opacity="1" /><path clip-path="url(#clip720)" d="M2435.09 753.367 Q2431.48 753.367 2429.65 756.931 Q2427.84 760.473 2427.84 767.603 Q2427.84 774.709 2429.65 778.274 Q2431.48 781.815 2435.09 781.815 Q2438.72 781.815 2440.53 778.274 Q2442.36 774.709 2442.36 767.603 Q2442.36 760.473 2440.53 756.931 Q2438.72 753.367 2435.09 753.367 M2435.09 749.663 Q2440.9 749.663 2443.95 754.269 Q2447.03 758.853 2447.03 767.603 Q2447.03 776.329 2443.95 780.936 Q2440.9 785.519 2435.09 785.519 Q2429.28 785.519 2426.2 780.936 Q2423.14 776.329 2423.14 767.603 Q2423.14 758.853 2426.2 754.269 Q2429.28 749.663 2435.09 749.663 Z" fill="#000000" fill-rule="evenodd" fill-opacity="1" /><path clip-path="url(#clip720)" d="M2867.41 780.913 L2883.73 780.913 L2883.73 784.848 L2861.78 784.848 L2861.78 780.913 Q2864.44 778.158 2869.03 773.528 Q2873.63 768.876 2874.81 767.533 Q2877.06 765.01 2877.94 763.274 Q2878.84 761.515 2878.84 759.825 Q2878.84 757.07 2876.9 755.334 Q2874.98 753.598 2871.87 753.598 Q2869.67 753.598 2867.22 754.362 Q2864.79 755.126 2862.01 756.677 L2862.01 751.955 Q2864.84 750.82 2867.29 750.242 Q2869.74 749.663 2871.78 749.663 Q2877.15 749.663 2880.35 752.348 Q2883.54 755.033 2883.54 759.524 Q2883.54 761.654 2882.73 763.575 Q2881.94 765.473 2879.84 768.066 Q2879.26 768.737 2876.16 771.954 Q2873.05 775.149 2867.41 780.913 Z" fill="#000000" fill-rule="evenodd" fill-opacity="1" /><path clip-path="url(#clip720)" d="M2893.59 750.288 L2911.94 750.288 L2911.94 754.223 L2897.87 754.223 L2897.87 762.695 Q2898.89 762.348 2899.91 762.186 Q2900.92 762.001 2901.94 762.001 Q2907.73 762.001 2911.11 765.172 Q2914.49 768.343 2914.49 773.76 Q2914.49 779.339 2911.02 782.44 Q2907.54 785.519 2901.23 785.519 Q2899.05 785.519 2896.78 785.149 Q2894.54 784.778 2892.13 784.038 L2892.13 779.339 Q2894.21 780.473 2896.43 781.028 Q2898.66 781.584 2901.13 781.584 Q2905.14 781.584 2907.48 779.478 Q2909.81 777.371 2909.81 773.76 Q2909.81 770.149 2907.48 768.042 Q2905.14 765.936 2901.13 765.936 Q2899.26 765.936 2897.38 766.353 Q2895.53 766.769 2893.59 767.649 L2893.59 750.288 Z" fill="#000000" fill-rule="evenodd" fill-opacity="1" /><path clip-path="url(#clip720)" d="M2933.7 753.367 Q2930.09 753.367 2928.26 756.931 Q2926.46 760.473 2926.46 767.603 Q2926.46 774.709 2928.26 778.274 Q2930.09 781.815 2933.7 781.815 Q2937.34 781.815 2939.14 778.274 Q2940.97 774.709 2940.97 767.603 Q2940.97 760.473 2939.14 756.931 Q2937.34 753.367 2933.7 753.367 M2933.7 749.663 Q2939.51 749.663 2942.57 754.269 Q2945.65 758.853 2945.65 767.603 Q2945.65 776.329 2942.57 780.936 Q2939.51 785.519 2933.7 785.519 Q2927.89 785.519 2924.81 780.936 Q2921.76 776.329 2921.76 767.603 Q2921.76 758.853 2924.81 754.269 Q2927.89 749.663 2933.7 749.663 Z" fill="#000000" fill-rule="evenodd" fill-opacity="1" /><path clip-path="url(#clip720)" d="M2963.86 753.367 Q2960.25 753.367 2958.42 756.931 Q2956.62 760.473 2956.62 767.603 Q2956.62 774.709 2958.42 778.274 Q2960.25 781.815 2963.86 781.815 Q2967.5 781.815 2969.3 778.274 Q2971.13 774.709 2971.13 767.603 Q2971.13 760.473 2969.3 756.931 Q2967.5 753.367 2963.86 753.367 M2963.86 749.663 Q2969.67 749.663 2972.73 754.269 Q2975.81 758.853 2975.81 767.603 Q2975.81 776.329 2972.73 780.936 Q2969.67 785.519 2963.86 785.519 Q2958.05 785.519 2954.97 780.936 Q2951.92 776.329 2951.92 767.603 Q2951.92 758.853 2954.97 754.269 Q2958.05 749.663 2963.86 749.663 Z" fill="#000000" fill-rule="evenodd" fill-opacity="1" /><polyline clip-path="url(#clip722)" style="stroke:#000000; stroke-linecap:round; stroke-linejoin:round; stroke-width:2; stroke-opacity:0.1; fill:none" points="192.191,716.048 3152.76,716.048 "/>
<polyline clip-path="url(#clip722)" style="stroke:#000000; stroke-linecap:round; stroke-linejoin:round; stroke-width:2; stroke-opacity:0.1; fill:none" points="192.191,599.936 3152.76,599.936 "/>
<polyline clip-path="url(#clip722)" style="stroke:#000000; stroke-linecap:round; stroke-linejoin:round; stroke-width:2; stroke-opacity:0.1; fill:none" points="192.191,483.824 3152.76,483.824 "/>
<polyline clip-path="url(#clip722)" style="stroke:#000000; stroke-linecap:round; stroke-linejoin:round; stroke-width:2; stroke-opacity:0.1; fill:none" points="192.191,367.713 3152.76,367.713 "/>
<polyline clip-path="url(#clip722)" style="stroke:#000000; stroke-linecap:round; stroke-linejoin:round; stroke-width:2; stroke-opacity:0.1; fill:none" points="192.191,251.601 3152.76,251.601 "/>
<polyline clip-path="url(#clip722)" style="stroke:#000000; stroke-linecap:round; stroke-linejoin:round; stroke-width:2; stroke-opacity:0.1; fill:none" points="192.191,135.489 3152.76,135.489 "/>
<polyline clip-path="url(#clip720)" style="stroke:#000000; stroke-linecap:round; stroke-linejoin:round; stroke-width:4; stroke-opacity:1; fill:none" points="192.191,716.048 192.191,47.2441 "/>
<polyline clip-path="url(#clip720)" style="stroke:#000000; stroke-linecap:round; stroke-linejoin:round; stroke-width:4; stroke-opacity:1; fill:none" points="192.191,716.048 211.088,716.048 "/>
<polyline clip-path="url(#clip720)" style="stroke:#000000; stroke-linecap:round; stroke-linejoin:round; stroke-width:4; stroke-opacity:1; fill:none" points="192.191,599.936 211.088,599.936 "/>
<polyline clip-path="url(#clip720)" style="stroke:#000000; stroke-linecap:round; stroke-linejoin:round; stroke-width:4; stroke-opacity:1; fill:none" points="192.191,483.824 211.088,483.824 "/>
<polyline clip-path="url(#clip720)" style="stroke:#000000; stroke-linecap:round; stroke-linejoin:round; stroke-width:4; stroke-opacity:1; fill:none" points="192.191,367.713 211.088,367.713 "/>
<polyline clip-path="url(#clip720)" style="stroke:#000000; stroke-linecap:round; stroke-linejoin:round; stroke-width:4; stroke-opacity:1; fill:none" points="192.191,251.601 211.088,251.601 "/>
<polyline clip-path="url(#clip720)" style="stroke:#000000; stroke-linecap:round; stroke-linejoin:round; stroke-width:4; stroke-opacity:1; fill:none" points="192.191,135.489 211.088,135.489 "/>
<path clip-path="url(#clip720)" d="M87.0151 701.847 Q83.404 701.847 81.5753 705.411 Q79.7697 708.953 79.7697 716.083 Q79.7697 723.189 81.5753 726.754 Q83.404 730.295 87.0151 730.295 Q90.6493 730.295 92.4548 726.754 Q94.2835 723.189 94.2835 716.083 Q94.2835 708.953 92.4548 705.411 Q90.6493 701.847 87.0151 701.847 M87.0151 698.143 Q92.8252 698.143 95.8808 702.749 Q98.9594 707.333 98.9594 716.083 Q98.9594 724.809 95.8808 729.416 Q92.8252 733.999 87.0151 733.999 Q81.2049 733.999 78.1262 729.416 Q75.0707 724.809 75.0707 716.083 Q75.0707 707.333 78.1262 702.749 Q81.2049 698.143 87.0151 698.143 Z" fill="#000000" fill-rule="evenodd" fill-opacity="1" /><path clip-path="url(#clip720)" d="M107.177 727.448 L112.061 727.448 L112.061 733.328 L107.177 733.328 L107.177 727.448 Z" fill="#000000" fill-rule="evenodd" fill-opacity="1" /><path clip-path="url(#clip720)" d="M132.246 701.847 Q128.635 701.847 126.807 705.411 Q125.001 708.953 125.001 716.083 Q125.001 723.189 126.807 726.754 Q128.635 730.295 132.246 730.295 Q135.881 730.295 137.686 726.754 Q139.515 723.189 139.515 716.083 Q139.515 708.953 137.686 705.411 Q135.881 701.847 132.246 701.847 M132.246 698.143 Q138.056 698.143 141.112 702.749 Q144.191 707.333 144.191 716.083 Q144.191 724.809 141.112 729.416 Q138.056 733.999 132.246 733.999 Q126.436 733.999 123.357 729.416 Q120.302 724.809 120.302 716.083 Q120.302 707.333 123.357 702.749 Q126.436 698.143 132.246 698.143 Z" fill="#000000" fill-rule="evenodd" fill-opacity="1" /><path clip-path="url(#clip720)" d="M82.0382 613.281 L98.3576 613.281 L98.3576 617.216 L76.4133 617.216 L76.4133 613.281 Q79.0753 610.526 83.6586 605.897 Q88.2651 601.244 89.4456 599.901 Q91.691 597.378 92.5706 595.642 Q93.4734 593.883 93.4734 592.193 Q93.4734 589.438 91.5289 587.702 Q89.6076 585.966 86.5058 585.966 Q84.3067 585.966 81.8531 586.73 Q79.4225 587.494 76.6447 589.045 L76.6447 584.323 Q79.4688 583.189 81.9225 582.61 Q84.3762 582.031 86.4132 582.031 Q91.7836 582.031 94.978 584.716 Q98.1724 587.401 98.1724 591.892 Q98.1724 594.022 97.3622 595.943 Q96.5752 597.841 94.4687 600.434 Q93.89 601.105 90.7882 604.323 Q87.6864 607.517 82.0382 613.281 Z" fill="#000000" fill-rule="evenodd" fill-opacity="1" /><path clip-path="url(#clip720)" d="M108.172 611.337 L113.057 611.337 L113.057 617.216 L108.172 617.216 L108.172 611.337 Z" fill="#000000" fill-rule="evenodd" fill-opacity="1" /><path clip-path="url(#clip720)" d="M123.288 582.656 L141.644 582.656 L141.644 586.591 L127.57 586.591 L127.57 595.063 Q128.589 594.716 129.607 594.554 Q130.626 594.369 131.644 594.369 Q137.431 594.369 140.811 597.54 Q144.191 600.712 144.191 606.128 Q144.191 611.707 140.718 614.809 Q137.246 617.887 130.927 617.887 Q128.751 617.887 126.482 617.517 Q124.237 617.147 121.83 616.406 L121.83 611.707 Q123.913 612.841 126.135 613.397 Q128.357 613.952 130.834 613.952 Q134.839 613.952 137.177 611.846 Q139.515 609.739 139.515 606.128 Q139.515 602.517 137.177 600.411 Q134.839 598.304 130.834 598.304 Q128.959 598.304 127.084 598.721 Q125.232 599.137 123.288 600.017 L123.288 582.656 Z" fill="#000000" fill-rule="evenodd" fill-opacity="1" /><path clip-path="url(#clip720)" d="M77.0614 466.544 L95.4178 466.544 L95.4178 470.48 L81.3438 470.48 L81.3438 478.952 Q82.3623 478.604 83.3808 478.442 Q84.3993 478.257 85.4178 478.257 Q91.2049 478.257 94.5845 481.429 Q97.9641 484.6 97.9641 490.016 Q97.9641 495.595 94.4919 498.697 Q91.0197 501.776 84.7003 501.776 Q82.5243 501.776 80.2558 501.405 Q78.0105 501.035 75.6031 500.294 L75.6031 495.595 Q77.6864 496.729 79.9086 497.285 Q82.1308 497.84 84.6077 497.84 Q88.6123 497.84 90.9502 495.734 Q93.2882 493.628 93.2882 490.016 Q93.2882 486.405 90.9502 484.299 Q88.6123 482.192 84.6077 482.192 Q82.7327 482.192 80.8577 482.609 Q79.0058 483.026 77.0614 483.905 L77.0614 466.544 Z" fill="#000000" fill-rule="evenodd" fill-opacity="1" /><path clip-path="url(#clip720)" d="M107.177 495.225 L112.061 495.225 L112.061 501.104 L107.177 501.104 L107.177 495.225 Z" fill="#000000" fill-rule="evenodd" fill-opacity="1" /><path clip-path="url(#clip720)" d="M132.246 469.623 Q128.635 469.623 126.807 473.188 Q125.001 476.729 125.001 483.859 Q125.001 490.966 126.807 494.53 Q128.635 498.072 132.246 498.072 Q135.881 498.072 137.686 494.53 Q139.515 490.966 139.515 483.859 Q139.515 476.729 137.686 473.188 Q135.881 469.623 132.246 469.623 M132.246 465.919 Q138.056 465.919 141.112 470.526 Q144.191 475.109 144.191 483.859 Q144.191 492.586 141.112 497.192 Q138.056 501.776 132.246 501.776 Q126.436 501.776 123.357 497.192 Q120.302 492.586 120.302 483.859 Q120.302 475.109 123.357 470.526 Q126.436 465.919 132.246 465.919 Z" fill="#000000" fill-rule="evenodd" fill-opacity="1" /><path clip-path="url(#clip720)" d="M76.8299 350.433 L99.052 350.433 L99.052 352.423 L86.5058 384.993 L81.6216 384.993 L93.4271 354.368 L76.8299 354.368 L76.8299 350.433 Z" fill="#000000" fill-rule="evenodd" fill-opacity="1" /><path clip-path="url(#clip720)" d="M108.172 379.113 L113.057 379.113 L113.057 384.993 L108.172 384.993 L108.172 379.113 Z" fill="#000000" fill-rule="evenodd" fill-opacity="1" /><path clip-path="url(#clip720)" d="M123.288 350.433 L141.644 350.433 L141.644 354.368 L127.57 354.368 L127.57 362.84 Q128.589 362.493 129.607 362.331 Q130.626 362.145 131.644 362.145 Q137.431 362.145 140.811 365.317 Q144.191 368.488 144.191 373.905 Q144.191 379.483 140.718 382.585 Q137.246 385.664 130.927 385.664 Q128.751 385.664 126.482 385.293 Q124.237 384.923 121.83 384.182 L121.83 379.483 Q123.913 380.618 126.135 381.173 Q128.357 381.729 130.834 381.729 Q134.839 381.729 137.177 379.622 Q139.515 377.516 139.515 373.905 Q139.515 370.294 137.177 368.187 Q134.839 366.081 130.834 366.081 Q128.959 366.081 127.084 366.497 Q125.232 366.914 123.288 367.794 L123.288 350.433 Z" fill="#000000" fill-rule="evenodd" fill-opacity="1" /><path clip-path="url(#clip720)" d="M47.6634 264.946 L55.3023 264.946 L55.3023 238.58 L46.9921 240.247 L46.9921 235.987 L55.256 234.321 L59.9319 234.321 L59.9319 264.946 L67.5707 264.946 L67.5707 268.881 L47.6634 268.881 L47.6634 264.946 Z" fill="#000000" fill-rule="evenodd" fill-opacity="1" /><path clip-path="url(#clip720)" d="M87.0151 237.399 Q83.404 237.399 81.5753 240.964 Q79.7697 244.506 79.7697 251.636 Q79.7697 258.742 81.5753 262.307 Q83.404 265.848 87.0151 265.848 Q90.6493 265.848 92.4548 262.307 Q94.2835 258.742 94.2835 251.636 Q94.2835 244.506 92.4548 240.964 Q90.6493 237.399 87.0151 237.399 M87.0151 233.696 Q92.8252 233.696 95.8808 238.302 Q98.9594 242.886 98.9594 251.636 Q98.9594 260.362 95.8808 264.969 Q92.8252 269.552 87.0151 269.552 Q81.2049 269.552 78.1262 264.969 Q75.0707 260.362 75.0707 251.636 Q75.0707 242.886 78.1262 238.302 Q81.2049 233.696 87.0151 233.696 Z" fill="#000000" fill-rule="evenodd" fill-opacity="1" /><path clip-path="url(#clip720)" d="M107.177 263.001 L112.061 263.001 L112.061 268.881 L107.177 268.881 L107.177 263.001 Z" fill="#000000" fill-rule="evenodd" fill-opacity="1" /><path clip-path="url(#clip720)" d="M132.246 237.399 Q128.635 237.399 126.807 240.964 Q125.001 244.506 125.001 251.636 Q125.001 258.742 126.807 262.307 Q128.635 265.848 132.246 265.848 Q135.881 265.848 137.686 262.307 Q139.515 258.742 139.515 251.636 Q139.515 244.506 137.686 240.964 Q135.881 237.399 132.246 237.399 M132.246 233.696 Q138.056 233.696 141.112 238.302 Q144.191 242.886 144.191 251.636 Q144.191 260.362 141.112 264.969 Q138.056 269.552 132.246 269.552 Q126.436 269.552 123.357 264.969 Q120.302 260.362 120.302 251.636 Q120.302 242.886 123.357 238.302 Q126.436 233.696 132.246 233.696 Z" fill="#000000" fill-rule="evenodd" fill-opacity="1" /><path clip-path="url(#clip720)" d="M48.6588 148.834 L56.2976 148.834 L56.2976 122.468 L47.9875 124.135 L47.9875 119.876 L56.2513 118.209 L60.9272 118.209 L60.9272 148.834 L68.5661 148.834 L68.5661 152.769 L48.6588 152.769 L48.6588 148.834 Z" fill="#000000" fill-rule="evenodd" fill-opacity="1" /><path clip-path="url(#clip720)" d="M82.0382 148.834 L98.3576 148.834 L98.3576 152.769 L76.4133 152.769 L76.4133 148.834 Q79.0753 146.079 83.6586 141.45 Q88.2651 136.797 89.4456 135.454 Q91.691 132.931 92.5706 131.195 Q93.4734 129.436 93.4734 127.746 Q93.4734 124.991 91.5289 123.255 Q89.6076 121.519 86.5058 121.519 Q84.3067 121.519 81.8531 122.283 Q79.4225 123.047 76.6447 124.598 L76.6447 119.876 Q79.4688 118.741 81.9225 118.163 Q84.3762 117.584 86.4132 117.584 Q91.7836 117.584 94.978 120.269 Q98.1724 122.954 98.1724 127.445 Q98.1724 129.575 97.3622 131.496 Q96.5752 133.394 94.4687 135.987 Q93.89 136.658 90.7882 139.876 Q87.6864 143.07 82.0382 148.834 Z" fill="#000000" fill-rule="evenodd" fill-opacity="1" /><path clip-path="url(#clip720)" d="M108.172 146.889 L113.057 146.889 L113.057 152.769 L108.172 152.769 L108.172 146.889 Z" fill="#000000" fill-rule="evenodd" fill-opacity="1" /><path clip-path="url(#clip720)" d="M123.288 118.209 L141.644 118.209 L141.644 122.144 L127.57 122.144 L127.57 130.616 Q128.589 130.269 129.607 130.107 Q130.626 129.922 131.644 129.922 Q137.431 129.922 140.811 133.093 Q144.191 136.264 144.191 141.681 Q144.191 147.26 140.718 150.362 Q137.246 153.44 130.927 153.44 Q128.751 153.44 126.482 153.07 Q124.237 152.7 121.83 151.959 L121.83 147.26 Q123.913 148.394 126.135 148.95 Q128.357 149.505 130.834 149.505 Q134.839 149.505 137.177 147.399 Q139.515 145.292 139.515 141.681 Q139.515 138.07 137.177 135.964 Q134.839 133.857 130.834 133.857 Q128.959 133.857 127.084 134.274 Q125.232 134.69 123.288 135.57 L123.288 118.209 Z" fill="#000000" fill-rule="evenodd" fill-opacity="1" /><polyline clip-path="url(#clip722)" style="stroke:#009af9; stroke-linecap:round; stroke-linejoin:round; stroke-width:2; stroke-opacity:1; fill:none" points="275.98,162.018 277.038,160.957 278.095,157.091 279.153,162.035 280.21,158.843 281.268,165.354 282.326,155.754 283.383,165.352 284.441,156.85 285.498,167.854 286.556,163.802 287.613,146.615 288.671,353.446 289.728,346.479 290.786,344.237 291.843,355.342 292.901,335.402 293.959,158.164 295.016,155.904 296.074,167.875 297.131,167.734 298.189,168.044 299.246,155.611 300.304,165.162 301.361,160.448 302.419,161.917 303.477,159.487 304.534,347.612 305.592,340.069 306.649,156.481 307.707,355.049 308.764,152.74 309.822,159.808 310.879,530.48 311.937,528.497 312.994,158.528 314.052,341.178 315.11,353.955 316.167,340.733 317.225,343.104 318.282,345.058 319.34,347.817 320.397,348.961 321.455,529.109 322.512,536.167 323.57,531.713 324.628,334.625 325.685,159.599 326.743,154.613 327.8,154.602 328.858,340.5 329.915,349.324 330.973,157.001 332.03,167.947 333.088,171.813 334.145,164.019 335.203,159.634 336.261,164.146 337.318,346.419 338.376,348.654 339.433,346.094 340.491,345.007 341.548,154.499 342.606,158.114 343.663,161.02 344.721,167.181 345.778,150.311 346.836,159.546 347.894,161.118 348.951,152.645 350.009,346.793 351.066,155.843 352.124,345.619 353.181,348.345 354.239,344.68 355.296,349.228 356.354,352.916 357.412,158.126 358.469,166.711 359.527,171.957 360.584,161.663 361.642,152.984 362.699,348.229 363.757,341.932 364.814,164.62 365.872,155.615 366.929,169.27 367.987,154.485 369.045,159.626 370.102,151.202 371.16,161.515 372.217,155.624 373.275,162.823 374.332,160.183 375.39,162.64 376.447,149.971 377.505,337.916 378.562,348.907 379.62,340.644 380.678,340.831 381.735,336.018 382.793,156.647 383.85,156.623 384.908,526.223 385.965,532.26 387.023,533.546 388.08,529.203 389.138,533.189 390.196,161.395 391.253,157.604 392.311,171.835 393.368,341.456 394.426,345.186 395.483,343.805 396.541,343.378 397.598,341.188 398.656,334.783 399.713,536.9 400.771,151.834 401.829,157.761 402.886,158.179 403.944,164.631 405.001,156.577 406.059,164.545 407.116,163.703 408.174,154.359 409.231,152.671 410.289,159.337 411.346,157.149 412.404,157.149 413.462,161.49 414.519,156.068 415.577,161.336 416.634,163.165 417.692,158.055 418.749,166.036 419.807,149.319 420.864,155.206 421.922,156.841 422.98,158.51 424.037,155.773 425.095,156.888 426.152,160.28 427.21,145.951 428.267,344.182 429.325,158.43 430.382,155.185 431.44,163.696 432.497,529.882 433.555,166.105 434.613,166.256 435.67,539.114 436.728,156.364 437.785,159.984 438.843,159.451 439.9,157.366 440.958,157.387 442.015,157.768 443.073,160.016 444.131,170.162 445.188,150.584 446.246,164.768 447.303,163.605 448.361,157.26 449.418,163.586 450.476,153.717 451.533,155.8 452.591,161.392 453.648,160.561 454.706,149.123 455.764,153.791 456.821,158.146 457.879,160.012 458.936,163.722 459.994,146.558 461.051,149.323 462.109,166.309 463.166,343.282 464.224,166.988 465.281,154.781 466.339,156.095 467.397,151.64 468.454,160.081 469.512,168.438 470.569,149.003 471.627,150.354 472.684,347.737 473.742,345.599 474.799,344.932 475.857,160.047 476.915,161.433 477.972,152.761 479.03,154.272 480.087,146.136 481.145,156.346 482.202,152.356 483.26,155.776 484.317,158.622 485.375,531.887 486.432,532.948 487.49,162.982 488.548,156.204 489.605,162.568 490.663,154.689 491.72,165.371 492.778,339.636 493.835,158.473 494.893,159.599 495.95,155.256 497.008,337.061 498.065,153.568 499.123,146.211 500.181,157.126 501.238,353.728 502.296,154.791 503.353,153.469 504.411,151.738 505.468,340.514 506.526,345.681 507.583,338.376 508.641,347.015 509.699,347.276 510.756,345.53 511.814,344.128 512.871,342.042 513.929,344.923 514.986,530.384 516.044,530.28 517.101,165.132 518.159,152.158 519.216,160.279 520.274,162.014 521.332,159.19 522.389,158.196 523.447,160.285 524.504,157.826 525.562,336.214 526.619,143.543 527.677,169.423 528.734,155.963 529.792,160.977 530.849,157.572 531.907,160.353 532.965,159.93 534.022,155.632 535.08,155.075 536.137,158.016 537.195,157.323 538.252,157.845 539.31,353.424 540.367,157.829 541.425,337.727 542.483,336.942 543.54,162.972 544.598,159.455 545.655,161.566 546.713,158.741 547.77,165.403 548.828,147.186 549.885,158.188 550.943,161.041 552,518.251 553.058,164.383 554.116,336.186 555.173,344.698 556.231,346.151 557.288,167.73 558.346,157.671 559.403,149.305 560.461,154.293 561.518,332.772 562.576,520.778 563.634,152.235 564.691,153.803 565.749,345.099 566.806,152.706 567.864,154.258 568.921,352.752 569.979,344.481 571.036,147.854 572.094,342.247 573.151,349.91 574.209,539.843 575.267,161.219 576.324,150.733 577.382,345.918 578.439,342.249 579.497,345.027 580.554,349.269 581.612,346.17 582.669,341.478 583.727,340.674 584.784,160.623 585.842,159.938 586.9,153.169 587.957,160.967 589.015,168.323 590.072,153.882 591.13,161.61 592.187,349.747 593.245,164.167 594.302,154.538 595.36,156.08 596.418,153.519 597.475,166.943 598.533,151.007 599.59,351.573 600.648,351.84 601.705,338.655 602.763,165.287 603.82,160.099 604.878,159.84 605.935,158.486 606.993,153.111 608.051,159.768 609.108,162.656 610.166,153.666 611.223,155.685 612.281,154.53 613.338,522.983 614.396,538.25 615.453,161.815 616.511,159.434 617.568,162.752 618.626,153.155 619.684,167.543 620.741,349.846 621.799,149.294 622.856,159.073 623.914,151.142 624.971,151.603 626.029,153.442 627.086,157.593 628.144,359.897 629.202,338.577 630.259,346.396 631.317,342.687 632.374,345.946 633.432,346.09 634.489,152.913 635.547,343.751 636.604,170.542 637.662,332.429 638.719,150.291 639.777,525.999 640.835,525.27 641.892,158.96 642.95,163.188 644.007,158.872 645.065,164.25 646.122,160.54 647.18,151.84 648.237,156.414 649.295,160.648 650.352,147.839 651.41,334.849 652.468,161.876 653.525,158.544 654.583,353.004 655.64,537.416 656.698,150.088 657.755,160.003 658.813,158.349 659.87,168.763 660.928,156.45 661.986,162.481 663.043,156.674 664.101,344.721 665.158,344.162 666.216,153.234 667.273,344.456 668.331,341.017 669.388,343.112 670.446,346.043 671.503,339.603 672.561,150.361 673.619,162.016 674.676,344.671 675.734,147.846 676.791,151.913 677.849,156.862 678.906,155.572 679.964,161.068 681.021,149.853 682.079,154.254 683.137,153.121 684.194,163.123 685.252,148.671 686.309,340.786 687.367,341.376 688.424,348.608 689.482,350.432 690.539,154.997 691.597,148.604 692.654,162.225 693.712,154.819 694.77,154.115 695.827,156.65 696.885,342.997 697.942,342.677 699,337.678 700.057,532.739 701.115,168.864 702.172,164.867 703.23,165.232 704.287,171.163 705.345,167.175 706.403,153.524 707.46,530.406 708.518,529.16 709.575,339.731 710.633,161.216 711.69,152.803 712.748,165.105 713.805,165.775 714.863,342.102 715.921,159.869 716.978,156.547 718.036,157.435 719.093,150.778 720.151,164.576 721.208,153.244 722.266,166.674 723.323,145.576 724.381,161.98 725.438,165.841 726.496,161.659 727.554,165.787 728.611,158.349 729.669,174.495 730.726,343.621 731.784,341.27 732.841,342.059 733.899,350.988 734.956,170.056 736.014,159.491 737.071,161.7 738.129,166.363 739.187,162.97 740.244,162.074 741.302,354.924 742.359,160.922 743.417,163.948 744.474,160.968 745.532,161.541 746.589,161.595 747.647,160.673 748.705,165.177 749.762,344.854 750.82,149.703 751.877,169.831 752.935,535.562 753.992,529.739 755.05,531.933 756.107,147.614 757.165,163.879 758.222,160.349 759.28,529.376 760.338,164.02 761.395,349.017 762.453,342.778 763.51,339.501 764.568,530.713 765.625,352.848 766.683,341.848 767.74,353.119 768.798,165.051 769.855,165.555 770.913,156.485 771.971,159.329 773.028,153.976 774.086,523.92 775.143,346.22 776.201,351.848 777.258,341.562 778.316,350.951 779.373,160.764 780.431,159.894 781.489,161.033 782.546,156.288 783.604,153.429 784.661,165.777 785.719,161.207 786.776,161.366 787.834,158.009 788.891,159.122 789.949,157.17 791.006,160.6 792.064,158.885 793.122,147.744 794.179,154.29 795.237,162.702 796.294,166.757 797.352,158.921 798.409,158.251 799.467,165.208 800.524,149.259 801.582,531.989 802.64,150.272 803.697,156.591 804.755,156.164 805.812,160.173 806.87,161.255 807.927,169.346 808.985,342.674 810.042,351.546 811.1,337.563 812.157,530.879 813.215,526.326 814.273,533.843 815.33,146.168 816.388,148.133 817.445,156.48 818.503,152.9 819.56,163.105 820.618,166.837 821.675,165.026 822.733,149.211 823.79,336.983 824.848,343.817 825.906,353.553 826.963,336.591 828.021,337.067 829.078,166.247 830.136,161.021 831.193,354.781 832.251,339.556 833.308,337.652 834.366,341.218 835.424,152.686 836.481,348.283 837.539,342.586 838.596,348.495 839.654,343.532 840.711,346.24 841.769,155.792 842.826,152.816 843.884,169.143 844.941,156.67 845.999,163.701 847.057,166.458 848.114,338.292 849.172,331.654 850.229,346.82 851.287,342.34 852.344,163.029 853.402,154.032 854.459,160.056 855.517,161.887 856.574,537.704 857.632,529.554 858.69,151.735 859.747,153.578 860.805,154.073 861.862,151.442 862.92,157.968 863.977,161.596 865.035,158.882 866.092,164.788 867.15,159.009 868.208,158.258 869.265,161.267 870.323,156.885 871.38,158.062 872.438,157.909 873.495,158.191 874.553,347.434 875.61,344.185 876.668,344.877 877.725,162.405 878.783,158.171 879.841,157.346 880.898,161.114 881.956,152.091 883.013,166.359 884.071,164.945 885.128,159.491 886.186,163.806 887.243,161.662 888.301,162.614 889.358,154.747 890.416,165.432 891.474,164.768 892.531,161.876 893.589,169.576 894.646,348.518 895.704,149.892 896.761,158.623 897.819,343.96 898.876,346.956 899.934,346.584 900.992,350.066 902.049,344.44 903.107,349.344 904.164,341.664 905.222,340.121 906.279,346.525 907.337,348.085 908.394,154.202 909.452,158.087 910.509,156.456 911.567,161.953 912.625,155.804 913.682,163.671 914.74,153.788 915.797,157.646 916.855,159.332 917.912,343.007 918.97,341.432 920.027,353.451 921.085,344.101 922.143,348.547 923.2,346.154 924.258,343.426 925.315,348.376 926.373,341.8 927.43,162.212 928.488,159.706 929.545,343.85 930.603,341.327 931.66,344.847 932.718,337.176 933.776,342.35 934.833,338.048 935.891,347.598 936.948,342.21 938.006,165.513 939.063,164.414 940.121,153.244 941.178,153.104 942.236,162.096 943.293,151.079 944.351,146.351 945.409,335.884 946.466,339.415 947.524,526.174 948.581,530.881 949.639,348.478 950.696,340.938 951.754,342.179 952.811,342.984 953.869,347.093 954.927,352.889 955.984,337.994 957.042,342.51 958.099,344.691 959.157,152.945 960.214,167.549 961.272,154.684 962.329,156.41 963.387,157.903 964.444,158.387 965.502,158.281 966.56,152.201 967.617,153.127 968.675,167.69 969.732,173.475 970.79,153.103 971.847,168.782 972.905,147.407 973.962,153.57 975.02,159.168 976.077,173.245 977.135,165.671 978.193,353.173 979.25,347.358 980.308,344.274 981.365,342.676 982.423,334.564 983.48,163.344 984.538,149.71 985.595,531.191 986.653,529.205 987.711,524.632 988.768,525.324 989.826,534.295 990.883,531.917 991.941,158.041 992.998,161.336 994.056,159.029 995.113,160.181 996.171,162.362 997.228,356.96 998.286,146.194 999.344,342.504 1000.4,342.292 1001.46,344.695 1002.52,341.766 1003.57,161.944 1004.63,164.506 1005.69,141.538 1006.75,341.905 1007.8,341.584 1008.86,341.895 1009.92,341.411 1010.98,343.01 1012.03,157.306 1013.09,160.23 1014.15,527.893 1015.21,520.001 1016.26,338.161 1017.32,352.181 1018.38,155.925 1019.44,154.419 1020.49,151.968 1021.55,167.566 1022.61,161.949 1023.67,159.428 1024.72,161.261 1025.78,160.51 1026.84,156.859 1027.9,163.421 1028.95,148.818 1030.01,161.045 1031.07,149.213 1032.13,349.602 1033.19,340.75 1034.24,153.203 1035.3,160.767 1036.36,162.216 1037.42,156.321 1038.47,159.174 1039.53,155.825 1040.59,338.018 1041.65,342.158 1042.7,343.509 1043.76,351.649 1044.82,169.478 1045.88,344.217 1046.93,337.137 1047.99,339.914 1049.05,159.845 1050.11,160.172 1051.16,157.685 1052.22,168.305 1053.28,171.3 1054.34,516.329 1055.39,344.005 1056.45,344.647 1057.51,351.555 1058.57,337.755 1059.62,338.942 1060.68,348.356 1061.74,347.453 1062.8,343.8 1063.85,347.832 1064.91,336.538 1065.97,339.935 1067.03,331.814 1068.08,518.882 1069.14,154.752 1070.2,154.418 1071.26,155.506 1072.31,162.292 1073.37,156.722 1074.43,156.362 1075.49,155.004 1076.54,166.268 1077.6,153.206 1078.66,343.119 1079.72,341.018 1080.77,148.867 1081.83,165.772 1082.89,152.157 1083.95,158.723 1085.01,161.573 1086.06,148.183 1087.12,160.747 1088.18,163.031 1089.24,153.805 1090.29,152.946 1091.35,153.02 1092.41,153.142 1093.47,535.209 1094.52,535.63 1095.58,537.169 1096.64,534.541 1097.7,527.356 1098.75,148.497 1099.81,143.02 1100.87,336.603 1101.93,162.91 1102.98,161.834 1104.04,155.26 1105.1,335.28 1106.16,354.924 1107.21,153.409 1108.27,337.486 1109.33,159.167 1110.39,169.169 1111.44,350.989 1112.5,348.337 1113.56,166.976 1114.62,166.08 1115.67,156.066 1116.73,161.99 1117.79,157.865 1118.85,344.379 1119.9,160.286 1120.96,166.307 1122.02,156.818 1123.08,349.615 1124.13,342.861 1125.19,160.736 1126.25,154.626 1127.31,156.388 1128.36,157.074 1129.42,151.647 1130.48,166.657 1131.54,145.938 1132.59,143.043 1133.65,534.805 1134.71,532.741 1135.77,158.993 1136.82,158.175 1137.88,159.156 1138.94,160.734 1140,156.63 1141.06,153.586 1142.11,156.575 1143.17,163.976 1144.23,168.716 1145.29,156.918 1146.34,164.864 1147.4,165.851 1148.46,169.588 1149.52,153.007 1150.57,167.571 1151.63,159.359 1152.69,160.626 1153.75,153.84 1154.8,153.637 1155.86,160.02 1156.92,159.174 1157.98,160.38 1159.03,157.167 1160.09,160.137 1161.15,163.515 1162.21,158.307 1163.26,152.557 1164.32,163.434 1165.38,150.778 1166.44,155.279 1167.49,527.148 1168.55,527.885 1169.61,343.579 1170.67,345.398 1171.72,342.179 1172.78,152.589 1173.84,158.652 1174.9,158.942 1175.95,164.063 1177.01,155.45 1178.07,165.22 1179.13,152.851 1180.18,169.028 1181.24,349.007 1182.3,348.702 1183.36,344.193 1184.41,336.721 1185.47,339.312 1186.53,342.716 1187.59,161.373 1188.64,344.761 1189.7,347.84 1190.76,158.017 1191.82,161.255 1192.87,154.9 1193.93,161.906 1194.99,156.358 1196.05,154.26 1197.11,166.878 1198.16,163.792 1199.22,147.003 1200.28,344.228 1201.34,344.269 1202.39,339.499 1203.45,340.302 1204.51,337.662 1205.57,163.527 1206.62,160.978 1207.68,347.465 1208.74,340.384 1209.8,344.781 1210.85,349.532 1211.91,342.818 1212.97,344.011 1214.03,160.665 1215.08,162.237 1216.14,151.722 1217.2,148.683 1218.26,152.57 1219.31,158.636 1220.37,158.617 1221.43,161.574 1222.49,156.123 1223.54,166.36 1224.6,167.538 1225.66,154.685 1226.72,164.122 1227.77,157.935 1228.83,161.599 1229.89,158.181 1230.95,155.991 1232,154.47 1233.06,152.302 1234.12,157.313 1235.18,151.522 1236.23,157.368 1237.29,163.084 1238.35,154.443 1239.41,169.304 1240.46,148.432 1241.52,156.078 1242.58,157.124 1243.64,167.565 1244.69,150.813 1245.75,156.039 1246.81,158.426 1247.87,161.165 1248.93,159.277 1249.98,154.816 1251.04,149.793 1252.1,155.335 1253.16,340.354 1254.21,171.202 1255.27,150.825 1256.33,156.385 1257.39,159.97 1258.44,153.765 1259.5,162.462 1260.56,157.722 1261.62,157.815 1262.67,163.591 1263.73,159.62 1264.79,347.113 1265.85,345.846 1266.9,344.251 1267.96,340.869 1269.02,343.301 1270.08,345.409 1271.13,352.506 1272.19,520.083 1273.25,530.812 1274.31,531.903 1275.36,345.043 1276.42,161.239 1277.48,162.471 1278.54,161.625 1279.59,162.527 1280.65,164.118 1281.71,158.513 1282.77,152.669 1283.82,360.929 1284.88,164.05 1285.94,149.75 1287,151.674 1288.05,152.718 1289.11,161.625 1290.17,162.913 1291.23,157.608 1292.28,167.568 1293.34,164.81 1294.4,158.22 1295.46,162.833 1296.51,169.797 1297.57,165.538 1298.63,156.337 1299.69,155.023 1300.74,162.301 1301.8,340.845 1302.86,342.559 1303.92,344.09 1304.98,349.451 1306.03,341.596 1307.09,159.78 1308.15,159.401 1309.21,161.415 1310.26,530.831 1311.32,531.595 1312.38,526.939 1313.44,524.415 1314.49,529.057 1315.55,527.709 1316.61,530.035 1317.67,533.194 1318.72,536.176 1319.78,536.628 1320.84,165.075 1321.9,148.866 1322.95,153.437 1324.01,334.704 1325.07,342.448 1326.13,352.191 1327.18,344.257 1328.24,350.871 1329.3,164.859 1330.36,150.64 1331.41,358.07 1332.47,165.961 1333.53,155.07 1334.59,154.28 1335.64,154.015 1336.7,152.114 1337.76,535.584 1338.82,527.54 1339.87,526.233 1340.93,155.11 1341.99,162.098 1343.05,160.727 1344.1,146.171 1345.16,156.391 1346.22,153.561 1347.28,152.508 1348.33,174.614 1349.39,150.471 1350.45,167.006 1351.51,163.154 1352.56,340.062 1353.62,340.408 1354.68,158.394 1355.74,164.286 1356.8,154.428 1357.85,351.356 1358.91,152.212 1359.97,347.247 1361.03,354.704 1362.08,360.104 1363.14,341.046 1364.2,346.408 1365.26,339.934 1366.31,152.448 1367.37,163.949 1368.43,151.73 1369.49,159.011 1370.54,157.567 1371.6,161.563 1372.66,156.124 1373.72,168.749 1374.77,152.089 1375.83,343.498 1376.89,169.824 1377.95,152.37 1379,158.504 1380.06,344.667 1381.12,349.449 1382.18,336.883 1383.23,351.777 1384.29,340.197 1385.35,162.377 1386.41,164.024 1387.46,159.777 1388.52,154.719 1389.58,159.274 1390.64,336.902 1391.69,159.551 1392.75,165.643 1393.81,166.533 1394.87,161.107 1395.92,336.368 1396.98,156.126 1398.04,163.376 1399.1,158.827 1400.15,159.189 1401.21,153.149 1402.27,163.182 1403.33,166.472 1404.38,155.963 1405.44,154.123 1406.5,157.569 1407.56,164.243 1408.61,157.21 1409.67,153.321 1410.73,154.211 1411.79,161.235 1412.85,346.116 1413.9,348.32 1414.96,338.506 1416.02,340.883 1417.08,347.493 1418.13,154.917 1419.19,155.084 1420.25,157.927 1421.31,162.999 1422.36,155.805 1423.42,164.854 1424.48,526.374 1425.54,520.522 1426.59,168.619 1427.65,158.338 1428.71,149.68 1429.77,345.43 1430.82,344.394 1431.88,342.197 1432.94,338.519 1434,345.838 1435.05,343.757 1436.11,156.533 1437.17,358.521 1438.23,337.982 1439.28,340.635 1440.34,344.496 1441.4,348.032 1442.46,338.476 1443.51,339.065 1444.57,341.334 1445.63,346.59 1446.69,337.581 1447.74,166.079 1448.8,161.629 1449.86,160.074 1450.92,148.404 1451.97,154.501 1453.03,157.181 1454.09,160.665 1455.15,148.401 1456.2,526.537 1457.26,526.454 1458.32,337.587 1459.38,342.372 1460.43,344.189 1461.49,344.824 1462.55,351.346 1463.61,346.295 1464.66,343.903 1465.72,350.001 1466.78,345.918 1467.84,348.229 1468.9,341.259 1469.95,340.415 1471.01,161.805 1472.07,153.901 1473.13,160.052 1474.18,159.653 1475.24,158.357 1476.3,148.779 1477.36,161.044 1478.41,530.23 1479.47,532.032 1480.53,525.83 1481.59,347.086 1482.64,347.034 1483.7,164.286 1484.76,162.966 1485.82,155.539 1486.87,524.633 1487.93,534.274 1488.99,522.328 1490.05,535.211 1491.1,532.778 1492.16,535.553 1493.22,164.956 1494.28,165.515 1495.33,157.394 1496.39,165.198 1497.45,165.587 1498.51,153.466 1499.56,161.217 1500.62,165.673 1501.68,159.239 1502.74,160.428 1503.79,157.613 1504.85,156.226 1505.91,156.647 1506.97,160.222 1508.02,154.667 1509.08,351.037 1510.14,348.637 1511.2,344.839 1512.25,353.66 1513.31,158.119 1514.37,155.05 1515.43,156.483 1516.48,159.417 1517.54,160.576 1518.6,156.994 1519.66,164.656 1520.72,152.955 1521.77,148.277 1522.83,164.431 1523.89,166.275 1524.95,164.812 1526,165.362 1527.06,154.687 1528.12,156.251 1529.18,168.035 1530.23,157.264 1531.29,156.566 1532.35,160.567 1533.41,331.112 1534.46,538.02 1535.52,525.011 1536.58,530.776 1537.64,522.516 1538.69,172.019 1539.75,513.588 1540.81,156.739 1541.87,160.419 1542.92,157.937 1543.98,155.981 1545.04,166.345 1546.1,169.638 1547.15,159.451 1548.21,170.387 1549.27,144.4 1550.33,342.696 1551.38,346.227 1552.44,350.595 1553.5,345.296 1554.56,348.66 1555.61,344.139 1556.67,343.109 1557.73,340.504 1558.79,163.753 1559.84,161.426 1560.9,156.758 1561.96,162.749 1563.02,158.98 1564.07,156.407 1565.13,160.714 1566.19,162.096 1567.25,162.043 1568.3,170.278 1569.36,156.011 1570.42,164.899 1571.48,150.51 1572.53,167.174 1573.59,158.862 1574.65,338.253 1575.71,349.032 1576.77,153.825 1577.82,164.121 1578.88,339.153 1579.94,346.973 1581,341.504 1582.05,344.315 1583.11,344.133 1584.17,156.17 1585.23,165.211 1586.28,164.676 1587.34,160.451 1588.4,349.38 1589.46,158.016 1590.51,158.68 1591.57,151.472 1592.63,157.118 1593.69,167.991 1594.74,164.23 1595.8,160.727 1596.86,163.479 1597.92,155.6 1598.97,151.864 1600.03,160.243 1601.09,148.237 1602.15,155.737 1603.2,167.125 1604.26,163.118 1605.32,159.016 1606.38,160.272 1607.43,162.345 1608.49,150.94 1609.55,146.518 1610.61,349.173 1611.66,342.318 1612.72,345.553 1613.78,144.022 1614.84,334.739 1615.89,173.449 1616.95,349.938 1618.01,353.228 1619.07,162.569 1620.12,155.585 1621.18,160.167 1622.24,160.246 1623.3,158.128 1624.35,156.551 1625.41,160.736 1626.47,156.75 1627.53,162.72 1628.59,336.858 1629.64,343.819 1630.7,349.258 1631.76,339.675 1632.82,335.874 1633.87,338.635 1634.93,149.488 1635.99,161.892 1637.05,158.22 1638.1,158.036 1639.16,344.32 1640.22,342.02 1641.28,154.402 1642.33,153.066 1643.39,155.525 1644.45,149.233 1645.51,155.712 1646.56,157.92 1647.62,159.248 1648.68,156.72 1649.74,166.471 1650.79,166.126 1651.85,149.96 1652.91,159.421 1653.97,165.238 1655.02,343.538 1656.08,348.908 1657.14,340.805 1658.2,156.521 1659.25,167.025 1660.31,165.392 1661.37,150.911 1662.43,157.214 1663.48,156.594 1664.54,162.54 1665.6,156.485 1666.66,159.01 1667.71,149.44 1668.77,159.972 1669.83,162.031 1670.89,153.753 1671.94,167.391 1673,340.59 1674.06,344.403 1675.12,155.184 1676.17,157.61 1677.23,161.841 1678.29,156.963 1679.35,162.147 1680.4,158.507 1681.46,164.802 1682.52,156.439 1683.58,163.533 1684.64,157.405 1685.69,341.135 1686.75,523.099 1687.81,158.55 1688.87,161.863 1689.92,159.149 1690.98,157.487 1692.04,153.626 1693.1,346.693 1694.15,153.531 1695.21,159.227 1696.27,154.703 1697.33,159.069 1698.38,147.852 1699.44,344.459 1700.5,349.27 1701.56,343.9 1702.61,340.322 1703.67,349.192 1704.73,152.589 1705.79,537.393 1706.84,339.3 1707.9,351.493 1708.96,167.293 1710.02,157.859 1711.07,159.081 1712.13,157.339 1713.19,166.862 1714.25,151.95 1715.3,160.061 1716.36,159.561 1717.42,154.592 1718.48,165.198 1719.53,156.222 1720.59,343.448 1721.65,338.965 1722.71,146.043 1723.76,174.885 1724.82,160.249 1725.88,162.439 1726.94,354.761 1727.99,342.623 1729.05,343.505 1730.11,160.467 1731.17,345.02 1732.22,341.72 1733.28,341.259 1734.34,350.366 1735.4,337.624 1736.45,343.171 1737.51,349.276 1738.57,348.649 1739.63,352.787 1740.69,343.016 1741.74,345.11 1742.8,152.132 1743.86,145.964 1744.92,346.172 1745.97,340.44 1747.03,342.035 1748.09,342.621 1749.15,348.382 1750.2,349.238 1751.26,160.59 1752.32,156.143 1753.38,162.81 1754.43,161.887 1755.49,158.397 1756.55,531.367 1757.61,525.6 1758.66,339.516 1759.72,345.495 1760.78,342.336 1761.84,343.537 1762.89,345.259 1763.95,340.432 1765.01,354.125 1766.07,349.089 1767.12,166.895 1768.18,156.494 1769.24,154.893 1770.3,156.001 1771.35,335.032 1772.41,347.363 1773.47,157.913 1774.53,154.94 1775.58,166.313 1776.64,157.315 1777.7,162.94 1778.76,163.481 1779.81,349.764 1780.87,155.926 1781.93,161.082 1782.99,341.655 1784.04,346.98 1785.1,346.35 1786.16,344.969 1787.22,153.222 1788.27,534.238 1789.33,529.777 1790.39,533.886 1791.45,536.336 1792.51,162.126 1793.56,159.175 1794.62,161.713 1795.68,169.367 1796.74,163.065 1797.79,160.513 1798.85,151.108 1799.91,148.621 1800.97,161.871 1802.02,157.16 1803.08,149.608 1804.14,156.573 1805.2,151.973 1806.25,147.328 1807.31,163.458 1808.37,153.177 1809.43,161.248 1810.48,157.643 1811.54,158.448 1812.6,160.801 1813.66,166.771 1814.71,344.093 1815.77,342.626 1816.83,346.215 1817.89,343.601 1818.94,349.31 1820,347.383 1821.06,341.291 1822.12,345.64 1823.17,338.416 1824.23,340.34 1825.29,344.722 1826.35,346.2 1827.4,164.497 1828.46,169.362 1829.52,150.351 1830.58,149.73 1831.63,149.094 1832.69,155.904 1833.75,161.049 1834.81,154.852 1835.86,159.71 1836.92,159.565 1837.98,164.417 1839.04,164.676 1840.09,150.196 1841.15,170.949 1842.21,167.161 1843.27,152.958 1844.32,358.215 1845.38,160.152 1846.44,157.985 1847.5,156.817 1848.56,160.515 1849.61,158.348 1850.67,164.44 1851.73,154.964 1852.79,160.005 1853.84,155.576 1854.9,164.085 1855.96,159.024 1857.02,163.662 1858.07,141.969 1859.13,536.619 1860.19,527.806 1861.25,158.398 1862.3,161.664 1863.36,152.961 1864.42,150.405 1865.48,146.65 1866.53,147.489 1867.59,163.291 1868.65,343.605 1869.71,348.547 1870.76,353.756 1871.82,345.828 1872.88,348.016 1873.94,162.821 1874.99,341.46 1876.05,346.911 1877.11,343.602 1878.17,340.781 1879.22,345.932 1880.28,345.748 1881.34,343.838 1882.4,353.47 1883.45,349.745 1884.51,163.681 1885.57,162.45 1886.63,339.784 1887.68,345.82 1888.74,338.498 1889.8,345.445 1890.86,341.506 1891.91,156.992 1892.97,173.382 1894.03,357.874 1895.09,334.768 1896.14,350.029 1897.2,148.948 1898.26,539.966 1899.32,344.18 1900.38,342.768 1901.43,347.907 1902.49,158.72 1903.55,156.379 1904.61,150.422 1905.66,148.823 1906.72,154.856 1907.78,156.202 1908.84,534.085 1909.89,524.136 1910.95,523.075 1912.01,330.821 1913.07,354.173 1914.12,351.509 1915.18,343.156 1916.24,338.801 1917.3,164.58 1918.35,154.733 1919.41,154.578 1920.47,165.533 1921.53,535.278 1922.58,346.478 1923.64,157.603 1924.7,342.253 1925.76,157.077 1926.81,159.977 1927.87,162.497 1928.93,344.531 1929.99,157.932 1931.04,158.261 1932.1,156.654 1933.16,165.444 1934.22,157.461 1935.27,161.926 1936.33,156.071 1937.39,151.756 1938.45,161.625 1939.5,166.002 1940.56,351.106 1941.62,161.954 1942.68,162.853 1943.73,158.056 1944.79,155.038 1945.85,152.908 1946.91,158.961 1947.96,523.48 1949.02,157.549 1950.08,156.528 1951.14,161.368 1952.19,336.542 1953.25,165.301 1954.31,346.81 1955.37,157.15 1956.43,159.288 1957.48,162.342 1958.54,160.363 1959.6,165.488 1960.66,159.648 1961.71,160.268 1962.77,158.083 1963.83,163.961 1964.89,162.076 1965.94,150.639 1967,162.443 1968.06,148.461 1969.12,153.893 1970.17,347.153 1971.23,347.675 1972.29,348.038 1973.35,344.646 1974.4,347.218 1975.46,347.261 1976.52,165.468 1977.58,156.093 1978.63,159.987 1979.69,162.029 1980.75,160.117 1981.81,159.996 1982.86,168.947 1983.92,517.91 1984.98,537.833 1986.04,153.522 1987.09,329.864 1988.15,164.857 1989.21,161.485 1990.27,350.288 1991.32,164.795 1992.38,162.724 1993.44,152.18 1994.5,158.922 1995.55,347.745 1996.61,350.065 1997.67,162.866 1998.73,338.058 1999.78,343.565 2000.84,350.755 2001.9,524.075 2002.96,519.039 2004.01,148.042 2005.07,355.935 2006.13,338.478 2007.19,348.369 2008.24,158.88 2009.3,154.386 2010.36,158.107 2011.42,175.467 2012.48,169.794 2013.53,534.952 2014.59,351.132 2015.65,343.808 2016.71,342.956 2017.76,343.959 2018.82,345.661 2019.88,341.421 2020.94,162.451 2021.99,157.453 2023.05,161.531 2024.11,155.445 2025.17,156.77 2026.22,336.519 2027.28,163.324 2028.34,152.801 2029.4,347.113 2030.45,342.587 2031.51,346.697 2032.57,345.804 2033.63,346.154 2034.68,159.349 2035.74,162.034 2036.8,336.393 2037.86,145.702 2038.91,164.367 2039.97,153.018 2041.03,159.326 2042.09,161.457 2043.14,529.557 2044.2,529.296 2045.26,533.875 2046.32,333.908 2047.37,530.98 2048.43,525.722 2049.49,529.152 2050.55,528.017 2051.6,531.171 2052.66,145.471 2053.72,154.922 2054.78,156.1 2055.83,524.692 2056.89,531.309 2057.95,526.431 2059.01,152.174 2060.06,343.297 2061.12,345.995 2062.18,345.001 2063.24,344.214 2064.3,520.613 2065.35,525.263 2066.41,532.595 2067.47,158.033 2068.53,358.786 2069.58,162.589 2070.64,153.358 2071.7,167.269 2072.76,150.387 2073.81,162.84 2074.87,158.678 2075.93,338.023 2076.99,346.89 2078.04,165.627 2079.1,534.152 2080.16,525.052 2081.22,148.277 2082.27,161.256 2083.33,346.527 2084.39,340.239 2085.45,343.453 2086.5,341.714 2087.56,340.785 2088.62,343.234 2089.68,161.321 2090.73,149.224 2091.79,159.749 2092.85,159.243 2093.91,153.351 2094.96,151.906 2096.02,163.296 2097.08,155.307 2098.14,158.92 2099.19,155.999 2100.25,158.293 2101.31,158.078 2102.37,157.101 2103.42,154.539 2104.48,342.76 2105.54,348.533 2106.6,347.461 2107.65,162.022 2108.71,153.869 2109.77,168.163 2110.83,147.772 2111.88,162.88 2112.94,169.496 2114,154.52 2115.06,157.021 2116.11,162.148 2117.17,168.281 2118.23,160.48 2119.29,164.88 2120.35,161.975 2121.4,148.545 2122.46,158.982 2123.52,158.291 2124.58,164.01 2125.63,153.19 2126.69,166.43 2127.75,150.629 2128.81,151.626 2129.86,146.935 2130.92,146.563 2131.98,347.202 2133.04,338.427 2134.09,349.225 2135.15,350.931 2136.21,353.742 2137.27,350.543 2138.32,160.445 2139.38,161.439 2140.44,162.286 2141.5,154.829 2142.55,160.119 2143.61,353.556 2144.67,532.044 2145.73,144.7 2146.78,158.471 2147.84,155.183 2148.9,169.977 2149.96,342.198 2151.01,341.088 2152.07,341.469 2153.13,351.815 2154.19,343.004 2155.24,347.219 2156.3,158.974 2157.36,169.207 2158.42,168.642 2159.47,148.871 2160.53,154.852 2161.59,157.88 2162.65,163.633 2163.7,523.872 2164.76,525.408 2165.82,527.011 2166.88,526.064 2167.93,150.208 2168.99,336.59 2170.05,340.987 2171.11,350.819 2172.17,348.743 2173.22,150.908 2174.28,160.442 2175.34,156.559 2176.4,341.578 2177.45,340.778 2178.51,350.208 2179.57,339.381 2180.63,157.801 2181.68,163.714 2182.74,165.907 2183.8,335.078 2184.86,336.929 2185.91,152.052 2186.97,156.141 2188.03,154.321 2189.09,163.167 2190.14,157.864 2191.2,167.531 2192.26,161.162 2193.32,155.095 2194.37,159.749 2195.43,150.672 2196.49,154.046 2197.55,147.495 2198.6,161.331 2199.66,165.205 2200.72,158.427 2201.78,161.06 2202.83,154.854 2203.89,348.098 2204.95,338.926 2206.01,344.211 2207.06,351.237 2208.12,178.616 2209.18,144.084 2210.24,525.683 2211.29,532.6 2212.35,353.115 2213.41,350.512 2214.47,346.687 2215.52,347.311 2216.58,341.61 2217.64,152.523 2218.7,164.961 2219.75,349.984 2220.81,163.583 2221.87,150.74 2222.93,157.867 2223.98,159.847 2225.04,161.74 2226.1,174.82 2227.16,163.975 2228.22,344.838 2229.27,347.972 2230.33,351.746 2231.39,344.319 2232.45,341.287 2233.5,346.694 2234.56,345.976 2235.62,148.523 2236.68,157.878 2237.73,154.002 2238.79,166.954 2239.85,162.91 2240.91,150.562 2241.96,158.682 2243.02,159.532 2244.08,159.641 2245.14,158.713 2246.19,344.134 2247.25,347.78 2248.31,336.865 2249.37,158.929 2250.42,151.318 2251.48,338.444 2252.54,338.391 2253.6,350.643 2254.65,165.067 2255.71,159.697 2256.77,151.739 2257.83,163.74 2258.88,162.124 2259.94,157.129 2261,163.319 2262.06,161.847 2263.11,168.729 2264.17,338.753 2265.23,161.143 2266.29,160.286 2267.34,146.121 2268.4,341.533 2269.46,149.37 2270.52,153.688 2271.57,153.16 2272.63,157.536 2273.69,172.71 2274.75,338.746 2275.8,339.415 2276.86,339.724 2277.92,151.189 2278.98,336.787 2280.04,162.665 2281.09,163.419 2282.15,158.444 2283.21,153.304 2284.27,351.658 2285.32,340.582 2286.38,346.678 2287.44,344.98 2288.5,347.339 2289.55,349.198 2290.61,339.267 2291.67,355.339 2292.73,146.977 2293.78,147.093 2294.84,163.447 2295.9,162.801 2296.96,168.953 2298.01,164.672 2299.07,154.729 2300.13,157.213 2301.19,160.234 2302.24,526.299 2303.3,157.637 2304.36,154.172 2305.42,151.12 2306.47,160.846 2307.53,157.43 2308.59,158.935 2309.65,157.79 2310.7,166.277 2311.76,161.339 2312.82,161.455 2313.88,151.209 2314.93,152.339 2315.99,165.882 2317.05,350.86 2318.11,348.782 2319.16,339.528 2320.22,346.116 2321.28,346.947 2322.34,153.62 2323.39,161.579 2324.45,160.915 2325.51,153.458 2326.57,341.447 2327.62,352.028 2328.68,339.311 2329.74,344.239 2330.8,346.375 2331.85,530.251 2332.91,527.864 2333.97,527.262 2335.03,527.24 2336.09,528.587 2337.14,533.633 2338.2,341.735 2339.26,351.332 2340.32,156.206 2341.37,151.86 2342.43,534.054 2343.49,524.891 2344.55,151.581 2345.6,160.221 2346.66,156.093 2347.72,154.23 2348.78,172.727 2349.83,165.346 2350.89,162.347 2351.95,162.012 2353.01,166.033 2354.06,528.41 2355.12,530.983 2356.18,535.241 2357.24,530.856 2358.29,533.428 2359.35,355.759 2360.41,337.263 2361.47,343.2 2362.52,344.738 2363.58,539.988 2364.64,344.62 2365.7,344.521 2366.75,336.204 2367.81,342.768 2368.87,339.329 2369.93,159.47 2370.98,162.248 2372.04,164.273 2373.1,519.646 2374.16,148.575 2375.21,160.538 2376.27,151.845 2377.33,168.316 2378.39,158.361 2379.44,162.872 2380.5,155.824 2381.56,525.185 2382.62,527.716 2383.67,346.292 2384.73,339.671 2385.79,157.262 2386.85,151.187 2387.9,148.346 2388.96,342.572 2390.02,340.744 2391.08,154.981 2392.14,167.182 2393.19,156.153 2394.25,159.261 2395.31,158.718 2396.37,157.297 2397.42,351.716 2398.48,336.661 2399.54,346.265 2400.6,335.533 2401.65,160.819 2402.71,166.36 2403.77,531.67 2404.83,529.031 2405.88,156.091 2406.94,158.492 2408,155.617 2409.06,155.623 2410.11,159.853 2411.17,158.948 2412.23,155.099 2413.29,159.43 2414.34,153.543 2415.4,154.046 2416.46,161.634 2417.52,161.301 2418.57,163.427 2419.63,352.048 2420.69,162.109 2421.75,157.83 2422.8,155.146 2423.86,161.614 2424.92,345.424 2425.98,162.987 2427.03,154.937 2428.09,156.576 2429.15,160.341 2430.21,150.821 2431.26,150.858 2432.32,150.934 2433.38,355.007 2434.44,345.487 2435.49,337.606 2436.55,337.768 2437.61,167.882 2438.67,160.973 2439.72,142.123 2440.78,162.142 2441.84,156.872 2442.9,161.499 2443.96,161.473 2445.01,161.651 2446.07,160.405 2447.13,160.392 2448.19,162.752 2449.24,159.305 2450.3,162.529 2451.36,163.594 2452.42,152.252 2453.47,160.055 2454.53,162.251 2455.59,158.377 2456.65,163.67 2457.7,338.032 2458.76,340.956 2459.82,157.579 2460.88,155.068 2461.93,157.209 2462.99,158.365 2464.05,158.579 2465.11,160.385 2466.16,155.561 2467.22,160.421 2468.28,350.639 2469.34,169.105 2470.39,157.87 2471.45,164.158 2472.51,155.486 2473.57,158.158 2474.62,161.144 2475.68,339.963 2476.74,344.763 2477.8,151.621 2478.85,149.48 2479.91,154.174 2480.97,146.4 2482.03,157.044 2483.08,163.029 2484.14,155.971 2485.2,162.446 2486.26,152.486 2487.31,157.678 2488.37,169.621 2489.43,170.923 2490.49,345.99 2491.54,335.745 2492.6,151.581 2493.66,155.558 2494.72,160.038 2495.77,157.669 2496.83,165.361 2497.89,162.846 2498.95,160.97 2500.01,346.836 2501.06,338.93 2502.12,354.658 2503.18,346.525 2504.24,167.299 2505.29,546.54 2506.35,152.261 2507.41,147.563 2508.47,530.632 2509.52,530.753 2510.58,534.577 2511.64,145.27 2512.7,153.618 2513.75,158.564 2514.81,170.22 2515.87,346.962 2516.93,155.233 2517.98,156.07 2519.04,171.154 2520.1,166.824 2521.16,335.124 2522.21,340.973 2523.27,344.387 2524.33,339.751 2525.39,343.481 2526.44,349.094 2527.5,537.888 2528.56,163.714 2529.62,154.162 2530.67,163.867 2531.73,169.62 2532.79,340.047 2533.85,141.844 2534.9,157.907 2535.96,156.556 2537.02,345.072 2538.08,338.64 2539.13,338.957 2540.19,528.885 2541.25,529.517 2542.31,520.124 2543.36,166.974 2544.42,157.572 2545.48,334.428 2546.54,150.999 2547.59,154.774 2548.65,163.869 2549.71,160.584 2550.77,170.253 2551.83,155.475 2552.88,162.561 2553.94,153.479 2555,168.405 2556.06,176.65 2557.11,144.031 2558.17,331.838 2559.23,170.244 2560.29,349.727 2561.34,346.184 2562.4,340.991 2563.46,347.8 2564.52,344.304 2565.57,346.478 2566.63,346.054 2567.69,346.307 2568.75,148.681 2569.8,153.432 2570.86,155.401 2571.92,156.022 2572.98,151.392 2574.03,154.174 2575.09,160.282 2576.15,155.245 2577.21,160.133 2578.26,158.512 2579.32,164.144 2580.38,158.536 2581.44,156.325 2582.49,161.816 2583.55,158.768 2584.61,164.72 2585.67,162.372 2586.72,152.076 2587.78,154.138 2588.84,156.023 2589.9,168.598 2590.95,335.277 2592.01,158.642 2593.07,155.493 2594.13,346.807 2595.18,148.436 2596.24,148.775 2597.3,150.855 2598.36,528.441 2599.41,532.184 2600.47,526.919 2601.53,527.597 2602.59,157.381 2603.64,155.796 2604.7,146.539 2605.76,158.212 2606.82,168.177 2607.88,168.678 2608.93,346.739 2609.99,344.476 2611.05,340.54 2612.11,340.357 2613.16,162.493 2614.22,343.124 2615.28,333.647 2616.34,154.445 2617.39,152.618 2618.45,155.976 2619.51,346.628 2620.57,150.571 2621.62,153.131 2622.68,162.305 2623.74,166.059 2624.8,336.267 2625.85,343.038 2626.91,340.813 2627.97,342.548 2629.03,347.097 2630.08,346.214 2631.14,346.02 2632.2,348.087 2633.26,335.299 2634.31,146.184 2635.37,344.346 2636.43,345.817 2637.49,335.841 2638.54,345.473 2639.6,346.693 2640.66,539.873 2641.72,350.782 2642.77,338.619 2643.83,148.855 2644.89,535.769 2645.95,530.891 2647,522.188 2648.06,534.843 2649.12,536.132 2650.18,534.54 2651.23,523.353 2652.29,170.336 2653.35,160.366 2654.41,159.749 2655.46,170.259 2656.52,151.018 2657.58,149.64 2658.64,167.457 2659.69,532.451 2660.75,165.314 2661.81,157.507 2662.87,164.925 2663.93,166.176 2664.98,154.963 2666.04,163.014 2667.1,158.443 2668.16,164.025 2669.21,159.167 2670.27,163.828 2671.33,170.234 2672.39,161.744 2673.44,162.304 2674.5,157.872 2675.56,352.063 2676.62,163.307 2677.67,164.578 2678.73,161.276 2679.79,167.099 2680.85,151.726 2681.9,154.98 2682.96,161.373 2684.02,160.092 2685.08,347.365 2686.13,349.951 2687.19,346.827 2688.25,348.957 2689.31,155.755 2690.36,162.181 2691.42,161.182 2692.48,347.475 2693.54,344.677 2694.59,343.672 2695.65,341.809 2696.71,338.357 2697.77,161.878 2698.82,343.092 2699.88,339.493 2700.94,344.222 2702,349.155 2703.05,531.409 2704.11,523.708 2705.17,162.656 2706.23,157.905 2707.28,150.642 2708.34,347.004 2709.4,342.001 2710.46,342.952 2711.51,157.715 2712.57,154.615 2713.63,164.752 2714.69,164.872 2715.75,161.247 2716.8,153.06 2717.86,152.991 2718.92,158.892 2719.98,339.733 2721.03,165.109 2722.09,159.282 2723.15,155.767 2724.21,161.959 2725.26,160.114 2726.32,154.233 2727.38,164.212 2728.44,159.567 2729.49,158.038 2730.55,158.908 2731.61,162.067 2732.67,166.963 2733.72,145.755 2734.78,161.426 2735.84,159.416 2736.9,158.03 2737.95,155.134 2739.01,152.123 2740.07,155.908 2741.13,160.466 2742.18,161.857 2743.24,152.197 2744.3,355.893 2745.36,341.485 2746.41,342.473 2747.47,344.579 2748.53,348.848 2749.59,161.088 2750.64,167.393 2751.7,160.7 2752.76,160.665 2753.82,157.224 2754.87,162.904 2755.93,156.336 2756.99,150.905 2758.05,149.239 2759.1,346.084 2760.16,352.35 2761.22,351.02 2762.28,344.694 2763.33,163.533 2764.39,158.913 2765.45,340.359 2766.51,163.036 2767.56,152.557 2768.62,159.528 2769.68,347.301 2770.74,336.32 2771.8,341.747 2772.85,162.342 2773.91,150.774 2774.97,158.766 2776.03,156.677 2777.08,158.729 2778.14,157.882 2779.2,157.087 2780.26,167.468 2781.31,351.365 2782.37,344.71 2783.43,337.558 2784.49,339.068 2785.54,340.648 2786.6,344.378 2787.66,339.218 2788.72,341.99 2789.77,350.27 2790.83,352.079 2791.89,340.084 2792.95,159.78 2794,348.998 2795.06,165.285 2796.12,148.281 2797.18,530.432 2798.23,533.333 2799.29,523.46 2800.35,530.155 2801.41,528.456 2802.46,537.276 2803.52,163.151 2804.58,152.15 2805.64,153.598 2806.69,156.696 2807.75,153.995 2808.81,161.195 2809.87,161.514 2810.92,155.591 2811.98,344.545 2813.04,348.111 2814.1,351.714 2815.15,165.988 2816.21,168.28 2817.27,158.623 2818.33,148.534 2819.38,148.565 2820.44,351.588 2821.5,351.753 2822.56,343.934 2823.62,344.375 2824.67,149.017 2825.73,165.513 2826.79,160.3 2827.85,158.824 2828.9,155.796 2829.96,157.302 2831.02,159.514 2832.08,157.536 2833.13,154.414 2834.19,154.728 2835.25,161.141 2836.31,157.787 2837.36,158.482 2838.42,158.044 2839.48,147.986 2840.54,156.077 2841.59,356.941 2842.65,148.596 2843.71,532.29 2844.77,342.826 2845.82,157.488 2846.88,156.173 2847.94,531.801 2849,527.591 2850.05,524.03 2851.11,156.575 2852.17,160.133 2853.23,160.467 2854.28,163.304 2855.34,161.091 2856.4,156.098 2857.46,148.499 2858.51,166.547 2859.57,342.265 2860.63,345.953 2861.69,160.399 2862.74,146.943 2863.8,149.623 2864.86,156.153 2865.92,347.348 2866.97,344.745 2868.03,353.855 2869.09,528.407 2870.15,539.007 2871.2,346.008 2872.26,341.955 2873.32,351.247 2874.38,156.838 2875.43,538.603 2876.49,158.854 2877.55,168.593 2878.61,339.697 2879.67,347.776 2880.72,338.633 2881.78,348.298 2882.84,157.692 2883.9,159.772 2884.95,156.242 2886.01,162.882 2887.07,340.64 2888.13,344.253 2889.18,344.757 2890.24,338.45 2891.3,346.897 2892.36,338.536 2893.41,337.817 2894.47,349.968 2895.53,344.264 2896.59,346.998 2897.64,151.415 2898.7,167.293 2899.76,159.258 2900.82,159.002 2901.87,156.949 2902.93,166.509 2903.99,526.016 2905.05,529.174 2906.1,529.919 2907.16,523.8 2908.22,341.967 2909.28,343.814 2910.33,349.732 2911.39,356.43 2912.45,153.517 2913.51,150.07 2914.56,162.673 2915.62,156.428 2916.68,162.938 2917.74,161.491 2918.79,162.229 2919.85,162.99 2920.91,355.481 2921.97,169.184 2923.02,346.181 2924.08,343.921 2925.14,346.076 2926.2,153.635 2927.25,343.915 2928.31,348.012 2929.37,337.475 2930.43,162.54 2931.48,158.506 2932.54,164.081 2933.6,162.737 2934.66,158.507 2935.72,159.686 2936.77,157.217 2937.83,346.893 2938.89,345.551 2939.95,339.49 2941,343.237 2942.06,343.795 2943.12,337.546 2944.18,165.418 2945.23,158.886 2946.29,158.311 2947.35,157.889 2948.41,534.351 2949.46,535.518 2950.52,348.825 2951.58,337.689 2952.64,340.194 2953.69,339.879 2954.75,350.987 2955.81,175.911 2956.87,172.196 2957.92,162.29 2958.98,152.914 2960.04,346.553 2961.1,343.649 2962.15,348.901 2963.21,346.325 2964.27,342.137 2965.33,340.851 2966.38,162.234 2967.44,148.908 2968.5,340.603 2969.56,350.245 2970.61,353.986 2971.67,359.974 2972.73,356.876 2973.79,337.941 2974.84,346.388 2975.9,155.687 2976.96,157.106 2978.02,155.851 2979.07,168.054 2980.13,167.884 2981.19,153.537 2982.25,155.392 2983.3,166.307 2984.36,157.212 2985.42,349.938 2986.48,142.749 2987.54,160.142 2988.59,153.626 2989.65,167.47 2990.71,533.827 2991.77,531.668 2992.82,338.889 2993.88,344.547 2994.94,151.773 2996,166.3 2997.05,158.234 2998.11,164.012 2999.17,151.546 3000.23,165.568 3001.28,153.863 3002.34,159.65 3003.4,350.346 3004.46,351.202 3005.51,345.178 3006.57,343.109 3007.63,342.67 3008.69,348.72 3009.74,165.114 3010.8,170.411 3011.86,150.033 3012.92,158.132 3013.97,340.798 3015.03,335.989 3016.09,341.66 3017.15,345.195 3018.2,338.005 3019.26,345.747 3020.32,348.733 3021.38,151.087 3022.43,170.12 3023.49,168.507 3024.55,170.527 3025.61,336.549 3026.66,152.495 3027.72,155.522 3028.78,163.005 3029.84,154.242 3030.89,160.763 3031.95,169.356 3033.01,154.178 3034.07,150.146 3035.12,166.695 3036.18,150.967 3037.24,157.998 3038.3,155.287 3039.35,151.651 3040.41,167.186 3041.47,159.743 3042.53,156.995 3043.59,157.253 3044.64,154.295 3045.7,156.823 3046.76,343.902 3047.82,341.984 3048.87,164.898 3049.93,157.697 3050.99,152.946 3052.05,161.235 3053.1,161.567 3054.16,171.435 3055.22,159.301 3056.28,163.41 3057.33,173.628 3058.39,153.68 3059.45,350.768 3060.51,542.248 3061.56,350.393 3062.62,344.099 3063.68,344.555 3064.74,344.387 3065.79,344.482 3066.85,158.479 3067.91,149.312 3068.97,342.464 "/>
<path clip-path="url(#clip720)" d="M2576.07 693.754 L3054.07 693.754 L3054.07 590.074 L2576.07 590.074  Z" fill="#ffffff" fill-rule="evenodd" fill-opacity="1"/>
<polyline clip-path="url(#clip720)" style="stroke:#000000; stroke-linecap:round; stroke-linejoin:round; stroke-width:4; stroke-opacity:1; fill:none" points="2576.07,693.754 3054.07,693.754 3054.07,590.074 2576.07,590.074 2576.07,693.754 "/>
<polyline clip-path="url(#clip720)" style="stroke:#009af9; stroke-linecap:round; stroke-linejoin:round; stroke-width:2; stroke-opacity:1; fill:none" points="2608.97,641.914 2806.34,641.914 "/>
<path clip-path="url(#clip720)" d="M2855.62 642.991 Q2857.13 643.5 2858.54 645.167 Q2859.97 646.833 2861.41 649.75 L2866.15 659.194 L2861.13 659.194 L2856.71 650.329 Q2855 646.857 2853.38 645.722 Q2851.78 644.588 2849 644.588 L2843.91 644.588 L2843.91 659.194 L2839.23 659.194 L2839.23 624.634 L2849.79 624.634 Q2855.71 624.634 2858.63 627.111 Q2861.55 629.588 2861.55 634.588 Q2861.55 637.852 2860.02 640.005 Q2858.51 642.157 2855.62 642.991 M2843.91 628.477 L2843.91 640.745 L2849.79 640.745 Q2853.17 640.745 2854.88 639.195 Q2856.62 637.62 2856.62 634.588 Q2856.62 631.556 2854.88 630.028 Q2853.17 628.477 2849.79 628.477 L2843.91 628.477 Z" fill="#000000" fill-rule="evenodd" fill-opacity="1" /><path clip-path="url(#clip720)" d="M2881.8 629.241 L2875.46 646.44 L2888.17 646.44 L2881.8 629.241 M2879.16 624.634 L2884.46 624.634 L2897.63 659.194 L2892.77 659.194 L2889.63 650.329 L2874.05 650.329 L2870.9 659.194 L2865.97 659.194 L2879.16 624.634 Z" fill="#000000" fill-rule="evenodd" fill-opacity="1" /><path clip-path="url(#clip720)" d="M2899.3 644.31 L2911.78 644.31 L2911.78 648.107 L2899.3 648.107 L2899.3 644.31 Z" fill="#000000" fill-rule="evenodd" fill-opacity="1" /><path clip-path="url(#clip720)" d="M2918.75 624.634 L2923.42 624.634 L2923.42 638.801 L2940.41 638.801 L2940.41 624.634 L2945.09 624.634 L2945.09 659.194 L2940.41 659.194 L2940.41 642.736 L2923.42 642.736 L2923.42 659.194 L2918.75 659.194 L2918.75 624.634 Z" fill="#000000" fill-rule="evenodd" fill-opacity="1" /><path clip-path="url(#clip720)" d="M2954.39 624.634 L2961.36 624.634 L2970.18 648.153 L2979.05 624.634 L2986.01 624.634 L2986.01 659.194 L2981.45 659.194 L2981.45 628.847 L2972.54 652.551 L2967.84 652.551 L2958.93 628.847 L2958.93 659.194 L2954.39 659.194 L2954.39 624.634 Z" fill="#000000" fill-rule="evenodd" fill-opacity="1" /><path clip-path="url(#clip720)" d="M3021.18 627.296 L3021.18 632.227 Q3018.81 630.028 3016.13 628.94 Q3013.47 627.852 3010.46 627.852 Q3004.53 627.852 3001.38 631.486 Q2998.24 635.097 2998.24 641.949 Q2998.24 648.778 3001.38 652.412 Q3004.53 656.023 3010.46 656.023 Q3013.47 656.023 3016.13 654.935 Q3018.81 653.847 3021.18 651.648 L3021.18 656.532 Q3018.72 658.199 3015.97 659.032 Q3013.24 659.866 3010.18 659.866 Q3002.33 659.866 2997.82 655.074 Q2993.31 650.259 2993.31 641.949 Q2993.31 633.616 2997.82 628.824 Q3002.33 624.009 3010.18 624.009 Q3013.28 624.009 3016.01 624.843 Q3018.77 625.653 3021.18 627.296 Z" fill="#000000" fill-rule="evenodd" fill-opacity="1" /></svg>
