<?xml version="1.0" encoding="utf-8"?>
<svg xmlns="http://www.w3.org/2000/svg" xmlns:xlink="http://www.w3.org/1999/xlink" width="800" height="200" viewBox="0 0 3200 800">
<defs>
  <clipPath id="clip360">
    <rect x="0" y="0" width="3200" height="800"/>
  </clipPath>
</defs>
<path clip-path="url(#clip360)" d="M0 800 L3200 800 L3200 0 L0 0  Z" fill="#ffffff" fill-rule="evenodd" fill-opacity="1"/>
<defs>
  <clipPath id="clip361">
    <rect x="640" y="0" width="2241" height="800"/>
  </clipPath>
</defs>
<path clip-path="url(#clip360)" d="M148.696 716.048 L3152.76 716.048 L3152.76 47.2441 L148.696 47.2441  Z" fill="#ffffff" fill-rule="evenodd" fill-opacity="1"/>
<defs>
  <clipPath id="clip362">
    <rect x="148" y="47" width="3005" height="670"/>
  </clipPath>
</defs>
<polyline clip-path="url(#clip362)" style="stroke:#000000; stroke-linecap:round; stroke-linejoin:round; stroke-width:2; stroke-opacity:0.1; fill:none" points="233.041,716.048 233.041,47.2441 "/>
<polyline clip-path="url(#clip362)" style="stroke:#000000; stroke-linecap:round; stroke-linejoin:round; stroke-width:2; stroke-opacity:0.1; fill:none" points="907.968,716.048 907.968,47.2441 "/>
<polyline clip-path="url(#clip362)" style="stroke:#000000; stroke-linecap:round; stroke-linejoin:round; stroke-width:2; stroke-opacity:0.1; fill:none" points="1582.9,716.048 1582.9,47.2441 "/>
<polyline clip-path="url(#clip362)" style="stroke:#000000; stroke-linecap:round; stroke-linejoin:round; stroke-width:2; stroke-opacity:0.1; fill:none" points="2257.82,716.048 2257.82,47.2441 "/>
<polyline clip-path="url(#clip362)" style="stroke:#000000; stroke-linecap:round; stroke-linejoin:round; stroke-width:2; stroke-opacity:0.1; fill:none" points="2932.75,716.048 2932.75,47.2441 "/>
<polyline clip-path="url(#clip360)" style="stroke:#000000; stroke-linecap:round; stroke-linejoin:round; stroke-width:4; stroke-opacity:1; fill:none" points="148.696,716.048 3152.76,716.048 "/>
<polyline clip-path="url(#clip360)" style="stroke:#000000; stroke-linecap:round; stroke-linejoin:round; stroke-width:4; stroke-opacity:1; fill:none" points="233.041,716.048 233.041,697.15 "/>
<polyline clip-path="url(#clip360)" style="stroke:#000000; stroke-linecap:round; stroke-linejoin:round; stroke-width:4; stroke-opacity:1; fill:none" points="907.968,716.048 907.968,697.15 "/>
<polyline clip-path="url(#clip360)" style="stroke:#000000; stroke-linecap:round; stroke-linejoin:round; stroke-width:4; stroke-opacity:1; fill:none" points="1582.9,716.048 1582.9,697.15 "/>
<polyline clip-path="url(#clip360)" style="stroke:#000000; stroke-linecap:round; stroke-linejoin:round; stroke-width:4; stroke-opacity:1; fill:none" points="2257.82,716.048 2257.82,697.15 "/>
<polyline clip-path="url(#clip360)" style="stroke:#000000; stroke-linecap:round; stroke-linejoin:round; stroke-width:4; stroke-opacity:1; fill:none" points="2932.75,716.048 2932.75,697.15 "/>
<path clip-path="url(#clip360)" d="M233.041 753.367 Q229.43 753.367 227.601 756.931 Q225.796 760.473 225.796 767.603 Q225.796 774.709 227.601 778.274 Q229.43 781.815 233.041 781.815 Q236.675 781.815 238.481 778.274 Q240.31 774.709 240.31 767.603 Q240.31 760.473 238.481 756.931 Q236.675 753.367 233.041 753.367 M233.041 749.663 Q238.851 749.663 241.907 754.269 Q244.986 758.853 244.986 767.603 Q244.986 776.329 241.907 780.936 Q238.851 785.519 233.041 785.519 Q227.231 785.519 224.152 780.936 Q221.097 776.329 221.097 767.603 Q221.097 758.853 224.152 754.269 Q227.231 749.663 233.041 749.663 Z" fill="#000000" fill-rule="evenodd" fill-opacity="1" /><path clip-path="url(#clip360)" d="M852.494 780.913 L860.133 780.913 L860.133 754.547 L851.823 756.214 L851.823 751.955 L860.087 750.288 L864.763 750.288 L864.763 780.913 L872.401 780.913 L872.401 784.848 L852.494 784.848 L852.494 780.913 Z" fill="#000000" fill-rule="evenodd" fill-opacity="1" /><path clip-path="url(#clip360)" d="M891.846 753.367 Q888.235 753.367 886.406 756.931 Q884.6 760.473 884.6 767.603 Q884.6 774.709 886.406 778.274 Q888.235 781.815 891.846 781.815 Q895.48 781.815 897.286 778.274 Q899.114 774.709 899.114 767.603 Q899.114 760.473 897.286 756.931 Q895.48 753.367 891.846 753.367 M891.846 749.663 Q897.656 749.663 900.711 754.269 Q903.79 758.853 903.79 767.603 Q903.79 776.329 900.711 780.936 Q897.656 785.519 891.846 785.519 Q886.036 785.519 882.957 780.936 Q879.901 776.329 879.901 767.603 Q879.901 758.853 882.957 754.269 Q886.036 749.663 891.846 749.663 Z" fill="#000000" fill-rule="evenodd" fill-opacity="1" /><path clip-path="url(#clip360)" d="M922.008 753.367 Q918.397 753.367 916.568 756.931 Q914.762 760.473 914.762 767.603 Q914.762 774.709 916.568 778.274 Q918.397 781.815 922.008 781.815 Q925.642 781.815 927.447 778.274 Q929.276 774.709 929.276 767.603 Q929.276 760.473 927.447 756.931 Q925.642 753.367 922.008 753.367 M922.008 749.663 Q927.818 749.663 930.873 754.269 Q933.952 758.853 933.952 767.603 Q933.952 776.329 930.873 780.936 Q927.818 785.519 922.008 785.519 Q916.197 785.519 913.119 780.936 Q910.063 776.329 910.063 767.603 Q910.063 758.853 913.119 754.269 Q916.197 749.663 922.008 749.663 Z" fill="#000000" fill-rule="evenodd" fill-opacity="1" /><path clip-path="url(#clip360)" d="M952.17 753.367 Q948.558 753.367 946.73 756.931 Q944.924 760.473 944.924 767.603 Q944.924 774.709 946.73 778.274 Q948.558 781.815 952.17 781.815 Q955.804 781.815 957.609 778.274 Q959.438 774.709 959.438 767.603 Q959.438 760.473 957.609 756.931 Q955.804 753.367 952.17 753.367 M952.17 749.663 Q957.98 749.663 961.035 754.269 Q964.114 758.853 964.114 767.603 Q964.114 776.329 961.035 780.936 Q957.98 785.519 952.17 785.519 Q946.359 785.519 943.281 780.936 Q940.225 776.329 940.225 767.603 Q940.225 758.853 943.281 754.269 Q946.359 749.663 952.17 749.663 Z" fill="#000000" fill-rule="evenodd" fill-opacity="1" /><path clip-path="url(#clip360)" d="M1531.51 780.913 L1547.83 780.913 L1547.83 784.848 L1525.88 784.848 L1525.88 780.913 Q1528.54 778.158 1533.13 773.528 Q1537.73 768.876 1538.91 767.533 Q1541.16 765.01 1542.04 763.274 Q1542.94 761.515 1542.94 759.825 Q1542.94 757.07 1541 755.334 Q1539.08 753.598 1535.97 753.598 Q1533.78 753.598 1531.32 754.362 Q1528.89 755.126 1526.11 756.677 L1526.11 751.955 Q1528.94 750.82 1531.39 750.242 Q1533.84 749.663 1535.88 749.663 Q1541.25 749.663 1544.45 752.348 Q1547.64 755.033 1547.64 759.524 Q1547.64 761.654 1546.83 763.575 Q1546.04 765.473 1543.94 768.066 Q1543.36 768.737 1540.26 771.954 Q1537.16 775.149 1531.51 780.913 Z" fill="#000000" fill-rule="evenodd" fill-opacity="1" /><path clip-path="url(#clip360)" d="M1567.64 753.367 Q1564.03 753.367 1562.2 756.931 Q1560.4 760.473 1560.4 767.603 Q1560.4 774.709 1562.2 778.274 Q1564.03 781.815 1567.64 781.815 Q1571.28 781.815 1573.08 778.274 Q1574.91 774.709 1574.91 767.603 Q1574.91 760.473 1573.08 756.931 Q1571.28 753.367 1567.64 753.367 M1567.64 749.663 Q1573.45 749.663 1576.51 754.269 Q1579.59 758.853 1579.59 767.603 Q1579.59 776.329 1576.51 780.936 Q1573.45 785.519 1567.64 785.519 Q1561.83 785.519 1558.75 780.936 Q1555.7 776.329 1555.7 767.603 Q1555.7 758.853 1558.75 754.269 Q1561.83 749.663 1567.64 749.663 Z" fill="#000000" fill-rule="evenodd" fill-opacity="1" /><path clip-path="url(#clip360)" d="M1597.8 753.367 Q1594.19 753.367 1592.36 756.931 Q1590.56 760.473 1590.56 767.603 Q1590.56 774.709 1592.36 778.274 Q1594.19 781.815 1597.8 781.815 Q1601.44 781.815 1603.24 778.274 Q1605.07 774.709 1605.07 767.603 Q1605.07 760.473 1603.24 756.931 Q1601.44 753.367 1597.8 753.367 M1597.8 749.663 Q1603.61 749.663 1606.67 754.269 Q1609.75 758.853 1609.75 767.603 Q1609.75 776.329 1606.67 780.936 Q1603.61 785.519 1597.8 785.519 Q1591.99 785.519 1588.91 780.936 Q1585.86 776.329 1585.86 767.603 Q1585.86 758.853 1588.91 754.269 Q1591.99 749.663 1597.8 749.663 Z" fill="#000000" fill-rule="evenodd" fill-opacity="1" /><path clip-path="url(#clip360)" d="M1627.96 753.367 Q1624.35 753.367 1622.52 756.931 Q1620.72 760.473 1620.72 767.603 Q1620.72 774.709 1622.52 778.274 Q1624.35 781.815 1627.96 781.815 Q1631.6 781.815 1633.4 778.274 Q1635.23 774.709 1635.23 767.603 Q1635.23 760.473 1633.4 756.931 Q1631.6 753.367 1627.96 753.367 M1627.96 749.663 Q1633.77 749.663 1636.83 754.269 Q1639.91 758.853 1639.91 767.603 Q1639.91 776.329 1636.83 780.936 Q1633.77 785.519 1627.96 785.519 Q1622.15 785.519 1619.08 780.936 Q1616.02 776.329 1616.02 767.603 Q1616.02 758.853 1619.08 754.269 Q1622.15 749.663 1627.96 749.663 Z" fill="#000000" fill-rule="evenodd" fill-opacity="1" /><path clip-path="url(#clip360)" d="M2216.5 766.214 Q2219.86 766.931 2221.73 769.2 Q2223.63 771.468 2223.63 774.802 Q2223.63 779.917 2220.11 782.718 Q2216.6 785.519 2210.11 785.519 Q2207.94 785.519 2205.62 785.079 Q2203.33 784.663 2200.88 783.806 L2200.88 779.292 Q2202.82 780.427 2205.14 781.005 Q2207.45 781.584 2209.98 781.584 Q2214.37 781.584 2216.67 779.848 Q2218.98 778.112 2218.98 774.802 Q2218.98 771.746 2216.83 770.033 Q2214.7 768.297 2210.88 768.297 L2206.85 768.297 L2206.85 764.454 L2211.06 764.454 Q2214.51 764.454 2216.34 763.089 Q2218.17 761.7 2218.17 759.107 Q2218.17 756.445 2216.27 755.033 Q2214.4 753.598 2210.88 753.598 Q2208.96 753.598 2206.76 754.015 Q2204.56 754.431 2201.92 755.311 L2201.92 751.144 Q2204.58 750.404 2206.9 750.033 Q2209.24 749.663 2211.3 749.663 Q2216.62 749.663 2219.72 752.093 Q2222.82 754.501 2222.82 758.621 Q2222.82 761.492 2221.18 763.482 Q2219.54 765.45 2216.5 766.214 Z" fill="#000000" fill-rule="evenodd" fill-opacity="1" /><path clip-path="url(#clip360)" d="M2242.5 753.367 Q2238.89 753.367 2237.06 756.931 Q2235.25 760.473 2235.25 767.603 Q2235.25 774.709 2237.06 778.274 Q2238.89 781.815 2242.5 781.815 Q2246.13 781.815 2247.94 778.274 Q2249.77 774.709 2249.77 767.603 Q2249.77 760.473 2247.94 756.931 Q2246.13 753.367 2242.5 753.367 M2242.5 749.663 Q2248.31 749.663 2251.36 754.269 Q2254.44 758.853 2254.44 767.603 Q2254.44 776.329 2251.36 780.936 Q2248.31 785.519 2242.5 785.519 Q2236.69 785.519 2233.61 780.936 Q2230.55 776.329 2230.55 767.603 Q2230.55 758.853 2233.61 754.269 Q2236.69 749.663 2242.5 749.663 Z" fill="#000000" fill-rule="evenodd" fill-opacity="1" /><path clip-path="url(#clip360)" d="M2272.66 753.367 Q2269.05 753.367 2267.22 756.931 Q2265.42 760.473 2265.42 767.603 Q2265.42 774.709 2267.22 778.274 Q2269.05 781.815 2272.66 781.815 Q2276.29 781.815 2278.1 778.274 Q2279.93 774.709 2279.93 767.603 Q2279.93 760.473 2278.1 756.931 Q2276.29 753.367 2272.66 753.367 M2272.66 749.663 Q2278.47 749.663 2281.53 754.269 Q2284.6 758.853 2284.6 767.603 Q2284.6 776.329 2281.53 780.936 Q2278.47 785.519 2272.66 785.519 Q2266.85 785.519 2263.77 780.936 Q2260.72 776.329 2260.72 767.603 Q2260.72 758.853 2263.77 754.269 Q2266.85 749.663 2272.66 749.663 Z" fill="#000000" fill-rule="evenodd" fill-opacity="1" /><path clip-path="url(#clip360)" d="M2302.82 753.367 Q2299.21 753.367 2297.38 756.931 Q2295.58 760.473 2295.58 767.603 Q2295.58 774.709 2297.38 778.274 Q2299.21 781.815 2302.82 781.815 Q2306.46 781.815 2308.26 778.274 Q2310.09 774.709 2310.09 767.603 Q2310.09 760.473 2308.26 756.931 Q2306.46 753.367 2302.82 753.367 M2302.82 749.663 Q2308.63 749.663 2311.69 754.269 Q2314.77 758.853 2314.77 767.603 Q2314.77 776.329 2311.69 780.936 Q2308.63 785.519 2302.82 785.519 Q2297.01 785.519 2293.93 780.936 Q2290.88 776.329 2290.88 767.603 Q2290.88 758.853 2293.93 754.269 Q2297.01 749.663 2302.82 749.663 Z" fill="#000000" fill-rule="evenodd" fill-opacity="1" /><path clip-path="url(#clip360)" d="M2890.76 754.362 L2878.95 772.811 L2890.76 772.811 L2890.76 754.362 M2889.53 750.288 L2895.41 750.288 L2895.41 772.811 L2900.34 772.811 L2900.34 776.7 L2895.41 776.7 L2895.41 784.848 L2890.76 784.848 L2890.76 776.7 L2875.16 776.7 L2875.16 772.186 L2889.53 750.288 Z" fill="#000000" fill-rule="evenodd" fill-opacity="1" /><path clip-path="url(#clip360)" d="M2918.07 753.367 Q2914.46 753.367 2912.63 756.931 Q2910.83 760.473 2910.83 767.603 Q2910.83 774.709 2912.63 778.274 Q2914.46 781.815 2918.07 781.815 Q2921.71 781.815 2923.51 778.274 Q2925.34 774.709 2925.34 767.603 Q2925.34 760.473 2923.51 756.931 Q2921.71 753.367 2918.07 753.367 M2918.07 749.663 Q2923.88 749.663 2926.94 754.269 Q2930.02 758.853 2930.02 767.603 Q2930.02 776.329 2926.94 780.936 Q2923.88 785.519 2918.07 785.519 Q2912.26 785.519 2909.19 780.936 Q2906.13 776.329 2906.13 767.603 Q2906.13 758.853 2909.19 754.269 Q2912.26 749.663 2918.07 749.663 Z" fill="#000000" fill-rule="evenodd" fill-opacity="1" /><path clip-path="url(#clip360)" d="M2948.24 753.367 Q2944.62 753.367 2942.8 756.931 Q2940.99 760.473 2940.99 767.603 Q2940.99 774.709 2942.8 778.274 Q2944.62 781.815 2948.24 781.815 Q2951.87 781.815 2953.68 778.274 Q2955.5 774.709 2955.5 767.603 Q2955.5 760.473 2953.68 756.931 Q2951.87 753.367 2948.24 753.367 M2948.24 749.663 Q2954.05 749.663 2957.1 754.269 Q2960.18 758.853 2960.18 767.603 Q2960.18 776.329 2957.1 780.936 Q2954.05 785.519 2948.24 785.519 Q2942.43 785.519 2939.35 780.936 Q2936.29 776.329 2936.29 767.603 Q2936.29 758.853 2939.35 754.269 Q2942.43 749.663 2948.24 749.663 Z" fill="#000000" fill-rule="evenodd" fill-opacity="1" /><path clip-path="url(#clip360)" d="M2978.4 753.367 Q2974.79 753.367 2972.96 756.931 Q2971.15 760.473 2971.15 767.603 Q2971.15 774.709 2972.96 778.274 Q2974.79 781.815 2978.4 781.815 Q2982.03 781.815 2983.84 778.274 Q2985.67 774.709 2985.67 767.603 Q2985.67 760.473 2983.84 756.931 Q2982.03 753.367 2978.4 753.367 M2978.4 749.663 Q2984.21 749.663 2987.26 754.269 Q2990.34 758.853 2990.34 767.603 Q2990.34 776.329 2987.26 780.936 Q2984.21 785.519 2978.4 785.519 Q2972.59 785.519 2969.51 780.936 Q2966.45 776.329 2966.45 767.603 Q2966.45 758.853 2969.51 754.269 Q2972.59 749.663 2978.4 749.663 Z" fill="#000000" fill-rule="evenodd" fill-opacity="1" /><polyline clip-path="url(#clip362)" style="stroke:#000000; stroke-linecap:round; stroke-linejoin:round; stroke-width:2; stroke-opacity:0.1; fill:none" points="148.696,716.048 3152.76,716.048 "/>
<polyline clip-path="url(#clip362)" style="stroke:#000000; stroke-linecap:round; stroke-linejoin:round; stroke-width:2; stroke-opacity:0.1; fill:none" points="148.696,576.714 3152.76,576.714 "/>
<polyline clip-path="url(#clip362)" style="stroke:#000000; stroke-linecap:round; stroke-linejoin:round; stroke-width:2; stroke-opacity:0.1; fill:none" points="148.696,437.38 3152.76,437.38 "/>
<polyline clip-path="url(#clip362)" style="stroke:#000000; stroke-linecap:round; stroke-linejoin:round; stroke-width:2; stroke-opacity:0.1; fill:none" points="148.696,298.046 3152.76,298.046 "/>
<polyline clip-path="url(#clip362)" style="stroke:#000000; stroke-linecap:round; stroke-linejoin:round; stroke-width:2; stroke-opacity:0.1; fill:none" points="148.696,158.711 3152.76,158.711 "/>
<polyline clip-path="url(#clip360)" style="stroke:#000000; stroke-linecap:round; stroke-linejoin:round; stroke-width:4; stroke-opacity:1; fill:none" points="148.696,716.048 148.696,47.2441 "/>
<polyline clip-path="url(#clip360)" style="stroke:#000000; stroke-linecap:round; stroke-linejoin:round; stroke-width:4; stroke-opacity:1; fill:none" points="148.696,716.048 167.593,716.048 "/>
<polyline clip-path="url(#clip360)" style="stroke:#000000; stroke-linecap:round; stroke-linejoin:round; stroke-width:4; stroke-opacity:1; fill:none" points="148.696,576.714 167.593,576.714 "/>
<polyline clip-path="url(#clip360)" style="stroke:#000000; stroke-linecap:round; stroke-linejoin:round; stroke-width:4; stroke-opacity:1; fill:none" points="148.696,437.38 167.593,437.38 "/>
<polyline clip-path="url(#clip360)" style="stroke:#000000; stroke-linecap:round; stroke-linejoin:round; stroke-width:4; stroke-opacity:1; fill:none" points="148.696,298.046 167.593,298.046 "/>
<polyline clip-path="url(#clip360)" style="stroke:#000000; stroke-linecap:round; stroke-linejoin:round; stroke-width:4; stroke-opacity:1; fill:none" points="148.696,158.711 167.593,158.711 "/>
<path clip-path="url(#clip360)" d="M88.7512 701.847 Q85.1401 701.847 83.3114 705.411 Q81.5058 708.953 81.5058 716.083 Q81.5058 723.189 83.3114 726.754 Q85.1401 730.295 88.7512 730.295 Q92.3854 730.295 94.1909 726.754 Q96.0196 723.189 96.0196 716.083 Q96.0196 708.953 94.1909 705.411 Q92.3854 701.847 88.7512 701.847 M88.7512 698.143 Q94.5613 698.143 97.6169 702.749 Q100.696 707.333 100.696 716.083 Q100.696 724.809 97.6169 729.416 Q94.5613 733.999 88.7512 733.999 Q82.941 733.999 79.8623 729.416 Q76.8068 724.809 76.8068 716.083 Q76.8068 707.333 79.8623 702.749 Q82.941 698.143 88.7512 698.143 Z" fill="#000000" fill-rule="evenodd" fill-opacity="1" /><path clip-path="url(#clip360)" d="M79.7929 559.434 L98.1493 559.434 L98.1493 563.369 L84.0753 563.369 L84.0753 571.841 Q85.0938 571.494 86.1123 571.332 Q87.1308 571.147 88.1493 571.147 Q93.9363 571.147 97.3159 574.318 Q100.696 577.489 100.696 582.906 Q100.696 588.485 97.2233 591.586 Q93.7511 594.665 87.4317 594.665 Q85.2558 594.665 82.9873 594.295 Q80.7419 593.924 78.3346 593.184 L78.3346 588.485 Q80.4179 589.619 82.6401 590.174 Q84.8623 590.73 87.3391 590.73 Q91.3437 590.73 93.6817 588.623 Q96.0196 586.517 96.0196 582.906 Q96.0196 579.295 93.6817 577.188 Q91.3437 575.082 87.3391 575.082 Q85.4641 575.082 83.5892 575.498 Q81.7373 575.915 79.7929 576.795 L79.7929 559.434 Z" fill="#000000" fill-rule="evenodd" fill-opacity="1" /><path clip-path="url(#clip360)" d="M49.3995 450.724 L57.0384 450.724 L57.0384 424.359 L48.7282 426.026 L48.7282 421.766 L56.9921 420.1 L61.668 420.1 L61.668 450.724 L69.3068 450.724 L69.3068 454.66 L49.3995 454.66 L49.3995 450.724 Z" fill="#000000" fill-rule="evenodd" fill-opacity="1" /><path clip-path="url(#clip360)" d="M88.7512 423.178 Q85.1401 423.178 83.3114 426.743 Q81.5058 430.285 81.5058 437.414 Q81.5058 444.521 83.3114 448.086 Q85.1401 451.627 88.7512 451.627 Q92.3854 451.627 94.1909 448.086 Q96.0196 444.521 96.0196 437.414 Q96.0196 430.285 94.1909 426.743 Q92.3854 423.178 88.7512 423.178 M88.7512 419.475 Q94.5613 419.475 97.6169 424.081 Q100.696 428.664 100.696 437.414 Q100.696 446.141 97.6169 450.748 Q94.5613 455.331 88.7512 455.331 Q82.941 455.331 79.8623 450.748 Q76.8068 446.141 76.8068 437.414 Q76.8068 428.664 79.8623 424.081 Q82.941 419.475 88.7512 419.475 Z" fill="#000000" fill-rule="evenodd" fill-opacity="1" /><path clip-path="url(#clip360)" d="M50.3949 311.39 L58.0337 311.39 L58.0337 285.025 L49.7236 286.691 L49.7236 282.432 L57.9874 280.766 L62.6633 280.766 L62.6633 311.39 L70.3022 311.39 L70.3022 315.326 L50.3949 315.326 L50.3949 311.39 Z" fill="#000000" fill-rule="evenodd" fill-opacity="1" /><path clip-path="url(#clip360)" d="M79.7929 280.766 L98.1493 280.766 L98.1493 284.701 L84.0753 284.701 L84.0753 293.173 Q85.0938 292.826 86.1123 292.664 Q87.1308 292.478 88.1493 292.478 Q93.9363 292.478 97.3159 295.65 Q100.696 298.821 100.696 304.238 Q100.696 309.816 97.2233 312.918 Q93.7511 315.997 87.4317 315.997 Q85.2558 315.997 82.9873 315.626 Q80.7419 315.256 78.3346 314.515 L78.3346 309.816 Q80.4179 310.951 82.6401 311.506 Q84.8623 312.062 87.3391 312.062 Q91.3437 312.062 93.6817 309.955 Q96.0196 307.849 96.0196 304.238 Q96.0196 300.627 93.6817 298.52 Q91.3437 296.414 87.3391 296.414 Q85.4641 296.414 83.5892 296.83 Q81.7373 297.247 79.7929 298.127 L79.7929 280.766 Z" fill="#000000" fill-rule="evenodd" fill-opacity="1" /><path clip-path="url(#clip360)" d="M52.6171 172.056 L68.9365 172.056 L68.9365 175.991 L46.9921 175.991 L46.9921 172.056 Q49.6541 169.302 54.2375 164.672 Q58.8439 160.019 60.0245 158.677 Q62.2698 156.154 63.1494 154.417 Q64.0522 152.658 64.0522 150.968 Q64.0522 148.214 62.1078 146.478 Q60.1865 144.742 57.0847 144.742 Q54.8856 144.742 52.4319 145.505 Q50.0014 146.269 47.2236 147.82 L47.2236 143.098 Q50.0477 141.964 52.5014 141.385 Q54.955 140.806 56.9921 140.806 Q62.3624 140.806 65.5568 143.492 Q68.7513 146.177 68.7513 150.667 Q68.7513 152.797 67.9411 154.718 Q67.1541 156.616 65.0476 159.209 Q64.4689 159.88 61.367 163.098 Q58.2652 166.292 52.6171 172.056 Z" fill="#000000" fill-rule="evenodd" fill-opacity="1" /><path clip-path="url(#clip360)" d="M88.7512 144.51 Q85.1401 144.51 83.3114 148.075 Q81.5058 151.617 81.5058 158.746 Q81.5058 165.853 83.3114 169.417 Q85.1401 172.959 88.7512 172.959 Q92.3854 172.959 94.1909 169.417 Q96.0196 165.853 96.0196 158.746 Q96.0196 151.617 94.1909 148.075 Q92.3854 144.51 88.7512 144.51 M88.7512 140.806 Q94.5613 140.806 97.6169 145.413 Q100.696 149.996 100.696 158.746 Q100.696 167.473 97.6169 172.079 Q94.5613 176.663 88.7512 176.663 Q82.941 176.663 79.8623 172.079 Q76.8068 167.473 76.8068 158.746 Q76.8068 149.996 79.8623 145.413 Q82.941 140.806 88.7512 140.806 Z" fill="#000000" fill-rule="evenodd" fill-opacity="1" /><polyline clip-path="url(#clip362)" style="stroke:#009af9; stroke-linecap:round; stroke-linejoin:round; stroke-width:2; stroke-opacity:1; fill:none" points="233.716,349.265 234.391,406.19 235.066,335.709 235.741,363.449 236.416,346.938 237.091,379.309 237.766,352.409 238.441,378.242 239.116,380.235 239.79,414.786 240.465,344.49 241.14,348.706 241.815,322.807 242.49,379.217 243.165,343.354 243.84,330.733 244.515,350.823 245.19,351.244 245.865,355.528 246.54,367.082 247.215,370.317 247.89,340.639 248.565,349.569 249.239,337.962 249.914,320.736 250.589,327.259 251.264,375.806 251.939,361.041 252.614,336.986 253.289,362.362 253.964,341.802 254.639,335.453 255.314,374.031 255.989,302.289 256.664,365.485 257.339,368.685 258.013,378.286 258.688,308.958 259.363,367.447 260.038,361.169 260.713,375.507 261.388,317.836 262.063,418.752 262.738,473 263.413,463.807 264.088,435.078 264.763,503.942 265.438,538.786 266.113,543.628 266.788,555.237 267.462,516.898 268.137,523.862 268.812,539.8 269.487,458.522 270.162,550.282 270.837,558.005 271.512,528.471 272.187,520.138 272.862,448.357 273.537,440.987 274.212,430.026 274.887,466.767 275.562,385.119 276.237,352.421 276.911,351.277 277.586,352.729 278.261,344.269 278.936,315.53 279.611,349.926 280.286,339.213 280.961,337.359 281.636,336.11 282.311,352.306 282.986,352.988 283.661,377.581 284.336,330.253 285.011,435.468 285.686,383.315 286.36,385.958 287.035,400.374 287.71,464.59 288.385,469.627 289.06,393.624 289.735,390.758 290.41,347.692 291.085,361.414 291.76,345.108 292.435,369.541 293.11,341.075 293.785,366.218 294.46,376.714 295.134,356.014 295.809,437.405 296.484,404.23 297.159,335.399 297.834,383.112 298.509,384.467 299.184,397.672 299.859,431.203 300.534,346.899 301.209,405.744 301.884,393.172 302.559,411.741 303.234,343.809 303.909,419.697 304.583,468.823 305.258,481.05 305.933,459.145 306.608,449.86 307.283,412.159 307.958,422.949 308.633,406.292 309.308,435.524 309.983,407.128 310.658,386.093 311.333,327.395 312.008,375.885 312.683,320.667 313.358,382.901 314.032,321.576 314.707,369.257 315.382,325.736 316.057,339.142 316.732,356.158 317.407,346.139 318.082,340.058 318.757,357.249 319.432,368.964 320.107,372.713 320.782,317.576 321.457,374.736 322.132,347.925 322.807,379.578 323.481,338.163 324.156,334.361 324.831,343.461 325.506,325.661 326.181,348.006 326.856,336.576 327.531,353.382 328.206,380.432 328.881,303.75 329.556,348.297 330.231,333.059 330.906,378.152 331.581,385.059 332.255,407.856 332.93,407.517 333.605,538.439 334.28,508.703 334.955,462.167 335.63,409.213 336.305,447.49 336.98,408.887 337.655,411.705 338.33,397.005 339.005,325.941 339.68,371.477 340.355,377.149 341.03,361.196 341.704,337.273 342.379,346.46 343.054,322.621 343.729,344.978 344.404,311.596 345.079,346.543 345.754,362.745 346.429,355.696 347.104,344.647 347.779,351.183 348.454,356.151 349.129,326.611 349.804,338.528 350.479,368.883 351.153,338.652 351.828,368.728 352.503,331.22 353.178,354.815 353.853,352.787 354.528,336.447 355.203,361.2 355.878,347.401 356.553,359.995 357.228,345.908 357.903,343.847 358.578,352.307 359.253,354.081 359.928,354.493 360.602,351.747 361.277,356.926 361.952,351.255 362.627,356.979 363.302,350.99 363.977,354.743 364.652,351.42 365.327,344.171 366.002,349.521 366.677,357.914 367.352,348.451 368.027,316.092 368.702,368.527 369.376,329.724 370.051,350.147 370.726,356.205 371.401,350.571 372.076,355.858 372.751,344.8 373.426,350.9 374.101,357.852 374.776,346.989 375.451,408.39 376.126,414.547 376.801,388.562 377.476,428.728 378.151,402.64 378.825,406.367 379.5,364.521 380.175,486.408 380.85,481.353 381.525,443.841 382.2,436.302 382.875,447.086 383.55,392.962 384.225,396.413 384.9,417.34 385.575,477.169 386.25,488.711 386.925,511.865 387.6,530.256 388.274,497.505 388.949,497.529 389.624,447.671 390.299,459.575 390.974,421.821 391.649,410.832 392.324,336.848 392.999,381.643 393.674,311.158 394.349,367.271 395.024,373.899 395.699,308.771 396.374,397.443 397.048,370.131 397.723,335.231 398.398,366.905 399.073,342.317 399.748,351.673 400.423,358.182 401.098,338.052 401.773,371.662 402.448,337.748 403.123,338.527 403.798,360.92 404.473,326.708 405.148,345.145 405.823,370.276 406.497,343.29 407.172,329.316 407.847,364.789 408.522,332.472 409.197,338.538 409.872,346.819 410.547,348.418 411.222,336.691 411.897,335.719 412.572,356.746 413.247,323.174 413.922,390.186 414.597,327.717 415.272,346.774 415.946,364.841 416.621,341.229 417.296,362.337 417.971,363.569 418.646,348.086 419.321,377.854 419.996,403.234 420.671,486.326 421.346,488.212 422.021,500.921 422.696,559.873 423.371,524.002 424.046,470.867 424.721,525.045 425.395,503.982 426.07,504.826 426.745,564.018 427.42,528.912 428.095,501.259 428.77,558.24 429.445,492.733 430.12,527.61 430.795,508.863 431.47,523.256 432.145,350.706 432.82,346.904 433.495,334.689 434.169,342.36 434.844,336.147 435.519,364.724 436.194,359.866 436.869,351.703 437.544,347.172 438.219,345.792 438.894,351.38 439.569,347.402 440.244,344.333 440.919,378.213 441.594,375.962 442.269,330.184 442.944,352.962 443.618,366.687 444.293,411.135 444.968,455.351 445.643,446.914 446.318,540.512 446.993,574.721 447.668,566.359 448.343,536.833 449.018,499.354 449.693,491.048 450.368,465.966 451.043,430.178 451.718,432.095 452.393,480.978 453.067,514.289 453.742,553.75 454.417,534.993 455.092,515.416 455.767,524.113 456.442,481.165 457.117,429.602 457.792,469.565 458.467,449.434 459.142,467.099 459.817,445.013 460.492,345.243 461.167,356.713 461.842,358.05 462.516,383.776 463.191,325.209 463.866,383.477 464.541,385.566 465.216,442.301 465.891,440.788 466.566,417.233 467.241,420.415 467.916,383.536 468.591,389.942 469.266,390.377 469.941,356.352 470.616,350.126 471.29,343.213 471.965,380.442 472.64,312.571 473.315,383.82 473.99,433.071 474.665,412.13 475.34,373.786 476.015,362.323 476.69,338.785 477.365,360.909 478.04,332.152 478.715,350.654 479.39,375.732 480.065,325.077 480.739,366.316 481.414,351.643 482.089,348.855 482.764,368.047 483.439,334.354 484.114,369.797 484.789,343.123 485.464,359.809 486.139,334.543 486.814,371.938 487.489,326.764 488.164,361.25 488.839,333.611 489.514,373.962 490.188,328.275 490.863,365.751 491.538,329.278 492.213,380.764 492.888,327.848 493.563,375.074 494.238,336.82 494.913,371.792 495.588,334.544 496.263,329.476 496.938,360.61 497.613,344.085 498.288,360.645 498.962,381.951 499.637,330.299 500.312,370.57 500.987,334.878 501.662,352.404 502.337,353.452 503.012,354.597 503.687,355.65 504.362,355.628 505.037,348.371 505.712,356.91 506.387,357.659 507.062,351.92 507.737,357.902 508.411,352.541 509.086,358.278 509.761,351.23 510.436,354.776 511.111,349.489 511.786,359.1 512.461,346.962 513.136,357.762 513.811,345.2 514.486,363.569 515.161,346.822 515.836,360.592 516.511,344.474 517.186,366.698 517.86,335.907 518.535,357.39 519.21,342.548 519.885,363.061 520.56,348.453 521.235,359.916 521.91,347.248 522.585,357.59 523.26,350.539 523.935,358.534 524.61,345.885 525.285,361.239 525.96,343.998 526.635,367.52 527.309,327.05 527.984,373.607 528.659,335.387 529.334,364.629 530.009,339.565 530.684,364.772 531.359,341.934 532.034,342.462 532.709,338.36 533.384,372.773 534.059,336.853 534.734,355.932 535.409,349.534 536.083,357.529 536.758,354.398 537.433,349.656 538.108,351.767 538.783,353.582 539.458,357.548 540.133,349.35 540.808,341.133 541.483,347.449 542.158,341.051 542.833,352.148 543.508,315.259 544.183,372.388 544.858,333.098 545.532,334.45 546.207,343.925 546.882,357.449 547.557,360.547 548.232,369.811 548.907,387.616 549.582,343.624 550.257,338.098 550.932,342.553 551.607,343.326 552.282,328.855 552.957,337.069 553.632,332.378 554.307,396.874 554.981,305.209 555.656,385.388 556.331,363.234 557.006,348.983 557.681,354.501 558.356,337.02 559.031,343.782 559.706,364.003 560.381,335.9 561.056,343.109 561.731,330.365 562.406,350.757 563.081,369.015 563.756,392.547 564.43,471.526 565.105,477.184 565.78,448.965 566.455,405.892 567.13,370.646 567.805,380.946 568.48,405.969 569.155,426.398 569.83,391.985 570.505,418.295 571.18,392.592 571.855,391.519 572.53,506.761 573.204,461.571 573.879,353.932 574.554,333.864 575.229,350.709 575.904,346.782 576.579,343.277 577.254,372.563 577.929,361.661 578.604,314.081 579.279,317.369 579.954,361.084 580.629,392.667 581.304,489.764 581.979,460.65 582.653,434.315 583.328,439.595 584.003,378.289 584.678,343.532 585.353,365.757 586.028,360.911 586.703,375.852 587.378,318.74 588.053,342.941 588.728,357.142 589.403,332.971 590.078,354.375 590.753,331.788 591.428,361.235 592.102,361.98 592.777,330.258 593.452,380.887 594.127,387.68 594.802,496.472 595.477,413.689 596.152,515.839 596.827,577.127 597.502,570.173 598.177,523.894 598.852,518.607 599.527,489.512 600.202,458.949 600.877,466.133 601.551,399.619 602.226,335.052 602.901,334.783 603.576,362.019 604.251,336.15 604.926,379.424 605.601,321.359 606.276,349.901 606.951,345.555 607.626,356.431 608.301,370.49 608.976,351.663 609.651,336.339 610.325,384.321 611,389.936 611.675,327.679 612.35,373.585 613.025,319.416 613.7,375.429 614.375,353.309 615.05,371.904 615.725,350.805 616.4,325.056 617.075,326.672 617.75,345.24 618.425,335.462 619.1,332.579 619.774,313.447 620.449,346.871 621.124,317.856 621.799,368.631 622.474,337.51 623.149,324.902 623.824,370.624 624.499,319.409 625.174,340.18 625.849,337.857 626.524,367.335 627.199,333.73 627.874,352.71 628.549,337.453 629.223,323.078 629.898,311.35 630.573,403.048 631.248,351.27 631.923,356.446 632.598,353.432 633.273,359.018 633.948,344.837 634.623,323.94 635.298,358.483 635.973,364.253 636.648,436.429 637.323,414.881 637.997,400.427 638.672,385.16 639.347,399.074 640.022,431.706 640.697,494.791 641.372,484.646 642.047,427.632 642.722,434.383 643.397,400.219 644.072,344.314 644.747,341.379 645.422,383.66 646.097,433.347 646.772,370.562 647.446,444.282 648.121,426.086 648.796,404.294 649.471,393.434 650.146,420.595 650.821,422.6 651.496,422.409 652.171,432.242 652.846,431.21 653.521,445.374 654.196,476.424 654.871,463.478 655.546,395.016 656.221,423.712 656.895,347.254 657.57,376.564 658.245,364.949 658.92,407.407 659.595,389.531 660.27,416.437 660.945,400.016 661.62,448.461 662.295,498.081 662.97,456.899 663.645,429.536 664.32,440.468 664.995,505.226 665.67,449.675 666.344,494.309 667.019,489.487 667.694,454.138 668.369,397.379 669.044,446.271 669.719,505.317 670.394,442.801 671.069,464.573 671.744,392.299 672.419,410.62 673.094,513.848 673.769,552.314 674.444,528.493 675.118,441.117 675.793,542.338 676.468,491.55 677.143,505.027 677.818,459.441 678.493,405.865 679.168,372.811 679.843,432.376 680.518,391.408 681.193,308.589 681.868,334.6 682.543,382.873 683.218,400.987 683.893,389.358 684.567,303.429 685.242,382.573 685.917,341.926 686.592,324.895 687.267,357.583 687.942,352.499 688.617,371.395 689.292,359.14 689.967,368.638 690.642,303.848 691.317,309.832 691.992,329.457 692.667,334.121 693.342,365.38 694.016,361.456 694.691,408.558 695.366,401.154 696.041,382.863 696.716,313.799 697.391,338.902 698.066,365.385 698.741,380.687 699.416,372.04 700.091,315.543 700.766,329.802 701.441,346.575 702.116,385.433 702.791,370.536 703.465,359.684 704.14,342.875 704.815,331.498 705.49,390.958 706.165,330.013 706.84,362.953 707.515,367.322 708.19,367.07 708.865,331.675 709.54,330.992 710.215,352.847 710.89,331.856 711.565,389.211 712.239,365.271 712.914,302.791 713.589,350.274 714.264,328.538 714.939,328.931 715.614,365.584 716.289,343.639 716.964,375.281 717.639,390.625 718.314,405.754 718.989,440.779 719.664,473.619 720.339,454.97 721.014,417.163 721.688,372.641 722.363,352.334 723.038,358.868 723.713,363.042 724.388,342.565 725.063,338.668 725.738,355.804 726.413,358.862 727.088,366.465 727.763,353.775 728.438,353.984 729.113,347.453 729.788,428.392 730.463,437.544 731.137,370.886 731.812,356.276 732.487,367.439 733.162,379.086 733.837,442.293 734.512,376.43 735.187,417.55 735.862,351.671 736.537,404.55 737.212,400.185 737.887,356.061 738.562,354.387 739.237,348.163 739.912,365.763 740.586,354.037 741.261,356.567 741.936,360.128 742.611,347.61 743.286,379.347 743.961,353.075 744.636,344.753 745.311,346.887 745.986,357.074 746.661,361.899 747.336,349.561 748.011,367.863 748.686,338.783 749.36,376.096 750.035,417.275 750.71,387.785 751.385,414.164 752.06,416.51 752.735,353.509 753.41,363.267 754.085,333.332 754.76,389.755 755.435,366.671 756.11,345.224 756.785,344.042 757.46,367.91 758.135,344.949 758.809,376.181 759.484,349.084 760.159,360.097 760.834,363.197 761.509,351.56 762.184,341.981 762.859,352.343 763.534,360.532 764.209,346.918 764.884,352.754 765.559,361.211 766.234,366.408 766.909,350.385 767.584,398.483 768.258,386.479 768.933,348.404 769.608,374.09 770.283,343.242 770.958,341.754 771.633,346.655 772.308,380.394 772.983,399.543 773.658,403.633 774.333,366.343 775.008,453.501 775.683,417.919 776.358,493.662 777.032,492.004 777.707,464.37 778.382,443.839 779.057,489.821 779.732,453.297 780.407,394.227 781.082,429.96 781.757,511.006 782.432,453.601 783.107,429.028 783.782,417.962 784.457,455.295 785.132,424.298 785.807,464.434 786.481,461.312 787.156,481.908 787.831,444.948 788.506,438.391 789.181,425.367 789.856,475.619 790.531,417.069 791.206,419.889 791.881,364.589 792.556,372.814 793.231,325.143 793.906,415.752 794.581,437.791 795.256,436.68 795.93,436.154 796.605,410.423 797.28,478.524 797.955,511.777 798.63,478.598 799.305,435.848 799.98,408.37 800.655,338.88 801.33,352.393 802.005,389.701 802.68,339.975 803.355,429.714 804.03,340.99 804.705,343.107 805.379,332.262 806.054,401.396 806.729,403.529 807.404,359.302 808.079,350.919 808.754,356.615 809.429,310.143 810.104,375.421 810.779,319.139 811.454,337.413 812.129,379.91 812.804,380.571 813.479,313.391 814.153,336.002 814.828,375.509 815.503,342.46 816.178,380.831 816.853,354.093 817.528,369.013 818.203,356.382 818.878,316.684 819.553,405.595 820.228,320.512 820.903,337.529 821.578,308.468 822.253,349.973 822.928,358.223 823.602,395.572 824.277,329.418 824.952,349.377 825.627,401.186 826.302,349.836 826.977,378.096 827.652,398.588 828.327,394.098 829.002,423.658 829.677,448.296 830.352,366.459 831.027,406.969 831.702,408.297 832.377,441.994 833.051,408.248 833.726,320.404 834.401,378.097 835.076,412.325 835.751,414.992 836.426,351.024 837.101,421.36 837.776,376.379 838.451,402.068 839.126,443.811 839.801,402.774 840.476,368.655 841.151,350.092 841.826,326.301 842.5,298.784 843.175,346.521 843.85,318.298 844.525,359.194 845.2,346.183 845.875,342.559 846.55,333.873 847.225,322.954 847.9,317.271 848.575,325.132 849.25,318.006 849.925,313.756 850.6,310.315 851.274,318.151 851.949,350.965 852.624,355.227 853.299,314.05 853.974,335.086 854.649,294.598 855.324,315.032 855.999,332.887 856.674,358.291 857.349,361.668 858.024,324.499 858.699,322.965 859.374,342.375 860.049,326.464 860.723,347.179 861.398,327.425 862.073,398.552 862.748,339.207 863.423,358.948 864.098,330.843 864.773,315.258 865.448,351.307 866.123,354.011 866.798,318.894 867.473,342.833 868.148,383.887 868.823,447.591 869.498,482.922 870.172,490.525 870.847,486.65 871.522,485.126 872.197,496.471 872.872,522.453 873.547,560.644 874.222,520.105 874.897,537.208 875.572,575.832 876.247,510.461 876.922,470.788 877.597,473.519 878.272,432.785 878.946,427.555 879.621,403.047 880.296,445.242 880.971,465.755 881.646,427.313 882.321,412.37 882.996,469.962 883.671,449.575 884.346,436.518 885.021,390.215 885.696,437.372 886.371,366.739 887.046,345.053 887.721,354.921 888.395,374.086 889.07,326.276 889.745,324.303 890.42,401.854 891.095,399.491 891.77,405.583 892.445,377.031 893.12,351.192 893.795,321.863 894.47,347.455 895.145,353.729 895.82,381.931 896.495,317.448 897.17,377.044 897.844,309.29 898.519,355.872 899.194,331.519 899.869,350.865 900.544,304.775 901.219,407.412 901.894,324.233 902.569,338.55 903.244,335.145 903.919,353.973 904.594,332.345 905.269,335.204 905.944,319.959 906.619,340.883 907.293,305.436 907.968,381.034 908.643,382.481 909.318,364.031 909.993,377.99 910.668,332.841 911.343,352.073 912.018,313.109 912.693,354.885 913.368,317.924 914.043,383.852 914.718,371.755 915.393,404.644 916.067,372.788 916.742,434.692 917.417,440.021 918.092,374.999 918.767,331.437 919.442,378.22 920.117,410.614 920.792,439.331 921.467,365.079 922.142,375.684 922.817,329.335 923.492,364.357 924.167,344.517 924.842,378.233 925.516,341.173 926.191,370.266 926.866,407.865 927.541,405.825 928.216,396.338 928.891,453.719 929.566,379.02 930.241,340.318 930.916,354.009 931.591,353.778 932.266,357.757 932.941,393.724 933.616,378.865 934.291,334.588 934.965,372.519 935.64,336.779 936.315,371.482 936.99,327.931 937.665,339.698 938.34,343.436 939.015,355.294 939.69,352.396 940.365,358.409 941.04,351.9 941.715,331.066 942.39,374.966 943.065,359.222 943.74,349.398 944.414,321.924 945.089,345.181 945.764,331.801 946.439,365.276 947.114,369.882 947.789,353.575 948.464,343.946 949.139,365.369 949.814,316.408 950.489,384.009 951.164,360.036 951.839,312.216 952.514,402.381 953.188,352.41 953.863,391.433 954.538,335.985 955.213,347.804 955.888,316.818 956.563,334.991 957.238,349.808 957.913,376.457 958.588,353.955 959.263,316.571 959.938,354.641 960.613,355.94 961.288,370.75 961.963,328.441 962.637,339.552 963.312,348.989 963.987,355.895 964.662,321.771 965.337,361.432 966.012,316.513 966.687,331.504 967.362,327.081 968.037,373.676 968.712,355.911 969.387,408.292 970.062,484.437 970.737,320.124 971.412,313.595 972.086,350.814 972.761,324.265 973.436,352.448 974.111,325.973 974.786,328.021 975.461,359.21 976.136,317.585 976.811,368.853 977.486,356.771 978.161,353.791 978.836,335.046 979.511,360.6 980.186,399.904 980.861,412.122 981.535,404.607 982.21,435.972 982.885,416.643 983.56,438.997 984.235,458.397 984.91,481.65 985.585,533.329 986.26,526.568 986.935,575.588 987.61,553.084 988.285,552.673 988.96,543.287 989.635,471.44 990.309,413.262 990.984,397.505 991.659,359.532 992.334,338.842 993.009,324.484 993.684,346.216 994.359,312.312 995.034,356.86 995.709,347.297 996.384,330.561 997.059,331.986 997.734,385.361 998.409,344.736 999.084,334.889 999.758,371.446 1000.43,362.341 1001.11,346.592 1001.78,313.353 1002.46,369.822 1003.13,349.652 1003.81,354.461 1004.48,411.911 1005.16,360.628 1005.83,346.159 1006.51,377.686 1007.18,337.806 1007.86,348.721 1008.53,379.723 1009.21,335.571 1009.88,314.786 1010.56,320.474 1011.23,342.864 1011.91,312.662 1012.58,365.502 1013.26,357.145 1013.93,333.172 1014.61,362.892 1015.28,361.779 1015.96,336.768 1016.63,344.435 1017.31,338.149 1017.98,359.256 1018.66,353.422 1019.33,426.095 1020.01,412.982 1020.68,368.454 1021.36,325.454 1022.03,359.229 1022.71,334.218 1023.38,357.657 1024.06,333.394 1024.73,357.805 1025.41,338.296 1026.08,375.035 1026.76,339.02 1027.43,397.891 1028.11,330.254 1028.78,355.534 1029.46,361.71 1030.13,348.64 1030.81,361.386 1031.48,308.903 1032.15,360.687 1032.83,350.484 1033.5,354.951 1034.18,331.55 1034.85,341.166 1035.53,348.468 1036.2,359.913 1036.88,313.696 1037.55,313.406 1038.23,338.566 1038.9,312.24 1039.58,335.403 1040.25,340.253 1040.93,330.112 1041.6,349.443 1042.28,298.889 1042.95,359.108 1043.63,403.685 1044.3,390.45 1044.98,388.805 1045.65,416.607 1046.33,347.825 1047,324.537 1047.68,346.039 1048.35,359.973 1049.03,392.531 1049.7,413.69 1050.38,404.318 1051.05,425.578 1051.73,421.179 1052.4,382.619 1053.08,391.811 1053.75,408.596 1054.43,421.298 1055.1,422.367 1055.78,363.236 1056.45,302.861 1057.13,355.466 1057.8,358.955 1058.48,334.52 1059.15,329.519 1059.83,332.353 1060.5,401.363 1061.18,307.727 1061.85,340.625 1062.53,311.741 1063.2,379.552 1063.88,326.006 1064.55,338.558 1065.23,343.54 1065.9,334.687 1066.58,356.373 1067.25,309.769 1067.93,338.104 1068.6,308.601 1069.28,329.493 1069.95,332.089 1070.63,330.6 1071.3,332.381 1071.98,337.719 1072.65,349.814 1073.33,361.452 1074,386.489 1074.68,361.012 1075.35,348.309 1076.03,347.437 1076.7,370.883 1077.38,331.534 1078.05,333.133 1078.72,315.428 1079.4,365.013 1080.07,352.127 1080.75,318.781 1081.42,323.945 1082.1,371.641 1082.77,337.2 1083.45,351.936 1084.12,332.743 1084.8,388.975 1085.47,333.679 1086.15,395.475 1086.82,425.76 1087.5,440.513 1088.17,444.123 1088.85,471.647 1089.52,501.559 1090.2,459.732 1090.87,416.818 1091.55,455.432 1092.22,429.974 1092.9,348.101 1093.57,356.08 1094.25,375.002 1094.92,307.743 1095.6,381.232 1096.27,325.28 1096.95,337.326 1097.62,311.969 1098.3,365.796 1098.97,373.621 1099.65,337.89 1100.32,312.755 1101,364.331 1101.67,341.491 1102.35,406.815 1103.02,363.208 1103.7,423.715 1104.37,435.406 1105.05,388.908 1105.72,363.373 1106.4,403.208 1107.07,400.146 1107.75,358.917 1108.42,392.699 1109.1,348.591 1109.77,454.551 1110.45,493.536 1111.12,496.129 1111.8,451.065 1112.47,541.578 1113.15,539.105 1113.82,569.689 1114.5,540.898 1115.17,483.567 1115.85,466.752 1116.52,507.01 1117.2,479.779 1117.87,530.562 1118.55,473.324 1119.22,436.364 1119.9,465.023 1120.57,512.56 1121.25,492.111 1121.92,543.241 1122.6,577.895 1123.27,564.656 1123.95,572.681 1124.62,534.815 1125.29,571.844 1125.97,551.485 1126.64,547.52 1127.32,503.436 1127.99,443.425 1128.67,509.359 1129.34,422.376 1130.02,345.646 1130.69,353.579 1131.37,347.562 1132.04,351.56 1132.72,363.019 1133.39,386.604 1134.07,388.017 1134.74,348.235 1135.42,334.839 1136.09,376.235 1136.77,334.876 1137.44,380.015 1138.12,340.371 1138.79,369.604 1139.47,339.474 1140.14,364.17 1140.82,384.598 1141.49,355.849 1142.17,346.635 1142.84,349.673 1143.52,348.401 1144.19,385.797 1144.87,314.141 1145.54,328.38 1146.22,350.861 1146.89,336.603 1147.57,322.034 1148.24,346.039 1148.92,311.125 1149.59,344.77 1150.27,324.76 1150.94,358.097 1151.62,335.386 1152.29,354.006 1152.97,328.601 1153.64,313.713 1154.32,352.721 1154.99,323.879 1155.67,353.199 1156.34,352.141 1157.02,359.909 1157.69,338.48 1158.37,336.833 1159.04,334.915 1159.72,338.365 1160.39,355.767 1161.07,351.504 1161.74,379.381 1162.42,379.715 1163.09,434.771 1163.77,388.277 1164.44,421.766 1165.12,430.771 1165.79,407.766 1166.47,376.975 1167.14,410.381 1167.82,384.61 1168.49,308.782 1169.17,484.855 1169.84,476.811 1170.52,498.084 1171.19,495.441 1171.86,500.395 1172.54,505.786 1173.21,452.435 1173.89,514.156 1174.56,463.2 1175.24,429.632 1175.91,386.468 1176.59,420.343 1177.26,330.605 1177.94,406.539 1178.61,433.123 1179.29,371.654 1179.96,341.486 1180.64,371.902 1181.31,357.28 1181.99,413.539 1182.66,369.19 1183.34,333.45 1184.01,365.389 1184.69,370.855 1185.36,343.746 1186.04,370.865 1186.71,375.716 1187.39,314.307 1188.06,358.536 1188.74,328.773 1189.41,321.422 1190.09,358.954 1190.76,334.918 1191.44,336.68 1192.11,366.811 1192.79,351.018 1193.46,349.687 1194.14,311.353 1194.81,353.703 1195.49,356.362 1196.16,317.755 1196.84,363.689 1197.51,458.727 1198.19,441.132 1198.86,413.528 1199.54,349.382 1200.21,351.402 1200.89,364.522 1201.56,323.138 1202.24,373.691 1202.91,331.402 1203.59,346.392 1204.26,344.598 1204.94,361.952 1205.61,342.937 1206.29,361.073 1206.96,322.199 1207.64,329.955 1208.31,378.511 1208.99,308.612 1209.66,365.895 1210.34,342.823 1211.01,364.742 1211.69,341.525 1212.36,338.788 1213.04,365.827 1213.71,322.928 1214.39,380.498 1215.06,329.16 1215.74,369.564 1216.41,340.013 1217.09,365.907 1217.76,418.74 1218.43,413.271 1219.11,397.12 1219.78,392.631 1220.46,344.195 1221.13,324.312 1221.81,404.448 1222.48,416.601 1223.16,488.199 1223.83,457.927 1224.51,436.441 1225.18,438.944 1225.86,361.116 1226.53,357.375 1227.21,329.837 1227.88,346.804 1228.56,355.831 1229.23,323.372 1229.91,361.674 1230.58,391.39 1231.26,434.959 1231.93,478.138 1232.61,444.723 1233.28,401.11 1233.96,510.741 1234.63,435.268 1235.31,475.295 1235.98,427.407 1236.66,417.811 1237.33,484.637 1238.01,412.427 1238.68,441.098 1239.36,425.086 1240.03,425.769 1240.71,452.405 1241.38,335.472 1242.06,349.623 1242.73,372.248 1243.41,330.011 1244.08,321.744 1244.76,338.138 1245.43,350.865 1246.11,354.289 1246.78,314.887 1247.46,337.941 1248.13,367.278 1248.81,310.468 1249.48,400.281 1250.16,400.185 1250.83,366.429 1251.51,304.495 1252.18,422.867 1252.86,376.763 1253.53,333.484 1254.21,308.139 1254.88,361.08 1255.56,310.996 1256.23,352.857 1256.91,388.678 1257.58,342.03 1258.26,337.955 1258.93,377.341 1259.61,354.856 1260.28,332.69 1260.96,357.618 1261.63,345.592 1262.31,338.262 1262.98,374.398 1263.65,330.985 1264.33,316.506 1265,318.011 1265.68,346.621 1266.35,361.29 1267.03,378.057 1267.7,382.355 1268.38,371.163 1269.05,377.874 1269.73,315.293 1270.4,338.208 1271.08,369.748 1271.75,445.103 1272.43,465.589 1273.1,495.681 1273.78,498.578 1274.45,561.718 1275.13,556.917 1275.8,492.968 1276.48,470.748 1277.15,495.494 1277.83,499.972 1278.5,501.805 1279.18,530.338 1279.85,475.075 1280.53,490.231 1281.2,527.751 1281.88,503.503 1282.55,399.024 1283.23,378.958 1283.9,349.933 1284.58,433.224 1285.25,494.658 1285.93,520.529 1286.6,471.518 1287.28,459.252 1287.95,519.707 1288.63,511.171 1289.3,444 1289.98,468.094 1290.65,493.38 1291.33,562.384 1292,520.12 1292.68,502.21 1293.35,490.942 1294.03,499.294 1294.7,474.197 1295.38,453.992 1296.05,436.831 1296.73,499.211 1297.4,571.274 1298.08,490.922 1298.75,432.633 1299.43,435.831 1300.1,417.315 1300.78,373.056 1301.45,323.118 1302.13,379.168 1302.8,395.421 1303.48,408.144 1304.15,359.273 1304.83,385.03 1305.5,337.833 1306.18,378.918 1306.85,327.269 1307.53,367.201 1308.2,349.551 1308.88,325.636 1309.55,342.43 1310.22,366.401 1310.9,411.526 1311.57,363.262 1312.25,361.458 1312.92,349.793 1313.6,368.262 1314.27,371.209 1314.95,348.154 1315.62,345.105 1316.3,347.013 1316.97,381.621 1317.65,419.364 1318.32,417.824 1319,503.138 1319.67,515.825 1320.35,487.255 1321.02,457.668 1321.7,420.296 1322.37,384.625 1323.05,394.965 1323.72,374.064 1324.4,375.625 1325.07,316.437 1325.75,371.288 1326.42,310.224 1327.1,358.669 1327.77,340.878 1328.45,355.524 1329.12,342.608 1329.8,361.194 1330.47,353.23 1331.15,341.529 1331.82,386.542 1332.5,365.247 1333.17,338.45 1333.85,360.713 1334.52,332.517 1335.2,361.567 1335.87,343.511 1336.55,382.018 1337.22,353.789 1337.9,372.817 1338.57,389.954 1339.25,387.95 1339.92,328.707 1340.6,355.455 1341.27,375.835 1341.95,354.086 1342.62,376.55 1343.3,335.791 1343.97,397.068 1344.65,395.097 1345.32,414.588 1346,424.866 1346.67,358.161 1347.35,434.362 1348.02,329.981 1348.7,362.867 1349.37,342.118 1350.05,364.94 1350.72,354.208 1351.4,380.603 1352.07,400.86 1352.75,406.935 1353.42,500.51 1354.1,462.3 1354.77,439.759 1355.45,442.98 1356.12,420.467 1356.79,480.657 1357.47,526.943 1358.14,567.39 1358.82,492.131 1359.49,465.562 1360.17,463.921 1360.84,369.035 1361.52,336.245 1362.19,360.666 1362.87,353.173 1363.54,353.869 1364.22,326.962 1364.89,394.947 1365.57,456.695 1366.24,374.437 1366.92,332.231 1367.59,364.198 1368.27,327.62 1368.94,318.717 1369.62,341.62 1370.29,345.114 1370.97,324.163 1371.64,334.862 1372.32,342.483 1372.99,326.608 1373.67,380.786 1374.34,337.727 1375.02,330.433 1375.69,343.162 1376.37,344.605 1377.04,339.11 1377.72,392.184 1378.39,373.492 1379.07,296.847 1379.74,342.555 1380.42,333.773 1381.09,396.744 1381.77,331.74 1382.44,322.354 1383.12,361.585 1383.79,384.863 1384.47,350.603 1385.14,411.555 1385.82,360.064 1386.49,325.592 1387.17,345.842 1387.84,401.853 1388.52,406.68 1389.19,484.537 1389.87,510.087 1390.54,539.031 1391.22,438.092 1391.89,408.613 1392.57,391.953 1393.24,339.987 1393.92,367.246 1394.59,327.636 1395.27,402.033 1395.94,330.495 1396.62,350.238 1397.29,419.51 1397.97,375.849 1398.64,337.979 1399.32,407.808 1399.99,349.469 1400.67,365.819 1401.34,333.335 1402.02,363.901 1402.69,385.896 1403.36,368.714 1404.04,349.568 1404.71,350.397 1405.39,363.405 1406.06,324.221 1406.74,332.489 1407.41,373.233 1408.09,390.52 1408.76,304.161 1409.44,360.211 1410.11,343.071 1410.79,310.268 1411.46,375.372 1412.14,325.679 1412.81,368.83 1413.49,330.504 1414.16,307.287 1414.84,403.886 1415.51,376.737 1416.19,344.541 1416.86,346.594 1417.54,334.647 1418.21,378.607 1418.89,418.41 1419.56,387.595 1420.24,397.732 1420.91,381.369 1421.59,434.593 1422.26,507.342 1422.94,485.582 1423.61,457.206 1424.29,366.9 1424.96,343.282 1425.64,345.064 1426.31,350.418 1426.99,402.176 1427.66,387.942 1428.34,393.23 1429.01,424.505 1429.69,450.568 1430.36,386.388 1431.04,378.96 1431.71,390.377 1432.39,373.06 1433.06,379.036 1433.74,398.256 1434.41,319.525 1435.09,380.395 1435.76,362.979 1436.44,366.962 1437.11,347.759 1437.79,375.689 1438.46,381.39 1439.14,372.225 1439.81,325.293 1440.49,385.908 1441.16,319.552 1441.84,368.265 1442.51,358.205 1443.19,351.589 1443.86,336.9 1444.54,352.911 1445.21,393.552 1445.89,411.106 1446.56,369.52 1447.24,333.507 1447.91,384.943 1448.59,329.724 1449.26,355.332 1449.93,351.789 1450.61,347.063 1451.28,337.029 1451.96,368.891 1452.63,364.216 1453.31,334.135 1453.98,351.345 1454.66,394.189 1455.33,361.973 1456.01,407.919 1456.68,446.924 1457.36,360.722 1458.03,305.331 1458.71,358.201 1459.38,351.667 1460.06,316.54 1460.73,330.281 1461.41,320.38 1462.08,333.886 1462.76,363.794 1463.43,314.754 1464.11,338.661 1464.78,334.474 1465.46,368.637 1466.13,345.442 1466.81,338.958 1467.48,376.9 1468.16,337.342 1468.83,334.065 1469.51,313.409 1470.18,341.209 1470.86,341.498 1471.53,367.968 1472.21,337.897 1472.88,360.272 1473.56,319.408 1474.23,359.73 1474.91,343.976 1475.58,323.46 1476.26,351.506 1476.93,378.073 1477.61,321.211 1478.28,317.463 1478.96,357.377 1479.63,377.721 1480.31,375.087 1480.98,363.176 1481.66,350.452 1482.33,349.124 1483.01,358.045 1483.68,338.11 1484.36,350.549 1485.03,341.537 1485.71,356.525 1486.38,353.706 1487.06,356.832 1487.73,351.413 1488.41,392.68 1489.08,342.855 1489.76,378.521 1490.43,373.781 1491.11,401.248 1491.78,359.554 1492.46,422.261 1493.13,362.713 1493.81,351.057 1494.48,414.787 1495.16,360.782 1495.83,362.754 1496.5,401.859 1497.18,416.725 1497.85,390.9 1498.53,422.58 1499.2,314.562 1499.88,388.998 1500.55,336.879 1501.23,364.587 1501.9,342.719 1502.58,369.213 1503.25,327.279 1503.93,380.916 1504.6,403.764 1505.28,425.63 1505.95,391.523 1506.63,400.811 1507.3,416.168 1507.98,401.747 1508.65,357.67 1509.33,322.113 1510,360.376 1510.68,361.492 1511.35,307.308 1512.03,412.98 1512.7,464.714 1513.38,451.93 1514.05,458.433 1514.73,451.944 1515.4,427.876 1516.08,383.361 1516.75,377.569 1517.43,336.838 1518.1,355.404 1518.78,333.689 1519.45,327.502 1520.13,331.331 1520.8,339.867 1521.48,456.406 1522.15,486.174 1522.83,566.352 1523.5,526.818 1524.18,562.722 1524.85,563.946 1525.53,520.898 1526.2,468.851 1526.88,530.523 1527.55,461.841 1528.23,471.635 1528.9,536.36 1529.58,452.746 1530.25,470.419 1530.93,432.469 1531.6,470.318 1532.28,500.983 1532.95,521.322 1533.63,561.797 1534.3,502.687 1534.98,502.795 1535.65,513.254 1536.33,476.685 1537,453.375 1537.68,353.63 1538.35,361.923 1539.03,355.765 1539.7,328.599 1540.38,357.457 1541.05,349.17 1541.72,318.144 1542.4,357.739 1543.07,347.23 1543.75,361.748 1544.42,342.866 1545.1,348.76 1545.77,325.738 1546.45,369.988 1547.12,328.045 1547.8,372.414 1548.47,341.842 1549.15,379.974 1549.82,312.888 1550.5,386.118 1551.17,318.547 1551.85,382.046 1552.52,317.295 1553.2,355.858 1553.87,423.916 1554.55,417.371 1555.22,478.541 1555.9,387.779 1556.57,490.558 1557.25,503.26 1557.92,380.92 1558.6,369.334 1559.27,328.509 1559.95,368.009 1560.62,348.532 1561.3,354.7 1561.97,343.849 1562.65,381.537 1563.32,376.874 1564,397.433 1564.67,386.677 1565.35,363.21 1566.02,313.2 1566.7,383.836 1567.37,325.888 1568.05,444.271 1568.72,406.663 1569.4,370.898 1570.07,367.219 1570.75,345.496 1571.42,351.739 1572.1,362.108 1572.77,387.31 1573.45,320.85 1574.12,369.5 1574.8,340.334 1575.47,360.283 1576.15,348.436 1576.82,324.943 1577.5,349.357 1578.17,313.998 1578.85,385.657 1579.52,308.527 1580.2,425.5 1580.87,307.282 1581.55,384.005 1582.22,374.685 1582.9,333.61 1583.57,354.189 1584.25,384.707 1584.92,457.647 1585.6,484.065 1586.27,482.182 1586.95,475.184 1587.62,481.601 1588.29,496.691 1588.97,477.613 1589.64,519.675 1590.32,498.781 1590.99,485.025 1591.67,531.239 1592.34,480.957 1593.02,450.596 1593.69,406.252 1594.37,556.821 1595.04,549.879 1595.72,518.734 1596.39,445.47 1597.07,459.333 1597.74,450.589 1598.42,450.459 1599.09,428.229 1599.77,459.838 1600.44,399.001 1601.12,453.39 1601.79,374.912 1602.47,352.611 1603.14,400.569 1603.82,340.51 1604.49,394.797 1605.17,368.602 1605.84,313.97 1606.52,366.982 1607.19,314.657 1607.87,383.397 1608.54,328.434 1609.22,373.053 1609.89,326.177 1610.57,345.758 1611.24,364.499 1611.92,344.96 1612.59,366.422 1613.27,346.063 1613.94,350.426 1614.62,346.676 1615.29,358.111 1615.97,345.874 1616.64,359.49 1617.32,353.426 1617.99,356.306 1618.67,346.803 1619.34,357.513 1620.02,360.143 1620.69,350.514 1621.37,368.824 1622.04,394.78 1622.72,366.87 1623.39,354.968 1624.07,335.123 1624.74,397.888 1625.42,327.653 1626.09,372.182 1626.77,334.384 1627.44,354.451 1628.12,312.764 1628.79,325.776 1629.47,353.393 1630.14,334.348 1630.82,345.517 1631.49,342.144 1632.17,338.013 1632.84,416.076 1633.52,434.504 1634.19,394.053 1634.86,348.948 1635.54,368.248 1636.21,340.765 1636.89,345.016 1637.56,354.475 1638.24,359.784 1638.91,351.785 1639.59,332.389 1640.26,356.514 1640.94,344.662 1641.61,355.904 1642.29,335.216 1642.96,325.354 1643.64,393.964 1644.31,410.262 1644.99,423.74 1645.66,440.885 1646.34,449.188 1647.01,354.577 1647.69,338.423 1648.36,392.195 1649.04,345.709 1649.71,372.17 1650.39,401.581 1651.06,369.798 1651.74,338.49 1652.41,361.614 1653.09,344.049 1653.76,362.057 1654.44,346.313 1655.11,359.777 1655.79,345.397 1656.46,363.177 1657.14,345.12 1657.81,363.152 1658.49,408.578 1659.16,328.858 1659.84,380.158 1660.51,328.967 1661.19,364.649 1661.86,343.194 1662.54,352.908 1663.21,352.85 1663.89,355.41 1664.56,341.304 1665.24,365.113 1665.91,343.214 1666.59,360.777 1667.26,394.957 1667.94,327.019 1668.61,374.718 1669.29,392.743 1669.96,456.444 1670.64,466.857 1671.31,494.697 1671.99,396.238 1672.66,408.406 1673.34,363.228 1674.01,351.203 1674.69,357.029 1675.36,332.193 1676.04,385.382 1676.71,326.786 1677.39,404.656 1678.06,361.086 1678.74,384.062 1679.41,332.56 1680.09,366.152 1680.76,369.338 1681.43,337.622 1682.11,359.597 1682.78,323.38 1683.46,332.765 1684.13,351.899 1684.81,331.859 1685.48,327.708 1686.16,328.978 1686.83,345.596 1687.51,349.318 1688.18,369.337 1688.86,340.012 1689.53,360.529 1690.21,344.067 1690.88,354.959 1691.56,344.439 1692.23,317.639 1692.91,364.535 1693.58,343.447 1694.26,360.539 1694.93,324.804 1695.61,347.769 1696.28,354.544 1696.96,339.619 1697.63,363.509 1698.31,355.538 1698.98,344.345 1699.66,348.442 1700.33,389.183 1701.01,327.472 1701.68,380.49 1702.36,332.211 1703.03,399.932 1703.71,314.938 1704.38,404.335 1705.06,337.048 1705.73,388.793 1706.41,352.49 1707.08,356.71 1707.76,458.887 1708.43,466.047 1709.11,467.704 1709.78,454.041 1710.46,489.688 1711.13,446.799 1711.81,501.143 1712.48,514.003 1713.16,501.073 1713.83,466.022 1714.51,501.386 1715.18,482.915 1715.86,508.29 1716.53,518.268 1717.21,507.957 1717.88,493.567 1718.56,413.588 1719.23,390.181 1719.91,366.433 1720.58,352.106 1721.26,356.223 1721.93,347.325 1722.61,358.285 1723.28,341.718 1723.96,363.812 1724.63,344.989 1725.31,361.087 1725.98,347.043 1726.66,358.226 1727.33,343.958 1728,350.577 1728.68,335.511 1729.35,345.095 1730.03,360.991 1730.7,347.794 1731.38,354.889 1732.05,337.055 1732.73,373.299 1733.4,332.665 1734.08,363.924 1734.75,345.795 1735.43,338.881 1736.1,332.355 1736.78,402.053 1737.45,412.12 1738.13,434.075 1738.8,442.554 1739.48,386.529 1740.15,309.838 1740.83,380.148 1741.5,355.698 1742.18,351.949 1742.85,347.184 1743.53,328.068 1744.2,371.277 1744.88,352.967 1745.55,384.294 1746.23,306.977 1746.9,383.306 1747.58,352.507 1748.25,319.014 1748.93,377.446 1749.6,337.947 1750.28,375.759 1750.95,333.773 1751.63,339.103 1752.3,347.478 1752.98,339.152 1753.65,384.054 1754.33,340.873 1755,376.365 1755.68,297.304 1756.35,401.133 1757.03,382.85 1757.7,400.701 1758.38,498.328 1759.05,518.413 1759.73,492.435 1760.4,489.199 1761.08,499.498 1761.75,522.681 1762.43,506.062 1763.1,480.311 1763.78,483.853 1764.45,327.391 1765.13,364.3 1765.8,336.766 1766.48,332.462 1767.15,370.669 1767.83,337.042 1768.5,369.406 1769.18,333.184 1769.85,362.078 1770.53,330.693 1771.2,388.857 1771.88,423.792 1772.55,451.826 1773.23,478.831 1773.9,482.904 1774.57,462.966 1775.25,493.604 1775.92,446.583 1776.6,431.799 1777.27,392.749 1777.95,403.194 1778.62,319.683 1779.3,366.706 1779.97,343.05 1780.65,352.149 1781.32,343.054 1782,368.854 1782.67,378.258 1783.35,319.357 1784.02,408.565 1784.7,413.601 1785.37,405.148 1786.05,331.498 1786.72,365.419 1787.4,378.389 1788.07,348.26 1788.75,360.13 1789.42,349.539 1790.1,370.555 1790.77,416.365 1791.45,361.312 1792.12,348.373 1792.8,353.174 1793.47,387.785 1794.15,394.188 1794.82,320.659 1795.5,368.698 1796.17,352.466 1796.85,320.206 1797.52,393.989 1798.2,400.035 1798.87,424.183 1799.55,409.478 1800.22,392.574 1800.9,356.405 1801.57,348.849 1802.25,354.861 1802.92,321.776 1803.6,370.519 1804.27,346.348 1804.95,344.21 1805.62,366.695 1806.3,313.16 1806.97,366.783 1807.65,373.401 1808.32,364.309 1809,361.964 1809.67,352.676 1810.35,370.787 1811.02,331.349 1811.7,358.567 1812.37,356.034 1813.05,331.835 1813.72,326.348 1814.4,315.76 1815.07,368.058 1815.75,359.091 1816.42,312.595 1817.1,380.34 1817.77,314.573 1818.45,343.347 1819.12,349.345 1819.79,370.069 1820.47,346.376 1821.14,340.838 1821.82,404.289 1822.49,395.097 1823.17,409.201 1823.84,386.017 1824.52,350.714 1825.19,353.633 1825.87,370.648 1826.54,394.533 1827.22,429.837 1827.89,366.677 1828.57,332.278 1829.24,400.42 1829.92,313.158 1830.59,371.068 1831.27,360.233 1831.94,366.832 1832.62,318.134 1833.29,337.845 1833.97,326.395 1834.64,344.134 1835.32,330.4 1835.99,314.07 1836.67,334.367 1837.34,338.699 1838.02,335.676 1838.69,310.628 1839.37,372.537 1840.04,355.785 1840.72,329.623 1841.39,384.093 1842.07,299.46 1842.74,389.543 1843.42,298.627 1844.09,371.755 1844.77,324.401 1845.44,362.491 1846.12,354.356 1846.79,352.757 1847.47,358.47 1848.14,371.576 1848.82,329.966 1849.49,484.386 1850.17,382.09 1850.84,400.303 1851.52,433.115 1852.19,425.884 1852.87,432.809 1853.54,477.663 1854.22,442.72 1854.89,484.059 1855.57,403.171 1856.24,340.515 1856.92,386.132 1857.59,359.68 1858.27,378.504 1858.94,396.75 1859.62,355.658 1860.29,359.588 1860.97,343.564 1861.64,371.801 1862.32,324.324 1862.99,345.24 1863.67,316.623 1864.34,332.481 1865.02,374.095 1865.69,350.633 1866.36,350.602 1867.04,364.085 1867.71,328.405 1868.39,363.136 1869.06,341.474 1869.74,353.103 1870.41,347.096 1871.09,343.832 1871.76,416.818 1872.44,360.877 1873.11,381.784 1873.79,349.028 1874.46,378.27 1875.14,358.952 1875.81,335.284 1876.49,425.284 1877.16,417 1877.84,327.153 1878.51,310.062 1879.19,344.663 1879.86,303.362 1880.54,374.199 1881.21,305.654 1881.89,364.671 1882.56,373.017 1883.24,375.404 1883.91,331.663 1884.59,337.073 1885.26,329.874 1885.94,367.129 1886.61,333.127 1887.29,328.267 1887.96,322.097 1888.64,313.473 1889.31,337.334 1889.99,307.245 1890.66,350.857 1891.34,359.128 1892.01,325.277 1892.69,398.474 1893.36,433.291 1894.04,466.931 1894.71,477.219 1895.39,461.707 1896.06,377.776 1896.74,330.615 1897.41,362.144 1898.09,360.976 1898.76,349.578 1899.44,371.779 1900.11,303.743 1900.79,340.568 1901.46,347.734 1902.14,380.885 1902.81,301.276 1903.49,374.356 1904.16,366.605 1904.84,354.803 1905.51,328.795 1906.19,310.313 1906.86,376.392 1907.54,310 1908.21,366.965 1908.89,324.53 1909.56,331.073 1910.24,347.321 1910.91,387.423 1911.59,334.102 1912.26,354.503 1912.93,340.35 1913.61,365.306 1914.28,341.818 1914.96,328.534 1915.63,341.685 1916.31,309.287 1916.98,349.57 1917.66,368.472 1918.33,310.926 1919.01,387.471 1919.68,386.934 1920.36,366.707 1921.03,303.908 1921.71,370.137 1922.38,379.651 1923.06,407.406 1923.73,368.635 1924.41,408.666 1925.08,383.676 1925.76,378.013 1926.43,355.716 1927.11,314.244 1927.78,335.009 1928.46,416.523 1929.13,441.45 1929.81,434.649 1930.48,401.576 1931.16,303.645 1931.83,360.868 1932.51,315.517 1933.18,359.99 1933.86,347.769 1934.53,339.727 1935.21,317.129 1935.88,445.137 1936.56,468.921 1937.23,458.202 1937.91,450.253 1938.58,447.639 1939.26,452.677 1939.93,498.976 1940.61,441.278 1941.28,442.734 1941.96,395.935 1942.63,388.944 1943.31,343.066 1943.98,329.114 1944.66,337.439 1945.33,327.969 1946.01,362.645 1946.68,329.508 1947.36,334.48 1948.03,341.362 1948.71,365.774 1949.38,329.454 1950.06,334.894 1950.73,334.276 1951.41,375.89 1952.08,321.549 1952.76,346.495 1953.43,370.095 1954.11,324.913 1954.78,328.875 1955.46,315.484 1956.13,351.511 1956.81,387.77 1957.48,349.447 1958.16,368.474 1958.83,384.048 1959.5,405.458 1960.18,440.669 1960.85,393.585 1961.53,429.436 1962.2,405.172 1962.88,495.716 1963.55,507.295 1964.23,471.155 1964.9,377.267 1965.58,353.395 1966.25,309.131 1966.93,357.754 1967.6,431.781 1968.28,482.132 1968.95,425.614 1969.63,401.5 1970.3,400.639 1970.98,375.565 1971.65,400.823 1972.33,363.874 1973,372.049 1973.68,407.446 1974.35,452.667 1975.03,397.189 1975.7,349.793 1976.38,365.66 1977.05,360.586 1977.73,378.997 1978.4,373 1979.08,320.43 1979.75,354.751 1980.43,340.054 1981.1,337.552 1981.78,364.606 1982.45,455.296 1983.13,409.156 1983.8,400.789 1984.48,318.04 1985.15,389.808 1985.83,368.452 1986.5,351.909 1987.18,365.727 1987.85,305.117 1988.53,346.838 1989.2,366.745 1989.88,391.296 1990.55,367.039 1991.23,356.855 1991.9,340.057 1992.58,360.938 1993.25,339.664 1993.93,356.859 1994.6,349.899 1995.28,356.91 1995.95,336.307 1996.63,353.183 1997.3,338.558 1997.98,351.277 1998.65,356.266 1999.33,351.966 2000,355.57 2000.68,350.246 2001.35,339.658 2002.03,355.082 2002.7,352.589 2003.38,354.949 2004.05,337.474 2004.73,333.497 2005.4,368.118 2006.07,336.113 2006.75,370.844 2007.42,336.067 2008.1,367.486 2008.77,334.375 2009.45,367.016 2010.12,329.644 2010.8,369.281 2011.47,333.609 2012.15,342.798 2012.82,368.956 2013.5,346.084 2014.17,362.28 2014.85,302.096 2015.52,384.396 2016.2,335.466 2016.87,372.083 2017.55,340.126 2018.22,366.552 2018.9,341.963 2019.57,385.553 2020.25,356.308 2020.92,411.88 2021.6,339.372 2022.27,377.707 2022.95,335.823 2023.62,366.45 2024.3,344.969 2024.97,348.615 2025.65,366.541 2026.32,345.515 2027,361.531 2027.67,348.54 2028.35,375.538 2029.02,405.096 2029.7,424.359 2030.37,325.791 2031.05,310.035 2031.72,372.408 2032.4,322.781 2033.07,369.528 2033.75,335.622 2034.42,355.332 2035.1,318.417 2035.77,346.572 2036.45,369.962 2037.12,393.911 2037.8,328.745 2038.47,337.56 2039.15,383.029 2039.82,432.206 2040.5,411.798 2041.17,404.764 2041.85,380.997 2042.52,436.279 2043.2,454.409 2043.87,502.847 2044.55,422.623 2045.22,384.458 2045.9,365.459 2046.57,353.884 2047.25,378.49 2047.92,346.382 2048.6,398.79 2049.27,419.936 2049.95,392.858 2050.62,401.74 2051.3,326.443 2051.97,369.083 2052.64,447.623 2053.32,384.968 2053.99,322.406 2054.67,309.325 2055.34,355.925 2056.02,339.447 2056.69,373.99 2057.37,382.467 2058.04,339.84 2058.72,331.358 2059.39,330.62 2060.07,301.934 2060.74,369.77 2061.42,341.345 2062.09,391.295 2062.77,316.101 2063.44,355.264 2064.12,353.066 2064.79,353.284 2065.47,376.023 2066.14,365.576 2066.82,393.985 2067.49,468.805 2068.17,442.41 2068.84,432.333 2069.52,399.253 2070.19,391.047 2070.87,414.289 2071.54,359.956 2072.22,385.389 2072.89,369.772 2073.57,307.981 2074.24,370.387 2074.92,331.212 2075.59,328.943 2076.27,343.519 2076.94,348.731 2077.62,340.759 2078.29,371.664 2078.97,324.608 2079.64,356.496 2080.32,319.555 2080.99,369.545 2081.67,359.236 2082.34,327.184 2083.02,338.339 2083.69,346.015 2084.37,340.232 2085.04,343.219 2085.72,312.322 2086.39,337.287 2087.07,336.208 2087.74,353.055 2088.42,354.293 2089.09,326.774 2089.77,355.776 2090.44,323.156 2091.12,337.204 2091.79,353.785 2092.47,352.748 2093.14,359.654 2093.82,319.711 2094.49,325.111 2095.17,367.297 2095.84,314.019 2096.52,345.499 2097.19,393.941 2097.86,338.456 2098.54,372.27 2099.21,341.252 2099.89,363.525 2100.56,370.054 2101.24,362.505 2101.91,310.233 2102.59,356.483 2103.26,376.35 2103.94,313.24 2104.61,402.421 2105.29,322.514 2105.96,371.904 2106.64,398.451 2107.31,344.712 2107.99,430.955 2108.66,422.048 2109.34,440.587 2110.01,435.898 2110.69,416.7 2111.36,420.966 2112.04,415.259 2112.71,405.758 2113.39,415.019 2114.06,395.584 2114.74,392.332 2115.41,398.378 2116.09,364.572 2116.76,380.029 2117.44,318.384 2118.11,330.095 2118.79,367.54 2119.46,327.559 2120.14,414.565 2120.81,383.998 2121.49,411.209 2122.16,353.066 2122.84,362.821 2123.51,312.929 2124.19,381.378 2124.86,362.082 2125.54,350.398 2126.21,336.547 2126.89,352.659 2127.56,363.184 2128.24,374.663 2128.91,437.118 2129.59,511.274 2130.26,532.075 2130.94,476.501 2131.61,501.179 2132.29,443.097 2132.96,331.232 2133.64,351.718 2134.31,400.425 2134.99,303.944 2135.66,373.421 2136.34,354.944 2137.01,347.498 2137.69,339.568 2138.36,367.243 2139.04,364.298 2139.71,320.3 2140.39,357.704 2141.06,431.248 2141.74,410.209 2142.41,464.49 2143.09,396.275 2143.76,403.914 2144.43,372.121 2145.11,405.298 2145.78,330.835 2146.46,314.524 2147.13,350.702 2147.81,312.012 2148.48,353.198 2149.16,315.645 2149.83,346.49 2150.51,327.563 2151.18,363.281 2151.86,339.718 2152.53,343.647 2153.21,321.927 2153.88,356.758 2154.56,387.689 2155.23,307.286 2155.91,330.34 2156.58,321.723 2157.26,336.061 2157.93,329.512 2158.61,346.158 2159.28,369.095 2159.96,332.359 2160.63,324.555 2161.31,356.498 2161.98,362.866 2162.66,345.967 2163.33,364.63 2164.01,351.343 2164.68,363.284 2165.36,358.046 2166.03,359.959 2166.71,330.236 2167.38,359.456 2168.06,358.086 2168.73,362.364 2169.41,373.329 2170.08,348.209 2170.76,351.27 2171.43,352.65 2172.11,331.278 2172.78,361.633 2173.46,336.571 2174.13,372.41 2174.81,360.65 2175.48,345.146 2176.16,352.728 2176.83,363.679 2177.51,351.261 2178.18,347.983 2178.86,358.365 2179.53,346.999 2180.21,360.808 2180.88,356.246 2181.56,352.149 2182.23,361.367 2182.91,342.323 2183.58,350.286 2184.26,412.12 2184.93,419.699 2185.61,470.571 2186.28,480.407 2186.96,427.583 2187.63,399.889 2188.31,364.971 2188.98,360.381 2189.66,365.087 2190.33,318.857 2191,360.169 2191.68,353.171 2192.35,323.988 2193.03,352.224 2193.7,380.622 2194.38,344.585 2195.05,342.809 2195.73,366.407 2196.4,364.465 2197.08,408.816 2197.75,362.723 2198.43,420.162 2199.1,421.843 2199.78,395.139 2200.45,324.005 2201.13,383.83 2201.8,423.7 2202.48,386.835 2203.15,446.425 2203.83,532.564 2204.5,522.999 2205.18,495.842 2205.85,440.121 2206.53,430.696 2207.2,378.188 2207.88,367.026 2208.55,341.49 2209.23,375.784 2209.9,392.167 2210.58,394.739 2211.25,376.444 2211.93,332.874 2212.6,347.841 2213.28,305.606 2213.95,362.636 2214.63,369.742 2215.3,374.834 2215.98,361.661 2216.65,368.498 2217.33,345.761 2218,339.92 2218.68,324.194 2219.35,341.213 2220.03,371.638 2220.7,456.27 2221.38,416.443 2222.05,379.226 2222.73,360.454 2223.4,394.993 2224.08,391.962 2224.75,355.401 2225.43,385.7 2226.1,393.586 2226.78,457.181 2227.45,412.414 2228.13,409.248 2228.8,466.43 2229.48,445.306 2230.15,423.763 2230.83,412.219 2231.5,410.213 2232.18,494.658 2232.85,427.926 2233.53,373.155 2234.2,351.635 2234.88,370.623 2235.55,481.146 2236.23,494.37 2236.9,521.603 2237.57,484.192 2238.25,462.458 2238.92,441.967 2239.6,458.398 2240.27,458.035 2240.95,470.115 2241.62,539.424 2242.3,546.532 2242.97,559.925 2243.65,521.018 2244.32,508.835 2245,447.938 2245.67,416.737 2246.35,317.778 2247.02,371.394 2247.7,380.479 2248.37,325.745 2249.05,438.407 2249.72,377.229 2250.4,331.197 2251.07,375.589 2251.75,336.392 2252.42,338.471 2253.1,335.442 2253.77,359.67 2254.45,385.441 2255.12,414.737 2255.8,432.765 2256.47,466.133 2257.15,439.353 2257.82,412.834 2258.5,360.767 2259.17,326.857 2259.85,309.064 2260.52,348.685 2261.2,329.178 2261.87,349.414 2262.55,333.443 2263.22,362.349 2263.9,349.625 2264.57,344.731 2265.25,351.64 2265.92,357.734 2266.6,348.282 2267.27,326.809 2267.95,376.445 2268.62,320.279 2269.3,351.85 2269.97,350.513 2270.65,360.168 2271.32,322.178 2272,350.95 2272.67,361.397 2273.35,326.583 2274.02,366.781 2274.7,336.731 2275.37,352.945 2276.05,373.793 2276.72,335.674 2277.4,384.722 2278.07,373.075 2278.75,304.06 2279.42,401.148 2280.1,311.027 2280.77,376.173 2281.45,340.218 2282.12,348.128 2282.8,334.39 2283.47,374.012 2284.14,337.103 2284.82,355.66 2285.49,373.885 2286.17,346.98 2286.84,332.304 2287.52,359.946 2288.19,352.058 2288.87,321.012 2289.54,353.629 2290.22,340.302 2290.89,368.963 2291.57,337.163 2292.24,370.244 2292.92,331.783 2293.59,342.137 2294.27,346.523 2294.94,345.105 2295.62,324.567 2296.29,358.53 2296.97,342.481 2297.64,340.06 2298.32,366.931 2298.99,364.282 2299.67,353.961 2300.34,446.374 2301.02,465.307 2301.69,468.27 2302.37,479.554 2303.04,435.789 2303.72,448.466 2304.39,478.35 2305.07,472.432 2305.74,404.81 2306.42,385.979 2307.09,403.864 2307.77,350.249 2308.44,350.862 2309.12,374.452 2309.79,354.757 2310.47,340.811 2311.14,347.249 2311.82,331.396 2312.49,333.387 2313.17,353.588 2313.84,318.159 2314.52,329.252 2315.19,333.548 2315.87,307.691 2316.54,361.98 2317.22,316.028 2317.89,364.758 2318.57,412.703 2319.24,321.606 2319.92,405.65 2320.59,392.761 2321.27,379.651 2321.94,330.05 2322.62,347.543 2323.29,324.835 2323.97,320.885 2324.64,337.87 2325.32,342.034 2325.99,342.154 2326.67,311.805 2327.34,368.424 2328.02,373.299 2328.69,382.417 2329.36,314.022 2330.04,328.477 2330.71,350.167 2331.39,425.906 2332.06,425.141 2332.74,368.73 2333.41,383.446 2334.09,391.886 2334.76,376.031 2335.44,395.758 2336.11,415.558 2336.79,405.858 2337.46,399.929 2338.14,379.337 2338.81,356.611 2339.49,353.625 2340.16,348.303 2340.84,352.199 2341.51,344.64 2342.19,346.59 2342.86,358.476 2343.54,343.957 2344.21,335.5 2344.89,327.757 2345.56,372.639 2346.24,337.811 2346.91,372.271 2347.59,325.546 2348.26,379.498 2348.94,322.65 2349.61,356.94 2350.29,338.075 2350.96,378.588 2351.64,448.707 2352.31,431.29 2352.99,451.85 2353.66,472.849 2354.34,455.562 2355.01,424.446 2355.69,430.098 2356.36,362.469 2357.04,391.51 2357.71,348.084 2358.39,358.209 2359.06,349.226 2359.74,364.409 2360.41,304.093 2361.09,314.211 2361.76,319.129 2362.44,323.628 2363.11,331.038 2363.79,318.436 2364.46,352.36 2365.14,348.54 2365.81,375.201 2366.49,345.917 2367.16,352.195 2367.84,323.089 2368.51,339.69 2369.19,326.967 2369.86,342.812 2370.54,396.902 2371.21,330.997 2371.89,347.331 2372.56,370.457 2373.24,322.848 2373.91,346.881 2374.59,411.708 2375.26,328.475 2375.93,321.934 2376.61,356.626 2377.28,416.705 2377.96,440.999 2378.63,399.579 2379.31,401.115 2379.98,471.542 2380.66,483.398 2381.33,481.028 2382.01,404.626 2382.68,365 2383.36,373.596 2384.03,379.088 2384.71,345.566 2385.38,313.024 2386.06,365.322 2386.73,356.717 2387.41,326.613 2388.08,517.562 2388.76,519.203 2389.43,549.697 2390.11,458.632 2390.78,425.776 2391.46,437.067 2392.13,464.472 2392.81,467.604 2393.48,466.457 2394.16,506.786 2394.83,463.098 2395.51,435.349 2396.18,438.977 2396.86,485.49 2397.53,506.945 2398.21,513.482 2398.88,513.718 2399.56,496.587 2400.23,506.754 2400.91,423.997 2401.58,464.671 2402.26,500.691 2402.93,546.425 2403.61,560.28 2404.28,551.871 2404.96,558.687 2405.63,560.355 2406.31,563.752 2406.98,541.004 2407.66,445.434 2408.33,424.37 2409.01,430.344 2409.68,422.49 2410.36,385.778 2411.03,373.819 2411.71,361.817 2412.38,419.808 2413.06,468.366 2413.73,486.913 2414.41,535.35 2415.08,507.329 2415.76,441.86 2416.43,382.059 2417.11,367.172 2417.78,380.603 2418.46,364.901 2419.13,366.817 2419.81,349.403 2420.48,367.434 2421.16,362.21 2421.83,338.488 2422.5,342.758 2423.18,374.534 2423.85,360.752 2424.53,323.113 2425.2,347.801 2425.88,344.209 2426.55,407.576 2427.23,467.3 2427.9,447.613 2428.58,423.714 2429.25,439.986 2429.93,373.885 2430.6,358.33 2431.28,346.214 2431.95,383.023 2432.63,342.835 2433.3,359.945 2433.98,313.631 2434.65,345.361 2435.33,337.264 2436,385.548 2436.68,340.785 2437.35,334.882 2438.03,353.132 2438.7,340.151 2439.38,317.651 2440.05,335.238 2440.73,333.722 2441.4,349.335 2442.08,316.246 2442.75,355.722 2443.43,352.127 2444.1,340.512 2444.78,340.743 2445.45,320.881 2446.13,342.599 2446.8,312.949 2447.48,336.544 2448.15,384.324 2448.83,319.46 2449.5,345.341 2450.18,336.513 2450.85,355.899 2451.53,400.374 2452.2,355.992 2452.88,385.417 2453.55,396.505 2454.23,411.807 2454.9,406.502 2455.58,440.14 2456.25,474.48 2456.93,454.019 2457.6,387.669 2458.28,315.946 2458.95,379.509 2459.63,352.433 2460.3,309.744 2460.98,368.216 2461.65,377.504 2462.33,347.615 2463,365.2 2463.68,351.114 2464.35,367.861 2465.03,368.704 2465.7,406.81 2466.38,385.13 2467.05,425.779 2467.73,433.067 2468.4,442.632 2469.07,395.097 2469.75,349.135 2470.42,318.615 2471.1,356.402 2471.77,363.747 2472.45,359.423 2473.12,406.36 2473.8,344.378 2474.47,361.269 2475.15,315.702 2475.82,337.797 2476.5,342.555 2477.17,413.03 2477.85,376.009 2478.52,363.53 2479.2,351.251 2479.87,391.801 2480.55,402.863 2481.22,416.579 2481.9,505.109 2482.57,477.095 2483.25,467.691 2483.92,424.242 2484.6,425.898 2485.27,449.092 2485.95,432.036 2486.62,339.743 2487.3,389.644 2487.97,330.812 2488.65,372.097 2489.32,336.149 2490,353.212 2490.67,381.876 2491.35,368.456 2492.02,390.075 2492.7,321.451 2493.37,329.572 2494.05,340.955 2494.72,371.631 2495.4,304.289 2496.07,328.297 2496.75,352.77 2497.42,422.165 2498.1,392.982 2498.77,431.64 2499.45,432.44 2500.12,429.145 2500.8,377.128 2501.47,431.783 2502.15,324.327 2502.82,413.676 2503.5,408.602 2504.17,445.418 2504.85,474.253 2505.52,443.298 2506.2,443.71 2506.87,409.237 2507.55,346.373 2508.22,360.126 2508.9,345.767 2509.57,363.392 2510.25,341.344 2510.92,363.254 2511.6,315.339 2512.27,389.858 2512.95,314.259 2513.62,389.097 2514.3,313.708 2514.97,363.525 2515.64,342.621 2516.32,360.656 2516.99,345.741 2517.67,342.955 2518.34,365.67 2519.02,343.202 2519.69,364.812 2520.37,346.393 2521.04,353.103 2521.72,344.925 2522.39,364.553 2523.07,344.135 2523.74,364.343 2524.42,344.373 2525.09,365.307 2525.77,343.546 2526.44,365.985 2527.12,343.558 2527.79,365.502 2528.47,345.548 2529.14,362.605 2529.82,319.225 2530.49,406.933 2531.17,436.45 2531.84,401.589 2532.52,405.603 2533.19,311.31 2533.87,328.841 2534.54,309.531 2535.22,325.963 2535.89,326.751 2536.57,338.586 2537.24,326.882 2537.92,395.481 2538.59,309.573 2539.27,367.592 2539.94,393.01 2540.62,389.17 2541.29,374.651 2541.97,317.164 2542.64,318.611 2543.32,305.681 2543.99,349.57 2544.67,312.246 2545.34,328.602 2546.02,311.241 2546.69,310.342 2547.37,355.125 2548.04,320.686 2548.72,338.568 2549.39,314.01 2550.07,315.018 2550.74,329.096 2551.42,332.584 2552.09,355.641 2552.77,376.917 2553.44,369.372 2554.12,308.952 2554.79,329.492 2555.47,321.003 2556.14,313.056 2556.82,339.196 2557.49,348.512 2558.17,386.851 2558.84,377.506 2559.52,315.834 2560.19,346.979 2560.87,322.386 2561.54,342.122 2562.21,320.272 2562.89,380.472 2563.56,358.812 2564.24,408.471 2564.91,401.087 2565.59,427.003 2566.26,393.13 2566.94,318.038 2567.61,385.262 2568.29,360.579 2568.96,352.756 2569.64,319.77 2570.31,371.596 2570.99,376.401 2571.66,311.297 2572.34,361.314 2573.01,358.365 2573.69,359.062 2574.36,314.759 2575.04,329.712 2575.71,386.044 2576.39,420.46 2577.06,471.009 2577.74,504.66 2578.41,472.89 2579.09,453.219 2579.76,419.416 2580.44,448.02 2581.11,370.844 2581.79,355.533 2582.46,317.165 2583.14,353.007 2583.81,370.625 2584.49,389.278 2585.16,376.514 2585.84,333.727 2586.51,321.204 2587.19,304.119 2587.86,374.544 2588.54,360.177 2589.21,339.729 2589.89,325.494 2590.56,349.356 2591.24,368.305 2591.91,325.657 2592.59,321.069 2593.26,351.104 2593.94,332.25 2594.61,404.735 2595.29,395.138 2595.96,402.65 2596.64,438.577 2597.31,497.808 2597.99,530.378 2598.66,528.788 2599.34,515.535 2600.01,561.681 2600.69,534.756 2601.36,524.189 2602.04,434.069 2602.71,307.398 2603.39,327.364 2604.06,343.761 2604.74,352.117 2605.41,314.754 2606.09,355.391 2606.76,332.61 2607.43,380.557 2608.11,360.294 2608.78,303.585 2609.46,356.666 2610.13,342.169 2610.81,336.068 2611.48,399.628 2612.16,332.367 2612.83,363.289 2613.51,342.936 2614.18,372.128 2614.86,352.782 2615.53,362.709 2616.21,335.532 2616.88,342.119 2617.56,356.253 2618.23,357.921 2618.91,350.674 2619.58,349.658 2620.26,363.587 2620.93,333.758 2621.61,358.382 2622.28,446.563 2622.96,424.039 2623.63,413.232 2624.31,364.915 2624.98,466.047 2625.66,513.562 2626.33,538.359 2627.01,521.184 2627.68,503.129 2628.36,471.534 2629.03,471.771 2629.71,422.544 2630.38,467.816 2631.06,504.581 2631.73,530.335 2632.41,448.126 2633.08,516.738 2633.76,575.449 2634.43,491.352 2635.11,456.362 2635.78,426.129 2636.46,477.753 2637.13,468.382 2637.81,495.643 2638.48,452.296 2639.16,543.037 2639.83,478.807 2640.51,453.434 2641.18,462.209 2641.86,516.109 2642.53,506.661 2643.21,540.307 2643.88,476.353 2644.56,555.84 2645.23,520.801 2645.91,480.705 2646.58,490.366 2647.26,516.238 2647.93,481.757 2648.61,501.195 2649.28,500.117 2649.96,463.209 2650.63,475.238 2651.31,420.996 2651.98,423.739 2652.66,386.649 2653.33,439.245 2654,380.192 2654.68,297.391 2655.35,372.331 2656.03,351.951 2656.7,334.794 2657.38,377.382 2658.05,333.583 2658.73,336.2 2659.4,318.803 2660.08,326.04 2660.75,321.192 2661.43,308.827 2662.1,346.215 2662.78,342.765 2663.45,316.249 2664.13,331.301 2664.8,382.774 2665.48,359.991 2666.15,331.98 2666.83,366.665 2667.5,400.049 2668.18,365.658 2668.85,366.305 2669.53,337.41 2670.2,381.29 2670.88,359.096 2671.55,431.902 2672.23,437.482 2672.9,367.822 2673.58,395.692 2674.25,344.302 2674.93,375.219 2675.6,303.871 2676.28,384.6 2676.95,338.922 2677.63,395.909 2678.3,336.551 2678.98,318.362 2679.65,340.819 2680.33,335.063 2681,338.282 2681.68,343.167 2682.35,347.956 2683.03,385.816 2683.7,400.403 2684.38,414.25 2685.05,368.486 2685.73,356.565 2686.4,351.082 2687.08,396.762 2687.75,378.987 2688.43,350.622 2689.1,359.742 2689.78,395.176 2690.45,379.555 2691.13,342.695 2691.8,309.464 2692.48,371.122 2693.15,411 2693.83,358.152 2694.5,398.135 2695.18,412.828 2695.85,428.933 2696.53,416.838 2697.2,432.817 2697.88,397.194 2698.55,351.688 2699.23,353.03 2699.9,501.444 2700.57,499.894 2701.25,531.78 2701.92,505.539 2702.6,472.272 2703.27,511.494 2703.95,496.589 2704.62,477.46 2705.3,462.793 2705.97,452.37 2706.65,533.47 2707.32,509.374 2708,513.45 2708.67,439.724 2709.35,460.308 2710.02,410.111 2710.7,407.828 2711.37,355.53 2712.05,361.84 2712.72,341.078 2713.4,381.767 2714.07,402.553 2714.75,446.928 2715.42,441.079 2716.1,531.681 2716.77,519.986 2717.45,452.898 2718.12,442.927 2718.8,431.901 2719.47,438.167 2720.15,429.681 2720.82,332.825 2721.5,334.756 2722.17,347.197 2722.85,393.219 2723.52,332.397 2724.2,366.184 2724.87,352.664 2725.55,351.009 2726.22,368.167 2726.9,387.04 2727.57,333.124 2728.25,393.758 2728.92,369.151 2729.6,329.019 2730.27,305.137 2730.95,365.946 2731.62,355.06 2732.3,330.802 2732.97,390.329 2733.65,318.96 2734.32,324.198 2735,360.609 2735.67,328.804 2736.35,350.144 2737.02,326.428 2737.7,382.258 2738.37,354.342 2739.05,340.202 2739.72,321.123 2740.4,337.817 2741.07,335.646 2741.75,326.596 2742.42,339.059 2743.1,357.345 2743.77,381.943 2744.45,374.683 2745.12,398.274 2745.8,393.046 2746.47,354.758 2747.14,474.731 2747.82,468.839 2748.49,464.241 2749.17,433.628 2749.84,432.318 2750.52,454.051 2751.19,459.549 2751.87,456.785 2752.54,463.579 2753.22,432.241 2753.89,484.742 2754.57,457.596 2755.24,454.948 2755.92,434.611 2756.59,504.624 2757.27,481.128 2757.94,449.189 2758.62,438.5 2759.29,358.308 2759.97,344.82 2760.64,350.965 2761.32,356.454 2761.99,393.052 2762.67,425.161 2763.34,317.621 2764.02,397.503 2764.69,380.455 2765.37,373.835 2766.04,383.978 2766.72,430.369 2767.39,501.974 2768.07,467.122 2768.74,363.621 2769.42,391.889 2770.09,320.372 2770.77,383.048 2771.44,326.791 2772.12,411.44 2772.79,412.582 2773.47,371.659 2774.14,364.659 2774.82,358.639 2775.49,352.512 2776.17,348.801 2776.84,355.899 2777.52,348.198 2778.19,334.904 2778.87,358.987 2779.54,307.018 2780.22,353.87 2780.89,331.586 2781.57,360.458 2782.24,328.681 2782.92,320.93 2783.59,327.136 2784.27,338.487 2784.94,324.004 2785.62,363.548 2786.29,319.629 2786.97,373.906 2787.64,337.452 2788.32,345.285 2788.99,332.088 2789.67,357.582 2790.34,314.157 2791.02,339.291 2791.69,344.175 2792.37,335.521 2793.04,375.958 2793.71,333.773 2794.39,344.105 2795.06,353.342 2795.74,334.32 2796.41,359.19 2797.09,349.038 2797.76,297.311 2798.44,363.894 2799.11,340.639 2799.79,365.781 2800.46,361.303 2801.14,340.048 2801.81,346.726 2802.49,335.621 2803.16,347.51 2803.84,366.964 2804.51,313.908 2805.19,371.756 2805.86,302.983 2806.54,357.346 2807.21,339.361 2807.89,356.833 2808.56,330.735 2809.24,357.814 2809.91,313.649 2810.59,366.564 2811.26,364.02 2811.94,355.798 2812.61,405.061 2813.29,372.248 2813.96,321.715 2814.64,367.037 2815.31,341.417 2815.99,367.567 2816.66,335.508 2817.34,410.017 2818.01,402.174 2818.69,344.913 2819.36,362.789 2820.04,346.147 2820.71,362.26 2821.39,346.392 2822.06,362.84 2822.74,349.934 2823.41,359.567 2824.09,351.382 2824.76,353.384 2825.44,343.806 2826.11,368.234 2826.79,341.249 2827.46,340.896 2828.14,343.396 2828.81,389.468 2829.49,462.62 2830.16,531.97 2830.84,473.182 2831.51,430.149 2832.19,413.27 2832.86,424.217 2833.54,385.502 2834.21,360.76 2834.89,366.183 2835.56,335.751 2836.24,395.586 2836.91,382.97 2837.59,359.964 2838.26,430.348 2838.94,381.231 2839.61,415.203 2840.28,415.023 2840.96,363.786 2841.63,477.234 2842.31,485.688 2842.98,416.358 2843.66,389.748 2844.33,367.667 2845.01,344.078 2845.68,357.263 2846.36,353.957 2847.03,358.399 2847.71,352.434 2848.38,327.77 2849.06,380.15 2849.73,327.194 2850.41,323.832 2851.08,366.977 2851.76,320.508 2852.43,362.825 2853.11,333.332 2853.78,346.072 2854.46,352.611 2855.13,333.105 2855.81,365.673 2856.48,352.103 2857.16,345.079 2857.83,372.031 2858.51,359.958 2859.18,356.228 2859.86,358.33 2860.53,345.931 2861.21,351.377 2861.88,336.053 2862.56,387.963 2863.23,330.5 2863.91,371.414 2864.58,397.827 2865.26,375.102 2865.93,342.986 2866.61,359.852 2867.28,325.53 2867.96,374.035 2868.63,403.227 2869.31,457.217 2869.98,363.22 2870.66,344.299 2871.33,354.546 2872.01,418.343 2872.68,479.144 2873.36,510.143 2874.03,556.558 2874.71,577.121 2875.38,506.504 2876.06,470.017 2876.73,429.23 2877.41,414.387 2878.08,458.186 2878.76,382.902 2879.43,317.889 2880.11,395.184 2880.78,306.967 2881.46,418.508 2882.13,373.326 2882.81,452.378 2883.48,403.585 2884.16,347.831 2884.83,388 2885.5,377.938 2886.18,383.67 2886.85,327.104 2887.53,378.364 2888.2,330.545 2888.88,364.107 2889.55,333.076 2890.23,374.019 2890.9,325.009 2891.58,359.938 2892.25,344.258 2892.93,356.841 2893.6,342.53 2894.28,357.552 2894.95,373.157 2895.63,354.935 2896.3,349.964 2896.98,348.41 2897.65,363.389 2898.33,426.353 2899,427.622 2899.68,402.575 2900.35,379.381 2901.03,436.443 2901.7,380.162 2902.38,322.933 2903.05,381.115 2903.73,330.69 2904.4,417.128 2905.08,423.164 2905.75,334.172 2906.43,393.156 2907.1,386.809 2907.78,369.234 2908.45,329.642 2909.13,346.946 2909.8,370.39 2910.48,349.937 2911.15,314.404 2911.83,322.557 2912.5,357.752 2913.18,329.047 2913.85,432.311 2914.53,433.267 2915.2,395.031 2915.88,379.825 2916.55,403.804 2917.23,415.885 2917.9,419.99 2918.58,439.585 2919.25,463.347 2919.93,482.011 2920.6,511.982 2921.28,417.708 2921.95,410.372 2922.63,350.326 2923.3,308.022 2923.98,362.78 2924.65,352.572 2925.33,357.209 2926,328.417 2926.68,505.485 2927.35,534.942 2928.03,497.366 2928.7,521.523 2929.38,453.035 2930.05,447.594 2930.73,449.971 2931.4,469.426 2932.07,521.241 2932.75,499.205 2933.42,539.66 2934.1,494.554 2934.77,477.493 2935.45,420.136 2936.12,464.359 2936.8,496.59 2937.47,418.437 2938.15,433.632 2938.82,475.165 2939.5,417.573 2940.17,380.366 2940.85,441.484 2941.52,456.291 2942.2,419.218 2942.87,450.167 2943.55,434.865 2944.22,437.911 2944.9,437.935 2945.57,442.445 2946.25,363.363 2946.92,345.105 2947.6,361.905 2948.27,357.318 2948.95,356.389 2949.62,329.514 2950.3,349.551 2950.97,424.549 2951.65,446.218 2952.32,418.472 2953,378.159 2953.67,426.892 2954.35,432.439 2955.02,438.277 2955.7,421.571 2956.37,512.923 2957.05,464.603 2957.72,445.091 2958.4,482.133 2959.07,378.493 2959.75,422.131 2960.42,393.831 2961.1,369.587 2961.77,382.362 2962.45,337.556 2963.12,333.69 2963.8,371.105 2964.47,353.03 2965.15,320.107 2965.82,348.293 2966.5,346.3 2967.17,349.58 2967.85,318.721 2968.52,348.888 2969.2,354.704 2969.87,362.005 2970.55,368.616 2971.22,363.117 2971.9,343.291 2972.57,352.073 2973.25,373.886 2973.92,361.97 2974.6,318.947 2975.27,336.44 2975.95,301.969 2976.62,374.093 2977.3,297.65 2977.97,384.028 2978.64,322.827 2979.32,314.717 2979.99,349.254 2980.67,344.286 2981.34,321.443 2982.02,340.138 2982.69,329.049 2983.37,502.235 2984.04,541.311 2984.72,592.171 2985.39,556.247 2986.07,547.71 2986.74,504.76 2987.42,534.264 2988.09,560.245 2988.77,581.741 2989.44,544.301 2990.12,530.975 2990.79,488.791 2991.47,518.616 2992.14,488.428 2992.82,546.412 2993.49,529.676 2994.17,494.915 2994.84,526.396 2995.52,556.699 2996.19,539.05 2996.87,495.507 2997.54,497.748 2998.22,466.585 2998.89,538.197 2999.57,555.983 3000.24,549.625 3000.92,539.531 3001.59,473.64 3002.27,459.742 3002.94,338.242 3003.62,336.948 3004.29,369.891 3004.97,336.881 3005.64,328.409 3006.32,378.877 3006.99,327.475 3007.67,377.276 3008.34,330.579 3009.02,377.189 3009.69,336.945 3010.37,370.525 3011.04,336.106 3011.72,392.002 3012.39,387.125 3013.07,393.305 3013.74,432.33 3014.42,438.108 3015.09,425.023 3015.77,421.753 3016.44,424.97 3017.12,319.244 3017.79,391.6 3018.47,327.58 3019.14,355.543 3019.82,381.888 3020.49,319.123 3021.17,389.755 3021.84,314.782 3022.52,373.625 3023.19,321.163 3023.87,380.609 3024.54,422.818 3025.21,351.096 3025.89,332.427 3026.56,316.955 3027.24,353.558 3027.91,373.621 3028.59,382.367 3029.26,366.886 3029.94,361.602 3030.61,367.198 3031.29,305.4 3031.96,359.087 3032.64,365.34 3033.31,349.921 3033.99,371.398 3034.66,325.261 3035.34,379.626 3036.01,350.205 3036.69,362.049 3037.36,353.031 3038.04,346.951 3038.71,346.631 3039.39,376.089 3040.06,323.973 3040.74,338.991 3041.41,337.337 3042.09,324.505 3042.76,347.032 3043.44,395.233 3044.11,495.818 3044.79,491.468 3045.46,548.261 3046.14,564.719 3046.81,533.066 3047.49,492.393 3048.16,488.337 3048.84,418.289 3049.51,452.144 3050.19,406.414 3050.86,333.274 3051.54,322.204 3052.21,339.464 3052.89,349.141 3053.56,325.414 3054.24,337.195 3054.91,345.54 3055.59,352.296 3056.26,319.197 3056.94,363.84 3057.61,350.753 3058.29,344.604 3058.96,376.104 3059.64,330.162 3060.31,360.136 3060.99,363.62 3061.66,338.47 3062.34,345.674 3063.01,313.889 3063.69,359.287 3064.36,366.819 3065.04,338.651 3065.71,316.988 3066.39,385.42 3067.06,310.164 3067.74,361.522 "/>
<path clip-path="url(#clip360)" d="M2591.24 693.754 L3052.62 693.754 L3052.62 590.074 L2591.24 590.074  Z" fill="#ffffff" fill-rule="evenodd" fill-opacity="1"/>
<polyline clip-path="url(#clip360)" style="stroke:#000000; stroke-linecap:round; stroke-linejoin:round; stroke-width:4; stroke-opacity:1; fill:none" points="2591.24,693.754 3052.62,693.754 3052.62,590.074 2591.24,590.074 2591.24,693.754 "/>
<polyline clip-path="url(#clip360)" style="stroke:#009af9; stroke-linecap:round; stroke-linejoin:round; stroke-width:2; stroke-opacity:1; fill:none" points="2624.62,641.914 2824.89,641.914 "/>
<path clip-path="url(#clip360)" d="M2862.95 628.477 L2862.95 641.463 L2868.83 641.463 Q2872.09 641.463 2873.87 639.773 Q2875.65 638.083 2875.65 634.958 Q2875.65 631.857 2873.87 630.167 Q2872.09 628.477 2868.83 628.477 L2862.95 628.477 M2858.27 624.634 L2868.83 624.634 Q2874.64 624.634 2877.6 627.273 Q2880.59 629.889 2880.59 634.958 Q2880.59 640.074 2877.6 642.69 Q2874.64 645.306 2868.83 645.306 L2862.95 645.306 L2862.95 659.194 L2858.27 659.194 L2858.27 624.634 Z" fill="#000000" fill-rule="evenodd" fill-opacity="1" /><path clip-path="url(#clip360)" d="M2886.86 624.634 L2908.71 624.634 L2908.71 628.57 L2891.53 628.57 L2891.53 638.801 L2907.99 638.801 L2907.99 642.736 L2891.53 642.736 L2891.53 655.259 L2909.13 655.259 L2909.13 659.194 L2886.86 659.194 L2886.86 624.634 Z" fill="#000000" fill-rule="evenodd" fill-opacity="1" /><path clip-path="url(#clip360)" d="M2916.81 624.634 L2921.49 624.634 L2921.49 638.801 L2938.48 638.801 L2938.48 624.634 L2943.15 624.634 L2943.15 659.194 L2938.48 659.194 L2938.48 642.736 L2921.49 642.736 L2921.49 659.194 L2916.81 659.194 L2916.81 624.634 Z" fill="#000000" fill-rule="evenodd" fill-opacity="1" /><path clip-path="url(#clip360)" d="M2952.46 624.634 L2959.43 624.634 L2968.25 648.153 L2977.11 624.634 L2984.08 624.634 L2984.08 659.194 L2979.52 659.194 L2979.52 628.847 L2970.61 652.551 L2965.91 652.551 L2957 628.847 L2957 659.194 L2952.46 659.194 L2952.46 624.634 Z" fill="#000000" fill-rule="evenodd" fill-opacity="1" /><path clip-path="url(#clip360)" d="M3019.24 627.296 L3019.24 632.227 Q3016.88 630.028 3014.2 628.94 Q3011.53 627.852 3008.52 627.852 Q3002.6 627.852 2999.45 631.486 Q2996.3 635.097 2996.3 641.949 Q2996.3 648.778 2999.45 652.412 Q3002.6 656.023 3008.52 656.023 Q3011.53 656.023 3014.2 654.935 Q3016.88 653.847 3019.24 651.648 L3019.24 656.532 Q3016.79 658.199 3014.03 659.032 Q3011.3 659.866 3008.25 659.866 Q3000.4 659.866 2995.89 655.074 Q2991.37 650.259 2991.37 641.949 Q2991.37 633.616 2995.89 628.824 Q3000.4 624.009 3008.25 624.009 Q3011.35 624.009 3014.08 624.843 Q3016.83 625.653 3019.24 627.296 Z" fill="#000000" fill-rule="evenodd" fill-opacity="1" /></svg>
