<?xml version="1.0" encoding="utf-8"?>
<svg xmlns="http://www.w3.org/2000/svg" xmlns:xlink="http://www.w3.org/1999/xlink" width="800" height="200" viewBox="0 0 3200 800">
<defs>
  <clipPath id="clip560">
    <rect x="0" y="0" width="3200" height="800"/>
  </clipPath>
</defs>
<path clip-path="url(#clip560)" d="M0 800 L3200 800 L3200 0 L0 0  Z" fill="#ffffff" fill-rule="evenodd" fill-opacity="1"/>
<defs>
  <clipPath id="clip561">
    <rect x="640" y="0" width="2241" height="800"/>
  </clipPath>
</defs>
<path clip-path="url(#clip560)" d="M148.696 716.048 L3152.76 716.048 L3152.76 47.2441 L148.696 47.2441  Z" fill="#ffffff" fill-rule="evenodd" fill-opacity="1"/>
<defs>
  <clipPath id="clip562">
    <rect x="148" y="47" width="3005" height="670"/>
  </clipPath>
</defs>
<polyline clip-path="url(#clip562)" style="stroke:#000000; stroke-linecap:round; stroke-linejoin:round; stroke-width:2; stroke-opacity:0.1; fill:none" points="232.999,716.048 232.999,47.2441 "/>
<polyline clip-path="url(#clip562)" style="stroke:#000000; stroke-linecap:round; stroke-linejoin:round; stroke-width:2; stroke-opacity:0.1; fill:none" points="950.109,716.048 950.109,47.2441 "/>
<polyline clip-path="url(#clip562)" style="stroke:#000000; stroke-linecap:round; stroke-linejoin:round; stroke-width:2; stroke-opacity:0.1; fill:none" points="1667.22,716.048 1667.22,47.2441 "/>
<polyline clip-path="url(#clip562)" style="stroke:#000000; stroke-linecap:round; stroke-linejoin:round; stroke-width:2; stroke-opacity:0.1; fill:none" points="2384.33,716.048 2384.33,47.2441 "/>
<polyline clip-path="url(#clip562)" style="stroke:#000000; stroke-linecap:round; stroke-linejoin:round; stroke-width:2; stroke-opacity:0.1; fill:none" points="3101.44,716.048 3101.44,47.2441 "/>
<polyline clip-path="url(#clip560)" style="stroke:#000000; stroke-linecap:round; stroke-linejoin:round; stroke-width:4; stroke-opacity:1; fill:none" points="148.696,716.048 3152.76,716.048 "/>
<polyline clip-path="url(#clip560)" style="stroke:#000000; stroke-linecap:round; stroke-linejoin:round; stroke-width:4; stroke-opacity:1; fill:none" points="232.999,716.048 232.999,697.15 "/>
<polyline clip-path="url(#clip560)" style="stroke:#000000; stroke-linecap:round; stroke-linejoin:round; stroke-width:4; stroke-opacity:1; fill:none" points="950.109,716.048 950.109,697.15 "/>
<polyline clip-path="url(#clip560)" style="stroke:#000000; stroke-linecap:round; stroke-linejoin:round; stroke-width:4; stroke-opacity:1; fill:none" points="1667.22,716.048 1667.22,697.15 "/>
<polyline clip-path="url(#clip560)" style="stroke:#000000; stroke-linecap:round; stroke-linejoin:round; stroke-width:4; stroke-opacity:1; fill:none" points="2384.33,716.048 2384.33,697.15 "/>
<polyline clip-path="url(#clip560)" style="stroke:#000000; stroke-linecap:round; stroke-linejoin:round; stroke-width:4; stroke-opacity:1; fill:none" points="3101.44,716.048 3101.44,697.15 "/>
<path clip-path="url(#clip560)" d="M232.999 753.367 Q229.388 753.367 227.559 756.931 Q225.754 760.473 225.754 767.603 Q225.754 774.709 227.559 778.274 Q229.388 781.815 232.999 781.815 Q236.633 781.815 238.439 778.274 Q240.267 774.709 240.267 767.603 Q240.267 760.473 238.439 756.931 Q236.633 753.367 232.999 753.367 M232.999 749.663 Q238.809 749.663 241.865 754.269 Q244.943 758.853 244.943 767.603 Q244.943 776.329 241.865 780.936 Q238.809 785.519 232.999 785.519 Q227.189 785.519 224.11 780.936 Q221.055 776.329 221.055 767.603 Q221.055 758.853 224.11 754.269 Q227.189 749.663 232.999 749.663 Z" fill="#000000" fill-rule="evenodd" fill-opacity="1" /><path clip-path="url(#clip560)" d="M894.635 780.913 L902.274 780.913 L902.274 754.547 L893.964 756.214 L893.964 751.955 L902.227 750.288 L906.903 750.288 L906.903 780.913 L914.542 780.913 L914.542 784.848 L894.635 784.848 L894.635 780.913 Z" fill="#000000" fill-rule="evenodd" fill-opacity="1" /><path clip-path="url(#clip560)" d="M933.987 753.367 Q930.375 753.367 928.547 756.931 Q926.741 760.473 926.741 767.603 Q926.741 774.709 928.547 778.274 Q930.375 781.815 933.987 781.815 Q937.621 781.815 939.426 778.274 Q941.255 774.709 941.255 767.603 Q941.255 760.473 939.426 756.931 Q937.621 753.367 933.987 753.367 M933.987 749.663 Q939.797 749.663 942.852 754.269 Q945.931 758.853 945.931 767.603 Q945.931 776.329 942.852 780.936 Q939.797 785.519 933.987 785.519 Q928.176 785.519 925.098 780.936 Q922.042 776.329 922.042 767.603 Q922.042 758.853 925.098 754.269 Q928.176 749.663 933.987 749.663 Z" fill="#000000" fill-rule="evenodd" fill-opacity="1" /><path clip-path="url(#clip560)" d="M964.148 753.367 Q960.537 753.367 958.709 756.931 Q956.903 760.473 956.903 767.603 Q956.903 774.709 958.709 778.274 Q960.537 781.815 964.148 781.815 Q967.783 781.815 969.588 778.274 Q971.417 774.709 971.417 767.603 Q971.417 760.473 969.588 756.931 Q967.783 753.367 964.148 753.367 M964.148 749.663 Q969.959 749.663 973.014 754.269 Q976.093 758.853 976.093 767.603 Q976.093 776.329 973.014 780.936 Q969.959 785.519 964.148 785.519 Q958.338 785.519 955.26 780.936 Q952.204 776.329 952.204 767.603 Q952.204 758.853 955.26 754.269 Q958.338 749.663 964.148 749.663 Z" fill="#000000" fill-rule="evenodd" fill-opacity="1" /><path clip-path="url(#clip560)" d="M994.31 753.367 Q990.699 753.367 988.87 756.931 Q987.065 760.473 987.065 767.603 Q987.065 774.709 988.87 778.274 Q990.699 781.815 994.31 781.815 Q997.945 781.815 999.75 778.274 Q1001.58 774.709 1001.58 767.603 Q1001.58 760.473 999.75 756.931 Q997.945 753.367 994.31 753.367 M994.31 749.663 Q1000.12 749.663 1003.18 754.269 Q1006.25 758.853 1006.25 767.603 Q1006.25 776.329 1003.18 780.936 Q1000.12 785.519 994.31 785.519 Q988.5 785.519 985.421 780.936 Q982.366 776.329 982.366 767.603 Q982.366 758.853 985.421 754.269 Q988.5 749.663 994.31 749.663 Z" fill="#000000" fill-rule="evenodd" fill-opacity="1" /><path clip-path="url(#clip560)" d="M1615.83 780.913 L1632.15 780.913 L1632.15 784.848 L1610.21 784.848 L1610.21 780.913 Q1612.87 778.158 1617.45 773.528 Q1622.06 768.876 1623.24 767.533 Q1625.48 765.01 1626.36 763.274 Q1627.27 761.515 1627.27 759.825 Q1627.27 757.07 1625.32 755.334 Q1623.4 753.598 1620.3 753.598 Q1618.1 753.598 1615.65 754.362 Q1613.21 755.126 1610.44 756.677 L1610.44 751.955 Q1613.26 750.82 1615.71 750.242 Q1618.17 749.663 1620.21 749.663 Q1625.58 749.663 1628.77 752.348 Q1631.96 755.033 1631.96 759.524 Q1631.96 761.654 1631.15 763.575 Q1630.37 765.473 1628.26 768.066 Q1627.68 768.737 1624.58 771.954 Q1621.48 775.149 1615.83 780.913 Z" fill="#000000" fill-rule="evenodd" fill-opacity="1" /><path clip-path="url(#clip560)" d="M1651.96 753.367 Q1648.35 753.367 1646.52 756.931 Q1644.72 760.473 1644.72 767.603 Q1644.72 774.709 1646.52 778.274 Q1648.35 781.815 1651.96 781.815 Q1655.6 781.815 1657.4 778.274 Q1659.23 774.709 1659.23 767.603 Q1659.23 760.473 1657.4 756.931 Q1655.6 753.367 1651.96 753.367 M1651.96 749.663 Q1657.77 749.663 1660.83 754.269 Q1663.91 758.853 1663.91 767.603 Q1663.91 776.329 1660.83 780.936 Q1657.77 785.519 1651.96 785.519 Q1646.15 785.519 1643.08 780.936 Q1640.02 776.329 1640.02 767.603 Q1640.02 758.853 1643.08 754.269 Q1646.15 749.663 1651.96 749.663 Z" fill="#000000" fill-rule="evenodd" fill-opacity="1" /><path clip-path="url(#clip560)" d="M1682.13 753.367 Q1678.52 753.367 1676.69 756.931 Q1674.88 760.473 1674.88 767.603 Q1674.88 774.709 1676.69 778.274 Q1678.52 781.815 1682.13 781.815 Q1685.76 781.815 1687.57 778.274 Q1689.4 774.709 1689.4 767.603 Q1689.4 760.473 1687.57 756.931 Q1685.76 753.367 1682.13 753.367 M1682.13 749.663 Q1687.94 749.663 1690.99 754.269 Q1694.07 758.853 1694.07 767.603 Q1694.07 776.329 1690.99 780.936 Q1687.94 785.519 1682.13 785.519 Q1676.32 785.519 1673.24 780.936 Q1670.18 776.329 1670.18 767.603 Q1670.18 758.853 1673.24 754.269 Q1676.32 749.663 1682.13 749.663 Z" fill="#000000" fill-rule="evenodd" fill-opacity="1" /><path clip-path="url(#clip560)" d="M1712.29 753.367 Q1708.68 753.367 1706.85 756.931 Q1705.04 760.473 1705.04 767.603 Q1705.04 774.709 1706.85 778.274 Q1708.68 781.815 1712.29 781.815 Q1715.92 781.815 1717.73 778.274 Q1719.56 774.709 1719.56 767.603 Q1719.56 760.473 1717.73 756.931 Q1715.92 753.367 1712.29 753.367 M1712.29 749.663 Q1718.1 749.663 1721.15 754.269 Q1724.23 758.853 1724.23 767.603 Q1724.23 776.329 1721.15 780.936 Q1718.1 785.519 1712.29 785.519 Q1706.48 785.519 1703.4 780.936 Q1700.34 776.329 1700.34 767.603 Q1700.34 758.853 1703.4 754.269 Q1706.48 749.663 1712.29 749.663 Z" fill="#000000" fill-rule="evenodd" fill-opacity="1" /><path clip-path="url(#clip560)" d="M2343.01 766.214 Q2346.37 766.931 2348.24 769.2 Q2350.14 771.468 2350.14 774.802 Q2350.14 779.917 2346.62 782.718 Q2343.1 785.519 2336.62 785.519 Q2334.45 785.519 2332.13 785.079 Q2329.84 784.663 2327.39 783.806 L2327.39 779.292 Q2329.33 780.427 2331.64 781.005 Q2333.96 781.584 2336.48 781.584 Q2340.88 781.584 2343.17 779.848 Q2345.49 778.112 2345.49 774.802 Q2345.49 771.746 2343.33 770.033 Q2341.2 768.297 2337.39 768.297 L2333.36 768.297 L2333.36 764.454 L2337.57 764.454 Q2341.02 764.454 2342.85 763.089 Q2344.68 761.7 2344.68 759.107 Q2344.68 756.445 2342.78 755.033 Q2340.9 753.598 2337.39 753.598 Q2335.46 753.598 2333.26 754.015 Q2331.07 754.431 2328.43 755.311 L2328.43 751.144 Q2331.09 750.404 2333.4 750.033 Q2335.74 749.663 2337.8 749.663 Q2343.13 749.663 2346.23 752.093 Q2349.33 754.501 2349.33 758.621 Q2349.33 761.492 2347.69 763.482 Q2346.04 765.45 2343.01 766.214 Z" fill="#000000" fill-rule="evenodd" fill-opacity="1" /><path clip-path="url(#clip560)" d="M2369.01 753.367 Q2365.39 753.367 2363.57 756.931 Q2361.76 760.473 2361.76 767.603 Q2361.76 774.709 2363.57 778.274 Q2365.39 781.815 2369.01 781.815 Q2372.64 781.815 2374.45 778.274 Q2376.27 774.709 2376.27 767.603 Q2376.27 760.473 2374.45 756.931 Q2372.64 753.367 2369.01 753.367 M2369.01 749.663 Q2374.82 749.663 2377.87 754.269 Q2380.95 758.853 2380.95 767.603 Q2380.95 776.329 2377.87 780.936 Q2374.82 785.519 2369.01 785.519 Q2363.2 785.519 2360.12 780.936 Q2357.06 776.329 2357.06 767.603 Q2357.06 758.853 2360.12 754.269 Q2363.2 749.663 2369.01 749.663 Z" fill="#000000" fill-rule="evenodd" fill-opacity="1" /><path clip-path="url(#clip560)" d="M2399.17 753.367 Q2395.56 753.367 2393.73 756.931 Q2391.92 760.473 2391.92 767.603 Q2391.92 774.709 2393.73 778.274 Q2395.56 781.815 2399.17 781.815 Q2402.8 781.815 2404.61 778.274 Q2406.44 774.709 2406.44 767.603 Q2406.44 760.473 2404.61 756.931 Q2402.8 753.367 2399.17 753.367 M2399.17 749.663 Q2404.98 749.663 2408.03 754.269 Q2411.11 758.853 2411.11 767.603 Q2411.11 776.329 2408.03 780.936 Q2404.98 785.519 2399.17 785.519 Q2393.36 785.519 2390.28 780.936 Q2387.22 776.329 2387.22 767.603 Q2387.22 758.853 2390.28 754.269 Q2393.36 749.663 2399.17 749.663 Z" fill="#000000" fill-rule="evenodd" fill-opacity="1" /><path clip-path="url(#clip560)" d="M2429.33 753.367 Q2425.72 753.367 2423.89 756.931 Q2422.08 760.473 2422.08 767.603 Q2422.08 774.709 2423.89 778.274 Q2425.72 781.815 2429.33 781.815 Q2432.96 781.815 2434.77 778.274 Q2436.6 774.709 2436.6 767.603 Q2436.6 760.473 2434.77 756.931 Q2432.96 753.367 2429.33 753.367 M2429.33 749.663 Q2435.14 749.663 2438.19 754.269 Q2441.27 758.853 2441.27 767.603 Q2441.27 776.329 2438.19 780.936 Q2435.14 785.519 2429.33 785.519 Q2423.52 785.519 2420.44 780.936 Q2417.38 776.329 2417.38 767.603 Q2417.38 758.853 2420.44 754.269 Q2423.52 749.663 2429.33 749.663 Z" fill="#000000" fill-rule="evenodd" fill-opacity="1" /><path clip-path="url(#clip560)" d="M3059.45 754.362 L3047.64 772.811 L3059.45 772.811 L3059.45 754.362 M3058.22 750.288 L3064.1 750.288 L3064.1 772.811 L3069.03 772.811 L3069.03 776.7 L3064.1 776.7 L3064.1 784.848 L3059.45 784.848 L3059.45 776.7 L3043.85 776.7 L3043.85 772.186 L3058.22 750.288 Z" fill="#000000" fill-rule="evenodd" fill-opacity="1" /><path clip-path="url(#clip560)" d="M3086.76 753.367 Q3083.15 753.367 3081.32 756.931 Q3079.52 760.473 3079.52 767.603 Q3079.52 774.709 3081.32 778.274 Q3083.15 781.815 3086.76 781.815 Q3090.4 781.815 3092.2 778.274 Q3094.03 774.709 3094.03 767.603 Q3094.03 760.473 3092.2 756.931 Q3090.4 753.367 3086.76 753.367 M3086.76 749.663 Q3092.57 749.663 3095.63 754.269 Q3098.71 758.853 3098.71 767.603 Q3098.71 776.329 3095.63 780.936 Q3092.57 785.519 3086.76 785.519 Q3080.95 785.519 3077.87 780.936 Q3074.82 776.329 3074.82 767.603 Q3074.82 758.853 3077.87 754.269 Q3080.95 749.663 3086.76 749.663 Z" fill="#000000" fill-rule="evenodd" fill-opacity="1" /><path clip-path="url(#clip560)" d="M3116.93 753.367 Q3113.31 753.367 3111.49 756.931 Q3109.68 760.473 3109.68 767.603 Q3109.68 774.709 3111.49 778.274 Q3113.31 781.815 3116.93 781.815 Q3120.56 781.815 3122.37 778.274 Q3124.19 774.709 3124.19 767.603 Q3124.19 760.473 3122.37 756.931 Q3120.56 753.367 3116.93 753.367 M3116.93 749.663 Q3122.74 749.663 3125.79 754.269 Q3128.87 758.853 3128.87 767.603 Q3128.87 776.329 3125.79 780.936 Q3122.74 785.519 3116.93 785.519 Q3111.12 785.519 3108.04 780.936 Q3104.98 776.329 3104.98 767.603 Q3104.98 758.853 3108.04 754.269 Q3111.12 749.663 3116.93 749.663 Z" fill="#000000" fill-rule="evenodd" fill-opacity="1" /><path clip-path="url(#clip560)" d="M3147.09 753.367 Q3143.48 753.367 3141.65 756.931 Q3139.84 760.473 3139.84 767.603 Q3139.84 774.709 3141.65 778.274 Q3143.48 781.815 3147.09 781.815 Q3150.72 781.815 3152.53 778.274 Q3154.36 774.709 3154.36 767.603 Q3154.36 760.473 3152.53 756.931 Q3150.72 753.367 3147.09 753.367 M3147.09 749.663 Q3152.9 749.663 3155.95 754.269 Q3159.03 758.853 3159.03 767.603 Q3159.03 776.329 3155.95 780.936 Q3152.9 785.519 3147.09 785.519 Q3141.28 785.519 3138.2 780.936 Q3135.14 776.329 3135.14 767.603 Q3135.14 758.853 3138.2 754.269 Q3141.28 749.663 3147.09 749.663 Z" fill="#000000" fill-rule="evenodd" fill-opacity="1" /><polyline clip-path="url(#clip562)" style="stroke:#000000; stroke-linecap:round; stroke-linejoin:round; stroke-width:2; stroke-opacity:0.1; fill:none" points="148.696,716.048 3152.76,716.048 "/>
<polyline clip-path="url(#clip562)" style="stroke:#000000; stroke-linecap:round; stroke-linejoin:round; stroke-width:2; stroke-opacity:0.1; fill:none" points="148.696,576.714 3152.76,576.714 "/>
<polyline clip-path="url(#clip562)" style="stroke:#000000; stroke-linecap:round; stroke-linejoin:round; stroke-width:2; stroke-opacity:0.1; fill:none" points="148.696,437.38 3152.76,437.38 "/>
<polyline clip-path="url(#clip562)" style="stroke:#000000; stroke-linecap:round; stroke-linejoin:round; stroke-width:2; stroke-opacity:0.1; fill:none" points="148.696,298.046 3152.76,298.046 "/>
<polyline clip-path="url(#clip562)" style="stroke:#000000; stroke-linecap:round; stroke-linejoin:round; stroke-width:2; stroke-opacity:0.1; fill:none" points="148.696,158.711 3152.76,158.711 "/>
<polyline clip-path="url(#clip560)" style="stroke:#000000; stroke-linecap:round; stroke-linejoin:round; stroke-width:4; stroke-opacity:1; fill:none" points="148.696,716.048 148.696,47.2441 "/>
<polyline clip-path="url(#clip560)" style="stroke:#000000; stroke-linecap:round; stroke-linejoin:round; stroke-width:4; stroke-opacity:1; fill:none" points="148.696,716.048 167.593,716.048 "/>
<polyline clip-path="url(#clip560)" style="stroke:#000000; stroke-linecap:round; stroke-linejoin:round; stroke-width:4; stroke-opacity:1; fill:none" points="148.696,576.714 167.593,576.714 "/>
<polyline clip-path="url(#clip560)" style="stroke:#000000; stroke-linecap:round; stroke-linejoin:round; stroke-width:4; stroke-opacity:1; fill:none" points="148.696,437.38 167.593,437.38 "/>
<polyline clip-path="url(#clip560)" style="stroke:#000000; stroke-linecap:round; stroke-linejoin:round; stroke-width:4; stroke-opacity:1; fill:none" points="148.696,298.046 167.593,298.046 "/>
<polyline clip-path="url(#clip560)" style="stroke:#000000; stroke-linecap:round; stroke-linejoin:round; stroke-width:4; stroke-opacity:1; fill:none" points="148.696,158.711 167.593,158.711 "/>
<path clip-path="url(#clip560)" d="M88.7512 701.847 Q85.1401 701.847 83.3114 705.411 Q81.5058 708.953 81.5058 716.083 Q81.5058 723.189 83.3114 726.754 Q85.1401 730.295 88.7512 730.295 Q92.3854 730.295 94.1909 726.754 Q96.0196 723.189 96.0196 716.083 Q96.0196 708.953 94.1909 705.411 Q92.3854 701.847 88.7512 701.847 M88.7512 698.143 Q94.5613 698.143 97.6169 702.749 Q100.696 707.333 100.696 716.083 Q100.696 724.809 97.6169 729.416 Q94.5613 733.999 88.7512 733.999 Q82.941 733.999 79.8623 729.416 Q76.8068 724.809 76.8068 716.083 Q76.8068 707.333 79.8623 702.749 Q82.941 698.143 88.7512 698.143 Z" fill="#000000" fill-rule="evenodd" fill-opacity="1" /><path clip-path="url(#clip560)" d="M79.7929 559.434 L98.1493 559.434 L98.1493 563.369 L84.0753 563.369 L84.0753 571.841 Q85.0938 571.494 86.1123 571.332 Q87.1308 571.147 88.1493 571.147 Q93.9363 571.147 97.3159 574.318 Q100.696 577.489 100.696 582.906 Q100.696 588.485 97.2233 591.586 Q93.7511 594.665 87.4317 594.665 Q85.2558 594.665 82.9873 594.295 Q80.7419 593.924 78.3346 593.184 L78.3346 588.485 Q80.4179 589.619 82.6401 590.174 Q84.8623 590.73 87.3391 590.73 Q91.3437 590.73 93.6817 588.623 Q96.0196 586.517 96.0196 582.906 Q96.0196 579.295 93.6817 577.188 Q91.3437 575.082 87.3391 575.082 Q85.4641 575.082 83.5892 575.498 Q81.7373 575.915 79.7929 576.795 L79.7929 559.434 Z" fill="#000000" fill-rule="evenodd" fill-opacity="1" /><path clip-path="url(#clip560)" d="M49.3995 450.724 L57.0384 450.724 L57.0384 424.359 L48.7282 426.026 L48.7282 421.766 L56.9921 420.1 L61.668 420.1 L61.668 450.724 L69.3068 450.724 L69.3068 454.66 L49.3995 454.66 L49.3995 450.724 Z" fill="#000000" fill-rule="evenodd" fill-opacity="1" /><path clip-path="url(#clip560)" d="M88.7512 423.178 Q85.1401 423.178 83.3114 426.743 Q81.5058 430.285 81.5058 437.414 Q81.5058 444.521 83.3114 448.086 Q85.1401 451.627 88.7512 451.627 Q92.3854 451.627 94.1909 448.086 Q96.0196 444.521 96.0196 437.414 Q96.0196 430.285 94.1909 426.743 Q92.3854 423.178 88.7512 423.178 M88.7512 419.475 Q94.5613 419.475 97.6169 424.081 Q100.696 428.664 100.696 437.414 Q100.696 446.141 97.6169 450.748 Q94.5613 455.331 88.7512 455.331 Q82.941 455.331 79.8623 450.748 Q76.8068 446.141 76.8068 437.414 Q76.8068 428.664 79.8623 424.081 Q82.941 419.475 88.7512 419.475 Z" fill="#000000" fill-rule="evenodd" fill-opacity="1" /><path clip-path="url(#clip560)" d="M50.3949 311.39 L58.0337 311.39 L58.0337 285.025 L49.7236 286.691 L49.7236 282.432 L57.9874 280.766 L62.6633 280.766 L62.6633 311.39 L70.3022 311.39 L70.3022 315.326 L50.3949 315.326 L50.3949 311.39 Z" fill="#000000" fill-rule="evenodd" fill-opacity="1" /><path clip-path="url(#clip560)" d="M79.7929 280.766 L98.1493 280.766 L98.1493 284.701 L84.0753 284.701 L84.0753 293.173 Q85.0938 292.826 86.1123 292.664 Q87.1308 292.478 88.1493 292.478 Q93.9363 292.478 97.3159 295.65 Q100.696 298.821 100.696 304.238 Q100.696 309.816 97.2233 312.918 Q93.7511 315.997 87.4317 315.997 Q85.2558 315.997 82.9873 315.626 Q80.7419 315.256 78.3346 314.515 L78.3346 309.816 Q80.4179 310.951 82.6401 311.506 Q84.8623 312.062 87.3391 312.062 Q91.3437 312.062 93.6817 309.955 Q96.0196 307.849 96.0196 304.238 Q96.0196 300.627 93.6817 298.52 Q91.3437 296.414 87.3391 296.414 Q85.4641 296.414 83.5892 296.83 Q81.7373 297.247 79.7929 298.127 L79.7929 280.766 Z" fill="#000000" fill-rule="evenodd" fill-opacity="1" /><path clip-path="url(#clip560)" d="M52.6171 172.056 L68.9365 172.056 L68.9365 175.991 L46.9921 175.991 L46.9921 172.056 Q49.6541 169.302 54.2375 164.672 Q58.8439 160.019 60.0245 158.677 Q62.2698 156.154 63.1494 154.417 Q64.0522 152.658 64.0522 150.968 Q64.0522 148.214 62.1078 146.478 Q60.1865 144.742 57.0847 144.742 Q54.8856 144.742 52.4319 145.505 Q50.0014 146.269 47.2236 147.82 L47.2236 143.098 Q50.0477 141.964 52.5014 141.385 Q54.955 140.806 56.9921 140.806 Q62.3624 140.806 65.5568 143.492 Q68.7513 146.177 68.7513 150.667 Q68.7513 152.797 67.9411 154.718 Q67.1541 156.616 65.0476 159.209 Q64.4689 159.88 61.367 163.098 Q58.2652 166.292 52.6171 172.056 Z" fill="#000000" fill-rule="evenodd" fill-opacity="1" /><path clip-path="url(#clip560)" d="M88.7512 144.51 Q85.1401 144.51 83.3114 148.075 Q81.5058 151.617 81.5058 158.746 Q81.5058 165.853 83.3114 169.417 Q85.1401 172.959 88.7512 172.959 Q92.3854 172.959 94.1909 169.417 Q96.0196 165.853 96.0196 158.746 Q96.0196 151.617 94.1909 148.075 Q92.3854 144.51 88.7512 144.51 M88.7512 140.806 Q94.5613 140.806 97.6169 145.413 Q100.696 149.996 100.696 158.746 Q100.696 167.473 97.6169 172.079 Q94.5613 176.663 88.7512 176.663 Q82.941 176.663 79.8623 172.079 Q76.8068 167.473 76.8068 158.746 Q76.8068 149.996 79.8623 145.413 Q82.941 140.806 88.7512 140.806 Z" fill="#000000" fill-rule="evenodd" fill-opacity="1" /><polyline clip-path="url(#clip562)" style="stroke:#009af9; stroke-linecap:round; stroke-linejoin:round; stroke-width:2; stroke-opacity:1; fill:none" points="233.716,356.981 234.433,358.856 235.15,348.268 235.867,411.925 236.585,344.943 237.302,350.728 238.019,427.615 238.736,340.963 239.453,504.85 240.17,437.596 240.887,346.271 241.604,360.595 242.321,349.701 243.039,457.368 243.756,434.611 244.473,348.741 245.19,379.781 245.907,381.161 246.624,351.223 247.341,392.784 248.058,345.809 248.775,367.859 249.493,467.361 250.21,438.853 250.927,353.878 251.644,399.002 252.361,466.171 253.078,384.509 253.795,345.511 254.512,354.094 255.229,476.854 255.947,396.98 256.664,373.913 257.381,353.129 258.098,389.944 258.815,391.678 259.532,385.704 260.249,356.284 260.966,497.152 261.683,384.012 262.401,351.312 263.118,422.601 263.835,340.467 264.552,356.97 265.269,335.222 265.986,374.238 266.703,357.161 267.42,345.824 268.137,369.81 268.855,338.735 269.572,409.949 270.289,425.055 271.006,352.663 271.723,356.828 272.44,347.316 273.157,437.898 273.874,359.01 274.591,427.673 275.309,548.213 276.026,353.552 276.743,488.904 277.46,483.597 278.177,347.86 278.894,362.194 279.611,349.951 280.328,425.905 281.045,337.514 281.762,459.562 282.48,449.466 283.197,495.249 283.914,339.697 284.631,360.041 285.348,396.346 286.065,475.037 286.782,371.865 287.499,541.769 288.216,339.951 288.934,342.409 289.651,355.757 290.368,345.304 291.085,358.935 291.802,358.563 292.519,350.922 293.236,338.045 293.953,408.202 294.67,458.942 295.388,437.684 296.105,339.808 296.822,346.549 297.539,369.614 298.256,427.288 298.973,485.602 299.69,464.984 300.407,365.142 301.124,494.571 301.842,397.834 302.559,372.836 303.276,343.064 303.993,416.043 304.71,460.399 305.427,342.251 306.144,443.376 306.861,479.777 307.578,361.138 308.296,369.93 309.013,472.62 309.73,528.736 310.447,436.24 311.164,507.655 311.881,536.872 312.598,340.642 313.315,454.442 314.032,341.023 314.75,357.066 315.467,443.438 316.184,379.835 316.901,350.809 317.618,354.063 318.335,398.264 319.052,466.708 319.769,506.892 320.486,353.023 321.204,380.629 321.921,343.615 322.638,533.048 323.355,353.197 324.072,361.793 324.789,418.252 325.506,389.925 326.223,359.907 326.94,383.618 327.658,343.71 328.375,369.97 329.092,337.723 329.809,351.915 330.526,350.344 331.243,436.876 331.96,430.349 332.677,356.059 333.394,349.15 334.112,391.886 334.829,353.701 335.546,360.101 336.263,376.556 336.98,411.608 337.697,364.623 338.414,414.057 339.131,336.561 339.848,366.211 340.566,517.335 341.283,381.999 342,345.214 342.717,374.148 343.434,390.121 344.151,353.31 344.868,339.521 345.585,349.809 346.302,426.494 347.02,377.786 347.737,446.765 348.454,407.47 349.171,355.892 349.888,348.898 350.605,375.435 351.322,552.038 352.039,449.172 352.756,547.201 353.474,391.346 354.191,348.108 354.908,348.513 355.625,433.839 356.342,475.174 357.059,398.334 357.776,392.154 358.493,353.518 359.21,356.838 359.928,363.038 360.645,342.92 361.362,349.747 362.079,420.12 362.796,339.417 363.513,337.839 364.23,339.004 364.947,356.835 365.664,359.145 366.381,359.873 367.099,351.422 367.816,376.749 368.533,390.666 369.25,349.654 369.967,439.365 370.684,429.387 371.401,337.655 372.118,488.38 372.835,404.496 373.553,405.969 374.27,492.578 374.987,354.717 375.704,360.65 376.421,523.989 377.138,411.608 377.855,467.612 378.572,387.898 379.289,352.613 380.007,454.98 380.724,347.508 381.441,411.285 382.158,436.208 382.875,375.537 383.592,439.329 384.309,355.102 385.026,369.795 385.743,401.933 386.461,570.398 387.178,337.422 387.895,353.571 388.612,345.523 389.329,362.106 390.046,345.968 390.763,437.267 391.48,342.134 392.197,435.949 392.915,348.199 393.632,396.436 394.349,359.819 395.066,365.731 395.783,357.016 396.5,354.636 397.217,404.513 397.934,379.18 398.651,454.211 399.369,344.93 400.086,328.796 400.803,358.739 401.52,438.112 402.237,368.341 402.954,386.53 403.671,411.104 404.388,422.796 405.105,383.907 405.823,446.396 406.54,357.83 407.257,350.545 407.974,353.72 408.691,367.319 409.408,426.011 410.125,403.793 410.842,363.95 411.559,360.375 412.277,348.525 412.994,346.86 413.711,410.909 414.428,552.257 415.145,347.213 415.862,499.406 416.579,562.382 417.296,371.415 418.013,361.712 418.731,571.928 419.448,365.15 420.165,352.572 420.882,396.672 421.599,479.798 422.316,353.676 423.033,398.303 423.75,529.936 424.467,342.079 425.185,365.778 425.902,375.2 426.619,347.97 427.336,337.029 428.053,446.289 428.77,345.74 429.487,403.362 430.204,479.806 430.921,413.71 431.639,414.618 432.356,353.584 433.073,353.785 433.79,347.074 434.507,423.363 435.224,352.573 435.941,348.002 436.658,360.711 437.375,348.663 438.093,421.493 438.81,497.834 439.527,527.624 440.244,339.696 440.961,352.149 441.678,352.587 442.395,350.551 443.112,353.789 443.829,459.651 444.546,370.263 445.264,444.838 445.981,398.51 446.698,375.705 447.415,352.748 448.132,453.348 448.849,415.129 449.566,374.099 450.283,335.896 451,423.403 451.718,350.871 452.435,340.291 453.152,339.926 453.869,412.357 454.586,446.323 455.303,347.831 456.02,358.577 456.737,366.768 457.454,353.074 458.172,353.679 458.889,384.685 459.606,374.594 460.323,471.87 461.04,409.657 461.757,465.693 462.474,373.613 463.191,363.981 463.908,359.833 464.626,442.482 465.343,484.171 466.06,413.517 466.777,548.113 467.494,367.821 468.211,340.544 468.928,356.941 469.645,413.774 470.362,370.025 471.08,361.217 471.797,358.325 472.514,408.088 473.231,352.815 473.948,361.804 474.665,346.901 475.382,382.834 476.099,352.954 476.816,355.24 477.534,437.596 478.251,363.336 478.968,346.713 479.685,406.907 480.402,346.575 481.119,357.56 481.836,361.08 482.553,346.003 483.27,362.132 483.988,337.794 484.705,372.144 485.422,339.894 486.139,371.133 486.856,352.984 487.573,413.361 488.29,360.536 489.007,375.068 489.724,433.422 490.442,345.697 491.159,375.084 491.876,355.208 492.593,357.422 493.31,371.418 494.027,381.623 494.744,358.924 495.461,365.092 496.178,340.679 496.896,373.309 497.613,451.383 498.33,371.512 499.047,491.989 499.764,370.075 500.481,337.573 501.198,439.105 501.915,521.169 502.632,359.823 503.35,346.05 504.067,362.505 504.784,346.003 505.501,356.089 506.218,356.882 506.935,335.313 507.652,463.27 508.369,343.661 509.086,351.542 509.804,349.252 510.521,353.367 511.238,374.486 511.955,362.361 512.672,448.106 513.389,425.689 514.106,341.82 514.823,488.642 515.54,360.856 516.258,345.778 516.975,344.34 517.692,364.126 518.409,343.864 519.126,446.415 519.843,353.087 520.56,475.802 521.277,345.931 521.994,359.88 522.711,347.97 523.429,426.369 524.146,384.093 524.863,436.187 525.58,363.477 526.297,362.15 527.014,351.789 527.731,348.986 528.448,359.998 529.165,343.238 529.883,349.895 530.6,345.035 531.317,367.598 532.034,421.983 532.751,359.148 533.468,346.883 534.185,360.855 534.902,374.481 535.619,336.826 536.337,392.032 537.054,398.579 537.771,367.342 538.488,339.483 539.205,532.3 539.922,360.798 540.639,343.835 541.356,473.458 542.073,350.811 542.791,442.022 543.508,360.39 544.225,345.514 544.942,349.474 545.659,436.962 546.376,361.761 547.093,366.976 547.81,338.723 548.527,372.272 549.245,355.41 549.962,509.421 550.679,365.524 551.396,390.603 552.113,342.576 552.83,360.656 553.547,344.178 554.264,448.581 554.981,365.704 555.699,364.679 556.416,339.439 557.133,362.314 557.85,432.804 558.567,356.409 559.284,475.987 560.001,464.515 560.718,430.432 561.435,350.544 562.153,363.836 562.87,427.444 563.587,440.322 564.304,382.161 565.021,548.519 565.738,353.976 566.455,348.751 567.172,358.023 567.889,348.74 568.607,371.744 569.324,357.441 570.041,418.54 570.758,423.652 571.475,457.061 572.192,346.068 572.909,421.232 573.626,355.418 574.343,355.751 575.061,341.311 575.778,367.029 576.495,356.802 577.212,338.495 577.929,403.795 578.646,354.7 579.363,376.975 580.08,377.052 580.797,328.008 581.515,354.194 582.232,354.077 582.949,349.487 583.666,357.487 584.383,396.59 585.1,508.135 585.817,367.582 586.534,362.226 587.251,347.54 587.969,356.316 588.686,352.834 589.403,385.752 590.12,350.858 590.837,348.876 591.554,338.187 592.271,369.65 592.988,439.712 593.705,357.524 594.423,347.978 595.14,363.808 595.857,426.622 596.574,474.727 597.291,378.172 598.008,358.7 598.725,347.141 599.442,344.881 600.159,354.436 600.877,356.985 601.594,350.071 602.311,412.947 603.028,372.322 603.745,422.69 604.462,359.005 605.179,381.488 605.896,400.079 606.613,351.487 607.33,364.216 608.048,351.648 608.765,388.813 609.482,494.674 610.199,358.769 610.916,348.593 611.633,363.217 612.35,418.401 613.067,357.326 613.784,356.92 614.502,447.067 615.219,372.269 615.936,367.904 616.653,407.565 617.37,473.549 618.087,448.874 618.804,377.891 619.521,364.689 620.238,379.334 620.956,475.369 621.673,420.543 622.39,355.723 623.107,349.323 623.824,549.423 624.541,339.364 625.258,363.845 625.975,361.556 626.692,349.039 627.41,347.845 628.127,348.612 628.844,359.766 629.561,347.68 630.278,416.805 630.995,360.164 631.712,359.968 632.429,412.751 633.146,350.232 633.864,359.411 634.581,366.472 635.298,344.77 636.015,355.656 636.732,351.304 637.449,353.004 638.166,350.111 638.883,356.675 639.6,456.561 640.318,448.414 641.035,363.313 641.752,472.093 642.469,346.794 643.186,471.265 643.903,358.197 644.62,462.188 645.337,373.935 646.054,374.379 646.772,359.108 647.489,338.311 648.206,360.027 648.923,359.421 649.64,357.502 650.357,344.112 651.074,434.054 651.791,385.235 652.508,419.402 653.226,353.043 653.943,461.993 654.66,352.481 655.377,353.633 656.094,483.162 656.811,482.947 657.528,506.628 658.245,417.571 658.962,389.707 659.68,344.515 660.397,382.467 661.114,358.069 661.831,336.775 662.548,340.829 663.265,365.443 663.982,342.815 664.699,348.805 665.416,349.002 666.134,387.716 666.851,468.836 667.568,460.341 668.285,355.566 669.002,364.132 669.719,346.426 670.436,354.362 671.153,385.142 671.87,356.9 672.588,352.566 673.305,354.3 674.022,354.571 674.739,371.072 675.456,419.234 676.173,374.652 676.89,341.399 677.607,367.41 678.324,348.57 679.042,355.343 679.759,363.862 680.476,388.253 681.193,349.862 681.91,516.712 682.627,468.879 683.344,345.432 684.061,354.261 684.778,376.377 685.495,351.583 686.213,441.282 686.93,360.179 687.647,358.802 688.364,477.419 689.081,359.156 689.798,370.896 690.515,352.56 691.232,346.412 691.949,363.238 692.667,434.514 693.384,356.899 694.101,415.995 694.818,457.633 695.535,341.528 696.252,468.234 696.969,406.732 697.686,403.874 698.403,355.353 699.121,351.403 699.838,357.371 700.555,407.002 701.272,336.922 701.989,560.134 702.706,358.25 703.423,408.73 704.14,398.605 704.857,360.454 705.575,345.447 706.292,367.336 707.009,380.182 707.726,430.767 708.443,328.415 709.16,379.713 709.877,337.223 710.594,543.217 711.311,385.217 712.029,375.222 712.746,359.531 713.463,346.015 714.18,472.351 714.897,398.505 715.614,367.558 716.331,354.003 717.048,354.019 717.765,337.983 718.483,369.537 719.2,467.063 719.917,481.597 720.634,454.557 721.351,488.897 722.068,505.969 722.785,467.347 723.502,359.527 724.219,349.376 724.937,357.133 725.654,358.042 726.371,472.013 727.088,367.052 727.805,353.629 728.522,404.448 729.239,337.9 729.956,395.443 730.673,376.658 731.391,440.41 732.108,341.718 732.825,385.048 733.542,360.486 734.259,350.432 734.976,346.799 735.693,361.461 736.41,348.028 737.127,361.396 737.845,375.753 738.562,439.157 739.279,364.697 739.996,347.155 740.713,358.144 741.43,344.756 742.147,368.596 742.864,352.238 743.581,447.922 744.299,409.685 745.016,502.857 745.733,452.888 746.45,361.634 747.167,442.653 747.884,512.608 748.601,386.567 749.318,392.098 750.035,338.67 750.753,360.476 751.47,347.656 752.187,337.905 752.904,425.108 753.621,342.417 754.338,362.607 755.055,505.516 755.772,468.842 756.489,360.212 757.207,403.153 757.924,359.101 758.641,347.473 759.358,421.326 760.075,505.648 760.792,352.472 761.509,360.756 762.226,356.437 762.943,349.228 763.661,398.397 764.378,353.647 765.095,362.755 765.812,435.112 766.529,364.235 767.246,400.182 767.963,435.076 768.68,443.453 769.397,349.576 770.114,359.72 770.832,344.618 771.549,422.809 772.266,452.597 772.983,338.502 773.7,360.573 774.417,337.945 775.134,457.623 775.851,361.087 776.568,347.091 777.286,345.721 778.003,360.932 778.72,342.478 779.437,340.113 780.154,397.319 780.871,362.207 781.588,345.348 782.305,364.385 783.022,531.713 783.74,396.451 784.457,358.222 785.174,372.882 785.891,354.364 786.608,365.724 787.325,490.26 788.042,391.585 788.759,398.221 789.476,348.674 790.194,506.856 790.911,414.656 791.628,346.197 792.345,513.144 793.062,425.019 793.779,384.876 794.496,397.747 795.213,449.465 795.93,387.363 796.648,333.018 797.365,520.045 798.082,366.787 798.799,345.521 799.516,557.39 800.233,377.859 800.95,349.988 801.667,369.973 802.384,337.637 803.102,504.253 803.819,365.071 804.536,367.737 805.253,351.852 805.97,354.154 806.687,344.758 807.404,362.415 808.121,341.308 808.838,367.351 809.556,350.293 810.273,361.175 810.99,490.69 811.707,528.641 812.424,402.93 813.141,345.112 813.858,400.765 814.575,357.375 815.292,367.28 816.01,376.713 816.727,358.397 817.444,352.765 818.161,334.992 818.878,344.391 819.595,378.194 820.312,346.149 821.029,418.011 821.746,393.449 822.464,486.047 823.181,364.02 823.898,339.268 824.615,373.456 825.332,354.997 826.049,483.079 826.766,347.738 827.483,341.742 828.2,521.319 828.918,343.425 829.635,397.033 830.352,566.755 831.069,344.503 831.786,398.591 832.503,338.191 833.22,333.984 833.937,388.915 834.654,507.299 835.372,540.05 836.089,540.158 836.806,344.758 837.523,573.343 838.24,454.193 838.957,351.839 839.674,371.99 840.391,406.771 841.108,363.06 841.826,347.771 842.543,369.129 843.26,336.02 843.977,373.212 844.694,354.734 845.411,420.521 846.128,337.89 846.845,464.732 847.562,438.136 848.279,445.097 848.997,456.921 849.714,382.138 850.431,515.123 851.148,384.936 851.865,434.227 852.582,468.85 853.299,457.078 854.016,499.561 854.733,432.984 855.451,428.909 856.168,378.062 856.885,335.717 857.602,353.178 858.319,355.216 859.036,353.062 859.753,352.916 860.47,408.434 861.187,408.312 861.905,368.19 862.622,359.111 863.339,485.942 864.056,358.001 864.773,383.541 865.49,344.78 866.207,346.028 866.924,426.438 867.641,357.241 868.359,339.193 869.076,417.988 869.793,346.517 870.51,361.524 871.227,347.947 871.944,453.824 872.661,344.314 873.378,485.266 874.095,378.652 874.813,394.46 875.53,400.676 876.247,410.584 876.964,462.876 877.681,427.719 878.398,513.015 879.115,413.071 879.832,365.685 880.549,391.081 881.267,458.347 881.984,361.715 882.701,347.171 883.418,404.654 884.135,545.619 884.852,444.965 885.569,400.346 886.286,342.268 887.003,430.206 887.721,439.272 888.438,472.906 889.155,458.277 889.872,356.875 890.589,360.569 891.306,420.174 892.023,351.48 892.74,357.324 893.457,435.657 894.175,348.294 894.892,351.86 895.609,344.165 896.326,365.491 897.043,384.217 897.76,351.636 898.477,389.587 899.194,371.631 899.911,356.697 900.629,366.764 901.346,490.73 902.063,416.188 902.78,344.746 903.497,362.741 904.214,349.846 904.931,352.432 905.648,349.46 906.365,349.062 907.083,355.653 907.8,349.197 908.517,380.562 909.234,383.729 909.951,333.184 910.668,563.526 911.385,337.986 912.102,442.805 912.819,489.654 913.537,357.286 914.254,348.733 914.971,358.711 915.688,349.723 916.405,353.696 917.122,377.134 917.839,331.682 918.556,364.908 919.273,362.386 919.991,333.978 920.708,373.196 921.425,351.23 922.142,352.309 922.859,357.462 923.576,357.272 924.293,359.476 925.01,348.835 925.727,344.906 926.444,460.223 927.162,349.684 927.879,354.864 928.596,355.92 929.313,350.605 930.03,362.908 930.747,427.456 931.464,449.733 932.181,349.639 932.898,411.418 933.616,388.121 934.333,358.077 935.05,490.115 935.767,463.201 936.484,432.225 937.201,540.703 937.918,439.349 938.635,432.467 939.352,380.717 940.07,339.532 940.787,368.597 941.504,403.091 942.221,468.663 942.938,346.962 943.655,356.25 944.372,349.5 945.089,341.147 945.806,383.34 946.524,348.516 947.241,430.564 947.958,406.404 948.675,350.695 949.392,349.502 950.109,356.391 950.826,354.316 951.543,376.945 952.26,387.467 952.978,358.291 953.695,356.077 954.412,391.425 955.129,351.079 955.846,368.606 956.563,337.668 957.28,410.739 957.997,433.432 958.714,360.106 959.432,342.296 960.149,343.439 960.866,351.091 961.583,442.396 962.3,358.813 963.017,342.195 963.734,346.705 964.451,440.077 965.168,346.638 965.886,360.939 966.603,358.265 967.32,352.376 968.037,416.646 968.754,491.134 969.471,340.889 970.188,476.853 970.905,352.774 971.622,368.648 972.34,457.311 973.057,359.471 973.774,358.138 974.491,368.931 975.208,336.605 975.925,562.189 976.642,355.836 977.359,399.231 978.076,333.104 978.794,468.807 979.511,436.265 980.228,481.952 980.945,416.754 981.662,387.354 982.379,426.579 983.096,381.225 983.813,388.253 984.53,382.902 985.248,395.217 985.965,362.215 986.682,358.091 987.399,410.999 988.116,505.19 988.833,482.871 989.55,520.418 990.267,338.287 990.984,467.914 991.702,400.843 992.419,360.942 993.136,459.69 993.853,368.297 994.57,342.912 995.287,346.608 996.004,364.221 996.721,363.655 997.438,345.684 998.156,485.965 998.873,365.975 999.59,343.836 1000.31,397.651 1001.02,417.036 1001.74,439.827 1002.46,349.515 1003.18,382.254 1003.89,346.392 1004.61,343.587 1005.33,362.513 1006.04,363.51 1006.76,364.942 1007.48,453.271 1008.2,489.259 1008.91,352.1 1009.63,351.962 1010.35,411.44 1011.06,355.042 1011.78,392.153 1012.5,354.997 1013.21,366.321 1013.93,348.03 1014.65,411.48 1015.37,499.853 1016.08,340.66 1016.8,358.865 1017.52,357.081 1018.23,343.832 1018.95,350.026 1019.67,517.722 1020.39,519.821 1021.1,362.308 1021.82,354.633 1022.54,347.061 1023.25,353.728 1023.97,348.614 1024.69,349.606 1025.41,554.765 1026.12,420.042 1026.84,385.051 1027.56,376.136 1028.27,359.644 1028.99,443.898 1029.71,448.516 1030.43,409.399 1031.14,356.718 1031.86,531.232 1032.58,366.717 1033.29,348.597 1034.01,362.424 1034.73,354.096 1035.45,369.982 1036.16,469.571 1036.88,425.533 1037.6,343.873 1038.31,356.083 1039.03,396.523 1039.75,369.738 1040.47,496.469 1041.18,407.035 1041.9,502.18 1042.62,483.785 1043.33,389.558 1044.05,390.402 1044.77,333.855 1045.48,370.067 1046.2,374.468 1046.92,531.299 1047.64,361.174 1048.35,348.799 1049.07,356.361 1049.79,475.107 1050.5,335.15 1051.22,353.955 1051.94,338.114 1052.66,468.846 1053.37,329.803 1054.09,345.386 1054.81,333.621 1055.52,368.465 1056.24,337.141 1056.96,374.157 1057.68,356.649 1058.39,343.568 1059.11,471.727 1059.83,345.108 1060.54,364.25 1061.26,459.863 1061.98,437.129 1062.7,349.731 1063.41,368.797 1064.13,356.713 1064.85,360.272 1065.56,351.479 1066.28,443.95 1067,380.31 1067.72,497.238 1068.43,374.824 1069.15,383.465 1069.87,374.06 1070.58,423.262 1071.3,429.64 1072.02,490.612 1072.73,358.971 1073.45,429.361 1074.17,365.145 1074.89,341.06 1075.6,365.543 1076.32,353.9 1077.04,356.764 1077.75,339.801 1078.47,350.026 1079.19,357.141 1079.91,362.263 1080.62,456.058 1081.34,404.259 1082.06,361.089 1082.77,509.081 1083.49,468.298 1084.21,363.598 1084.93,344.131 1085.64,355.674 1086.36,360.371 1087.08,351.538 1087.79,360.709 1088.51,364.757 1089.23,343.65 1089.95,522.892 1090.66,479.75 1091.38,424.85 1092.1,348.958 1092.81,352.581 1093.53,362.934 1094.25,343.608 1094.97,477.806 1095.68,407.55 1096.4,470.162 1097.12,337.106 1097.83,385.473 1098.55,344.186 1099.27,468.721 1099.99,478.126 1100.7,346.674 1101.42,356.19 1102.14,417.749 1102.85,411.499 1103.57,379.768 1104.29,352.538 1105,355.552 1105.72,337.557 1106.44,363.529 1107.16,345.203 1107.87,555.777 1108.59,340.648 1109.31,356.413 1110.02,355.467 1110.74,359.061 1111.46,361.008 1112.18,404.666 1112.89,328.82 1113.61,510.821 1114.33,330.909 1115.04,505.514 1115.76,353.358 1116.48,372.431 1117.2,472.781 1117.91,350.418 1118.63,356.595 1119.35,343.033 1120.06,356.985 1120.78,394.395 1121.5,340.056 1122.22,351.735 1122.93,350.882 1123.65,340.669 1124.37,362.137 1125.08,344.5 1125.8,364.371 1126.52,350.523 1127.24,409.598 1127.95,472.421 1128.67,359.352 1129.39,354.268 1130.1,354.735 1130.82,353.009 1131.54,345.158 1132.26,373.966 1132.97,363.075 1133.69,345.174 1134.41,348.243 1135.12,361.105 1135.84,439.246 1136.56,352.542 1137.27,353.008 1137.99,347.293 1138.71,420.169 1139.43,382.069 1140.14,392.45 1140.86,351.55 1141.58,344.036 1142.29,455.824 1143.01,355.364 1143.73,387.937 1144.45,444.332 1145.16,364.292 1145.88,345.643 1146.6,513.129 1147.31,436.153 1148.03,362.82 1148.75,342.006 1149.47,367.96 1150.18,355.111 1150.9,350.685 1151.62,359.485 1152.33,336.618 1153.05,375.241 1153.77,334.112 1154.49,348.419 1155.2,358.992 1155.92,369.781 1156.64,383.725 1157.35,350.24 1158.07,463.253 1158.79,523.898 1159.51,382.735 1160.22,346.324 1160.94,454.222 1161.66,488.072 1162.37,367.945 1163.09,524.324 1163.81,363.665 1164.53,465.159 1165.24,333.636 1165.96,363.222 1166.68,332.03 1167.39,373.891 1168.11,360.903 1168.83,446.793 1169.54,370.916 1170.26,421.038 1170.98,337.887 1171.7,367.645 1172.41,405.778 1173.13,356.116 1173.85,353.723 1174.56,355.153 1175.28,364.322 1176,351.699 1176.72,345.167 1177.43,377.629 1178.15,355.284 1178.87,431.794 1179.58,483.503 1180.3,372.438 1181.02,335.934 1181.74,431.899 1182.45,364.049 1183.17,353.812 1183.89,346.409 1184.6,452.092 1185.32,342.529 1186.04,367.496 1186.76,393.512 1187.47,422.252 1188.19,374.203 1188.91,397.626 1189.62,403.09 1190.34,431.717 1191.06,353.025 1191.78,432.75 1192.49,343.63 1193.21,346.45 1193.93,392.433 1194.64,344.788 1195.36,348.427 1196.08,350.616 1196.8,557.298 1197.51,528.216 1198.23,358.142 1198.95,350.163 1199.66,390.198 1200.38,482.936 1201.1,355.417 1201.81,390.978 1202.53,365.921 1203.25,343.83 1203.97,495.746 1204.68,346.504 1205.4,438.716 1206.12,413.404 1206.83,523.142 1207.55,336.098 1208.27,351.416 1208.99,353.066 1209.7,351.794 1210.42,467.253 1211.14,466.136 1211.85,472.997 1212.57,431.168 1213.29,436.835 1214.01,494.325 1214.72,429.855 1215.44,373.643 1216.16,431.024 1216.87,427.595 1217.59,472.574 1218.31,462.49 1219.03,361.819 1219.74,440.218 1220.46,337.794 1221.18,372.012 1221.89,358.404 1222.61,359.265 1223.33,410.999 1224.05,349.99 1224.76,392.091 1225.48,374.759 1226.2,350.416 1226.91,519.833 1227.63,383.989 1228.35,443.477 1229.06,523.882 1229.78,345.947 1230.5,530.614 1231.22,376.004 1231.93,336.78 1232.65,488.66 1233.37,413.269 1234.08,351.968 1234.8,514.86 1235.52,372.579 1236.24,396.601 1236.95,350.643 1237.67,336.017 1238.39,375.525 1239.1,348.633 1239.82,441.986 1240.54,419.489 1241.26,410.719 1241.97,366.821 1242.69,527.903 1243.41,482.134 1244.12,513.324 1244.84,427.749 1245.56,415.354 1246.28,461.322 1246.99,354.367 1247.71,358.946 1248.43,541.308 1249.14,334.45 1249.86,340.551 1250.58,350.459 1251.3,355.593 1252.01,411.28 1252.73,336.437 1253.45,516.715 1254.16,386.188 1254.88,355.868 1255.6,358.019 1256.32,348.481 1257.03,360.86 1257.75,484.07 1258.47,372.226 1259.18,341.251 1259.9,358.13 1260.62,359.347 1261.33,355.76 1262.05,354.135 1262.77,350.909 1263.49,364.139 1264.2,344.109 1264.92,445.884 1265.64,352.119 1266.35,351.609 1267.07,343.397 1267.79,389.157 1268.51,406.911 1269.22,480.585 1269.94,349.881 1270.66,423.379 1271.37,359.691 1272.09,371.393 1272.81,365.992 1273.53,350.841 1274.24,346.739 1274.96,383.602 1275.68,500.228 1276.39,355.533 1277.11,359.069 1277.83,460.839 1278.55,423.923 1279.26,365.947 1279.98,335.563 1280.7,453.924 1281.41,468.493 1282.13,367.419 1282.85,354.182 1283.57,398.491 1284.28,371.532 1285,379.176 1285.72,362.356 1286.43,362.9 1287.15,482.896 1287.87,448.781 1288.59,489.89 1289.3,340.869 1290.02,461.372 1290.74,351.962 1291.45,348.246 1292.17,355.623 1292.89,345.185 1293.6,342.673 1294.32,361.786 1295.04,358.151 1295.76,437.686 1296.47,360.326 1297.19,351.135 1297.91,355.382 1298.62,410.374 1299.34,502.863 1300.06,335.33 1300.78,396.859 1301.49,459.251 1302.21,428.101 1302.93,344.025 1303.64,359.313 1304.36,425.946 1305.08,330.566 1305.8,432.63 1306.51,357.55 1307.23,355.572 1307.95,346.286 1308.66,357.238 1309.38,351.972 1310.1,347.234 1310.82,351.584 1311.53,345.755 1312.25,441.439 1312.97,370.276 1313.68,484.866 1314.4,375.304 1315.12,363.9 1315.84,357.11 1316.55,446.469 1317.27,347.902 1317.99,363.461 1318.7,351.69 1319.42,422.705 1320.14,492.486 1320.86,347.279 1321.57,346.433 1322.29,571.384 1323.01,356.827 1323.72,346.659 1324.44,356.985 1325.16,342.405 1325.87,378.095 1326.59,422.957 1327.31,355.439 1328.03,405.713 1328.74,353.228 1329.46,353.187 1330.18,426.987 1330.89,368.545 1331.61,335.41 1332.33,361.044 1333.05,340.819 1333.76,389.676 1334.48,352.861 1335.2,345.033 1335.91,383.79 1336.63,350.767 1337.35,354.417 1338.07,386.176 1338.78,350.297 1339.5,344.184 1340.22,441.225 1340.93,353.405 1341.65,505.604 1342.37,483.037 1343.09,397.178 1343.8,347.131 1344.52,347.449 1345.24,503.013 1345.95,342.165 1346.67,362.877 1347.39,411.741 1348.11,363.799 1348.82,351.752 1349.54,359.052 1350.26,336.149 1350.97,440.217 1351.69,339.774 1352.41,489.774 1353.13,391.245 1353.84,367.801 1354.56,551.931 1355.28,345.171 1355.99,544.806 1356.71,393.341 1357.43,356.11 1358.14,552.716 1358.86,434.466 1359.58,349.914 1360.3,356.618 1361.01,350.973 1361.73,356.301 1362.45,471.598 1363.16,482.823 1363.88,395.03 1364.6,343.387 1365.32,383.586 1366.03,340.022 1366.75,441.142 1367.47,416.614 1368.18,352.433 1368.9,357.547 1369.62,431.225 1370.34,423.448 1371.05,349.044 1371.77,365.052 1372.49,363.33 1373.2,386.274 1373.92,346.194 1374.64,355.523 1375.36,411.769 1376.07,346.18 1376.79,349.221 1377.51,351.474 1378.22,430.008 1378.94,353.124 1379.66,403.176 1380.38,367.141 1381.09,337.878 1381.81,382.584 1382.53,422.372 1383.24,424.021 1383.96,349.797 1384.68,387.533 1385.39,461.779 1386.11,359.69 1386.83,362.131 1387.55,408.517 1388.26,351.986 1388.98,356.199 1389.7,488.419 1390.41,468.558 1391.13,398.663 1391.85,480.656 1392.57,357.786 1393.28,456.058 1394,404.175 1394.72,558.917 1395.43,400.578 1396.15,358.097 1396.87,555.933 1397.59,460.125 1398.3,475.301 1399.02,342.736 1399.74,396.362 1400.45,460.627 1401.17,418.138 1401.89,435.247 1402.61,414.285 1403.32,426.794 1404.04,348.178 1404.76,356.649 1405.47,348.456 1406.19,460.565 1406.91,414.669 1407.63,402.427 1408.34,525.078 1409.06,401.437 1409.78,352.889 1410.49,360.342 1411.21,349.008 1411.93,345.723 1412.65,345.386 1413.36,592.069 1414.08,455.558 1414.8,335.701 1415.51,360.781 1416.23,529.916 1416.95,358.851 1417.66,515.288 1418.38,420.445 1419.1,407.28 1419.82,434.787 1420.53,339.701 1421.25,399.499 1421.97,493.427 1422.68,356.99 1423.4,396.028 1424.12,375.67 1424.84,426.982 1425.55,445.538 1426.27,472.503 1426.99,342.024 1427.7,344.361 1428.42,364.897 1429.14,377.777 1429.86,484.212 1430.57,462.524 1431.29,343.009 1432.01,360.765 1432.72,519.731 1433.44,371.188 1434.16,479.763 1434.88,336.951 1435.59,375.231 1436.31,449.645 1437.03,412.531 1437.74,504.388 1438.46,351.894 1439.18,350.655 1439.9,384.351 1440.61,402.312 1441.33,365.561 1442.05,368.136 1442.76,372.234 1443.48,351.959 1444.2,345.336 1444.92,433.346 1445.63,373.31 1446.35,338.66 1447.07,436.823 1447.78,526.974 1448.5,467.901 1449.22,364.296 1449.93,351.337 1450.65,349.756 1451.37,354.672 1452.09,351.953 1452.8,413.167 1453.52,410.474 1454.24,372.547 1454.95,341.378 1455.67,363.199 1456.39,340.198 1457.11,366.676 1457.82,541.269 1458.54,337.64 1459.26,372.55 1459.97,346.533 1460.69,383.473 1461.41,437.392 1462.13,361.038 1462.84,386.5 1463.56,357.896 1464.28,348.285 1464.99,485.545 1465.71,484.218 1466.43,393.785 1467.15,335.154 1467.86,352.403 1468.58,403.928 1469.3,363.348 1470.01,342.79 1470.73,434.893 1471.45,331.388 1472.17,448.743 1472.88,345.594 1473.6,367.485 1474.32,529.697 1475.03,382.126 1475.75,398.629 1476.47,354.057 1477.19,406.605 1477.9,386.888 1478.62,341.526 1479.34,411.938 1480.05,362.866 1480.77,405.405 1481.49,520.14 1482.2,463.434 1482.92,351.1 1483.64,356.776 1484.36,363.426 1485.07,373.5 1485.79,477.839 1486.51,334.446 1487.22,379.125 1487.94,359.868 1488.66,398.949 1489.38,349.321 1490.09,381.641 1490.81,359.669 1491.53,348.532 1492.24,463.755 1492.96,355.288 1493.68,557.944 1494.4,352.151 1495.11,356.042 1495.83,478.057 1496.55,350.209 1497.26,372.119 1497.98,346.547 1498.7,375.257 1499.42,358.638 1500.13,419.695 1500.85,366.527 1501.57,464.033 1502.28,358.485 1503,458.677 1503.72,367.995 1504.44,355.833 1505.15,329.713 1505.87,398.545 1506.59,447.982 1507.3,343.381 1508.02,345.419 1508.74,338.44 1509.46,380.55 1510.17,450.526 1510.89,352.124 1511.61,463.758 1512.32,594.772 1513.04,368.97 1513.76,362.644 1514.47,373.454 1515.19,419.907 1515.91,389.638 1516.63,553.619 1517.34,486.67 1518.06,358.443 1518.78,359.937 1519.49,347.575 1520.21,378.788 1520.93,346.021 1521.65,342.749 1522.36,413.163 1523.08,426.658 1523.8,348.884 1524.51,439.058 1525.23,414.729 1525.95,351.486 1526.67,355.537 1527.38,339.584 1528.1,367.849 1528.82,347.843 1529.53,400.211 1530.25,364.563 1530.97,342.679 1531.69,357.922 1532.4,357.554 1533.12,467.379 1533.84,400.861 1534.55,410.223 1535.27,424.384 1535.99,356.747 1536.71,405.138 1537.42,548.78 1538.14,418.271 1538.86,482.396 1539.57,459.291 1540.29,346.313 1541.01,354.064 1541.72,361.129 1542.44,354.22 1543.16,356.195 1543.88,415.109 1544.59,420.858 1545.31,363.873 1546.03,361.981 1546.74,370.561 1547.46,358.175 1548.18,354.973 1548.9,336.739 1549.61,344.949 1550.33,362.313 1551.05,358.218 1551.76,357.228 1552.48,402.193 1553.2,335.274 1553.92,355.264 1554.63,379.966 1555.35,403.723 1556.07,378.685 1556.78,358.145 1557.5,351.157 1558.22,431.538 1558.94,353.586 1559.65,347.822 1560.37,361.383 1561.09,397.557 1561.8,409.235 1562.52,353.037 1563.24,371.69 1563.96,530.439 1564.67,340.219 1565.39,473.969 1566.11,374.501 1566.82,342.632 1567.54,519.232 1568.26,360.755 1568.98,330.19 1569.69,368.926 1570.41,363.141 1571.13,345.533 1571.84,492.543 1572.56,434.579 1573.28,507.737 1573.99,361.434 1574.71,347.103 1575.43,342.754 1576.15,504.27 1576.86,352.191 1577.58,355.632 1578.3,348.11 1579.01,424.896 1579.73,350.157 1580.45,357.516 1581.17,350.368 1581.88,352.16 1582.6,370.073 1583.32,356.51 1584.03,399.961 1584.75,484.058 1585.47,343.119 1586.19,371.509 1586.9,363.027 1587.62,365.189 1588.34,350.78 1589.05,360.203 1589.77,339.819 1590.49,367.784 1591.21,340.61 1591.92,367.176 1592.64,345.984 1593.36,473.95 1594.07,349.334 1594.79,360.306 1595.51,358.518 1596.23,351.294 1596.94,402.995 1597.66,380.521 1598.38,356.849 1599.09,346.295 1599.81,344.799 1600.53,355.318 1601.25,351.676 1601.96,361.765 1602.68,346.826 1603.4,519.207 1604.11,525.328 1604.83,364.276 1605.55,343.425 1606.26,370.706 1606.98,347.924 1607.7,358.914 1608.42,342.368 1609.13,352.887 1609.85,368.201 1610.57,338.096 1611.28,348.218 1612,344.467 1612.72,355.669 1613.44,385.303 1614.15,346.748 1614.87,360.836 1615.59,349.358 1616.3,352.764 1617.02,359.42 1617.74,349.647 1618.46,358.12 1619.17,429.817 1619.89,416.865 1620.61,349.836 1621.32,350.174 1622.04,360.783 1622.76,440.124 1623.48,380.422 1624.19,477.92 1624.91,347.696 1625.63,535.912 1626.34,509.632 1627.06,443.181 1627.78,451.189 1628.5,342.76 1629.21,533.519 1629.93,360.155 1630.65,345.635 1631.36,362.891 1632.08,372.8 1632.8,467.068 1633.52,343.355 1634.23,362.611 1634.95,353.133 1635.67,377.138 1636.38,340.167 1637.1,375.971 1637.82,411.752 1638.53,502.631 1639.25,346.243 1639.97,361.77 1640.69,411.148 1641.4,425.209 1642.12,358.565 1642.84,411.115 1643.55,366.664 1644.27,507.596 1644.99,413.862 1645.71,404.404 1646.42,330.323 1647.14,479.374 1647.86,341.337 1648.57,532.985 1649.29,464.917 1650.01,359.713 1650.73,467.564 1651.44,565.794 1652.16,355.13 1652.88,362.765 1653.59,356.249 1654.31,339.007 1655.03,368.398 1655.75,578.801 1656.46,356.163 1657.18,424.142 1657.9,465.359 1658.61,342.773 1659.33,445.324 1660.05,347.353 1660.77,377.161 1661.48,476.335 1662.2,512.437 1662.92,391.589 1663.63,431.424 1664.35,366.354 1665.07,425.544 1665.79,510.54 1666.5,346.752 1667.22,383.427 1667.94,361.287 1668.65,357.747 1669.37,327.979 1670.09,341.805 1670.8,367.402 1671.52,337.17 1672.24,361.688 1672.96,360 1673.67,338.664 1674.39,373.828 1675.11,325.47 1675.82,349.853 1676.54,357.032 1677.26,347.887 1677.98,353.9 1678.69,354.443 1679.41,347.368 1680.13,443.417 1680.84,338.388 1681.56,556.768 1682.28,359.206 1683,465.108 1683.71,358.323 1684.43,464.187 1685.15,348.883 1685.86,406.109 1686.58,396.747 1687.3,527.787 1688.02,345.374 1688.73,446.626 1689.45,510.483 1690.17,332.936 1690.88,452.993 1691.6,360.389 1692.32,352.224 1693.04,349.434 1693.75,360.853 1694.47,357.435 1695.19,371.057 1695.9,564.777 1696.62,354.255 1697.34,346.83 1698.05,437.43 1698.77,493.596 1699.49,346.576 1700.21,349.606 1700.92,356.733 1701.64,363.757 1702.36,478.55 1703.07,457.39 1703.79,361.275 1704.51,350.548 1705.23,359.501 1705.94,349.045 1706.66,376.994 1707.38,348.728 1708.09,345.656 1708.81,365.435 1709.53,342.527 1710.25,355.409 1710.96,378.609 1711.68,509.976 1712.4,340.986 1713.11,411.294 1713.83,438.472 1714.55,358.358 1715.27,350.218 1715.98,383.63 1716.7,441.253 1717.42,435.868 1718.13,525.581 1718.85,369.535 1719.57,335.713 1720.29,370.711 1721,340.39 1721.72,368.186 1722.44,418.414 1723.15,390.47 1723.87,346.793 1724.59,363.136 1725.31,339.47 1726.02,363.613 1726.74,338.793 1727.46,357.894 1728.17,360.011 1728.89,494.053 1729.61,365.832 1730.32,350.194 1731.04,357.321 1731.76,345.511 1732.48,354.587 1733.19,359.976 1733.91,353.439 1734.63,412.435 1735.34,473.136 1736.06,343.295 1736.78,468.954 1737.5,427.459 1738.21,353.165 1738.93,354.588 1739.65,364.214 1740.36,358.44 1741.08,372.414 1741.8,450.322 1742.52,465.44 1743.23,394.868 1743.95,348.74 1744.67,481.564 1745.38,354.572 1746.1,445.552 1746.82,443.795 1747.54,551.927 1748.25,335.096 1748.97,414.082 1749.69,346.477 1750.4,461.438 1751.12,352.869 1751.84,355.781 1752.56,352.557 1753.27,353.973 1753.99,342.75 1754.71,367.667 1755.42,376.486 1756.14,356.326 1756.86,340.299 1757.58,318.531 1758.29,347.867 1759.01,358.748 1759.73,403.576 1760.44,341.644 1761.16,541.87 1761.88,514.422 1762.59,354.792 1763.31,388.623 1764.03,350.758 1764.75,351.906 1765.46,355.435 1766.18,390.331 1766.9,354.606 1767.61,498.667 1768.33,410.155 1769.05,357.443 1769.77,383.083 1770.48,468.555 1771.2,345.139 1771.92,445.345 1772.63,349.892 1773.35,398.986 1774.07,355.593 1774.79,408.783 1775.5,338.398 1776.22,355.185 1776.94,355.791 1777.65,344.445 1778.37,363.121 1779.09,560.356 1779.81,339.34 1780.52,341.739 1781.24,367.469 1781.96,417.34 1782.67,380.464 1783.39,432.751 1784.11,446.058 1784.83,430.691 1785.54,422.659 1786.26,346.546 1786.98,450.808 1787.69,352.834 1788.41,353.984 1789.13,353.519 1789.85,370.351 1790.56,367.59 1791.28,396.798 1792,344.161 1792.71,356.044 1793.43,465.533 1794.15,410.193 1794.86,346.655 1795.58,346.205 1796.3,459.107 1797.02,451.837 1797.73,439.529 1798.45,453.162 1799.17,346.951 1799.88,337.135 1800.6,352.298 1801.32,397.72 1802.04,475.094 1802.75,462.548 1803.47,359.759 1804.19,346.396 1804.9,360.686 1805.62,423.216 1806.34,489.225 1807.06,474.363 1807.77,341.814 1808.49,366.793 1809.21,338.35 1809.92,345.118 1810.64,351.469 1811.36,361.45 1812.08,346.898 1812.79,432.385 1813.51,349.28 1814.23,368.081 1814.94,330.461 1815.66,392.467 1816.38,331.582 1817.1,375.846 1817.81,458.356 1818.53,547.919 1819.25,410.22 1819.96,494.955 1820.68,356.895 1821.4,347.734 1822.12,493.643 1822.83,344.385 1823.55,436.754 1824.27,336.13 1824.98,540.627 1825.7,394.347 1826.42,345.631 1827.13,378.632 1827.85,339.384 1828.57,476.955 1829.29,344.439 1830,358.048 1830.72,388.204 1831.44,416.085 1832.15,350.604 1832.87,346.925 1833.59,366.579 1834.31,394.085 1835.02,391.648 1835.74,344.047 1836.46,365.12 1837.17,469.456 1837.89,437.953 1838.61,458.628 1839.33,360.048 1840.04,353.036 1840.76,352.077 1841.48,356.381 1842.19,513.974 1842.91,477.547 1843.63,386.87 1844.35,358.088 1845.06,396.928 1845.78,338.517 1846.5,409.152 1847.21,389.713 1847.93,360.041 1848.65,379.017 1849.37,353.171 1850.08,364.775 1850.8,347.704 1851.52,390.213 1852.23,361.136 1852.95,471.414 1853.67,380.467 1854.38,362.108 1855.1,435.926 1855.82,457.201 1856.54,411.666 1857.25,403.412 1857.97,342.989 1858.69,367.973 1859.4,340.282 1860.12,367.487 1860.84,339.026 1861.56,434.309 1862.27,445.906 1862.99,440.708 1863.71,334.809 1864.42,347.645 1865.14,483.796 1865.86,361.707 1866.58,341.039 1867.29,471.915 1868.01,526.76 1868.73,445.187 1869.44,424.268 1870.16,387.694 1870.88,458.988 1871.6,350.474 1872.31,397.112 1873.03,356.307 1873.75,356.181 1874.46,348.565 1875.18,363.736 1875.9,360.035 1876.62,564.329 1877.33,462.288 1878.05,443.917 1878.77,358.158 1879.48,406.229 1880.2,426.943 1880.92,373.764 1881.64,391.014 1882.35,361.769 1883.07,375.761 1883.79,464.975 1884.5,348.052 1885.22,538.111 1885.94,346.837 1886.65,529.908 1887.37,341.558 1888.09,453.783 1888.81,575.633 1889.52,363.773 1890.24,434.141 1890.96,334.596 1891.67,453.667 1892.39,383.979 1893.11,514.256 1893.83,453.359 1894.54,521.014 1895.26,357.897 1895.98,337.44 1896.69,371.065 1897.41,441.171 1898.13,506.954 1898.85,419.892 1899.56,355.613 1900.28,475.33 1901,407.653 1901.71,362.906 1902.43,390.392 1903.15,460.76 1903.87,361.247 1904.58,367.212 1905.3,415.566 1906.02,347.862 1906.73,378.906 1907.45,427.526 1908.17,367.463 1908.89,410.733 1909.6,362.276 1910.32,350.699 1911.04,335.622 1911.75,554.799 1912.47,524.483 1913.19,371.262 1913.91,547.633 1914.62,384.374 1915.34,362.645 1916.06,357.119 1916.77,382.076 1917.49,355.303 1918.21,352.82 1918.92,498.769 1919.64,422.813 1920.36,476.753 1921.08,344.678 1921.79,349.222 1922.51,361.773 1923.23,384.907 1923.94,390.106 1924.66,468.152 1925.38,350.574 1926.1,354.737 1926.81,353.595 1927.53,354.974 1928.25,370.959 1928.96,362.097 1929.68,355.404 1930.4,354.607 1931.12,365.794 1931.83,513.575 1932.55,396.331 1933.27,359.598 1933.98,462.923 1934.7,344.5 1935.42,408.247 1936.14,420.955 1936.85,354.921 1937.57,364.74 1938.29,374.639 1939,331.298 1939.72,567.125 1940.44,361.442 1941.16,359.084 1941.87,379.104 1942.59,357.44 1943.31,348.548 1944.02,361.239 1944.74,514.902 1945.46,329.314 1946.18,392.682 1946.89,349.139 1947.61,487.239 1948.33,355.033 1949.04,346.323 1949.76,440.893 1950.48,390.443 1951.19,344.159 1951.91,384.683 1952.63,361.51 1953.35,377.8 1954.06,412.371 1954.78,397.126 1955.5,352.331 1956.21,346.353 1956.93,385.167 1957.65,349.489 1958.37,450.364 1959.08,327.578 1959.8,486.378 1960.52,363.197 1961.23,411.336 1961.95,481.28 1962.67,356.222 1963.39,347.308 1964.1,366.081 1964.82,376.714 1965.54,346.054 1966.25,365.285 1966.97,475.297 1967.69,347.453 1968.41,396.569 1969.12,350.859 1969.84,351.961 1970.56,353.215 1971.27,543.958 1971.99,355.158 1972.71,346.879 1973.43,414.772 1974.14,439.649 1974.86,454.829 1975.58,426.92 1976.29,370.034 1977.01,351.103 1977.73,356.248 1978.45,352.734 1979.16,355.762 1979.88,517.264 1980.6,364.468 1981.31,384.003 1982.03,363.492 1982.75,351.846 1983.46,421.679 1984.18,357.843 1984.9,350.118 1985.62,355.271 1986.33,339.86 1987.05,502.868 1987.77,456.187 1988.48,381.516 1989.2,374.06 1989.92,337.196 1990.64,507.296 1991.35,341.486 1992.07,348.839 1992.79,493.837 1993.5,331.738 1994.22,389.876 1994.94,520.76 1995.66,401.408 1996.37,442.35 1997.09,448.503 1997.81,346.383 1998.52,483.293 1999.24,481.938 1999.96,424.677 2000.68,443.914 2001.39,356.468 2002.11,396.215 2002.83,392.039 2003.54,404.477 2004.26,365.749 2004.98,369.142 2005.7,346.461 2006.41,364.787 2007.13,342.682 2007.85,364.026 2008.56,413.574 2009.28,515.048 2010,344.764 2010.72,438.925 2011.43,388.268 2012.15,371.299 2012.87,341.978 2013.58,364.146 2014.3,341.707 2015.02,361.849 2015.73,361.116 2016.45,349.58 2017.17,351.778 2017.89,348.325 2018.6,347.946 2019.32,356.262 2020.04,356.158 2020.75,345.041 2021.47,486.989 2022.19,484.042 2022.91,339.954 2023.62,359.213 2024.34,352.14 2025.06,421.963 2025.77,503.509 2026.49,355.146 2027.21,329.19 2027.93,403.611 2028.64,446.631 2029.36,432.88 2030.08,346.346 2030.79,452.016 2031.51,368.299 2032.23,498.576 2032.95,347.723 2033.66,503.481 2034.38,439.115 2035.1,433.773 2035.81,358.479 2036.53,323.789 2037.25,407.202 2037.97,360.447 2038.68,363.43 2039.4,342.317 2040.12,343.089 2040.83,348.939 2041.55,360.496 2042.27,346.132 2042.98,359.569 2043.7,375.049 2044.42,373.867 2045.14,409.587 2045.85,402.992 2046.57,357.214 2047.29,414.9 2048,369.198 2048.72,522.87 2049.44,415.186 2050.16,525.282 2050.87,353.714 2051.59,429.284 2052.31,392.926 2053.02,360.919 2053.74,345.048 2054.46,353.276 2055.18,360.566 2055.89,347.878 2056.61,350.678 2057.33,356.309 2058.04,354.881 2058.76,351.393 2059.48,357.593 2060.2,451.842 2060.91,376.982 2061.63,342.957 2062.35,365.101 2063.06,504.812 2063.78,352.955 2064.5,352.369 2065.22,356.833 2065.93,338.704 2066.65,524.492 2067.37,358.561 2068.08,346.61 2068.8,358.918 2069.52,362.562 2070.24,362.152 2070.95,341.965 2071.67,353.329 2072.39,513.857 2073.1,348.155 2073.82,463.786 2074.54,369.43 2075.25,468.955 2075.97,351.289 2076.69,359.119 2077.41,354.854 2078.12,350.49 2078.84,350.41 2079.56,354.659 2080.27,360.816 2080.99,336.699 2081.71,393.864 2082.43,423.021 2083.14,356.744 2083.86,378.538 2084.58,353.507 2085.29,364.097 2086.01,408.138 2086.73,382.719 2087.45,513.656 2088.16,344.056 2088.88,364.444 2089.6,363.654 2090.31,364.381 2091.03,345.766 2091.75,465.451 2092.47,347.338 2093.18,346.501 2093.9,354.662 2094.62,351.788 2095.33,342.181 2096.05,389.77 2096.77,414.782 2097.49,440.951 2098.2,341.52 2098.92,507.233 2099.64,463.434 2100.35,346.907 2101.07,345.55 2101.79,344.237 2102.51,337.655 2103.22,360.922 2103.94,496.951 2104.66,348.708 2105.37,471.493 2106.09,345.391 2106.81,448.612 2107.52,424.618 2108.24,349.296 2108.96,355.748 2109.68,347.994 2110.39,341.526 2111.11,353.573 2111.83,341.01 2112.54,514.857 2113.26,374.312 2113.98,357.245 2114.7,427.073 2115.41,470.82 2116.13,481.593 2116.85,338.647 2117.56,460.954 2118.28,351.77 2119,348.425 2119.72,410.061 2120.43,486.456 2121.15,334.498 2121.87,347.171 2122.58,470.897 2123.3,366.631 2124.02,344.262 2124.74,361.824 2125.45,345.913 2126.17,508.381 2126.89,405.496 2127.6,358.144 2128.32,351.722 2129.04,359.998 2129.76,356.059 2130.47,348.222 2131.19,357.226 2131.91,377.685 2132.62,349.749 2133.34,352.331 2134.06,348.732 2134.78,372.357 2135.49,450.748 2136.21,347.921 2136.93,545.073 2137.64,361.633 2138.36,351.025 2139.08,358.409 2139.79,354.601 2140.51,451.871 2141.23,470.281 2141.95,349.839 2142.66,360.159 2143.38,358.356 2144.1,356.146 2144.81,356.002 2145.53,411.64 2146.25,365.478 2146.97,348.431 2147.68,352.058 2148.4,418.597 2149.12,377.325 2149.83,412.378 2150.55,338.697 2151.27,337.843 2151.99,369.359 2152.7,417.627 2153.42,420.087 2154.14,441.078 2154.85,343.458 2155.57,401.116 2156.29,372.049 2157.01,491.453 2157.72,346.125 2158.44,482.022 2159.16,363.28 2159.87,541.718 2160.59,372.768 2161.31,350.712 2162.03,360.856 2162.74,355.342 2163.46,344.491 2164.18,366.257 2164.89,349.623 2165.61,357.274 2166.33,349.564 2167.05,391.749 2167.76,359.371 2168.48,471.327 2169.2,334.665 2169.91,358.251 2170.63,354.071 2171.35,359.701 2172.06,350.978 2172.78,358.653 2173.5,471.591 2174.22,364.707 2174.93,439.723 2175.65,360.341 2176.37,432.082 2177.08,369.258 2177.8,536.362 2178.52,352.674 2179.24,387.005 2179.95,419.735 2180.67,376.722 2181.39,406.959 2182.1,359.286 2182.82,438.569 2183.54,441.85 2184.26,435.262 2184.97,390.972 2185.69,336.747 2186.41,367.079 2187.12,345.362 2187.84,384.82 2188.56,344.212 2189.28,350.699 2189.99,358.652 2190.71,348.859 2191.43,359.058 2192.14,390.466 2192.86,340.088 2193.58,341.367 2194.3,366.554 2195.01,338.68 2195.73,355.427 2196.45,344.677 2197.16,352.617 2197.88,376.411 2198.6,356.602 2199.31,446.617 2200.03,340.623 2200.75,348.134 2201.47,347.529 2202.18,343.124 2202.9,364.056 2203.62,338.328 2204.33,367.953 2205.05,381.401 2205.77,364.537 2206.49,344.914 2207.2,347.884 2207.92,355.567 2208.64,488.477 2209.35,367.634 2210.07,489.657 2210.79,364.086 2211.51,344.766 2212.22,367.532 2212.94,339.568 2213.66,331.704 2214.37,396.271 2215.09,360.444 2215.81,342.892 2216.53,334.716 2217.24,368.925 2217.96,334.402 2218.68,340.292 2219.39,339.24 2220.11,473.544 2220.83,368.729 2221.55,337.735 2222.26,347.182 2222.98,458.713 2223.7,551.75 2224.41,399.912 2225.13,399.927 2225.85,457.506 2226.57,368.083 2227.28,347.515 2228,364.598 2228.72,367.622 2229.43,329.573 2230.15,385.554 2230.87,340.228 2231.58,342.952 2232.3,529.049 2233.02,442.462 2233.74,333.828 2234.45,358.161 2235.17,353.184 2235.89,367.029 2236.6,359.857 2237.32,352.624 2238.04,348.398 2238.76,456.226 2239.47,366.23 2240.19,434.278 2240.91,346.971 2241.62,496.957 2242.34,417.118 2243.06,411.618 2243.78,445 2244.49,369.145 2245.21,511.649 2245.93,375.404 2246.64,390.26 2247.36,349.132 2248.08,356.801 2248.8,346.833 2249.51,341.409 2250.23,360.269 2250.95,478.018 2251.66,385.584 2252.38,345.711 2253.1,360.282 2253.82,341.908 2254.53,500.769 2255.25,414.431 2255.97,529.773 2256.68,357.586 2257.4,346.364 2258.12,561.523 2258.84,420.73 2259.55,483.813 2260.27,358.33 2260.99,329.822 2261.7,383.492 2262.42,323.194 2263.14,373.468 2263.85,447.431 2264.57,362.216 2265.29,340.514 2266.01,368.013 2266.72,368.865 2267.44,345.187 2268.16,369.471 2268.87,341.989 2269.59,357.447 2270.31,342.158 2271.03,347.776 2271.74,340.564 2272.46,518.256 2273.18,367.261 2273.89,431.023 2274.61,356.211 2275.33,350.217 2276.05,348.53 2276.76,515.397 2277.48,405.123 2278.2,388.247 2278.91,410.64 2279.63,346.933 2280.35,345.789 2281.07,402.913 2281.78,386.321 2282.5,355.736 2283.22,371.759 2283.93,341.913 2284.65,444.261 2285.37,448.087 2286.09,416.479 2286.8,347.579 2287.52,498.238 2288.24,426.987 2288.95,449.692 2289.67,353.457 2290.39,349.137 2291.11,345.383 2291.82,353.755 2292.54,511.619 2293.26,429.326 2293.97,341.902 2294.69,379.225 2295.41,391.539 2296.12,365.697 2296.84,447.357 2297.56,338.207 2298.28,417.74 2298.99,492.787 2299.71,477.332 2300.43,344.226 2301.14,531.985 2301.86,428.83 2302.58,485.214 2303.3,349.648 2304.01,357.256 2304.73,352.779 2305.45,432.884 2306.16,477.47 2306.88,393.768 2307.6,484.075 2308.32,348.11 2309.03,366.466 2309.75,348.633 2310.47,357.391 2311.18,349.949 2311.9,352.297 2312.62,354.19 2313.34,346.167 2314.05,381.319 2314.77,430.583 2315.49,365.998 2316.2,339.777 2316.92,360.724 2317.64,357.023 2318.36,366.777 2319.07,339.588 2319.79,410.654 2320.51,533.566 2321.22,434.492 2321.94,437.322 2322.66,375.788 2323.38,354.543 2324.09,367.941 2324.81,352.523 2325.53,341.875 2326.24,561.648 2326.96,379.338 2327.68,476.906 2328.39,390.374 2329.11,364.159 2329.83,348.161 2330.55,354.281 2331.26,397.597 2331.98,451.077 2332.7,354.545 2333.41,342.903 2334.13,441.782 2334.85,484.339 2335.57,338.141 2336.28,375.541 2337,360.756 2337.72,347.732 2338.43,372.382 2339.15,351.76 2339.87,344.27 2340.59,362.523 2341.3,349.865 2342.02,347.427 2342.74,373.368 2343.45,328.798 2344.17,390.53 2344.89,341.015 2345.61,346.926 2346.32,403.586 2347.04,343.295 2347.76,363.7 2348.47,459.501 2349.19,382.707 2349.91,351.447 2350.63,360.32 2351.34,339.364 2352.06,439.397 2352.78,437.769 2353.49,343.176 2354.21,348.368 2354.93,361.076 2355.64,438.449 2356.36,375.39 2357.08,346.963 2357.8,374.375 2358.51,355.646 2359.23,354.791 2359.95,354.203 2360.66,360.222 2361.38,464.086 2362.1,359.74 2362.82,348.752 2363.53,331.874 2364.25,409.783 2364.97,463.82 2365.68,342.053 2366.4,423.228 2367.12,353.065 2367.84,349.905 2368.55,346.559 2369.27,358.534 2369.99,448.441 2370.7,354.135 2371.42,356.042 2372.14,353.251 2372.86,415.307 2373.57,490.895 2374.29,352.758 2375.01,506.015 2375.72,356.822 2376.44,536.303 2377.16,394.184 2377.88,360.296 2378.59,357.498 2379.31,460.481 2380.03,346.077 2380.74,343.485 2381.46,481.247 2382.18,529.271 2382.9,356.479 2383.61,360.963 2384.33,343.24 2385.05,364.718 2385.76,391.774 2386.48,347.329 2387.2,393.426 2387.91,356.117 2388.63,499.818 2389.35,530.823 2390.07,341.501 2390.78,566.049 2391.5,389.859 2392.22,489.888 2392.93,350.516 2393.65,356.025 2394.37,354.214 2395.09,410.151 2395.8,435.22 2396.52,365.941 2397.24,354.718 2397.95,352.836 2398.67,354.01 2399.39,392.4 2400.11,350.24 2400.82,351.755 2401.54,339.089 2402.26,454.671 2402.97,531.285 2403.69,355.566 2404.41,380.908 2405.13,492.479 2405.84,520.263 2406.56,383.405 2407.28,366.884 2407.99,332.848 2408.71,444.75 2409.43,506.583 2410.15,405.341 2410.86,375.155 2411.58,371.329 2412.3,340.066 2413.01,512.071 2413.73,449.308 2414.45,352.076 2415.17,347.599 2415.88,449.757 2416.6,453.639 2417.32,350.987 2418.03,349.601 2418.75,356.663 2419.47,400.2 2420.18,348.903 2420.9,446.544 2421.62,363.549 2422.34,353.509 2423.05,353.576 2423.77,373.16 2424.49,472.574 2425.2,488.346 2425.92,447.16 2426.64,368.979 2427.36,358.401 2428.07,368.058 2428.79,366.717 2429.51,391.124 2430.22,351.969 2430.94,427.154 2431.66,357.282 2432.38,366.125 2433.09,472.298 2433.81,412.561 2434.53,355.088 2435.24,537.909 2435.96,351.601 2436.68,346.827 2437.4,360.633 2438.11,432.517 2438.83,342.653 2439.55,370.43 2440.26,498.396 2440.98,497.766 2441.7,410.411 2442.42,449.203 2443.13,499.461 2443.85,365.901 2444.57,350.784 2445.28,349.09 2446,354.434 2446.72,348.179 2447.44,355.534 2448.15,351.673 2448.87,355.471 2449.59,351.954 2450.3,356.945 2451.02,351.872 2451.74,341.843 2452.45,358.596 2453.17,356.035 2453.89,349.04 2454.61,350.483 2455.32,362.421 2456.04,366.986 2456.76,343.118 2457.47,368.14 2458.19,341.437 2458.91,365.709 2459.63,481.881 2460.34,450.678 2461.06,356.153 2461.78,364.257 2462.49,403.167 2463.21,354.719 2463.93,489.065 2464.65,345.46 2465.36,361.888 2466.08,376.686 2466.8,347.694 2467.51,424.475 2468.23,346.527 2468.95,358.112 2469.67,340.135 2470.38,354.52 2471.1,356.224 2471.82,350.488 2472.53,389.377 2473.25,529.022 2473.97,473.551 2474.69,533.468 2475.4,473.839 2476.12,342.793 2476.84,379.204 2477.55,540.583 2478.27,353.813 2478.99,367.454 2479.71,364.594 2480.42,341.152 2481.14,411.308 2481.86,477.262 2482.57,348.477 2483.29,495.844 2484.01,341.413 2484.72,364.093 2485.44,397.1 2486.16,352.048 2486.88,412.993 2487.59,357.242 2488.31,354.67 2489.03,360.64 2489.74,362.19 2490.46,345.843 2491.18,357.255 2491.9,348.449 2492.61,421.443 2493.33,450.022 2494.05,356.145 2494.76,353.411 2495.48,384.512 2496.2,348.191 2496.92,478.916 2497.63,352.318 2498.35,416.342 2499.07,343.146 2499.78,489.022 2500.5,373.75 2501.22,359.099 2501.94,345.819 2502.65,359.179 2503.37,414.135 2504.09,522.797 2504.8,363.893 2505.52,449.684 2506.24,441.899 2506.96,432.306 2507.67,378.878 2508.39,359.602 2509.11,350.36 2509.82,342.898 2510.54,363.823 2511.26,334.921 2511.97,346.404 2512.69,419.337 2513.41,413.321 2514.13,379.746 2514.84,464.851 2515.56,347.918 2516.28,453.635 2516.99,398.292 2517.71,345.695 2518.43,369.173 2519.15,358.506 2519.86,400.319 2520.58,468.642 2521.3,423.953 2522.01,351.612 2522.73,384.278 2523.45,340.935 2524.17,383.715 2524.88,382.973 2525.6,359.513 2526.32,381.419 2527.03,398.401 2527.75,446.648 2528.47,347.688 2529.19,456.699 2529.9,329.14 2530.62,467.358 2531.34,374.923 2532.05,347.373 2532.77,356.123 2533.49,347.302 2534.21,364.272 2534.92,418.369 2535.64,351.048 2536.36,372.766 2537.07,360.98 2537.79,345.264 2538.51,498.489 2539.23,371.954 2539.94,342.583 2540.66,352.315 2541.38,357.128 2542.09,464.024 2542.81,459.433 2543.53,435.93 2544.24,350.657 2544.96,393.811 2545.68,355.203 2546.4,345.79 2547.11,422.662 2547.83,360.206 2548.55,356.41 2549.26,366.599 2549.98,342.384 2550.7,411.934 2551.42,529.985 2552.13,374.035 2552.85,508.43 2553.57,345.703 2554.28,528.099 2555,355.131 2555.72,340.403 2556.44,356.84 2557.15,344.618 2557.87,522.869 2558.59,354.999 2559.3,372.237 2560.02,345.59 2560.74,486.298 2561.46,478.221 2562.17,393.794 2562.89,443.9 2563.61,359.113 2564.32,366.555 2565.04,363.746 2565.76,344.209 2566.48,478.205 2567.19,457.429 2567.91,361.551 2568.63,461.143 2569.34,398.379 2570.06,361.125 2570.78,494.679 2571.5,364.36 2572.21,480.565 2572.93,358.264 2573.65,403.292 2574.36,354.425 2575.08,356.161 2575.8,353.925 2576.51,496.684 2577.23,339.187 2577.95,349.528 2578.67,357.487 2579.38,367.725 2580.1,408.566 2580.82,424.314 2581.53,447.572 2582.25,332.456 2582.97,348.265 2583.69,348.296 2584.4,359.979 2585.12,347.914 2585.84,356.97 2586.55,371.115 2587.27,340.931 2587.99,367.494 2588.71,346.463 2589.42,445.319 2590.14,355.199 2590.86,354.362 2591.57,348.103 2592.29,354.845 2593.01,355.19 2593.73,428.179 2594.44,374.945 2595.16,400.965 2595.88,432.104 2596.59,361.151 2597.31,546.5 2598.03,335.062 2598.75,456.933 2599.46,517.786 2600.18,355.267 2600.9,417.621 2601.61,402.847 2602.33,351.45 2603.05,368.107 2603.77,387.904 2604.48,383.745 2605.2,338.288 2605.92,516.446 2606.63,388.816 2607.35,348.615 2608.07,398.49 2608.78,487.881 2609.5,366.093 2610.22,353.271 2610.94,342.795 2611.65,557.555 2612.37,354.447 2613.09,388.084 2613.8,343.252 2614.52,348.99 2615.24,361.555 2615.96,357.198 2616.67,348.729 2617.39,510.35 2618.11,350.93 2618.82,357.585 2619.54,365.807 2620.26,370.289 2620.98,355.742 2621.69,351.912 2622.41,355.075 2623.13,350.583 2623.84,352.077 2624.56,355.934 2625.28,362.428 2626,345.592 2626.71,345.065 2627.43,440.144 2628.15,368.86 2628.86,391.241 2629.58,361.836 2630.3,448.326 2631.02,422.077 2631.73,424.561 2632.45,354.597 2633.17,354.177 2633.88,463.999 2634.6,367.376 2635.32,551.614 2636.04,350.298 2636.75,417.826 2637.47,361.018 2638.19,355.608 2638.9,357.459 2639.62,350.95 2640.34,364.059 2641.05,552.611 2641.77,347.061 2642.49,347.973 2643.21,447.163 2643.92,547.243 2644.64,346.981 2645.36,357.647 2646.07,346.303 2646.79,348.269 2647.51,347.245 2648.23,431.044 2648.94,392.103 2649.66,360.109 2650.38,464.959 2651.09,490.392 2651.81,384.289 2652.53,351.492 2653.25,339.124 2653.96,364.435 2654.68,370.604 2655.4,333.665 2656.11,347.676 2656.83,411.113 2657.55,353.896 2658.27,352.51 2658.98,415.443 2659.7,354.731 2660.42,395.272 2661.13,378.89 2661.85,399.749 2662.57,343.238 2663.29,360.881 2664,349.663 2664.72,356.385 2665.44,364.988 2666.15,340.97 2666.87,409.168 2667.59,499.626 2668.3,383.716 2669.02,351.035 2669.74,346.468 2670.46,371.161 2671.17,361.882 2671.89,428.165 2672.61,422.858 2673.32,476.711 2674.04,449.585 2674.76,335.767 2675.48,476.65 2676.19,360.777 2676.91,469.086 2677.63,359.587 2678.34,428.363 2679.06,359.761 2679.78,368.967 2680.5,354.85 2681.21,349.689 2681.93,354.929 2682.65,440.895 2683.36,335.783 2684.08,471.323 2684.8,474.04 2685.52,362.687 2686.23,355.883 2686.95,488.24 2687.67,332.506 2688.38,390.975 2689.1,350.015 2689.82,479.811 2690.54,387.85 2691.25,367.599 2691.97,340.685 2692.69,369.515 2693.4,342.884 2694.12,472.221 2694.84,349.858 2695.56,497.438 2696.27,353.684 2696.99,350.956 2697.71,395.405 2698.42,393.902 2699.14,348.501 2699.86,359.195 2700.57,406.363 2701.29,366.314 2702.01,433.999 2702.73,475.159 2703.44,391.927 2704.16,401.372 2704.88,387.678 2705.59,424.523 2706.31,531.18 2707.03,565.24 2707.75,359.574 2708.46,346.834 2709.18,362.377 2709.9,344.096 2710.61,404.648 2711.33,440.385 2712.05,348.866 2712.77,355.475 2713.48,333.826 2714.2,370.984 2714.92,359.299 2715.63,345.555 2716.35,341.814 2717.07,465.312 2717.79,450.991 2718.5,346.562 2719.22,410.597 2719.94,415.208 2720.65,345.625 2721.37,342.449 2722.09,469.481 2722.81,348.312 2723.52,372.78 2724.24,336.611 2724.96,371.683 2725.67,496.354 2726.39,355.893 2727.11,395.106 2727.83,411.1 2728.54,354.889 2729.26,355.532 2729.98,420.481 2730.69,522.094 2731.41,355.883 2732.13,351.791 2732.84,362.886 2733.56,343.183 2734.28,360.77 2735,344.066 2735.71,388.746 2736.43,348.571 2737.15,447.512 2737.86,351.551 2738.58,441.004 2739.3,407.772 2740.02,399.567 2740.73,347.751 2741.45,345.649 2742.17,352.723 2742.88,351.068 2743.6,356.986 2744.32,359.493 2745.04,434.599 2745.75,394.557 2746.47,353.047 2747.19,355.848 2747.9,368.157 2748.62,343.292 2749.34,367.185 2750.06,344.198 2750.77,450.469 2751.49,346.357 2752.21,358.277 2752.92,351.803 2753.64,354.829 2754.36,348.534 2755.08,361.983 2755.79,458.029 2756.51,337.291 2757.23,369.985 2757.94,395.537 2758.66,352.529 2759.38,356.612 2760.1,337.695 2760.81,356.102 2761.53,365.877 2762.25,366.525 2762.96,379.986 2763.68,385.299 2764.4,424.699 2765.11,347.818 2765.83,368.479 2766.55,361.265 2767.27,361.247 2767.98,349.348 2768.7,356.838 2769.42,351.108 2770.13,351.779 2770.85,341.789 2771.57,368.682 2772.29,416.775 2773,344.267 2773.72,421.117 2774.44,348.211 2775.15,348.672 2775.87,359.909 2776.59,345.999 2777.31,364.713 2778.02,400.975 2778.74,356.593 2779.46,363.31 2780.17,348.985 2780.89,348.777 2781.61,379.749 2782.33,373.142 2783.04,370.401 2783.76,341.507 2784.48,354.898 2785.19,353.523 2785.91,372.766 2786.63,371.522 2787.35,355.888 2788.06,352.616 2788.78,355.648 2789.5,339.718 2790.21,470.822 2790.93,440.621 2791.65,387.491 2792.37,354.968 2793.08,341.856 2793.8,329.461 2794.52,337.058 2795.23,411.465 2795.95,434.452 2796.67,353.3 2797.38,401.378 2798.1,328.737 2798.82,412.957 2799.54,343.81 2800.25,363.279 2800.97,508.212 2801.69,498.947 2802.4,346.674 2803.12,368.874 2803.84,335.502 2804.56,506.714 2805.27,504.026 2805.99,357.07 2806.71,541.472 2807.42,338.887 2808.14,464.117 2808.86,363.953 2809.58,333.83 2810.29,360.188 2811.01,401.437 2811.73,344.595 2812.44,362.891 2813.16,383.827 2813.88,471.419 2814.6,352.507 2815.31,352.41 2816.03,373.54 2816.75,343.315 2817.46,407.129 2818.18,410.119 2818.9,378.712 2819.62,438.96 2820.33,377.137 2821.05,345.225 2821.77,362.67 2822.48,349.238 2823.2,350.165 2823.92,345.719 2824.63,353.158 2825.35,353.359 2826.07,347.216 2826.79,355.184 2827.5,356.355 2828.22,341.289 2828.94,492.09 2829.65,446.401 2830.37,517.964 2831.09,427.561 2831.81,484.436 2832.52,397.798 2833.24,349.811 2833.96,363.602 2834.67,342.201 2835.39,362.673 2836.11,396.039 2836.83,388.523 2837.54,391.377 2838.26,349.955 2838.98,418.499 2839.69,342.257 2840.41,386.114 2841.13,409.716 2841.85,478.413 2842.56,367.604 2843.28,344.745 2844,354.494 2844.71,381.792 2845.43,432.123 2846.15,327.497 2846.87,488.458 2847.58,374.855 2848.3,410.579 2849.02,448.458 2849.73,470.882 2850.45,356.273 2851.17,430.123 2851.89,368.812 2852.6,359.74 2853.32,447.723 2854.04,436.462 2854.75,501.403 2855.47,404.6 2856.19,506.016 2856.9,448.382 2857.62,508.753 2858.34,344.976 2859.06,349.402 2859.77,430.058 2860.49,430.436 2861.21,529.027 2861.92,532.536 2862.64,335.864 2863.36,354.024 2864.08,380.728 2864.79,369.941 2865.51,345.939 2866.23,354.075 2866.94,353.34 2867.66,455.298 2868.38,345.694 2869.1,365.691 2869.81,409.619 2870.53,353.282 2871.25,356.963 2871.96,349.168 2872.68,381.158 2873.4,430.78 2874.12,381.07 2874.83,384.3 2875.55,394.897 2876.27,340.094 2876.98,455.524 2877.7,456.774 2878.42,439.989 2879.14,505.234 2879.85,546.501 2880.57,482.57 2881.29,546.753 2882,478.52 2882.72,452.429 2883.44,341.216 2884.16,352.186 2884.87,358.457 2885.59,352.977 2886.31,350.279 2887.02,362.888 2887.74,345.795 2888.46,361.41 2889.17,365.746 2889.89,355.328 2890.61,513.499 2891.33,370.757 2892.04,445.907 2892.76,346.157 2893.48,365.637 2894.19,400.275 2894.91,361.989 2895.63,354.634 2896.35,354.731 2897.06,353.575 2897.78,349.31 2898.5,356.1 2899.21,344.938 2899.93,372.284 2900.65,335.823 2901.37,345.859 2902.08,364.048 2902.8,343.656 2903.52,360.679 2904.23,354.812 2904.95,355.021 2905.67,364.137 2906.39,469.763 2907.1,362.162 2907.82,351.774 2908.54,420.772 2909.25,369.839 2909.97,354.559 2910.69,332.693 2911.41,374.962 2912.12,329.801 2912.84,509.247 2913.56,345.279 2914.27,348.888 2914.99,444.491 2915.71,488.862 2916.43,482.082 2917.14,352.509 2917.86,366.387 2918.58,407.25 2919.29,375.117 2920.01,370.324 2920.73,349.947 2921.44,363.108 2922.16,346.642 2922.88,518.281 2923.6,357.08 2924.31,352.289 2925.03,361.843 2925.75,339.447 2926.46,352.981 2927.18,464.372 2927.9,499.401 2928.62,340.327 2929.33,352.666 2930.05,354.006 2930.77,361.512 2931.48,476.276 2932.2,514.944 2932.92,513.812 2933.64,367.371 2934.35,346.765 2935.07,492.075 2935.79,520.044 2936.5,431.995 2937.22,351.374 2937.94,354.382 2938.66,359.923 2939.37,354.731 2940.09,354.582 2940.81,360.59 2941.52,351.586 2942.24,364.509 2942.96,426.621 2943.68,423.686 2944.39,396.206 2945.11,535.864 2945.83,415.877 2946.54,355.118 2947.26,523.721 2947.98,401.474 2948.7,375.626 2949.41,494.796 2950.13,382.01 2950.85,382.102 2951.56,354.12 2952.28,446.794 2953,487.405 2953.71,400.331 2954.43,367.316 2955.15,412.529 2955.87,362.783 2956.58,399.626 2957.3,344.291 2958.02,353.37 2958.73,375.191 2959.45,359.814 2960.17,350.828 2960.89,354.605 2961.6,352.375 2962.32,355.591 2963.04,457.393 2963.75,356.057 2964.47,341.084 2965.19,351.116 2965.91,351.678 2966.62,361.882 2967.34,344.342 2968.06,349.553 2968.77,368.015 2969.49,371.504 2970.21,415.641 2970.93,352.325 2971.64,437.76 2972.36,378.81 2973.08,391.397 2973.79,453.838 2974.51,346.189 2975.23,367.793 2975.95,356.816 2976.66,425.758 2977.38,354.38 2978.1,442.717 2978.81,470.74 2979.53,345.608 2980.25,551.086 2980.97,506.404 2981.68,535.622 2982.4,441.044 2983.12,384.096 2983.83,439.131 2984.55,352.087 2985.27,352.706 2985.98,351.253 2986.7,331.621 2987.42,394.366 2988.14,550.084 2988.85,373.593 2989.57,360.633 2990.29,366.943 2991,413.766 2991.72,336.825 2992.44,379.901 2993.16,474.281 2993.87,339.478 2994.59,362.528 2995.31,383.736 2996.02,353.103 2996.74,398.078 2997.46,434.569 2998.18,344.696 2998.89,355.05 2999.61,355.497 3000.33,387.708 3001.04,348.891 3001.76,341.278 3002.48,389.626 3003.2,424.421 3003.91,359.134 3004.63,353.548 3005.35,376.196 3006.06,521.568 3006.78,405.702 3007.5,361.745 3008.22,348.436 3008.93,358.825 3009.65,376.815 3010.37,474.983 3011.08,366.451 3011.8,447.381 3012.52,531.728 3013.23,461.037 3013.95,386.144 3014.67,402.899 3015.39,403.917 3016.1,358.113 3016.82,374.303 3017.54,386.056 3018.25,385.843 3018.97,452.668 3019.69,366.293 3020.41,535.013 3021.12,331.878 3021.84,536.437 3022.56,393.075 3023.27,385.042 3023.99,362.943 3024.71,564.653 3025.43,469.955 3026.14,505.863 3026.86,341.115 3027.58,360.397 3028.29,355.38 3029.01,354.94 3029.73,358.908 3030.45,430.484 3031.16,345.422 3031.88,526.857 3032.6,380.661 3033.31,348.47 3034.03,392.364 3034.75,424.4 3035.47,359.134 3036.18,377.715 3036.9,400.092 3037.62,368.349 3038.33,403.863 3039.05,435.541 3039.77,344.518 3040.49,457.222 3041.2,449.304 3041.92,414.23 3042.64,473.573 3043.35,557.807 3044.07,354.484 3044.79,368.737 3045.5,440.002 3046.22,385.269 3046.94,358.61 3047.66,345.246 3048.37,429.334 3049.09,497.131 3049.81,362.686 3050.52,345.823 3051.24,369.873 3051.96,340.69 3052.68,377.155 3053.39,519.451 3054.11,370.443 3054.83,366.661 3055.54,554.279 3056.26,399.038 3056.98,348.906 3057.7,382.781 3058.41,359.497 3059.13,414.865 3059.85,401.526 3060.56,374.937 3061.28,399.623 3062,366.828 3062.72,357.229 3063.43,503.871 3064.15,432.325 3064.87,343.108 3065.58,358.707 3066.3,377.883 3067.02,377.847 3067.74,349.623 "/>
<path clip-path="url(#clip560)" d="M2599.83 693.754 L3052.62 693.754 L3052.62 590.074 L2599.83 590.074  Z" fill="#ffffff" fill-rule="evenodd" fill-opacity="1"/>
<polyline clip-path="url(#clip560)" style="stroke:#000000; stroke-linecap:round; stroke-linejoin:round; stroke-width:4; stroke-opacity:1; fill:none" points="2599.83,693.754 3052.62,693.754 3052.62,590.074 2599.83,590.074 2599.83,693.754 "/>
<polyline clip-path="url(#clip560)" style="stroke:#009af9; stroke-linecap:round; stroke-linejoin:round; stroke-width:2; stroke-opacity:1; fill:none" points="2633.21,641.914 2833.48,641.914 "/>
<path clip-path="url(#clip560)" d="M2866.86 624.634 L2871.58 624.634 L2878.85 653.847 L2886.09 624.634 L2891.35 624.634 L2898.62 653.847 L2905.86 624.634 L2910.61 624.634 L2901.93 659.194 L2896.05 659.194 L2888.76 629.195 L2881.4 659.194 L2875.52 659.194 L2866.86 624.634 Z" fill="#000000" fill-rule="evenodd" fill-opacity="1" /><path clip-path="url(#clip560)" d="M2916.81 624.634 L2921.49 624.634 L2921.49 638.801 L2938.48 638.801 L2938.48 624.634 L2943.15 624.634 L2943.15 659.194 L2938.48 659.194 L2938.48 642.736 L2921.49 642.736 L2921.49 659.194 L2916.81 659.194 L2916.81 624.634 Z" fill="#000000" fill-rule="evenodd" fill-opacity="1" /><path clip-path="url(#clip560)" d="M2952.46 624.634 L2959.43 624.634 L2968.25 648.153 L2977.11 624.634 L2984.08 624.634 L2984.08 659.194 L2979.52 659.194 L2979.52 628.847 L2970.61 652.551 L2965.91 652.551 L2957 628.847 L2957 659.194 L2952.46 659.194 L2952.46 624.634 Z" fill="#000000" fill-rule="evenodd" fill-opacity="1" /><path clip-path="url(#clip560)" d="M3019.24 627.296 L3019.24 632.227 Q3016.88 630.028 3014.2 628.94 Q3011.53 627.852 3008.52 627.852 Q3002.6 627.852 2999.45 631.486 Q2996.3 635.097 2996.3 641.949 Q2996.3 648.778 2999.45 652.412 Q3002.6 656.023 3008.52 656.023 Q3011.53 656.023 3014.2 654.935 Q3016.88 653.847 3019.24 651.648 L3019.24 656.532 Q3016.79 658.199 3014.03 659.032 Q3011.3 659.866 3008.25 659.866 Q3000.4 659.866 2995.89 655.074 Q2991.37 650.259 2991.37 641.949 Q2991.37 633.616 2995.89 628.824 Q3000.4 624.009 3008.25 624.009 Q3011.35 624.009 3014.08 624.843 Q3016.83 625.653 3019.24 627.296 Z" fill="#000000" fill-rule="evenodd" fill-opacity="1" /></svg>
