<?xml version="1.0" encoding="utf-8"?>
<svg xmlns="http://www.w3.org/2000/svg" xmlns:xlink="http://www.w3.org/1999/xlink" width="800" height="200" viewBox="0 0 3200 800">
<defs>
  <clipPath id="clip660">
    <rect x="0" y="0" width="3200" height="800"/>
  </clipPath>
</defs>
<path clip-path="url(#clip660)" d="M0 800 L3200 800 L3200 0 L0 0  Z" fill="#ffffff" fill-rule="evenodd" fill-opacity="1"/>
<defs>
  <clipPath id="clip661">
    <rect x="640" y="0" width="2241" height="800"/>
  </clipPath>
</defs>
<path clip-path="url(#clip660)" d="M148.696 716.048 L3152.76 716.048 L3152.76 47.2441 L148.696 47.2441  Z" fill="#ffffff" fill-rule="evenodd" fill-opacity="1"/>
<defs>
  <clipPath id="clip662">
    <rect x="148" y="47" width="3005" height="670"/>
  </clipPath>
</defs>
<polyline clip-path="url(#clip662)" style="stroke:#000000; stroke-linecap:round; stroke-linejoin:round; stroke-width:2; stroke-opacity:0.1; fill:none" points="233.089,716.048 233.089,47.2441 "/>
<polyline clip-path="url(#clip662)" style="stroke:#000000; stroke-linecap:round; stroke-linejoin:round; stroke-width:2; stroke-opacity:0.1; fill:none" points="860.501,716.048 860.501,47.2441 "/>
<polyline clip-path="url(#clip662)" style="stroke:#000000; stroke-linecap:round; stroke-linejoin:round; stroke-width:2; stroke-opacity:0.1; fill:none" points="1487.91,716.048 1487.91,47.2441 "/>
<polyline clip-path="url(#clip662)" style="stroke:#000000; stroke-linecap:round; stroke-linejoin:round; stroke-width:2; stroke-opacity:0.1; fill:none" points="2115.32,716.048 2115.32,47.2441 "/>
<polyline clip-path="url(#clip662)" style="stroke:#000000; stroke-linecap:round; stroke-linejoin:round; stroke-width:2; stroke-opacity:0.1; fill:none" points="2742.74,716.048 2742.74,47.2441 "/>
<polyline clip-path="url(#clip660)" style="stroke:#000000; stroke-linecap:round; stroke-linejoin:round; stroke-width:4; stroke-opacity:1; fill:none" points="148.696,716.048 3152.76,716.048 "/>
<polyline clip-path="url(#clip660)" style="stroke:#000000; stroke-linecap:round; stroke-linejoin:round; stroke-width:4; stroke-opacity:1; fill:none" points="233.089,716.048 233.089,697.15 "/>
<polyline clip-path="url(#clip660)" style="stroke:#000000; stroke-linecap:round; stroke-linejoin:round; stroke-width:4; stroke-opacity:1; fill:none" points="860.501,716.048 860.501,697.15 "/>
<polyline clip-path="url(#clip660)" style="stroke:#000000; stroke-linecap:round; stroke-linejoin:round; stroke-width:4; stroke-opacity:1; fill:none" points="1487.91,716.048 1487.91,697.15 "/>
<polyline clip-path="url(#clip660)" style="stroke:#000000; stroke-linecap:round; stroke-linejoin:round; stroke-width:4; stroke-opacity:1; fill:none" points="2115.32,716.048 2115.32,697.15 "/>
<polyline clip-path="url(#clip660)" style="stroke:#000000; stroke-linecap:round; stroke-linejoin:round; stroke-width:4; stroke-opacity:1; fill:none" points="2742.74,716.048 2742.74,697.15 "/>
<path clip-path="url(#clip660)" d="M233.089 753.367 Q229.478 753.367 227.649 756.931 Q225.843 760.473 225.843 767.603 Q225.843 774.709 227.649 778.274 Q229.478 781.815 233.089 781.815 Q236.723 781.815 238.528 778.274 Q240.357 774.709 240.357 767.603 Q240.357 760.473 238.528 756.931 Q236.723 753.367 233.089 753.367 M233.089 749.663 Q238.899 749.663 241.954 754.269 Q245.033 758.853 245.033 767.603 Q245.033 776.329 241.954 780.936 Q238.899 785.519 233.089 785.519 Q227.279 785.519 224.2 780.936 Q221.144 776.329 221.144 767.603 Q221.144 758.853 224.2 754.269 Q227.279 749.663 233.089 749.663 Z" fill="#000000" fill-rule="evenodd" fill-opacity="1" /><path clip-path="url(#clip660)" d="M805.026 780.913 L812.665 780.913 L812.665 754.547 L804.355 756.214 L804.355 751.955 L812.619 750.288 L817.295 750.288 L817.295 780.913 L824.934 780.913 L824.934 784.848 L805.026 784.848 L805.026 780.913 Z" fill="#000000" fill-rule="evenodd" fill-opacity="1" /><path clip-path="url(#clip660)" d="M844.378 753.367 Q840.767 753.367 838.938 756.931 Q837.133 760.473 837.133 767.603 Q837.133 774.709 838.938 778.274 Q840.767 781.815 844.378 781.815 Q848.012 781.815 849.818 778.274 Q851.646 774.709 851.646 767.603 Q851.646 760.473 849.818 756.931 Q848.012 753.367 844.378 753.367 M844.378 749.663 Q850.188 749.663 853.244 754.269 Q856.322 758.853 856.322 767.603 Q856.322 776.329 853.244 780.936 Q850.188 785.519 844.378 785.519 Q838.568 785.519 835.489 780.936 Q832.434 776.329 832.434 767.603 Q832.434 758.853 835.489 754.269 Q838.568 749.663 844.378 749.663 Z" fill="#000000" fill-rule="evenodd" fill-opacity="1" /><path clip-path="url(#clip660)" d="M874.54 753.367 Q870.929 753.367 869.1 756.931 Q867.294 760.473 867.294 767.603 Q867.294 774.709 869.1 778.274 Q870.929 781.815 874.54 781.815 Q878.174 781.815 879.98 778.274 Q881.808 774.709 881.808 767.603 Q881.808 760.473 879.98 756.931 Q878.174 753.367 874.54 753.367 M874.54 749.663 Q880.35 749.663 883.406 754.269 Q886.484 758.853 886.484 767.603 Q886.484 776.329 883.406 780.936 Q880.35 785.519 874.54 785.519 Q868.73 785.519 865.651 780.936 Q862.595 776.329 862.595 767.603 Q862.595 758.853 865.651 754.269 Q868.73 749.663 874.54 749.663 Z" fill="#000000" fill-rule="evenodd" fill-opacity="1" /><path clip-path="url(#clip660)" d="M904.702 753.367 Q901.091 753.367 899.262 756.931 Q897.456 760.473 897.456 767.603 Q897.456 774.709 899.262 778.274 Q901.091 781.815 904.702 781.815 Q908.336 781.815 910.141 778.274 Q911.97 774.709 911.97 767.603 Q911.97 760.473 910.141 756.931 Q908.336 753.367 904.702 753.367 M904.702 749.663 Q910.512 749.663 913.567 754.269 Q916.646 758.853 916.646 767.603 Q916.646 776.329 913.567 780.936 Q910.512 785.519 904.702 785.519 Q898.892 785.519 895.813 780.936 Q892.757 776.329 892.757 767.603 Q892.757 758.853 895.813 754.269 Q898.892 749.663 904.702 749.663 Z" fill="#000000" fill-rule="evenodd" fill-opacity="1" /><path clip-path="url(#clip660)" d="M1436.52 780.913 L1452.84 780.913 L1452.84 784.848 L1430.9 784.848 L1430.9 780.913 Q1433.56 778.158 1438.14 773.528 Q1442.75 768.876 1443.93 767.533 Q1446.18 765.01 1447.06 763.274 Q1447.96 761.515 1447.96 759.825 Q1447.96 757.07 1446.01 755.334 Q1444.09 753.598 1440.99 753.598 Q1438.79 753.598 1436.34 754.362 Q1433.91 755.126 1431.13 756.677 L1431.13 751.955 Q1433.95 750.82 1436.41 750.242 Q1438.86 749.663 1440.9 749.663 Q1446.27 749.663 1449.46 752.348 Q1452.66 755.033 1452.66 759.524 Q1452.66 761.654 1451.85 763.575 Q1451.06 765.473 1448.95 768.066 Q1448.38 768.737 1445.27 771.954 Q1442.17 775.149 1436.52 780.913 Z" fill="#000000" fill-rule="evenodd" fill-opacity="1" /><path clip-path="url(#clip660)" d="M1472.66 753.367 Q1469.05 753.367 1467.22 756.931 Q1465.41 760.473 1465.41 767.603 Q1465.41 774.709 1467.22 778.274 Q1469.05 781.815 1472.66 781.815 Q1476.29 781.815 1478.1 778.274 Q1479.93 774.709 1479.93 767.603 Q1479.93 760.473 1478.1 756.931 Q1476.29 753.367 1472.66 753.367 M1472.66 749.663 Q1478.47 749.663 1481.52 754.269 Q1484.6 758.853 1484.6 767.603 Q1484.6 776.329 1481.52 780.936 Q1478.47 785.519 1472.66 785.519 Q1466.85 785.519 1463.77 780.936 Q1460.71 776.329 1460.71 767.603 Q1460.71 758.853 1463.77 754.269 Q1466.85 749.663 1472.66 749.663 Z" fill="#000000" fill-rule="evenodd" fill-opacity="1" /><path clip-path="url(#clip660)" d="M1502.82 753.367 Q1499.21 753.367 1497.38 756.931 Q1495.57 760.473 1495.57 767.603 Q1495.57 774.709 1497.38 778.274 Q1499.21 781.815 1502.82 781.815 Q1506.45 781.815 1508.26 778.274 Q1510.09 774.709 1510.09 767.603 Q1510.09 760.473 1508.26 756.931 Q1506.45 753.367 1502.82 753.367 M1502.82 749.663 Q1508.63 749.663 1511.69 754.269 Q1514.76 758.853 1514.76 767.603 Q1514.76 776.329 1511.69 780.936 Q1508.63 785.519 1502.82 785.519 Q1497.01 785.519 1493.93 780.936 Q1490.88 776.329 1490.88 767.603 Q1490.88 758.853 1493.93 754.269 Q1497.01 749.663 1502.82 749.663 Z" fill="#000000" fill-rule="evenodd" fill-opacity="1" /><path clip-path="url(#clip660)" d="M1532.98 753.367 Q1529.37 753.367 1527.54 756.931 Q1525.74 760.473 1525.74 767.603 Q1525.74 774.709 1527.54 778.274 Q1529.37 781.815 1532.98 781.815 Q1536.62 781.815 1538.42 778.274 Q1540.25 774.709 1540.25 767.603 Q1540.25 760.473 1538.42 756.931 Q1536.62 753.367 1532.98 753.367 M1532.98 749.663 Q1538.79 749.663 1541.85 754.269 Q1544.93 758.853 1544.93 767.603 Q1544.93 776.329 1541.85 780.936 Q1538.79 785.519 1532.98 785.519 Q1527.17 785.519 1524.09 780.936 Q1521.04 776.329 1521.04 767.603 Q1521.04 758.853 1524.09 754.269 Q1527.17 749.663 1532.98 749.663 Z" fill="#000000" fill-rule="evenodd" fill-opacity="1" /><path clip-path="url(#clip660)" d="M2074 766.214 Q2077.36 766.931 2079.24 769.2 Q2081.13 771.468 2081.13 774.802 Q2081.13 779.917 2077.62 782.718 Q2074.1 785.519 2067.62 785.519 Q2065.44 785.519 2063.13 785.079 Q2060.83 784.663 2058.38 783.806 L2058.38 779.292 Q2060.32 780.427 2062.64 781.005 Q2064.95 781.584 2067.48 781.584 Q2071.88 781.584 2074.17 779.848 Q2076.48 778.112 2076.48 774.802 Q2076.48 771.746 2074.33 770.033 Q2072.2 768.297 2068.38 768.297 L2064.35 768.297 L2064.35 764.454 L2068.57 764.454 Q2072.01 764.454 2073.84 763.089 Q2075.67 761.7 2075.67 759.107 Q2075.67 756.445 2073.77 755.033 Q2071.9 753.598 2068.38 753.598 Q2066.46 753.598 2064.26 754.015 Q2062.06 754.431 2059.42 755.311 L2059.42 751.144 Q2062.08 750.404 2064.4 750.033 Q2066.74 749.663 2068.8 749.663 Q2074.12 749.663 2077.22 752.093 Q2080.32 754.501 2080.32 758.621 Q2080.32 761.492 2078.68 763.482 Q2077.04 765.45 2074 766.214 Z" fill="#000000" fill-rule="evenodd" fill-opacity="1" /><path clip-path="url(#clip660)" d="M2100 753.367 Q2096.39 753.367 2094.56 756.931 Q2092.75 760.473 2092.75 767.603 Q2092.75 774.709 2094.56 778.274 Q2096.39 781.815 2100 781.815 Q2103.63 781.815 2105.44 778.274 Q2107.27 774.709 2107.27 767.603 Q2107.27 760.473 2105.44 756.931 Q2103.63 753.367 2100 753.367 M2100 749.663 Q2105.81 749.663 2108.87 754.269 Q2111.94 758.853 2111.94 767.603 Q2111.94 776.329 2108.87 780.936 Q2105.81 785.519 2100 785.519 Q2094.19 785.519 2091.11 780.936 Q2088.06 776.329 2088.06 767.603 Q2088.06 758.853 2091.11 754.269 Q2094.19 749.663 2100 749.663 Z" fill="#000000" fill-rule="evenodd" fill-opacity="1" /><path clip-path="url(#clip660)" d="M2130.16 753.367 Q2126.55 753.367 2124.72 756.931 Q2122.92 760.473 2122.92 767.603 Q2122.92 774.709 2124.72 778.274 Q2126.55 781.815 2130.16 781.815 Q2133.8 781.815 2135.6 778.274 Q2137.43 774.709 2137.43 767.603 Q2137.43 760.473 2135.6 756.931 Q2133.8 753.367 2130.16 753.367 M2130.16 749.663 Q2135.97 749.663 2139.03 754.269 Q2142.11 758.853 2142.11 767.603 Q2142.11 776.329 2139.03 780.936 Q2135.97 785.519 2130.16 785.519 Q2124.35 785.519 2121.27 780.936 Q2118.22 776.329 2118.22 767.603 Q2118.22 758.853 2121.27 754.269 Q2124.35 749.663 2130.16 749.663 Z" fill="#000000" fill-rule="evenodd" fill-opacity="1" /><path clip-path="url(#clip660)" d="M2160.32 753.367 Q2156.71 753.367 2154.88 756.931 Q2153.08 760.473 2153.08 767.603 Q2153.08 774.709 2154.88 778.274 Q2156.71 781.815 2160.32 781.815 Q2163.96 781.815 2165.76 778.274 Q2167.59 774.709 2167.59 767.603 Q2167.59 760.473 2165.76 756.931 Q2163.96 753.367 2160.32 753.367 M2160.32 749.663 Q2166.13 749.663 2169.19 754.269 Q2172.27 758.853 2172.27 767.603 Q2172.27 776.329 2169.19 780.936 Q2166.13 785.519 2160.32 785.519 Q2154.51 785.519 2151.44 780.936 Q2148.38 776.329 2148.38 767.603 Q2148.38 758.853 2151.44 754.269 Q2154.51 749.663 2160.32 749.663 Z" fill="#000000" fill-rule="evenodd" fill-opacity="1" /><path clip-path="url(#clip660)" d="M2700.75 754.362 L2688.94 772.811 L2700.75 772.811 L2700.75 754.362 M2699.52 750.288 L2705.4 750.288 L2705.4 772.811 L2710.33 772.811 L2710.33 776.7 L2705.4 776.7 L2705.4 784.848 L2700.75 784.848 L2700.75 776.7 L2685.14 776.7 L2685.14 772.186 L2699.52 750.288 Z" fill="#000000" fill-rule="evenodd" fill-opacity="1" /><path clip-path="url(#clip660)" d="M2728.06 753.367 Q2724.45 753.367 2722.62 756.931 Q2720.81 760.473 2720.81 767.603 Q2720.81 774.709 2722.62 778.274 Q2724.45 781.815 2728.06 781.815 Q2731.69 781.815 2733.5 778.274 Q2735.33 774.709 2735.33 767.603 Q2735.33 760.473 2733.5 756.931 Q2731.69 753.367 2728.06 753.367 M2728.06 749.663 Q2733.87 749.663 2736.93 754.269 Q2740 758.853 2740 767.603 Q2740 776.329 2736.93 780.936 Q2733.87 785.519 2728.06 785.519 Q2722.25 785.519 2719.17 780.936 Q2716.12 776.329 2716.12 767.603 Q2716.12 758.853 2719.17 754.269 Q2722.25 749.663 2728.06 749.663 Z" fill="#000000" fill-rule="evenodd" fill-opacity="1" /><path clip-path="url(#clip660)" d="M2758.22 753.367 Q2754.61 753.367 2752.78 756.931 Q2750.98 760.473 2750.98 767.603 Q2750.98 774.709 2752.78 778.274 Q2754.61 781.815 2758.22 781.815 Q2761.86 781.815 2763.66 778.274 Q2765.49 774.709 2765.49 767.603 Q2765.49 760.473 2763.66 756.931 Q2761.86 753.367 2758.22 753.367 M2758.22 749.663 Q2764.03 749.663 2767.09 754.269 Q2770.17 758.853 2770.17 767.603 Q2770.17 776.329 2767.09 780.936 Q2764.03 785.519 2758.22 785.519 Q2752.41 785.519 2749.33 780.936 Q2746.28 776.329 2746.28 767.603 Q2746.28 758.853 2749.33 754.269 Q2752.41 749.663 2758.22 749.663 Z" fill="#000000" fill-rule="evenodd" fill-opacity="1" /><path clip-path="url(#clip660)" d="M2788.38 753.367 Q2784.77 753.367 2782.94 756.931 Q2781.14 760.473 2781.14 767.603 Q2781.14 774.709 2782.94 778.274 Q2784.77 781.815 2788.38 781.815 Q2792.02 781.815 2793.82 778.274 Q2795.65 774.709 2795.65 767.603 Q2795.65 760.473 2793.82 756.931 Q2792.02 753.367 2788.38 753.367 M2788.38 749.663 Q2794.19 749.663 2797.25 754.269 Q2800.33 758.853 2800.33 767.603 Q2800.33 776.329 2797.25 780.936 Q2794.19 785.519 2788.38 785.519 Q2782.57 785.519 2779.5 780.936 Q2776.44 776.329 2776.44 767.603 Q2776.44 758.853 2779.5 754.269 Q2782.57 749.663 2788.38 749.663 Z" fill="#000000" fill-rule="evenodd" fill-opacity="1" /><polyline clip-path="url(#clip662)" style="stroke:#000000; stroke-linecap:round; stroke-linejoin:round; stroke-width:2; stroke-opacity:0.1; fill:none" points="148.696,716.048 3152.76,716.048 "/>
<polyline clip-path="url(#clip662)" style="stroke:#000000; stroke-linecap:round; stroke-linejoin:round; stroke-width:2; stroke-opacity:0.1; fill:none" points="148.696,576.714 3152.76,576.714 "/>
<polyline clip-path="url(#clip662)" style="stroke:#000000; stroke-linecap:round; stroke-linejoin:round; stroke-width:2; stroke-opacity:0.1; fill:none" points="148.696,437.38 3152.76,437.38 "/>
<polyline clip-path="url(#clip662)" style="stroke:#000000; stroke-linecap:round; stroke-linejoin:round; stroke-width:2; stroke-opacity:0.1; fill:none" points="148.696,298.046 3152.76,298.046 "/>
<polyline clip-path="url(#clip662)" style="stroke:#000000; stroke-linecap:round; stroke-linejoin:round; stroke-width:2; stroke-opacity:0.1; fill:none" points="148.696,158.711 3152.76,158.711 "/>
<polyline clip-path="url(#clip660)" style="stroke:#000000; stroke-linecap:round; stroke-linejoin:round; stroke-width:4; stroke-opacity:1; fill:none" points="148.696,716.048 148.696,47.2441 "/>
<polyline clip-path="url(#clip660)" style="stroke:#000000; stroke-linecap:round; stroke-linejoin:round; stroke-width:4; stroke-opacity:1; fill:none" points="148.696,716.048 167.593,716.048 "/>
<polyline clip-path="url(#clip660)" style="stroke:#000000; stroke-linecap:round; stroke-linejoin:round; stroke-width:4; stroke-opacity:1; fill:none" points="148.696,576.714 167.593,576.714 "/>
<polyline clip-path="url(#clip660)" style="stroke:#000000; stroke-linecap:round; stroke-linejoin:round; stroke-width:4; stroke-opacity:1; fill:none" points="148.696,437.38 167.593,437.38 "/>
<polyline clip-path="url(#clip660)" style="stroke:#000000; stroke-linecap:round; stroke-linejoin:round; stroke-width:4; stroke-opacity:1; fill:none" points="148.696,298.046 167.593,298.046 "/>
<polyline clip-path="url(#clip660)" style="stroke:#000000; stroke-linecap:round; stroke-linejoin:round; stroke-width:4; stroke-opacity:1; fill:none" points="148.696,158.711 167.593,158.711 "/>
<path clip-path="url(#clip660)" d="M88.7512 701.847 Q85.1401 701.847 83.3114 705.411 Q81.5058 708.953 81.5058 716.083 Q81.5058 723.189 83.3114 726.754 Q85.1401 730.295 88.7512 730.295 Q92.3854 730.295 94.1909 726.754 Q96.0196 723.189 96.0196 716.083 Q96.0196 708.953 94.1909 705.411 Q92.3854 701.847 88.7512 701.847 M88.7512 698.143 Q94.5613 698.143 97.6169 702.749 Q100.696 707.333 100.696 716.083 Q100.696 724.809 97.6169 729.416 Q94.5613 733.999 88.7512 733.999 Q82.941 733.999 79.8623 729.416 Q76.8068 724.809 76.8068 716.083 Q76.8068 707.333 79.8623 702.749 Q82.941 698.143 88.7512 698.143 Z" fill="#000000" fill-rule="evenodd" fill-opacity="1" /><path clip-path="url(#clip660)" d="M79.7929 559.434 L98.1493 559.434 L98.1493 563.369 L84.0753 563.369 L84.0753 571.841 Q85.0938 571.494 86.1123 571.332 Q87.1308 571.147 88.1493 571.147 Q93.9363 571.147 97.3159 574.318 Q100.696 577.489 100.696 582.906 Q100.696 588.485 97.2233 591.586 Q93.7511 594.665 87.4317 594.665 Q85.2558 594.665 82.9873 594.295 Q80.7419 593.924 78.3346 593.184 L78.3346 588.485 Q80.4179 589.619 82.6401 590.174 Q84.8623 590.73 87.3391 590.73 Q91.3437 590.73 93.6817 588.623 Q96.0196 586.517 96.0196 582.906 Q96.0196 579.295 93.6817 577.188 Q91.3437 575.082 87.3391 575.082 Q85.4641 575.082 83.5892 575.498 Q81.7373 575.915 79.7929 576.795 L79.7929 559.434 Z" fill="#000000" fill-rule="evenodd" fill-opacity="1" /><path clip-path="url(#clip660)" d="M49.3995 450.724 L57.0384 450.724 L57.0384 424.359 L48.7282 426.026 L48.7282 421.766 L56.9921 420.1 L61.668 420.1 L61.668 450.724 L69.3068 450.724 L69.3068 454.66 L49.3995 454.66 L49.3995 450.724 Z" fill="#000000" fill-rule="evenodd" fill-opacity="1" /><path clip-path="url(#clip660)" d="M88.7512 423.178 Q85.1401 423.178 83.3114 426.743 Q81.5058 430.285 81.5058 437.414 Q81.5058 444.521 83.3114 448.086 Q85.1401 451.627 88.7512 451.627 Q92.3854 451.627 94.1909 448.086 Q96.0196 444.521 96.0196 437.414 Q96.0196 430.285 94.1909 426.743 Q92.3854 423.178 88.7512 423.178 M88.7512 419.475 Q94.5613 419.475 97.6169 424.081 Q100.696 428.664 100.696 437.414 Q100.696 446.141 97.6169 450.748 Q94.5613 455.331 88.7512 455.331 Q82.941 455.331 79.8623 450.748 Q76.8068 446.141 76.8068 437.414 Q76.8068 428.664 79.8623 424.081 Q82.941 419.475 88.7512 419.475 Z" fill="#000000" fill-rule="evenodd" fill-opacity="1" /><path clip-path="url(#clip660)" d="M50.3949 311.39 L58.0337 311.39 L58.0337 285.025 L49.7236 286.691 L49.7236 282.432 L57.9874 280.766 L62.6633 280.766 L62.6633 311.39 L70.3022 311.39 L70.3022 315.326 L50.3949 315.326 L50.3949 311.39 Z" fill="#000000" fill-rule="evenodd" fill-opacity="1" /><path clip-path="url(#clip660)" d="M79.7929 280.766 L98.1493 280.766 L98.1493 284.701 L84.0753 284.701 L84.0753 293.173 Q85.0938 292.826 86.1123 292.664 Q87.1308 292.478 88.1493 292.478 Q93.9363 292.478 97.3159 295.65 Q100.696 298.821 100.696 304.238 Q100.696 309.816 97.2233 312.918 Q93.7511 315.997 87.4317 315.997 Q85.2558 315.997 82.9873 315.626 Q80.7419 315.256 78.3346 314.515 L78.3346 309.816 Q80.4179 310.951 82.6401 311.506 Q84.8623 312.062 87.3391 312.062 Q91.3437 312.062 93.6817 309.955 Q96.0196 307.849 96.0196 304.238 Q96.0196 300.627 93.6817 298.52 Q91.3437 296.414 87.3391 296.414 Q85.4641 296.414 83.5892 296.83 Q81.7373 297.247 79.7929 298.127 L79.7929 280.766 Z" fill="#000000" fill-rule="evenodd" fill-opacity="1" /><path clip-path="url(#clip660)" d="M52.6171 172.056 L68.9365 172.056 L68.9365 175.991 L46.9921 175.991 L46.9921 172.056 Q49.6541 169.302 54.2375 164.672 Q58.8439 160.019 60.0245 158.677 Q62.2698 156.154 63.1494 154.417 Q64.0522 152.658 64.0522 150.968 Q64.0522 148.214 62.1078 146.478 Q60.1865 144.742 57.0847 144.742 Q54.8856 144.742 52.4319 145.505 Q50.0014 146.269 47.2236 147.82 L47.2236 143.098 Q50.0477 141.964 52.5014 141.385 Q54.955 140.806 56.9921 140.806 Q62.3624 140.806 65.5568 143.492 Q68.7513 146.177 68.7513 150.667 Q68.7513 152.797 67.9411 154.718 Q67.1541 156.616 65.0476 159.209 Q64.4689 159.88 61.367 163.098 Q58.2652 166.292 52.6171 172.056 Z" fill="#000000" fill-rule="evenodd" fill-opacity="1" /><path clip-path="url(#clip660)" d="M88.7512 144.51 Q85.1401 144.51 83.3114 148.075 Q81.5058 151.617 81.5058 158.746 Q81.5058 165.853 83.3114 169.417 Q85.1401 172.959 88.7512 172.959 Q92.3854 172.959 94.1909 169.417 Q96.0196 165.853 96.0196 158.746 Q96.0196 151.617 94.1909 148.075 Q92.3854 144.51 88.7512 144.51 M88.7512 140.806 Q94.5613 140.806 97.6169 145.413 Q100.696 149.996 100.696 158.746 Q100.696 167.473 97.6169 172.079 Q94.5613 176.663 88.7512 176.663 Q82.941 176.663 79.8623 172.079 Q76.8068 167.473 76.8068 158.746 Q76.8068 149.996 79.8623 145.413 Q82.941 140.806 88.7512 140.806 Z" fill="#000000" fill-rule="evenodd" fill-opacity="1" /><polyline clip-path="url(#clip662)" style="stroke:#009af9; stroke-linecap:round; stroke-linejoin:round; stroke-width:2; stroke-opacity:1; fill:none" points="233.716,165.484 234.344,152.657 234.971,156.061 235.598,164.013 236.226,141.472 236.853,179.325 237.481,133.969 238.108,183.435 238.735,141.897 239.363,171.225 239.99,149.846 240.618,165.555 241.245,159.514 241.872,149.674 242.5,169.321 243.127,149.881 243.755,167.588 244.382,158.696 245.01,168.259 245.637,144.259 246.264,153.874 246.892,164.896 247.519,157.846 248.147,147.269 248.774,159.148 249.401,157.958 250.029,151.376 250.656,175.832 251.284,140.732 251.911,177.347 252.538,130.733 253.166,189.224 253.793,120.663 254.421,198.478 255.048,108.465 255.676,202.411 256.303,128.789 256.93,178.421 257.558,144.427 258.185,167.918 258.813,152.262 259.44,182.481 260.067,133.04 260.695,180.049 261.322,140.275 261.95,165.506 262.577,158.97 263.204,145.592 263.832,159.001 264.459,159.707 265.087,149.343 265.714,163.945 266.342,157.835 266.969,167.644 267.596,145.838 268.224,164.216 268.851,163.711 269.479,156.725 270.106,157.007 270.733,161.044 271.361,156.551 271.988,168.875 272.616,145.441 273.243,174.484 273.87,145.601 274.498,170.602 275.125,155.505 275.753,164.029 276.38,157.791 277.008,161.504 277.635,152.214 278.262,158.891 278.89,161.947 279.517,147.921 280.145,180.486 280.772,136.163 281.399,178.005 282.027,147.105 282.654,178.757 283.282,144.337 283.909,177.142 284.536,143.51 285.164,154.63 285.791,157.184 286.419,150.29 287.046,163.73 287.674,146.9 288.301,160.727 288.928,155.58 289.556,169.145 290.183,148.546 290.811,170.472 291.438,145.43 292.065,159.93 292.693,162.314 293.32,148.243 293.948,172.139 294.575,151.862 295.202,165.255 295.83,151.022 296.457,160.153 297.085,158.286 297.712,160.763 298.34,146.471 298.967,169.69 299.594,141.529 300.222,167.849 300.849,154.606 301.477,158.779 302.104,172.412 302.731,158.342 303.359,159.835 303.986,138.471 304.614,186.881 305.241,169.816 305.868,136.672 306.496,171.095 307.123,139.18 307.751,165.681 308.378,151.797 309.006,148.388 309.633,156.447 310.26,163.078 310.888,172.781 311.515,155.877 312.143,162.657 312.77,154.058 313.397,165.96 314.025,148.735 314.652,169.418 315.28,154 315.907,157.831 316.534,155.001 317.162,165.335 317.789,156.745 318.417,155.544 319.044,151.172 319.672,165.772 320.299,148.22 320.926,167.035 321.554,157.828 322.181,157.712 322.809,160.009 323.436,151.399 324.063,170.177 324.691,138.369 325.318,171.727 325.946,154.458 326.573,162.449 327.2,170.406 327.828,155.192 328.455,168.948 329.083,150.207 329.71,161.02 330.338,158.304 330.965,149.84 331.592,169.974 332.22,158.405 332.847,162.932 333.475,165.334 334.102,145.72 334.729,169.276 335.357,154.914 335.984,155.982 336.612,157.546 337.239,168.945 337.866,148.716 338.494,160.346 339.121,158.079 339.749,152.463 340.376,157.227 341.004,171.443 341.631,141.223 342.258,179.613 342.886,136.739 343.513,165.669 344.141,145.344 344.768,171.356 345.395,149.752 346.023,170.077 346.65,149.952 347.278,172.718 347.905,137.011 348.532,179.726 349.16,137.118 349.787,184.235 350.415,127.046 351.042,188.943 351.67,141.304 352.297,156.247 352.924,152.826 353.552,166.065 354.179,157.942 354.807,149.199 355.434,171.386 356.061,156.369 356.689,173.675 357.316,150.258 357.944,167.722 358.571,147.753 359.198,163.778 359.826,156.137 360.453,167.235 361.081,144.314 361.708,180.686 362.336,135.523 362.963,179.087 363.59,137.749 364.218,147.712 364.845,169.637 365.473,145.418 366.1,166.521 366.727,150.976 367.355,153.481 367.982,152.63 368.61,160.247 369.237,161.234 369.864,161.072 370.492,154.586 371.119,151.083 371.747,159.799 372.374,153.375 373.002,169.931 373.629,134.187 374.256,182.055 374.884,140.318 375.511,175.304 376.139,136.594 376.766,178.258 377.393,143.096 378.021,172.527 378.648,155.514 379.276,174.642 379.903,152.181 380.53,161.964 381.158,150.863 381.785,171.503 382.413,137.352 383.04,181.863 383.668,139.315 384.295,171.325 384.922,146.987 385.55,175.853 386.177,151.525 386.805,168.653 387.432,137.215 388.059,179.267 388.687,149.411 389.314,146.137 389.942,164.466 390.569,154.539 391.196,172.507 391.824,155.498 392.451,164.753 393.079,157.555 393.706,164.986 394.334,157.427 394.961,158.73 395.588,156.626 396.216,159.926 396.843,150.722 397.471,178.547 398.098,128.507 398.725,187.193 399.353,119.951 399.98,195.505 400.608,123.732 401.235,193.538 401.862,121.763 402.49,200.587 403.117,126.478 403.745,189.076 404.372,124.598 405,192.651 405.627,132.151 406.254,184.873 406.882,136.504 407.509,147.047 408.137,145.702 408.764,165.283 409.391,180.291 410.019,142.639 410.646,174.768 411.274,143.556 411.901,132.959 412.528,151.997 413.156,157.107 413.783,161.92 414.411,162.466 415.038,159.673 415.666,151.21 416.293,178.719 416.92,130.51 417.548,186.632 418.175,154.725 418.803,161.341 419.43,157.72 420.057,171.196 420.685,161.193 421.312,163.627 421.94,157.661 422.567,165.267 423.194,133.064 423.822,184.416 424.449,138.216 425.077,166.7 425.704,143.651 426.332,161.762 426.959,145.549 427.586,168.422 428.214,150.966 428.841,165.267 429.469,158.075 430.096,162.987 430.723,141.555 431.351,184.999 431.978,124.746 432.606,170.87 433.233,142.286 433.86,169.205 434.488,152.02 435.115,158.171 435.743,152.347 436.37,162.307 436.998,162.987 437.625,155.876 438.252,160.061 438.88,154.946 439.507,162.17 440.135,150.966 440.762,169.223 441.389,146.505 442.017,157.01 442.644,162.736 443.272,165.956 443.899,161.92 444.526,164.717 445.154,152.764 445.781,171.481 446.409,151.426 447.036,162.694 447.664,153.403 448.291,168.575 448.918,163.503 449.546,152.798 450.173,161.144 450.801,153.122 451.428,162.431 452.055,147.672 452.683,172.122 453.31,150.547 453.938,168.033 454.565,144.789 455.192,155.743 455.82,163.096 456.447,157.163 457.075,157.554 457.702,155.646 458.33,162.497 458.957,144.903 459.584,161.685 460.212,146.543 460.839,175.092 461.467,148.615 462.094,172.566 462.721,143.35 463.349,176.214 463.976,135.31 464.604,172.466 465.231,128.231 465.858,140.891 466.486,182.617 467.113,139.591 467.741,175.136 468.368,149.683 468.996,181.062 469.623,142.335 470.25,171.724 470.878,149.515 471.505,164.665 472.133,142.543 472.76,182.101 473.387,167.697 474.015,155.321 474.642,156.477 475.27,157.527 475.897,154.858 476.524,153.701 477.152,161.837 477.779,159.991 478.407,158.816 479.034,173.001 479.662,143.496 480.289,179.236 480.916,147.585 481.544,166.073 482.171,151.718 482.799,148.9 483.426,167.006 484.053,159.454 484.681,154.648 485.308,168.623 485.936,152.42 486.563,161.822 487.19,154.408 487.818,150.239 488.445,158.593 489.073,153.322 489.7,169.766 490.328,151.048 490.955,147.648 491.582,166.112 492.21,159.404 492.837,161.355 493.465,151.738 494.092,154.482 494.719,151.214 495.347,163.764 495.974,156.498 496.602,165.353 497.229,134.186 497.856,165.883 498.484,153.773 499.111,160.765 499.739,151.543 500.366,166.213 500.994,151.301 501.621,165.085 502.248,156.833 502.876,165.522 503.503,155.828 504.131,160.706 504.758,162.988 505.385,149.516 506.013,157.273 506.64,164.615 507.268,155.238 507.895,145.515 508.522,184.283 509.15,139.037 509.777,182.409 510.405,142.431 511.032,161.816 511.66,155.032 512.287,157.177 512.914,158.342 513.542,161.303 514.169,151.193 514.797,163.813 515.424,154.665 516.051,161.218 516.679,146.907 517.306,166.464 517.934,164.269 518.561,151.602 519.188,171.478 519.816,158.885 520.443,158.595 521.071,173.476 521.698,142.45 522.326,163.41 522.953,146.874 523.58,167.282 524.208,141.181 524.835,169.585 525.463,156.283 526.09,156.929 526.717,158.887 527.345,165.491 527.972,142.607 528.6,173.293 529.227,146.336 529.854,171.725 530.482,140.899 531.109,162.725 531.737,151.829 532.364,163.64 532.992,145.595 533.619,173.022 534.246,148.251 534.874,173.335 535.501,141.88 536.129,174.21 536.756,163.541 537.383,160.091 538.011,157.763 538.638,154.336 539.266,168.659 539.893,143.835 540.521,174.992 541.148,140.951 541.775,139.781 542.403,183.971 543.03,133.041 543.658,141.221 544.285,162.896 544.912,159.902 545.54,147.95 546.167,167.356 546.795,154.416 547.422,165.426 548.049,143.322 548.677,177.887 549.304,140.478 549.932,196.078 550.559,132.454 551.187,184.925 551.814,143.992 552.441,178.897 553.069,136.319 553.696,178.143 554.324,133.49 554.951,186.281 555.578,130.186 556.206,179.837 556.833,172.114 557.461,143.429 558.088,181.423 558.715,138.57 559.343,138.039 559.97,154.941 560.598,169.963 561.225,157.104 561.853,166.615 562.48,157.462 563.107,155.341 563.735,156.225 564.362,153.322 564.99,163.259 565.617,154.749 566.244,162.602 566.872,166.486 567.499,156.222 568.127,143.445 568.754,167.992 569.381,143.621 570.009,175.046 570.636,146.029 571.264,173.909 571.891,149.841 572.519,170.749 573.146,160.156 573.773,150.065 574.401,167.407 575.028,135.264 575.656,159.913 576.283,156.695 576.91,161.56 577.538,157.402 578.165,168.24 578.793,161.445 579.42,165.956 580.047,158.534 580.675,145.646 581.302,144.534 581.93,155.508 582.557,159.462 583.185,160.467 583.812,153.46 584.439,154.257 585.067,164.137 585.694,147.969 586.322,170.259 586.949,147.799 587.576,163.349 588.204,142.459 588.831,170.277 589.459,155.434 590.086,162.143 590.713,159.884 591.341,148.788 591.968,155.061 592.596,155.539 593.223,157.239 593.851,155.851 594.478,171.778 595.105,156.946 595.733,164.495 596.36,153.944 596.988,175.482 597.615,136.894 598.242,178.061 598.87,132.783 599.497,183.416 600.125,134.597 600.752,167.791 601.379,155.51 602.007,154.279 602.634,161.953 603.262,154.724 603.889,156.72 604.517,157.971 605.144,167.907 605.771,151.572 606.399,187.557 607.026,177.067 607.654,145.878 608.281,170.452 608.908,157.026 609.536,159.051 610.163,159.988 610.791,150.293 611.418,161.319 612.045,156.314 612.673,160.916 613.3,134.438 613.928,178.641 614.555,134.133 615.183,176.278 615.81,132.747 616.437,179.731 617.065,129.07 617.692,187.57 618.32,127.757 618.947,188.492 619.574,127.694 620.202,171.096 620.829,154.651 621.457,160.589 622.084,161.074 622.711,154.314 623.339,161.656 623.966,142.461 624.594,184.089 625.221,188.996 625.849,129.63 626.476,190.19 627.103,122.946 627.731,192.552 628.358,139.272 628.986,180.989 629.613,152.666 630.24,162.368 630.868,143.238 631.495,167.23 632.123,151.241 632.75,137.029 633.377,173.31 634.005,151.832 634.632,165.198 635.26,163.6 635.887,161.24 636.515,155.002 637.142,148.689 637.769,151.814 638.397,159.519 639.024,160.972 639.652,163.612 640.279,159.854 640.906,162.693 641.534,150.664 642.161,162.575 642.789,157.167 643.416,162.815 644.043,152.091 644.671,163.802 645.298,165.673 645.926,154.685 646.553,165.923 647.181,154.989 647.808,154.082 648.435,163.45 649.063,152.142 649.69,169.087 650.318,156.109 650.945,161.725 651.572,151.991 652.2,160.454 652.827,157.685 653.455,157.177 654.082,157.572 654.709,160.499 655.337,168.632 655.964,149.19 656.592,176.723 657.219,138.715 657.847,180.842 658.474,140.349 659.101,174.393 659.729,135.634 660.356,148.284 660.984,162.039 661.611,157.556 662.238,150.859 662.866,164.48 663.493,158.942 664.121,169.89 664.748,146.884 665.375,175.917 666.003,150.763 666.63,173.154 667.258,147.3 667.885,148.851 668.513,162.607 669.14,153.473 669.767,158.633 670.395,149.104 671.022,172.963 671.65,152.215 672.277,150.603 672.904,152.762 673.532,126.376 674.159,154.191 674.787,157.425 675.414,147.358 676.041,160.699 676.669,165.4 677.296,150.508 677.924,161.487 678.551,153.579 679.179,162.857 679.806,149.152 680.433,164.577 681.061,160.734 681.688,150.766 682.316,156.585 682.943,160.102 683.57,152.556 684.198,167.372 684.825,151.65 685.453,168.78 686.08,147.12 686.707,163.496 687.335,145.755 687.962,165.834 688.59,157.816 689.217,161.84 689.845,157.932 690.472,161.715 691.099,158.805 691.727,155.134 692.354,151.132 692.982,160.928 693.609,149.496 694.236,153.419 694.864,170.202 695.491,153.485 696.119,176.549 696.746,147.214 697.373,156.277 698.001,170.178 698.628,150.437 699.256,145.327 699.883,163.036 700.511,158.627 701.138,161.91 701.765,142.554 702.393,166.553 703.02,165.881 703.648,159.201 704.275,156.281 704.902,162.824 705.53,170.852 706.157,141.234 706.785,181.965 707.412,146.384 708.039,167.554 708.667,154.976 709.294,160.345 709.922,156.104 710.549,172.764 711.177,142.918 711.804,167.344 712.431,141.284 713.059,165.937 713.686,156.665 714.314,163.788 714.941,138.571 715.568,179.058 716.196,134.17 716.823,184.386 717.451,130.861 718.078,194.512 718.705,130.377 719.333,183.186 719.96,187.888 720.588,128.683 721.215,185.232 721.843,138.128 722.47,171.505 723.097,141.129 723.725,167.27 724.352,155.148 724.98,171.216 725.607,156.055 726.234,162.919 726.862,149.877 727.489,166.481 728.117,141.465 728.744,174.545 729.371,169.579 729.999,140.79 730.626,171.427 731.254,148.967 731.881,161.559 732.509,155.635 733.136,161.425 733.763,141.165 734.391,166.887 735.018,147.806 735.646,152.545 736.273,151.553 736.9,163.513 737.528,166.677 738.155,153.188 738.783,163.137 739.41,162.354 740.037,163.571 740.665,150.302 741.292,155.383 741.92,163.329 742.547,145.73 743.175,172.455 743.802,142.375 744.429,174.984 745.057,181.297 745.684,143.395 746.312,164.471 746.939,154.853 747.566,152.538 748.194,153.916 748.821,166.243 749.449,140.444 750.076,171.677 750.703,148.91 751.331,167.947 751.958,164.21 752.586,152.148 753.213,157.662 753.841,154.793 754.468,167.827 755.095,148.373 755.723,159.369 756.35,159.942 756.978,152.613 757.605,159.973 758.232,148.683 758.86,175.671 759.487,139.003 760.115,181.072 760.742,141.225 761.369,170.278 761.997,136.437 762.624,182.619 763.252,139.442 763.879,183.199 764.507,137.09 765.134,178.338 765.761,149.185 766.389,164.998 767.016,144.366 767.644,166.139 768.271,148.012 768.898,165.982 769.526,162.223 770.153,152.841 770.781,171.994 771.408,151.06 772.035,163.684 772.663,156.766 773.29,154.472 773.918,161.822 774.545,152.073 775.173,166.027 775.8,157.635 776.427,150.287 777.055,165.942 777.682,167.146 778.31,145.103 778.937,168.409 779.564,153.752 780.192,169.641 780.819,150.221 781.447,171.002 782.074,138.232 782.701,149.754 783.329,169.742 783.956,150.116 784.584,158.909 785.211,158.499 785.839,147.347 786.466,162.866 787.093,151.905 787.721,167.229 788.348,155.129 788.976,157.801 789.603,162.126 790.23,151.333 790.858,153.558 791.485,160.555 792.113,189.87 792.74,128.303 793.367,175.38 793.995,144.842 794.622,157.409 795.25,170.114 795.877,143.678 796.505,170.919 797.132,146.628 797.759,165.582 798.387,143.845 799.014,170.671 799.642,144.899 800.269,161.371 800.896,165.789 801.524,152.564 802.151,163.232 802.779,159.811 803.406,159.585 804.033,148.657 804.661,165.63 805.288,156.98 805.916,170.034 806.543,151.793 807.171,163.008 807.798,148.119 808.425,174.384 809.053,143.933 809.68,176.365 810.308,130.244 810.935,177.298 811.562,148.072 812.19,185.593 812.817,192.61 813.445,124.445 814.072,178.206 814.699,149.561 815.327,172.013 815.954,145.73 816.582,169.717 817.209,149.351 817.837,166.1 818.464,151.765 819.091,168.166 819.719,142.189 820.346,172.208 820.974,133.64 821.601,183.117 822.228,131.791 822.856,186.681 823.483,139.906 824.111,159.647 824.738,162.075 825.365,151.47 825.993,163.694 826.62,156.48 827.248,155.655 827.875,168.889 828.503,152.518 829.13,156.888 829.757,163.611 830.385,160.69 831.012,155.212 831.64,160.245 832.267,134.34 832.894,147.994 833.522,150.815 834.149,168.076 834.777,159.372 835.404,152.837 836.031,175.424 836.659,141.181 837.286,182.887 837.914,148.397 838.541,177.778 839.169,154.222 839.796,157.866 840.423,150.759 841.051,165.235 841.678,158.672 842.306,163.718 842.933,160.468 843.56,165.218 844.188,173.431 844.815,137.544 845.443,174.512 846.07,157.77 846.697,149.612 847.325,176.341 847.952,132.368 848.58,190.25 849.207,131.002 849.835,132.151 850.462,163.232 851.089,165.862 851.717,148.958 852.344,173.155 852.972,138.732 853.599,173.066 854.226,150.434 854.854,167.798 855.481,143.177 856.109,171.955 856.736,158.169 857.363,157.371 857.991,153.791 858.618,171.947 859.246,149.613 859.873,171.071 860.501,148.043 861.128,170.703 861.755,135.629 862.383,171.193 863.01,143.303 863.638,160.183 864.265,161.985 864.892,150.457 865.52,156.601 866.147,178.712 866.775,140.744 867.402,170.566 868.029,153.211 868.657,164.518 869.284,155.869 869.912,168.641 870.539,154.881 871.167,163.234 871.794,155.619 872.421,166.486 873.049,153.379 873.676,153.805 874.304,173.259 874.931,131.204 875.558,179.966 876.186,134.522 876.813,186.698 877.441,134.666 878.068,182.382 878.695,145.684 879.323,168.849 879.95,151.751 880.578,162.585 881.205,120.354 881.833,187.058 882.46,138.757 883.087,172.714 883.715,163.282 884.342,158.883 884.97,160.099 885.597,160.033 886.224,154.498 886.852,164.056 887.479,148.988 888.107,162.205 888.734,166.221 889.361,143.705 889.989,161.222 890.616,150.041 891.244,155.841 891.871,161.975 892.499,153.137 893.126,168.087 893.753,162.911 894.381,149.667 895.008,161.197 895.636,157 896.263,163.803 896.89,156.095 897.518,158.353 898.145,159.621 898.773,157.754 899.4,158.271 900.027,158.723 900.655,160.201 901.282,153.911 901.91,158.334 902.537,164.253 903.165,142.955 903.792,175.745 904.419,147.368 905.047,164.98 905.674,147.932 906.302,144.876 906.929,162.322 907.556,155.433 908.184,161.763 908.811,159.371 909.439,158.998 910.066,151.983 910.693,144.453 911.321,184.493 911.948,136.126 912.576,175.608 913.203,138.281 913.831,184.616 914.458,137.168 915.085,172.832 915.713,149.31 916.34,169.92 916.968,175.511 917.595,147.174 918.222,170.592 918.85,141.724 919.477,171.466 920.105,151.879 920.732,165.34 921.359,149.649 921.987,163.217 922.614,153.436 923.242,161.087 923.869,157.368 924.497,156.849 925.124,158.493 925.751,157.72 926.379,146.62 927.006,172.718 927.634,146.684 928.261,173.469 928.888,140.872 929.516,163.35 930.143,145.765 930.771,157.472 931.398,165.74 932.025,154.847 932.653,160.101 933.28,157.13 933.908,164.298 934.535,139.851 935.163,168.275 935.79,140.05 936.417,165.247 937.045,139.377 937.672,175.088 938.3,140.838 938.927,171.318 939.554,155.206 940.182,146.264 940.809,170.806 941.437,165.629 942.064,146.29 942.691,158.015 943.319,155.993 943.946,157.229 944.574,169.256 945.201,146.063 945.829,169.446 946.456,134.43 947.083,176.752 947.711,150.063 948.338,161.851 948.966,143.1 949.593,171.116 950.22,156.494 950.848,156.879 951.475,167.256 952.103,142.96 952.73,167.927 953.357,148.069 953.985,176.396 954.612,136.679 955.24,181.3 955.867,154.79 956.495,168.701 957.122,156.317 957.749,154.31 958.377,156.2 959.004,166.292 959.632,142.35 960.259,177.522 960.886,135.044 961.514,177.192 962.141,125.129 962.769,182.438 963.396,145.58 964.023,182.195 964.651,134.198 965.278,187.127 965.906,145.576 966.533,173.069 967.161,140.968 967.788,174.299 968.415,146.844 969.043,165.315 969.67,150.992 970.298,172.693 970.925,143.672 971.552,177.756 972.18,123.991 972.807,140.444 973.435,178.092 974.062,145.509 974.689,178.569 975.317,139.974 975.944,172.921 976.572,169.47 977.199,142.286 977.827,173.585 978.454,170.66 979.081,176.388 979.709,136.841 980.336,171.628 980.964,151.559 981.591,166.666 982.218,155.552 982.846,161.691 983.473,167.819 984.101,160.696 984.728,158.918 985.355,157.496 985.983,158.213 986.61,163.292 987.238,153.109 987.865,160.353 988.493,148.669 989.12,168.802 989.747,157.764 990.375,150.765 991.002,177.953 991.63,138.529 992.257,158.975 992.884,164.547 993.512,148.602 994.139,171.479 994.767,128.024 995.394,190.653 996.021,124.322 996.649,194.607 997.276,124.406 997.904,191.019 998.531,127.961 999.159,191.538 999.786,118.298 1000.41,187.199 1001.04,155.858 1001.67,162.681 1002.3,160.993 1002.92,143.563 1003.55,166.34 1004.18,145.743 1004.81,167.357 1005.43,143.91 1006.06,163.32 1006.69,163.355 1007.31,156.457 1007.94,155.246 1008.57,160.223 1009.2,165.399 1009.82,157.537 1010.45,133.304 1011.08,179.828 1011.71,138.642 1012.33,179.168 1012.96,138.325 1013.59,175.232 1014.22,136.252 1014.84,185.39 1015.47,128.474 1016.1,183.972 1016.73,154.126 1017.35,157.142 1017.98,153.92 1018.61,164.707 1019.24,151.141 1019.86,174.87 1020.49,156.536 1021.12,165.896 1021.75,147.747 1022.37,169.821 1023,143.586 1023.63,164.565 1024.26,148.961 1024.88,178.38 1025.51,157.664 1026.14,151.354 1026.76,163.878 1027.39,162.487 1028.02,159.182 1028.65,154.852 1029.27,157.172 1029.9,166.18 1030.53,156.116 1031.16,161.329 1031.78,159.858 1032.41,144.958 1033.04,171.399 1033.67,142.006 1034.29,180.597 1034.92,139.363 1035.55,176.688 1036.18,144.725 1036.8,155.333 1037.43,158.019 1038.06,164.903 1038.69,155.732 1039.31,160.271 1039.94,152.932 1040.57,158.101 1041.2,153.129 1041.82,178.424 1042.45,155.015 1043.08,149.989 1043.7,148.735 1044.33,163.763 1044.96,168.061 1045.59,169.034 1046.21,162.26 1046.84,165.411 1047.47,159.695 1048.1,159.288 1048.72,152.657 1049.35,166.757 1049.98,143.213 1050.61,166.769 1051.23,144.483 1051.86,169.404 1052.49,140.596 1053.12,162.805 1053.74,147.392 1054.37,139.948 1055,165.598 1055.63,158.379 1056.25,170.369 1056.88,155.901 1057.51,153.645 1058.14,157.74 1058.76,167.32 1059.39,169.572 1060.02,142.92 1060.64,172.407 1061.27,159.07 1061.9,148.996 1062.53,169.702 1063.15,143.064 1063.78,165.764 1064.41,144.925 1065.04,175.193 1065.66,152.578 1066.29,174.625 1066.92,147.239 1067.55,171.728 1068.17,143.663 1068.8,166.763 1069.43,149.248 1070.06,165.873 1070.68,149.673 1071.31,159.619 1071.94,160.758 1072.57,159.384 1073.19,155.27 1073.82,151.33 1074.45,152.622 1075.08,167.606 1075.7,144.581 1076.33,159.062 1076.96,158.921 1077.59,164.184 1078.21,154.095 1078.84,166.562 1079.47,147.335 1080.09,166.322 1080.72,160.679 1081.35,153.535 1081.98,164.43 1082.6,151.582 1083.23,164.236 1083.86,155.858 1084.49,155.574 1085.11,163.568 1085.74,154.317 1086.37,167.141 1087,154.489 1087.62,167.59 1088.25,146.266 1088.88,170.487 1089.51,162.129 1090.13,162.693 1090.76,161.612 1091.39,156.224 1092.02,159.269 1092.64,159.771 1093.27,158.51 1093.9,143.204 1094.53,183.575 1095.15,138.981 1095.78,169.303 1096.41,143.876 1097.03,168.508 1097.66,143.784 1098.29,160.024 1098.92,147.825 1099.54,181.682 1100.17,136.321 1100.8,187.224 1101.43,132.475 1102.05,178.399 1102.68,142.873 1103.31,174.142 1103.94,141.669 1104.56,178.282 1105.19,140.167 1105.82,181.987 1106.45,125.209 1107.07,174.772 1107.7,165.002 1108.33,160.079 1108.96,142.361 1109.58,174.114 1110.21,150.356 1110.84,166.15 1111.47,157.275 1112.09,173.546 1112.72,152.856 1113.35,165.883 1113.97,148.025 1114.6,176.541 1115.23,144.297 1115.86,168.426 1116.48,158.147 1117.11,155.935 1117.74,169.024 1118.37,149.835 1118.99,173.769 1119.62,146.211 1120.25,179.377 1120.88,139.486 1121.5,180.607 1122.13,136.929 1122.76,177.77 1123.39,142.282 1124.01,175.743 1124.64,147.968 1125.27,170.163 1125.9,159.442 1126.52,161.225 1127.15,147.004 1127.78,162.746 1128.41,154.456 1129.03,168 1129.66,160.192 1130.29,155.255 1130.92,162.745 1131.54,151.627 1132.17,167.626 1132.8,162.366 1133.42,158.66 1134.05,159.976 1134.68,169.973 1135.31,152.798 1135.93,173.651 1136.56,150.249 1137.19,159.409 1137.82,171.941 1138.44,148.564 1139.07,164.706 1139.7,168.287 1140.33,149.923 1140.95,166.723 1141.58,144.036 1142.21,172.711 1142.84,138.121 1143.46,179.502 1144.09,134.881 1144.72,166.003 1145.35,140.002 1145.97,165.675 1146.6,148.964 1147.23,167.416 1147.86,149.036 1148.48,166.15 1149.11,143.036 1149.74,168.871 1150.36,136.046 1150.99,167.793 1151.62,152.046 1152.25,173.965 1152.87,139.924 1153.5,188.199 1154.13,123.559 1154.76,188.216 1155.38,128.023 1156.01,182.279 1156.64,130.784 1157.27,167.904 1157.89,149.612 1158.52,155.547 1159.15,161.952 1159.78,153.116 1160.4,163.953 1161.03,141.982 1161.66,179.258 1162.29,155.576 1162.91,156.677 1163.54,156.443 1164.17,173.787 1164.8,137.383 1165.42,175.751 1166.05,167.186 1166.68,162.814 1167.3,158.702 1167.93,153.603 1168.56,162.687 1169.19,153.179 1169.81,156.386 1170.44,155.347 1171.07,169.266 1171.7,141.744 1172.32,182.567 1172.95,135.622 1173.58,182.377 1174.21,146.041 1174.83,172.822 1175.46,138.519 1176.09,164.466 1176.72,149.979 1177.34,167.946 1177.97,152.876 1178.6,167.02 1179.23,145.073 1179.85,181.597 1180.48,141.857 1181.11,170.943 1181.74,156.167 1182.36,156.66 1182.99,160.366 1183.62,162.633 1184.25,154.992 1184.87,157.431 1185.5,161.027 1186.13,154.891 1186.75,159.543 1187.38,152.007 1188.01,171.83 1188.64,167.915 1189.26,159.859 1189.89,143.218 1190.52,182.395 1191.15,139.452 1191.77,180.193 1192.4,152.77 1193.03,152.654 1193.66,153.702 1194.28,152.69 1194.91,158.376 1195.54,170.416 1196.17,143.948 1196.79,178.241 1197.42,134.162 1198.05,136.062 1198.68,182.358 1199.3,167.171 1199.93,151.858 1200.56,170.062 1201.19,157.809 1201.81,149.039 1202.44,173.299 1203.07,147.655 1203.69,179.793 1204.32,136.6 1204.95,176.79 1205.58,137.998 1206.2,177.584 1206.83,140.707 1207.46,182.727 1208.09,138.395 1208.71,178.334 1209.34,149.199 1209.97,163.492 1210.6,147.124 1211.22,159.872 1211.85,169.946 1212.48,166.944 1213.11,142.065 1213.73,170.721 1214.36,142.876 1214.99,127.87 1215.62,138.132 1216.24,184.255 1216.87,132.688 1217.5,184.799 1218.13,134.222 1218.75,180.968 1219.38,169.77 1220.01,145.849 1220.63,163.961 1221.26,171.339 1221.89,143.756 1222.52,176.455 1223.14,136.856 1223.77,174.21 1224.4,135.602 1225.03,170.253 1225.65,152.226 1226.28,159.957 1226.91,164.982 1227.54,151.812 1228.16,165.879 1228.79,176.682 1229.42,167.014 1230.05,147.755 1230.67,179.861 1231.3,143.45 1231.93,136.314 1232.56,179.558 1233.18,134.212 1233.81,188.178 1234.44,130.981 1235.07,179.734 1235.69,148.061 1236.32,179.739 1236.95,134.368 1237.58,181.061 1238.2,144.099 1238.83,161.438 1239.46,156.213 1240.08,153.473 1240.71,170.72 1241.34,151.077 1241.97,168.974 1242.59,147.658 1243.22,162.926 1243.85,159.92 1244.48,155.334 1245.1,151.387 1245.73,167.976 1246.36,156.169 1246.99,162.033 1247.61,163.19 1248.24,153.538 1248.87,161.805 1249.5,154.171 1250.12,169.015 1250.75,143.052 1251.38,168.077 1252.01,151.657 1252.63,162.133 1253.26,162.251 1253.89,155.652 1254.52,152.279 1255.14,168.743 1255.77,145.745 1256.4,166.37 1257.02,150.575 1257.65,171.946 1258.28,154.375 1258.91,163.359 1259.53,156.51 1260.16,156.042 1260.79,156.693 1261.42,161.261 1262.04,129.755 1262.67,166.746 1263.3,151.997 1263.93,162.438 1264.55,167.169 1265.18,148.903 1265.81,160.28 1266.44,157.545 1267.06,161.385 1267.69,157.266 1268.32,162.381 1268.95,160.179 1269.57,166.687 1270.2,153.955 1270.83,158.469 1271.46,155.053 1272.08,142.063 1272.71,161.44 1273.34,148.17 1273.96,171.067 1274.59,144.494 1275.22,166.697 1275.85,142.86 1276.47,169.313 1277.1,154.553 1277.73,161.086 1278.36,155.315 1278.98,162.188 1279.61,163.608 1280.24,153.621 1280.87,163.945 1281.49,146.064 1282.12,171.506 1282.75,145.355 1283.38,164.907 1284,147.657 1284.63,158.664 1285.26,130.386 1285.89,181.513 1286.51,137.014 1287.14,177.319 1287.77,141.96 1288.4,174.924 1289.02,152.489 1289.65,171.191 1290.28,148.528 1290.91,166.706 1291.53,155.601 1292.16,156.712 1292.79,158.187 1293.41,172.676 1294.04,137.024 1294.67,160.423 1295.3,147.746 1295.92,149.687 1296.55,173.946 1297.18,134.909 1297.81,178.21 1298.43,138.838 1299.06,178.391 1299.69,148.883 1300.32,174.032 1300.94,152.38 1301.57,160.322 1302.2,159.257 1302.83,167.68 1303.45,147.335 1304.08,163.618 1304.71,150.882 1305.34,162.574 1305.96,153.599 1306.59,154.217 1307.22,155.375 1307.85,166.613 1308.47,166.378 1309.1,158.769 1309.73,150.767 1310.35,162.744 1310.98,161.14 1311.61,145.87 1312.24,174.241 1312.86,144.751 1313.49,181.357 1314.12,132.295 1314.75,179.037 1315.37,146.329 1316,126.055 1316.63,179.809 1317.26,139.347 1317.88,180.301 1318.51,146.276 1319.14,172.057 1319.77,137.408 1320.39,169.902 1321.02,150.27 1321.65,165.616 1322.28,150.045 1322.9,155.161 1323.53,169.198 1324.16,154.859 1324.79,160.175 1325.41,154.252 1326.04,163.221 1326.67,161.309 1327.29,163.574 1327.92,150.684 1328.55,165.137 1329.18,165.861 1329.8,171.494 1330.43,140.192 1331.06,176.576 1331.69,148.381 1332.31,170.547 1332.94,142.325 1333.57,171.174 1334.2,151.549 1334.82,158.161 1335.45,159.644 1336.08,167.943 1336.71,161.503 1337.33,168.527 1337.96,146.652 1338.59,156.788 1339.22,149.747 1339.84,163.653 1340.47,156.71 1341.1,161.943 1341.73,152.869 1342.35,166.656 1342.98,142.423 1343.61,158.132 1344.24,151.59 1344.86,157.815 1345.49,158.178 1346.12,155.694 1346.74,168.16 1347.37,159.662 1348,161.553 1348.63,164.61 1349.25,157.349 1349.88,159.289 1350.51,157.087 1351.14,152.788 1351.76,155.017 1352.39,147.952 1353.02,162.396 1353.65,155.592 1354.27,161.964 1354.9,144.471 1355.53,166.768 1356.16,148.106 1356.78,171.759 1357.41,135.373 1358.04,184.178 1358.67,145.105 1359.29,170.599 1359.92,155.333 1360.55,164.841 1361.18,158.925 1361.8,166.849 1362.43,145.846 1363.06,174.387 1363.68,142.678 1364.31,169.776 1364.94,144.538 1365.57,156.824 1366.19,136.151 1366.82,177.551 1367.45,141.029 1368.08,171.062 1368.7,153.156 1369.33,160.524 1369.96,151.031 1370.59,161.006 1371.21,154.601 1371.84,158.071 1372.47,155.149 1373.1,160.848 1373.72,151.864 1374.35,168.806 1374.98,148.637 1375.61,168.889 1376.23,144.567 1376.86,177.703 1377.49,148.012 1378.12,176.191 1378.74,148.995 1379.37,163.643 1380,155.548 1380.62,150.42 1381.25,166.166 1381.88,145.162 1382.51,170.279 1383.13,146.246 1383.76,163.277 1384.39,160.372 1385.02,155.222 1385.64,169.013 1386.27,130.06 1386.9,171.088 1387.53,177.787 1388.15,147.634 1388.78,154.264 1389.41,158.901 1390.04,182.437 1390.66,125.689 1391.29,195.329 1391.92,142.154 1392.55,160.11 1393.17,149.759 1393.8,160.202 1394.43,153.96 1395.06,154.32 1395.68,168.884 1396.31,143.582 1396.94,172.147 1397.57,172.071 1398.19,146.53 1398.82,171.72 1399.45,151.346 1400.07,172.576 1400.7,140.822 1401.33,167.931 1401.96,152.221 1402.58,168.169 1403.21,145.704 1403.84,170.956 1404.47,150.122 1405.09,161.313 1405.72,159.592 1406.35,158.302 1406.98,155.178 1407.6,120.121 1408.23,177.494 1408.86,150.548 1409.49,168.996 1410.11,160.866 1410.74,147.844 1411.37,169.829 1412,149.889 1412.62,156.604 1413.25,153.432 1413.88,169.349 1414.51,149.915 1415.13,169.223 1415.76,148.792 1416.39,166.991 1417.01,168.767 1417.64,148.189 1418.27,154.873 1418.9,172.712 1419.52,149.04 1420.15,164.115 1420.78,150.669 1421.41,164.566 1422.03,143.571 1422.66,143.251 1423.29,156.636 1423.92,154.637 1424.54,175.54 1425.17,156.554 1425.8,163.766 1426.43,152.911 1427.05,153.263 1427.68,170.366 1428.31,148.794 1428.94,164.118 1429.56,155.658 1430.19,162.144 1430.82,155.68 1431.45,158.757 1432.07,156.555 1432.7,158.898 1433.33,155.676 1433.95,164.14 1434.58,141.034 1435.21,163.926 1435.84,180.707 1436.46,146.827 1437.09,182.223 1437.72,150.927 1438.35,138.111 1438.97,186.915 1439.6,123.143 1440.23,183.062 1440.86,154.652 1441.48,167.064 1442.11,151.601 1442.74,172.295 1443.37,142.644 1443.99,175.509 1444.62,153.814 1445.25,158.906 1445.88,150.817 1446.5,157.547 1447.13,164.3 1447.76,157.23 1448.39,159.411 1449.01,164.251 1449.64,145.004 1450.27,170.398 1450.9,156.805 1451.52,149.582 1452.15,162.572 1452.78,153.811 1453.4,156.375 1454.03,172.402 1454.66,156.523 1455.29,160.832 1455.91,169.752 1456.54,142.735 1457.17,166.305 1457.8,152.294 1458.42,157.402 1459.05,170.496 1459.68,140.745 1460.31,186.257 1460.93,135.565 1461.56,129.967 1462.19,179.461 1462.82,138.322 1463.44,179.031 1464.07,128.083 1464.7,183.703 1465.33,143.076 1465.95,171.997 1466.58,152.933 1467.21,154.547 1467.84,169.521 1468.46,140.299 1469.09,169.071 1469.72,145.936 1470.34,171.923 1470.97,146.782 1471.6,170.349 1472.23,144.139 1472.85,176.315 1473.48,140.815 1474.11,171.454 1474.74,158.137 1475.36,157.126 1475.99,155.209 1476.62,170.525 1477.25,160 1477.87,152.849 1478.5,170.155 1479.13,168.818 1479.76,140.007 1480.38,167.272 1481.01,155.636 1481.64,164.015 1482.27,153.961 1482.89,155.783 1483.52,163.033 1484.15,172.721 1484.78,146.665 1485.4,175.514 1486.03,125.721 1486.66,182.825 1487.28,132.57 1487.91,192.583 1488.54,125.404 1489.17,194.537 1489.79,128.315 1490.42,189.105 1491.05,133.035 1491.68,188.316 1492.3,141.815 1492.93,173.475 1493.56,188.116 1494.19,191.828 1494.81,138.074 1495.44,181.472 1496.07,140.283 1496.7,176.499 1497.32,148.461 1497.95,168.013 1498.58,147.553 1499.21,157.959 1499.83,149.128 1500.46,169.446 1501.09,157.729 1501.72,152.475 1502.34,164.587 1502.97,157.122 1503.6,168.867 1504.23,135.008 1504.85,182.653 1505.48,145.615 1506.11,170.461 1506.73,163.224 1507.36,147.341 1507.99,180.171 1508.62,172.876 1509.24,158.015 1509.87,163.032 1510.5,157.123 1511.13,145.305 1511.75,171.432 1512.38,148.209 1513.01,166.412 1513.64,152.35 1514.26,160.714 1514.89,148.75 1515.52,168.834 1516.15,157.701 1516.77,145.202 1517.4,174.529 1518.03,143.094 1518.66,167.435 1519.28,147.889 1519.91,175.408 1520.54,148.343 1521.17,171.073 1521.79,153.13 1522.42,147.429 1523.05,152.639 1523.67,146.447 1524.3,158.379 1524.93,161.214 1525.56,163.741 1526.18,141.147 1526.81,181.984 1527.44,152.238 1528.07,162.625 1528.69,152.249 1529.32,164.527 1529.95,186.151 1530.58,139.108 1531.2,171.78 1531.83,139.388 1532.46,173.018 1533.09,148.143 1533.71,161.734 1534.34,151.446 1534.97,168.001 1535.6,155.077 1536.22,164.683 1536.85,160.512 1537.48,156.502 1538.11,158.042 1538.73,147.302 1539.36,170.692 1539.99,154.526 1540.61,143.555 1541.24,166.371 1541.87,147.282 1542.5,175.416 1543.12,146.107 1543.75,179.085 1544.38,151.264 1545.01,160.895 1545.63,152.522 1546.26,180.967 1546.89,145.498 1547.52,150.596 1548.14,150.825 1548.77,171.294 1549.4,145.337 1550.03,172.116 1550.65,153.183 1551.28,165.612 1551.91,148.241 1552.54,164.244 1553.16,141.772 1553.79,154.164 1554.42,147.991 1555.05,170.246 1555.67,149.919 1556.3,182.183 1556.93,138.595 1557.56,154.852 1558.18,138.811 1558.81,146.773 1559.44,167.906 1560.06,155.911 1560.69,155.205 1561.32,158.235 1561.95,160.765 1562.57,146.512 1563.2,172.079 1563.83,155.085 1564.46,172.052 1565.08,158.265 1565.71,148.871 1566.34,174.871 1566.97,134.773 1567.59,178.089 1568.22,145.841 1568.85,180.148 1569.48,130.901 1570.1,174.346 1570.73,144.02 1571.36,174.071 1571.99,139.671 1572.61,183.655 1573.24,135.618 1573.87,170.399 1574.5,147.725 1575.12,166.593 1575.75,162.085 1576.38,166.478 1577,152.83 1577.63,157.188 1578.26,174.704 1578.89,148.429 1579.51,178.469 1580.14,138.125 1580.77,172.416 1581.4,139.054 1582.02,175.209 1582.65,132.953 1583.28,184.218 1583.91,129.617 1584.53,184.556 1585.16,134.921 1585.79,187.367 1586.42,128.532 1587.04,116.209 1587.67,183.21 1588.3,145.462 1588.93,166.036 1589.55,156.686 1590.18,162.942 1590.81,149.624 1591.44,162.979 1592.06,164.357 1592.69,149.015 1593.32,165.839 1593.94,149.059 1594.57,175.992 1595.2,141.192 1595.83,171.462 1596.45,156.472 1597.08,165.176 1597.71,147.465 1598.34,171.21 1598.96,146.438 1599.59,160.62 1600.22,152.432 1600.85,157.919 1601.47,167.831 1602.1,144.461 1602.73,172.02 1603.36,154.557 1603.98,163.564 1604.61,146.46 1605.24,172.62 1605.87,143.359 1606.49,169.101 1607.12,164.069 1607.75,177.982 1608.38,135.28 1609,192.596 1609.63,135.434 1610.26,173.359 1610.89,148.922 1611.51,170.827 1612.14,142.349 1612.77,173.194 1613.39,145.478 1614.02,177.282 1614.65,146.951 1615.28,167.498 1615.9,174.71 1616.53,139.042 1617.16,147.559 1617.79,152.976 1618.41,152.805 1619.04,166.606 1619.67,155.842 1620.3,175.752 1620.92,144.404 1621.55,170.911 1622.18,151.175 1622.81,168.77 1623.43,166.872 1624.06,155.083 1624.69,159.48 1625.32,159.106 1625.94,152.518 1626.57,160.604 1627.2,157.858 1627.83,166.76 1628.45,143.059 1629.08,147.103 1629.71,168.334 1630.33,149.424 1630.96,165.421 1631.59,156.261 1632.22,144.483 1632.84,173.006 1633.47,165.192 1634.1,145.839 1634.73,157.132 1635.35,148.936 1635.98,166.485 1636.61,156.253 1637.24,171.929 1637.86,155.841 1638.49,165.625 1639.12,148.253 1639.75,173.93 1640.37,158.726 1641,160.425 1641.63,161.354 1642.26,146.912 1642.88,177.212 1643.51,147.936 1644.14,167.14 1644.77,151.059 1645.39,169.21 1646.02,157.845 1646.65,157.732 1647.27,159.876 1647.9,158.851 1648.53,148.705 1649.16,162.198 1649.78,161.092 1650.41,150.683 1651.04,167.853 1651.67,141.39 1652.29,178.623 1652.92,137.429 1653.55,167.041 1654.18,156.926 1654.8,162.015 1655.43,162.119 1656.06,151.544 1656.69,153.115 1657.31,165.519 1657.94,149.414 1658.57,166.073 1659.2,149.15 1659.82,173.713 1660.45,140.609 1661.08,176.209 1661.71,147.853 1662.33,162.589 1662.96,157.134 1663.59,154.705 1664.22,157.532 1664.84,145.328 1665.47,169.856 1666.1,156.889 1666.72,164.312 1667.35,150.904 1667.98,162.012 1668.61,160.052 1669.23,160.542 1669.86,145.946 1670.49,171.627 1671.12,149.75 1671.74,165.619 1672.37,153.273 1673,181.564 1673.63,184.141 1674.25,149.023 1674.88,135.027 1675.51,174.088 1676.14,147.173 1676.76,170.804 1677.39,147.804 1678.02,163.682 1678.65,151.924 1679.27,167.816 1679.9,138.862 1680.53,173.412 1681.16,163.814 1681.78,147.023 1682.41,178.499 1683.04,134.691 1683.66,179.236 1684.29,147.371 1684.92,158.77 1685.55,170.924 1686.17,146.31 1686.8,165.38 1687.43,161.054 1688.06,163.88 1688.68,152.816 1689.31,165.456 1689.94,155.695 1690.57,163.984 1691.19,165.456 1691.82,150.657 1692.45,162.601 1693.08,154.445 1693.7,170.127 1694.33,157.532 1694.96,168.074 1695.59,159.374 1696.21,153.1 1696.84,167.93 1697.47,156.694 1698.1,177.947 1698.72,131.892 1699.35,186.162 1699.98,130.972 1700.6,181.64 1701.23,134.723 1701.86,176.689 1702.49,176.878 1703.11,146.737 1703.74,167.574 1704.37,160.792 1705,154.872 1705.62,158.993 1706.25,154.287 1706.88,151.618 1707.51,159.891 1708.13,152.354 1708.76,147.139 1709.39,164.426 1710.02,147.305 1710.64,164.898 1711.27,160.118 1711.9,157.276 1712.53,166.34 1713.15,149.606 1713.78,174.575 1714.41,148.785 1715.04,165.422 1715.66,147.365 1716.29,153.687 1716.92,151.606 1717.55,145.423 1718.17,150.82 1718.8,166.401 1719.43,139.23 1720.05,183.86 1720.68,139.202 1721.31,168.082 1721.94,147.974 1722.56,169.709 1723.19,156.551 1723.82,160.403 1724.45,167.218 1725.07,161.333 1725.7,163.995 1726.33,159.222 1726.96,150.208 1727.58,175.959 1728.21,158.508 1728.84,161.133 1729.47,153.821 1730.09,166.377 1730.72,161.361 1731.35,132.747 1731.98,178.249 1732.6,132.963 1733.23,182.073 1733.86,124.959 1734.49,193.384 1735.11,129.603 1735.74,186.15 1736.37,118.866 1736.99,202.78 1737.62,109.54 1738.25,202.293 1738.88,127.195 1739.5,176.952 1740.13,148.745 1740.76,165.55 1741.39,157.557 1742.01,140.38 1742.64,173.49 1743.27,146.51 1743.9,174.342 1744.52,138.972 1745.15,160.806 1745.78,165.598 1746.41,144.276 1747.03,179.596 1747.66,133.914 1748.29,182.025 1748.92,141.191 1749.54,173.588 1750.17,144.091 1750.8,166.841 1751.43,154.521 1752.05,167.131 1752.68,142.336 1753.31,172.012 1753.93,137.024 1754.56,180.767 1755.19,143.672 1755.82,156.914 1756.44,158.414 1757.07,160.781 1757.7,150.642 1758.33,166.618 1758.95,150.628 1759.58,165.515 1760.21,148.565 1760.84,161.812 1761.46,157.011 1762.09,156.614 1762.72,158.749 1763.35,155.585 1763.97,155.918 1764.6,161.422 1765.23,153.648 1765.86,158.781 1766.48,154.623 1767.11,164.272 1767.74,151.957 1768.37,175.013 1768.99,142.634 1769.62,171.415 1770.25,145.448 1770.88,132.753 1771.5,193.379 1772.13,127.133 1772.76,194.876 1773.38,120.451 1774.01,185.285 1774.64,130.493 1775.27,173.911 1775.89,145.58 1776.52,173.382 1777.15,145.181 1777.78,173.268 1778.4,151.399 1779.03,167.701 1779.66,147.046 1780.29,172.788 1780.91,141.714 1781.54,176.016 1782.17,147.053 1782.8,183.479 1783.42,139.08 1784.05,164.406 1784.68,150.474 1785.31,163.526 1785.93,151.873 1786.56,161.448 1787.19,164.75 1787.82,176.983 1788.44,160.93 1789.07,158.39 1789.7,142.719 1790.32,171.434 1790.95,154.287 1791.58,165.572 1792.21,145.673 1792.83,177.877 1793.46,147.226 1794.09,152.787 1794.72,167.5 1795.34,134.94 1795.97,140.004 1796.6,170.652 1797.23,151.083 1797.85,149.689 1798.48,169.069 1799.11,156.432 1799.74,159.492 1800.36,153.409 1800.99,152.632 1801.62,170.812 1802.25,138.947 1802.87,177.044 1803.5,140.085 1804.13,170.903 1804.76,143.594 1805.38,171.547 1806.01,140.93 1806.64,159.042 1807.26,150.788 1807.89,169.673 1808.52,152.985 1809.15,162.497 1809.77,161.877 1810.4,168.26 1811.03,129.943 1811.66,184 1812.28,130.734 1812.91,166.351 1813.54,148.993 1814.17,171.168 1814.79,144.743 1815.42,171.231 1816.05,144.137 1816.68,153.417 1817.3,168.89 1817.93,163.611 1818.56,159.962 1819.19,163.995 1819.81,152.221 1820.44,160.647 1821.07,153.812 1821.7,159.574 1822.32,149.316 1822.95,177.37 1823.58,145.372 1824.21,172.257 1824.83,148.465 1825.46,172.496 1826.09,145.963 1826.71,170.646 1827.34,145.225 1827.97,170.07 1828.6,153.062 1829.22,151.351 1829.85,167.916 1830.48,147.256 1831.11,205.006 1831.73,111.459 1832.36,206.304 1832.99,110.132 1833.62,201.741 1834.24,130.468 1834.87,183.709 1835.5,136.554 1836.13,181.039 1836.75,131.502 1837.38,172.679 1838.01,146.52 1838.64,164.202 1839.26,152.906 1839.89,158.717 1840.52,182.317 1841.15,136.077 1841.77,169.973 1842.4,143.921 1843.03,171.754 1843.65,149.712 1844.28,166.796 1844.91,152.457 1845.54,151.865 1846.16,173.693 1846.79,151.261 1847.42,172.94 1848.05,136.798 1848.67,185.217 1849.3,135.409 1849.93,178.756 1850.56,142.339 1851.18,170.719 1851.81,146.27 1852.44,161.362 1853.07,165.534 1853.69,164.685 1854.32,153.018 1854.95,169.949 1855.58,151.911 1856.2,166.658 1856.83,157.637 1857.46,165.879 1858.09,142.293 1858.71,169.511 1859.34,152.08 1859.97,169.373 1860.59,161.599 1861.22,157.679 1861.85,172.664 1862.48,139.333 1863.1,179.991 1863.73,136.586 1864.36,186.333 1864.99,121.954 1865.61,191.505 1866.24,129.261 1866.87,161.449 1867.5,160.294 1868.12,174.939 1868.75,143.436 1869.38,161.722 1870.01,156.332 1870.63,152.802 1871.26,161.124 1871.89,152.159 1872.52,169.955 1873.14,145.196 1873.77,179.813 1874.4,126.243 1875.03,185.224 1875.65,139.375 1876.28,177.196 1876.91,142.907 1877.54,171.305 1878.16,141.078 1878.79,169.044 1879.42,140.642 1880.04,173.209 1880.67,143.488 1881.3,171.115 1881.93,146.705 1882.55,155.115 1883.18,169.727 1883.81,158.731 1884.44,156.273 1885.06,155.047 1885.69,162.508 1886.32,159.13 1886.95,160.003 1887.57,157.216 1888.2,151.507 1888.83,159.761 1889.46,159.937 1890.08,160.204 1890.71,159.681 1891.34,158.149 1891.97,161.297 1892.59,155.268 1893.22,165.581 1893.85,167.541 1894.48,152.531 1895.1,161.205 1895.73,140.017 1896.36,174.366 1896.98,148.145 1897.61,177.567 1898.24,176.692 1898.87,150.08 1899.49,147.913 1900.12,168.169 1900.75,146.566 1901.38,171.74 1902,138.886 1902.63,164.113 1903.26,142.946 1903.89,166.605 1904.51,150.949 1905.14,163.795 1905.77,152.335 1906.4,160.101 1907.02,151.497 1907.65,176.355 1908.28,125.664 1908.91,194.722 1909.53,129.457 1910.16,184.289 1910.79,139.206 1911.42,168.607 1912.04,148.999 1912.67,177.243 1913.3,140.522 1913.92,172.504 1914.55,143.723 1915.18,172.245 1915.81,139.543 1916.43,167.546 1917.06,141.301 1917.69,133.432 1918.32,178.503 1918.94,138.546 1919.57,184.627 1920.2,128.775 1920.83,191.319 1921.45,140.807 1922.08,175.527 1922.71,146.929 1923.34,161.002 1923.96,166.451 1924.59,154.034 1925.22,149.75 1925.85,164.591 1926.47,159.429 1927.1,135.321 1927.73,179.217 1928.36,141.844 1928.98,170.691 1929.61,150.835 1930.24,173.384 1930.87,181.331 1931.49,172.431 1932.12,151.618 1932.75,150.105 1933.37,172.31 1934,147.989 1934.63,160.169 1935.26,147.206 1935.88,156.252 1936.51,157.753 1937.14,160.295 1937.77,168.402 1938.39,155.839 1939.02,154.978 1939.65,166.386 1940.28,160.545 1940.9,150.094 1941.53,160.024 1942.16,154.504 1942.79,153.777 1943.41,165.112 1944.04,139.227 1944.67,174.331 1945.3,141.421 1945.92,161.275 1946.55,147.689 1947.18,165.187 1947.81,151.606 1948.43,171.103 1949.06,152.844 1949.69,168.99 1950.31,142.597 1950.94,136.632 1951.57,176.545 1952.2,144.879 1952.82,165.2 1953.45,144.426 1954.08,176.442 1954.71,133.594 1955.33,177.317 1955.96,142.699 1956.59,171.078 1957.22,158.272 1957.84,162.684 1958.47,150.569 1959.1,168.032 1959.73,156.205 1960.35,169.609 1960.98,145.529 1961.61,165.786 1962.24,141.952 1962.86,168.196 1963.49,153.644 1964.12,165.406 1964.75,146.443 1965.37,164.79 1966,164.851 1966.63,143.701 1967.25,169.144 1967.88,145.53 1968.51,164.641 1969.14,152.214 1969.76,182.459 1970.39,154.49 1971.02,172.61 1971.65,155.224 1972.27,155.293 1972.9,166.664 1973.53,148.841 1974.16,168.104 1974.78,142.839 1975.41,172.903 1976.04,135.697 1976.67,168.519 1977.29,153.52 1977.92,156.054 1978.55,173.671 1979.18,150.822 1979.8,154.764 1980.43,173.018 1981.06,159.743 1981.69,163.239 1982.31,154.612 1982.94,158.544 1983.57,151.543 1984.2,155.79 1984.82,159.055 1985.45,165.895 1986.08,153.431 1986.7,160.847 1987.33,152.096 1987.96,170.473 1988.59,144.838 1989.21,171.374 1989.84,137.092 1990.47,155.572 1991.1,158.648 1991.72,156.802 1992.35,159.842 1992.98,169.084 1993.61,165.428 1994.23,170.612 1994.86,152.934 1995.49,172.342 1996.12,160.588 1996.74,150.925 1997.37,167.661 1998,146.183 1998.63,180.143 1999.25,144.408 1999.88,171.77 2000.51,156.321 2001.14,169.016 2001.76,154.042 2002.39,161.208 2003.02,152.036 2003.64,164.484 2004.27,176.615 2004.9,149.016 2005.53,168.533 2006.15,159.588 2006.78,155.398 2007.41,174.645 2008.04,147.105 2008.66,177.545 2009.29,141.026 2009.92,157.925 2010.55,144.383 2011.17,179.077 2011.8,144.272 2012.43,181.224 2013.06,137.864 2013.68,182.632 2014.31,142.538 2014.94,182.545 2015.57,140.669 2016.19,180.627 2016.82,143.727 2017.45,180.482 2018.08,139.026 2018.7,166.008 2019.33,154.63 2019.96,160.832 2020.58,141.946 2021.21,165.341 2021.84,157.852 2022.47,161.456 2023.09,156.192 2023.72,160.271 2024.35,162.072 2024.98,156.287 2025.6,156.225 2026.23,152.33 2026.86,144.125 2027.49,159.357 2028.11,144.623 2028.74,172.443 2029.37,148.689 2030,173.993 2030.62,143.176 2031.25,178.463 2031.88,146.529 2032.51,173.744 2033.13,134.903 2033.76,181.383 2034.39,144.131 2035.02,174.956 2035.64,148.296 2036.27,158.695 2036.9,155.394 2037.53,165.266 2038.15,150.814 2038.78,178.563 2039.41,148.647 2040.03,158.934 2040.66,163.618 2041.29,153.709 2041.92,165.604 2042.54,166.329 2043.17,152.7 2043.8,161.26 2044.43,169.529 2045.05,154.53 2045.68,154.077 2046.31,164.247 2046.94,147.973 2047.56,168.808 2048.19,149.756 2048.82,170.591 2049.45,141.013 2050.07,173.959 2050.7,145.599 2051.33,173.25 2051.96,157.04 2052.58,159.388 2053.21,168.515 2053.84,147.003 2054.47,173.58 2055.09,141.546 2055.72,138.264 2056.35,177.257 2056.97,150.198 2057.6,159.531 2058.23,145.174 2058.86,162.512 2059.48,153.319 2060.11,179.849 2060.74,145.951 2061.37,180.929 2061.99,141.523 2062.62,173.005 2063.25,146.187 2063.88,177.291 2064.5,148.464 2065.13,159.35 2065.76,168.161 2066.39,158.288 2067.01,139.623 2067.64,158.329 2068.27,154.038 2068.9,144.791 2069.52,152.404 2070.15,157.158 2070.78,148.233 2071.41,163.746 2072.03,156.508 2072.66,155.988 2073.29,153.832 2073.91,160.292 2074.54,156.792 2075.17,172.482 2075.8,154.857 2076.42,161.447 2077.05,156.782 2077.68,168.493 2078.31,145.342 2078.93,187.295 2079.56,127.837 2080.19,179.816 2080.82,153.085 2081.44,176.632 2082.07,159.238 2082.7,160.371 2083.33,161.436 2083.95,164.646 2084.58,150.961 2085.21,155.473 2085.84,165.425 2086.46,154.026 2087.09,166.771 2087.72,154.681 2088.35,160.85 2088.97,170.638 2089.6,148.534 2090.23,153.012 2090.86,170.033 2091.48,157.346 2092.11,165.015 2092.74,154.816 2093.36,166.43 2093.99,173.697 2094.62,160.973 2095.25,159.481 2095.87,171.089 2096.5,165.953 2097.13,166.175 2097.76,152.224 2098.38,167.687 2099.01,143.347 2099.64,170.239 2100.27,145.863 2100.89,163.508 2101.52,143.16 2102.15,174.021 2102.78,149.49 2103.4,167.429 2104.03,148.09 2104.66,152.53 2105.29,153.008 2105.91,165.136 2106.54,140.507 2107.17,175.903 2107.8,147.211 2108.42,180.873 2109.05,143.271 2109.68,168.248 2110.3,147.434 2110.93,171.135 2111.56,150.245 2112.19,162.993 2112.81,152.754 2113.44,160.833 2114.07,169.456 2114.7,153.871 2115.32,168.336 2115.95,156.516 2116.58,153.651 2117.21,148.209 2117.83,156.062 2118.46,163.453 2119.09,157.392 2119.72,148.284 2120.34,173.886 2120.97,151.38 2121.6,164.642 2122.23,155.93 2122.85,165.746 2123.48,157.803 2124.11,156.684 2124.74,165.235 2125.36,167.943 2125.99,177.773 2126.62,140.315 2127.25,170.152 2127.87,145.17 2128.5,156.54 2129.13,155.116 2129.75,154.843 2130.38,164.446 2131.01,157.852 2131.64,157.41 2132.26,161.673 2132.89,154.383 2133.52,179.521 2134.15,133.683 2134.77,186.546 2135.4,125.114 2136.03,181.511 2136.66,135.888 2137.28,190.34 2137.91,135.268 2138.54,188.519 2139.17,132.975 2139.79,183.318 2140.42,133.458 2141.05,184.725 2141.68,134.981 2142.3,183.693 2142.93,132.57 2143.56,180.012 2144.19,145.308 2144.81,172.766 2145.44,153.079 2146.07,172.661 2146.69,147.727 2147.32,170.158 2147.95,145.455 2148.58,160.501 2149.2,151.007 2149.83,162.677 2150.46,150.73 2151.09,152.481 2151.71,170.983 2152.34,154.651 2152.97,171.676 2153.6,144.332 2154.22,172.94 2154.85,136.561 2155.48,186.15 2156.11,138.047 2156.73,187.81 2157.36,143.388 2157.99,173.591 2158.62,132.319 2159.24,177.593 2159.87,148.762 2160.5,171.611 2161.13,148.045 2161.75,168.404 2162.38,161.085 2163.01,149.225 2163.63,157.603 2164.26,157.911 2164.89,142.555 2165.52,153.639 2166.14,153.822 2166.77,159.337 2167.4,151.584 2168.03,163.422 2168.65,157.844 2169.28,157.781 2169.91,159.484 2170.54,174.834 2171.16,137.541 2171.79,151.569 2172.42,155.854 2173.05,163.299 2173.67,150.509 2174.3,143.246 2174.93,165.28 2175.56,153.18 2176.18,166.49 2176.81,152.054 2177.44,164.878 2178.07,153.13 2178.69,172.3 2179.32,147.336 2179.95,160.051 2180.58,156.334 2181.2,171.264 2181.83,147.883 2182.46,155.44 2183.08,159.2 2183.71,164.908 2184.34,148.038 2184.97,165.713 2185.59,155.602 2186.22,160.342 2186.85,164.092 2187.48,151.47 2188.1,170.644 2188.73,143.354 2189.36,169.697 2189.99,161.308 2190.61,148.244 2191.24,181.457 2191.87,149.26 2192.5,174.816 2193.12,153.943 2193.75,156.823 2194.38,153.539 2195.01,168.047 2195.63,157.206 2196.26,173.395 2196.89,159.504 2197.52,164.581 2198.14,154.747 2198.77,158.784 2199.4,139.692 2200.02,177.908 2200.65,130.797 2201.28,166.775 2201.91,164.014 2202.53,162.227 2203.16,160.097 2203.79,155.106 2204.42,155.592 2205.04,172.74 2205.67,135.682 2206.3,138.683 2206.93,143.725 2207.55,167.269 2208.18,149.217 2208.81,161.418 2209.44,144.295 2210.06,169.577 2210.69,158.015 2211.32,149.944 2211.95,164.955 2212.57,158.103 2213.2,157.307 2213.83,165.298 2214.46,164.917 2215.08,144.531 2215.71,182.126 2216.34,145.855 2216.96,172.425 2217.59,151.258 2218.22,163.081 2218.85,141.666 2219.47,158.809 2220.1,173.378 2220.73,145.82 2221.36,165.742 2221.98,150.923 2222.61,167.985 2223.24,142.047 2223.87,164.098 2224.49,168.327 2225.12,145.779 2225.75,175.81 2226.38,142.94 2227,178.451 2227.63,146.995 2228.26,159.321 2228.89,162.702 2229.51,161.074 2230.14,149.37 2230.77,171.361 2231.4,147.172 2232.02,172.374 2232.65,154.18 2233.28,161.852 2233.91,156.492 2234.53,139.695 2235.16,177.032 2235.79,142.176 2236.41,167.146 2237.04,152.646 2237.67,152.689 2238.3,161.871 2238.92,156.302 2239.55,162.705 2240.18,146.838 2240.81,165.939 2241.43,148.758 2242.06,171.254 2242.69,154.108 2243.32,172.082 2243.94,157.809 2244.57,161.654 2245.2,156.277 2245.83,157.264 2246.45,146.464 2247.08,175.546 2247.71,153.165 2248.34,159.608 2248.96,150.261 2249.59,173.246 2250.22,187.157 2250.85,128.488 2251.47,185.473 2252.1,152.068 2252.73,152.718 2253.35,166.007 2253.98,155.14 2254.61,158.858 2255.24,147.879 2255.86,169.023 2256.49,148.784 2257.12,178.03 2257.75,136.1 2258.37,173.153 2259,149.46 2259.63,174.976 2260.26,170.531 2260.88,149.668 2261.51,163.506 2262.14,162.034 2262.77,155.7 2263.39,157.026 2264.02,164.842 2264.65,160.463 2265.28,150.806 2265.9,142.561 2266.53,167.946 2267.16,152.55 2267.79,164.987 2268.41,152.334 2269.04,169.747 2269.67,146.874 2270.29,165.9 2270.92,151.094 2271.55,175.075 2272.18,143.326 2272.8,178.328 2273.43,142.816 2274.06,171.404 2274.69,157.571 2275.31,175.551 2275.94,134.939 2276.57,187.966 2277.2,136.607 2277.82,169.759 2278.45,150.325 2279.08,157.314 2279.71,175.699 2280.33,149.94 2280.96,174.076 2281.59,144.062 2282.22,174.797 2282.84,140.485 2283.47,187.334 2284.1,131.995 2284.73,172.333 2285.35,143.424 2285.98,169.02 2286.61,150.448 2287.24,167.223 2287.86,164.944 2288.49,143.622 2289.12,157.981 2289.74,155.879 2290.37,153.979 2291,140.616 2291.63,169.099 2292.25,146.507 2292.88,163.452 2293.51,156.028 2294.14,161.676 2294.76,165.03 2295.39,155.048 2296.02,175.232 2296.65,155.99 2297.27,165.2 2297.9,157.527 2298.53,166.767 2299.16,150.283 2299.78,162.341 2300.41,153.492 2301.04,165.769 2301.67,140.745 2302.29,176.018 2302.92,150.107 2303.55,161.917 2304.18,157.868 2304.8,164.373 2305.43,152.78 2306.06,166.071 2306.68,155.127 2307.31,168.335 2307.94,152.967 2308.57,150.026 2309.19,175.545 2309.82,149.653 2310.45,172.199 2311.08,139.784 2311.7,180.019 2312.33,131.337 2312.96,185.086 2313.59,140.15 2314.21,173.834 2314.84,179.141 2315.47,145.917 2316.1,139.539 2316.72,172.674 2317.35,143.233 2317.98,166.567 2318.61,149.239 2319.23,166.653 2319.86,157.767 2320.49,160.998 2321.12,154.837 2321.74,167.008 2322.37,153.396 2323,142.818 2323.62,174.336 2324.25,149.391 2324.88,181.58 2325.51,134.513 2326.13,178.486 2326.76,140.883 2327.39,173.121 2328.02,151.739 2328.64,173.549 2329.27,149.719 2329.9,171.317 2330.53,141.872 2331.15,174.278 2331.78,143.709 2332.41,167.696 2333.04,140.624 2333.66,175.916 2334.29,137.369 2334.92,161.179 2335.55,169.351 2336.17,149.138 2336.8,163.179 2337.43,146.638 2338.06,175.157 2338.68,137.992 2339.31,180.024 2339.94,145.714 2340.57,169.622 2341.19,142.805 2341.82,182.493 2342.45,125.396 2343.07,194.197 2343.7,113.2 2344.33,199.384 2344.96,119.458 2345.58,189.91 2346.21,121.887 2346.84,181.602 2347.47,126.78 2348.09,185.476 2348.72,133.585 2349.35,178.982 2349.98,142.327 2350.6,166.926 2351.23,166.95 2351.86,151.91 2352.49,161.984 2353.11,169.846 2353.74,143.894 2354.37,167.866 2355,146.761 2355.62,166.371 2356.25,164.4 2356.88,159.432 2357.51,157.04 2358.13,153.104 2358.76,164.574 2359.39,164.292 2360.01,151.634 2360.64,171.175 2361.27,150.447 2361.9,173.119 2362.52,133.425 2363.15,177.452 2363.78,153.054 2364.41,161.358 2365.03,157.481 2365.66,162.503 2366.29,167.343 2366.92,150.81 2367.54,173.957 2368.17,150.806 2368.8,157.224 2369.43,153.592 2370.05,156.076 2370.68,159.317 2371.31,162.402 2371.94,161.627 2372.56,172.943 2373.19,147.001 2373.82,165.457 2374.45,146.323 2375.07,163.594 2375.7,155.993 2376.33,170.745 2376.95,147.369 2377.58,172.807 2378.21,154.844 2378.84,160.125 2379.46,166.54 2380.09,135.724 2380.72,168.391 2381.35,160.575 2381.97,161.596 2382.6,162.563 2383.23,155.672 2383.86,158.017 2384.48,157.919 2385.11,166.739 2385.74,147.783 2386.37,167.851 2386.99,153.227 2387.62,162.233 2388.25,159.347 2388.88,156.515 2389.5,167.197 2390.13,153.745 2390.76,158.191 2391.39,157.129 2392.01,162.972 2392.64,164.445 2393.27,148.639 2393.9,159.969 2394.52,160.505 2395.15,160.244 2395.78,164.106 2396.4,155.626 2397.03,159.929 2397.66,161.993 2398.29,161.546 2398.91,150.494 2399.54,161.638 2400.17,153.557 2400.8,158.37 2401.42,160.437 2402.05,156.312 2402.68,159.404 2403.31,169.78 2403.93,146.032 2404.56,166.419 2405.19,158.144 2405.82,160.518 2406.44,158.195 2407.07,154.486 2407.7,175.482 2408.33,148.942 2408.95,162.122 2409.58,158.332 2410.21,156.38 2410.84,158.586 2411.46,159.801 2412.09,162.893 2412.72,185.175 2413.34,144.762 2413.97,143.393 2414.6,181.456 2415.23,125.398 2415.85,187.498 2416.48,122.932 2417.11,184.678 2417.74,133.624 2418.36,173.888 2418.99,137.834 2419.62,182.167 2420.25,127.242 2420.87,188.06 2421.5,136.954 2422.13,161.023 2422.76,164.798 2423.38,148.175 2424.01,171.33 2424.64,142.718 2425.27,172.142 2425.89,146.029 2426.52,180.808 2427.15,141.692 2427.78,182.474 2428.4,141.225 2429.03,166.733 2429.66,162.571 2430.28,153.813 2430.91,167.134 2431.54,143.645 2432.17,184.371 2432.79,131.927 2433.42,179.906 2434.05,146.547 2434.68,160.267 2435.3,155.834 2435.93,152.67 2436.56,171.66 2437.19,139.536 2437.81,171.528 2438.44,141.804 2439.07,168.452 2439.7,158.825 2440.32,169.981 2440.95,144.896 2441.58,172.99 2442.21,146.806 2442.83,161.35 2443.46,146.99 2444.09,178.691 2444.72,150.755 2445.34,181.043 2445.97,133.949 2446.6,186.056 2447.23,138.822 2447.85,171.798 2448.48,145.032 2449.11,162.863 2449.73,174.505 2450.36,142.61 2450.99,169.454 2451.62,142.876 2452.24,164.43 2452.87,163.811 2453.5,153.911 2454.13,158.221 2454.75,154.774 2455.38,164.428 2456.01,150.683 2456.64,157.221 2457.26,141.417 2457.89,175.36 2458.52,140.66 2459.15,181.474 2459.77,130.922 2460.4,177.37 2461.03,157.258 2461.66,149.297 2462.28,164.835 2462.91,157.44 2463.54,162.537 2464.17,153.143 2464.79,174.499 2465.42,129.57 2466.05,203.07 2466.67,123.765 2467.3,190.182 2467.93,134.646 2468.56,195.36 2469.18,112.069 2469.81,202.954 2470.44,127.101 2471.07,188.92 2471.69,135.007 2472.32,169.624 2472.95,157.142 2473.58,165.716 2474.2,150.566 2474.83,176.619 2475.46,148.079 2476.09,161.906 2476.71,148.225 2477.34,168.946 2477.97,153.595 2478.6,181.13 2479.22,133.313 2479.85,175.667 2480.48,142.745 2481.11,166.583 2481.73,150.093 2482.36,162.509 2482.99,149.453 2483.61,155.076 2484.24,143.277 2484.87,159.41 2485.5,159.55 2486.12,154.87 2486.75,158.691 2487.38,150.974 2488.01,156.329 2488.63,160.952 2489.26,152.411 2489.89,157.379 2490.52,156.284 2491.14,163.481 2491.77,151.575 2492.4,143.119 2493.03,179.017 2493.65,149.34 2494.28,163.348 2494.91,162.712 2495.54,156.684 2496.16,160.183 2496.79,157.07 2497.42,163.534 2498.05,145.886 2498.67,159.23 2499.3,155.934 2499.93,163.418 2500.56,159.462 2501.18,161.868 2501.81,169.713 2502.44,146.64 2503.06,169.009 2503.69,160.377 2504.32,153.713 2504.95,155.396 2505.57,147.758 2506.2,171.607 2506.83,141.347 2507.46,130.492 2508.08,178.887 2508.71,134.951 2509.34,191.861 2509.97,131.057 2510.59,176.077 2511.22,149.697 2511.85,158.865 2512.48,161.607 2513.1,154.692 2513.73,160.69 2514.36,167.554 2514.99,158.238 2515.61,167.391 2516.24,158.946 2516.87,152.39 2517.5,128.53 2518.12,165.391 2518.75,161.394 2519.38,154.914 2520,158.165 2520.63,156.36 2521.26,174.644 2521.89,148.102 2522.51,167.323 2523.14,157.012 2523.77,138.583 2524.4,154.593 2525.02,161.629 2525.65,172.08 2526.28,146.594 2526.91,165.585 2527.53,147.559 2528.16,164.09 2528.79,157.506 2529.42,166.183 2530.04,155.925 2530.67,147.87 2531.3,158.753 2531.93,163.898 2532.55,155.258 2533.18,170.234 2533.81,134.516 2534.44,180.293 2535.06,182.675 2535.69,126.284 2536.32,158.001 2536.94,155.4 2537.57,155.324 2538.2,154.067 2538.83,153.665 2539.45,157.593 2540.08,162.698 2540.71,153.295 2541.34,164.901 2541.96,155.237 2542.59,150.412 2543.22,156.677 2543.85,152.477 2544.47,162.826 2545.1,166.887 2545.73,164.544 2546.36,156.887 2546.98,161.827 2547.61,135.443 2548.24,185.987 2548.87,121.532 2549.49,179.985 2550.12,129.625 2550.75,185.527 2551.38,123.87 2552,194.083 2552.63,123.415 2553.26,188.043 2553.89,137.003 2554.51,176.899 2555.14,143.836 2555.77,174.721 2556.39,143.384 2557.02,136.185 2557.65,181.095 2558.28,155.338 2558.9,156.03 2559.53,160.368 2560.16,146.789 2560.79,189.8 2561.41,121.788 2562.04,204.112 2562.67,121.904 2563.3,190.686 2563.92,140.488 2564.55,156.123 2565.18,159.209 2565.81,162.934 2566.43,150.442 2567.06,149.017 2567.69,173.564 2568.32,150.354 2568.94,151.854 2569.57,168.283 2570.2,161.877 2570.83,156.374 2571.45,160.663 2572.08,173.035 2572.71,154.574 2573.33,173.905 2573.96,170.477 2574.59,148.528 2575.22,169.352 2575.84,141.421 2576.47,175.905 2577.1,142.788 2577.73,167.379 2578.35,148.286 2578.98,157.51 2579.61,164.582 2580.24,143.005 2580.86,168.485 2581.49,141.165 2582.12,172.574 2582.75,152.492 2583.37,169.633 2584,166.149 2584.63,149.388 2585.26,149.714 2585.88,161.995 2586.51,163.072 2587.14,159.221 2587.77,170.301 2588.39,159.955 2589.02,156.057 2589.65,165.901 2590.27,159.343 2590.9,159.188 2591.53,158.185 2592.16,169.013 2592.78,132.477 2593.41,180.343 2594.04,147.593 2594.67,162.869 2595.29,151.641 2595.92,176.97 2596.55,150.011 2597.18,157.386 2597.8,173.761 2598.43,164.302 2599.06,165.748 2599.69,144.131 2600.31,171.781 2600.94,135.993 2601.57,179.657 2602.2,138.457 2602.82,190.446 2603.45,156.883 2604.08,160.023 2604.71,151.279 2605.33,160.776 2605.96,148.133 2606.59,158.813 2607.22,164.566 2607.84,159.525 2608.47,169.066 2609.1,143.777 2609.72,164.079 2610.35,157.613 2610.98,141.318 2611.61,170.307 2612.23,147.619 2612.86,167.299 2613.49,145.53 2614.12,170.188 2614.74,129.413 2615.37,181.845 2616,129.37 2616.63,200.618 2617.25,124.69 2617.88,192.669 2618.51,123.199 2619.14,203.457 2619.76,114.903 2620.39,203.513 2621.02,137.679 2621.65,175.625 2622.27,148.422 2622.9,164.559 2623.53,155.688 2624.16,132.994 2624.78,191.002 2625.41,127.129 2626.04,180.968 2626.66,140.06 2627.29,176.05 2627.92,142.945 2628.55,172.669 2629.17,141.265 2629.8,173.088 2630.43,156.986 2631.06,164.543 2631.68,160.907 2632.31,159.677 2632.94,147.284 2633.57,164.611 2634.19,157.691 2634.82,154.095 2635.45,152.269 2636.08,158.284 2636.7,154.808 2637.33,164.108 2637.96,158.192 2638.59,144.148 2639.21,171.323 2639.84,145.522 2640.47,173.121 2641.1,139.996 2641.72,171.721 2642.35,140.536 2642.98,174.872 2643.6,127.26 2644.23,188.332 2644.86,124.067 2645.49,180.144 2646.11,135.706 2646.74,170.547 2647.37,144.575 2648,175.297 2648.62,138.51 2649.25,172.425 2649.88,150.385 2650.51,164.006 2651.13,146.559 2651.76,168.852 2652.39,143.31 2653.02,167.45 2653.64,151.378 2654.27,178.177 2654.9,134.607 2655.53,174.778 2656.15,139.16 2656.78,185.935 2657.41,137.542 2658.04,183.672 2658.66,135.515 2659.29,157.41 2659.92,169.271 2660.55,144.584 2661.17,170.339 2661.8,163.03 2662.43,153.366 2663.05,148.777 2663.68,159.933 2664.31,151.61 2664.94,175.368 2665.56,139.157 2666.19,174.457 2666.82,152.634 2667.45,147.646 2668.07,170.408 2668.7,152.221 2669.33,159.385 2669.96,166.326 2670.58,162.096 2671.21,160.929 2671.84,148.24 2672.47,172.824 2673.09,150.218 2673.72,172.847 2674.35,144.529 2674.98,166.546 2675.6,142.892 2676.23,154.922 2676.86,157.987 2677.49,155.367 2678.11,162.038 2678.74,153.863 2679.37,164.138 2679.99,154.478 2680.62,156.99 2681.25,168.139 2681.88,163.08 2682.5,154.977 2683.13,162.764 2683.76,163.898 2684.39,149.217 2685.01,144.665 2685.64,167.806 2686.27,153.003 2686.9,167.631 2687.52,157.593 2688.15,155.966 2688.78,167.01 2689.41,162.546 2690.03,157.467 2690.66,159.876 2691.29,158.469 2691.92,154.249 2692.54,150.964 2693.17,164.461 2693.8,162.49 2694.43,149.828 2695.05,164.281 2695.68,160.283 2696.31,152.931 2696.93,148.993 2697.56,162.225 2698.19,146.557 2698.82,171.688 2699.44,147.655 2700.07,164.763 2700.7,168.707 2701.33,167.763 2701.95,166.563 2702.58,150.13 2703.21,160.371 2703.84,150.978 2704.46,160.938 2705.09,142.502 2705.72,174.44 2706.35,156.498 2706.97,153.596 2707.6,153.334 2708.23,168.57 2708.86,153.291 2709.48,162.352 2710.11,157.815 2710.74,168.269 2711.37,153.674 2711.99,166.902 2712.62,147.26 2713.25,171.773 2713.88,143.138 2714.5,176.786 2715.13,142.91 2715.76,183.097 2716.38,143.832 2717.01,171.139 2717.64,147.823 2718.27,158.545 2718.89,158.003 2719.52,165.955 2720.15,165.97 2720.78,147.301 2721.4,186.403 2722.03,165.585 2722.66,157.48 2723.29,162.053 2723.91,158.51 2724.54,148.636 2725.17,167.487 2725.8,153.558 2726.42,158.777 2727.05,159.877 2727.68,154.195 2728.31,152.756 2728.93,151.648 2729.56,172.916 2730.19,154.304 2730.82,156.76 2731.44,156.259 2732.07,172.708 2732.7,191.411 2733.32,129.385 2733.95,182.493 2734.58,128.194 2735.21,148.294 2735.83,164.716 2736.46,144.658 2737.09,169.162 2737.72,145.106 2738.34,166.972 2738.97,148.476 2739.6,166.88 2740.23,144.633 2740.85,171.52 2741.48,148.497 2742.11,174.961 2742.74,153.745 2743.36,168.185 2743.99,158.813 2744.62,159.192 2745.25,156.592 2745.87,162.865 2746.5,160.36 2747.13,172.697 2747.76,143.455 2748.38,174.073 2749.01,141.265 2749.64,179.184 2750.26,137.354 2750.89,178.336 2751.52,153.362 2752.15,167.817 2752.77,150.714 2753.4,155.373 2754.03,163.288 2754.66,158.17 2755.28,149.329 2755.91,160.576 2756.54,162.109 2757.17,157.417 2757.79,159.561 2758.42,154.559 2759.05,155.152 2759.68,161.042 2760.3,132.873 2760.93,182.046 2761.56,133.567 2762.19,157.431 2762.81,171.573 2763.44,151.006 2764.07,155.262 2764.7,168.796 2765.32,153.361 2765.95,154.424 2766.58,153.247 2767.21,169.51 2767.83,147.577 2768.46,155.087 2769.09,153.328 2769.71,158.463 2770.34,160.916 2770.97,154.201 2771.6,160.873 2772.22,168.755 2772.85,134.355 2773.48,187.057 2774.11,128.369 2774.73,166.013 2775.36,164.304 2775.99,159.553 2776.62,166.068 2777.24,144.135 2777.87,179.59 2778.5,135.77 2779.13,171.914 2779.75,142.678 2780.38,177.649 2781.01,140.931 2781.64,171.591 2782.26,134.675 2782.89,168.972 2783.52,188.424 2784.15,133.28 2784.77,182.807 2785.4,130.093 2786.03,193.168 2786.65,133.429 2787.28,176.089 2787.91,148.784 2788.54,167.833 2789.16,173.841 2789.79,138.402 2790.42,177.258 2791.05,137.977 2791.67,145.668 2792.3,170.826 2792.93,145.771 2793.56,169.39 2794.18,140.379 2794.81,174.375 2795.44,157.983 2796.07,162.526 2796.69,150.104 2797.32,158.865 2797.95,151.332 2798.58,156.026 2799.2,156.311 2799.83,156.846 2800.46,158.12 2801.09,150.041 2801.71,163.038 2802.34,164.035 2802.97,154.606 2803.59,161.31 2804.22,162.76 2804.85,152.962 2805.48,137.003 2806.1,166.645 2806.73,144.738 2807.36,175.515 2807.99,157.432 2808.61,154.344 2809.24,158.184 2809.87,165.155 2810.5,163.953 2811.12,151.402 2811.75,161.045 2812.38,142.933 2813.01,177.023 2813.63,148.565 2814.26,166.302 2814.89,161.999 2815.52,143.347 2816.14,174.507 2816.77,158.128 2817.4,163.529 2818.03,147.203 2818.65,172.66 2819.28,164.798 2819.91,154.652 2820.54,159.078 2821.16,157.508 2821.79,157.461 2822.42,158.228 2823.04,153.248 2823.67,174.963 2824.3,148.583 2824.93,172.967 2825.55,148.919 2826.18,166.847 2826.81,142.61 2827.44,178.838 2828.06,145.306 2828.69,170.227 2829.32,140.855 2829.95,149.682 2830.57,166.718 2831.2,161.082 2831.83,156.474 2832.46,169.702 2833.08,153.106 2833.71,158.148 2834.34,168.818 2834.97,158.599 2835.59,158.582 2836.22,159.605 2836.85,152.949 2837.48,168.388 2838.1,157.496 2838.73,167.853 2839.36,153.343 2839.98,159.921 2840.61,166.163 2841.24,161.09 2841.87,153.461 2842.49,157.364 2843.12,163.239 2843.75,146.989 2844.38,172.526 2845,149.476 2845.63,175.823 2846.26,150.199 2846.89,167.75 2847.51,138.943 2848.14,167.41 2848.77,149.155 2849.4,139 2850.02,181.167 2850.65,136.465 2851.28,173.214 2851.91,150.521 2852.53,172.821 2853.16,155.324 2853.79,165.599 2854.42,153.82 2855.04,168.571 2855.67,146.739 2856.3,164.824 2856.92,157.617 2857.55,156.225 2858.18,146.752 2858.81,166.639 2859.43,171.419 2860.06,148.044 2860.69,166.231 2861.32,151.999 2861.94,167.193 2862.57,148.462 2863.2,166.395 2863.83,149.127 2864.45,165.058 2865.08,165.748 2865.71,141.838 2866.34,172.239 2866.96,146.217 2867.59,171.588 2868.22,147.814 2868.85,171.797 2869.47,154.782 2870.1,161.364 2870.73,166.411 2871.36,153.871 2871.98,159.136 2872.61,161.572 2873.24,151.752 2873.87,171.369 2874.49,140.149 2875.12,177.959 2875.75,135.026 2876.37,168.172 2877,147.291 2877.63,161.761 2878.26,148.415 2878.88,169.529 2879.51,147.691 2880.14,158.603 2880.77,173.18 2881.39,146.988 2882.02,170.404 2882.65,155.511 2883.28,166.772 2883.9,154.725 2884.53,164.117 2885.16,148.743 2885.79,178.503 2886.41,151.932 2887.04,163.033 2887.67,146.672 2888.3,170.067 2888.92,145.127 2889.55,164.212 2890.18,152.532 2890.81,155.961 2891.43,148.405 2892.06,173.521 2892.69,145.535 2893.31,167.897 2893.94,163.014 2894.57,150.843 2895.2,179.211 2895.82,152.481 2896.45,151.951 2897.08,157.545 2897.71,174.573 2898.33,136.217 2898.96,169.504 2899.59,153.613 2900.22,161.38 2900.84,159.193 2901.47,154.645 2902.1,161.948 2902.73,153.805 2903.35,163.21 2903.98,169.97 2904.61,132.323 2905.24,182.744 2905.86,147.075 2906.49,151.214 2907.12,166.683 2907.75,157.303 2908.37,160.875 2909,156.469 2909.63,154.08 2910.25,158.915 2910.88,162.199 2911.51,162.9 2912.14,148.117 2912.76,171.618 2913.39,146.331 2914.02,130.22 2914.65,186.142 2915.27,117.872 2915.9,192.2 2916.53,129.284 2917.16,197.814 2917.78,167.194 2918.41,151.873 2919.04,162.675 2919.67,157.869 2920.29,159.655 2920.92,146.367 2921.55,176.32 2922.18,145.831 2922.8,169.518 2923.43,175.386 2924.06,174.908 2924.69,173.539 2925.31,131.684 2925.94,178.959 2926.57,152.931 2927.2,130.961 2927.82,187.673 2928.45,138.372 2929.08,183.045 2929.7,127.898 2930.33,177.979 2930.96,140.12 2931.59,176.207 2932.21,184.951 2932.84,129.836 2933.47,188.448 2934.1,121.84 2934.72,184.779 2935.35,140.261 2935.98,176.71 2936.61,137.787 2937.23,190.084 2937.86,136.109 2938.49,169.028 2939.12,166.137 2939.74,148.314 2940.37,155.076 2941,157.269 2941.63,158.236 2942.25,168.047 2942.88,150.459 2943.51,163.583 2944.14,143.639 2944.76,181.982 2945.39,138.47 2946.02,179.911 2946.64,140.892 2947.27,185.968 2947.9,137.772 2948.53,171.597 2949.15,145.837 2949.78,167.984 2950.41,146.524 2951.04,146.488 2951.66,162.423 2952.29,163.153 2952.92,155.735 2953.55,167.37 2954.17,141.844 2954.8,179.478 2955.43,139.338 2956.06,165.4 2956.68,144.068 2957.31,176.237 2957.94,159.278 2958.57,166.152 2959.19,158.335 2959.82,163.453 2960.45,153.061 2961.08,169.501 2961.7,149.899 2962.33,137.916 2962.96,176.451 2963.58,140.408 2964.21,173.499 2964.84,139.93 2965.47,170.393 2966.09,146.425 2966.72,169.287 2967.35,148.204 2967.98,147.309 2968.6,174.429 2969.23,146.101 2969.86,166.992 2970.49,150.898 2971.11,155.014 2971.74,157.91 2972.37,166.206 2973,154.851 2973.62,161.686 2974.25,157.586 2974.88,161.243 2975.51,145.595 2976.13,171.975 2976.76,149.653 2977.39,172.048 2978.02,145.915 2978.64,168.315 2979.27,145.365 2979.9,171.976 2980.53,158.621 2981.15,153.235 2981.78,160.811 2982.41,162.939 2983.03,142.614 2983.66,165.512 2984.29,155.481 2984.92,163.683 2985.54,145.208 2986.17,141.322 2986.8,172.668 2987.43,130.439 2988.05,179.9 2988.68,146.953 2989.31,161.593 2989.94,154.57 2990.56,158.937 2991.19,162.914 2991.82,158.303 2992.45,157.923 2993.07,156.215 2993.7,168.795 2994.33,143.549 2994.96,164.527 2995.58,150.167 2996.21,156.738 2996.84,153.699 2997.47,150.131 2998.09,167.139 2998.72,178.019 2999.35,142.138 2999.97,175.435 3000.6,139.409 3001.23,170.79 3001.86,144.464 3002.48,183.13 3003.11,141.601 3003.74,177.561 3004.37,142.26 3004.99,176.468 3005.62,162.854 3006.25,175.018 3006.88,147.741 3007.5,170.318 3008.13,158.188 3008.76,156.185 3009.39,154.593 3010.01,150.48 3010.64,168.875 3011.27,147.122 3011.9,169.155 3012.52,145.361 3013.15,168.27 3013.78,142.079 3014.41,195.866 3015.03,125.357 3015.66,186.492 3016.29,132.886 3016.91,190.126 3017.54,126.58 3018.17,181.024 3018.8,132.653 3019.42,172.753 3020.05,140.592 3020.68,175.352 3021.31,165.78 3021.93,165.302 3022.56,148.689 3023.19,173.503 3023.82,136.797 3024.44,158.361 3025.07,156.455 3025.7,164.618 3026.33,156.658 3026.95,154.134 3027.58,159.632 3028.21,158.972 3028.84,150.913 3029.46,155.739 3030.09,162.032 3030.72,156.712 3031.35,163.851 3031.97,157.382 3032.6,153.153 3033.23,153.748 3033.86,166.508 3034.48,147.671 3035.11,148.362 3035.74,146.025 3036.36,159.602 3036.99,163.12 3037.62,155.088 3038.25,163.971 3038.87,152.373 3039.5,155.525 3040.13,155.13 3040.76,159.826 3041.38,126.717 3042.01,174.96 3042.64,140.837 3043.27,174.952 3043.89,152.36 3044.52,163.124 3045.15,173.324 3045.78,149.632 3046.4,161.496 3047.03,159.835 3047.66,155.439 3048.29,151.463 3048.91,171.852 3049.54,145.548 3050.17,169.415 3050.8,147.579 3051.42,128.122 3052.05,137.582 3052.68,134.708 3053.3,179.215 3053.93,145.898 3054.56,182.991 3055.19,134.833 3055.81,187.18 3056.44,133.562 3057.07,179.094 3057.7,149.44 3058.32,166.377 3058.95,156.055 3059.58,162.228 3060.21,137.024 3060.83,172.982 3061.46,144.956 3062.09,165.327 3062.72,148.913 3063.34,159.235 3063.97,156.866 3064.6,155.578 3065.23,160.778 3065.85,164.831 3066.48,152.946 3067.11,160.689 3067.74,160.801 "/>
<path clip-path="url(#clip660)" d="M2649.78 693.754 L3052.62 693.754 L3052.62 590.074 L2649.78 590.074  Z" fill="#ffffff" fill-rule="evenodd" fill-opacity="1"/>
<polyline clip-path="url(#clip660)" style="stroke:#000000; stroke-linecap:round; stroke-linejoin:round; stroke-width:4; stroke-opacity:1; fill:none" points="2649.78,693.754 3052.62,693.754 3052.62,590.074 2649.78,590.074 2649.78,693.754 "/>
<polyline clip-path="url(#clip660)" style="stroke:#009af9; stroke-linecap:round; stroke-linejoin:round; stroke-width:2; stroke-opacity:1; fill:none" points="2683.16,641.914 2883.43,641.914 "/>
<path clip-path="url(#clip660)" d="M2916.81 624.634 L2921.49 624.634 L2921.49 638.801 L2938.48 638.801 L2938.48 624.634 L2943.15 624.634 L2943.15 659.194 L2938.48 659.194 L2938.48 642.736 L2921.49 642.736 L2921.49 659.194 L2916.81 659.194 L2916.81 624.634 Z" fill="#000000" fill-rule="evenodd" fill-opacity="1" /><path clip-path="url(#clip660)" d="M2952.46 624.634 L2959.43 624.634 L2968.25 648.153 L2977.11 624.634 L2984.08 624.634 L2984.08 659.194 L2979.52 659.194 L2979.52 628.847 L2970.61 652.551 L2965.91 652.551 L2957 628.847 L2957 659.194 L2952.46 659.194 L2952.46 624.634 Z" fill="#000000" fill-rule="evenodd" fill-opacity="1" /><path clip-path="url(#clip660)" d="M3019.24 627.296 L3019.24 632.227 Q3016.88 630.028 3014.2 628.94 Q3011.53 627.852 3008.52 627.852 Q3002.6 627.852 2999.45 631.486 Q2996.3 635.097 2996.3 641.949 Q2996.3 648.778 2999.45 652.412 Q3002.6 656.023 3008.52 656.023 Q3011.53 656.023 3014.2 654.935 Q3016.88 653.847 3019.24 651.648 L3019.24 656.532 Q3016.79 658.199 3014.03 659.032 Q3011.3 659.866 3008.25 659.866 Q3000.4 659.866 2995.89 655.074 Q2991.37 650.259 2991.37 641.949 Q2991.37 633.616 2995.89 628.824 Q3000.4 624.009 3008.25 624.009 Q3011.35 624.009 3014.08 624.843 Q3016.83 625.653 3019.24 627.296 Z" fill="#000000" fill-rule="evenodd" fill-opacity="1" /></svg>
