<?xml version="1.0" encoding="utf-8"?>
<svg xmlns="http://www.w3.org/2000/svg" xmlns:xlink="http://www.w3.org/1999/xlink" width="800" height="200" viewBox="0 0 3200 800">
<defs>
  <clipPath id="clip460">
    <rect x="0" y="0" width="3200" height="800"/>
  </clipPath>
</defs>
<path clip-path="url(#clip460)" d="M0 800 L3200 800 L3200 0 L0 0  Z" fill="#ffffff" fill-rule="evenodd" fill-opacity="1"/>
<defs>
  <clipPath id="clip461">
    <rect x="640" y="0" width="2241" height="800"/>
  </clipPath>
</defs>
<path clip-path="url(#clip460)" d="M148.696 716.048 L3152.76 716.048 L3152.76 47.2441 L148.696 47.2441  Z" fill="#ffffff" fill-rule="evenodd" fill-opacity="1"/>
<defs>
  <clipPath id="clip462">
    <rect x="148" y="47" width="3005" height="670"/>
  </clipPath>
</defs>
<polyline clip-path="url(#clip462)" style="stroke:#000000; stroke-linecap:round; stroke-linejoin:round; stroke-width:2; stroke-opacity:0.1; fill:none" points="233.1,716.048 233.1,47.2441 "/>
<polyline clip-path="url(#clip462)" style="stroke:#000000; stroke-linecap:round; stroke-linejoin:round; stroke-width:2; stroke-opacity:0.1; fill:none" points="849.325,716.048 849.325,47.2441 "/>
<polyline clip-path="url(#clip462)" style="stroke:#000000; stroke-linecap:round; stroke-linejoin:round; stroke-width:2; stroke-opacity:0.1; fill:none" points="1465.55,716.048 1465.55,47.2441 "/>
<polyline clip-path="url(#clip462)" style="stroke:#000000; stroke-linecap:round; stroke-linejoin:round; stroke-width:2; stroke-opacity:0.1; fill:none" points="2081.78,716.048 2081.78,47.2441 "/>
<polyline clip-path="url(#clip462)" style="stroke:#000000; stroke-linecap:round; stroke-linejoin:round; stroke-width:2; stroke-opacity:0.1; fill:none" points="2698,716.048 2698,47.2441 "/>
<polyline clip-path="url(#clip460)" style="stroke:#000000; stroke-linecap:round; stroke-linejoin:round; stroke-width:4; stroke-opacity:1; fill:none" points="148.696,716.048 3152.76,716.048 "/>
<polyline clip-path="url(#clip460)" style="stroke:#000000; stroke-linecap:round; stroke-linejoin:round; stroke-width:4; stroke-opacity:1; fill:none" points="233.1,716.048 233.1,697.15 "/>
<polyline clip-path="url(#clip460)" style="stroke:#000000; stroke-linecap:round; stroke-linejoin:round; stroke-width:4; stroke-opacity:1; fill:none" points="849.325,716.048 849.325,697.15 "/>
<polyline clip-path="url(#clip460)" style="stroke:#000000; stroke-linecap:round; stroke-linejoin:round; stroke-width:4; stroke-opacity:1; fill:none" points="1465.55,716.048 1465.55,697.15 "/>
<polyline clip-path="url(#clip460)" style="stroke:#000000; stroke-linecap:round; stroke-linejoin:round; stroke-width:4; stroke-opacity:1; fill:none" points="2081.78,716.048 2081.78,697.15 "/>
<polyline clip-path="url(#clip460)" style="stroke:#000000; stroke-linecap:round; stroke-linejoin:round; stroke-width:4; stroke-opacity:1; fill:none" points="2698,716.048 2698,697.15 "/>
<path clip-path="url(#clip460)" d="M233.1 753.367 Q229.489 753.367 227.66 756.931 Q225.855 760.473 225.855 767.603 Q225.855 774.709 227.66 778.274 Q229.489 781.815 233.1 781.815 Q236.734 781.815 238.54 778.274 Q240.368 774.709 240.368 767.603 Q240.368 760.473 238.54 756.931 Q236.734 753.367 233.1 753.367 M233.1 749.663 Q238.91 749.663 241.966 754.269 Q245.044 758.853 245.044 767.603 Q245.044 776.329 241.966 780.936 Q238.91 785.519 233.1 785.519 Q227.29 785.519 224.211 780.936 Q221.156 776.329 221.156 767.603 Q221.156 758.853 224.211 754.269 Q227.29 749.663 233.1 749.663 Z" fill="#000000" fill-rule="evenodd" fill-opacity="1" /><path clip-path="url(#clip460)" d="M793.851 780.913 L801.49 780.913 L801.49 754.547 L793.179 756.214 L793.179 751.955 L801.443 750.288 L806.119 750.288 L806.119 780.913 L813.758 780.913 L813.758 784.848 L793.851 784.848 L793.851 780.913 Z" fill="#000000" fill-rule="evenodd" fill-opacity="1" /><path clip-path="url(#clip460)" d="M833.202 753.367 Q829.591 753.367 827.763 756.931 Q825.957 760.473 825.957 767.603 Q825.957 774.709 827.763 778.274 Q829.591 781.815 833.202 781.815 Q836.837 781.815 838.642 778.274 Q840.471 774.709 840.471 767.603 Q840.471 760.473 838.642 756.931 Q836.837 753.367 833.202 753.367 M833.202 749.663 Q839.013 749.663 842.068 754.269 Q845.147 758.853 845.147 767.603 Q845.147 776.329 842.068 780.936 Q839.013 785.519 833.202 785.519 Q827.392 785.519 824.314 780.936 Q821.258 776.329 821.258 767.603 Q821.258 758.853 824.314 754.269 Q827.392 749.663 833.202 749.663 Z" fill="#000000" fill-rule="evenodd" fill-opacity="1" /><path clip-path="url(#clip460)" d="M863.364 753.367 Q859.753 753.367 857.924 756.931 Q856.119 760.473 856.119 767.603 Q856.119 774.709 857.924 778.274 Q859.753 781.815 863.364 781.815 Q866.999 781.815 868.804 778.274 Q870.633 774.709 870.633 767.603 Q870.633 760.473 868.804 756.931 Q866.999 753.367 863.364 753.367 M863.364 749.663 Q869.174 749.663 872.23 754.269 Q875.309 758.853 875.309 767.603 Q875.309 776.329 872.23 780.936 Q869.174 785.519 863.364 785.519 Q857.554 785.519 854.475 780.936 Q851.42 776.329 851.42 767.603 Q851.42 758.853 854.475 754.269 Q857.554 749.663 863.364 749.663 Z" fill="#000000" fill-rule="evenodd" fill-opacity="1" /><path clip-path="url(#clip460)" d="M893.526 753.367 Q889.915 753.367 888.086 756.931 Q886.281 760.473 886.281 767.603 Q886.281 774.709 888.086 778.274 Q889.915 781.815 893.526 781.815 Q897.16 781.815 898.966 778.274 Q900.795 774.709 900.795 767.603 Q900.795 760.473 898.966 756.931 Q897.16 753.367 893.526 753.367 M893.526 749.663 Q899.336 749.663 902.392 754.269 Q905.471 758.853 905.471 767.603 Q905.471 776.329 902.392 780.936 Q899.336 785.519 893.526 785.519 Q887.716 785.519 884.637 780.936 Q881.582 776.329 881.582 767.603 Q881.582 758.853 884.637 754.269 Q887.716 749.663 893.526 749.663 Z" fill="#000000" fill-rule="evenodd" fill-opacity="1" /><path clip-path="url(#clip460)" d="M1414.16 780.913 L1430.48 780.913 L1430.48 784.848 L1408.54 784.848 L1408.54 780.913 Q1411.2 778.158 1415.78 773.528 Q1420.39 768.876 1421.57 767.533 Q1423.81 765.01 1424.69 763.274 Q1425.6 761.515 1425.6 759.825 Q1425.6 757.07 1423.65 755.334 Q1421.73 753.598 1418.63 753.598 Q1416.43 753.598 1413.98 754.362 Q1411.55 755.126 1408.77 756.677 L1408.77 751.955 Q1411.59 750.82 1414.05 750.242 Q1416.5 749.663 1418.54 749.663 Q1423.91 749.663 1427.1 752.348 Q1430.3 755.033 1430.3 759.524 Q1430.3 761.654 1429.49 763.575 Q1428.7 765.473 1426.59 768.066 Q1426.01 768.737 1422.91 771.954 Q1419.81 775.149 1414.16 780.913 Z" fill="#000000" fill-rule="evenodd" fill-opacity="1" /><path clip-path="url(#clip460)" d="M1450.3 753.367 Q1446.68 753.367 1444.86 756.931 Q1443.05 760.473 1443.05 767.603 Q1443.05 774.709 1444.86 778.274 Q1446.68 781.815 1450.3 781.815 Q1453.93 781.815 1455.74 778.274 Q1457.56 774.709 1457.56 767.603 Q1457.56 760.473 1455.74 756.931 Q1453.93 753.367 1450.3 753.367 M1450.3 749.663 Q1456.11 749.663 1459.16 754.269 Q1462.24 758.853 1462.24 767.603 Q1462.24 776.329 1459.16 780.936 Q1456.11 785.519 1450.3 785.519 Q1444.49 785.519 1441.41 780.936 Q1438.35 776.329 1438.35 767.603 Q1438.35 758.853 1441.41 754.269 Q1444.49 749.663 1450.3 749.663 Z" fill="#000000" fill-rule="evenodd" fill-opacity="1" /><path clip-path="url(#clip460)" d="M1480.46 753.367 Q1476.85 753.367 1475.02 756.931 Q1473.21 760.473 1473.21 767.603 Q1473.21 774.709 1475.02 778.274 Q1476.85 781.815 1480.46 781.815 Q1484.09 781.815 1485.9 778.274 Q1487.73 774.709 1487.73 767.603 Q1487.73 760.473 1485.9 756.931 Q1484.09 753.367 1480.46 753.367 M1480.46 749.663 Q1486.27 749.663 1489.32 754.269 Q1492.4 758.853 1492.4 767.603 Q1492.4 776.329 1489.32 780.936 Q1486.27 785.519 1480.46 785.519 Q1474.65 785.519 1471.57 780.936 Q1468.51 776.329 1468.51 767.603 Q1468.51 758.853 1471.57 754.269 Q1474.65 749.663 1480.46 749.663 Z" fill="#000000" fill-rule="evenodd" fill-opacity="1" /><path clip-path="url(#clip460)" d="M1510.62 753.367 Q1507.01 753.367 1505.18 756.931 Q1503.37 760.473 1503.37 767.603 Q1503.37 774.709 1505.18 778.274 Q1507.01 781.815 1510.62 781.815 Q1514.25 781.815 1516.06 778.274 Q1517.89 774.709 1517.89 767.603 Q1517.89 760.473 1516.06 756.931 Q1514.25 753.367 1510.62 753.367 M1510.62 749.663 Q1516.43 749.663 1519.48 754.269 Q1522.56 758.853 1522.56 767.603 Q1522.56 776.329 1519.48 780.936 Q1516.43 785.519 1510.62 785.519 Q1504.81 785.519 1501.73 780.936 Q1498.67 776.329 1498.67 767.603 Q1498.67 758.853 1501.73 754.269 Q1504.81 749.663 1510.62 749.663 Z" fill="#000000" fill-rule="evenodd" fill-opacity="1" /><path clip-path="url(#clip460)" d="M2040.46 766.214 Q2043.81 766.931 2045.69 769.2 Q2047.59 771.468 2047.59 774.802 Q2047.59 779.917 2044.07 782.718 Q2040.55 785.519 2034.07 785.519 Q2031.89 785.519 2029.58 785.079 Q2027.28 784.663 2024.83 783.806 L2024.83 779.292 Q2026.78 780.427 2029.09 781.005 Q2031.41 781.584 2033.93 781.584 Q2038.33 781.584 2040.62 779.848 Q2042.93 778.112 2042.93 774.802 Q2042.93 771.746 2040.78 770.033 Q2038.65 768.297 2034.83 768.297 L2030.8 768.297 L2030.8 764.454 L2035.02 764.454 Q2038.47 764.454 2040.29 763.089 Q2042.12 761.7 2042.12 759.107 Q2042.12 756.445 2040.22 755.033 Q2038.35 753.598 2034.83 753.598 Q2032.91 753.598 2030.71 754.015 Q2028.51 754.431 2025.87 755.311 L2025.87 751.144 Q2028.53 750.404 2030.85 750.033 Q2033.19 749.663 2035.25 749.663 Q2040.57 749.663 2043.67 752.093 Q2046.78 754.501 2046.78 758.621 Q2046.78 761.492 2045.13 763.482 Q2043.49 765.45 2040.46 766.214 Z" fill="#000000" fill-rule="evenodd" fill-opacity="1" /><path clip-path="url(#clip460)" d="M2066.45 753.367 Q2062.84 753.367 2061.01 756.931 Q2059.21 760.473 2059.21 767.603 Q2059.21 774.709 2061.01 778.274 Q2062.84 781.815 2066.45 781.815 Q2070.09 781.815 2071.89 778.274 Q2073.72 774.709 2073.72 767.603 Q2073.72 760.473 2071.89 756.931 Q2070.09 753.367 2066.45 753.367 M2066.45 749.663 Q2072.26 749.663 2075.32 754.269 Q2078.4 758.853 2078.4 767.603 Q2078.4 776.329 2075.32 780.936 Q2072.26 785.519 2066.45 785.519 Q2060.64 785.519 2057.56 780.936 Q2054.51 776.329 2054.51 767.603 Q2054.51 758.853 2057.56 754.269 Q2060.64 749.663 2066.45 749.663 Z" fill="#000000" fill-rule="evenodd" fill-opacity="1" /><path clip-path="url(#clip460)" d="M2096.61 753.367 Q2093 753.367 2091.17 756.931 Q2089.37 760.473 2089.37 767.603 Q2089.37 774.709 2091.17 778.274 Q2093 781.815 2096.61 781.815 Q2100.25 781.815 2102.05 778.274 Q2103.88 774.709 2103.88 767.603 Q2103.88 760.473 2102.05 756.931 Q2100.25 753.367 2096.61 753.367 M2096.61 749.663 Q2102.42 749.663 2105.48 754.269 Q2108.56 758.853 2108.56 767.603 Q2108.56 776.329 2105.48 780.936 Q2102.42 785.519 2096.61 785.519 Q2090.8 785.519 2087.72 780.936 Q2084.67 776.329 2084.67 767.603 Q2084.67 758.853 2087.72 754.269 Q2090.8 749.663 2096.61 749.663 Z" fill="#000000" fill-rule="evenodd" fill-opacity="1" /><path clip-path="url(#clip460)" d="M2126.77 753.367 Q2123.16 753.367 2121.34 756.931 Q2119.53 760.473 2119.53 767.603 Q2119.53 774.709 2121.34 778.274 Q2123.16 781.815 2126.77 781.815 Q2130.41 781.815 2132.21 778.274 Q2134.04 774.709 2134.04 767.603 Q2134.04 760.473 2132.21 756.931 Q2130.41 753.367 2126.77 753.367 M2126.77 749.663 Q2132.59 749.663 2135.64 754.269 Q2138.72 758.853 2138.72 767.603 Q2138.72 776.329 2135.64 780.936 Q2132.59 785.519 2126.77 785.519 Q2120.96 785.519 2117.89 780.936 Q2114.83 776.329 2114.83 767.603 Q2114.83 758.853 2117.89 754.269 Q2120.96 749.663 2126.77 749.663 Z" fill="#000000" fill-rule="evenodd" fill-opacity="1" /><path clip-path="url(#clip460)" d="M2656.01 754.362 L2644.2 772.811 L2656.01 772.811 L2656.01 754.362 M2654.78 750.288 L2660.66 750.288 L2660.66 772.811 L2665.59 772.811 L2665.59 776.7 L2660.66 776.7 L2660.66 784.848 L2656.01 784.848 L2656.01 776.7 L2640.41 776.7 L2640.41 772.186 L2654.78 750.288 Z" fill="#000000" fill-rule="evenodd" fill-opacity="1" /><path clip-path="url(#clip460)" d="M2683.32 753.367 Q2679.71 753.367 2677.88 756.931 Q2676.08 760.473 2676.08 767.603 Q2676.08 774.709 2677.88 778.274 Q2679.71 781.815 2683.32 781.815 Q2686.96 781.815 2688.76 778.274 Q2690.59 774.709 2690.59 767.603 Q2690.59 760.473 2688.76 756.931 Q2686.96 753.367 2683.32 753.367 M2683.32 749.663 Q2689.13 749.663 2692.19 754.269 Q2695.27 758.853 2695.27 767.603 Q2695.27 776.329 2692.19 780.936 Q2689.13 785.519 2683.32 785.519 Q2677.51 785.519 2674.44 780.936 Q2671.38 776.329 2671.38 767.603 Q2671.38 758.853 2674.44 754.269 Q2677.51 749.663 2683.32 749.663 Z" fill="#000000" fill-rule="evenodd" fill-opacity="1" /><path clip-path="url(#clip460)" d="M2713.49 753.367 Q2709.88 753.367 2708.05 756.931 Q2706.24 760.473 2706.24 767.603 Q2706.24 774.709 2708.05 778.274 Q2709.88 781.815 2713.49 781.815 Q2717.12 781.815 2718.93 778.274 Q2720.75 774.709 2720.75 767.603 Q2720.75 760.473 2718.93 756.931 Q2717.12 753.367 2713.49 753.367 M2713.49 749.663 Q2719.3 749.663 2722.35 754.269 Q2725.43 758.853 2725.43 767.603 Q2725.43 776.329 2722.35 780.936 Q2719.3 785.519 2713.49 785.519 Q2707.68 785.519 2704.6 780.936 Q2701.54 776.329 2701.54 767.603 Q2701.54 758.853 2704.6 754.269 Q2707.68 749.663 2713.49 749.663 Z" fill="#000000" fill-rule="evenodd" fill-opacity="1" /><path clip-path="url(#clip460)" d="M2743.65 753.367 Q2740.04 753.367 2738.21 756.931 Q2736.4 760.473 2736.4 767.603 Q2736.4 774.709 2738.21 778.274 Q2740.04 781.815 2743.65 781.815 Q2747.28 781.815 2749.09 778.274 Q2750.92 774.709 2750.92 767.603 Q2750.92 760.473 2749.09 756.931 Q2747.28 753.367 2743.65 753.367 M2743.65 749.663 Q2749.46 749.663 2752.51 754.269 Q2755.59 758.853 2755.59 767.603 Q2755.59 776.329 2752.51 780.936 Q2749.46 785.519 2743.65 785.519 Q2737.84 785.519 2734.76 780.936 Q2731.7 776.329 2731.7 767.603 Q2731.7 758.853 2734.76 754.269 Q2737.84 749.663 2743.65 749.663 Z" fill="#000000" fill-rule="evenodd" fill-opacity="1" /><polyline clip-path="url(#clip462)" style="stroke:#000000; stroke-linecap:round; stroke-linejoin:round; stroke-width:2; stroke-opacity:0.1; fill:none" points="148.696,716.048 3152.76,716.048 "/>
<polyline clip-path="url(#clip462)" style="stroke:#000000; stroke-linecap:round; stroke-linejoin:round; stroke-width:2; stroke-opacity:0.1; fill:none" points="148.696,576.714 3152.76,576.714 "/>
<polyline clip-path="url(#clip462)" style="stroke:#000000; stroke-linecap:round; stroke-linejoin:round; stroke-width:2; stroke-opacity:0.1; fill:none" points="148.696,437.38 3152.76,437.38 "/>
<polyline clip-path="url(#clip462)" style="stroke:#000000; stroke-linecap:round; stroke-linejoin:round; stroke-width:2; stroke-opacity:0.1; fill:none" points="148.696,298.046 3152.76,298.046 "/>
<polyline clip-path="url(#clip462)" style="stroke:#000000; stroke-linecap:round; stroke-linejoin:round; stroke-width:2; stroke-opacity:0.1; fill:none" points="148.696,158.711 3152.76,158.711 "/>
<polyline clip-path="url(#clip460)" style="stroke:#000000; stroke-linecap:round; stroke-linejoin:round; stroke-width:4; stroke-opacity:1; fill:none" points="148.696,716.048 148.696,47.2441 "/>
<polyline clip-path="url(#clip460)" style="stroke:#000000; stroke-linecap:round; stroke-linejoin:round; stroke-width:4; stroke-opacity:1; fill:none" points="148.696,716.048 167.593,716.048 "/>
<polyline clip-path="url(#clip460)" style="stroke:#000000; stroke-linecap:round; stroke-linejoin:round; stroke-width:4; stroke-opacity:1; fill:none" points="148.696,576.714 167.593,576.714 "/>
<polyline clip-path="url(#clip460)" style="stroke:#000000; stroke-linecap:round; stroke-linejoin:round; stroke-width:4; stroke-opacity:1; fill:none" points="148.696,437.38 167.593,437.38 "/>
<polyline clip-path="url(#clip460)" style="stroke:#000000; stroke-linecap:round; stroke-linejoin:round; stroke-width:4; stroke-opacity:1; fill:none" points="148.696,298.046 167.593,298.046 "/>
<polyline clip-path="url(#clip460)" style="stroke:#000000; stroke-linecap:round; stroke-linejoin:round; stroke-width:4; stroke-opacity:1; fill:none" points="148.696,158.711 167.593,158.711 "/>
<path clip-path="url(#clip460)" d="M88.7512 701.847 Q85.1401 701.847 83.3114 705.411 Q81.5058 708.953 81.5058 716.083 Q81.5058 723.189 83.3114 726.754 Q85.1401 730.295 88.7512 730.295 Q92.3854 730.295 94.1909 726.754 Q96.0196 723.189 96.0196 716.083 Q96.0196 708.953 94.1909 705.411 Q92.3854 701.847 88.7512 701.847 M88.7512 698.143 Q94.5613 698.143 97.6169 702.749 Q100.696 707.333 100.696 716.083 Q100.696 724.809 97.6169 729.416 Q94.5613 733.999 88.7512 733.999 Q82.941 733.999 79.8623 729.416 Q76.8068 724.809 76.8068 716.083 Q76.8068 707.333 79.8623 702.749 Q82.941 698.143 88.7512 698.143 Z" fill="#000000" fill-rule="evenodd" fill-opacity="1" /><path clip-path="url(#clip460)" d="M79.7929 559.434 L98.1493 559.434 L98.1493 563.369 L84.0753 563.369 L84.0753 571.841 Q85.0938 571.494 86.1123 571.332 Q87.1308 571.147 88.1493 571.147 Q93.9363 571.147 97.3159 574.318 Q100.696 577.489 100.696 582.906 Q100.696 588.485 97.2233 591.586 Q93.7511 594.665 87.4317 594.665 Q85.2558 594.665 82.9873 594.295 Q80.7419 593.924 78.3346 593.184 L78.3346 588.485 Q80.4179 589.619 82.6401 590.174 Q84.8623 590.73 87.3391 590.73 Q91.3437 590.73 93.6817 588.623 Q96.0196 586.517 96.0196 582.906 Q96.0196 579.295 93.6817 577.188 Q91.3437 575.082 87.3391 575.082 Q85.4641 575.082 83.5892 575.498 Q81.7373 575.915 79.7929 576.795 L79.7929 559.434 Z" fill="#000000" fill-rule="evenodd" fill-opacity="1" /><path clip-path="url(#clip460)" d="M49.3995 450.724 L57.0384 450.724 L57.0384 424.359 L48.7282 426.026 L48.7282 421.766 L56.9921 420.1 L61.668 420.1 L61.668 450.724 L69.3068 450.724 L69.3068 454.66 L49.3995 454.66 L49.3995 450.724 Z" fill="#000000" fill-rule="evenodd" fill-opacity="1" /><path clip-path="url(#clip460)" d="M88.7512 423.178 Q85.1401 423.178 83.3114 426.743 Q81.5058 430.285 81.5058 437.414 Q81.5058 444.521 83.3114 448.086 Q85.1401 451.627 88.7512 451.627 Q92.3854 451.627 94.1909 448.086 Q96.0196 444.521 96.0196 437.414 Q96.0196 430.285 94.1909 426.743 Q92.3854 423.178 88.7512 423.178 M88.7512 419.475 Q94.5613 419.475 97.6169 424.081 Q100.696 428.664 100.696 437.414 Q100.696 446.141 97.6169 450.748 Q94.5613 455.331 88.7512 455.331 Q82.941 455.331 79.8623 450.748 Q76.8068 446.141 76.8068 437.414 Q76.8068 428.664 79.8623 424.081 Q82.941 419.475 88.7512 419.475 Z" fill="#000000" fill-rule="evenodd" fill-opacity="1" /><path clip-path="url(#clip460)" d="M50.3949 311.39 L58.0337 311.39 L58.0337 285.025 L49.7236 286.691 L49.7236 282.432 L57.9874 280.766 L62.6633 280.766 L62.6633 311.39 L70.3022 311.39 L70.3022 315.326 L50.3949 315.326 L50.3949 311.39 Z" fill="#000000" fill-rule="evenodd" fill-opacity="1" /><path clip-path="url(#clip460)" d="M79.7929 280.766 L98.1493 280.766 L98.1493 284.701 L84.0753 284.701 L84.0753 293.173 Q85.0938 292.826 86.1123 292.664 Q87.1308 292.478 88.1493 292.478 Q93.9363 292.478 97.3159 295.65 Q100.696 298.821 100.696 304.238 Q100.696 309.816 97.2233 312.918 Q93.7511 315.997 87.4317 315.997 Q85.2558 315.997 82.9873 315.626 Q80.7419 315.256 78.3346 314.515 L78.3346 309.816 Q80.4179 310.951 82.6401 311.506 Q84.8623 312.062 87.3391 312.062 Q91.3437 312.062 93.6817 309.955 Q96.0196 307.849 96.0196 304.238 Q96.0196 300.627 93.6817 298.52 Q91.3437 296.414 87.3391 296.414 Q85.4641 296.414 83.5892 296.83 Q81.7373 297.247 79.7929 298.127 L79.7929 280.766 Z" fill="#000000" fill-rule="evenodd" fill-opacity="1" /><path clip-path="url(#clip460)" d="M52.6171 172.056 L68.9365 172.056 L68.9365 175.991 L46.9921 175.991 L46.9921 172.056 Q49.6541 169.302 54.2375 164.672 Q58.8439 160.019 60.0245 158.677 Q62.2698 156.154 63.1494 154.417 Q64.0522 152.658 64.0522 150.968 Q64.0522 148.214 62.1078 146.478 Q60.1865 144.742 57.0847 144.742 Q54.8856 144.742 52.4319 145.505 Q50.0014 146.269 47.2236 147.82 L47.2236 143.098 Q50.0477 141.964 52.5014 141.385 Q54.955 140.806 56.9921 140.806 Q62.3624 140.806 65.5568 143.492 Q68.7513 146.177 68.7513 150.667 Q68.7513 152.797 67.9411 154.718 Q67.1541 156.616 65.0476 159.209 Q64.4689 159.88 61.367 163.098 Q58.2652 166.292 52.6171 172.056 Z" fill="#000000" fill-rule="evenodd" fill-opacity="1" /><path clip-path="url(#clip460)" d="M88.7512 144.51 Q85.1401 144.51 83.3114 148.075 Q81.5058 151.617 81.5058 158.746 Q81.5058 165.853 83.3114 169.417 Q85.1401 172.959 88.7512 172.959 Q92.3854 172.959 94.1909 169.417 Q96.0196 165.853 96.0196 158.746 Q96.0196 151.617 94.1909 148.075 Q92.3854 144.51 88.7512 144.51 M88.7512 140.806 Q94.5613 140.806 97.6169 145.413 Q100.696 149.996 100.696 158.746 Q100.696 167.473 97.6169 172.079 Q94.5613 176.663 88.7512 176.663 Q82.941 176.663 79.8623 172.079 Q76.8068 167.473 76.8068 158.746 Q76.8068 149.996 79.8623 145.413 Q82.941 140.806 88.7512 140.806 Z" fill="#000000" fill-rule="evenodd" fill-opacity="1" /><polyline clip-path="url(#clip462)" style="stroke:#009af9; stroke-linecap:round; stroke-linejoin:round; stroke-width:2; stroke-opacity:1; fill:none" points="233.716,161.642 234.332,155.78 234.949,161.642 235.565,155.78 236.181,161.642 236.797,155.78 237.413,161.642 238.03,155.78 238.646,161.642 239.262,155.78 239.878,161.642 240.495,155.78 241.111,172.172 241.727,145.251 242.343,147.028 242.959,170.394 243.576,147.028 244.192,170.394 244.808,147.028 245.424,170.394 246.041,147.028 246.657,170.394 247.273,147.028 247.889,170.394 248.506,147.028 249.122,170.394 249.738,147.028 250.354,170.394 250.97,147.028 251.587,160.336 252.203,168.668 252.819,161.714 253.435,149.992 254.052,167.431 254.668,149.992 255.284,167.431 255.9,149.992 256.516,167.431 257.133,149.992 257.749,167.431 258.365,149.992 258.981,167.431 259.598,149.992 260.214,167.431 260.83,149.992 261.446,167.431 262.062,149.992 262.679,174.791 263.295,142.632 263.911,174.791 264.527,142.632 265.144,174.791 265.76,142.632 266.376,174.791 266.992,142.632 267.608,183.48 268.225,181.902 268.841,135.521 269.457,181.902 270.073,135.521 270.69,181.902 271.306,135.521 271.922,181.902 272.538,135.521 273.155,181.902 273.771,135.521 274.387,181.902 275.003,135.521 275.619,167.891 276.236,134.528 276.852,182.895 277.468,148.847 278.084,168.576 278.701,148.847 279.317,168.576 279.933,148.847 280.549,168.576 281.165,148.847 281.782,166.988 282.398,158.493 283.014,158.93 283.63,158.493 284.247,158.93 284.863,158.493 285.479,158.93 286.095,158.493 286.711,158.93 287.328,158.493 287.944,158.93 288.56,158.493 289.176,158.93 289.793,158.493 290.409,158.93 291.025,158.493 291.641,158.93 292.258,158.493 292.874,158.93 293.49,158.493 294.106,158.93 294.722,158.493 295.339,158.93 295.955,158.493 296.571,158.93 297.187,158.493 297.804,158.93 298.42,158.493 299.036,158.93 299.652,158.493 300.268,158.93 300.885,158.493 301.501,155.151 302.117,162.272 302.733,155.151 303.35,185.914 303.966,177.25 304.582,140.173 305.198,177.25 305.814,140.173 306.431,177.25 307.047,140.173 307.663,177.25 308.279,140.173 308.896,177.25 309.512,140.173 310.128,169.928 310.744,147.495 311.36,169.928 311.977,147.495 312.593,169.928 313.209,147.495 313.825,169.928 314.442,147.495 315.058,169.928 315.674,145.061 316.29,172.361 316.907,145.061 317.523,172.361 318.139,145.061 318.755,148.992 319.371,145.332 319.988,172.091 320.604,145.332 321.22,172.091 321.836,145.332 322.453,172.091 323.069,145.332 323.685,172.091 324.301,145.332 324.917,172.091 325.534,145.332 326.15,172.091 326.766,145.332 327.382,172.091 327.999,145.332 328.615,172.091 329.231,145.332 329.847,172.091 330.463,145.332 331.08,172.091 331.696,145.332 332.312,172.091 332.928,145.332 333.545,172.091 334.161,162.247 334.777,155.176 335.393,162.247 336.009,155.176 336.626,162.247 337.242,155.176 337.858,162.247 338.474,155.176 339.091,162.247 339.707,155.176 340.323,162.247 340.939,155.176 341.556,162.247 342.172,155.176 342.788,162.247 343.404,155.176 344.02,162.247 344.637,155.176 345.253,162.247 345.869,155.176 346.485,162.247 347.102,153.186 347.718,152.034 348.334,165.388 348.95,152.034 349.566,165.388 350.183,152.034 350.799,165.388 351.415,152.034 352.031,165.388 352.648,152.034 353.264,165.388 353.88,152.034 354.496,149.121 355.112,168.006 355.729,149.417 356.345,168.006 356.961,149.417 357.577,168.006 358.194,149.417 358.81,168.006 359.426,149.417 360.042,168.006 360.658,149.417 361.275,168.006 361.891,149.417 362.507,168.006 363.123,149.417 363.74,168.006 364.356,149.417 364.972,168.006 365.588,149.417 366.205,168.006 366.821,138.399 367.437,179.023 368.053,138.399 368.669,179.023 369.286,138.399 369.902,151.476 370.518,165.947 371.134,151.476 371.751,165.947 372.367,151.476 372.983,165.947 373.599,151.476 374.215,165.947 374.832,151.476 375.448,165.947 376.064,151.476 376.68,165.947 377.297,151.476 377.913,165.947 378.529,151.476 379.145,165.947 379.761,151.476 380.378,165.947 380.994,151.476 381.61,144.633 382.226,172.789 382.843,144.633 383.459,172.789 384.075,144.633 384.691,172.789 385.307,144.633 385.924,172.789 386.54,144.633 387.156,150.917 387.772,166.506 388.389,150.917 389.005,166.506 389.621,150.917 390.237,166.506 390.854,150.917 391.47,166.506 392.086,150.917 392.702,166.506 393.318,150.917 393.935,166.506 394.551,150.917 395.167,166.506 395.783,150.917 396.4,166.506 397.016,150.917 397.632,166.506 398.248,150.917 398.864,166.506 399.481,150.917 400.097,166.506 400.713,150.917 401.329,166.506 401.946,150.917 402.562,166.506 403.178,150.917 403.794,166.506 404.41,150.917 405.027,166.506 405.643,150.917 406.259,180.154 406.875,137.269 407.492,180.154 408.108,137.269 408.724,180.154 409.34,137.269 409.956,180.154 410.573,137.269 411.189,180.154 411.805,137.269 412.421,180.154 413.038,137.269 413.654,180.154 414.27,137.269 414.886,180.154 415.503,137.269 416.119,180.154 416.735,137.269 417.351,180.154 417.967,137.269 418.584,180.154 419.2,137.269 419.816,180.154 420.432,137.269 421.049,180.154 421.665,137.269 422.281,180.154 422.897,137.269 423.513,162.507 424.13,154.916 424.746,147.074 425.362,170.349 425.978,147.074 426.595,170.349 427.211,178.341 427.827,139.082 428.443,178.341 429.059,139.082 429.676,178.341 430.292,139.082 430.908,178.341 431.524,139.082 432.141,178.341 432.757,139.082 433.373,178.341 433.989,164.056 434.605,153.367 435.222,164.056 435.838,153.367 436.454,164.056 437.07,153.367 437.687,164.056 438.303,153.367 438.919,164.056 439.535,153.367 440.152,164.056 440.768,153.367 441.384,164.056 442,153.367 442.616,164.056 443.233,140.685 443.849,176.738 444.465,140.685 445.081,176.738 445.698,140.685 446.314,176.738 446.93,180.686 447.546,136.737 448.162,180.686 448.779,136.737 449.395,161.875 450.011,155.548 450.627,161.875 451.244,155.548 451.86,161.875 452.476,155.548 453.092,161.875 453.708,155.548 454.325,161.875 454.941,155.548 455.557,161.875 456.173,155.548 456.79,161.875 457.406,155.548 458.022,164.724 458.638,152.699 459.255,164.724 459.871,152.699 460.487,164.724 461.103,152.699 461.719,164.724 462.336,152.699 462.952,164.724 463.568,152.699 464.184,164.724 464.801,152.699 465.417,164.724 466.033,152.699 466.649,164.724 467.265,152.699 467.882,164.724 468.498,172.312 469.114,145.11 469.73,172.312 470.347,145.11 470.963,170.247 471.579,147.176 472.195,160.122 472.811,157.301 473.428,160.122 474.044,157.301 474.66,160.122 475.276,157.301 475.893,160.122 476.509,157.301 477.125,146.093 477.741,161.849 478.357,155.574 478.974,161.849 479.59,155.574 480.206,161.849 480.822,155.574 481.439,161.849 482.055,155.574 482.671,161.849 483.287,155.574 483.904,161.849 484.52,155.574 485.136,161.849 485.752,155.574 486.368,161.849 486.985,155.574 487.601,161.849 488.217,155.574 488.833,161.849 489.45,155.574 490.066,161.849 490.682,155.574 491.298,161.849 491.914,155.574 492.531,161.849 493.147,175.325 493.763,149.578 494.379,167.844 494.996,149.578 495.612,167.844 496.228,149.578 496.844,167.844 497.46,149.578 498.077,167.844 498.693,149.578 499.309,167.844 499.925,149.578 500.542,167.844 501.158,149.578 501.774,167.844 502.39,149.578 503.006,167.844 503.623,149.578 504.239,167.844 504.855,149.578 505.471,167.844 506.088,149.578 506.704,167.844 507.32,149.578 507.936,167.844 508.553,149.578 509.169,167.844 509.785,149.578 510.401,167.844 511.017,149.578 511.634,167.844 512.25,149.578 512.866,167.844 513.482,149.578 514.099,167.844 514.715,149.578 515.331,167.844 515.947,149.578 516.563,167.844 517.18,149.578 517.796,167.844 518.412,149.578 519.028,167.844 519.645,149.578 520.261,167.844 520.877,149.578 521.493,167.844 522.109,149.578 522.726,167.844 523.342,149.578 523.958,167.844 524.574,149.578 525.191,167.844 525.807,149.578 526.423,167.844 527.039,149.578 527.655,149.36 528.272,160.014 528.888,148.738 529.504,168.685 530.12,148.738 530.737,148.586 531.353,168.837 531.969,148.586 532.585,163.471 533.202,153.952 533.818,163.471 534.434,153.952 535.05,163.471 535.666,153.952 536.283,163.471 536.899,153.952 537.515,163.471 538.131,153.952 538.748,163.471 539.364,153.952 539.98,163.471 540.596,134.201 541.212,167.239 541.829,150.184 542.445,167.239 543.061,150.184 543.677,167.239 544.294,150.184 544.91,167.239 545.526,150.184 546.142,167.239 546.758,150.184 547.375,167.239 547.991,150.184 548.607,167.239 549.223,150.184 549.84,167.239 550.456,150.184 551.072,167.239 551.688,150.184 552.304,167.239 552.921,150.184 553.537,167.239 554.153,154.774 554.769,162.649 555.386,154.774 556.002,162.649 556.618,154.774 557.234,162.649 557.851,154.774 558.467,162.649 559.083,154.774 559.699,162.649 560.315,154.774 560.932,162.649 561.548,154.774 562.164,162.649 562.78,154.774 563.397,162.649 564.013,154.774 564.629,162.649 565.245,154.774 565.861,162.649 566.478,154.774 567.094,162.649 567.71,154.774 568.326,162.649 568.943,154.774 569.559,162.649 570.175,154.774 570.791,162.649 571.407,154.774 572.024,162.649 572.64,154.774 573.256,162.649 573.872,154.774 574.489,162.649 575.105,153.819 575.721,150.802 576.337,167.782 576.953,149.64 577.57,167.782 578.186,149.64 578.802,167.782 579.418,149.64 580.035,167.782 580.651,157.937 581.267,142.361 581.883,175.061 582.5,142.361 583.116,175.061 583.732,142.361 584.348,175.061 584.964,142.361 585.581,175.061 586.197,142.361 586.813,175.061 587.429,142.361 588.046,175.061 588.662,142.361 589.278,175.061 589.894,142.361 590.51,175.061 591.127,142.361 591.743,175.061 592.359,142.361 592.975,175.061 593.592,142.361 594.208,173.783 594.824,143.64 595.44,173.783 596.056,143.64 596.673,173.783 597.289,152.43 597.905,164.993 598.521,152.43 599.138,164.993 599.754,152.43 600.37,164.993 600.986,152.43 601.602,164.993 602.219,152.43 602.835,164.993 603.451,152.43 604.067,164.993 604.684,152.43 605.3,164.993 605.916,152.43 606.532,164.993 607.149,152.43 607.765,164.993 608.381,152.43 608.997,164.993 609.613,152.43 610.23,164.993 610.846,152.43 611.462,164.993 612.078,149.255 612.695,168.168 613.311,149.255 613.927,168.168 614.543,149.255 615.159,168.168 615.776,149.255 616.392,168.168 617.008,136.456 617.624,168.168 618.241,149.255 618.857,168.168 619.473,149.255 620.089,168.168 620.705,149.255 621.322,168.168 621.938,149.255 622.554,168.168 623.17,149.255 623.787,168.168 624.403,149.255 625.019,168.168 625.635,149.255 626.252,168.168 626.868,149.255 627.484,168.168 628.1,149.255 628.716,168.168 629.333,149.255 629.949,168.168 630.565,149.255 631.181,168.168 631.798,149.255 632.414,168.168 633.03,149.255 633.646,168.168 634.262,149.255 634.879,168.168 635.495,149.255 636.111,170.041 636.727,147.382 637.344,170.041 637.96,147.382 638.576,170.041 639.192,147.382 639.808,170.041 640.425,147.382 641.041,170.041 641.657,147.382 642.273,170.041 642.89,147.382 643.506,170.041 644.122,147.382 644.738,170.041 645.354,147.382 645.971,170.041 646.587,145.429 647.203,171.226 647.819,146.196 648.436,171.226 649.052,157.613 649.668,159.809 650.284,157.613 650.901,159.809 651.517,157.613 652.133,159.809 652.749,157.613 653.365,159.809 653.982,157.613 654.598,159.809 655.214,157.613 655.83,159.809 656.447,157.613 657.063,159.809 657.679,157.613 658.295,159.809 658.911,157.613 659.528,159.809 660.144,157.613 660.76,159.809 661.376,157.613 661.993,159.809 662.609,157.613 663.225,159.809 663.841,157.613 664.457,159.809 665.074,157.613 665.69,159.809 666.306,125.271 666.922,192.152 667.539,125.271 668.155,192.152 668.771,158.119 669.387,159.304 670.003,182.707 670.62,134.716 671.236,137.943 671.852,179.48 672.468,137.943 673.085,153.532 673.701,166.664 674.317,150.759 674.933,166.664 675.55,170.812 676.166,146.611 676.782,170.812 677.398,146.611 678.014,170.812 678.631,146.611 679.247,170.812 679.863,146.611 680.479,170.812 681.096,146.611 681.712,170.812 682.328,146.611 682.944,170.812 683.56,146.611 684.177,170.812 684.793,146.611 685.409,170.812 686.025,151.041 686.642,166.382 687.258,151.041 687.874,166.382 688.49,140.01 689.106,177.413 689.723,140.01 690.339,177.413 690.955,140.01 691.571,177.413 692.188,140.01 692.804,177.413 693.42,140.01 694.036,177.413 694.652,140.01 695.269,177.413 695.885,140.01 696.501,177.413 697.117,140.01 697.734,177.413 698.35,140.01 698.966,177.413 699.582,140.01 700.199,177.413 700.815,140.01 701.431,177.413 702.047,140.01 702.663,170.006 703.28,147.417 703.896,170.006 704.512,147.417 705.128,170.006 705.745,147.417 706.361,170.006 706.977,147.417 707.593,170.006 708.209,147.417 708.826,164.338 709.442,153.084 710.058,164.338 710.674,153.084 711.291,164.338 711.907,153.084 712.523,164.338 713.139,153.084 713.755,164.338 714.372,153.084 714.988,164.338 715.604,153.084 716.22,164.338 716.837,153.084 717.453,164.338 718.069,153.084 718.685,147.451 719.301,169.972 719.918,147.451 720.534,169.972 721.15,147.451 721.766,169.972 722.383,147.451 722.999,169.972 723.615,147.451 724.231,169.972 724.848,147.451 725.464,169.972 726.08,147.451 726.696,169.972 727.312,147.451 727.929,169.972 728.545,130.366 729.161,187.057 729.777,130.366 730.394,187.057 731.01,130.366 731.626,187.057 732.242,130.366 732.858,187.057 733.475,130.366 734.091,187.057 734.707,130.366 735.323,187.057 735.94,154.943 736.556,187.869 737.172,129.554 737.788,187.869 738.404,129.554 739.021,187.869 739.637,129.554 740.253,187.869 740.869,129.554 741.486,187.869 742.102,129.554 742.718,187.869 743.334,129.554 743.95,187.869 744.567,129.554 745.183,187.869 745.799,129.554 746.415,187.869 747.032,129.554 747.648,187.869 748.264,129.554 748.88,187.869 749.497,129.554 750.113,187.869 750.729,129.554 751.345,187.869 751.961,129.554 752.578,187.869 753.194,129.554 753.81,187.869 754.426,129.554 755.043,167.189 755.659,150.234 756.275,167.189 756.891,150.234 757.507,167.189 758.124,150.234 758.74,167.189 759.356,150.234 759.972,167.189 760.589,150.234 761.205,167.189 761.821,150.234 762.437,167.189 763.053,157.998 763.67,149.606 764.286,167.817 764.902,149.606 765.518,144.547 766.135,172.876 766.751,144.547 767.367,172.876 767.983,144.547 768.6,172.876 769.216,144.547 769.832,172.876 770.448,144.547 771.064,172.876 771.681,144.547 772.297,172.876 772.913,144.547 773.529,172.876 774.146,144.547 774.762,172.876 775.378,144.547 775.994,172.876 776.61,155.875 777.227,140.868 777.843,176.555 778.459,140.868 779.075,176.555 779.692,140.868 780.308,176.555 780.924,140.868 781.54,176.555 782.156,140.868 782.773,176.555 783.389,138.517 784.005,176.555 784.621,140.868 785.238,168.535 785.854,182.158 786.47,135.265 787.086,182.158 787.702,135.265 788.319,182.158 788.935,135.265 789.551,182.158 790.167,135.265 790.784,182.158 791.4,135.265 792.016,182.158 792.632,135.265 793.249,182.158 793.865,135.265 794.481,182.158 795.097,135.265 795.713,182.158 796.33,135.265 796.946,182.158 797.562,135.265 798.178,182.158 798.795,135.265 799.411,182.158 800.027,135.265 800.643,182.158 801.259,135.265 801.876,182.158 802.492,135.265 803.108,182.158 803.724,135.265 804.341,182.158 804.957,135.265 805.573,182.158 806.189,135.265 806.805,182.158 807.422,135.265 808.038,182.158 808.654,135.265 809.27,182.158 809.887,135.265 810.503,143.331 811.119,168.905 811.735,148.518 812.351,168.905 812.968,148.518 813.584,168.905 814.2,148.518 814.816,168.905 815.433,148.518 816.049,168.905 816.665,148.518 817.281,168.905 817.898,144.673 818.514,172.749 819.13,144.673 819.746,172.749 820.362,144.673 820.979,172.749 821.595,144.673 822.211,172.749 822.827,144.673 823.444,172.749 824.06,144.673 824.676,172.749 825.292,144.673 825.908,172.749 826.525,144.673 827.141,172.749 827.757,144.673 828.373,172.749 828.99,144.673 829.606,172.749 830.222,144.673 830.838,172.749 831.454,153.876 832.071,162.496 832.687,148.745 833.303,168.678 833.919,148.745 834.536,163.702 835.152,153.721 835.768,163.702 836.384,153.721 837,182.4 837.617,135.022 838.233,182.4 838.849,135.022 839.465,182.4 840.082,135.022 840.698,182.4 841.314,135.022 841.93,182.4 842.547,135.022 843.163,182.4 843.779,135.022 844.395,182.4 845.011,135.022 845.628,182.4 846.244,135.022 846.86,182.4 847.476,135.022 848.093,182.4 848.709,135.022 849.325,182.4 849.941,135.022 850.557,182.4 851.174,135.022 851.79,182.4 852.406,135.022 853.022,182.4 853.639,135.022 854.255,182.4 854.871,135.022 855.487,182.4 856.103,135.022 856.72,182.4 857.336,135.022 857.952,182.4 858.568,135.022 859.185,182.4 859.801,135.022 860.417,175.182 861.033,142.24 861.649,175.182 862.266,142.24 862.882,175.182 863.498,142.24 864.114,175.182 864.731,159.422 865.347,153.928 865.963,163.495 866.579,148.536 867.196,170.909 867.812,146.513 868.428,170.909 869.044,146.513 869.66,170.909 870.277,146.513 870.893,170.909 871.509,146.513 872.125,170.909 872.742,146.513 873.358,170.909 873.974,146.513 874.59,140.104 875.206,154.167 875.823,163.256 876.439,154.167 877.055,163.256 877.671,154.167 878.288,163.256 878.904,154.167 879.52,163.256 880.136,154.167 880.752,163.256 881.369,154.167 881.985,163.256 882.601,154.167 883.217,163.256 883.834,154.167 884.45,163.256 885.066,154.167 885.682,133.565 886.298,183.858 886.915,133.565 887.531,183.858 888.147,133.565 888.763,183.858 889.38,133.565 889.996,183.858 890.612,133.565 891.228,183.858 891.845,133.565 892.461,156.158 893.077,161.265 893.693,156.158 894.309,161.265 894.926,156.158 895.542,161.265 896.158,156.158 896.774,161.265 897.391,156.158 898.007,161.265 898.623,156.158 899.239,168.687 899.855,151.648 900.472,165.775 901.088,151.648 901.704,165.775 902.32,151.648 902.937,165.775 903.553,151.648 904.169,165.775 904.785,151.648 905.401,165.775 906.018,151.648 906.634,165.775 907.25,173.624 907.866,143.799 908.483,173.624 909.099,143.799 909.715,173.624 910.331,143.799 910.947,145.203 911.564,145.612 912.18,171.811 912.796,143.879 913.412,168.556 914.029,148.867 914.645,168.556 915.261,157.162 915.877,160.261 916.494,157.162 917.11,160.261 917.726,157.162 918.342,160.261 918.958,157.162 919.575,160.261 920.191,157.162 920.807,160.261 921.423,157.162 922.04,160.261 922.656,157.162 923.272,160.261 923.888,157.162 924.504,160.261 925.121,157.162 925.737,160.261 926.353,157.162 926.969,160.261 927.586,157.162 928.202,160.261 928.818,157.162 929.434,167.529 930.05,149.893 930.667,153.291 931.283,164.132 931.899,153.291 932.515,164.132 933.132,153.291 933.748,165.753 934.364,151.67 934.98,165.753 935.597,144.686 936.213,172.737 936.829,144.686 937.445,172.737 938.061,144.686 938.678,172.737 939.294,144.686 939.91,156.056 940.526,161.367 941.143,156.056 941.759,161.367 942.375,156.056 942.991,161.367 943.607,156.056 944.224,161.367 944.84,156.056 945.456,161.367 946.072,156.056 946.689,161.367 947.305,156.056 947.921,161.367 948.537,156.056 949.153,161.367 949.77,156.056 950.386,153.362 951.002,167.12 951.618,150.302 952.235,167.12 952.851,150.302 953.467,167.12 954.083,150.302 954.699,167.12 955.316,150.302 955.932,167.12 956.548,150.302 957.164,167.12 957.781,150.302 958.397,167.12 959.013,150.302 959.629,167.12 960.246,150.302 960.862,167.12 961.478,150.302 962.094,167.12 962.71,149.582 963.327,167.841 963.943,138.949 964.559,155.051 965.175,162.372 965.792,155.051 966.408,162.372 967.024,155.051 967.64,162.372 968.256,172.616 968.873,144.807 969.489,172.616 970.105,144.807 970.721,172.616 971.338,144.807 971.954,172.616 972.57,144.807 973.186,172.616 973.802,144.807 974.419,172.616 975.035,144.807 975.651,172.616 976.267,144.807 976.884,172.616 977.5,144.807 978.116,152.735 978.732,164.688 979.348,152.735 979.965,164.688 980.581,152.735 981.197,164.688 981.813,152.735 982.43,152.031 983.046,168.369 983.662,169.116 984.278,143.526 984.895,173.897 985.511,143.526 986.127,170.314 986.743,147.109 987.359,170.314 987.976,147.109 988.592,170.314 989.208,147.109 989.824,170.314 990.441,147.109 991.057,170.314 991.673,147.109 992.289,170.314 992.905,147.109 993.522,170.314 994.138,147.109 994.754,170.314 995.37,147.109 995.987,170.314 996.603,147.109 997.219,170.314 997.835,147.109 998.451,170.314 999.068,147.109 999.684,170.314 1000.3,147.109 1000.92,170.314 1001.53,147.109 1002.15,170.314 1002.77,147.109 1003.38,170.314 1004,147.109 1004.61,170.314 1005.23,147.109 1005.85,170.314 1006.46,147.109 1007.08,170.314 1007.69,147.109 1008.31,170.314 1008.93,147.109 1009.54,170.314 1010.16,147.109 1010.78,170.314 1011.39,147.109 1012.01,170.314 1012.62,147.109 1013.24,170.314 1013.86,147.109 1014.47,152.073 1015.09,165.35 1015.71,152.073 1016.32,140.339 1016.94,177.083 1017.55,140.339 1018.17,177.083 1018.79,140.339 1019.4,177.083 1020.02,140.339 1020.64,177.083 1021.25,140.339 1021.87,177.083 1022.48,140.339 1023.1,177.083 1023.72,140.339 1024.33,177.083 1024.95,140.339 1025.57,177.083 1026.18,140.339 1026.8,177.083 1027.41,140.339 1028.03,177.083 1028.65,140.339 1029.26,177.083 1029.88,140.339 1030.5,177.083 1031.11,140.339 1031.73,177.083 1032.34,140.339 1032.96,177.083 1033.58,140.339 1034.19,177.083 1034.81,140.339 1035.42,177.083 1036.04,140.339 1036.66,155.633 1037.27,161.79 1037.89,155.633 1038.51,161.79 1039.12,155.633 1039.74,161.79 1040.35,155.633 1040.97,161.79 1041.59,155.633 1042.2,161.79 1042.82,155.633 1043.44,161.79 1044.05,155.633 1044.67,161.79 1045.28,155.633 1045.9,161.79 1046.52,155.633 1047.13,161.79 1047.75,155.633 1048.37,161.79 1048.98,155.633 1049.6,161.79 1050.21,155.633 1050.83,161.79 1051.45,155.633 1052.06,161.79 1052.68,155.633 1053.3,161.79 1053.91,155.633 1054.53,161.79 1055.14,155.633 1055.76,161.79 1056.38,155.633 1056.99,161.79 1057.61,155.633 1058.23,161.79 1058.84,143.018 1059.46,174.404 1060.07,143.018 1060.69,174.404 1061.31,160.61 1061.92,161.419 1062.54,156.003 1063.16,161.419 1063.77,171.071 1064.39,146.352 1065,171.071 1065.62,146.352 1066.24,171.071 1066.85,146.352 1067.47,171.071 1068.08,146.352 1068.7,171.071 1069.32,146.352 1069.93,171.071 1070.55,146.352 1071.17,171.071 1071.78,146.352 1072.4,171.071 1073.01,146.352 1073.63,160.807 1074.25,156.616 1074.86,160.807 1075.48,156.616 1076.1,160.807 1076.71,156.616 1077.33,188.628 1077.94,128.794 1078.56,188.628 1079.18,128.794 1079.79,188.628 1080.41,128.794 1081.03,188.628 1081.64,128.794 1082.26,188.628 1082.87,128.794 1083.49,188.628 1084.11,128.794 1084.72,188.628 1085.34,128.794 1085.96,166.139 1086.57,151.284 1087.19,144.687 1087.8,170.518 1088.42,146.905 1089.04,170.518 1089.65,146.905 1090.27,170.518 1090.89,146.905 1091.5,146.956 1092.12,170.466 1092.73,146.956 1093.35,170.466 1093.97,146.956 1094.58,170.466 1095.2,146.956 1095.82,170.466 1096.43,146.956 1097.05,170.466 1097.66,146.956 1098.28,170.466 1098.9,146.956 1099.51,170.466 1100.13,146.956 1100.74,170.466 1101.36,146.956 1101.98,170.466 1102.59,146.956 1103.21,130.634 1103.83,159.087 1104.44,158.336 1105.06,159.087 1105.67,158.336 1106.29,159.087 1106.91,158.336 1107.52,159.087 1108.14,158.336 1108.76,159.087 1109.37,158.336 1109.99,159.087 1110.6,158.336 1111.22,159.087 1111.84,158.336 1112.45,159.087 1113.07,168.558 1113.69,148.865 1114.3,164.447 1114.92,152.976 1115.53,164.447 1116.15,152.976 1116.77,164.447 1117.38,152.976 1118,164.447 1118.62,152.976 1119.23,164.447 1119.85,159.657 1120.46,157.766 1121.08,159.657 1121.7,157.766 1122.31,159.657 1122.93,157.766 1123.55,159.657 1124.16,157.766 1124.78,156.245 1125.39,168.669 1126.01,148.754 1126.63,168.669 1127.24,148.754 1127.86,168.669 1128.47,148.754 1129.09,168.669 1129.71,148.754 1130.32,168.669 1130.94,148.754 1131.56,168.669 1132.17,148.754 1132.79,168.669 1133.4,148.754 1134.02,145.983 1134.64,171.44 1135.25,145.983 1135.87,171.44 1136.49,145.983 1137.1,160.954 1137.72,154.696 1138.33,160.914 1138.95,156.509 1139.57,160.914 1140.18,158.827 1140.8,144.43 1141.42,172.992 1142.03,144.43 1142.65,172.992 1143.26,144.43 1143.88,172.992 1144.5,144.43 1145.11,172.992 1145.73,144.43 1146.35,172.992 1146.96,144.43 1147.58,172.992 1148.19,144.43 1148.81,172.992 1149.43,144.43 1150.04,172.992 1150.66,144.43 1151.28,172.992 1151.89,144.43 1152.51,172.992 1153.12,144.43 1153.74,172.992 1154.36,144.43 1154.97,172.992 1155.59,144.43 1156.21,172.992 1156.82,144.43 1157.44,172.992 1158.05,144.43 1158.67,172.992 1159.29,144.43 1159.9,172.992 1160.52,144.43 1161.13,172.992 1161.75,156.692 1162.37,171.742 1162.98,145.681 1163.6,139.824 1164.22,177.599 1164.83,147.742 1165.45,169.681 1166.06,147.742 1166.68,169.681 1167.3,147.742 1167.91,169.681 1168.53,147.742 1169.15,169.681 1169.76,147.742 1170.38,169.681 1170.99,147.742 1171.61,169.681 1172.23,147.742 1172.84,169.681 1173.46,147.742 1174.08,169.681 1174.69,147.742 1175.31,160.551 1175.92,156.871 1176.54,160.551 1177.16,156.871 1177.77,139.202 1178.39,178.221 1179.01,139.202 1179.62,178.221 1180.24,139.202 1180.85,178.221 1181.47,139.202 1182.09,178.221 1182.7,181.105 1183.32,175.664 1183.94,141.759 1184.55,175.664 1185.17,141.759 1185.78,175.664 1186.4,141.759 1187.02,175.664 1187.63,141.759 1188.25,175.664 1188.87,141.759 1189.48,175.664 1190.1,141.759 1190.71,175.664 1191.33,141.759 1191.95,175.664 1192.56,141.759 1193.18,175.664 1193.79,141.759 1194.41,175.664 1195.03,141.759 1195.64,175.664 1196.26,168.705 1196.88,170.118 1197.49,147.305 1198.11,170.118 1198.72,147.305 1199.34,170.118 1199.96,147.305 1200.57,170.118 1201.19,147.305 1201.81,170.118 1202.42,147.305 1203.04,170.118 1203.65,147.305 1204.27,170.118 1204.89,150.253 1205.5,158.149 1206.12,159.274 1206.74,158.149 1207.35,159.274 1207.97,144.123 1208.58,173.3 1209.2,144.123 1209.82,159.059 1210.43,158.364 1211.05,159.059 1211.67,158.364 1212.28,154.228 1212.9,163.195 1213.51,154.228 1214.13,175.899 1214.75,141.524 1215.36,175.899 1215.98,141.524 1216.6,175.899 1217.21,141.524 1217.83,186.197 1218.44,131.226 1219.06,186.197 1219.68,131.226 1220.29,186.197 1220.91,131.226 1221.52,186.197 1222.14,131.226 1222.76,186.197 1223.37,131.226 1223.99,186.197 1224.61,131.226 1225.22,186.197 1225.84,131.226 1226.45,186.197 1227.07,131.226 1227.69,186.197 1228.3,131.226 1228.92,186.197 1229.54,131.226 1230.15,186.197 1230.77,131.226 1231.38,186.197 1232,131.226 1232.62,186.197 1233.23,131.226 1233.85,186.197 1234.47,131.226 1235.08,186.197 1235.7,131.226 1236.31,186.197 1236.93,131.226 1237.55,186.197 1238.16,131.226 1238.78,186.197 1239.4,131.226 1240.01,186.197 1240.63,131.226 1241.24,186.197 1241.86,131.226 1242.48,186.197 1243.09,131.226 1243.71,161.748 1244.33,155.674 1244.94,161.748 1245.56,155.674 1246.17,161.748 1246.79,155.674 1247.41,161.748 1248.02,147.106 1248.64,161.748 1249.26,155.674 1249.87,161.748 1250.49,155.674 1251.1,161.748 1251.72,155.674 1252.34,161.748 1252.95,155.674 1253.57,161.748 1254.18,155.674 1254.8,161.748 1255.42,155.674 1256.03,161.748 1256.65,155.674 1257.27,161.748 1257.88,155.674 1258.5,161.748 1259.11,155.674 1259.73,161.748 1260.35,155.674 1260.96,161.748 1261.58,155.674 1262.2,161.748 1262.81,155.674 1263.43,161.748 1264.04,155.674 1264.66,161.748 1265.28,155.674 1265.89,155.067 1266.51,162.356 1267.13,155.067 1267.74,162.356 1268.36,155.067 1268.97,162.356 1269.59,155.067 1270.21,151.193 1270.82,147.433 1271.44,169.989 1272.06,147.433 1272.67,169.989 1273.29,147.433 1273.9,169.989 1274.52,147.433 1275.14,169.989 1275.75,147.433 1276.37,169.989 1276.99,147.433 1277.6,169.989 1278.22,147.433 1278.83,169.989 1279.45,147.433 1280.07,169.989 1280.68,147.433 1281.3,169.989 1281.92,147.433 1282.53,169.989 1283.15,147.433 1283.76,169.989 1284.38,165.706 1285,151.716 1285.61,165.706 1286.23,151.716 1286.84,165.706 1287.46,151.716 1288.08,165.706 1288.69,151.716 1289.31,165.706 1289.93,170.209 1290.54,147.214 1291.16,155.06 1291.77,162.363 1292.39,155.06 1293.01,162.363 1293.62,168.956 1294.24,148.466 1294.86,136.612 1295.47,141.271 1296.09,176.151 1296.7,141.271 1297.32,176.151 1297.94,141.271 1298.55,176.151 1299.17,162.083 1299.79,155.339 1300.4,162.083 1301.02,155.339 1301.63,162.083 1302.25,155.339 1302.87,162.083 1303.48,155.339 1304.1,162.083 1304.72,155.339 1305.33,160.57 1305.95,156.853 1306.56,160.57 1307.18,156.853 1307.8,160.57 1308.41,156.853 1309.03,160.57 1309.65,165.36 1310.26,152.062 1310.88,151.228 1311.49,154.926 1312.11,155.745 1312.73,161.678 1313.34,155.745 1313.96,161.678 1314.57,155.745 1315.19,161.678 1315.81,155.745 1316.42,161.678 1317.04,155.745 1317.66,161.678 1318.27,155.745 1318.89,161.678 1319.5,155.745 1320.12,161.678 1320.74,155.745 1321.35,161.678 1321.97,155.745 1322.59,161.678 1323.2,155.745 1323.82,161.678 1324.43,155.745 1325.05,161.678 1325.67,155.745 1326.28,161.678 1326.9,155.745 1327.52,161.678 1328.13,155.745 1328.75,161.678 1329.36,155.745 1329.98,161.678 1330.6,155.745 1331.21,161.678 1331.83,155.745 1332.45,161.678 1333.06,155.745 1333.68,161.678 1334.29,155.745 1334.91,161.678 1335.53,155.745 1336.14,161.678 1336.76,155.745 1337.38,161.678 1337.99,155.745 1338.61,161.678 1339.22,155.745 1339.84,161.678 1340.46,155.745 1341.07,161.678 1341.69,155.745 1342.31,161.678 1342.92,155.745 1343.54,161.678 1344.15,155.745 1344.77,161.678 1345.39,155.745 1346,156.442 1346.62,160.981 1347.23,156.442 1347.85,160.981 1348.47,156.442 1349.08,160.981 1349.7,156.442 1350.32,160.981 1350.93,156.442 1351.55,160.981 1352.16,156.442 1352.78,160.981 1353.4,156.442 1354.01,160.981 1354.63,156.442 1355.25,160.981 1355.86,156.442 1356.48,160.981 1357.09,156.442 1357.71,173.787 1358.33,143.636 1358.94,173.787 1359.56,143.636 1360.18,173.787 1360.79,143.636 1361.41,173.787 1362.02,143.636 1362.64,173.787 1363.26,143.636 1363.87,173.787 1364.49,143.636 1365.11,173.787 1365.72,140.798 1366.34,176.625 1366.95,140.798 1367.57,176.625 1368.19,140.798 1368.8,176.625 1369.42,140.798 1370.04,176.625 1370.65,140.798 1371.27,176.625 1371.88,140.798 1372.5,176.625 1373.12,140.798 1373.73,176.625 1374.35,140.798 1374.96,176.625 1375.58,140.798 1376.2,176.625 1376.81,140.798 1377.43,176.625 1378.05,140.798 1378.66,176.625 1379.28,140.798 1379.89,176.625 1380.51,140.798 1381.13,176.625 1381.74,171.178 1382.36,146.244 1382.98,169.333 1383.59,148.089 1384.21,132.59 1384.82,184.833 1385.44,132.59 1386.06,184.833 1386.67,170.981 1387.29,174.131 1387.91,143.292 1388.52,174.131 1389.14,143.292 1389.75,174.131 1390.37,189.627 1390.99,127.796 1391.6,189.627 1392.22,127.796 1392.84,189.627 1393.45,127.796 1394.07,189.627 1394.68,127.796 1395.3,147.73 1395.92,169.693 1396.53,147.73 1397.15,169.693 1397.77,147.73 1398.38,169.693 1399,147.73 1399.61,169.693 1400.23,147.73 1400.85,169.693 1401.46,147.73 1402.08,169.693 1402.7,147.73 1403.31,169.693 1403.93,147.73 1404.54,169.693 1405.16,147.73 1405.78,169.693 1406.39,147.73 1407.01,169.693 1407.62,138.816 1408.24,178.607 1408.86,138.816 1409.47,178.607 1410.09,138.816 1410.71,178.607 1411.32,138.816 1411.94,178.607 1412.55,138.816 1413.17,178.607 1413.79,138.816 1414.4,178.607 1415.02,138.816 1415.64,178.607 1416.25,138.816 1416.87,178.607 1417.48,138.816 1418.1,178.607 1418.72,138.816 1419.33,178.607 1419.95,138.816 1420.57,165.246 1421.18,152.177 1421.8,165.246 1422.41,152.177 1423.03,146.461 1423.65,170.961 1424.26,146.461 1424.88,156.081 1425.5,161.342 1426.11,156.081 1426.73,161.342 1427.34,156.081 1427.96,161.342 1428.58,156.081 1429.19,161.342 1429.81,156.081 1430.43,161.342 1431.04,179.582 1431.66,137.841 1432.27,179.582 1432.89,137.841 1433.51,157.845 1434.12,139.038 1434.74,178.385 1435.36,139.038 1435.97,161.044 1436.59,139.038 1437.2,178.385 1437.82,148.591 1438.44,168.832 1439.05,148.591 1439.67,168.832 1440.28,148.591 1440.9,168.832 1441.52,148.591 1442.13,168.832 1442.75,148.591 1443.37,168.832 1443.98,148.591 1444.6,168.832 1445.21,148.591 1445.83,168.832 1446.45,148.591 1447.06,193.687 1447.68,123.736 1448.3,193.687 1448.91,123.736 1449.53,193.687 1450.14,123.736 1450.76,156.398 1451.38,161.024 1451.99,156.398 1452.61,161.024 1453.23,156.398 1453.84,161.024 1454.46,156.398 1455.07,161.024 1455.69,156.398 1456.31,161.024 1456.92,156.398 1457.54,161.024 1458.16,156.398 1458.77,161.024 1459.39,156.398 1460,161.024 1460.62,156.398 1461.24,161.024 1461.85,156.398 1462.47,161.024 1463.09,156.398 1463.7,161.024 1464.32,156.398 1464.93,161.024 1465.55,156.398 1466.17,161.024 1466.78,156.398 1467.4,161.024 1468.01,156.398 1468.63,161.024 1469.25,156.398 1469.86,161.024 1470.48,156.398 1471.1,161.024 1471.71,156.398 1472.33,161.024 1472.94,156.398 1473.56,161.024 1474.18,156.849 1474.79,160.574 1475.41,156.849 1476.03,160.574 1476.64,156.849 1477.26,160.574 1477.87,156.849 1478.49,160.574 1479.11,156.849 1479.72,160.574 1480.34,156.849 1480.96,160.574 1481.57,156.849 1482.19,160.574 1482.8,156.849 1483.42,160.574 1484.04,156.849 1484.65,160.574 1485.27,166.724 1485.89,150.699 1486.5,160.131 1487.12,157.291 1487.73,160.131 1488.35,157.291 1488.97,160.131 1489.58,157.291 1490.2,160.131 1490.82,157.291 1491.43,160.131 1492.05,157.291 1492.66,160.131 1493.28,157.291 1493.9,160.131 1494.51,157.291 1495.13,160.131 1495.75,157.291 1496.36,160.131 1496.98,157.291 1497.59,160.131 1498.21,144.605 1498.83,160.131 1499.44,157.291 1500.06,160.131 1500.67,157.291 1501.29,160.131 1501.91,157.291 1502.52,160.131 1503.14,157.291 1503.76,160.131 1504.37,157.291 1504.99,160.131 1505.6,167.603 1506.22,149.82 1506.84,167.603 1507.45,149.82 1508.07,167.603 1508.69,149.82 1509.3,167.603 1509.92,149.82 1510.53,159.72 1511.15,157.703 1511.77,159.72 1512.38,157.703 1513,143.215 1513.62,172.171 1514.23,145.252 1514.85,172.171 1515.46,145.252 1516.08,172.171 1516.7,145.252 1517.31,172.171 1517.93,145.252 1518.55,172.171 1519.16,145.252 1519.78,159.458 1520.39,152.455 1521.01,164.786 1521.63,164.363 1522.24,153.06 1522.86,164.363 1523.48,153.06 1524.09,164.363 1524.71,153.06 1525.32,164.363 1525.94,163.984 1526.56,171.623 1527.17,145.8 1527.79,171.623 1528.41,145.8 1529.02,136.128 1529.64,181.295 1530.25,136.128 1530.87,157.479 1531.49,159.943 1532.1,157.479 1532.72,159.943 1533.33,157.479 1533.95,159.943 1534.57,157.479 1535.18,159.943 1535.8,157.479 1536.42,159.943 1537.03,157.479 1537.65,159.943 1538.26,157.479 1538.88,150.63 1539.5,166.793 1540.11,150.63 1540.73,166.793 1541.35,150.63 1541.96,166.793 1542.58,150.63 1543.19,166.793 1543.81,150.63 1544.43,166.793 1545.04,150.63 1545.66,131.72 1546.28,171.342 1546.89,146.081 1547.51,171.342 1548.12,146.081 1548.74,171.342 1549.36,146.081 1549.97,171.342 1550.59,146.081 1551.21,125.962 1551.82,191.46 1552.44,125.962 1553.05,191.46 1553.67,125.962 1554.29,191.46 1554.9,125.962 1555.52,191.46 1556.14,125.962 1556.75,191.46 1557.37,125.962 1557.98,191.46 1558.6,125.962 1559.22,191.46 1559.83,125.962 1560.45,180.216 1561.06,137.207 1561.68,180.216 1562.3,137.207 1562.91,180.216 1563.53,137.207 1564.15,180.216 1564.76,137.207 1565.38,180.216 1565.99,137.207 1566.61,180.216 1567.23,137.207 1567.84,180.216 1568.46,137.207 1569.08,180.216 1569.69,137.207 1570.31,180.216 1570.92,137.207 1571.54,180.216 1572.16,137.207 1572.77,180.216 1573.39,137.207 1574.01,180.216 1574.62,137.207 1575.24,180.216 1575.85,164.241 1576.47,153.182 1577.09,156.823 1577.7,165.146 1578.32,152.277 1578.94,165.146 1579.55,152.277 1580.17,151.441 1580.78,165.982 1581.4,151.441 1582.02,165.982 1582.63,151.441 1583.25,165.982 1583.87,151.441 1584.48,165.982 1585.1,151.441 1585.71,165.982 1586.33,151.441 1586.95,165.982 1587.56,151.441 1588.18,165.982 1588.8,151.441 1589.41,159.811 1590.03,157.612 1590.64,159.811 1591.26,157.612 1591.88,159.811 1592.49,157.612 1593.11,159.811 1593.72,157.612 1594.34,159.811 1594.96,157.612 1595.57,159.811 1596.19,173.34 1596.81,144.082 1597.42,173.34 1598.04,144.082 1598.65,173.34 1599.27,144.082 1599.89,173.34 1600.5,144.082 1601.12,173.34 1601.74,176.6 1602.35,140.822 1602.97,150.461 1603.58,166.962 1604.2,150.461 1604.82,166.962 1605.43,156.551 1606.05,160.872 1606.67,156.551 1607.28,160.872 1607.9,156.551 1608.51,179.045 1609.13,138.378 1609.75,147.494 1610.36,169.929 1610.98,147.494 1611.6,169.929 1612.21,147.494 1612.83,156.482 1613.44,160.941 1614.06,156.482 1614.68,160.941 1615.29,156.482 1615.91,160.941 1616.53,156.482 1617.14,160.941 1617.76,156.482 1618.37,160.941 1618.99,156.482 1619.61,160.941 1620.22,156.482 1620.84,160.941 1621.46,172.555 1622.07,173.681 1622.69,171.107 1623.3,164.44 1623.92,152.983 1624.54,164.44 1625.15,152.983 1625.77,164.44 1626.38,152.983 1627,152.227 1627.62,165.196 1628.23,152.227 1628.85,165.196 1629.47,152.227 1630.08,180.587 1630.7,136.836 1631.31,180.587 1631.93,136.836 1632.55,180.587 1633.16,136.836 1633.78,180.587 1634.4,136.836 1635.01,180.587 1635.63,136.836 1636.24,180.587 1636.86,136.836 1637.48,180.587 1638.09,136.836 1638.71,180.587 1639.33,136.836 1639.94,180.587 1640.56,136.836 1641.17,180.587 1641.79,136.836 1642.41,180.587 1643.02,136.836 1643.64,180.587 1644.26,136.836 1644.87,180.587 1645.49,136.836 1646.1,180.587 1646.72,136.836 1647.34,180.587 1647.95,136.836 1648.57,180.587 1649.19,136.836 1649.8,180.587 1650.42,136.836 1651.03,180.587 1651.65,136.836 1652.27,180.587 1652.88,136.836 1653.5,180.587 1654.11,136.836 1654.73,180.587 1655.35,136.836 1655.96,141.544 1656.58,175.879 1657.2,141.544 1657.81,175.879 1658.43,141.544 1659.04,175.879 1659.66,141.544 1660.28,137.944 1660.89,179.479 1661.51,157.674 1662.13,159.749 1662.74,157.674 1663.36,159.749 1663.97,157.674 1664.59,159.749 1665.21,157.674 1665.82,159.749 1666.44,157.674 1667.06,159.749 1667.67,157.674 1668.29,159.749 1668.9,157.674 1669.52,159.749 1670.14,157.674 1670.75,159.749 1671.37,157.674 1671.99,174.013 1672.6,143.41 1673.22,174.013 1673.83,172.144 1674.45,145.278 1675.07,172.144 1675.68,145.278 1676.3,135.419 1676.92,182.004 1677.53,150.986 1678.15,166.436 1678.76,150.986 1679.38,166.436 1680,150.986 1680.61,166.436 1681.23,150.986 1681.85,166.436 1682.46,150.986 1683.08,166.436 1683.69,150.986 1684.31,166.436 1684.93,150.986 1685.54,171.338 1686.16,180.057 1686.77,137.365 1687.39,180.057 1688.01,137.365 1688.62,180.057 1689.24,137.365 1689.86,180.057 1690.47,137.365 1691.09,180.057 1691.7,137.365 1692.32,180.057 1692.94,137.365 1693.55,180.057 1694.17,137.365 1694.79,180.057 1695.4,137.365 1696.02,180.057 1696.63,151.791 1697.25,165.631 1697.87,151.791 1698.48,165.631 1699.1,151.791 1699.72,165.631 1700.33,151.791 1700.95,120.811 1701.56,137.114 1702.18,180.309 1702.8,137.114 1703.41,180.309 1704.03,137.114 1704.65,180.309 1705.26,137.114 1705.88,180.309 1706.49,137.114 1707.11,163.377 1707.73,154.046 1708.34,176.061 1708.96,141.362 1709.58,176.061 1710.19,141.362 1710.81,176.061 1711.42,141.362 1712.04,176.061 1712.66,141.362 1713.27,176.061 1713.89,141.362 1714.51,176.061 1715.12,141.362 1715.74,176.061 1716.35,141.362 1716.97,176.061 1717.59,141.362 1718.2,176.061 1718.82,141.362 1719.43,176.061 1720.05,141.362 1720.67,127.06 1721.28,185.014 1721.9,132.409 1722.52,185.014 1723.13,132.409 1723.75,185.014 1724.36,132.409 1724.98,185.014 1725.6,132.409 1726.21,185.014 1726.83,132.409 1727.45,185.014 1728.06,132.409 1728.68,185.014 1729.29,132.409 1729.91,185.014 1730.53,132.409 1731.14,185.014 1731.76,132.409 1732.38,185.014 1732.99,132.409 1733.61,185.014 1734.22,132.409 1734.84,185.014 1735.46,128.52 1736.07,188.903 1736.69,128.52 1737.31,188.903 1737.92,128.52 1738.54,188.903 1739.15,128.52 1739.77,188.903 1740.39,169.765 1741,147.658 1741.62,169.765 1742.24,147.658 1742.85,169.765 1743.47,147.658 1744.08,133.035 1744.7,184.388 1745.32,133.035 1745.93,184.388 1746.55,133.035 1747.16,184.388 1747.78,151.533 1748.4,165.889 1749.01,151.533 1749.63,165.889 1750.25,151.533 1750.86,149.474 1751.48,167.949 1752.09,147.913 1752.71,169.51 1753.33,147.913 1753.94,169.51 1754.56,147.913 1755.18,169.51 1755.79,147.913 1756.41,169.51 1757.02,147.913 1757.64,169.51 1758.26,147.913 1758.87,169.51 1759.49,147.913 1760.11,169.51 1760.72,147.913 1761.34,169.51 1761.95,147.913 1762.57,169.51 1763.19,147.913 1763.8,169.51 1764.42,147.913 1765.04,169.51 1765.65,147.913 1766.27,169.51 1766.88,138.638 1767.5,178.784 1768.12,138.638 1768.73,178.784 1769.35,138.638 1769.97,178.784 1770.58,138.638 1771.2,178.784 1771.81,138.638 1772.43,178.784 1773.05,138.638 1773.66,178.784 1774.28,138.638 1774.9,178.784 1775.51,138.638 1776.13,170.209 1776.74,129.754 1777.36,187.669 1777.98,129.754 1778.59,129.467 1779.21,183.171 1779.82,134.005 1780.44,183.417 1781.06,134.005 1781.67,183.417 1782.29,134.005 1782.91,183.417 1783.52,134.005 1784.14,183.417 1784.75,120.457 1785.37,174.753 1785.99,149.272 1786.6,168.151 1787.22,163.52 1787.84,158.613 1788.45,158.81 1789.07,158.613 1789.68,158.81 1790.3,158.613 1790.92,158.81 1791.53,158.613 1792.15,158.81 1792.77,158.613 1793.38,158.81 1794,158.613 1794.61,158.81 1795.23,158.613 1795.85,158.81 1796.46,158.613 1797.08,158.81 1797.7,156.484 1798.31,160.938 1798.93,156.484 1799.54,160.938 1800.16,156.484 1800.78,160.938 1801.39,156.484 1802.01,160.938 1802.63,156.484 1803.24,160.938 1803.86,153.84 1804.47,163.582 1805.09,153.368 1805.71,164.054 1806.32,164.67 1806.94,152.753 1807.56,164.67 1808.17,152.753 1808.79,164.67 1809.4,152.753 1810.02,154.64 1810.64,162.783 1811.25,154.64 1811.87,162.783 1812.48,154.64 1813.1,158.152 1813.72,154.64 1814.33,162.783 1814.95,154.64 1815.57,162.783 1816.18,154.64 1816.8,162.783 1817.41,153.485 1818.03,163.938 1818.65,153.485 1819.26,163.938 1819.88,153.485 1820.5,163.938 1821.11,153.485 1821.73,163.938 1822.34,153.485 1822.96,163.938 1823.58,153.485 1824.19,163.938 1824.81,153.485 1825.43,163.938 1826.04,153.485 1826.66,163.938 1827.27,153.485 1827.89,163.938 1828.51,164.819 1829.12,175.77 1829.74,161.941 1830.36,155.481 1830.97,161.941 1831.59,155.481 1832.2,161.941 1832.82,155.481 1833.44,161.941 1834.05,155.481 1834.67,161.941 1835.29,155.481 1835.9,161.941 1836.52,155.481 1837.13,161.941 1837.75,155.481 1838.37,161.941 1838.98,155.481 1839.6,161.941 1840.21,155.481 1840.83,161.941 1841.45,155.481 1842.06,161.941 1842.68,167.166 1843.3,150.256 1843.91,167.166 1844.53,150.256 1845.14,167.166 1845.76,150.256 1846.38,167.166 1846.99,150.256 1847.61,167.166 1848.23,150.256 1848.84,167.166 1849.46,150.256 1850.07,167.166 1850.69,150.256 1851.31,167.166 1851.92,150.256 1852.54,167.166 1853.16,150.256 1853.77,167.166 1854.39,150.256 1855,167.166 1855.62,150.256 1856.24,167.166 1856.85,181.624 1857.47,135.798 1858.09,181.624 1858.7,135.798 1859.32,181.624 1859.93,135.798 1860.55,181.624 1861.17,135.798 1861.78,181.624 1862.4,135.798 1863.02,181.624 1863.63,135.798 1864.25,181.624 1864.86,135.798 1865.48,181.624 1866.1,135.798 1866.71,181.624 1867.33,135.798 1867.95,181.624 1868.56,135.798 1869.18,181.624 1869.79,135.798 1870.41,181.624 1871.03,135.798 1871.64,144.882 1872.26,172.541 1872.87,144.882 1873.49,153.554 1874.11,163.869 1874.72,153.554 1875.34,163.869 1875.96,153.554 1876.57,163.869 1877.19,153.554 1877.8,163.869 1878.42,153.554 1879.04,163.869 1879.65,153.554 1880.27,161.835 1880.89,155.587 1881.5,159.391 1882.12,158.032 1882.73,159.391 1883.35,158.032 1883.97,159.391 1884.58,158.032 1885.2,159.391 1885.82,158.032 1886.43,159.391 1887.05,158.032 1887.66,159.391 1888.28,158.032 1888.9,159.391 1889.51,158.032 1890.13,159.391 1890.75,158.032 1891.36,159.391 1891.98,158.032 1892.59,149.676 1893.21,167.747 1893.83,149.676 1894.44,167.747 1895.06,149.676 1895.68,150.975 1896.29,166.448 1896.91,172.945 1897.52,144.478 1898.14,172.092 1898.76,145.331 1899.37,172.092 1899.99,145.331 1900.6,172.092 1901.22,155.576 1901.84,161.847 1902.45,180.585 1903.07,155.896 1903.69,163.174 1904.3,154.248 1904.92,163.174 1905.53,154.248 1906.15,163.174 1906.77,154.248 1907.38,163.174 1908,156.976 1908.62,160.447 1909.23,156.976 1909.85,160.447 1910.46,156.976 1911.08,160.447 1911.7,156.976 1912.31,160.447 1912.93,156.976 1913.55,160.447 1914.16,156.976 1914.78,160.447 1915.39,156.976 1916.01,156.439 1916.63,152.487 1917.24,164.936 1917.86,152.487 1918.48,164.936 1919.09,152.487 1919.71,164.936 1920.32,164.762 1920.94,152.661 1921.56,164.762 1922.17,152.661 1922.79,164.762 1923.41,152.661 1924.02,164.762 1924.64,152.661 1925.25,164.762 1925.87,152.661 1926.49,169.489 1927.1,147.934 1927.72,169.489 1928.34,137.511 1928.95,179.911 1929.57,137.511 1930.18,179.911 1930.8,137.511 1931.42,179.911 1932.03,137.511 1932.65,179.911 1933.26,137.511 1933.88,179.911 1934.5,137.511 1935.11,179.911 1935.73,137.511 1936.35,179.911 1936.96,137.511 1937.58,167.873 1938.19,149.55 1938.81,159.796 1939.43,152.02 1940.04,165.403 1940.66,152.02 1941.28,165.403 1941.89,152.02 1942.51,165.403 1943.12,152.02 1943.74,165.403 1944.36,152.02 1944.97,165.403 1945.59,152.02 1946.21,165.403 1946.82,152.02 1947.44,165.403 1948.05,152.02 1948.67,152.145 1949.29,165.277 1949.9,152.145 1950.52,154.654 1951.14,162.769 1951.75,154.654 1952.37,162.769 1952.98,154.654 1953.6,162.769 1954.22,154.654 1954.83,162.769 1955.45,154.654 1956.07,162.769 1956.68,154.654 1957.3,162.769 1957.91,154.654 1958.53,162.769 1959.15,154.654 1959.76,162.769 1960.38,154.654 1961,162.769 1961.61,154.654 1962.23,162.769 1962.84,154.654 1963.46,162.769 1964.08,154.654 1964.69,162.769 1965.31,169.582 1965.92,146.3 1966.54,171.123 1967.16,166.169 1967.77,151.254 1968.39,166.169 1969.01,151.254 1969.62,166.169 1970.24,151.254 1970.85,166.169 1971.47,151.254 1972.09,166.169 1972.7,151.254 1973.32,166.169 1973.94,151.254 1974.55,143.971 1975.17,173.452 1975.78,143.971 1976.4,173.452 1977.02,143.971 1977.63,173.452 1978.25,143.971 1978.87,173.452 1979.48,143.971 1980.1,173.452 1980.71,143.971 1981.33,173.452 1981.95,143.971 1982.56,173.452 1983.18,143.971 1983.8,173.452 1984.41,143.971 1985.03,173.452 1985.64,143.971 1986.26,173.452 1986.88,143.971 1987.49,173.452 1988.11,143.971 1988.73,173.452 1989.34,143.971 1989.96,173.452 1990.57,143.971 1991.19,173.452 1991.81,143.971 1992.42,173.452 1993.04,143.971 1993.65,159.552 1994.27,157.871 1994.89,159.552 1995.5,171.01 1996.12,131.459 1996.74,185.964 1997.35,131.459 1997.97,185.964 1998.58,131.459 1999.2,185.964 1999.82,131.459 2000.43,185.964 2001.05,131.459 2001.67,185.964 2002.28,131.459 2002.9,185.964 2003.51,131.459 2004.13,185.964 2004.75,131.459 2005.36,185.964 2005.98,158.783 2006.6,158.64 2007.21,171.925 2007.83,145.498 2008.44,135.078 2009.06,182.344 2009.68,135.078 2010.29,182.344 2010.91,135.078 2011.53,182.344 2012.14,135.078 2012.76,182.344 2013.37,135.078 2013.99,182.344 2014.61,135.078 2015.22,182.344 2015.84,135.078 2016.46,182.344 2017.07,135.078 2017.69,182.344 2018.3,135.078 2018.92,182.344 2019.54,135.078 2020.15,182.344 2020.77,135.078 2021.39,182.344 2022,135.078 2022.62,182.344 2023.23,135.078 2023.85,182.344 2024.47,162.483 2025.08,150.1 2025.7,167.323 2026.31,150.1 2026.93,167.323 2027.55,150.1 2028.16,167.323 2028.78,150.1 2029.4,167.323 2030.01,146.733 2030.63,170.69 2031.24,146.733 2031.86,170.69 2032.48,146.733 2033.09,170.69 2033.71,146.733 2034.33,170.69 2034.94,146.733 2035.56,170.69 2036.17,146.733 2036.79,170.69 2037.41,141.28 2038.02,170.69 2038.64,146.733 2039.26,170.69 2039.87,146.733 2040.49,170.69 2041.1,146.733 2041.72,170.69 2042.34,173.645 2042.95,143.778 2043.57,173.645 2044.19,143.778 2044.8,173.645 2045.42,143.778 2046.03,173.645 2046.65,143.778 2047.27,173.645 2047.88,143.778 2048.5,173.645 2049.12,143.778 2049.73,173.645 2050.35,143.778 2050.96,173.645 2051.58,143.778 2052.2,173.645 2052.81,143.778 2053.43,173.645 2054.05,143.778 2054.66,156.713 2055.28,160.71 2055.89,156.713 2056.51,160.71 2057.13,156.713 2057.74,160.71 2058.36,156.713 2058.97,160.71 2059.59,156.713 2060.21,160.71 2060.82,156.713 2061.44,160.71 2062.06,156.713 2062.67,160.71 2063.29,156.713 2063.9,160.71 2064.52,156.713 2065.14,160.71 2065.75,156.713 2066.37,160.71 2066.99,176.828 2067.6,143.919 2068.22,167.832 2068.83,143.919 2069.45,173.504 2070.07,143.919 2070.68,173.504 2071.3,143.919 2071.92,173.504 2072.53,143.919 2073.15,173.504 2073.76,143.919 2074.38,173.504 2075,143.919 2075.61,125.703 2076.23,191.72 2076.85,125.703 2077.46,191.72 2078.08,125.703 2078.69,191.72 2079.31,125.703 2079.93,191.72 2080.54,125.703 2081.16,191.72 2081.78,125.703 2082.39,191.72 2083.01,125.703 2083.62,191.72 2084.24,125.703 2084.86,191.72 2085.47,125.703 2086.09,191.72 2086.7,125.703 2087.32,191.72 2087.94,125.703 2088.55,191.72 2089.17,125.703 2089.79,191.72 2090.4,125.703 2091.02,191.72 2091.63,125.703 2092.25,191.72 2092.87,125.703 2093.48,146.709 2094.1,170.714 2094.72,146.709 2095.33,170.714 2095.95,146.709 2096.56,170.714 2097.18,145.821 2097.8,170.714 2098.41,146.709 2099.03,170.714 2099.65,146.709 2100.26,170.714 2100.88,156.226 2101.49,161.197 2102.11,166.965 2102.73,150.458 2103.34,166.965 2103.96,150.458 2104.58,166.965 2105.19,150.458 2105.81,166.965 2106.42,150.458 2107.04,166.965 2107.66,150.458 2108.27,166.965 2108.89,150.458 2109.51,166.965 2110.12,150.458 2110.74,147.39 2111.35,153.674 2111.97,157.376 2112.59,160.047 2113.2,157.376 2113.82,160.047 2114.44,157.376 2115.05,160.047 2115.67,157.376 2116.28,160.047 2116.9,157.376 2117.52,178.429 2118.13,138.994 2118.75,143.184 2119.36,174.239 2119.98,143.184 2120.6,158.665 2121.21,143.184 2121.83,174.239 2122.45,143.184 2123.06,174.239 2123.68,143.184 2124.29,174.239 2124.91,143.184 2125.53,174.239 2126.14,143.184 2126.76,174.239 2127.38,143.184 2127.99,174.239 2128.61,143.184 2129.22,174.239 2129.84,143.184 2130.46,174.239 2131.07,143.184 2131.69,152.851 2132.31,164.572 2132.92,152.851 2133.54,164.572 2134.15,152.851 2134.77,164.572 2135.39,152.851 2136,151.64 2136.62,165.783 2137.24,151.64 2137.85,165.783 2138.47,151.64 2139.08,128.838 2139.7,188.585 2140.32,147.166 2140.93,170.257 2141.55,147.166 2142.17,170.257 2142.78,147.166 2143.4,170.257 2144.01,147.166 2144.63,170.257 2145.25,141.978 2145.86,168.351 2146.48,149.072 2147.1,168.351 2147.71,149.072 2148.33,168.351 2148.94,149.072 2149.56,168.351 2150.18,149.072 2150.79,168.351 2151.41,149.072 2152.02,168.351 2152.64,149.072 2153.26,168.351 2153.87,149.072 2154.49,168.351 2155.11,149.072 2155.72,168.351 2156.34,149.072 2156.95,168.351 2157.57,149.072 2158.19,168.351 2158.8,149.072 2159.42,168.351 2160.04,149.072 2160.65,168.351 2161.27,149.072 2161.88,168.351 2162.5,149.901 2163.12,144.609 2163.73,172.814 2164.35,138.454 2164.97,178.969 2165.58,138.454 2166.2,178.969 2166.81,138.454 2167.43,178.969 2168.05,138.454 2168.66,178.969 2169.28,138.454 2169.9,178.969 2170.51,138.454 2171.13,178.969 2171.74,138.454 2172.36,178.969 2172.98,138.454 2173.59,178.969 2174.21,138.454 2174.83,178.969 2175.44,138.454 2176.06,178.969 2176.67,138.454 2177.29,178.969 2177.91,138.454 2178.52,178.969 2179.14,138.454 2179.75,178.969 2180.37,138.454 2180.99,178.969 2181.6,138.454 2182.22,178.969 2182.84,138.454 2183.45,178.969 2184.07,138.454 2184.68,130.268 2185.3,148.162 2185.92,169.261 2186.53,148.162 2187.15,169.261 2187.77,148.162 2188.38,139.603 2189,165.787 2189.61,151.636 2190.23,165.787 2190.85,151.636 2191.46,165.787 2192.08,151.636 2192.7,165.787 2193.31,151.636 2193.93,165.787 2194.54,151.636 2195.16,165.787 2195.78,151.636 2196.39,165.787 2197.01,151.636 2197.63,165.787 2198.24,151.636 2198.86,165.787 2199.47,151.636 2200.09,165.787 2200.71,151.636 2201.32,158.407 2201.94,159.016 2202.56,158.407 2203.17,159.016 2203.79,157.56 2204.4,159.863 2205.02,157.274 2205.64,146.702 2206.25,170.721 2206.87,146.702 2207.49,170.721 2208.1,146.702 2208.72,170.721 2209.33,146.702 2209.95,170.721 2210.57,146.702 2211.18,155.253 2211.8,162.17 2212.41,155.253 2213.03,162.17 2213.65,155.253 2214.26,162.17 2214.88,155.253 2215.5,162.17 2216.11,155.253 2216.73,162.17 2217.34,155.253 2217.96,162.17 2218.58,155.253 2219.19,162.17 2219.81,155.253 2220.43,162.17 2221.04,155.253 2221.66,150.898 2222.27,166.525 2222.89,150.898 2223.51,166.525 2224.12,150.898 2224.74,157.37 2225.36,160.053 2225.97,157.37 2226.59,133.477 2227.2,153.343 2227.82,164.08 2228.44,153.343 2229.05,164.08 2229.67,153.343 2230.29,164.08 2230.9,153.343 2231.52,164.08 2232.13,153.343 2232.75,164.08 2233.37,153.343 2233.98,164.08 2234.6,153.343 2235.22,164.08 2235.83,161.375 2236.45,156.047 2237.06,161.375 2237.68,156.047 2238.3,161.375 2238.91,156.047 2239.53,161.375 2240.15,156.047 2240.76,161.375 2241.38,156.047 2241.99,161.375 2242.61,156.047 2243.23,161.375 2243.84,156.047 2244.46,161.375 2245.07,156.047 2245.69,161.375 2246.31,156.047 2246.92,161.375 2247.54,156.047 2248.16,161.375 2248.77,156.047 2249.39,161.375 2250,156.047 2250.62,161.375 2251.24,156.047 2251.85,161.375 2252.47,156.047 2253.09,161.375 2253.7,156.047 2254.32,161.375 2254.93,156.047 2255.55,161.375 2256.17,156.047 2256.78,161.375 2257.4,156.047 2258.02,161.375 2258.63,156.047 2259.25,161.375 2259.86,156.047 2260.48,161.375 2261.1,156.047 2261.71,161.375 2262.33,156.047 2262.95,161.375 2263.56,156.047 2264.18,161.375 2264.79,156.047 2265.41,161.375 2266.03,156.047 2266.64,161.375 2267.26,156.047 2267.88,161.375 2268.49,156.047 2269.11,161.375 2269.72,156.047 2270.34,161.375 2270.96,156.047 2271.57,161.375 2272.19,149.232 2272.8,165.113 2273.42,152.31 2274.04,165.113 2274.65,152.31 2275.27,165.113 2275.89,152.31 2276.5,165.113 2277.12,152.31 2277.73,165.113 2278.35,152.31 2278.97,165.113 2279.58,152.31 2280.2,165.113 2280.82,152.31 2281.43,165.113 2282.05,152.31 2282.66,165.113 2283.28,152.31 2283.9,152.983 2284.51,164.439 2285.13,152.983 2285.75,164.439 2286.36,152.983 2286.98,164.439 2287.59,152.983 2288.21,164.439 2288.83,152.983 2289.44,164.439 2290.06,152.983 2290.68,164.439 2291.29,152.983 2291.91,164.439 2292.52,158.304 2293.14,159.119 2293.76,158.304 2294.37,159.119 2294.99,165.24 2295.61,152.183 2296.22,165.24 2296.84,152.183 2297.45,165.24 2298.07,152.183 2298.69,165.24 2299.3,152.183 2299.92,165.24 2300.54,152.183 2301.15,165.24 2301.77,152.183 2302.38,165.24 2303,146.895 2303.62,170.527 2304.23,146.895 2304.85,170.527 2305.46,146.895 2306.08,170.527 2306.7,146.895 2307.31,170.527 2307.93,146.895 2308.55,170.527 2309.16,146.895 2309.78,170.527 2310.39,146.895 2311.01,170.527 2311.63,146.895 2312.24,156.254 2312.86,161.169 2313.48,156.254 2314.09,156.903 2314.71,160.52 2315.32,156.903 2315.94,160.52 2316.56,156.903 2317.17,160.52 2317.79,156.903 2318.41,160.52 2319.02,156.903 2319.64,160.52 2320.25,156.903 2320.87,160.52 2321.49,156.903 2322.1,160.52 2322.72,156.903 2323.34,160.52 2323.95,156.903 2324.57,160.52 2325.18,156.903 2325.8,160.52 2326.42,156.903 2327.03,160.52 2327.65,156.903 2328.27,160.52 2328.88,156.903 2329.5,160.52 2330.11,156.903 2330.73,160.52 2331.35,159.579 2331.96,157.843 2332.58,165.344 2333.2,152.079 2333.81,165.344 2334.43,165.606 2335.04,169.057 2335.66,148.365 2336.28,169.057 2336.89,148.365 2337.51,169.057 2338.12,148.365 2338.74,169.057 2339.36,148.365 2339.97,169.057 2340.59,148.365 2341.21,169.057 2341.82,148.365 2342.44,169.057 2343.05,148.365 2343.67,169.057 2344.29,148.365 2344.9,169.057 2345.52,148.365 2346.14,169.057 2346.75,148.365 2347.37,169.057 2347.98,148.365 2348.6,138.52 2349.22,178.903 2349.83,138.52 2350.45,178.903 2351.07,138.52 2351.68,178.903 2352.3,138.52 2352.91,178.903 2353.53,138.52 2354.15,178.903 2354.76,138.52 2355.38,178.903 2356,138.52 2356.61,178.903 2357.23,160.974 2357.84,156.449 2358.46,160.974 2359.08,156.449 2359.69,160.974 2360.31,156.449 2360.93,160.974 2361.54,156.449 2362.16,160.974 2362.77,156.449 2363.39,160.974 2364.01,156.449 2364.62,160.974 2365.24,156.449 2365.85,160.974 2366.47,156.449 2367.09,160.974 2367.7,156.449 2368.32,153.216 2368.94,164.207 2369.55,153.216 2370.17,164.207 2370.78,153.216 2371.4,164.207 2372.02,153.216 2372.63,164.207 2373.25,153.216 2373.87,164.207 2374.48,153.216 2375.1,164.207 2375.71,153.216 2376.33,164.207 2376.95,153.216 2377.56,164.207 2378.18,153.216 2378.8,164.207 2379.41,153.216 2380.03,164.207 2380.64,164.375 2381.26,153.047 2381.88,164.375 2382.49,153.047 2383.11,145.018 2383.73,172.405 2384.34,145.018 2384.96,172.405 2385.57,145.018 2386.19,172.405 2386.81,145.018 2387.42,172.405 2388.04,145.018 2388.66,172.405 2389.27,128.231 2389.89,189.192 2390.5,128.231 2391.12,189.192 2391.74,128.231 2392.35,162.794 2392.97,154.629 2393.59,162.794 2394.2,154.629 2394.82,162.794 2395.43,154.629 2396.05,162.794 2396.67,154.629 2397.28,162.794 2397.9,154.629 2398.51,162.794 2399.13,154.629 2399.75,162.794 2400.36,159.74 2400.98,157.683 2401.6,159.74 2402.21,157.683 2402.83,159.74 2403.44,157.683 2404.06,159.74 2404.68,157.683 2405.29,159.74 2405.91,157.683 2406.53,159.74 2407.14,157.683 2407.76,159.74 2408.37,157.683 2408.99,159.74 2409.61,157.683 2410.22,144.109 2410.84,174.471 2411.46,149.823 2412.07,140.477 2412.69,176.945 2413.3,140.477 2413.92,176.945 2414.54,140.477 2415.15,176.945 2415.77,140.477 2416.39,176.945 2417,140.477 2417.62,176.945 2418.23,140.477 2418.85,176.945 2419.47,140.477 2420.08,176.945 2420.7,140.477 2421.32,176.945 2421.93,140.477 2422.55,176.945 2423.16,140.477 2423.78,176.945 2424.4,140.477 2425.01,141.729 2425.63,175.693 2426.25,141.729 2426.86,175.693 2427.48,141.729 2428.09,175.693 2428.71,141.729 2429.33,177.011 2429.94,140.412 2430.56,177.011 2431.17,140.412 2431.79,158.595 2432.41,148.727 2433.02,158.595 2433.64,158.828 2434.26,158.595 2434.87,154.032 2435.49,163.391 2436.1,154.032 2436.72,163.391 2437.34,154.032 2437.95,163.391 2438.57,154.032 2439.19,163.391 2439.8,154.032 2440.42,160.876 2441.03,156.546 2441.65,160.876 2442.27,161.784 2442.88,155.639 2443.5,161.784 2444.12,155.639 2444.73,161.784 2445.35,155.639 2445.96,161.784 2446.58,155.639 2447.2,161.784 2447.81,155.639 2448.43,161.784 2449.05,155.639 2449.66,161.784 2450.28,155.639 2450.89,161.784 2451.51,155.639 2452.13,161.784 2452.74,155.639 2453.36,161.784 2453.98,155.639 2454.59,161.784 2455.21,155.639 2455.82,138.208 2456.44,165.466 2457.06,151.957 2457.67,165.466 2458.29,151.957 2458.9,165.466 2459.52,151.957 2460.14,165.466 2460.75,151.957 2461.37,165.466 2461.99,151.957 2462.6,165.466 2463.22,151.957 2463.83,165.466 2464.45,151.957 2465.07,165.466 2465.68,151.957 2466.3,165.466 2466.92,122.369 2467.53,195.054 2468.15,122.369 2468.76,195.054 2469.38,122.369 2470,195.054 2470.61,122.369 2471.23,195.054 2471.85,122.369 2472.46,195.054 2473.08,122.369 2473.69,195.054 2474.31,122.369 2474.93,195.054 2475.54,122.369 2476.16,195.054 2476.78,122.369 2477.39,195.054 2478.01,122.369 2478.62,195.054 2479.24,122.369 2479.86,195.054 2480.47,122.369 2481.09,195.054 2481.71,122.369 2482.32,195.054 2482.94,122.369 2483.55,195.054 2484.17,122.369 2484.79,195.054 2485.4,122.369 2486.02,195.054 2486.64,146.906 2487.25,170.516 2487.87,146.906 2488.48,170.516 2489.1,146.906 2489.72,170.516 2490.33,146.906 2490.95,170.516 2491.56,152.221 2492.18,165.201 2492.8,152.221 2493.41,165.201 2494.03,154.567 2494.65,162.856 2495.26,154.567 2495.88,149.554 2496.49,167.869 2497.11,144.35 2497.73,151.489 2498.34,165.934 2498.96,151.489 2499.58,165.934 2500.19,151.489 2500.81,165.934 2501.42,151.489 2502.04,165.934 2502.66,151.489 2503.27,165.934 2503.89,151.489 2504.51,165.934 2505.12,151.489 2505.74,165.934 2506.35,151.489 2506.97,165.934 2507.59,151.489 2508.2,165.934 2508.82,134.516 2509.44,160.93 2510.05,134.516 2510.67,182.907 2511.28,134.516 2511.9,182.907 2512.52,134.516 2513.13,182.907 2513.75,134.516 2514.37,182.907 2514.98,134.516 2515.6,182.907 2516.21,134.516 2516.83,148.341 2517.45,169.082 2518.06,148.341 2518.68,169.082 2519.29,148.341 2519.91,169.082 2520.53,148.341 2521.14,169.082 2521.76,148.341 2522.38,169.082 2522.99,148.341 2523.61,169.082 2524.22,148.341 2524.84,169.082 2525.46,148.341 2526.07,169.082 2526.69,148.341 2527.31,169.082 2527.92,148.341 2528.54,159.913 2529.15,157.51 2529.77,159.913 2530.39,157.51 2531,159.913 2531.62,157.51 2532.24,159.913 2532.85,157.51 2533.47,159.913 2534.08,157.51 2534.7,159.913 2535.32,157.51 2535.93,159.913 2536.55,157.51 2537.17,159.913 2537.78,157.51 2538.4,159.913 2539.01,157.51 2539.63,159.913 2540.25,157.51 2540.86,159.913 2541.48,157.51 2542.1,159.913 2542.71,167.296 2543.33,148.633 2543.94,168.79 2544.56,148.633 2545.18,168.79 2545.79,148.633 2546.41,168.79 2547.03,148.633 2547.64,168.79 2548.26,148.633 2548.87,168.79 2549.49,148.633 2550.11,168.79 2550.72,148.633 2551.34,168.79 2551.95,148.633 2552.57,168.79 2553.19,148.633 2553.8,168.79 2554.42,148.633 2555.04,168.79 2555.65,148.633 2556.27,168.79 2556.88,148.633 2557.5,153.159 2558.12,164.263 2558.73,153.159 2559.35,148.225 2559.97,169.198 2560.58,148.225 2561.2,169.198 2561.81,148.225 2562.43,169.198 2563.05,148.225 2563.66,169.198 2564.28,148.225 2564.9,169.198 2565.51,148.225 2566.13,169.198 2566.74,148.225 2567.36,169.198 2567.98,148.225 2568.59,169.198 2569.21,148.225 2569.83,169.198 2570.44,148.225 2571.06,169.198 2571.67,148.225 2572.29,169.198 2572.91,148.225 2573.52,169.198 2574.14,148.225 2574.76,169.198 2575.37,148.225 2575.99,169.198 2576.6,148.225 2577.22,169.198 2577.84,148.225 2578.45,169.198 2579.07,148.225 2579.69,169.198 2580.3,148.225 2580.92,169.198 2581.53,148.225 2582.15,169.198 2582.77,148.225 2583.38,149.987 2584,167.436 2584.61,149.987 2585.23,167.436 2585.85,148.237 2586.46,168.737 2587.08,148.686 2587.7,149.486 2588.31,167.937 2588.93,149.486 2589.54,167.937 2590.16,149.486 2590.78,167.937 2591.39,149.486 2592.01,167.937 2592.63,149.486 2593.24,167.937 2593.86,149.486 2594.47,150.474 2595.09,166.949 2595.71,150.474 2596.32,166.949 2596.94,150.474 2597.56,166.949 2598.17,150.474 2598.79,166.949 2599.4,150.474 2600.02,166.949 2600.64,150.474 2601.25,166.949 2601.87,194.396 2602.49,123.027 2603.1,194.396 2603.72,123.027 2604.33,194.396 2604.95,123.027 2605.57,194.396 2606.18,123.027 2606.8,173.28 2607.42,144.143 2608.03,142.801 2608.65,174.621 2609.26,142.801 2609.88,174.621 2610.5,142.801 2611.11,174.621 2611.73,142.801 2612.34,174.621 2612.96,142.801 2613.58,174.621 2614.19,142.801 2614.81,174.621 2615.43,142.801 2616.04,174.621 2616.66,142.801 2617.27,174.621 2617.89,142.801 2618.51,174.621 2619.12,142.801 2619.74,174.621 2620.36,142.801 2620.97,174.621 2621.59,142.801 2622.2,174.621 2622.82,142.801 2623.44,174.621 2624.05,142.801 2624.67,174.621 2625.29,142.801 2625.9,174.621 2626.52,142.801 2627.13,174.621 2627.75,142.801 2628.37,174.621 2628.98,142.801 2629.6,136.427 2630.22,145.167 2630.83,172.256 2631.45,145.167 2632.06,172.256 2632.68,145.167 2633.3,172.256 2633.91,145.167 2634.53,172.256 2635.15,145.167 2635.76,172.256 2636.38,145.167 2636.99,172.256 2637.61,145.167 2638.23,172.256 2638.84,145.167 2639.46,172.256 2640.08,145.167 2640.69,172.256 2641.31,145.167 2641.92,172.256 2642.54,145.167 2643.16,172.256 2643.77,145.167 2644.39,172.256 2645,145.167 2645.62,172.256 2646.24,145.167 2646.85,134.305 2647.47,162.948 2648.09,134.305 2648.7,183.118 2649.32,134.305 2649.93,183.118 2650.55,134.305 2651.17,183.118 2651.78,134.305 2652.4,147.237 2653.02,134.305 2653.63,183.118 2654.25,134.305 2654.86,183.118 2655.48,134.305 2656.1,183.118 2656.71,134.305 2657.33,183.118 2657.95,134.305 2658.56,183.118 2659.18,134.305 2659.79,183.118 2660.41,130.84 2661.03,186.583 2661.64,150.292 2662.26,167.13 2662.88,170.972 2663.49,146.451 2664.11,170.972 2664.72,146.451 2665.34,170.972 2665.96,146.451 2666.57,170.972 2667.19,146.451 2667.81,164.877 2668.42,152.545 2669.04,164.877 2669.65,152.545 2670.27,164.877 2670.89,152.545 2671.5,164.877 2672.12,152.545 2672.74,164.877 2673.35,152.545 2673.97,164.877 2674.58,152.545 2675.2,164.877 2675.82,152.545 2676.43,164.877 2677.05,158.842 2677.66,157.476 2678.28,159.947 2678.9,157.476 2679.51,159.947 2680.13,157.476 2680.75,159.947 2681.36,157.476 2681.98,159.947 2682.59,157.476 2683.21,159.947 2683.83,157.476 2684.44,159.947 2685.06,157.476 2685.68,159.947 2686.29,157.476 2686.91,159.947 2687.52,157.476 2688.14,159.947 2688.76,157.476 2689.37,159.947 2689.99,157.476 2690.61,159.947 2691.22,157.476 2691.84,159.947 2692.45,157.476 2693.07,159.947 2693.69,157.476 2694.3,159.947 2694.92,157.476 2695.54,155.471 2696.15,161.951 2696.77,155.471 2697.38,161.951 2698,155.471 2698.62,161.951 2699.23,155.471 2699.85,161.951 2700.47,155.471 2701.08,161.951 2701.7,155.471 2702.31,161.951 2702.93,155.471 2703.55,161.951 2704.16,155.471 2704.78,161.951 2705.39,155.471 2706.01,161.951 2706.63,155.471 2707.24,161.951 2707.86,138.125 2708.48,179.298 2709.09,138.125 2709.71,179.298 2710.32,138.125 2710.94,179.298 2711.56,138.125 2712.17,179.298 2712.79,138.125 2713.41,140.689 2714.02,176.734 2714.64,140.689 2715.25,176.734 2715.87,140.689 2716.49,135.002 2717.1,182.421 2717.72,135.002 2718.34,163.984 2718.95,153.439 2719.57,163.984 2720.18,142.647 2720.8,163.984 2721.42,153.439 2722.03,163.984 2722.65,153.439 2723.27,163.984 2723.88,153.439 2724.5,169.069 2725.11,148.354 2725.73,169.069 2726.35,148.354 2726.96,169.069 2727.58,148.354 2728.2,169.069 2728.81,148.354 2729.43,169.069 2730.04,148.354 2730.66,169.069 2731.28,148.354 2731.89,169.069 2732.51,148.354 2733.13,169.069 2733.74,148.354 2734.36,169.069 2734.97,148.354 2735.59,169.069 2736.21,148.354 2736.82,169.069 2737.44,148.354 2738.05,169.069 2738.67,148.354 2739.29,169.069 2739.9,173.923 2740.52,143.5 2741.14,173.923 2741.75,143.5 2742.37,147.513 2742.98,169.91 2743.6,147.513 2744.22,169.91 2744.83,147.513 2745.45,169.91 2746.07,147.513 2746.68,169.91 2747.3,147.513 2747.91,159.879 2748.53,157.544 2749.15,159.879 2749.76,157.544 2750.38,159.879 2751,157.544 2751.61,159.879 2752.23,157.544 2752.84,159.879 2753.46,157.544 2754.08,159.879 2754.69,157.544 2755.31,159.879 2755.93,157.544 2756.54,159.879 2757.16,157.544 2757.77,159.879 2758.39,157.544 2759.01,159.879 2759.62,157.544 2760.24,159.879 2760.86,157.544 2761.47,159.879 2762.09,157.544 2762.7,159.879 2763.32,157.544 2763.94,159.879 2764.55,157.544 2765.17,159.879 2765.79,157.544 2766.4,159.879 2767.02,157.544 2767.63,159.879 2768.25,148.886 2768.87,159.879 2769.48,157.544 2770.1,159.879 2770.71,157.544 2771.33,159.879 2771.95,157.544 2772.56,159.879 2773.18,157.544 2773.8,159.879 2774.41,157.544 2775.03,159.879 2775.64,157.544 2776.26,159.879 2776.88,157.544 2777.49,159.879 2778.11,157.544 2778.73,135.146 2779.34,164.226 2779.96,153.197 2780.57,164.226 2781.19,153.197 2781.81,155.91 2782.42,162.008 2783.04,155.415 2783.66,162.008 2784.27,155.415 2784.89,162.008 2785.5,155.415 2786.12,162.008 2786.74,155.415 2787.35,162.008 2787.97,155.415 2788.59,162.008 2789.2,155.415 2789.82,162.008 2790.43,155.415 2791.05,162.008 2791.67,155.415 2792.28,162.008 2792.9,155.415 2793.52,162.008 2794.13,155.415 2794.75,162.008 2795.36,155.415 2795.98,162.008 2796.6,155.415 2797.21,162.008 2797.83,155.415 2798.44,162.008 2799.06,155.415 2799.68,162.008 2800.29,155.415 2800.91,162.008 2801.53,151.768 2802.14,165.655 2802.76,151.768 2803.37,165.655 2803.99,151.768 2804.61,165.655 2805.22,151.768 2805.84,165.655 2806.46,151.768 2807.07,165.655 2807.69,151.768 2808.3,165.655 2808.92,151.768 2809.54,165.655 2810.15,151.768 2810.77,165.655 2811.39,156.87 2812,137.988 2812.62,176.979 2813.23,140.444 2813.85,176.979 2814.47,140.444 2815.08,176.979 2815.7,140.444 2816.32,176.979 2816.93,140.444 2817.55,176.979 2818.16,140.444 2818.78,176.979 2819.4,140.444 2820.01,176.979 2820.63,140.444 2821.25,176.979 2821.86,140.444 2822.48,176.979 2823.09,140.444 2823.71,176.979 2824.33,140.444 2824.94,176.979 2825.56,140.444 2826.18,176.979 2826.79,140.444 2827.41,143.852 2828.02,159.474 2828.64,157.949 2829.26,159.474 2829.87,157.949 2830.49,159.474 2831.1,157.949 2831.72,159.474 2832.34,176.614 2832.95,140.809 2833.57,176.614 2834.19,140.809 2834.8,176.614 2835.42,140.809 2836.03,176.614 2836.65,140.809 2837.27,176.614 2837.88,140.809 2838.5,176.614 2839.12,140.809 2839.73,176.614 2840.35,140.809 2840.96,176.614 2841.58,140.809 2842.2,176.614 2842.81,145.391 2843.43,172.032 2844.05,145.391 2844.66,172.032 2845.28,145.391 2845.89,172.032 2846.51,145.391 2847.13,172.032 2847.74,145.391 2848.36,172.032 2848.98,145.323 2849.59,172.1 2850.21,145.323 2850.82,172.1 2851.44,145.323 2852.06,172.1 2852.67,145.323 2853.29,157.206 2853.91,160.217 2854.52,157.206 2855.14,160.217 2855.75,157.206 2856.37,153.08 2856.99,167.09 2857.6,163.466 2858.22,153.957 2858.84,163.466 2859.45,153.957 2860.07,161.264 2860.68,156.159 2861.3,161.264 2861.92,156.159 2862.53,161.264 2863.15,156.159 2863.76,161.264 2864.38,156.159 2865,161.264 2865.61,156.159 2866.23,161.264 2866.85,156.159 2867.46,161.264 2868.08,156.159 2868.69,161.264 2869.31,156.159 2869.93,161.264 2870.54,156.159 2871.16,161.264 2871.78,156.159 2872.39,173.625 2873.01,151.363 2873.62,166.06 2874.24,151.363 2874.86,166.06 2875.47,151.363 2876.09,166.06 2876.71,149.291 2877.32,168.132 2877.94,149.291 2878.55,168.132 2879.17,149.291 2879.79,168.132 2880.4,149.291 2881.02,168.132 2881.64,149.291 2882.25,168.132 2882.87,149.291 2883.48,168.132 2884.1,149.291 2884.72,168.132 2885.33,149.291 2885.95,168.132 2886.57,149.291 2887.18,168.132 2887.8,149.291 2888.41,168.132 2889.03,149.291 2889.65,168.132 2890.26,149.291 2890.88,168.132 2891.49,149.291 2892.11,168.132 2892.73,149.291 2893.34,168.132 2893.96,149.291 2894.58,168.132 2895.19,149.291 2895.81,168.132 2896.42,149.291 2897.04,168.132 2897.66,149.291 2898.27,156.116 2898.89,161.307 2899.51,156.116 2900.12,155.12 2900.74,162.303 2901.35,155.12 2901.97,162.303 2902.59,155.12 2903.2,162.303 2903.82,168.569 2904.44,148.854 2905.05,168.569 2905.67,148.854 2906.28,168.569 2906.9,148.854 2907.52,168.569 2908.13,148.854 2908.75,168.569 2909.37,148.854 2909.98,168.569 2910.6,148.854 2911.21,168.569 2911.83,148.854 2912.45,168.569 2913.06,148.854 2913.68,168.569 2914.3,148.854 2914.91,168.569 2915.53,148.854 2916.14,168.569 2916.76,148.854 2917.38,168.569 2917.99,148.854 2918.61,168.569 2919.23,148.854 2919.84,168.569 2920.46,148.854 2921.07,168.569 2921.69,148.854 2922.31,168.569 2922.92,148.854 2923.54,136.625 2924.15,148.854 2924.77,154.982 2925.39,160.956 2926,157.386 2926.62,160.036 2927.24,157.386 2927.85,160.036 2928.47,178.864 2929.08,138.558 2929.7,178.864 2930.32,138.558 2930.93,178.864 2931.55,161.134 2932.17,156.288 2932.78,139.152 2933.4,173.009 2934.01,144.414 2934.63,153.282 2935.25,164.14 2935.86,150.732 2936.48,166.69 2937.1,150.732 2937.71,178.465 2938.33,138.958 2938.94,178.465 2939.56,138.958 2940.18,178.465 2940.79,138.958 2941.41,178.465 2942.03,138.958 2942.64,178.465 2943.26,138.958 2943.87,178.465 2944.49,138.958 2945.11,178.465 2945.72,138.958 2946.34,178.465 2946.96,138.958 2947.57,178.465 2948.19,138.958 2948.8,194.518 2949.42,122.905 2950.04,194.518 2950.65,122.905 2951.27,194.518 2951.89,122.905 2952.5,194.518 2953.12,122.905 2953.73,194.518 2954.35,122.905 2954.97,194.518 2955.58,122.905 2956.2,194.518 2956.81,122.905 2957.43,177.774 2958.05,139.649 2958.66,177.774 2959.28,139.649 2959.9,177.774 2960.51,139.649 2961.13,177.774 2961.74,139.649 2962.36,177.774 2962.98,139.649 2963.59,177.774 2964.21,139.649 2964.83,177.774 2965.44,139.649 2966.06,177.774 2966.67,139.649 2967.29,177.774 2967.91,139.649 2968.52,177.774 2969.14,139.649 2969.76,177.774 2970.37,139.649 2970.99,177.774 2971.6,139.649 2972.22,177.774 2972.84,139.649 2973.45,177.774 2974.07,139.649 2974.69,177.774 2975.3,139.649 2975.92,177.774 2976.53,139.649 2977.15,177.774 2977.77,139.649 2978.38,177.774 2979,139.649 2979.62,161.984 2980.23,157.373 2980.85,160.05 2981.46,157.373 2982.08,160.05 2982.7,157.373 2983.31,160.05 2983.93,157.373 2984.54,160.05 2985.16,157.373 2985.78,160.05 2986.39,135.183 2987.01,160.05 2987.63,157.373 2988.24,160.05 2988.86,157.373 2989.47,160.05 2990.09,157.373 2990.71,160.05 2991.32,157.373 2991.94,160.05 2992.56,157.373 2993.17,157.025 2993.79,160.398 2994.4,157.025 2995.02,160.398 2995.64,157.025 2996.25,160.398 2996.87,157.025 2997.49,160.398 2998.1,157.025 2998.72,160.398 2999.33,157.025 2999.95,160.398 3000.57,157.025 3001.18,160.398 3001.8,157.025 3002.42,160.398 3003.03,157.025 3003.65,160.398 3004.26,157.025 3004.88,160.398 3005.5,157.025 3006.11,160.398 3006.73,157.025 3007.35,141.869 3007.96,175.554 3008.58,141.869 3009.19,175.554 3009.81,141.869 3010.43,175.554 3011.04,141.869 3011.66,175.554 3012.28,141.869 3012.89,175.554 3013.51,141.869 3014.12,175.554 3014.74,141.869 3015.36,175.554 3015.97,141.869 3016.59,175.554 3017.2,141.869 3017.82,175.554 3018.44,141.869 3019.05,175.554 3019.67,141.869 3020.29,186.626 3020.9,153.724 3021.52,163.698 3022.13,153.724 3022.75,163.698 3023.37,153.724 3023.98,163.698 3024.6,153.724 3025.22,163.698 3025.83,134.288 3026.45,183.135 3027.06,134.288 3027.68,183.135 3028.3,134.288 3028.91,183.135 3029.53,134.288 3030.15,183.135 3030.76,134.288 3031.38,183.135 3031.99,134.288 3032.61,183.135 3033.23,134.288 3033.84,183.135 3034.46,139.18 3035.08,178.243 3035.69,168.096 3036.31,149.327 3036.92,168.096 3037.54,149.327 3038.16,168.096 3038.77,149.327 3039.39,168.096 3040.01,149.327 3040.62,168.096 3041.24,158.61 3041.85,158.813 3042.47,158.61 3043.09,146.204 3043.7,171.219 3044.32,146.204 3044.94,171.219 3045.55,146.204 3046.17,142.477 3046.78,174.945 3047.4,142.477 3048.02,174.945 3048.63,142.477 3049.25,174.945 3049.86,142.477 3050.48,174.945 3051.1,139.406 3051.71,174.945 3052.33,138.414 3052.95,179.009 3053.56,146.89 3054.18,170.533 3054.79,146.89 3055.41,170.533 3056.03,146.89 3056.64,170.533 3057.26,146.89 3057.88,170.533 3058.49,146.89 3059.11,181.147 3059.72,131.768 3060.34,147.859 3060.96,169.563 3061.57,147.859 3062.19,169.563 3062.81,147.859 3063.42,169.563 3064.04,147.859 3064.65,169.563 3065.27,147.859 3065.89,169.563 3066.5,147.859 3067.12,169.563 3067.74,147.859 "/>
<path clip-path="url(#clip460)" d="M2599.83 693.754 L3052.62 693.754 L3052.62 590.074 L2599.83 590.074  Z" fill="#ffffff" fill-rule="evenodd" fill-opacity="1"/>
<polyline clip-path="url(#clip460)" style="stroke:#000000; stroke-linecap:round; stroke-linejoin:round; stroke-width:4; stroke-opacity:1; fill:none" points="2599.83,693.754 3052.62,693.754 3052.62,590.074 2599.83,590.074 2599.83,693.754 "/>
<polyline clip-path="url(#clip460)" style="stroke:#009af9; stroke-linecap:round; stroke-linejoin:round; stroke-width:2; stroke-opacity:1; fill:none" points="2633.21,641.914 2833.48,641.914 "/>
<path clip-path="url(#clip460)" d="M2866.86 624.634 L2871.58 624.634 L2878.85 653.847 L2886.09 624.634 L2891.35 624.634 L2898.62 653.847 L2905.86 624.634 L2910.61 624.634 L2901.93 659.194 L2896.05 659.194 L2888.76 629.195 L2881.4 659.194 L2875.52 659.194 L2866.86 624.634 Z" fill="#000000" fill-rule="evenodd" fill-opacity="1" /><path clip-path="url(#clip460)" d="M2916.81 624.634 L2921.49 624.634 L2921.49 638.801 L2938.48 638.801 L2938.48 624.634 L2943.15 624.634 L2943.15 659.194 L2938.48 659.194 L2938.48 642.736 L2921.49 642.736 L2921.49 659.194 L2916.81 659.194 L2916.81 624.634 Z" fill="#000000" fill-rule="evenodd" fill-opacity="1" /><path clip-path="url(#clip460)" d="M2952.46 624.634 L2959.43 624.634 L2968.25 648.153 L2977.11 624.634 L2984.08 624.634 L2984.08 659.194 L2979.52 659.194 L2979.52 628.847 L2970.61 652.551 L2965.91 652.551 L2957 628.847 L2957 659.194 L2952.46 659.194 L2952.46 624.634 Z" fill="#000000" fill-rule="evenodd" fill-opacity="1" /><path clip-path="url(#clip460)" d="M3019.24 627.296 L3019.24 632.227 Q3016.88 630.028 3014.2 628.94 Q3011.53 627.852 3008.52 627.852 Q3002.6 627.852 2999.45 631.486 Q2996.3 635.097 2996.3 641.949 Q2996.3 648.778 2999.45 652.412 Q3002.6 656.023 3008.52 656.023 Q3011.53 656.023 3014.2 654.935 Q3016.88 653.847 3019.24 651.648 L3019.24 656.532 Q3016.79 658.199 3014.03 659.032 Q3011.3 659.866 3008.25 659.866 Q3000.4 659.866 2995.89 655.074 Q2991.37 650.259 2991.37 641.949 Q2991.37 633.616 2995.89 628.824 Q3000.4 624.009 3008.25 624.009 Q3011.35 624.009 3014.08 624.843 Q3016.83 625.653 3019.24 627.296 Z" fill="#000000" fill-rule="evenodd" fill-opacity="1" /></svg>
