<?xml version="1.0" encoding="utf-8"?>
<svg xmlns="http://www.w3.org/2000/svg" xmlns:xlink="http://www.w3.org/1999/xlink" width="800" height="200" viewBox="0 0 3200 800">
<defs>
  <clipPath id="clip260">
    <rect x="0" y="0" width="3200" height="800"/>
  </clipPath>
</defs>
<path clip-path="url(#clip260)" d="M0 800 L3200 800 L3200 0 L0 0  Z" fill="#ffffff" fill-rule="evenodd" fill-opacity="1"/>
<defs>
  <clipPath id="clip261">
    <rect x="640" y="0" width="2241" height="800"/>
  </clipPath>
</defs>
<path clip-path="url(#clip260)" d="M148.696 716.048 L3152.76 716.048 L3152.76 47.2441 L148.696 47.2441  Z" fill="#ffffff" fill-rule="evenodd" fill-opacity="1"/>
<defs>
  <clipPath id="clip262">
    <rect x="148" y="47" width="3005" height="670"/>
  </clipPath>
</defs>
<polyline clip-path="url(#clip262)" style="stroke:#000000; stroke-linecap:round; stroke-linejoin:round; stroke-width:2; stroke-opacity:0.1; fill:none" points="232.626,716.048 232.626,47.2441 "/>
<polyline clip-path="url(#clip262)" style="stroke:#000000; stroke-linecap:round; stroke-linejoin:round; stroke-width:2; stroke-opacity:0.1; fill:none" points="777.839,716.048 777.839,47.2441 "/>
<polyline clip-path="url(#clip262)" style="stroke:#000000; stroke-linecap:round; stroke-linejoin:round; stroke-width:2; stroke-opacity:0.1; fill:none" points="1323.05,716.048 1323.05,47.2441 "/>
<polyline clip-path="url(#clip262)" style="stroke:#000000; stroke-linecap:round; stroke-linejoin:round; stroke-width:2; stroke-opacity:0.1; fill:none" points="1868.27,716.048 1868.27,47.2441 "/>
<polyline clip-path="url(#clip262)" style="stroke:#000000; stroke-linecap:round; stroke-linejoin:round; stroke-width:2; stroke-opacity:0.1; fill:none" points="2413.48,716.048 2413.48,47.2441 "/>
<polyline clip-path="url(#clip262)" style="stroke:#000000; stroke-linecap:round; stroke-linejoin:round; stroke-width:2; stroke-opacity:0.1; fill:none" points="2958.69,716.048 2958.69,47.2441 "/>
<polyline clip-path="url(#clip260)" style="stroke:#000000; stroke-linecap:round; stroke-linejoin:round; stroke-width:4; stroke-opacity:1; fill:none" points="148.696,716.048 3152.76,716.048 "/>
<polyline clip-path="url(#clip260)" style="stroke:#000000; stroke-linecap:round; stroke-linejoin:round; stroke-width:4; stroke-opacity:1; fill:none" points="232.626,716.048 232.626,697.15 "/>
<polyline clip-path="url(#clip260)" style="stroke:#000000; stroke-linecap:round; stroke-linejoin:round; stroke-width:4; stroke-opacity:1; fill:none" points="777.839,716.048 777.839,697.15 "/>
<polyline clip-path="url(#clip260)" style="stroke:#000000; stroke-linecap:round; stroke-linejoin:round; stroke-width:4; stroke-opacity:1; fill:none" points="1323.05,716.048 1323.05,697.15 "/>
<polyline clip-path="url(#clip260)" style="stroke:#000000; stroke-linecap:round; stroke-linejoin:round; stroke-width:4; stroke-opacity:1; fill:none" points="1868.27,716.048 1868.27,697.15 "/>
<polyline clip-path="url(#clip260)" style="stroke:#000000; stroke-linecap:round; stroke-linejoin:round; stroke-width:4; stroke-opacity:1; fill:none" points="2413.48,716.048 2413.48,697.15 "/>
<polyline clip-path="url(#clip260)" style="stroke:#000000; stroke-linecap:round; stroke-linejoin:round; stroke-width:4; stroke-opacity:1; fill:none" points="2958.69,716.048 2958.69,697.15 "/>
<path clip-path="url(#clip260)" d="M232.626 753.367 Q229.015 753.367 227.186 756.931 Q225.38 760.473 225.38 767.603 Q225.38 774.709 227.186 778.274 Q229.015 781.815 232.626 781.815 Q236.26 781.815 238.065 778.274 Q239.894 774.709 239.894 767.603 Q239.894 760.473 238.065 756.931 Q236.26 753.367 232.626 753.367 M232.626 749.663 Q238.436 749.663 241.491 754.269 Q244.57 758.853 244.57 767.603 Q244.57 776.329 241.491 780.936 Q238.436 785.519 232.626 785.519 Q226.816 785.519 223.737 780.936 Q220.681 776.329 220.681 767.603 Q220.681 758.853 223.737 754.269 Q226.816 749.663 232.626 749.663 Z" fill="#000000" fill-rule="evenodd" fill-opacity="1" /><path clip-path="url(#clip260)" d="M737.457 750.288 L755.814 750.288 L755.814 754.223 L741.74 754.223 L741.74 762.695 Q742.758 762.348 743.777 762.186 Q744.795 762.001 745.814 762.001 Q751.601 762.001 754.98 765.172 Q758.36 768.343 758.36 773.76 Q758.36 779.339 754.888 782.44 Q751.416 785.519 745.096 785.519 Q742.92 785.519 740.652 785.149 Q738.406 784.778 735.999 784.038 L735.999 779.339 Q738.082 780.473 740.305 781.028 Q742.527 781.584 745.004 781.584 Q749.008 781.584 751.346 779.478 Q753.684 777.371 753.684 773.76 Q753.684 770.149 751.346 768.042 Q749.008 765.936 745.004 765.936 Q743.129 765.936 741.254 766.353 Q739.402 766.769 737.457 767.649 L737.457 750.288 Z" fill="#000000" fill-rule="evenodd" fill-opacity="1" /><path clip-path="url(#clip260)" d="M777.573 753.367 Q773.962 753.367 772.133 756.931 Q770.328 760.473 770.328 767.603 Q770.328 774.709 772.133 778.274 Q773.962 781.815 777.573 781.815 Q781.207 781.815 783.013 778.274 Q784.841 774.709 784.841 767.603 Q784.841 760.473 783.013 756.931 Q781.207 753.367 777.573 753.367 M777.573 749.663 Q783.383 749.663 786.439 754.269 Q789.517 758.853 789.517 767.603 Q789.517 776.329 786.439 780.936 Q783.383 785.519 777.573 785.519 Q771.763 785.519 768.684 780.936 Q765.629 776.329 765.629 767.603 Q765.629 758.853 768.684 754.269 Q771.763 749.663 777.573 749.663 Z" fill="#000000" fill-rule="evenodd" fill-opacity="1" /><path clip-path="url(#clip260)" d="M807.735 753.367 Q804.124 753.367 802.295 756.931 Q800.489 760.473 800.489 767.603 Q800.489 774.709 802.295 778.274 Q804.124 781.815 807.735 781.815 Q811.369 781.815 813.175 778.274 Q815.003 774.709 815.003 767.603 Q815.003 760.473 813.175 756.931 Q811.369 753.367 807.735 753.367 M807.735 749.663 Q813.545 749.663 816.6 754.269 Q819.679 758.853 819.679 767.603 Q819.679 776.329 816.6 780.936 Q813.545 785.519 807.735 785.519 Q801.925 785.519 798.846 780.936 Q795.79 776.329 795.79 767.603 Q795.79 758.853 798.846 754.269 Q801.925 749.663 807.735 749.663 Z" fill="#000000" fill-rule="evenodd" fill-opacity="1" /><path clip-path="url(#clip260)" d="M1267.58 780.913 L1275.22 780.913 L1275.22 754.547 L1266.91 756.214 L1266.91 751.955 L1275.17 750.288 L1279.85 750.288 L1279.85 780.913 L1287.49 780.913 L1287.49 784.848 L1267.58 784.848 L1267.58 780.913 Z" fill="#000000" fill-rule="evenodd" fill-opacity="1" /><path clip-path="url(#clip260)" d="M1306.93 753.367 Q1303.32 753.367 1301.49 756.931 Q1299.68 760.473 1299.68 767.603 Q1299.68 774.709 1301.49 778.274 Q1303.32 781.815 1306.93 781.815 Q1310.56 781.815 1312.37 778.274 Q1314.2 774.709 1314.2 767.603 Q1314.2 760.473 1312.37 756.931 Q1310.56 753.367 1306.93 753.367 M1306.93 749.663 Q1312.74 749.663 1315.8 754.269 Q1318.87 758.853 1318.87 767.603 Q1318.87 776.329 1315.8 780.936 Q1312.74 785.519 1306.93 785.519 Q1301.12 785.519 1298.04 780.936 Q1294.99 776.329 1294.99 767.603 Q1294.99 758.853 1298.04 754.269 Q1301.12 749.663 1306.93 749.663 Z" fill="#000000" fill-rule="evenodd" fill-opacity="1" /><path clip-path="url(#clip260)" d="M1337.09 753.367 Q1333.48 753.367 1331.65 756.931 Q1329.85 760.473 1329.85 767.603 Q1329.85 774.709 1331.65 778.274 Q1333.48 781.815 1337.09 781.815 Q1340.73 781.815 1342.53 778.274 Q1344.36 774.709 1344.36 767.603 Q1344.36 760.473 1342.53 756.931 Q1340.73 753.367 1337.09 753.367 M1337.09 749.663 Q1342.9 749.663 1345.96 754.269 Q1349.04 758.853 1349.04 767.603 Q1349.04 776.329 1345.96 780.936 Q1342.9 785.519 1337.09 785.519 Q1331.28 785.519 1328.2 780.936 Q1325.15 776.329 1325.15 767.603 Q1325.15 758.853 1328.2 754.269 Q1331.28 749.663 1337.09 749.663 Z" fill="#000000" fill-rule="evenodd" fill-opacity="1" /><path clip-path="url(#clip260)" d="M1367.25 753.367 Q1363.64 753.367 1361.81 756.931 Q1360.01 760.473 1360.01 767.603 Q1360.01 774.709 1361.81 778.274 Q1363.64 781.815 1367.25 781.815 Q1370.89 781.815 1372.69 778.274 Q1374.52 774.709 1374.52 767.603 Q1374.52 760.473 1372.69 756.931 Q1370.89 753.367 1367.25 753.367 M1367.25 749.663 Q1373.06 749.663 1376.12 754.269 Q1379.2 758.853 1379.2 767.603 Q1379.2 776.329 1376.12 780.936 Q1373.06 785.519 1367.25 785.519 Q1361.44 785.519 1358.36 780.936 Q1355.31 776.329 1355.31 767.603 Q1355.31 758.853 1358.36 754.269 Q1361.44 749.663 1367.25 749.663 Z" fill="#000000" fill-rule="evenodd" fill-opacity="1" /><path clip-path="url(#clip260)" d="M1812.79 780.913 L1820.43 780.913 L1820.43 754.547 L1812.12 756.214 L1812.12 751.955 L1820.38 750.288 L1825.06 750.288 L1825.06 780.913 L1832.7 780.913 L1832.7 784.848 L1812.79 784.848 L1812.79 780.913 Z" fill="#000000" fill-rule="evenodd" fill-opacity="1" /><path clip-path="url(#clip260)" d="M1842.19 750.288 L1860.55 750.288 L1860.55 754.223 L1846.47 754.223 L1846.47 762.695 Q1847.49 762.348 1848.51 762.186 Q1849.53 762.001 1850.55 762.001 Q1856.33 762.001 1859.71 765.172 Q1863.09 768.343 1863.09 773.76 Q1863.09 779.339 1859.62 782.44 Q1856.15 785.519 1849.83 785.519 Q1847.65 785.519 1845.38 785.149 Q1843.14 784.778 1840.73 784.038 L1840.73 779.339 Q1842.81 780.473 1845.04 781.028 Q1847.26 781.584 1849.74 781.584 Q1853.74 781.584 1856.08 779.478 Q1858.42 777.371 1858.42 773.76 Q1858.42 770.149 1856.08 768.042 Q1853.74 765.936 1849.74 765.936 Q1847.86 765.936 1845.99 766.353 Q1844.13 766.769 1842.19 767.649 L1842.19 750.288 Z" fill="#000000" fill-rule="evenodd" fill-opacity="1" /><path clip-path="url(#clip260)" d="M1882.31 753.367 Q1878.69 753.367 1876.87 756.931 Q1875.06 760.473 1875.06 767.603 Q1875.06 774.709 1876.87 778.274 Q1878.69 781.815 1882.31 781.815 Q1885.94 781.815 1887.74 778.274 Q1889.57 774.709 1889.57 767.603 Q1889.57 760.473 1887.74 756.931 Q1885.94 753.367 1882.31 753.367 M1882.31 749.663 Q1888.12 749.663 1891.17 754.269 Q1894.25 758.853 1894.25 767.603 Q1894.25 776.329 1891.17 780.936 Q1888.12 785.519 1882.31 785.519 Q1876.49 785.519 1873.42 780.936 Q1870.36 776.329 1870.36 767.603 Q1870.36 758.853 1873.42 754.269 Q1876.49 749.663 1882.31 749.663 Z" fill="#000000" fill-rule="evenodd" fill-opacity="1" /><path clip-path="url(#clip260)" d="M1912.47 753.367 Q1908.86 753.367 1907.03 756.931 Q1905.22 760.473 1905.22 767.603 Q1905.22 774.709 1907.03 778.274 Q1908.86 781.815 1912.47 781.815 Q1916.1 781.815 1917.91 778.274 Q1919.74 774.709 1919.74 767.603 Q1919.74 760.473 1917.91 756.931 Q1916.1 753.367 1912.47 753.367 M1912.47 749.663 Q1918.28 749.663 1921.33 754.269 Q1924.41 758.853 1924.41 767.603 Q1924.41 776.329 1921.33 780.936 Q1918.28 785.519 1912.47 785.519 Q1906.66 785.519 1903.58 780.936 Q1900.52 776.329 1900.52 767.603 Q1900.52 758.853 1903.58 754.269 Q1906.66 749.663 1912.47 749.663 Z" fill="#000000" fill-rule="evenodd" fill-opacity="1" /><path clip-path="url(#clip260)" d="M2362.09 780.913 L2378.41 780.913 L2378.41 784.848 L2356.47 784.848 L2356.47 780.913 Q2359.13 778.158 2363.71 773.528 Q2368.32 768.876 2369.5 767.533 Q2371.74 765.01 2372.62 763.274 Q2373.53 761.515 2373.53 759.825 Q2373.53 757.07 2371.58 755.334 Q2369.66 753.598 2366.56 753.598 Q2364.36 753.598 2361.91 754.362 Q2359.47 755.126 2356.7 756.677 L2356.7 751.955 Q2359.52 750.82 2361.97 750.242 Q2364.43 749.663 2366.47 749.663 Q2371.84 749.663 2375.03 752.348 Q2378.22 755.033 2378.22 759.524 Q2378.22 761.654 2377.41 763.575 Q2376.63 765.473 2374.52 768.066 Q2373.94 768.737 2370.84 771.954 Q2367.74 775.149 2362.09 780.913 Z" fill="#000000" fill-rule="evenodd" fill-opacity="1" /><path clip-path="url(#clip260)" d="M2398.22 753.367 Q2394.61 753.367 2392.78 756.931 Q2390.98 760.473 2390.98 767.603 Q2390.98 774.709 2392.78 778.274 Q2394.61 781.815 2398.22 781.815 Q2401.86 781.815 2403.66 778.274 Q2405.49 774.709 2405.49 767.603 Q2405.49 760.473 2403.66 756.931 Q2401.86 753.367 2398.22 753.367 M2398.22 749.663 Q2404.03 749.663 2407.09 754.269 Q2410.17 758.853 2410.17 767.603 Q2410.17 776.329 2407.09 780.936 Q2404.03 785.519 2398.22 785.519 Q2392.41 785.519 2389.34 780.936 Q2386.28 776.329 2386.28 767.603 Q2386.28 758.853 2389.34 754.269 Q2392.41 749.663 2398.22 749.663 Z" fill="#000000" fill-rule="evenodd" fill-opacity="1" /><path clip-path="url(#clip260)" d="M2428.39 753.367 Q2424.78 753.367 2422.95 756.931 Q2421.14 760.473 2421.14 767.603 Q2421.14 774.709 2422.95 778.274 Q2424.78 781.815 2428.39 781.815 Q2432.02 781.815 2433.83 778.274 Q2435.66 774.709 2435.66 767.603 Q2435.66 760.473 2433.83 756.931 Q2432.02 753.367 2428.39 753.367 M2428.39 749.663 Q2434.2 749.663 2437.25 754.269 Q2440.33 758.853 2440.33 767.603 Q2440.33 776.329 2437.25 780.936 Q2434.2 785.519 2428.39 785.519 Q2422.58 785.519 2419.5 780.936 Q2416.44 776.329 2416.44 767.603 Q2416.44 758.853 2419.5 754.269 Q2422.58 749.663 2428.39 749.663 Z" fill="#000000" fill-rule="evenodd" fill-opacity="1" /><path clip-path="url(#clip260)" d="M2458.55 753.367 Q2454.94 753.367 2453.11 756.931 Q2451.3 760.473 2451.3 767.603 Q2451.3 774.709 2453.11 778.274 Q2454.94 781.815 2458.55 781.815 Q2462.18 781.815 2463.99 778.274 Q2465.82 774.709 2465.82 767.603 Q2465.82 760.473 2463.99 756.931 Q2462.18 753.367 2458.55 753.367 M2458.55 749.663 Q2464.36 749.663 2467.41 754.269 Q2470.49 758.853 2470.49 767.603 Q2470.49 776.329 2467.41 780.936 Q2464.36 785.519 2458.55 785.519 Q2452.74 785.519 2449.66 780.936 Q2446.6 776.329 2446.6 767.603 Q2446.6 758.853 2449.66 754.269 Q2452.74 749.663 2458.55 749.663 Z" fill="#000000" fill-rule="evenodd" fill-opacity="1" /><path clip-path="url(#clip260)" d="M2907.3 780.913 L2923.62 780.913 L2923.62 784.848 L2901.68 784.848 L2901.68 780.913 Q2904.34 778.158 2908.92 773.528 Q2913.53 768.876 2914.71 767.533 Q2916.96 765.01 2917.84 763.274 Q2918.74 761.515 2918.74 759.825 Q2918.74 757.07 2916.79 755.334 Q2914.87 753.598 2911.77 753.598 Q2909.57 753.598 2907.12 754.362 Q2904.69 755.126 2901.91 756.677 L2901.91 751.955 Q2904.73 750.82 2907.19 750.242 Q2909.64 749.663 2911.68 749.663 Q2917.05 749.663 2920.24 752.348 Q2923.44 755.033 2923.44 759.524 Q2923.44 761.654 2922.63 763.575 Q2921.84 765.473 2919.73 768.066 Q2919.16 768.737 2916.05 771.954 Q2912.95 775.149 2907.3 780.913 Z" fill="#000000" fill-rule="evenodd" fill-opacity="1" /><path clip-path="url(#clip260)" d="M2933.48 750.288 L2951.84 750.288 L2951.84 754.223 L2937.77 754.223 L2937.77 762.695 Q2938.79 762.348 2939.8 762.186 Q2940.82 762.001 2941.84 762.001 Q2947.63 762.001 2951.01 765.172 Q2954.39 768.343 2954.39 773.76 Q2954.39 779.339 2950.91 782.44 Q2947.44 785.519 2941.12 785.519 Q2938.95 785.519 2936.68 785.149 Q2934.43 784.778 2932.03 784.038 L2932.03 779.339 Q2934.11 780.473 2936.33 781.028 Q2938.55 781.584 2941.03 781.584 Q2945.04 781.584 2947.37 779.478 Q2949.71 777.371 2949.71 773.76 Q2949.71 770.149 2947.37 768.042 Q2945.04 765.936 2941.03 765.936 Q2939.16 765.936 2937.28 766.353 Q2935.43 766.769 2933.48 767.649 L2933.48 750.288 Z" fill="#000000" fill-rule="evenodd" fill-opacity="1" /><path clip-path="url(#clip260)" d="M2973.6 753.367 Q2969.99 753.367 2968.16 756.931 Q2966.35 760.473 2966.35 767.603 Q2966.35 774.709 2968.16 778.274 Q2969.99 781.815 2973.6 781.815 Q2977.23 781.815 2979.04 778.274 Q2980.87 774.709 2980.87 767.603 Q2980.87 760.473 2979.04 756.931 Q2977.23 753.367 2973.6 753.367 M2973.6 749.663 Q2979.41 749.663 2982.47 754.269 Q2985.54 758.853 2985.54 767.603 Q2985.54 776.329 2982.47 780.936 Q2979.41 785.519 2973.6 785.519 Q2967.79 785.519 2964.71 780.936 Q2961.66 776.329 2961.66 767.603 Q2961.66 758.853 2964.71 754.269 Q2967.79 749.663 2973.6 749.663 Z" fill="#000000" fill-rule="evenodd" fill-opacity="1" /><path clip-path="url(#clip260)" d="M3003.76 753.367 Q3000.15 753.367 2998.32 756.931 Q2996.52 760.473 2996.52 767.603 Q2996.52 774.709 2998.32 778.274 Q3000.15 781.815 3003.76 781.815 Q3007.4 781.815 3009.2 778.274 Q3011.03 774.709 3011.03 767.603 Q3011.03 760.473 3009.2 756.931 Q3007.4 753.367 3003.76 753.367 M3003.76 749.663 Q3009.57 749.663 3012.63 754.269 Q3015.71 758.853 3015.71 767.603 Q3015.71 776.329 3012.63 780.936 Q3009.57 785.519 3003.76 785.519 Q2997.95 785.519 2994.87 780.936 Q2991.82 776.329 2991.82 767.603 Q2991.82 758.853 2994.87 754.269 Q2997.95 749.663 3003.76 749.663 Z" fill="#000000" fill-rule="evenodd" fill-opacity="1" /><polyline clip-path="url(#clip262)" style="stroke:#000000; stroke-linecap:round; stroke-linejoin:round; stroke-width:2; stroke-opacity:0.1; fill:none" points="148.696,716.048 3152.76,716.048 "/>
<polyline clip-path="url(#clip262)" style="stroke:#000000; stroke-linecap:round; stroke-linejoin:round; stroke-width:2; stroke-opacity:0.1; fill:none" points="148.696,576.714 3152.76,576.714 "/>
<polyline clip-path="url(#clip262)" style="stroke:#000000; stroke-linecap:round; stroke-linejoin:round; stroke-width:2; stroke-opacity:0.1; fill:none" points="148.696,437.38 3152.76,437.38 "/>
<polyline clip-path="url(#clip262)" style="stroke:#000000; stroke-linecap:round; stroke-linejoin:round; stroke-width:2; stroke-opacity:0.1; fill:none" points="148.696,298.046 3152.76,298.046 "/>
<polyline clip-path="url(#clip262)" style="stroke:#000000; stroke-linecap:round; stroke-linejoin:round; stroke-width:2; stroke-opacity:0.1; fill:none" points="148.696,158.711 3152.76,158.711 "/>
<polyline clip-path="url(#clip260)" style="stroke:#000000; stroke-linecap:round; stroke-linejoin:round; stroke-width:4; stroke-opacity:1; fill:none" points="148.696,716.048 148.696,47.2441 "/>
<polyline clip-path="url(#clip260)" style="stroke:#000000; stroke-linecap:round; stroke-linejoin:round; stroke-width:4; stroke-opacity:1; fill:none" points="148.696,716.048 167.593,716.048 "/>
<polyline clip-path="url(#clip260)" style="stroke:#000000; stroke-linecap:round; stroke-linejoin:round; stroke-width:4; stroke-opacity:1; fill:none" points="148.696,576.714 167.593,576.714 "/>
<polyline clip-path="url(#clip260)" style="stroke:#000000; stroke-linecap:round; stroke-linejoin:round; stroke-width:4; stroke-opacity:1; fill:none" points="148.696,437.38 167.593,437.38 "/>
<polyline clip-path="url(#clip260)" style="stroke:#000000; stroke-linecap:round; stroke-linejoin:round; stroke-width:4; stroke-opacity:1; fill:none" points="148.696,298.046 167.593,298.046 "/>
<polyline clip-path="url(#clip260)" style="stroke:#000000; stroke-linecap:round; stroke-linejoin:round; stroke-width:4; stroke-opacity:1; fill:none" points="148.696,158.711 167.593,158.711 "/>
<path clip-path="url(#clip260)" d="M88.7512 701.847 Q85.1401 701.847 83.3114 705.411 Q81.5058 708.953 81.5058 716.083 Q81.5058 723.189 83.3114 726.754 Q85.1401 730.295 88.7512 730.295 Q92.3854 730.295 94.1909 726.754 Q96.0196 723.189 96.0196 716.083 Q96.0196 708.953 94.1909 705.411 Q92.3854 701.847 88.7512 701.847 M88.7512 698.143 Q94.5613 698.143 97.6169 702.749 Q100.696 707.333 100.696 716.083 Q100.696 724.809 97.6169 729.416 Q94.5613 733.999 88.7512 733.999 Q82.941 733.999 79.8623 729.416 Q76.8068 724.809 76.8068 716.083 Q76.8068 707.333 79.8623 702.749 Q82.941 698.143 88.7512 698.143 Z" fill="#000000" fill-rule="evenodd" fill-opacity="1" /><path clip-path="url(#clip260)" d="M79.7929 559.434 L98.1493 559.434 L98.1493 563.369 L84.0753 563.369 L84.0753 571.841 Q85.0938 571.494 86.1123 571.332 Q87.1308 571.147 88.1493 571.147 Q93.9363 571.147 97.3159 574.318 Q100.696 577.489 100.696 582.906 Q100.696 588.485 97.2233 591.586 Q93.7511 594.665 87.4317 594.665 Q85.2558 594.665 82.9873 594.295 Q80.7419 593.924 78.3346 593.184 L78.3346 588.485 Q80.4179 589.619 82.6401 590.174 Q84.8623 590.73 87.3391 590.73 Q91.3437 590.73 93.6817 588.623 Q96.0196 586.517 96.0196 582.906 Q96.0196 579.295 93.6817 577.188 Q91.3437 575.082 87.3391 575.082 Q85.4641 575.082 83.5892 575.498 Q81.7373 575.915 79.7929 576.795 L79.7929 559.434 Z" fill="#000000" fill-rule="evenodd" fill-opacity="1" /><path clip-path="url(#clip260)" d="M49.3995 450.724 L57.0384 450.724 L57.0384 424.359 L48.7282 426.026 L48.7282 421.766 L56.9921 420.1 L61.668 420.1 L61.668 450.724 L69.3068 450.724 L69.3068 454.66 L49.3995 454.66 L49.3995 450.724 Z" fill="#000000" fill-rule="evenodd" fill-opacity="1" /><path clip-path="url(#clip260)" d="M88.7512 423.178 Q85.1401 423.178 83.3114 426.743 Q81.5058 430.285 81.5058 437.414 Q81.5058 444.521 83.3114 448.086 Q85.1401 451.627 88.7512 451.627 Q92.3854 451.627 94.1909 448.086 Q96.0196 444.521 96.0196 437.414 Q96.0196 430.285 94.1909 426.743 Q92.3854 423.178 88.7512 423.178 M88.7512 419.475 Q94.5613 419.475 97.6169 424.081 Q100.696 428.664 100.696 437.414 Q100.696 446.141 97.6169 450.748 Q94.5613 455.331 88.7512 455.331 Q82.941 455.331 79.8623 450.748 Q76.8068 446.141 76.8068 437.414 Q76.8068 428.664 79.8623 424.081 Q82.941 419.475 88.7512 419.475 Z" fill="#000000" fill-rule="evenodd" fill-opacity="1" /><path clip-path="url(#clip260)" d="M50.3949 311.39 L58.0337 311.39 L58.0337 285.025 L49.7236 286.691 L49.7236 282.432 L57.9874 280.766 L62.6633 280.766 L62.6633 311.39 L70.3022 311.39 L70.3022 315.326 L50.3949 315.326 L50.3949 311.39 Z" fill="#000000" fill-rule="evenodd" fill-opacity="1" /><path clip-path="url(#clip260)" d="M79.7929 280.766 L98.1493 280.766 L98.1493 284.701 L84.0753 284.701 L84.0753 293.173 Q85.0938 292.826 86.1123 292.664 Q87.1308 292.478 88.1493 292.478 Q93.9363 292.478 97.3159 295.65 Q100.696 298.821 100.696 304.238 Q100.696 309.816 97.2233 312.918 Q93.7511 315.997 87.4317 315.997 Q85.2558 315.997 82.9873 315.626 Q80.7419 315.256 78.3346 314.515 L78.3346 309.816 Q80.4179 310.951 82.6401 311.506 Q84.8623 312.062 87.3391 312.062 Q91.3437 312.062 93.6817 309.955 Q96.0196 307.849 96.0196 304.238 Q96.0196 300.627 93.6817 298.52 Q91.3437 296.414 87.3391 296.414 Q85.4641 296.414 83.5892 296.83 Q81.7373 297.247 79.7929 298.127 L79.7929 280.766 Z" fill="#000000" fill-rule="evenodd" fill-opacity="1" /><path clip-path="url(#clip260)" d="M52.6171 172.056 L68.9365 172.056 L68.9365 175.991 L46.9921 175.991 L46.9921 172.056 Q49.6541 169.302 54.2375 164.672 Q58.8439 160.019 60.0245 158.677 Q62.2698 156.154 63.1494 154.417 Q64.0522 152.658 64.0522 150.968 Q64.0522 148.214 62.1078 146.478 Q60.1865 144.742 57.0847 144.742 Q54.8856 144.742 52.4319 145.505 Q50.0014 146.269 47.2236 147.82 L47.2236 143.098 Q50.0477 141.964 52.5014 141.385 Q54.955 140.806 56.9921 140.806 Q62.3624 140.806 65.5568 143.492 Q68.7513 146.177 68.7513 150.667 Q68.7513 152.797 67.9411 154.718 Q67.1541 156.616 65.0476 159.209 Q64.4689 159.88 61.367 163.098 Q58.2652 166.292 52.6171 172.056 Z" fill="#000000" fill-rule="evenodd" fill-opacity="1" /><path clip-path="url(#clip260)" d="M88.7512 144.51 Q85.1401 144.51 83.3114 148.075 Q81.5058 151.617 81.5058 158.746 Q81.5058 165.853 83.3114 169.417 Q85.1401 172.959 88.7512 172.959 Q92.3854 172.959 94.1909 169.417 Q96.0196 165.853 96.0196 158.746 Q96.0196 151.617 94.1909 148.075 Q92.3854 144.51 88.7512 144.51 M88.7512 140.806 Q94.5613 140.806 97.6169 145.413 Q100.696 149.996 100.696 158.746 Q100.696 167.473 97.6169 172.079 Q94.5613 176.663 88.7512 176.663 Q82.941 176.663 79.8623 172.079 Q76.8068 167.473 76.8068 158.746 Q76.8068 149.996 79.8623 145.413 Q82.941 140.806 88.7512 140.806 Z" fill="#000000" fill-rule="evenodd" fill-opacity="1" /><polyline clip-path="url(#clip262)" style="stroke:#009af9; stroke-linecap:round; stroke-linejoin:round; stroke-width:2; stroke-opacity:1; fill:none" points="233.716,225.649 234.807,146.974 235.897,104.007 236.987,138.24 238.078,162.286 239.168,94.7994 240.259,75.321 241.349,190.323 242.44,101.748 243.53,95.09 244.62,101.827 245.711,112.323 246.801,93.575 247.892,84.1795 248.982,135.278 250.073,122.926 251.163,147.046 252.253,151.828 253.344,218.618 254.434,195.073 255.525,110.088 256.615,105.188 257.706,223.075 258.796,98.0146 259.886,177.493 260.977,186.467 262.067,518.757 263.158,442.798 264.248,478.685 265.338,492.714 266.429,593.017 267.519,493.035 268.61,468.455 269.7,434.3 270.791,447.681 271.881,568.906 272.971,564.336 274.062,492.143 275.152,551.038 276.243,490.3 277.333,378.064 278.424,368.964 279.514,332.043 280.604,415.726 281.695,335.212 282.785,363.765 283.876,331.515 284.966,372.434 286.057,311.07 287.147,339.571 288.237,353.815 289.328,332.09 290.418,174.638 291.509,158.541 292.599,226.419 293.69,159.184 294.78,209.912 295.87,129.462 296.961,188.389 298.051,85.4232 299.142,177.667 300.232,150.279 301.323,141.778 302.413,154.345 303.503,158.38 304.594,167.434 305.684,114.704 306.775,229.437 307.865,95.3261 308.956,164.309 310.046,186.816 311.136,97.8552 312.227,102.915 313.317,124.76 314.408,119.109 315.498,150.057 316.589,101.104 317.679,116.119 318.769,118.167 319.86,205.587 320.95,155.194 322.041,150.233 323.131,182.548 324.222,166.868 325.312,119.946 326.402,181.764 327.493,154.629 328.583,193.097 329.674,107.156 330.764,199.142 331.855,123.069 332.945,203.837 334.035,109.057 335.126,203.932 336.216,108.861 337.307,201.706 338.397,138.216 339.488,157.302 340.578,135.779 341.668,216.36 342.759,109.504 343.849,177 344.94,174.552 346.03,162.315 347.121,384.117 348.211,336.186 349.301,372.158 350.392,273.017 351.482,396.819 352.573,366.478 353.663,378.343 354.753,279.4 355.844,343.646 356.934,383.336 358.025,435.252 359.115,546.088 360.206,365.414 361.296,459.271 362.386,340.817 363.477,368.908 364.567,283.929 365.658,431.677 366.748,328.415 367.839,425.822 368.929,324.464 370.019,414.094 371.11,328.111 372.2,409.596 373.291,478.532 374.381,483.819 375.472,342.965 376.562,358.237 377.652,332.785 378.743,303.291 379.833,407.549 380.924,312.594 382.014,366.33 383.105,308.774 384.195,298.772 385.285,322.435 386.376,332.153 387.466,417.835 388.557,302.362 389.647,338.266 390.738,362.161 391.828,473.272 392.918,473.693 394.009,464.297 395.099,381.969 396.19,407.218 397.28,473.771 398.371,415.989 399.461,312.083 400.551,308.638 401.642,460.794 402.732,446.776 403.823,420.65 404.913,494.231 406.004,431.761 407.094,502.86 408.184,479.941 409.275,386.556 410.365,329.639 411.456,397.58 412.546,319.455 413.637,573.466 414.727,570.152 415.817,547.194 416.908,296.558 417.998,311.831 419.089,363.82 420.179,349.985 421.27,316.97 422.36,355.406 423.45,533.698 424.541,544.402 425.631,541.299 426.722,477.849 427.812,442.558 428.903,592.003 429.993,596.446 431.083,478.426 432.174,150.238 433.264,153.009 434.355,105.462 435.445,158.042 436.536,217.097 437.626,199.203 438.716,224.631 439.807,175.151 440.897,107.179 441.988,153.458 443.078,206.131 444.168,88.6101 445.259,234.34 446.349,182.949 447.44,149.923 448.53,153.772 449.621,203.984 450.711,201.474 451.801,159.046 452.892,207.89 453.982,116.335 455.073,213.231 456.163,88.6854 457.254,171.176 458.344,144.089 459.434,217.124 460.525,299.588 461.615,324.047 462.706,528.268 463.796,502.566 464.887,601.671 465.977,602.841 467.067,626.083 468.158,567.479 469.248,474.265 470.339,334.543 471.429,308.809 472.52,400.627 473.61,271.962 474.7,346.361 475.791,417.749 476.881,346.384 477.972,282.297 479.062,75.0303 480.153,227.158 481.243,135.835 482.333,185.111 483.424,120.716 484.514,194.485 485.605,79.885 486.695,169.177 487.786,224.162 488.876,227.037 489.966,134.299 491.057,157.553 492.147,176.002 493.238,124.802 494.328,196.615 495.419,117.37 496.509,153.231 497.599,175.833 498.69,182.897 499.78,199.633 500.871,167.079 501.961,182.173 503.052,156.198 504.142,220.431 505.232,119.164 506.323,221.704 507.413,123.786 508.504,213.536 509.594,157.776 510.685,101.978 511.775,227.675 512.865,85.3607 513.956,240.895 515.046,67.8503 516.137,136.767 517.227,135.374 518.318,170.238 519.408,132.678 520.498,139.102 521.589,176.506 522.679,168.63 523.77,150.205 524.86,163.229 525.95,138.698 527.041,187.677 528.131,173.535 529.222,140.703 530.312,198.339 531.403,96.3806 532.493,210.1 533.583,130.226 534.674,155.398 535.764,179.552 536.855,160.086 537.945,162.029 539.036,173.53 540.126,121.075 541.216,112.164 542.307,158.47 543.397,165.508 544.488,91.653 545.578,151.572 546.669,113.747 547.759,117.926 548.849,196.192 549.94,163.005 551.03,132.554 552.121,203.532 553.211,152.074 554.302,213.895 555.392,98 556.482,193.65 557.573,120.864 558.663,122.285 559.754,238.12 560.844,137.112 561.935,176.674 563.025,122.746 564.115,167 565.206,145.692 566.296,162.519 567.387,140.741 568.477,219.275 569.568,108.344 570.658,138.276 571.748,144.439 572.839,91.481 573.929,419.966 575.02,450.78 576.11,387.514 577.201,407.601 578.291,339.247 579.381,366.685 580.472,454.361 581.562,403.926 582.653,466.034 583.743,493.373 584.834,469.62 585.924,413.064 587.014,431.703 588.105,455.622 589.195,543.224 590.286,474.856 591.376,409.428 592.467,512.085 593.557,358.258 594.647,329.764 595.738,341.451 596.828,300.312 597.919,404.329 599.009,427.425 600.1,464.509 601.19,448.122 602.28,299.263 603.371,410.041 604.461,437.911 605.552,492.371 606.642,494.397 607.733,598.064 608.823,548.868 609.913,563.288 611.004,436.836 612.094,537.091 613.185,483.237 614.275,562.383 615.365,545.183 616.456,602.279 617.546,519.927 618.637,328.633 619.727,359.842 620.818,316.817 621.908,327.004 622.998,400.917 624.089,306.1 625.179,494.685 626.27,568.433 627.36,463.719 628.451,544.314 629.541,500.396 630.631,478.963 631.722,460.876 632.812,372.319 633.903,368.981 634.993,295.853 636.084,360.929 637.174,329.61 638.264,515.956 639.355,569.444 640.445,577.075 641.536,470.333 642.626,370.936 643.717,449.606 644.807,487.002 645.897,368.393 646.988,470.091 648.078,559.888 649.169,396.856 650.259,299.155 651.35,390.703 652.44,370.91 653.53,343.638 654.621,438.06 655.711,577.014 656.802,611.829 657.892,560.88 658.983,97.0692 660.073,194.368 661.163,159.236 662.254,217.598 663.344,172.266 664.435,169.26 665.525,159.399 666.616,210.895 667.706,142.218 668.796,146.74 669.887,204.613 670.977,137.889 672.068,109.203 673.158,130.71 674.249,180.558 675.339,211.421 676.429,144.383 677.52,226.802 678.61,98.671 679.701,217.14 680.791,162.144 681.882,129.458 682.972,192.07 684.062,107.24 685.153,191.435 686.243,121.608 687.334,166.921 688.424,173.464 689.515,210.794 690.605,75.1542 691.695,185.51 692.786,197.298 693.876,149.759 694.967,229.389 696.057,188.205 697.148,136.017 698.238,197.174 699.328,200.281 700.419,166.817 701.509,229.758 702.6,78.2319 703.69,173.39 704.78,94.369 705.871,106.395 706.961,147.768 708.052,104.072 709.142,186.092 710.233,127.308 711.323,209.068 712.413,106.877 713.504,107.642 714.594,103.143 715.685,170.006 716.775,161.561 717.866,223.45 718.956,83.5694 720.046,208.889 721.137,168.286 722.227,169.608 723.318,139.694 724.408,222.561 725.499,97.1284 726.589,152.157 727.679,153.802 728.77,154.898 729.86,105.728 730.951,127.42 732.041,115.976 733.132,111.183 734.222,124.486 735.312,156.659 736.403,136.717 737.493,190.918 738.584,167.76 739.674,192.16 740.765,115.734 741.855,191.935 742.945,94.993 744.036,472.755 745.126,478.926 746.217,403.304 747.307,467.339 748.398,431.281 749.488,434.559 750.578,391.01 751.669,435.071 752.759,300.415 753.85,394.123 754.94,302.33 756.031,401.854 757.121,531.456 758.211,604.745 759.302,510.293 760.392,573.485 761.483,447.611 762.573,442.728 763.664,540.012 764.754,464.255 765.844,579.822 766.935,534.63 768.025,575.687 769.116,524.764 770.206,581.212 771.297,508.208 772.387,104.348 773.477,197.011 774.568,111.32 775.658,137.132 776.749,90.692 777.839,157.043 778.93,162.315 780.02,81.8887 781.11,197.383 782.201,211.576 783.291,84.4259 784.382,184.217 785.472,199.766 786.562,206.726 787.653,193.717 788.743,134.875 789.834,91.356 790.924,124.339 792.015,110.421 793.105,228.237 794.195,162 795.286,127.319 796.376,153.229 797.467,143.438 798.557,81.0064 799.648,162.766 800.738,355.271 801.828,365.258 802.919,530.289 804.009,585.31 805.1,478.44 806.19,508.83 807.281,464.027 808.371,394.719 809.461,537.288 810.552,380.041 811.642,464.738 812.733,348.755 813.823,356.882 814.914,366.109 816.004,338.315 817.094,396.052 818.185,328.738 819.275,351.391 820.366,353.872 821.456,354.202 822.547,404.511 823.637,430.664 824.727,424.177 825.818,425.44 826.908,427.567 827.999,413.662 829.089,160.367 830.18,120.826 831.27,161.896 832.36,131.845 833.451,181.379 834.541,127.239 835.632,172.748 836.722,165.177 837.813,163.209 838.903,170.781 839.993,158.01 841.084,161.396 842.174,155.19 843.265,186.111 844.355,136.155 845.446,189.546 846.536,136.099 847.626,201.6 848.717,157.483 849.807,178.129 850.898,149.456 851.988,154.932 853.079,173.333 854.169,156.636 855.259,169.542 856.35,148.52 857.44,144.148 858.531,200.858 859.621,134.759 860.712,106.948 861.802,154.974 862.892,149.085 863.983,159.571 865.073,161.578 866.164,140.922 867.254,146.836 868.345,133.961 869.435,149.744 870.525,175.679 871.616,184.024 872.706,157.455 873.797,218.061 874.887,121.843 875.977,127.218 877.068,98.7678 878.158,174.736 879.249,173.751 880.339,181.864 881.43,169.906 882.52,175.076 883.61,180.585 884.701,183.585 885.791,178.964 886.882,200.975 887.972,103.504 889.063,152.611 890.153,172.502 891.243,183.939 892.334,167.6 893.424,140.214 894.515,177.877 895.605,149.894 896.696,218.012 897.786,146.271 898.876,217.674 899.967,138.294 901.057,161.163 902.148,135.437 903.238,155.036 904.329,186.532 905.419,191.235 906.509,130.116 907.6,230.808 908.69,131.056 909.781,190.753 910.871,129.969 911.962,229.067 913.052,136.346 914.142,178.304 915.233,122.307 916.323,168.777 917.414,158.012 918.504,67.5374 919.595,177.774 920.685,128.056 921.775,157.55 922.866,139.479 923.956,185.173 925.047,123.292 926.137,178.846 927.228,118.065 928.318,181.831 929.408,117.026 930.499,181.575 931.589,115.868 932.68,178.355 933.77,126.229 934.861,156.15 935.951,153.946 937.041,164.435 938.132,152.198 939.222,159.028 940.313,175.833 941.403,144.055 942.494,404.053 943.584,405.038 944.674,272.899 945.765,419.13 946.855,323.201 947.946,462.665 949.036,471.743 950.127,446.371 951.217,368.483 952.307,346.312 953.398,432.576 954.488,524.551 955.579,566.963 956.669,516.753 957.76,508.368 958.85,505.327 959.94,594.451 961.031,445.678 962.121,315.497 963.212,302.728 964.302,334.281 965.392,290.144 966.483,321.872 967.573,340.634 968.664,454.245 969.754,367.962 970.845,377.596 971.935,470.37 973.025,511.324 974.116,414.03 975.206,527.689 976.297,500.615 977.387,605.039 978.478,583.017 979.568,552.481 980.658,585.065 981.749,553.889 982.839,520.174 983.93,516.509 985.02,628.798 986.111,527.954 987.201,573.49 988.291,589.63 989.382,577.486 990.472,457.195 991.563,416.463 992.653,324.958 993.744,373.751 994.834,306.33 995.924,417.675 997.015,355.867 998.105,335.864 999.196,555.557 1000.29,518.142 1001.38,559.786 1002.47,583.712 1003.56,496.732 1004.65,462.302 1005.74,439.789 1006.83,277.541 1007.92,384.748 1009.01,513.499 1010.1,509.533 1011.19,528.434 1012.28,592.431 1013.37,530.444 1014.46,499.03 1015.55,481.557 1016.64,456.967 1017.73,308.314 1018.82,410.967 1019.91,293.403 1021,367.033 1022.09,313.326 1023.19,309.881 1024.28,376.705 1025.37,301.81 1026.46,387.988 1027.55,143.64 1028.64,148.052 1029.73,135.58 1030.82,161.543 1031.91,165.693 1033,173.432 1034.09,165.132 1035.18,149.12 1036.27,148.712 1037.36,118.982 1038.45,154.788 1039.54,147.391 1040.63,201.308 1041.72,127.68 1042.81,208.41 1043.9,124.939 1044.99,209.391 1046.08,124.604 1047.17,209.387 1048.26,125.919 1049.36,224.056 1050.45,125.857 1051.54,223.371 1052.63,140.685 1053.72,199.884 1054.81,125.411 1055.9,116.209 1056.99,101.257 1058.08,163.558 1059.17,90.3504 1060.26,92.4722 1061.35,104.527 1062.44,208.734 1063.53,196.327 1064.62,191.444 1065.71,143.607 1066.8,124.534 1067.89,112.897 1068.98,129.047 1070.07,172.297 1071.16,132.966 1072.25,93.9248 1073.34,235.551 1074.44,110.607 1075.53,201.321 1076.62,179.098 1077.71,213.6 1078.8,96.6418 1079.89,230.387 1080.98,192.088 1082.07,96.0778 1083.16,125.966 1084.25,165.506 1085.34,138.166 1086.43,175 1087.52,146.45 1088.61,173.379 1089.7,146.539 1090.79,172.988 1091.88,148.233 1092.97,171.104 1094.06,150.239 1095.15,165.841 1096.24,149.049 1097.33,172.504 1098.42,153.335 1099.51,175.324 1100.61,150.346 1101.7,148.224 1102.79,168.999 1103.88,134.766 1104.97,187.589 1106.06,169.437 1107.15,155.464 1108.24,161.979 1109.33,150.909 1110.42,173.062 1111.51,149.9 1112.6,197.49 1113.69,136.172 1114.78,210.45 1115.87,205.376 1116.96,192.59 1118.05,170.189 1119.14,228.765 1120.23,136.951 1121.32,133.556 1122.41,210.709 1123.5,84.9623 1124.59,185.686 1125.69,210.045 1126.78,194.5 1127.87,191.166 1128.96,200.226 1130.05,169.97 1131.14,115.08 1132.23,135.115 1133.32,116.738 1134.41,128.468 1135.5,143.971 1136.59,122.972 1137.68,108.784 1138.77,146.362 1139.86,170.265 1140.95,284.674 1142.04,342.45 1143.13,308.524 1144.22,360.461 1145.31,397.577 1146.4,430.624 1147.49,430.322 1148.58,568.933 1149.67,348.141 1150.77,309.279 1151.86,396.608 1152.95,349.602 1154.04,315.047 1155.13,308.156 1156.22,287.015 1157.31,326.249 1158.4,426.009 1159.49,425.525 1160.58,456 1161.67,409.465 1162.76,495.028 1163.85,477.818 1164.94,543.319 1166.03,562.555 1167.12,494.843 1168.21,512.91 1169.3,127.847 1170.39,163.175 1171.48,180.335 1172.57,115.026 1173.66,89.0162 1174.75,185.242 1175.84,232.604 1176.94,102.699 1178.03,141.234 1179.12,228.224 1180.21,162.374 1181.3,118.965 1182.39,228.856 1183.48,112.318 1184.57,124.106 1185.66,130.524 1186.75,113.778 1187.84,101.895 1188.93,188.006 1190.02,126.875 1191.11,139.702 1192.2,182.503 1193.29,225.604 1194.38,78.3038 1195.47,125.564 1196.56,180.26 1197.65,235.446 1198.74,163.649 1199.83,91.6365 1200.92,135.874 1202.02,85.3148 1203.11,155.209 1204.2,232.291 1205.29,139.189 1206.38,157.655 1207.47,198.207 1208.56,147.002 1209.65,208.032 1210.74,114.78 1211.83,156.011 1212.92,112.139 1214.01,204.262 1215.1,75.6682 1216.19,195.884 1217.28,167.705 1218.37,194.47 1219.46,206.59 1220.55,132.881 1221.64,156.639 1222.73,133.413 1223.82,144.216 1224.91,83.9439 1226,361.726 1227.09,329.208 1228.19,392.496 1229.28,360.595 1230.37,332.361 1231.46,380.68 1232.55,447.923 1233.64,371.489 1234.73,292.993 1235.82,374.177 1236.91,412.844 1238,339.317 1239.09,317.47 1240.18,310.746 1241.27,322.542 1242.36,320.61 1243.45,387.665 1244.54,311.347 1245.63,298.776 1246.72,414.828 1247.81,300.844 1248.9,342.633 1249.99,329.417 1251.08,393.54 1252.17,297.423 1253.27,384.351 1254.36,361.461 1255.45,345.327 1256.54,340.875 1257.63,372.28 1258.72,345.196 1259.81,367.859 1260.9,341.101 1261.99,413.117 1263.08,543.164 1264.17,554.307 1265.26,548.307 1266.35,532.956 1267.44,535.596 1268.53,433.904 1269.62,470.577 1270.71,518.416 1271.8,542.347 1272.89,561.577 1273.98,411.89 1275.07,508.082 1276.16,572.34 1277.25,484.874 1278.34,530.158 1279.44,371.53 1280.53,385.318 1281.62,386.736 1282.71,91.3999 1283.8,112.11 1284.89,130.966 1285.98,142.452 1287.07,170.87 1288.16,167.145 1289.25,96.8632 1290.34,171.631 1291.43,143.473 1292.52,179.686 1293.61,181.599 1294.7,184.706 1295.79,175.759 1296.88,203.778 1297.97,109.249 1299.06,237.508 1300.15,105.062 1301.24,140.176 1302.33,201.606 1303.42,162.097 1304.52,213.346 1305.61,147.332 1306.7,181.735 1307.79,132.459 1308.88,139.738 1309.97,157.963 1311.06,80.7731 1312.15,157.984 1313.24,136.14 1314.33,194.561 1315.42,119.576 1316.51,141.658 1317.6,89.7713 1318.69,236.622 1319.78,150.769 1320.87,168.717 1321.96,88.2912 1323.05,152.281 1324.14,235.931 1325.23,141.975 1326.32,228.356 1327.41,97.6925 1328.5,206.721 1329.6,143.602 1330.69,191.581 1331.78,144.142 1332.87,207.91 1333.96,196.409 1335.05,188.965 1336.14,209.382 1337.23,192.083 1338.32,167.056 1339.41,362.326 1340.5,432.967 1341.59,359.737 1342.68,304.77 1343.77,415.617 1344.86,521.039 1345.95,519.812 1347.04,458.254 1348.13,531.006 1349.22,484.728 1350.31,578.388 1351.4,504.939 1352.49,411.652 1353.58,402.913 1354.67,318.354 1355.77,343.805 1356.86,366.007 1357.95,552.465 1359.04,499.084 1360.13,603.211 1361.22,453.92 1362.31,605.057 1363.4,551.905 1364.49,492.834 1365.58,505.046 1366.67,398.469 1367.76,177.209 1368.85,159.591 1369.94,173.77 1371.03,139.43 1372.12,149.612 1373.21,130.441 1374.3,158.13 1375.39,163.265 1376.48,124.059 1377.57,186.662 1378.66,143.06 1379.75,186.919 1380.85,143.944 1381.94,182.998 1383.03,178.651 1384.12,172.167 1385.21,162.136 1386.3,152.479 1387.39,173.006 1388.48,141.771 1389.57,176.119 1390.66,142.229 1391.75,176.194 1392.84,142.658 1393.93,169.842 1395.02,215.359 1396.11,142.469 1397.2,142.62 1398.29,142.844 1399.38,140.79 1400.47,141.775 1401.56,141.069 1402.65,141.658 1403.74,140.843 1404.83,141.864 1405.92,140.193 1407.02,141.261 1408.11,140.244 1409.2,141.444 1410.29,140.347 1411.38,141.868 1412.47,140.551 1413.56,141.44 1414.65,140.438 1415.74,141.572 1416.83,144.394 1417.92,149.498 1419.01,146.015 1420.1,150.252 1421.19,147.321 1422.28,146.365 1423.37,145.607 1424.46,167.932 1425.55,119.637 1426.64,221.349 1427.73,140.886 1428.82,190.374 1429.91,86.2586 1431,155.716 1432.1,203.689 1433.19,135.059 1434.28,182.145 1435.37,145.307 1436.46,145.716 1437.55,88.663 1438.64,213.753 1439.73,80.9338 1440.82,239.675 1441.91,102.292 1443,176.82 1444.09,183.525 1445.18,219 1446.27,204.049 1447.36,89.7458 1448.45,233.822 1449.54,141.295 1450.63,232.35 1451.72,191.016 1452.81,544.678 1453.9,427.525 1454.99,302.462 1456.08,345.025 1457.17,357.234 1458.27,279.044 1459.36,429.398 1460.45,275.322 1461.54,294.049 1462.63,381.829 1463.72,331.96 1464.81,348.464 1465.9,318.18 1466.99,484.704 1468.08,514.437 1469.17,615.275 1470.26,542.532 1471.35,562.876 1472.44,260.407 1473.53,436.118 1474.62,491.029 1475.71,353.784 1476.8,323.684 1477.89,303.641 1478.98,343.471 1480.07,277.355 1481.16,362.896 1482.25,402.286 1483.35,396.11 1484.44,352.812 1485.53,335.733 1486.62,299.93 1487.71,324.72 1488.8,407.068 1489.89,463.391 1490.98,466.832 1492.07,535.735 1493.16,518.399 1494.25,456.372 1495.34,273.832 1496.43,346.751 1497.52,311.746 1498.61,451.744 1499.7,457.828 1500.79,464.446 1501.88,425.847 1502.97,295.136 1504.06,372.577 1505.15,282.464 1506.24,336.194 1507.33,411.837 1508.43,400.168 1509.52,146.609 1510.61,94.6227 1511.7,155.161 1512.79,186.493 1513.88,201.567 1514.97,66.9451 1516.06,240.776 1517.15,167.983 1518.24,192.743 1519.33,176.162 1520.42,124.736 1521.51,214.312 1522.6,119.738 1523.69,138.796 1524.78,165.823 1525.87,184.897 1526.96,124.153 1528.05,143.251 1529.14,77.7781 1530.23,188.598 1531.32,200.27 1532.41,197.071 1533.5,195.351 1534.6,112.415 1535.69,219.883 1536.78,175.47 1537.87,456.001 1538.96,412.157 1540.05,469.337 1541.14,462.425 1542.23,477.325 1543.32,534.323 1544.41,450.005 1545.5,500.441 1546.59,394.859 1547.68,305.629 1548.77,324.972 1549.86,350.843 1550.95,487.507 1552.04,416.778 1553.13,546.118 1554.22,527.411 1555.31,502.919 1556.4,403.044 1557.49,528.621 1558.58,371.571 1559.68,356.291 1560.77,355.674 1561.86,514.025 1562.95,555.497 1564.04,560.936 1565.13,550.532 1566.22,385.439 1567.31,350.342 1568.4,333.127 1569.49,370.081 1570.58,356.437 1571.67,510.06 1572.76,583.776 1573.85,479.3 1574.94,440.628 1576.03,307.765 1577.12,309.459 1578.21,357.429 1579.3,386.926 1580.39,396.962 1581.48,489.491 1582.57,609.481 1583.66,504.498 1584.75,488.883 1585.85,376.033 1586.94,322.44 1588.03,360.822 1589.12,399.294 1590.21,316.761 1591.3,308.033 1592.39,356.375 1593.48,519.176 1594.57,90.1585 1595.66,157.191 1596.75,117.18 1597.84,136.821 1598.93,169.255 1600.02,104.642 1601.11,104.864 1602.2,99.302 1603.29,189.261 1604.38,89.1369 1605.47,179.849 1606.56,172.528 1607.65,190.859 1608.74,178.788 1609.83,104.553 1610.93,232.464 1612.02,113.192 1613.11,229.791 1614.2,93.7035 1615.29,206.055 1616.38,131.369 1617.47,221.491 1618.56,109.468 1619.65,214.833 1620.74,127.681 1621.83,192.881 1622.92,148.782 1624.01,178.646 1625.1,178.915 1626.19,134.854 1627.28,134.246 1628.37,180.07 1629.46,161.866 1630.55,179.569 1631.64,151.609 1632.73,99.1745 1633.82,195.181 1634.91,89.3621 1636,190.907 1637.1,100.546 1638.19,182.212 1639.28,109.269 1640.37,124.606 1641.46,222.551 1642.55,196.63 1643.64,175.067 1644.73,156.371 1645.82,175.11 1646.91,193.756 1648,201.414 1649.09,200.302 1650.18,170.825 1651.27,409.875 1652.36,398.309 1653.45,348.135 1654.54,340.464 1655.63,434.894 1656.72,547.901 1657.81,466.598 1658.9,419.098 1659.99,353.845 1661.08,421.909 1662.18,476.489 1663.27,458.735 1664.36,372.224 1665.45,331.88 1666.54,432.423 1667.63,355.025 1668.72,292.605 1669.81,334.348 1670.9,295.417 1671.99,345.542 1673.08,319.734 1674.17,381.072 1675.26,336.347 1676.35,303.287 1677.44,352.156 1678.53,349.948 1679.62,439.309 1680.71,445.325 1681.8,437.775 1682.89,433.254 1683.98,351.866 1685.07,284.463 1686.16,297.719 1687.26,378.446 1688.35,315.838 1689.44,310.508 1690.53,353.594 1691.62,479.668 1692.71,557.344 1693.8,519.022 1694.89,474.545 1695.98,442.357 1697.07,460.292 1698.16,450.047 1699.25,534.081 1700.34,502.337 1701.43,485.297 1702.52,480.378 1703.61,378.951 1704.7,502.637 1705.79,475.992 1706.88,404.873 1707.97,500.214 1709.06,591.759 1710.15,452.962 1711.24,515.423 1712.33,531.643 1713.43,549.976 1714.52,421.347 1715.61,495.241 1716.7,516.441 1717.79,529.201 1718.88,539.607 1719.97,501.408 1721.06,454.183 1722.15,305.953 1723.24,318.107 1724.33,375.977 1725.42,328.159 1726.51,342.156 1727.6,364.96 1728.69,347.898 1729.78,358.837 1730.87,347.722 1731.96,349.102 1733.05,362.886 1734.14,434.651 1735.23,420.52 1736.32,233.247 1737.41,216.806 1738.51,106.803 1739.6,112.184 1740.69,131.45 1741.78,170.368 1742.87,87.7835 1743.96,134.136 1745.05,198.277 1746.14,147.421 1747.23,110.839 1748.32,112.647 1749.41,95.7903 1750.5,140.01 1751.59,89.4528 1752.68,163.922 1753.77,164.982 1754.86,176.152 1755.95,224.204 1757.04,185.806 1758.13,126.187 1759.22,122.236 1760.31,115.593 1761.4,129.764 1762.49,101.678 1763.58,159.587 1764.68,153.12 1765.77,167.982 1766.86,158.295 1767.95,190.808 1769.04,129.084 1770.13,141.3 1771.22,98.0277 1772.31,128.49 1773.4,132.473 1774.49,179.705 1775.58,147.47 1776.67,145.2 1777.76,200.859 1778.85,149.881 1779.94,169.282 1781.03,218.157 1782.12,175.552 1783.21,179.099 1784.3,188.736 1785.39,183.189 1786.48,138.056 1787.57,140.821 1788.66,170.934 1789.76,140.664 1790.85,219.556 1791.94,118.309 1793.03,353.907 1794.12,390.506 1795.21,300.455 1796.3,353.618 1797.39,567.177 1798.48,388.352 1799.57,452.91 1800.66,354.474 1801.75,350.829 1802.84,347.007 1803.93,358.753 1805.02,344.897 1806.11,371.051 1807.2,329.483 1808.29,378.299 1809.38,402.911 1810.47,299.913 1811.56,417.365 1812.65,305.297 1813.74,418.673 1814.83,298.164 1815.93,413.867 1817.02,342.511 1818.11,346.071 1819.2,324.67 1820.29,345.195 1821.38,105.181 1822.47,162.368 1823.56,173.819 1824.65,201.944 1825.74,187.274 1826.83,227.288 1827.92,202.338 1829.01,80.2143 1830.1,217.683 1831.19,130.948 1832.28,195.02 1833.37,170.744 1834.46,153.804 1835.55,121.932 1836.64,158.089 1837.73,208.712 1838.82,94.1496 1839.91,142.797 1841.01,112.137 1842.1,192.557 1843.19,221.965 1844.28,189.415 1845.37,131.48 1846.46,144.153 1847.55,94.3798 1848.64,231.359 1849.73,158.845 1850.82,158.675 1851.91,158.733 1853,158.555 1854.09,158.596 1855.18,158.507 1856.27,147.37 1857.36,166.672 1858.45,153.7 1859.54,163.215 1860.63,153.617 1861.72,163.612 1862.81,149.423 1863.9,205.109 1864.99,144.631 1866.09,166.993 1867.18,139.725 1868.27,171.153 1869.36,143.063 1870.45,180.893 1871.54,148.629 1872.63,182.898 1873.72,147.421 1874.81,181.039 1875.9,148.685 1876.99,174.481 1878.08,487.588 1879.17,428.905 1880.26,481.455 1881.35,402.336 1882.44,472.688 1883.53,528.033 1884.62,387.4 1885.71,333.122 1886.8,413.686 1887.89,333.764 1888.98,479.93 1890.07,579.835 1891.16,480.837 1892.26,413.7 1893.35,425.056 1894.44,331.154 1895.53,398.389 1896.62,297.926 1897.71,354.321 1898.8,330.813 1899.89,587.372 1900.98,407.324 1902.07,494.607 1903.16,346.576 1904.25,356.198 1905.34,354.566 1906.43,376.099 1907.52,335.375 1908.61,350.499 1909.7,326.952 1910.79,446.622 1911.88,440.802 1912.97,540.441 1914.06,463.224 1915.15,382.155 1916.24,386.766 1917.34,298.224 1918.43,347.852 1919.52,285.454 1920.61,300.817 1921.7,277.88 1922.79,365.869 1923.88,281.254 1924.97,330.056 1926.06,317.252 1927.15,383.247 1928.24,476.019 1929.33,555.505 1930.42,474.551 1931.51,526.975 1932.6,456.345 1933.69,599.822 1934.78,405.858 1935.87,579.258 1936.96,351.893 1938.05,418.554 1939.14,508.893 1940.23,429.527 1941.32,411.28 1942.41,374.784 1943.51,353.313 1944.6,409.549 1945.69,375.539 1946.78,427.408 1947.87,486.074 1948.96,363.346 1950.05,277.253 1951.14,347.368 1952.23,276.991 1953.32,343.383 1954.41,288.139 1955.5,308.865 1956.59,286.178 1957.68,360.901 1958.77,378.46 1959.86,289.717 1960.95,388.489 1962.04,395.159 1963.13,134.637 1964.22,149.368 1965.31,167.225 1966.4,142.757 1967.49,174.572 1968.59,141.661 1969.68,170.712 1970.77,145.275 1971.86,171.721 1972.95,140.249 1974.04,169.402 1975.13,164.204 1976.22,160.818 1977.31,150.749 1978.4,174.649 1979.49,128.573 1980.58,175.278 1981.67,146.022 1982.76,190.757 1983.85,132.894 1984.94,166.105 1986.03,143.966 1987.12,163.403 1988.21,146.23 1989.3,140.395 1990.39,143.229 1991.48,148.654 1992.57,166.896 1993.66,152.508 1994.76,129.287 1995.85,160.441 1996.94,167.555 1998.03,143.922 1999.12,160.077 2000.21,111.574 2001.3,172.232 2002.39,92.7775 2003.48,176.008 2004.57,139.47 2005.66,143.968 2006.75,164.843 2007.84,169.597 2008.93,157.269 2010.02,171.268 2011.11,138.216 2012.2,178.82 2013.29,145.76 2014.38,164.598 2015.47,153.961 2016.56,170.934 2017.65,160.128 2018.74,150.831 2019.84,125.962 2020.93,138.573 2022.02,102.12 2023.11,88.9277 2024.2,177.754 2025.29,81.3678 2026.38,124.712 2027.47,154.037 2028.56,153.873 2029.65,88.3694 2030.74,174.992 2031.83,147.442 2032.92,185.583 2034.01,117.681 2035.1,168.195 2036.19,114.061 2037.28,220.554 2038.37,200.627 2039.46,155.632 2040.55,148.71 2041.64,91.4926 2042.73,186.046 2043.82,215.805 2044.92,193.628 2046.01,160.456 2047.1,119.987 2048.19,136.522 2049.28,156.92 2050.37,166.109 2051.46,145.177 2052.55,155.834 2053.64,130.141 2054.73,157.898 2055.82,155.87 2056.91,146.045 2058,153.241 2059.09,170.264 2060.18,134.143 2061.27,140.036 2062.36,122.299 2063.45,127.933 2064.54,144.502 2065.63,158.966 2066.72,145.653 2067.81,171.667 2068.9,207.058 2069.99,146.7 2071.09,183.023 2072.18,169.21 2073.27,149.983 2074.36,140.976 2075.45,135.517 2076.54,418.805 2077.63,377.884 2078.72,357.641 2079.81,363.605 2080.9,282.849 2081.99,295.68 2083.08,310.147 2084.17,316.271 2085.26,300.126 2086.35,326.63 2087.44,332.034 2088.53,333.807 2089.62,301.804 2090.71,292.867 2091.8,321.966 2092.89,431.673 2093.98,583.045 2095.07,524.604 2096.17,532.01 2097.26,518.075 2098.35,617.792 2099.44,537.434 2100.53,512.623 2101.62,563.61 2102.71,584.321 2103.8,545.962 2104.89,152.316 2105.98,173.832 2107.07,151.034 2108.16,169.276 2109.25,151.97 2110.34,168.192 2111.43,156.012 2112.52,166.644 2113.61,154.558 2114.7,160.814 2115.79,158.523 2116.88,155.43 2117.97,165.987 2119.06,151.792 2120.15,165.112 2121.24,140.609 2122.34,170.953 2123.43,139.655 2124.52,170.875 2125.61,140.511 2126.7,171.168 2127.79,139.083 2128.88,171.482 2129.97,139.623 2131.06,205.464 2132.15,130.894 2133.24,185.754 2134.33,184.398 2135.42,101.032 2136.51,173.962 2137.6,174.071 2138.69,132.82 2139.78,171.764 2140.87,152.343 2141.96,157.993 2143.05,138.482 2144.14,148.608 2145.23,110.081 2146.32,192.29 2147.42,144.2 2148.51,126.34 2149.6,183.265 2150.69,158.501 2151.78,148.134 2152.87,200.862 2153.96,144.817 2155.05,144.918 2156.14,204.151 2157.23,87.9271 2158.32,207.884 2159.41,190.031 2160.5,114.771 2161.59,169.917 2162.68,152.86 2163.77,162.751 2164.86,154.88 2165.95,160.28 2167.04,171.036 2168.13,155.992 2169.22,153.145 2170.31,157.651 2171.4,150.619 2172.49,154.85 2173.59,164.956 2174.68,149.265 2175.77,161.618 2176.86,152.058 2177.95,141.047 2179.04,174.826 2180.13,145 2181.22,183.795 2182.31,137.925 2183.4,179.893 2184.49,137.471 2185.58,179.992 2186.67,148.293 2187.76,177.816 2188.85,136.747 2189.94,152.615 2191.03,187.794 2192.12,130.825 2193.21,104.169 2194.3,209.408 2195.39,238.711 2196.48,185.587 2197.57,95.8885 2198.67,109.582 2199.76,171.469 2200.85,94.2657 2201.94,150.568 2203.03,226.737 2204.12,182.033 2205.21,162.646 2206.3,115.814 2207.39,173.119 2208.48,137.555 2209.57,141.33 2210.66,155.213 2211.75,149.968 2212.84,176.446 2213.93,207.954 2215.02,213.012 2216.11,154.862 2217.2,240.726 2218.29,277.089 2219.38,334.521 2220.47,393.3 2221.56,372.277 2222.65,279.048 2223.74,323.887 2224.84,309.061 2225.93,294.367 2227.02,352.55 2228.11,351.868 2229.2,398.58 2230.29,371.783 2231.38,614.607 2232.47,637.98 2233.56,557.13 2234.65,556.518 2235.74,504.869 2236.83,463.28 2237.92,338.058 2239.01,383.155 2240.1,282.66 2241.19,327.464 2242.28,359.336 2243.37,407.622 2244.46,395.169 2245.55,327.825 2246.64,170.023 2247.73,96.3778 2248.82,178.367 2249.92,144.498 2251.01,162.319 2252.1,179.084 2253.19,100.655 2254.28,226.886 2255.37,103.479 2256.46,153.606 2257.55,155.931 2258.64,168.404 2259.73,132.961 2260.82,216.793 2261.91,128.712 2263,212.634 2264.09,117.35 2265.18,218.396 2266.27,102.091 2267.36,230.829 2268.45,99.9984 2269.54,233.082 2270.63,122.856 2271.72,150.855 2272.81,177.927 2273.9,157.585 2275,444.787 2276.09,348.397 2277.18,344.556 2278.27,402.988 2279.36,307.705 2280.45,342.467 2281.54,459.312 2282.63,345.758 2283.72,329.738 2284.81,388.774 2285.9,347.91 2286.99,367.63 2288.08,327.298 2289.17,287.988 2290.26,354.991 2291.35,331.538 2292.44,351.002 2293.53,356.586 2294.62,341.408 2295.71,366.453 2296.8,532.386 2297.89,522.098 2298.98,509.868 2300.07,611.016 2301.17,547.691 2302.26,584.526 2303.35,154.023 2304.44,134.654 2305.53,156.247 2306.62,170.581 2307.71,161.438 2308.8,124.757 2309.89,188.609 2310.98,140.12 2312.07,173.72 2313.16,153.762 2314.25,159.59 2315.34,145.63 2316.43,183.58 2317.52,148.135 2318.61,182.651 2319.7,135.174 2320.79,173.012 2321.88,148.544 2322.97,172.519 2324.06,168.539 2325.15,157.929 2326.25,160.198 2327.34,190.088 2328.43,168.768 2329.52,138.359 2330.61,175.197 2331.7,138.692 2332.79,134.548 2333.88,141.371 2334.97,237.899 2336.06,128.594 2337.15,148.563 2338.24,218.162 2339.33,134.812 2340.42,182.066 2341.51,148.68 2342.6,158.775 2343.69,151.788 2344.78,162.835 2345.87,155.347 2346.96,207.191 2348.05,121.213 2349.14,207.128 2350.23,110.055 2351.32,206.983 2352.42,135.176 2353.51,208.799 2354.6,117.491 2355.69,215.196 2356.78,116.324 2357.87,185.575 2358.96,138.565 2360.05,176.46 2361.14,151.987 2362.23,116.478 2363.32,121.304 2364.41,150.845 2365.5,142.922 2366.59,224.528 2367.68,155.163 2368.77,226.571 2369.86,181.973 2370.95,207.191 2372.04,114.439 2373.13,206.842 2374.22,150.482 2375.31,187.944 2376.4,154.853 2377.5,154.373 2378.59,144.545 2379.68,124.922 2380.77,159.77 2381.86,161.581 2382.95,200.056 2384.04,212.139 2385.13,149.058 2386.22,97.5853 2387.31,160.699 2388.4,173.709 2389.49,148.113 2390.58,163.527 2391.67,147.843 2392.76,118.731 2393.85,219.187 2394.94,119.535 2396.03,230.978 2397.12,115.631 2398.21,226.745 2399.3,113.456 2400.39,226.537 2401.48,117.269 2402.57,200.479 2403.67,158.129 2404.76,165.664 2405.85,187.928 2406.94,100.135 2408.03,199.487 2409.12,161.678 2410.21,117.554 2411.3,167.945 2412.39,138.796 2413.48,189.183 2414.57,146.58 2415.66,141.339 2416.75,145.635 2417.84,223.465 2418.93,137.039 2420.02,220.257 2421.11,108.616 2422.2,204.355 2423.29,117.612 2424.38,100.654 2425.47,198.609 2426.56,97.1028 2427.65,178.866 2428.75,102.71 2429.84,181.025 2430.93,153.822 2432.02,197.091 2433.11,74.988 2434.2,237.222 2435.29,109.073 2436.38,199.786 2437.47,88.9227 2438.56,99.9093 2439.65,87.9941 2440.74,120.408 2441.83,139.857 2442.92,195.641 2444.01,207.452 2445.1,495.637 2446.19,459.885 2447.28,584.132 2448.37,481.781 2449.46,443.966 2450.55,401.141 2451.64,316.61 2452.73,370.962 2453.83,360.215 2454.92,323.582 2456.01,355.951 2457.1,381.894 2458.19,362.482 2459.28,318.01 2460.37,328.025 2461.46,339.04 2462.55,337.612 2463.64,366.94 2464.73,376.989 2465.82,383.286 2466.91,354.135 2468,399.464 2469.09,448.948 2470.18,324.649 2471.27,427.783 2472.36,467.328 2473.45,159.268 2474.54,163.852 2475.63,190.732 2476.72,117.351 2477.81,157.448 2478.9,185.354 2480,113.647 2481.09,171.883 2482.18,101.497 2483.27,195.749 2484.36,136.652 2485.45,150.014 2486.54,185.249 2487.63,172.12 2488.72,171.722 2489.81,205.211 2490.9,139.062 2491.99,178.272 2493.08,172.158 2494.17,130.812 2495.26,174.901 2496.35,150.504 2497.44,156.39 2498.53,134.61 2499.62,170.721 2500.71,176.175 2501.8,534.292 2502.89,560.073 2503.98,573.502 2505.08,427.898 2506.17,483.124 2507.26,437.618 2508.35,422.685 2509.44,516.397 2510.53,388.672 2511.62,286.528 2512.71,354.373 2513.8,345.551 2514.89,359.528 2515.98,351.108 2517.07,364.231 2518.16,350.145 2519.25,347.036 2520.34,357.619 2521.43,322.903 2522.52,449.637 2523.61,461.252 2524.7,566.405 2525.79,587.214 2526.88,509.749 2527.97,487.685 2529.06,537.13 2530.15,344.201 2531.25,389.773 2532.34,294.172 2533.43,426.901 2534.52,330.675 2535.61,337.401 2536.7,429.359 2537.79,328.85 2538.88,378.817 2539.97,344.832 2541.06,390.615 2542.15,328.769 2543.24,334.63 2544.33,310.998 2545.42,379.806 2546.51,339.78 2547.6,325.361 2548.69,348.322 2549.78,377.65 2550.87,340.498 2551.96,374.588 2553.05,354.761 2554.14,384.577 2555.23,366.01 2556.33,353.603 2557.42,390.691 2558.51,532.201 2559.6,521.941 2560.69,475.232 2561.78,380.31 2562.87,327.732 2563.96,394.606 2565.05,503.67 2566.14,457.948 2567.23,447.646 2568.32,523.725 2569.41,289.598 2570.5,419.07 2571.59,508.322 2572.68,629.001 2573.77,538.513 2574.86,473.001 2575.95,541.402 2577.04,335.571 2578.13,354.091 2579.22,370.971 2580.31,382.474 2581.4,368.995 2582.5,341.979 2583.59,274.133 2584.68,366.793 2585.77,293.638 2586.86,306.448 2587.95,334.001 2589.04,279.051 2590.13,348.275 2591.22,315.856 2592.31,387.226 2593.4,421.261 2594.49,510.374 2595.58,544.025 2596.67,361.785 2597.76,340.433 2598.85,362.057 2599.94,340.26 2601.03,373.224 2602.12,290.554 2603.21,406.803 2604.3,393.12 2605.39,366.892 2606.48,546.661 2607.58,473.195 2608.67,421.001 2609.76,574.5 2610.85,383.719 2611.94,457.936 2613.03,397.882 2614.12,451.715 2615.21,112.339 2616.3,216.259 2617.39,72.1905 2618.48,205.831 2619.57,118.999 2620.66,113.285 2621.75,146.246 2622.84,100.419 2623.93,184.646 2625.02,177.212 2626.11,219.079 2627.2,81.248 2628.29,245.34 2629.38,97.3751 2630.47,205.143 2631.56,197.345 2632.66,203.628 2633.75,111.663 2634.84,213.232 2635.93,107.375 2637.02,229.202 2638.11,139.097 2639.2,161.169 2640.29,135.065 2641.38,102.527 2642.47,168.454 2643.56,232.673 2644.65,195.947 2645.74,105.298 2646.83,100.456 2647.92,179 2649.01,87.7526 2650.1,173.634 2651.19,119.529 2652.28,97.5928 2653.37,218.583 2654.46,156.619 2655.55,219.729 2656.64,81.5022 2657.73,144.133 2658.83,161.088 2659.92,227.013 2661.01,132.925 2662.1,178.527 2663.19,90.9764 2664.28,163.771 2665.37,162.717 2666.46,192.765 2667.55,140.575 2668.64,127.41 2669.73,174.903 2670.82,115.596 2671.91,159.979 2673,135.411 2674.09,124.371 2675.18,170.024 2676.27,197.175 2677.36,132.274 2678.45,252.577 2679.54,105.839 2680.63,108.166 2681.72,134.587 2682.81,124.032 2683.91,163.658 2685,159.633 2686.09,103.04 2687.18,232.95 2688.27,171.87 2689.36,181.648 2690.45,86.6841 2691.54,195.936 2692.63,199.499 2693.72,148.518 2694.81,89.414 2695.9,186.04 2696.99,93.9653 2698.08,127.798 2699.17,242.154 2700.26,157.256 2701.35,154.73 2702.44,110.738 2703.53,218.061 2704.62,116.975 2705.71,119.195 2706.8,130.731 2707.89,229.811 2708.98,118.833 2710.08,194.13 2711.17,131.002 2712.26,165.62 2713.35,211.643 2714.44,120.099 2715.53,202.859 2716.62,192.893 2717.71,184.948 2718.8,158.765 2719.89,103.379 2720.98,161.023 2722.07,154.195 2723.16,183.034 2724.25,200.206 2725.34,140.303 2726.43,196.714 2727.52,117.263 2728.61,229.486 2729.7,140.206 2730.79,225.94 2731.88,172.301 2732.97,112.474 2734.06,217.448 2735.16,166.526 2736.25,151.02 2737.34,189.349 2738.43,163.989 2739.52,227.789 2740.61,132.65 2741.7,150.374 2742.79,102.454 2743.88,155.909 2744.97,198.603 2746.06,214.059 2747.15,149.767 2748.24,187.649 2749.33,115.952 2750.42,143.267 2751.51,171.132 2752.6,84.5375 2753.69,165.774 2754.78,168.249 2755.87,196.048 2756.96,113.991 2758.05,305.44 2759.14,387.291 2760.23,383.342 2761.33,425.646 2762.42,345.319 2763.51,360.384 2764.6,349.877 2765.69,375.281 2766.78,509.482 2767.87,548.09 2768.96,505.987 2770.05,480.342 2771.14,332.353 2772.23,428.936 2773.32,391.663 2774.41,353.128 2775.5,394.504 2776.59,352.255 2777.68,339.281 2778.77,339.461 2779.86,337.732 2780.95,372.767 2782.04,361.72 2783.13,313.182 2784.22,364.446 2785.31,314.901 2786.41,403.426 2787.5,414.221 2788.59,324.53 2789.68,415.161 2790.77,420.834 2791.86,499.998 2792.95,485.194 2794.04,539.823 2795.13,418.527 2796.22,423.235 2797.31,325.162 2798.4,339.612 2799.49,353.162 2800.58,294.71 2801.67,389.3 2802.76,277.364 2803.85,386.291 2804.94,279.263 2806.03,401.47 2807.12,343.66 2808.21,354.563 2809.3,358.609 2810.39,324.023 2811.49,422.43 2812.58,325.039 2813.67,115.008 2814.76,130.92 2815.85,227.56 2816.94,206.193 2818.03,175.297 2819.12,94.3458 2820.21,102.977 2821.3,142.608 2822.39,225.903 2823.48,198.659 2824.57,167.526 2825.66,190.515 2826.75,79.3469 2827.84,119.189 2828.93,112.916 2830.02,148.263 2831.11,226.267 2832.2,107.182 2833.29,246.676 2834.38,77.1431 2835.47,223.964 2836.56,116.47 2837.66,103.723 2838.75,116.829 2839.84,229.078 2840.93,166.696 2842.02,155.197 2843.11,95.5179 2844.2,149.949 2845.29,225.954 2846.38,64.4021 2847.47,240.789 2848.56,98.9404 2849.65,92.0584 2850.74,226.653 2851.83,92.5775 2852.92,123.005 2854.01,144.712 2855.1,162.429 2856.19,88.5919 2857.28,112.786 2858.37,214.337 2859.46,82.0553 2860.55,110.947 2861.64,94.9851 2862.74,157.849 2863.83,91.1193 2864.92,169.758 2866.01,141.994 2867.1,91.0402 2868.19,102.778 2869.28,115.787 2870.37,163.815 2871.46,149.024 2872.55,94.9689 2873.64,135.353 2874.73,80.2852 2875.82,159.255 2876.91,119.304 2878,128.894 2879.09,130.801 2880.18,227.624 2881.27,119.715 2882.36,123.91 2883.45,204.155 2884.54,117.442 2885.63,119.741 2886.72,145.004 2887.81,112.985 2888.91,166.779 2890,142.775 2891.09,213.357 2892.18,126.078 2893.27,139.97 2894.36,139.963 2895.45,111.776 2896.54,147.278 2897.63,173.64 2898.72,557.829 2899.81,598.793 2900.9,498.318 2901.99,534.803 2903.08,519.894 2904.17,493.393 2905.26,358.67 2906.35,412.818 2907.44,333.362 2908.53,329.899 2909.62,347.685 2910.71,353.635 2911.8,283.438 2912.89,271.032 2913.99,415.361 2915.08,282.135 2916.17,369.686 2917.26,434.735 2918.35,350.825 2919.44,310.786 2920.53,491.321 2921.62,369.848 2922.71,319.521 2923.8,371.075 2924.89,379.796 2925.98,377.765 2927.07,110.447 2928.16,107.683 2929.25,148.136 2930.34,175.988 2931.43,190.481 2932.52,92.2679 2933.61,174.461 2934.7,186.765 2935.79,99.88 2936.88,191.757 2937.97,211.905 2939.06,208.828 2940.16,153.387 2941.25,220.275 2942.34,144.16 2943.43,186.239 2944.52,79.6901 2945.61,194.096 2946.7,169.489 2947.79,172.902 2948.88,105.384 2949.97,136.273 2951.06,198.302 2952.15,147.07 2953.24,228.207 2954.33,148.088 2955.42,372.244 2956.51,337.257 2957.6,329.121 2958.69,346.097 2959.78,325.469 2960.87,322.685 2961.96,299.879 2963.05,341.484 2964.14,396.454 2965.24,312.483 2966.33,337.761 2967.42,361.985 2968.51,337.788 2969.6,324.558 2970.69,360.978 2971.78,325.708 2972.87,371.798 2973.96,357.162 2975.05,340.911 2976.14,387.531 2977.23,295.491 2978.32,450.513 2979.41,554.072 2980.5,430.133 2981.59,502.46 2982.68,549.216 2983.77,81.3538 2984.86,123.233 2985.95,231.011 2987.04,107.589 2988.13,150.624 2989.22,161.881 2990.32,143.82 2991.41,166.531 2992.5,144.6 2993.59,167.836 2994.68,134.757 2995.77,163.28 2996.86,149.328 2997.95,162.642 2999.04,152.041 3000.13,163.709 3001.22,161.589 3002.31,156.924 3003.4,164.797 3004.49,180.039 3005.58,143.985 3006.67,180.471 3007.76,135.082 3008.85,134.611 3009.94,117.01 3011.03,158.46 3012.12,196.464 3013.21,93.4606 3014.3,224.765 3015.39,114.005 3016.49,179.806 3017.58,94.6733 3018.67,203.443 3019.76,86.4325 3020.85,153.886 3021.94,153.438 3023.03,137.253 3024.12,109.611 3025.21,136.284 3026.3,235.294 3027.39,118.036 3028.48,134.287 3029.57,231.931 3030.66,80.5242 3031.75,215.556 3032.84,121.101 3033.93,182.004 3035.02,162.355 3036.11,194.589 3037.2,189.867 3038.29,206.76 3039.38,119.054 3040.47,387.78 3041.57,345.975 3042.66,369.857 3043.75,397.472 3044.84,317.446 3045.93,377.399 3047.02,273.449 3048.11,315.257 3049.2,347.187 3050.29,353.916 3051.38,348.675 3052.47,349.34 3053.56,332.302 3054.65,384.394 3055.74,297.447 3056.83,343.207 3057.92,316.943 3059.01,358.587 3060.1,406.035 3061.19,315.012 3062.28,301.529 3063.37,353.604 3064.46,376.91 3065.55,314.594 3066.64,304.787 3067.74,379.405 "/>
<path clip-path="url(#clip260)" d="M2591.24 693.754 L3052.62 693.754 L3052.62 590.074 L2591.24 590.074  Z" fill="#ffffff" fill-rule="evenodd" fill-opacity="1"/>
<polyline clip-path="url(#clip260)" style="stroke:#000000; stroke-linecap:round; stroke-linejoin:round; stroke-width:4; stroke-opacity:1; fill:none" points="2591.24,693.754 3052.62,693.754 3052.62,590.074 2591.24,590.074 2591.24,693.754 "/>
<polyline clip-path="url(#clip260)" style="stroke:#009af9; stroke-linecap:round; stroke-linejoin:round; stroke-width:2; stroke-opacity:1; fill:none" points="2624.62,641.914 2824.89,641.914 "/>
<path clip-path="url(#clip260)" d="M2862.95 628.477 L2862.95 641.463 L2868.83 641.463 Q2872.09 641.463 2873.87 639.773 Q2875.65 638.083 2875.65 634.958 Q2875.65 631.857 2873.87 630.167 Q2872.09 628.477 2868.83 628.477 L2862.95 628.477 M2858.27 624.634 L2868.83 624.634 Q2874.64 624.634 2877.6 627.273 Q2880.59 629.889 2880.59 634.958 Q2880.59 640.074 2877.6 642.69 Q2874.64 645.306 2868.83 645.306 L2862.95 645.306 L2862.95 659.194 L2858.27 659.194 L2858.27 624.634 Z" fill="#000000" fill-rule="evenodd" fill-opacity="1" /><path clip-path="url(#clip260)" d="M2886.86 624.634 L2908.71 624.634 L2908.71 628.57 L2891.53 628.57 L2891.53 638.801 L2907.99 638.801 L2907.99 642.736 L2891.53 642.736 L2891.53 655.259 L2909.13 655.259 L2909.13 659.194 L2886.86 659.194 L2886.86 624.634 Z" fill="#000000" fill-rule="evenodd" fill-opacity="1" /><path clip-path="url(#clip260)" d="M2916.81 624.634 L2921.49 624.634 L2921.49 638.801 L2938.48 638.801 L2938.48 624.634 L2943.15 624.634 L2943.15 659.194 L2938.48 659.194 L2938.48 642.736 L2921.49 642.736 L2921.49 659.194 L2916.81 659.194 L2916.81 624.634 Z" fill="#000000" fill-rule="evenodd" fill-opacity="1" /><path clip-path="url(#clip260)" d="M2952.46 624.634 L2959.43 624.634 L2968.25 648.153 L2977.11 624.634 L2984.08 624.634 L2984.08 659.194 L2979.52 659.194 L2979.52 628.847 L2970.61 652.551 L2965.91 652.551 L2957 628.847 L2957 659.194 L2952.46 659.194 L2952.46 624.634 Z" fill="#000000" fill-rule="evenodd" fill-opacity="1" /><path clip-path="url(#clip260)" d="M3019.24 627.296 L3019.24 632.227 Q3016.88 630.028 3014.2 628.94 Q3011.53 627.852 3008.52 627.852 Q3002.6 627.852 2999.45 631.486 Q2996.3 635.097 2996.3 641.949 Q2996.3 648.778 2999.45 652.412 Q3002.6 656.023 3008.52 656.023 Q3011.53 656.023 3014.2 654.935 Q3016.88 653.847 3019.24 651.648 L3019.24 656.532 Q3016.79 658.199 3014.03 659.032 Q3011.3 659.866 3008.25 659.866 Q3000.4 659.866 2995.89 655.074 Q2991.37 650.259 2991.37 641.949 Q2991.37 633.616 2995.89 628.824 Q3000.4 624.009 3008.25 624.009 Q3011.35 624.009 3014.08 624.843 Q3016.83 625.653 3019.24 627.296 Z" fill="#000000" fill-rule="evenodd" fill-opacity="1" /></svg>
