<?xml version="1.0" encoding="utf-8"?>
<svg xmlns="http://www.w3.org/2000/svg" xmlns:xlink="http://www.w3.org/1999/xlink" width="800" height="200" viewBox="0 0 3200 800">
<defs>
  <clipPath id="clip860">
    <rect x="0" y="0" width="3200" height="800"/>
  </clipPath>
</defs>
<path clip-path="url(#clip860)" d="M0 800 L3200 800 L3200 0 L0 0  Z" fill="#ffffff" fill-rule="evenodd" fill-opacity="1"/>
<defs>
  <clipPath id="clip861">
    <rect x="640" y="0" width="2241" height="800"/>
  </clipPath>
</defs>
<path clip-path="url(#clip860)" d="M148.696 716.048 L3152.76 716.048 L3152.76 47.2441 L148.696 47.2441  Z" fill="#ffffff" fill-rule="evenodd" fill-opacity="1"/>
<defs>
  <clipPath id="clip862">
    <rect x="148" y="47" width="3005" height="670"/>
  </clipPath>
</defs>
<polyline clip-path="url(#clip862)" style="stroke:#000000; stroke-linecap:round; stroke-linejoin:round; stroke-width:2; stroke-opacity:0.1; fill:none" points="232.517,716.048 232.517,47.2441 "/>
<polyline clip-path="url(#clip862)" style="stroke:#000000; stroke-linecap:round; stroke-linejoin:round; stroke-width:2; stroke-opacity:0.1; fill:none" points="831.929,716.048 831.929,47.2441 "/>
<polyline clip-path="url(#clip862)" style="stroke:#000000; stroke-linecap:round; stroke-linejoin:round; stroke-width:2; stroke-opacity:0.1; fill:none" points="1431.34,716.048 1431.34,47.2441 "/>
<polyline clip-path="url(#clip862)" style="stroke:#000000; stroke-linecap:round; stroke-linejoin:round; stroke-width:2; stroke-opacity:0.1; fill:none" points="2030.75,716.048 2030.75,47.2441 "/>
<polyline clip-path="url(#clip862)" style="stroke:#000000; stroke-linecap:round; stroke-linejoin:round; stroke-width:2; stroke-opacity:0.1; fill:none" points="2630.16,716.048 2630.16,47.2441 "/>
<polyline clip-path="url(#clip860)" style="stroke:#000000; stroke-linecap:round; stroke-linejoin:round; stroke-width:4; stroke-opacity:1; fill:none" points="148.696,716.048 3152.76,716.048 "/>
<polyline clip-path="url(#clip860)" style="stroke:#000000; stroke-linecap:round; stroke-linejoin:round; stroke-width:4; stroke-opacity:1; fill:none" points="232.517,716.048 232.517,697.15 "/>
<polyline clip-path="url(#clip860)" style="stroke:#000000; stroke-linecap:round; stroke-linejoin:round; stroke-width:4; stroke-opacity:1; fill:none" points="831.929,716.048 831.929,697.15 "/>
<polyline clip-path="url(#clip860)" style="stroke:#000000; stroke-linecap:round; stroke-linejoin:round; stroke-width:4; stroke-opacity:1; fill:none" points="1431.34,716.048 1431.34,697.15 "/>
<polyline clip-path="url(#clip860)" style="stroke:#000000; stroke-linecap:round; stroke-linejoin:round; stroke-width:4; stroke-opacity:1; fill:none" points="2030.75,716.048 2030.75,697.15 "/>
<polyline clip-path="url(#clip860)" style="stroke:#000000; stroke-linecap:round; stroke-linejoin:round; stroke-width:4; stroke-opacity:1; fill:none" points="2630.16,716.048 2630.16,697.15 "/>
<path clip-path="url(#clip860)" d="M232.517 753.367 Q228.906 753.367 227.078 756.931 Q225.272 760.473 225.272 767.603 Q225.272 774.709 227.078 778.274 Q228.906 781.815 232.517 781.815 Q236.152 781.815 237.957 778.274 Q239.786 774.709 239.786 767.603 Q239.786 760.473 237.957 756.931 Q236.152 753.367 232.517 753.367 M232.517 749.663 Q238.327 749.663 241.383 754.269 Q244.462 758.853 244.462 767.603 Q244.462 776.329 241.383 780.936 Q238.327 785.519 232.517 785.519 Q226.707 785.519 223.628 780.936 Q220.573 776.329 220.573 767.603 Q220.573 758.853 223.628 754.269 Q226.707 749.663 232.517 749.663 Z" fill="#000000" fill-rule="evenodd" fill-opacity="1" /><path clip-path="url(#clip860)" d="M791.547 750.288 L809.904 750.288 L809.904 754.223 L795.83 754.223 L795.83 762.695 Q796.848 762.348 797.867 762.186 Q798.885 762.001 799.904 762.001 Q805.691 762.001 809.07 765.172 Q812.45 768.343 812.45 773.76 Q812.45 779.339 808.978 782.44 Q805.506 785.519 799.186 785.519 Q797.01 785.519 794.742 785.149 Q792.496 784.778 790.089 784.038 L790.089 779.339 Q792.172 780.473 794.395 781.028 Q796.617 781.584 799.094 781.584 Q803.098 781.584 805.436 779.478 Q807.774 777.371 807.774 773.76 Q807.774 770.149 805.436 768.042 Q803.098 765.936 799.094 765.936 Q797.219 765.936 795.344 766.353 Q793.492 766.769 791.547 767.649 L791.547 750.288 Z" fill="#000000" fill-rule="evenodd" fill-opacity="1" /><path clip-path="url(#clip860)" d="M831.663 753.367 Q828.052 753.367 826.223 756.931 Q824.418 760.473 824.418 767.603 Q824.418 774.709 826.223 778.274 Q828.052 781.815 831.663 781.815 Q835.297 781.815 837.103 778.274 Q838.931 774.709 838.931 767.603 Q838.931 760.473 837.103 756.931 Q835.297 753.367 831.663 753.367 M831.663 749.663 Q837.473 749.663 840.529 754.269 Q843.607 758.853 843.607 767.603 Q843.607 776.329 840.529 780.936 Q837.473 785.519 831.663 785.519 Q825.853 785.519 822.774 780.936 Q819.719 776.329 819.719 767.603 Q819.719 758.853 822.774 754.269 Q825.853 749.663 831.663 749.663 Z" fill="#000000" fill-rule="evenodd" fill-opacity="1" /><path clip-path="url(#clip860)" d="M861.825 753.367 Q858.214 753.367 856.385 756.931 Q854.579 760.473 854.579 767.603 Q854.579 774.709 856.385 778.274 Q858.214 781.815 861.825 781.815 Q865.459 781.815 867.265 778.274 Q869.093 774.709 869.093 767.603 Q869.093 760.473 867.265 756.931 Q865.459 753.367 861.825 753.367 M861.825 749.663 Q867.635 749.663 870.691 754.269 Q873.769 758.853 873.769 767.603 Q873.769 776.329 870.691 780.936 Q867.635 785.519 861.825 785.519 Q856.015 785.519 852.936 780.936 Q849.88 776.329 849.88 767.603 Q849.88 758.853 852.936 754.269 Q856.015 749.663 861.825 749.663 Z" fill="#000000" fill-rule="evenodd" fill-opacity="1" /><path clip-path="url(#clip860)" d="M1375.87 780.913 L1383.51 780.913 L1383.51 754.547 L1375.2 756.214 L1375.2 751.955 L1383.46 750.288 L1388.14 750.288 L1388.14 780.913 L1395.77 780.913 L1395.77 784.848 L1375.87 784.848 L1375.87 780.913 Z" fill="#000000" fill-rule="evenodd" fill-opacity="1" /><path clip-path="url(#clip860)" d="M1415.22 753.367 Q1411.61 753.367 1409.78 756.931 Q1407.97 760.473 1407.97 767.603 Q1407.97 774.709 1409.78 778.274 Q1411.61 781.815 1415.22 781.815 Q1418.85 781.815 1420.66 778.274 Q1422.49 774.709 1422.49 767.603 Q1422.49 760.473 1420.66 756.931 Q1418.85 753.367 1415.22 753.367 M1415.22 749.663 Q1421.03 749.663 1424.08 754.269 Q1427.16 758.853 1427.16 767.603 Q1427.16 776.329 1424.08 780.936 Q1421.03 785.519 1415.22 785.519 Q1409.41 785.519 1406.33 780.936 Q1403.27 776.329 1403.27 767.603 Q1403.27 758.853 1406.33 754.269 Q1409.41 749.663 1415.22 749.663 Z" fill="#000000" fill-rule="evenodd" fill-opacity="1" /><path clip-path="url(#clip860)" d="M1445.38 753.367 Q1441.77 753.367 1439.94 756.931 Q1438.13 760.473 1438.13 767.603 Q1438.13 774.709 1439.94 778.274 Q1441.77 781.815 1445.38 781.815 Q1449.01 781.815 1450.82 778.274 Q1452.65 774.709 1452.65 767.603 Q1452.65 760.473 1450.82 756.931 Q1449.01 753.367 1445.38 753.367 M1445.38 749.663 Q1451.19 749.663 1454.25 754.269 Q1457.32 758.853 1457.32 767.603 Q1457.32 776.329 1454.25 780.936 Q1451.19 785.519 1445.38 785.519 Q1439.57 785.519 1436.49 780.936 Q1433.44 776.329 1433.44 767.603 Q1433.44 758.853 1436.49 754.269 Q1439.57 749.663 1445.38 749.663 Z" fill="#000000" fill-rule="evenodd" fill-opacity="1" /><path clip-path="url(#clip860)" d="M1475.54 753.367 Q1471.93 753.367 1470.1 756.931 Q1468.3 760.473 1468.3 767.603 Q1468.3 774.709 1470.1 778.274 Q1471.93 781.815 1475.54 781.815 Q1479.18 781.815 1480.98 778.274 Q1482.81 774.709 1482.81 767.603 Q1482.81 760.473 1480.98 756.931 Q1479.18 753.367 1475.54 753.367 M1475.54 749.663 Q1481.35 749.663 1484.41 754.269 Q1487.49 758.853 1487.49 767.603 Q1487.49 776.329 1484.41 780.936 Q1481.35 785.519 1475.54 785.519 Q1469.73 785.519 1466.65 780.936 Q1463.6 776.329 1463.6 767.603 Q1463.6 758.853 1466.65 754.269 Q1469.73 749.663 1475.54 749.663 Z" fill="#000000" fill-rule="evenodd" fill-opacity="1" /><path clip-path="url(#clip860)" d="M1975.28 780.913 L1982.92 780.913 L1982.92 754.547 L1974.61 756.214 L1974.61 751.955 L1982.87 750.288 L1987.55 750.288 L1987.55 780.913 L1995.19 780.913 L1995.19 784.848 L1975.28 784.848 L1975.28 780.913 Z" fill="#000000" fill-rule="evenodd" fill-opacity="1" /><path clip-path="url(#clip860)" d="M2004.68 750.288 L2023.03 750.288 L2023.03 754.223 L2008.96 754.223 L2008.96 762.695 Q2009.98 762.348 2011 762.186 Q2012.01 762.001 2013.03 762.001 Q2018.82 762.001 2022.2 765.172 Q2025.58 768.343 2025.58 773.76 Q2025.58 779.339 2022.11 782.44 Q2018.63 785.519 2012.32 785.519 Q2010.14 785.519 2007.87 785.149 Q2005.63 784.778 2003.22 784.038 L2003.22 779.339 Q2005.3 780.473 2007.52 781.028 Q2009.75 781.584 2012.22 781.584 Q2016.23 781.584 2018.57 779.478 Q2020.9 777.371 2020.9 773.76 Q2020.9 770.149 2018.57 768.042 Q2016.23 765.936 2012.22 765.936 Q2010.35 765.936 2008.47 766.353 Q2006.62 766.769 2004.68 767.649 L2004.68 750.288 Z" fill="#000000" fill-rule="evenodd" fill-opacity="1" /><path clip-path="url(#clip860)" d="M2044.79 753.367 Q2041.18 753.367 2039.35 756.931 Q2037.55 760.473 2037.55 767.603 Q2037.55 774.709 2039.35 778.274 Q2041.18 781.815 2044.79 781.815 Q2048.43 781.815 2050.23 778.274 Q2052.06 774.709 2052.06 767.603 Q2052.06 760.473 2050.23 756.931 Q2048.43 753.367 2044.79 753.367 M2044.79 749.663 Q2050.6 749.663 2053.66 754.269 Q2056.74 758.853 2056.74 767.603 Q2056.74 776.329 2053.66 780.936 Q2050.6 785.519 2044.79 785.519 Q2038.98 785.519 2035.9 780.936 Q2032.85 776.329 2032.85 767.603 Q2032.85 758.853 2035.9 754.269 Q2038.98 749.663 2044.79 749.663 Z" fill="#000000" fill-rule="evenodd" fill-opacity="1" /><path clip-path="url(#clip860)" d="M2074.95 753.367 Q2071.34 753.367 2069.51 756.931 Q2067.71 760.473 2067.71 767.603 Q2067.71 774.709 2069.51 778.274 Q2071.34 781.815 2074.95 781.815 Q2078.59 781.815 2080.39 778.274 Q2082.22 774.709 2082.22 767.603 Q2082.22 760.473 2080.39 756.931 Q2078.59 753.367 2074.95 753.367 M2074.95 749.663 Q2080.76 749.663 2083.82 754.269 Q2086.9 758.853 2086.9 767.603 Q2086.9 776.329 2083.82 780.936 Q2080.76 785.519 2074.95 785.519 Q2069.14 785.519 2066.07 780.936 Q2063.01 776.329 2063.01 767.603 Q2063.01 758.853 2066.07 754.269 Q2069.14 749.663 2074.95 749.663 Z" fill="#000000" fill-rule="evenodd" fill-opacity="1" /><path clip-path="url(#clip860)" d="M2578.78 780.913 L2595.1 780.913 L2595.1 784.848 L2573.15 784.848 L2573.15 780.913 Q2575.81 778.158 2580.4 773.528 Q2585 768.876 2586.18 767.533 Q2588.43 765.01 2589.31 763.274 Q2590.21 761.515 2590.21 759.825 Q2590.21 757.07 2588.27 755.334 Q2586.35 753.598 2583.24 753.598 Q2581.04 753.598 2578.59 754.362 Q2576.16 755.126 2573.38 756.677 L2573.38 751.955 Q2576.21 750.82 2578.66 750.242 Q2581.11 749.663 2583.15 749.663 Q2588.52 749.663 2591.72 752.348 Q2594.91 755.033 2594.91 759.524 Q2594.91 761.654 2594.1 763.575 Q2593.31 765.473 2591.21 768.066 Q2590.63 768.737 2587.53 771.954 Q2584.42 775.149 2578.78 780.913 Z" fill="#000000" fill-rule="evenodd" fill-opacity="1" /><path clip-path="url(#clip860)" d="M2614.91 753.367 Q2611.3 753.367 2609.47 756.931 Q2607.66 760.473 2607.66 767.603 Q2607.66 774.709 2609.47 778.274 Q2611.3 781.815 2614.91 781.815 Q2618.54 781.815 2620.35 778.274 Q2622.18 774.709 2622.18 767.603 Q2622.18 760.473 2620.35 756.931 Q2618.54 753.367 2614.91 753.367 M2614.91 749.663 Q2620.72 749.663 2623.78 754.269 Q2626.85 758.853 2626.85 767.603 Q2626.85 776.329 2623.78 780.936 Q2620.72 785.519 2614.91 785.519 Q2609.1 785.519 2606.02 780.936 Q2602.97 776.329 2602.97 767.603 Q2602.97 758.853 2606.02 754.269 Q2609.1 749.663 2614.91 749.663 Z" fill="#000000" fill-rule="evenodd" fill-opacity="1" /><path clip-path="url(#clip860)" d="M2645.07 753.367 Q2641.46 753.367 2639.63 756.931 Q2637.83 760.473 2637.83 767.603 Q2637.83 774.709 2639.63 778.274 Q2641.46 781.815 2645.07 781.815 Q2648.71 781.815 2650.51 778.274 Q2652.34 774.709 2652.34 767.603 Q2652.34 760.473 2650.51 756.931 Q2648.71 753.367 2645.07 753.367 M2645.07 749.663 Q2650.88 749.663 2653.94 754.269 Q2657.02 758.853 2657.02 767.603 Q2657.02 776.329 2653.94 780.936 Q2650.88 785.519 2645.07 785.519 Q2639.26 785.519 2636.18 780.936 Q2633.13 776.329 2633.13 767.603 Q2633.13 758.853 2636.18 754.269 Q2639.26 749.663 2645.07 749.663 Z" fill="#000000" fill-rule="evenodd" fill-opacity="1" /><path clip-path="url(#clip860)" d="M2675.23 753.367 Q2671.62 753.367 2669.79 756.931 Q2667.99 760.473 2667.99 767.603 Q2667.99 774.709 2669.79 778.274 Q2671.62 781.815 2675.23 781.815 Q2678.87 781.815 2680.67 778.274 Q2682.5 774.709 2682.5 767.603 Q2682.5 760.473 2680.67 756.931 Q2678.87 753.367 2675.23 753.367 M2675.23 749.663 Q2681.04 749.663 2684.1 754.269 Q2687.18 758.853 2687.18 767.603 Q2687.18 776.329 2684.1 780.936 Q2681.04 785.519 2675.23 785.519 Q2669.42 785.519 2666.35 780.936 Q2663.29 776.329 2663.29 767.603 Q2663.29 758.853 2666.35 754.269 Q2669.42 749.663 2675.23 749.663 Z" fill="#000000" fill-rule="evenodd" fill-opacity="1" /><polyline clip-path="url(#clip862)" style="stroke:#000000; stroke-linecap:round; stroke-linejoin:round; stroke-width:2; stroke-opacity:0.1; fill:none" points="148.696,716.048 3152.76,716.048 "/>
<polyline clip-path="url(#clip862)" style="stroke:#000000; stroke-linecap:round; stroke-linejoin:round; stroke-width:2; stroke-opacity:0.1; fill:none" points="148.696,576.714 3152.76,576.714 "/>
<polyline clip-path="url(#clip862)" style="stroke:#000000; stroke-linecap:round; stroke-linejoin:round; stroke-width:2; stroke-opacity:0.1; fill:none" points="148.696,437.38 3152.76,437.38 "/>
<polyline clip-path="url(#clip862)" style="stroke:#000000; stroke-linecap:round; stroke-linejoin:round; stroke-width:2; stroke-opacity:0.1; fill:none" points="148.696,298.046 3152.76,298.046 "/>
<polyline clip-path="url(#clip862)" style="stroke:#000000; stroke-linecap:round; stroke-linejoin:round; stroke-width:2; stroke-opacity:0.1; fill:none" points="148.696,158.711 3152.76,158.711 "/>
<polyline clip-path="url(#clip860)" style="stroke:#000000; stroke-linecap:round; stroke-linejoin:round; stroke-width:4; stroke-opacity:1; fill:none" points="148.696,716.048 148.696,47.2441 "/>
<polyline clip-path="url(#clip860)" style="stroke:#000000; stroke-linecap:round; stroke-linejoin:round; stroke-width:4; stroke-opacity:1; fill:none" points="148.696,716.048 167.593,716.048 "/>
<polyline clip-path="url(#clip860)" style="stroke:#000000; stroke-linecap:round; stroke-linejoin:round; stroke-width:4; stroke-opacity:1; fill:none" points="148.696,576.714 167.593,576.714 "/>
<polyline clip-path="url(#clip860)" style="stroke:#000000; stroke-linecap:round; stroke-linejoin:round; stroke-width:4; stroke-opacity:1; fill:none" points="148.696,437.38 167.593,437.38 "/>
<polyline clip-path="url(#clip860)" style="stroke:#000000; stroke-linecap:round; stroke-linejoin:round; stroke-width:4; stroke-opacity:1; fill:none" points="148.696,298.046 167.593,298.046 "/>
<polyline clip-path="url(#clip860)" style="stroke:#000000; stroke-linecap:round; stroke-linejoin:round; stroke-width:4; stroke-opacity:1; fill:none" points="148.696,158.711 167.593,158.711 "/>
<path clip-path="url(#clip860)" d="M88.7512 701.847 Q85.1401 701.847 83.3114 705.411 Q81.5058 708.953 81.5058 716.083 Q81.5058 723.189 83.3114 726.754 Q85.1401 730.295 88.7512 730.295 Q92.3854 730.295 94.1909 726.754 Q96.0196 723.189 96.0196 716.083 Q96.0196 708.953 94.1909 705.411 Q92.3854 701.847 88.7512 701.847 M88.7512 698.143 Q94.5613 698.143 97.6169 702.749 Q100.696 707.333 100.696 716.083 Q100.696 724.809 97.6169 729.416 Q94.5613 733.999 88.7512 733.999 Q82.941 733.999 79.8623 729.416 Q76.8068 724.809 76.8068 716.083 Q76.8068 707.333 79.8623 702.749 Q82.941 698.143 88.7512 698.143 Z" fill="#000000" fill-rule="evenodd" fill-opacity="1" /><path clip-path="url(#clip860)" d="M79.7929 559.434 L98.1493 559.434 L98.1493 563.369 L84.0753 563.369 L84.0753 571.841 Q85.0938 571.494 86.1123 571.332 Q87.1308 571.147 88.1493 571.147 Q93.9363 571.147 97.3159 574.318 Q100.696 577.489 100.696 582.906 Q100.696 588.485 97.2233 591.586 Q93.7511 594.665 87.4317 594.665 Q85.2558 594.665 82.9873 594.295 Q80.7419 593.924 78.3346 593.184 L78.3346 588.485 Q80.4179 589.619 82.6401 590.174 Q84.8623 590.73 87.3391 590.73 Q91.3437 590.73 93.6817 588.623 Q96.0196 586.517 96.0196 582.906 Q96.0196 579.295 93.6817 577.188 Q91.3437 575.082 87.3391 575.082 Q85.4641 575.082 83.5892 575.498 Q81.7373 575.915 79.7929 576.795 L79.7929 559.434 Z" fill="#000000" fill-rule="evenodd" fill-opacity="1" /><path clip-path="url(#clip860)" d="M49.3995 450.724 L57.0384 450.724 L57.0384 424.359 L48.7282 426.026 L48.7282 421.766 L56.9921 420.1 L61.668 420.1 L61.668 450.724 L69.3068 450.724 L69.3068 454.66 L49.3995 454.66 L49.3995 450.724 Z" fill="#000000" fill-rule="evenodd" fill-opacity="1" /><path clip-path="url(#clip860)" d="M88.7512 423.178 Q85.1401 423.178 83.3114 426.743 Q81.5058 430.285 81.5058 437.414 Q81.5058 444.521 83.3114 448.086 Q85.1401 451.627 88.7512 451.627 Q92.3854 451.627 94.1909 448.086 Q96.0196 444.521 96.0196 437.414 Q96.0196 430.285 94.1909 426.743 Q92.3854 423.178 88.7512 423.178 M88.7512 419.475 Q94.5613 419.475 97.6169 424.081 Q100.696 428.664 100.696 437.414 Q100.696 446.141 97.6169 450.748 Q94.5613 455.331 88.7512 455.331 Q82.941 455.331 79.8623 450.748 Q76.8068 446.141 76.8068 437.414 Q76.8068 428.664 79.8623 424.081 Q82.941 419.475 88.7512 419.475 Z" fill="#000000" fill-rule="evenodd" fill-opacity="1" /><path clip-path="url(#clip860)" d="M50.3949 311.39 L58.0337 311.39 L58.0337 285.025 L49.7236 286.691 L49.7236 282.432 L57.9874 280.766 L62.6633 280.766 L62.6633 311.39 L70.3022 311.39 L70.3022 315.326 L50.3949 315.326 L50.3949 311.39 Z" fill="#000000" fill-rule="evenodd" fill-opacity="1" /><path clip-path="url(#clip860)" d="M79.7929 280.766 L98.1493 280.766 L98.1493 284.701 L84.0753 284.701 L84.0753 293.173 Q85.0938 292.826 86.1123 292.664 Q87.1308 292.478 88.1493 292.478 Q93.9363 292.478 97.3159 295.65 Q100.696 298.821 100.696 304.238 Q100.696 309.816 97.2233 312.918 Q93.7511 315.997 87.4317 315.997 Q85.2558 315.997 82.9873 315.626 Q80.7419 315.256 78.3346 314.515 L78.3346 309.816 Q80.4179 310.951 82.6401 311.506 Q84.8623 312.062 87.3391 312.062 Q91.3437 312.062 93.6817 309.955 Q96.0196 307.849 96.0196 304.238 Q96.0196 300.627 93.6817 298.52 Q91.3437 296.414 87.3391 296.414 Q85.4641 296.414 83.5892 296.83 Q81.7373 297.247 79.7929 298.127 L79.7929 280.766 Z" fill="#000000" fill-rule="evenodd" fill-opacity="1" /><path clip-path="url(#clip860)" d="M52.6171 172.056 L68.9365 172.056 L68.9365 175.991 L46.9921 175.991 L46.9921 172.056 Q49.6541 169.302 54.2375 164.672 Q58.8439 160.019 60.0245 158.677 Q62.2698 156.154 63.1494 154.417 Q64.0522 152.658 64.0522 150.968 Q64.0522 148.214 62.1078 146.478 Q60.1865 144.742 57.0847 144.742 Q54.8856 144.742 52.4319 145.505 Q50.0014 146.269 47.2236 147.82 L47.2236 143.098 Q50.0477 141.964 52.5014 141.385 Q54.955 140.806 56.9921 140.806 Q62.3624 140.806 65.5568 143.492 Q68.7513 146.177 68.7513 150.667 Q68.7513 152.797 67.9411 154.718 Q67.1541 156.616 65.0476 159.209 Q64.4689 159.88 61.367 163.098 Q58.2652 166.292 52.6171 172.056 Z" fill="#000000" fill-rule="evenodd" fill-opacity="1" /><path clip-path="url(#clip860)" d="M88.7512 144.51 Q85.1401 144.51 83.3114 148.075 Q81.5058 151.617 81.5058 158.746 Q81.5058 165.853 83.3114 169.417 Q85.1401 172.959 88.7512 172.959 Q92.3854 172.959 94.1909 169.417 Q96.0196 165.853 96.0196 158.746 Q96.0196 151.617 94.1909 148.075 Q92.3854 144.51 88.7512 144.51 M88.7512 140.806 Q94.5613 140.806 97.6169 145.413 Q100.696 149.996 100.696 158.746 Q100.696 167.473 97.6169 172.079 Q94.5613 176.663 88.7512 176.663 Q82.941 176.663 79.8623 172.079 Q76.8068 167.473 76.8068 158.746 Q76.8068 149.996 79.8623 145.413 Q82.941 140.806 88.7512 140.806 Z" fill="#000000" fill-rule="evenodd" fill-opacity="1" /><polyline clip-path="url(#clip862)" style="stroke:#009af9; stroke-linecap:round; stroke-linejoin:round; stroke-width:2; stroke-opacity:1; fill:none" points="233.716,172.747 234.915,412.251 236.114,135.619 237.313,346.112 238.511,557.554 239.71,162.386 240.909,136.767 242.108,153.198 243.307,530.389 244.506,140.089 245.704,384.108 246.903,580.043 248.102,332.758 249.301,154.537 250.5,147.068 251.698,345.589 252.897,363.686 254.096,422.879 255.295,326.596 256.494,150.035 257.693,146.123 258.891,163.352 260.09,475.102 261.289,444.274 262.488,351.931 263.687,151.316 264.886,568.51 266.084,366.586 267.283,152.435 268.482,353.174 269.681,149.489 270.88,341.051 272.078,478.863 273.277,128.241 274.476,322.224 275.675,170.117 276.874,170.77 278.073,176.741 279.271,165.803 280.47,356.518 281.669,448.677 282.868,357.222 284.067,166.756 285.266,144.131 286.464,372.408 287.663,167.214 288.862,155.542 290.061,146.717 291.26,560.148 292.458,495.069 293.657,166.131 294.856,167.55 296.055,166.953 297.254,152.318 298.453,368.925 299.651,154.302 300.85,577.778 302.049,151.77 303.248,417.155 304.447,338.725 305.646,144.801 306.844,162.799 308.043,162.023 309.242,157.924 310.441,153.463 311.64,149.302 312.838,167.94 314.037,336.11 315.236,359.529 316.435,362.285 317.634,343.377 318.833,165.567 320.031,157.61 321.23,348.46 322.429,464.476 323.628,510.603 324.827,348.905 326.026,578.716 327.224,149.133 328.423,500.832 329.622,156.5 330.821,348.346 332.02,159.994 333.218,157.645 334.417,166.216 335.616,159.312 336.815,335.024 338.014,140.168 339.213,160.431 340.411,161.635 341.61,349.508 342.809,142.375 344.008,143.252 345.207,168.93 346.406,178.793 347.604,141.135 348.803,587.751 350.002,184.87 351.201,166.445 352.4,149.72 353.598,529.244 354.797,151.455 355.996,136.409 357.195,158.007 358.394,173.425 359.593,549.701 360.791,153.065 361.99,420.383 363.189,529.898 364.388,352.046 365.587,362.542 366.786,347.955 367.984,377.019 369.183,157.267 370.382,150.011 371.581,155.068 372.78,174.321 373.978,457.217 375.177,163.366 376.376,176.534 377.575,453.683 378.774,375.227 379.973,357.378 381.171,442.024 382.37,156.054 383.569,148.694 384.768,343.918 385.967,166.88 387.166,355.002 388.364,362.966 389.563,465.411 390.762,135.192 391.961,180.322 393.16,175.079 394.358,157.882 395.557,158.909 396.756,395.088 397.955,349.707 399.154,153.112 400.353,357.12 401.551,165.555 402.75,329.19 403.949,346.039 405.148,337.326 406.347,377.81 407.546,186.587 408.744,337.467 409.943,560.418 411.142,357.942 412.341,342.484 413.54,147.098 414.738,170.65 415.937,367.304 417.136,408.952 418.335,466.118 419.534,169.428 420.733,488.229 421.931,162.795 423.13,169.294 424.329,435.695 425.528,174.774 426.727,148.385 427.926,355.05 429.124,512.001 430.323,359.149 431.522,171.802 432.721,524.349 433.92,517.315 435.118,536.477 436.317,154.472 437.516,161.434 438.715,153.265 439.914,143.993 441.113,162.231 442.311,512.574 443.51,165.568 444.709,151.949 445.908,152.583 447.107,145.514 448.306,457.134 449.504,345.057 450.703,171.724 451.902,175.073 453.101,361.507 454.3,424.697 455.499,370.096 456.697,169.67 457.896,348.088 459.095,350.559 460.294,147.232 461.493,536.577 462.691,140.063 463.89,372.812 465.089,156.744 466.288,154.292 467.487,163.74 468.686,179.506 469.884,350.566 471.083,137.51 472.282,175.668 473.481,149.938 474.68,396.184 475.879,176.344 477.077,183.951 478.276,154.943 479.475,138.215 480.674,141.395 481.873,137.118 483.071,372.275 484.27,521.411 485.469,156.579 486.668,173.858 487.867,512.435 489.066,391.976 490.264,328.688 491.463,356.683 492.662,424.956 493.861,464.249 495.06,348.973 496.259,366.96 497.457,147.616 498.656,354.913 499.855,160.275 501.054,148.093 502.253,149.883 503.451,433.683 504.65,165.509 505.849,464.28 507.048,146.65 508.247,511.804 509.446,415.115 510.644,398.776 511.843,202.559 513.042,378.078 514.241,450.349 515.44,183.698 516.639,362.371 517.837,141.112 519.036,159.854 520.235,164.069 521.434,164.931 522.633,172.006 523.831,149.276 525.03,173.564 526.229,151.329 527.428,152.728 528.627,417.805 529.826,167.29 531.024,173.193 532.223,135.76 533.422,158.99 534.621,157.221 535.82,156.919 537.019,470.092 538.217,413.193 539.416,354.558 540.615,343.054 541.814,492.879 543.013,419.908 544.211,350.197 545.41,159.731 546.609,493.474 547.808,145.706 549.007,353.208 550.206,146.196 551.404,144.85 552.603,161.721 553.802,363.082 555.001,172.984 556.2,182.653 557.399,383.201 558.597,375.941 559.796,162.067 560.995,153.276 562.194,170.574 563.393,177.026 564.591,337.619 565.79,417.073 566.989,344.765 568.188,180.278 569.387,171.722 570.586,148.603 571.784,168.838 572.983,342.609 574.182,155.063 575.381,150.542 576.58,334.361 577.779,182.14 578.977,171.585 580.176,161.56 581.375,151.417 582.574,152.451 583.773,144.926 584.971,436.196 586.17,534.826 587.369,166.634 588.568,485.951 589.767,362.978 590.966,422.27 592.164,141.376 593.363,141.487 594.562,177.375 595.761,155.405 596.96,122.714 598.159,171.558 599.357,169.546 600.556,161.344 601.755,167.107 602.954,157.595 604.153,385.246 605.351,343.219 606.55,515.108 607.749,487.797 608.948,172.272 610.147,153.367 611.346,153.925 612.544,159.465 613.743,338.215 614.942,362.651 616.141,168.793 617.34,144.874 618.539,143.493 619.737,557.178 620.936,352.49 622.135,495.197 623.334,437.396 624.533,420.532 625.731,351.633 626.93,348.186 628.129,136.673 629.328,156.746 630.527,358.162 631.726,166.623 632.924,157.604 634.123,389.949 635.322,125.927 636.521,591.419 637.72,326.513 638.919,138.11 640.117,323.946 641.316,485.252 642.515,338.708 643.714,335.618 644.913,173.628 646.111,171.431 647.31,153.964 648.509,501.102 649.708,157.23 650.907,157.317 652.106,159.893 653.304,157.115 654.503,155.809 655.702,353.433 656.901,354.853 658.1,171.154 659.299,175.094 660.497,158.104 661.696,471.662 662.895,363.182 664.094,188.007 665.293,374.766 666.491,141.823 667.69,415.819 668.889,368.958 670.088,170.378 671.287,359.059 672.486,512.122 673.684,421.477 674.883,528.346 676.082,361.657 677.281,154.998 678.48,168.679 679.679,363.154 680.877,321.758 682.076,171.59 683.275,160.244 684.474,411.956 685.673,151.631 686.871,481.886 688.07,174.841 689.269,160.107 690.468,434.794 691.667,152.376 692.866,158.419 694.064,164.515 695.263,168.115 696.462,148.94 697.661,161.817 698.86,340.862 700.059,144.016 701.257,503.591 702.456,143.999 703.655,400.747 704.854,353.759 706.053,170.75 707.251,371.21 708.45,171.357 709.649,162.167 710.848,167.757 712.047,157.294 713.246,155.84 714.444,153.452 715.643,487.655 716.842,333.843 718.041,142.049 719.24,145.548 720.439,169.195 721.637,141.315 722.836,362.257 724.035,352.183 725.234,430.467 726.433,159.229 727.631,491.463 728.83,447.028 730.029,150.298 731.228,145.481 732.427,161.894 733.626,176.033 734.824,347.449 736.023,377.129 737.222,142.587 738.421,341.065 739.62,349.017 740.819,191.395 742.017,160.42 743.216,355.627 744.415,543.754 745.614,343.345 746.813,354.572 748.011,377.218 749.21,175.912 750.409,534.841 751.608,172.995 752.807,197.032 754.006,164.035 755.204,180.554 756.403,330.186 757.602,505.952 758.801,333.623 760,178.836 761.199,184.015 762.397,508.744 763.596,168.035 764.795,158.716 765.994,159.977 767.193,159.609 768.391,171.612 769.59,452.604 770.789,346.682 771.988,338.862 773.187,332.694 774.386,375.785 775.584,149.777 776.783,346.218 777.982,358.781 779.181,170.494 780.38,141.79 781.579,530.319 782.777,160.134 783.976,147.942 785.175,544.527 786.374,135.034 787.573,157.581 788.771,155.496 789.97,160.494 791.169,162.283 792.368,499.239 793.567,145.539 794.766,165.516 795.964,397.541 797.163,149.98 798.362,155.793 799.561,162.268 800.76,161.272 801.959,168.95 803.157,145.374 804.356,142.517 805.555,146.773 806.754,465.99 807.953,155.526 809.151,161.119 810.35,157.352 811.549,553.516 812.748,344.931 813.947,166.949 815.146,497.2 816.344,155.307 817.543,150.371 818.742,532.153 819.941,522.508 821.14,154.811 822.339,573.796 823.537,142.858 824.736,188.557 825.935,476.083 827.134,357.214 828.333,160.797 829.531,155.867 830.73,187.843 831.929,170.25 833.128,338.313 834.327,143.472 835.526,142.333 836.724,561.252 837.923,366.904 839.122,350.31 840.321,147.448 841.52,365.241 842.719,163.093 843.917,155.008 845.116,151.819 846.315,466.776 847.514,346.355 848.713,499.894 849.911,168.738 851.11,159.579 852.309,537.056 853.508,138.469 854.707,154.406 855.906,529.073 857.104,162.354 858.303,370.052 859.502,156.074 860.701,146.946 861.9,141.923 863.099,370.956 864.297,161.803 865.496,162.724 866.695,344.233 867.894,188.866 869.093,126.825 870.291,490.877 871.49,185.957 872.689,145.865 873.888,150.064 875.087,153.886 876.286,168.67 877.484,186.232 878.683,184.062 879.882,164.052 881.081,172.503 882.28,129.158 883.479,345.069 884.677,157.403 885.876,569.808 887.075,142.154 888.274,176.149 889.473,183.025 890.672,349.707 891.87,490.391 893.069,366.303 894.268,164.361 895.467,145.454 896.666,175.338 897.864,358.032 899.063,349.232 900.262,144.134 901.461,154.524 902.66,464.545 903.859,171.783 905.057,368.384 906.256,124.791 907.455,182.818 908.654,364.522 909.853,500.408 911.052,557.553 912.25,132.042 913.449,158.045 914.648,153.036 915.847,325.701 917.046,419.264 918.244,155.938 919.443,158.478 920.642,160.158 921.841,165.653 923.04,161.086 924.239,172.85 925.437,164.432 926.636,157.129 927.835,166.695 929.034,151.273 930.233,327.404 931.432,323.778 932.63,138.1 933.829,327.453 935.028,154.779 936.227,162.368 937.426,167.732 938.624,178.533 939.823,179.507 941.022,512.781 942.221,164.174 943.42,163.457 944.619,181.187 945.817,426.523 947.016,348.628 948.215,445.796 949.414,550.708 950.613,443.393 951.812,345.235 953.01,176.097 954.209,148.945 955.408,371.964 956.607,541.644 957.806,389.265 959.004,360.787 960.203,526.87 961.402,550.602 962.601,359.098 963.8,159.073 964.999,165.106 966.197,168.994 967.396,534.233 968.595,376.65 969.794,478.971 970.993,457.955 972.192,409.615 973.39,499.472 974.589,577.757 975.788,381.398 976.987,410.536 978.186,163.598 979.384,167.64 980.583,169.419 981.782,168.785 982.981,551.98 984.18,146.408 985.379,155.406 986.577,152.85 987.776,146.383 988.975,154.851 990.174,162.522 991.373,543.252 992.572,159.618 993.77,493.423 994.969,164.675 996.168,152.437 997.367,153.295 998.566,169.278 999.764,337.966 1000.96,172.101 1002.16,153.086 1003.36,160.088 1004.56,161.851 1005.76,159.164 1006.96,141.793 1008.16,367.863 1009.36,567.645 1010.55,159.125 1011.75,159.201 1012.95,150.347 1014.15,159.919 1015.35,180.074 1016.55,350.876 1017.75,349.18 1018.95,491.262 1020.14,158.149 1021.34,157.767 1022.54,145.083 1023.74,516.961 1024.94,487.14 1026.14,165.354 1027.34,155.646 1028.54,168.529 1029.74,128.629 1030.93,162.538 1032.13,543.612 1033.33,350.429 1034.53,150.713 1035.73,176.622 1036.93,158.655 1038.13,176.966 1039.33,154.014 1040.52,348.043 1041.72,149.332 1042.92,161.364 1044.12,158.609 1045.32,356.783 1046.52,337.606 1047.72,151.684 1048.92,355.157 1050.12,143.073 1051.31,384.911 1052.51,157.057 1053.71,160.225 1054.91,151.894 1056.11,154.876 1057.31,345.886 1058.51,381.982 1059.71,167.494 1060.9,189.688 1062.1,153.63 1063.3,329.173 1064.5,144.521 1065.7,149.841 1066.9,155.027 1068.1,350.58 1069.3,349.711 1070.5,571.793 1071.69,352.303 1072.89,353.183 1074.09,353.004 1075.29,168.873 1076.49,338.98 1077.69,148.566 1078.89,163.391 1080.09,339.202 1081.28,435.859 1082.48,130.373 1083.68,338.835 1084.88,472.991 1086.08,152.014 1087.28,423.621 1088.48,153.416 1089.68,353.8 1090.88,146.013 1092.07,168.257 1093.27,181.826 1094.47,167.733 1095.67,162.977 1096.87,405.967 1098.07,144.159 1099.27,174.951 1100.47,540.653 1101.66,363.423 1102.86,157.012 1104.06,157.424 1105.26,354.125 1106.46,173.159 1107.66,329.919 1108.86,382.608 1110.06,159.115 1111.26,152.945 1112.45,355.069 1113.65,170.697 1114.85,151.661 1116.05,145.373 1117.25,338.097 1118.45,428.707 1119.65,401.884 1120.85,151.156 1122.04,152.221 1123.24,171.869 1124.44,379.057 1125.64,551.97 1126.84,343.627 1128.04,135.701 1129.24,146.511 1130.44,136.219 1131.64,452.833 1132.83,338.567 1134.03,348.736 1135.23,166.142 1136.43,350.393 1137.63,351.79 1138.83,374.69 1140.03,516.558 1141.23,481.985 1142.42,367.232 1143.62,347.466 1144.82,526.433 1146.02,152.839 1147.22,164.171 1148.42,179.845 1149.62,187.228 1150.82,373.698 1152.02,460.221 1153.21,176.71 1154.41,400.459 1155.61,389.327 1156.81,179.977 1158.01,133.234 1159.21,154.17 1160.41,171.42 1161.61,175.687 1162.8,332.256 1164,446.675 1165.2,180.05 1166.4,397.033 1167.6,176.287 1168.8,351.257 1170,382.937 1171.2,424.706 1172.4,355.658 1173.59,184.661 1174.79,569.983 1175.99,397.637 1177.19,408.391 1178.39,358.833 1179.59,387.657 1180.79,512.833 1181.99,559.062 1183.18,401.504 1184.38,188.278 1185.58,168.155 1186.78,440.974 1187.98,348.753 1189.18,178.96 1190.38,354.349 1191.58,468.421 1192.78,361.479 1193.97,359.594 1195.17,167.262 1196.37,358.619 1197.57,380.572 1198.77,193.189 1199.97,331.919 1201.17,350.389 1202.37,176.783 1203.56,160.671 1204.76,146.664 1205.96,368.489 1207.16,145.183 1208.36,344.223 1209.56,142.813 1210.76,169.326 1211.96,173.123 1213.16,401.008 1214.35,164.655 1215.55,141.56 1216.75,353 1217.95,539.54 1219.15,571.458 1220.35,168.923 1221.55,169.15 1222.75,155.359 1223.94,157.192 1225.14,340.603 1226.34,171.413 1227.54,335.978 1228.74,182.241 1229.94,182.863 1231.14,152.342 1232.34,474.988 1233.54,143.343 1234.73,403.436 1235.93,155.04 1237.13,153.58 1238.33,167.544 1239.53,353.143 1240.73,151.222 1241.93,131.73 1243.13,183.773 1244.32,182.052 1245.52,170.096 1246.72,138.939 1247.92,468.156 1249.12,338.919 1250.32,343.19 1251.52,337.564 1252.72,146.491 1253.92,156.217 1255.11,349.947 1256.31,522.021 1257.51,183.337 1258.71,139.804 1259.91,338.814 1261.11,185.753 1262.31,163.311 1263.51,358.34 1264.7,150.608 1265.9,327.106 1267.1,373.947 1268.3,340.786 1269.5,405.605 1270.7,360.915 1271.9,159.042 1273.1,468.677 1274.3,178.327 1275.49,132.741 1276.69,373.943 1277.89,459.74 1279.09,509.823 1280.29,168.364 1281.49,344.278 1282.69,143.581 1283.89,492.347 1285.08,368.821 1286.28,505.163 1287.48,151.027 1288.68,163.498 1289.88,159.387 1291.08,141.722 1292.28,556.699 1293.48,403.547 1294.68,541.151 1295.87,359.109 1297.07,160.971 1298.27,349.552 1299.47,150.536 1300.67,349.651 1301.87,158.381 1303.07,166.352 1304.27,344.737 1305.46,422.871 1306.66,161.48 1307.86,161.614 1309.06,151.824 1310.26,355.709 1311.46,352.679 1312.66,453.881 1313.86,151.453 1315.06,156.156 1316.25,157.128 1317.45,347.474 1318.65,368.154 1319.85,350.665 1321.05,141.643 1322.25,524.342 1323.45,516.36 1324.65,348.693 1325.84,167.188 1327.04,171.647 1328.24,349.47 1329.44,150.118 1330.64,163.757 1331.84,142.755 1333.04,166.972 1334.24,351.044 1335.44,452.794 1336.63,344.293 1337.83,376.937 1339.03,158.346 1340.23,359.448 1341.43,357.378 1342.63,326.123 1343.83,174.129 1345.03,146.751 1346.22,494.941 1347.42,362.836 1348.62,180.313 1349.82,171.459 1351.02,361.208 1352.22,339.7 1353.42,170.336 1354.62,358.065 1355.82,172.372 1357.01,360.703 1358.21,565.398 1359.41,164.465 1360.61,466.319 1361.81,576.005 1363.01,170.325 1364.21,341.268 1365.41,354.626 1366.6,347.905 1367.8,348.537 1369,156.909 1370.2,161.029 1371.4,493.429 1372.6,141.465 1373.8,144.652 1375,337.422 1376.2,470.893 1377.39,152.36 1378.59,172.33 1379.79,344.487 1380.99,356.495 1382.19,462.608 1383.39,429.324 1384.59,168.398 1385.79,150.367 1386.98,156.047 1388.18,143.205 1389.38,145.84 1390.58,160.792 1391.78,155.656 1392.98,148.639 1394.18,582.576 1395.38,154.943 1396.58,159.368 1397.77,193.651 1398.97,345.452 1400.17,170.135 1401.37,158.344 1402.57,165.226 1403.77,157.832 1404.97,364.332 1406.17,150.225 1407.36,168.581 1408.56,156.728 1409.76,151.343 1410.96,139.907 1412.16,347.25 1413.36,354.561 1414.56,142.546 1415.76,165.825 1416.96,545.501 1418.15,397.842 1419.35,348.769 1420.55,352.754 1421.75,340.32 1422.95,149.529 1424.15,147.092 1425.35,170.575 1426.55,157.678 1427.74,162.379 1428.94,161.232 1430.14,160.419 1431.34,164.385 1432.54,157.278 1433.74,162.372 1434.94,158.244 1436.14,375.543 1437.34,125.954 1438.53,339.456 1439.73,369.08 1440.93,181.57 1442.13,356.049 1443.33,150.681 1444.53,345.123 1445.73,151.376 1446.93,168.333 1448.12,156.781 1449.32,347.461 1450.52,157.363 1451.72,400.425 1452.92,156.334 1454.12,150.005 1455.32,158.394 1456.52,149.494 1457.72,350.353 1458.91,431.354 1460.11,177.803 1461.31,166.737 1462.51,420.858 1463.71,477.166 1464.91,150.577 1466.11,160.993 1467.31,139.117 1468.5,139.724 1469.7,169.483 1470.9,352.619 1472.1,131.888 1473.3,164.852 1474.5,440.458 1475.7,361.72 1476.9,369.885 1478.1,159.082 1479.29,139.659 1480.49,156.604 1481.69,348.25 1482.89,372.198 1484.09,168.826 1485.29,391.685 1486.49,133.919 1487.69,324.535 1488.88,152.174 1490.08,148.481 1491.28,173.027 1492.48,465.954 1493.68,356.801 1494.88,135.873 1496.08,331.42 1497.28,147.812 1498.48,154.791 1499.67,452.805 1500.87,181.984 1502.07,169.932 1503.27,173.629 1504.47,140.813 1505.67,362.905 1506.87,134.89 1508.07,180.793 1509.26,505.237 1510.46,151.922 1511.66,145.12 1512.86,179.158 1514.06,183.195 1515.26,331.861 1516.46,486.484 1517.66,168.097 1518.86,392.112 1520.05,176.931 1521.25,155.314 1522.45,164.434 1523.65,492.226 1524.85,345.564 1526.05,557.134 1527.25,341.72 1528.45,552.259 1529.64,163.556 1530.84,350.889 1532.04,150.813 1533.24,496.53 1534.44,381.152 1535.64,467.783 1536.84,339.27 1538.04,424.47 1539.24,142.934 1540.43,140.199 1541.63,162.255 1542.83,355.533 1544.03,164.692 1545.23,166.566 1546.43,155.752 1547.63,152.368 1548.83,361.264 1550.02,523.736 1551.22,480.036 1552.42,346.86 1553.62,151.849 1554.82,138.202 1556.02,437.36 1557.22,139.863 1558.42,174.467 1559.62,337.676 1560.81,404.674 1562.01,138.217 1563.21,532.342 1564.41,523.682 1565.61,141.785 1566.81,351.17 1568.01,336.248 1569.21,124.757 1570.4,409.178 1571.6,143.083 1572.8,155.554 1574,161.256 1575.2,366.965 1576.4,363.164 1577.6,154.8 1578.8,483.039 1580,342.154 1581.19,369.04 1582.39,457.956 1583.59,141.47 1584.79,169.924 1585.99,147.265 1587.19,133.567 1588.39,155.645 1589.59,170.393 1590.78,146.43 1591.98,430.412 1593.18,166.814 1594.38,352.808 1595.58,341.057 1596.78,530.403 1597.98,541.693 1599.18,526.772 1600.38,481.464 1601.57,354.024 1602.77,375.795 1603.97,540.121 1605.17,417.889 1606.37,343.282 1607.57,145.912 1608.77,538.623 1609.97,150.586 1611.16,153.173 1612.36,160.939 1613.56,163.399 1614.76,374.429 1615.96,174.149 1617.16,477.321 1618.36,420.369 1619.56,577.544 1620.76,163.965 1621.95,161.76 1623.15,141.539 1624.35,163.351 1625.55,346.194 1626.75,135.566 1627.95,143.843 1629.15,167.133 1630.35,493.624 1631.54,355.657 1632.74,569.371 1633.94,348.106 1635.14,356.824 1636.34,361.314 1637.54,345.734 1638.74,168.402 1639.94,154.953 1641.14,150.762 1642.33,539.989 1643.53,427.565 1644.73,141.696 1645.93,163.624 1647.13,146.299 1648.33,151.723 1649.53,342.16 1650.73,360.688 1651.92,354.54 1653.12,146.219 1654.32,453.178 1655.52,571.169 1656.72,144.126 1657.92,159.692 1659.12,335.281 1660.32,334.37 1661.52,518.52 1662.71,419.748 1663.91,164.668 1665.11,158.407 1666.31,158.53 1667.51,180.455 1668.71,130.832 1669.91,358.812 1671.11,171.301 1672.3,518.495 1673.5,344.58 1674.7,159.645 1675.9,154.733 1677.1,471.059 1678.3,138.777 1679.5,494.827 1680.7,145.616 1681.9,152.464 1683.09,160.432 1684.29,160.83 1685.49,348.534 1686.69,462.896 1687.89,146.052 1689.09,179.462 1690.29,159.79 1691.49,148.495 1692.68,485.075 1693.88,532.108 1695.08,568.655 1696.28,131.204 1697.48,162.962 1698.68,162.145 1699.88,157.156 1701.08,561.159 1702.28,384.974 1703.47,517.777 1704.67,409.911 1705.87,175.241 1707.07,444.865 1708.27,445.168 1709.47,169.417 1710.67,364.824 1711.87,343.941 1713.06,541.607 1714.26,144.855 1715.46,342.415 1716.66,139.447 1717.86,356.235 1719.06,369.625 1720.26,148.736 1721.46,151.209 1722.66,531.673 1723.85,493.387 1725.05,351.181 1726.25,553.721 1727.45,459.8 1728.65,158.268 1729.85,148.335 1731.05,478.349 1732.25,147.186 1733.44,149.779 1734.64,165.391 1735.84,370.158 1737.04,178.487 1738.24,154.873 1739.44,554.33 1740.64,455.603 1741.84,137.552 1743.04,175.254 1744.23,174.645 1745.43,182.769 1746.63,162.654 1747.83,161.508 1749.03,182.473 1750.23,132.237 1751.43,177.152 1752.63,156.262 1753.82,154.642 1755.02,171.245 1756.22,155.224 1757.42,351.213 1758.62,358.822 1759.82,156.202 1761.02,171.166 1762.22,347.739 1763.42,359.665 1764.61,144.863 1765.81,452.533 1767.01,131.796 1768.21,347.705 1769.41,168.379 1770.61,355.633 1771.81,168.887 1773.01,167.249 1774.2,128.156 1775.4,178.544 1776.6,156.517 1777.8,169.799 1779,158.645 1780.2,460.793 1781.4,154.881 1782.6,164.477 1783.8,357.468 1784.99,154.74 1786.19,149.954 1787.39,355.749 1788.59,390.048 1789.79,172.383 1790.99,163.901 1792.19,508.814 1793.39,174.355 1794.58,360.227 1795.78,167.121 1796.98,171.094 1798.18,514.501 1799.38,462.564 1800.58,178.792 1801.78,379.248 1802.98,155.022 1804.18,159.153 1805.37,161.304 1806.57,393.76 1807.77,175.358 1808.97,362.501 1810.17,347.624 1811.37,379.2 1812.57,510.182 1813.77,398.139 1814.96,371.005 1816.16,180.814 1817.36,165.695 1818.56,163.103 1819.76,151.467 1820.96,157.276 1822.16,338.21 1823.36,367.04 1824.56,354.756 1825.75,348.147 1826.95,177.911 1828.15,370.394 1829.35,427.691 1830.55,147.099 1831.75,357.944 1832.95,147.275 1834.15,406.568 1835.34,152.201 1836.54,334.72 1837.74,151.683 1838.94,545.599 1840.14,174.04 1841.34,541.968 1842.54,457.064 1843.74,558.692 1844.94,341.962 1846.13,160.029 1847.33,162.309 1848.53,359.198 1849.73,146.187 1850.93,490.992 1852.13,159.228 1853.33,141.802 1854.53,554.658 1855.72,150.176 1856.92,359.133 1858.12,572.316 1859.32,362.031 1860.52,340.776 1861.72,353.153 1862.92,147.456 1864.12,372.552 1865.32,144.75 1866.51,356.154 1867.71,421.059 1868.91,352.84 1870.11,128.258 1871.31,357.786 1872.51,363.957 1873.71,336.614 1874.91,153.962 1876.1,136.018 1877.3,171.681 1878.5,176.337 1879.7,357.184 1880.9,350.821 1882.1,472.033 1883.3,161.449 1884.5,149.64 1885.7,151.377 1886.89,356.148 1888.09,166.523 1889.29,393.017 1890.49,385.964 1891.69,171.656 1892.89,141.388 1894.09,371.035 1895.29,154.276 1896.48,130.805 1897.68,343.208 1898.88,429.127 1900.08,395.047 1901.28,423.895 1902.48,481.984 1903.68,422.691 1904.88,152.806 1906.08,158.824 1907.27,143.012 1908.47,374.491 1909.67,418.252 1910.87,350.404 1912.07,352.491 1913.27,176.314 1914.47,529.608 1915.67,166.681 1916.86,152.896 1918.06,171.129 1919.26,365.144 1920.46,136.196 1921.66,184.613 1922.86,404.641 1924.06,190.47 1925.26,392.969 1926.46,166.06 1927.65,340.544 1928.85,132.091 1930.05,186.948 1931.25,182.164 1932.45,149.528 1933.65,519.23 1934.85,461.348 1936.05,355.095 1937.24,357.175 1938.44,373.613 1939.64,149.963 1940.84,344.791 1942.04,155.921 1943.24,159.126 1944.44,156.183 1945.64,171.457 1946.84,153.79 1948.03,154.567 1949.23,178.684 1950.43,352.437 1951.63,403.789 1952.83,356.533 1954.03,527.15 1955.23,152.489 1956.43,146.891 1957.62,549.912 1958.82,348.651 1960.02,515.296 1961.22,150.85 1962.42,507.293 1963.62,179.974 1964.82,339.493 1966.02,560.676 1967.22,523.144 1968.41,150.836 1969.61,162.916 1970.81,146.287 1972.01,150.678 1973.21,159.857 1974.41,546.438 1975.61,154.805 1976.81,145.032 1978,164.224 1979.2,358.818 1980.4,179.552 1981.6,149.899 1982.8,159.614 1984,365.631 1985.2,159.686 1986.4,164.762 1987.6,150.09 1988.79,166.521 1989.99,131.175 1991.19,125.91 1992.39,330.685 1993.59,163.112 1994.79,338.741 1995.99,157.818 1997.19,133.573 1998.38,144.796 1999.58,156.344 2000.78,157.637 2001.98,172.501 2003.18,334.488 2004.38,543.116 2005.58,148.977 2006.78,327.651 2007.98,162.122 2009.17,151.12 2010.37,368.892 2011.57,134.821 2012.77,417.326 2013.97,433.161 2015.17,527.371 2016.37,403.725 2017.57,332.117 2018.76,356.804 2019.96,145.237 2021.16,362.286 2022.36,371.057 2023.56,151.339 2024.76,171.997 2025.96,151.517 2027.16,477.881 2028.36,158.82 2029.55,396.801 2030.75,337.266 2031.95,552.636 2033.15,160.424 2034.35,337.782 2035.55,407.781 2036.75,167.547 2037.95,176.229 2039.14,157.137 2040.34,162.834 2041.54,345.845 2042.74,441.435 2043.94,154.403 2045.14,573.509 2046.34,470.109 2047.54,547.532 2048.74,174.11 2049.93,170.124 2051.13,157.749 2052.33,366.643 2053.53,516.693 2054.73,541.907 2055.93,162 2057.13,166.029 2058.33,168.424 2059.52,156.543 2060.72,149.453 2061.92,457.632 2063.12,429.836 2064.32,334.421 2065.52,449.751 2066.72,399.304 2067.92,363.394 2069.12,452.719 2070.31,501.434 2071.51,163.732 2072.71,156.077 2073.91,152.531 2075.11,144.877 2076.31,153.252 2077.51,422.629 2078.71,166.9 2079.9,474.369 2081.1,363.725 2082.3,561.192 2083.5,159.885 2084.7,159.664 2085.9,536.853 2087.1,456.776 2088.3,158.569 2089.5,491.109 2090.69,183.588 2091.89,380.129 2093.09,172.99 2094.29,508.704 2095.49,353.714 2096.69,175.262 2097.89,487.244 2099.09,201.74 2100.28,159.843 2101.48,155.855 2102.68,160.968 2103.88,156.091 2105.08,160.473 2106.28,357.235 2107.48,412.819 2108.68,146.385 2109.88,172.612 2111.07,157.117 2112.27,161.502 2113.47,393.197 2114.67,170.078 2115.87,458.244 2117.07,134.501 2118.27,135.447 2119.47,185.816 2120.66,149.67 2121.86,174.026 2123.06,158.645 2124.26,162.676 2125.46,159.101 2126.66,157.45 2127.86,333.67 2129.06,486.295 2130.26,347.997 2131.45,369.098 2132.65,155.554 2133.85,460.809 2135.05,176.891 2136.25,170.413 2137.45,342.789 2138.65,558.29 2139.85,151.846 2141.04,359.375 2142.24,165.872 2143.44,168.621 2144.64,329.244 2145.84,145.599 2147.04,576.869 2148.24,142.881 2149.44,181.953 2150.64,408.335 2151.83,370.315 2153.03,155.745 2154.23,162.706 2155.43,338.361 2156.63,345.269 2157.83,332.32 2159.03,370.128 2160.23,186.696 2161.42,123.153 2162.62,143.442 2163.82,170.178 2165.02,154.248 2166.22,422.753 2167.42,160.082 2168.62,393.847 2169.82,152.107 2171.02,364.716 2172.21,339.427 2173.41,142.161 2174.61,405.205 2175.81,155.315 2177.01,156.604 2178.21,348.431 2179.41,167.976 2180.61,343.361 2181.8,150.707 2183,137.057 2184.2,166.459 2185.4,166.687 2186.6,162.534 2187.8,146.278 2189,170.862 2190.2,538.222 2191.4,157.315 2192.59,144.922 2193.79,341.591 2194.99,175.64 2196.19,388.08 2197.39,445.234 2198.59,160.713 2199.79,528.661 2200.99,400.751 2202.18,356.173 2203.38,568.767 2204.58,141.563 2205.78,344.317 2206.98,145.752 2208.18,156.243 2209.38,148.456 2210.58,414.016 2211.78,384.958 2212.97,139.569 2214.17,501.457 2215.37,568.902 2216.57,361.389 2217.77,523.3 2218.97,376.17 2220.17,511.837 2221.37,474.655 2222.56,499.352 2223.76,180.768 2224.96,453.095 2226.16,153.052 2227.36,153.319 2228.56,156.923 2229.76,325.816 2230.96,360.43 2232.16,161.724 2233.35,167.849 2234.55,169.814 2235.75,172.104 2236.95,464.145 2238.15,155.959 2239.35,168.305 2240.55,481.043 2241.75,482.315 2242.94,141.818 2244.14,339.068 2245.34,347.724 2246.54,197.674 2247.74,375.04 2248.94,139.318 2250.14,148.256 2251.34,174.512 2252.54,167.571 2253.73,168.282 2254.93,157.594 2256.13,324.916 2257.33,339.161 2258.53,355.576 2259.73,494.691 2260.93,339.127 2262.13,148.541 2263.32,347.928 2264.52,376.754 2265.72,173.784 2266.92,413.042 2268.12,174.382 2269.32,148.518 2270.52,400.379 2271.72,144.828 2272.92,168.763 2274.11,155.691 2275.31,153.22 2276.51,155.484 2277.71,161.088 2278.91,355.795 2280.11,367.111 2281.31,353.901 2282.51,351.484 2283.7,358.38 2284.9,184.613 2286.1,474.595 2287.3,347.372 2288.5,169.761 2289.7,504.726 2290.9,450.787 2292.1,168.964 2293.3,495.073 2294.49,362.276 2295.69,170.418 2296.89,174.116 2298.09,155.293 2299.29,164.964 2300.49,331.429 2301.69,177.861 2302.89,339.214 2304.08,168.385 2305.28,353.69 2306.48,177.749 2307.68,144.215 2308.88,162.406 2310.08,151.489 2311.28,360.292 2312.48,372.586 2313.68,513.876 2314.87,502.642 2316.07,544.408 2317.27,162.833 2318.47,160.286 2319.67,143.269 2320.87,528.868 2322.07,339.87 2323.27,573.321 2324.46,427.099 2325.66,380.85 2326.86,136.949 2328.06,375.966 2329.26,150.606 2330.46,188.8 2331.66,137.972 2332.86,342.053 2334.06,344.035 2335.25,536.292 2336.45,360.367 2337.65,351.974 2338.85,174.893 2340.05,166.66 2341.25,148.896 2342.45,156.813 2343.65,160.279 2344.84,179.961 2346.04,391.963 2347.24,370.067 2348.44,142.777 2349.64,129.916 2350.84,178.693 2352.04,558.293 2353.24,360.494 2354.44,172.4 2355.63,154.344 2356.83,159.083 2358.03,150.826 2359.23,153.768 2360.43,378.79 2361.63,369.573 2362.83,174.156 2364.03,162.07 2365.22,172.892 2366.42,147.712 2367.62,154.835 2368.82,155.287 2370.02,177.131 2371.22,167.223 2372.42,157.006 2373.62,164.878 2374.82,339.904 2376.01,167.623 2377.21,149.491 2378.41,168.622 2379.61,160.904 2380.81,381.469 2382.01,366.939 2383.21,371.527 2384.41,383.091 2385.6,177.812 2386.8,157.099 2388,546.24 2389.2,338.616 2390.4,375.194 2391.6,170.684 2392.8,147.745 2394,466.394 2395.2,162.755 2396.39,362.27 2397.59,487.541 2398.79,469.893 2399.99,186.375 2401.19,358.442 2402.39,358.681 2403.59,328.342 2404.79,138.096 2405.98,395.908 2407.18,355.672 2408.38,529.379 2409.58,518.148 2410.78,351.759 2411.98,354.774 2413.18,143.34 2414.38,169.478 2415.58,170.194 2416.77,134.816 2417.97,185.432 2419.17,184.037 2420.37,171.054 2421.57,154.213 2422.77,375.037 2423.97,149.76 2425.17,174.808 2426.36,356.633 2427.56,394.184 2428.76,139.307 2429.96,357.54 2431.16,170.871 2432.36,161.896 2433.56,152.081 2434.76,169.198 2435.96,387.16 2437.15,139.739 2438.35,579.825 2439.55,162.598 2440.75,374.416 2441.95,481.254 2443.15,355.884 2444.35,156.658 2445.55,397.223 2446.74,141.443 2447.94,361.123 2449.14,177.643 2450.34,375.959 2451.54,155.74 2452.74,173.966 2453.94,171.193 2455.14,476.085 2456.34,570.86 2457.53,156.986 2458.73,146.994 2459.93,451.353 2461.13,352.492 2462.33,123.569 2463.53,198.74 2464.73,500.709 2465.93,143.811 2467.12,357.211 2468.32,462.443 2469.52,179.522 2470.72,485.748 2471.92,438.739 2473.12,504.728 2474.32,359.946 2475.52,140.078 2476.72,449.236 2477.91,156.247 2479.11,447.765 2480.31,366.43 2481.51,486.977 2482.71,361.999 2483.91,551.101 2485.11,359.982 2486.31,382.603 2487.5,443.29 2488.7,367.939 2489.9,453.759 2491.1,501.621 2492.3,173.409 2493.5,155.311 2494.7,158.167 2495.9,166.01 2497.1,416.467 2498.29,379.509 2499.49,450.974 2500.69,469.81 2501.89,500.923 2503.09,343.507 2504.29,339.466 2505.49,163.481 2506.69,167.515 2507.88,184.03 2509.08,172.756 2510.28,162.372 2511.48,163.655 2512.68,320.287 2513.88,149.38 2515.08,460.408 2516.28,148.728 2517.48,155.143 2518.67,152.636 2519.87,155.333 2521.07,151.67 2522.27,147.577 2523.47,351.949 2524.67,158.477 2525.87,154.001 2527.07,338.591 2528.26,362.914 2529.46,361.418 2530.66,338.752 2531.86,513.946 2533.06,520.867 2534.26,356.473 2535.46,157.023 2536.66,346.658 2537.86,341.849 2539.05,150.997 2540.25,386.168 2541.45,357.917 2542.65,347.48 2543.85,349.118 2545.05,360.28 2546.25,171.165 2547.45,490.829 2548.64,529.711 2549.84,412.647 2551.04,421.059 2552.24,393.241 2553.44,513.946 2554.64,154.445 2555.84,160.171 2557.04,156.729 2558.24,160.563 2559.43,156.417 2560.63,174.131 2561.83,147.117 2563.03,362.998 2564.23,129.871 2565.43,154.881 2566.63,345.151 2567.83,147.742 2569.02,147.98 2570.22,330.433 2571.42,151.826 2572.62,147.242 2573.82,132.089 2575.02,468.35 2576.22,348.369 2577.42,367.174 2578.62,151.25 2579.81,160.691 2581.01,148.71 2582.21,178.858 2583.41,142.261 2584.61,172.279 2585.81,146.964 2587.01,174.206 2588.21,506.743 2589.4,442.341 2590.6,517.038 2591.8,380.557 2593,146.657 2594.2,179.27 2595.4,176.56 2596.6,154.924 2597.8,152.707 2599,164.681 2600.19,143.433 2601.39,494.578 2602.59,358.072 2603.79,500.182 2604.99,143.637 2606.19,337.877 2607.39,407.341 2608.59,162.178 2609.78,399.283 2610.98,141.696 2612.18,437.22 2613.38,523.399 2614.58,362.336 2615.78,147.928 2616.98,358.504 2618.18,342.958 2619.38,143.878 2620.57,152.47 2621.77,141.274 2622.97,141.931 2624.17,160.049 2625.37,458.494 2626.57,344.634 2627.77,527.502 2628.97,474.449 2630.16,365.795 2631.36,166.282 2632.56,357.742 2633.76,138.994 2634.96,138.118 2636.16,172.661 2637.36,370.029 2638.56,345.649 2639.76,179.389 2640.95,152.073 2642.15,452.109 2643.35,482.447 2644.55,531.502 2645.75,356.392 2646.95,366.991 2648.15,139.44 2649.35,530.759 2650.54,169.056 2651.74,146.952 2652.94,368.609 2654.14,151.217 2655.34,140.399 2656.54,331.587 2657.74,153.201 2658.94,173.854 2660.14,173.264 2661.33,347.22 2662.53,344.148 2663.73,367.811 2664.93,346.393 2666.13,353.566 2667.33,384.755 2668.53,162.066 2669.73,140.297 2670.92,162.603 2672.12,162.497 2673.32,149.546 2674.52,175.586 2675.72,155.617 2676.92,150.786 2678.12,366.251 2679.32,371.913 2680.52,149.839 2681.71,146.825 2682.91,152.446 2684.11,159.892 2685.31,360.377 2686.51,143.234 2687.71,450.884 2688.91,372.904 2690.11,524.824 2691.3,349.742 2692.5,355.548 2693.7,168.385 2694.9,376.161 2696.1,154.617 2697.3,160.258 2698.5,142.032 2699.7,467.663 2700.9,150.667 2702.09,172.96 2703.29,163.48 2704.49,159.6 2705.69,166.25 2706.89,531.746 2708.09,140.467 2709.29,143.537 2710.49,368.133 2711.68,479.982 2712.88,534.614 2714.08,153.239 2715.28,150.029 2716.48,370.111 2717.68,363.294 2718.88,417.957 2720.08,440.742 2721.28,527.376 2722.47,534.457 2723.67,360.42 2724.87,375.663 2726.07,160.675 2727.27,158.465 2728.47,168.31 2729.67,200.415 2730.87,407.705 2732.06,364.814 2733.26,362.47 2734.46,160.902 2735.66,352.829 2736.86,151.986 2738.06,350.181 2739.26,175.614 2740.46,147.061 2741.66,423.017 2742.85,354.441 2744.05,439.461 2745.25,347.835 2746.45,149.742 2747.65,146.302 2748.85,344.725 2750.05,509.642 2751.25,475.328 2752.44,168.681 2753.64,348.65 2754.84,173.535 2756.04,150.69 2757.24,159.222 2758.44,152.605 2759.64,442.146 2760.84,429.835 2762.04,156.335 2763.23,365.585 2764.43,413.104 2765.63,516.505 2766.83,519.372 2768.03,170.664 2769.23,163.747 2770.43,542.009 2771.63,372.885 2772.82,151.277 2774.02,158.413 2775.22,161.237 2776.42,174.52 2777.62,164.007 2778.82,132.077 2780.02,148.857 2781.22,163.227 2782.42,350.277 2783.61,360.024 2784.81,135.486 2786.01,331.209 2787.21,540.38 2788.41,167.414 2789.61,363.946 2790.81,152.434 2792.01,368.84 2793.2,475.195 2794.4,390.994 2795.6,139.446 2796.8,152.705 2798,160.459 2799.2,158.487 2800.4,538.605 2801.6,159.737 2802.8,148.007 2803.99,161.4 2805.19,124.027 2806.39,156.022 2807.59,138.664 2808.79,348.954 2809.99,498.54 2811.19,179.958 2812.39,168.563 2813.58,157.086 2814.78,151.531 2815.98,154.709 2817.18,366.995 2818.38,443.216 2819.58,582.804 2820.78,360.486 2821.98,366.983 2823.18,538.069 2824.37,536.565 2825.57,365.894 2826.77,352.14 2827.97,360.355 2829.17,388.57 2830.37,162.198 2831.57,575.918 2832.77,522.959 2833.96,160.749 2835.16,512.929 2836.36,361.688 2837.56,338.84 2838.76,178.372 2839.96,140.786 2841.16,176.719 2842.36,157.362 2843.56,160.092 2844.75,332.349 2845.95,172.134 2847.15,490.839 2848.35,358.842 2849.55,164.61 2850.75,444.131 2851.95,433.401 2853.15,180.826 2854.34,362.544 2855.54,336.143 2856.74,564.689 2857.94,363.025 2859.14,156.016 2860.34,172.753 2861.54,152.903 2862.74,451.135 2863.94,370.295 2865.13,180.625 2866.33,144.606 2867.53,149.414 2868.73,171.018 2869.93,168.523 2871.13,149.414 2872.33,524.567 2873.53,510.314 2874.72,527.035 2875.92,154.96 2877.12,160.288 2878.32,356.164 2879.52,167.863 2880.72,395.567 2881.92,481.586 2883.12,156.232 2884.32,158.794 2885.51,161.116 2886.71,474.242 2887.91,534.262 2889.11,355.036 2890.31,155.984 2891.51,185.416 2892.71,148.556 2893.91,131.082 2895.1,181.152 2896.3,544.279 2897.5,140.362 2898.7,553.954 2899.9,133.382 2901.1,345.054 2902.3,534.526 2903.5,462.691 2904.7,424.885 2905.89,165.108 2907.09,166.404 2908.29,524.257 2909.49,156.692 2910.69,146.762 2911.89,507.797 2913.09,133.454 2914.29,160.676 2915.48,372.206 2916.68,368.776 2917.88,430.33 2919.08,153.965 2920.28,153.768 2921.48,363.893 2922.68,370.106 2923.88,424.61 2925.08,500.784 2926.27,372.168 2927.47,381.108 2928.67,177.099 2929.87,167.944 2931.07,165.81 2932.27,127.03 2933.47,162.362 2934.67,343.374 2935.86,132.94 2937.06,353.565 2938.26,569.904 2939.46,526.157 2940.66,534.69 2941.86,459.916 2943.06,173.246 2944.26,157.49 2945.46,162.913 2946.65,352.405 2947.85,156.791 2949.05,365.905 2950.25,359.067 2951.45,350.905 2952.65,342.448 2953.85,134.326 2955.05,354.658 2956.24,381.364 2957.44,444.813 2958.64,540.384 2959.84,347.802 2961.04,518.15 2962.24,469.996 2963.44,410.995 2964.64,146.341 2965.84,430.405 2967.03,444.44 2968.23,408.136 2969.43,131.93 2970.63,141.264 2971.83,172.008 2973.03,506.992 2974.23,173.802 2975.43,553.208 2976.62,151.666 2977.82,433.179 2979.02,357.83 2980.22,155.192 2981.42,152.95 2982.62,145.792 2983.82,166.238 2985.02,139.855 2986.22,476.581 2987.41,154.014 2988.61,579.991 2989.81,495.188 2991.01,336.785 2992.21,552.738 2993.41,170.929 2994.61,339.619 2995.81,467.108 2997,137.352 2998.2,328.054 2999.4,342.17 3000.6,178.926 3001.8,373.161 3003,362.659 3004.2,388.573 3005.4,364.787 3006.6,168.238 3007.79,339.284 3008.99,506.665 3010.19,134.7 3011.39,156.965 3012.59,142.753 3013.79,152.243 3014.99,348.574 3016.19,362.745 3017.38,381.92 3018.58,170.64 3019.78,504.701 3020.98,358.991 3022.18,541.472 3023.38,454.114 3024.58,168.196 3025.78,145.518 3026.98,357.347 3028.17,146.265 3029.37,356.956 3030.57,351.306 3031.77,496.564 3032.97,169.583 3034.17,165.461 3035.37,144.396 3036.57,341.889 3037.76,142.847 3038.96,454.914 3040.16,201.279 3041.36,346.391 3042.56,345.696 3043.76,354.906 3044.96,358.432 3046.16,396.809 3047.36,567.276 3048.55,160.685 3049.75,347.264 3050.95,334.066 3052.15,193.864 3053.35,171.224 3054.55,142.217 3055.75,343.894 3056.95,429.59 3058.14,353.06 3059.34,538.787 3060.54,366.229 3061.74,163.795 3062.94,158.113 3064.14,170.496 3065.34,448.139 3066.54,365.929 3067.74,409.25 "/>
<path clip-path="url(#clip860)" d="M2570.27 693.754 L3052.62 693.754 L3052.62 590.074 L2570.27 590.074  Z" fill="#ffffff" fill-rule="evenodd" fill-opacity="1"/>
<polyline clip-path="url(#clip860)" style="stroke:#000000; stroke-linecap:round; stroke-linejoin:round; stroke-width:4; stroke-opacity:1; fill:none" points="2570.27,693.754 3052.62,693.754 3052.62,590.074 2570.27,590.074 2570.27,693.754 "/>
<polyline clip-path="url(#clip860)" style="stroke:#009af9; stroke-linecap:round; stroke-linejoin:round; stroke-width:2; stroke-opacity:1; fill:none" points="2603.65,641.914 2803.92,641.914 "/>
<path clip-path="url(#clip860)" d="M2853.69 642.991 Q2855.19 643.5 2856.6 645.167 Q2858.04 646.833 2859.47 649.75 L2864.22 659.194 L2859.2 659.194 L2854.78 650.329 Q2853.06 646.857 2851.44 645.722 Q2849.84 644.588 2847.07 644.588 L2841.97 644.588 L2841.97 659.194 L2837.3 659.194 L2837.3 624.634 L2847.85 624.634 Q2853.78 624.634 2856.7 627.111 Q2859.61 629.588 2859.61 634.588 Q2859.61 637.852 2858.09 640.005 Q2856.58 642.157 2853.69 642.991 M2841.97 628.477 L2841.97 640.745 L2847.85 640.745 Q2851.23 640.745 2852.95 639.195 Q2854.68 637.62 2854.68 634.588 Q2854.68 631.556 2852.95 630.028 Q2851.23 628.477 2847.85 628.477 L2841.97 628.477 Z" fill="#000000" fill-rule="evenodd" fill-opacity="1" /><path clip-path="url(#clip860)" d="M2879.87 629.241 L2873.53 646.44 L2886.23 646.44 L2879.87 629.241 M2877.23 624.634 L2882.53 624.634 L2895.7 659.194 L2890.84 659.194 L2887.69 650.329 L2872.11 650.329 L2868.97 659.194 L2864.03 659.194 L2877.23 624.634 Z" fill="#000000" fill-rule="evenodd" fill-opacity="1" /><path clip-path="url(#clip860)" d="M2897.37 644.31 L2909.84 644.31 L2909.84 648.107 L2897.37 648.107 L2897.37 644.31 Z" fill="#000000" fill-rule="evenodd" fill-opacity="1" /><path clip-path="url(#clip860)" d="M2916.81 624.634 L2921.49 624.634 L2921.49 638.801 L2938.48 638.801 L2938.48 624.634 L2943.15 624.634 L2943.15 659.194 L2938.48 659.194 L2938.48 642.736 L2921.49 642.736 L2921.49 659.194 L2916.81 659.194 L2916.81 624.634 Z" fill="#000000" fill-rule="evenodd" fill-opacity="1" /><path clip-path="url(#clip860)" d="M2952.46 624.634 L2959.43 624.634 L2968.25 648.153 L2977.11 624.634 L2984.08 624.634 L2984.08 659.194 L2979.52 659.194 L2979.52 628.847 L2970.61 652.551 L2965.91 652.551 L2957 628.847 L2957 659.194 L2952.46 659.194 L2952.46 624.634 Z" fill="#000000" fill-rule="evenodd" fill-opacity="1" /><path clip-path="url(#clip860)" d="M3019.24 627.296 L3019.24 632.227 Q3016.88 630.028 3014.2 628.94 Q3011.53 627.852 3008.52 627.852 Q3002.6 627.852 2999.45 631.486 Q2996.3 635.097 2996.3 641.949 Q2996.3 648.778 2999.45 652.412 Q3002.6 656.023 3008.52 656.023 Q3011.53 656.023 3014.2 654.935 Q3016.88 653.847 3019.24 651.648 L3019.24 656.532 Q3016.79 658.199 3014.03 659.032 Q3011.3 659.866 3008.25 659.866 Q3000.4 659.866 2995.89 655.074 Q2991.37 650.259 2991.37 641.949 Q2991.37 633.616 2995.89 628.824 Q3000.4 624.009 3008.25 624.009 Q3011.35 624.009 3014.08 624.843 Q3016.83 625.653 3019.24 627.296 Z" fill="#000000" fill-rule="evenodd" fill-opacity="1" /></svg>
