<?xml version="1.0" encoding="utf-8"?>
<svg xmlns="http://www.w3.org/2000/svg" xmlns:xlink="http://www.w3.org/1999/xlink" width="800" height="200" viewBox="0 0 3200 800">
<defs>
  <clipPath id="clip960">
    <rect x="0" y="0" width="3200" height="800"/>
  </clipPath>
</defs>
<path clip-path="url(#clip960)" d="M0 800 L3200 800 L3200 0 L0 0  Z" fill="#ffffff" fill-rule="evenodd" fill-opacity="1"/>
<defs>
  <clipPath id="clip961">
    <rect x="640" y="0" width="2241" height="800"/>
  </clipPath>
</defs>
<path clip-path="url(#clip960)" d="M148.696 716.048 L3152.76 716.048 L3152.76 47.2441 L148.696 47.2441  Z" fill="#ffffff" fill-rule="evenodd" fill-opacity="1"/>
<defs>
  <clipPath id="clip962">
    <rect x="148" y="47" width="3005" height="670"/>
  </clipPath>
</defs>
<polyline clip-path="url(#clip962)" style="stroke:#000000; stroke-linecap:round; stroke-linejoin:round; stroke-width:2; stroke-opacity:0.1; fill:none" points="232.826,716.048 232.826,47.2441 "/>
<polyline clip-path="url(#clip962)" style="stroke:#000000; stroke-linecap:round; stroke-linejoin:round; stroke-width:2; stroke-opacity:0.1; fill:none" points="1122.91,716.048 1122.91,47.2441 "/>
<polyline clip-path="url(#clip962)" style="stroke:#000000; stroke-linecap:round; stroke-linejoin:round; stroke-width:2; stroke-opacity:0.1; fill:none" points="2012.99,716.048 2012.99,47.2441 "/>
<polyline clip-path="url(#clip962)" style="stroke:#000000; stroke-linecap:round; stroke-linejoin:round; stroke-width:2; stroke-opacity:0.1; fill:none" points="2903.07,716.048 2903.07,47.2441 "/>
<polyline clip-path="url(#clip960)" style="stroke:#000000; stroke-linecap:round; stroke-linejoin:round; stroke-width:4; stroke-opacity:1; fill:none" points="148.696,716.048 3152.76,716.048 "/>
<polyline clip-path="url(#clip960)" style="stroke:#000000; stroke-linecap:round; stroke-linejoin:round; stroke-width:4; stroke-opacity:1; fill:none" points="232.826,716.048 232.826,697.15 "/>
<polyline clip-path="url(#clip960)" style="stroke:#000000; stroke-linecap:round; stroke-linejoin:round; stroke-width:4; stroke-opacity:1; fill:none" points="1122.91,716.048 1122.91,697.15 "/>
<polyline clip-path="url(#clip960)" style="stroke:#000000; stroke-linecap:round; stroke-linejoin:round; stroke-width:4; stroke-opacity:1; fill:none" points="2012.99,716.048 2012.99,697.15 "/>
<polyline clip-path="url(#clip960)" style="stroke:#000000; stroke-linecap:round; stroke-linejoin:round; stroke-width:4; stroke-opacity:1; fill:none" points="2903.07,716.048 2903.07,697.15 "/>
<path clip-path="url(#clip960)" d="M232.826 753.367 Q229.215 753.367 227.386 756.931 Q225.581 760.473 225.581 767.603 Q225.581 774.709 227.386 778.274 Q229.215 781.815 232.826 781.815 Q236.46 781.815 238.266 778.274 Q240.095 774.709 240.095 767.603 Q240.095 760.473 238.266 756.931 Q236.46 753.367 232.826 753.367 M232.826 749.663 Q238.636 749.663 241.692 754.269 Q244.77 758.853 244.77 767.603 Q244.77 776.329 241.692 780.936 Q238.636 785.519 232.826 785.519 Q227.016 785.519 223.937 780.936 Q220.882 776.329 220.882 767.603 Q220.882 758.853 223.937 754.269 Q227.016 749.663 232.826 749.663 Z" fill="#000000" fill-rule="evenodd" fill-opacity="1" /><path clip-path="url(#clip960)" d="M1067.43 780.913 L1075.07 780.913 L1075.07 754.547 L1066.76 756.214 L1066.76 751.955 L1075.03 750.288 L1079.7 750.288 L1079.7 780.913 L1087.34 780.913 L1087.34 784.848 L1067.43 784.848 L1067.43 780.913 Z" fill="#000000" fill-rule="evenodd" fill-opacity="1" /><path clip-path="url(#clip960)" d="M1106.78 753.367 Q1103.17 753.367 1101.35 756.931 Q1099.54 760.473 1099.54 767.603 Q1099.54 774.709 1101.35 778.274 Q1103.17 781.815 1106.78 781.815 Q1110.42 781.815 1112.22 778.274 Q1114.05 774.709 1114.05 767.603 Q1114.05 760.473 1112.22 756.931 Q1110.42 753.367 1106.78 753.367 M1106.78 749.663 Q1112.6 749.663 1115.65 754.269 Q1118.73 758.853 1118.73 767.603 Q1118.73 776.329 1115.65 780.936 Q1112.6 785.519 1106.78 785.519 Q1100.97 785.519 1097.9 780.936 Q1094.84 776.329 1094.84 767.603 Q1094.84 758.853 1097.9 754.269 Q1100.97 749.663 1106.78 749.663 Z" fill="#000000" fill-rule="evenodd" fill-opacity="1" /><path clip-path="url(#clip960)" d="M1136.95 753.367 Q1133.34 753.367 1131.51 756.931 Q1129.7 760.473 1129.7 767.603 Q1129.7 774.709 1131.51 778.274 Q1133.34 781.815 1136.95 781.815 Q1140.58 781.815 1142.39 778.274 Q1144.22 774.709 1144.22 767.603 Q1144.22 760.473 1142.39 756.931 Q1140.58 753.367 1136.95 753.367 M1136.95 749.663 Q1142.76 749.663 1145.81 754.269 Q1148.89 758.853 1148.89 767.603 Q1148.89 776.329 1145.81 780.936 Q1142.76 785.519 1136.95 785.519 Q1131.14 785.519 1128.06 780.936 Q1125 776.329 1125 767.603 Q1125 758.853 1128.06 754.269 Q1131.14 749.663 1136.95 749.663 Z" fill="#000000" fill-rule="evenodd" fill-opacity="1" /><path clip-path="url(#clip960)" d="M1167.11 753.367 Q1163.5 753.367 1161.67 756.931 Q1159.86 760.473 1159.86 767.603 Q1159.86 774.709 1161.67 778.274 Q1163.5 781.815 1167.11 781.815 Q1170.74 781.815 1172.55 778.274 Q1174.38 774.709 1174.38 767.603 Q1174.38 760.473 1172.55 756.931 Q1170.74 753.367 1167.11 753.367 M1167.11 749.663 Q1172.92 749.663 1175.97 754.269 Q1179.05 758.853 1179.05 767.603 Q1179.05 776.329 1175.97 780.936 Q1172.92 785.519 1167.11 785.519 Q1161.3 785.519 1158.22 780.936 Q1155.16 776.329 1155.16 767.603 Q1155.16 758.853 1158.22 754.269 Q1161.3 749.663 1167.11 749.663 Z" fill="#000000" fill-rule="evenodd" fill-opacity="1" /><path clip-path="url(#clip960)" d="M1961.6 780.913 L1977.92 780.913 L1977.92 784.848 L1955.98 784.848 L1955.98 780.913 Q1958.64 778.158 1963.22 773.528 Q1967.83 768.876 1969.01 767.533 Q1971.25 765.01 1972.13 763.274 Q1973.04 761.515 1973.04 759.825 Q1973.04 757.07 1971.09 755.334 Q1969.17 753.598 1966.07 753.598 Q1963.87 753.598 1961.42 754.362 Q1958.98 755.126 1956.21 756.677 L1956.21 751.955 Q1959.03 750.82 1961.48 750.242 Q1963.94 749.663 1965.98 749.663 Q1971.35 749.663 1974.54 752.348 Q1977.73 755.033 1977.73 759.524 Q1977.73 761.654 1976.92 763.575 Q1976.14 765.473 1974.03 768.066 Q1973.45 768.737 1970.35 771.954 Q1967.25 775.149 1961.6 780.913 Z" fill="#000000" fill-rule="evenodd" fill-opacity="1" /><path clip-path="url(#clip960)" d="M1997.73 753.367 Q1994.12 753.367 1992.29 756.931 Q1990.49 760.473 1990.49 767.603 Q1990.49 774.709 1992.29 778.274 Q1994.12 781.815 1997.73 781.815 Q2001.37 781.815 2003.17 778.274 Q2005 774.709 2005 767.603 Q2005 760.473 2003.17 756.931 Q2001.37 753.367 1997.73 753.367 M1997.73 749.663 Q2003.54 749.663 2006.6 754.269 Q2009.68 758.853 2009.68 767.603 Q2009.68 776.329 2006.6 780.936 Q2003.54 785.519 1997.73 785.519 Q1991.92 785.519 1988.85 780.936 Q1985.79 776.329 1985.79 767.603 Q1985.79 758.853 1988.85 754.269 Q1991.92 749.663 1997.73 749.663 Z" fill="#000000" fill-rule="evenodd" fill-opacity="1" /><path clip-path="url(#clip960)" d="M2027.9 753.367 Q2024.29 753.367 2022.46 756.931 Q2020.65 760.473 2020.65 767.603 Q2020.65 774.709 2022.46 778.274 Q2024.29 781.815 2027.9 781.815 Q2031.53 781.815 2033.34 778.274 Q2035.16 774.709 2035.16 767.603 Q2035.16 760.473 2033.34 756.931 Q2031.53 753.367 2027.9 753.367 M2027.9 749.663 Q2033.71 749.663 2036.76 754.269 Q2039.84 758.853 2039.84 767.603 Q2039.84 776.329 2036.76 780.936 Q2033.71 785.519 2027.9 785.519 Q2022.09 785.519 2019.01 780.936 Q2015.95 776.329 2015.95 767.603 Q2015.95 758.853 2019.01 754.269 Q2022.09 749.663 2027.9 749.663 Z" fill="#000000" fill-rule="evenodd" fill-opacity="1" /><path clip-path="url(#clip960)" d="M2058.06 753.367 Q2054.45 753.367 2052.62 756.931 Q2050.81 760.473 2050.81 767.603 Q2050.81 774.709 2052.62 778.274 Q2054.45 781.815 2058.06 781.815 Q2061.69 781.815 2063.5 778.274 Q2065.33 774.709 2065.33 767.603 Q2065.33 760.473 2063.5 756.931 Q2061.69 753.367 2058.06 753.367 M2058.06 749.663 Q2063.87 749.663 2066.92 754.269 Q2070 758.853 2070 767.603 Q2070 776.329 2066.92 780.936 Q2063.87 785.519 2058.06 785.519 Q2052.25 785.519 2049.17 780.936 Q2046.11 776.329 2046.11 767.603 Q2046.11 758.853 2049.17 754.269 Q2052.25 749.663 2058.06 749.663 Z" fill="#000000" fill-rule="evenodd" fill-opacity="1" /><path clip-path="url(#clip960)" d="M2861.75 766.214 Q2865.11 766.931 2866.98 769.2 Q2868.88 771.468 2868.88 774.802 Q2868.88 779.917 2865.36 782.718 Q2861.84 785.519 2855.36 785.519 Q2853.19 785.519 2850.87 785.079 Q2848.58 784.663 2846.13 783.806 L2846.13 779.292 Q2848.07 780.427 2850.39 781.005 Q2852.7 781.584 2855.22 781.584 Q2859.62 781.584 2861.91 779.848 Q2864.23 778.112 2864.23 774.802 Q2864.23 771.746 2862.08 770.033 Q2859.95 768.297 2856.13 768.297 L2852.1 768.297 L2852.1 764.454 L2856.31 764.454 Q2859.76 764.454 2861.59 763.089 Q2863.42 761.7 2863.42 759.107 Q2863.42 756.445 2861.52 755.033 Q2859.64 753.598 2856.13 753.598 Q2854.2 753.598 2852.01 754.015 Q2849.81 754.431 2847.17 755.311 L2847.17 751.144 Q2849.83 750.404 2852.14 750.033 Q2854.48 749.663 2856.54 749.663 Q2861.87 749.663 2864.97 752.093 Q2868.07 754.501 2868.07 758.621 Q2868.07 761.492 2866.43 763.482 Q2864.78 765.45 2861.75 766.214 Z" fill="#000000" fill-rule="evenodd" fill-opacity="1" /><path clip-path="url(#clip960)" d="M2887.75 753.367 Q2884.14 753.367 2882.31 756.931 Q2880.5 760.473 2880.5 767.603 Q2880.5 774.709 2882.31 778.274 Q2884.14 781.815 2887.75 781.815 Q2891.38 781.815 2893.19 778.274 Q2895.01 774.709 2895.01 767.603 Q2895.01 760.473 2893.19 756.931 Q2891.38 753.367 2887.75 753.367 M2887.75 749.663 Q2893.56 749.663 2896.61 754.269 Q2899.69 758.853 2899.69 767.603 Q2899.69 776.329 2896.61 780.936 Q2893.56 785.519 2887.75 785.519 Q2881.94 785.519 2878.86 780.936 Q2875.8 776.329 2875.8 767.603 Q2875.8 758.853 2878.86 754.269 Q2881.94 749.663 2887.75 749.663 Z" fill="#000000" fill-rule="evenodd" fill-opacity="1" /><path clip-path="url(#clip960)" d="M2917.91 753.367 Q2914.3 753.367 2912.47 756.931 Q2910.66 760.473 2910.66 767.603 Q2910.66 774.709 2912.47 778.274 Q2914.3 781.815 2917.91 781.815 Q2921.54 781.815 2923.35 778.274 Q2925.18 774.709 2925.18 767.603 Q2925.18 760.473 2923.35 756.931 Q2921.54 753.367 2917.91 753.367 M2917.91 749.663 Q2923.72 749.663 2926.77 754.269 Q2929.85 758.853 2929.85 767.603 Q2929.85 776.329 2926.77 780.936 Q2923.72 785.519 2917.91 785.519 Q2912.1 785.519 2909.02 780.936 Q2905.96 776.329 2905.96 767.603 Q2905.96 758.853 2909.02 754.269 Q2912.1 749.663 2917.91 749.663 Z" fill="#000000" fill-rule="evenodd" fill-opacity="1" /><path clip-path="url(#clip960)" d="M2948.07 753.367 Q2944.46 753.367 2942.63 756.931 Q2940.82 760.473 2940.82 767.603 Q2940.82 774.709 2942.63 778.274 Q2944.46 781.815 2948.07 781.815 Q2951.7 781.815 2953.51 778.274 Q2955.34 774.709 2955.34 767.603 Q2955.34 760.473 2953.51 756.931 Q2951.7 753.367 2948.07 753.367 M2948.07 749.663 Q2953.88 749.663 2956.94 754.269 Q2960.01 758.853 2960.01 767.603 Q2960.01 776.329 2956.94 780.936 Q2953.88 785.519 2948.07 785.519 Q2942.26 785.519 2939.18 780.936 Q2936.13 776.329 2936.13 767.603 Q2936.13 758.853 2939.18 754.269 Q2942.26 749.663 2948.07 749.663 Z" fill="#000000" fill-rule="evenodd" fill-opacity="1" /><polyline clip-path="url(#clip962)" style="stroke:#000000; stroke-linecap:round; stroke-linejoin:round; stroke-width:2; stroke-opacity:0.1; fill:none" points="148.696,716.048 3152.76,716.048 "/>
<polyline clip-path="url(#clip962)" style="stroke:#000000; stroke-linecap:round; stroke-linejoin:round; stroke-width:2; stroke-opacity:0.1; fill:none" points="148.696,576.714 3152.76,576.714 "/>
<polyline clip-path="url(#clip962)" style="stroke:#000000; stroke-linecap:round; stroke-linejoin:round; stroke-width:2; stroke-opacity:0.1; fill:none" points="148.696,437.38 3152.76,437.38 "/>
<polyline clip-path="url(#clip962)" style="stroke:#000000; stroke-linecap:round; stroke-linejoin:round; stroke-width:2; stroke-opacity:0.1; fill:none" points="148.696,298.046 3152.76,298.046 "/>
<polyline clip-path="url(#clip962)" style="stroke:#000000; stroke-linecap:round; stroke-linejoin:round; stroke-width:2; stroke-opacity:0.1; fill:none" points="148.696,158.711 3152.76,158.711 "/>
<polyline clip-path="url(#clip960)" style="stroke:#000000; stroke-linecap:round; stroke-linejoin:round; stroke-width:4; stroke-opacity:1; fill:none" points="148.696,716.048 148.696,47.2441 "/>
<polyline clip-path="url(#clip960)" style="stroke:#000000; stroke-linecap:round; stroke-linejoin:round; stroke-width:4; stroke-opacity:1; fill:none" points="148.696,716.048 167.593,716.048 "/>
<polyline clip-path="url(#clip960)" style="stroke:#000000; stroke-linecap:round; stroke-linejoin:round; stroke-width:4; stroke-opacity:1; fill:none" points="148.696,576.714 167.593,576.714 "/>
<polyline clip-path="url(#clip960)" style="stroke:#000000; stroke-linecap:round; stroke-linejoin:round; stroke-width:4; stroke-opacity:1; fill:none" points="148.696,437.38 167.593,437.38 "/>
<polyline clip-path="url(#clip960)" style="stroke:#000000; stroke-linecap:round; stroke-linejoin:round; stroke-width:4; stroke-opacity:1; fill:none" points="148.696,298.046 167.593,298.046 "/>
<polyline clip-path="url(#clip960)" style="stroke:#000000; stroke-linecap:round; stroke-linejoin:round; stroke-width:4; stroke-opacity:1; fill:none" points="148.696,158.711 167.593,158.711 "/>
<path clip-path="url(#clip960)" d="M88.7512 701.847 Q85.1401 701.847 83.3114 705.411 Q81.5058 708.953 81.5058 716.083 Q81.5058 723.189 83.3114 726.754 Q85.1401 730.295 88.7512 730.295 Q92.3854 730.295 94.1909 726.754 Q96.0196 723.189 96.0196 716.083 Q96.0196 708.953 94.1909 705.411 Q92.3854 701.847 88.7512 701.847 M88.7512 698.143 Q94.5613 698.143 97.6169 702.749 Q100.696 707.333 100.696 716.083 Q100.696 724.809 97.6169 729.416 Q94.5613 733.999 88.7512 733.999 Q82.941 733.999 79.8623 729.416 Q76.8068 724.809 76.8068 716.083 Q76.8068 707.333 79.8623 702.749 Q82.941 698.143 88.7512 698.143 Z" fill="#000000" fill-rule="evenodd" fill-opacity="1" /><path clip-path="url(#clip960)" d="M79.7929 559.434 L98.1493 559.434 L98.1493 563.369 L84.0753 563.369 L84.0753 571.841 Q85.0938 571.494 86.1123 571.332 Q87.1308 571.147 88.1493 571.147 Q93.9363 571.147 97.3159 574.318 Q100.696 577.489 100.696 582.906 Q100.696 588.485 97.2233 591.586 Q93.7511 594.665 87.4317 594.665 Q85.2558 594.665 82.9873 594.295 Q80.7419 593.924 78.3346 593.184 L78.3346 588.485 Q80.4179 589.619 82.6401 590.174 Q84.8623 590.73 87.3391 590.73 Q91.3437 590.73 93.6817 588.623 Q96.0196 586.517 96.0196 582.906 Q96.0196 579.295 93.6817 577.188 Q91.3437 575.082 87.3391 575.082 Q85.4641 575.082 83.5892 575.498 Q81.7373 575.915 79.7929 576.795 L79.7929 559.434 Z" fill="#000000" fill-rule="evenodd" fill-opacity="1" /><path clip-path="url(#clip960)" d="M49.3995 450.724 L57.0384 450.724 L57.0384 424.359 L48.7282 426.026 L48.7282 421.766 L56.9921 420.1 L61.668 420.1 L61.668 450.724 L69.3068 450.724 L69.3068 454.66 L49.3995 454.66 L49.3995 450.724 Z" fill="#000000" fill-rule="evenodd" fill-opacity="1" /><path clip-path="url(#clip960)" d="M88.7512 423.178 Q85.1401 423.178 83.3114 426.743 Q81.5058 430.285 81.5058 437.414 Q81.5058 444.521 83.3114 448.086 Q85.1401 451.627 88.7512 451.627 Q92.3854 451.627 94.1909 448.086 Q96.0196 444.521 96.0196 437.414 Q96.0196 430.285 94.1909 426.743 Q92.3854 423.178 88.7512 423.178 M88.7512 419.475 Q94.5613 419.475 97.6169 424.081 Q100.696 428.664 100.696 437.414 Q100.696 446.141 97.6169 450.748 Q94.5613 455.331 88.7512 455.331 Q82.941 455.331 79.8623 450.748 Q76.8068 446.141 76.8068 437.414 Q76.8068 428.664 79.8623 424.081 Q82.941 419.475 88.7512 419.475 Z" fill="#000000" fill-rule="evenodd" fill-opacity="1" /><path clip-path="url(#clip960)" d="M50.3949 311.39 L58.0337 311.39 L58.0337 285.025 L49.7236 286.691 L49.7236 282.432 L57.9874 280.766 L62.6633 280.766 L62.6633 311.39 L70.3022 311.39 L70.3022 315.326 L50.3949 315.326 L50.3949 311.39 Z" fill="#000000" fill-rule="evenodd" fill-opacity="1" /><path clip-path="url(#clip960)" d="M79.7929 280.766 L98.1493 280.766 L98.1493 284.701 L84.0753 284.701 L84.0753 293.173 Q85.0938 292.826 86.1123 292.664 Q87.1308 292.478 88.1493 292.478 Q93.9363 292.478 97.3159 295.65 Q100.696 298.821 100.696 304.238 Q100.696 309.816 97.2233 312.918 Q93.7511 315.997 87.4317 315.997 Q85.2558 315.997 82.9873 315.626 Q80.7419 315.256 78.3346 314.515 L78.3346 309.816 Q80.4179 310.951 82.6401 311.506 Q84.8623 312.062 87.3391 312.062 Q91.3437 312.062 93.6817 309.955 Q96.0196 307.849 96.0196 304.238 Q96.0196 300.627 93.6817 298.52 Q91.3437 296.414 87.3391 296.414 Q85.4641 296.414 83.5892 296.83 Q81.7373 297.247 79.7929 298.127 L79.7929 280.766 Z" fill="#000000" fill-rule="evenodd" fill-opacity="1" /><path clip-path="url(#clip960)" d="M52.6171 172.056 L68.9365 172.056 L68.9365 175.991 L46.9921 175.991 L46.9921 172.056 Q49.6541 169.302 54.2375 164.672 Q58.8439 160.019 60.0245 158.677 Q62.2698 156.154 63.1494 154.417 Q64.0522 152.658 64.0522 150.968 Q64.0522 148.214 62.1078 146.478 Q60.1865 144.742 57.0847 144.742 Q54.8856 144.742 52.4319 145.505 Q50.0014 146.269 47.2236 147.82 L47.2236 143.098 Q50.0477 141.964 52.5014 141.385 Q54.955 140.806 56.9921 140.806 Q62.3624 140.806 65.5568 143.492 Q68.7513 146.177 68.7513 150.667 Q68.7513 152.797 67.9411 154.718 Q67.1541 156.616 65.0476 159.209 Q64.4689 159.88 61.367 163.098 Q58.2652 166.292 52.6171 172.056 Z" fill="#000000" fill-rule="evenodd" fill-opacity="1" /><path clip-path="url(#clip960)" d="M88.7512 144.51 Q85.1401 144.51 83.3114 148.075 Q81.5058 151.617 81.5058 158.746 Q81.5058 165.853 83.3114 169.417 Q85.1401 172.959 88.7512 172.959 Q92.3854 172.959 94.1909 169.417 Q96.0196 165.853 96.0196 158.746 Q96.0196 151.617 94.1909 148.075 Q92.3854 144.51 88.7512 144.51 M88.7512 140.806 Q94.5613 140.806 97.6169 145.413 Q100.696 149.996 100.696 158.746 Q100.696 167.473 97.6169 172.079 Q94.5613 176.663 88.7512 176.663 Q82.941 176.663 79.8623 172.079 Q76.8068 167.473 76.8068 158.746 Q76.8068 149.996 79.8623 145.413 Q82.941 140.806 88.7512 140.806 Z" fill="#000000" fill-rule="evenodd" fill-opacity="1" /><polyline clip-path="url(#clip962)" style="stroke:#009af9; stroke-linecap:round; stroke-linejoin:round; stroke-width:2; stroke-opacity:1; fill:none" points="233.716,152.523 234.606,162.932 235.496,158.144 236.386,340.7 237.276,401.641 238.167,171.115 239.057,343.674 239.947,170.856 240.837,149.391 241.727,162.38 242.617,162.798 243.507,159.104 244.397,160.312 245.287,152.76 246.177,167.008 247.067,149.857 247.957,164.46 248.848,154.659 249.738,145.725 250.628,141.533 251.518,147.226 252.408,160.073 253.298,175.709 254.188,161.896 255.078,161.979 255.968,350.726 256.858,176.646 257.748,167.727 258.638,159.147 259.528,156.33 260.419,162.242 261.309,165.951 262.199,175.305 263.089,353.494 263.979,158.271 264.869,157.257 265.759,158.526 266.649,154.701 267.539,169.555 268.429,164.336 269.319,156.368 270.209,155.716 271.1,168.741 271.99,167.841 272.88,151.924 273.77,161.13 274.66,162.143 275.55,151.681 276.44,165.218 277.33,158.263 278.22,161.603 279.11,144.451 280,135.611 280.89,140.146 281.781,168.186 282.671,172.445 283.561,159.378 284.451,164.076 285.341,164.775 286.231,413.767 287.121,150.452 288.011,164.749 288.901,168.166 289.791,175.78 290.681,142.677 291.571,144.903 292.461,352.829 293.352,144.397 294.242,169.989 295.132,171.011 296.022,148.071 296.912,156.122 297.802,159.359 298.692,150.182 299.582,163.19 300.472,157.21 301.362,166.265 302.252,181.787 303.142,163.162 304.033,149.397 304.923,169.048 305.813,182.49 306.703,145.62 307.593,150.185 308.483,157.201 309.373,159.135 310.263,160.22 311.153,164.522 312.043,147.493 312.933,166.757 313.823,347.629 314.714,351.246 315.604,173.229 316.494,150.069 317.384,426.213 318.274,166.658 319.164,159.701 320.054,162.175 320.944,150.109 321.834,172.911 322.724,155.134 323.614,153.68 324.504,154.999 325.395,151.281 326.285,149.926 327.175,154.164 328.065,342.101 328.955,167.839 329.845,357.22 330.735,148.001 331.625,176.481 332.515,170.625 333.405,136.192 334.295,179.383 335.185,163.012 336.075,159.865 336.966,158.028 337.856,360.829 338.746,137.392 339.636,178.356 340.526,188.313 341.416,153.278 342.306,174.687 343.196,167.415 344.086,159.931 344.976,153.67 345.866,169.861 346.756,145.733 347.647,151.094 348.537,149.725 349.427,155.738 350.317,163.187 351.207,170.763 352.097,163.693 352.987,361.198 353.877,408.696 354.767,157.204 355.657,142.088 356.547,134.499 357.437,145.31 358.328,150.319 359.218,173.074 360.108,172.638 360.998,139.436 361.888,174.418 362.778,142.227 363.668,171.448 364.558,164.009 365.448,148.967 366.338,146.301 367.228,159.558 368.118,350.723 369.008,150.485 369.899,174.768 370.789,143.34 371.679,166.991 372.569,150.51 373.459,428.355 374.349,150.918 375.239,163.786 376.129,154.136 377.019,158.575 377.909,157.656 378.799,163.676 379.689,161.609 380.58,154.193 381.47,148.961 382.36,167.195 383.25,335.844 384.14,181.28 385.03,157.523 385.92,165.709 386.81,159.717 387.7,159.997 388.59,159.041 389.48,162.907 390.37,151.065 391.261,154.76 392.151,158.649 393.041,147.559 393.931,149.132 394.821,156.616 395.711,371.543 396.601,145.353 397.491,155.088 398.381,160.086 399.271,148.88 400.161,181.342 401.051,344.919 401.942,157.175 402.832,155.146 403.722,155.312 404.612,156.212 405.502,411.689 406.392,439.355 407.282,159.191 408.172,165.661 409.062,402.644 409.952,134.633 410.842,176.932 411.732,161.854 412.622,167.659 413.513,155.862 414.403,148.663 415.293,175.598 416.183,154.997 417.073,154.618 417.963,157.078 418.853,185.063 419.743,143.578 420.633,153.663 421.523,165.476 422.413,145.416 423.303,159.774 424.194,142.706 425.084,174.886 425.974,154.267 426.864,158.296 427.754,151.513 428.644,151.947 429.534,173.754 430.424,134.438 431.314,158.87 432.204,164.882 433.094,347.991 433.984,156.393 434.875,177.268 435.765,170.98 436.655,144.675 437.545,344.529 438.435,147.829 439.325,151.441 440.215,170.484 441.105,146.089 441.995,517.32 442.885,170.132 443.775,160.166 444.665,405.47 445.555,349.639 446.446,172.129 447.336,166.16 448.226,149.796 449.116,147.101 450.006,161.017 450.896,145.95 451.786,154.635 452.676,169.785 453.566,140.39 454.456,162.874 455.346,485.229 456.236,152.362 457.127,347.675 458.017,156.512 458.907,157.989 459.797,381.065 460.687,150.686 461.577,138.592 462.467,163.724 463.357,159.452 464.247,160.444 465.137,141.786 466.027,148.88 466.917,144.593 467.808,570.737 468.698,164.349 469.588,155.365 470.478,155.952 471.368,150.064 472.258,153.874 473.148,147.892 474.038,169.561 474.928,150.515 475.818,164.503 476.708,163.377 477.598,151.517 478.489,152.956 479.379,153.813 480.269,170.175 481.159,170.736 482.049,152.895 482.939,158.623 483.829,153.965 484.719,154.746 485.609,164.301 486.499,159.213 487.389,168.673 488.279,163.522 489.169,165.396 490.06,149.893 490.95,367.263 491.84,162.987 492.73,153.745 493.62,172.541 494.51,147.147 495.4,157.171 496.29,158.11 497.18,159.255 498.07,151.221 498.96,162.403 499.85,163.324 500.741,154.509 501.631,146.904 502.521,168.594 503.411,143.394 504.301,149.059 505.191,346.565 506.081,456.419 506.971,178.332 507.861,167.756 508.751,155.294 509.641,170.981 510.531,163.684 511.422,149.514 512.312,174.883 513.202,145.471 514.092,151.798 514.982,150.569 515.872,167.253 516.762,165.914 517.652,150.41 518.542,451.153 519.432,166.05 520.322,166.009 521.212,161.876 522.102,145.448 522.993,168.262 523.883,348.115 524.773,174.458 525.663,160.792 526.553,163.352 527.443,149.719 528.333,164.832 529.223,357.529 530.113,159.98 531.003,186.426 531.893,167.312 532.783,438.881 533.674,144.148 534.564,172.058 535.454,170.63 536.344,161.121 537.234,166.83 538.124,156.632 539.014,160.229 539.904,168.505 540.794,162.508 541.684,150.397 542.574,172.478 543.464,134.563 544.355,364.272 545.245,152.18 546.135,152.432 547.025,346.545 547.915,144.288 548.805,157.52 549.695,153.725 550.585,160.613 551.475,161.689 552.365,161.522 553.255,157.916 554.145,145.155 555.036,372.088 555.926,175.917 556.816,168.28 557.706,171.337 558.596,161.879 559.486,160.536 560.376,153.067 561.266,163.525 562.156,172.355 563.046,151.993 563.936,150.716 564.826,340.304 565.716,152.877 566.607,158.034 567.497,163.186 568.387,441.327 569.277,150.929 570.167,140.459 571.057,165.522 571.947,167.218 572.837,165.198 573.727,166.838 574.617,343.805 575.507,164.872 576.397,157.968 577.288,160.606 578.178,175.02 579.068,148.607 579.958,349.062 580.848,148.191 581.738,164.583 582.628,160.731 583.518,152.927 584.408,172.695 585.298,154.388 586.188,353.984 587.078,151.039 587.969,135.034 588.859,151.956 589.749,509.12 590.639,158.871 591.529,155.172 592.419,166.411 593.309,382.158 594.199,150.107 595.089,540.374 595.979,159.6 596.869,151.49 597.759,144.28 598.649,171.683 599.54,157.064 600.43,149.131 601.32,402.475 602.21,160.535 603.1,152.187 603.99,156.692 604.88,159.222 605.77,167.656 606.66,156.076 607.55,165.442 608.44,135.939 609.33,145.269 610.221,170.592 611.111,139.671 612.001,151.537 612.891,153.675 613.781,166.436 614.671,180.753 615.561,134.239 616.451,152.7 617.341,353.637 618.231,149.669 619.121,151.598 620.011,150.703 620.902,161.55 621.792,171.043 622.682,336.05 623.572,163.342 624.462,167.83 625.352,145.463 626.242,353.1 627.132,476.214 628.022,161.091 628.912,365.586 629.802,150.655 630.692,505.178 631.583,153.324 632.473,154.211 633.363,145.668 634.253,165.225 635.143,159.987 636.033,167.091 636.923,160.794 637.813,154.37 638.703,149.721 639.593,151.433 640.483,169.144 641.373,167.955 642.263,156.778 643.154,146.202 644.044,148.348 644.934,157.847 645.824,160.498 646.714,342.461 647.604,150.167 648.494,351.061 649.384,151.205 650.274,151.445 651.164,159.14 652.054,355.062 652.944,167.588 653.835,140.37 654.725,138.788 655.615,164.979 656.505,146.736 657.395,153.78 658.285,354.823 659.175,160.095 660.065,167.275 660.955,166.343 661.845,143.814 662.735,137.646 663.625,161.075 664.516,175.001 665.406,149.212 666.296,163.962 667.186,177.03 668.076,160.61 668.966,159.927 669.856,149.665 670.746,147.707 671.636,152.139 672.526,142.798 673.416,168.564 674.306,158.686 675.196,153.656 676.087,144.162 676.977,149.796 677.867,162.316 678.757,167.574 679.647,351.292 680.537,147.191 681.427,152.103 682.317,172.737 683.207,146.839 684.097,153.386 684.987,158.11 685.877,154.918 686.768,405.95 687.658,157.412 688.548,149.827 689.438,150.771 690.328,154.876 691.218,173.435 692.108,159.313 692.998,161.993 693.888,174.189 694.778,159.455 695.668,163.887 696.558,376.29 697.449,149.618 698.339,167.753 699.229,156.523 700.119,163.481 701.009,161.013 701.899,165.231 702.789,174.226 703.679,159.52 704.569,177.946 705.459,157.584 706.349,159.479 707.239,143.836 708.13,154.173 709.02,158.066 709.91,172.165 710.8,170.575 711.69,164.791 712.58,174.031 713.47,161.327 714.36,166.39 715.25,157.836 716.14,155.827 717.03,160.437 717.92,359.39 718.81,458.067 719.701,163.3 720.591,168.05 721.481,142.105 722.371,166.764 723.261,431.329 724.151,162.887 725.041,150.23 725.931,166.2 726.821,144.335 727.711,149.587 728.601,148.933 729.491,162.986 730.382,162.584 731.272,158.51 732.162,164.509 733.052,161.473 733.942,163.235 734.832,162.649 735.722,163.411 736.612,168.465 737.502,160.076 738.392,164.17 739.282,378.524 740.172,138.758 741.063,341.927 741.953,159.868 742.843,157.405 743.733,355.148 744.623,152.089 745.513,139.215 746.403,576.008 747.293,159.402 748.183,148.182 749.073,404.575 749.963,167.332 750.853,149.127 751.743,160.95 752.634,137.723 753.524,163.602 754.414,152.618 755.304,167.072 756.194,136.94 757.084,164.483 757.974,150.254 758.864,171.487 759.754,169.21 760.644,174.453 761.534,379.701 762.424,130.634 763.315,145.774 764.205,165.465 765.095,353.75 765.985,131.846 766.875,167.441 767.765,158.376 768.655,346.497 769.545,149.251 770.435,172.291 771.325,366.202 772.215,155.397 773.105,169.641 773.996,164.762 774.886,177.048 775.776,159.635 776.666,168.808 777.556,166.881 778.446,174.312 779.336,163.54 780.226,162.852 781.116,157.697 782.006,150.204 782.896,158.687 783.786,151.306 784.677,166.108 785.567,174.267 786.457,161.458 787.347,167.628 788.237,351.964 789.127,147.147 790.017,347.993 790.907,142.699 791.797,159.566 792.687,159.125 793.577,158.471 794.467,153.652 795.357,145.928 796.248,175.733 797.138,181.054 798.028,173.885 798.918,139.629 799.808,156.794 800.698,361.571 801.588,170.028 802.478,177.254 803.368,160.256 804.258,158.786 805.148,156.669 806.038,162.147 806.929,162.227 807.819,151.993 808.709,149.626 809.599,160.826 810.489,147.182 811.379,149.868 812.269,171.205 813.159,158.381 814.049,151.126 814.939,520.226 815.829,171.369 816.719,173.172 817.61,154.251 818.5,133.262 819.39,140.255 820.28,182.3 821.17,151.951 822.06,143.646 822.95,357.684 823.84,149.835 824.73,146.961 825.62,361.424 826.51,151.947 827.4,155.258 828.291,155.228 829.181,147.847 830.071,151.924 830.961,345.804 831.851,163.819 832.741,160.674 833.631,156.873 834.521,156.539 835.411,164.7 836.301,143.534 837.191,160.096 838.081,352.863 838.971,166.362 839.862,156.733 840.752,153.927 841.642,153.844 842.532,143.118 843.422,166.059 844.312,160.463 845.202,164.023 846.092,178.022 846.982,368.812 847.872,173.45 848.762,147.238 849.652,164.22 850.543,154.449 851.433,161.63 852.323,173.011 853.213,155.787 854.103,169.23 854.993,395.263 855.883,165.273 856.773,147.003 857.663,155.781 858.553,153.738 859.443,156.146 860.333,152.588 861.224,158.453 862.114,155.102 863.004,412.387 863.894,385.177 864.784,145.58 865.674,162.25 866.564,157.449 867.454,166.112 868.344,158.406 869.234,418.747 870.124,404.692 871.014,167.044 871.904,161.661 872.795,146.393 873.685,151.266 874.575,158.01 875.465,153.743 876.355,152.131 877.245,136.195 878.135,152.286 879.025,147.119 879.915,163.452 880.805,168.54 881.695,388.509 882.585,401.293 883.476,156.013 884.366,149.773 885.256,493.999 886.146,162.626 887.036,163.484 887.926,170.335 888.816,345.856 889.706,155.101 890.596,146.913 891.486,166.759 892.376,154.077 893.266,158.886 894.157,159.478 895.047,156.655 895.937,456.317 896.827,160.766 897.717,162.802 898.607,376.87 899.497,178.362 900.387,143.959 901.277,160.657 902.167,156.089 903.057,149.536 903.947,349.318 904.838,166.338 905.728,176.786 906.618,150.269 907.508,169.102 908.398,157.56 909.288,155.791 910.178,171.558 911.068,174.542 911.958,153.929 912.848,146.648 913.738,153.081 914.628,159.666 915.518,153.194 916.409,166.934 917.299,351.618 918.189,143.146 919.079,147.503 919.969,163.762 920.859,162.831 921.749,150.307 922.639,170.584 923.529,166.424 924.419,169.811 925.309,152.568 926.199,359.745 927.09,168.647 927.98,145.728 928.87,163.694 929.76,153.587 930.65,145.533 931.54,171.303 932.43,146.851 933.32,155.149 934.21,157.026 935.1,152.757 935.99,167.756 936.88,152.188 937.771,161.151 938.661,161.535 939.551,154.767 940.441,163.254 941.331,362.963 942.221,359.584 943.111,157.485 944.001,481.924 944.891,168.44 945.781,156.869 946.671,355.227 947.561,162.416 948.451,150.644 949.342,144.902 950.232,156.271 951.122,164.446 952.012,146.044 952.902,357.654 953.792,149.461 954.682,154.304 955.572,405.351 956.462,160.691 957.352,151.741 958.242,153.624 959.132,160.441 960.023,173.131 960.913,334.724 961.803,369.771 962.693,148.411 963.583,149.41 964.473,352.827 965.363,164.782 966.253,170.155 967.143,164.546 968.033,132.909 968.923,181.079 969.813,135.055 970.704,161.607 971.594,161.64 972.484,158.731 973.374,167.872 974.264,157.006 975.154,362.169 976.044,159.813 976.934,159.071 977.824,149.398 978.714,159.727 979.604,159.359 980.494,161.805 981.385,167.407 982.275,169.838 983.165,157.255 984.055,159.738 984.945,177.877 985.835,347.851 986.725,476.085 987.615,145.704 988.505,160.527 989.395,164.141 990.285,156.519 991.175,152.976 992.065,394.569 992.956,169.636 993.846,167.635 994.736,175.905 995.626,393.315 996.516,164.278 997.406,144.052 998.296,376.7 999.186,159.379 1000.08,155.694 1000.97,156.847 1001.86,146.873 1002.75,142.77 1003.64,152.885 1004.53,156.41 1005.42,157.475 1006.31,151.055 1007.2,157.036 1008.09,157.169 1008.98,175.943 1009.87,155.673 1010.76,159.231 1011.65,156.017 1012.54,150.338 1013.43,166.676 1014.32,172.463 1015.21,165.492 1016.1,369.183 1016.99,146.29 1017.88,165.285 1018.77,352.496 1019.66,156.078 1020.55,148.757 1021.44,162.203 1022.33,151.078 1023.22,175.152 1024.11,161.203 1025,171.829 1025.89,173.768 1026.78,157.504 1027.67,162.012 1028.56,160.481 1029.45,151.959 1030.34,172.254 1031.23,367.052 1032.12,356.833 1033.01,168.24 1033.9,150.601 1034.79,370.187 1035.68,374.456 1036.57,360.566 1037.46,157.837 1038.35,361.796 1039.24,169.165 1040.13,160.932 1041.02,153.971 1041.91,355.276 1042.8,333.599 1043.69,148.086 1044.58,143.549 1045.47,337.563 1046.36,356.259 1047.25,519.36 1048.14,145.519 1049.03,158.201 1049.92,151.479 1050.81,149.105 1051.7,167.162 1052.59,159.301 1053.48,161.926 1054.37,176.829 1055.26,138.663 1056.15,335.026 1057.04,182.832 1057.93,331.952 1058.82,166.628 1059.71,150.93 1060.6,180.249 1061.49,174.181 1062.38,146.728 1063.27,156.935 1064.16,165.337 1065.05,161.732 1065.94,151.553 1066.83,452.686 1067.72,152.302 1068.61,146.549 1069.5,158.586 1070.39,170.328 1071.28,449.766 1072.17,146.866 1073.06,145.459 1073.95,159.923 1074.84,361.307 1075.73,176.199 1076.62,178.855 1077.51,148.628 1078.4,163.91 1079.29,165.482 1080.18,139.845 1081.07,176.986 1081.96,152.214 1082.85,150.312 1083.74,144.49 1084.63,150.028 1085.52,449.662 1086.41,352.868 1087.3,147.301 1088.19,160.544 1089.08,156.385 1089.97,165.39 1090.86,355.802 1091.75,352.962 1092.64,130.634 1093.53,150.641 1094.42,349.409 1095.31,161.332 1096.21,172.795 1097.1,149.699 1097.99,139.607 1098.88,161.391 1099.77,166.204 1100.66,151.132 1101.55,154.899 1102.44,156.134 1103.33,147.831 1104.22,355.905 1105.11,166.571 1106,160.877 1106.89,160.977 1107.78,144.07 1108.67,138.3 1109.56,161.882 1110.45,155.395 1111.34,161.528 1112.23,348.969 1113.12,365.324 1114.01,353.39 1114.9,155.674 1115.79,158.677 1116.68,166.691 1117.57,176.568 1118.46,557.311 1119.35,174.306 1120.24,145.69 1121.13,144.827 1122.02,148 1122.91,143.963 1123.8,163.622 1124.69,360.065 1125.58,385.235 1126.47,161.061 1127.36,156.723 1128.25,152.271 1129.14,154.773 1130.03,158.827 1130.92,392.509 1131.81,152.12 1132.7,131.118 1133.59,179.104 1134.48,145.444 1135.37,166.52 1136.26,160.531 1137.15,162.534 1138.04,145.739 1138.93,151.444 1139.82,147.008 1140.71,160.652 1141.6,154.62 1142.49,161.626 1143.38,166.202 1144.27,158.976 1145.16,421.879 1146.05,161.874 1146.94,161.28 1147.83,151.859 1148.72,150.968 1149.61,158.633 1150.5,170.374 1151.39,152.025 1152.28,161.411 1153.17,146.463 1154.06,175.145 1154.95,154.932 1155.84,154.38 1156.73,428.293 1157.62,153.296 1158.51,145.431 1159.4,159.773 1160.29,156.235 1161.18,163.021 1162.07,154.583 1162.96,162.688 1163.85,154.957 1164.74,155.721 1165.63,165.886 1166.52,337.479 1167.41,343.192 1168.3,159.028 1169.19,350.518 1170.08,152.376 1170.97,163.532 1171.86,347.546 1172.75,166.35 1173.64,145.628 1174.53,153.052 1175.42,176.512 1176.31,158.583 1177.2,166.566 1178.09,147.002 1178.98,161.161 1179.87,161.515 1180.76,144.688 1181.65,156.329 1182.54,157.737 1183.43,170.274 1184.32,158.503 1185.21,421.516 1186.1,159.206 1186.99,166.194 1187.88,170.473 1188.77,143.016 1189.66,138.109 1190.55,144.02 1191.44,156.416 1192.33,153.66 1193.22,345.199 1194.11,140.102 1195,175.329 1195.89,381.733 1196.78,150.933 1197.67,171.1 1198.56,389.301 1199.45,415.826 1200.34,165.262 1201.23,154.223 1202.12,150.63 1203.01,159.838 1203.9,159.532 1204.79,147.187 1205.69,146.413 1206.58,160.509 1207.47,172.529 1208.36,151.079 1209.25,183.216 1210.14,172.99 1211.03,152.999 1211.92,156.933 1212.81,155.882 1213.7,170.156 1214.59,148.87 1215.48,156.127 1216.37,165.301 1217.26,348.715 1218.15,149.362 1219.04,147.632 1219.93,179.811 1220.82,160.234 1221.71,158.346 1222.6,154.835 1223.49,351.69 1224.38,151.735 1225.27,166.391 1226.16,154.057 1227.05,158.803 1227.94,166.23 1228.83,151.449 1229.72,152.495 1230.61,157.704 1231.5,377.904 1232.39,186.207 1233.28,154.703 1234.17,165.386 1235.06,166.285 1235.95,161.603 1236.84,170.505 1237.73,146.004 1238.62,151.658 1239.51,157.455 1240.4,173.566 1241.29,150.765 1242.18,175.912 1243.07,153.658 1243.96,146.467 1244.85,358.087 1245.74,351.51 1246.63,145.283 1247.52,147.176 1248.41,352.117 1249.3,146.233 1250.19,165.258 1251.08,153.746 1251.97,360.712 1252.86,161.981 1253.75,493.916 1254.64,148.208 1255.53,165.948 1256.42,167.625 1257.31,163.125 1258.2,155.324 1259.09,158.333 1259.98,159.814 1260.87,168.112 1261.76,153.014 1262.65,168.261 1263.54,152.009 1264.43,166.002 1265.32,169.32 1266.21,154.443 1267.1,351.39 1267.99,156.002 1268.88,341.441 1269.77,160.688 1270.66,174.047 1271.55,416.281 1272.44,167.01 1273.33,157.01 1274.22,152.249 1275.11,423.086 1276,164.663 1276.89,149.162 1277.78,156.284 1278.67,158.979 1279.56,146.182 1280.45,163.243 1281.34,151.39 1282.23,556.715 1283.12,157.874 1284.01,151.765 1284.9,141.582 1285.79,148.805 1286.68,150.343 1287.57,162.262 1288.46,176.508 1289.35,155.161 1290.24,152.595 1291.13,428.699 1292.02,402.207 1292.91,168.094 1293.8,167.343 1294.69,350.011 1295.58,167.097 1296.47,157.96 1297.36,341.341 1298.25,133.024 1299.14,440.069 1300.03,340.749 1300.92,159.059 1301.81,140.8 1302.7,164.819 1303.59,139.335 1304.48,162.175 1305.37,163.855 1306.26,160.709 1307.15,154.584 1308.04,166.13 1308.93,161.651 1309.82,170.34 1310.71,144.507 1311.6,155.831 1312.49,160.968 1313.38,160.033 1314.27,144.079 1315.17,162.124 1316.06,162.55 1316.95,383.765 1317.84,163.704 1318.73,176.034 1319.62,146.769 1320.51,162.913 1321.4,154.171 1322.29,464.855 1323.18,169.881 1324.07,170.3 1324.96,156.231 1325.85,154.11 1326.74,163.707 1327.63,348.649 1328.52,419.509 1329.41,356.396 1330.3,165.504 1331.19,367.724 1332.08,345.998 1332.97,157.283 1333.86,168.024 1334.75,152.555 1335.64,163.783 1336.53,149.341 1337.42,150.148 1338.31,166.432 1339.2,161.593 1340.09,386.624 1340.98,372.157 1341.87,163.591 1342.76,166.352 1343.65,351.861 1344.54,391.987 1345.43,353.194 1346.32,147.922 1347.21,142.164 1348.1,159.655 1348.99,155.798 1349.88,157.441 1350.77,181.435 1351.66,147.087 1352.55,176.364 1353.44,148.149 1354.33,164.64 1355.22,155.661 1356.11,149.693 1357,338.94 1357.89,151.74 1358.78,164.059 1359.67,152.82 1360.56,166.735 1361.45,169.689 1362.34,149.253 1363.23,362.498 1364.12,171.068 1365.01,153.667 1365.9,161.678 1366.79,155.35 1367.68,159.376 1368.57,157.688 1369.46,376.852 1370.35,157.001 1371.24,153.429 1372.13,162.196 1373.02,167.35 1373.91,146.496 1374.8,330.94 1375.69,170.847 1376.58,174.817 1377.47,135.347 1378.36,143.251 1379.25,164.415 1380.14,154.12 1381.03,162.968 1381.92,153.812 1382.81,146.47 1383.7,356.072 1384.59,401.788 1385.48,150.84 1386.37,136.673 1387.26,146.394 1388.15,166.026 1389.04,163.899 1389.93,154.56 1390.82,170.963 1391.71,155.924 1392.6,380.479 1393.49,153.549 1394.38,160.991 1395.27,155.644 1396.16,162.244 1397.05,153.84 1397.94,163.265 1398.83,149.94 1399.72,341.091 1400.61,164.64 1401.5,171.628 1402.39,171.963 1403.28,341.103 1404.17,135.629 1405.06,163.341 1405.95,147.936 1406.84,159.674 1407.73,157.279 1408.62,160.476 1409.51,151.444 1410.4,165.122 1411.29,144.556 1412.18,154.247 1413.07,167.245 1413.96,160.326 1414.85,384.64 1415.74,183.595 1416.63,135.423 1417.52,139.289 1418.41,150.795 1419.3,173.317 1420.19,156.583 1421.08,156.923 1421.97,166.996 1422.86,150.71 1423.75,141.434 1424.65,154.65 1425.54,151.32 1426.43,168.498 1427.32,161.529 1428.21,153.108 1429.1,153.635 1429.99,479.342 1430.88,166.444 1431.77,164.526 1432.66,158.159 1433.55,161.566 1434.44,145.054 1435.33,156.651 1436.22,176.949 1437.11,388.238 1438,160.745 1438.89,152.46 1439.78,150.339 1440.67,364.738 1441.56,391.019 1442.45,354.171 1443.34,156.892 1444.23,337.026 1445.12,168.61 1446.01,154.281 1446.9,154.775 1447.79,158.602 1448.68,151.979 1449.57,160.843 1450.46,153.447 1451.35,149.546 1452.24,158.403 1453.13,152.62 1454.02,486.436 1454.91,151.321 1455.8,163.5 1456.69,161.597 1457.58,161.832 1458.47,157.738 1459.36,151.958 1460.25,151.396 1461.14,153.908 1462.03,181.159 1462.92,142.806 1463.81,154.338 1464.7,153.51 1465.59,165.013 1466.48,171.932 1467.37,133.814 1468.26,136.336 1469.15,146.852 1470.04,169.636 1470.93,179.722 1471.82,135.879 1472.71,166.847 1473.6,161.13 1474.49,356.69 1475.38,151.141 1476.27,177.931 1477.16,168.122 1478.05,156.038 1478.94,148.036 1479.83,139.811 1480.72,163.85 1481.61,372.511 1482.5,138.467 1483.39,175.7 1484.28,173.358 1485.17,161.137 1486.06,161.187 1486.95,141.785 1487.84,155.219 1488.73,156.435 1489.62,144.568 1490.51,183.821 1491.4,160.926 1492.29,158.145 1493.18,153.965 1494.07,149.593 1494.96,149.379 1495.85,162.498 1496.74,150.192 1497.63,154.578 1498.52,156.075 1499.41,168.512 1500.3,151.072 1501.19,167.777 1502.08,163.045 1502.97,168.985 1503.86,145.512 1504.75,174.512 1505.64,138.613 1506.53,171.086 1507.42,162.279 1508.31,365.894 1509.2,138.394 1510.09,156.851 1510.98,164.05 1511.87,164.039 1512.76,157.148 1513.65,164.413 1514.54,343.734 1515.43,161.018 1516.32,142.997 1517.21,156.523 1518.1,150.554 1518.99,158.373 1519.88,158.148 1520.77,152.637 1521.66,358.601 1522.55,155.584 1523.44,356.981 1524.33,154.655 1525.22,167.078 1526.11,157.114 1527,427.14 1527.89,162.713 1528.78,152.762 1529.67,432.05 1530.56,354.22 1531.45,155.615 1532.34,175.966 1533.23,139.847 1534.13,157.257 1535.02,160.73 1535.91,165.69 1536.8,171.78 1537.69,363.288 1538.58,149.482 1539.47,169.269 1540.36,416.077 1541.25,162.655 1542.14,161.788 1543.03,154.588 1543.92,387.004 1544.81,170.063 1545.7,150.472 1546.59,169.412 1547.48,172.176 1548.37,343.762 1549.26,159.322 1550.15,356.094 1551.04,162.827 1551.93,357.852 1552.82,163.464 1553.71,160.532 1554.6,345.446 1555.49,354.871 1556.38,337.945 1557.27,144.237 1558.16,139.629 1559.05,173.96 1559.94,408.464 1560.83,151.468 1561.72,358.126 1562.61,424.496 1563.5,172.082 1564.39,146.917 1565.28,153.847 1566.17,151.622 1567.06,148.473 1567.95,161.377 1568.84,162.041 1569.73,144.774 1570.62,156.085 1571.51,148.006 1572.4,138.8 1573.29,164.048 1574.18,164.964 1575.07,162.615 1575.96,162.841 1576.85,345.65 1577.74,141.877 1578.63,162.695 1579.52,156.226 1580.41,150.905 1581.3,170.163 1582.19,141.25 1583.08,161.687 1583.97,465.603 1584.86,142.379 1585.75,150.84 1586.64,132.523 1587.53,483.561 1588.42,167.714 1589.31,139.133 1590.2,152.785 1591.09,144.103 1591.98,169.831 1592.87,144.567 1593.76,143.091 1594.65,174.177 1595.54,149.412 1596.43,347.699 1597.32,177.902 1598.21,154.538 1599.1,139.373 1599.99,167.477 1600.88,154.131 1601.77,153.294 1602.66,168.515 1603.55,381.855 1604.44,153.199 1605.33,153.433 1606.22,164.225 1607.11,340.542 1608,154.877 1608.89,149.894 1609.78,145.558 1610.67,165.84 1611.56,176.609 1612.45,342.572 1613.34,168.568 1614.23,170.469 1615.12,138.877 1616.01,162.658 1616.9,159.92 1617.79,157.765 1618.68,154.892 1619.57,168.051 1620.46,163.26 1621.35,162.177 1622.24,159.569 1623.13,365.131 1624.02,161.421 1624.91,156.524 1625.8,159.301 1626.69,158.885 1627.58,165.171 1628.47,358.161 1629.36,150.612 1630.25,153.412 1631.14,354.341 1632.03,378.056 1632.92,400.153 1633.81,373.796 1634.7,158.741 1635.59,141.424 1636.48,159.767 1637.37,168.697 1638.26,163.506 1639.15,155.884 1640.04,165.024 1640.93,138.299 1641.82,374.03 1642.71,176.949 1643.61,162.457 1644.5,153.417 1645.39,161.708 1646.28,155.903 1647.17,152.372 1648.06,167.329 1648.95,168.362 1649.84,164.37 1650.73,168.273 1651.62,156.873 1652.51,168.41 1653.4,156.103 1654.29,172.46 1655.18,139.905 1656.07,183.656 1656.96,174.327 1657.85,161.046 1658.74,154.659 1659.63,156.875 1660.52,158.979 1661.41,424.838 1662.3,372.884 1663.19,159.065 1664.08,166.435 1664.97,149.457 1665.86,163.019 1666.75,358.281 1667.64,352.169 1668.53,144.401 1669.42,359.81 1670.31,153.066 1671.2,177.089 1672.09,162.77 1672.98,159.924 1673.87,151.509 1674.76,162.38 1675.65,157.804 1676.54,164.893 1677.43,166.591 1678.32,444.372 1679.21,161.137 1680.1,164.591 1680.99,157.395 1681.88,164.481 1682.77,168.494 1683.66,154.514 1684.55,147.363 1685.44,167.034 1686.33,141.13 1687.22,147.362 1688.11,158.951 1689,168.459 1689.89,163.572 1690.78,161.175 1691.67,166.792 1692.56,152.083 1693.45,155.591 1694.34,169.409 1695.23,168.711 1696.12,152.846 1697.01,158.204 1697.9,149.437 1698.79,438.741 1699.68,350.268 1700.57,358.27 1701.46,169.644 1702.35,150.124 1703.24,159.859 1704.13,159.087 1705.02,146.253 1705.91,158.965 1706.8,149.814 1707.69,169.224 1708.58,173.786 1709.47,160.278 1710.36,155.181 1711.25,156.733 1712.14,160.566 1713.03,159.704 1713.92,152.842 1714.81,151.564 1715.7,165.065 1716.59,150.368 1717.48,169.58 1718.37,172.806 1719.26,460.024 1720.15,168.036 1721.04,150.579 1721.93,158.203 1722.82,435.923 1723.71,160.063 1724.6,156.502 1725.49,155.596 1726.38,163.49 1727.27,152.008 1728.16,152.111 1729.05,167.619 1729.94,151.087 1730.83,155.04 1731.72,158.211 1732.61,154.98 1733.5,153.12 1734.39,153.398 1735.28,174.089 1736.17,170.546 1737.06,158.176 1737.95,425.43 1738.84,474.778 1739.73,172.668 1740.62,165.392 1741.51,166.508 1742.4,162.644 1743.29,436.369 1744.18,167.893 1745.07,160.778 1745.96,358.464 1746.85,155.393 1747.74,155.651 1748.63,174.03 1749.52,181.892 1750.41,167.718 1751.3,154.455 1752.2,153.333 1753.09,158.164 1753.98,169.655 1754.87,164.322 1755.76,160.383 1756.65,160.94 1757.54,144.485 1758.43,152.846 1759.32,156.877 1760.21,164.953 1761.1,157.983 1761.99,153.661 1762.88,162.599 1763.77,160.746 1764.66,159.571 1765.55,373.599 1766.44,183.129 1767.33,138.915 1768.22,442.935 1769.11,148.264 1770,161.583 1770.89,149.715 1771.78,163.738 1772.67,436.852 1773.56,158.766 1774.45,149.555 1775.34,178.514 1776.23,153.521 1777.12,149.307 1778.01,154.512 1778.9,348.363 1779.79,167.88 1780.68,147.912 1781.57,152.098 1782.46,157.564 1783.35,154.218 1784.24,436.251 1785.13,356.375 1786.02,167.571 1786.91,153.039 1787.8,147.926 1788.69,156.665 1789.58,166.037 1790.47,152.243 1791.36,162.747 1792.25,167.643 1793.14,161.952 1794.03,171.769 1794.92,157.896 1795.81,171.695 1796.7,151.418 1797.59,347.282 1798.48,171.194 1799.37,145.84 1800.26,168.925 1801.15,165.655 1802.04,127.433 1802.93,341.841 1803.82,161.44 1804.71,139.392 1805.6,146.46 1806.49,164.203 1807.38,145.096 1808.27,366.504 1809.16,158.443 1810.05,415.49 1810.94,164.768 1811.83,171.815 1812.72,158.548 1813.61,163.518 1814.5,158.382 1815.39,361.731 1816.28,357.423 1817.17,171.539 1818.06,160.205 1818.95,156.198 1819.84,167.132 1820.73,174.681 1821.62,394.507 1822.51,140.175 1823.4,177.898 1824.29,148.807 1825.18,154.72 1826.07,149.063 1826.96,143.221 1827.85,160.48 1828.74,148.731 1829.63,185.296 1830.52,175.603 1831.41,406.916 1832.3,161.428 1833.19,364.785 1834.08,154.891 1834.97,158.775 1835.86,160.612 1836.75,148.502 1837.64,150.376 1838.53,154.898 1839.42,432.918 1840.31,140.103 1841.2,420.348 1842.09,367.266 1842.98,156.364 1843.87,160.095 1844.76,165.168 1845.65,145.942 1846.54,150.959 1847.43,170.7 1848.32,150.981 1849.21,157.486 1850.1,159.991 1850.99,137.05 1851.88,353.03 1852.77,149.426 1853.66,166.578 1854.55,161.304 1855.44,156.362 1856.33,145.324 1857.22,154.431 1858.11,180.812 1859,161.738 1859.89,175.325 1860.78,147.575 1861.68,141.785 1862.57,167.236 1863.46,168.319 1864.35,166.731 1865.24,160.238 1866.13,161.563 1867.02,156.656 1867.91,157.297 1868.8,152.292 1869.69,151.665 1870.58,351.245 1871.47,364.765 1872.36,152.357 1873.25,152.775 1874.14,164.179 1875.03,166.153 1875.92,175.862 1876.81,350.102 1877.7,154.908 1878.59,141.707 1879.48,187.131 1880.37,173.923 1881.26,173.906 1882.15,146.575 1883.04,161.194 1883.93,148.269 1884.82,169.117 1885.71,150.233 1886.6,149.696 1887.49,359.302 1888.38,148.818 1889.27,161.736 1890.16,156.033 1891.05,376.857 1891.94,149.325 1892.83,150.52 1893.72,153.733 1894.61,156.803 1895.5,162.676 1896.39,345.124 1897.28,149.456 1898.17,361.856 1899.06,168.919 1899.95,358.21 1900.84,167.541 1901.73,150.879 1902.62,164.879 1903.51,150.383 1904.4,164.731 1905.29,466.045 1906.18,157.827 1907.07,142.44 1907.96,451.901 1908.85,165.023 1909.74,146.359 1910.63,169.287 1911.52,368.399 1912.41,153.515 1913.3,329.466 1914.19,145.386 1915.08,370.477 1915.97,166.949 1916.86,164.558 1917.75,161.322 1918.64,160.093 1919.53,153.346 1920.42,153.125 1921.31,162.574 1922.2,153.312 1923.09,162.627 1923.98,173.075 1924.87,358.447 1925.76,528.45 1926.65,158.818 1927.54,170.134 1928.43,160.788 1929.32,163.798 1930.21,164.051 1931.1,160.312 1931.99,168.794 1932.88,157.324 1933.77,163.265 1934.66,146.126 1935.55,154.813 1936.44,149.031 1937.33,147.301 1938.22,496.811 1939.11,138.591 1940,379.067 1940.89,161.529 1941.78,164.971 1942.67,150.247 1943.56,139.862 1944.45,163.571 1945.34,144.94 1946.23,154.448 1947.12,161.124 1948.01,542.599 1948.9,156.101 1949.79,155.806 1950.68,174.131 1951.57,370.955 1952.46,370.255 1953.35,151.228 1954.24,370.197 1955.13,353.02 1956.02,352.278 1956.91,143.957 1957.8,165.332 1958.69,427.07 1959.58,156.531 1960.47,154.658 1961.36,150.216 1962.25,159.794 1963.14,157.614 1964.03,156.371 1964.92,361.581 1965.81,164.179 1966.7,140.425 1967.59,350.631 1968.48,366.78 1969.37,164.426 1970.26,159.547 1971.16,145.444 1972.05,151.026 1972.94,150.202 1973.83,363.563 1974.72,447.7 1975.61,157.351 1976.5,162.634 1977.39,163.475 1978.28,155.467 1979.17,150.801 1980.06,150.916 1980.95,168.613 1981.84,170.829 1982.73,159.514 1983.62,161.747 1984.51,384.095 1985.4,159.975 1986.29,149.896 1987.18,166.436 1988.07,401.205 1988.96,150.415 1989.85,153.305 1990.74,169.095 1991.63,157.254 1992.52,158.907 1993.41,142.512 1994.3,165.667 1995.19,150.081 1996.08,158.34 1996.97,157.595 1997.86,347.926 1998.75,538.218 1999.64,412.528 2000.53,151.035 2001.42,156.838 2002.31,179.644 2003.2,355.121 2004.09,355.203 2004.98,353.291 2005.87,170.371 2006.76,170.889 2007.65,158.408 2008.54,138.69 2009.43,143.359 2010.32,149.918 2011.21,165.955 2012.1,154.244 2012.99,146.827 2013.88,144.779 2014.77,345.352 2015.66,468.959 2016.55,158.46 2017.44,150.577 2018.33,347.224 2019.22,341.674 2020.11,370.564 2021,148.999 2021.89,144.404 2022.78,160.799 2023.67,160.215 2024.56,150.449 2025.45,155.06 2026.34,170.916 2027.23,160.819 2028.12,461.612 2029.01,159.323 2029.9,473.204 2030.79,173.701 2031.68,175.99 2032.57,408.459 2033.46,154.701 2034.35,173.775 2035.24,162.124 2036.13,162.286 2037.02,167.221 2037.91,145.472 2038.8,147.225 2039.69,162.971 2040.58,413.115 2041.47,446.54 2042.36,182.137 2043.25,177.419 2044.14,151.703 2045.03,416.125 2045.92,156.878 2046.81,145.404 2047.7,169.76 2048.59,158.433 2049.48,168.119 2050.37,153.308 2051.26,148.206 2052.15,164.073 2053.04,167.954 2053.93,151.04 2054.82,157.343 2055.71,158.256 2056.6,158.394 2057.49,153.741 2058.38,149.25 2059.27,143.636 2060.16,163.695 2061.05,167.911 2061.94,148.072 2062.83,152.506 2063.72,162.934 2064.61,160.609 2065.5,168.209 2066.39,361.41 2067.28,161.111 2068.17,158.78 2069.06,157.755 2069.95,164.176 2070.84,150.054 2071.73,160.436 2072.62,166.091 2073.51,132.131 2074.4,178.658 2075.29,152.659 2076.18,161.958 2077.07,153.079 2077.96,164.802 2078.85,149.147 2079.74,151.292 2080.64,148.872 2081.53,164.06 2082.42,155.696 2083.31,147.548 2084.2,154.445 2085.09,167.883 2085.98,159.289 2086.87,162.687 2087.76,160.291 2088.65,522.733 2089.54,147.56 2090.43,159.901 2091.32,161.928 2092.21,346.937 2093.1,161.385 2093.99,156.44 2094.88,149.002 2095.77,154.043 2096.66,150.743 2097.55,166.796 2098.44,164.17 2099.33,147.092 2100.22,157.042 2101.11,158.634 2102,150.207 2102.89,154.847 2103.78,155.823 2104.67,145.173 2105.56,157.662 2106.45,164.322 2107.34,352.761 2108.23,146.751 2109.12,155.977 2110.01,158.672 2110.9,162.02 2111.79,170.442 2112.68,165.687 2113.57,149.326 2114.46,166.546 2115.35,154.242 2116.24,353.49 2117.13,360.084 2118.02,153.755 2118.91,347.463 2119.8,345.17 2120.69,167.748 2121.58,449.683 2122.47,155.827 2123.36,149.495 2124.25,162.783 2125.14,154.056 2126.03,156.766 2126.92,177.034 2127.81,140.657 2128.7,171.376 2129.59,158.917 2130.48,165.75 2131.37,143.767 2132.26,172.417 2133.15,162.638 2134.04,135.969 2134.93,167.676 2135.82,166.457 2136.71,166.986 2137.6,348.893 2138.49,143.009 2139.38,166.521 2140.27,377.523 2141.16,156.628 2142.05,514.552 2142.94,148.635 2143.83,149.823 2144.72,168.612 2145.61,163.351 2146.5,158.075 2147.39,355.451 2148.28,137.469 2149.17,158.945 2150.06,156.118 2150.95,169.255 2151.84,373.435 2152.73,154.042 2153.62,162.251 2154.51,361.248 2155.4,149.397 2156.29,387.11 2157.18,167.61 2158.07,345.689 2158.96,145.534 2159.85,155.69 2160.74,147.08 2161.63,184.333 2162.52,163.803 2163.41,351.451 2164.3,355.864 2165.19,162.378 2166.08,151.347 2166.97,155.73 2167.86,164.328 2168.75,355.691 2169.64,151.977 2170.53,400.018 2171.42,164.959 2172.31,165.747 2173.2,173.003 2174.09,173.152 2174.98,169.537 2175.87,154.653 2176.76,160.961 2177.65,162.44 2178.54,158.199 2179.43,152.566 2180.32,164.023 2181.21,363.196 2182.1,353.292 2182.99,472.051 2183.88,162.873 2184.77,162.329 2185.66,176.999 2186.55,146.491 2187.44,156.627 2188.33,156.062 2189.22,156.878 2190.12,164.78 2191.01,359.753 2191.9,145.849 2192.79,155.86 2193.68,151.357 2194.57,160.562 2195.46,160.875 2196.35,345.837 2197.24,153.132 2198.13,453.798 2199.02,176.069 2199.91,158.582 2200.8,164.22 2201.69,162.211 2202.58,162.598 2203.47,171.424 2204.36,146.727 2205.25,169.425 2206.14,333.34 2207.03,357.79 2207.92,346.631 2208.81,167.716 2209.7,161.719 2210.59,158.177 2211.48,156.732 2212.37,158.362 2213.26,175.216 2214.15,167.531 2215.04,158.226 2215.93,166.312 2216.82,159.214 2217.71,157.718 2218.6,172.228 2219.49,163.309 2220.38,160.959 2221.27,162.725 2222.16,368.392 2223.05,151.509 2223.94,140.436 2224.83,134.791 2225.72,152.929 2226.61,154.409 2227.5,159.759 2228.39,161.95 2229.28,145.408 2230.17,165.427 2231.06,145.744 2231.95,360.799 2232.84,154.065 2233.73,170.913 2234.62,157.567 2235.51,475.501 2236.4,437.207 2237.29,132.071 2238.18,157.326 2239.07,173.805 2239.96,161.047 2240.85,361.447 2241.74,163.493 2242.63,144.388 2243.52,171.141 2244.41,152.229 2245.3,157.93 2246.19,156.743 2247.08,151.739 2247.97,150.836 2248.86,153.266 2249.75,161.398 2250.64,163.995 2251.53,158.372 2252.42,156.882 2253.31,170.333 2254.2,160.241 2255.09,163.59 2255.98,149.352 2256.87,156.172 2257.76,150.36 2258.65,167.316 2259.54,351.556 2260.43,353.158 2261.32,162.555 2262.21,155.439 2263.1,147.506 2263.99,156.889 2264.88,147.286 2265.77,151.693 2266.66,157.862 2267.55,153.531 2268.44,158.123 2269.33,159.433 2270.22,155.6 2271.11,342.112 2272,154.396 2272.89,158.139 2273.78,168.849 2274.67,169.606 2275.56,164.31 2276.45,163.713 2277.34,158.251 2278.23,355.625 2279.12,342.944 2280.01,173.151 2280.9,163.554 2281.79,158.975 2282.68,173.626 2283.57,171.285 2284.46,158.028 2285.35,161.77 2286.24,153.058 2287.13,159.603 2288.02,340.248 2288.91,157.657 2289.8,159.272 2290.69,152.792 2291.58,151.356 2292.47,138.358 2293.36,181.396 2294.25,138.565 2295.14,156.993 2296.03,143.478 2296.92,149.436 2297.81,148.33 2298.7,139.273 2299.6,161.992 2300.49,139.237 2301.38,376.936 2302.27,144.538 2303.16,162.238 2304.05,505.822 2304.94,153.568 2305.83,158.17 2306.72,159.862 2307.61,165.853 2308.5,157.396 2309.39,166.372 2310.28,441.342 2311.17,150.891 2312.06,166.159 2312.95,163.67 2313.84,157.905 2314.73,178.997 2315.62,144.987 2316.51,170.522 2317.4,145.329 2318.29,150.49 2319.18,174.788 2320.07,175.068 2320.96,165.731 2321.85,423.515 2322.74,156.804 2323.63,161.624 2324.52,160.327 2325.41,157.544 2326.3,143.971 2327.19,162.041 2328.08,162.053 2328.97,148.764 2329.86,146.864 2330.75,163.352 2331.64,160.992 2332.53,348.511 2333.42,168.328 2334.31,173.481 2335.2,172.357 2336.09,164.642 2336.98,157.306 2337.87,162.132 2338.76,485.401 2339.65,146.421 2340.54,536.321 2341.43,178.213 2342.32,170.807 2343.21,160.192 2344.1,398.587 2344.99,351.923 2345.88,150.445 2346.77,163.534 2347.66,367.571 2348.55,360.611 2349.44,375.596 2350.33,159.585 2351.22,155.171 2352.11,164.316 2353,149.54 2353.89,382.038 2354.78,159.28 2355.67,148.934 2356.56,161.612 2357.45,165.31 2358.34,162.298 2359.23,155.924 2360.12,140.221 2361.01,151.523 2361.9,164.627 2362.79,460.932 2363.68,169.239 2364.57,168.951 2365.46,162.924 2366.35,163.81 2367.24,142.36 2368.13,138.952 2369.02,154.783 2369.91,341.791 2370.8,154.366 2371.69,151.456 2372.58,357.358 2373.47,170.776 2374.36,154.466 2375.25,168.08 2376.14,154.993 2377.03,158.571 2377.92,177.052 2378.81,165.624 2379.7,139.473 2380.59,158.344 2381.48,155.169 2382.37,358.246 2383.26,147.661 2384.15,164.824 2385.04,163.775 2385.93,147.468 2386.82,143.766 2387.71,167.863 2388.6,155.171 2389.49,155.883 2390.38,448.823 2391.27,159.369 2392.16,173.204 2393.05,157.912 2393.94,351.981 2394.83,484.909 2395.72,150.539 2396.61,150.762 2397.5,468.991 2398.39,351.211 2399.28,335.961 2400.17,135.338 2401.06,148.53 2401.95,156.312 2402.84,155.122 2403.73,164.766 2404.62,162.737 2405.51,162.533 2406.4,149.183 2407.29,168.194 2408.19,165.603 2409.08,363.008 2409.97,158.864 2410.86,155.508 2411.75,161.457 2412.64,140.073 2413.53,167.593 2414.42,157.045 2415.31,163.264 2416.2,165.735 2417.09,169.959 2417.98,173.692 2418.87,157.227 2419.76,160.911 2420.65,171.231 2421.54,157.64 2422.43,159.826 2423.32,154.303 2424.21,146.775 2425.1,344.415 2425.99,158.298 2426.88,165.544 2427.77,155.214 2428.66,439.665 2429.55,151.671 2430.44,143.592 2431.33,158.704 2432.22,160.276 2433.11,158.516 2434,395.484 2434.89,164.599 2435.78,335.901 2436.67,167.046 2437.56,395.746 2438.45,171.147 2439.34,156.138 2440.23,168.487 2441.12,142.779 2442.01,152.335 2442.9,165.693 2443.79,156.21 2444.68,170.347 2445.57,362.815 2446.46,160.768 2447.35,153.955 2448.24,156.48 2449.13,149.493 2450.02,156.176 2450.91,167.642 2451.8,168.696 2452.69,152.792 2453.58,155.956 2454.47,426.223 2455.36,152.481 2456.25,155.523 2457.14,168.559 2458.03,150.041 2458.92,154.366 2459.81,166.433 2460.7,152.181 2461.59,156.076 2462.48,353.244 2463.37,422.96 2464.26,474.023 2465.15,148.972 2466.04,149.163 2466.93,131.37 2467.82,159.359 2468.71,154.825 2469.6,171.766 2470.49,179.669 2471.38,368.616 2472.27,345.559 2473.16,150.233 2474.05,144.753 2474.94,166.877 2475.83,153.837 2476.72,137.756 2477.61,340.056 2478.5,145.232 2479.39,158.221 2480.28,143.704 2481.17,145.224 2482.06,147.661 2482.95,157.773 2483.84,156.922 2484.73,474.462 2485.62,145.376 2486.51,146.95 2487.4,173.714 2488.29,396.572 2489.18,348.072 2490.07,161.687 2490.96,169 2491.85,149.124 2492.74,166.027 2493.63,154.028 2494.52,156.547 2495.41,166.661 2496.3,149.738 2497.19,162.058 2498.08,168.084 2498.97,155.576 2499.86,156.191 2500.75,160.804 2501.64,169.298 2502.53,155.059 2503.42,160.506 2504.31,353.465 2505.2,381.475 2506.09,146.803 2506.98,344.154 2507.87,374.1 2508.76,155.513 2509.65,165.518 2510.54,161.075 2511.43,153.402 2512.32,154.9 2513.21,165.35 2514.1,156.368 2514.99,166.146 2515.88,153.62 2516.77,160.392 2517.67,164.709 2518.56,151.501 2519.45,164.666 2520.34,157.869 2521.23,158.454 2522.12,164.801 2523.01,159.705 2523.9,165.376 2524.79,157.812 2525.68,152.959 2526.57,163.569 2527.46,376.38 2528.35,359.94 2529.24,140.231 2530.13,138.595 2531.02,157.712 2531.91,156.903 2532.8,514.948 2533.69,161.49 2534.58,154.854 2535.47,142.008 2536.36,147.59 2537.25,150.792 2538.14,152.726 2539.03,457.616 2539.92,145.837 2540.81,152.935 2541.7,169.673 2542.59,162.105 2543.48,162.435 2544.37,170.711 2545.26,144.461 2546.15,160.058 2547.04,415.272 2547.93,151.877 2548.82,418.805 2549.71,342.13 2550.6,444.59 2551.49,186.881 2552.38,147.968 2553.27,155.465 2554.16,142.942 2555.05,147.394 2555.94,165.477 2556.83,159.472 2557.72,139.32 2558.61,148.725 2559.5,151.953 2560.39,141.212 2561.28,167.229 2562.17,146.328 2563.06,148.51 2563.95,150.97 2564.84,149.824 2565.73,164.006 2566.62,167.865 2567.51,160.503 2568.4,396.193 2569.29,157.402 2570.18,150.594 2571.07,151.369 2571.96,157.411 2572.85,352.919 2573.74,394.288 2574.63,174.698 2575.52,170.553 2576.41,168.977 2577.3,173.704 2578.19,163.961 2579.08,163.236 2579.97,162.822 2580.86,152.033 2581.75,365.714 2582.64,149.795 2583.53,163.659 2584.42,152.885 2585.31,175.604 2586.2,153.821 2587.09,165.373 2587.98,159.713 2588.87,154.469 2589.76,146.653 2590.65,385.006 2591.54,168.844 2592.43,161.278 2593.32,159.942 2594.21,158.514 2595.1,158.828 2595.99,143.301 2596.88,150.802 2597.77,152.124 2598.66,358.03 2599.55,171.667 2600.44,345.92 2601.33,147.908 2602.22,146.398 2603.11,150.671 2604,446.14 2604.89,174.239 2605.78,154.821 2606.67,160.875 2607.56,152.973 2608.45,156.168 2609.34,148.623 2610.23,161.975 2611.12,170.708 2612.01,147.461 2612.9,448.791 2613.79,155.765 2614.68,157.97 2615.57,355.423 2616.46,153.417 2617.35,146.255 2618.24,156.505 2619.13,159.735 2620.02,159.346 2620.91,354.598 2621.8,347.314 2622.69,150.147 2623.58,174.715 2624.47,361.63 2625.36,149.951 2626.25,164.995 2627.15,158.285 2628.04,460.399 2628.93,149.304 2629.82,154.98 2630.71,141.031 2631.6,167.09 2632.49,153.668 2633.38,153.418 2634.27,158.744 2635.16,147.075 2636.05,155.908 2636.94,168.801 2637.83,170.663 2638.72,446.604 2639.61,172.491 2640.5,165.171 2641.39,156.228 2642.28,153.86 2643.17,162.326 2644.06,156.685 2644.95,149.092 2645.84,163.402 2646.73,150.198 2647.62,158.698 2648.51,155.076 2649.4,153.248 2650.29,173.948 2651.18,155.65 2652.07,179.603 2652.96,143.585 2653.85,155.455 2654.74,159.621 2655.63,152.989 2656.52,159.943 2657.41,155.558 2658.3,154.032 2659.19,402.718 2660.08,166.362 2660.97,154.572 2661.86,158.823 2662.75,379.513 2663.64,154.073 2664.53,155.913 2665.42,155.386 2666.31,160.091 2667.2,159.133 2668.09,155.697 2668.98,140.504 2669.87,152.412 2670.76,148.109 2671.65,157.97 2672.54,140.221 2673.43,148.996 2674.32,159.541 2675.21,159.478 2676.1,164.555 2676.99,163.932 2677.88,157.691 2678.77,164.906 2679.66,418.49 2680.55,157.919 2681.44,170.685 2682.33,149.628 2683.22,171.117 2684.11,158.919 2685,160.869 2685.89,172.76 2686.78,168.601 2687.67,398.375 2688.56,170.45 2689.45,154.347 2690.34,461.459 2691.23,157.948 2692.12,360.031 2693.01,145.462 2693.9,148.339 2694.79,338.311 2695.68,144.251 2696.57,157.76 2697.46,141.558 2698.35,173.672 2699.24,153.846 2700.13,164.819 2701.02,162.169 2701.91,158.536 2702.8,164.171 2703.69,145.638 2704.58,151.988 2705.47,168.805 2706.36,161.621 2707.25,165.864 2708.14,169.161 2709.03,141.657 2709.92,149.393 2710.81,159.672 2711.7,154.138 2712.59,142.567 2713.48,158.635 2714.37,540.599 2715.26,168.596 2716.15,161.994 2717.04,142.51 2717.93,165.024 2718.82,151.261 2719.71,166.392 2720.6,360.064 2721.49,152.673 2722.38,159.048 2723.27,155.103 2724.16,157.752 2725.05,161.945 2725.94,170.959 2726.83,151.519 2727.72,165.256 2728.61,160.251 2729.5,350.805 2730.39,166.711 2731.28,158.247 2732.17,153.371 2733.06,567.375 2733.95,380.727 2734.84,161.466 2735.73,154.654 2736.63,155.564 2737.52,167.677 2738.41,154.404 2739.3,165.77 2740.19,156.498 2741.08,146.013 2741.97,162.41 2742.86,157.027 2743.75,157.563 2744.64,150.279 2745.53,147.795 2746.42,146.915 2747.31,149.251 2748.2,146.363 2749.09,148.692 2749.98,164.728 2750.87,162.928 2751.76,162.399 2752.65,135.388 2753.54,147.163 2754.43,157.392 2755.32,478.777 2756.21,357.937 2757.1,428.809 2757.99,159.947 2758.88,146.668 2759.77,167.72 2760.66,153.937 2761.55,153.091 2762.44,440.002 2763.33,166.542 2764.22,454.865 2765.11,163.646 2766,172.711 2766.89,150.449 2767.78,161.015 2768.67,159.803 2769.56,159.821 2770.45,161.099 2771.34,163.985 2772.23,163.1 2773.12,355.841 2774.01,159.241 2774.9,162.43 2775.79,152.313 2776.68,164.392 2777.57,160.736 2778.46,160.125 2779.35,153.477 2780.24,147.643 2781.13,165.59 2782.02,150.548 2782.91,148.014 2783.8,151.258 2784.69,160.921 2785.58,153.762 2786.47,164.215 2787.36,141.447 2788.25,157.001 2789.14,151.594 2790.03,167.473 2790.92,163.713 2791.81,148.594 2792.7,166.001 2793.59,348.266 2794.48,168.292 2795.37,439.6 2796.26,147.081 2797.15,155.069 2798.04,160.626 2798.93,362.529 2799.82,156.581 2800.71,156.832 2801.6,158.391 2802.49,159.607 2803.38,170.587 2804.27,162.063 2805.16,135.82 2806.05,177.398 2806.94,131.252 2807.83,161.019 2808.72,367.512 2809.61,367.707 2810.5,160.703 2811.39,155.033 2812.28,159.814 2813.17,164.383 2814.06,162.527 2814.95,164.548 2815.84,344.936 2816.73,374.596 2817.62,164.673 2818.51,146.956 2819.4,155.966 2820.29,157.465 2821.18,353.967 2822.07,151.447 2822.96,144.128 2823.85,174.247 2824.74,160.837 2825.63,140.141 2826.52,139.584 2827.41,171.873 2828.3,153.23 2829.19,164.703 2830.08,147.001 2830.97,149.892 2831.86,161.589 2832.75,166.45 2833.64,160.432 2834.53,149.388 2835.42,145.521 2836.31,171.498 2837.2,158.673 2838.09,349.313 2838.98,162.208 2839.87,160.168 2840.76,149.049 2841.65,176.649 2842.54,423.028 2843.43,377.458 2844.32,148.927 2845.21,408.946 2846.11,141.5 2847,336.67 2847.89,158.636 2848.78,163.911 2849.67,173.467 2850.56,430.401 2851.45,334.429 2852.34,165.976 2853.23,163.366 2854.12,172.726 2855.01,167.806 2855.9,158.538 2856.79,358.536 2857.68,359.845 2858.57,166.919 2859.46,152.915 2860.35,345.863 2861.24,167.377 2862.13,416.554 2863.02,155.165 2863.91,159.065 2864.8,146.373 2865.69,165.908 2866.58,140.856 2867.47,156.644 2868.36,156.086 2869.25,153.04 2870.14,166.558 2871.03,148.286 2871.92,151.604 2872.81,164.254 2873.7,156.458 2874.59,140.538 2875.48,157.814 2876.37,173.257 2877.26,173.058 2878.15,170.885 2879.04,175.598 2879.93,156.33 2880.82,397.143 2881.71,165.937 2882.6,150.463 2883.49,171.191 2884.38,347.093 2885.27,168.18 2886.16,152.781 2887.05,353.325 2887.94,161.242 2888.83,160.028 2889.72,154.275 2890.61,164.457 2891.5,344.871 2892.39,156.191 2893.28,373.301 2894.17,362.01 2895.06,439.034 2895.95,162.096 2896.84,159.685 2897.73,349.807 2898.62,355.199 2899.51,166.987 2900.4,157.104 2901.29,159.524 2902.18,161.01 2903.07,160.42 2903.96,164.583 2904.85,167.161 2905.74,337.384 2906.63,161.649 2907.52,350.048 2908.41,168.755 2909.3,161.093 2910.19,159.309 2911.08,162.57 2911.97,160.17 2912.86,165.5 2913.75,153.843 2914.64,339.777 2915.53,147.787 2916.42,166.516 2917.31,158.278 2918.2,147.121 2919.09,139.796 2919.98,140.264 2920.87,145.817 2921.76,161.956 2922.65,154.972 2923.54,142.368 2924.43,153.102 2925.32,155.288 2926.21,154.225 2927.1,157.185 2927.99,162.223 2928.88,142.045 2929.77,163.545 2930.66,158.654 2931.55,148.756 2932.44,356.129 2933.33,136.179 2934.22,150.815 2935.11,144.816 2936,171.359 2936.89,176.635 2937.78,163.381 2938.67,164.999 2939.56,162.915 2940.45,158.046 2941.34,164.38 2942.23,155.942 2943.12,151.876 2944.01,166.688 2944.9,158.167 2945.79,174.385 2946.68,158.614 2947.57,163.946 2948.46,168.605 2949.35,160.316 2950.24,148.41 2951.13,168.508 2952.02,162.871 2952.91,155.405 2953.8,153.201 2954.69,154.508 2955.59,153.955 2956.48,151.645 2957.37,149.061 2958.26,350.125 2959.15,168.265 2960.04,155.309 2960.93,146.188 2961.82,144.075 2962.71,348.433 2963.6,161.846 2964.49,159.376 2965.38,152.375 2966.27,155.807 2967.16,159.607 2968.05,179.076 2968.94,150.227 2969.83,160.119 2970.72,153.835 2971.61,160.216 2972.5,363.257 2973.39,151.804 2974.28,500.752 2975.17,160.33 2976.06,145.423 2976.95,143.056 2977.84,170.233 2978.73,351.859 2979.62,155.834 2980.51,171.768 2981.4,169.09 2982.29,158.05 2983.18,156.305 2984.07,146.349 2984.96,359.882 2985.85,156.056 2986.74,153.494 2987.63,153.703 2988.52,142.951 2989.41,175.437 2990.3,148.65 2991.19,168.744 2992.08,166.369 2992.97,157.312 2993.86,156.391 2994.75,152.407 2995.64,152.542 2996.53,162.034 2997.42,163.457 2998.31,153.748 2999.2,175.296 3000.09,142.17 3000.98,152.331 3001.87,148.808 3002.76,159.731 3003.65,169.683 3004.54,161.346 3005.43,160.278 3006.32,151.035 3007.21,159.102 3008.1,155.4 3008.99,343.977 3009.88,368.163 3010.77,155.506 3011.66,149.387 3012.55,357.761 3013.44,155.622 3014.33,159.267 3015.22,159.573 3016.11,150.511 3017,153.946 3017.89,158.268 3018.78,136.908 3019.67,166.258 3020.56,153.083 3021.45,148.953 3022.34,149.503 3023.23,151.952 3024.12,174.65 3025.01,166.957 3025.9,176.209 3026.79,392.144 3027.68,160.879 3028.57,147.912 3029.46,351.298 3030.35,154.369 3031.24,148.508 3032.13,168.053 3033.02,141.986 3033.91,397.281 3034.8,360.672 3035.69,351.257 3036.58,349.762 3037.47,438.101 3038.36,361.069 3039.25,157.209 3040.14,157.354 3041.03,177.65 3041.92,139.524 3042.81,170.547 3043.7,154.181 3044.59,161.917 3045.48,158.587 3046.37,431.472 3047.26,427.144 3048.15,149.099 3049.04,153.788 3049.93,153.16 3050.82,163.643 3051.71,155.605 3052.6,168.398 3053.49,173.111 3054.38,164.502 3055.27,150.044 3056.16,485.807 3057.05,159.731 3057.94,155.561 3058.83,160.989 3059.72,150.87 3060.61,152.796 3061.5,171.972 3062.39,153.54 3063.28,162.918 3064.18,163.074 3065.07,151.184 3065.96,470.486 3066.85,171.066 3067.74,155.579 "/>
<path clip-path="url(#clip960)" d="M2570.27 693.754 L3052.62 693.754 L3052.62 590.074 L2570.27 590.074  Z" fill="#ffffff" fill-rule="evenodd" fill-opacity="1"/>
<polyline clip-path="url(#clip960)" style="stroke:#000000; stroke-linecap:round; stroke-linejoin:round; stroke-width:4; stroke-opacity:1; fill:none" points="2570.27,693.754 3052.62,693.754 3052.62,590.074 2570.27,590.074 2570.27,693.754 "/>
<polyline clip-path="url(#clip960)" style="stroke:#009af9; stroke-linecap:round; stroke-linejoin:round; stroke-width:2; stroke-opacity:1; fill:none" points="2603.65,641.914 2803.92,641.914 "/>
<path clip-path="url(#clip960)" d="M2853.69 642.991 Q2855.19 643.5 2856.6 645.167 Q2858.04 646.833 2859.47 649.75 L2864.22 659.194 L2859.2 659.194 L2854.78 650.329 Q2853.06 646.857 2851.44 645.722 Q2849.84 644.588 2847.07 644.588 L2841.97 644.588 L2841.97 659.194 L2837.3 659.194 L2837.3 624.634 L2847.85 624.634 Q2853.78 624.634 2856.7 627.111 Q2859.61 629.588 2859.61 634.588 Q2859.61 637.852 2858.09 640.005 Q2856.58 642.157 2853.69 642.991 M2841.97 628.477 L2841.97 640.745 L2847.85 640.745 Q2851.23 640.745 2852.95 639.195 Q2854.68 637.62 2854.68 634.588 Q2854.68 631.556 2852.95 630.028 Q2851.23 628.477 2847.85 628.477 L2841.97 628.477 Z" fill="#000000" fill-rule="evenodd" fill-opacity="1" /><path clip-path="url(#clip960)" d="M2879.87 629.241 L2873.53 646.44 L2886.23 646.44 L2879.87 629.241 M2877.23 624.634 L2882.53 624.634 L2895.7 659.194 L2890.84 659.194 L2887.69 650.329 L2872.11 650.329 L2868.97 659.194 L2864.03 659.194 L2877.23 624.634 Z" fill="#000000" fill-rule="evenodd" fill-opacity="1" /><path clip-path="url(#clip960)" d="M2897.37 644.31 L2909.84 644.31 L2909.84 648.107 L2897.37 648.107 L2897.37 644.31 Z" fill="#000000" fill-rule="evenodd" fill-opacity="1" /><path clip-path="url(#clip960)" d="M2916.81 624.634 L2921.49 624.634 L2921.49 638.801 L2938.48 638.801 L2938.48 624.634 L2943.15 624.634 L2943.15 659.194 L2938.48 659.194 L2938.48 642.736 L2921.49 642.736 L2921.49 659.194 L2916.81 659.194 L2916.81 624.634 Z" fill="#000000" fill-rule="evenodd" fill-opacity="1" /><path clip-path="url(#clip960)" d="M2952.46 624.634 L2959.43 624.634 L2968.25 648.153 L2977.11 624.634 L2984.08 624.634 L2984.08 659.194 L2979.52 659.194 L2979.52 628.847 L2970.61 652.551 L2965.91 652.551 L2957 628.847 L2957 659.194 L2952.46 659.194 L2952.46 624.634 Z" fill="#000000" fill-rule="evenodd" fill-opacity="1" /><path clip-path="url(#clip960)" d="M3019.24 627.296 L3019.24 632.227 Q3016.88 630.028 3014.2 628.94 Q3011.53 627.852 3008.52 627.852 Q3002.6 627.852 2999.45 631.486 Q2996.3 635.097 2996.3 641.949 Q2996.3 648.778 2999.45 652.412 Q3002.6 656.023 3008.52 656.023 Q3011.53 656.023 3014.2 654.935 Q3016.88 653.847 3019.24 651.648 L3019.24 656.532 Q3016.79 658.199 3014.03 659.032 Q3011.3 659.866 3008.25 659.866 Q3000.4 659.866 2995.89 655.074 Q2991.37 650.259 2991.37 641.949 Q2991.37 633.616 2995.89 628.824 Q3000.4 624.009 3008.25 624.009 Q3011.35 624.009 3014.08 624.843 Q3016.83 625.653 3019.24 627.296 Z" fill="#000000" fill-rule="evenodd" fill-opacity="1" /></svg>
