<?xml version="1.0" encoding="utf-8"?>
<svg xmlns="http://www.w3.org/2000/svg" xmlns:xlink="http://www.w3.org/1999/xlink" width="800" height="200" viewBox="0 0 3200 800">
<defs>
  <clipPath id="clip160">
    <rect x="0" y="0" width="3200" height="800"/>
  </clipPath>
</defs>
<path clip-path="url(#clip160)" d="M0 800 L3200 800 L3200 0 L0 0  Z" fill="#ffffff" fill-rule="evenodd" fill-opacity="1"/>
<defs>
  <clipPath id="clip161">
    <rect x="640" y="0" width="2241" height="800"/>
  </clipPath>
</defs>
<path clip-path="url(#clip160)" d="M148.696 716.048 L3152.76 716.048 L3152.76 47.2441 L148.696 47.2441  Z" fill="#ffffff" fill-rule="evenodd" fill-opacity="1"/>
<defs>
  <clipPath id="clip162">
    <rect x="148" y="47" width="3005" height="670"/>
  </clipPath>
</defs>
<polyline clip-path="url(#clip162)" style="stroke:#000000; stroke-linecap:round; stroke-linejoin:round; stroke-width:2; stroke-opacity:0.1; fill:none" points="231.991,716.048 231.991,47.2441 "/>
<polyline clip-path="url(#clip162)" style="stroke:#000000; stroke-linecap:round; stroke-linejoin:round; stroke-width:2; stroke-opacity:0.1; fill:none" points="1094.44,716.048 1094.44,47.2441 "/>
<polyline clip-path="url(#clip162)" style="stroke:#000000; stroke-linecap:round; stroke-linejoin:round; stroke-width:2; stroke-opacity:0.1; fill:none" points="1956.9,716.048 1956.9,47.2441 "/>
<polyline clip-path="url(#clip162)" style="stroke:#000000; stroke-linecap:round; stroke-linejoin:round; stroke-width:2; stroke-opacity:0.1; fill:none" points="2819.35,716.048 2819.35,47.2441 "/>
<polyline clip-path="url(#clip160)" style="stroke:#000000; stroke-linecap:round; stroke-linejoin:round; stroke-width:4; stroke-opacity:1; fill:none" points="148.696,716.048 3152.76,716.048 "/>
<polyline clip-path="url(#clip160)" style="stroke:#000000; stroke-linecap:round; stroke-linejoin:round; stroke-width:4; stroke-opacity:1; fill:none" points="231.991,716.048 231.991,697.15 "/>
<polyline clip-path="url(#clip160)" style="stroke:#000000; stroke-linecap:round; stroke-linejoin:round; stroke-width:4; stroke-opacity:1; fill:none" points="1094.44,716.048 1094.44,697.15 "/>
<polyline clip-path="url(#clip160)" style="stroke:#000000; stroke-linecap:round; stroke-linejoin:round; stroke-width:4; stroke-opacity:1; fill:none" points="1956.9,716.048 1956.9,697.15 "/>
<polyline clip-path="url(#clip160)" style="stroke:#000000; stroke-linecap:round; stroke-linejoin:round; stroke-width:4; stroke-opacity:1; fill:none" points="2819.35,716.048 2819.35,697.15 "/>
<path clip-path="url(#clip160)" d="M231.991 753.367 Q228.38 753.367 226.551 756.931 Q224.746 760.473 224.746 767.603 Q224.746 774.709 226.551 778.274 Q228.38 781.815 231.991 781.815 Q235.625 781.815 237.431 778.274 Q239.26 774.709 239.26 767.603 Q239.26 760.473 237.431 756.931 Q235.625 753.367 231.991 753.367 M231.991 749.663 Q237.801 749.663 240.857 754.269 Q243.936 758.853 243.936 767.603 Q243.936 776.329 240.857 780.936 Q237.801 785.519 231.991 785.519 Q226.181 785.519 223.102 780.936 Q220.047 776.329 220.047 767.603 Q220.047 758.853 223.102 754.269 Q226.181 749.663 231.991 749.663 Z" fill="#000000" fill-rule="evenodd" fill-opacity="1" /><path clip-path="url(#clip160)" d="M1054.06 750.288 L1072.42 750.288 L1072.42 754.223 L1058.34 754.223 L1058.34 762.695 Q1059.36 762.348 1060.38 762.186 Q1061.4 762.001 1062.42 762.001 Q1068.21 762.001 1071.59 765.172 Q1074.96 768.343 1074.96 773.76 Q1074.96 779.339 1071.49 782.44 Q1068.02 785.519 1061.7 785.519 Q1059.53 785.519 1057.26 785.149 Q1055.01 784.778 1052.6 784.038 L1052.6 779.339 Q1054.69 780.473 1056.91 781.028 Q1059.13 781.584 1061.61 781.584 Q1065.61 781.584 1067.95 779.478 Q1070.29 777.371 1070.29 773.76 Q1070.29 770.149 1067.95 768.042 Q1065.61 765.936 1061.61 765.936 Q1059.73 765.936 1057.86 766.353 Q1056.01 766.769 1054.06 767.649 L1054.06 750.288 Z" fill="#000000" fill-rule="evenodd" fill-opacity="1" /><path clip-path="url(#clip160)" d="M1094.18 753.367 Q1090.57 753.367 1088.74 756.931 Q1086.93 760.473 1086.93 767.603 Q1086.93 774.709 1088.74 778.274 Q1090.57 781.815 1094.18 781.815 Q1097.81 781.815 1099.62 778.274 Q1101.45 774.709 1101.45 767.603 Q1101.45 760.473 1099.62 756.931 Q1097.81 753.367 1094.18 753.367 M1094.18 749.663 Q1099.99 749.663 1103.04 754.269 Q1106.12 758.853 1106.12 767.603 Q1106.12 776.329 1103.04 780.936 Q1099.99 785.519 1094.18 785.519 Q1088.37 785.519 1085.29 780.936 Q1082.23 776.329 1082.23 767.603 Q1082.23 758.853 1085.29 754.269 Q1088.37 749.663 1094.18 749.663 Z" fill="#000000" fill-rule="evenodd" fill-opacity="1" /><path clip-path="url(#clip160)" d="M1124.34 753.367 Q1120.73 753.367 1118.9 756.931 Q1117.09 760.473 1117.09 767.603 Q1117.09 774.709 1118.9 778.274 Q1120.73 781.815 1124.34 781.815 Q1127.97 781.815 1129.78 778.274 Q1131.61 774.709 1131.61 767.603 Q1131.61 760.473 1129.78 756.931 Q1127.97 753.367 1124.34 753.367 M1124.34 749.663 Q1130.15 749.663 1133.21 754.269 Q1136.28 758.853 1136.28 767.603 Q1136.28 776.329 1133.21 780.936 Q1130.15 785.519 1124.34 785.519 Q1118.53 785.519 1115.45 780.936 Q1112.4 776.329 1112.4 767.603 Q1112.4 758.853 1115.45 754.269 Q1118.53 749.663 1124.34 749.663 Z" fill="#000000" fill-rule="evenodd" fill-opacity="1" /><path clip-path="url(#clip160)" d="M1901.42 780.913 L1909.06 780.913 L1909.06 754.547 L1900.75 756.214 L1900.75 751.955 L1909.01 750.288 L1913.69 750.288 L1913.69 780.913 L1921.33 780.913 L1921.33 784.848 L1901.42 784.848 L1901.42 780.913 Z" fill="#000000" fill-rule="evenodd" fill-opacity="1" /><path clip-path="url(#clip160)" d="M1940.77 753.367 Q1937.16 753.367 1935.33 756.931 Q1933.53 760.473 1933.53 767.603 Q1933.53 774.709 1935.33 778.274 Q1937.16 781.815 1940.77 781.815 Q1944.41 781.815 1946.21 778.274 Q1948.04 774.709 1948.04 767.603 Q1948.04 760.473 1946.21 756.931 Q1944.41 753.367 1940.77 753.367 M1940.77 749.663 Q1946.58 749.663 1949.64 754.269 Q1952.72 758.853 1952.72 767.603 Q1952.72 776.329 1949.64 780.936 Q1946.58 785.519 1940.77 785.519 Q1934.96 785.519 1931.88 780.936 Q1928.83 776.329 1928.83 767.603 Q1928.83 758.853 1931.88 754.269 Q1934.96 749.663 1940.77 749.663 Z" fill="#000000" fill-rule="evenodd" fill-opacity="1" /><path clip-path="url(#clip160)" d="M1970.94 753.367 Q1967.32 753.367 1965.5 756.931 Q1963.69 760.473 1963.69 767.603 Q1963.69 774.709 1965.5 778.274 Q1967.32 781.815 1970.94 781.815 Q1974.57 781.815 1976.38 778.274 Q1978.2 774.709 1978.2 767.603 Q1978.2 760.473 1976.38 756.931 Q1974.57 753.367 1970.94 753.367 M1970.94 749.663 Q1976.75 749.663 1979.8 754.269 Q1982.88 758.853 1982.88 767.603 Q1982.88 776.329 1979.8 780.936 Q1976.75 785.519 1970.94 785.519 Q1965.13 785.519 1962.05 780.936 Q1958.99 776.329 1958.99 767.603 Q1958.99 758.853 1962.05 754.269 Q1965.13 749.663 1970.94 749.663 Z" fill="#000000" fill-rule="evenodd" fill-opacity="1" /><path clip-path="url(#clip160)" d="M2001.1 753.367 Q1997.49 753.367 1995.66 756.931 Q1993.85 760.473 1993.85 767.603 Q1993.85 774.709 1995.66 778.274 Q1997.49 781.815 2001.1 781.815 Q2004.73 781.815 2006.54 778.274 Q2008.37 774.709 2008.37 767.603 Q2008.37 760.473 2006.54 756.931 Q2004.73 753.367 2001.1 753.367 M2001.1 749.663 Q2006.91 749.663 2009.96 754.269 Q2013.04 758.853 2013.04 767.603 Q2013.04 776.329 2009.96 780.936 Q2006.91 785.519 2001.1 785.519 Q1995.29 785.519 1992.21 780.936 Q1989.15 776.329 1989.15 767.603 Q1989.15 758.853 1992.21 754.269 Q1995.29 749.663 2001.1 749.663 Z" fill="#000000" fill-rule="evenodd" fill-opacity="1" /><path clip-path="url(#clip160)" d="M2763.87 780.913 L2771.51 780.913 L2771.51 754.547 L2763.2 756.214 L2763.2 751.955 L2771.47 750.288 L2776.14 750.288 L2776.14 780.913 L2783.78 780.913 L2783.78 784.848 L2763.87 784.848 L2763.87 780.913 Z" fill="#000000" fill-rule="evenodd" fill-opacity="1" /><path clip-path="url(#clip160)" d="M2793.27 750.288 L2811.63 750.288 L2811.63 754.223 L2797.56 754.223 L2797.56 762.695 Q2798.57 762.348 2799.59 762.186 Q2800.61 762.001 2801.63 762.001 Q2807.42 762.001 2810.8 765.172 Q2814.18 768.343 2814.18 773.76 Q2814.18 779.339 2810.7 782.44 Q2807.23 785.519 2800.91 785.519 Q2798.74 785.519 2796.47 785.149 Q2794.22 784.778 2791.81 784.038 L2791.81 779.339 Q2793.9 780.473 2796.12 781.028 Q2798.34 781.584 2800.82 781.584 Q2804.82 781.584 2807.16 779.478 Q2809.5 777.371 2809.5 773.76 Q2809.5 770.149 2807.16 768.042 Q2804.82 765.936 2800.82 765.936 Q2798.94 765.936 2797.07 766.353 Q2795.22 766.769 2793.27 767.649 L2793.27 750.288 Z" fill="#000000" fill-rule="evenodd" fill-opacity="1" /><path clip-path="url(#clip160)" d="M2833.39 753.367 Q2829.78 753.367 2827.95 756.931 Q2826.14 760.473 2826.14 767.603 Q2826.14 774.709 2827.95 778.274 Q2829.78 781.815 2833.39 781.815 Q2837.02 781.815 2838.83 778.274 Q2840.66 774.709 2840.66 767.603 Q2840.66 760.473 2838.83 756.931 Q2837.02 753.367 2833.39 753.367 M2833.39 749.663 Q2839.2 749.663 2842.25 754.269 Q2845.33 758.853 2845.33 767.603 Q2845.33 776.329 2842.25 780.936 Q2839.2 785.519 2833.39 785.519 Q2827.58 785.519 2824.5 780.936 Q2821.44 776.329 2821.44 767.603 Q2821.44 758.853 2824.5 754.269 Q2827.58 749.663 2833.39 749.663 Z" fill="#000000" fill-rule="evenodd" fill-opacity="1" /><path clip-path="url(#clip160)" d="M2863.55 753.367 Q2859.94 753.367 2858.11 756.931 Q2856.3 760.473 2856.3 767.603 Q2856.3 774.709 2858.11 778.274 Q2859.94 781.815 2863.55 781.815 Q2867.18 781.815 2868.99 778.274 Q2870.82 774.709 2870.82 767.603 Q2870.82 760.473 2868.99 756.931 Q2867.18 753.367 2863.55 753.367 M2863.55 749.663 Q2869.36 749.663 2872.42 754.269 Q2875.49 758.853 2875.49 767.603 Q2875.49 776.329 2872.42 780.936 Q2869.36 785.519 2863.55 785.519 Q2857.74 785.519 2854.66 780.936 Q2851.61 776.329 2851.61 767.603 Q2851.61 758.853 2854.66 754.269 Q2857.74 749.663 2863.55 749.663 Z" fill="#000000" fill-rule="evenodd" fill-opacity="1" /><polyline clip-path="url(#clip162)" style="stroke:#000000; stroke-linecap:round; stroke-linejoin:round; stroke-width:2; stroke-opacity:0.1; fill:none" points="148.696,716.048 3152.76,716.048 "/>
<polyline clip-path="url(#clip162)" style="stroke:#000000; stroke-linecap:round; stroke-linejoin:round; stroke-width:2; stroke-opacity:0.1; fill:none" points="148.696,576.714 3152.76,576.714 "/>
<polyline clip-path="url(#clip162)" style="stroke:#000000; stroke-linecap:round; stroke-linejoin:round; stroke-width:2; stroke-opacity:0.1; fill:none" points="148.696,437.38 3152.76,437.38 "/>
<polyline clip-path="url(#clip162)" style="stroke:#000000; stroke-linecap:round; stroke-linejoin:round; stroke-width:2; stroke-opacity:0.1; fill:none" points="148.696,298.046 3152.76,298.046 "/>
<polyline clip-path="url(#clip162)" style="stroke:#000000; stroke-linecap:round; stroke-linejoin:round; stroke-width:2; stroke-opacity:0.1; fill:none" points="148.696,158.711 3152.76,158.711 "/>
<polyline clip-path="url(#clip160)" style="stroke:#000000; stroke-linecap:round; stroke-linejoin:round; stroke-width:4; stroke-opacity:1; fill:none" points="148.696,716.048 148.696,47.2441 "/>
<polyline clip-path="url(#clip160)" style="stroke:#000000; stroke-linecap:round; stroke-linejoin:round; stroke-width:4; stroke-opacity:1; fill:none" points="148.696,716.048 167.593,716.048 "/>
<polyline clip-path="url(#clip160)" style="stroke:#000000; stroke-linecap:round; stroke-linejoin:round; stroke-width:4; stroke-opacity:1; fill:none" points="148.696,576.714 167.593,576.714 "/>
<polyline clip-path="url(#clip160)" style="stroke:#000000; stroke-linecap:round; stroke-linejoin:round; stroke-width:4; stroke-opacity:1; fill:none" points="148.696,437.38 167.593,437.38 "/>
<polyline clip-path="url(#clip160)" style="stroke:#000000; stroke-linecap:round; stroke-linejoin:round; stroke-width:4; stroke-opacity:1; fill:none" points="148.696,298.046 167.593,298.046 "/>
<polyline clip-path="url(#clip160)" style="stroke:#000000; stroke-linecap:round; stroke-linejoin:round; stroke-width:4; stroke-opacity:1; fill:none" points="148.696,158.711 167.593,158.711 "/>
<path clip-path="url(#clip160)" d="M88.7512 701.847 Q85.1401 701.847 83.3114 705.411 Q81.5058 708.953 81.5058 716.083 Q81.5058 723.189 83.3114 726.754 Q85.1401 730.295 88.7512 730.295 Q92.3854 730.295 94.1909 726.754 Q96.0196 723.189 96.0196 716.083 Q96.0196 708.953 94.1909 705.411 Q92.3854 701.847 88.7512 701.847 M88.7512 698.143 Q94.5613 698.143 97.6169 702.749 Q100.696 707.333 100.696 716.083 Q100.696 724.809 97.6169 729.416 Q94.5613 733.999 88.7512 733.999 Q82.941 733.999 79.8623 729.416 Q76.8068 724.809 76.8068 716.083 Q76.8068 707.333 79.8623 702.749 Q82.941 698.143 88.7512 698.143 Z" fill="#000000" fill-rule="evenodd" fill-opacity="1" /><path clip-path="url(#clip160)" d="M79.7929 559.434 L98.1493 559.434 L98.1493 563.369 L84.0753 563.369 L84.0753 571.841 Q85.0938 571.494 86.1123 571.332 Q87.1308 571.147 88.1493 571.147 Q93.9363 571.147 97.3159 574.318 Q100.696 577.489 100.696 582.906 Q100.696 588.485 97.2233 591.586 Q93.7511 594.665 87.4317 594.665 Q85.2558 594.665 82.9873 594.295 Q80.7419 593.924 78.3346 593.184 L78.3346 588.485 Q80.4179 589.619 82.6401 590.174 Q84.8623 590.73 87.3391 590.73 Q91.3437 590.73 93.6817 588.623 Q96.0196 586.517 96.0196 582.906 Q96.0196 579.295 93.6817 577.188 Q91.3437 575.082 87.3391 575.082 Q85.4641 575.082 83.5892 575.498 Q81.7373 575.915 79.7929 576.795 L79.7929 559.434 Z" fill="#000000" fill-rule="evenodd" fill-opacity="1" /><path clip-path="url(#clip160)" d="M49.3995 450.724 L57.0384 450.724 L57.0384 424.359 L48.7282 426.026 L48.7282 421.766 L56.9921 420.1 L61.668 420.1 L61.668 450.724 L69.3068 450.724 L69.3068 454.66 L49.3995 454.66 L49.3995 450.724 Z" fill="#000000" fill-rule="evenodd" fill-opacity="1" /><path clip-path="url(#clip160)" d="M88.7512 423.178 Q85.1401 423.178 83.3114 426.743 Q81.5058 430.285 81.5058 437.414 Q81.5058 444.521 83.3114 448.086 Q85.1401 451.627 88.7512 451.627 Q92.3854 451.627 94.1909 448.086 Q96.0196 444.521 96.0196 437.414 Q96.0196 430.285 94.1909 426.743 Q92.3854 423.178 88.7512 423.178 M88.7512 419.475 Q94.5613 419.475 97.6169 424.081 Q100.696 428.664 100.696 437.414 Q100.696 446.141 97.6169 450.748 Q94.5613 455.331 88.7512 455.331 Q82.941 455.331 79.8623 450.748 Q76.8068 446.141 76.8068 437.414 Q76.8068 428.664 79.8623 424.081 Q82.941 419.475 88.7512 419.475 Z" fill="#000000" fill-rule="evenodd" fill-opacity="1" /><path clip-path="url(#clip160)" d="M50.3949 311.39 L58.0337 311.39 L58.0337 285.025 L49.7236 286.691 L49.7236 282.432 L57.9874 280.766 L62.6633 280.766 L62.6633 311.39 L70.3022 311.39 L70.3022 315.326 L50.3949 315.326 L50.3949 311.39 Z" fill="#000000" fill-rule="evenodd" fill-opacity="1" /><path clip-path="url(#clip160)" d="M79.7929 280.766 L98.1493 280.766 L98.1493 284.701 L84.0753 284.701 L84.0753 293.173 Q85.0938 292.826 86.1123 292.664 Q87.1308 292.478 88.1493 292.478 Q93.9363 292.478 97.3159 295.65 Q100.696 298.821 100.696 304.238 Q100.696 309.816 97.2233 312.918 Q93.7511 315.997 87.4317 315.997 Q85.2558 315.997 82.9873 315.626 Q80.7419 315.256 78.3346 314.515 L78.3346 309.816 Q80.4179 310.951 82.6401 311.506 Q84.8623 312.062 87.3391 312.062 Q91.3437 312.062 93.6817 309.955 Q96.0196 307.849 96.0196 304.238 Q96.0196 300.627 93.6817 298.52 Q91.3437 296.414 87.3391 296.414 Q85.4641 296.414 83.5892 296.83 Q81.7373 297.247 79.7929 298.127 L79.7929 280.766 Z" fill="#000000" fill-rule="evenodd" fill-opacity="1" /><path clip-path="url(#clip160)" d="M52.6171 172.056 L68.9365 172.056 L68.9365 175.991 L46.9921 175.991 L46.9921 172.056 Q49.6541 169.302 54.2375 164.672 Q58.8439 160.019 60.0245 158.677 Q62.2698 156.154 63.1494 154.417 Q64.0522 152.658 64.0522 150.968 Q64.0522 148.214 62.1078 146.478 Q60.1865 144.742 57.0847 144.742 Q54.8856 144.742 52.4319 145.505 Q50.0014 146.269 47.2236 147.82 L47.2236 143.098 Q50.0477 141.964 52.5014 141.385 Q54.955 140.806 56.9921 140.806 Q62.3624 140.806 65.5568 143.492 Q68.7513 146.177 68.7513 150.667 Q68.7513 152.797 67.9411 154.718 Q67.1541 156.616 65.0476 159.209 Q64.4689 159.88 61.367 163.098 Q58.2652 166.292 52.6171 172.056 Z" fill="#000000" fill-rule="evenodd" fill-opacity="1" /><path clip-path="url(#clip160)" d="M88.7512 144.51 Q85.1401 144.51 83.3114 148.075 Q81.5058 151.617 81.5058 158.746 Q81.5058 165.853 83.3114 169.417 Q85.1401 172.959 88.7512 172.959 Q92.3854 172.959 94.1909 169.417 Q96.0196 165.853 96.0196 158.746 Q96.0196 151.617 94.1909 148.075 Q92.3854 144.51 88.7512 144.51 M88.7512 140.806 Q94.5613 140.806 97.6169 145.413 Q100.696 149.996 100.696 158.746 Q100.696 167.473 97.6169 172.079 Q94.5613 176.663 88.7512 176.663 Q82.941 176.663 79.8623 172.079 Q76.8068 167.473 76.8068 158.746 Q76.8068 149.996 79.8623 145.413 Q82.941 140.806 88.7512 140.806 Z" fill="#000000" fill-rule="evenodd" fill-opacity="1" /><polyline clip-path="url(#clip162)" style="stroke:#009af9; stroke-linecap:round; stroke-linejoin:round; stroke-width:2; stroke-opacity:1; fill:none" points="233.716,179.306 235.441,171.918 237.166,168.814 238.891,409.869 240.616,369.627 242.341,373.552 244.066,158.153 245.79,160.165 247.515,161.638 249.24,157.195 250.965,156.078 252.69,159.151 254.415,150.239 256.14,158.462 257.865,167.463 259.59,156.405 261.315,153.611 263.04,157.176 264.764,358.688 266.489,363.891 268.214,153.046 269.939,165.206 271.664,151.391 273.389,169.169 275.114,336.821 276.839,151.251 278.564,158.98 280.289,475.81 282.013,445.891 283.738,401.515 285.463,457.305 287.188,346.282 288.913,401.11 290.638,460.026 292.363,360.183 294.088,142.373 295.813,167.206 297.538,157.628 299.263,373.678 300.987,336.453 302.712,336.367 304.437,327.301 306.162,344.561 307.887,163.847 309.612,180.859 311.337,146.267 313.062,153.239 314.787,160.233 316.512,171.786 318.236,147.759 319.961,174.8 321.686,172.322 323.411,179.332 325.136,155.742 326.861,167.07 328.586,160.522 330.311,161.302 332.036,151.096 333.761,139.231 335.486,179.258 337.21,129.507 338.935,355.644 340.66,540.026 342.385,478.632 344.11,496.432 345.835,360.961 347.56,157.744 349.285,151.447 351.01,162.335 352.735,158.542 354.459,145.301 356.184,165.944 357.909,164.27 359.634,153.381 361.359,143.379 363.084,135.564 364.809,169.158 366.534,176.547 368.259,149.932 369.984,156.576 371.709,155.219 373.433,159.605 375.158,154.972 376.883,154.599 378.608,142.778 380.333,164.773 382.058,161.911 383.783,164.263 385.508,140.841 387.233,135.016 388.958,145.431 390.682,143.188 392.407,158.564 394.132,156.305 395.857,160.029 397.582,167.501 399.307,158.277 401.032,177.081 402.757,142.413 404.482,164.163 406.207,153.122 407.932,148.416 409.656,172.862 411.381,138.922 413.106,141.595 414.831,152.205 416.556,158.416 418.281,164.669 420.006,164.855 421.731,157.616 423.456,161.048 425.181,149.036 426.905,147.995 428.63,160.135 430.355,141.135 432.08,151.955 433.805,154.408 435.53,157.151 437.255,153.231 438.98,161.865 440.705,169.521 442.43,141.435 444.155,176.56 445.879,147.086 447.604,161.571 449.329,161.861 451.054,146.129 452.779,168.957 454.504,165.74 456.229,151.074 457.954,143.602 459.679,153.104 461.404,147.108 463.129,139.512 464.853,144.141 466.578,158.72 468.303,335.434 470.028,344.917 471.753,156.661 473.478,161.618 475.203,155.8 476.928,137.133 478.653,148.724 480.378,164.943 482.102,166.041 483.827,173.495 485.552,178.983 487.277,179.565 489.002,137.342 490.727,155.902 492.452,172.138 494.177,147.406 495.902,151.762 497.627,139.94 499.352,155.572 501.076,170.484 502.801,356.747 504.526,333.681 506.251,333.225 507.976,348.441 509.701,354.32 511.426,440.224 513.151,442.053 514.876,347.725 516.601,408.525 518.325,489.912 520.05,512.658 521.775,384.256 523.5,153.658 525.225,359.286 526.95,426.211 528.675,421.952 530.4,462.661 532.125,522.518 533.85,532.358 535.575,359.203 537.299,522.555 539.024,474.612 540.749,545.273 542.474,378.811 544.199,166.71 545.924,152.02 547.649,164.502 549.374,175.729 551.099,159.33 552.824,142.827 554.548,154.254 556.273,143.725 557.998,162.388 559.723,171.315 561.448,156.221 563.173,152.312 564.898,171.342 566.623,146.624 568.348,148.05 570.073,147.709 571.798,156.389 573.522,155.812 575.247,148.021 576.972,152.028 578.697,151.213 580.422,164.33 582.147,170.533 583.872,146.336 585.597,152.016 587.322,170.252 589.047,150.724 590.771,143.487 592.496,175.366 594.221,154.249 595.946,170.157 597.671,329.536 599.396,138.072 601.121,179.512 602.846,146.485 604.571,149.234 606.296,140.286 608.021,169.155 609.745,163.038 611.47,372.554 613.195,150.201 614.92,151.568 616.645,154.551 618.37,152.902 620.095,159.161 621.82,150.772 623.545,148.689 625.27,145.82 626.994,160.427 628.719,165.517 630.444,152.21 632.169,153.833 633.894,168.611 635.619,153.874 637.344,156.114 639.069,158.753 640.794,148.146 642.519,156.634 644.244,168.13 645.968,156.527 647.693,160.994 649.418,168.434 651.143,152.641 652.868,141.882 654.593,147.894 656.318,166.573 658.043,162.799 659.768,149.536 661.493,154.512 663.218,434.502 664.942,369.296 666.667,403.398 668.392,366.955 670.117,168.364 671.842,169.228 673.567,141.735 675.292,169.344 677.017,174.82 678.742,149.08 680.467,145.344 682.191,152.114 683.916,168.918 685.641,159.857 687.366,162.793 689.091,165.942 690.816,150.265 692.541,160.908 694.266,157.465 695.991,148.261 697.716,148.712 699.441,144.149 701.165,164.441 702.89,148.23 704.615,154.939 706.34,160.268 708.065,148.717 709.79,165.478 711.515,156.788 713.24,162.768 714.965,164.781 716.69,156.658 718.414,166.552 720.139,161.435 721.864,148.783 723.589,170.741 725.314,168.002 727.039,350.791 728.764,477.148 730.489,391.174 732.214,343.7 733.939,137.934 735.664,163.317 737.388,146.566 739.113,146.727 740.838,165.099 742.563,148.761 744.288,156.742 746.013,344.976 747.738,349.899 749.463,369.498 751.188,378.997 752.913,152.244 754.637,157.453 756.362,162.225 758.087,150.377 759.812,161.855 761.537,162.791 763.262,179.807 764.987,181.797 766.712,184.118 768.437,180.685 770.162,142.15 771.887,359.169 773.611,158.975 775.336,164.128 777.061,170.67 778.786,170.411 780.511,164.263 782.236,148.188 783.961,155.992 785.686,172.288 787.411,174.284 789.136,153.019 790.86,164.75 792.585,148.513 794.31,148.292 796.035,175.421 797.76,146.105 799.485,163.524 801.21,167.349 802.935,150.546 804.66,151.449 806.385,174.76 808.11,151.37 809.834,154.075 811.559,143.449 813.284,158.967 815.009,155.131 816.734,162.213 818.459,157.798 820.184,148.781 821.909,144.564 823.634,162.278 825.359,168.469 827.084,161.498 828.808,143.523 830.533,168.149 832.258,176.405 833.983,146.744 835.708,155.367 837.433,177.714 839.158,151.753 840.883,159.363 842.608,150.421 844.333,166.475 846.057,162.344 847.782,171.309 849.507,159.393 851.232,166.368 852.957,155.163 854.682,152.874 856.407,169.445 858.132,161.289 859.857,152.277 861.582,159.091 863.307,166.908 865.031,150.777 866.756,161.703 868.481,139.744 870.206,147.526 871.931,143.348 873.656,174.77 875.381,175.393 877.106,155.774 878.831,161.369 880.556,177.437 882.28,161.545 884.005,147.973 885.73,154.623 887.455,150.114 889.18,169.63 890.905,170.392 892.63,166.529 894.355,147.989 896.08,152.852 897.805,162.346 899.53,151.296 901.254,150.021 902.979,171.057 904.704,163.36 906.429,155.289 908.154,163.138 909.879,152.647 911.604,160.382 913.329,160.357 915.054,175.025 916.779,157.073 918.503,164.016 920.228,160.974 921.953,166.097 923.678,155.023 925.403,149.957 927.128,181.867 928.853,343.395 930.578,154.227 932.303,159.979 934.028,158.94 935.753,161.097 937.477,150.234 939.202,156.98 940.927,159.28 942.652,168.19 944.377,190.38 946.102,175.216 947.827,139.221 949.552,321.807 951.277,462.849 953.002,438.116 954.726,362.105 956.451,165.53 958.176,150.54 959.901,159.545 961.626,159.146 963.351,152.537 965.076,159.196 966.801,168.984 968.526,154.978 970.251,159.192 971.976,157.758 973.7,162.035 975.425,164.847 977.15,147.059 978.875,171.292 980.6,143.001 982.325,169.672 984.05,153.139 985.775,155.335 987.5,148.607 989.225,158.977 990.949,153.976 992.674,153.909 994.399,151.642 996.124,153.229 997.849,165.273 999.574,167.088 1001.3,144.553 1003.02,140.999 1004.75,157.639 1006.47,169.658 1008.2,169.83 1009.92,149.634 1011.65,151.066 1013.37,326.84 1015.1,162.854 1016.82,349.437 1018.55,155.056 1020.27,143.525 1022,151.868 1023.72,173.309 1025.45,338.984 1027.17,162.027 1028.9,150.442 1030.62,172.144 1032.35,152.812 1034.07,164.807 1035.8,446.966 1037.52,341.27 1039.25,351.728 1040.97,496.87 1042.7,346.527 1044.42,162.907 1046.15,150.531 1047.87,163.584 1049.6,164.681 1051.32,173.14 1053.05,177.003 1054.77,174.559 1056.5,165.728 1058.22,166.07 1059.95,158.801 1061.67,149.125 1063.4,159.895 1065.12,154.773 1066.85,166.932 1068.57,152.134 1070.3,136.81 1072.02,164.59 1073.74,156.414 1075.47,168.273 1077.19,176.174 1078.92,148.331 1080.64,134.326 1082.37,160.704 1084.09,158.936 1085.82,158.711 1087.54,155.878 1089.27,156.8 1090.99,156.826 1092.72,136.057 1094.44,136.792 1096.17,139.049 1097.89,160.582 1099.62,165.988 1101.34,151.383 1103.07,150.104 1104.79,169.458 1106.52,160.759 1108.24,150.192 1109.97,361.201 1111.69,507.209 1113.42,329.633 1115.14,344.804 1116.87,152.216 1118.59,158.951 1120.32,157.863 1122.04,153.691 1123.77,164.39 1125.49,354.688 1127.22,362.991 1128.94,428.926 1130.67,362.383 1132.39,172.235 1134.12,167.312 1135.84,365.247 1137.57,142.318 1139.29,166.429 1141.02,154.335 1142.74,176.779 1144.47,148.739 1146.19,150.992 1147.92,153.288 1149.64,149.081 1151.37,169.913 1153.09,157.283 1154.82,348.241 1156.54,158.77 1158.27,160.117 1159.99,326.063 1161.72,147.936 1163.44,171.962 1165.16,160.137 1166.89,154.316 1168.61,153.503 1170.34,151.912 1172.06,159.075 1173.79,147.423 1175.51,148.777 1177.24,154.016 1178.96,163.917 1180.69,146.166 1182.41,173.156 1184.14,149.074 1185.86,153.52 1187.59,154.764 1189.31,174.537 1191.04,154.428 1192.76,166.808 1194.49,149.095 1196.21,164.979 1197.94,156 1199.66,164.672 1201.39,160.066 1203.11,154.637 1204.84,172.113 1206.56,154.088 1208.29,163.072 1210.01,167.591 1211.74,146.693 1213.46,151.686 1215.19,162.879 1216.91,155.217 1218.64,179.453 1220.36,167.159 1222.09,167.699 1223.81,171.061 1225.54,169.81 1227.26,166.872 1228.99,162.008 1230.71,175.373 1232.44,152.589 1234.16,143.49 1235.89,142.355 1237.61,139.748 1239.34,136.978 1241.06,177.743 1242.79,150.903 1244.51,150.943 1246.24,156.966 1247.96,152.786 1249.69,162.592 1251.41,159.271 1253.14,139.136 1254.86,139.588 1256.58,144.682 1258.31,160.852 1260.03,152.812 1261.76,144.576 1263.48,149.329 1265.21,150.079 1266.93,153.917 1268.66,146.831 1270.38,154.385 1272.11,169.11 1273.83,143.585 1275.56,159.364 1277.28,141.729 1279.01,166.091 1280.73,165.829 1282.46,152.257 1284.18,172.877 1285.91,150.808 1287.63,161.124 1289.36,180.753 1291.08,168.824 1292.81,173.154 1294.53,145.626 1296.26,153.567 1297.98,163.886 1299.71,148.411 1301.43,162.147 1303.16,174.079 1304.88,173.704 1306.61,138.922 1308.33,164.853 1310.06,149.313 1311.78,347.546 1313.51,345.56 1315.23,343.202 1316.96,349.689 1318.68,153.864 1320.41,178.218 1322.13,150.658 1323.86,138.212 1325.58,183.341 1327.31,440.319 1329.03,377.789 1330.76,179.952 1332.48,140.767 1334.21,177.226 1335.93,166.314 1337.66,161.858 1339.38,156.758 1341.11,156.746 1342.83,163.599 1344.56,150.272 1346.28,147.489 1348,157.68 1349.73,164.486 1351.45,169.614 1353.18,145.472 1354.9,148.426 1356.63,141.025 1358.35,173.894 1360.08,149.868 1361.8,147.364 1363.53,163.555 1365.25,150.409 1366.98,149.307 1368.7,170.285 1370.43,145.24 1372.15,158.289 1373.88,156.904 1375.6,157.877 1377.33,170.614 1379.05,151.268 1380.78,169.252 1382.5,146.636 1384.23,163.088 1385.95,143.617 1387.68,158.319 1389.4,166.952 1391.13,156.143 1392.85,161.494 1394.58,155.362 1396.3,152.385 1398.03,169.971 1399.75,160.832 1401.48,161.795 1403.2,158.769 1404.93,145.146 1406.65,153.337 1408.38,163.362 1410.1,152.862 1411.83,180.767 1413.55,179.249 1415.28,349.913 1417,358.797 1418.73,352.35 1420.45,162.608 1422.18,145.428 1423.9,158.128 1425.63,147.957 1427.35,148.775 1429.08,159.227 1430.8,162.693 1432.53,141.233 1434.25,141.298 1435.98,142.104 1437.7,170.47 1439.42,162.44 1441.15,159.044 1442.87,163.291 1444.6,171.208 1446.32,144.573 1448.05,165.848 1449.77,157.985 1451.5,157.528 1453.22,167.24 1454.95,147.573 1456.67,156.211 1458.4,164.332 1460.12,151.538 1461.85,157.538 1463.57,149.926 1465.3,159.509 1467.02,140.898 1468.75,148.702 1470.47,153.143 1472.2,145.729 1473.92,169.871 1475.65,155.612 1477.37,155.775 1479.1,166.616 1480.82,157.139 1482.55,168.187 1484.27,155.473 1486,167.925 1487.72,163.817 1489.45,151.219 1491.17,165.128 1492.9,151.812 1494.62,167.377 1496.35,154.265 1498.07,160.566 1499.8,148.837 1501.52,141.153 1503.25,142.493 1504.97,143.606 1506.7,139.519 1508.42,151.125 1510.15,168.827 1511.87,158.713 1513.6,168.901 1515.32,149.54 1517.05,164.825 1518.77,160.881 1520.5,165.278 1522.22,151.681 1523.95,163.168 1525.67,146.817 1527.4,149.639 1529.12,146.395 1530.84,148.334 1532.57,156.807 1534.29,172.163 1536.02,170.614 1537.74,343.062 1539.47,367.776 1541.19,342.186 1542.92,386.327 1544.64,402.246 1546.37,425.427 1548.09,443 1549.82,361.097 1551.54,159.606 1553.27,161.878 1554.99,162.141 1556.72,162.83 1558.44,156.712 1560.17,163.178 1561.89,151.002 1563.62,150.616 1565.34,370.799 1567.07,351.361 1568.79,380.413 1570.52,143.353 1572.24,161.292 1573.97,159.907 1575.69,156.97 1577.42,160.009 1579.14,155.633 1580.87,171.29 1582.59,168.357 1584.32,171.593 1586.04,164.434 1587.77,151.064 1589.49,136.906 1591.22,160.858 1592.94,172.62 1594.67,160.515 1596.39,160.087 1598.12,163.507 1599.84,172.088 1601.57,173.574 1603.29,153.31 1605.02,151.811 1606.74,159.518 1608.47,157.026 1610.19,145.498 1611.92,159.551 1613.64,140.593 1615.37,137.308 1617.09,143.577 1618.81,168.726 1620.54,153.112 1622.26,146.959 1623.99,168.417 1625.71,164.865 1627.44,150.485 1629.16,158.387 1630.89,157.645 1632.61,166.854 1634.34,153.487 1636.06,160.874 1637.79,146.566 1639.51,139.92 1641.24,144.197 1642.96,148.458 1644.69,149.105 1646.41,160.664 1648.14,156.643 1649.86,161.862 1651.59,160.129 1653.31,152.356 1655.04,168.569 1656.76,169.493 1658.49,447.039 1660.21,399.719 1661.94,361.007 1663.66,337.231 1665.39,142.228 1667.11,149.685 1668.84,329.686 1670.56,173.287 1672.29,349.877 1674.01,342.816 1675.74,159.828 1677.46,157.499 1679.19,162.884 1680.91,149.299 1682.64,180.95 1684.36,353.337 1686.09,354.762 1687.81,153.798 1689.54,152.219 1691.26,150.3 1692.99,174.858 1694.71,138.18 1696.44,128.392 1698.16,180.539 1699.89,166.331 1701.61,147.097 1703.34,147.625 1705.06,162.423 1706.79,355.776 1708.51,161.75 1710.23,147.567 1711.96,484.9 1713.68,516.188 1715.41,491.322 1717.13,344.762 1718.86,149.841 1720.58,169.16 1722.31,150.898 1724.03,133.928 1725.76,183.75 1727.48,152.69 1729.21,167.944 1730.93,163.264 1732.66,148.195 1734.38,159.686 1736.11,168.335 1737.83,163.594 1739.56,154.529 1741.28,149.465 1743.01,141.418 1744.73,176.264 1746.46,146.859 1748.18,176.205 1749.91,148.884 1751.63,149.899 1753.36,155.931 1755.08,163.217 1756.81,166.979 1758.53,146.589 1760.26,172.987 1761.98,147.509 1763.71,151.073 1765.43,180.002 1767.16,171.263 1768.88,181.657 1770.61,154.706 1772.33,154.118 1774.06,152.696 1775.78,147.764 1777.51,136.632 1779.23,178.446 1780.96,167.478 1782.68,156.659 1784.41,168.906 1786.13,179.512 1787.86,151.174 1789.58,169.348 1791.31,168.61 1793.03,168.366 1794.76,166.196 1796.48,350.07 1798.21,158.572 1799.93,143.831 1801.65,152.587 1803.38,130.444 1805.1,152.254 1806.83,139.232 1808.55,157.126 1810.28,157.733 1812,168.131 1813.73,143.029 1815.45,152.243 1817.18,153.485 1818.9,141.125 1820.63,339.825 1822.35,340.802 1824.08,176.679 1825.8,142.489 1827.53,168.253 1829.25,159.288 1830.98,159.324 1832.7,163.287 1834.43,149.541 1836.15,151.727 1837.88,155.917 1839.6,136.582 1841.33,160.494 1843.05,163.47 1844.78,140.183 1846.5,158.25 1848.23,165.944 1849.95,164.519 1851.68,151.726 1853.4,149.68 1855.13,140.351 1856.85,155.645 1858.58,159.945 1860.3,142.441 1862.03,142.802 1863.75,136.497 1865.48,157.343 1867.2,144.265 1868.93,160.101 1870.65,163.514 1872.38,172.353 1874.1,146.947 1875.83,165.399 1877.55,152.322 1879.28,131.961 1881,164.464 1882.73,163.228 1884.45,155.074 1886.18,163.889 1887.9,168.501 1889.63,159.485 1891.35,153.761 1893.07,146.671 1894.8,161.543 1896.52,149.684 1898.25,155.319 1899.97,163.385 1901.7,168.707 1903.42,159.475 1905.15,155.065 1906.87,158.149 1908.6,153.14 1910.32,346.161 1912.05,487.23 1913.77,361.124 1915.5,156.345 1917.22,151.13 1918.95,165.64 1920.67,169.417 1922.4,151.156 1924.12,171.169 1925.85,149.169 1927.57,167.897 1929.3,151.977 1931.02,162.322 1932.75,166.018 1934.47,157.912 1936.2,156.659 1937.92,156.778 1939.65,150.081 1941.37,178.65 1943.1,180.662 1944.82,176.09 1946.55,155.859 1948.27,149.766 1950,151.736 1951.72,155.098 1953.45,144.564 1955.17,151.783 1956.9,152.496 1958.62,161.17 1960.35,151.093 1962.07,157.949 1963.8,136.217 1965.52,176.522 1967.25,142.112 1968.97,165.807 1970.7,149.854 1972.42,175.74 1974.15,143.466 1975.87,147.967 1977.6,161.701 1979.32,169.304 1981.05,148.374 1982.77,149.637 1984.49,139.241 1986.22,137.38 1987.94,173.995 1989.67,144.166 1991.39,153.568 1993.12,154.014 1994.84,143.787 1996.57,165.026 1998.29,151.956 2000.02,155.228 2001.74,149.1 2003.47,151.479 2005.19,160.164 2006.92,165.335 2008.64,167.521 2010.37,163.464 2012.09,347.562 2013.82,157.988 2015.54,160.189 2017.27,174.853 2018.99,166.428 2020.72,157.436 2022.44,158.44 2024.17,155.69 2025.89,163.475 2027.62,146.407 2029.34,160.479 2031.07,159.487 2032.79,162.255 2034.52,172.535 2036.24,155.708 2037.97,157.715 2039.69,170.787 2041.42,163.85 2043.14,156.123 2044.87,502.244 2046.59,422.632 2048.32,359.249 2050.04,153.776 2051.77,154.641 2053.49,167.583 2055.22,141.13 2056.94,154.43 2058.67,163.27 2060.39,155.213 2062.12,358.827 2063.84,348.319 2065.57,355.467 2067.29,351.86 2069.02,343.284 2070.74,352.717 2072.47,331.915 2074.19,172.297 2075.91,166.107 2077.64,147.109 2079.36,171.011 2081.09,167.925 2082.81,141.51 2084.54,164.799 2086.26,165.433 2087.99,161.819 2089.71,172.707 2091.44,361.206 2093.16,137.911 2094.89,155.105 2096.61,174.718 2098.34,143.016 2100.06,155.93 2101.79,164.87 2103.51,166.335 2105.24,150.988 2106.96,150.33 2108.69,149.475 2110.41,148.853 2112.14,166.214 2113.86,147.089 2115.59,140.325 2117.31,173.206 2119.04,156.412 2120.76,153.457 2122.49,171.611 2124.21,177.843 2125.94,161.423 2127.66,160.253 2129.39,161.27 2131.11,162.038 2132.84,147.055 2134.56,164.123 2136.29,159.128 2138.01,166.884 2139.74,147.778 2141.46,153.863 2143.19,173.901 2144.91,173.244 2146.64,140.701 2148.36,159.131 2150.09,168.325 2151.81,165.722 2153.54,170.131 2155.26,158.304 2156.99,158.294 2158.71,155.877 2160.44,158.889 2162.16,147.281 2163.89,152.344 2165.61,160.77 2167.33,164.566 2169.06,158.427 2170.78,153.396 2172.51,159.074 2174.23,144.868 2175.96,166.599 2177.68,194.325 2179.41,186.195 2181.13,185.762 2182.86,147.085 2184.58,164.875 2186.31,171.046 2188.03,162.995 2189.76,164.146 2191.48,147.932 2193.21,151.765 2194.93,163.179 2196.66,166.353 2198.38,159.872 2200.11,154.917 2201.83,162.973 2203.56,168.177 2205.28,165.51 2207.01,164.46 2208.73,154.847 2210.46,140.536 2212.18,134.318 2213.91,161.783 2215.63,159.629 2217.36,147.524 2219.08,146.393 2220.81,166.876 2222.53,158.327 2224.26,170.367 2225.98,162.758 2227.71,166.173 2229.43,146.518 2231.16,162.698 2232.88,166.969 2234.61,140.353 2236.33,165.342 2238.06,165.317 2239.78,163.812 2241.51,164.871 2243.23,155.991 2244.96,163.813 2246.68,156.522 2248.41,146.91 2250.13,349.825 2251.86,355.809 2253.58,344.292 2255.3,168.128 2257.03,169.222 2258.75,167.941 2260.48,144.033 2262.2,145.566 2263.93,150.356 2265.65,162.096 2267.38,159.697 2269.1,165.765 2270.83,166.607 2272.55,149.846 2274.28,163.958 2276,139.91 2277.73,174.914 2279.45,152.832 2281.18,160.064 2282.9,154.823 2284.63,160.877 2286.35,170.346 2288.08,163.096 2289.8,138.284 2291.53,138.2 2293.25,169.308 2294.98,165.452 2296.7,163.788 2298.43,154.79 2300.15,154.183 2301.88,152.456 2303.6,157.604 2305.33,156.885 2307.05,149.267 2308.78,161.542 2310.5,166.868 2312.23,163.439 2313.95,150.662 2315.68,153.294 2317.4,148.371 2319.13,147.819 2320.85,143.222 2322.58,138.269 2324.3,138.453 2326.03,152.482 2327.75,149.03 2329.48,163.369 2331.2,154.89 2332.93,184.194 2334.65,159.822 2336.38,153.401 2338.1,146.735 2339.83,168.515 2341.55,142.95 2343.28,136.624 2345,152.138 2346.72,163.858 2348.45,158.535 2350.17,161.521 2351.9,153.858 2353.62,167.02 2355.35,156.909 2357.07,174.891 2358.8,160.769 2360.52,149.562 2362.25,155.522 2363.97,153.317 2365.7,159.747 2367.42,163.441 2369.15,146.26 2370.87,146.966 2372.6,145.174 2374.32,159.868 2376.05,155.74 2377.77,148.612 2379.5,154.17 2381.22,156.47 2382.95,165.709 2384.67,156.59 2386.4,165.72 2388.12,164.874 2389.85,157.963 2391.57,159.544 2393.3,164.912 2395.02,165.138 2396.75,164.544 2398.47,160.684 2400.2,157.507 2401.92,157.25 2403.65,155.307 2405.37,158.485 2407.1,143.38 2408.82,164.14 2410.55,161.442 2412.27,148.148 2414,145.117 2415.72,150.24 2417.45,170.656 2419.17,167.305 2420.9,151.19 2422.62,160.033 2424.35,167.425 2426.07,149.487 2427.8,176.288 2429.52,175.369 2431.25,145.561 2432.97,144.976 2434.7,166.262 2436.42,150.109 2438.14,152.11 2439.87,159.567 2441.59,151.562 2443.32,145.437 2445.04,164.335 2446.77,161.155 2448.49,156.729 2450.22,144.686 2451.94,163.224 2453.67,149.395 2455.39,149.35 2457.12,165.982 2458.84,162.051 2460.57,152.05 2462.29,170.656 2464.02,147.269 2465.74,161.115 2467.47,140.245 2469.19,156.316 2470.92,171.168 2472.64,170.715 2474.37,158.355 2476.09,158.326 2477.82,165.49 2479.54,157.652 2481.27,158.786 2482.99,167.812 2484.72,150.699 2486.44,158.646 2488.17,155.84 2489.89,155.12 2491.62,137.95 2493.34,156.698 2495.07,174.339 2496.79,145.173 2498.52,165.694 2500.24,391.244 2501.97,153.161 2503.69,164.347 2505.42,156.778 2507.14,162.616 2508.87,165.543 2510.59,164.053 2512.32,162.356 2514.04,158.614 2515.77,155.775 2517.49,159.858 2519.22,167.093 2520.94,154.065 2522.67,153.414 2524.39,154.897 2526.12,166.504 2527.84,175.201 2529.56,173.648 2531.29,162.022 2533.01,155.532 2534.74,163.042 2536.46,160.334 2538.19,146.642 2539.91,163.425 2541.64,152.532 2543.36,139.674 2545.09,176.388 2546.81,160.805 2548.54,146.248 2550.26,153.515 2551.99,158.217 2553.71,159.804 2555.44,164.289 2557.16,158.154 2558.89,145.506 2560.61,136.067 2562.34,135.693 2564.06,145.321 2565.79,161.402 2567.51,171.286 2569.24,161.701 2570.96,155.224 2572.69,153.178 2574.41,146.744 2576.14,173.045 2577.86,145.416 2579.59,160.671 2581.31,150.516 2583.04,167.336 2584.76,170.502 2586.49,167.163 2588.21,161.181 2589.94,160.506 2591.66,158.398 2593.39,161.256 2595.11,160.337 2596.84,153.112 2598.56,165.32 2600.29,153.375 2602.01,151.186 2603.74,422.393 2605.46,146.662 2607.19,156.884 2608.91,153.281 2610.64,140.211 2612.36,182.011 2614.09,144.574 2615.81,395.392 2617.54,502.73 2619.26,475.778 2620.98,409.429 2622.71,151.546 2624.43,166.452 2626.16,171.721 2627.88,171.956 2629.61,159.655 2631.33,168.079 2633.06,146.577 2634.78,147.128 2636.51,176.295 2638.23,154.427 2639.96,164.54 2641.68,162.092 2643.41,161.088 2645.13,166.52 2646.86,161.867 2648.58,153.471 2650.31,159.135 2652.03,164.721 2653.76,164.077 2655.48,159.305 2657.21,157.416 2658.93,163.425 2660.66,154.144 2662.38,146.838 2664.11,147.645 2665.83,163.087 2667.56,145.745 2669.28,159.446 2671.01,149.019 2672.73,169.371 2674.46,155.815 2676.18,160.391 2677.91,149.98 2679.63,164.864 2681.36,152.692 2683.08,146.726 2684.81,141.656 2686.53,150.581 2688.26,161.422 2689.98,152.372 2691.71,165.432 2693.43,156.599 2695.16,163.134 2696.88,146.882 2698.61,160.826 2700.33,175.542 2702.06,167.684 2703.78,168.779 2705.51,162.957 2707.23,149.772 2708.96,165.168 2710.68,165.493 2712.4,162.097 2714.13,158.007 2715.85,150.995 2717.58,163.58 2719.3,140.465 2721.03,173.875 2722.75,135.858 2724.48,154.58 2726.2,148.521 2727.93,163.005 2729.65,157.963 2731.38,146.005 2733.1,167.19 2734.83,179.336 2736.55,153.979 2738.28,152.504 2740,164.956 2741.73,161.724 2743.45,159.077 2745.18,151.431 2746.9,351.52 2748.63,160.482 2750.35,145.066 2752.08,179.866 2753.8,168.021 2755.53,417.957 2757.25,569.698 2758.98,506.15 2760.7,566.217 2762.43,404.219 2764.15,343.716 2765.88,175.773 2767.6,141.698 2769.33,163.454 2771.05,155.614 2772.78,151.257 2774.5,157.635 2776.23,154.895 2777.95,150.67 2779.68,176.645 2781.4,178.155 2783.13,174.233 2784.85,153.252 2786.58,143.672 2788.3,177.293 2790.03,151.186 2791.75,181.719 2793.48,154.72 2795.2,158.838 2796.93,156.749 2798.65,143.287 2800.38,166.867 2802.1,156.283 2803.82,165.571 2805.55,161.061 2807.27,158.338 2809,155.526 2810.72,145.385 2812.45,153.021 2814.17,169.117 2815.9,161.842 2817.62,353.563 2819.35,373.1 2821.07,167.048 2822.8,149.499 2824.52,350.361 2826.25,368.637 2827.97,358.676 2829.7,167.245 2831.42,184.934 2833.15,352.051 2834.87,374.046 2836.6,142.337 2838.32,145.112 2840.05,153.449 2841.77,163.476 2843.5,156.38 2845.22,150.763 2846.95,154.797 2848.67,358.99 2850.4,337.125 2852.12,364.854 2853.85,150.418 2855.57,157.709 2857.3,132.336 2859.02,140.342 2860.75,171.257 2862.47,160.184 2864.2,163.566 2865.92,168.79 2867.65,157.421 2869.37,156.331 2871.1,157.939 2872.82,151.626 2874.55,154.575 2876.27,160.875 2878,162.888 2879.72,160.335 2881.45,149.687 2883.17,149.737 2884.9,170.887 2886.62,178.96 2888.35,169.261 2890.07,169.744 2891.8,170.371 2893.52,162.651 2895.24,148.633 2896.97,138.461 2898.69,140.852 2900.42,325.609 2902.14,162.837 2903.87,155.753 2905.59,145.819 2907.32,173.549 2909.04,148.481 2910.77,345.137 2912.49,333.349 2914.22,354.425 2915.94,378.802 2917.67,325.389 2919.39,169.568 2921.12,153.082 2922.84,148.746 2924.57,152.868 2926.29,148.248 2928.02,158.969 2929.74,371.673 2931.47,480.664 2933.19,572.462 2934.92,549.813 2936.64,436.238 2938.37,485.847 2940.09,164.271 2941.82,146.992 2943.54,164.81 2945.27,160.698 2946.99,143.88 2948.72,176.537 2950.44,151.347 2952.17,151.769 2953.89,156.765 2955.62,152.897 2957.34,157.446 2959.07,164.87 2960.79,390.569 2962.52,337.493 2964.24,142.686 2965.97,169.663 2967.69,367.349 2969.42,424.88 2971.14,422.613 2972.87,160.125 2974.59,157.699 2976.32,155.869 2978.04,152.51 2979.77,149.086 2981.49,170.33 2983.21,169.675 2984.94,153.462 2986.66,153.36 2988.39,169.331 2990.11,337.623 2991.84,384.358 2993.56,150.789 2995.29,162.271 2997.01,152.629 2998.74,169.593 3000.46,170.59 3002.19,162.562 3003.91,170.064 3005.64,151.912 3007.36,161.069 3009.09,150.594 3010.81,147.604 3012.54,150.377 3014.26,145.5 3015.99,148.261 3017.71,156.586 3019.44,176.497 3021.16,170.355 3022.89,147.459 3024.61,162.549 3026.34,150.731 3028.06,167.656 3029.79,365.179 3031.51,154.154 3033.24,416.561 3034.96,146.429 3036.69,162.485 3038.41,151.139 3040.14,159.96 3041.86,152.239 3043.59,147.896 3045.31,162.533 3047.04,158.931 3048.76,179.781 3050.49,159.205 3052.21,168.017 3053.94,172.382 3055.66,152.396 3057.39,150.97 3059.11,145.28 3060.84,152.005 3062.56,174.611 3064.29,168.262 3066.01,162.433 3067.74,144.076 "/>
<path clip-path="url(#clip160)" d="M2657.15 693.754 L3052.62 693.754 L3052.62 590.074 L2657.15 590.074  Z" fill="#ffffff" fill-rule="evenodd" fill-opacity="1"/>
<polyline clip-path="url(#clip160)" style="stroke:#000000; stroke-linecap:round; stroke-linejoin:round; stroke-width:4; stroke-opacity:1; fill:none" points="2657.15,693.754 3052.62,693.754 3052.62,590.074 2657.15,590.074 2657.15,693.754 "/>
<polyline clip-path="url(#clip160)" style="stroke:#009af9; stroke-linecap:round; stroke-linejoin:round; stroke-width:2; stroke-opacity:1; fill:none" points="2690.52,641.914 2890.79,641.914 "/>
<path clip-path="url(#clip160)" d="M2940.56 642.991 Q2942.07 643.5 2943.48 645.167 Q2944.91 646.833 2946.35 649.75 L2951.09 659.194 L2946.07 659.194 L2941.65 650.329 Q2939.94 646.857 2938.32 645.722 Q2936.72 644.588 2933.94 644.588 L2928.85 644.588 L2928.85 659.194 L2924.17 659.194 L2924.17 624.634 L2934.73 624.634 Q2940.65 624.634 2943.57 627.111 Q2946.49 629.588 2946.49 634.588 Q2946.49 637.852 2944.96 640.005 Q2943.46 642.157 2940.56 642.991 M2928.85 628.477 L2928.85 640.745 L2934.73 640.745 Q2938.11 640.745 2939.82 639.195 Q2941.56 637.62 2941.56 634.588 Q2941.56 631.556 2939.82 630.028 Q2938.11 628.477 2934.73 628.477 L2928.85 628.477 Z" fill="#000000" fill-rule="evenodd" fill-opacity="1" /><path clip-path="url(#clip160)" d="M2966.74 629.241 L2960.4 646.44 L2973.11 646.44 L2966.74 629.241 M2964.1 624.634 L2969.4 624.634 L2982.58 659.194 L2977.71 659.194 L2974.57 650.329 L2958.99 650.329 L2955.84 659.194 L2950.91 659.194 L2964.1 624.634 Z" fill="#000000" fill-rule="evenodd" fill-opacity="1" /><path clip-path="url(#clip160)" d="M2987.62 624.634 L2994.59 624.634 L3003.41 648.153 L3012.27 624.634 L3019.24 624.634 L3019.24 659.194 L3014.68 659.194 L3014.68 628.847 L3005.77 652.551 L3001.07 652.551 L2992.16 628.847 L2992.16 659.194 L2987.62 659.194 L2987.62 624.634 Z" fill="#000000" fill-rule="evenodd" fill-opacity="1" /></svg>
