<?xml version="1.0" encoding="utf-8"?>
<svg xmlns="http://www.w3.org/2000/svg" xmlns:xlink="http://www.w3.org/1999/xlink" width="800" height="200" viewBox="0 0 3200 800">
<defs>
  <clipPath id="clip060">
    <rect x="0" y="0" width="3200" height="800"/>
  </clipPath>
</defs>
<path clip-path="url(#clip060)" d="M0 800 L3200 800 L3200 0 L0 0  Z" fill="#ffffff" fill-rule="evenodd" fill-opacity="1"/>
<defs>
  <clipPath id="clip061">
    <rect x="640" y="0" width="2241" height="800"/>
  </clipPath>
</defs>
<path clip-path="url(#clip060)" d="M148.696 716.048 L3152.76 716.048 L3152.76 47.2441 L148.696 47.2441  Z" fill="#ffffff" fill-rule="evenodd" fill-opacity="1"/>
<defs>
  <clipPath id="clip062">
    <rect x="148" y="47" width="3005" height="670"/>
  </clipPath>
</defs>
<polyline clip-path="url(#clip062)" style="stroke:#000000; stroke-linecap:round; stroke-linejoin:round; stroke-width:2; stroke-opacity:0.1; fill:none" points="232.498,716.048 232.498,47.2441 "/>
<polyline clip-path="url(#clip062)" style="stroke:#000000; stroke-linecap:round; stroke-linejoin:round; stroke-width:2; stroke-opacity:0.1; fill:none" points="841.702,716.048 841.702,47.2441 "/>
<polyline clip-path="url(#clip062)" style="stroke:#000000; stroke-linecap:round; stroke-linejoin:round; stroke-width:2; stroke-opacity:0.1; fill:none" points="1450.91,716.048 1450.91,47.2441 "/>
<polyline clip-path="url(#clip062)" style="stroke:#000000; stroke-linecap:round; stroke-linejoin:round; stroke-width:2; stroke-opacity:0.1; fill:none" points="2060.11,716.048 2060.11,47.2441 "/>
<polyline clip-path="url(#clip062)" style="stroke:#000000; stroke-linecap:round; stroke-linejoin:round; stroke-width:2; stroke-opacity:0.1; fill:none" points="2669.32,716.048 2669.32,47.2441 "/>
<polyline clip-path="url(#clip060)" style="stroke:#000000; stroke-linecap:round; stroke-linejoin:round; stroke-width:4; stroke-opacity:1; fill:none" points="148.696,716.048 3152.76,716.048 "/>
<polyline clip-path="url(#clip060)" style="stroke:#000000; stroke-linecap:round; stroke-linejoin:round; stroke-width:4; stroke-opacity:1; fill:none" points="232.498,716.048 232.498,697.15 "/>
<polyline clip-path="url(#clip060)" style="stroke:#000000; stroke-linecap:round; stroke-linejoin:round; stroke-width:4; stroke-opacity:1; fill:none" points="841.702,716.048 841.702,697.15 "/>
<polyline clip-path="url(#clip060)" style="stroke:#000000; stroke-linecap:round; stroke-linejoin:round; stroke-width:4; stroke-opacity:1; fill:none" points="1450.91,716.048 1450.91,697.15 "/>
<polyline clip-path="url(#clip060)" style="stroke:#000000; stroke-linecap:round; stroke-linejoin:round; stroke-width:4; stroke-opacity:1; fill:none" points="2060.11,716.048 2060.11,697.15 "/>
<polyline clip-path="url(#clip060)" style="stroke:#000000; stroke-linecap:round; stroke-linejoin:round; stroke-width:4; stroke-opacity:1; fill:none" points="2669.32,716.048 2669.32,697.15 "/>
<path clip-path="url(#clip060)" d="M232.498 753.367 Q228.887 753.367 227.058 756.931 Q225.252 760.473 225.252 767.603 Q225.252 774.709 227.058 778.274 Q228.887 781.815 232.498 781.815 Q236.132 781.815 237.937 778.274 Q239.766 774.709 239.766 767.603 Q239.766 760.473 237.937 756.931 Q236.132 753.367 232.498 753.367 M232.498 749.663 Q238.308 749.663 241.363 754.269 Q244.442 758.853 244.442 767.603 Q244.442 776.329 241.363 780.936 Q238.308 785.519 232.498 785.519 Q226.688 785.519 223.609 780.936 Q220.553 776.329 220.553 767.603 Q220.553 758.853 223.609 754.269 Q226.688 749.663 232.498 749.663 Z" fill="#000000" fill-rule="evenodd" fill-opacity="1" /><path clip-path="url(#clip060)" d="M801.32 750.288 L819.677 750.288 L819.677 754.223 L805.603 754.223 L805.603 762.695 Q806.621 762.348 807.64 762.186 Q808.658 762.001 809.677 762.001 Q815.464 762.001 818.844 765.172 Q822.223 768.343 822.223 773.76 Q822.223 779.339 818.751 782.44 Q815.279 785.519 808.959 785.519 Q806.783 785.519 804.515 785.149 Q802.27 784.778 799.862 784.038 L799.862 779.339 Q801.945 780.473 804.168 781.028 Q806.39 781.584 808.867 781.584 Q812.871 781.584 815.209 779.478 Q817.547 777.371 817.547 773.76 Q817.547 770.149 815.209 768.042 Q812.871 765.936 808.867 765.936 Q806.992 765.936 805.117 766.353 Q803.265 766.769 801.32 767.649 L801.32 750.288 Z" fill="#000000" fill-rule="evenodd" fill-opacity="1" /><path clip-path="url(#clip060)" d="M841.436 753.367 Q837.825 753.367 835.996 756.931 Q834.191 760.473 834.191 767.603 Q834.191 774.709 835.996 778.274 Q837.825 781.815 841.436 781.815 Q845.07 781.815 846.876 778.274 Q848.704 774.709 848.704 767.603 Q848.704 760.473 846.876 756.931 Q845.07 753.367 841.436 753.367 M841.436 749.663 Q847.246 749.663 850.302 754.269 Q853.38 758.853 853.38 767.603 Q853.38 776.329 850.302 780.936 Q847.246 785.519 841.436 785.519 Q835.626 785.519 832.547 780.936 Q829.492 776.329 829.492 767.603 Q829.492 758.853 832.547 754.269 Q835.626 749.663 841.436 749.663 Z" fill="#000000" fill-rule="evenodd" fill-opacity="1" /><path clip-path="url(#clip060)" d="M871.598 753.367 Q867.987 753.367 866.158 756.931 Q864.353 760.473 864.353 767.603 Q864.353 774.709 866.158 778.274 Q867.987 781.815 871.598 781.815 Q875.232 781.815 877.038 778.274 Q878.866 774.709 878.866 767.603 Q878.866 760.473 877.038 756.931 Q875.232 753.367 871.598 753.367 M871.598 749.663 Q877.408 749.663 880.464 754.269 Q883.542 758.853 883.542 767.603 Q883.542 776.329 880.464 780.936 Q877.408 785.519 871.598 785.519 Q865.788 785.519 862.709 780.936 Q859.653 776.329 859.653 767.603 Q859.653 758.853 862.709 754.269 Q865.788 749.663 871.598 749.663 Z" fill="#000000" fill-rule="evenodd" fill-opacity="1" /><path clip-path="url(#clip060)" d="M1395.43 780.913 L1403.07 780.913 L1403.07 754.547 L1394.76 756.214 L1394.76 751.955 L1403.02 750.288 L1407.7 750.288 L1407.7 780.913 L1415.34 780.913 L1415.34 784.848 L1395.43 784.848 L1395.43 780.913 Z" fill="#000000" fill-rule="evenodd" fill-opacity="1" /><path clip-path="url(#clip060)" d="M1434.78 753.367 Q1431.17 753.367 1429.34 756.931 Q1427.54 760.473 1427.54 767.603 Q1427.54 774.709 1429.34 778.274 Q1431.17 781.815 1434.78 781.815 Q1438.42 781.815 1440.22 778.274 Q1442.05 774.709 1442.05 767.603 Q1442.05 760.473 1440.22 756.931 Q1438.42 753.367 1434.78 753.367 M1434.78 749.663 Q1440.59 749.663 1443.65 754.269 Q1446.73 758.853 1446.73 767.603 Q1446.73 776.329 1443.65 780.936 Q1440.59 785.519 1434.78 785.519 Q1428.97 785.519 1425.9 780.936 Q1422.84 776.329 1422.84 767.603 Q1422.84 758.853 1425.9 754.269 Q1428.97 749.663 1434.78 749.663 Z" fill="#000000" fill-rule="evenodd" fill-opacity="1" /><path clip-path="url(#clip060)" d="M1464.95 753.367 Q1461.33 753.367 1459.51 756.931 Q1457.7 760.473 1457.7 767.603 Q1457.7 774.709 1459.51 778.274 Q1461.33 781.815 1464.95 781.815 Q1468.58 781.815 1470.39 778.274 Q1472.21 774.709 1472.21 767.603 Q1472.21 760.473 1470.39 756.931 Q1468.58 753.367 1464.95 753.367 M1464.95 749.663 Q1470.76 749.663 1473.81 754.269 Q1476.89 758.853 1476.89 767.603 Q1476.89 776.329 1473.81 780.936 Q1470.76 785.519 1464.95 785.519 Q1459.14 785.519 1456.06 780.936 Q1453 776.329 1453 767.603 Q1453 758.853 1456.06 754.269 Q1459.14 749.663 1464.95 749.663 Z" fill="#000000" fill-rule="evenodd" fill-opacity="1" /><path clip-path="url(#clip060)" d="M1495.11 753.367 Q1491.5 753.367 1489.67 756.931 Q1487.86 760.473 1487.86 767.603 Q1487.86 774.709 1489.67 778.274 Q1491.5 781.815 1495.11 781.815 Q1498.74 781.815 1500.55 778.274 Q1502.38 774.709 1502.38 767.603 Q1502.38 760.473 1500.55 756.931 Q1498.74 753.367 1495.11 753.367 M1495.11 749.663 Q1500.92 749.663 1503.97 754.269 Q1507.05 758.853 1507.05 767.603 Q1507.05 776.329 1503.97 780.936 Q1500.92 785.519 1495.11 785.519 Q1489.3 785.519 1486.22 780.936 Q1483.16 776.329 1483.16 767.603 Q1483.16 758.853 1486.22 754.269 Q1489.3 749.663 1495.11 749.663 Z" fill="#000000" fill-rule="evenodd" fill-opacity="1" /><path clip-path="url(#clip060)" d="M2004.64 780.913 L2012.28 780.913 L2012.28 754.547 L2003.97 756.214 L2003.97 751.955 L2012.23 750.288 L2016.91 750.288 L2016.91 780.913 L2024.54 780.913 L2024.54 784.848 L2004.64 784.848 L2004.64 780.913 Z" fill="#000000" fill-rule="evenodd" fill-opacity="1" /><path clip-path="url(#clip060)" d="M2034.03 750.288 L2052.39 750.288 L2052.39 754.223 L2038.32 754.223 L2038.32 762.695 Q2039.34 762.348 2040.35 762.186 Q2041.37 762.001 2042.39 762.001 Q2048.18 762.001 2051.56 765.172 Q2054.94 768.343 2054.94 773.76 Q2054.94 779.339 2051.47 782.44 Q2047.99 785.519 2041.67 785.519 Q2039.5 785.519 2037.23 785.149 Q2034.98 784.778 2032.58 784.038 L2032.58 779.339 Q2034.66 780.473 2036.88 781.028 Q2039.1 781.584 2041.58 781.584 Q2045.59 781.584 2047.92 779.478 Q2050.26 777.371 2050.26 773.76 Q2050.26 770.149 2047.92 768.042 Q2045.59 765.936 2041.58 765.936 Q2039.71 765.936 2037.83 766.353 Q2035.98 766.769 2034.03 767.649 L2034.03 750.288 Z" fill="#000000" fill-rule="evenodd" fill-opacity="1" /><path clip-path="url(#clip060)" d="M2074.15 753.367 Q2070.54 753.367 2068.71 756.931 Q2066.91 760.473 2066.91 767.603 Q2066.91 774.709 2068.71 778.274 Q2070.54 781.815 2074.15 781.815 Q2077.78 781.815 2079.59 778.274 Q2081.42 774.709 2081.42 767.603 Q2081.42 760.473 2079.59 756.931 Q2077.78 753.367 2074.15 753.367 M2074.15 749.663 Q2079.96 749.663 2083.02 754.269 Q2086.09 758.853 2086.09 767.603 Q2086.09 776.329 2083.02 780.936 Q2079.96 785.519 2074.15 785.519 Q2068.34 785.519 2065.26 780.936 Q2062.21 776.329 2062.21 767.603 Q2062.21 758.853 2065.26 754.269 Q2068.34 749.663 2074.15 749.663 Z" fill="#000000" fill-rule="evenodd" fill-opacity="1" /><path clip-path="url(#clip060)" d="M2104.31 753.367 Q2100.7 753.367 2098.87 756.931 Q2097.07 760.473 2097.07 767.603 Q2097.07 774.709 2098.87 778.274 Q2100.7 781.815 2104.31 781.815 Q2107.95 781.815 2109.75 778.274 Q2111.58 774.709 2111.58 767.603 Q2111.58 760.473 2109.75 756.931 Q2107.95 753.367 2104.31 753.367 M2104.31 749.663 Q2110.12 749.663 2113.18 754.269 Q2116.26 758.853 2116.26 767.603 Q2116.26 776.329 2113.18 780.936 Q2110.12 785.519 2104.31 785.519 Q2098.5 785.519 2095.42 780.936 Q2092.37 776.329 2092.37 767.603 Q2092.37 758.853 2095.42 754.269 Q2098.5 749.663 2104.31 749.663 Z" fill="#000000" fill-rule="evenodd" fill-opacity="1" /><path clip-path="url(#clip060)" d="M2617.93 780.913 L2634.25 780.913 L2634.25 784.848 L2612.3 784.848 L2612.3 780.913 Q2614.96 778.158 2619.55 773.528 Q2624.15 768.876 2625.33 767.533 Q2627.58 765.01 2628.46 763.274 Q2629.36 761.515 2629.36 759.825 Q2629.36 757.07 2627.42 755.334 Q2625.5 753.598 2622.39 753.598 Q2620.2 753.598 2617.74 754.362 Q2615.31 755.126 2612.53 756.677 L2612.53 751.955 Q2615.36 750.82 2617.81 750.242 Q2620.26 749.663 2622.3 749.663 Q2627.67 749.663 2630.87 752.348 Q2634.06 755.033 2634.06 759.524 Q2634.06 761.654 2633.25 763.575 Q2632.46 765.473 2630.36 768.066 Q2629.78 768.737 2626.68 771.954 Q2623.58 775.149 2617.93 780.913 Z" fill="#000000" fill-rule="evenodd" fill-opacity="1" /><path clip-path="url(#clip060)" d="M2654.06 753.367 Q2650.45 753.367 2648.62 756.931 Q2646.82 760.473 2646.82 767.603 Q2646.82 774.709 2648.62 778.274 Q2650.45 781.815 2654.06 781.815 Q2657.7 781.815 2659.5 778.274 Q2661.33 774.709 2661.33 767.603 Q2661.33 760.473 2659.5 756.931 Q2657.7 753.367 2654.06 753.367 M2654.06 749.663 Q2659.87 749.663 2662.93 754.269 Q2666.01 758.853 2666.01 767.603 Q2666.01 776.329 2662.93 780.936 Q2659.87 785.519 2654.06 785.519 Q2648.25 785.519 2645.17 780.936 Q2642.12 776.329 2642.12 767.603 Q2642.12 758.853 2645.17 754.269 Q2648.25 749.663 2654.06 749.663 Z" fill="#000000" fill-rule="evenodd" fill-opacity="1" /><path clip-path="url(#clip060)" d="M2684.22 753.367 Q2680.61 753.367 2678.78 756.931 Q2676.98 760.473 2676.98 767.603 Q2676.98 774.709 2678.78 778.274 Q2680.61 781.815 2684.22 781.815 Q2687.86 781.815 2689.66 778.274 Q2691.49 774.709 2691.49 767.603 Q2691.49 760.473 2689.66 756.931 Q2687.86 753.367 2684.22 753.367 M2684.22 749.663 Q2690.03 749.663 2693.09 754.269 Q2696.17 758.853 2696.17 767.603 Q2696.17 776.329 2693.09 780.936 Q2690.03 785.519 2684.22 785.519 Q2678.41 785.519 2675.33 780.936 Q2672.28 776.329 2672.28 767.603 Q2672.28 758.853 2675.33 754.269 Q2678.41 749.663 2684.22 749.663 Z" fill="#000000" fill-rule="evenodd" fill-opacity="1" /><path clip-path="url(#clip060)" d="M2714.38 753.367 Q2710.77 753.367 2708.95 756.931 Q2707.14 760.473 2707.14 767.603 Q2707.14 774.709 2708.95 778.274 Q2710.77 781.815 2714.38 781.815 Q2718.02 781.815 2719.82 778.274 Q2721.65 774.709 2721.65 767.603 Q2721.65 760.473 2719.82 756.931 Q2718.02 753.367 2714.38 753.367 M2714.38 749.663 Q2720.19 749.663 2723.25 754.269 Q2726.33 758.853 2726.33 767.603 Q2726.33 776.329 2723.25 780.936 Q2720.19 785.519 2714.38 785.519 Q2708.57 785.519 2705.5 780.936 Q2702.44 776.329 2702.44 767.603 Q2702.44 758.853 2705.5 754.269 Q2708.57 749.663 2714.38 749.663 Z" fill="#000000" fill-rule="evenodd" fill-opacity="1" /><polyline clip-path="url(#clip062)" style="stroke:#000000; stroke-linecap:round; stroke-linejoin:round; stroke-width:2; stroke-opacity:0.1; fill:none" points="148.696,716.048 3152.76,716.048 "/>
<polyline clip-path="url(#clip062)" style="stroke:#000000; stroke-linecap:round; stroke-linejoin:round; stroke-width:2; stroke-opacity:0.1; fill:none" points="148.696,576.714 3152.76,576.714 "/>
<polyline clip-path="url(#clip062)" style="stroke:#000000; stroke-linecap:round; stroke-linejoin:round; stroke-width:2; stroke-opacity:0.1; fill:none" points="148.696,437.38 3152.76,437.38 "/>
<polyline clip-path="url(#clip062)" style="stroke:#000000; stroke-linecap:round; stroke-linejoin:round; stroke-width:2; stroke-opacity:0.1; fill:none" points="148.696,298.046 3152.76,298.046 "/>
<polyline clip-path="url(#clip062)" style="stroke:#000000; stroke-linecap:round; stroke-linejoin:round; stroke-width:2; stroke-opacity:0.1; fill:none" points="148.696,158.711 3152.76,158.711 "/>
<polyline clip-path="url(#clip060)" style="stroke:#000000; stroke-linecap:round; stroke-linejoin:round; stroke-width:4; stroke-opacity:1; fill:none" points="148.696,716.048 148.696,47.2441 "/>
<polyline clip-path="url(#clip060)" style="stroke:#000000; stroke-linecap:round; stroke-linejoin:round; stroke-width:4; stroke-opacity:1; fill:none" points="148.696,716.048 167.593,716.048 "/>
<polyline clip-path="url(#clip060)" style="stroke:#000000; stroke-linecap:round; stroke-linejoin:round; stroke-width:4; stroke-opacity:1; fill:none" points="148.696,576.714 167.593,576.714 "/>
<polyline clip-path="url(#clip060)" style="stroke:#000000; stroke-linecap:round; stroke-linejoin:round; stroke-width:4; stroke-opacity:1; fill:none" points="148.696,437.38 167.593,437.38 "/>
<polyline clip-path="url(#clip060)" style="stroke:#000000; stroke-linecap:round; stroke-linejoin:round; stroke-width:4; stroke-opacity:1; fill:none" points="148.696,298.046 167.593,298.046 "/>
<polyline clip-path="url(#clip060)" style="stroke:#000000; stroke-linecap:round; stroke-linejoin:round; stroke-width:4; stroke-opacity:1; fill:none" points="148.696,158.711 167.593,158.711 "/>
<path clip-path="url(#clip060)" d="M88.7512 701.847 Q85.1401 701.847 83.3114 705.411 Q81.5058 708.953 81.5058 716.083 Q81.5058 723.189 83.3114 726.754 Q85.1401 730.295 88.7512 730.295 Q92.3854 730.295 94.1909 726.754 Q96.0196 723.189 96.0196 716.083 Q96.0196 708.953 94.1909 705.411 Q92.3854 701.847 88.7512 701.847 M88.7512 698.143 Q94.5613 698.143 97.6169 702.749 Q100.696 707.333 100.696 716.083 Q100.696 724.809 97.6169 729.416 Q94.5613 733.999 88.7512 733.999 Q82.941 733.999 79.8623 729.416 Q76.8068 724.809 76.8068 716.083 Q76.8068 707.333 79.8623 702.749 Q82.941 698.143 88.7512 698.143 Z" fill="#000000" fill-rule="evenodd" fill-opacity="1" /><path clip-path="url(#clip060)" d="M79.7929 559.434 L98.1493 559.434 L98.1493 563.369 L84.0753 563.369 L84.0753 571.841 Q85.0938 571.494 86.1123 571.332 Q87.1308 571.147 88.1493 571.147 Q93.9363 571.147 97.3159 574.318 Q100.696 577.489 100.696 582.906 Q100.696 588.485 97.2233 591.586 Q93.7511 594.665 87.4317 594.665 Q85.2558 594.665 82.9873 594.295 Q80.7419 593.924 78.3346 593.184 L78.3346 588.485 Q80.4179 589.619 82.6401 590.174 Q84.8623 590.73 87.3391 590.73 Q91.3437 590.73 93.6817 588.623 Q96.0196 586.517 96.0196 582.906 Q96.0196 579.295 93.6817 577.188 Q91.3437 575.082 87.3391 575.082 Q85.4641 575.082 83.5892 575.498 Q81.7373 575.915 79.7929 576.795 L79.7929 559.434 Z" fill="#000000" fill-rule="evenodd" fill-opacity="1" /><path clip-path="url(#clip060)" d="M49.3995 450.724 L57.0384 450.724 L57.0384 424.359 L48.7282 426.026 L48.7282 421.766 L56.9921 420.1 L61.668 420.1 L61.668 450.724 L69.3068 450.724 L69.3068 454.66 L49.3995 454.66 L49.3995 450.724 Z" fill="#000000" fill-rule="evenodd" fill-opacity="1" /><path clip-path="url(#clip060)" d="M88.7512 423.178 Q85.1401 423.178 83.3114 426.743 Q81.5058 430.285 81.5058 437.414 Q81.5058 444.521 83.3114 448.086 Q85.1401 451.627 88.7512 451.627 Q92.3854 451.627 94.1909 448.086 Q96.0196 444.521 96.0196 437.414 Q96.0196 430.285 94.1909 426.743 Q92.3854 423.178 88.7512 423.178 M88.7512 419.475 Q94.5613 419.475 97.6169 424.081 Q100.696 428.664 100.696 437.414 Q100.696 446.141 97.6169 450.748 Q94.5613 455.331 88.7512 455.331 Q82.941 455.331 79.8623 450.748 Q76.8068 446.141 76.8068 437.414 Q76.8068 428.664 79.8623 424.081 Q82.941 419.475 88.7512 419.475 Z" fill="#000000" fill-rule="evenodd" fill-opacity="1" /><path clip-path="url(#clip060)" d="M50.3949 311.39 L58.0337 311.39 L58.0337 285.025 L49.7236 286.691 L49.7236 282.432 L57.9874 280.766 L62.6633 280.766 L62.6633 311.39 L70.3022 311.39 L70.3022 315.326 L50.3949 315.326 L50.3949 311.39 Z" fill="#000000" fill-rule="evenodd" fill-opacity="1" /><path clip-path="url(#clip060)" d="M79.7929 280.766 L98.1493 280.766 L98.1493 284.701 L84.0753 284.701 L84.0753 293.173 Q85.0938 292.826 86.1123 292.664 Q87.1308 292.478 88.1493 292.478 Q93.9363 292.478 97.3159 295.65 Q100.696 298.821 100.696 304.238 Q100.696 309.816 97.2233 312.918 Q93.7511 315.997 87.4317 315.997 Q85.2558 315.997 82.9873 315.626 Q80.7419 315.256 78.3346 314.515 L78.3346 309.816 Q80.4179 310.951 82.6401 311.506 Q84.8623 312.062 87.3391 312.062 Q91.3437 312.062 93.6817 309.955 Q96.0196 307.849 96.0196 304.238 Q96.0196 300.627 93.6817 298.52 Q91.3437 296.414 87.3391 296.414 Q85.4641 296.414 83.5892 296.83 Q81.7373 297.247 79.7929 298.127 L79.7929 280.766 Z" fill="#000000" fill-rule="evenodd" fill-opacity="1" /><path clip-path="url(#clip060)" d="M52.6171 172.056 L68.9365 172.056 L68.9365 175.991 L46.9921 175.991 L46.9921 172.056 Q49.6541 169.302 54.2375 164.672 Q58.8439 160.019 60.0245 158.677 Q62.2698 156.154 63.1494 154.417 Q64.0522 152.658 64.0522 150.968 Q64.0522 148.214 62.1078 146.478 Q60.1865 144.742 57.0847 144.742 Q54.8856 144.742 52.4319 145.505 Q50.0014 146.269 47.2236 147.82 L47.2236 143.098 Q50.0477 141.964 52.5014 141.385 Q54.955 140.806 56.9921 140.806 Q62.3624 140.806 65.5568 143.492 Q68.7513 146.177 68.7513 150.667 Q68.7513 152.797 67.9411 154.718 Q67.1541 156.616 65.0476 159.209 Q64.4689 159.88 61.367 163.098 Q58.2652 166.292 52.6171 172.056 Z" fill="#000000" fill-rule="evenodd" fill-opacity="1" /><path clip-path="url(#clip060)" d="M88.7512 144.51 Q85.1401 144.51 83.3114 148.075 Q81.5058 151.617 81.5058 158.746 Q81.5058 165.853 83.3114 169.417 Q85.1401 172.959 88.7512 172.959 Q92.3854 172.959 94.1909 169.417 Q96.0196 165.853 96.0196 158.746 Q96.0196 151.617 94.1909 148.075 Q92.3854 144.51 88.7512 144.51 M88.7512 140.806 Q94.5613 140.806 97.6169 145.413 Q100.696 149.996 100.696 158.746 Q100.696 167.473 97.6169 172.079 Q94.5613 176.663 88.7512 176.663 Q82.941 176.663 79.8623 172.079 Q76.8068 167.473 76.8068 158.746 Q76.8068 149.996 79.8623 145.413 Q82.941 140.806 88.7512 140.806 Z" fill="#000000" fill-rule="evenodd" fill-opacity="1" /><polyline clip-path="url(#clip062)" style="stroke:#009af9; stroke-linecap:round; stroke-linejoin:round; stroke-width:2; stroke-opacity:1; fill:none" points="233.716,352.816 234.935,356.136 236.153,176.306 237.371,339.452 238.59,144.78 239.808,135.841 241.027,140.491 242.245,175.764 243.463,149.348 244.682,168.636 245.9,156.827 247.119,366.113 248.337,342.488 249.555,392.572 250.774,129.583 251.992,135.676 253.211,151.618 254.429,158.677 255.647,153.712 256.866,155.428 258.084,155.196 259.303,336.064 260.521,166.853 261.74,155.899 262.958,158.962 264.176,164.947 265.395,391.438 266.613,443.046 267.832,576.629 269.05,335.213 270.268,430.346 271.487,368.008 272.705,170.797 273.924,174.963 275.142,148.193 276.36,120.894 277.579,161.438 278.797,158.243 280.016,152.409 281.234,126.829 282.452,173.704 283.671,149.449 284.889,168.888 286.108,165.084 287.326,159.558 288.545,152.227 289.763,150.868 290.981,176.296 292.2,177.283 293.418,135.868 294.637,178.281 295.855,141.931 297.073,160.713 298.292,361.82 299.51,491.675 300.729,334.834 301.947,365.352 303.165,466.1 304.384,388.711 305.602,374.431 306.821,362.431 308.039,366.279 309.257,356.671 310.476,341.03 311.694,155.559 312.913,166.441 314.131,152.605 315.35,164.815 316.568,163.498 317.786,139.561 319.005,172.664 320.223,351.502 321.442,368.181 322.66,335.88 323.878,194.969 325.097,161.618 326.315,146.284 327.534,163.689 328.752,357.862 329.97,342.083 331.189,346.01 332.407,358.834 333.626,332.506 334.844,335.886 336.062,178.357 337.281,172.291 338.499,175.208 339.718,174.118 340.936,164.769 342.155,141.657 343.373,170.645 344.591,135.494 345.81,175.145 347.028,355.119 348.247,349.543 349.465,148.407 350.683,158.369 351.902,138.314 353.12,162.849 354.339,160.055 355.557,169.634 356.775,344.641 357.994,350.124 359.212,435.001 360.431,362.993 361.649,169.718 362.867,146.296 364.086,137.951 365.304,173.853 366.523,364.909 367.741,382.291 368.96,480.573 370.178,477.929 371.396,426.947 372.615,332.716 373.833,443.978 375.052,559.156 376.27,394.063 377.488,341.674 378.707,170.03 379.925,149.592 381.144,178.071 382.362,133.924 383.58,183.447 384.799,125.107 386.017,186.794 387.236,150.922 388.454,153.467 389.672,370.438 390.891,499.745 392.109,578.787 393.328,577.19 394.546,581.318 395.765,574.057 396.983,501.046 398.201,341.438 399.42,350.317 400.638,350.2 401.857,374.546 403.075,361.351 404.293,502.079 405.512,561.095 406.73,367.524 407.949,375.424 409.167,335.589 410.385,473.045 411.604,344.146 412.822,348.029 414.041,445.625 415.259,517.325 416.477,399.113 417.696,557.36 418.914,452.933 420.133,414.645 421.351,432.081 422.57,507.042 423.788,453.725 425.006,342.833 426.225,347.504 427.443,143.839 428.662,143.13 429.88,170.707 431.098,177.518 432.317,178.674 433.535,154.135 434.754,160.49 435.972,146.941 437.19,176.614 438.409,152.04 439.627,151.351 440.846,186.91 442.064,516.657 443.282,368.543 444.501,336.504 445.719,364.51 446.938,381.499 448.156,352.001 449.375,339.578 450.593,365.244 451.811,441.683 453.03,501.347 454.248,523.251 455.467,485.386 456.685,518.746 457.903,557.58 459.122,547.955 460.34,557.314 461.559,577.608 462.777,491.653 463.995,564.462 465.214,514.428 466.432,341.876 467.651,370.575 468.869,328.797 470.087,369.999 471.306,535.313 472.524,377.163 473.743,472.453 474.961,511.832 476.179,483.776 477.398,499.442 478.616,484.915 479.835,380.724 481.053,486.656 482.272,369.175 483.49,357.473 484.708,365.415 485.927,342.735 487.145,155.207 488.364,352.668 489.582,390.487 490.8,344.972 492.019,383.16 493.237,418.863 494.456,358.391 495.674,182.84 496.892,137.55 498.111,165.197 499.329,136.879 500.548,138.65 501.766,183.921 502.984,175.76 504.203,416.867 505.421,356.632 506.64,371.109 507.858,508.775 509.077,442.488 510.295,351.429 511.513,126.218 512.732,174.066 513.95,154.658 515.169,161.636 516.387,179.003 517.605,145.661 518.824,152.364 520.042,159.325 521.261,371.953 522.479,415.764 523.697,367.098 524.916,330.307 526.134,369.791 527.353,349.606 528.571,351.845 529.789,364.756 531.008,353.982 532.226,169.392 533.445,164.805 534.663,165.181 535.882,159.52 537.1,156.201 538.318,157.029 539.537,156.067 540.755,355.968 541.974,359.138 543.192,147.179 544.41,170.623 545.629,159.303 546.847,177.402 548.066,143.413 549.284,172.877 550.502,162.406 551.721,153.776 552.939,153.065 554.158,157.102 555.376,374.508 556.594,389.761 557.813,166.774 559.031,145.321 560.25,139.938 561.468,133.802 562.687,173.623 563.905,175.493 565.123,177.961 566.342,180.391 567.56,160.721 568.779,176.172 569.997,155.065 571.215,375.445 572.434,354.165 573.652,359.905 574.871,363.427 576.089,365.856 577.307,400.476 578.526,351.687 579.744,495.089 580.963,529.838 582.181,468.367 583.399,443.3 584.618,354.627 585.836,341.276 587.055,345.429 588.273,188.553 589.492,178.254 590.71,172.756 591.928,168.722 593.147,141.776 594.365,161.789 595.584,131.83 596.802,125.144 598.02,147.289 599.239,160.502 600.457,129.298 601.676,187.681 602.894,191.172 604.112,183.456 605.331,146.776 606.549,143.954 607.768,165.943 608.986,194.021 610.204,131.8 611.423,160.338 612.641,166.119 613.86,169.84 615.078,148.693 616.297,153.251 617.515,185.358 618.733,141.784 619.952,141.023 621.17,171.761 622.389,158.902 623.607,163.16 624.825,129.448 626.044,148.983 627.262,142.212 628.481,149.794 629.699,144.116 630.917,149.341 632.136,157.964 633.354,147.795 634.573,127.493 635.791,158.32 637.009,169.283 638.228,172.304 639.446,161.299 640.665,172.366 641.883,146.738 643.102,147.27 644.32,133.646 645.538,138.146 646.757,183.633 647.975,326.73 649.194,369.536 650.412,164.818 651.63,175.749 652.849,152.13 654.067,167.3 655.286,166.029 656.504,153.776 657.722,159.996 658.941,348.026 660.159,532.497 661.378,521.272 662.596,401.115 663.814,366.402 665.033,365.427 666.251,472.006 667.47,513.993 668.688,387.091 669.907,355.278 671.125,359.974 672.343,164.145 673.562,168.882 674.78,167.564 675.999,150.243 677.217,170.626 678.435,171.033 679.654,378.596 680.872,335.855 682.091,445.958 683.309,537.453 684.527,421.696 685.746,356.313 686.964,343.429 688.183,173.178 689.401,168.751 690.619,167.484 691.838,166.588 693.056,177.041 694.275,179.422 695.493,151.046 696.712,140.774 697.93,178.392 699.148,184.625 700.367,140.877 701.585,189.343 702.804,172.595 704.022,172.081 705.24,186.147 706.459,170.638 707.677,145.094 708.896,151.813 710.114,164.634 711.332,142.724 712.551,154.982 713.769,150.477 714.988,150.47 716.206,156.806 717.424,160.698 718.643,146.882 719.861,188.601 721.08,460.366 722.298,506.112 723.517,356.251 724.735,421.297 725.953,369.542 727.172,184.994 728.39,142.66 729.609,346.546 730.827,350.486 732.045,353.573 733.264,364.519 734.482,152.088 735.701,168.635 736.919,174.284 738.137,164.93 739.356,135.73 740.574,178.787 741.793,428.78 743.011,337.557 744.229,348.371 745.448,364.538 746.666,340.472 747.885,326.519 749.103,423.01 750.322,330.392 751.54,360.272 752.758,345.253 753.977,138.39 755.195,174.059 756.414,359.557 757.632,367.623 758.85,348.221 760.069,343.059 761.287,371.472 762.506,333.285 763.724,378.142 764.942,351.404 766.161,360.242 767.379,348.441 768.598,358.445 769.816,365.624 771.034,343.336 772.253,408.192 773.471,368.26 774.69,358.802 775.908,390.175 777.127,528.691 778.345,556.37 779.563,434.284 780.782,370.496 782,343.578 783.219,380.641 784.437,333.225 785.655,351.097 786.874,472.108 788.092,385.352 789.311,411.79 790.529,487.022 791.747,502.886 792.966,366.547 794.184,341.074 795.403,337.33 796.621,180.286 797.839,135.727 799.058,137.521 800.276,163.082 801.495,349.458 802.713,371.11 803.932,400.988 805.15,360.78 806.368,155.646 807.587,155.602 808.805,153.64 810.024,157.243 811.242,130.332 812.46,180.913 813.679,175.473 814.897,141.871 816.116,158.036 817.334,329.346 818.552,424.463 819.771,547.491 820.989,435.269 822.208,502.739 823.426,459.947 824.644,364.128 825.863,382.334 827.081,367.076 828.3,447.839 829.518,488.399 830.737,590.563 831.955,550.809 833.173,578.644 834.392,454.805 835.61,348.275 836.829,355.715 838.047,423.667 839.265,152.744 840.484,157.393 841.702,153.299 842.921,148.363 844.139,175.545 845.357,144.007 846.576,171.576 847.794,160.747 849.013,143.602 850.231,168.571 851.449,147.127 852.668,148.206 853.886,170.464 855.105,160.345 856.323,147.569 857.541,148.601 858.76,160.445 859.978,148.839 861.197,168.663 862.415,176.531 863.634,173.499 864.852,159.316 866.07,153.642 867.289,150.875 868.507,169.736 869.726,137.01 870.944,165.292 872.162,172.087 873.381,167.478 874.599,141.225 875.818,152.796 877.036,155.375 878.254,166.843 879.473,164.506 880.691,139.604 881.91,139.26 883.128,144.862 884.346,134.007 885.565,166.463 886.783,145.868 888.002,170.607 889.22,163.242 890.439,143.245 891.657,145.061 892.875,163.887 894.094,147.012 895.312,146.248 896.531,332.642 897.749,160.195 898.967,160.646 900.186,361.983 901.404,330.661 902.623,374.619 903.841,552.231 905.059,570.542 906.278,418.845 907.496,492.759 908.715,471.956 909.933,440.22 911.151,560.222 912.37,570.652 913.588,499.498 914.807,450.018 916.025,501.677 917.244,462.55 918.462,385.493 919.68,386.509 920.899,348.861 922.117,362.578 923.336,145.089 924.554,131.475 925.772,338.25 926.991,334.449 928.209,330.637 929.428,358.781 930.646,370.15 931.864,409.87 933.083,578.175 934.301,491.194 935.52,320.203 936.738,490.495 937.956,587.102 939.175,540.368 940.393,501.723 941.612,528.996 942.83,523.718 944.049,516.203 945.267,534.817 946.485,487.373 947.704,584.488 948.922,520.382 950.141,550.402 951.359,443.983 952.577,335.558 953.796,469.758 955.014,456.663 956.233,460.341 957.451,361.194 958.669,367.204 959.888,355.635 961.106,424.365 962.325,371.56 963.543,336.121 964.761,339.449 965.98,369.041 967.198,504.613 968.417,393.974 969.635,335.368 970.854,381.654 972.072,312.808 973.29,463.3 974.509,539.687 975.727,543.027 976.946,377.41 978.164,336.293 979.382,366.689 980.601,546.704 981.819,500.982 983.038,343.89 984.256,370.25 985.474,338.702 986.693,337.793 987.911,375.819 989.13,347.841 990.348,337.43 991.566,528.287 992.785,504.297 994.003,555.361 995.222,539.291 996.44,457.776 997.659,167.586 998.877,144.966 1000.1,155.442 1001.31,146.717 1002.53,170.151 1003.75,164.977 1004.97,152.622 1006.19,158.93 1007.41,158.093 1008.62,170.239 1009.84,375.383 1011.06,335.996 1012.28,348.168 1013.5,149.623 1014.72,165.832 1015.93,164.953 1017.15,161.706 1018.37,160.083 1019.59,143.167 1020.81,158.143 1022.03,160.32 1023.25,166.544 1024.46,141.799 1025.68,145.044 1026.9,143.6 1028.12,151.044 1029.34,157.094 1030.56,336.564 1031.77,351.129 1032.99,344.591 1034.21,395.728 1035.43,521.665 1036.65,489.144 1037.87,425.753 1039.08,435.66 1040.3,337.535 1041.52,156.684 1042.74,137.459 1043.96,131.122 1045.18,136.712 1046.39,138.603 1047.61,174.809 1048.83,158.899 1050.05,176.422 1051.27,366.203 1052.49,352.18 1053.71,358.6 1054.92,459.246 1056.14,453.796 1057.36,369.589 1058.58,496.437 1059.8,534.449 1061.02,356.022 1062.23,351.517 1063.45,362.133 1064.67,325.939 1065.89,340.972 1067.11,145.794 1068.33,163.729 1069.54,173.677 1070.76,149 1071.98,149.631 1073.2,166.397 1074.42,144.238 1075.64,170.001 1076.86,161.814 1078.07,179.314 1079.29,165.737 1080.51,154.544 1081.73,138.576 1082.95,183.276 1084.17,155.066 1085.38,147.997 1086.6,173.319 1087.82,146.111 1089.04,150.675 1090.26,154.268 1091.48,159.733 1092.69,159.666 1093.91,148.585 1095.13,161.03 1096.35,161.476 1097.57,375.249 1098.79,496.384 1100,426.961 1101.22,409.803 1102.44,346.822 1103.66,443.687 1104.88,439.783 1106.1,422.384 1107.32,435.484 1108.53,317.258 1109.75,506.795 1110.97,468.56 1112.19,554.658 1113.41,558.376 1114.63,547.873 1115.84,543.402 1117.06,470.256 1118.28,475.092 1119.5,393.293 1120.72,371.885 1121.94,175.657 1123.15,166.39 1124.37,176.357 1125.59,175.316 1126.81,157.243 1128.03,173.549 1129.25,147.494 1130.47,180.701 1131.68,171.121 1132.9,145.31 1134.12,162.978 1135.34,136.126 1136.56,148.218 1137.78,147.591 1138.99,137.635 1140.21,162.485 1141.43,161.48 1142.65,143.184 1143.87,146.62 1145.09,170.337 1146.3,157.633 1147.52,145.747 1148.74,148.292 1149.96,180.577 1151.18,160.347 1152.4,146.057 1153.61,310.21 1154.83,179.659 1156.05,150.914 1157.27,164.093 1158.49,169.561 1159.71,176.187 1160.93,158.213 1162.14,153.265 1163.36,155.545 1164.58,147.832 1165.8,169.236 1167.02,164.263 1168.24,147.714 1169.45,165.183 1170.67,186.063 1171.89,174.697 1173.11,149.994 1174.33,115.299 1175.55,140.815 1176.76,162.221 1177.98,175.781 1179.2,195.157 1180.42,339.752 1181.64,354.001 1182.86,431.759 1184.08,470.369 1185.29,463.712 1186.51,353.757 1187.73,350.257 1188.95,351.835 1190.17,189.151 1191.39,155.638 1192.6,178.953 1193.82,382.764 1195.04,356.347 1196.26,342.977 1197.48,413.054 1198.7,164.997 1199.91,173.776 1201.13,173.105 1202.35,163.554 1203.57,354.543 1204.79,356.142 1206.01,373.451 1207.22,388.408 1208.44,486.571 1209.66,522.432 1210.88,426.571 1212.1,351.718 1213.32,342.634 1214.54,541.587 1215.75,342.826 1216.97,370.472 1218.19,363.973 1219.41,348.328 1220.63,358.422 1221.85,353.3 1223.06,367.641 1224.28,357.57 1225.5,367.961 1226.72,360.036 1227.94,351.524 1229.16,348.684 1230.37,363.426 1231.59,363.595 1232.81,376.775 1234.03,361.835 1235.25,360.063 1236.47,490.781 1237.69,530.652 1238.9,567.936 1240.12,453.695 1241.34,377.08 1242.56,329.639 1243.78,175.127 1245,165.645 1246.21,154.161 1247.43,146.509 1248.65,163.893 1249.87,135.148 1251.09,172.443 1252.31,157.241 1253.52,144.893 1254.74,132.522 1255.96,155.275 1257.18,148.085 1258.4,169.995 1259.62,167.422 1260.83,144.761 1262.05,139.373 1263.27,148.506 1264.49,155.496 1265.71,167.875 1266.93,168.222 1268.15,133.72 1269.36,149.486 1270.58,163.159 1271.8,168.923 1273.02,144.29 1274.24,156.691 1275.46,146.138 1276.67,168.197 1277.89,352.702 1279.11,346.652 1280.33,354.844 1281.55,381.993 1282.77,185.364 1283.98,137.49 1285.2,157.129 1286.42,149.966 1287.64,168.526 1288.86,141.293 1290.08,336.888 1291.3,458.073 1292.51,443.276 1293.73,554.109 1294.95,505.411 1296.17,450.001 1297.39,469.58 1298.61,480.812 1299.82,351.774 1301.04,338.373 1302.26,490.328 1303.48,490.629 1304.7,368.405 1305.92,366.362 1307.13,339.455 1308.35,367.651 1309.57,500.941 1310.79,346.738 1312.01,377.231 1313.23,166.553 1314.44,168.895 1315.66,150.306 1316.88,419.508 1318.1,138.164 1319.32,132.281 1320.54,169.172 1321.76,123.985 1322.97,185.82 1324.19,185.154 1325.41,180.262 1326.63,138.258 1327.85,146.429 1329.07,154.471 1330.28,159.813 1331.5,176.911 1332.72,141.343 1333.94,185.373 1335.16,141.128 1336.38,163.444 1337.59,152.969 1338.81,174.233 1340.03,135.706 1341.25,138.657 1342.47,337.53 1343.69,352.485 1344.91,375.892 1346.12,462.511 1347.34,559.504 1348.56,530.606 1349.78,501.494 1351,335.824 1352.22,141.432 1353.43,183.452 1354.65,136.215 1355.87,161.708 1357.09,154.565 1358.31,154.245 1359.53,372.811 1360.74,529.577 1361.96,541.268 1363.18,385.727 1364.4,391.012 1365.62,356.109 1366.84,150.814 1368.05,338.797 1369.27,355.735 1370.49,350.298 1371.71,169.538 1372.93,152.3 1374.15,139.011 1375.37,161.288 1376.58,164.624 1377.8,158.265 1379.02,144.43 1380.24,139.639 1381.46,159.834 1382.68,145.998 1383.89,145.351 1385.11,165.744 1386.33,141.28 1387.55,161.961 1388.77,136.14 1389.99,143.076 1391.2,305.743 1392.42,387.449 1393.64,397.04 1394.86,335.586 1396.08,352.058 1397.3,347.857 1398.52,349.693 1399.73,443.558 1400.95,535.578 1402.17,548.963 1403.39,396.36 1404.61,336.778 1405.83,144.199 1407.04,173.939 1408.26,179.92 1409.48,162.917 1410.7,172.851 1411.92,393.676 1413.14,335.114 1414.35,399.548 1415.57,417.174 1416.79,566.334 1418.01,508.876 1419.23,499.902 1420.45,477.659 1421.66,416.302 1422.88,560.049 1424.1,545.415 1425.32,526.509 1426.54,517.548 1427.76,434.434 1428.98,382.988 1430.19,360.843 1431.41,325.407 1432.63,330.514 1433.85,361.074 1435.07,394.682 1436.29,350.839 1437.5,359.982 1438.72,446.326 1439.94,451.587 1441.16,557.868 1442.38,537.336 1443.6,433.825 1444.81,357.477 1446.03,357.937 1447.25,350.181 1448.47,345.122 1449.69,352.308 1450.91,399.715 1452.13,357.17 1453.34,341.399 1454.56,551.568 1455.78,529.084 1457,454.86 1458.22,365.212 1459.44,370.42 1460.65,364.161 1461.87,357.296 1463.09,151.431 1464.31,157.522 1465.53,358.582 1466.75,334.402 1467.96,338.5 1469.18,342.262 1470.4,386.269 1471.62,357.782 1472.84,353.47 1474.06,369.783 1475.27,359.155 1476.49,344.483 1477.71,333.13 1478.93,341.069 1480.15,465.462 1481.37,344.053 1482.59,358.075 1483.8,502.917 1485.02,467.163 1486.24,508.832 1487.46,463.531 1488.68,348.191 1489.9,343.95 1491.11,351.875 1492.33,352.976 1493.55,153.349 1494.77,186.137 1495.99,168.185 1497.21,144.091 1498.42,153.34 1499.64,157.645 1500.86,162.814 1502.08,347.711 1503.3,368.208 1504.52,344.379 1505.74,363.3 1506.95,334.744 1508.17,146.235 1509.39,158.507 1510.61,160.048 1511.83,317.289 1513.05,133.054 1514.26,171.536 1515.48,187.573 1516.7,331.011 1517.92,346.136 1519.14,356.033 1520.36,353.914 1521.57,330.897 1522.79,356.667 1524.01,361.48 1525.23,356.183 1526.45,345.323 1527.67,383.879 1528.88,367.654 1530.1,354.358 1531.32,354.443 1532.54,339.251 1533.76,174.264 1534.98,146.537 1536.2,148.036 1537.41,164.247 1538.63,150.372 1539.85,172.186 1541.07,172.704 1542.29,151.284 1543.51,150.915 1544.72,159.237 1545.94,167.303 1547.16,158.784 1548.38,160.264 1549.6,165.092 1550.82,141.173 1552.03,172.2 1553.25,146.512 1554.47,152.821 1555.69,180.952 1556.91,176.784 1558.13,363.211 1559.35,372.719 1560.56,382.324 1561.78,422.349 1563,387.494 1564.22,496.829 1565.44,492.138 1566.66,554.695 1567.87,458.084 1569.09,325.692 1570.31,428.172 1571.53,543.855 1572.75,531.917 1573.97,414.367 1575.18,364.482 1576.4,363.178 1577.62,361.211 1578.84,343.144 1580.06,171.248 1581.28,368.892 1582.49,332.415 1583.71,368.655 1584.93,354.72 1586.15,365.477 1587.37,358.615 1588.59,344.806 1589.81,345.133 1591.02,350.142 1592.24,362.253 1593.46,543.209 1594.68,442.666 1595.9,510.443 1597.12,372.378 1598.33,497.501 1599.55,441.991 1600.77,474.774 1601.99,537.562 1603.21,358.208 1604.43,356.54 1605.64,153.872 1606.86,156.631 1608.08,154.734 1609.3,175.893 1610.52,169.637 1611.74,146.449 1612.96,148.72 1614.17,173.294 1615.39,160.108 1616.61,151.351 1617.83,169.411 1619.05,183.784 1620.27,156.145 1621.48,150.652 1622.7,183.939 1623.92,148.883 1625.14,170.712 1626.36,355.866 1627.58,142.182 1628.79,168.678 1630.01,166.439 1631.23,139.691 1632.45,163.697 1633.67,190.658 1634.89,337.071 1636.1,182.898 1637.32,156.669 1638.54,163.41 1639.76,173.779 1640.98,134.539 1642.2,143.935 1643.42,164.004 1644.63,167.964 1645.85,165.392 1647.07,145.092 1648.29,342.005 1649.51,357.81 1650.73,342.938 1651.94,358.181 1653.16,354.445 1654.38,372.833 1655.6,443.123 1656.82,528.686 1658.04,512.213 1659.25,351.839 1660.47,336.13 1661.69,348.795 1662.91,354.344 1664.13,149.201 1665.35,144.125 1666.57,182.773 1667.78,148.127 1669,171.267 1670.22,152.787 1671.44,169.806 1672.66,148.105 1673.88,140.75 1675.09,335.584 1676.31,343.036 1677.53,359.771 1678.75,333.801 1679.97,475.212 1681.19,474.4 1682.4,475.321 1683.62,332.601 1684.84,355.486 1686.06,481.798 1687.28,471.677 1688.5,471.212 1689.71,424.183 1690.93,357.799 1692.15,364.746 1693.37,350.329 1694.59,347.555 1695.81,348.212 1697.03,371.902 1698.24,445.208 1699.46,374.739 1700.68,150.927 1701.9,324.354 1703.12,169.458 1704.34,155.58 1705.55,176.661 1706.77,157.264 1707.99,140.481 1709.21,154.466 1710.43,161.945 1711.65,144.071 1712.86,143.413 1714.08,160.659 1715.3,137.521 1716.52,163.91 1717.74,158.121 1718.96,158.896 1720.18,152.525 1721.39,356.479 1722.61,167.226 1723.83,156.95 1725.05,160.715 1726.27,160.625 1727.49,139.703 1728.7,160.327 1729.92,155.253 1731.14,155.255 1732.36,159.153 1733.58,153.476 1734.8,155.654 1736.01,147.976 1737.23,147.265 1738.45,152.141 1739.67,175.048 1740.89,172.146 1742.11,158.359 1743.32,150.61 1744.54,159.389 1745.76,155.699 1746.98,156.462 1748.2,154.732 1749.42,162.344 1750.64,334.949 1751.85,352.458 1753.07,359.521 1754.29,346.092 1755.51,392.004 1756.73,373.013 1757.95,189.303 1759.16,150.452 1760.38,147.588 1761.6,171.105 1762.82,181.585 1764.04,154.473 1765.26,173.896 1766.47,144.069 1767.69,159.776 1768.91,133.345 1770.13,135.886 1771.35,148.509 1772.57,160.656 1773.79,145.204 1775,156.857 1776.22,173.04 1777.44,145.318 1778.66,171.817 1779.88,342.113 1781.1,360.906 1782.31,436.389 1783.53,514.947 1784.75,408.242 1785.97,573.605 1787.19,464.642 1788.41,552.825 1789.62,530.376 1790.84,569.641 1792.06,398.805 1793.28,362.047 1794.5,507.806 1795.72,537.065 1796.93,392.69 1798.15,342.343 1799.37,195.32 1800.59,156.174 1801.81,173.263 1803.03,139.702 1804.25,328.859 1805.46,141.774 1806.68,172.116 1807.9,333.275 1809.12,167.745 1810.34,145.402 1811.56,162.969 1812.77,156.402 1813.99,158.63 1815.21,162.711 1816.43,169.391 1817.65,163.278 1818.87,162.424 1820.08,186.346 1821.3,153.089 1822.52,182.636 1823.74,333.191 1824.96,141.388 1826.18,162.354 1827.4,148.193 1828.61,150.07 1829.83,347.681 1831.05,473.367 1832.27,513.956 1833.49,458.973 1834.71,357.558 1835.92,383.982 1837.14,345.563 1838.36,378.502 1839.58,378.71 1840.8,341.313 1842.02,345.39 1843.23,372.34 1844.45,387.55 1845.67,342.527 1846.89,329.417 1848.11,167.576 1849.33,348.475 1850.54,353.788 1851.76,337.214 1852.98,329.736 1854.2,179.913 1855.42,155.486 1856.64,154.523 1857.86,136.089 1859.07,166.847 1860.29,149.725 1861.51,339.356 1862.73,366.871 1863.95,473.981 1865.17,347.567 1866.38,354.832 1867.6,159.94 1868.82,161.38 1870.04,113.81 1871.26,145.779 1872.48,150.164 1873.69,441.766 1874.91,564.422 1876.13,537.539 1877.35,563.668 1878.57,384.858 1879.79,387.54 1881.01,548.946 1882.22,490.097 1883.44,441.202 1884.66,171.631 1885.88,137.546 1887.1,187.151 1888.32,342.86 1889.53,347.141 1890.75,392.386 1891.97,475.105 1893.19,362.036 1894.41,165.097 1895.63,156.401 1896.84,153.998 1898.06,131.246 1899.28,155.636 1900.5,151.672 1901.72,194.844 1902.94,366.726 1904.15,363.042 1905.37,382.597 1906.59,347.001 1907.81,338.083 1909.03,347.678 1910.25,384.897 1911.47,148.26 1912.68,164.641 1913.9,164.391 1915.12,185.251 1916.34,356.265 1917.56,342.349 1918.78,149.12 1919.99,176.262 1921.21,153.209 1922.43,161.462 1923.65,155.772 1924.87,142.036 1926.09,342.858 1927.3,149.434 1928.52,149.771 1929.74,168.988 1930.96,170.945 1932.18,165.43 1933.4,158.281 1934.62,159.646 1935.83,156.928 1937.05,162.11 1938.27,335.015 1939.49,367.231 1940.71,148.882 1941.93,148.365 1943.14,165.584 1944.36,155.707 1945.58,162.269 1946.8,168.945 1948.02,178.337 1949.24,175.913 1950.45,162.34 1951.67,160.408 1952.89,158.431 1954.11,156.092 1955.33,155.094 1956.55,148.393 1957.76,160.97 1958.98,152.546 1960.2,161.947 1961.42,152.169 1962.64,156.329 1963.86,348.616 1965.08,353.056 1966.29,473.654 1967.51,394.924 1968.73,490.102 1969.95,443.243 1971.17,362.925 1972.39,344.954 1973.6,334.433 1974.82,175.787 1976.04,342.676 1977.26,333.549 1978.48,334.874 1979.7,147.724 1980.91,178.245 1982.13,164.136 1983.35,159.901 1984.57,157.872 1985.79,131.195 1987.01,153.068 1988.23,154.922 1989.44,142.925 1990.66,145.326 1991.88,162.678 1993.1,189.373 1994.32,135.348 1995.54,188.992 1996.75,156.675 1997.97,159.596 1999.19,139.372 2000.41,150.517 2001.63,156.955 2002.85,156.333 2004.06,139.671 2005.28,149.902 2006.5,175.828 2007.72,162.507 2008.94,143.263 2010.16,143.249 2011.37,168.36 2012.59,149.327 2013.81,398.757 2015.03,460.254 2016.25,472.626 2017.47,533.105 2018.69,406.274 2019.9,344.688 2021.12,386.674 2022.34,331.093 2023.56,182.907 2024.78,127.76 2026,155.659 2027.21,153.279 2028.43,170.218 2029.65,163.038 2030.87,138.798 2032.09,160.525 2033.31,163.253 2034.52,153.297 2035.74,169.486 2036.96,156.294 2038.18,150.986 2039.4,144.667 2040.62,152.11 2041.83,144.613 2043.05,159.68 2044.27,152.743 2045.49,150.685 2046.71,165.593 2047.93,155.296 2049.15,154.145 2050.36,157.228 2051.58,433.399 2052.8,362.29 2054.02,355.536 2055.24,364.978 2056.46,382.3 2057.67,348.717 2058.89,366.322 2060.11,377.289 2061.33,366.851 2062.55,335.654 2063.77,191.636 2064.98,182.835 2066.2,179.047 2067.42,130.368 2068.64,381.943 2069.86,390.37 2071.08,382.015 2072.3,378.061 2073.51,436.414 2074.73,344.659 2075.95,356.757 2077.17,374.846 2078.39,351.994 2079.61,358.645 2080.82,361.407 2082.04,346.814 2083.26,493.182 2084.48,462.033 2085.7,558.422 2086.92,393.28 2088.13,380.483 2089.35,419.396 2090.57,517.798 2091.79,558.142 2093.01,502.223 2094.23,357.146 2095.44,364.416 2096.66,366.934 2097.88,338.232 2099.1,183.889 2100.32,191.389 2101.54,139.608 2102.76,161.62 2103.97,346.867 2105.19,185.194 2106.41,178.804 2107.63,169.35 2108.85,159.255 2110.07,149.188 2111.28,190.595 2112.5,173.807 2113.72,172.51 2114.94,141.086 2116.16,137.962 2117.38,180.783 2118.59,123.835 2119.81,136.636 2121.03,187.588 2122.25,126.03 2123.47,190.295 2124.69,187.24 2125.91,131.185 2127.12,132.935 2128.34,140.686 2129.56,199.595 2130.78,140.064 2132,178.885 2133.22,138.134 2134.43,172.451 2135.65,166.356 2136.87,163.445 2138.09,144.804 2139.31,143.832 2140.53,146.428 2141.74,125.304 2142.96,143.339 2144.18,363.945 2145.4,420.497 2146.62,363.345 2147.84,169.482 2149.05,155.996 2150.27,140.502 2151.49,146.502 2152.71,132.409 2153.93,165.787 2155.15,160.309 2156.37,168.169 2157.58,170.616 2158.8,157.04 2160.02,162.911 2161.24,150.682 2162.46,342.081 2163.68,146.164 2164.89,154.711 2166.11,158.268 2167.33,152.994 2168.55,153.601 2169.77,166.661 2170.99,171.728 2172.2,152.396 2173.42,185.441 2174.64,126.837 2175.86,130.918 2177.08,151.993 2178.3,160.216 2179.52,355.893 2180.73,339.464 2181.95,336.005 2183.17,359.603 2184.39,156.858 2185.61,169.068 2186.83,170.165 2188.04,327.936 2189.26,343.876 2190.48,353.322 2191.7,347.075 2192.92,354.49 2194.14,459.198 2195.35,371.08 2196.57,467.322 2197.79,491.401 2199.01,394.283 2200.23,541.308 2201.45,349.694 2202.66,333.919 2203.88,178.106 2205.1,133.969 2206.32,167.014 2207.54,170.711 2208.76,182.423 2209.98,173.285 2211.19,154.645 2212.41,130.981 2213.63,183.913 2214.85,163.157 2216.07,354.562 2217.29,387.85 2218.5,504.815 2219.72,505.567 2220.94,485.203 2222.16,566.057 2223.38,525.479 2224.6,584.903 2225.81,390.046 2227.03,346.448 2228.25,168.089 2229.47,176.02 2230.69,174.845 2231.91,365.787 2233.13,345.109 2234.34,356.356 2235.56,336.744 2236.78,187.489 2238,331.263 2239.22,163.729 2240.44,165.632 2241.65,155.538 2242.87,177.796 2244.09,169.306 2245.31,149.073 2246.53,152.789 2247.75,165.07 2248.96,357.228 2250.18,150.763 2251.4,161.171 2252.62,166.99 2253.84,154.723 2255.06,139.437 2256.27,140.091 2257.49,135.624 2258.71,130.576 2259.93,145.54 2261.15,163.593 2262.37,183.673 2263.59,331.37 2264.8,134.633 2266.02,177.231 2267.24,319.249 2268.46,206.334 2269.68,316.005 2270.9,147.76 2272.11,169.575 2273.33,162.778 2274.55,172.817 2275.77,142.124 2276.99,170.405 2278.21,173.195 2279.42,185.914 2280.64,180.944 2281.86,139.898 2283.08,164.258 2284.3,165.097 2285.52,143.567 2286.74,142.823 2287.95,186.155 2289.17,178.765 2290.39,147.616 2291.61,151.913 2292.83,139.034 2294.05,158.798 2295.26,156.05 2296.48,157.091 2297.7,350.701 2298.92,352.973 2300.14,172.967 2301.36,172.229 2302.57,162.622 2303.79,158.544 2305.01,158.094 2306.23,160.053 2307.45,169.111 2308.67,143.664 2309.88,177.424 2311.1,153.728 2312.32,140.776 2313.54,168.228 2314.76,149.332 2315.98,150.122 2317.2,171.938 2318.41,170.96 2319.63,171.721 2320.85,365.562 2322.07,333.775 2323.29,348.132 2324.51,353.687 2325.72,145.052 2326.94,166.634 2328.16,171.478 2329.38,149.467 2330.6,159.711 2331.82,136.793 2333.03,183.209 2334.25,343.929 2335.47,386.759 2336.69,474.412 2337.91,372.899 2339.13,355.038 2340.35,353.586 2341.56,354.019 2342.78,355.285 2344,562.708 2345.22,405.756 2346.44,568.999 2347.66,503.468 2348.87,478.212 2350.09,445.415 2351.31,560.089 2352.53,521.02 2353.75,514.192 2354.97,472.086 2356.18,383.059 2357.4,536.316 2358.62,498.359 2359.84,386.612 2361.06,486.844 2362.28,501.827 2363.49,393.679 2364.71,163.519 2365.93,368.245 2367.15,427.864 2368.37,367.24 2369.59,365.272 2370.81,399.837 2372.02,349.642 2373.24,345.082 2374.46,355.856 2375.68,341.955 2376.9,171.326 2378.12,159.935 2379.33,155.443 2380.55,148.747 2381.77,343.797 2382.99,403.669 2384.21,359.405 2385.43,561.282 2386.64,504.662 2387.86,500.78 2389.08,561.98 2390.3,564.465 2391.52,580.282 2392.74,571.392 2393.96,444.507 2395.17,390.9 2396.39,354.393 2397.61,369.198 2398.83,348.952 2400.05,365.034 2401.27,181.14 2402.48,165.671 2403.7,159.072 2404.92,147.111 2406.14,142.799 2407.36,164.116 2408.58,176.598 2409.79,140.504 2411.01,141.296 2412.23,137.713 2413.45,164.504 2414.67,168.268 2415.89,140.06 2417.1,145.359 2418.32,166.184 2419.54,165.531 2420.76,158.654 2421.98,152.826 2423.2,166.716 2424.42,171.262 2425.63,131.153 2426.85,173.613 2428.07,137.29 2429.29,144.63 2430.51,146.819 2431.73,160.899 2432.94,145.676 2434.16,157.792 2435.38,150.004 2436.6,337.768 2437.82,179.141 2439.04,167.698 2440.25,164.783 2441.47,339.297 2442.69,418.388 2443.91,367.19 2445.13,328.187 2446.35,345.104 2447.57,328.402 2448.78,334.116 2450,361.781 2451.22,346.348 2452.44,448.679 2453.66,586.4 2454.88,495.516 2456.09,344.925 2457.31,377.881 2458.53,422.571 2459.75,365.895 2460.97,360.526 2462.19,348.12 2463.4,366.955 2464.62,340.431 2465.84,337.494 2467.06,351.16 2468.28,350.376 2469.5,160.945 2470.71,134.502 2471.93,139.539 2473.15,156.714 2474.37,149.772 2475.59,173.563 2476.81,176.874 2478.03,169.901 2479.24,149.151 2480.46,150.498 2481.68,144.711 2482.9,130.824 2484.12,167.75 2485.34,341.191 2486.55,349.255 2487.77,359.06 2488.99,364.163 2490.21,363.988 2491.43,170.482 2492.65,153.672 2493.86,156.653 2495.08,168.281 2496.3,163.316 2497.52,145.136 2498.74,179.408 2499.96,154.999 2501.18,171.51 2502.39,158.332 2503.61,150.366 2504.83,157.835 2506.05,167.389 2507.27,168.005 2508.49,148.901 2509.7,148.325 2510.92,175.578 2512.14,373.434 2513.36,152.081 2514.58,148.926 2515.8,171.649 2517.01,168.693 2518.23,162.623 2519.45,143.186 2520.67,350.893 2521.89,460.134 2523.11,501.86 2524.32,549.812 2525.54,527.338 2526.76,493.605 2527.98,506.66 2529.2,363.174 2530.42,361.491 2531.64,361.327 2532.85,321.666 2534.07,345.809 2535.29,366.82 2536.51,335.359 2537.73,357.237 2538.95,347.457 2540.16,363.895 2541.38,442.949 2542.6,431.81 2543.82,365.987 2545.04,345.447 2546.26,348.921 2547.47,511.482 2548.69,529.932 2549.91,559.523 2551.13,559.645 2552.35,432.2 2553.57,342.847 2554.79,342.938 2556,382.21 2557.22,521.737 2558.44,485.839 2559.66,546.751 2560.88,570.271 2562.1,585.889 2563.31,597.913 2564.53,442.478 2565.75,476.839 2566.97,481.731 2568.19,545.748 2569.41,473.16 2570.62,509.395 2571.84,524.688 2573.06,427.603 2574.28,430.452 2575.5,437.81 2576.72,378.634 2577.93,431.183 2579.15,537.957 2580.37,344.763 2581.59,337.436 2582.81,139.325 2584.03,180.388 2585.25,163.275 2586.46,155.283 2587.68,163.974 2588.9,179.275 2590.12,152.703 2591.34,340.982 2592.56,159.067 2593.77,173.774 2594.99,173.05 2596.21,179.072 2597.43,183.591 2598.65,177.06 2599.87,185.238 2601.08,139.265 2602.3,179.135 2603.52,173.481 2604.74,169.512 2605.96,158.423 2607.18,161.92 2608.4,136.834 2609.61,151.607 2610.83,171.029 2612.05,134.479 2613.27,181.381 2614.49,154.51 2615.71,150.24 2616.92,166.007 2618.14,154.55 2619.36,151.949 2620.58,160.907 2621.8,348.685 2623.02,158.409 2624.23,163.884 2625.45,174.07 2626.67,167.959 2627.89,168.661 2629.11,149.079 2630.33,151.268 2631.54,156.454 2632.76,172.636 2633.98,168.956 2635.2,152.907 2636.42,149.862 2637.64,145.394 2638.86,172.681 2640.07,149.609 2641.29,156.178 2642.51,159.741 2643.73,152.244 2644.95,174.293 2646.17,160.606 2647.38,173.611 2648.6,129.761 2649.82,160.462 2651.04,131.402 2652.26,164.427 2653.48,153.788 2654.69,144.158 2655.91,173.982 2657.13,166.856 2658.35,157.217 2659.57,175.559 2660.79,135.534 2662.01,157.022 2663.22,163.211 2664.44,156.291 2665.66,197.4 2666.88,179.341 2668.1,186.38 2669.32,135.113 2670.53,172.909 2671.75,137.235 2672.97,155.901 2674.19,181.259 2675.41,140.215 2676.63,140.483 2677.84,160.11 2679.06,139.622 2680.28,159.399 2681.5,159.428 2682.72,170.321 2683.94,142.427 2685.15,164.16 2686.37,138.868 2687.59,157.543 2688.81,165.876 2690.03,147.088 2691.25,161.794 2692.47,151.498 2693.68,177.478 2694.9,196.107 2696.12,145.348 2697.34,167.506 2698.56,154.823 2699.78,176.04 2700.99,143.75 2702.21,146.894 2703.43,158.939 2704.65,182.702 2705.87,166.953 2707.09,344.381 2708.3,511.807 2709.52,536.553 2710.74,373.603 2711.96,353.524 2713.18,149.361 2714.4,353.93 2715.62,370.787 2716.83,165.903 2718.05,144.76 2719.27,150.441 2720.49,173.026 2721.71,181.45 2722.93,171.366 2724.14,168.595 2725.36,190.124 2726.58,156.242 2727.8,161.873 2729.02,140.488 2730.24,145.206 2731.45,172.216 2732.67,164.872 2733.89,159.251 2735.11,190.425 2736.33,148.729 2737.55,161.916 2738.76,166.728 2739.98,166.733 2741.2,313.944 2742.42,365.069 2743.64,144.908 2744.86,166.946 2746.08,152.795 2747.29,333.733 2748.51,158.953 2749.73,171.369 2750.95,168.54 2752.17,173.707 2753.39,146.732 2754.6,154.264 2755.82,153.528 2757.04,345.38 2758.26,371.673 2759.48,421.834 2760.7,520.984 2761.91,430.993 2763.13,577.124 2764.35,455.234 2765.57,348.286 2766.79,349.575 2768.01,380.401 2769.23,509.867 2770.44,550.787 2771.66,461.78 2772.88,429.982 2774.1,584.504 2775.32,540.564 2776.54,505.591 2777.75,356.89 2778.97,376.071 2780.19,365.874 2781.41,351.534 2782.63,354.197 2783.85,315.6 2785.06,329.504 2786.28,352.752 2787.5,134.048 2788.72,164.167 2789.94,162.219 2791.16,172.662 2792.37,166.655 2793.59,185.008 2794.81,174.908 2796.03,141.559 2797.25,137.102 2798.47,147.766 2799.69,169.171 2800.9,144.899 2802.12,154.04 2803.34,178.54 2804.56,374.677 2805.78,345.528 2807,342.596 2808.21,368.66 2809.43,334.289 2810.65,334.519 2811.87,395.112 2813.09,359.09 2814.31,339.389 2815.52,168.65 2816.74,173.873 2817.96,365.486 2819.18,340.508 2820.4,348.537 2821.62,350.002 2822.84,377.652 2824.05,370.327 2825.27,184.053 2826.49,183.291 2827.71,162.108 2828.93,356.79 2830.15,380.078 2831.36,503.524 2832.58,488.794 2833.8,347.055 2835.02,478.072 2836.24,397.368 2837.46,374.791 2838.67,339.082 2839.89,367.206 2841.11,329.432 2842.33,443.824 2843.55,400.792 2844.77,470.983 2845.98,387.075 2847.2,486.252 2848.42,510.722 2849.64,426.558 2850.86,397.659 2852.08,543.451 2853.3,499.724 2854.51,444.222 2855.73,441.441 2856.95,350.511 2858.17,358.873 2859.39,353.269 2860.61,401.153 2861.82,465.689 2863.04,321.859 2864.26,368.534 2865.48,141.809 2866.7,163.057 2867.92,168.283 2869.13,144.304 2870.35,170.622 2871.57,139.65 2872.79,179.293 2874.01,163.217 2875.23,150.358 2876.45,347.244 2877.66,437.258 2878.88,419.182 2880.1,354.959 2881.32,422.821 2882.54,525.948 2883.76,331.064 2884.97,157.856 2886.19,144.135 2887.41,138.535 2888.63,190.95 2889.85,172.357 2891.07,153.937 2892.28,151.81 2893.5,147.655 2894.72,148.435 2895.94,375.411 2897.16,357.566 2898.38,341.143 2899.59,370.14 2900.81,405.497 2902.03,347.465 2903.25,364.385 2904.47,414.647 2905.69,155.371 2906.91,174.219 2908.12,136.575 2909.34,180.453 2910.56,359.32 2911.78,474.849 2913,363.925 2914.22,353.417 2915.43,367.721 2916.65,368.601 2917.87,151.363 2919.09,171.639 2920.31,171.89 2921.53,137.266 2922.74,155.703 2923.96,158.566 2925.18,155.368 2926.4,148.172 2927.62,151.926 2928.84,151.21 2930.06,157.37 2931.27,177.612 2932.49,149.707 2933.71,158.184 2934.93,367.83 2936.15,166.973 2937.37,163.245 2938.58,173.749 2939.8,339.611 2941.02,399.107 2942.24,361.956 2943.46,355.298 2944.68,484.753 2945.89,479.895 2947.11,363.339 2948.33,341.237 2949.55,394.526 2950.77,381.106 2951.99,527.258 2953.2,415.073 2954.42,348.181 2955.64,364.947 2956.86,349.519 2958.08,337.228 2959.3,371.861 2960.52,366.926 2961.73,347.891 2962.95,361.295 2964.17,347.651 2965.39,359.203 2966.61,404.708 2967.83,471.433 2969.04,444.426 2970.26,355.619 2971.48,143.455 2972.7,156.977 2973.92,161.447 2975.14,170.897 2976.35,466.186 2977.57,169.241 2978.79,354.778 2980.01,333.06 2981.23,554.531 2982.45,451.707 2983.67,463.742 2984.88,550.72 2986.1,410.717 2987.32,370.283 2988.54,161.343 2989.76,140.509 2990.98,173.657 2992.19,183.957 2993.41,176.735 2994.63,171.729 2995.85,119.484 2997.07,143.232 2998.29,150.487 2999.5,180.982 3000.72,161.097 3001.94,176.449 3003.16,158.821 3004.38,147.468 3005.6,343.005 3006.81,362.579 3008.03,404.355 3009.25,541.485 3010.47,345.554 3011.69,362.298 3012.91,335.957 3014.13,340.249 3015.34,458.018 3016.56,575.555 3017.78,557.874 3019,485.039 3020.22,412.776 3021.44,476.234 3022.65,558.962 3023.87,363.669 3025.09,354.052 3026.31,334.569 3027.53,337.303 3028.75,524.444 3029.96,453.316 3031.18,413.213 3032.4,363.71 3033.62,402.619 3034.84,466.952 3036.06,471.025 3037.28,396.588 3038.49,351.535 3039.71,348.856 3040.93,349.539 3042.15,366.13 3043.37,332.149 3044.59,370.849 3045.8,357.981 3047.02,366.675 3048.24,157.678 3049.46,165.438 3050.68,164.139 3051.9,129.174 3053.11,123.148 3054.33,123.435 3055.55,135.675 3056.77,160.485 3057.99,333.755 3059.21,349.896 3060.42,331.806 3061.64,358.094 3062.86,189.68 3064.08,162.163 3065.3,155.127 3066.52,150.562 3067.74,173.504 "/>
<path clip-path="url(#clip060)" d="M2657.15 693.754 L3052.62 693.754 L3052.62 590.074 L2657.15 590.074  Z" fill="#ffffff" fill-rule="evenodd" fill-opacity="1"/>
<polyline clip-path="url(#clip060)" style="stroke:#000000; stroke-linecap:round; stroke-linejoin:round; stroke-width:4; stroke-opacity:1; fill:none" points="2657.15,693.754 3052.62,693.754 3052.62,590.074 2657.15,590.074 2657.15,693.754 "/>
<polyline clip-path="url(#clip060)" style="stroke:#009af9; stroke-linecap:round; stroke-linejoin:round; stroke-width:2; stroke-opacity:1; fill:none" points="2690.52,641.914 2890.79,641.914 "/>
<path clip-path="url(#clip060)" d="M2940.56 642.991 Q2942.07 643.5 2943.48 645.167 Q2944.91 646.833 2946.35 649.75 L2951.09 659.194 L2946.07 659.194 L2941.65 650.329 Q2939.94 646.857 2938.32 645.722 Q2936.72 644.588 2933.94 644.588 L2928.85 644.588 L2928.85 659.194 L2924.17 659.194 L2924.17 624.634 L2934.73 624.634 Q2940.65 624.634 2943.57 627.111 Q2946.49 629.588 2946.49 634.588 Q2946.49 637.852 2944.96 640.005 Q2943.46 642.157 2940.56 642.991 M2928.85 628.477 L2928.85 640.745 L2934.73 640.745 Q2938.11 640.745 2939.82 639.195 Q2941.56 637.62 2941.56 634.588 Q2941.56 631.556 2939.82 630.028 Q2938.11 628.477 2934.73 628.477 L2928.85 628.477 Z" fill="#000000" fill-rule="evenodd" fill-opacity="1" /><path clip-path="url(#clip060)" d="M2966.74 629.241 L2960.4 646.44 L2973.11 646.44 L2966.74 629.241 M2964.1 624.634 L2969.4 624.634 L2982.58 659.194 L2977.71 659.194 L2974.57 650.329 L2958.99 650.329 L2955.84 659.194 L2950.91 659.194 L2964.1 624.634 Z" fill="#000000" fill-rule="evenodd" fill-opacity="1" /><path clip-path="url(#clip060)" d="M2987.62 624.634 L2994.59 624.634 L3003.41 648.153 L3012.27 624.634 L3019.24 624.634 L3019.24 659.194 L3014.68 659.194 L3014.68 628.847 L3005.77 652.551 L3001.07 652.551 L2992.16 628.847 L2992.16 659.194 L2987.62 659.194 L2987.62 624.634 Z" fill="#000000" fill-rule="evenodd" fill-opacity="1" /></svg>
