<?xml version="1.0" encoding="utf-8"?>
<svg xmlns="http://www.w3.org/2000/svg" xmlns:xlink="http://www.w3.org/1999/xlink" width="800" height="200" viewBox="0 0 3200 800">
<defs>
  <clipPath id="clip760">
    <rect x="0" y="0" width="3200" height="800"/>
  </clipPath>
</defs>
<path clip-path="url(#clip760)" d="M0 800 L3200 800 L3200 0 L0 0  Z" fill="#ffffff" fill-rule="evenodd" fill-opacity="1"/>
<defs>
  <clipPath id="clip761">
    <rect x="640" y="0" width="2241" height="800"/>
  </clipPath>
</defs>
<path clip-path="url(#clip760)" d="M148.696 716.048 L3152.76 716.048 L3152.76 47.2441 L148.696 47.2441  Z" fill="#ffffff" fill-rule="evenodd" fill-opacity="1"/>
<defs>
  <clipPath id="clip762">
    <rect x="148" y="47" width="3005" height="670"/>
  </clipPath>
</defs>
<polyline clip-path="url(#clip762)" style="stroke:#000000; stroke-linecap:round; stroke-linejoin:round; stroke-width:2; stroke-opacity:0.1; fill:none" points="232.845,716.048 232.845,47.2441 "/>
<polyline clip-path="url(#clip762)" style="stroke:#000000; stroke-linecap:round; stroke-linejoin:round; stroke-width:2; stroke-opacity:0.1; fill:none" points="1104.31,716.048 1104.31,47.2441 "/>
<polyline clip-path="url(#clip762)" style="stroke:#000000; stroke-linecap:round; stroke-linejoin:round; stroke-width:2; stroke-opacity:0.1; fill:none" points="1975.78,716.048 1975.78,47.2441 "/>
<polyline clip-path="url(#clip762)" style="stroke:#000000; stroke-linecap:round; stroke-linejoin:round; stroke-width:2; stroke-opacity:0.1; fill:none" points="2847.25,716.048 2847.25,47.2441 "/>
<polyline clip-path="url(#clip760)" style="stroke:#000000; stroke-linecap:round; stroke-linejoin:round; stroke-width:4; stroke-opacity:1; fill:none" points="148.696,716.048 3152.76,716.048 "/>
<polyline clip-path="url(#clip760)" style="stroke:#000000; stroke-linecap:round; stroke-linejoin:round; stroke-width:4; stroke-opacity:1; fill:none" points="232.845,716.048 232.845,697.15 "/>
<polyline clip-path="url(#clip760)" style="stroke:#000000; stroke-linecap:round; stroke-linejoin:round; stroke-width:4; stroke-opacity:1; fill:none" points="1104.31,716.048 1104.31,697.15 "/>
<polyline clip-path="url(#clip760)" style="stroke:#000000; stroke-linecap:round; stroke-linejoin:round; stroke-width:4; stroke-opacity:1; fill:none" points="1975.78,716.048 1975.78,697.15 "/>
<polyline clip-path="url(#clip760)" style="stroke:#000000; stroke-linecap:round; stroke-linejoin:round; stroke-width:4; stroke-opacity:1; fill:none" points="2847.25,716.048 2847.25,697.15 "/>
<path clip-path="url(#clip760)" d="M232.845 753.367 Q229.234 753.367 227.405 756.931 Q225.599 760.473 225.599 767.603 Q225.599 774.709 227.405 778.274 Q229.234 781.815 232.845 781.815 Q236.479 781.815 238.284 778.274 Q240.113 774.709 240.113 767.603 Q240.113 760.473 238.284 756.931 Q236.479 753.367 232.845 753.367 M232.845 749.663 Q238.655 749.663 241.71 754.269 Q244.789 758.853 244.789 767.603 Q244.789 776.329 241.71 780.936 Q238.655 785.519 232.845 785.519 Q227.034 785.519 223.956 780.936 Q220.9 776.329 220.9 767.603 Q220.9 758.853 223.956 754.269 Q227.034 749.663 232.845 749.663 Z" fill="#000000" fill-rule="evenodd" fill-opacity="1" /><path clip-path="url(#clip760)" d="M1048.84 780.913 L1056.48 780.913 L1056.48 754.547 L1048.17 756.214 L1048.17 751.955 L1056.43 750.288 L1061.11 750.288 L1061.11 780.913 L1068.75 780.913 L1068.75 784.848 L1048.84 784.848 L1048.84 780.913 Z" fill="#000000" fill-rule="evenodd" fill-opacity="1" /><path clip-path="url(#clip760)" d="M1088.19 753.367 Q1084.58 753.367 1082.75 756.931 Q1080.95 760.473 1080.95 767.603 Q1080.95 774.709 1082.75 778.274 Q1084.58 781.815 1088.19 781.815 Q1091.83 781.815 1093.63 778.274 Q1095.46 774.709 1095.46 767.603 Q1095.46 760.473 1093.63 756.931 Q1091.83 753.367 1088.19 753.367 M1088.19 749.663 Q1094 749.663 1097.06 754.269 Q1100.14 758.853 1100.14 767.603 Q1100.14 776.329 1097.06 780.936 Q1094 785.519 1088.19 785.519 Q1082.38 785.519 1079.3 780.936 Q1076.25 776.329 1076.25 767.603 Q1076.25 758.853 1079.3 754.269 Q1082.38 749.663 1088.19 749.663 Z" fill="#000000" fill-rule="evenodd" fill-opacity="1" /><path clip-path="url(#clip760)" d="M1118.35 753.367 Q1114.74 753.367 1112.91 756.931 Q1111.11 760.473 1111.11 767.603 Q1111.11 774.709 1112.91 778.274 Q1114.74 781.815 1118.35 781.815 Q1121.99 781.815 1123.79 778.274 Q1125.62 774.709 1125.62 767.603 Q1125.62 760.473 1123.79 756.931 Q1121.99 753.367 1118.35 753.367 M1118.35 749.663 Q1124.16 749.663 1127.22 754.269 Q1130.3 758.853 1130.3 767.603 Q1130.3 776.329 1127.22 780.936 Q1124.16 785.519 1118.35 785.519 Q1112.54 785.519 1109.46 780.936 Q1106.41 776.329 1106.41 767.603 Q1106.41 758.853 1109.46 754.269 Q1112.54 749.663 1118.35 749.663 Z" fill="#000000" fill-rule="evenodd" fill-opacity="1" /><path clip-path="url(#clip760)" d="M1148.52 753.367 Q1144.9 753.367 1143.08 756.931 Q1141.27 760.473 1141.27 767.603 Q1141.27 774.709 1143.08 778.274 Q1144.9 781.815 1148.52 781.815 Q1152.15 781.815 1153.96 778.274 Q1155.78 774.709 1155.78 767.603 Q1155.78 760.473 1153.96 756.931 Q1152.15 753.367 1148.52 753.367 M1148.52 749.663 Q1154.33 749.663 1157.38 754.269 Q1160.46 758.853 1160.46 767.603 Q1160.46 776.329 1157.38 780.936 Q1154.33 785.519 1148.52 785.519 Q1142.71 785.519 1139.63 780.936 Q1136.57 776.329 1136.57 767.603 Q1136.57 758.853 1139.63 754.269 Q1142.71 749.663 1148.52 749.663 Z" fill="#000000" fill-rule="evenodd" fill-opacity="1" /><path clip-path="url(#clip760)" d="M1924.4 780.913 L1940.71 780.913 L1940.71 784.848 L1918.77 784.848 L1918.77 780.913 Q1921.43 778.158 1926.02 773.528 Q1930.62 768.876 1931.8 767.533 Q1934.05 765.01 1934.93 763.274 Q1935.83 761.515 1935.83 759.825 Q1935.83 757.07 1933.89 755.334 Q1931.96 753.598 1928.86 753.598 Q1926.66 753.598 1924.21 754.362 Q1921.78 755.126 1919 756.677 L1919 751.955 Q1921.83 750.82 1924.28 750.242 Q1926.73 749.663 1928.77 749.663 Q1934.14 749.663 1937.34 752.348 Q1940.53 755.033 1940.53 759.524 Q1940.53 761.654 1939.72 763.575 Q1938.93 765.473 1936.83 768.066 Q1936.25 768.737 1933.15 771.954 Q1930.04 775.149 1924.4 780.913 Z" fill="#000000" fill-rule="evenodd" fill-opacity="1" /><path clip-path="url(#clip760)" d="M1960.53 753.367 Q1956.92 753.367 1955.09 756.931 Q1953.28 760.473 1953.28 767.603 Q1953.28 774.709 1955.09 778.274 Q1956.92 781.815 1960.53 781.815 Q1964.16 781.815 1965.97 778.274 Q1967.8 774.709 1967.8 767.603 Q1967.8 760.473 1965.97 756.931 Q1964.16 753.367 1960.53 753.367 M1960.53 749.663 Q1966.34 749.663 1969.4 754.269 Q1972.47 758.853 1972.47 767.603 Q1972.47 776.329 1969.4 780.936 Q1966.34 785.519 1960.53 785.519 Q1954.72 785.519 1951.64 780.936 Q1948.58 776.329 1948.58 767.603 Q1948.58 758.853 1951.64 754.269 Q1954.72 749.663 1960.53 749.663 Z" fill="#000000" fill-rule="evenodd" fill-opacity="1" /><path clip-path="url(#clip760)" d="M1990.69 753.367 Q1987.08 753.367 1985.25 756.931 Q1983.45 760.473 1983.45 767.603 Q1983.45 774.709 1985.25 778.274 Q1987.08 781.815 1990.69 781.815 Q1994.33 781.815 1996.13 778.274 Q1997.96 774.709 1997.96 767.603 Q1997.96 760.473 1996.13 756.931 Q1994.33 753.367 1990.69 753.367 M1990.69 749.663 Q1996.5 749.663 1999.56 754.269 Q2002.64 758.853 2002.64 767.603 Q2002.64 776.329 1999.56 780.936 Q1996.5 785.519 1990.69 785.519 Q1984.88 785.519 1981.8 780.936 Q1978.75 776.329 1978.75 767.603 Q1978.75 758.853 1981.8 754.269 Q1984.88 749.663 1990.69 749.663 Z" fill="#000000" fill-rule="evenodd" fill-opacity="1" /><path clip-path="url(#clip760)" d="M2020.85 753.367 Q2017.24 753.367 2015.41 756.931 Q2013.61 760.473 2013.61 767.603 Q2013.61 774.709 2015.41 778.274 Q2017.24 781.815 2020.85 781.815 Q2024.49 781.815 2026.29 778.274 Q2028.12 774.709 2028.12 767.603 Q2028.12 760.473 2026.29 756.931 Q2024.49 753.367 2020.85 753.367 M2020.85 749.663 Q2026.66 749.663 2029.72 754.269 Q2032.8 758.853 2032.8 767.603 Q2032.8 776.329 2029.72 780.936 Q2026.66 785.519 2020.85 785.519 Q2015.04 785.519 2011.96 780.936 Q2008.91 776.329 2008.91 767.603 Q2008.91 758.853 2011.96 754.269 Q2015.04 749.663 2020.85 749.663 Z" fill="#000000" fill-rule="evenodd" fill-opacity="1" /><path clip-path="url(#clip760)" d="M2805.93 766.214 Q2809.29 766.931 2811.17 769.2 Q2813.06 771.468 2813.06 774.802 Q2813.06 779.917 2809.55 782.718 Q2806.03 785.519 2799.55 785.519 Q2797.37 785.519 2795.05 785.079 Q2792.76 784.663 2790.31 783.806 L2790.31 779.292 Q2792.25 780.427 2794.57 781.005 Q2796.88 781.584 2799.41 781.584 Q2803.8 781.584 2806.1 779.848 Q2808.41 778.112 2808.41 774.802 Q2808.41 771.746 2806.26 770.033 Q2804.13 768.297 2800.31 768.297 L2796.28 768.297 L2796.28 764.454 L2800.49 764.454 Q2803.94 764.454 2805.77 763.089 Q2807.6 761.7 2807.6 759.107 Q2807.6 756.445 2805.7 755.033 Q2803.83 753.598 2800.31 753.598 Q2798.39 753.598 2796.19 754.015 Q2793.99 754.431 2791.35 755.311 L2791.35 751.144 Q2794.01 750.404 2796.33 750.033 Q2798.67 749.663 2800.73 749.663 Q2806.05 749.663 2809.15 752.093 Q2812.25 754.501 2812.25 758.621 Q2812.25 761.492 2810.61 763.482 Q2808.97 765.45 2805.93 766.214 Z" fill="#000000" fill-rule="evenodd" fill-opacity="1" /><path clip-path="url(#clip760)" d="M2831.93 753.367 Q2828.32 753.367 2826.49 756.931 Q2824.68 760.473 2824.68 767.603 Q2824.68 774.709 2826.49 778.274 Q2828.32 781.815 2831.93 781.815 Q2835.56 781.815 2837.37 778.274 Q2839.2 774.709 2839.2 767.603 Q2839.2 760.473 2837.37 756.931 Q2835.56 753.367 2831.93 753.367 M2831.93 749.663 Q2837.74 749.663 2840.8 754.269 Q2843.87 758.853 2843.87 767.603 Q2843.87 776.329 2840.8 780.936 Q2837.74 785.519 2831.93 785.519 Q2826.12 785.519 2823.04 780.936 Q2819.99 776.329 2819.99 767.603 Q2819.99 758.853 2823.04 754.269 Q2826.12 749.663 2831.93 749.663 Z" fill="#000000" fill-rule="evenodd" fill-opacity="1" /><path clip-path="url(#clip760)" d="M2862.09 753.367 Q2858.48 753.367 2856.65 756.931 Q2854.85 760.473 2854.85 767.603 Q2854.85 774.709 2856.65 778.274 Q2858.48 781.815 2862.09 781.815 Q2865.73 781.815 2867.53 778.274 Q2869.36 774.709 2869.36 767.603 Q2869.36 760.473 2867.53 756.931 Q2865.73 753.367 2862.09 753.367 M2862.09 749.663 Q2867.9 749.663 2870.96 754.269 Q2874.04 758.853 2874.04 767.603 Q2874.04 776.329 2870.96 780.936 Q2867.9 785.519 2862.09 785.519 Q2856.28 785.519 2853.2 780.936 Q2850.15 776.329 2850.15 767.603 Q2850.15 758.853 2853.2 754.269 Q2856.28 749.663 2862.09 749.663 Z" fill="#000000" fill-rule="evenodd" fill-opacity="1" /><path clip-path="url(#clip760)" d="M2892.25 753.367 Q2888.64 753.367 2886.81 756.931 Q2885.01 760.473 2885.01 767.603 Q2885.01 774.709 2886.81 778.274 Q2888.64 781.815 2892.25 781.815 Q2895.89 781.815 2897.69 778.274 Q2899.52 774.709 2899.52 767.603 Q2899.52 760.473 2897.69 756.931 Q2895.89 753.367 2892.25 753.367 M2892.25 749.663 Q2898.06 749.663 2901.12 754.269 Q2904.2 758.853 2904.2 767.603 Q2904.2 776.329 2901.12 780.936 Q2898.06 785.519 2892.25 785.519 Q2886.44 785.519 2883.36 780.936 Q2880.31 776.329 2880.31 767.603 Q2880.31 758.853 2883.36 754.269 Q2886.44 749.663 2892.25 749.663 Z" fill="#000000" fill-rule="evenodd" fill-opacity="1" /><polyline clip-path="url(#clip762)" style="stroke:#000000; stroke-linecap:round; stroke-linejoin:round; stroke-width:2; stroke-opacity:0.1; fill:none" points="148.696,716.048 3152.76,716.048 "/>
<polyline clip-path="url(#clip762)" style="stroke:#000000; stroke-linecap:round; stroke-linejoin:round; stroke-width:2; stroke-opacity:0.1; fill:none" points="148.696,576.714 3152.76,576.714 "/>
<polyline clip-path="url(#clip762)" style="stroke:#000000; stroke-linecap:round; stroke-linejoin:round; stroke-width:2; stroke-opacity:0.1; fill:none" points="148.696,437.38 3152.76,437.38 "/>
<polyline clip-path="url(#clip762)" style="stroke:#000000; stroke-linecap:round; stroke-linejoin:round; stroke-width:2; stroke-opacity:0.1; fill:none" points="148.696,298.046 3152.76,298.046 "/>
<polyline clip-path="url(#clip762)" style="stroke:#000000; stroke-linecap:round; stroke-linejoin:round; stroke-width:2; stroke-opacity:0.1; fill:none" points="148.696,158.711 3152.76,158.711 "/>
<polyline clip-path="url(#clip760)" style="stroke:#000000; stroke-linecap:round; stroke-linejoin:round; stroke-width:4; stroke-opacity:1; fill:none" points="148.696,716.048 148.696,47.2441 "/>
<polyline clip-path="url(#clip760)" style="stroke:#000000; stroke-linecap:round; stroke-linejoin:round; stroke-width:4; stroke-opacity:1; fill:none" points="148.696,716.048 167.593,716.048 "/>
<polyline clip-path="url(#clip760)" style="stroke:#000000; stroke-linecap:round; stroke-linejoin:round; stroke-width:4; stroke-opacity:1; fill:none" points="148.696,576.714 167.593,576.714 "/>
<polyline clip-path="url(#clip760)" style="stroke:#000000; stroke-linecap:round; stroke-linejoin:round; stroke-width:4; stroke-opacity:1; fill:none" points="148.696,437.38 167.593,437.38 "/>
<polyline clip-path="url(#clip760)" style="stroke:#000000; stroke-linecap:round; stroke-linejoin:round; stroke-width:4; stroke-opacity:1; fill:none" points="148.696,298.046 167.593,298.046 "/>
<polyline clip-path="url(#clip760)" style="stroke:#000000; stroke-linecap:round; stroke-linejoin:round; stroke-width:4; stroke-opacity:1; fill:none" points="148.696,158.711 167.593,158.711 "/>
<path clip-path="url(#clip760)" d="M88.7512 701.847 Q85.1401 701.847 83.3114 705.411 Q81.5058 708.953 81.5058 716.083 Q81.5058 723.189 83.3114 726.754 Q85.1401 730.295 88.7512 730.295 Q92.3854 730.295 94.1909 726.754 Q96.0196 723.189 96.0196 716.083 Q96.0196 708.953 94.1909 705.411 Q92.3854 701.847 88.7512 701.847 M88.7512 698.143 Q94.5613 698.143 97.6169 702.749 Q100.696 707.333 100.696 716.083 Q100.696 724.809 97.6169 729.416 Q94.5613 733.999 88.7512 733.999 Q82.941 733.999 79.8623 729.416 Q76.8068 724.809 76.8068 716.083 Q76.8068 707.333 79.8623 702.749 Q82.941 698.143 88.7512 698.143 Z" fill="#000000" fill-rule="evenodd" fill-opacity="1" /><path clip-path="url(#clip760)" d="M79.7929 559.434 L98.1493 559.434 L98.1493 563.369 L84.0753 563.369 L84.0753 571.841 Q85.0938 571.494 86.1123 571.332 Q87.1308 571.147 88.1493 571.147 Q93.9363 571.147 97.3159 574.318 Q100.696 577.489 100.696 582.906 Q100.696 588.485 97.2233 591.586 Q93.7511 594.665 87.4317 594.665 Q85.2558 594.665 82.9873 594.295 Q80.7419 593.924 78.3346 593.184 L78.3346 588.485 Q80.4179 589.619 82.6401 590.174 Q84.8623 590.73 87.3391 590.73 Q91.3437 590.73 93.6817 588.623 Q96.0196 586.517 96.0196 582.906 Q96.0196 579.295 93.6817 577.188 Q91.3437 575.082 87.3391 575.082 Q85.4641 575.082 83.5892 575.498 Q81.7373 575.915 79.7929 576.795 L79.7929 559.434 Z" fill="#000000" fill-rule="evenodd" fill-opacity="1" /><path clip-path="url(#clip760)" d="M49.3995 450.724 L57.0384 450.724 L57.0384 424.359 L48.7282 426.026 L48.7282 421.766 L56.9921 420.1 L61.668 420.1 L61.668 450.724 L69.3068 450.724 L69.3068 454.66 L49.3995 454.66 L49.3995 450.724 Z" fill="#000000" fill-rule="evenodd" fill-opacity="1" /><path clip-path="url(#clip760)" d="M88.7512 423.178 Q85.1401 423.178 83.3114 426.743 Q81.5058 430.285 81.5058 437.414 Q81.5058 444.521 83.3114 448.086 Q85.1401 451.627 88.7512 451.627 Q92.3854 451.627 94.1909 448.086 Q96.0196 444.521 96.0196 437.414 Q96.0196 430.285 94.1909 426.743 Q92.3854 423.178 88.7512 423.178 M88.7512 419.475 Q94.5613 419.475 97.6169 424.081 Q100.696 428.664 100.696 437.414 Q100.696 446.141 97.6169 450.748 Q94.5613 455.331 88.7512 455.331 Q82.941 455.331 79.8623 450.748 Q76.8068 446.141 76.8068 437.414 Q76.8068 428.664 79.8623 424.081 Q82.941 419.475 88.7512 419.475 Z" fill="#000000" fill-rule="evenodd" fill-opacity="1" /><path clip-path="url(#clip760)" d="M50.3949 311.39 L58.0337 311.39 L58.0337 285.025 L49.7236 286.691 L49.7236 282.432 L57.9874 280.766 L62.6633 280.766 L62.6633 311.39 L70.3022 311.39 L70.3022 315.326 L50.3949 315.326 L50.3949 311.39 Z" fill="#000000" fill-rule="evenodd" fill-opacity="1" /><path clip-path="url(#clip760)" d="M79.7929 280.766 L98.1493 280.766 L98.1493 284.701 L84.0753 284.701 L84.0753 293.173 Q85.0938 292.826 86.1123 292.664 Q87.1308 292.478 88.1493 292.478 Q93.9363 292.478 97.3159 295.65 Q100.696 298.821 100.696 304.238 Q100.696 309.816 97.2233 312.918 Q93.7511 315.997 87.4317 315.997 Q85.2558 315.997 82.9873 315.626 Q80.7419 315.256 78.3346 314.515 L78.3346 309.816 Q80.4179 310.951 82.6401 311.506 Q84.8623 312.062 87.3391 312.062 Q91.3437 312.062 93.6817 309.955 Q96.0196 307.849 96.0196 304.238 Q96.0196 300.627 93.6817 298.52 Q91.3437 296.414 87.3391 296.414 Q85.4641 296.414 83.5892 296.83 Q81.7373 297.247 79.7929 298.127 L79.7929 280.766 Z" fill="#000000" fill-rule="evenodd" fill-opacity="1" /><path clip-path="url(#clip760)" d="M52.6171 172.056 L68.9365 172.056 L68.9365 175.991 L46.9921 175.991 L46.9921 172.056 Q49.6541 169.302 54.2375 164.672 Q58.8439 160.019 60.0245 158.677 Q62.2698 156.154 63.1494 154.417 Q64.0522 152.658 64.0522 150.968 Q64.0522 148.214 62.1078 146.478 Q60.1865 144.742 57.0847 144.742 Q54.8856 144.742 52.4319 145.505 Q50.0014 146.269 47.2236 147.82 L47.2236 143.098 Q50.0477 141.964 52.5014 141.385 Q54.955 140.806 56.9921 140.806 Q62.3624 140.806 65.5568 143.492 Q68.7513 146.177 68.7513 150.667 Q68.7513 152.797 67.9411 154.718 Q67.1541 156.616 65.0476 159.209 Q64.4689 159.88 61.367 163.098 Q58.2652 166.292 52.6171 172.056 Z" fill="#000000" fill-rule="evenodd" fill-opacity="1" /><path clip-path="url(#clip760)" d="M88.7512 144.51 Q85.1401 144.51 83.3114 148.075 Q81.5058 151.617 81.5058 158.746 Q81.5058 165.853 83.3114 169.417 Q85.1401 172.959 88.7512 172.959 Q92.3854 172.959 94.1909 169.417 Q96.0196 165.853 96.0196 158.746 Q96.0196 151.617 94.1909 148.075 Q92.3854 144.51 88.7512 144.51 M88.7512 140.806 Q94.5613 140.806 97.6169 145.413 Q100.696 149.996 100.696 158.746 Q100.696 167.473 97.6169 172.079 Q94.5613 176.663 88.7512 176.663 Q82.941 176.663 79.8623 172.079 Q76.8068 167.473 76.8068 158.746 Q76.8068 149.996 79.8623 145.413 Q82.941 140.806 88.7512 140.806 Z" fill="#000000" fill-rule="evenodd" fill-opacity="1" /><polyline clip-path="url(#clip762)" style="stroke:#009af9; stroke-linecap:round; stroke-linejoin:round; stroke-width:2; stroke-opacity:1; fill:none" points="233.716,145.954 234.588,165.409 235.459,151.728 236.331,151.342 237.202,158.675 238.073,147.438 238.945,180.075 239.816,154.738 240.688,148.702 241.559,176.373 242.431,138.409 243.302,143.75 244.174,164.842 245.045,158.448 245.917,156.246 246.788,162.666 247.66,162.593 248.531,151.85 249.403,158.704 250.274,147.516 251.146,156.96 252.017,152.219 252.888,170.956 253.76,153.975 254.631,155.71 255.503,138.922 256.374,146.154 257.246,162.034 258.117,169.643 258.989,154.047 259.86,152.003 260.732,162.404 261.603,155.731 262.475,161.021 263.346,161.314 264.218,164.291 265.089,154.987 265.96,150.521 266.832,147.996 267.703,167.206 268.575,180.688 269.446,148.297 270.318,155.472 271.189,153.744 272.061,160.509 272.932,157.14 273.804,176.995 274.675,159.472 275.547,143.204 276.418,137.888 277.29,195.485 278.161,147.571 279.033,155.222 279.904,156.136 280.775,165.905 281.647,153.918 282.518,160.19 283.39,162.644 284.261,160.431 285.133,172.479 286.004,144.219 286.876,155.803 287.747,157.46 288.619,156.985 289.49,154.568 290.362,151.384 291.233,160.143 292.105,153.835 292.976,142.341 293.848,167.127 294.719,162.331 295.59,159.875 296.462,141.471 297.333,143.209 298.205,175.81 299.076,153.044 299.948,166.436 300.819,156.473 301.691,156.633 302.562,160.134 303.434,157.846 304.305,159.093 305.177,161.684 306.048,136.832 306.92,142.23 307.791,147.448 308.663,162.866 309.534,157.593 310.405,153.753 311.277,153.936 312.148,160.497 313.02,159.033 313.891,160.551 314.763,153.54 315.634,159.532 316.506,163.917 317.377,156.231 318.249,146.225 319.12,170.628 319.992,152.99 320.863,152.437 321.735,156.838 322.606,160.822 323.477,145.603 324.349,167.142 325.22,147.545 326.092,149.38 326.963,147.17 327.835,154.245 328.706,162.036 329.578,158.163 330.449,147.667 331.321,165.71 332.192,182.045 333.064,148.257 333.935,158.539 334.807,164.005 335.678,142.4 336.55,144.617 337.421,171.181 338.292,138.751 339.164,148.007 340.035,156.398 340.907,175.597 341.778,158.61 342.65,147.173 343.521,165.081 344.393,158.119 345.264,170.356 346.136,169.936 347.007,169.095 347.879,162.146 348.75,160.812 349.622,164.389 350.493,176.324 351.365,148.71 352.236,148.498 353.107,170.475 353.979,145.634 354.85,153.297 355.722,153.268 356.593,154.587 357.465,159.759 358.336,147.851 359.208,155.722 360.079,150.182 360.951,154.827 361.822,164.044 362.694,149.185 363.565,156.568 364.437,166.752 365.308,164.542 366.18,151.04 367.051,159.039 367.922,151.778 368.794,155.829 369.665,166.088 370.537,162.068 371.408,177.959 372.28,153.624 373.151,164.89 374.023,163.01 374.894,164.558 375.766,163.405 376.637,153.664 377.509,164.775 378.38,159.98 379.252,144.673 380.123,161.67 380.994,165.768 381.866,168.315 382.737,154.718 383.609,172.942 384.48,158.481 385.352,172.006 386.223,145.28 387.095,174.831 387.966,164.739 388.838,162.612 389.709,147.74 390.581,155.037 391.452,148.47 392.324,139.707 393.195,162.256 394.067,150.609 394.938,172.563 395.809,170.28 396.681,171.624 397.552,144.84 398.424,160.429 399.295,160.727 400.167,162.349 401.038,161.547 401.91,160.078 402.781,149.084 403.653,153.516 404.524,150.354 405.396,146.307 406.267,163.905 407.139,167.086 408.01,158.099 408.882,145.512 409.753,152.695 410.624,149.336 411.496,149.944 412.367,175.703 413.239,156.49 414.11,142.02 414.982,149.577 415.853,125.983 416.725,164.185 417.596,170.691 418.468,166.566 419.339,151.876 420.211,162.52 421.082,155.669 421.954,149.82 422.825,169.426 423.696,153.305 424.568,171.404 425.439,176.709 426.311,143.366 427.182,147.042 428.054,174.866 428.925,146.035 429.797,167.576 430.668,166.702 431.54,171.879 432.411,168.684 433.283,154.375 434.154,161.712 435.026,159.029 435.897,166.765 436.769,153.066 437.64,156.127 438.511,159.008 439.383,147.116 440.254,162.363 441.126,151.186 441.997,170.218 442.869,149.783 443.74,148.681 444.612,157.837 445.483,158.033 446.355,178.254 447.226,157.976 448.098,164.891 448.969,160.484 449.841,165.412 450.712,168.688 451.584,157.075 452.455,161.208 453.326,168.988 454.198,162.187 455.069,147.819 455.941,145.103 456.812,159.604 457.684,150.583 458.555,154.222 459.427,150.807 460.298,154.205 461.17,171.232 462.041,146.485 462.913,145.136 463.784,155.461 464.656,145.253 465.527,165.73 466.399,143.797 467.27,156.56 468.141,163.257 469.013,139.455 469.884,143.572 470.756,157.524 471.627,166.489 472.499,166.686 473.37,157.295 474.242,153.271 475.113,148.009 475.985,152.313 476.856,164.549 477.728,171.48 478.599,150.741 479.471,166.666 480.342,168.952 481.213,155.891 482.085,160.184 482.956,166.602 483.828,152.554 484.699,156.064 485.571,134.028 486.442,186.646 487.314,138.634 488.185,134.904 489.057,145.744 489.928,147.284 490.8,160.959 491.671,167.69 492.543,165.65 493.414,154.875 494.286,145.378 495.157,146.153 496.028,179.315 496.9,165.524 497.771,143.058 498.643,146.928 499.514,162.189 500.386,159.579 501.257,165.847 502.129,158.687 503,157.091 503.872,161.66 504.743,153.247 505.615,155.296 506.486,149.019 507.358,169.017 508.229,154.322 509.101,168.484 509.972,180.123 510.843,141.513 511.715,152.287 512.586,156.12 513.458,161.297 514.329,175.194 515.201,150.627 516.072,139.838 516.944,169.544 517.815,165.546 518.687,153.278 519.558,156.804 520.43,150.662 521.301,161.925 522.173,159.4 523.044,149.373 523.916,149.291 524.787,153.599 525.658,152.229 526.53,153.261 527.401,159.692 528.273,148.196 529.144,157.614 530.016,151.65 530.887,157.332 531.759,155.349 532.63,160.65 533.502,154.218 534.373,149.12 535.245,138.026 536.116,161.28 536.988,167.157 537.859,156.594 538.73,161.686 539.602,176.205 540.473,149.101 541.345,162.499 542.216,141.803 543.088,149.129 543.959,154.61 544.831,158.042 545.702,149.328 546.574,159.513 547.445,154.515 548.317,153.118 549.188,157.825 550.06,173.887 550.931,154.435 551.803,165.281 552.674,154.143 553.545,171.846 554.417,149.412 555.288,157.039 556.16,151.456 557.031,166.002 557.903,155.999 558.774,154.884 559.646,159.538 560.517,167.546 561.389,164.192 562.26,148.124 563.132,144.607 564.003,150.845 564.875,147.949 565.746,168.27 566.618,154.997 567.489,147.188 568.36,166.75 569.232,156.415 570.103,163.226 570.975,165.031 571.846,154.889 572.718,161.396 573.589,153.762 574.461,170.17 575.332,164.565 576.204,144.84 577.075,155.746 577.947,168.69 578.818,147.873 579.69,145.139 580.561,177.224 581.432,176.118 582.304,150.156 583.175,141.896 584.047,170.759 584.918,151.4 585.79,164.154 586.661,159.818 587.533,168.677 588.404,157.336 589.276,153.233 590.147,130.461 591.019,184.144 591.89,157.089 592.762,153.53 593.633,158.851 594.505,161.308 595.376,161.432 596.247,154.993 597.119,161.415 597.99,159.914 598.862,150.056 599.733,156.718 600.605,145.993 601.476,156.234 602.348,161.009 603.219,166.788 604.091,157.793 604.962,165.065 605.834,157.944 606.705,146.225 607.577,159.338 608.448,157.133 609.32,144.321 610.191,165.25 611.062,159.955 611.934,147.18 612.805,153.684 613.677,165.272 614.548,141.862 615.42,156.978 616.291,152.999 617.163,161.944 618.034,145.224 618.906,164.606 619.777,173.699 620.649,165.73 621.52,154.75 622.392,153.251 623.263,169.747 624.135,157.518 625.006,175.697 625.877,148.431 626.749,162.876 627.62,163.487 628.492,164.496 629.363,154.526 630.235,157.298 631.106,150.561 631.978,156.238 632.849,159.663 633.721,144.867 634.592,145.452 635.464,174.042 636.335,157.128 637.207,159.938 638.078,161.824 638.949,174.888 639.821,146.394 640.692,157.057 641.564,154.67 642.435,150.44 643.307,141.172 644.178,148.059 645.05,162.156 645.921,148.627 646.793,155.902 647.664,141.625 648.536,148.286 649.407,156.719 650.279,158.877 651.15,162.442 652.022,162.805 652.893,153.469 653.764,175.381 654.636,164.8 655.507,152.672 656.379,158.887 657.25,165.778 658.122,171.792 658.993,172.984 659.865,162.879 660.736,152.48 661.608,166.073 662.479,169.986 663.351,163.208 664.222,150.096 665.094,162.992 665.965,158.113 666.837,155.229 667.708,153.627 668.579,163.996 669.451,142.013 670.322,160.404 671.194,157.335 672.065,182.547 672.937,152.482 673.808,157.498 674.68,158.09 675.551,172.188 676.423,183.304 677.294,145.525 678.166,163.45 679.037,165.689 679.909,166.354 680.78,151.3 681.652,155.072 682.523,165.082 683.394,154.392 684.266,150.82 685.137,174.861 686.009,167.235 686.88,143.308 687.752,173.45 688.623,147.555 689.495,158.817 690.366,165.915 691.238,148.974 692.109,161.733 692.981,150.669 693.852,169.505 694.724,147.553 695.595,171.873 696.466,162.391 697.338,162.737 698.209,139.885 699.081,147.416 699.952,172.009 700.824,143.601 701.695,158.998 702.567,150.916 703.438,158.19 704.31,157.755 705.181,159.382 706.053,154.425 706.924,142.812 707.796,157.349 708.667,155.482 709.539,147.017 710.41,161.03 711.281,189.421 712.153,136.909 713.024,142.836 713.896,161.956 714.767,151.505 715.639,170.405 716.51,163.296 717.382,161.279 718.253,162.894 719.125,155.697 719.996,159.2 720.868,143.078 721.739,154.94 722.611,162.649 723.482,162.793 724.354,165.396 725.225,158.973 726.096,164.742 726.968,167.449 727.839,157.848 728.711,153.312 729.582,167.336 730.454,152.865 731.325,160.325 732.197,150.15 733.068,162.993 733.94,147.827 734.811,171.985 735.683,158.398 736.554,154.12 737.426,158.752 738.297,165.675 739.168,181.965 740.04,148.127 740.911,148.057 741.783,169.083 742.654,159.558 743.526,146.674 744.397,158.375 745.269,155.623 746.14,167.557 747.012,166.946 747.883,162.27 748.755,155.878 749.626,140.25 750.498,159.041 751.369,173.593 752.241,161.404 753.112,152.433 753.983,165.714 754.855,140.593 755.726,166.119 756.598,167.764 757.469,168.577 758.341,167.428 759.212,145.651 760.084,153.043 760.955,150.305 761.827,141.141 762.698,163.301 763.57,155.203 764.441,151.224 765.313,173.159 766.184,171.358 767.056,165.316 767.927,157.087 768.798,155.887 769.67,165.053 770.541,156.985 771.413,155.954 772.284,158.066 773.156,153.389 774.027,145.962 774.899,161.554 775.77,178.719 776.642,151.164 777.513,149.782 778.385,158.195 779.256,163.305 780.128,150.55 780.999,158.641 781.871,172.417 782.742,168.802 783.613,163.157 784.485,147.985 785.356,152.857 786.228,150.25 787.099,157.547 787.971,160.731 788.842,172.445 789.714,158.796 790.585,156.93 791.457,149.573 792.328,162.786 793.2,167.319 794.071,153.232 794.943,153.309 795.814,151.286 796.685,166.428 797.557,162.788 798.428,157.255 799.3,151.632 800.171,161.622 801.043,154.335 801.914,152.25 802.786,165.774 803.657,147.419 804.529,140.973 805.4,163.967 806.272,156.069 807.143,171.055 808.015,161.506 808.886,171.729 809.758,140.207 810.629,137.258 811.5,163.4 812.372,164.387 813.243,166.372 814.115,169.775 814.986,157.591 815.858,158.214 816.729,164.038 817.601,162.096 818.472,157.304 819.344,159.312 820.215,163.027 821.087,153.507 821.958,161.227 822.83,163.89 823.701,144.461 824.573,162.644 825.444,156.53 826.315,154.094 827.187,154.595 828.058,158.215 828.93,166.648 829.801,149.068 830.673,159.245 831.544,163.456 832.416,173.257 833.287,165.991 834.159,179.22 835.03,170.411 835.902,148.192 836.773,148.32 837.645,149.635 838.516,148.052 839.388,148.896 840.259,147.433 841.13,165.213 842.002,151.613 842.873,159.037 843.745,171.078 844.616,157.695 845.488,160.86 846.359,158.807 847.231,157.991 848.102,163.977 848.974,157.053 849.845,153.377 850.717,165.592 851.588,146.302 852.46,156.757 853.331,165.548 854.202,160.902 855.074,156.306 855.945,148.54 856.817,163.063 857.688,169.019 858.56,138.616 859.431,147.406 860.303,159.695 861.174,169.396 862.046,142.805 862.917,154.996 863.789,160.549 864.66,159.303 865.532,158.242 866.403,162.219 867.275,153.506 868.146,172.108 869.017,167.573 869.889,168.332 870.76,158.339 871.632,154.436 872.503,163.376 873.375,149.975 874.246,165.301 875.118,162.081 875.989,156.585 876.861,157.298 877.732,162.278 878.604,167.055 879.475,157.48 880.347,155.855 881.218,168.132 882.09,142.904 882.961,141.316 883.832,155.447 884.704,156.906 885.575,177.283 886.447,161.892 887.318,138.691 888.19,165.622 889.061,155.395 889.933,152.92 890.804,157.702 891.676,177.282 892.547,159.387 893.419,152.725 894.29,166.706 895.162,151.093 896.033,158.109 896.905,159.591 897.776,151.517 898.647,164.735 899.519,149.674 900.39,152.417 901.262,164.796 902.133,165.145 903.005,145.934 903.876,155.466 904.748,163.858 905.619,169.201 906.491,146.911 907.362,138.539 908.234,143.821 909.105,163.37 909.977,157.882 910.848,163.297 911.719,165.107 912.591,145.154 913.462,168.809 914.334,176.858 915.205,178.763 916.077,152.434 916.948,172.498 917.82,137.713 918.691,150.729 919.563,156.244 920.434,156.296 921.306,162.485 922.177,152.528 923.049,160.483 923.92,174.132 924.792,155.227 925.663,178.257 926.534,155.947 927.406,157.035 928.277,150.077 929.149,163.265 930.02,156.743 930.892,152.996 931.763,169.489 932.635,170.629 933.506,156.345 934.378,166.634 935.249,176.989 936.121,156.816 936.992,143.246 937.864,164.744 938.735,151.088 939.607,159.435 940.478,157.887 941.349,164.143 942.221,168.463 943.092,163.303 943.964,164.288 944.835,152.064 945.707,172.654 946.578,167.179 947.45,145.942 948.321,176.336 949.193,172.655 950.064,147.762 950.936,163.075 951.807,157.487 952.679,147.834 953.55,159.709 954.421,159.736 955.293,162.806 956.164,158.837 957.036,157.091 957.907,153.534 958.779,175.181 959.65,166.631 960.522,143.219 961.393,163.573 962.265,170.316 963.136,151.033 964.008,163.293 964.879,151.924 965.751,162.354 966.622,164.748 967.494,154.899 968.365,153.985 969.236,164.684 970.108,157.951 970.979,158.68 971.851,168.328 972.722,159.02 973.594,149.724 974.465,154.801 975.337,166.044 976.208,167.31 977.08,160.536 977.951,154.874 978.823,156.968 979.694,148.969 980.566,150.395 981.437,141.895 982.309,179.694 983.18,159.506 984.051,140.235 984.923,178.291 985.794,167.006 986.666,160.605 987.537,160.209 988.409,160.859 989.28,149.666 990.152,171.611 991.023,157.03 991.895,155.857 992.766,156.863 993.638,150.976 994.509,166.934 995.381,161.25 996.252,154.095 997.124,143.599 997.995,166.945 998.866,154.141 999.738,165.45 1000.61,153 1001.48,150.687 1002.35,150.122 1003.22,162.516 1004.1,164.357 1004.97,171.136 1005.84,157.656 1006.71,164.566 1007.58,152.149 1008.45,162.139 1009.32,150.038 1010.2,151.448 1011.07,161.596 1011.94,170.053 1012.81,149.117 1013.68,165.603 1014.55,174.126 1015.42,161.242 1016.3,171.89 1017.17,160.018 1018.04,166.642 1018.91,167.23 1019.78,166.827 1020.65,163.7 1021.52,156.208 1022.4,151.174 1023.27,163.897 1024.14,150.262 1025.01,170.632 1025.88,176.19 1026.75,168.432 1027.62,141.478 1028.5,160.738 1029.37,160.659 1030.24,158.757 1031.11,143.301 1031.98,168.904 1032.85,172.052 1033.73,160.411 1034.6,149.814 1035.47,166.333 1036.34,158.896 1037.21,160.941 1038.08,166.329 1038.95,152.817 1039.83,164.609 1040.7,170.978 1041.57,164.146 1042.44,156.671 1043.31,158.267 1044.18,167.425 1045.05,147.124 1045.93,162.872 1046.8,158.34 1047.67,143.01 1048.54,165.416 1049.41,153.85 1050.28,164.804 1051.15,164.346 1052.03,148.564 1052.9,154.373 1053.77,174.632 1054.64,157.319 1055.51,158.558 1056.38,156.045 1057.25,158.745 1058.13,179.717 1059,173.329 1059.87,162.456 1060.74,153.693 1061.61,163.559 1062.48,163.239 1063.36,156.925 1064.23,150.06 1065.1,162.755 1065.97,157.178 1066.84,158.394 1067.71,157.474 1068.58,153.47 1069.46,169.829 1070.33,167.966 1071.2,151.319 1072.07,148.141 1072.94,172.582 1073.81,160.885 1074.68,135.096 1075.56,149.609 1076.43,170.712 1077.3,154.457 1078.17,157.027 1079.04,170.849 1079.91,161.083 1080.78,150.364 1081.66,176.617 1082.53,165.282 1083.4,168.625 1084.27,155.705 1085.14,158.63 1086.01,157.524 1086.88,149.826 1087.76,170.686 1088.63,165.539 1089.5,166.538 1090.37,153.647 1091.24,177.21 1092.11,179.364 1092.99,162.559 1093.86,148.077 1094.73,138.108 1095.6,159.311 1096.47,154.569 1097.34,155.825 1098.21,161.756 1099.09,155.997 1099.96,158.332 1100.83,151.587 1101.7,151.683 1102.57,160.95 1103.44,173.398 1104.31,165.061 1105.19,165.706 1106.06,154.371 1106.93,148.622 1107.8,162.76 1108.67,156.713 1109.54,162.775 1110.41,153.533 1111.29,159.086 1112.16,164.865 1113.03,161.474 1113.9,151.763 1114.77,162.636 1115.64,154.862 1116.51,157.208 1117.39,166.059 1118.26,171.423 1119.13,156.771 1120,165.133 1120.87,169.729 1121.74,164.235 1122.62,160.697 1123.49,161.043 1124.36,173.949 1125.23,179.952 1126.1,139.995 1126.97,171.896 1127.84,164.579 1128.72,173.348 1129.59,156.225 1130.46,152.19 1131.33,178.8 1132.2,137.735 1133.07,163.911 1133.94,136.03 1134.82,170.953 1135.69,150.422 1136.56,152.048 1137.43,156.199 1138.3,144.95 1139.17,167.352 1140.04,147.613 1140.92,150.137 1141.79,172.17 1142.66,142.896 1143.53,147.592 1144.4,164.09 1145.27,152.239 1146.14,168.382 1147.02,165.884 1147.89,154.561 1148.76,171.618 1149.63,147.695 1150.5,158.928 1151.37,137.931 1152.25,154.657 1153.12,160.055 1153.99,153.159 1154.86,157.494 1155.73,163.533 1156.6,142.885 1157.47,159.939 1158.35,157.015 1159.22,150.318 1160.09,152.148 1160.96,162.399 1161.83,174.951 1162.7,175.119 1163.57,157.437 1164.45,158.05 1165.32,157.172 1166.19,159.147 1167.06,152.005 1167.93,163.757 1168.8,151.044 1169.67,147.541 1170.55,152.278 1171.42,162.002 1172.29,164.312 1173.16,166.265 1174.03,163.08 1174.9,162.115 1175.77,159.89 1176.65,150.003 1177.52,173.616 1178.39,158.384 1179.26,158.308 1180.13,163.656 1181,153.054 1181.88,155.136 1182.75,163.846 1183.62,155.588 1184.49,168.314 1185.36,142.217 1186.23,159.828 1187.1,163.619 1187.98,176.199 1188.85,177.571 1189.72,152.907 1190.59,169.831 1191.46,162.671 1192.33,145.281 1193.2,161.339 1194.08,156.134 1194.95,157.945 1195.82,157.047 1196.69,156.702 1197.56,154.771 1198.43,157.546 1199.3,164.623 1200.18,153.327 1201.05,171.126 1201.92,155.968 1202.79,168.176 1203.66,174.125 1204.53,153.827 1205.4,163.541 1206.28,160.758 1207.15,172.042 1208.02,153.766 1208.89,164.646 1209.76,153.391 1210.63,156.06 1211.51,160.949 1212.38,167.898 1213.25,148.682 1214.12,173.72 1214.99,154.395 1215.86,153.809 1216.73,161.405 1217.61,154.949 1218.48,161.3 1219.35,162.039 1220.22,162.324 1221.09,140.538 1221.96,140.02 1222.83,175.915 1223.71,155.811 1224.58,166.044 1225.45,165.843 1226.32,166.932 1227.19,164.708 1228.06,156.32 1228.93,155.258 1229.81,139.176 1230.68,179.524 1231.55,165.213 1232.42,156.922 1233.29,153.03 1234.16,166.633 1235.03,170.314 1235.91,142.775 1236.78,163.759 1237.65,148.33 1238.52,155.849 1239.39,160.454 1240.26,169.775 1241.14,168.32 1242.01,171.354 1242.88,159.95 1243.75,164.583 1244.62,155.474 1245.49,148.406 1246.36,170.026 1247.24,147.952 1248.11,182.579 1248.98,171.812 1249.85,159.98 1250.72,157.862 1251.59,159.737 1252.46,179.037 1253.34,160.08 1254.21,149.35 1255.08,162.882 1255.95,152.26 1256.82,156.163 1257.69,153.145 1258.56,161.44 1259.44,153.503 1260.31,163.965 1261.18,167.954 1262.05,157.012 1262.92,151.319 1263.79,162.436 1264.66,161.076 1265.54,161.288 1266.41,165.606 1267.28,148.925 1268.15,165.915 1269.02,154.559 1269.89,154.607 1270.76,147.315 1271.64,160.661 1272.51,151.541 1273.38,166.998 1274.25,163.418 1275.12,154.531 1275.99,162.752 1276.87,147.435 1277.74,142.688 1278.61,176.056 1279.48,141.09 1280.35,154.745 1281.22,160.333 1282.09,164.833 1282.97,164.237 1283.84,176.072 1284.71,180.877 1285.58,154.895 1286.45,156.115 1287.32,153.594 1288.19,154.645 1289.07,161.672 1289.94,152.872 1290.81,158.038 1291.68,157.066 1292.55,164.943 1293.42,153.098 1294.29,174.03 1295.17,153.056 1296.04,176.167 1296.91,174.944 1297.78,168.544 1298.65,157.571 1299.52,156.357 1300.39,149.977 1301.27,146.753 1302.14,145.909 1303.01,157.342 1303.88,157.78 1304.75,146.865 1305.62,155.938 1306.5,166.165 1307.37,154.961 1308.24,156.345 1309.11,150.906 1309.98,140.558 1310.85,169.008 1311.72,159.665 1312.6,161.194 1313.47,159.404 1314.34,162.43 1315.21,158.425 1316.08,161.296 1316.95,153.308 1317.82,152.405 1318.7,149.212 1319.57,152.227 1320.44,152.508 1321.31,150.233 1322.18,159.279 1323.05,153.756 1323.92,160.274 1324.8,157.633 1325.67,149.376 1326.54,160.982 1327.41,154.063 1328.28,162.501 1329.15,176.983 1330.02,176.05 1330.9,168.936 1331.77,156.183 1332.64,164.692 1333.51,168.698 1334.38,141.777 1335.25,148.165 1336.13,150.967 1337,155.231 1337.87,157.659 1338.74,158.277 1339.61,159.342 1340.48,156.522 1341.35,157.625 1342.23,164.233 1343.1,161.823 1343.97,154.18 1344.84,159.042 1345.71,149.51 1346.58,171.879 1347.45,153.949 1348.33,156.997 1349.2,171.849 1350.07,159.176 1350.94,151.327 1351.81,164.12 1352.68,157.11 1353.55,159.731 1354.43,157.634 1355.3,158.32 1356.17,158.79 1357.04,157.789 1357.91,166.434 1358.78,158.942 1359.65,155.158 1360.53,154.202 1361.4,155.43 1362.27,163.089 1363.14,152.979 1364.01,165.845 1364.88,144.828 1365.76,144.626 1366.63,145.958 1367.5,165.096 1368.37,162.018 1369.24,167.142 1370.11,173.189 1370.98,156.877 1371.86,170.937 1372.73,150.615 1373.6,153.771 1374.47,155.599 1375.34,151.912 1376.21,145.171 1377.08,162.473 1377.96,155.931 1378.83,156.155 1379.7,144.424 1380.57,152.889 1381.44,153.51 1382.31,157.909 1383.18,151.013 1384.06,157.013 1384.93,160.442 1385.8,148.347 1386.67,169.661 1387.54,163.366 1388.41,159.062 1389.28,163.824 1390.16,164.833 1391.03,165.182 1391.9,175.745 1392.77,148.409 1393.64,159.692 1394.51,147.785 1395.39,151.075 1396.26,148.531 1397.13,169.122 1398,169.079 1398.87,167.575 1399.74,160.964 1400.61,162.17 1401.49,151.978 1402.36,160.548 1403.23,155.352 1404.1,153.273 1404.97,161.742 1405.84,171.246 1406.71,158.962 1407.59,134.403 1408.46,150.376 1409.33,149.802 1410.2,151.64 1411.07,159.31 1411.94,147.068 1412.81,146.693 1413.69,154.889 1414.56,168.126 1415.43,144.787 1416.3,152.447 1417.17,187.649 1418.04,166.139 1418.91,159.418 1419.79,169.79 1420.66,162.762 1421.53,143.358 1422.4,156.131 1423.27,157.81 1424.14,152.216 1425.02,160.17 1425.89,159.607 1426.76,154.725 1427.63,159.768 1428.5,156.212 1429.37,169.294 1430.24,142.702 1431.12,136.446 1431.99,148.83 1432.86,155.483 1433.73,145.38 1434.6,145.022 1435.47,154.501 1436.34,161.003 1437.22,155.53 1438.09,142.63 1438.96,152.58 1439.83,145.387 1440.7,164.114 1441.57,151.015 1442.44,169.075 1443.32,180.595 1444.19,132.444 1445.06,163.971 1445.93,160.134 1446.8,162.533 1447.67,159.868 1448.54,160.129 1449.42,163.871 1450.29,157.655 1451.16,160.887 1452.03,153.78 1452.9,164.51 1453.77,163.933 1454.65,155.339 1455.52,153.931 1456.39,141.642 1457.26,181.192 1458.13,151.543 1459,156.231 1459.87,162.707 1460.75,157.319 1461.62,159.995 1462.49,162.844 1463.36,165.45 1464.23,157.4 1465.1,155.043 1465.97,161.362 1466.85,158.063 1467.72,153.796 1468.59,151.623 1469.46,149.616 1470.33,165.026 1471.2,158.976 1472.07,163.204 1472.95,160.971 1473.82,156.943 1474.69,154.687 1475.56,167.818 1476.43,170.057 1477.3,135.052 1478.17,166.083 1479.05,149.171 1479.92,154.868 1480.79,133.415 1481.66,137.27 1482.53,175.217 1483.4,155.05 1484.28,150.955 1485.15,155.271 1486.02,161.294 1486.89,169.013 1487.76,145.183 1488.63,167.98 1489.5,142.205 1490.38,153.544 1491.25,169.972 1492.12,149.626 1492.99,169.156 1493.86,163.352 1494.73,155.815 1495.6,149.91 1496.48,154.383 1497.35,158.058 1498.22,146.702 1499.09,163.196 1499.96,165.957 1500.83,170.85 1501.7,151.213 1502.58,159.208 1503.45,150.938 1504.32,153.962 1505.19,156.082 1506.06,156.471 1506.93,149.108 1507.8,164.73 1508.68,147.892 1509.55,159.981 1510.42,168.2 1511.29,148.683 1512.16,149.757 1513.03,174.083 1513.9,144.612 1514.78,148.866 1515.65,159.471 1516.52,158.071 1517.39,168.435 1518.26,152.41 1519.13,163.164 1520.01,174.488 1520.88,173.723 1521.75,173.62 1522.62,171.887 1523.49,167.551 1524.36,141.781 1525.23,171.997 1526.11,147.269 1526.98,169.657 1527.85,157.096 1528.72,164.397 1529.59,146.382 1530.46,165.545 1531.33,151.572 1532.21,167.363 1533.08,171.783 1533.95,170.622 1534.82,165.718 1535.69,167.648 1536.56,161.861 1537.43,152.89 1538.31,155.092 1539.18,148.749 1540.05,173.095 1540.92,154.268 1541.79,175.823 1542.66,181.385 1543.53,150.766 1544.41,163.453 1545.28,155.544 1546.15,155.598 1547.02,162.432 1547.89,172.847 1548.76,150.473 1549.64,166.397 1550.51,163.759 1551.38,156.325 1552.25,166.439 1553.12,163.672 1553.99,162.525 1554.86,155.357 1555.74,155.427 1556.61,161.834 1557.48,156.876 1558.35,152.95 1559.22,155.568 1560.09,156.257 1560.96,160.809 1561.84,146.742 1562.71,171.616 1563.58,154.71 1564.45,158.988 1565.32,160.208 1566.19,154.854 1567.06,154.737 1567.94,176.589 1568.81,166.841 1569.68,156.413 1570.55,154.338 1571.42,148.077 1572.29,154.789 1573.16,156.657 1574.04,164.347 1574.91,150.052 1575.78,168.739 1576.65,163.957 1577.52,159.185 1578.39,148.467 1579.27,165.972 1580.14,159.177 1581.01,165.175 1581.88,169.831 1582.75,166.37 1583.62,156.775 1584.49,163.756 1585.37,172.111 1586.24,159.651 1587.11,172.973 1587.98,144.409 1588.85,143.735 1589.72,193.041 1590.59,146.316 1591.47,164.393 1592.34,156.5 1593.21,165.648 1594.08,148.741 1594.95,157.549 1595.82,159.158 1596.69,159.08 1597.57,156.464 1598.44,157.687 1599.31,158.821 1600.18,159.152 1601.05,155.214 1601.92,156.486 1602.79,167.478 1603.67,160.902 1604.54,162.943 1605.41,162.436 1606.28,170.32 1607.15,152.344 1608.02,162.965 1608.9,151.886 1609.77,159.063 1610.64,162.891 1611.51,158.976 1612.38,149.772 1613.25,155.508 1614.12,158.389 1615,154.469 1615.87,146.883 1616.74,157.594 1617.61,157.843 1618.48,161.117 1619.35,157.557 1620.22,157.421 1621.1,176.57 1621.97,140.226 1622.84,180.709 1623.71,164.879 1624.58,161.788 1625.45,161.238 1626.32,173.705 1627.2,149.65 1628.07,149.249 1628.94,169.198 1629.81,158.831 1630.68,151.079 1631.55,174.912 1632.42,152.201 1633.3,163.766 1634.17,155.958 1635.04,166.336 1635.91,154.634 1636.78,156.015 1637.65,157.377 1638.53,165.497 1639.4,153.729 1640.27,159.051 1641.14,168.193 1642.01,153.64 1642.88,137.293 1643.75,165.464 1644.63,158.983 1645.5,157.129 1646.37,159.52 1647.24,153.311 1648.11,149.834 1648.98,152.096 1649.85,152.099 1650.73,169.956 1651.6,174.398 1652.47,174.774 1653.34,160.487 1654.21,162.555 1655.08,162.479 1655.95,154.478 1656.83,146.142 1657.7,157.36 1658.57,156.226 1659.44,152.057 1660.31,169.601 1661.18,160.011 1662.05,160.255 1662.93,166.97 1663.8,160.752 1664.67,155.141 1665.54,170.409 1666.41,152.251 1667.28,161.093 1668.16,155.23 1669.03,155.704 1669.9,158.866 1670.77,142.355 1671.64,145.845 1672.51,152.586 1673.38,167.567 1674.26,148.645 1675.13,163.53 1676,150.659 1676.87,169.722 1677.74,158.325 1678.61,163.981 1679.48,162.312 1680.36,150.999 1681.23,156.732 1682.1,158.004 1682.97,151.668 1683.84,141.518 1684.71,145.869 1685.58,142.033 1686.46,150.187 1687.33,142.147 1688.2,156.648 1689.07,151.984 1689.94,159.939 1690.81,147.945 1691.68,166.309 1692.56,174.027 1693.43,169.101 1694.3,155.199 1695.17,157.89 1696.04,147.686 1696.91,155.388 1697.79,154.835 1698.66,155.519 1699.53,165.085 1700.4,154.674 1701.27,169.41 1702.14,162.214 1703.01,147.074 1703.89,172.941 1704.76,165.214 1705.63,149.375 1706.5,153.332 1707.37,161.231 1708.24,159.066 1709.11,167.702 1709.99,143.44 1710.86,168.821 1711.73,167.543 1712.6,157.762 1713.47,159.402 1714.34,158.483 1715.21,157.021 1716.09,150.823 1716.96,155.894 1717.83,157.98 1718.7,177.221 1719.57,168.188 1720.44,155.47 1721.31,147.055 1722.19,170.082 1723.06,154.639 1723.93,145.63 1724.8,146.867 1725.67,165.408 1726.54,158.86 1727.42,151.855 1728.29,175.932 1729.16,162.559 1730.03,172.795 1730.9,162.011 1731.77,149.391 1732.64,185.198 1733.52,143.049 1734.39,169.364 1735.26,166.483 1736.13,142.301 1737,155.175 1737.87,155.533 1738.74,165.098 1739.62,158.998 1740.49,151.947 1741.36,170.417 1742.23,152.416 1743.1,163.166 1743.97,163.395 1744.84,167.74 1745.72,166.34 1746.59,149.817 1747.46,162.779 1748.33,166.524 1749.2,163.941 1750.07,153.233 1750.94,177.836 1751.82,154.231 1752.69,162.425 1753.56,160.478 1754.43,168.7 1755.3,143.786 1756.17,153.774 1757.05,162.819 1757.92,161.006 1758.79,159.483 1759.66,168.8 1760.53,167.407 1761.4,166.221 1762.27,176.959 1763.15,164.498 1764.02,164.544 1764.89,165.365 1765.76,161.429 1766.63,157.698 1767.5,153.424 1768.37,155.963 1769.25,175.459 1770.12,157.744 1770.99,146.137 1771.86,155.712 1772.73,166.486 1773.6,176.973 1774.47,130.32 1775.35,134.674 1776.22,156.094 1777.09,160.408 1777.96,166.438 1778.83,158.183 1779.7,150.43 1780.57,164.779 1781.45,165.463 1782.32,157.958 1783.19,163.12 1784.06,163.163 1784.93,149.394 1785.8,158.054 1786.67,162.874 1787.55,162.056 1788.42,147.841 1789.29,153.13 1790.16,148.102 1791.03,147.971 1791.9,167.696 1792.78,156.503 1793.65,162.318 1794.52,164.416 1795.39,163.188 1796.26,163.207 1797.13,162.207 1798,153.162 1798.88,151.981 1799.75,168.04 1800.62,155.422 1801.49,154.859 1802.36,151.562 1803.23,153.794 1804.1,161.136 1804.98,160.336 1805.85,155.427 1806.72,162.307 1807.59,153.959 1808.46,152.298 1809.33,151.637 1810.2,136.865 1811.08,142.281 1811.95,176.352 1812.82,166.607 1813.69,167.361 1814.56,149.125 1815.43,155.454 1816.3,152.342 1817.18,145.242 1818.05,147.004 1818.92,155.334 1819.79,161.316 1820.66,160.982 1821.53,159.631 1822.41,157.463 1823.28,159.182 1824.15,168.939 1825.02,158.997 1825.89,143.885 1826.76,160.098 1827.63,145.905 1828.51,156.73 1829.38,157.094 1830.25,169.253 1831.12,163.652 1831.99,139.696 1832.86,166.25 1833.73,151.092 1834.61,151.154 1835.48,162.973 1836.35,162.794 1837.22,147.997 1838.09,148.73 1838.96,164.166 1839.83,164.694 1840.71,164.678 1841.58,164.12 1842.45,146.63 1843.32,155.188 1844.19,159.466 1845.06,158.092 1845.93,168.037 1846.81,156.745 1847.68,152.064 1848.55,158.753 1849.42,167.509 1850.29,148.467 1851.16,164.22 1852.04,167.92 1852.91,149.645 1853.78,165.856 1854.65,150.892 1855.52,157.137 1856.39,160.699 1857.26,162.212 1858.14,147.01 1859.01,158.836 1859.88,154.957 1860.75,142.693 1861.62,173.121 1862.49,162.487 1863.36,155.369 1864.24,152.523 1865.11,147.023 1865.98,153.623 1866.85,161.251 1867.72,162.981 1868.59,153.949 1869.46,140.207 1870.34,171.807 1871.21,170.585 1872.08,154.123 1872.95,145.653 1873.82,148.83 1874.69,147.371 1875.56,143.613 1876.44,140.803 1877.31,140.112 1878.18,150.59 1879.05,155.414 1879.92,168.529 1880.79,183.071 1881.67,160.467 1882.54,149.338 1883.41,147.109 1884.28,162.301 1885.15,153.527 1886.02,153.362 1886.89,157.994 1887.77,165.693 1888.64,138.87 1889.51,153.327 1890.38,178.631 1891.25,158.785 1892.12,158.062 1892.99,144.5 1893.87,176.923 1894.74,158.972 1895.61,167.508 1896.48,163.077 1897.35,167.242 1898.22,162.246 1899.09,142.18 1899.97,160.995 1900.84,156.346 1901.71,164.492 1902.58,147.954 1903.45,165.694 1904.32,146.723 1905.19,147.765 1906.07,159.938 1906.94,161.265 1907.81,159.967 1908.68,152.768 1909.55,171.831 1910.42,163.251 1911.3,155.128 1912.17,141.915 1913.04,167.697 1913.91,154.621 1914.78,153.653 1915.65,152.076 1916.52,153.575 1917.4,132.414 1918.27,158.513 1919.14,146.319 1920.01,142.306 1920.88,168.862 1921.75,143.642 1922.62,152.033 1923.5,155.006 1924.37,162.473 1925.24,154.213 1926.11,160.949 1926.98,169.537 1927.85,154.918 1928.72,164.446 1929.6,166.485 1930.47,162.455 1931.34,172.593 1932.21,171.259 1933.08,135.28 1933.95,152.23 1934.82,169.852 1935.7,159.222 1936.57,152.913 1937.44,171.604 1938.31,172.375 1939.18,142.308 1940.05,157.1 1940.93,161.689 1941.8,171.328 1942.67,148.855 1943.54,150.112 1944.41,171.462 1945.28,137.825 1946.15,153.39 1947.03,156.979 1947.9,160.946 1948.77,155.486 1949.64,152.356 1950.51,159.726 1951.38,171.084 1952.25,144.791 1953.13,158.658 1954,154.277 1954.87,156.325 1955.74,172.89 1956.61,141.6 1957.48,146.236 1958.35,172.501 1959.23,170.741 1960.1,178.125 1960.97,156.317 1961.84,155.315 1962.71,155.622 1963.58,148.838 1964.45,156.043 1965.33,152.179 1966.2,157.768 1967.07,138.205 1967.94,146.099 1968.81,147.522 1969.68,152.439 1970.56,172.346 1971.43,172.17 1972.3,176.767 1973.17,158.333 1974.04,167.491 1974.91,155.431 1975.78,161.945 1976.66,161.727 1977.53,149.737 1978.4,166.581 1979.27,153.769 1980.14,165.988 1981.01,164.496 1981.88,159.164 1982.76,165.182 1983.63,149.617 1984.5,156.7 1985.37,144.243 1986.24,151.475 1987.11,156.588 1987.98,160.735 1988.86,159.257 1989.73,147.079 1990.6,171.236 1991.47,146.821 1992.34,169.773 1993.21,178.023 1994.08,161.554 1994.96,163.472 1995.83,152.259 1996.7,161.302 1997.57,160.983 1998.44,143.393 1999.31,171.786 2000.19,149.791 2001.06,147.617 2001.93,156.845 2002.8,149.882 2003.67,155.09 2004.54,166.445 2005.41,163.454 2006.29,149.641 2007.16,149.659 2008.03,157.372 2008.9,160.812 2009.77,161.479 2010.64,164.835 2011.51,153.38 2012.39,142.505 2013.26,166.506 2014.13,166.309 2015,143.974 2015.87,137.684 2016.74,155.828 2017.61,159.513 2018.49,164.235 2019.36,159.405 2020.23,142.248 2021.1,165.262 2021.97,155.422 2022.84,162.445 2023.71,177.927 2024.59,155.143 2025.46,176.481 2026.33,165.918 2027.2,166.179 2028.07,158.73 2028.94,174.138 2029.82,141.417 2030.69,162.027 2031.56,154.288 2032.43,152.404 2033.3,171.688 2034.17,163.789 2035.04,168.224 2035.92,168.106 2036.79,158.452 2037.66,150.938 2038.53,165.259 2039.4,170.987 2040.27,140.101 2041.14,139.166 2042.02,166.094 2042.89,161.198 2043.76,158.252 2044.63,153.82 2045.5,154.563 2046.37,154.875 2047.24,161.262 2048.12,177.418 2048.99,141.514 2049.86,171.055 2050.73,166.259 2051.6,158.951 2052.47,161.873 2053.34,160.508 2054.22,138.672 2055.09,151.246 2055.96,155.772 2056.83,152.118 2057.7,145.01 2058.57,158.698 2059.44,140.831 2060.32,162.532 2061.19,160.152 2062.06,167.674 2062.93,149.616 2063.8,148.788 2064.67,166.447 2065.55,171.823 2066.42,151.738 2067.29,155.894 2068.16,165.813 2069.03,151.775 2069.9,150.469 2070.77,147.806 2071.65,154.874 2072.52,156.741 2073.39,154.853 2074.26,140.359 2075.13,171.595 2076,176.824 2076.87,172.243 2077.75,148.839 2078.62,158.246 2079.49,165.025 2080.36,151.621 2081.23,139.58 2082.1,165.664 2082.97,170.203 2083.85,147.525 2084.72,129.266 2085.59,165.573 2086.46,157.117 2087.33,151.524 2088.2,163.897 2089.07,143.638 2089.95,186.962 2090.82,155.793 2091.69,145.122 2092.56,158.587 2093.43,159.07 2094.3,157.726 2095.18,169.926 2096.05,173.046 2096.92,162.689 2097.79,166.312 2098.66,162.459 2099.53,157.631 2100.4,157.548 2101.28,163.738 2102.15,154.57 2103.02,165.772 2103.89,146.975 2104.76,149.577 2105.63,147.24 2106.5,169.102 2107.38,177.491 2108.25,143.655 2109.12,180.418 2109.99,153.172 2110.86,148.454 2111.73,162.362 2112.6,165.525 2113.48,146.713 2114.35,171.587 2115.22,144.955 2116.09,168.173 2116.96,158.903 2117.83,159.743 2118.7,149.606 2119.58,158.893 2120.45,183.51 2121.32,162.297 2122.19,160.227 2123.06,159.517 2123.93,155.15 2124.81,153.194 2125.68,167.126 2126.55,168.194 2127.42,164.057 2128.29,157.417 2129.16,164.681 2130.03,147.458 2130.91,143.648 2131.78,160.013 2132.65,150.782 2133.52,152.947 2134.39,157.305 2135.26,168.349 2136.13,163.041 2137.01,159.518 2137.88,175.82 2138.75,150.603 2139.62,155.864 2140.49,161.069 2141.36,156.473 2142.23,161.974 2143.11,158.048 2143.98,164.464 2144.85,153.359 2145.72,159.633 2146.59,157.28 2147.46,165.185 2148.33,144.814 2149.21,156.86 2150.08,160.128 2150.95,165.326 2151.82,171.197 2152.69,162.138 2153.56,160.655 2154.44,163.796 2155.31,162.575 2156.18,162.091 2157.05,169.708 2157.92,168.548 2158.79,157.813 2159.66,162.192 2160.54,174.938 2161.41,156.803 2162.28,163.948 2163.15,162.286 2164.02,151.708 2164.89,156.129 2165.76,162.794 2166.64,164.283 2167.51,154.25 2168.38,163.113 2169.25,153.769 2170.12,161.262 2170.99,161.84 2171.86,159.995 2172.74,165.597 2173.61,161.566 2174.48,141.624 2175.35,167.862 2176.22,161.466 2177.09,160.602 2177.96,163.497 2178.84,168.263 2179.71,149.837 2180.58,156.667 2181.45,155.175 2182.32,151.049 2183.19,166.494 2184.07,145.544 2184.94,160.865 2185.81,157.843 2186.68,160.875 2187.55,156.406 2188.42,159.57 2189.29,161.665 2190.17,159.636 2191.04,168.667 2191.91,155.088 2192.78,148.444 2193.65,149.206 2194.52,161.149 2195.39,152.508 2196.27,167.596 2197.14,182.262 2198.01,139.176 2198.88,158.906 2199.75,170.958 2200.62,171.118 2201.49,161.389 2202.37,159.43 2203.24,162.419 2204.11,156.213 2204.98,158.031 2205.85,154.95 2206.72,162.101 2207.59,166.769 2208.47,153.251 2209.34,164.408 2210.21,150.869 2211.08,158.164 2211.95,174.48 2212.82,157.527 2213.7,161.823 2214.57,153.743 2215.44,157.206 2216.31,154.805 2217.18,170.362 2218.05,151.706 2218.92,173.937 2219.8,158.167 2220.67,163.835 2221.54,149.64 2222.41,166.626 2223.28,161.445 2224.15,136.091 2225.02,146.795 2225.9,165.498 2226.77,150.487 2227.64,163.655 2228.51,165.639 2229.38,153.903 2230.25,157.498 2231.12,161.886 2232,158.197 2232.87,152.012 2233.74,169.306 2234.61,167.068 2235.48,147.826 2236.35,151.367 2237.22,144.684 2238.1,149.301 2238.97,164.447 2239.84,156.209 2240.71,167.077 2241.58,165.713 2242.45,161.991 2243.33,160.945 2244.2,157.575 2245.07,152.054 2245.94,158.084 2246.81,148.622 2247.68,150.883 2248.55,165.737 2249.43,151.015 2250.3,151.12 2251.17,161.043 2252.04,150.893 2252.91,154.336 2253.78,181.946 2254.65,177.059 2255.53,156.884 2256.4,157.164 2257.27,165.332 2258.14,168.371 2259.01,165.702 2259.88,152.678 2260.75,144.225 2261.63,157.72 2262.5,168.276 2263.37,168.985 2264.24,149.704 2265.11,162.935 2265.98,153.91 2266.85,150.248 2267.73,172.829 2268.6,168.764 2269.47,160.438 2270.34,175.374 2271.21,157.283 2272.08,160.289 2272.96,153.421 2273.83,161.478 2274.7,162.006 2275.57,158.583 2276.44,181.361 2277.31,156.302 2278.18,170.831 2279.06,158.863 2279.93,159.838 2280.8,124.792 2281.67,137.724 2282.54,165.503 2283.41,150.097 2284.28,170.984 2285.16,174.028 2286.03,178.94 2286.9,140.756 2287.77,164.758 2288.64,149.219 2289.51,150.434 2290.38,159.555 2291.26,158.289 2292.13,162.983 2293,156.4 2293.87,173.652 2294.74,147.171 2295.61,145.676 2296.48,150.562 2297.36,147.869 2298.23,152.725 2299.1,163.801 2299.97,161.285 2300.84,160.409 2301.71,156.983 2302.59,140.128 2303.46,158.854 2304.33,170.35 2305.2,161.757 2306.07,145.356 2306.94,157.764 2307.81,155.266 2308.69,154.059 2309.56,158.399 2310.43,153.429 2311.3,156.159 2312.17,157.181 2313.04,153.916 2313.91,153.597 2314.79,162.969 2315.66,165.932 2316.53,154.97 2317.4,165.41 2318.27,159.483 2319.14,154.448 2320.01,169.612 2320.89,149.611 2321.76,164.332 2322.63,165.494 2323.5,172.51 2324.37,160.146 2325.24,141.545 2326.11,143.194 2326.99,149.238 2327.86,169.778 2328.73,163.052 2329.6,162.991 2330.47,136.695 2331.34,162.61 2332.21,156.434 2333.09,167.662 2333.96,167.396 2334.83,144.959 2335.7,153.053 2336.57,163.019 2337.44,162.819 2338.32,150.58 2339.19,169.164 2340.06,166.578 2340.93,157.419 2341.8,161.633 2342.67,174.455 2343.54,169.473 2344.42,164.271 2345.29,156.672 2346.16,160.542 2347.03,152.316 2347.9,169.465 2348.77,150.399 2349.64,145.506 2350.52,152.466 2351.39,153.438 2352.26,176.31 2353.13,177.491 2354,149.775 2354.87,151.807 2355.74,160.382 2356.62,153.359 2357.49,159.199 2358.36,165.216 2359.23,164.731 2360.1,158.02 2360.97,157.039 2361.84,158.762 2362.72,165.257 2363.59,155.295 2364.46,158.109 2365.33,163.087 2366.2,140.273 2367.07,145.696 2367.95,165.746 2368.82,170.285 2369.69,155.52 2370.56,150.034 2371.43,148.627 2372.3,173.048 2373.17,157.211 2374.05,154.408 2374.92,163.394 2375.79,155.068 2376.66,155.164 2377.53,159.344 2378.4,138.737 2379.27,170.109 2380.15,150.544 2381.02,165.598 2381.89,166.809 2382.76,144.503 2383.63,169.268 2384.5,162.952 2385.37,154.377 2386.25,162.362 2387.12,154.644 2387.99,146.532 2388.86,150.596 2389.73,145.873 2390.6,155.637 2391.47,168.52 2392.35,151.878 2393.22,153.518 2394.09,152.295 2394.96,157.144 2395.83,159.648 2396.7,163.926 2397.58,159.193 2398.45,155.977 2399.32,173.012 2400.19,165.539 2401.06,150.888 2401.93,163.383 2402.8,152.094 2403.68,140.791 2404.55,177.667 2405.42,160.804 2406.29,163.136 2407.16,164.852 2408.03,170.205 2408.9,170.055 2409.78,151.792 2410.65,166.077 2411.52,159.801 2412.39,158.373 2413.26,157.913 2414.13,154.826 2415,162.405 2415.88,157.353 2416.75,143.325 2417.62,147.734 2418.49,170.031 2419.36,146.012 2420.23,174.671 2421.1,141.423 2421.98,155.749 2422.85,164.912 2423.72,161.148 2424.59,147.791 2425.46,152.501 2426.33,145.519 2427.21,164.211 2428.08,151.658 2428.95,148.204 2429.82,166.452 2430.69,164.942 2431.56,163.495 2432.43,150.63 2433.31,150.613 2434.18,161.783 2435.05,156.312 2435.92,168.742 2436.79,155.088 2437.66,151.19 2438.53,147.432 2439.41,156.35 2440.28,149.262 2441.15,161.183 2442.02,144.99 2442.89,174.336 2443.76,143.876 2444.63,158.559 2445.51,160.596 2446.38,142.055 2447.25,179.727 2448.12,151.131 2448.99,168.434 2449.86,161.343 2450.73,170.077 2451.61,144.113 2452.48,150.916 2453.35,152.546 2454.22,157.083 2455.09,166.256 2455.96,149.568 2456.84,161.213 2457.71,155.213 2458.58,164.721 2459.45,160.754 2460.32,159.901 2461.19,156.119 2462.06,139.28 2462.94,169.504 2463.81,153.192 2464.68,168.356 2465.55,147.193 2466.42,173.013 2467.29,159.332 2468.16,152.408 2469.04,161.731 2469.91,146.593 2470.78,137.908 2471.65,161.371 2472.52,153.583 2473.39,167.2 2474.26,145.528 2475.14,155.665 2476.01,170.77 2476.88,156.528 2477.75,144.074 2478.62,146.582 2479.49,155.972 2480.36,159.84 2481.24,160.857 2482.11,156.069 2482.98,161.808 2483.85,154.11 2484.72,157.557 2485.59,173.548 2486.47,153.071 2487.34,158.959 2488.21,156.562 2489.08,163.517 2489.95,166.731 2490.82,165.398 2491.69,166.096 2492.57,163.037 2493.44,165.6 2494.31,176.388 2495.18,162.137 2496.05,160.684 2496.92,163.931 2497.79,154.605 2498.67,167.352 2499.54,163.614 2500.41,163.148 2501.28,148.724 2502.15,153.535 2503.02,161.464 2503.89,149.18 2504.77,149.181 2505.64,147.9 2506.51,151.525 2507.38,167.66 2508.25,156.773 2509.12,151.41 2509.99,160.702 2510.87,158.583 2511.74,147.22 2512.61,167.043 2513.48,178.502 2514.35,155.152 2515.22,157.647 2516.1,160.928 2516.97,157.395 2517.84,168.088 2518.71,161.642 2519.58,157.219 2520.45,142.919 2521.32,146.752 2522.2,166.737 2523.07,145.796 2523.94,170.513 2524.81,170.634 2525.68,167.824 2526.55,146.472 2527.42,155.027 2528.3,151.541 2529.17,148.085 2530.04,172.384 2530.91,153.32 2531.78,155.645 2532.65,156.284 2533.52,154.645 2534.4,163.975 2535.27,155.744 2536.14,161.023 2537.01,148.059 2537.88,164.526 2538.75,166.696 2539.62,169.39 2540.5,172.087 2541.37,155.386 2542.24,154.852 2543.11,160.478 2543.98,150.281 2544.85,161.861 2545.73,147.886 2546.6,156.051 2547.47,155.4 2548.34,162.098 2549.21,157.853 2550.08,149.967 2550.95,163.07 2551.83,149.34 2552.7,164.954 2553.57,153.507 2554.44,165.036 2555.31,158.574 2556.18,163.87 2557.05,166.521 2557.93,163.241 2558.8,152.532 2559.67,165.432 2560.54,149.714 2561.41,158.49 2562.28,153.407 2563.15,162.922 2564.03,145.004 2564.9,169.826 2565.77,167.854 2566.64,143.486 2567.51,150.964 2568.38,156.234 2569.25,159.648 2570.13,167.286 2571,154.214 2571.87,144.776 2572.74,160.998 2573.61,156.029 2574.48,165.251 2575.35,159.098 2576.23,151.626 2577.1,161.825 2577.97,148.478 2578.84,168.625 2579.71,162.525 2580.58,157.356 2581.46,162.512 2582.33,153.864 2583.2,144.745 2584.07,152.585 2584.94,150.15 2585.81,169.94 2586.68,182.77 2587.56,155.033 2588.43,147.176 2589.3,164.833 2590.17,162.576 2591.04,169.74 2591.91,164.239 2592.78,158.199 2593.66,156.907 2594.53,169.197 2595.4,144.763 2596.27,161.844 2597.14,173.75 2598.01,161.379 2598.88,156.054 2599.76,150.339 2600.63,159.425 2601.5,173.11 2602.37,164.791 2603.24,163.6 2604.11,149.052 2604.98,150.16 2605.86,164.879 2606.73,172.306 2607.6,153.808 2608.47,145.183 2609.34,175.825 2610.21,164.273 2611.09,162.585 2611.96,166.289 2612.83,140.614 2613.7,181.628 2614.57,144.736 2615.44,164.068 2616.31,151.046 2617.19,148.459 2618.06,150.162 2618.93,154.512 2619.8,172.703 2620.67,161.296 2621.54,149.721 2622.41,146.123 2623.29,147.814 2624.16,151.663 2625.03,153.105 2625.9,150.474 2626.77,158.873 2627.64,168.43 2628.51,163.693 2629.39,167.813 2630.26,145.839 2631.13,149.649 2632,163.583 2632.87,164.378 2633.74,153.514 2634.61,148.796 2635.49,153.511 2636.36,157.443 2637.23,160.418 2638.1,162.874 2638.97,156.778 2639.84,173.599 2640.72,152.138 2641.59,165.501 2642.46,166.322 2643.33,160.186 2644.2,162.459 2645.07,164.036 2645.94,164.74 2646.82,121.455 2647.69,157.1 2648.56,152.277 2649.43,173.855 2650.3,136.883 2651.17,175.044 2652.04,144.731 2652.92,169.675 2653.79,164.407 2654.66,156.728 2655.53,156.943 2656.4,168.267 2657.27,160.257 2658.14,153.127 2659.02,176.493 2659.89,166.274 2660.76,163.034 2661.63,151.308 2662.5,161.543 2663.37,169.993 2664.24,153.952 2665.12,174.23 2665.99,142.642 2666.86,162.06 2667.73,174.256 2668.6,148.012 2669.47,164.26 2670.35,153.024 2671.22,153.268 2672.09,152.512 2672.96,150.681 2673.83,166.603 2674.7,161.819 2675.57,168.344 2676.45,150.568 2677.32,166.001 2678.19,165.573 2679.06,149.556 2679.93,168.268 2680.8,156.929 2681.67,142.832 2682.55,143.08 2683.42,170.453 2684.29,159.823 2685.16,159.59 2686.03,154.092 2686.9,166.971 2687.77,163.154 2688.65,159.898 2689.52,163.013 2690.39,154.991 2691.26,151.906 2692.13,153.933 2693,169.18 2693.87,164.17 2694.75,142.582 2695.62,169.414 2696.49,154.323 2697.36,159.076 2698.23,160.119 2699.1,169.36 2699.98,170.315 2700.85,151.156 2701.72,162.423 2702.59,152.112 2703.46,160.414 2704.33,164.35 2705.2,153.486 2706.08,172.434 2706.95,155.765 2707.82,153.472 2708.69,143.955 2709.56,156.555 2710.43,160.139 2711.3,155.521 2712.18,153.443 2713.05,162.068 2713.92,156.597 2714.79,154.512 2715.66,157.936 2716.53,157.123 2717.4,176.152 2718.28,157.073 2719.15,149.558 2720.02,153.991 2720.89,156.536 2721.76,161.574 2722.63,143.999 2723.5,156.575 2724.38,161.134 2725.25,172.127 2726.12,149.63 2726.99,166.128 2727.86,150.783 2728.73,151.198 2729.61,165.282 2730.48,168.327 2731.35,171.353 2732.22,161.904 2733.09,153.918 2733.96,156.187 2734.83,162.817 2735.71,152.789 2736.58,154.572 2737.45,163.039 2738.32,162.826 2739.19,144.494 2740.06,172.911 2740.93,158.282 2741.81,164.529 2742.68,156.441 2743.55,156.554 2744.42,156.427 2745.29,157.446 2746.16,145.532 2747.03,158.108 2747.91,149.372 2748.78,160.599 2749.65,164.082 2750.52,150.882 2751.39,153.689 2752.26,161.752 2753.13,158.777 2754.01,160.612 2754.88,170.183 2755.75,155.012 2756.62,165.732 2757.49,140.431 2758.36,167.532 2759.24,160.281 2760.11,144.949 2760.98,171.72 2761.85,155.984 2762.72,160.014 2763.59,167.796 2764.46,153.338 2765.34,167.056 2766.21,156.033 2767.08,167.928 2767.95,147.94 2768.82,152.101 2769.69,151.044 2770.56,150.898 2771.44,155.219 2772.31,157.952 2773.18,148.262 2774.05,173.848 2774.92,174.624 2775.79,158.869 2776.66,160.635 2777.54,156.75 2778.41,152.467 2779.28,160.303 2780.15,172.682 2781.02,141.484 2781.89,172.386 2782.76,160.631 2783.64,158.694 2784.51,175.035 2785.38,166.585 2786.25,154.45 2787.12,175.015 2787.99,178.047 2788.87,171.475 2789.74,160.174 2790.61,155.076 2791.48,144.423 2792.35,155.854 2793.22,159.166 2794.09,143.831 2794.97,162.676 2795.84,154.917 2796.71,174.029 2797.58,153.92 2798.45,150.662 2799.32,152.685 2800.19,156.048 2801.07,152.893 2801.94,165.454 2802.81,163.151 2803.68,162.865 2804.55,163.565 2805.42,172.574 2806.29,167.706 2807.17,165.151 2808.04,159.557 2808.91,165.312 2809.78,176.899 2810.65,160.616 2811.52,161.32 2812.39,149.609 2813.27,142.457 2814.14,140.761 2815.01,159.23 2815.88,158.656 2816.75,154.811 2817.62,159.001 2818.5,156.794 2819.37,155.639 2820.24,153.563 2821.11,148.012 2821.98,157.09 2822.85,154.881 2823.72,155.046 2824.6,166.07 2825.47,155.619 2826.34,151.763 2827.21,166.207 2828.08,171.382 2828.95,165.912 2829.82,168.583 2830.7,151.786 2831.57,172.405 2832.44,166.492 2833.31,155.603 2834.18,161.001 2835.05,165.104 2835.92,160.484 2836.8,155.625 2837.67,155.741 2838.54,152.55 2839.41,157.51 2840.28,154.193 2841.15,152.788 2842.02,155.659 2842.9,158.331 2843.77,157.466 2844.64,154.72 2845.51,150.765 2846.38,158.676 2847.25,163.355 2848.12,153.607 2849,163.089 2849.87,154.164 2850.74,153.547 2851.61,147.636 2852.48,169.768 2853.35,158.461 2854.23,190.207 2855.1,171.104 2855.97,149.891 2856.84,156.787 2857.71,152.144 2858.58,163.125 2859.45,157.665 2860.33,156.634 2861.2,153.291 2862.07,163.549 2862.94,171.638 2863.81,143.023 2864.68,168.643 2865.55,142.134 2866.43,140.388 2867.3,156.476 2868.17,143.995 2869.04,160.051 2869.91,156.482 2870.78,156.267 2871.65,159.885 2872.53,160.596 2873.4,175.558 2874.27,160.262 2875.14,146.739 2876.01,156.575 2876.88,165.836 2877.75,145.942 2878.63,144.789 2879.5,154.852 2880.37,148.133 2881.24,159.839 2882.11,148.51 2882.98,153.145 2883.86,147.441 2884.73,157.42 2885.6,158.137 2886.47,169.758 2887.34,166.724 2888.21,174.311 2889.08,147.597 2889.96,165.005 2890.83,155.347 2891.7,165.234 2892.57,159.816 2893.44,141.571 2894.31,144.229 2895.18,144.359 2896.06,145.825 2896.93,166.071 2897.8,163.331 2898.67,156.662 2899.54,160.916 2900.41,145.219 2901.28,163.562 2902.16,167.832 2903.03,158.497 2903.9,157.785 2904.77,163.635 2905.64,149.41 2906.51,158.603 2907.38,159.263 2908.26,166.541 2909.13,150.685 2910,153.576 2910.87,159.871 2911.74,140.921 2912.61,151.919 2913.49,172.579 2914.36,133.492 2915.23,161.914 2916.1,157.558 2916.97,164.42 2917.84,167.639 2918.71,151.648 2919.59,169.067 2920.46,158.664 2921.33,150.625 2922.2,154.737 2923.07,152.906 2923.94,164.712 2924.81,159.9 2925.69,164.292 2926.56,152.255 2927.43,156.27 2928.3,155.798 2929.17,154.425 2930.04,157.289 2930.91,152.199 2931.79,161.064 2932.66,158.654 2933.53,143.231 2934.4,170.453 2935.27,152.026 2936.14,166.156 2937.01,167.4 2937.89,157.946 2938.76,154.302 2939.63,154.904 2940.5,156.692 2941.37,145.727 2942.24,163.844 2943.12,139.475 2943.99,155.952 2944.86,149.134 2945.73,173.582 2946.6,146.383 2947.47,156.995 2948.34,169.51 2949.22,173.029 2950.09,136.251 2950.96,143.067 2951.83,145.498 2952.7,173.642 2953.57,152.633 2954.44,151.689 2955.32,154.471 2956.19,160.607 2957.06,161.158 2957.93,158.524 2958.8,165.537 2959.67,164.901 2960.54,154.894 2961.42,156.585 2962.29,156.377 2963.16,163.092 2964.03,178.022 2964.9,142.196 2965.77,148.114 2966.64,152.577 2967.52,142.172 2968.39,182.99 2969.26,158.914 2970.13,155.706 2971,152.868 2971.87,168.822 2972.75,145.182 2973.62,141.363 2974.49,140.627 2975.36,170.728 2976.23,139.253 2977.1,141.191 2977.97,150.801 2978.85,158.735 2979.72,160.464 2980.59,162.153 2981.46,160.057 2982.33,160.365 2983.2,159.674 2984.07,152.722 2984.95,158.219 2985.82,162.159 2986.69,145.799 2987.56,161.238 2988.43,146.844 2989.3,163.819 2990.17,158.258 2991.05,166.86 2991.92,152.51 2992.79,152.263 2993.66,162.642 2994.53,148.72 2995.4,146.124 2996.27,163.099 2997.15,150.277 2998.02,147.931 2998.89,140.142 2999.76,163.361 3000.63,155.607 3001.5,149.857 3002.38,161.88 3003.25,165.484 3004.12,170.764 3004.99,162.289 3005.86,158.858 3006.73,148.494 3007.6,152.553 3008.48,179.626 3009.35,146.09 3010.22,135.51 3011.09,174.678 3011.96,177.874 3012.83,152.189 3013.7,150.649 3014.58,153.712 3015.45,160.759 3016.32,166.394 3017.19,158.507 3018.06,156.725 3018.93,158.084 3019.8,161.647 3020.68,158.505 3021.55,157.957 3022.42,167.933 3023.29,151.029 3024.16,145.235 3025.03,164.253 3025.9,168.904 3026.78,159.174 3027.65,172.761 3028.52,145.411 3029.39,171.8 3030.26,169.679 3031.13,175.981 3032.01,173.3 3032.88,158.477 3033.75,163.317 3034.62,141.403 3035.49,157.176 3036.36,168.594 3037.23,164.696 3038.11,152.475 3038.98,147.332 3039.85,150.125 3040.72,155.273 3041.59,160.603 3042.46,165.618 3043.33,159.851 3044.21,152.701 3045.08,160.673 3045.95,167.154 3046.82,152.528 3047.69,155.711 3048.56,167.406 3049.43,170.317 3050.31,136.538 3051.18,160.455 3052.05,171.853 3052.92,159.552 3053.79,166.876 3054.66,166.926 3055.53,155.742 3056.41,165.564 3057.28,161.04 3058.15,154.757 3059.02,168.088 3059.89,164.681 3060.76,168.455 3061.64,175.668 3062.51,143.085 3063.38,176.502 3064.25,189.157 3065.12,159.558 3065.99,137.601 3066.86,178.635 3067.74,169.85 "/>
<path clip-path="url(#clip760)" d="M2649.78 693.754 L3052.62 693.754 L3052.62 590.074 L2649.78 590.074  Z" fill="#ffffff" fill-rule="evenodd" fill-opacity="1"/>
<polyline clip-path="url(#clip760)" style="stroke:#000000; stroke-linecap:round; stroke-linejoin:round; stroke-width:4; stroke-opacity:1; fill:none" points="2649.78,693.754 3052.62,693.754 3052.62,590.074 2649.78,590.074 2649.78,693.754 "/>
<polyline clip-path="url(#clip760)" style="stroke:#009af9; stroke-linecap:round; stroke-linejoin:round; stroke-width:2; stroke-opacity:1; fill:none" points="2683.16,641.914 2883.43,641.914 "/>
<path clip-path="url(#clip760)" d="M2916.81 624.634 L2921.49 624.634 L2921.49 638.801 L2938.48 638.801 L2938.48 624.634 L2943.15 624.634 L2943.15 659.194 L2938.48 659.194 L2938.48 642.736 L2921.49 642.736 L2921.49 659.194 L2916.81 659.194 L2916.81 624.634 Z" fill="#000000" fill-rule="evenodd" fill-opacity="1" /><path clip-path="url(#clip760)" d="M2952.46 624.634 L2959.43 624.634 L2968.25 648.153 L2977.11 624.634 L2984.08 624.634 L2984.08 659.194 L2979.52 659.194 L2979.52 628.847 L2970.61 652.551 L2965.91 652.551 L2957 628.847 L2957 659.194 L2952.46 659.194 L2952.46 624.634 Z" fill="#000000" fill-rule="evenodd" fill-opacity="1" /><path clip-path="url(#clip760)" d="M3019.24 627.296 L3019.24 632.227 Q3016.88 630.028 3014.2 628.94 Q3011.53 627.852 3008.52 627.852 Q3002.6 627.852 2999.45 631.486 Q2996.3 635.097 2996.3 641.949 Q2996.3 648.778 2999.45 652.412 Q3002.6 656.023 3008.52 656.023 Q3011.53 656.023 3014.2 654.935 Q3016.88 653.847 3019.24 651.648 L3019.24 656.532 Q3016.79 658.199 3014.03 659.032 Q3011.3 659.866 3008.25 659.866 Q3000.4 659.866 2995.89 655.074 Q2991.37 650.259 2991.37 641.949 Q2991.37 633.616 2995.89 628.824 Q3000.4 624.009 3008.25 624.009 Q3011.35 624.009 3014.08 624.843 Q3016.83 625.653 3019.24 627.296 Z" fill="#000000" fill-rule="evenodd" fill-opacity="1" /></svg>
