<?xml version="1.0" encoding="utf-8"?>
<svg xmlns="http://www.w3.org/2000/svg" xmlns:xlink="http://www.w3.org/1999/xlink" width="900" height="150" viewBox="0 0 3600 600">
<defs>
  <clipPath id="clip250">
    <rect x="0" y="0" width="3600" height="600"/>
  </clipPath>
</defs>
<path clip-path="url(#clip250)" d="M0 600 L3600 600 L3600 0 L0 0  Z" fill="#ffffff" fill-rule="evenodd" fill-opacity="1"/>
<defs>
  <clipPath id="clip251">
    <rect x="720" y="0" width="2521" height="600"/>
  </clipPath>
</defs>
<path clip-path="url(#clip250)" d="M124.177 522.368 L3552.76 522.368 L3552.76 47.2441 L124.177 47.2441  Z" fill="#ffffff" fill-rule="evenodd" fill-opacity="1"/>
<defs>
  <clipPath id="clip252">
    <rect x="124" y="47" width="3430" height="476"/>
  </clipPath>
</defs>
<polyline clip-path="url(#clip252)" style="stroke:#000000; stroke-linecap:round; stroke-linejoin:round; stroke-width:2; stroke-opacity:0.1; fill:none" points="219.604,522.368 219.604,47.2441 "/>
<polyline clip-path="url(#clip252)" style="stroke:#000000; stroke-linecap:round; stroke-linejoin:round; stroke-width:2; stroke-opacity:0.1; fill:none" points="1023.81,522.368 1023.81,47.2441 "/>
<polyline clip-path="url(#clip252)" style="stroke:#000000; stroke-linecap:round; stroke-linejoin:round; stroke-width:2; stroke-opacity:0.1; fill:none" points="1828.01,522.368 1828.01,47.2441 "/>
<polyline clip-path="url(#clip252)" style="stroke:#000000; stroke-linecap:round; stroke-linejoin:round; stroke-width:2; stroke-opacity:0.1; fill:none" points="2632.22,522.368 2632.22,47.2441 "/>
<polyline clip-path="url(#clip252)" style="stroke:#000000; stroke-linecap:round; stroke-linejoin:round; stroke-width:2; stroke-opacity:0.1; fill:none" points="3436.42,522.368 3436.42,47.2441 "/>
<polyline clip-path="url(#clip250)" style="stroke:#000000; stroke-linecap:round; stroke-linejoin:round; stroke-width:4; stroke-opacity:1; fill:none" points="124.177,522.368 3552.76,522.368 "/>
<polyline clip-path="url(#clip250)" style="stroke:#000000; stroke-linecap:round; stroke-linejoin:round; stroke-width:4; stroke-opacity:1; fill:none" points="219.604,522.368 219.604,503.47 "/>
<polyline clip-path="url(#clip250)" style="stroke:#000000; stroke-linecap:round; stroke-linejoin:round; stroke-width:4; stroke-opacity:1; fill:none" points="1023.81,522.368 1023.81,503.47 "/>
<polyline clip-path="url(#clip250)" style="stroke:#000000; stroke-linecap:round; stroke-linejoin:round; stroke-width:4; stroke-opacity:1; fill:none" points="1828.01,522.368 1828.01,503.47 "/>
<polyline clip-path="url(#clip250)" style="stroke:#000000; stroke-linecap:round; stroke-linejoin:round; stroke-width:4; stroke-opacity:1; fill:none" points="2632.22,522.368 2632.22,503.47 "/>
<polyline clip-path="url(#clip250)" style="stroke:#000000; stroke-linecap:round; stroke-linejoin:round; stroke-width:4; stroke-opacity:1; fill:none" points="3436.42,522.368 3436.42,503.47 "/>
<path clip-path="url(#clip250)" d="M219.604 562.887 Q215.993 562.887 214.164 566.451 Q212.359 569.993 212.359 577.123 Q212.359 584.229 214.164 587.794 Q215.993 591.335 219.604 591.335 Q223.238 591.335 225.044 587.794 Q226.872 584.229 226.872 577.123 Q226.872 569.993 225.044 566.451 Q223.238 562.887 219.604 562.887 M219.604 559.183 Q225.414 559.183 228.47 563.789 Q231.548 568.373 231.548 577.123 Q231.548 585.849 228.47 590.456 Q225.414 595.039 219.604 595.039 Q213.794 595.039 210.715 590.456 Q207.66 585.849 207.66 577.123 Q207.66 568.373 210.715 563.789 Q213.794 559.183 219.604 559.183 Z" fill="#000000" fill-rule="evenodd" fill-opacity="1" /><path clip-path="url(#clip250)" d="M983.426 559.808 L1001.78 559.808 L1001.78 563.743 L987.709 563.743 L987.709 572.215 Q988.727 571.868 989.746 571.706 Q990.764 571.521 991.783 571.521 Q997.57 571.521 1000.95 574.692 Q1004.33 577.863 1004.33 583.28 Q1004.33 588.859 1000.86 591.96 Q997.384 595.039 991.065 595.039 Q988.889 595.039 986.621 594.669 Q984.375 594.298 981.968 593.558 L981.968 588.859 Q984.051 589.993 986.273 590.548 Q988.496 591.104 990.972 591.104 Q994.977 591.104 997.315 588.998 Q999.653 586.891 999.653 583.28 Q999.653 579.669 997.315 577.562 Q994.977 575.456 990.972 575.456 Q989.097 575.456 987.223 575.873 Q985.371 576.289 983.426 577.169 L983.426 559.808 Z" fill="#000000" fill-rule="evenodd" fill-opacity="1" /><path clip-path="url(#clip250)" d="M1023.54 562.887 Q1019.93 562.887 1018.1 566.451 Q1016.3 569.993 1016.3 577.123 Q1016.3 584.229 1018.1 587.794 Q1019.93 591.335 1023.54 591.335 Q1027.18 591.335 1028.98 587.794 Q1030.81 584.229 1030.81 577.123 Q1030.81 569.993 1028.98 566.451 Q1027.18 562.887 1023.54 562.887 M1023.54 559.183 Q1029.35 559.183 1032.41 563.789 Q1035.49 568.373 1035.49 577.123 Q1035.49 585.849 1032.41 590.456 Q1029.35 595.039 1023.54 595.039 Q1017.73 595.039 1014.65 590.456 Q1011.6 585.849 1011.6 577.123 Q1011.6 568.373 1014.65 563.789 Q1017.73 559.183 1023.54 559.183 Z" fill="#000000" fill-rule="evenodd" fill-opacity="1" /><path clip-path="url(#clip250)" d="M1053.7 562.887 Q1050.09 562.887 1048.26 566.451 Q1046.46 569.993 1046.46 577.123 Q1046.46 584.229 1048.26 587.794 Q1050.09 591.335 1053.7 591.335 Q1057.34 591.335 1059.14 587.794 Q1060.97 584.229 1060.97 577.123 Q1060.97 569.993 1059.14 566.451 Q1057.34 562.887 1053.7 562.887 M1053.7 559.183 Q1059.51 559.183 1062.57 563.789 Q1065.65 568.373 1065.65 577.123 Q1065.65 585.849 1062.57 590.456 Q1059.51 595.039 1053.7 595.039 Q1047.89 595.039 1044.81 590.456 Q1041.76 585.849 1041.76 577.123 Q1041.76 568.373 1044.81 563.789 Q1047.89 559.183 1053.7 559.183 Z" fill="#000000" fill-rule="evenodd" fill-opacity="1" /><path clip-path="url(#clip250)" d="M1772.54 590.433 L1780.18 590.433 L1780.18 564.067 L1771.87 565.734 L1771.87 561.475 L1780.13 559.808 L1784.81 559.808 L1784.81 590.433 L1792.44 590.433 L1792.44 594.368 L1772.54 594.368 L1772.54 590.433 Z" fill="#000000" fill-rule="evenodd" fill-opacity="1" /><path clip-path="url(#clip250)" d="M1811.89 562.887 Q1808.28 562.887 1806.45 566.451 Q1804.64 569.993 1804.64 577.123 Q1804.64 584.229 1806.45 587.794 Q1808.28 591.335 1811.89 591.335 Q1815.52 591.335 1817.33 587.794 Q1819.16 584.229 1819.16 577.123 Q1819.16 569.993 1817.33 566.451 Q1815.52 562.887 1811.89 562.887 M1811.89 559.183 Q1817.7 559.183 1820.75 563.789 Q1823.83 568.373 1823.83 577.123 Q1823.83 585.849 1820.75 590.456 Q1817.7 595.039 1811.89 595.039 Q1806.08 595.039 1803 590.456 Q1799.94 585.849 1799.94 577.123 Q1799.94 568.373 1803 563.789 Q1806.08 559.183 1811.89 559.183 Z" fill="#000000" fill-rule="evenodd" fill-opacity="1" /><path clip-path="url(#clip250)" d="M1842.05 562.887 Q1838.44 562.887 1836.61 566.451 Q1834.81 569.993 1834.81 577.123 Q1834.81 584.229 1836.61 587.794 Q1838.44 591.335 1842.05 591.335 Q1845.69 591.335 1847.49 587.794 Q1849.32 584.229 1849.32 577.123 Q1849.32 569.993 1847.49 566.451 Q1845.69 562.887 1842.05 562.887 M1842.05 559.183 Q1847.86 559.183 1850.92 563.789 Q1854 568.373 1854 577.123 Q1854 585.849 1850.92 590.456 Q1847.86 595.039 1842.05 595.039 Q1836.24 595.039 1833.16 590.456 Q1830.11 585.849 1830.11 577.123 Q1830.11 568.373 1833.16 563.789 Q1836.24 559.183 1842.05 559.183 Z" fill="#000000" fill-rule="evenodd" fill-opacity="1" /><path clip-path="url(#clip250)" d="M1872.21 562.887 Q1868.6 562.887 1866.77 566.451 Q1864.97 569.993 1864.97 577.123 Q1864.97 584.229 1866.77 587.794 Q1868.6 591.335 1872.21 591.335 Q1875.85 591.335 1877.65 587.794 Q1879.48 584.229 1879.48 577.123 Q1879.48 569.993 1877.65 566.451 Q1875.85 562.887 1872.21 562.887 M1872.21 559.183 Q1878.02 559.183 1881.08 563.789 Q1884.16 568.373 1884.16 577.123 Q1884.16 585.849 1881.08 590.456 Q1878.02 595.039 1872.21 595.039 Q1866.4 595.039 1863.32 590.456 Q1860.27 585.849 1860.27 577.123 Q1860.27 568.373 1863.32 563.789 Q1866.4 559.183 1872.21 559.183 Z" fill="#000000" fill-rule="evenodd" fill-opacity="1" /><path clip-path="url(#clip250)" d="M2576.74 590.433 L2584.38 590.433 L2584.38 564.067 L2576.07 565.734 L2576.07 561.475 L2584.33 559.808 L2589.01 559.808 L2589.01 590.433 L2596.65 590.433 L2596.65 594.368 L2576.74 594.368 L2576.74 590.433 Z" fill="#000000" fill-rule="evenodd" fill-opacity="1" /><path clip-path="url(#clip250)" d="M2606.14 559.808 L2624.5 559.808 L2624.5 563.743 L2610.42 563.743 L2610.42 572.215 Q2611.44 571.868 2612.46 571.706 Q2613.48 571.521 2614.5 571.521 Q2620.28 571.521 2623.66 574.692 Q2627.04 577.863 2627.04 583.28 Q2627.04 588.859 2623.57 591.96 Q2620.1 595.039 2613.78 595.039 Q2611.6 595.039 2609.33 594.669 Q2607.09 594.298 2604.68 593.558 L2604.68 588.859 Q2606.76 589.993 2608.99 590.548 Q2611.21 591.104 2613.69 591.104 Q2617.69 591.104 2620.03 588.998 Q2622.37 586.891 2622.37 583.28 Q2622.37 579.669 2620.03 577.562 Q2617.69 575.456 2613.69 575.456 Q2611.81 575.456 2609.94 575.873 Q2608.08 576.289 2606.14 577.169 L2606.14 559.808 Z" fill="#000000" fill-rule="evenodd" fill-opacity="1" /><path clip-path="url(#clip250)" d="M2646.26 562.887 Q2642.64 562.887 2640.82 566.451 Q2639.01 569.993 2639.01 577.123 Q2639.01 584.229 2640.82 587.794 Q2642.64 591.335 2646.26 591.335 Q2649.89 591.335 2651.69 587.794 Q2653.52 584.229 2653.52 577.123 Q2653.52 569.993 2651.69 566.451 Q2649.89 562.887 2646.26 562.887 M2646.26 559.183 Q2652.07 559.183 2655.12 563.789 Q2658.2 568.373 2658.2 577.123 Q2658.2 585.849 2655.12 590.456 Q2652.07 595.039 2646.26 595.039 Q2640.44 595.039 2637.37 590.456 Q2634.31 585.849 2634.31 577.123 Q2634.31 568.373 2637.37 563.789 Q2640.44 559.183 2646.26 559.183 Z" fill="#000000" fill-rule="evenodd" fill-opacity="1" /><path clip-path="url(#clip250)" d="M2676.42 562.887 Q2672.81 562.887 2670.98 566.451 Q2669.17 569.993 2669.17 577.123 Q2669.17 584.229 2670.98 587.794 Q2672.81 591.335 2676.42 591.335 Q2680.05 591.335 2681.86 587.794 Q2683.69 584.229 2683.69 577.123 Q2683.69 569.993 2681.86 566.451 Q2680.05 562.887 2676.42 562.887 M2676.42 559.183 Q2682.23 559.183 2685.28 563.789 Q2688.36 568.373 2688.36 577.123 Q2688.36 585.849 2685.28 590.456 Q2682.23 595.039 2676.42 595.039 Q2670.61 595.039 2667.53 590.456 Q2664.47 585.849 2664.47 577.123 Q2664.47 568.373 2667.53 563.789 Q2670.61 559.183 2676.42 559.183 Z" fill="#000000" fill-rule="evenodd" fill-opacity="1" /><path clip-path="url(#clip250)" d="M3385.03 590.433 L3401.35 590.433 L3401.35 594.368 L3379.41 594.368 L3379.41 590.433 Q3382.07 587.678 3386.65 583.048 Q3391.26 578.396 3392.44 577.053 Q3394.68 574.53 3395.56 572.794 Q3396.47 571.035 3396.47 569.345 Q3396.47 566.59 3394.52 564.854 Q3392.6 563.118 3389.5 563.118 Q3387.3 563.118 3384.85 563.882 Q3382.42 564.646 3379.64 566.197 L3379.64 561.475 Q3382.46 560.34 3384.92 559.762 Q3387.37 559.183 3389.41 559.183 Q3394.78 559.183 3397.97 561.868 Q3401.17 564.553 3401.17 569.044 Q3401.17 571.174 3400.36 573.095 Q3399.57 574.993 3397.46 577.586 Q3396.88 578.257 3393.78 581.474 Q3390.68 584.669 3385.03 590.433 Z" fill="#000000" fill-rule="evenodd" fill-opacity="1" /><path clip-path="url(#clip250)" d="M3421.17 562.887 Q3417.55 562.887 3415.73 566.451 Q3413.92 569.993 3413.92 577.123 Q3413.92 584.229 3415.73 587.794 Q3417.55 591.335 3421.17 591.335 Q3424.8 591.335 3426.61 587.794 Q3428.43 584.229 3428.43 577.123 Q3428.43 569.993 3426.61 566.451 Q3424.8 562.887 3421.17 562.887 M3421.17 559.183 Q3426.98 559.183 3430.03 563.789 Q3433.11 568.373 3433.11 577.123 Q3433.11 585.849 3430.03 590.456 Q3426.98 595.039 3421.17 595.039 Q3415.36 595.039 3412.28 590.456 Q3409.22 585.849 3409.22 577.123 Q3409.22 568.373 3412.28 563.789 Q3415.36 559.183 3421.17 559.183 Z" fill="#000000" fill-rule="evenodd" fill-opacity="1" /><path clip-path="url(#clip250)" d="M3451.33 562.887 Q3447.72 562.887 3445.89 566.451 Q3444.08 569.993 3444.08 577.123 Q3444.08 584.229 3445.89 587.794 Q3447.72 591.335 3451.33 591.335 Q3454.96 591.335 3456.77 587.794 Q3458.6 584.229 3458.6 577.123 Q3458.6 569.993 3456.77 566.451 Q3454.96 562.887 3451.33 562.887 M3451.33 559.183 Q3457.14 559.183 3460.19 563.789 Q3463.27 568.373 3463.27 577.123 Q3463.27 585.849 3460.19 590.456 Q3457.14 595.039 3451.33 595.039 Q3445.52 595.039 3442.44 590.456 Q3439.38 585.849 3439.38 577.123 Q3439.38 568.373 3442.44 563.789 Q3445.52 559.183 3451.33 559.183 Z" fill="#000000" fill-rule="evenodd" fill-opacity="1" /><path clip-path="url(#clip250)" d="M3481.49 562.887 Q3477.88 562.887 3476.05 566.451 Q3474.24 569.993 3474.24 577.123 Q3474.24 584.229 3476.05 587.794 Q3477.88 591.335 3481.49 591.335 Q3485.12 591.335 3486.93 587.794 Q3488.76 584.229 3488.76 577.123 Q3488.76 569.993 3486.93 566.451 Q3485.12 562.887 3481.49 562.887 M3481.49 559.183 Q3487.3 559.183 3490.35 563.789 Q3493.43 568.373 3493.43 577.123 Q3493.43 585.849 3490.35 590.456 Q3487.3 595.039 3481.49 595.039 Q3475.68 595.039 3472.6 590.456 Q3469.54 585.849 3469.54 577.123 Q3469.54 568.373 3472.6 563.789 Q3475.68 559.183 3481.49 559.183 Z" fill="#000000" fill-rule="evenodd" fill-opacity="1" /><polyline clip-path="url(#clip252)" style="stroke:#000000; stroke-linecap:round; stroke-linejoin:round; stroke-width:2; stroke-opacity:0.1; fill:none" points="124.177,522.368 3552.76,522.368 "/>
<polyline clip-path="url(#clip252)" style="stroke:#000000; stroke-linecap:round; stroke-linejoin:round; stroke-width:2; stroke-opacity:0.1; fill:none" points="124.177,454.493 3552.76,454.493 "/>
<polyline clip-path="url(#clip252)" style="stroke:#000000; stroke-linecap:round; stroke-linejoin:round; stroke-width:2; stroke-opacity:0.1; fill:none" points="124.177,386.618 3552.76,386.618 "/>
<polyline clip-path="url(#clip252)" style="stroke:#000000; stroke-linecap:round; stroke-linejoin:round; stroke-width:2; stroke-opacity:0.1; fill:none" points="124.177,318.743 3552.76,318.743 "/>
<polyline clip-path="url(#clip252)" style="stroke:#000000; stroke-linecap:round; stroke-linejoin:round; stroke-width:2; stroke-opacity:0.1; fill:none" points="124.177,250.869 3552.76,250.869 "/>
<polyline clip-path="url(#clip252)" style="stroke:#000000; stroke-linecap:round; stroke-linejoin:round; stroke-width:2; stroke-opacity:0.1; fill:none" points="124.177,182.994 3552.76,182.994 "/>
<polyline clip-path="url(#clip252)" style="stroke:#000000; stroke-linecap:round; stroke-linejoin:round; stroke-width:2; stroke-opacity:0.1; fill:none" points="124.177,115.119 3552.76,115.119 "/>
<polyline clip-path="url(#clip252)" style="stroke:#000000; stroke-linecap:round; stroke-linejoin:round; stroke-width:2; stroke-opacity:0.1; fill:none" points="124.177,47.2441 3552.76,47.2441 "/>
<polyline clip-path="url(#clip250)" style="stroke:#000000; stroke-linecap:round; stroke-linejoin:round; stroke-width:4; stroke-opacity:1; fill:none" points="124.177,522.368 124.177,47.2441 "/>
<polyline clip-path="url(#clip250)" style="stroke:#000000; stroke-linecap:round; stroke-linejoin:round; stroke-width:4; stroke-opacity:1; fill:none" points="124.177,522.368 143.075,522.368 "/>
<polyline clip-path="url(#clip250)" style="stroke:#000000; stroke-linecap:round; stroke-linejoin:round; stroke-width:4; stroke-opacity:1; fill:none" points="124.177,454.493 143.075,454.493 "/>
<polyline clip-path="url(#clip250)" style="stroke:#000000; stroke-linecap:round; stroke-linejoin:round; stroke-width:4; stroke-opacity:1; fill:none" points="124.177,386.618 143.075,386.618 "/>
<polyline clip-path="url(#clip250)" style="stroke:#000000; stroke-linecap:round; stroke-linejoin:round; stroke-width:4; stroke-opacity:1; fill:none" points="124.177,318.743 143.075,318.743 "/>
<polyline clip-path="url(#clip250)" style="stroke:#000000; stroke-linecap:round; stroke-linejoin:round; stroke-width:4; stroke-opacity:1; fill:none" points="124.177,250.869 143.075,250.869 "/>
<polyline clip-path="url(#clip250)" style="stroke:#000000; stroke-linecap:round; stroke-linejoin:round; stroke-width:4; stroke-opacity:1; fill:none" points="124.177,182.994 143.075,182.994 "/>
<polyline clip-path="url(#clip250)" style="stroke:#000000; stroke-linecap:round; stroke-linejoin:round; stroke-width:4; stroke-opacity:1; fill:none" points="124.177,115.119 143.075,115.119 "/>
<polyline clip-path="url(#clip250)" style="stroke:#000000; stroke-linecap:round; stroke-linejoin:round; stroke-width:4; stroke-opacity:1; fill:none" points="124.177,47.2441 143.075,47.2441 "/>
<path clip-path="url(#clip250)" d="M50.2699 535.713 L57.9087 535.713 L57.9087 509.347 L49.5986 511.014 L49.5986 506.755 L57.8624 505.088 L62.5383 505.088 L62.5383 535.713 L70.1772 535.713 L70.1772 539.648 L50.2699 539.648 L50.2699 535.713 Z" fill="#000000" fill-rule="evenodd" fill-opacity="1" /><path clip-path="url(#clip250)" d="M53.8578 467.838 L70.1772 467.838 L70.1772 471.773 L48.2328 471.773 L48.2328 467.838 Q50.8949 465.083 55.4782 460.454 Q60.0846 455.801 61.2652 454.458 Q63.5105 451.935 64.3902 450.199 Q65.2929 448.44 65.2929 446.75 Q65.2929 443.995 63.3485 442.259 Q61.4272 440.523 58.3254 440.523 Q56.1263 440.523 53.6726 441.287 Q51.2421 442.051 48.4643 443.602 L48.4643 438.88 Q51.2884 437.745 53.7421 437.167 Q56.1958 436.588 58.2328 436.588 Q63.6031 436.588 66.7976 439.273 Q69.992 441.958 69.992 446.449 Q69.992 448.579 69.1818 450.5 Q68.3948 452.398 66.2883 454.991 Q65.7096 455.662 62.6078 458.88 Q59.5059 462.074 53.8578 467.838 Z" fill="#000000" fill-rule="evenodd" fill-opacity="1" /><path clip-path="url(#clip250)" d="M63.0476 385.264 Q66.404 385.982 68.279 388.25 Q70.1772 390.519 70.1772 393.852 Q70.1772 398.968 66.6587 401.769 Q63.1402 404.57 56.6587 404.57 Q54.4828 404.57 52.168 404.13 Q49.8764 403.713 47.4227 402.857 L47.4227 398.343 Q49.3671 399.477 51.6819 400.056 Q53.9967 400.634 56.5198 400.634 Q60.918 400.634 63.2096 398.898 Q65.5244 397.162 65.5244 393.852 Q65.5244 390.796 63.3717 389.083 Q61.242 387.347 57.4226 387.347 L53.3949 387.347 L53.3949 383.505 L57.6078 383.505 Q61.0569 383.505 62.8855 382.139 Q64.7142 380.75 64.7142 378.158 Q64.7142 375.496 62.8161 374.084 Q60.9411 372.648 57.4226 372.648 Q55.5013 372.648 53.3023 373.065 Q51.1032 373.482 48.4643 374.361 L48.4643 370.195 Q51.1264 369.454 53.4412 369.084 Q55.7791 368.713 57.8393 368.713 Q63.1633 368.713 66.2652 371.144 Q69.367 373.551 69.367 377.672 Q69.367 380.542 67.7235 382.533 Q66.08 384.5 63.0476 385.264 Z" fill="#000000" fill-rule="evenodd" fill-opacity="1" /><path clip-path="url(#clip250)" d="M60.5939 305.537 L48.7884 323.986 L60.5939 323.986 L60.5939 305.537 M59.367 301.463 L65.2466 301.463 L65.2466 323.986 L70.1772 323.986 L70.1772 327.875 L65.2466 327.875 L65.2466 336.023 L60.5939 336.023 L60.5939 327.875 L44.9921 327.875 L44.9921 323.361 L59.367 301.463 Z" fill="#000000" fill-rule="evenodd" fill-opacity="1" /><path clip-path="url(#clip250)" d="M49.2745 233.589 L67.6309 233.589 L67.6309 237.524 L53.5569 237.524 L53.5569 245.996 Q54.5754 245.649 55.5939 245.487 Q56.6124 245.301 57.6309 245.301 Q63.418 245.301 66.7976 248.473 Q70.1772 251.644 70.1772 257.061 Q70.1772 262.639 66.705 265.741 Q63.2328 268.82 56.9134 268.82 Q54.7374 268.82 52.4689 268.449 Q50.2236 268.079 47.8162 267.338 L47.8162 262.639 Q49.8995 263.774 52.1217 264.329 Q54.3439 264.885 56.8208 264.885 Q60.8254 264.885 63.1633 262.778 Q65.5013 260.672 65.5013 257.061 Q65.5013 253.45 63.1633 251.343 Q60.8254 249.237 56.8208 249.237 Q54.9458 249.237 53.0708 249.653 Q51.2189 250.07 49.2745 250.95 L49.2745 233.589 Z" fill="#000000" fill-rule="evenodd" fill-opacity="1" /><path clip-path="url(#clip250)" d="M58.6495 181.13 Q55.5013 181.13 53.6495 183.283 Q51.8208 185.436 51.8208 189.186 Q51.8208 192.913 53.6495 195.089 Q55.5013 197.241 58.6495 197.241 Q61.7976 197.241 63.6263 195.089 Q65.4781 192.913 65.4781 189.186 Q65.4781 185.436 63.6263 183.283 Q61.7976 181.13 58.6495 181.13 M67.9318 166.478 L67.9318 170.737 Q66.1726 169.904 64.367 169.464 Q62.5846 169.024 60.8254 169.024 Q56.1958 169.024 53.7421 172.149 Q51.3115 175.274 50.9643 181.593 Q52.33 179.579 54.3902 178.515 Q56.4504 177.427 58.9272 177.427 Q64.1355 177.427 67.1448 180.598 Q70.1772 183.746 70.1772 189.186 Q70.1772 194.51 67.029 197.727 Q63.8809 200.945 58.6495 200.945 Q52.6541 200.945 49.4828 196.362 Q46.3116 191.755 46.3116 183.028 Q46.3116 174.834 50.2004 169.973 Q54.0893 165.089 60.6402 165.089 Q62.3994 165.089 64.1818 165.436 Q65.9874 165.783 67.9318 166.478 Z" fill="#000000" fill-rule="evenodd" fill-opacity="1" /><path clip-path="url(#clip250)" d="M47.9551 97.8389 L70.1772 97.8389 L70.1772 99.8297 L57.6309 132.399 L52.7467 132.399 L64.5522 101.774 L47.9551 101.774 L47.9551 97.8389 Z" fill="#000000" fill-rule="evenodd" fill-opacity="1" /><path clip-path="url(#clip250)" d="M58.3254 48.1121 Q54.9921 48.1121 53.0708 49.8945 Q51.1726 51.6769 51.1726 54.8019 Q51.1726 57.9269 53.0708 59.7093 Q54.9921 61.4917 58.3254 61.4917 Q61.6587 61.4917 63.58 59.7093 Q65.5013 57.9038 65.5013 54.8019 Q65.5013 51.6769 63.58 49.8945 Q61.6819 48.1121 58.3254 48.1121 M53.6495 46.1214 Q50.6402 45.3807 48.9504 43.3205 Q47.2838 41.2603 47.2838 38.2974 Q47.2838 34.1539 50.2236 31.7465 Q53.1865 29.3391 58.3254 29.3391 Q63.4874 29.3391 66.4272 31.7465 Q69.367 34.1539 69.367 38.2974 Q69.367 41.2603 67.6772 43.3205 Q66.0105 45.3807 63.0244 46.1214 Q66.404 46.9084 68.279 49.2001 Q70.1772 51.4918 70.1772 54.8019 Q70.1772 59.825 67.0985 62.5102 Q64.0429 65.1954 58.3254 65.1954 Q52.6078 65.1954 49.5291 62.5102 Q46.4736 59.825 46.4736 54.8019 Q46.4736 51.4918 48.3717 49.2001 Q50.2699 46.9084 53.6495 46.1214 M51.9365 38.7372 Q51.9365 41.4224 53.6032 42.927 Q55.293 44.4316 58.3254 44.4316 Q61.3346 44.4316 63.0244 42.927 Q64.7374 41.4224 64.7374 38.7372 Q64.7374 36.052 63.0244 34.5474 Q61.3346 33.0428 58.3254 33.0428 Q55.293 33.0428 53.6032 34.5474 Q51.9365 36.052 51.9365 38.7372 Z" fill="#000000" fill-rule="evenodd" fill-opacity="1" /><polyline clip-path="url(#clip252)" style="stroke:#009af9; stroke-linecap:round; stroke-linejoin:round; stroke-width:2; stroke-opacity:1; fill:none" points="221.212,458.542 222.821,453.578 224.429,448.092 226.038,320.592 227.646,332.03 229.254,301.121 230.863,305.585 232.471,313.337 234.08,338.696 235.688,317.738 237.297,296.247 238.905,191.466 240.513,192.093 242.122,183.42 243.73,191.786 245.339,178.715 246.947,186.252 248.555,189.233 250.164,312.716 251.772,323.797 253.381,336.933 254.989,459.125 256.597,456.54 258.206,460.172 259.814,313.312 261.423,315.517 263.031,178.501 264.639,160.745 266.248,159.009 267.856,157.991 269.465,198.954 271.073,314.42 272.681,179.666 274.29,178.421 275.898,177.305 277.507,177.317 279.115,321.087 280.724,328.464 282.332,323.356 283.94,322.032 285.549,316.449 287.157,187.896 288.766,191.121 290.374,183.454 291.982,195.633 293.591,179.341 295.199,176.944 296.808,171.12 298.416,170.081 300.024,187.399 301.633,182.163 303.241,186.001 304.85,181.896 306.458,188.941 308.066,202.025 309.675,191.109 311.283,191.276 312.892,196.983 314.5,300.428 316.108,316.859 317.717,308.785 319.325,304.444 320.934,308.167 322.542,175.702 324.151,182.946 325.759,187.259 327.367,171.936 328.976,169.041 330.584,166.149 332.193,173.262 333.801,182.189 335.409,185.247 337.018,188.766 338.626,181.763 340.235,183.231 341.843,182.042 343.451,188.629 345.06,201.138 346.668,177.381 348.277,186.427 349.885,164.087 351.493,186.087 353.102,175.09 354.71,176.141 356.319,179.392 357.927,181.099 359.536,182.48 361.144,183.4 362.752,324.378 364.361,328.477 365.969,306.824 367.578,326.028 369.186,325.711 370.794,336.163 372.403,212.344 374.011,188.278 375.62,166.854 377.228,199.221 378.836,180.523 380.445,173.995 382.053,181.618 383.662,175.551 385.27,181.033 386.878,175.105 388.487,171.639 390.095,179.555 391.704,187.375 393.312,183.534 394.92,186.103 396.529,187.915 398.137,190.279 399.746,172.746 401.354,187.373 402.963,182.08 404.571,182.839 406.179,316.491 407.788,330.276 409.396,184.189 411.005,184.439 412.613,300.183 414.221,179.594 415.83,196.556 417.438,169.914 419.047,195.68 420.655,168.159 422.263,162.192 423.872,175.013 425.48,180.868 427.089,182.497 428.697,182.319 430.305,177.684 431.914,172.275 433.522,168.962 435.131,188.09 436.739,192.807 438.347,177.772 439.956,175.838 441.564,189.818 443.173,183.51 444.781,185.396 446.39,186.073 447.998,173.373 449.606,172.152 451.215,175.595 452.823,178.831 454.432,191.838 456.04,184.124 457.648,181.861 459.257,184.145 460.865,179.632 462.474,175.084 464.082,189.398 465.69,177.063 467.299,180.56 468.907,161.61 470.516,185.586 472.124,191.739 473.732,191.508 475.341,185.747 476.949,177.64 478.558,184.465 480.166,325.544 481.774,317.917 483.383,316.627 484.991,469.249 486.6,437.594 488.208,439.996 489.817,330.687 491.425,310.425 493.033,324.895 494.642,320.357 496.25,189.504 497.859,173.041 499.467,189.938 501.075,316.517 502.684,320.514 504.292,324.618 505.901,329.657 507.509,308.562 509.117,323.23 510.726,303.616 512.334,453.942 513.943,447.71 515.551,454.024 517.159,450.445 518.768,451.175 520.376,307.929 521.985,184.742 523.593,181.959 525.202,188.923 526.81,195.326 528.418,184.327 530.027,178.778 531.635,317.725 533.244,309.483 534.852,181.301 536.46,322.097 538.069,311.298 539.677,453.496 541.286,456.154 542.894,455.185 544.502,441.785 546.111,458.084 547.719,325.703 549.328,461.419 550.936,461.827 552.544,314.016 554.153,324.184 555.761,317.835 557.37,317.894 558.978,461.742 560.586,447.035 562.195,453.005 563.803,445.014 565.412,455.659 567.02,453.329 568.629,312.952 570.237,451.433 571.845,311.822 573.454,176.169 575.062,316.379 576.671,319.035 578.279,319.825 579.887,186.238 581.496,193.704 583.104,174.62 584.713,191.959 586.321,189.381 587.929,184.574 589.538,205.787 591.146,179.978 592.755,174.64 594.363,184.58 595.971,170.7 597.58,173.627 599.188,179.676 600.797,174.296 602.405,178.623 604.013,178.225 605.622,185.161 607.23,198.325 608.839,189.301 610.447,188.274 612.056,315.169 613.664,311.281 615.272,317.401 616.881,310.05 618.489,318.176 620.098,304.139 621.706,175.698 623.314,187.347 624.923,177.234 626.531,163.878 628.14,194.127 629.748,179.89 631.356,182.869 632.965,174.357 634.573,201.411 636.182,184.548 637.79,169.063 639.398,182.817 641.007,183.432 642.615,182.533 644.224,174.225 645.832,192.653 647.441,178.923 649.049,179.723 650.657,183.433 652.266,187.517 653.874,185.317 655.483,178.903 657.091,179.768 658.699,183.426 660.308,192.621 661.916,176.108 663.525,198.293 665.133,173.294 666.741,183.439 668.35,174.296 669.958,183.512 671.567,179.559 673.175,327.632 674.783,179.846 676.392,180.885 678,185.458 679.609,192.783 681.217,174.327 682.825,187.669 684.434,184.069 686.042,205.233 687.651,162.736 689.259,168.047 690.868,177.021 692.476,179.044 694.084,313.923 695.693,319.054 697.301,325.923 698.91,310.807 700.518,175.252 702.126,190.816 703.735,177.496 705.343,177.386 706.952,182.523 708.56,185.467 710.168,190.611 711.777,180.554 713.385,191.483 714.994,178.25 716.602,310.954 718.21,314.827 719.819,187.631 721.427,181.21 723.036,312.605 724.644,320.065 726.252,312.448 727.861,323.367 729.469,192.435 731.078,198.259 732.686,149.091 734.295,167.034 735.903,314.461 737.511,300.208 739.12,313.932 740.728,327.873 742.337,319.379 743.945,321.882 745.553,319.489 747.162,187.347 748.77,191.402 750.379,199.102 751.987,198.503 753.595,307.829 755.204,319.657 756.812,315.574 758.421,182.785 760.029,188.426 761.637,197.637 763.246,180.134 764.854,180.944 766.463,168.872 768.071,186.473 769.68,176.671 771.288,178.808 772.896,178.064 774.505,180.998 776.113,173.694 777.722,189.522 779.33,177.661 780.938,178.491 782.547,179.329 784.155,171.343 785.764,172.125 787.372,175.989 788.98,179.106 790.589,190.025 792.197,173.237 793.806,180.743 795.414,181.318 797.022,170.108 798.631,199.126 800.239,191.542 801.848,188.087 803.456,201.57 805.064,304.37 806.673,169.518 808.281,186.288 809.89,176.557 811.498,192.855 813.107,308.922 814.715,315.525 816.323,190.523 817.932,193.853 819.54,194.258 821.149,190.483 822.757,185.191 824.365,191.634 825.974,179.785 827.582,194.753 829.191,178.629 830.799,184.947 832.407,191.104 834.016,195.699 835.624,194.283 837.233,301.558 838.841,181.812 840.449,181.567 842.058,300.898 843.666,181.267 845.275,189.196 846.883,324.934 848.491,338.339 850.1,176.979 851.708,182.872 853.317,329.324 854.925,322.879 856.534,319.803 858.142,323.287 859.75,190.971 861.359,182.224 862.967,185.566 864.576,168.735 866.184,178.109 867.792,175.256 869.401,181.064 871.009,185.446 872.618,184.441 874.226,191.273 875.834,175.278 877.443,185.474 879.051,193.592 880.66,176.015 882.268,184.993 883.876,198.525 885.485,188.472 887.093,178.258 888.702,316.543 890.31,306.997 891.919,327.71 893.527,327.143 895.135,178.058 896.744,181.716 898.352,183.032 899.961,184.416 901.569,311.782 903.177,325.455 904.786,319.472 906.394,323.772 908.003,321.583 909.611,323.018 911.219,328.248 912.828,189.797 914.436,182.044 916.045,180.212 917.653,183.783 919.261,181.52 920.87,191.139 922.478,173.969 924.087,190.92 925.695,178.083 927.303,176.857 928.912,170.792 930.52,172.984 932.129,175.345 933.737,183.156 935.346,177.048 936.954,186.776 938.562,195.457 940.171,328.745 941.779,309.354 943.388,320.984 944.996,327.473 946.604,307.257 948.213,186.428 949.821,187.241 951.43,182.851 953.038,179.645 954.646,187.4 956.255,182.156 957.863,186.654 959.472,180.993 961.08,185.071 962.688,185.427 964.297,177.098 965.905,163.997 967.514,184.566 969.122,178.88 970.73,178.123 972.339,184.341 973.947,180.077 975.556,190.84 977.164,191.924 978.773,317.423 980.381,315.64 981.989,177.315 983.598,191.168 985.206,200.657 986.815,190.937 988.423,200.304 990.031,322.89 991.64,322.025 993.248,186.043 994.857,175.625 996.465,181.122 998.073,178.422 999.682,192.044 1001.29,185.328 1002.9,181.967 1004.51,175.239 1006.12,177.666 1007.72,181.204 1009.33,196.653 1010.94,176.774 1012.55,171.873 1014.16,170.712 1015.77,186.241 1017.37,181.243 1018.98,183.707 1020.59,320.371 1022.2,317.681 1023.81,326.732 1025.42,317.27 1027.02,325.723 1028.63,195.202 1030.24,181.935 1031.85,176.839 1033.46,190.372 1035.07,176.196 1036.68,177.957 1038.28,173.055 1039.89,318.91 1041.5,312.247 1043.11,323.852 1044.72,318.212 1046.33,454.511 1047.93,443.003 1049.54,438.837 1051.15,332.18 1052.76,318.983 1054.37,313.482 1055.98,452.948 1057.58,462.117 1059.19,439.796 1060.8,331.603 1062.41,304.295 1064.02,324.886 1065.63,297.696 1067.23,307.814 1068.84,321.131 1070.45,206.003 1072.06,173.01 1073.67,182.365 1075.28,181.896 1076.89,175.595 1078.49,188.941 1080.1,184.431 1081.71,188.467 1083.32,186.315 1084.93,176.155 1086.54,183.911 1088.14,189.701 1089.75,180.642 1091.36,176.964 1092.97,184.012 1094.58,189.665 1096.19,336.781 1097.79,329.476 1099.4,323.608 1101.01,329.228 1102.62,305.068 1104.23,320.555 1105.84,304.842 1107.45,184.277 1109.05,181.317 1110.66,296.865 1112.27,180.376 1113.88,183.618 1115.49,190.665 1117.1,186.534 1118.7,194.516 1120.31,313.587 1121.92,318.466 1123.53,309.693 1125.14,326.579 1126.75,321.042 1128.35,171.903 1129.96,198.043 1131.57,174.38 1133.18,191.198 1134.79,181.099 1136.4,193.878 1138,198.792 1139.61,196.459 1141.22,171.653 1142.83,186.256 1144.44,184.95 1146.05,183.356 1147.66,184.234 1149.26,194.291 1150.87,169.052 1152.48,173.44 1154.09,179.942 1155.7,195.643 1157.31,189.729 1158.91,180.872 1160.52,178.382 1162.13,181.741 1163.74,320.01 1165.35,318.557 1166.96,306.929 1168.56,312.308 1170.17,188.757 1171.78,176.106 1173.39,188.235 1175,179.857 1176.61,174.874 1178.22,199.133 1179.82,194.692 1181.43,178.643 1183.04,180.309 1184.65,178.314 1186.26,204.113 1187.87,191.401 1189.47,190.999 1191.08,178.719 1192.69,192.462 1194.3,192.726 1195.91,296.094 1197.52,177.999 1199.12,190.722 1200.73,187.868 1202.34,178.872 1203.95,173.768 1205.56,179.581 1207.17,186.994 1208.77,183.037 1210.38,185.719 1211.99,184.462 1213.6,178.259 1215.21,192.863 1216.82,179.296 1218.43,190.554 1220.03,183.618 1221.64,199.65 1223.25,201.17 1224.86,434.926 1226.47,436.202 1228.08,341.036 1229.68,300.549 1231.29,185.153 1232.9,185.851 1234.51,328.179 1236.12,311.374 1237.73,173.968 1239.33,177.634 1240.94,191.471 1242.55,190.986 1244.16,173.666 1245.77,183.064 1247.38,178.439 1248.99,179.571 1250.59,197.702 1252.2,174.906 1253.81,184.395 1255.42,182.818 1257.03,196.226 1258.64,175.695 1260.24,176.344 1261.85,187.78 1263.46,172.813 1265.07,185.756 1266.68,187.786 1268.29,189.119 1269.89,175.955 1271.5,176.177 1273.11,196.713 1274.72,190.944 1276.33,167.594 1277.94,172.469 1279.54,184.3 1281.15,172.664 1282.76,173.78 1284.37,174.533 1285.98,186.009 1287.59,191.982 1289.2,304.25 1290.8,307.806 1292.41,318.6 1294.02,317.289 1295.63,304.723 1297.24,321.762 1298.85,460.595 1300.45,447.328 1302.06,469.042 1303.67,467.37 1305.28,332.372 1306.89,313.784 1308.5,339.839 1310.1,444.598 1311.71,451.774 1313.32,454.869 1314.93,453.982 1316.54,462.38 1318.15,460.113 1319.76,444.408 1321.36,454.373 1322.97,462.16 1324.58,332.555 1326.19,181.221 1327.8,191.398 1329.41,164.872 1331.01,300.736 1332.62,327.322 1334.23,181.822 1335.84,186.819 1337.45,191.613 1339.06,176.733 1340.66,186.144 1342.27,198.91 1343.88,167.88 1345.49,201.566 1347.1,303.582 1348.71,323.164 1350.31,305.167 1351.92,308.609 1353.53,314.927 1355.14,285.161 1356.75,334.54 1358.36,310.894 1359.97,317.124 1361.57,316.24 1363.18,316.087 1364.79,311.649 1366.4,324.559 1368.01,314.23 1369.62,321.867 1371.22,319.463 1372.83,448.116 1374.44,457.736 1376.05,451.4 1377.66,459.108 1379.27,322.955 1380.87,315.662 1382.48,320.868 1384.09,320.352 1385.7,323.116 1387.31,321.138 1388.92,329.877 1390.52,319.414 1392.13,189.921 1393.74,167.795 1395.35,200.074 1396.96,177.775 1398.57,186.32 1400.18,173.514 1401.78,181.48 1403.39,178.859 1405,186.526 1406.61,191.055 1408.22,306.451 1409.83,179.577 1411.43,195.459 1413.04,171.868 1414.65,168.423 1416.26,185.328 1417.87,312.818 1419.48,313.979 1421.08,312.949 1422.69,181.133 1424.3,307.15 1425.91,180.667 1427.52,178.692 1429.13,173.915 1430.74,202.463 1432.34,202.474 1433.95,163.683 1435.56,202.59 1437.17,199.558 1438.78,167.956 1440.39,180.571 1441.99,194.112 1443.6,168.535 1445.21,171.34 1446.82,187.802 1448.43,197.379 1450.04,182.093 1451.64,179.912 1453.25,177.449 1454.86,179.772 1456.47,173.162 1458.08,183.185 1459.69,173.77 1461.29,181.76 1462.9,182.424 1464.51,187.296 1466.12,201.775 1467.73,178.128 1469.34,175.182 1470.95,171.061 1472.55,186.354 1474.16,197.409 1475.77,183.67 1477.38,177.634 1478.99,183.031 1480.6,178.21 1482.2,187.18 1483.81,177.817 1485.42,187.715 1487.03,179.852 1488.64,202.807 1490.25,172.884 1491.85,190.263 1493.46,181.579 1495.07,185.742 1496.68,176.503 1498.29,187.021 1499.9,184.151 1501.51,194.345 1503.11,174.985 1504.72,195.598 1506.33,195.211 1507.94,174.928 1509.55,180.232 1511.16,172.351 1512.76,176.141 1514.37,179.659 1515.98,180.737 1517.59,187.884 1519.2,177.586 1520.81,196.664 1522.41,197.683 1524.02,312.796 1525.63,323.044 1527.24,318.709 1528.85,316.894 1530.46,317.069 1532.06,320.272 1533.67,314.347 1535.28,181.81 1536.89,195.522 1538.5,313.952 1540.11,320.716 1541.72,326.501 1543.32,317.322 1544.93,332.399 1546.54,333.449 1548.15,445.987 1549.76,451.571 1551.37,454.326 1552.97,451.39 1554.58,463.509 1556.19,316.75 1557.8,314.254 1559.41,307.882 1561.02,319.625 1562.62,320.282 1564.23,190.166 1565.84,182.277 1567.45,171.899 1569.06,178.234 1570.67,303.579 1572.28,312.827 1573.88,184.803 1575.49,181.562 1577.1,176.705 1578.71,177.886 1580.32,181.276 1581.93,177.351 1583.53,171.427 1585.14,190.91 1586.75,324.286 1588.36,306.664 1589.97,329.221 1591.58,164.465 1593.18,173.949 1594.79,196.2 1596.4,174.361 1598.01,176.222 1599.62,191.328 1601.23,183.657 1602.83,317.914 1604.44,308.6 1606.05,181.173 1607.66,183.293 1609.27,200.373 1610.88,319.086 1612.49,300.039 1614.09,315.814 1615.7,316.715 1617.31,329.094 1618.92,311.438 1620.53,308.717 1622.14,317.339 1623.74,321.892 1625.35,182.632 1626.96,190.949 1628.57,188.543 1630.18,180.524 1631.79,191.778 1633.39,170.56 1635,188.806 1636.61,179.088 1638.22,168.421 1639.83,168.062 1641.44,196.21 1643.04,189.157 1644.65,176.345 1646.26,183.225 1647.87,169.105 1649.48,187.844 1651.09,173.754 1652.7,174.926 1654.3,174.705 1655.91,181.044 1657.52,178.598 1659.13,175.518 1660.74,183.514 1662.35,320.999 1663.95,326.968 1665.56,198.935 1667.17,307.553 1668.78,305.198 1670.39,193.617 1672,176.9 1673.6,300.384 1675.21,311.842 1676.82,317.231 1678.43,327.159 1680.04,463.626 1681.65,457.154 1683.26,453.616 1684.86,451.179 1686.47,323.51 1688.08,313.767 1689.69,316.109 1691.3,324.909 1692.91,329.427 1694.51,305.73 1696.12,313.203 1697.73,325.824 1699.34,327.319 1700.95,322.583 1702.56,320.739 1704.16,183.467 1705.77,309.096 1707.38,331.098 1708.99,317.85 1710.6,322.577 1712.21,314.545 1713.81,313.902 1715.42,179.751 1717.03,186.684 1718.64,181.035 1720.25,175.808 1721.86,175.422 1723.47,175.851 1725.07,188.651 1726.68,300.516 1728.29,323.81 1729.9,314.868 1731.51,335.403 1733.12,179.142 1734.72,322.526 1736.33,451.121 1737.94,312.742 1739.55,184.449 1741.16,183.202 1742.77,321.573 1744.37,314.159 1745.98,310.478 1747.59,319.947 1749.2,324.162 1750.81,318.026 1752.42,317.617 1754.03,325.739 1755.63,302.741 1757.24,329.764 1758.85,448.087 1760.46,323.318 1762.07,320.505 1763.68,319.928 1765.28,321.391 1766.89,310.541 1768.5,312.951 1770.11,321.124 1771.72,309.031 1773.33,322.666 1774.93,193.598 1776.54,190.65 1778.15,176.001 1779.76,189.755 1781.37,309.57 1782.98,325.845 1784.58,329.936 1786.19,315.865 1787.8,334.804 1789.41,312.294 1791.02,456.68 1792.63,454.617 1794.24,465.133 1795.84,448.31 1797.45,309.885 1799.06,302.479 1800.67,321.44 1802.28,321.106 1803.89,443.928 1805.49,468.324 1807.1,466.777 1808.71,320.14 1810.32,317.92 1811.93,324.407 1813.54,320.574 1815.14,309.279 1816.75,317.629 1818.36,182.369 1819.97,188.702 1821.58,319.258 1823.19,318.175 1824.8,323.944 1826.4,189.403 1828.01,196.586 1829.62,170.833 1831.23,193.013 1832.84,184.094 1834.45,306.485 1836.05,321.246 1837.66,452.639 1839.27,323.577 1840.88,324.027 1842.49,322.613 1844.1,310.604 1845.7,325.738 1847.31,312.733 1848.92,310.56 1850.53,311.029 1852.14,458.013 1853.75,456.605 1855.35,439.822 1856.96,453.069 1858.57,447.859 1860.18,454.732 1861.79,327.624 1863.4,173.543 1865.01,188.947 1866.61,178.109 1868.22,199.143 1869.83,190.377 1871.44,187.169 1873.05,176.598 1874.66,179.748 1876.26,177.849 1877.87,336.657 1879.48,460.825 1881.09,311.553 1882.7,326.253 1884.31,314.085 1885.91,324.939 1887.52,329.551 1889.13,314.966 1890.74,456.054 1892.35,322.78 1893.96,456.681 1895.57,453.435 1897.17,455.333 1898.78,464.653 1900.39,442.671 1902,468.742 1903.61,471.221 1905.22,467.559 1906.82,463.263 1908.43,444.321 1910.04,458.423 1911.65,445.004 1913.26,319.355 1914.87,324.945 1916.47,316.045 1918.08,178.52 1919.69,171.511 1921.3,178.426 1922.91,192.546 1924.52,176.494 1926.12,181.706 1927.73,325.001 1929.34,311.362 1930.95,303.977 1932.56,308.786 1934.17,322.711 1935.78,182.561 1937.38,170.525 1938.99,184.943 1940.6,176.612 1942.21,163.402 1943.82,193.095 1945.43,173.813 1947.03,179.597 1948.64,328.748 1950.25,305.346 1951.86,198.817 1953.47,310.803 1955.08,316.81 1956.68,312.587 1958.29,322.848 1959.9,175.602 1961.51,180.954 1963.12,182.682 1964.73,170.852 1966.33,185.857 1967.94,195.891 1969.55,169.619 1971.16,194.846 1972.77,186.726 1974.38,176.169 1975.99,311.51 1977.59,328.662 1979.2,322.311 1980.81,323.644 1982.42,322.212 1984.03,324.742 1985.64,317.462 1987.24,320.416 1988.85,323.645 1990.46,323.275 1992.07,180.961 1993.68,183.363 1995.29,190.301 1996.89,185.645 1998.5,187.357 2000.11,191.604 2001.72,173.296 2003.33,187.726 2004.94,163.954 2006.55,335.445 2008.15,322.856 2009.76,305.301 2011.37,193.787 2012.98,191.2 2014.59,184.479 2016.2,192.826 2017.8,174.023 2019.41,182.393 2021.02,184.463 2022.63,185.701 2024.24,179.181 2025.85,180.763 2027.45,191.799 2029.06,191.499 2030.67,173.461 2032.28,168.719 2033.89,184.093 2035.5,183.998 2037.1,315.692 2038.71,189.246 2040.32,175.663 2041.93,189.81 2043.54,170.932 2045.15,188.388 2046.76,168.484 2048.36,174.718 2049.97,190.795 2051.58,174.953 2053.19,180.442 2054.8,186.312 2056.41,172.778 2058.01,186.456 2059.62,183.419 2061.23,188.093 2062.84,170.773 2064.45,177.965 2066.06,188.4 2067.66,181.759 2069.27,182.086 2070.88,178.467 2072.49,183.866 2074.1,308.84 2075.71,198.328 2077.32,306.134 2078.92,450.103 2080.53,448.454 2082.14,462.731 2083.75,464.307 2085.36,463.133 2086.97,446.59 2088.57,327.319 2090.18,307.086 2091.79,328.634 2093.4,327.354 2095.01,325.393 2096.62,314.246 2098.22,195.194 2099.83,177.67 2101.44,180.925 2103.05,181.041 2104.66,186.807 2106.27,309.032 2107.87,313.645 2109.48,322.483 2111.09,316.851 2112.7,336.086 2114.31,334.357 2115.92,325.542 2117.53,329.09 2119.13,317.38 2120.74,322.449 2122.35,190.694 2123.96,175.22 2125.57,195.439 2127.18,177.365 2128.78,177.843 2130.39,308.931 2132,309.498 2133.61,307.131 2135.22,322.891 2136.83,194.516 2138.43,185.118 2140.04,195.375 2141.65,323.003 2143.26,327.99 2144.87,186.207 2146.48,177.324 2148.09,175.487 2149.69,178 2151.3,174.488 2152.91,165.183 2154.52,172.89 2156.13,164.029 2157.74,196.216 2159.34,196.541 2160.95,194.183 2162.56,335.594 2164.17,165.988 2165.78,203.603 2167.39,190.795 2168.99,188.058 2170.6,199.434 2172.21,168.369 2173.82,183.539 2175.43,191.382 2177.04,171.787 2178.64,190.714 2180.25,187.022 2181.86,191.942 2183.47,183.329 2185.08,190.859 2186.69,185.64 2188.3,181.938 2189.9,325.8 2191.51,320.469 2193.12,338.686 2194.73,164.079 2196.34,200.595 2197.95,309.907 2199.55,321.898 2201.16,329.506 2202.77,316.282 2204.38,319.445 2205.99,317.683 2207.6,196.557 2209.2,170.195 2210.81,185.996 2212.42,177.327 2214.03,184.246 2215.64,185.743 2217.25,172.298 2218.86,186.186 2220.46,174.59 2222.07,185.181 2223.68,183.345 2225.29,177.48 2226.9,179.783 2228.51,179.479 2230.11,185.84 2231.72,187.495 2233.33,176.923 2234.94,181.318 2236.55,179.565 2238.16,186.809 2239.76,175.574 2241.37,196.872 2242.98,192.769 2244.59,185.402 2246.2,181.388 2247.81,173.298 2249.41,182.739 2251.02,184.01 2252.63,172.728 2254.24,176.864 2255.85,189.568 2257.46,166.236 2259.07,167.253 2260.67,181.199 2262.28,190.847 2263.89,171.365 2265.5,192.572 2267.11,168.717 2268.72,302.71 2270.32,159.473 2271.93,161.369 2273.54,178.297 2275.15,189.009 2276.76,189.686 2278.37,186.859 2279.97,168.119 2281.58,188.571 2283.19,189.475 2284.8,172.759 2286.41,187.434 2288.02,177.875 2289.62,186.56 2291.23,187.575 2292.84,182.664 2294.45,174.715 2296.06,169.342 2297.67,169.514 2299.28,162.97 2300.88,194.413 2302.49,172.173 2304.1,178.336 2305.71,187.789 2307.32,185.89 2308.93,167.601 2310.53,159.057 2312.14,297.041 2313.75,207.952 2315.36,307.634 2316.97,312.109 2318.58,321.509 2320.18,190.903 2321.79,189.842 2323.4,179.109 2325.01,184.114 2326.62,306.808 2328.23,304.552 2329.84,332.215 2331.44,192.555 2333.05,190.676 2334.66,188.33 2336.27,183.826 2337.88,170.428 2339.49,176.782 2341.09,174.409 2342.7,185.547 2344.31,192.682 2345.92,187.125 2347.53,180.928 2349.14,312.868 2350.74,316.924 2352.35,176.19 2353.96,312.055 2355.57,325.361 2357.18,313.608 2358.79,300.191 2360.39,332.228 2362,312.851 2363.61,306.933 2365.22,317.066 2366.83,314.878 2368.44,191.969 2370.05,177.646 2371.65,178.714 2373.26,315.146 2374.87,299.834 2376.48,334.076 2378.09,446.227 2379.7,321.326 2381.3,326.375 2382.91,314.392 2384.52,322.653 2386.13,326.646 2387.74,311.474 2389.35,310.798 2390.95,311.412 2392.56,320.027 2394.17,320.614 2395.78,323.743 2397.39,322.074 2399,316.057 2400.61,311.524 2402.21,173.271 2403.82,185.782 2405.43,183.814 2407.04,179.45 2408.65,181.704 2410.26,193.374 2411.86,199.469 2413.47,202.051 2415.08,168.743 2416.69,189.861 2418.3,190.013 2419.91,188.637 2421.51,180.044 2423.12,187.541 2424.73,190.451 2426.34,193.556 2427.95,179.826 2429.56,177.22 2431.16,192.309 2432.77,181.061 2434.38,189.993 2435.99,198.405 2437.6,182.095 2439.21,165.146 2440.82,193.303 2442.42,183.974 2444.03,310.201 2445.64,315.601 2447.25,187.241 2448.86,187.654 2450.47,185.692 2452.07,188.252 2453.68,179.603 2455.29,173.835 2456.9,319.44 2458.51,318.542 2460.12,303.749 2461.72,195.8 2463.33,179.407 2464.94,192.251 2466.55,180.266 2468.16,171.506 2469.77,175.736 2471.38,180.131 2472.98,192.972 2474.59,197.04 2476.2,325.927 2477.81,305.335 2479.42,188.622 2481.03,183.05 2482.63,324.815 2484.24,327.266 2485.85,191.816 2487.46,190.548 2489.07,184.091 2490.68,168.595 2492.28,177.127 2493.89,185.404 2495.5,323.695 2497.11,182.605 2498.72,187.463 2500.33,170.732 2501.93,186.268 2503.54,195.823 2505.15,196.567 2506.76,181.855 2508.37,186.226 2509.98,174.805 2511.59,195.304 2513.19,163.125 2514.8,168.715 2516.41,189.903 2518.02,200.519 2519.63,185.255 2521.24,169.385 2522.84,174.854 2524.45,194.118 2526.06,172.523 2527.67,321.741 2529.28,185.688 2530.89,187.223 2532.49,169.817 2534.1,204.99 2535.71,296.205 2537.32,338.473 2538.93,305.748 2540.54,328.375 2542.14,179.489 2543.75,186.212 2545.36,179.425 2546.97,176.566 2548.58,169.519 2550.19,177.76 2551.8,180.259 2553.4,198.425 2555.01,186.694 2556.62,180.423 2558.23,197.833 2559.84,187.833 2561.45,188.79 2563.05,178.495 2564.66,189.314 2566.27,165.723 2567.88,187.304 2569.49,189.458 2571.1,191.49 2572.7,177.825 2574.31,190.105 2575.92,199.367 2577.53,322.168 2579.14,324.835 2580.75,306.044 2582.36,325.042 2583.96,317.217 2585.57,325.412 2587.18,440.98 2588.79,318.943 2590.4,323.715 2592.01,330.832 2593.61,187.803 2595.22,168.085 2596.83,200.176 2598.44,179.159 2600.05,174.533 2601.66,195.899 2603.26,331.633 2604.87,327.256 2606.48,313.869 2608.09,306.019 2609.7,328.369 2611.31,318.328 2612.91,308.543 2614.52,317.559 2616.13,323.221 2617.74,320.521 2619.35,317.607 2620.96,322.641 2622.57,320.656 2624.17,326.068 2625.78,313.398 2627.39,310.646 2629,332.74 2630.61,318.253 2632.22,317.333 2633.82,312.96 2635.43,197.911 2637.04,197.09 2638.65,197.007 2640.26,168.62 2641.87,182.316 2643.47,187.685 2645.08,176.757 2646.69,190.006 2648.3,168.782 2649.91,160.367 2651.52,178.647 2653.13,188.682 2654.73,185.071 2656.34,185.437 2657.95,178.594 2659.56,199.635 2661.17,319.682 2662.78,306.001 2664.38,336.089 2665.99,326.54 2667.6,458.702 2669.21,333.143 2670.82,330.742 2672.43,444.299 2674.03,457.947 2675.64,452.621 2677.25,180.69 2678.86,180.439 2680.47,175.895 2682.08,184.777 2683.68,197.164 2685.29,180.363 2686.9,182.103 2688.51,181.239 2690.12,175.778 2691.73,177.756 2693.34,189.983 2694.94,195.913 2696.55,195.561 2698.16,190.657 2699.77,181.275 2701.38,181.146 2702.99,175.076 2704.59,192.233 2706.2,186.229 2707.81,182.409 2709.42,182.595 2711.03,323.827 2712.64,309.506 2714.24,321.771 2715.85,179.441 2717.46,171.056 2719.07,197.246 2720.68,177.341 2722.29,315.299 2723.9,196.021 2725.5,179.706 2727.11,190.745 2728.72,180.084 2730.33,197.254 2731.94,194.729 2733.55,175.914 2735.15,174.88 2736.76,187.899 2738.37,182.526 2739.98,185.967 2741.59,175.777 2743.2,187.98 2744.8,319.648 2746.41,186.711 2748.02,187.082 2749.63,189.624 2751.24,176.407 2752.85,172.611 2754.45,179.024 2756.06,184.498 2757.67,179.788 2759.28,186 2760.89,185.051 2762.5,199.236 2764.11,311.998 2765.71,328.247 2767.32,336.259 2768.93,181.978 2770.54,179.994 2772.15,168.263 2773.76,177.343 2775.36,170.592 2776.97,164.799 2778.58,166.968 2780.19,175.067 2781.8,173.267 2783.41,195.78 2785.01,182.686 2786.62,190.77 2788.23,317.377 2789.84,320.649 2791.45,325.584 2793.06,185.323 2794.67,179.363 2796.27,180.886 2797.88,178.613 2799.49,183.723 2801.1,171.705 2802.71,180.222 2804.32,179.318 2805.92,189.533 2807.53,182.943 2809.14,171.173 2810.75,185.691 2812.36,180.542 2813.97,184.937 2815.57,175.601 2817.18,177.397 2818.79,184.856 2820.4,183.769 2822.01,195.094 2823.62,183.349 2825.22,175.043 2826.83,191.009 2828.44,193.405 2830.05,177.514 2831.66,185.854 2833.27,177.173 2834.88,324.424 2836.48,177.743 2838.09,187.928 2839.7,169.861 2841.31,175.155 2842.92,182.432 2844.53,197.044 2846.13,166.989 2847.74,175.365 2849.35,174.765 2850.96,170.13 2852.57,197.883 2854.18,192.727 2855.78,169.797 2857.39,179.85 2859,181.375 2860.61,170.508 2862.22,192.506 2863.83,303.968 2865.43,318.598 2867.04,319.62 2868.65,178.644 2870.26,179.605 2871.87,189.716 2873.48,186.956 2875.09,189.665 2876.69,317.96 2878.3,320.063 2879.91,322.204 2881.52,314.112 2883.13,314.426 2884.74,313.039 2886.34,466.564 2887.95,329.493 2889.56,326.202 2891.17,315.603 2892.78,315.832 2894.39,179.78 2895.99,181.638 2897.6,190.546 2899.21,168.448 2900.82,308.622 2902.43,175.419 2904.04,328.872 2905.65,308.863 2907.25,327.39 2908.86,335.365 2910.47,333.335 2912.08,322.338 2913.69,318.922 2915.3,311.801 2916.9,316.619 2918.51,322.06 2920.12,191.886 2921.73,320.399 2923.34,317.637 2924.95,310.061 2926.55,309.367 2928.16,323.932 2929.77,318.202 2931.38,319.366 2932.99,316.261 2934.6,324.093 2936.2,306.399 2937.81,176.156 2939.42,196.979 2941.03,191.208 2942.64,192.662 2944.25,182.241 2945.86,185.568 2947.46,187.723 2949.07,190.029 2950.68,182.099 2952.29,179.113 2953.9,310.688 2955.51,320.336 2957.11,314.041 2958.72,311.064 2960.33,300.451 2961.94,169.257 2963.55,173.981 2965.16,180.705 2966.76,194.764 2968.37,175.818 2969.98,170.718 2971.59,175.295 2973.2,193.614 2974.81,177.519 2976.42,172.78 2978.02,185.958 2979.63,166.19 2981.24,192.52 2982.85,181.305 2984.46,178.011 2986.07,191.043 2987.67,172.593 2989.28,179.754 2990.89,181.686 2992.5,317.977 2994.11,324.078 2995.72,330.678 2997.32,324.844 2998.93,189.223 3000.54,196.165 3002.15,173.54 3003.76,170.197 3005.37,316.22 3006.97,310.501 3008.58,197.959 3010.19,190.978 3011.8,190.091 3013.41,315.336 3015.02,321.549 3016.63,311.814 3018.23,316.319 3019.84,329.288 3021.45,196.611 3023.06,181.423 3024.67,191.541 3026.28,174.677 3027.88,181.03 3029.49,187.39 3031.1,181.831 3032.71,185.821 3034.32,174.743 3035.93,189.708 3037.53,175.021 3039.14,307.827 3040.75,315.606 3042.36,192.778 3043.97,185.401 3045.58,187.538 3047.19,309.565 3048.79,324.018 3050.4,324.228 3052.01,325.46 3053.62,188.795 3055.23,188.751 3056.84,172.632 3058.44,162.553 3060.05,159.109 3061.66,178.144 3063.27,182.645 3064.88,168.378 3066.49,192.15 3068.09,173.554 3069.7,179.096 3071.31,179.494 3072.92,175.443 3074.53,191.144 3076.14,178.623 3077.74,179.445 3079.35,193.354 3080.96,196.767 3082.57,303.733 3084.18,303.402 3085.79,318.28 3087.4,198.355 3089,181.891 3090.61,169.798 3092.22,166.951 3093.83,184.333 3095.44,174.571 3097.05,185.389 3098.65,172.003 3100.26,182.735 3101.87,190.161 3103.48,185.601 3105.09,302.807 3106.7,329.136 3108.3,167.924 3109.91,192.729 3111.52,181.225 3113.13,193.488 3114.74,180.615 3116.35,207.294 3117.96,208.165 3119.56,212.327 3121.17,212.06 3122.78,203.113 3124.39,178.358 3126,317.748 3127.61,330.955 3129.21,444.72 3130.82,310.42 3132.43,318.858 3134.04,305.504 3135.65,315.104 3137.26,306.621 3138.86,315.773 3140.47,319.705 3142.08,321.689 3143.69,313.019 3145.3,323.972 3146.91,322.706 3148.51,445.397 3150.12,323.287 3151.73,331.127 3153.34,182.437 3154.95,172.095 3156.56,311.957 3158.17,186.491 3159.77,183.826 3161.38,179.698 3162.99,192.868 3164.6,185.509 3166.21,301.471 3167.82,195.884 3169.42,202.014 3171.03,213.714 3172.64,296.79 3174.25,318.627 3175.86,332.464 3177.47,311.267 3179.07,186.307 3180.68,172.465 3182.29,177.152 3183.9,314.307 3185.51,322.655 3187.12,182.385 3188.72,176.936 3190.33,190.64 3191.94,174.771 3193.55,178.87 3195.16,180.577 3196.77,333.17 3198.38,177.32 3199.98,170.754 3201.59,190.366 3203.2,312.31 3204.81,320.847 3206.42,169.108 3208.03,186.189 3209.63,190.242 3211.24,178.043 3212.85,168.648 3214.46,183.03 3216.07,178.765 3217.68,191.059 3219.28,177.503 3220.89,176.318 3222.5,184.982 3224.11,314.753 3225.72,329.437 3227.33,186.301 3228.94,176.579 3230.54,181.737 3232.15,300.279 3233.76,173.555 3235.37,195.494 3236.98,199.134 3238.59,186.187 3240.19,199.381 3241.8,188.262 3243.41,183.62 3245.02,328.632 3246.63,301.622 3248.24,332.746 3249.84,306.832 3251.45,196.655 3253.06,173.708 3254.67,187.856 3256.28,320.848 3257.89,322.647 3259.49,306.47 3261.1,171.952 3262.71,184.949 3264.32,186.551 3265.93,178.752 3267.54,171.004 3269.15,195.88 3270.75,306.515 3272.36,332.318 3273.97,313.549 3275.58,300.08 3277.19,173.977 3278.8,183.351 3280.4,191.483 3282.01,193.985 3283.62,183.621 3285.23,185.578 3286.84,174.354 3288.45,166.751 3290.05,190.678 3291.66,191.799 3293.27,193.818 3294.88,183.402 3296.49,175.748 3298.1,184.125 3299.71,186.474 3301.31,186.286 3302.92,180.699 3304.53,184.973 3306.14,178.346 3307.75,180.799 3309.36,189.716 3310.96,191.861 3312.57,176.751 3314.18,170.987 3315.79,194.566 3317.4,305.923 3319.01,199.756 3320.61,183.786 3322.22,174.679 3323.83,180.634 3325.44,194.262 3327.05,188.915 3328.66,187.564 3330.26,178.696 3331.87,176.538 3333.48,177.632 3335.09,173.885 3336.7,197.165 3338.31,196.739 3339.92,174.187 3341.52,186.472 3343.13,182.586 3344.74,189.757 3346.35,188.685 3347.96,158.786 3349.57,179.844 3351.17,180.86 3352.78,175.6 3354.39,202.474 3356,165.246 3357.61,187.701 3359.22,178.391 3360.82,191.572 3362.43,190.463 3364.04,168.735 3365.65,323.818 3367.26,310.294 3368.87,323.15 3370.48,314.797 3372.08,177.035 3373.69,194.757 3375.3,175.364 3376.91,328.068 3378.52,173.299 3380.13,175.384 3381.73,171.545 3383.34,177.761 3384.95,186.762 3386.56,180.628 3388.17,170.287 3389.78,173.978 3391.38,186.895 3392.99,183.552 3394.6,177.478 3396.21,187.192 3397.82,178.46 3399.43,174.252 3401.03,194.348 3402.64,176.92 3404.25,310.429 3405.86,323.193 3407.47,321.05 3409.08,316.105 3410.69,441.58 3412.29,333.495 3413.9,314.32 3415.51,324.4 3417.12,441.854 3418.73,452.393 3420.34,466.686 3421.94,469.854 3423.55,450.745 3425.16,327.642 3426.77,325.802 3428.38,330.044 3429.99,319.398 3431.59,196.055 3433.2,180.15 3434.81,182.696 3436.42,173.283 3438.03,168.753 3439.64,166.732 3441.24,186.829 3442.85,188.639 3444.46,192.855 3446.07,172.892 3447.68,192.993 3449.29,178.008 3450.9,192.985 3452.5,194.125 3454.11,186.004 3455.72,174.871 "/>
<path clip-path="url(#clip250)" d="M3000.54 166.762 L3438.47 166.762 L3438.47 63.0816 L3000.54 63.0816  Z" fill="#ffffff" fill-rule="evenodd" fill-opacity="1"/>
<polyline clip-path="url(#clip250)" style="stroke:#000000; stroke-linecap:round; stroke-linejoin:round; stroke-width:4; stroke-opacity:1; fill:none" points="3000.54,166.762 3438.47,166.762 3438.47,63.0816 3000.54,63.0816 3000.54,166.762 "/>
<polyline clip-path="url(#clip250)" style="stroke:#009af9; stroke-linecap:round; stroke-linejoin:round; stroke-width:2; stroke-opacity:1; fill:none" points="3038.64,114.922 3267.21,114.922 "/>
<path clip-path="url(#clip250)" d="M3321.69 115.998 Q3323.2 116.507 3324.61 118.174 Q3326.05 119.841 3327.48 122.757 L3332.23 132.202 L3327.2 132.202 L3322.78 123.336 Q3321.07 119.864 3319.45 118.729 Q3317.85 117.595 3315.07 117.595 L3309.98 117.595 L3309.98 132.202 L3305.31 132.202 L3305.31 97.6416 L3315.86 97.6416 Q3321.79 97.6416 3324.7 100.118 Q3327.62 102.595 3327.62 107.595 Q3327.62 110.859 3326.09 113.012 Q3324.59 115.165 3321.69 115.998 M3309.98 101.484 L3309.98 113.753 L3315.86 113.753 Q3319.24 113.753 3320.95 112.202 Q3322.69 110.628 3322.69 107.595 Q3322.69 104.563 3320.95 103.035 Q3319.24 101.484 3315.86 101.484 L3309.98 101.484 Z" fill="#000000" fill-rule="evenodd" fill-opacity="1" /><path clip-path="url(#clip250)" d="M3347.87 102.248 L3341.53 119.447 L3354.24 119.447 L3347.87 102.248 M3345.24 97.6416 L3350.54 97.6416 L3363.71 132.202 L3358.85 132.202 L3355.7 123.336 L3340.12 123.336 L3336.97 132.202 L3332.04 132.202 L3345.24 97.6416 Z" fill="#000000" fill-rule="evenodd" fill-opacity="1" /><path clip-path="url(#clip250)" d="M3368.75 97.6416 L3375.72 97.6416 L3384.54 121.16 L3393.41 97.6416 L3400.37 97.6416 L3400.37 132.202 L3395.81 132.202 L3395.81 101.854 L3386.9 125.558 L3382.2 125.558 L3373.29 101.854 L3373.29 132.202 L3368.75 132.202 L3368.75 97.6416 Z" fill="#000000" fill-rule="evenodd" fill-opacity="1" /></svg>
