<?xml version="1.0" encoding="utf-8"?>
<svg xmlns="http://www.w3.org/2000/svg" xmlns:xlink="http://www.w3.org/1999/xlink" width="900" height="150" viewBox="0 0 3600 600">
<defs>
  <clipPath id="clip750">
    <rect x="0" y="0" width="3600" height="600"/>
  </clipPath>
</defs>
<path clip-path="url(#clip750)" d="M0 600 L3600 600 L3600 0 L0 0  Z" fill="#ffffff" fill-rule="evenodd" fill-opacity="1"/>
<defs>
  <clipPath id="clip751">
    <rect x="720" y="0" width="2521" height="600"/>
  </clipPath>
</defs>
<path clip-path="url(#clip750)" d="M124.177 522.368 L3552.76 522.368 L3552.76 47.2441 L124.177 47.2441  Z" fill="#ffffff" fill-rule="evenodd" fill-opacity="1"/>
<defs>
  <clipPath id="clip752">
    <rect x="124" y="47" width="3430" height="476"/>
  </clipPath>
</defs>
<polyline clip-path="url(#clip752)" style="stroke:#000000; stroke-linecap:round; stroke-linejoin:round; stroke-width:2; stroke-opacity:0.1; fill:none" points="220.036,522.368 220.036,47.2441 "/>
<polyline clip-path="url(#clip752)" style="stroke:#000000; stroke-linecap:round; stroke-linejoin:round; stroke-width:2; stroke-opacity:0.1; fill:none" points="808.342,522.368 808.342,47.2441 "/>
<polyline clip-path="url(#clip752)" style="stroke:#000000; stroke-linecap:round; stroke-linejoin:round; stroke-width:2; stroke-opacity:0.1; fill:none" points="1396.65,522.368 1396.65,47.2441 "/>
<polyline clip-path="url(#clip752)" style="stroke:#000000; stroke-linecap:round; stroke-linejoin:round; stroke-width:2; stroke-opacity:0.1; fill:none" points="1984.95,522.368 1984.95,47.2441 "/>
<polyline clip-path="url(#clip752)" style="stroke:#000000; stroke-linecap:round; stroke-linejoin:round; stroke-width:2; stroke-opacity:0.1; fill:none" points="2573.26,522.368 2573.26,47.2441 "/>
<polyline clip-path="url(#clip752)" style="stroke:#000000; stroke-linecap:round; stroke-linejoin:round; stroke-width:2; stroke-opacity:0.1; fill:none" points="3161.57,522.368 3161.57,47.2441 "/>
<polyline clip-path="url(#clip750)" style="stroke:#000000; stroke-linecap:round; stroke-linejoin:round; stroke-width:4; stroke-opacity:1; fill:none" points="124.177,522.368 3552.76,522.368 "/>
<polyline clip-path="url(#clip750)" style="stroke:#000000; stroke-linecap:round; stroke-linejoin:round; stroke-width:4; stroke-opacity:1; fill:none" points="220.036,522.368 220.036,503.47 "/>
<polyline clip-path="url(#clip750)" style="stroke:#000000; stroke-linecap:round; stroke-linejoin:round; stroke-width:4; stroke-opacity:1; fill:none" points="808.342,522.368 808.342,503.47 "/>
<polyline clip-path="url(#clip750)" style="stroke:#000000; stroke-linecap:round; stroke-linejoin:round; stroke-width:4; stroke-opacity:1; fill:none" points="1396.65,522.368 1396.65,503.47 "/>
<polyline clip-path="url(#clip750)" style="stroke:#000000; stroke-linecap:round; stroke-linejoin:round; stroke-width:4; stroke-opacity:1; fill:none" points="1984.95,522.368 1984.95,503.47 "/>
<polyline clip-path="url(#clip750)" style="stroke:#000000; stroke-linecap:round; stroke-linejoin:round; stroke-width:4; stroke-opacity:1; fill:none" points="2573.26,522.368 2573.26,503.47 "/>
<polyline clip-path="url(#clip750)" style="stroke:#000000; stroke-linecap:round; stroke-linejoin:round; stroke-width:4; stroke-opacity:1; fill:none" points="3161.57,522.368 3161.57,503.47 "/>
<path clip-path="url(#clip750)" d="M220.036 562.887 Q216.425 562.887 214.596 566.451 Q212.79 569.993 212.79 577.123 Q212.79 584.229 214.596 587.794 Q216.425 591.335 220.036 591.335 Q223.67 591.335 225.476 587.794 Q227.304 584.229 227.304 577.123 Q227.304 569.993 225.476 566.451 Q223.67 562.887 220.036 562.887 M220.036 559.183 Q225.846 559.183 228.902 563.789 Q231.98 568.373 231.98 577.123 Q231.98 585.849 228.902 590.456 Q225.846 595.039 220.036 595.039 Q214.226 595.039 211.147 590.456 Q208.091 585.849 208.091 577.123 Q208.091 568.373 211.147 563.789 Q214.226 559.183 220.036 559.183 Z" fill="#000000" fill-rule="evenodd" fill-opacity="1" /><path clip-path="url(#clip750)" d="M767.96 559.808 L786.317 559.808 L786.317 563.743 L772.243 563.743 L772.243 572.215 Q773.261 571.868 774.28 571.706 Q775.298 571.521 776.317 571.521 Q782.104 571.521 785.483 574.692 Q788.863 577.863 788.863 583.28 Q788.863 588.859 785.391 591.96 Q781.919 595.039 775.599 595.039 Q773.423 595.039 771.155 594.669 Q768.909 594.298 766.502 593.558 L766.502 588.859 Q768.585 589.993 770.808 590.548 Q773.03 591.104 775.507 591.104 Q779.511 591.104 781.849 588.998 Q784.187 586.891 784.187 583.28 Q784.187 579.669 781.849 577.562 Q779.511 575.456 775.507 575.456 Q773.632 575.456 771.757 575.873 Q769.905 576.289 767.96 577.169 L767.96 559.808 Z" fill="#000000" fill-rule="evenodd" fill-opacity="1" /><path clip-path="url(#clip750)" d="M808.076 562.887 Q804.465 562.887 802.636 566.451 Q800.831 569.993 800.831 577.123 Q800.831 584.229 802.636 587.794 Q804.465 591.335 808.076 591.335 Q811.71 591.335 813.516 587.794 Q815.344 584.229 815.344 577.123 Q815.344 569.993 813.516 566.451 Q811.71 562.887 808.076 562.887 M808.076 559.183 Q813.886 559.183 816.942 563.789 Q820.02 568.373 820.02 577.123 Q820.02 585.849 816.942 590.456 Q813.886 595.039 808.076 595.039 Q802.266 595.039 799.187 590.456 Q796.132 585.849 796.132 577.123 Q796.132 568.373 799.187 563.789 Q802.266 559.183 808.076 559.183 Z" fill="#000000" fill-rule="evenodd" fill-opacity="1" /><path clip-path="url(#clip750)" d="M838.238 562.887 Q834.627 562.887 832.798 566.451 Q830.992 569.993 830.992 577.123 Q830.992 584.229 832.798 587.794 Q834.627 591.335 838.238 591.335 Q841.872 591.335 843.678 587.794 Q845.506 584.229 845.506 577.123 Q845.506 569.993 843.678 566.451 Q841.872 562.887 838.238 562.887 M838.238 559.183 Q844.048 559.183 847.104 563.789 Q850.182 568.373 850.182 577.123 Q850.182 585.849 847.104 590.456 Q844.048 595.039 838.238 595.039 Q832.428 595.039 829.349 590.456 Q826.293 585.849 826.293 577.123 Q826.293 568.373 829.349 563.789 Q832.428 559.183 838.238 559.183 Z" fill="#000000" fill-rule="evenodd" fill-opacity="1" /><path clip-path="url(#clip750)" d="M1341.17 590.433 L1348.81 590.433 L1348.81 564.067 L1340.5 565.734 L1340.5 561.475 L1348.77 559.808 L1353.44 559.808 L1353.44 590.433 L1361.08 590.433 L1361.08 594.368 L1341.17 594.368 L1341.17 590.433 Z" fill="#000000" fill-rule="evenodd" fill-opacity="1" /><path clip-path="url(#clip750)" d="M1380.53 562.887 Q1376.91 562.887 1375.09 566.451 Q1373.28 569.993 1373.28 577.123 Q1373.28 584.229 1375.09 587.794 Q1376.91 591.335 1380.53 591.335 Q1384.16 591.335 1385.97 587.794 Q1387.79 584.229 1387.79 577.123 Q1387.79 569.993 1385.97 566.451 Q1384.16 562.887 1380.53 562.887 M1380.53 559.183 Q1386.34 559.183 1389.39 563.789 Q1392.47 568.373 1392.47 577.123 Q1392.47 585.849 1389.39 590.456 Q1386.34 595.039 1380.53 595.039 Q1374.72 595.039 1371.64 590.456 Q1368.58 585.849 1368.58 577.123 Q1368.58 568.373 1371.64 563.789 Q1374.72 559.183 1380.53 559.183 Z" fill="#000000" fill-rule="evenodd" fill-opacity="1" /><path clip-path="url(#clip750)" d="M1410.69 562.887 Q1407.08 562.887 1405.25 566.451 Q1403.44 569.993 1403.44 577.123 Q1403.44 584.229 1405.25 587.794 Q1407.08 591.335 1410.69 591.335 Q1414.32 591.335 1416.13 587.794 Q1417.96 584.229 1417.96 577.123 Q1417.96 569.993 1416.13 566.451 Q1414.32 562.887 1410.69 562.887 M1410.69 559.183 Q1416.5 559.183 1419.55 563.789 Q1422.63 568.373 1422.63 577.123 Q1422.63 585.849 1419.55 590.456 Q1416.5 595.039 1410.69 595.039 Q1404.88 595.039 1401.8 590.456 Q1398.74 585.849 1398.74 577.123 Q1398.74 568.373 1401.8 563.789 Q1404.88 559.183 1410.69 559.183 Z" fill="#000000" fill-rule="evenodd" fill-opacity="1" /><path clip-path="url(#clip750)" d="M1440.85 562.887 Q1437.24 562.887 1435.41 566.451 Q1433.6 569.993 1433.6 577.123 Q1433.6 584.229 1435.41 587.794 Q1437.24 591.335 1440.85 591.335 Q1444.48 591.335 1446.29 587.794 Q1448.12 584.229 1448.12 577.123 Q1448.12 569.993 1446.29 566.451 Q1444.48 562.887 1440.85 562.887 M1440.85 559.183 Q1446.66 559.183 1449.72 563.789 Q1452.79 568.373 1452.79 577.123 Q1452.79 585.849 1449.72 590.456 Q1446.66 595.039 1440.85 595.039 Q1435.04 595.039 1431.96 590.456 Q1428.91 585.849 1428.91 577.123 Q1428.91 568.373 1431.96 563.789 Q1435.04 559.183 1440.85 559.183 Z" fill="#000000" fill-rule="evenodd" fill-opacity="1" /><path clip-path="url(#clip750)" d="M1929.48 590.433 L1937.12 590.433 L1937.12 564.067 L1928.81 565.734 L1928.81 561.475 L1937.07 559.808 L1941.75 559.808 L1941.75 590.433 L1949.39 590.433 L1949.39 594.368 L1929.48 594.368 L1929.48 590.433 Z" fill="#000000" fill-rule="evenodd" fill-opacity="1" /><path clip-path="url(#clip750)" d="M1958.88 559.808 L1977.23 559.808 L1977.23 563.743 L1963.16 563.743 L1963.16 572.215 Q1964.18 571.868 1965.2 571.706 Q1966.22 571.521 1967.24 571.521 Q1973.02 571.521 1976.4 574.692 Q1979.78 577.863 1979.78 583.28 Q1979.78 588.859 1976.31 591.96 Q1972.84 595.039 1966.52 595.039 Q1964.34 595.039 1962.07 594.669 Q1959.83 594.298 1957.42 593.558 L1957.42 588.859 Q1959.5 589.993 1961.73 590.548 Q1963.95 591.104 1966.42 591.104 Q1970.43 591.104 1972.77 588.998 Q1975.11 586.891 1975.11 583.28 Q1975.11 579.669 1972.77 577.562 Q1970.43 575.456 1966.42 575.456 Q1964.55 575.456 1962.67 575.873 Q1960.82 576.289 1958.88 577.169 L1958.88 559.808 Z" fill="#000000" fill-rule="evenodd" fill-opacity="1" /><path clip-path="url(#clip750)" d="M1998.99 562.887 Q1995.38 562.887 1993.55 566.451 Q1991.75 569.993 1991.75 577.123 Q1991.75 584.229 1993.55 587.794 Q1995.38 591.335 1998.99 591.335 Q2002.63 591.335 2004.43 587.794 Q2006.26 584.229 2006.26 577.123 Q2006.26 569.993 2004.43 566.451 Q2002.63 562.887 1998.99 562.887 M1998.99 559.183 Q2004.8 559.183 2007.86 563.789 Q2010.94 568.373 2010.94 577.123 Q2010.94 585.849 2007.86 590.456 Q2004.8 595.039 1998.99 595.039 Q1993.18 595.039 1990.11 590.456 Q1987.05 585.849 1987.05 577.123 Q1987.05 568.373 1990.11 563.789 Q1993.18 559.183 1998.99 559.183 Z" fill="#000000" fill-rule="evenodd" fill-opacity="1" /><path clip-path="url(#clip750)" d="M2029.16 562.887 Q2025.54 562.887 2023.72 566.451 Q2021.91 569.993 2021.91 577.123 Q2021.91 584.229 2023.72 587.794 Q2025.54 591.335 2029.16 591.335 Q2032.79 591.335 2034.6 587.794 Q2036.42 584.229 2036.42 577.123 Q2036.42 569.993 2034.6 566.451 Q2032.79 562.887 2029.16 562.887 M2029.16 559.183 Q2034.97 559.183 2038.02 563.789 Q2041.1 568.373 2041.1 577.123 Q2041.1 585.849 2038.02 590.456 Q2034.97 595.039 2029.16 595.039 Q2023.35 595.039 2020.27 590.456 Q2017.21 585.849 2017.21 577.123 Q2017.21 568.373 2020.27 563.789 Q2023.35 559.183 2029.16 559.183 Z" fill="#000000" fill-rule="evenodd" fill-opacity="1" /><path clip-path="url(#clip750)" d="M2521.87 590.433 L2538.19 590.433 L2538.19 594.368 L2516.25 594.368 L2516.25 590.433 Q2518.91 587.678 2523.49 583.048 Q2528.1 578.396 2529.28 577.053 Q2531.53 574.53 2532.4 572.794 Q2533.31 571.035 2533.31 569.345 Q2533.31 566.59 2531.36 564.854 Q2529.44 563.118 2526.34 563.118 Q2524.14 563.118 2521.69 563.882 Q2519.26 564.646 2516.48 566.197 L2516.48 561.475 Q2519.3 560.34 2521.76 559.762 Q2524.21 559.183 2526.25 559.183 Q2531.62 559.183 2534.81 561.868 Q2538.01 564.553 2538.01 569.044 Q2538.01 571.174 2537.2 573.095 Q2536.41 574.993 2534.3 577.586 Q2533.72 578.257 2530.62 581.474 Q2527.52 584.669 2521.87 590.433 Z" fill="#000000" fill-rule="evenodd" fill-opacity="1" /><path clip-path="url(#clip750)" d="M2558.01 562.887 Q2554.4 562.887 2552.57 566.451 Q2550.76 569.993 2550.76 577.123 Q2550.76 584.229 2552.57 587.794 Q2554.4 591.335 2558.01 591.335 Q2561.64 591.335 2563.45 587.794 Q2565.28 584.229 2565.28 577.123 Q2565.28 569.993 2563.45 566.451 Q2561.64 562.887 2558.01 562.887 M2558.01 559.183 Q2563.82 559.183 2566.87 563.789 Q2569.95 568.373 2569.95 577.123 Q2569.95 585.849 2566.87 590.456 Q2563.82 595.039 2558.01 595.039 Q2552.2 595.039 2549.12 590.456 Q2546.06 585.849 2546.06 577.123 Q2546.06 568.373 2549.12 563.789 Q2552.2 559.183 2558.01 559.183 Z" fill="#000000" fill-rule="evenodd" fill-opacity="1" /><path clip-path="url(#clip750)" d="M2588.17 562.887 Q2584.56 562.887 2582.73 566.451 Q2580.92 569.993 2580.92 577.123 Q2580.92 584.229 2582.73 587.794 Q2584.56 591.335 2588.17 591.335 Q2591.8 591.335 2593.61 587.794 Q2595.44 584.229 2595.44 577.123 Q2595.44 569.993 2593.61 566.451 Q2591.8 562.887 2588.17 562.887 M2588.17 559.183 Q2593.98 559.183 2597.03 563.789 Q2600.11 568.373 2600.11 577.123 Q2600.11 585.849 2597.03 590.456 Q2593.98 595.039 2588.17 595.039 Q2582.36 595.039 2579.28 590.456 Q2576.22 585.849 2576.22 577.123 Q2576.22 568.373 2579.28 563.789 Q2582.36 559.183 2588.17 559.183 Z" fill="#000000" fill-rule="evenodd" fill-opacity="1" /><path clip-path="url(#clip750)" d="M2618.33 562.887 Q2614.72 562.887 2612.89 566.451 Q2611.09 569.993 2611.09 577.123 Q2611.09 584.229 2612.89 587.794 Q2614.72 591.335 2618.33 591.335 Q2621.96 591.335 2623.77 587.794 Q2625.6 584.229 2625.6 577.123 Q2625.6 569.993 2623.77 566.451 Q2621.96 562.887 2618.33 562.887 M2618.33 559.183 Q2624.14 559.183 2627.2 563.789 Q2630.27 568.373 2630.27 577.123 Q2630.27 585.849 2627.2 590.456 Q2624.14 595.039 2618.33 595.039 Q2612.52 595.039 2609.44 590.456 Q2606.39 585.849 2606.39 577.123 Q2606.39 568.373 2609.44 563.789 Q2612.52 559.183 2618.33 559.183 Z" fill="#000000" fill-rule="evenodd" fill-opacity="1" /><path clip-path="url(#clip750)" d="M3110.18 590.433 L3126.5 590.433 L3126.5 594.368 L3104.55 594.368 L3104.55 590.433 Q3107.22 587.678 3111.8 583.048 Q3116.41 578.396 3117.59 577.053 Q3119.83 574.53 3120.71 572.794 Q3121.61 571.035 3121.61 569.345 Q3121.61 566.59 3119.67 564.854 Q3117.75 563.118 3114.65 563.118 Q3112.45 563.118 3109.99 563.882 Q3107.56 564.646 3104.79 566.197 L3104.79 561.475 Q3107.61 560.34 3110.06 559.762 Q3112.52 559.183 3114.55 559.183 Q3119.92 559.183 3123.12 561.868 Q3126.31 564.553 3126.31 569.044 Q3126.31 571.174 3125.5 573.095 Q3124.72 574.993 3122.61 577.586 Q3122.03 578.257 3118.93 581.474 Q3115.83 584.669 3110.18 590.433 Z" fill="#000000" fill-rule="evenodd" fill-opacity="1" /><path clip-path="url(#clip750)" d="M3136.36 559.808 L3154.72 559.808 L3154.72 563.743 L3140.64 563.743 L3140.64 572.215 Q3141.66 571.868 3142.68 571.706 Q3143.7 571.521 3144.72 571.521 Q3150.5 571.521 3153.88 574.692 Q3157.26 577.863 3157.26 583.28 Q3157.26 588.859 3153.79 591.96 Q3150.32 595.039 3144 595.039 Q3141.82 595.039 3139.55 594.669 Q3137.31 594.298 3134.9 593.558 L3134.9 588.859 Q3136.98 589.993 3139.21 590.548 Q3141.43 591.104 3143.91 591.104 Q3147.91 591.104 3150.25 588.998 Q3152.59 586.891 3152.59 583.28 Q3152.59 579.669 3150.25 577.562 Q3147.91 575.456 3143.91 575.456 Q3142.03 575.456 3140.16 575.873 Q3138.3 576.289 3136.36 577.169 L3136.36 559.808 Z" fill="#000000" fill-rule="evenodd" fill-opacity="1" /><path clip-path="url(#clip750)" d="M3176.47 562.887 Q3172.86 562.887 3171.04 566.451 Q3169.23 569.993 3169.23 577.123 Q3169.23 584.229 3171.04 587.794 Q3172.86 591.335 3176.47 591.335 Q3180.11 591.335 3181.91 587.794 Q3183.74 584.229 3183.74 577.123 Q3183.74 569.993 3181.91 566.451 Q3180.11 562.887 3176.47 562.887 M3176.47 559.183 Q3182.28 559.183 3185.34 563.789 Q3188.42 568.373 3188.42 577.123 Q3188.42 585.849 3185.34 590.456 Q3182.28 595.039 3176.47 595.039 Q3170.66 595.039 3167.59 590.456 Q3164.53 585.849 3164.53 577.123 Q3164.53 568.373 3167.59 563.789 Q3170.66 559.183 3176.47 559.183 Z" fill="#000000" fill-rule="evenodd" fill-opacity="1" /><path clip-path="url(#clip750)" d="M3206.64 562.887 Q3203.03 562.887 3201.2 566.451 Q3199.39 569.993 3199.39 577.123 Q3199.39 584.229 3201.2 587.794 Q3203.03 591.335 3206.64 591.335 Q3210.27 591.335 3212.08 587.794 Q3213.91 584.229 3213.91 577.123 Q3213.91 569.993 3212.08 566.451 Q3210.27 562.887 3206.64 562.887 M3206.64 559.183 Q3212.45 559.183 3215.5 563.789 Q3218.58 568.373 3218.58 577.123 Q3218.58 585.849 3215.5 590.456 Q3212.45 595.039 3206.64 595.039 Q3200.83 595.039 3197.75 590.456 Q3194.69 585.849 3194.69 577.123 Q3194.69 568.373 3197.75 563.789 Q3200.83 559.183 3206.64 559.183 Z" fill="#000000" fill-rule="evenodd" fill-opacity="1" /><polyline clip-path="url(#clip752)" style="stroke:#000000; stroke-linecap:round; stroke-linejoin:round; stroke-width:2; stroke-opacity:0.1; fill:none" points="124.177,522.368 3552.76,522.368 "/>
<polyline clip-path="url(#clip752)" style="stroke:#000000; stroke-linecap:round; stroke-linejoin:round; stroke-width:2; stroke-opacity:0.1; fill:none" points="124.177,454.493 3552.76,454.493 "/>
<polyline clip-path="url(#clip752)" style="stroke:#000000; stroke-linecap:round; stroke-linejoin:round; stroke-width:2; stroke-opacity:0.1; fill:none" points="124.177,386.618 3552.76,386.618 "/>
<polyline clip-path="url(#clip752)" style="stroke:#000000; stroke-linecap:round; stroke-linejoin:round; stroke-width:2; stroke-opacity:0.1; fill:none" points="124.177,318.743 3552.76,318.743 "/>
<polyline clip-path="url(#clip752)" style="stroke:#000000; stroke-linecap:round; stroke-linejoin:round; stroke-width:2; stroke-opacity:0.1; fill:none" points="124.177,250.869 3552.76,250.869 "/>
<polyline clip-path="url(#clip752)" style="stroke:#000000; stroke-linecap:round; stroke-linejoin:round; stroke-width:2; stroke-opacity:0.1; fill:none" points="124.177,182.994 3552.76,182.994 "/>
<polyline clip-path="url(#clip752)" style="stroke:#000000; stroke-linecap:round; stroke-linejoin:round; stroke-width:2; stroke-opacity:0.1; fill:none" points="124.177,115.119 3552.76,115.119 "/>
<polyline clip-path="url(#clip752)" style="stroke:#000000; stroke-linecap:round; stroke-linejoin:round; stroke-width:2; stroke-opacity:0.1; fill:none" points="124.177,47.2441 3552.76,47.2441 "/>
<polyline clip-path="url(#clip750)" style="stroke:#000000; stroke-linecap:round; stroke-linejoin:round; stroke-width:4; stroke-opacity:1; fill:none" points="124.177,522.368 124.177,47.2441 "/>
<polyline clip-path="url(#clip750)" style="stroke:#000000; stroke-linecap:round; stroke-linejoin:round; stroke-width:4; stroke-opacity:1; fill:none" points="124.177,522.368 143.075,522.368 "/>
<polyline clip-path="url(#clip750)" style="stroke:#000000; stroke-linecap:round; stroke-linejoin:round; stroke-width:4; stroke-opacity:1; fill:none" points="124.177,454.493 143.075,454.493 "/>
<polyline clip-path="url(#clip750)" style="stroke:#000000; stroke-linecap:round; stroke-linejoin:round; stroke-width:4; stroke-opacity:1; fill:none" points="124.177,386.618 143.075,386.618 "/>
<polyline clip-path="url(#clip750)" style="stroke:#000000; stroke-linecap:round; stroke-linejoin:round; stroke-width:4; stroke-opacity:1; fill:none" points="124.177,318.743 143.075,318.743 "/>
<polyline clip-path="url(#clip750)" style="stroke:#000000; stroke-linecap:round; stroke-linejoin:round; stroke-width:4; stroke-opacity:1; fill:none" points="124.177,250.869 143.075,250.869 "/>
<polyline clip-path="url(#clip750)" style="stroke:#000000; stroke-linecap:round; stroke-linejoin:round; stroke-width:4; stroke-opacity:1; fill:none" points="124.177,182.994 143.075,182.994 "/>
<polyline clip-path="url(#clip750)" style="stroke:#000000; stroke-linecap:round; stroke-linejoin:round; stroke-width:4; stroke-opacity:1; fill:none" points="124.177,115.119 143.075,115.119 "/>
<polyline clip-path="url(#clip750)" style="stroke:#000000; stroke-linecap:round; stroke-linejoin:round; stroke-width:4; stroke-opacity:1; fill:none" points="124.177,47.2441 143.075,47.2441 "/>
<path clip-path="url(#clip750)" d="M50.2699 535.713 L57.9087 535.713 L57.9087 509.347 L49.5986 511.014 L49.5986 506.755 L57.8624 505.088 L62.5383 505.088 L62.5383 535.713 L70.1772 535.713 L70.1772 539.648 L50.2699 539.648 L50.2699 535.713 Z" fill="#000000" fill-rule="evenodd" fill-opacity="1" /><path clip-path="url(#clip750)" d="M53.8578 467.838 L70.1772 467.838 L70.1772 471.773 L48.2328 471.773 L48.2328 467.838 Q50.8949 465.083 55.4782 460.454 Q60.0846 455.801 61.2652 454.458 Q63.5105 451.935 64.3902 450.199 Q65.2929 448.44 65.2929 446.75 Q65.2929 443.995 63.3485 442.259 Q61.4272 440.523 58.3254 440.523 Q56.1263 440.523 53.6726 441.287 Q51.2421 442.051 48.4643 443.602 L48.4643 438.88 Q51.2884 437.745 53.7421 437.167 Q56.1958 436.588 58.2328 436.588 Q63.6031 436.588 66.7976 439.273 Q69.992 441.958 69.992 446.449 Q69.992 448.579 69.1818 450.5 Q68.3948 452.398 66.2883 454.991 Q65.7096 455.662 62.6078 458.88 Q59.5059 462.074 53.8578 467.838 Z" fill="#000000" fill-rule="evenodd" fill-opacity="1" /><path clip-path="url(#clip750)" d="M63.0476 385.264 Q66.404 385.982 68.279 388.25 Q70.1772 390.519 70.1772 393.852 Q70.1772 398.968 66.6587 401.769 Q63.1402 404.57 56.6587 404.57 Q54.4828 404.57 52.168 404.13 Q49.8764 403.713 47.4227 402.857 L47.4227 398.343 Q49.3671 399.477 51.6819 400.056 Q53.9967 400.634 56.5198 400.634 Q60.918 400.634 63.2096 398.898 Q65.5244 397.162 65.5244 393.852 Q65.5244 390.796 63.3717 389.083 Q61.242 387.347 57.4226 387.347 L53.3949 387.347 L53.3949 383.505 L57.6078 383.505 Q61.0569 383.505 62.8855 382.139 Q64.7142 380.75 64.7142 378.158 Q64.7142 375.496 62.8161 374.084 Q60.9411 372.648 57.4226 372.648 Q55.5013 372.648 53.3023 373.065 Q51.1032 373.482 48.4643 374.361 L48.4643 370.195 Q51.1264 369.454 53.4412 369.084 Q55.7791 368.713 57.8393 368.713 Q63.1633 368.713 66.2652 371.144 Q69.367 373.551 69.367 377.672 Q69.367 380.542 67.7235 382.533 Q66.08 384.5 63.0476 385.264 Z" fill="#000000" fill-rule="evenodd" fill-opacity="1" /><path clip-path="url(#clip750)" d="M60.5939 305.537 L48.7884 323.986 L60.5939 323.986 L60.5939 305.537 M59.367 301.463 L65.2466 301.463 L65.2466 323.986 L70.1772 323.986 L70.1772 327.875 L65.2466 327.875 L65.2466 336.023 L60.5939 336.023 L60.5939 327.875 L44.9921 327.875 L44.9921 323.361 L59.367 301.463 Z" fill="#000000" fill-rule="evenodd" fill-opacity="1" /><path clip-path="url(#clip750)" d="M49.2745 233.589 L67.6309 233.589 L67.6309 237.524 L53.5569 237.524 L53.5569 245.996 Q54.5754 245.649 55.5939 245.487 Q56.6124 245.301 57.6309 245.301 Q63.418 245.301 66.7976 248.473 Q70.1772 251.644 70.1772 257.061 Q70.1772 262.639 66.705 265.741 Q63.2328 268.82 56.9134 268.82 Q54.7374 268.82 52.4689 268.449 Q50.2236 268.079 47.8162 267.338 L47.8162 262.639 Q49.8995 263.774 52.1217 264.329 Q54.3439 264.885 56.8208 264.885 Q60.8254 264.885 63.1633 262.778 Q65.5013 260.672 65.5013 257.061 Q65.5013 253.45 63.1633 251.343 Q60.8254 249.237 56.8208 249.237 Q54.9458 249.237 53.0708 249.653 Q51.2189 250.07 49.2745 250.95 L49.2745 233.589 Z" fill="#000000" fill-rule="evenodd" fill-opacity="1" /><path clip-path="url(#clip750)" d="M58.6495 181.13 Q55.5013 181.13 53.6495 183.283 Q51.8208 185.436 51.8208 189.186 Q51.8208 192.913 53.6495 195.089 Q55.5013 197.241 58.6495 197.241 Q61.7976 197.241 63.6263 195.089 Q65.4781 192.913 65.4781 189.186 Q65.4781 185.436 63.6263 183.283 Q61.7976 181.13 58.6495 181.13 M67.9318 166.478 L67.9318 170.737 Q66.1726 169.904 64.367 169.464 Q62.5846 169.024 60.8254 169.024 Q56.1958 169.024 53.7421 172.149 Q51.3115 175.274 50.9643 181.593 Q52.33 179.579 54.3902 178.515 Q56.4504 177.427 58.9272 177.427 Q64.1355 177.427 67.1448 180.598 Q70.1772 183.746 70.1772 189.186 Q70.1772 194.51 67.029 197.727 Q63.8809 200.945 58.6495 200.945 Q52.6541 200.945 49.4828 196.362 Q46.3116 191.755 46.3116 183.028 Q46.3116 174.834 50.2004 169.973 Q54.0893 165.089 60.6402 165.089 Q62.3994 165.089 64.1818 165.436 Q65.9874 165.783 67.9318 166.478 Z" fill="#000000" fill-rule="evenodd" fill-opacity="1" /><path clip-path="url(#clip750)" d="M47.9551 97.8389 L70.1772 97.8389 L70.1772 99.8297 L57.6309 132.399 L52.7467 132.399 L64.5522 101.774 L47.9551 101.774 L47.9551 97.8389 Z" fill="#000000" fill-rule="evenodd" fill-opacity="1" /><path clip-path="url(#clip750)" d="M58.3254 48.1121 Q54.9921 48.1121 53.0708 49.8945 Q51.1726 51.6769 51.1726 54.8019 Q51.1726 57.9269 53.0708 59.7093 Q54.9921 61.4917 58.3254 61.4917 Q61.6587 61.4917 63.58 59.7093 Q65.5013 57.9038 65.5013 54.8019 Q65.5013 51.6769 63.58 49.8945 Q61.6819 48.1121 58.3254 48.1121 M53.6495 46.1214 Q50.6402 45.3807 48.9504 43.3205 Q47.2838 41.2603 47.2838 38.2974 Q47.2838 34.1539 50.2236 31.7465 Q53.1865 29.3391 58.3254 29.3391 Q63.4874 29.3391 66.4272 31.7465 Q69.367 34.1539 69.367 38.2974 Q69.367 41.2603 67.6772 43.3205 Q66.0105 45.3807 63.0244 46.1214 Q66.404 46.9084 68.279 49.2001 Q70.1772 51.4918 70.1772 54.8019 Q70.1772 59.825 67.0985 62.5102 Q64.0429 65.1954 58.3254 65.1954 Q52.6078 65.1954 49.5291 62.5102 Q46.4736 59.825 46.4736 54.8019 Q46.4736 51.4918 48.3717 49.2001 Q50.2699 46.9084 53.6495 46.1214 M51.9365 38.7372 Q51.9365 41.4224 53.6032 42.927 Q55.293 44.4316 58.3254 44.4316 Q61.3346 44.4316 63.0244 42.927 Q64.7374 41.4224 64.7374 38.7372 Q64.7374 36.052 63.0244 34.5474 Q61.3346 33.0428 58.3254 33.0428 Q55.293 33.0428 53.6032 34.5474 Q51.9365 36.052 51.9365 38.7372 Z" fill="#000000" fill-rule="evenodd" fill-opacity="1" /><polyline clip-path="url(#clip752)" style="stroke:#009af9; stroke-linecap:round; stroke-linejoin:round; stroke-width:2; stroke-opacity:1; fill:none" points="221.212,477.435 222.389,301.135 223.566,319.26 224.742,293.194 225.919,194.76 227.095,189.552 228.272,190.453 229.449,306.181 230.625,186.547 231.802,154.186 232.979,177.607 234.155,170.099 235.332,200.019 236.508,184.616 237.685,187.252 238.862,163.979 240.038,297.817 241.215,162.218 242.391,168.679 243.568,311.25 244.745,184.311 245.921,440.238 247.098,292.2 248.275,179.133 249.451,168.916 250.628,168.807 251.804,162.79 252.981,188.485 254.158,170.243 255.334,194.011 256.511,180.863 257.687,184.955 258.864,295.122 260.041,344.035 261.217,334.507 262.394,307.971 263.57,320.949 264.747,435.295 265.924,431.174 267.1,168.511 268.277,199.922 269.454,470.258 270.63,427.932 271.807,302.782 272.983,449.899 274.16,466.559 275.337,459.856 276.513,438.949 277.69,318.402 278.866,462.185 280.043,309.477 281.22,307.392 282.396,163.313 283.573,143.163 284.75,150.872 285.926,186.286 287.103,331.281 288.279,319.951 289.456,334.491 290.633,165.552 291.809,323.577 292.986,309.089 294.162,169.286 295.339,183.339 296.516,177.644 297.692,326.809 298.869,199.931 300.045,175.463 301.222,169.187 302.399,201.31 303.575,428.641 304.752,480.235 305.929,458.811 307.105,421.235 308.282,337.11 309.458,194.281 310.635,173.294 311.812,170.895 312.988,160.938 314.165,153.126 315.341,157.057 316.518,191.564 317.695,294.552 318.871,329.508 320.048,452.774 321.225,316.207 322.401,180.726 323.578,172.629 324.754,168.135 325.931,224.048 327.108,164.729 328.284,220.034 329.461,352.142 330.637,185.804 331.814,313.898 332.991,286.379 334.167,442.857 335.344,419.593 336.52,309.133 337.697,189.195 338.874,318.826 340.05,174.22 341.227,179.536 342.404,201.387 343.58,196.493 344.757,310.957 345.933,342.6 347.11,174.529 348.287,308.069 349.463,308.654 350.64,332.85 351.816,182.002 352.993,154.567 354.17,338.668 355.346,310.272 356.523,299.655 357.699,307.574 358.876,190.863 360.053,172.56 361.229,187.246 362.406,194.619 363.583,471.107 364.759,445.504 365.936,317.085 367.112,168.79 368.289,196.586 369.466,197.342 370.642,183.372 371.819,171.905 372.995,177.849 374.172,206.188 375.349,163.41 376.525,186.428 377.702,168.171 378.879,153.147 380.055,280.078 381.232,305.303 382.408,313.106 383.585,315.959 384.762,320.033 385.938,186.983 387.115,336.61 388.291,235.92 389.468,158.08 390.645,168.468 391.821,193.046 392.998,185.24 394.174,154.774 395.351,298.84 396.528,338.756 397.704,430.271 398.881,453.093 400.058,176.397 401.234,171.282 402.411,305.094 403.587,298.645 404.764,314.888 405.941,443.084 407.117,350.922 408.294,308.445 409.47,458.242 410.647,429.894 411.824,436.85 413,322.081 414.177,335.971 415.354,321.056 416.53,310.131 417.707,346.734 418.883,158.208 420.06,172.356 421.237,214.762 422.413,191.857 423.59,208.301 424.766,322.492 425.943,179.927 427.12,181.128 428.296,470.057 429.473,470.382 430.649,440.01 431.826,310.3 433.003,314.714 434.179,332.678 435.356,317.545 436.533,329.673 437.709,202.009 438.886,168.77 440.062,274.753 441.239,157.686 442.416,175.045 443.592,187.091 444.769,306.666 445.945,318.039 447.122,197.978 448.299,161.029 449.475,165.493 450.652,317.086 451.829,445.764 453.005,351.157 454.182,331.23 455.358,307.859 456.535,172.029 457.712,311.217 458.888,326.229 460.065,188.395 461.241,155.048 462.418,286.681 463.595,295.577 464.771,457.256 465.948,466.168 467.124,325.533 468.301,180.942 469.478,171.301 470.654,185.915 471.831,180.734 473.008,200.668 474.184,304.24 475.361,197.424 476.537,191.691 477.714,305.834 478.891,440.86 480.067,466.89 481.244,304.35 482.42,156.916 483.597,213.496 484.774,192.947 485.95,304.852 487.127,306.904 488.303,339.158 489.48,325.041 490.657,484.664 491.833,479.462 493.01,456.024 494.187,323.1 495.363,456.501 496.54,312.152 497.716,188.634 498.893,335.126 500.07,178.755 501.246,163.856 502.423,303.163 503.599,331.782 504.776,292.65 505.953,175.833 507.129,158.599 508.306,308.014 509.483,458.8 510.659,457.058 511.836,303.652 513.012,301.637 514.189,315.766 515.366,463.253 516.542,322.625 517.719,218.771 518.895,147.488 520.072,205.204 521.249,206.57 522.425,291.495 523.602,177.039 524.778,173.798 525.955,166.137 527.132,160.435 528.308,293.975 529.485,439.891 530.662,435.807 531.838,320.679 533.015,431.77 534.191,315.992 535.368,304.931 536.545,332.361 537.721,182.197 538.898,303.905 540.074,337.619 541.251,307.654 542.428,307.636 543.604,315.867 544.781,158.386 545.958,186.394 547.134,188.678 548.311,164.325 549.487,164.719 550.664,172.613 551.841,320.166 553.017,310.857 554.194,304.874 555.37,325.406 556.547,331.343 557.724,483.069 558.9,329.06 560.077,159.698 561.253,162.902 562.43,195.987 563.607,178.95 564.783,318.927 565.96,303.889 567.137,291.961 568.313,351.246 569.49,476.892 570.666,485.897 571.843,325.896 573.02,322.628 574.196,185.678 575.373,153.415 576.549,317.262 577.726,439.826 578.903,310.381 580.079,187.726 581.256,170.703 582.433,170.02 583.609,188.486 584.786,179.908 585.962,199.794 587.139,178.2 588.316,317.933 589.492,328.378 590.669,309.268 591.845,190.488 593.022,175.926 594.199,182.616 595.375,336.972 596.552,297.218 597.728,338.225 598.905,310.899 600.082,336.332 601.258,338.389 602.435,312.479 603.612,190.863 604.788,314.501 605.965,334.161 607.141,445.965 608.318,320.554 609.495,462.496 610.671,298.296 611.848,180.688 613.024,174.172 614.201,281.166 615.378,184.774 616.554,332.78 617.731,170.27 618.908,296.058 620.084,320.99 621.261,299.846 622.437,203.254 623.614,302.005 624.791,317.328 625.967,323.534 627.144,303.066 628.32,177.757 629.497,432.684 630.674,154.198 631.85,168.938 633.027,175.8 634.203,175.538 635.38,166.129 636.557,159.941 637.733,184.605 638.91,316.272 640.087,310.4 641.263,194.057 642.44,476.025 643.616,340.768 644.793,179.325 645.97,313.577 647.146,314.219 648.323,210.869 649.499,186.216 650.676,332.73 651.853,432.508 653.029,435.417 654.206,464.711 655.382,336.846 656.559,195.452 657.736,309.871 658.912,461.161 660.089,330.374 661.266,283.434 662.442,163.533 663.619,198.295 664.795,324.033 665.972,201.536 667.149,178.061 668.325,168.353 669.502,298.019 670.678,175.485 671.855,210.886 673.032,182.193 674.208,287.928 675.385,417.975 676.562,190.483 677.738,182.07 678.915,165.127 680.091,208.448 681.268,179.645 682.445,152.245 683.621,174.256 684.798,173.409 685.974,300.322 687.151,343.642 688.328,325.264 689.504,340.48 690.681,339.453 691.857,197.982 693.034,331.862 694.211,447.575 695.387,468.531 696.564,435.569 697.741,307.769 698.917,187.758 700.094,184.244 701.27,213.945 702.447,162.046 703.624,182.332 704.8,325.885 705.977,311.024 707.153,451.568 708.33,457.475 709.507,460.859 710.683,179.099 711.86,335.685 713.037,170.193 714.213,437.603 715.39,175.989 716.566,196.216 717.743,167.18 718.92,188.459 720.096,210.076 721.273,319.328 722.449,288.002 723.626,452.446 724.803,348.482 725.979,210.388 727.156,136.463 728.332,182.42 729.509,181.424 730.686,170.406 731.862,189.874 733.039,200.913 734.216,170.328 735.392,164.816 736.569,163.133 737.745,208.733 738.922,179.678 740.099,304.309 741.275,186.647 742.452,290.925 743.628,433.515 744.805,329.107 745.982,320.91 747.158,307.536 748.335,317.635 749.512,208.197 750.688,273.422 751.865,275.832 753.041,183.98 754.218,202.247 755.395,173.92 756.571,185 757.748,171.932 758.924,347.1 760.101,439.289 761.278,472.892 762.454,433.591 763.631,329.005 764.807,439.416 765.984,455.092 767.161,195.107 768.337,159.942 769.514,208.78 770.691,326.406 771.867,441.574 773.044,348.59 774.22,418.398 775.397,439.618 776.574,409.493 777.75,191.244 778.927,327.669 780.103,182.182 781.28,194.574 782.457,186.336 783.633,194.768 784.81,178.146 785.987,153.364 787.163,206.838 788.34,173.939 789.516,322.986 790.693,326.952 791.87,339.845 793.046,423.898 794.223,458.05 795.399,464.016 796.576,450.181 797.753,443.41 798.929,319.576 800.106,298.107 801.282,204.752 802.459,168.318 803.636,470.44 804.812,319.715 805.989,430.508 807.166,333.245 808.342,162.874 809.519,186.017 810.695,147.363 811.872,166.505 813.049,168.492 814.225,173.647 815.402,206.085 816.578,167.366 817.755,197.833 818.932,175.026 820.108,170.397 821.285,334.902 822.461,171.827 823.638,345.598 824.815,336.237 825.991,337.197 827.168,204.443 828.345,171.138 829.521,199.723 830.698,163.521 831.874,196.002 833.051,323.284 834.228,178.561 835.404,301.343 836.581,331.601 837.757,309.206 838.934,168.461 840.111,333.839 841.287,331.505 842.464,304.752 843.641,284.143 844.817,342.261 845.994,197.084 847.17,306.063 848.347,307.751 849.524,331.228 850.7,190.62 851.877,175.789 853.053,302.007 854.23,177.223 855.407,167.238 856.583,318.096 857.76,323.026 858.936,457.161 860.113,302.435 861.29,420.344 862.466,304.251 863.643,184.566 864.82,322.702 865.996,178.236 867.173,171.111 868.349,193.733 869.526,197.231 870.703,308.871 871.879,455.019 873.056,457.959 874.232,319.757 875.409,326.743 876.586,349.085 877.762,358.151 878.939,430.928 880.116,357.166 881.292,186.148 882.469,154.623 883.645,185.655 884.822,304.374 885.999,333.113 887.175,342.389 888.352,187.062 889.528,297.931 890.705,310.897 891.882,296.152 893.058,307.982 894.235,180.544 895.411,183.623 896.588,296.681 897.765,166.159 898.941,192.711 900.118,200.89 901.295,311.374 902.471,313.727 903.648,318.81 904.824,195.956 906.001,305.103 907.178,211.377 908.354,176.784 909.531,187.309 910.707,154.356 911.884,153.271 913.061,159.485 914.237,182.619 915.414,444.644 916.591,487.694 917.767,434.166 918.944,457.641 920.12,442.351 921.297,435.766 922.474,434.133 923.65,329.71 924.827,179.768 926.003,189.35 927.18,174.683 928.357,301.357 929.533,201.576 930.71,167.589 931.886,163.786 933.063,144.465 934.24,155.857 935.416,222.278 936.593,165.33 937.77,302.682 938.946,319.379 940.123,425.944 941.299,457.347 942.476,322.321 943.653,451.099 944.829,293.997 946.006,312.36 947.182,431.163 948.359,444.373 949.536,473.111 950.712,461.367 951.889,460.11 953.066,477.203 954.242,459.026 955.419,323.503 956.595,174.773 957.772,197.548 958.949,304.561 960.125,314.549 961.302,167.046 962.478,172.919 963.655,169.652 964.832,172.006 966.008,187.394 967.185,197.51 968.361,309.188 969.538,324.191 970.715,305.544 971.891,329.658 973.068,191.151 974.245,210.167 975.421,310.886 976.598,195.247 977.774,216.007 978.951,160.621 980.128,158.842 981.304,162.016 982.481,184.401 983.657,328.976 984.834,340.626 986.011,325.447 987.187,197.962 988.364,162.986 989.54,159.575 990.717,306.889 991.894,312.904 993.07,212.255 994.247,307.063 995.424,316.758 996.6,318.647 997.777,183.449 998.953,161.115 1000.13,157.708 1001.31,313.946 1002.48,296.871 1003.66,200.487 1004.84,416.179 1006.01,290.26 1007.19,339.598 1008.37,287.821 1009.54,139.253 1010.72,173.329 1011.9,293.166 1013.07,373.824 1014.25,310.405 1015.43,322.982 1016.6,319.527 1017.78,187.695 1018.96,335.867 1020.13,345.176 1021.31,168.277 1022.49,165.354 1023.66,191.567 1024.84,327.48 1026.02,176.863 1027.19,311.281 1028.37,323.408 1029.55,195.781 1030.72,320.858 1031.9,201.643 1033.08,276.63 1034.25,188.737 1035.43,319.813 1036.61,178.119 1037.78,181.67 1038.96,293.456 1040.13,333.342 1041.31,319.216 1042.49,306.367 1043.66,449.232 1044.84,331.913 1046.02,328.419 1047.19,336.382 1048.37,317.007 1049.55,194.571 1050.72,309.181 1051.9,335.737 1053.08,307.355 1054.25,310.205 1055.43,305.246 1056.61,287.253 1057.78,145.125 1058.96,160.943 1060.14,168.609 1061.31,181.252 1062.49,197.141 1063.67,293.13 1064.84,158.462 1066.02,299.038 1067.2,202.403 1068.37,303.035 1069.55,330.213 1070.73,190.673 1071.9,153.319 1073.08,171.418 1074.26,201.435 1075.43,162.119 1076.61,165.478 1077.79,164.476 1078.96,298.656 1080.14,303.735 1081.32,195.576 1082.49,281.456 1083.67,426.586 1084.85,500.574 1086.02,468.334 1087.2,316.932 1088.38,303.952 1089.55,198.479 1090.73,330.143 1091.91,218.814 1093.08,191.862 1094.26,194.298 1095.44,188.742 1096.61,194.726 1097.79,194.642 1098.97,323.462 1100.14,302.73 1101.32,339.593 1102.5,334.495 1103.67,208.569 1104.85,335.943 1106.03,338.176 1107.2,448.242 1108.38,435.449 1109.55,320.063 1110.73,168.807 1111.91,182.87 1113.08,182.282 1114.26,168.707 1115.44,183.424 1116.61,187.639 1117.79,340.396 1118.97,206.964 1120.14,207.164 1121.32,198.36 1122.5,323.619 1123.67,298.054 1124.85,332.009 1126.03,190.748 1127.2,163.563 1128.38,170.761 1129.56,201.738 1130.73,212.688 1131.91,209.051 1133.09,193.215 1134.26,185.466 1135.44,185.1 1136.62,181.637 1137.79,197.298 1138.97,188.374 1140.15,208.359 1141.32,179.248 1142.5,142.111 1143.68,159.498 1144.85,203.284 1146.03,196.914 1147.21,207.663 1148.38,297.79 1149.56,219.192 1150.74,174.492 1151.91,191.908 1153.09,151.901 1154.27,197.988 1155.44,307.045 1156.62,430.078 1157.8,335.53 1158.97,307.202 1160.15,316.134 1161.33,186.307 1162.5,305.759 1163.68,182.854 1164.86,335.898 1166.03,199.43 1167.21,307.786 1168.39,165.468 1169.56,173.219 1170.74,189.039 1171.92,197.184 1173.09,168.173 1174.27,229.654 1175.45,308.938 1176.62,322.96 1177.8,326.287 1178.98,166.966 1180.15,320.649 1181.33,207.267 1182.5,313.108 1183.68,462.913 1184.86,321.146 1186.03,448.726 1187.21,457.92 1188.39,312.714 1189.56,188.374 1190.74,297.714 1191.92,176.969 1193.09,313.561 1194.27,308.237 1195.45,319.292 1196.62,319.107 1197.8,325.737 1198.98,306.304 1200.15,164.692 1201.33,301.428 1202.51,321.789 1203.68,321.365 1204.86,167.501 1206.04,157.061 1207.21,208.711 1208.39,179.986 1209.57,177.26 1210.74,173.268 1211.92,185.84 1213.1,200.37 1214.27,294.314 1215.45,445.2 1216.63,488.256 1217.8,225.709 1218.98,162.037 1220.16,173.985 1221.33,307.673 1222.51,179.132 1223.69,288.394 1224.86,312.244 1226.04,329.826 1227.22,362.467 1228.39,300.246 1229.57,166.254 1230.75,347.294 1231.92,349.097 1233.1,465.116 1234.28,480.877 1235.45,453.553 1236.63,321.628 1237.81,321.271 1238.98,211.816 1240.16,339.373 1241.34,319.128 1242.51,339.756 1243.69,182.181 1244.87,155.414 1246.04,318.753 1247.22,281.407 1248.4,331.625 1249.57,182.96 1250.75,164.478 1251.93,165.974 1253.1,168.833 1254.28,321.355 1255.45,191.854 1256.63,318.238 1257.81,320.784 1258.98,329.051 1260.16,307.502 1261.34,453.468 1262.51,330.147 1263.69,199.294 1264.87,174.149 1266.04,181.157 1267.22,171.587 1268.4,311.55 1269.57,299.855 1270.75,343.067 1271.93,193.946 1273.1,182.696 1274.28,180.891 1275.46,180.825 1276.63,297.74 1277.81,318.099 1278.99,327.707 1280.16,199.569 1281.34,429.511 1282.52,427.347 1283.69,426.982 1284.87,477.175 1286.05,367.207 1287.22,433.924 1288.4,178.365 1289.58,166.775 1290.75,170.07 1291.93,322.126 1293.11,177.242 1294.28,297.663 1295.46,298.771 1296.64,303.014 1297.81,190.646 1298.99,184.776 1300.17,180.419 1301.34,309.688 1302.52,155.756 1303.7,187.348 1304.87,177.979 1306.05,185.396 1307.23,174.184 1308.4,184.526 1309.58,183.291 1310.76,162.673 1311.93,175.666 1313.11,192.968 1314.29,194.973 1315.46,421.434 1316.64,458.76 1317.82,472.112 1318.99,318.998 1320.17,318.762 1321.35,193.613 1322.52,329.832 1323.7,184.581 1324.88,282.293 1326.05,473.246 1327.23,274.734 1328.4,209.449 1329.58,196.556 1330.76,304.72 1331.93,218.05 1333.11,194.717 1334.29,314.112 1335.46,183.298 1336.64,186.641 1337.82,173.96 1338.99,188.933 1340.17,196.863 1341.35,294.217 1342.52,316.971 1343.7,204.665 1344.88,187.733 1346.05,169.401 1347.23,173.101 1348.41,284.539 1349.58,163.906 1350.76,342.991 1351.94,336.846 1353.11,334.707 1354.29,327.854 1355.47,310.236 1356.64,310.185 1357.82,302.594 1359,326.031 1360.17,193.432 1361.35,321.176 1362.53,299.472 1363.7,175.186 1364.88,197.561 1366.06,200.614 1367.23,175.153 1368.41,159.899 1369.59,150.609 1370.76,208.366 1371.94,289.805 1373.12,168.933 1374.29,198.466 1375.47,208.473 1376.65,187.384 1377.82,182.949 1379,187.822 1380.18,172.793 1381.35,167.485 1382.53,179.14 1383.71,314.5 1384.88,183.848 1386.06,176.099 1387.24,159.822 1388.41,306.074 1389.59,481.38 1390.77,443.827 1391.94,477.369 1393.12,306.07 1394.3,439.204 1395.47,456.552 1396.65,448.098 1397.83,461.8 1399,472.093 1400.18,325.972 1401.35,458.908 1402.53,338.641 1403.71,318.963 1404.88,428.63 1406.06,333.071 1407.24,172.417 1408.41,168.488 1409.59,297.207 1410.77,435.335 1411.94,415.551 1413.12,393.634 1414.3,162.513 1415.47,162.475 1416.65,169.118 1417.83,170.671 1419,181.413 1420.18,309.788 1421.36,195.891 1422.53,327.973 1423.71,304.091 1424.89,205.553 1426.06,162.038 1427.24,184.141 1428.42,197.772 1429.59,299.666 1430.77,195.383 1431.95,294.704 1433.12,199.542 1434.3,303.196 1435.48,210.568 1436.65,172.274 1437.83,183.996 1439.01,181.879 1440.18,178.421 1441.36,198.341 1442.54,432.195 1443.71,318.736 1444.89,314.563 1446.07,186.126 1447.24,305.911 1448.42,345.299 1449.6,211.002 1450.77,324.129 1451.95,451.521 1453.13,471.588 1454.3,206.027 1455.48,315.536 1456.66,300.613 1457.83,337.81 1459.01,311.595 1460.19,317.541 1461.36,341.926 1462.54,173.482 1463.72,177.204 1464.89,234.94 1466.07,211.345 1467.25,206.138 1468.42,298.72 1469.6,287.317 1470.78,213.484 1471.95,208.118 1473.13,333.567 1474.3,178.7 1475.48,457.176 1476.66,336.804 1477.83,323.185 1479.01,194.791 1480.19,182.988 1481.36,178.945 1482.54,173.724 1483.72,204.207 1484.89,210.61 1486.07,320.496 1487.25,492.025 1488.42,426.321 1489.6,338.071 1490.78,324.729 1491.95,311.196 1493.13,445.412 1494.31,339.012 1495.48,320.508 1496.66,191.874 1497.84,157.304 1499.01,290.904 1500.19,200.443 1501.37,158.517 1502.54,339.229 1503.72,202.777 1504.9,322.503 1506.07,312.524 1507.25,174.478 1508.43,205.131 1509.6,210.762 1510.78,211.755 1511.96,197.473 1513.13,304.309 1514.31,195.353 1515.49,170.751 1516.66,186.533 1517.84,173.445 1519.02,207.726 1520.19,316.539 1521.37,170.855 1522.55,198.248 1523.72,171.619 1524.9,317.226 1526.08,190.12 1527.25,479.443 1528.43,320.706 1529.61,353.847 1530.78,318.04 1531.96,211.156 1533.14,318.276 1534.31,453.418 1535.49,324.891 1536.67,283.886 1537.84,181.424 1539.02,321.482 1540.2,329.272 1541.37,297.606 1542.55,432.751 1543.73,452.571 1544.9,457.447 1546.08,462.398 1547.25,356.769 1548.43,289.237 1549.61,316.367 1550.78,192.313 1551.96,173.001 1553.14,172.145 1554.31,188.97 1555.49,213.372 1556.67,337.18 1557.84,334.808 1559.02,455.861 1560.2,308.845 1561.37,198.92 1562.55,331.039 1563.73,168.396 1564.9,160.059 1566.08,316.423 1567.26,447.7 1568.43,455.988 1569.61,433.357 1570.79,457.554 1571.96,323.259 1573.14,333.82 1574.32,193.519 1575.49,162.019 1576.67,172.85 1577.85,333.632 1579.02,180.067 1580.2,186.005 1581.38,160.667 1582.55,202.375 1583.73,310.252 1584.91,353.537 1586.08,332.03 1587.26,300.467 1588.44,454.222 1589.61,303.314 1590.79,438.001 1591.97,337.345 1593.14,336.861 1594.32,317.018 1595.5,185.987 1596.67,187.548 1597.85,165.737 1599.03,328.891 1600.2,188.807 1601.38,144.122 1602.56,195.344 1603.73,175.613 1604.91,190.808 1606.09,181.709 1607.26,212.11 1608.44,310.03 1609.62,204.893 1610.79,234.085 1611.97,186.756 1613.15,185.757 1614.32,194.819 1615.5,169.962 1616.68,186.755 1617.85,345.109 1619.03,455.612 1620.2,330.451 1621.38,312.652 1622.56,317.758 1623.73,295.733 1624.91,167.23 1626.09,157.698 1627.26,165.084 1628.44,346.403 1629.62,322.148 1630.79,447.745 1631.97,445.115 1633.15,207.195 1634.32,194.362 1635.5,179.046 1636.68,298.802 1637.85,309.326 1639.03,188.201 1640.21,167.775 1641.38,286.924 1642.56,164.357 1643.74,204.242 1644.91,306.416 1646.09,175.12 1647.27,174.096 1648.44,190.901 1649.62,150.604 1650.8,164.63 1651.97,180.28 1653.15,188.317 1654.33,172.259 1655.5,308.317 1656.68,341.671 1657.86,286.264 1659.03,221.564 1660.21,303.053 1661.39,196.186 1662.56,179.767 1663.74,184.88 1664.92,315.94 1666.09,166.814 1667.27,172.595 1668.45,176.037 1669.62,195.927 1670.8,169.084 1671.98,171.05 1673.15,313.141 1674.33,160.186 1675.51,168.671 1676.68,313.507 1677.86,302.247 1679.04,441.429 1680.21,330.618 1681.39,203.49 1682.57,156.275 1683.74,170.231 1684.92,179.25 1686.1,206.333 1687.27,357.547 1688.45,461.652 1689.63,440.55 1690.8,226.531 1691.98,176.071 1693.15,198.518 1694.33,303.003 1695.51,452.636 1696.68,456.856 1697.86,470.75 1699.04,487.514 1700.21,317.824 1701.39,184.681 1702.57,311.637 1703.74,330.679 1704.92,323.826 1706.1,324.063 1707.27,332.593 1708.45,173.091 1709.63,170.706 1710.8,209.381 1711.98,300.235 1713.16,301.151 1714.33,313.032 1715.51,457.362 1716.69,308.739 1717.86,326.001 1719.04,335.608 1720.22,326.007 1721.39,311.829 1722.57,273.089 1723.75,184.685 1724.92,163.07 1726.1,166.798 1727.28,219.338 1728.45,161.71 1729.63,153.541 1730.81,204.837 1731.98,178.83 1733.16,181.492 1734.34,182.371 1735.51,162.199 1736.69,196.197 1737.87,174.937 1739.04,171.931 1740.22,308.401 1741.4,175.728 1742.57,193.14 1743.75,281.153 1744.93,189.366 1746.1,166.685 1747.28,300.16 1748.46,213.639 1749.63,187.053 1750.81,194.999 1751.99,317.997 1753.16,217.291 1754.34,311.362 1755.52,297.615 1756.69,201.796 1757.87,196.065 1759.05,152.914 1760.22,202.548 1761.4,174.745 1762.58,180.546 1763.75,193.635 1764.93,183.847 1766.1,184.13 1767.28,326.821 1768.46,321.29 1769.63,313.063 1770.81,190.158 1771.99,184.851 1773.16,182.021 1774.34,452.281 1775.52,471.758 1776.69,460.747 1777.87,333.863 1779.05,443.426 1780.22,323.207 1781.4,469.101 1782.58,311.304 1783.75,152.634 1784.93,205.769 1786.11,159.446 1787.28,186.383 1788.46,345.508 1789.64,449.339 1790.81,448.743 1791.99,428.332 1793.17,304.877 1794.34,299.172 1795.52,336.252 1796.7,187.308 1797.87,490.038 1799.05,366.847 1800.23,290.891 1801.4,192.648 1802.58,170.73 1803.76,455.269 1804.93,346.064 1806.11,320.838 1807.29,320.585 1808.46,321.948 1809.64,165.864 1810.82,181.246 1811.99,351.941 1813.17,282.879 1814.35,204.923 1815.52,203.53 1816.7,453.779 1817.88,291.957 1819.05,315.962 1820.23,315.028 1821.41,301.412 1822.58,209.693 1823.76,163.519 1824.94,301.183 1826.11,458.209 1827.29,443.61 1828.47,443.625 1829.64,474.142 1830.82,338.575 1832,285.161 1833.17,316.489 1834.35,200.054 1835.53,289.308 1836.7,313.433 1837.88,200.973 1839.05,168.602 1840.23,195.369 1841.41,210.276 1842.58,183.637 1843.76,203.208 1844.94,316.372 1846.11,322.173 1847.29,310.789 1848.47,193.258 1849.64,174.951 1850.82,191.643 1852,306.397 1853.17,182.473 1854.35,168.464 1855.53,313.019 1856.7,426.401 1857.88,360.101 1859.06,238.859 1860.23,206.878 1861.41,165.643 1862.59,192.248 1863.76,203.543 1864.94,467.636 1866.12,463.313 1867.29,466.852 1868.47,446.897 1869.65,313.643 1870.82,174.569 1872,190.291 1873.18,159.707 1874.35,321.793 1875.53,189.36 1876.71,186.801 1877.88,186.866 1879.06,319.353 1880.24,306.198 1881.41,447.958 1882.59,317.62 1883.77,338.824 1884.94,435.29 1886.12,429.126 1887.3,328.199 1888.47,464.823 1889.65,329.099 1890.83,169.48 1892,191.843 1893.18,436.821 1894.36,434.987 1895.53,464.377 1896.71,460.371 1897.89,469.86 1899.06,309.931 1900.24,431.851 1901.42,307.873 1902.59,171.23 1903.77,341.766 1904.95,332.152 1906.12,181.998 1907.3,184.984 1908.47,170.79 1909.65,182.191 1910.83,196.682 1912,321.524 1913.18,474.189 1914.36,479.832 1915.53,338.298 1916.71,311.583 1917.89,328.182 1919.06,168.349 1920.24,299.985 1921.42,206.447 1922.59,210.815 1923.77,315.909 1924.95,448.842 1926.12,459.138 1927.3,320.471 1928.48,186.798 1929.65,327.339 1930.83,430.06 1932.01,358.146 1933.18,409.39 1934.36,362.407 1935.54,215.996 1936.71,163.324 1937.89,187.586 1939.07,188.477 1940.24,188.832 1941.42,192.123 1942.6,175.897 1943.77,169.154 1944.95,169.102 1946.13,318.607 1947.3,197.347 1948.48,201.101 1949.66,169.799 1950.83,170.585 1952.01,217.688 1953.19,212.056 1954.36,308.605 1955.54,442.198 1956.72,460.065 1957.89,323.818 1959.07,200.5 1960.25,327.801 1961.42,311.554 1962.6,159.981 1963.78,162.136 1964.95,168.216 1966.13,195.271 1967.31,166.404 1968.48,137.054 1969.66,203.665 1970.84,233.231 1972.01,166.141 1973.19,180.707 1974.37,317.942 1975.54,398.687 1976.72,424.497 1977.9,445.267 1979.07,311.102 1980.25,448.704 1981.42,453.702 1982.6,462.543 1983.78,469.396 1984.95,307.127 1986.13,200.04 1987.31,186.129 1988.48,311.701 1989.66,466.843 1990.84,444.692 1992.01,324.203 1993.19,180.331 1994.37,323.423 1995.54,324.229 1996.72,444.847 1997.9,312.097 1999.07,170.547 2000.25,337.363 2001.43,470.654 2002.6,299.084 2003.78,186.851 2004.96,300.984 2006.13,169.937 2007.31,178.814 2008.49,174.688 2009.66,196.865 2010.84,330.712 2012.02,455.335 2013.19,315.137 2014.37,341.48 2015.55,181.325 2016.72,183.227 2017.9,173.448 2019.08,166.235 2020.25,202.159 2021.43,325.005 2022.61,188.817 2023.78,203.72 2024.96,228.166 2026.14,168.74 2027.31,179.994 2028.49,180.043 2029.67,326.879 2030.84,327.611 2032.02,444.507 2033.2,435.268 2034.37,436.195 2035.55,453.268 2036.73,443.107 2037.9,318.853 2039.08,442.886 2040.26,450.152 2041.43,324.887 2042.61,170.521 2043.79,305.816 2044.96,188.08 2046.14,187.597 2047.32,324.012 2048.49,302.815 2049.67,185.394 2050.85,307.479 2052.02,476.289 2053.2,465.751 2054.37,442.997 2055.55,334.577 2056.73,457.616 2057.9,314.734 2059.08,203.259 2060.26,178.396 2061.43,164.168 2062.61,184.082 2063.79,213.393 2064.96,318.481 2066.14,327.03 2067.32,470.626 2068.49,432.238 2069.67,441.767 2070.85,427.708 2072.02,336.863 2073.2,478.973 2074.38,477.092 2075.55,458.279 2076.73,470.832 2077.91,445.02 2079.08,433.345 2080.26,344.7 2081.44,315.749 2082.61,451.348 2083.79,430.341 2084.97,186.212 2086.14,195.528 2087.32,306.95 2088.5,467.039 2089.67,448.03 2090.85,307.827 2092.03,148.829 2093.2,316.031 2094.38,469.493 2095.56,299.201 2096.73,169.374 2097.91,319.738 2099.09,186.853 2100.26,204.265 2101.44,193.816 2102.62,300.117 2103.79,310.507 2104.97,339.607 2106.15,322.18 2107.32,355.703 2108.5,217.069 2109.68,163.357 2110.85,198.357 2112.03,175.657 2113.21,330.895 2114.38,444.145 2115.56,290.858 2116.74,214.423 2117.91,294.517 2119.09,288.551 2120.27,299.941 2121.44,177.137 2122.62,199.338 2123.8,178.191 2124.97,310.408 2126.15,283.766 2127.32,166.961 2128.5,154.051 2129.68,169.202 2130.85,179.753 2132.03,189.814 2133.21,296.395 2134.38,190.904 2135.56,310.472 2136.74,333.351 2137.91,311.001 2139.09,311.221 2140.27,154.424 2141.44,312.971 2142.62,316.747 2143.8,451.441 2144.97,199.931 2146.15,344.766 2147.33,333.476 2148.5,323.019 2149.68,325.917 2150.86,332.105 2152.03,309.904 2153.21,472.909 2154.39,468.249 2155.56,463.635 2156.74,170.423 2157.92,330.75 2159.09,336.395 2160.27,454.143 2161.45,454.556 2162.62,442.453 2163.8,423.454 2164.98,451.578 2166.15,439.859 2167.33,307.393 2168.51,202.956 2169.68,286.69 2170.86,298.273 2172.04,428.618 2173.21,444.714 2174.39,207.316 2175.57,342.971 2176.74,168.36 2177.92,198.946 2179.1,173.399 2180.27,171.888 2181.45,316.383 2182.63,451.959 2183.8,487.823 2184.98,344.508 2186.16,321.286 2187.33,177.327 2188.51,298.819 2189.69,202.907 2190.86,173.291 2192.04,178.136 2193.22,167.914 2194.39,294.806 2195.57,458.317 2196.75,152.073 2197.92,194.405 2199.1,173.229 2200.27,326.496 2201.45,182.192 2202.63,184.692 2203.8,308.998 2204.98,328 2206.16,316.894 2207.33,304.065 2208.51,170.822 2209.69,193.076 2210.86,179.759 2212.04,230.167 2213.22,203.456 2214.39,204.254 2215.57,331.527 2216.75,195.641 2217.92,475.719 2219.1,426.767 2220.28,282.005 2221.45,289.166 2222.63,155.298 2223.81,279.137 2224.98,190.772 2226.16,168.721 2227.34,339.37 2228.51,421.766 2229.69,492.046 2230.87,469.06 2232.04,460.284 2233.22,204.949 2234.4,233.305 2235.57,189.231 2236.75,187.963 2237.93,192.232 2239.1,193.372 2240.28,183.633 2241.46,198.991 2242.63,175.615 2243.81,324.058 2244.99,174.843 2246.16,326.871 2247.34,196.825 2248.52,345.473 2249.69,330.697 2250.87,168.177 2252.05,298.879 2253.22,276.852 2254.4,193.04 2255.58,439.147 2256.75,454.674 2257.93,322.87 2259.11,191.185 2260.28,345.401 2261.46,302.175 2262.64,349.014 2263.81,175.777 2264.99,198.998 2266.17,186.118 2267.34,187.712 2268.52,177.465 2269.7,180.341 2270.87,149.365 2272.05,170.61 2273.22,183.417 2274.4,190.783 2275.58,198.724 2276.75,173.878 2277.93,168.585 2279.11,178.427 2280.28,177.604 2281.46,195.102 2282.64,136.239 2283.81,138.39 2284.99,153.73 2286.17,157.246 2287.34,164.867 2288.52,161.184 2289.7,201.485 2290.87,288.687 2292.05,180.536 2293.23,298.708 2294.4,171.067 2295.58,201.161 2296.76,167.433 2297.93,317.322 2299.11,300.746 2300.29,176.042 2301.46,172.05 2302.64,331.776 2303.82,308.62 2304.99,188.649 2306.17,168.974 2307.35,180.065 2308.52,146.472 2309.7,161.804 2310.88,161.175 2312.05,189.689 2313.23,338.717 2314.41,450.687 2315.58,438.95 2316.76,464.782 2317.94,455.738 2319.11,456.503 2320.29,438.292 2321.47,338.588 2322.64,430.447 2323.82,312.749 2325,339.129 2326.17,311.402 2327.35,325.73 2328.53,456.065 2329.7,337.458 2330.88,316.842 2332.06,336.522 2333.23,311.714 2334.41,438.247 2335.59,303.644 2336.76,169.478 2337.94,174.381 2339.12,301.534 2340.29,207.761 2341.47,335.265 2342.65,339.017 2343.82,455.254 2345,177.355 2346.17,186.171 2347.35,169.406 2348.53,338.175 2349.7,423.797 2350.88,421.091 2352.06,152.666 2353.23,321.23 2354.41,298.763 2355.59,160.826 2356.76,165.66 2357.94,193.29 2359.12,310.636 2360.29,168.078 2361.47,302.155 2362.65,324.361 2363.82,191.945 2365,305.712 2366.18,295.21 2367.35,316.562 2368.53,352.716 2369.71,315.937 2370.88,173.706 2372.06,200.934 2373.24,315.652 2374.41,298.989 2375.59,205.61 2376.77,209.302 2377.94,219.415 2379.12,215.115 2380.3,214.214 2381.47,153.605 2382.65,168.834 2383.83,161.896 2385,175.158 2386.18,183.624 2387.36,183.767 2388.53,300.42 2389.71,310.33 2390.89,175.148 2392.06,176.897 2393.24,180.698 2394.42,301.689 2395.59,159.184 2396.77,221.484 2397.95,319.152 2399.12,411.896 2400.3,458.989 2401.48,438.566 2402.65,319.377 2403.83,303.645 2405.01,308.575 2406.18,333.326 2407.36,326.946 2408.54,202.091 2409.71,156.56 2410.89,147.002 2412.07,212.428 2413.24,284.293 2414.42,181.194 2415.6,193.711 2416.77,327.969 2417.95,326.556 2419.12,303.42 2420.3,303.358 2421.48,184.861 2422.65,177.604 2423.83,358.798 2425.01,326.701 2426.18,470.037 2427.36,468.481 2428.54,445.233 2429.71,441.087 2430.89,336.466 2432.07,197.603 2433.24,298.282 2434.42,203.738 2435.6,447.22 2436.77,458.454 2437.95,460.491 2439.13,327.407 2440.3,336.725 2441.48,297.344 2442.66,299.674 2443.83,156.819 2445.01,184.431 2446.19,172.876 2447.36,462.684 2448.54,463.189 2449.72,288.744 2450.89,293.191 2452.07,323.283 2453.25,186.699 2454.42,185.3 2455.6,423.525 2456.78,411.103 2457.95,349.781 2459.13,160.3 2460.31,188.505 2461.48,185.482 2462.66,192.871 2463.84,301.48 2465.01,218.093 2466.19,176.886 2467.37,312.947 2468.54,445.285 2469.72,451.959 2470.9,460.212 2472.07,482.016 2473.25,430.022 2474.43,460.722 2475.6,418.98 2476.78,415.005 2477.96,358.879 2479.13,309.812 2480.31,320.331 2481.49,311.912 2482.66,293.692 2483.84,168.549 2485.02,318.804 2486.19,296.403 2487.37,186.845 2488.55,289.674 2489.72,184.435 2490.9,155.608 2492.07,320.255 2493.25,187.81 2494.43,326.074 2495.6,347.965 2496.78,292.836 2497.96,447.077 2499.13,485.034 2500.31,327.247 2501.49,310.92 2502.66,335.007 2503.84,335.476 2505.02,301.126 2506.19,481.447 2507.37,440.96 2508.55,432.496 2509.72,449.12 2510.9,441.105 2512.08,323.362 2513.25,447.894 2514.43,328.188 2515.61,314.778 2516.78,471.492 2517.96,446.86 2519.14,464.203 2520.31,191.88 2521.49,187.455 2522.67,285.345 2523.84,302.094 2525.02,390.48 2526.2,199.633 2527.37,316.348 2528.55,205.488 2529.73,154.07 2530.9,184.316 2532.08,447.311 2533.26,160.406 2534.43,180.915 2535.61,205.625 2536.79,207.997 2537.96,312.558 2539.14,313.86 2540.32,326.147 2541.49,292.808 2542.67,221.72 2543.85,453.588 2545.02,306.719 2546.2,309.88 2547.38,290.115 2548.55,292.515 2549.73,319.467 2550.91,443.645 2552.08,465.999 2553.26,462.679 2554.44,317.383 2555.61,336.85 2556.79,298.069 2557.97,193.414 2559.14,178.121 2560.32,184.256 2561.5,187.202 2562.67,318.334 2563.85,313.958 2565.02,163.395 2566.2,166.632 2567.38,332.57 2568.55,286.38 2569.73,333.13 2570.91,475.582 2572.08,321.712 2573.26,323.325 2574.44,470.056 2575.61,423.698 2576.79,293.128 2577.97,210.603 2579.14,169.111 2580.32,193.469 2581.5,178.648 2582.67,204.566 2583.85,177.57 2585.03,174.46 2586.2,171.493 2587.38,174.123 2588.56,203.216 2589.73,172.523 2590.91,183.449 2592.09,183.342 2593.26,324.69 2594.44,313.473 2595.62,324.474 2596.79,328.146 2597.97,320.327 2599.15,325.243 2600.32,337.322 2601.5,433.604 2602.68,320.597 2603.85,289.979 2605.03,157.55 2606.21,330.474 2607.38,328.022 2608.56,180.481 2609.74,311.163 2610.91,206.093 2612.09,180.966 2613.27,193.726 2614.44,180.658 2615.62,165.084 2616.8,193.601 2617.97,191.602 2619.15,185.333 2620.33,186.474 2621.5,175.679 2622.68,170.432 2623.86,166.912 2625.03,311.443 2626.21,313.204 2627.39,327.17 2628.56,333.281 2629.74,456.3 2630.92,438.704 2632.09,299.147 2633.27,195.523 2634.45,204.701 2635.62,302.123 2636.8,155.464 2637.97,199.637 2639.15,192.288 2640.33,432.068 2641.5,441.716 2642.68,333.842 2643.86,182.288 2645.03,176.127 2646.21,190.097 2647.39,313.92 2648.56,331.159 2649.74,307.248 2650.92,172.169 2652.09,212.98 2653.27,306.319 2654.45,305.911 2655.62,323.137 2656.8,310.527 2657.98,319.582 2659.15,344.519 2660.33,347.826 2661.51,315.855 2662.68,212.401 2663.86,307.218 2665.04,446.369 2666.21,335.59 2667.39,435.04 2668.57,194.368 2669.74,168.445 2670.92,281.363 2672.1,311.043 2673.27,334.658 2674.45,318.08 2675.63,327.757 2676.8,314.321 2677.98,338.472 2679.16,322.794 2680.33,313.008 2681.51,175.112 2682.69,189.362 2683.86,158.724 2685.04,176.765 2686.22,177.545 2687.39,324.749 2688.57,413.318 2689.75,358.486 2690.92,421.573 2692.1,477.496 2693.28,355.63 2694.45,326.289 2695.63,452.063 2696.81,337.579 2697.98,328.685 2699.16,306.084 2700.34,426.618 2701.51,469.196 2702.69,306.933 2703.87,183.293 2705.04,334.142 2706.22,423.464 2707.39,458.195 2708.57,313.206 2709.75,202.192 2710.92,176.534 2712.1,158.451 2713.28,198.519 2714.45,319.543 2715.63,282.445 2716.81,329.288 2717.98,310.188 2719.16,170.069 2720.34,157.706 2721.51,342.818 2722.69,348.231 2723.87,167.051 2725.04,183.655 2726.22,187.806 2727.4,217.431 2728.57,282.482 2729.75,198.643 2730.93,184.391 2732.1,297.491 2733.28,224.926 2734.46,413.773 2735.63,284.362 2736.81,315.741 2737.99,451.676 2739.16,360.46 2740.34,478.029 2741.52,457.368 2742.69,295.941 2743.87,290.851 2745.05,313.056 2746.22,329.491 2747.4,462.771 2748.58,467.519 2749.75,424.538 2750.93,181.854 2752.11,149.671 2753.28,294.193 2754.46,211.671 2755.64,452.133 2756.81,444.924 2757.99,456.01 2759.17,451.54 2760.34,460.843 2761.52,432.519 2762.7,461.608 2763.87,459.976 2765.05,504.748 2766.23,317.2 2767.4,170.312 2768.58,187.018 2769.76,158.842 2770.93,181.999 2772.11,197.828 2773.29,193.142 2774.46,305.538 2775.64,457.111 2776.82,456.74 2777.99,304.995 2779.17,325.426 2780.34,186.215 2781.52,319.026 2782.7,292.968 2783.87,351.461 2785.05,329.693 2786.23,307.697 2787.4,455.043 2788.58,480.21 2789.76,481.164 2790.93,410.663 2792.11,484.576 2793.29,457.471 2794.46,318.777 2795.64,333.502 2796.82,184.083 2797.99,185.939 2799.17,319.306 2800.35,339.187 2801.52,337.989 2802.7,147.947 2803.88,193.132 2805.05,179.972 2806.23,196.187 2807.41,159.928 2808.58,211.909 2809.76,200.653 2810.94,169.66 2812.11,204.012 2813.29,203.548 2814.47,178.752 2815.64,179.887 2816.82,171.151 2818,446.79 2819.17,458.568 2820.35,166.736 2821.53,193.429 2822.7,302.587 2823.88,443.773 2825.06,210.418 2826.23,149.328 2827.41,185.121 2828.59,178.42 2829.76,194.631 2830.94,206.9 2832.12,288.199 2833.29,213.599 2834.47,334.196 2835.65,474.264 2836.82,195.036 2838,300.701 2839.18,195.571 2840.35,175.98 2841.53,182.632 2842.71,173.07 2843.88,172.728 2845.06,306.235 2846.24,194.227 2847.41,155.463 2848.59,160.741 2849.77,212.197 2850.94,293.348 2852.12,150.922 2853.29,312.837 2854.47,301.473 2855.65,330.67 2856.82,170.04 2858,298.66 2859.18,161.483 2860.35,188.171 2861.53,183.977 2862.71,165.852 2863.88,156.758 2865.06,155.389 2866.24,209.381 2867.41,196.325 2868.59,204.229 2869.77,320.6 2870.94,326.015 2872.12,324.678 2873.3,149.989 2874.47,287.418 2875.65,445.708 2876.83,454.292 2878,329.07 2879.18,310.985 2880.36,312.363 2881.53,291.85 2882.71,208.583 2883.89,316.833 2885.06,324.6 2886.24,441.758 2887.42,174.722 2888.59,194.058 2889.77,208.862 2890.95,163.271 2892.12,199.827 2893.3,196.401 2894.48,322.411 2895.65,181.877 2896.83,186.932 2898.01,207.778 2899.18,359.232 2900.36,337.46 2901.54,321.684 2902.71,184.13 2903.89,146.065 2905.07,173.141 2906.24,186.097 2907.42,167.64 2908.6,168.621 2909.77,181.016 2910.95,470.325 2912.13,336.089 2913.3,443.653 2914.48,474.936 2915.66,322.279 2916.83,306.247 2918.01,462.169 2919.19,324.943 2920.36,322.836 2921.54,320.049 2922.72,312.975 2923.89,330.089 2925.07,366.901 2926.24,170.87 2927.42,189.009 2928.6,315.011 2929.77,412.456 2930.95,304.093 2932.13,193.113 2933.3,219.664 2934.48,343.283 2935.66,313.079 2936.83,200.994 2938.01,175.505 2939.19,192.368 2940.36,180.255 2941.54,308.789 2942.72,293.646 2943.89,312.388 2945.07,327.674 2946.25,320.2 2947.42,165.376 2948.6,185.596 2949.78,171.944 2950.95,199.611 2952.13,175.527 2953.31,192.198 2954.48,305.568 2955.66,160.516 2956.84,202.908 2958.01,288.413 2959.19,333.474 2960.37,468.859 2961.54,454.203 2962.72,451.846 2963.9,308.124 2965.07,328.029 2966.25,415.322 2967.43,501.569 2968.6,336.12 2969.78,198.709 2970.96,176.954 2972.13,183.179 2973.31,189.815 2974.49,171.101 2975.66,156.917 2976.84,151.008 2978.02,191.044 2979.19,337.842 2980.37,440.349 2981.55,437.185 2982.72,436.148 2983.9,335.433 2985.08,474.954 2986.25,315.205 2987.43,331.802 2988.61,305.473 2989.78,206.818 2990.96,201.513 2992.14,166.544 2993.31,321.944 2994.49,341.975 2995.67,415.133 2996.84,344.401 2998.02,481.236 2999.19,315.476 3000.37,182.075 3001.55,199.218 3002.72,302.78 3003.9,190.595 3005.08,209.194 3006.25,316.642 3007.43,167.162 3008.61,193.505 3009.78,322.995 3010.96,170.499 3012.14,195.663 3013.31,188.993 3014.49,191.456 3015.67,294.263 3016.84,316.341 3018.02,188.84 3019.2,182.819 3020.37,181.941 3021.55,179.333 3022.73,320.947 3023.9,321.472 3025.08,332.501 3026.26,364.536 3027.43,317.459 3028.61,307.21 3029.79,325.813 3030.96,180.416 3032.14,180.564 3033.32,193.498 3034.49,193.404 3035.67,324.585 3036.85,375.407 3038.02,473.378 3039.2,315.301 3040.38,315.814 3041.55,333.293 3042.73,326.124 3043.91,444.634 3045.08,329.422 3046.26,321.866 3047.44,215.451 3048.61,192.936 3049.79,322.936 3050.97,331.318 3052.14,304.503 3053.32,444.19 3054.5,335.657 3055.67,318.839 3056.85,150.471 3058.03,149.995 3059.2,184.858 3060.38,177.409 3061.56,199.517 3062.73,304.168 3063.91,177.553 3065.09,162.425 3066.26,169.733 3067.44,316.437 3068.62,190.275 3069.79,203.348 3070.97,206.721 3072.14,323.087 3073.32,186.214 3074.5,186.576 3075.67,184.538 3076.85,194.067 3078.03,295.058 3079.2,180.728 3080.38,182.722 3081.56,167.953 3082.73,185.398 3083.91,201.879 3085.09,299.46 3086.26,317.591 3087.44,448.356 3088.62,457.804 3089.79,324.713 3090.97,181.158 3092.15,172.021 3093.32,335.956 3094.5,456.151 3095.68,482.417 3096.85,430.885 3098.03,449.13 3099.21,329.08 3100.38,458.777 3101.56,338.663 3102.74,305.334 3103.91,182.687 3105.09,189.475 3106.27,194.999 3107.44,307.422 3108.62,161.69 3109.8,193.048 3110.97,174.771 3112.15,204.143 3113.33,338.072 3114.5,308.79 3115.68,192.997 3116.86,177.859 3118.03,309.178 3119.21,190.924 3120.39,296.249 3121.56,196.503 3122.74,162.592 3123.92,187.316 3125.09,196.409 3126.27,193.047 3127.45,179.62 3128.62,188.937 3129.8,301.756 3130.98,319.736 3132.15,312.809 3133.33,320.162 3134.51,288.851 3135.68,292.797 3136.86,461.742 3138.04,306.248 3139.21,441.238 3140.39,335.999 3141.57,482.624 3142.74,210.73 3143.92,170.884 3145.09,167.76 3146.27,170.688 3147.45,176.266 3148.62,208.479 3149.8,314.013 3150.98,303.522 3152.15,178.453 3153.33,188.051 3154.51,283.287 3155.68,202.955 3156.86,300.673 3158.04,196.217 3159.21,157.977 3160.39,158.425 3161.57,183.5 3162.74,328.222 3163.92,198.48 3165.1,169.749 3166.27,202.739 3167.45,175.6 3168.63,192.767 3169.8,191.744 3170.98,187.42 3172.16,170.077 3173.33,319.703 3174.51,202.527 3175.69,191.58 3176.86,178.513 3178.04,204.889 3179.22,192.733 3180.39,166.634 3181.57,177.528 3182.75,189.76 3183.92,191.408 3185.1,188.67 3186.28,207.795 3187.45,160.372 3188.63,153.73 3189.81,185.1 3190.98,159.56 3192.16,183.219 3193.34,203.85 3194.51,203.438 3195.69,204.046 3196.87,191.357 3198.04,183.366 3199.22,165.62 3200.4,474.48 3201.57,196.142 3202.75,206.003 3203.93,174.693 3205.1,180.874 3206.28,164.193 3207.46,277.319 3208.63,182.899 3209.81,202.879 3210.99,172.86 3212.16,180.812 3213.34,176.876 3214.52,196.068 3215.69,315.058 3216.87,467.732 3218.04,444.623 3219.22,303.435 3220.4,172.042 3221.57,174.458 3222.75,162.523 3223.93,176.113 3225.1,442.112 3226.28,436.317 3227.46,468.014 3228.63,351.193 3229.81,314.12 3230.99,329.271 3232.16,437.726 3233.34,331.725 3234.52,310.95 3235.69,197.509 3236.87,171.615 3238.05,182.525 3239.22,325.484 3240.4,440.812 3241.58,324.065 3242.75,185.007 3243.93,165.151 3245.11,189.868 3246.28,194.562 3247.46,192.827 3248.64,186.731 3249.81,314.004 3250.99,485.239 3252.17,448.376 3253.34,447.939 3254.52,450.059 3255.7,329.662 3256.87,309.864 3258.05,316.524 3259.23,297.23 3260.4,469.437 3261.58,447.217 3262.76,443.721 3263.93,192.852 3265.11,200.27 3266.29,161.787 3267.46,307.859 3268.64,310.342 3269.82,304.117 3270.99,281.692 3272.17,282.574 3273.35,174.703 3274.52,180.014 3275.7,174.665 3276.88,331.072 3278.05,172.261 3279.23,181.263 3280.41,185.467 3281.58,190.002 3282.76,165.497 3283.94,165.137 3285.11,163.054 3286.29,198.559 3287.47,175.728 3288.64,214.224 3289.82,328.259 3290.99,331.499 3292.17,303.512 3293.35,200.523 3294.52,182.359 3295.7,319.351 3296.88,320.358 3298.05,327.095 3299.23,210.771 3300.41,347.734 3301.58,344.858 3302.76,441.924 3303.94,430.065 3305.11,336.222 3306.29,181.358 3307.47,311.921 3308.64,466.223 3309.82,438.721 3311,459.355 3312.17,434.426 3313.35,306.068 3314.53,320.552 3315.7,325.153 3316.88,309.619 3318.06,303.157 3319.23,334.671 3320.41,328.466 3321.59,305.535 3322.76,191.225 3323.94,318.855 3325.12,325.293 3326.29,295.742 3327.47,214.098 3328.65,183.007 3329.82,170.069 3331,179.525 3332.18,284.846 3333.35,292.093 3334.53,163.253 3335.71,179.554 3336.88,146.012 3338.06,284.739 3339.24,309.848 3340.41,196.765 3341.59,291.359 3342.77,191.198 3343.94,303.862 3345.12,204.368 3346.3,155.961 3347.47,177.684 3348.65,177.296 3349.83,346.302 3351,302.696 3352.18,191.593 3353.36,172.895 3354.53,305.203 3355.71,281.84 3356.89,180.622 3358.06,213.443 3359.24,167.01 3360.42,464.811 3361.59,192.262 3362.77,172.704 3363.94,180.57 3365.12,174.491 3366.3,191.126 3367.47,330.381 3368.65,337.218 3369.83,179.886 3371,166.59 3372.18,165.053 3373.36,320.65 3374.53,177.42 3375.71,308.38 3376.89,190.945 3378.06,313.952 3379.24,211.991 3380.42,178.462 3381.59,162.755 3382.77,191.937 3383.95,191.566 3385.12,348.71 3386.3,346.283 3387.48,159.601 3388.65,179.186 3389.83,143.682 3391.01,314.224 3392.18,215.32 3393.36,329.86 3394.54,319.707 3395.71,341.218 3396.89,185.52 3398.07,182.902 3399.24,152.453 3400.42,171.666 3401.6,318.045 3402.77,433.276 3403.95,322.215 3405.13,194.15 3406.3,186.003 3407.48,326.651 3408.66,297.562 3409.83,460.497 3411.01,427.255 3412.19,450.445 3413.36,460.508 3414.54,346.403 3415.72,180.964 3416.89,192.45 3418.07,192.633 3419.25,174.565 3420.42,180.121 3421.6,187.164 3422.78,340.53 3423.95,325.73 3425.13,462.859 3426.31,465.672 3427.48,301.398 3428.66,428.68 3429.84,427.224 3431.01,293.188 3432.19,337.906 3433.37,463.566 3434.54,475.727 3435.72,436.182 3436.89,267.627 3438.07,190.242 3439.25,176.28 3440.42,179.816 3441.6,175.752 3442.78,314.039 3443.95,325.397 3445.13,460.591 3446.31,184.296 3447.48,328.28 3448.66,156.095 3449.84,167.86 3451.01,302.902 3452.19,323.77 3453.37,327.967 3454.54,343.722 3455.72,331.553 "/>
<path clip-path="url(#clip750)" d="M3000.54 166.762 L3438.47 166.762 L3438.47 63.0816 L3000.54 63.0816  Z" fill="#ffffff" fill-rule="evenodd" fill-opacity="1"/>
<polyline clip-path="url(#clip750)" style="stroke:#000000; stroke-linecap:round; stroke-linejoin:round; stroke-width:4; stroke-opacity:1; fill:none" points="3000.54,166.762 3438.47,166.762 3438.47,63.0816 3000.54,63.0816 3000.54,166.762 "/>
<polyline clip-path="url(#clip750)" style="stroke:#009af9; stroke-linecap:round; stroke-linejoin:round; stroke-width:2; stroke-opacity:1; fill:none" points="3038.64,114.922 3267.21,114.922 "/>
<path clip-path="url(#clip750)" d="M3321.69 115.998 Q3323.2 116.507 3324.61 118.174 Q3326.05 119.841 3327.48 122.757 L3332.23 132.202 L3327.2 132.202 L3322.78 123.336 Q3321.07 119.864 3319.45 118.729 Q3317.85 117.595 3315.07 117.595 L3309.98 117.595 L3309.98 132.202 L3305.31 132.202 L3305.31 97.6416 L3315.86 97.6416 Q3321.79 97.6416 3324.7 100.118 Q3327.62 102.595 3327.62 107.595 Q3327.62 110.859 3326.09 113.012 Q3324.59 115.165 3321.69 115.998 M3309.98 101.484 L3309.98 113.753 L3315.86 113.753 Q3319.24 113.753 3320.95 112.202 Q3322.69 110.628 3322.69 107.595 Q3322.69 104.563 3320.95 103.035 Q3319.24 101.484 3315.86 101.484 L3309.98 101.484 Z" fill="#000000" fill-rule="evenodd" fill-opacity="1" /><path clip-path="url(#clip750)" d="M3347.87 102.248 L3341.53 119.447 L3354.24 119.447 L3347.87 102.248 M3345.24 97.6416 L3350.54 97.6416 L3363.71 132.202 L3358.85 132.202 L3355.7 123.336 L3340.12 123.336 L3336.97 132.202 L3332.04 132.202 L3345.24 97.6416 Z" fill="#000000" fill-rule="evenodd" fill-opacity="1" /><path clip-path="url(#clip750)" d="M3368.75 97.6416 L3375.72 97.6416 L3384.54 121.16 L3393.41 97.6416 L3400.37 97.6416 L3400.37 132.202 L3395.81 132.202 L3395.81 101.854 L3386.9 125.558 L3382.2 125.558 L3373.29 101.854 L3373.29 132.202 L3368.75 132.202 L3368.75 97.6416 Z" fill="#000000" fill-rule="evenodd" fill-opacity="1" /></svg>
