<?xml version="1.0" encoding="utf-8"?>
<svg xmlns="http://www.w3.org/2000/svg" xmlns:xlink="http://www.w3.org/1999/xlink" width="900" height="150" viewBox="0 0 3600 600">
<defs>
  <clipPath id="clip800">
    <rect x="0" y="0" width="3600" height="600"/>
  </clipPath>
</defs>
<path clip-path="url(#clip800)" d="M0 600 L3600 600 L3600 0 L0 0  Z" fill="#ffffff" fill-rule="evenodd" fill-opacity="1"/>
<defs>
  <clipPath id="clip801">
    <rect x="720" y="0" width="2521" height="600"/>
  </clipPath>
</defs>
<path clip-path="url(#clip800)" d="M124.177 522.368 L3552.76 522.368 L3552.76 47.2441 L124.177 47.2441  Z" fill="#ffffff" fill-rule="evenodd" fill-opacity="1"/>
<defs>
  <clipPath id="clip802">
    <rect x="124" y="47" width="3430" height="476"/>
  </clipPath>
</defs>
<polyline clip-path="url(#clip802)" style="stroke:#000000; stroke-linecap:round; stroke-linejoin:round; stroke-width:2; stroke-opacity:0.1; fill:none" points="219.918,522.368 219.918,47.2441 "/>
<polyline clip-path="url(#clip802)" style="stroke:#000000; stroke-linecap:round; stroke-linejoin:round; stroke-width:2; stroke-opacity:0.1; fill:none" points="867.079,522.368 867.079,47.2441 "/>
<polyline clip-path="url(#clip802)" style="stroke:#000000; stroke-linecap:round; stroke-linejoin:round; stroke-width:2; stroke-opacity:0.1; fill:none" points="1514.24,522.368 1514.24,47.2441 "/>
<polyline clip-path="url(#clip802)" style="stroke:#000000; stroke-linecap:round; stroke-linejoin:round; stroke-width:2; stroke-opacity:0.1; fill:none" points="2161.4,522.368 2161.4,47.2441 "/>
<polyline clip-path="url(#clip802)" style="stroke:#000000; stroke-linecap:round; stroke-linejoin:round; stroke-width:2; stroke-opacity:0.1; fill:none" points="2808.56,522.368 2808.56,47.2441 "/>
<polyline clip-path="url(#clip802)" style="stroke:#000000; stroke-linecap:round; stroke-linejoin:round; stroke-width:2; stroke-opacity:0.1; fill:none" points="3455.72,522.368 3455.72,47.2441 "/>
<polyline clip-path="url(#clip800)" style="stroke:#000000; stroke-linecap:round; stroke-linejoin:round; stroke-width:4; stroke-opacity:1; fill:none" points="124.177,522.368 3552.76,522.368 "/>
<polyline clip-path="url(#clip800)" style="stroke:#000000; stroke-linecap:round; stroke-linejoin:round; stroke-width:4; stroke-opacity:1; fill:none" points="219.918,522.368 219.918,503.47 "/>
<polyline clip-path="url(#clip800)" style="stroke:#000000; stroke-linecap:round; stroke-linejoin:round; stroke-width:4; stroke-opacity:1; fill:none" points="867.079,522.368 867.079,503.47 "/>
<polyline clip-path="url(#clip800)" style="stroke:#000000; stroke-linecap:round; stroke-linejoin:round; stroke-width:4; stroke-opacity:1; fill:none" points="1514.24,522.368 1514.24,503.47 "/>
<polyline clip-path="url(#clip800)" style="stroke:#000000; stroke-linecap:round; stroke-linejoin:round; stroke-width:4; stroke-opacity:1; fill:none" points="2161.4,522.368 2161.4,503.47 "/>
<polyline clip-path="url(#clip800)" style="stroke:#000000; stroke-linecap:round; stroke-linejoin:round; stroke-width:4; stroke-opacity:1; fill:none" points="2808.56,522.368 2808.56,503.47 "/>
<polyline clip-path="url(#clip800)" style="stroke:#000000; stroke-linecap:round; stroke-linejoin:round; stroke-width:4; stroke-opacity:1; fill:none" points="3455.72,522.368 3455.72,503.47 "/>
<path clip-path="url(#clip800)" d="M219.918 562.887 Q216.307 562.887 214.478 566.451 Q212.673 569.993 212.673 577.123 Q212.673 584.229 214.478 587.794 Q216.307 591.335 219.918 591.335 Q223.552 591.335 225.358 587.794 Q227.187 584.229 227.187 577.123 Q227.187 569.993 225.358 566.451 Q223.552 562.887 219.918 562.887 M219.918 559.183 Q225.728 559.183 228.784 563.789 Q231.862 568.373 231.862 577.123 Q231.862 585.849 228.784 590.456 Q225.728 595.039 219.918 595.039 Q214.108 595.039 211.029 590.456 Q207.974 585.849 207.974 577.123 Q207.974 568.373 211.029 563.789 Q214.108 559.183 219.918 559.183 Z" fill="#000000" fill-rule="evenodd" fill-opacity="1" /><path clip-path="url(#clip800)" d="M826.697 559.808 L845.053 559.808 L845.053 563.743 L830.979 563.743 L830.979 572.215 Q831.998 571.868 833.016 571.706 Q834.035 571.521 835.053 571.521 Q840.84 571.521 844.22 574.692 Q847.6 577.863 847.6 583.28 Q847.6 588.859 844.127 591.96 Q840.655 595.039 834.336 595.039 Q832.16 595.039 829.891 594.669 Q827.646 594.298 825.239 593.558 L825.239 588.859 Q827.322 589.993 829.544 590.548 Q831.766 591.104 834.243 591.104 Q838.248 591.104 840.586 588.998 Q842.924 586.891 842.924 583.28 Q842.924 579.669 840.586 577.562 Q838.248 575.456 834.243 575.456 Q832.368 575.456 830.493 575.873 Q828.641 576.289 826.697 577.169 L826.697 559.808 Z" fill="#000000" fill-rule="evenodd" fill-opacity="1" /><path clip-path="url(#clip800)" d="M866.812 562.887 Q863.201 562.887 861.373 566.451 Q859.567 569.993 859.567 577.123 Q859.567 584.229 861.373 587.794 Q863.201 591.335 866.812 591.335 Q870.447 591.335 872.252 587.794 Q874.081 584.229 874.081 577.123 Q874.081 569.993 872.252 566.451 Q870.447 562.887 866.812 562.887 M866.812 559.183 Q872.623 559.183 875.678 563.789 Q878.757 568.373 878.757 577.123 Q878.757 585.849 875.678 590.456 Q872.623 595.039 866.812 595.039 Q861.002 595.039 857.924 590.456 Q854.868 585.849 854.868 577.123 Q854.868 568.373 857.924 563.789 Q861.002 559.183 866.812 559.183 Z" fill="#000000" fill-rule="evenodd" fill-opacity="1" /><path clip-path="url(#clip800)" d="M896.974 562.887 Q893.363 562.887 891.535 566.451 Q889.729 569.993 889.729 577.123 Q889.729 584.229 891.535 587.794 Q893.363 591.335 896.974 591.335 Q900.609 591.335 902.414 587.794 Q904.243 584.229 904.243 577.123 Q904.243 569.993 902.414 566.451 Q900.609 562.887 896.974 562.887 M896.974 559.183 Q902.784 559.183 905.84 563.789 Q908.919 568.373 908.919 577.123 Q908.919 585.849 905.84 590.456 Q902.784 595.039 896.974 595.039 Q891.164 595.039 888.085 590.456 Q885.03 585.849 885.03 577.123 Q885.03 568.373 888.085 563.789 Q891.164 559.183 896.974 559.183 Z" fill="#000000" fill-rule="evenodd" fill-opacity="1" /><path clip-path="url(#clip800)" d="M1458.76 590.433 L1466.4 590.433 L1466.4 564.067 L1458.09 565.734 L1458.09 561.475 L1466.36 559.808 L1471.03 559.808 L1471.03 590.433 L1478.67 590.433 L1478.67 594.368 L1458.76 594.368 L1458.76 590.433 Z" fill="#000000" fill-rule="evenodd" fill-opacity="1" /><path clip-path="url(#clip800)" d="M1498.12 562.887 Q1494.51 562.887 1492.68 566.451 Q1490.87 569.993 1490.87 577.123 Q1490.87 584.229 1492.68 587.794 Q1494.51 591.335 1498.12 591.335 Q1501.75 591.335 1503.56 587.794 Q1505.39 584.229 1505.39 577.123 Q1505.39 569.993 1503.56 566.451 Q1501.75 562.887 1498.12 562.887 M1498.12 559.183 Q1503.93 559.183 1506.98 563.789 Q1510.06 568.373 1510.06 577.123 Q1510.06 585.849 1506.98 590.456 Q1503.93 595.039 1498.12 595.039 Q1492.31 595.039 1489.23 590.456 Q1486.17 585.849 1486.17 577.123 Q1486.17 568.373 1489.23 563.789 Q1492.31 559.183 1498.12 559.183 Z" fill="#000000" fill-rule="evenodd" fill-opacity="1" /><path clip-path="url(#clip800)" d="M1528.28 562.887 Q1524.67 562.887 1522.84 566.451 Q1521.03 569.993 1521.03 577.123 Q1521.03 584.229 1522.84 587.794 Q1524.67 591.335 1528.28 591.335 Q1531.91 591.335 1533.72 587.794 Q1535.55 584.229 1535.55 577.123 Q1535.55 569.993 1533.72 566.451 Q1531.91 562.887 1528.28 562.887 M1528.28 559.183 Q1534.09 559.183 1537.14 563.789 Q1540.22 568.373 1540.22 577.123 Q1540.22 585.849 1537.14 590.456 Q1534.09 595.039 1528.28 595.039 Q1522.47 595.039 1519.39 590.456 Q1516.33 585.849 1516.33 577.123 Q1516.33 568.373 1519.39 563.789 Q1522.47 559.183 1528.28 559.183 Z" fill="#000000" fill-rule="evenodd" fill-opacity="1" /><path clip-path="url(#clip800)" d="M1558.44 562.887 Q1554.83 562.887 1553 566.451 Q1551.19 569.993 1551.19 577.123 Q1551.19 584.229 1553 587.794 Q1554.83 591.335 1558.44 591.335 Q1562.07 591.335 1563.88 587.794 Q1565.71 584.229 1565.71 577.123 Q1565.71 569.993 1563.88 566.451 Q1562.07 562.887 1558.44 562.887 M1558.44 559.183 Q1564.25 559.183 1567.31 563.789 Q1570.38 568.373 1570.38 577.123 Q1570.38 585.849 1567.31 590.456 Q1564.25 595.039 1558.44 595.039 Q1552.63 595.039 1549.55 590.456 Q1546.5 585.849 1546.5 577.123 Q1546.5 568.373 1549.55 563.789 Q1552.63 559.183 1558.44 559.183 Z" fill="#000000" fill-rule="evenodd" fill-opacity="1" /><path clip-path="url(#clip800)" d="M2105.93 590.433 L2113.56 590.433 L2113.56 564.067 L2105.25 565.734 L2105.25 561.475 L2113.52 559.808 L2118.19 559.808 L2118.19 590.433 L2125.83 590.433 L2125.83 594.368 L2105.93 594.368 L2105.93 590.433 Z" fill="#000000" fill-rule="evenodd" fill-opacity="1" /><path clip-path="url(#clip800)" d="M2135.32 559.808 L2153.68 559.808 L2153.68 563.743 L2139.61 563.743 L2139.61 572.215 Q2140.62 571.868 2141.64 571.706 Q2142.66 571.521 2143.68 571.521 Q2149.47 571.521 2152.85 574.692 Q2156.23 577.863 2156.23 583.28 Q2156.23 588.859 2152.75 591.96 Q2149.28 595.039 2142.96 595.039 Q2140.79 595.039 2138.52 594.669 Q2136.27 594.298 2133.87 593.558 L2133.87 588.859 Q2135.95 589.993 2138.17 590.548 Q2140.39 591.104 2142.87 591.104 Q2146.87 591.104 2149.21 588.998 Q2151.55 586.891 2151.55 583.28 Q2151.55 579.669 2149.21 577.562 Q2146.87 575.456 2142.87 575.456 Q2140.99 575.456 2139.12 575.873 Q2137.27 576.289 2135.32 577.169 L2135.32 559.808 Z" fill="#000000" fill-rule="evenodd" fill-opacity="1" /><path clip-path="url(#clip800)" d="M2175.44 562.887 Q2171.83 562.887 2170 566.451 Q2168.19 569.993 2168.19 577.123 Q2168.19 584.229 2170 587.794 Q2171.83 591.335 2175.44 591.335 Q2179.07 591.335 2180.88 587.794 Q2182.71 584.229 2182.71 577.123 Q2182.71 569.993 2180.88 566.451 Q2179.07 562.887 2175.44 562.887 M2175.44 559.183 Q2181.25 559.183 2184.3 563.789 Q2187.38 568.373 2187.38 577.123 Q2187.38 585.849 2184.3 590.456 Q2181.25 595.039 2175.44 595.039 Q2169.63 595.039 2166.55 590.456 Q2163.49 585.849 2163.49 577.123 Q2163.49 568.373 2166.55 563.789 Q2169.63 559.183 2175.44 559.183 Z" fill="#000000" fill-rule="evenodd" fill-opacity="1" /><path clip-path="url(#clip800)" d="M2205.6 562.887 Q2201.99 562.887 2200.16 566.451 Q2198.36 569.993 2198.36 577.123 Q2198.36 584.229 2200.16 587.794 Q2201.99 591.335 2205.6 591.335 Q2209.24 591.335 2211.04 587.794 Q2212.87 584.229 2212.87 577.123 Q2212.87 569.993 2211.04 566.451 Q2209.24 562.887 2205.6 562.887 M2205.6 559.183 Q2211.41 559.183 2214.47 563.789 Q2217.55 568.373 2217.55 577.123 Q2217.55 585.849 2214.47 590.456 Q2211.41 595.039 2205.6 595.039 Q2199.79 595.039 2196.71 590.456 Q2193.66 585.849 2193.66 577.123 Q2193.66 568.373 2196.71 563.789 Q2199.79 559.183 2205.6 559.183 Z" fill="#000000" fill-rule="evenodd" fill-opacity="1" /><path clip-path="url(#clip800)" d="M2757.17 590.433 L2773.49 590.433 L2773.49 594.368 L2751.55 594.368 L2751.55 590.433 Q2754.21 587.678 2758.79 583.048 Q2763.4 578.396 2764.58 577.053 Q2766.82 574.53 2767.7 572.794 Q2768.61 571.035 2768.61 569.345 Q2768.61 566.59 2766.66 564.854 Q2764.74 563.118 2761.64 563.118 Q2759.44 563.118 2756.99 563.882 Q2754.56 564.646 2751.78 566.197 L2751.78 561.475 Q2754.6 560.34 2757.06 559.762 Q2759.51 559.183 2761.55 559.183 Q2766.92 559.183 2770.11 561.868 Q2773.31 564.553 2773.31 569.044 Q2773.31 571.174 2772.5 573.095 Q2771.71 574.993 2769.6 577.586 Q2769.02 578.257 2765.92 581.474 Q2762.82 584.669 2757.17 590.433 Z" fill="#000000" fill-rule="evenodd" fill-opacity="1" /><path clip-path="url(#clip800)" d="M2793.31 562.887 Q2789.69 562.887 2787.87 566.451 Q2786.06 569.993 2786.06 577.123 Q2786.06 584.229 2787.87 587.794 Q2789.69 591.335 2793.31 591.335 Q2796.94 591.335 2798.75 587.794 Q2800.57 584.229 2800.57 577.123 Q2800.57 569.993 2798.75 566.451 Q2796.94 562.887 2793.31 562.887 M2793.31 559.183 Q2799.12 559.183 2802.17 563.789 Q2805.25 568.373 2805.25 577.123 Q2805.25 585.849 2802.17 590.456 Q2799.12 595.039 2793.31 595.039 Q2787.5 595.039 2784.42 590.456 Q2781.36 585.849 2781.36 577.123 Q2781.36 568.373 2784.42 563.789 Q2787.5 559.183 2793.31 559.183 Z" fill="#000000" fill-rule="evenodd" fill-opacity="1" /><path clip-path="url(#clip800)" d="M2823.47 562.887 Q2819.86 562.887 2818.03 566.451 Q2816.22 569.993 2816.22 577.123 Q2816.22 584.229 2818.03 587.794 Q2819.86 591.335 2823.47 591.335 Q2827.1 591.335 2828.91 587.794 Q2830.74 584.229 2830.74 577.123 Q2830.74 569.993 2828.91 566.451 Q2827.1 562.887 2823.47 562.887 M2823.47 559.183 Q2829.28 559.183 2832.33 563.789 Q2835.41 568.373 2835.41 577.123 Q2835.41 585.849 2832.33 590.456 Q2829.28 595.039 2823.47 595.039 Q2817.66 595.039 2814.58 590.456 Q2811.52 585.849 2811.52 577.123 Q2811.52 568.373 2814.58 563.789 Q2817.66 559.183 2823.47 559.183 Z" fill="#000000" fill-rule="evenodd" fill-opacity="1" /><path clip-path="url(#clip800)" d="M2853.63 562.887 Q2850.02 562.887 2848.19 566.451 Q2846.38 569.993 2846.38 577.123 Q2846.38 584.229 2848.19 587.794 Q2850.02 591.335 2853.63 591.335 Q2857.26 591.335 2859.07 587.794 Q2860.9 584.229 2860.9 577.123 Q2860.9 569.993 2859.07 566.451 Q2857.26 562.887 2853.63 562.887 M2853.63 559.183 Q2859.44 559.183 2862.5 563.789 Q2865.57 568.373 2865.57 577.123 Q2865.57 585.849 2862.5 590.456 Q2859.44 595.039 2853.63 595.039 Q2847.82 595.039 2844.74 590.456 Q2841.68 585.849 2841.68 577.123 Q2841.68 568.373 2844.74 563.789 Q2847.82 559.183 2853.63 559.183 Z" fill="#000000" fill-rule="evenodd" fill-opacity="1" /><path clip-path="url(#clip800)" d="M3404.33 590.433 L3420.65 590.433 L3420.65 594.368 L3398.71 594.368 L3398.71 590.433 Q3401.37 587.678 3405.95 583.048 Q3410.56 578.396 3411.74 577.053 Q3413.98 574.53 3414.86 572.794 Q3415.77 571.035 3415.77 569.345 Q3415.77 566.59 3413.82 564.854 Q3411.9 563.118 3408.8 563.118 Q3406.6 563.118 3404.15 563.882 Q3401.72 564.646 3398.94 566.197 L3398.94 561.475 Q3401.76 560.34 3404.22 559.762 Q3406.67 559.183 3408.71 559.183 Q3414.08 559.183 3417.27 561.868 Q3420.47 564.553 3420.47 569.044 Q3420.47 571.174 3419.66 573.095 Q3418.87 574.993 3416.76 577.586 Q3416.18 578.257 3413.08 581.474 Q3409.98 584.669 3404.33 590.433 Z" fill="#000000" fill-rule="evenodd" fill-opacity="1" /><path clip-path="url(#clip800)" d="M3430.51 559.808 L3448.87 559.808 L3448.87 563.743 L3434.79 563.743 L3434.79 572.215 Q3435.81 571.868 3436.83 571.706 Q3437.85 571.521 3438.87 571.521 Q3444.66 571.521 3448.04 574.692 Q3451.42 577.863 3451.42 583.28 Q3451.42 588.859 3447.94 591.96 Q3444.47 595.039 3438.15 595.039 Q3435.98 595.039 3433.71 594.669 Q3431.46 594.298 3429.05 593.558 L3429.05 588.859 Q3431.14 589.993 3433.36 590.548 Q3435.58 591.104 3438.06 591.104 Q3442.06 591.104 3444.4 588.998 Q3446.74 586.891 3446.74 583.28 Q3446.74 579.669 3444.4 577.562 Q3442.06 575.456 3438.06 575.456 Q3436.18 575.456 3434.31 575.873 Q3432.46 576.289 3430.51 577.169 L3430.51 559.808 Z" fill="#000000" fill-rule="evenodd" fill-opacity="1" /><path clip-path="url(#clip800)" d="M3470.63 562.887 Q3467.02 562.887 3465.19 566.451 Q3463.38 569.993 3463.38 577.123 Q3463.38 584.229 3465.19 587.794 Q3467.02 591.335 3470.63 591.335 Q3474.26 591.335 3476.07 587.794 Q3477.9 584.229 3477.9 577.123 Q3477.9 569.993 3476.07 566.451 Q3474.26 562.887 3470.63 562.887 M3470.63 559.183 Q3476.44 559.183 3479.49 563.789 Q3482.57 568.373 3482.57 577.123 Q3482.57 585.849 3479.49 590.456 Q3476.44 595.039 3470.63 595.039 Q3464.82 595.039 3461.74 590.456 Q3458.68 585.849 3458.68 577.123 Q3458.68 568.373 3461.74 563.789 Q3464.82 559.183 3470.63 559.183 Z" fill="#000000" fill-rule="evenodd" fill-opacity="1" /><path clip-path="url(#clip800)" d="M3500.79 562.887 Q3497.18 562.887 3495.35 566.451 Q3493.54 569.993 3493.54 577.123 Q3493.54 584.229 3495.35 587.794 Q3497.18 591.335 3500.79 591.335 Q3504.42 591.335 3506.23 587.794 Q3508.06 584.229 3508.06 577.123 Q3508.06 569.993 3506.23 566.451 Q3504.42 562.887 3500.79 562.887 M3500.79 559.183 Q3506.6 559.183 3509.66 563.789 Q3512.73 568.373 3512.73 577.123 Q3512.73 585.849 3509.66 590.456 Q3506.6 595.039 3500.79 595.039 Q3494.98 595.039 3491.9 590.456 Q3488.85 585.849 3488.85 577.123 Q3488.85 568.373 3491.9 563.789 Q3494.98 559.183 3500.79 559.183 Z" fill="#000000" fill-rule="evenodd" fill-opacity="1" /><polyline clip-path="url(#clip802)" style="stroke:#000000; stroke-linecap:round; stroke-linejoin:round; stroke-width:2; stroke-opacity:0.1; fill:none" points="124.177,522.368 3552.76,522.368 "/>
<polyline clip-path="url(#clip802)" style="stroke:#000000; stroke-linecap:round; stroke-linejoin:round; stroke-width:2; stroke-opacity:0.1; fill:none" points="124.177,454.493 3552.76,454.493 "/>
<polyline clip-path="url(#clip802)" style="stroke:#000000; stroke-linecap:round; stroke-linejoin:round; stroke-width:2; stroke-opacity:0.1; fill:none" points="124.177,386.618 3552.76,386.618 "/>
<polyline clip-path="url(#clip802)" style="stroke:#000000; stroke-linecap:round; stroke-linejoin:round; stroke-width:2; stroke-opacity:0.1; fill:none" points="124.177,318.743 3552.76,318.743 "/>
<polyline clip-path="url(#clip802)" style="stroke:#000000; stroke-linecap:round; stroke-linejoin:round; stroke-width:2; stroke-opacity:0.1; fill:none" points="124.177,250.869 3552.76,250.869 "/>
<polyline clip-path="url(#clip802)" style="stroke:#000000; stroke-linecap:round; stroke-linejoin:round; stroke-width:2; stroke-opacity:0.1; fill:none" points="124.177,182.994 3552.76,182.994 "/>
<polyline clip-path="url(#clip802)" style="stroke:#000000; stroke-linecap:round; stroke-linejoin:round; stroke-width:2; stroke-opacity:0.1; fill:none" points="124.177,115.119 3552.76,115.119 "/>
<polyline clip-path="url(#clip802)" style="stroke:#000000; stroke-linecap:round; stroke-linejoin:round; stroke-width:2; stroke-opacity:0.1; fill:none" points="124.177,47.2441 3552.76,47.2441 "/>
<polyline clip-path="url(#clip800)" style="stroke:#000000; stroke-linecap:round; stroke-linejoin:round; stroke-width:4; stroke-opacity:1; fill:none" points="124.177,522.368 124.177,47.2441 "/>
<polyline clip-path="url(#clip800)" style="stroke:#000000; stroke-linecap:round; stroke-linejoin:round; stroke-width:4; stroke-opacity:1; fill:none" points="124.177,522.368 143.075,522.368 "/>
<polyline clip-path="url(#clip800)" style="stroke:#000000; stroke-linecap:round; stroke-linejoin:round; stroke-width:4; stroke-opacity:1; fill:none" points="124.177,454.493 143.075,454.493 "/>
<polyline clip-path="url(#clip800)" style="stroke:#000000; stroke-linecap:round; stroke-linejoin:round; stroke-width:4; stroke-opacity:1; fill:none" points="124.177,386.618 143.075,386.618 "/>
<polyline clip-path="url(#clip800)" style="stroke:#000000; stroke-linecap:round; stroke-linejoin:round; stroke-width:4; stroke-opacity:1; fill:none" points="124.177,318.743 143.075,318.743 "/>
<polyline clip-path="url(#clip800)" style="stroke:#000000; stroke-linecap:round; stroke-linejoin:round; stroke-width:4; stroke-opacity:1; fill:none" points="124.177,250.869 143.075,250.869 "/>
<polyline clip-path="url(#clip800)" style="stroke:#000000; stroke-linecap:round; stroke-linejoin:round; stroke-width:4; stroke-opacity:1; fill:none" points="124.177,182.994 143.075,182.994 "/>
<polyline clip-path="url(#clip800)" style="stroke:#000000; stroke-linecap:round; stroke-linejoin:round; stroke-width:4; stroke-opacity:1; fill:none" points="124.177,115.119 143.075,115.119 "/>
<polyline clip-path="url(#clip800)" style="stroke:#000000; stroke-linecap:round; stroke-linejoin:round; stroke-width:4; stroke-opacity:1; fill:none" points="124.177,47.2441 143.075,47.2441 "/>
<path clip-path="url(#clip800)" d="M50.2699 535.713 L57.9087 535.713 L57.9087 509.347 L49.5986 511.014 L49.5986 506.755 L57.8624 505.088 L62.5383 505.088 L62.5383 535.713 L70.1772 535.713 L70.1772 539.648 L50.2699 539.648 L50.2699 535.713 Z" fill="#000000" fill-rule="evenodd" fill-opacity="1" /><path clip-path="url(#clip800)" d="M53.8578 467.838 L70.1772 467.838 L70.1772 471.773 L48.2328 471.773 L48.2328 467.838 Q50.8949 465.083 55.4782 460.454 Q60.0846 455.801 61.2652 454.458 Q63.5105 451.935 64.3902 450.199 Q65.2929 448.44 65.2929 446.75 Q65.2929 443.995 63.3485 442.259 Q61.4272 440.523 58.3254 440.523 Q56.1263 440.523 53.6726 441.287 Q51.2421 442.051 48.4643 443.602 L48.4643 438.88 Q51.2884 437.745 53.7421 437.167 Q56.1958 436.588 58.2328 436.588 Q63.6031 436.588 66.7976 439.273 Q69.992 441.958 69.992 446.449 Q69.992 448.579 69.1818 450.5 Q68.3948 452.398 66.2883 454.991 Q65.7096 455.662 62.6078 458.88 Q59.5059 462.074 53.8578 467.838 Z" fill="#000000" fill-rule="evenodd" fill-opacity="1" /><path clip-path="url(#clip800)" d="M63.0476 385.264 Q66.404 385.982 68.279 388.25 Q70.1772 390.519 70.1772 393.852 Q70.1772 398.968 66.6587 401.769 Q63.1402 404.57 56.6587 404.57 Q54.4828 404.57 52.168 404.13 Q49.8764 403.713 47.4227 402.857 L47.4227 398.343 Q49.3671 399.477 51.6819 400.056 Q53.9967 400.634 56.5198 400.634 Q60.918 400.634 63.2096 398.898 Q65.5244 397.162 65.5244 393.852 Q65.5244 390.796 63.3717 389.083 Q61.242 387.347 57.4226 387.347 L53.3949 387.347 L53.3949 383.505 L57.6078 383.505 Q61.0569 383.505 62.8855 382.139 Q64.7142 380.75 64.7142 378.158 Q64.7142 375.496 62.8161 374.084 Q60.9411 372.648 57.4226 372.648 Q55.5013 372.648 53.3023 373.065 Q51.1032 373.482 48.4643 374.361 L48.4643 370.195 Q51.1264 369.454 53.4412 369.084 Q55.7791 368.713 57.8393 368.713 Q63.1633 368.713 66.2652 371.144 Q69.367 373.551 69.367 377.672 Q69.367 380.542 67.7235 382.533 Q66.08 384.5 63.0476 385.264 Z" fill="#000000" fill-rule="evenodd" fill-opacity="1" /><path clip-path="url(#clip800)" d="M60.5939 305.537 L48.7884 323.986 L60.5939 323.986 L60.5939 305.537 M59.367 301.463 L65.2466 301.463 L65.2466 323.986 L70.1772 323.986 L70.1772 327.875 L65.2466 327.875 L65.2466 336.023 L60.5939 336.023 L60.5939 327.875 L44.9921 327.875 L44.9921 323.361 L59.367 301.463 Z" fill="#000000" fill-rule="evenodd" fill-opacity="1" /><path clip-path="url(#clip800)" d="M49.2745 233.589 L67.6309 233.589 L67.6309 237.524 L53.5569 237.524 L53.5569 245.996 Q54.5754 245.649 55.5939 245.487 Q56.6124 245.301 57.6309 245.301 Q63.418 245.301 66.7976 248.473 Q70.1772 251.644 70.1772 257.061 Q70.1772 262.639 66.705 265.741 Q63.2328 268.82 56.9134 268.82 Q54.7374 268.82 52.4689 268.449 Q50.2236 268.079 47.8162 267.338 L47.8162 262.639 Q49.8995 263.774 52.1217 264.329 Q54.3439 264.885 56.8208 264.885 Q60.8254 264.885 63.1633 262.778 Q65.5013 260.672 65.5013 257.061 Q65.5013 253.45 63.1633 251.343 Q60.8254 249.237 56.8208 249.237 Q54.9458 249.237 53.0708 249.653 Q51.2189 250.07 49.2745 250.95 L49.2745 233.589 Z" fill="#000000" fill-rule="evenodd" fill-opacity="1" /><path clip-path="url(#clip800)" d="M58.6495 181.13 Q55.5013 181.13 53.6495 183.283 Q51.8208 185.436 51.8208 189.186 Q51.8208 192.913 53.6495 195.089 Q55.5013 197.241 58.6495 197.241 Q61.7976 197.241 63.6263 195.089 Q65.4781 192.913 65.4781 189.186 Q65.4781 185.436 63.6263 183.283 Q61.7976 181.13 58.6495 181.13 M67.9318 166.478 L67.9318 170.737 Q66.1726 169.904 64.367 169.464 Q62.5846 169.024 60.8254 169.024 Q56.1958 169.024 53.7421 172.149 Q51.3115 175.274 50.9643 181.593 Q52.33 179.579 54.3902 178.515 Q56.4504 177.427 58.9272 177.427 Q64.1355 177.427 67.1448 180.598 Q70.1772 183.746 70.1772 189.186 Q70.1772 194.51 67.029 197.727 Q63.8809 200.945 58.6495 200.945 Q52.6541 200.945 49.4828 196.362 Q46.3116 191.755 46.3116 183.028 Q46.3116 174.834 50.2004 169.973 Q54.0893 165.089 60.6402 165.089 Q62.3994 165.089 64.1818 165.436 Q65.9874 165.783 67.9318 166.478 Z" fill="#000000" fill-rule="evenodd" fill-opacity="1" /><path clip-path="url(#clip800)" d="M47.9551 97.8389 L70.1772 97.8389 L70.1772 99.8297 L57.6309 132.399 L52.7467 132.399 L64.5522 101.774 L47.9551 101.774 L47.9551 97.8389 Z" fill="#000000" fill-rule="evenodd" fill-opacity="1" /><path clip-path="url(#clip800)" d="M58.3254 48.1121 Q54.9921 48.1121 53.0708 49.8945 Q51.1726 51.6769 51.1726 54.8019 Q51.1726 57.9269 53.0708 59.7093 Q54.9921 61.4917 58.3254 61.4917 Q61.6587 61.4917 63.58 59.7093 Q65.5013 57.9038 65.5013 54.8019 Q65.5013 51.6769 63.58 49.8945 Q61.6819 48.1121 58.3254 48.1121 M53.6495 46.1214 Q50.6402 45.3807 48.9504 43.3205 Q47.2838 41.2603 47.2838 38.2974 Q47.2838 34.1539 50.2236 31.7465 Q53.1865 29.3391 58.3254 29.3391 Q63.4874 29.3391 66.4272 31.7465 Q69.367 34.1539 69.367 38.2974 Q69.367 41.2603 67.6772 43.3205 Q66.0105 45.3807 63.0244 46.1214 Q66.404 46.9084 68.279 49.2001 Q70.1772 51.4918 70.1772 54.8019 Q70.1772 59.825 67.0985 62.5102 Q64.0429 65.1954 58.3254 65.1954 Q52.6078 65.1954 49.5291 62.5102 Q46.4736 59.825 46.4736 54.8019 Q46.4736 51.4918 48.3717 49.2001 Q50.2699 46.9084 53.6495 46.1214 M51.9365 38.7372 Q51.9365 41.4224 53.6032 42.927 Q55.293 44.4316 58.3254 44.4316 Q61.3346 44.4316 63.0244 42.927 Q64.7374 41.4224 64.7374 38.7372 Q64.7374 36.052 63.0244 34.5474 Q61.3346 33.0428 58.3254 33.0428 Q55.293 33.0428 53.6032 34.5474 Q51.9365 36.052 51.9365 38.7372 Z" fill="#000000" fill-rule="evenodd" fill-opacity="1" /><polyline clip-path="url(#clip802)" style="stroke:#009af9; stroke-linecap:round; stroke-linejoin:round; stroke-width:2; stroke-opacity:0.9; fill:none" points="221.212,198.128 222.507,299.149 223.801,238.993 225.095,257.113 226.39,274.275 227.684,406.493 228.978,154.114 230.273,324.149 231.567,122.675 232.861,141.21 234.156,176.614 235.45,193.001 236.744,212.041 238.039,97.8962 239.333,159.303 240.627,238.612 241.922,335.791 243.216,337.61 244.51,212.677 245.805,195.746 247.099,185.782 248.393,225.092 249.687,163.933 250.982,151.621 252.276,177.371 253.57,257.958 254.865,164.751 256.159,343.581 257.453,325.759 258.748,168.133 260.042,137.904 261.336,340.585 262.631,144.486 263.925,138.782 265.219,208.187 266.514,150.821 267.808,350.559 269.102,198.349 270.397,308.491 271.691,362.523 272.985,345.663 274.28,223.843 275.574,165.448 276.868,292.784 278.163,190.88 279.457,185.539 280.751,166.459 282.046,209.688 283.34,208.189 284.634,188.54 285.928,128.992 287.223,242.997 288.517,120.346 289.811,185.074 291.106,191.228 292.4,171.802 293.694,298.327 294.989,105.754 296.283,206.209 297.577,161.756 298.872,158.011 300.166,277.165 301.46,200.329 302.755,202.671 304.049,320.959 305.343,175.447 306.638,328.381 307.932,329.031 309.226,208.309 310.521,183.023 311.815,150.939 313.109,308.694 314.404,151.637 315.698,169.595 316.992,165.375 318.286,201.565 319.581,165.28 320.875,147.606 322.169,159.826 323.464,171.059 324.758,187.408 326.052,190.844 327.347,273.935 328.641,179.793 329.935,148.646 331.23,218.047 332.524,248.58 333.818,309.347 335.113,156.572 336.407,191.276 337.701,231.753 338.996,272.443 340.29,195.819 341.584,121.328 342.879,340.945 344.173,302.489 345.467,159.221 346.762,226.566 348.056,255.873 349.35,183.847 350.645,151.148 351.939,168.137 353.233,172.582 354.527,201.855 355.822,196.159 357.116,93.7704 358.41,223.855 359.705,187.845 360.999,206.263 362.293,212.326 363.588,203.6 364.882,177.271 366.176,173.739 367.471,215.176 368.765,151.333 370.059,166.958 371.354,170.488 372.648,153.821 373.942,163.58 375.237,128.667 376.531,185.736 377.825,163.931 379.12,401.221 380.414,139.711 381.708,192.575 383.003,210.923 384.297,181.34 385.591,134.299 386.886,189.377 388.18,183.336 389.474,268.107 390.768,327.973 392.063,146.486 393.357,192.796 394.651,179.926 395.946,267.134 397.24,165.717 398.534,253.818 399.829,147.075 401.123,171.051 402.417,225.48 403.712,137.943 405.006,125.139 406.3,157.432 407.595,454.334 408.889,96.2104 410.183,237.729 411.478,196.547 412.772,298.868 414.066,232.915 415.361,101.783 416.655,168.776 417.949,198.164 419.244,220.241 420.538,191.586 421.832,191.959 423.127,197.76 424.421,168.642 425.715,167.898 427.009,180.932 428.304,184.481 429.598,235.884 430.892,88.4422 432.187,267.065 433.481,184.098 434.775,351.579 436.07,153.555 437.364,99.5373 438.658,197.633 439.953,186.519 441.247,174.811 442.541,227.989 443.836,198.392 445.13,176.401 446.424,200.062 447.719,205.527 449.013,301.237 450.307,130.82 451.602,214.06 452.896,158.974 454.19,196.494 455.485,223.928 456.779,125.509 458.073,180.922 459.367,167.381 460.662,333.327 461.956,175.902 463.25,192.971 464.545,296.887 465.839,214.657 467.133,209.273 468.428,134.178 469.722,165.784 471.016,149.452 472.311,169.202 473.605,152.172 474.899,145.309 476.194,191.131 477.488,177.443 478.782,225.751 480.077,179.778 481.371,177.343 482.665,156.731 483.96,161.51 485.254,142.16 486.548,226.974 487.843,166.603 489.137,351.928 490.431,184.543 491.726,154.894 493.02,164.62 494.314,217.002 495.608,304.066 496.903,177.513 498.197,138.47 499.491,277.441 500.786,298.685 502.08,193.23 503.374,214.998 504.669,164.034 505.963,214.147 507.257,305.721 508.552,194.929 509.846,154.738 511.14,159.951 512.435,176.678 513.729,153.971 515.023,177.581 516.318,111.136 517.612,467.68 518.906,135.724 520.201,174.533 521.495,192.895 522.789,192.951 524.084,144.695 525.378,310.768 526.672,323.406 527.967,163.542 529.261,202.6 530.555,185.387 531.849,241.361 533.144,174.005 534.438,207.304 535.732,244.741 537.027,344.861 538.321,217.447 539.615,202.907 540.91,193.906 542.204,190.196 543.498,324.075 544.793,492.688 546.087,198.235 547.381,374.955 548.676,140.973 549.97,163.849 551.264,196.516 552.559,217.628 553.853,174.308 555.147,131.421 556.442,204.605 557.736,178.891 559.03,226.034 560.325,161.311 561.619,168.595 562.913,309.46 564.207,431.244 565.502,290.798 566.796,135.01 568.09,191.803 569.385,232.724 570.679,173.125 571.973,128.122 573.268,303.059 574.562,194.784 575.856,183.019 577.151,147.938 578.445,158.394 579.739,180.257 581.034,179.719 582.328,235.402 583.622,249.217 584.917,204.484 586.211,125.121 587.505,149.282 588.8,125.409 590.094,193.527 591.388,185.346 592.683,128.952 593.977,214.469 595.271,156.789 596.566,176.288 597.86,166.162 599.154,105.05 600.448,194.935 601.743,380.553 603.037,207.592 604.331,234.373 605.626,160.702 606.92,157.053 608.214,220.42 609.509,177.397 610.803,199.476 612.097,283.355 613.392,163.019 614.686,238.415 615.98,192.303 617.275,291.235 618.569,169.222 619.863,337.67 621.158,487.481 622.452,255.578 623.746,151.004 625.041,156.428 626.335,145.103 627.629,162.368 628.924,229.616 630.218,182.976 631.512,196.426 632.807,117.482 634.101,189.253 635.395,134.566 636.689,223.383 637.984,176.528 639.278,166.709 640.572,184.859 641.867,198.043 643.161,203.929 644.455,150.848 645.75,69.9439 647.044,168.106 648.338,168.008 649.633,302.268 650.927,150.348 652.221,192.833 653.516,187.233 654.81,210.447 656.104,186.654 657.399,173.22 658.693,179.834 659.987,118.002 661.282,147.374 662.576,175.937 663.87,227.203 665.165,187.934 666.459,227.29 667.753,198.282 669.047,200.719 670.342,213.384 671.636,164.169 672.93,142.747 674.225,161.081 675.519,348.089 676.813,207.167 678.108,183.534 679.402,282.087 680.696,183.347 681.991,129.659 683.285,170.68 684.579,206.512 685.874,301.823 687.168,164.349 688.462,187.842 689.757,203.453 691.051,195.508 692.345,171.394 693.64,156.919 694.934,179.508 696.228,170.446 697.523,144.467 698.817,231.755 700.111,157.906 701.406,224.89 702.7,185.594 703.994,174.836 705.288,181.423 706.583,202.316 707.877,178.559 709.171,177.96 710.466,149.197 711.76,314.967 713.054,133.327 714.349,360.675 715.643,142.724 716.937,175.528 718.232,218.66 719.526,176.503 720.82,221.112 722.115,178.436 723.409,188.336 724.703,209.022 725.998,150.614 727.292,222.595 728.586,122.769 729.881,185.295 731.175,154.676 732.469,284.811 733.764,213.425 735.058,159.212 736.352,332.941 737.647,166.641 738.941,297.168 740.235,337.907 741.529,136.498 742.824,176.128 744.118,180.606 745.412,346.851 746.707,280.724 748.001,89.5107 749.295,208.608 750.59,300.81 751.884,260.169 753.178,171.971 754.473,179.217 755.767,161.884 757.061,147.41 758.356,214.213 759.65,114.356 760.944,255.878 762.239,195.426 763.533,195.839 764.827,190.607 766.122,136.613 767.416,183.918 768.71,212.594 770.005,205.391 771.299,130.386 772.593,323.657 773.887,320.52 775.182,188.789 776.476,176.989 777.77,228.772 779.065,198.389 780.359,156.412 781.653,210.42 782.948,100.51 784.242,148.792 785.536,187.185 786.831,221.386 788.125,166.871 789.419,323.789 790.714,183.703 792.008,349.55 793.302,298.936 794.597,349.393 795.891,174.73 797.185,179.147 798.48,178.367 799.774,193.12 801.068,211.358 802.363,355.418 803.657,212.152 804.951,306.445 806.246,225.225 807.54,238.597 808.834,191.975 810.128,154.753 811.423,341.314 812.717,174.81 814.011,176.792 815.306,201.885 816.6,198.526 817.894,216.571 819.189,421.397 820.483,166.676 821.777,192.833 823.072,177.448 824.366,299.311 825.66,183.734 826.955,156.165 828.249,222.83 829.543,243.028 830.838,323.271 832.132,174.72 833.426,109.633 834.721,162.308 836.015,165.551 837.309,200.68 838.604,176.533 839.898,226.387 841.192,142.346 842.487,182.834 843.781,194.533 845.075,382.135 846.369,208.423 847.664,172.005 848.958,239.458 850.252,321.122 851.547,205.946 852.841,167.247 854.135,173.729 855.43,258.422 856.724,299.877 858.018,211.823 859.313,307.451 860.607,326.056 861.901,228.221 863.196,162.804 864.49,198.759 865.784,209.193 867.079,325.842 868.373,189.605 869.667,179.321 870.962,177.975 872.256,214.841 873.55,230.117 874.845,109.228 876.139,242.981 877.433,314.649 878.728,120.762 880.022,245.166 881.316,243.926 882.61,310.82 883.905,192.957 885.199,147.79 886.493,202.136 887.788,192.164 889.082,179.421 890.376,164.194 891.671,255.331 892.965,195.712 894.259,203.728 895.554,211.895 896.848,154.837 898.142,224.057 899.437,217.385 900.731,129.374 902.025,217.88 903.32,176.437 904.614,180.735 905.908,189.932 907.203,233.985 908.497,313.479 909.791,184.087 911.086,144.464 912.38,147.302 913.674,191.343 914.968,175.442 916.263,297.403 917.557,195.058 918.851,232.708 920.146,178.163 921.44,244.262 922.734,145.494 924.029,263.065 925.323,384.765 926.617,326.094 927.912,216.252 929.206,132.035 930.5,269.344 931.795,317.481 933.089,185.883 934.383,178.126 935.678,133.753 936.972,207.611 938.266,232.054 939.561,223.449 940.855,171.951 942.149,211.589 943.444,153.331 944.738,152.999 946.032,202.371 947.327,204.407 948.621,174.594 949.915,160.16 951.209,195.721 952.504,173.245 953.798,298.894 955.092,188.288 956.387,148.501 957.681,171.235 958.975,158.678 960.27,152.321 961.564,132.09 962.858,125.069 964.153,141.038 965.447,170.814 966.741,226.764 968.036,144.826 969.33,156.8 970.624,139.005 971.919,159.441 973.213,168.9 974.507,258.926 975.802,267.112 977.096,335.037 978.39,243.116 979.685,163.44 980.979,188.043 982.273,213.322 983.568,215.916 984.862,143.745 986.156,166.462 987.45,132.557 988.745,191.059 990.039,98.7601 991.333,112.462 992.628,251.701 993.922,180.21 995.216,168.648 996.511,364.979 997.805,331.455 999.099,205.639 1000.39,289.705 1001.69,180.285 1002.98,405.195 1004.28,152.047 1005.57,124.098 1006.87,196.824 1008.16,195.658 1009.45,199.942 1010.75,155.511 1012.04,190.272 1013.34,179.927 1014.63,315.095 1015.93,144.407 1017.22,120.267 1018.51,174.533 1019.81,157.049 1021.1,189.392 1022.4,372.327 1023.69,165.615 1024.99,338.811 1026.28,173.604 1027.57,184.269 1028.87,175.762 1030.16,149.104 1031.46,260.087 1032.75,194.455 1034.05,173.598 1035.34,395.261 1036.63,145.257 1037.93,343.106 1039.22,181.403 1040.52,250.23 1041.81,165.482 1043.11,174.625 1044.4,183.821 1045.69,204.208 1046.99,179.317 1048.28,223.821 1049.58,318.837 1050.87,135.333 1052.17,219.103 1053.46,227.009 1054.76,246.555 1056.05,206.936 1057.34,157.501 1058.64,184.128 1059.93,285.889 1061.23,338.861 1062.52,159.898 1063.82,172.789 1065.11,273.237 1066.4,171.498 1067.7,214.112 1068.99,189.543 1070.29,202.953 1071.58,150.789 1072.88,312.619 1074.17,171.415 1075.46,154.02 1076.76,174.437 1078.05,459.837 1079.35,137.495 1080.64,181.571 1081.94,159.006 1083.23,162.348 1084.52,146.1 1085.82,240.242 1087.11,171.223 1088.41,177.767 1089.7,337.083 1091,228.176 1092.29,226.415 1093.58,146.049 1094.88,150.802 1096.17,205.56 1097.47,197.478 1098.76,140.731 1100.06,315.329 1101.35,144.654 1102.65,237.842 1103.94,167.891 1105.23,198.009 1106.53,312.99 1107.82,210.749 1109.12,204.96 1110.41,206.558 1111.71,159.522 1113,181.356 1114.29,163.485 1115.59,137.021 1116.88,190.067 1118.18,178.087 1119.47,299.246 1120.77,374.783 1122.06,218.834 1123.35,223.232 1124.65,211.46 1125.94,136.858 1127.24,462.677 1128.53,116.303 1129.83,221.793 1131.12,158.033 1132.41,195.735 1133.71,188.69 1135,126.873 1136.3,194.695 1137.59,160.681 1138.89,215.184 1140.18,215.456 1141.47,185.908 1142.77,305.115 1144.06,205.993 1145.36,219.729 1146.65,208.258 1147.95,240.772 1149.24,158.92 1150.53,179.714 1151.83,132.799 1153.12,354.125 1154.42,256.435 1155.71,148.111 1157.01,172.233 1158.3,194.753 1159.6,196.364 1160.89,200.529 1162.18,226.133 1163.48,156.342 1164.77,269.227 1166.07,152.923 1167.36,182.4 1168.66,180.855 1169.95,236.205 1171.24,159.428 1172.54,166.819 1173.83,163.767 1175.13,191.06 1176.42,140.818 1177.72,171.478 1179.01,143.797 1180.3,267.116 1181.6,199.495 1182.89,186.972 1184.19,156.621 1185.48,199.692 1186.78,326.531 1188.07,184.615 1189.36,169.11 1190.66,161.171 1191.95,252.119 1193.25,167.794 1194.54,128.259 1195.84,459.916 1197.13,548.02 1198.42,173.534 1199.72,253.149 1201.01,166.803 1202.31,231.674 1203.6,268.751 1204.9,230.473 1206.19,341.309 1207.49,227.201 1208.78,182.135 1210.07,187.076 1211.37,307.42 1212.66,176.093 1213.96,156.282 1215.25,137.999 1216.55,147.76 1217.84,210.434 1219.13,166.167 1220.43,313.864 1221.72,177.082 1223.02,164.827 1224.31,181.06 1225.61,191.269 1226.9,126.307 1228.19,159.61 1229.49,197.563 1230.78,152.432 1232.08,165.1 1233.37,243.707 1234.67,223.846 1235.96,167.376 1237.25,202.841 1238.55,229.25 1239.84,173.233 1241.14,371.33 1242.43,243.81 1243.73,156.599 1245.02,188.02 1246.31,167.091 1247.61,171.282 1248.9,253.359 1250.2,123.25 1251.49,208.033 1252.79,127.09 1254.08,173.75 1255.37,236.651 1256.67,189.099 1257.96,129.14 1259.26,156.562 1260.55,171.372 1261.85,175.656 1263.14,353.294 1264.44,186 1265.73,212.186 1267.02,214.62 1268.32,152.607 1269.61,171.319 1270.91,141.788 1272.2,218.416 1273.5,364.606 1274.79,222.026 1276.08,169.643 1277.38,244.382 1278.67,300.728 1279.97,214.963 1281.26,239.178 1282.56,137.189 1283.85,218.644 1285.14,210.843 1286.44,107.078 1287.73,299.362 1289.03,152.873 1290.32,277.276 1291.62,159.018 1292.91,194.709 1294.2,132.792 1295.5,162.415 1296.79,153.742 1298.09,228.412 1299.38,164.215 1300.68,89.6549 1301.97,223.572 1303.26,185.551 1304.56,225.644 1305.85,136.425 1307.15,168.139 1308.44,112.432 1309.74,184.193 1311.03,163.047 1312.33,209.872 1313.62,323.314 1314.91,149.406 1316.21,103.244 1317.5,193.122 1318.8,163.723 1320.09,219.707 1321.39,163.745 1322.68,195.574 1323.97,467.196 1325.27,160.399 1326.56,312.923 1327.86,323.156 1329.15,184.157 1330.45,294.149 1331.74,185.812 1333.03,173.446 1334.33,185.291 1335.62,121.143 1336.92,300.171 1338.21,187.313 1339.51,116.103 1340.8,86.9445 1342.09,241.511 1343.39,197.668 1344.68,274.684 1345.98,246.182 1347.27,189.428 1348.57,222.587 1349.86,215.042 1351.15,329.801 1352.45,165.158 1353.74,165.553 1355.04,205.927 1356.33,215.098 1357.63,146.511 1358.92,174.606 1360.21,210.98 1361.51,228.882 1362.8,206.811 1364.1,204.541 1365.39,169.82 1366.69,207.647 1367.98,169.571 1369.28,183.855 1370.57,323.272 1371.86,202.793 1373.16,162.265 1374.45,133.112 1375.75,128.824 1377.04,199.635 1378.34,206.685 1379.63,314.374 1380.92,171.824 1382.22,215.973 1383.51,143.89 1384.81,145.006 1386.1,199.895 1387.4,186.059 1388.69,196.167 1389.98,161.822 1391.28,324.974 1392.57,137.473 1393.87,208.923 1395.16,220.5 1396.46,206.409 1397.75,218.308 1399.04,129.765 1400.34,300.698 1401.63,150.935 1402.93,164.809 1404.22,247.378 1405.52,178.38 1406.81,160.279 1408.1,189.724 1409.4,197.16 1410.69,187.344 1411.99,296.116 1413.28,151.154 1414.58,144.242 1415.87,373.672 1417.17,179.763 1418.46,105.793 1419.75,227.269 1421.05,194.324 1422.34,207.891 1423.64,177 1424.93,138.921 1426.23,126.122 1427.52,143.206 1428.81,127.783 1430.11,136.837 1431.4,187.727 1432.7,212.511 1433.99,185.958 1435.29,186.291 1436.58,196.165 1437.87,200.436 1439.17,159.211 1440.46,170.577 1441.76,106.556 1443.05,152.257 1444.35,180.14 1445.64,211.304 1446.93,217.11 1448.23,116.824 1449.52,184.263 1450.82,191.123 1452.11,184.687 1453.41,193.111 1454.7,164.241 1455.99,216.769 1457.29,204.326 1458.58,186.422 1459.88,206.226 1461.17,190.466 1462.47,306.877 1463.76,189.573 1465.05,203.865 1466.35,155.535 1467.64,195.024 1468.94,305.637 1470.23,210.52 1471.53,177.404 1472.82,195.858 1474.12,182.15 1475.41,190.557 1476.7,158.478 1478,184.602 1479.29,157.082 1480.59,287.624 1481.88,328.375 1483.18,238.624 1484.47,150.21 1485.76,282.709 1487.06,207.98 1488.35,230.154 1489.65,172.751 1490.94,139.002 1492.24,172.312 1493.53,141.459 1494.82,201.392 1496.12,143.756 1497.41,145.297 1498.71,232.512 1500,288.85 1501.3,212.949 1502.59,285.096 1503.88,219.747 1505.18,163.754 1506.47,520.642 1507.77,204.288 1509.06,164.625 1510.36,270.273 1511.65,344.315 1512.94,350.061 1514.24,194.997 1515.53,214.542 1516.83,198.195 1518.12,237.697 1519.42,171.713 1520.71,206.048 1522.01,169.253 1523.3,215.16 1524.59,312.704 1525.89,190.678 1527.18,201.151 1528.48,258.264 1529.77,224.759 1531.07,344.083 1532.36,111.15 1533.65,286.672 1534.95,479.265 1536.24,241.443 1537.54,192.197 1538.83,146.404 1540.13,206.535 1541.42,222.488 1542.71,148.57 1544.01,161.109 1545.3,349.313 1546.6,168.797 1547.89,188.677 1549.19,187.418 1550.48,168.605 1551.77,336.697 1553.07,229.886 1554.36,188.368 1555.66,195.009 1556.95,156.1 1558.25,340.982 1559.54,145.822 1560.83,276.292 1562.13,333.76 1563.42,327.945 1564.72,331.704 1566.01,228.842 1567.31,179.281 1568.6,181.029 1569.89,194.699 1571.19,289.971 1572.48,124.611 1573.78,127.605 1575.07,202.601 1576.37,191.852 1577.66,318.386 1578.96,208.562 1580.25,227.412 1581.54,122.297 1582.84,227.409 1584.13,194.247 1585.43,163.648 1586.72,144.744 1588.02,154.455 1589.31,128.576 1590.6,206.653 1591.9,230.137 1593.19,133.798 1594.49,199.824 1595.78,144.547 1597.08,324.838 1598.37,203.002 1599.66,192.201 1600.96,150.255 1602.25,314.445 1603.55,154.368 1604.84,131.304 1606.14,204.278 1607.43,191.361 1608.72,156.637 1610.02,177.78 1611.31,182.212 1612.61,364.689 1613.9,227.472 1615.2,135.987 1616.49,222.612 1617.78,117.095 1619.08,165.146 1620.37,167.686 1621.67,247.802 1622.96,297.076 1624.26,235.843 1625.55,152.454 1626.85,207.155 1628.14,222.704 1629.43,158.962 1630.73,200.609 1632.02,169.279 1633.32,134.869 1634.61,170.19 1635.91,136.816 1637.2,316.458 1638.49,170.088 1639.79,142.399 1641.08,208.457 1642.38,269.149 1643.67,197.672 1644.97,117.18 1646.26,331.624 1647.55,208.068 1648.85,344.708 1650.14,174.925 1651.44,160.168 1652.73,201.804 1654.03,340.148 1655.32,175.5 1656.61,189.416 1657.91,331.94 1659.2,152.306 1660.5,253.798 1661.79,385.179 1663.09,163.779 1664.38,208.633 1665.67,147.792 1666.97,172.055 1668.26,169.929 1669.56,135.18 1670.85,177.01 1672.15,165.4 1673.44,156.771 1674.73,227.459 1676.03,231.884 1677.32,351.005 1678.62,178.994 1679.91,317.832 1681.21,140.348 1682.5,222.594 1683.8,201.589 1685.09,222.024 1686.38,318.642 1687.68,178.475 1688.97,201.583 1690.27,208.741 1691.56,282.409 1692.86,133.304 1694.15,209.158 1695.44,156.239 1696.74,229.901 1698.03,124.72 1699.33,138.979 1700.62,167.851 1701.92,169.601 1703.21,135.487 1704.5,219.723 1705.8,246.425 1707.09,347.522 1708.39,315.452 1709.68,340.985 1710.98,196.304 1712.27,214.145 1713.56,258.772 1714.86,143.464 1716.15,167.232 1717.45,147.708 1718.74,219.508 1720.04,225.017 1721.33,155.114 1722.62,103.475 1723.92,167.726 1725.21,167.357 1726.51,162.719 1727.8,186.218 1729.1,308.303 1730.39,146.272 1731.69,211.455 1732.98,195.698 1734.27,197.831 1735.57,298.324 1736.86,187.669 1738.16,181.739 1739.45,295.986 1740.75,221.385 1742.04,165.514 1743.33,127.651 1744.63,277.613 1745.92,316.132 1747.22,175.67 1748.51,194.748 1749.81,443.872 1751.1,359.077 1752.39,146.95 1753.69,194.214 1754.98,273.278 1756.28,188.259 1757.57,163.778 1758.87,208.534 1760.16,162.781 1761.45,335.489 1762.75,161.429 1764.04,260.121 1765.34,165.394 1766.63,211.834 1767.93,287.034 1769.22,180.776 1770.51,156.26 1771.81,175.349 1773.1,160.919 1774.4,313.258 1775.69,227.21 1776.99,202.335 1778.28,140.046 1779.57,169.997 1780.87,336.554 1782.16,143.734 1783.46,224.315 1784.75,100.53 1786.05,133.877 1787.34,236.152 1788.64,142.649 1789.93,192.847 1791.22,156.59 1792.52,284.088 1793.81,206.7 1795.11,223.007 1796.4,230.227 1797.7,181.402 1798.99,189.174 1800.28,77.3617 1801.58,199.804 1802.87,101.864 1804.17,280.25 1805.46,165.084 1806.76,160.782 1808.05,180.337 1809.34,192.017 1810.64,290.943 1811.93,267.367 1813.23,248.859 1814.52,189.335 1815.82,136.029 1817.11,214.992 1818.4,214.957 1819.7,196.8 1820.99,204.12 1822.29,322.257 1823.58,220.676 1824.88,143.292 1826.17,136.8 1827.46,187.472 1828.76,141.3 1830.05,84.1103 1831.35,369.984 1832.64,182.094 1833.94,193 1835.23,144.145 1836.53,204.108 1837.82,207.916 1839.11,215.228 1840.41,204.955 1841.7,220.727 1843,96.8348 1844.29,221.151 1845.59,234.235 1846.88,185.982 1848.17,159.166 1849.47,218.306 1850.76,176.663 1852.06,156.025 1853.35,201.787 1854.65,171.23 1855.94,172.75 1857.23,348.978 1858.53,222.729 1859.82,165.704 1861.12,175.138 1862.41,177.345 1863.71,145.759 1865,351.508 1866.29,186.82 1867.59,273.965 1868.88,209.865 1870.18,186.812 1871.47,201.99 1872.77,202.424 1874.06,219.045 1875.35,138.785 1876.65,184.148 1877.94,200.938 1879.24,301.215 1880.53,255.798 1881.83,227.214 1883.12,211.743 1884.41,335.753 1885.71,203.804 1887,200.217 1888.3,146.415 1889.59,162.505 1890.89,206.603 1892.18,314.69 1893.48,198.782 1894.77,131.748 1896.06,140.88 1897.36,270.229 1898.65,216.649 1899.95,299.725 1901.24,133.313 1902.54,337.015 1903.83,269.476 1905.12,228.489 1906.42,173.76 1907.71,224.928 1909.01,289.696 1910.3,174.321 1911.6,125.6 1912.89,169.726 1914.18,75.868 1915.48,141.763 1916.77,168.321 1918.07,205.843 1919.36,275.672 1920.66,239.705 1921.95,341.971 1923.24,176.23 1924.54,305.178 1925.83,188.67 1927.13,142.946 1928.42,167.71 1929.72,179.186 1931.01,193.389 1932.3,275.356 1933.6,238.69 1934.89,137.003 1936.19,187.804 1937.48,213.828 1938.78,120.44 1940.07,304.889 1941.37,193.528 1942.66,115.61 1943.95,301.509 1945.25,158.846 1946.54,375.22 1947.84,329.077 1949.13,215.106 1950.43,162.71 1951.72,170.099 1953.01,302.76 1954.31,158.369 1955.6,224.148 1956.9,208.701 1958.19,187.119 1959.49,203.936 1960.78,206.56 1962.07,205.89 1963.37,307.054 1964.66,334.981 1965.96,173.231 1967.25,216.01 1968.55,190.371 1969.84,312.278 1971.13,366.585 1972.43,159.336 1973.72,159.164 1975.02,127.153 1976.31,186.794 1977.61,392.681 1978.9,158.11 1980.19,168.613 1981.49,238.754 1982.78,182.192 1984.08,272.907 1985.37,160.575 1986.67,217.96 1987.96,268.642 1989.25,312.047 1990.55,317.358 1991.84,324.322 1993.14,203.175 1994.43,421.282 1995.73,557.798 1997.02,199.285 1998.32,221.543 1999.61,317.411 2000.9,145.48 2002.2,165.559 2003.49,241.4 2004.79,177.035 2006.08,205.04 2007.38,238.666 2008.67,227.89 2009.96,188.407 2011.26,202.501 2012.55,146.833 2013.85,164.558 2015.14,287.329 2016.44,281.009 2017.73,205.022 2019.02,198.868 2020.32,166.871 2021.61,203.433 2022.91,185.076 2024.2,318.001 2025.5,344.562 2026.79,130.178 2028.08,188.09 2029.38,159.914 2030.67,189.238 2031.97,201.831 2033.26,328.844 2034.56,194.649 2035.85,270.73 2037.14,271.561 2038.44,267.962 2039.73,99.1095 2041.03,179.389 2042.32,201.027 2043.62,201.9 2044.91,166.238 2046.21,187.273 2047.5,173.329 2048.79,217.548 2050.09,245.252 2051.38,150.899 2052.68,247.667 2053.97,148.915 2055.27,174.94 2056.56,222.444 2057.85,167.125 2059.15,261.884 2060.44,179.786 2061.74,167.54 2063.03,121.044 2064.33,150.717 2065.62,189.714 2066.91,172.947 2068.21,141.988 2069.5,188.993 2070.8,205.26 2072.09,191.594 2073.39,390.545 2074.68,202.024 2075.97,322.483 2077.27,191.775 2078.56,192.85 2079.86,211.222 2081.15,147.946 2082.45,156.219 2083.74,174.361 2085.03,196.364 2086.33,181.046 2087.62,226.986 2088.92,199.831 2090.21,172.174 2091.51,148.106 2092.8,243.6 2094.09,189.802 2095.39,463.294 2096.68,204.752 2097.98,160.461 2099.27,182.057 2100.57,124.086 2101.86,120.905 2103.16,220.291 2104.45,179.353 2105.74,214.779 2107.04,181.375 2108.33,174.119 2109.63,190.544 2110.92,332.965 2112.22,397.014 2113.51,127.502 2114.8,202.726 2116.1,182.626 2117.39,343.727 2118.69,199.617 2119.98,219.222 2121.28,219.344 2122.57,134.612 2123.86,314.784 2125.16,171.005 2126.45,326.709 2127.75,294.371 2129.04,159.667 2130.34,202.146 2131.63,87.6664 2132.92,197.115 2134.22,159.495 2135.51,188.921 2136.81,214.066 2138.1,177.6 2139.4,197.217 2140.69,89.3419 2141.98,201.928 2143.28,356.185 2144.57,169.734 2145.87,318.708 2147.16,215.624 2148.46,315.87 2149.75,178.522 2151.05,212.246 2152.34,226.257 2153.63,313.005 2154.93,175.28 2156.22,177.813 2157.52,105.604 2158.81,220.579 2160.11,235.489 2161.4,282.87 2162.69,418.667 2163.99,248.753 2165.28,324.455 2166.58,152.655 2167.87,229.515 2169.17,362.253 2170.46,116.271 2171.75,152.267 2173.05,150.898 2174.34,149.56 2175.64,240.477 2176.93,174.274 2178.23,137.43 2179.52,209.336 2180.81,310.774 2182.11,212.555 2183.4,219.576 2184.7,66.1772 2185.99,135.129 2187.29,128.204 2188.58,171.799 2189.87,331.504 2191.17,211.093 2192.46,256.325 2193.76,343.531 2195.05,213.849 2196.35,175.606 2197.64,163.822 2198.93,168.653 2200.23,200.243 2201.52,162.56 2202.82,219.862 2204.11,175.722 2205.41,196.396 2206.7,197.912 2208,145.348 2209.29,189.239 2210.58,196.132 2211.88,159.274 2213.17,340.644 2214.47,314.171 2215.76,236.171 2217.06,182.009 2218.35,214.651 2219.64,158.264 2220.94,185.726 2222.23,318.739 2223.53,312.077 2224.82,182.21 2226.12,194.051 2227.41,154.236 2228.7,176.933 2230,204.376 2231.29,238.278 2232.59,207.039 2233.88,145.471 2235.18,203.22 2236.47,146.36 2237.76,196.357 2239.06,124.644 2240.35,209.611 2241.65,134.175 2242.94,203.204 2244.24,146.861 2245.53,318.015 2246.82,265.68 2248.12,321.59 2249.41,182.086 2250.71,190.466 2252,182.499 2253.3,338.521 2254.59,159.169 2255.89,88.6657 2257.18,150.185 2258.47,149.495 2259.77,110.953 2261.06,172.544 2262.36,315.405 2263.65,310.443 2264.95,188.932 2266.24,292.125 2267.53,139.312 2268.83,119.639 2270.12,151.915 2271.42,141.402 2272.71,207.854 2274.01,286.244 2275.3,238.379 2276.59,136.598 2277.89,321.677 2279.18,224.791 2280.48,184.345 2281.77,200.036 2283.07,199.496 2284.36,175.881 2285.65,186.009 2286.95,216.838 2288.24,334.9 2289.54,178.132 2290.83,188.36 2292.13,195.595 2293.42,193.417 2294.71,202.447 2296.01,177.684 2297.3,174.208 2298.6,190.975 2299.89,231.496 2301.19,214.442 2302.48,204.088 2303.77,172.807 2305.07,171.863 2306.36,188.527 2307.66,149.775 2308.95,199.74 2310.25,311.016 2311.54,160.771 2312.84,154.795 2314.13,341.938 2315.42,220.662 2316.72,180.614 2318.01,315.463 2319.31,125.332 2320.6,205.925 2321.9,176.727 2323.19,197.768 2324.48,193.764 2325.78,171.229 2327.07,301.066 2328.37,166.479 2329.66,144.524 2330.96,321.992 2332.25,187.108 2333.54,170.158 2334.84,189.618 2336.13,173.924 2337.43,167.762 2338.72,326.691 2340.02,374.511 2341.31,261.782 2342.6,479.505 2343.9,211.098 2345.19,146.764 2346.49,467.485 2347.78,187.938 2349.08,283.29 2350.37,167.352 2351.66,238.715 2352.96,183.502 2354.25,157.502 2355.55,181.291 2356.84,203.74 2358.14,404.482 2359.43,313.359 2360.73,203.008 2362.02,238.759 2363.31,227.1 2364.61,174.712 2365.9,185.882 2367.2,212.728 2368.49,165.231 2369.79,120.914 2371.08,191.56 2372.37,215.005 2373.67,295.906 2374.96,198.528 2376.26,261.64 2377.55,197.722 2378.85,173.985 2380.14,259.576 2381.43,504.555 2382.73,311.769 2384.02,323.561 2385.32,316.016 2386.61,309.793 2387.91,141.764 2389.2,181.102 2390.49,266.748 2391.79,300.934 2393.08,197.734 2394.38,176.273 2395.67,173.593 2396.97,222.304 2398.26,317.455 2399.55,192.568 2400.85,168.407 2402.14,145.077 2403.44,149.483 2404.73,187.479 2406.03,129.816 2407.32,281.236 2408.61,224.57 2409.91,197.29 2411.2,140.381 2412.5,158.38 2413.79,307.459 2415.09,190.997 2416.38,155.382 2417.68,143.859 2418.97,313.125 2420.26,296.127 2421.56,161.924 2422.85,193.079 2424.15,326.531 2425.44,317.204 2426.74,137.867 2428.03,207.138 2429.32,134.811 2430.62,242.122 2431.91,175.898 2433.21,217.178 2434.5,203.736 2435.8,140.637 2437.09,278.979 2438.38,158.395 2439.68,439.86 2440.97,139.698 2442.27,244.196 2443.56,161.278 2444.86,176.608 2446.15,351.946 2447.44,182.404 2448.74,309.794 2450.03,143.549 2451.33,188.982 2452.62,200.458 2453.92,137.392 2455.21,183.446 2456.5,160.212 2457.8,249.931 2459.09,121.436 2460.39,221.683 2461.68,167.864 2462.98,159.407 2464.27,182.657 2465.57,218.706 2466.86,287.17 2468.15,194.052 2469.45,258.827 2470.74,299.703 2472.04,143.984 2473.33,151.608 2474.63,196.146 2475.92,166.737 2477.21,287.34 2478.51,220.434 2479.8,151.03 2481.1,301.767 2482.39,294.81 2483.69,140.517 2484.98,175.498 2486.27,154.55 2487.57,307.009 2488.86,189.135 2490.16,226.778 2491.45,145.168 2492.75,223.087 2494.04,156.655 2495.33,177.036 2496.63,338.952 2497.92,203.132 2499.22,109.139 2500.51,124.973 2501.81,192.809 2503.1,177.227 2504.39,209.836 2505.69,152.743 2506.98,295.727 2508.28,150.334 2509.57,177.275 2510.87,164.96 2512.16,198.319 2513.45,204.161 2514.75,129.476 2516.04,124.896 2517.34,167.758 2518.63,176.699 2519.93,467.23 2521.22,208.839 2522.52,218.524 2523.81,212.475 2525.1,165.874 2526.4,160.865 2527.69,340.868 2528.99,183.936 2530.28,162.951 2531.58,472.541 2532.87,312.044 2534.16,182.963 2535.46,216.73 2536.75,162.407 2538.05,122.011 2539.34,188.272 2540.64,203.656 2541.93,200.345 2543.22,215.723 2544.52,127.44 2545.81,218.345 2547.11,171.485 2548.4,188.258 2549.7,205.564 2550.99,202.256 2552.28,294.329 2553.58,164.878 2554.87,175.114 2556.17,292.739 2557.46,204.162 2558.76,286.222 2560.05,184.962 2561.34,278.007 2562.64,459.195 2563.93,352.673 2565.23,327.305 2566.52,148.498 2567.82,195.404 2569.11,167.34 2570.41,185.115 2571.7,222.144 2572.99,386.808 2574.29,282.653 2575.58,180.798 2576.88,175.604 2578.17,213.413 2579.47,175.504 2580.76,194.146 2582.05,188.076 2583.35,149.292 2584.64,228.293 2585.94,129.94 2587.23,229.386 2588.53,163.768 2589.82,355.742 2591.11,131.549 2592.41,216.722 2593.7,178.271 2595,165.286 2596.29,104.202 2597.59,171.302 2598.88,179.096 2600.17,144.148 2601.47,185.565 2602.76,196.424 2604.06,264.667 2605.35,166.717 2606.65,289.749 2607.94,133.768 2609.23,347.706 2610.53,206.268 2611.82,265.272 2613.12,153.072 2614.41,156.56 2615.71,156.126 2617,180.841 2618.29,366.12 2619.59,367.981 2620.88,164.21 2622.18,137.695 2623.47,129.514 2624.77,350.65 2626.06,200.263 2627.36,137.986 2628.65,150.754 2629.94,322.444 2631.24,315.774 2632.53,204.143 2633.83,204.529 2635.12,117.142 2636.42,201.413 2637.71,201.513 2639,335.066 2640.3,191.085 2641.59,141.147 2642.89,155.196 2644.18,203.492 2645.48,238.234 2646.77,173.128 2648.06,188.926 2649.36,107.069 2650.65,289.171 2651.95,209.605 2653.24,341.714 2654.54,145.393 2655.83,168.884 2657.12,211.93 2658.42,184.12 2659.71,148.729 2661.01,176.741 2662.3,164.17 2663.6,184.538 2664.89,196.309 2666.18,132.091 2667.48,173.959 2668.77,287.858 2670.07,230.871 2671.36,235.883 2672.66,150.409 2673.95,252.198 2675.25,176.655 2676.54,195.996 2677.83,332.296 2679.13,268.758 2680.42,107.499 2681.72,107.118 2683.01,209.57 2684.31,197.721 2685.6,237.567 2686.89,337.643 2688.19,373.737 2689.48,191.342 2690.78,205.669 2692.07,187.491 2693.37,198.691 2694.66,185.392 2695.95,206.353 2697.25,201.492 2698.54,166.691 2699.84,151.808 2701.13,347.127 2702.43,174.268 2703.72,177.757 2705.01,206.703 2706.31,197.226 2707.6,305.454 2708.9,226.724 2710.19,302.65 2711.49,209.271 2712.78,317.361 2714.07,143.233 2715.37,155.8 2716.66,200.776 2717.96,324.673 2719.25,274.7 2720.55,203.794 2721.84,136.014 2723.13,175.867 2724.43,175.71 2725.72,170.41 2727.02,229.063 2728.31,203.837 2729.61,184.92 2730.9,198.991 2732.2,144.94 2733.49,202.944 2734.78,176.255 2736.08,310.249 2737.37,225.237 2738.67,185.545 2739.96,319.714 2741.26,125.474 2742.55,152.589 2743.84,223.74 2745.14,228.679 2746.43,151.123 2747.73,191.245 2749.02,345.613 2750.32,195.03 2751.61,199.756 2752.9,311.526 2754.2,115.101 2755.49,293.477 2756.79,320.646 2758.08,166.952 2759.38,151.61 2760.67,189.871 2761.96,159.649 2763.26,159.365 2764.55,168.618 2765.85,194.198 2767.14,185.965 2768.44,228.506 2769.73,210.184 2771.02,365.339 2772.32,182.311 2773.61,244.33 2774.91,173.024 2776.2,339.755 2777.5,208.651 2778.79,177.472 2780.09,220.939 2781.38,154.354 2782.67,219.848 2783.97,241.906 2785.26,195.455 2786.56,189.721 2787.85,178.957 2789.15,171.641 2790.44,158.351 2791.73,198.505 2793.03,278.954 2794.32,329.151 2795.62,147.799 2796.91,144.226 2798.21,156.249 2799.5,240.08 2800.79,254.467 2802.09,197.139 2803.38,370.296 2804.68,241.19 2805.97,143.891 2807.27,314.308 2808.56,148.89 2809.85,147.881 2811.15,129.465 2812.44,189.253 2813.74,304.467 2815.03,141.297 2816.33,109.491 2817.62,158.441 2818.91,192.45 2820.21,248.634 2821.5,178.816 2822.8,320.597 2824.09,474.851 2825.39,138.677 2826.68,300.892 2827.97,197.899 2829.27,197.003 2830.56,218.583 2831.86,226.043 2833.15,213.59 2834.45,231.89 2835.74,297.4 2837.04,115.766 2838.33,95.3119 2839.62,204.289 2840.92,204.111 2842.21,123.881 2843.51,180.436 2844.8,216.374 2846.1,194.396 2847.39,222.563 2848.68,216.756 2849.98,130.704 2851.27,332.856 2852.57,136.026 2853.86,337.853 2855.16,170.132 2856.45,180.128 2857.74,204.766 2859.04,157.758 2860.33,296.196 2861.63,192.455 2862.92,157.627 2864.22,466.852 2865.51,212.264 2866.8,145.137 2868.1,139.083 2869.39,248.339 2870.69,213.225 2871.98,157.834 2873.28,208.57 2874.57,217.916 2875.86,220.236 2877.16,186.317 2878.45,113.237 2879.75,284.039 2881.04,204.192 2882.34,202.877 2883.63,158.548 2884.93,209.279 2886.22,371.099 2887.51,190.81 2888.81,212.246 2890.1,159.427 2891.4,173.644 2892.69,216.17 2893.99,208.254 2895.28,201.523 2896.57,160.984 2897.87,312.759 2899.16,135.404 2900.46,145.795 2901.75,183.467 2903.05,363.375 2904.34,198.074 2905.63,208.818 2906.93,212.299 2908.22,193.47 2909.52,146.907 2910.81,222.507 2912.11,319.992 2913.4,369.363 2914.69,210.121 2915.99,144.804 2917.28,118.996 2918.58,224.491 2919.87,159.003 2921.17,313.296 2922.46,334.26 2923.75,204.002 2925.05,209.779 2926.34,310.951 2927.64,129.68 2928.93,122.643 2930.23,194.927 2931.52,311.382 2932.81,181.959 2934.11,198.747 2935.4,257.474 2936.7,189.616 2937.99,262.355 2939.29,162.394 2940.58,169.379 2941.88,191.667 2943.17,184.023 2944.46,194.259 2945.76,182.573 2947.05,174.37 2948.35,159.919 2949.64,163.577 2950.94,201.289 2952.23,328.674 2953.52,148.706 2954.82,319.28 2956.11,182.693 2957.41,220.461 2958.7,148.887 2960,179.194 2961.29,156.171 2962.58,198.127 2963.88,179.682 2965.17,176.352 2966.47,286.771 2967.76,149.48 2969.06,171.896 2970.35,215.04 2971.64,179.853 2972.94,184.015 2974.23,90.8014 2975.53,295.366 2976.82,172.249 2978.12,153.562 2979.41,208.286 2980.7,151.548 2982,370.761 2983.29,125.708 2984.59,206.38 2985.88,184.229 2987.18,243.851 2988.47,182.67 2989.77,187.968 2991.06,232.136 2992.35,199.437 2993.65,303.222 2994.94,128.787 2996.24,239.787 2997.53,290.736 2998.83,211.374 3000.12,144.962 3001.41,190.073 3002.71,181.024 3004,332.925 3005.3,318.936 3006.59,154.819 3007.89,174.814 3009.18,284.574 3010.47,214.362 3011.77,182.689 3013.06,218.508 3014.36,346.272 3015.65,178.886 3016.95,129.05 3018.24,341.215 3019.53,166.148 3020.83,215.988 3022.12,219.627 3023.42,274.111 3024.71,245.617 3026.01,302.121 3027.3,140.668 3028.59,192.966 3029.89,170.354 3031.18,220.146 3032.48,206.41 3033.77,159.45 3035.07,129.485 3036.36,217.887 3037.65,188.117 3038.95,156.083 3040.24,224.213 3041.54,140.826 3042.83,182.803 3044.13,131.91 3045.42,184.94 3046.72,229.447 3048.01,116.995 3049.3,170.902 3050.6,162.966 3051.89,204.009 3053.19,204.928 3054.48,164.191 3055.78,170.852 3057.07,181.927 3058.36,318.74 3059.66,182.047 3060.95,162.611 3062.25,321.843 3063.54,199.643 3064.84,196.343 3066.13,175.898 3067.42,295.325 3068.72,191.642 3070.01,236.645 3071.31,241.348 3072.6,162.88 3073.9,378.639 3075.19,317.608 3076.48,318.928 3077.78,230.214 3079.07,164.335 3080.37,220.48 3081.66,223.663 3082.96,130.022 3084.25,173.796 3085.54,261.616 3086.84,211.476 3088.13,167.409 3089.43,221.296 3090.72,197.08 3092.02,186.17 3093.31,263.035 3094.61,214.85 3095.9,167.262 3097.19,154.943 3098.49,248.346 3099.78,173.708 3101.08,185.179 3102.37,158.026 3103.67,183.99 3104.96,346.733 3106.25,192.776 3107.55,197.853 3108.84,171.979 3110.14,208.794 3111.43,157.691 3112.73,109.091 3114.02,214.638 3115.31,207.925 3116.61,140.192 3117.9,211.858 3119.2,242.52 3120.49,333.309 3121.79,114.037 3123.08,325.003 3124.37,220.519 3125.67,305.426 3126.96,145.735 3128.26,184.891 3129.55,185.857 3130.85,183.544 3132.14,187.723 3133.43,159.227 3134.73,373.354 3136.02,452.012 3137.32,268.89 3138.61,128.326 3139.91,169.671 3141.2,266.591 3142.49,201.548 3143.79,129.047 3145.08,190.874 3146.38,188.806 3147.67,178.179 3148.97,212.343 3150.26,206.38 3151.56,198.915 3152.85,258.865 3154.14,198.307 3155.44,150.932 3156.73,187.293 3158.03,139.394 3159.32,236.51 3160.62,291.16 3161.91,213.399 3163.2,295.394 3164.5,167.074 3165.79,180.172 3167.09,308.865 3168.38,163.554 3169.68,174.917 3170.97,501.501 3172.26,167.789 3173.56,156.908 3174.85,277.108 3176.15,116.058 3177.44,104.891 3178.74,178.937 3180.03,205.286 3181.32,208.562 3182.62,190.123 3183.91,144.449 3185.21,333.61 3186.5,180.868 3187.8,191.199 3189.09,156.832 3190.38,271.031 3191.68,280.102 3192.97,162.477 3194.27,149.264 3195.56,194.679 3196.86,113.773 3198.15,179.006 3199.45,342.607 3200.74,165.375 3202.03,193.009 3203.33,177.265 3204.62,173.366 3205.92,199.982 3207.21,324.177 3208.51,172.529 3209.8,230.404 3211.09,183.402 3212.39,164.235 3213.68,198.725 3214.98,168.58 3216.27,375.341 3217.57,212.204 3218.86,277.448 3220.15,194.395 3221.45,211.938 3222.74,171.236 3224.04,203.601 3225.33,231.327 3226.63,437.236 3227.92,145.281 3229.21,133.648 3230.51,198.453 3231.8,177.606 3233.1,255.164 3234.39,290.142 3235.69,210.04 3236.98,209.005 3238.27,95.8126 3239.57,345.826 3240.86,206.869 3242.16,166.626 3243.45,234.261 3244.75,482.87 3246.04,159.441 3247.33,244.755 3248.63,223.715 3249.92,143.129 3251.22,304.677 3252.51,200.683 3253.81,155.649 3255.1,229.35 3256.4,176.207 3257.69,178.673 3258.98,161.798 3260.28,191.242 3261.57,207.827 3262.87,180.009 3264.16,200.329 3265.46,179.713 3266.75,473.527 3268.04,286.035 3269.34,230.713 3270.63,160.592 3271.93,170.42 3273.22,247.577 3274.52,146.774 3275.81,172.265 3277.1,300.111 3278.4,230.659 3279.69,147.321 3280.99,209.833 3282.28,119.792 3283.58,155.403 3284.87,175.853 3286.16,251.625 3287.46,236.342 3288.75,212.136 3290.05,277.053 3291.34,217.747 3292.64,163.651 3293.93,197.04 3295.22,198.218 3296.52,179.191 3297.81,172.596 3299.11,187.744 3300.4,207.575 3301.7,205.56 3302.99,233.058 3304.29,177.32 3305.58,180.4 3306.87,229.07 3308.17,156.225 3309.46,465.768 3310.76,245.132 3312.05,185.549 3313.35,144.415 3314.64,330.273 3315.93,166.002 3317.23,229.977 3318.52,114.445 3319.82,222.381 3321.11,191.716 3322.41,205.913 3323.7,192.096 3324.99,142.882 3326.29,136.371 3327.58,228.442 3328.88,219.678 3330.17,324.738 3331.47,187.885 3332.76,222.019 3334.05,161.71 3335.35,339.401 3336.64,235.084 3337.94,168.382 3339.23,162.173 3340.53,161.605 3341.82,354.719 3343.11,337.92 3344.41,117.841 3345.7,300.702 3347,297.131 3348.29,172.725 3349.59,168.537 3350.88,253.054 3352.17,245.636 3353.47,159.346 3354.76,200.254 3356.06,323.275 3357.35,161.393 3358.65,150.895 3359.94,156.306 3361.24,70.0047 3362.53,124.069 3363.82,210.091 3365.12,195.301 3366.41,194.442 3367.71,226.647 3369,185.399 3370.3,184.314 3371.59,148.81 3372.88,181.343 3374.18,164.965 3375.47,192.929 3376.77,218.1 3378.06,165.342 3379.36,142.352 3380.65,190.488 3381.94,186.652 3383.24,198.824 3384.53,249.021 3385.83,189.982 3387.12,178.539 3388.42,177.554 3389.71,189.915 3391,199.584 3392.3,205.31 3393.59,135.917 3394.89,260.779 3396.18,212.551 3397.48,152.082 3398.77,222.138 3400.06,204.784 3401.36,207.746 3402.65,244.557 3403.95,227.735 3405.24,216.651 3406.54,141.705 3407.83,188.591 3409.13,236.438 3410.42,150.994 3411.71,166.631 3413.01,202.901 3414.3,472.275 3415.6,262.522 3416.89,167.552 3418.19,139.972 3419.48,127.084 3420.77,358.633 3422.07,218.15 3423.36,344.57 3424.66,174.808 3425.95,161.759 3427.25,268.387 3428.54,206.676 3429.83,213.782 3431.13,110.996 3432.42,198.913 3433.72,249.116 3435.01,163.602 3436.31,194.195 3437.6,160.737 3438.89,183.383 3440.19,306.946 3441.48,224.972 3442.78,317.559 3444.07,178.9 3445.37,328.149 3446.66,170.465 3447.95,301.902 3449.25,170.401 3450.54,218.747 3451.84,138.459 3453.13,214.848 3454.43,130.387 3455.72,174.742 "/>
<path clip-path="url(#clip800)" d="M2794.06 166.762 L3438.47 166.762 L3438.47 63.0816 L2794.06 63.0816  Z" fill="#ffffff" fill-rule="evenodd" fill-opacity="1"/>
<polyline clip-path="url(#clip800)" style="stroke:#000000; stroke-linecap:round; stroke-linejoin:round; stroke-width:4; stroke-opacity:1; fill:none" points="2794.06,166.762 3438.47,166.762 3438.47,63.0816 2794.06,63.0816 2794.06,166.762 "/>
<polyline clip-path="url(#clip800)" style="stroke:#009af9; stroke-linecap:round; stroke-linejoin:round; stroke-width:2; stroke-opacity:0.9; fill:none" points="2832.16,114.922 3060.73,114.922 "/>
<path clip-path="url(#clip800)" d="M3117.74 118.938 Q3117.74 114.308 3115.82 111.762 Q3113.92 109.216 3110.47 109.216 Q3107.04 109.216 3105.12 111.762 Q3103.22 114.308 3103.22 118.938 Q3103.22 123.544 3105.12 126.09 Q3107.04 128.637 3110.47 128.637 Q3113.92 128.637 3115.82 126.09 Q3117.74 123.544 3117.74 118.938 M3122 128.984 Q3122 135.604 3119.06 138.822 Q3116.12 142.063 3110.05 142.063 Q3107.81 142.063 3105.82 141.715 Q3103.83 141.391 3101.95 140.697 L3101.95 136.553 Q3103.83 137.572 3105.65 138.058 Q3107.48 138.544 3109.38 138.544 Q3113.57 138.544 3115.65 136.345 Q3117.74 134.169 3117.74 129.748 L3117.74 127.641 Q3116.42 129.933 3114.36 131.067 Q3112.3 132.202 3109.43 132.202 Q3104.66 132.202 3101.74 128.567 Q3098.83 124.933 3098.83 118.938 Q3098.83 112.919 3101.74 109.285 Q3104.66 105.651 3109.43 105.651 Q3112.3 105.651 3114.36 106.785 Q3116.42 107.919 3117.74 110.211 L3117.74 106.276 L3122 106.276 L3122 128.984 Z" fill="#000000" fill-rule="evenodd" fill-opacity="1" /><path clip-path="url(#clip800)" d="M3145.79 110.257 Q3145.08 109.841 3144.22 109.655 Q3143.39 109.447 3142.37 109.447 Q3138.76 109.447 3136.81 111.808 Q3134.89 114.146 3134.89 118.544 L3134.89 132.202 L3130.61 132.202 L3130.61 106.276 L3134.89 106.276 L3134.89 110.304 Q3136.23 107.942 3138.39 106.808 Q3140.54 105.651 3143.62 105.651 Q3144.06 105.651 3144.59 105.72 Q3145.12 105.767 3145.77 105.882 L3145.79 110.257 Z" fill="#000000" fill-rule="evenodd" fill-opacity="1" /><path clip-path="url(#clip800)" d="M3159.26 109.262 Q3155.84 109.262 3153.85 111.947 Q3151.86 114.609 3151.86 119.262 Q3151.86 123.915 3153.83 126.6 Q3155.82 129.262 3159.26 129.262 Q3162.67 129.262 3164.66 126.577 Q3166.65 123.891 3166.65 119.262 Q3166.65 114.655 3164.66 111.97 Q3162.67 109.262 3159.26 109.262 M3159.26 105.651 Q3164.82 105.651 3167.99 109.262 Q3171.16 112.873 3171.16 119.262 Q3171.16 125.628 3167.99 129.262 Q3164.82 132.873 3159.26 132.873 Q3153.69 132.873 3150.51 129.262 Q3147.37 125.628 3147.37 119.262 Q3147.37 112.873 3150.51 109.262 Q3153.69 105.651 3159.26 105.651 Z" fill="#000000" fill-rule="evenodd" fill-opacity="1" /><path clip-path="url(#clip800)" d="M3177.78 121.97 L3177.78 106.276 L3182.04 106.276 L3182.04 121.808 Q3182.04 125.489 3183.48 127.34 Q3184.91 129.169 3187.78 129.169 Q3191.23 129.169 3193.22 126.97 Q3195.24 124.771 3195.24 120.975 L3195.24 106.276 L3199.5 106.276 L3199.5 132.202 L3195.24 132.202 L3195.24 128.22 Q3193.69 130.581 3191.63 131.739 Q3189.59 132.873 3186.88 132.873 Q3182.41 132.873 3180.1 130.095 Q3177.78 127.317 3177.78 121.97 M3188.5 105.651 L3188.5 105.651 Z" fill="#000000" fill-rule="evenodd" fill-opacity="1" /><path clip-path="url(#clip800)" d="M3229.82 116.553 L3229.82 132.202 L3225.56 132.202 L3225.56 116.692 Q3225.56 113.012 3224.13 111.183 Q3222.69 109.354 3219.82 109.354 Q3216.37 109.354 3214.38 111.554 Q3212.39 113.753 3212.39 117.549 L3212.39 132.202 L3208.11 132.202 L3208.11 106.276 L3212.39 106.276 L3212.39 110.304 Q3213.92 107.966 3215.98 106.808 Q3218.06 105.651 3220.77 105.651 Q3225.24 105.651 3227.53 108.429 Q3229.82 111.183 3229.82 116.553 Z" fill="#000000" fill-rule="evenodd" fill-opacity="1" /><path clip-path="url(#clip800)" d="M3255.38 110.211 L3255.38 96.1832 L3259.63 96.1832 L3259.63 132.202 L3255.38 132.202 L3255.38 128.313 Q3254.03 130.627 3251.97 131.762 Q3249.94 132.873 3247.07 132.873 Q3242.37 132.873 3239.4 129.123 Q3236.46 125.373 3236.46 119.262 Q3236.46 113.151 3239.4 109.401 Q3242.37 105.651 3247.07 105.651 Q3249.94 105.651 3251.97 106.785 Q3254.03 107.896 3255.38 110.211 M3240.86 119.262 Q3240.86 123.961 3242.78 126.646 Q3244.73 129.308 3248.11 129.308 Q3251.49 129.308 3253.43 126.646 Q3255.38 123.961 3255.38 119.262 Q3255.38 114.563 3253.43 111.901 Q3251.49 109.216 3248.11 109.216 Q3244.73 109.216 3242.78 111.901 Q3240.86 114.563 3240.86 119.262 Z" fill="#000000" fill-rule="evenodd" fill-opacity="1" /><path clip-path="url(#clip800)" d="M3288.11 140.072 L3288.11 143.382 L3263.48 143.382 L3263.48 140.072 L3288.11 140.072 Z" fill="#000000" fill-rule="evenodd" fill-opacity="1" /><path clip-path="url(#clip800)" d="M3296.32 98.9147 L3296.32 106.276 L3305.1 106.276 L3305.1 109.586 L3296.32 109.586 L3296.32 123.66 Q3296.32 126.831 3297.18 127.734 Q3298.06 128.637 3300.72 128.637 L3305.1 128.637 L3305.1 132.202 L3300.72 132.202 Q3295.79 132.202 3293.92 130.373 Q3292.04 128.521 3292.04 123.66 L3292.04 109.586 L3288.92 109.586 L3288.92 106.276 L3292.04 106.276 L3292.04 98.9147 L3296.32 98.9147 Z" fill="#000000" fill-rule="evenodd" fill-opacity="1" /><path clip-path="url(#clip800)" d="M3325.72 110.257 Q3325 109.841 3324.15 109.655 Q3323.31 109.447 3322.3 109.447 Q3318.69 109.447 3316.74 111.808 Q3314.82 114.146 3314.82 118.544 L3314.82 132.202 L3310.54 132.202 L3310.54 106.276 L3314.82 106.276 L3314.82 110.304 Q3316.16 107.942 3318.31 106.808 Q3320.47 105.651 3323.55 105.651 Q3323.99 105.651 3324.52 105.72 Q3325.05 105.767 3325.7 105.882 L3325.72 110.257 Z" fill="#000000" fill-rule="evenodd" fill-opacity="1" /><path clip-path="url(#clip800)" d="M3329.75 121.97 L3329.75 106.276 L3334.01 106.276 L3334.01 121.808 Q3334.01 125.489 3335.44 127.34 Q3336.88 129.169 3339.75 129.169 Q3343.2 129.169 3345.19 126.97 Q3347.2 124.771 3347.2 120.975 L3347.2 106.276 L3351.46 106.276 L3351.46 132.202 L3347.2 132.202 L3347.2 128.22 Q3345.65 130.581 3343.59 131.739 Q3341.56 132.873 3338.85 132.873 Q3334.38 132.873 3332.06 130.095 Q3329.75 127.317 3329.75 121.97 M3340.47 105.651 L3340.47 105.651 Z" fill="#000000" fill-rule="evenodd" fill-opacity="1" /><path clip-path="url(#clip800)" d="M3364.45 98.9147 L3364.45 106.276 L3373.22 106.276 L3373.22 109.586 L3364.45 109.586 L3364.45 123.66 Q3364.45 126.831 3365.31 127.734 Q3366.18 128.637 3368.85 128.637 L3373.22 128.637 L3373.22 132.202 L3368.85 132.202 Q3363.92 132.202 3362.04 130.373 Q3360.17 128.521 3360.17 123.66 L3360.17 109.586 L3357.04 109.586 L3357.04 106.276 L3360.17 106.276 L3360.17 98.9147 L3364.45 98.9147 Z" fill="#000000" fill-rule="evenodd" fill-opacity="1" /><path clip-path="url(#clip800)" d="M3400.37 116.553 L3400.37 132.202 L3396.12 132.202 L3396.12 116.692 Q3396.12 113.012 3394.68 111.183 Q3393.25 109.354 3390.37 109.354 Q3386.93 109.354 3384.93 111.554 Q3382.94 113.753 3382.94 117.549 L3382.94 132.202 L3378.66 132.202 L3378.66 96.1832 L3382.94 96.1832 L3382.94 110.304 Q3384.47 107.966 3386.53 106.808 Q3388.62 105.651 3391.32 105.651 Q3395.79 105.651 3398.08 108.429 Q3400.37 111.183 3400.37 116.553 Z" fill="#000000" fill-rule="evenodd" fill-opacity="1" /></svg>
