<?xml version="1.0" encoding="utf-8"?>
<svg xmlns="http://www.w3.org/2000/svg" xmlns:xlink="http://www.w3.org/1999/xlink" width="900" height="150" viewBox="0 0 3600 600">
<defs>
  <clipPath id="clip500">
    <rect x="0" y="0" width="3600" height="600"/>
  </clipPath>
</defs>
<path clip-path="url(#clip500)" d="M0 600 L3600 600 L3600 0 L0 0  Z" fill="#ffffff" fill-rule="evenodd" fill-opacity="1"/>
<defs>
  <clipPath id="clip501">
    <rect x="720" y="0" width="2521" height="600"/>
  </clipPath>
</defs>
<path clip-path="url(#clip500)" d="M124.177 522.368 L3552.76 522.368 L3552.76 47.2441 L124.177 47.2441  Z" fill="#ffffff" fill-rule="evenodd" fill-opacity="1"/>
<defs>
  <clipPath id="clip502">
    <rect x="124" y="47" width="3430" height="476"/>
  </clipPath>
</defs>
<polyline clip-path="url(#clip502)" style="stroke:#000000; stroke-linecap:round; stroke-linejoin:round; stroke-width:2; stroke-opacity:0.1; fill:none" points="219.746,522.368 219.746,47.2441 "/>
<polyline clip-path="url(#clip502)" style="stroke:#000000; stroke-linecap:round; stroke-linejoin:round; stroke-width:2; stroke-opacity:0.1; fill:none" points="952.862,522.368 952.862,47.2441 "/>
<polyline clip-path="url(#clip502)" style="stroke:#000000; stroke-linecap:round; stroke-linejoin:round; stroke-width:2; stroke-opacity:0.1; fill:none" points="1685.98,522.368 1685.98,47.2441 "/>
<polyline clip-path="url(#clip502)" style="stroke:#000000; stroke-linecap:round; stroke-linejoin:round; stroke-width:2; stroke-opacity:0.1; fill:none" points="2419.09,522.368 2419.09,47.2441 "/>
<polyline clip-path="url(#clip502)" style="stroke:#000000; stroke-linecap:round; stroke-linejoin:round; stroke-width:2; stroke-opacity:0.1; fill:none" points="3152.21,522.368 3152.21,47.2441 "/>
<polyline clip-path="url(#clip500)" style="stroke:#000000; stroke-linecap:round; stroke-linejoin:round; stroke-width:4; stroke-opacity:1; fill:none" points="124.177,522.368 3552.76,522.368 "/>
<polyline clip-path="url(#clip500)" style="stroke:#000000; stroke-linecap:round; stroke-linejoin:round; stroke-width:4; stroke-opacity:1; fill:none" points="219.746,522.368 219.746,503.47 "/>
<polyline clip-path="url(#clip500)" style="stroke:#000000; stroke-linecap:round; stroke-linejoin:round; stroke-width:4; stroke-opacity:1; fill:none" points="952.862,522.368 952.862,503.47 "/>
<polyline clip-path="url(#clip500)" style="stroke:#000000; stroke-linecap:round; stroke-linejoin:round; stroke-width:4; stroke-opacity:1; fill:none" points="1685.98,522.368 1685.98,503.47 "/>
<polyline clip-path="url(#clip500)" style="stroke:#000000; stroke-linecap:round; stroke-linejoin:round; stroke-width:4; stroke-opacity:1; fill:none" points="2419.09,522.368 2419.09,503.47 "/>
<polyline clip-path="url(#clip500)" style="stroke:#000000; stroke-linecap:round; stroke-linejoin:round; stroke-width:4; stroke-opacity:1; fill:none" points="3152.21,522.368 3152.21,503.47 "/>
<path clip-path="url(#clip500)" d="M219.746 562.887 Q216.135 562.887 214.306 566.451 Q212.501 569.993 212.501 577.123 Q212.501 584.229 214.306 587.794 Q216.135 591.335 219.746 591.335 Q223.38 591.335 225.186 587.794 Q227.015 584.229 227.015 577.123 Q227.015 569.993 225.186 566.451 Q223.38 562.887 219.746 562.887 M219.746 559.183 Q225.556 559.183 228.612 563.789 Q231.691 568.373 231.691 577.123 Q231.691 585.849 228.612 590.456 Q225.556 595.039 219.746 595.039 Q213.936 595.039 210.857 590.456 Q207.802 585.849 207.802 577.123 Q207.802 568.373 210.857 563.789 Q213.936 559.183 219.746 559.183 Z" fill="#000000" fill-rule="evenodd" fill-opacity="1" /><path clip-path="url(#clip500)" d="M912.481 559.808 L930.837 559.808 L930.837 563.743 L916.763 563.743 L916.763 572.215 Q917.781 571.868 918.8 571.706 Q919.818 571.521 920.837 571.521 Q926.624 571.521 930.004 574.692 Q933.383 577.863 933.383 583.28 Q933.383 588.859 929.911 591.96 Q926.439 595.039 920.119 595.039 Q917.943 595.039 915.675 594.669 Q913.43 594.298 911.022 593.558 L911.022 588.859 Q913.106 589.993 915.328 590.548 Q917.55 591.104 920.027 591.104 Q924.031 591.104 926.369 588.998 Q928.707 586.891 928.707 583.28 Q928.707 579.669 926.369 577.562 Q924.031 575.456 920.027 575.456 Q918.152 575.456 916.277 575.873 Q914.425 576.289 912.481 577.169 L912.481 559.808 Z" fill="#000000" fill-rule="evenodd" fill-opacity="1" /><path clip-path="url(#clip500)" d="M952.596 562.887 Q948.985 562.887 947.156 566.451 Q945.351 569.993 945.351 577.123 Q945.351 584.229 947.156 587.794 Q948.985 591.335 952.596 591.335 Q956.23 591.335 958.036 587.794 Q959.865 584.229 959.865 577.123 Q959.865 569.993 958.036 566.451 Q956.23 562.887 952.596 562.887 M952.596 559.183 Q958.406 559.183 961.462 563.789 Q964.54 568.373 964.54 577.123 Q964.54 585.849 961.462 590.456 Q958.406 595.039 952.596 595.039 Q946.786 595.039 943.707 590.456 Q940.652 585.849 940.652 577.123 Q940.652 568.373 943.707 563.789 Q946.786 559.183 952.596 559.183 Z" fill="#000000" fill-rule="evenodd" fill-opacity="1" /><path clip-path="url(#clip500)" d="M982.758 562.887 Q979.147 562.887 977.318 566.451 Q975.513 569.993 975.513 577.123 Q975.513 584.229 977.318 587.794 Q979.147 591.335 982.758 591.335 Q986.392 591.335 988.198 587.794 Q990.026 584.229 990.026 577.123 Q990.026 569.993 988.198 566.451 Q986.392 562.887 982.758 562.887 M982.758 559.183 Q988.568 559.183 991.624 563.789 Q994.702 568.373 994.702 577.123 Q994.702 585.849 991.624 590.456 Q988.568 595.039 982.758 595.039 Q976.948 595.039 973.869 590.456 Q970.814 585.849 970.814 577.123 Q970.814 568.373 973.869 563.789 Q976.948 559.183 982.758 559.183 Z" fill="#000000" fill-rule="evenodd" fill-opacity="1" /><path clip-path="url(#clip500)" d="M1630.5 590.433 L1638.14 590.433 L1638.14 564.067 L1629.83 565.734 L1629.83 561.475 L1638.1 559.808 L1642.77 559.808 L1642.77 590.433 L1650.41 590.433 L1650.41 594.368 L1630.5 594.368 L1630.5 590.433 Z" fill="#000000" fill-rule="evenodd" fill-opacity="1" /><path clip-path="url(#clip500)" d="M1669.86 562.887 Q1666.24 562.887 1664.42 566.451 Q1662.61 569.993 1662.61 577.123 Q1662.61 584.229 1664.42 587.794 Q1666.24 591.335 1669.86 591.335 Q1673.49 591.335 1675.3 587.794 Q1677.12 584.229 1677.12 577.123 Q1677.12 569.993 1675.3 566.451 Q1673.49 562.887 1669.86 562.887 M1669.86 559.183 Q1675.67 559.183 1678.72 563.789 Q1681.8 568.373 1681.8 577.123 Q1681.8 585.849 1678.72 590.456 Q1675.67 595.039 1669.86 595.039 Q1664.05 595.039 1660.97 590.456 Q1657.91 585.849 1657.91 577.123 Q1657.91 568.373 1660.97 563.789 Q1664.05 559.183 1669.86 559.183 Z" fill="#000000" fill-rule="evenodd" fill-opacity="1" /><path clip-path="url(#clip500)" d="M1700.02 562.887 Q1696.41 562.887 1694.58 566.451 Q1692.77 569.993 1692.77 577.123 Q1692.77 584.229 1694.58 587.794 Q1696.41 591.335 1700.02 591.335 Q1703.65 591.335 1705.46 587.794 Q1707.29 584.229 1707.29 577.123 Q1707.29 569.993 1705.46 566.451 Q1703.65 562.887 1700.02 562.887 M1700.02 559.183 Q1705.83 559.183 1708.88 563.789 Q1711.96 568.373 1711.96 577.123 Q1711.96 585.849 1708.88 590.456 Q1705.83 595.039 1700.02 595.039 Q1694.21 595.039 1691.13 590.456 Q1688.07 585.849 1688.07 577.123 Q1688.07 568.373 1691.13 563.789 Q1694.21 559.183 1700.02 559.183 Z" fill="#000000" fill-rule="evenodd" fill-opacity="1" /><path clip-path="url(#clip500)" d="M1730.18 562.887 Q1726.57 562.887 1724.74 566.451 Q1722.93 569.993 1722.93 577.123 Q1722.93 584.229 1724.74 587.794 Q1726.57 591.335 1730.18 591.335 Q1733.81 591.335 1735.62 587.794 Q1737.45 584.229 1737.45 577.123 Q1737.45 569.993 1735.62 566.451 Q1733.81 562.887 1730.18 562.887 M1730.18 559.183 Q1735.99 559.183 1739.05 563.789 Q1742.12 568.373 1742.12 577.123 Q1742.12 585.849 1739.05 590.456 Q1735.99 595.039 1730.18 595.039 Q1724.37 595.039 1721.29 590.456 Q1718.24 585.849 1718.24 577.123 Q1718.24 568.373 1721.29 563.789 Q1724.37 559.183 1730.18 559.183 Z" fill="#000000" fill-rule="evenodd" fill-opacity="1" /><path clip-path="url(#clip500)" d="M2363.62 590.433 L2371.26 590.433 L2371.26 564.067 L2362.95 565.734 L2362.95 561.475 L2371.21 559.808 L2375.89 559.808 L2375.89 590.433 L2383.53 590.433 L2383.53 594.368 L2363.62 594.368 L2363.62 590.433 Z" fill="#000000" fill-rule="evenodd" fill-opacity="1" /><path clip-path="url(#clip500)" d="M2393.02 559.808 L2411.37 559.808 L2411.37 563.743 L2397.3 563.743 L2397.3 572.215 Q2398.32 571.868 2399.34 571.706 Q2400.36 571.521 2401.37 571.521 Q2407.16 571.521 2410.54 574.692 Q2413.92 577.863 2413.92 583.28 Q2413.92 588.859 2410.45 591.96 Q2406.98 595.039 2400.66 595.039 Q2398.48 595.039 2396.21 594.669 Q2393.97 594.298 2391.56 593.558 L2391.56 588.859 Q2393.64 589.993 2395.87 590.548 Q2398.09 591.104 2400.56 591.104 Q2404.57 591.104 2406.91 588.998 Q2409.25 586.891 2409.25 583.28 Q2409.25 579.669 2406.91 577.562 Q2404.57 575.456 2400.56 575.456 Q2398.69 575.456 2396.81 575.873 Q2394.96 576.289 2393.02 577.169 L2393.02 559.808 Z" fill="#000000" fill-rule="evenodd" fill-opacity="1" /><path clip-path="url(#clip500)" d="M2433.13 562.887 Q2429.52 562.887 2427.69 566.451 Q2425.89 569.993 2425.89 577.123 Q2425.89 584.229 2427.69 587.794 Q2429.52 591.335 2433.13 591.335 Q2436.77 591.335 2438.57 587.794 Q2440.4 584.229 2440.4 577.123 Q2440.4 569.993 2438.57 566.451 Q2436.77 562.887 2433.13 562.887 M2433.13 559.183 Q2438.94 559.183 2442 563.789 Q2445.08 568.373 2445.08 577.123 Q2445.08 585.849 2442 590.456 Q2438.94 595.039 2433.13 595.039 Q2427.32 595.039 2424.24 590.456 Q2421.19 585.849 2421.19 577.123 Q2421.19 568.373 2424.24 563.789 Q2427.32 559.183 2433.13 559.183 Z" fill="#000000" fill-rule="evenodd" fill-opacity="1" /><path clip-path="url(#clip500)" d="M2463.3 562.887 Q2459.68 562.887 2457.86 566.451 Q2456.05 569.993 2456.05 577.123 Q2456.05 584.229 2457.86 587.794 Q2459.68 591.335 2463.3 591.335 Q2466.93 591.335 2468.74 587.794 Q2470.56 584.229 2470.56 577.123 Q2470.56 569.993 2468.74 566.451 Q2466.93 562.887 2463.3 562.887 M2463.3 559.183 Q2469.11 559.183 2472.16 563.789 Q2475.24 568.373 2475.24 577.123 Q2475.24 585.849 2472.16 590.456 Q2469.11 595.039 2463.3 595.039 Q2457.49 595.039 2454.41 590.456 Q2451.35 585.849 2451.35 577.123 Q2451.35 568.373 2454.41 563.789 Q2457.49 559.183 2463.3 559.183 Z" fill="#000000" fill-rule="evenodd" fill-opacity="1" /><path clip-path="url(#clip500)" d="M3100.82 590.433 L3117.14 590.433 L3117.14 594.368 L3095.2 594.368 L3095.2 590.433 Q3097.86 587.678 3102.44 583.048 Q3107.05 578.396 3108.23 577.053 Q3110.47 574.53 3111.35 572.794 Q3112.26 571.035 3112.26 569.345 Q3112.26 566.59 3110.31 564.854 Q3108.39 563.118 3105.29 563.118 Q3103.09 563.118 3100.64 563.882 Q3098.21 564.646 3095.43 566.197 L3095.43 561.475 Q3098.25 560.34 3100.71 559.762 Q3103.16 559.183 3105.2 559.183 Q3110.57 559.183 3113.76 561.868 Q3116.96 564.553 3116.96 569.044 Q3116.96 571.174 3116.15 573.095 Q3115.36 574.993 3113.25 577.586 Q3112.67 578.257 3109.57 581.474 Q3106.47 584.669 3100.82 590.433 Z" fill="#000000" fill-rule="evenodd" fill-opacity="1" /><path clip-path="url(#clip500)" d="M3136.96 562.887 Q3133.34 562.887 3131.52 566.451 Q3129.71 569.993 3129.71 577.123 Q3129.71 584.229 3131.52 587.794 Q3133.34 591.335 3136.96 591.335 Q3140.59 591.335 3142.4 587.794 Q3144.22 584.229 3144.22 577.123 Q3144.22 569.993 3142.4 566.451 Q3140.59 562.887 3136.96 562.887 M3136.96 559.183 Q3142.77 559.183 3145.82 563.789 Q3148.9 568.373 3148.9 577.123 Q3148.9 585.849 3145.82 590.456 Q3142.77 595.039 3136.96 595.039 Q3131.15 595.039 3128.07 590.456 Q3125.01 585.849 3125.01 577.123 Q3125.01 568.373 3128.07 563.789 Q3131.15 559.183 3136.96 559.183 Z" fill="#000000" fill-rule="evenodd" fill-opacity="1" /><path clip-path="url(#clip500)" d="M3167.12 562.887 Q3163.51 562.887 3161.68 566.451 Q3159.87 569.993 3159.87 577.123 Q3159.87 584.229 3161.68 587.794 Q3163.51 591.335 3167.12 591.335 Q3170.75 591.335 3172.56 587.794 Q3174.39 584.229 3174.39 577.123 Q3174.39 569.993 3172.56 566.451 Q3170.75 562.887 3167.12 562.887 M3167.12 559.183 Q3172.93 559.183 3175.98 563.789 Q3179.06 568.373 3179.06 577.123 Q3179.06 585.849 3175.98 590.456 Q3172.93 595.039 3167.12 595.039 Q3161.31 595.039 3158.23 590.456 Q3155.17 585.849 3155.17 577.123 Q3155.17 568.373 3158.23 563.789 Q3161.31 559.183 3167.12 559.183 Z" fill="#000000" fill-rule="evenodd" fill-opacity="1" /><path clip-path="url(#clip500)" d="M3197.28 562.887 Q3193.67 562.887 3191.84 566.451 Q3190.03 569.993 3190.03 577.123 Q3190.03 584.229 3191.84 587.794 Q3193.67 591.335 3197.28 591.335 Q3200.91 591.335 3202.72 587.794 Q3204.55 584.229 3204.55 577.123 Q3204.55 569.993 3202.72 566.451 Q3200.91 562.887 3197.28 562.887 M3197.28 559.183 Q3203.09 559.183 3206.15 563.789 Q3209.22 568.373 3209.22 577.123 Q3209.22 585.849 3206.15 590.456 Q3203.09 595.039 3197.28 595.039 Q3191.47 595.039 3188.39 590.456 Q3185.34 585.849 3185.34 577.123 Q3185.34 568.373 3188.39 563.789 Q3191.47 559.183 3197.28 559.183 Z" fill="#000000" fill-rule="evenodd" fill-opacity="1" /><polyline clip-path="url(#clip502)" style="stroke:#000000; stroke-linecap:round; stroke-linejoin:round; stroke-width:2; stroke-opacity:0.1; fill:none" points="124.177,522.368 3552.76,522.368 "/>
<polyline clip-path="url(#clip502)" style="stroke:#000000; stroke-linecap:round; stroke-linejoin:round; stroke-width:2; stroke-opacity:0.1; fill:none" points="124.177,454.493 3552.76,454.493 "/>
<polyline clip-path="url(#clip502)" style="stroke:#000000; stroke-linecap:round; stroke-linejoin:round; stroke-width:2; stroke-opacity:0.1; fill:none" points="124.177,386.618 3552.76,386.618 "/>
<polyline clip-path="url(#clip502)" style="stroke:#000000; stroke-linecap:round; stroke-linejoin:round; stroke-width:2; stroke-opacity:0.1; fill:none" points="124.177,318.743 3552.76,318.743 "/>
<polyline clip-path="url(#clip502)" style="stroke:#000000; stroke-linecap:round; stroke-linejoin:round; stroke-width:2; stroke-opacity:0.1; fill:none" points="124.177,250.869 3552.76,250.869 "/>
<polyline clip-path="url(#clip502)" style="stroke:#000000; stroke-linecap:round; stroke-linejoin:round; stroke-width:2; stroke-opacity:0.1; fill:none" points="124.177,182.994 3552.76,182.994 "/>
<polyline clip-path="url(#clip502)" style="stroke:#000000; stroke-linecap:round; stroke-linejoin:round; stroke-width:2; stroke-opacity:0.1; fill:none" points="124.177,115.119 3552.76,115.119 "/>
<polyline clip-path="url(#clip502)" style="stroke:#000000; stroke-linecap:round; stroke-linejoin:round; stroke-width:2; stroke-opacity:0.1; fill:none" points="124.177,47.2441 3552.76,47.2441 "/>
<polyline clip-path="url(#clip500)" style="stroke:#000000; stroke-linecap:round; stroke-linejoin:round; stroke-width:4; stroke-opacity:1; fill:none" points="124.177,522.368 124.177,47.2441 "/>
<polyline clip-path="url(#clip500)" style="stroke:#000000; stroke-linecap:round; stroke-linejoin:round; stroke-width:4; stroke-opacity:1; fill:none" points="124.177,522.368 143.075,522.368 "/>
<polyline clip-path="url(#clip500)" style="stroke:#000000; stroke-linecap:round; stroke-linejoin:round; stroke-width:4; stroke-opacity:1; fill:none" points="124.177,454.493 143.075,454.493 "/>
<polyline clip-path="url(#clip500)" style="stroke:#000000; stroke-linecap:round; stroke-linejoin:round; stroke-width:4; stroke-opacity:1; fill:none" points="124.177,386.618 143.075,386.618 "/>
<polyline clip-path="url(#clip500)" style="stroke:#000000; stroke-linecap:round; stroke-linejoin:round; stroke-width:4; stroke-opacity:1; fill:none" points="124.177,318.743 143.075,318.743 "/>
<polyline clip-path="url(#clip500)" style="stroke:#000000; stroke-linecap:round; stroke-linejoin:round; stroke-width:4; stroke-opacity:1; fill:none" points="124.177,250.869 143.075,250.869 "/>
<polyline clip-path="url(#clip500)" style="stroke:#000000; stroke-linecap:round; stroke-linejoin:round; stroke-width:4; stroke-opacity:1; fill:none" points="124.177,182.994 143.075,182.994 "/>
<polyline clip-path="url(#clip500)" style="stroke:#000000; stroke-linecap:round; stroke-linejoin:round; stroke-width:4; stroke-opacity:1; fill:none" points="124.177,115.119 143.075,115.119 "/>
<polyline clip-path="url(#clip500)" style="stroke:#000000; stroke-linecap:round; stroke-linejoin:round; stroke-width:4; stroke-opacity:1; fill:none" points="124.177,47.2441 143.075,47.2441 "/>
<path clip-path="url(#clip500)" d="M50.2699 535.713 L57.9087 535.713 L57.9087 509.347 L49.5986 511.014 L49.5986 506.755 L57.8624 505.088 L62.5383 505.088 L62.5383 535.713 L70.1772 535.713 L70.1772 539.648 L50.2699 539.648 L50.2699 535.713 Z" fill="#000000" fill-rule="evenodd" fill-opacity="1" /><path clip-path="url(#clip500)" d="M53.8578 467.838 L70.1772 467.838 L70.1772 471.773 L48.2328 471.773 L48.2328 467.838 Q50.8949 465.083 55.4782 460.454 Q60.0846 455.801 61.2652 454.458 Q63.5105 451.935 64.3902 450.199 Q65.2929 448.44 65.2929 446.75 Q65.2929 443.995 63.3485 442.259 Q61.4272 440.523 58.3254 440.523 Q56.1263 440.523 53.6726 441.287 Q51.2421 442.051 48.4643 443.602 L48.4643 438.88 Q51.2884 437.745 53.7421 437.167 Q56.1958 436.588 58.2328 436.588 Q63.6031 436.588 66.7976 439.273 Q69.992 441.958 69.992 446.449 Q69.992 448.579 69.1818 450.5 Q68.3948 452.398 66.2883 454.991 Q65.7096 455.662 62.6078 458.88 Q59.5059 462.074 53.8578 467.838 Z" fill="#000000" fill-rule="evenodd" fill-opacity="1" /><path clip-path="url(#clip500)" d="M63.0476 385.264 Q66.404 385.982 68.279 388.25 Q70.1772 390.519 70.1772 393.852 Q70.1772 398.968 66.6587 401.769 Q63.1402 404.57 56.6587 404.57 Q54.4828 404.57 52.168 404.13 Q49.8764 403.713 47.4227 402.857 L47.4227 398.343 Q49.3671 399.477 51.6819 400.056 Q53.9967 400.634 56.5198 400.634 Q60.918 400.634 63.2096 398.898 Q65.5244 397.162 65.5244 393.852 Q65.5244 390.796 63.3717 389.083 Q61.242 387.347 57.4226 387.347 L53.3949 387.347 L53.3949 383.505 L57.6078 383.505 Q61.0569 383.505 62.8855 382.139 Q64.7142 380.75 64.7142 378.158 Q64.7142 375.496 62.8161 374.084 Q60.9411 372.648 57.4226 372.648 Q55.5013 372.648 53.3023 373.065 Q51.1032 373.482 48.4643 374.361 L48.4643 370.195 Q51.1264 369.454 53.4412 369.084 Q55.7791 368.713 57.8393 368.713 Q63.1633 368.713 66.2652 371.144 Q69.367 373.551 69.367 377.672 Q69.367 380.542 67.7235 382.533 Q66.08 384.5 63.0476 385.264 Z" fill="#000000" fill-rule="evenodd" fill-opacity="1" /><path clip-path="url(#clip500)" d="M60.5939 305.537 L48.7884 323.986 L60.5939 323.986 L60.5939 305.537 M59.367 301.463 L65.2466 301.463 L65.2466 323.986 L70.1772 323.986 L70.1772 327.875 L65.2466 327.875 L65.2466 336.023 L60.5939 336.023 L60.5939 327.875 L44.9921 327.875 L44.9921 323.361 L59.367 301.463 Z" fill="#000000" fill-rule="evenodd" fill-opacity="1" /><path clip-path="url(#clip500)" d="M49.2745 233.589 L67.6309 233.589 L67.6309 237.524 L53.5569 237.524 L53.5569 245.996 Q54.5754 245.649 55.5939 245.487 Q56.6124 245.301 57.6309 245.301 Q63.418 245.301 66.7976 248.473 Q70.1772 251.644 70.1772 257.061 Q70.1772 262.639 66.705 265.741 Q63.2328 268.82 56.9134 268.82 Q54.7374 268.82 52.4689 268.449 Q50.2236 268.079 47.8162 267.338 L47.8162 262.639 Q49.8995 263.774 52.1217 264.329 Q54.3439 264.885 56.8208 264.885 Q60.8254 264.885 63.1633 262.778 Q65.5013 260.672 65.5013 257.061 Q65.5013 253.45 63.1633 251.343 Q60.8254 249.237 56.8208 249.237 Q54.9458 249.237 53.0708 249.653 Q51.2189 250.07 49.2745 250.95 L49.2745 233.589 Z" fill="#000000" fill-rule="evenodd" fill-opacity="1" /><path clip-path="url(#clip500)" d="M58.6495 181.13 Q55.5013 181.13 53.6495 183.283 Q51.8208 185.436 51.8208 189.186 Q51.8208 192.913 53.6495 195.089 Q55.5013 197.241 58.6495 197.241 Q61.7976 197.241 63.6263 195.089 Q65.4781 192.913 65.4781 189.186 Q65.4781 185.436 63.6263 183.283 Q61.7976 181.13 58.6495 181.13 M67.9318 166.478 L67.9318 170.737 Q66.1726 169.904 64.367 169.464 Q62.5846 169.024 60.8254 169.024 Q56.1958 169.024 53.7421 172.149 Q51.3115 175.274 50.9643 181.593 Q52.33 179.579 54.3902 178.515 Q56.4504 177.427 58.9272 177.427 Q64.1355 177.427 67.1448 180.598 Q70.1772 183.746 70.1772 189.186 Q70.1772 194.51 67.029 197.727 Q63.8809 200.945 58.6495 200.945 Q52.6541 200.945 49.4828 196.362 Q46.3116 191.755 46.3116 183.028 Q46.3116 174.834 50.2004 169.973 Q54.0893 165.089 60.6402 165.089 Q62.3994 165.089 64.1818 165.436 Q65.9874 165.783 67.9318 166.478 Z" fill="#000000" fill-rule="evenodd" fill-opacity="1" /><path clip-path="url(#clip500)" d="M47.9551 97.8389 L70.1772 97.8389 L70.1772 99.8297 L57.6309 132.399 L52.7467 132.399 L64.5522 101.774 L47.9551 101.774 L47.9551 97.8389 Z" fill="#000000" fill-rule="evenodd" fill-opacity="1" /><path clip-path="url(#clip500)" d="M58.3254 48.1121 Q54.9921 48.1121 53.0708 49.8945 Q51.1726 51.6769 51.1726 54.8019 Q51.1726 57.9269 53.0708 59.7093 Q54.9921 61.4917 58.3254 61.4917 Q61.6587 61.4917 63.58 59.7093 Q65.5013 57.9038 65.5013 54.8019 Q65.5013 51.6769 63.58 49.8945 Q61.6819 48.1121 58.3254 48.1121 M53.6495 46.1214 Q50.6402 45.3807 48.9504 43.3205 Q47.2838 41.2603 47.2838 38.2974 Q47.2838 34.1539 50.2236 31.7465 Q53.1865 29.3391 58.3254 29.3391 Q63.4874 29.3391 66.4272 31.7465 Q69.367 34.1539 69.367 38.2974 Q69.367 41.2603 67.6772 43.3205 Q66.0105 45.3807 63.0244 46.1214 Q66.404 46.9084 68.279 49.2001 Q70.1772 51.4918 70.1772 54.8019 Q70.1772 59.825 67.0985 62.5102 Q64.0429 65.1954 58.3254 65.1954 Q52.6078 65.1954 49.5291 62.5102 Q46.4736 59.825 46.4736 54.8019 Q46.4736 51.4918 48.3717 49.2001 Q50.2699 46.9084 53.6495 46.1214 M51.9365 38.7372 Q51.9365 41.4224 53.6032 42.927 Q55.293 44.4316 58.3254 44.4316 Q61.3346 44.4316 63.0244 42.927 Q64.7374 41.4224 64.7374 38.7372 Q64.7374 36.052 63.0244 34.5474 Q61.3346 33.0428 58.3254 33.0428 Q55.293 33.0428 53.6032 34.5474 Q51.9365 36.052 51.9365 38.7372 Z" fill="#000000" fill-rule="evenodd" fill-opacity="1" /><polyline clip-path="url(#clip502)" style="stroke:#009af9; stroke-linecap:round; stroke-linejoin:round; stroke-width:2; stroke-opacity:1; fill:none" points="221.212,170.532 222.679,178.576 224.145,187.506 225.611,202.386 227.077,182.154 228.544,181.022 230.01,170.157 231.476,323.661 232.942,192.603 234.409,155.066 235.875,163.436 237.341,163.634 238.807,159.257 240.273,192.571 241.74,183.989 243.206,322.199 244.672,329.196 246.138,303.02 247.605,187.313 249.071,178.505 250.537,194.767 252.003,328.926 253.47,315.632 254.936,204.439 256.402,173.764 257.868,162.705 259.334,166.227 260.801,176.608 262.267,185.839 263.733,185.489 265.199,187.458 266.666,176.646 268.132,174.341 269.598,176.373 271.064,190.733 272.531,179.607 273.997,329.778 275.463,321.824 276.929,192.972 278.395,185.224 279.862,183.871 281.328,192.456 282.794,180.684 284.26,331.204 285.727,199.676 287.193,190.402 288.659,170.229 290.125,168.442 291.592,174.001 293.058,173.6 294.524,196.8 295.99,200.878 297.456,169.11 298.923,173.462 300.389,176.585 301.855,188.275 303.321,182.62 304.788,204.697 306.254,305.556 307.72,325.694 309.186,203.652 310.653,188.291 312.119,165.185 313.585,188.744 315.051,184.587 316.518,190.107 317.984,167.427 319.45,164.551 320.916,189.05 322.382,179.055 323.849,186.092 325.315,180.419 326.781,184.106 328.247,192.876 329.714,198.839 331.18,182.97 332.646,188.944 334.112,177.006 335.579,309.113 337.045,187.624 338.511,185.58 339.977,187.94 341.443,185.907 342.91,171.501 344.376,170.999 345.842,189.057 347.308,176.995 348.775,177.835 350.241,174.584 351.707,177.812 353.173,202.082 354.64,192.28 356.106,314.115 357.572,325.445 359.038,323.166 360.504,197.538 361.971,171.843 363.437,158.842 364.903,192.949 366.369,168.275 367.836,201.772 369.302,202.826 370.768,190.523 372.234,183.443 373.701,175.672 375.167,315.824 376.633,186.469 378.099,166.231 379.566,183.959 381.032,161.741 382.498,175.508 383.964,191.13 385.43,168.094 386.897,190.878 388.363,193.027 389.829,173.827 391.295,180.077 392.762,176.892 394.228,190.322 395.694,305.852 397.16,184.697 398.627,180.484 400.093,169.696 401.559,191.318 403.025,180.147 404.491,181.402 405.958,191.069 407.424,182.544 408.89,174.518 410.356,204.304 411.823,204.695 413.289,189.196 414.755,306.263 416.221,186.964 417.688,207.249 419.154,157.034 420.62,190.51 422.086,323.474 423.552,331.439 425.019,191.701 426.485,166.799 427.951,173.613 429.417,157.45 430.884,204.572 432.35,184.813 433.816,185.345 435.282,173.219 436.749,188.946 438.215,181.121 439.681,310.081 441.147,326.454 442.613,158.125 444.08,160.593 445.546,161.95 447.012,166.959 448.478,185.637 449.945,187.652 451.411,177.578 452.877,178.035 454.343,171.9 455.81,190.552 457.276,191.557 458.742,183.826 460.208,314.861 461.675,465.552 463.141,440.902 464.607,319.481 466.073,315.82 467.539,308.129 469.006,325.849 470.472,179.736 471.938,181.824 473.404,193.105 474.871,196.696 476.337,174.004 477.803,173.973 479.269,165.958 480.736,181.935 482.202,191.735 483.668,189.071 485.134,194.055 486.6,166.251 488.067,192.613 489.533,193.555 490.999,188.112 492.465,177.807 493.932,185.423 495.398,178.301 496.864,205.876 498.33,201.982 499.797,198.339 501.263,182.983 502.729,172.117 504.195,174.34 505.661,173.784 507.128,173.578 508.594,173.333 510.06,168.349 511.526,184.812 512.993,200.224 514.459,203.632 515.925,181.766 517.391,187.86 518.858,164.004 520.324,192.126 521.79,341.288 523.256,199.558 524.722,176.968 526.189,178.356 527.655,186.977 529.121,183.835 530.587,197.04 532.054,176.809 533.52,315.535 534.986,311.809 536.452,180.423 537.919,177.195 539.385,176.493 540.851,177.478 542.317,212.073 543.784,185.299 545.25,311.146 546.716,468.639 548.182,328.48 549.648,315.879 551.115,172.875 552.581,166.375 554.047,182.63 555.513,176.422 556.98,190.902 558.446,169.095 559.912,196.906 561.378,309.941 562.845,174.047 564.311,195.564 565.777,199.726 567.243,161.721 568.709,158.485 570.176,176.04 571.642,174.062 573.108,172.259 574.574,162.931 576.041,193.291 577.507,189.63 578.973,174.47 580.439,167.358 581.906,174.027 583.372,181.016 584.838,189.165 586.304,187.913 587.77,186.498 589.237,189.683 590.703,166.393 592.169,168.217 593.635,164.368 595.102,171.748 596.568,199.641 598.034,180.767 599.5,191.389 600.967,193.549 602.433,194.792 603.899,167.153 605.365,193.998 606.831,210.755 608.298,204.026 609.764,204.527 611.23,203.233 612.696,148.988 614.163,157.632 615.629,165.959 617.095,148.387 618.561,209.495 620.028,185.038 621.494,298.036 622.96,171.748 624.426,167.747 625.893,201.605 627.359,301.105 628.825,292.862 630.291,183.482 631.757,181.915 633.224,306.616 634.69,171.914 636.156,183.19 637.622,182.782 639.089,173.402 640.555,178.654 642.021,184.251 643.487,194.166 644.954,201.09 646.42,192.562 647.886,177.803 649.352,186.896 650.818,185.21 652.285,175.152 653.751,178.262 655.217,183.791 656.683,184.519 658.15,171.736 659.616,307.768 661.082,301.938 662.548,331.287 664.015,328.358 665.481,192.106 666.947,310.743 668.413,313.305 669.879,437.366 671.346,359.884 672.812,291.849 674.278,163.105 675.744,185.219 677.211,183.133 678.677,315.167 680.143,320.852 681.609,191.173 683.076,197.477 684.542,175.121 686.008,197.04 687.474,189.741 688.94,171.99 690.407,169.769 691.873,191.156 693.339,194.963 694.805,190.557 696.272,156.364 697.738,151.965 699.204,166.869 700.67,166.254 702.137,192.382 703.603,193.135 705.069,180.836 706.535,193.795 708.002,315.715 709.468,315.164 710.934,309.597 712.4,168.74 713.866,185.337 715.333,182.684 716.799,184.624 718.265,180.981 719.731,201.027 721.198,174.95 722.664,204.339 724.13,190.101 725.596,169.922 727.063,202.802 728.529,300.34 729.995,206.381 731.461,307.685 732.927,188.425 734.394,194.977 735.86,185.69 737.326,179.136 738.792,190.34 740.259,209.499 741.725,208.465 743.191,166.65 744.657,161.603 746.124,204.846 747.59,340.894 749.056,202.154 750.522,183.167 751.988,312.599 753.455,316.295 754.921,313.789 756.387,179.928 757.853,202.719 759.32,194.483 760.786,178.047 762.252,163.085 763.718,165.258 765.185,157.376 766.651,200.662 768.117,311.121 769.583,309.532 771.049,167.147 772.516,202.941 773.982,202.587 775.448,204.587 776.914,328.603 778.381,184.98 779.847,193.066 781.313,192.274 782.779,195.273 784.246,196.588 785.712,189.955 787.178,160.347 788.644,163.338 790.111,156.528 791.577,206.747 793.043,171.555 794.509,181.094 795.975,331.789 797.442,194.409 798.908,183.048 800.374,181.369 801.84,198.059 803.307,180.439 804.773,186.67 806.239,188.448 807.705,180.461 809.172,173.755 810.638,175.514 812.104,156.94 813.57,177.155 815.036,194.953 816.503,195.63 817.969,191.964 819.435,190.145 820.901,323.939 822.368,291.952 823.834,311.826 825.3,332.842 826.766,309.578 828.233,324.178 829.699,194.633 831.165,174.876 832.631,201.872 834.097,171.674 835.564,184.83 837.03,171.474 838.496,186.82 839.962,172.623 841.429,177.446 842.895,175.004 844.361,165.32 845.827,183.229 847.294,165.25 848.76,194.361 850.226,190.917 851.692,176.606 853.159,453.716 854.625,332.922 856.091,192.29 857.557,179.67 859.023,193.625 860.49,163.692 861.956,194.961 863.422,186.19 864.888,180.811 866.355,181.691 867.821,300.932 869.287,184.336 870.753,181.301 872.22,191.694 873.686,200.495 875.152,297.079 876.618,186.95 878.084,184.086 879.551,169.68 881.017,476.075 882.483,318.557 883.949,304.472 885.416,179.058 886.882,174.667 888.348,334.544 889.814,207.206 891.281,195.676 892.747,306.339 894.213,320.523 895.679,320.943 897.145,192.189 898.612,173.235 900.078,168.547 901.544,188.194 903.01,186.672 904.477,167.153 905.943,320.733 907.409,177.231 908.875,170.56 910.342,147.88 911.808,175.325 913.274,162.607 914.74,159.875 916.206,201.944 917.673,185.494 919.139,175.202 920.605,222.13 922.071,206.565 923.538,208.751 925.004,293.594 926.47,205.714 927.936,211.317 929.403,168.151 930.869,184.623 932.335,167.163 933.801,194.534 935.268,187.675 936.734,174.036 938.2,183.845 939.666,183.274 941.132,191.665 942.599,175.474 944.065,194.941 945.531,189.49 946.997,183.457 948.464,181.413 949.93,176.873 951.396,177.047 952.862,203.333 954.329,308.747 955.795,188.045 957.261,316.576 958.727,168.682 960.193,196.672 961.66,193.373 963.126,198.94 964.592,346.24 966.058,332.099 967.525,312.187 968.991,200.175 970.457,197.376 971.923,193.444 973.39,176.549 974.856,183.655 976.322,164.243 977.788,197.143 979.254,187.4 980.721,171.244 982.187,195.151 983.653,174.325 985.119,200.484 986.586,322.721 988.052,180.283 989.518,185.391 990.984,170.456 992.451,194.497 993.917,172.227 995.383,193.087 996.849,167.865 998.315,169.81 999.782,170.092 1001.25,332.783 1002.71,334.609 1004.18,329.393 1005.65,309.542 1007.11,196.884 1008.58,178.667 1010.05,330.093 1011.51,311.553 1012.98,301.792 1014.44,324.69 1015.91,316.161 1017.38,350.922 1018.84,329.656 1020.31,313.173 1021.78,203.605 1023.24,193.942 1024.71,193.227 1026.17,173.204 1027.64,198.15 1029.11,196.553 1030.57,199.252 1032.04,197.607 1033.51,167.709 1034.97,177.342 1036.44,196.283 1037.9,198.206 1039.37,192.908 1040.84,187.006 1042.3,178.823 1043.77,175.743 1045.23,165.158 1046.7,180.233 1048.17,175.262 1049.63,186.326 1051.1,307.852 1052.57,185.951 1054.03,187.153 1055.5,178.796 1056.96,331.655 1058.43,193.912 1059.9,168.858 1061.36,181.668 1062.83,171.515 1064.3,175.028 1065.76,172.017 1067.23,171.626 1068.69,186.298 1070.16,157.9 1071.63,174.995 1073.09,192.698 1074.56,176.396 1076.03,316.495 1077.49,313.828 1078.96,313.822 1080.42,199.056 1081.89,188.809 1083.36,185.098 1084.82,176.376 1086.29,184.759 1087.76,184.208 1089.22,170.434 1090.69,205.378 1092.15,329.136 1093.62,306.836 1095.09,333.717 1096.55,438.136 1098.02,331.748 1099.49,175.406 1100.95,195.051 1102.42,297.579 1103.88,328.103 1105.35,163.478 1106.82,162.663 1108.28,183.661 1109.75,179.843 1111.22,179.474 1112.68,184.36 1114.15,174.026 1115.61,174.238 1117.08,179.327 1118.55,168.98 1120.01,196.88 1121.48,177.653 1122.95,195.964 1124.41,183.011 1125.88,169.561 1127.34,189.649 1128.81,187.31 1130.28,183.258 1131.74,186.327 1133.21,204.059 1134.68,205.55 1136.14,173.222 1137.61,182.031 1139.07,182.641 1140.54,189.839 1142.01,194.469 1143.47,175.197 1144.94,188.144 1146.4,179.997 1147.87,185.048 1149.34,189.856 1150.8,188.145 1152.27,343.567 1153.74,353.236 1155.2,171.132 1156.67,172.55 1158.13,176.648 1159.6,184.141 1161.07,329.919 1162.53,312.326 1164,324.441 1165.47,301.709 1166.93,187.907 1168.4,184.316 1169.86,198.231 1171.33,183.43 1172.8,195.137 1174.26,189.914 1175.73,196.393 1177.2,309.475 1178.66,179.067 1180.13,194.039 1181.59,175.14 1183.06,170.509 1184.53,178.528 1185.99,168.675 1187.46,179.057 1188.93,164.018 1190.39,321.899 1191.86,301.391 1193.32,322.401 1194.79,301.961 1196.26,194.742 1197.72,156.207 1199.19,183.57 1200.66,198.174 1202.12,204.138 1203.59,173.893 1205.05,309.704 1206.52,213.002 1207.99,183.937 1209.45,180.372 1210.92,170.727 1212.39,171.632 1213.85,182.981 1215.32,179.246 1216.78,170.381 1218.25,173.252 1219.72,161.503 1221.18,196.117 1222.65,173.506 1224.12,175.429 1225.58,195.686 1227.05,171.356 1228.51,165.42 1229.98,190.989 1231.45,173.336 1232.91,200.004 1234.38,189.582 1235.85,177.12 1237.31,155.777 1238.78,160.52 1240.24,173.328 1241.71,215.15 1243.18,158.185 1244.64,158.302 1246.11,184.148 1247.57,186.57 1249.04,320.747 1250.51,161.718 1251.97,180.316 1253.44,310.555 1254.91,191.042 1256.37,182.529 1257.84,180.805 1259.3,191.654 1260.77,178.8 1262.24,190.441 1263.7,313.793 1265.17,177.715 1266.64,303.374 1268.1,316.25 1269.57,320.365 1271.03,173.473 1272.5,195.96 1273.97,180.121 1275.43,175.797 1276.9,302.379 1278.37,200.569 1279.83,191.485 1281.3,157.352 1282.76,296.132 1284.23,182.007 1285.7,191.656 1287.16,178.645 1288.63,187.713 1290.1,315.279 1291.56,333.831 1293.03,434.471 1294.49,290.675 1295.96,161.538 1297.43,180.09 1298.89,179.451 1300.36,183.256 1301.83,196.387 1303.29,193.027 1304.76,196.908 1306.22,170.172 1307.69,211.201 1309.16,175.819 1310.62,195.733 1312.09,157.564 1313.56,163.017 1315.02,179.781 1316.49,191.695 1317.95,187.564 1319.42,315.718 1320.89,314.446 1322.35,327.45 1323.82,327.192 1325.29,312.231 1326.75,180.727 1328.22,182.615 1329.68,192.852 1331.15,166.569 1332.62,158.116 1334.08,197.309 1335.55,187.916 1337.02,174.783 1338.48,166.45 1339.95,167.98 1341.41,171.876 1342.88,173.034 1344.35,180.573 1345.81,183.942 1347.28,175.416 1348.74,170.272 1350.21,163.44 1351.68,188.924 1353.14,336.618 1354.61,302.858 1356.08,305.045 1357.54,187.538 1359.01,183.789 1360.47,190.159 1361.94,198.869 1363.41,171.346 1364.87,169.156 1366.34,177.519 1367.81,188.195 1369.27,332.324 1370.74,175.679 1372.2,183.293 1373.67,197.9 1375.14,173.875 1376.6,178.7 1378.07,180.71 1379.54,185.948 1381,176.181 1382.47,209.31 1383.93,171.632 1385.4,158.171 1386.87,189.358 1388.33,207.485 1389.8,200.166 1391.27,186.582 1392.73,167.08 1394.2,171.967 1395.66,176.582 1397.13,188.495 1398.6,179.561 1400.06,175.804 1401.53,187.572 1403,171.877 1404.46,184.758 1405.93,181.67 1407.39,174.124 1408.86,190.383 1410.33,200.481 1411.79,194.265 1413.26,314.425 1414.73,164.118 1416.19,312.569 1417.66,312.788 1419.12,326.164 1420.59,325.884 1422.06,328.816 1423.52,180.929 1424.99,173.924 1426.46,197.27 1427.92,195.649 1429.39,175.476 1430.85,188.413 1432.32,168.063 1433.79,198.96 1435.25,189.683 1436.72,169.634 1438.19,189.135 1439.65,175.255 1441.12,179.78 1442.58,182.437 1444.05,189.5 1445.52,182.99 1446.98,182.589 1448.45,172.767 1449.92,185.353 1451.38,179.029 1452.85,175.822 1454.31,171.377 1455.78,189.289 1457.25,320.5 1458.71,300.699 1460.18,189.164 1461.64,180.227 1463.11,177.954 1464.58,193.478 1466.04,187.467 1467.51,190.062 1468.98,309.538 1470.44,210.853 1471.91,197.201 1473.37,179.941 1474.84,181.941 1476.31,174.318 1477.77,168.536 1479.24,164.359 1480.71,303.968 1482.17,179.194 1483.64,165.843 1485.1,160.558 1486.57,206.756 1488.04,160.433 1489.5,204.596 1490.97,178.293 1492.44,179.305 1493.9,179.915 1495.37,175.492 1496.83,174.412 1498.3,165.168 1499.77,184.341 1501.23,190.383 1502.7,172.072 1504.17,182.133 1505.63,171.015 1507.1,201.489 1508.56,207.727 1510.03,178.664 1511.5,186.852 1512.96,172.298 1514.43,173.284 1515.9,182.752 1517.36,315.89 1518.83,318.876 1520.29,185.228 1521.76,178.349 1523.23,181.156 1524.69,163.246 1526.16,166.142 1527.63,166.307 1529.09,317.961 1530.56,161.293 1532.02,160.515 1533.49,310.472 1534.96,319.674 1536.42,327.193 1537.89,336.761 1539.36,179.044 1540.82,178.219 1542.29,191.973 1543.75,167.525 1545.22,173.642 1546.69,173.797 1548.15,172.853 1549.62,197.567 1551.09,168.008 1552.55,181.671 1554.02,194.438 1555.48,176.434 1556.95,194.152 1558.42,153.062 1559.88,340.707 1561.35,171.476 1562.81,182.993 1564.28,195.203 1565.75,200.915 1567.21,168.369 1568.68,198.637 1570.15,175.208 1571.61,197.434 1573.08,201.342 1574.54,172.54 1576.01,182.998 1577.48,166.907 1578.94,182.903 1580.41,310.763 1581.88,309.267 1583.34,189.35 1584.81,184.302 1586.27,331.601 1587.74,327.632 1589.21,321.472 1590.67,299.73 1592.14,327.984 1593.61,201.038 1595.07,196.572 1596.54,177.559 1598,153.109 1599.47,166.434 1600.94,197.28 1602.4,172.743 1603.87,317.338 1605.34,180.161 1606.8,180.171 1608.27,171.815 1609.73,179.268 1611.2,178.434 1612.67,174.082 1614.13,313.627 1615.6,329.104 1617.07,326.054 1618.53,180.34 1620,307.849 1621.46,299.871 1622.93,329.832 1624.4,193.459 1625.86,327.1 1627.33,176.409 1628.8,189.128 1630.26,187.716 1631.73,185.3 1633.19,189.704 1634.66,174.872 1636.13,179.852 1637.59,173.488 1639.06,180.949 1640.53,165.029 1641.99,189.422 1643.46,153.905 1644.92,193.076 1646.39,204.447 1647.86,160.284 1649.32,166.429 1650.79,163.913 1652.26,301.704 1653.72,201.283 1655.19,176.176 1656.65,179.981 1658.12,177.973 1659.59,183.463 1661.05,172.681 1662.52,184.268 1663.98,190.996 1665.45,332.127 1666.92,305.62 1668.38,331.467 1669.85,157.354 1671.32,328.14 1672.78,184.453 1674.25,159.643 1675.71,202.664 1677.18,168.936 1678.65,165.685 1680.11,177.903 1681.58,195.189 1683.05,184.474 1684.51,162.084 1685.98,306.386 1687.44,193.009 1688.91,427.782 1690.38,325.154 1691.84,309.941 1693.31,318.921 1694.78,202.942 1696.24,182.27 1697.71,193.131 1699.17,204.243 1700.64,169.29 1702.11,180.245 1703.57,180.307 1705.04,180.39 1706.51,199.923 1707.97,186.52 1709.44,184.847 1710.9,194.596 1712.37,199.899 1713.84,178.582 1715.3,180.063 1716.77,172.862 1718.24,163.157 1719.7,200.447 1721.17,203.058 1722.63,305.383 1724.1,329.165 1725.57,335.982 1727.03,339.092 1728.5,315.117 1729.97,324.703 1731.43,314.886 1732.9,179.315 1734.36,202.933 1735.83,156.603 1737.3,181.319 1738.76,191.769 1740.23,182.992 1741.7,183.087 1743.16,172.529 1744.63,196.804 1746.09,181.005 1747.56,164.476 1749.03,186.839 1750.49,184.998 1751.96,179.799 1753.43,180.171 1754.89,179.653 1756.36,182.493 1757.82,181.05 1759.29,173.315 1760.76,192.995 1762.22,173.841 1763.69,187.899 1765.15,179.311 1766.62,189.209 1768.09,177.942 1769.55,175.529 1771.02,187.962 1772.49,171.295 1773.95,192.349 1775.42,170.237 1776.88,188.455 1778.35,198.984 1779.82,165.143 1781.28,201.493 1782.75,183.57 1784.22,153.118 1785.68,171.538 1787.15,191.301 1788.61,304.407 1790.08,307.239 1791.55,340.92 1793.01,333.285 1794.48,190.634 1795.95,322.807 1797.41,203.391 1798.88,175.59 1800.34,182.47 1801.81,181.146 1803.28,172.685 1804.74,175.3 1806.21,171.092 1807.68,185.47 1809.14,321.214 1810.61,323.085 1812.07,322.157 1813.54,447.909 1815.01,329.361 1816.47,304.474 1817.94,307.64 1819.41,199.651 1820.87,176.17 1822.34,191.869 1823.8,189.883 1825.27,195.997 1826.74,188.35 1828.2,188.636 1829.67,177.642 1831.14,164.742 1832.6,317.371 1834.07,339.425 1835.53,316.413 1837,167.633 1838.47,188.516 1839.93,166.735 1841.4,166.779 1842.87,192.871 1844.33,165.631 1845.8,156.853 1847.26,169.784 1848.73,196.225 1850.2,185.692 1851.66,191.896 1853.13,176.197 1854.6,198.309 1856.06,163.353 1857.53,179.872 1858.99,189.654 1860.46,194.87 1861.93,168.371 1863.39,172.679 1864.86,181.768 1866.32,188.343 1867.79,176.996 1869.26,189.338 1870.72,192.819 1872.19,193.754 1873.66,194.08 1875.12,177.007 1876.59,174.587 1878.05,204.548 1879.52,175.396 1880.99,179.744 1882.45,193.419 1883.92,316.942 1885.39,169.244 1886.85,197.046 1888.32,166.478 1889.78,193.296 1891.25,189.616 1892.72,182.023 1894.18,200.821 1895.65,180.455 1897.12,185.727 1898.58,181.501 1900.05,187.658 1901.51,197.304 1902.98,173.939 1904.45,325.077 1905.91,183.475 1907.38,190.984 1908.85,207.253 1910.31,168.864 1911.78,177.844 1913.24,203.283 1914.71,163.417 1916.18,181.046 1917.64,179.438 1919.11,167.928 1920.58,192.304 1922.04,189.745 1923.51,176.12 1924.97,189.87 1926.44,168.222 1927.91,345.681 1929.37,314.563 1930.84,174.841 1932.31,197.057 1933.77,183.06 1935.24,170.239 1936.7,192.232 1938.17,181.595 1939.64,173.298 1941.1,198.251 1942.57,189.463 1944.04,311.785 1945.5,332.877 1946.97,284.798 1948.43,181.78 1949.9,185.208 1951.37,182.109 1952.83,194.014 1954.3,193.315 1955.77,180.21 1957.23,164.587 1958.7,167.334 1960.16,197.496 1961.63,325.326 1963.1,172.219 1964.56,179.603 1966.03,177.723 1967.49,180.296 1968.96,171.39 1970.43,191.14 1971.89,162.785 1973.36,175.59 1974.83,170.553 1976.29,184.761 1977.76,191.2 1979.22,184.975 1980.69,176.189 1982.16,197.932 1983.62,179.513 1985.09,184.289 1986.56,190.582 1988.02,187.192 1989.49,184.605 1990.95,184.023 1992.42,185.647 1993.89,203.191 1995.35,164.501 1996.82,162.711 1998.29,193.099 1999.75,182.718 2001.22,186.128 2002.68,189.172 2004.15,185.033 2005.62,184.077 2007.08,182.121 2008.55,192.309 2010.02,185.53 2011.48,155.527 2012.95,214.714 2014.41,147.601 2015.88,171.037 2017.35,183.964 2018.81,192.316 2020.28,175.597 2021.75,170.494 2023.21,169.481 2024.68,195.832 2026.14,181.701 2027.61,291.683 2029.08,346.098 2030.54,294.127 2032.01,152.693 2033.48,156.364 2034.94,158.121 2036.41,167.41 2037.87,173.527 2039.34,164.456 2040.81,190.663 2042.27,324.339 2043.74,330.113 2045.21,210.868 2046.67,308.52 2048.14,303.98 2049.6,173.806 2051.07,311.482 2052.54,191.466 2054,178.856 2055.47,183.593 2056.94,172.76 2058.4,199.609 2059.87,192.178 2061.33,188.675 2062.8,194.282 2064.27,303.243 2065.73,181.875 2067.2,200.923 2068.66,213.706 2070.13,159.709 2071.6,171.507 2073.06,170.467 2074.53,201.888 2076,196.206 2077.46,176.682 2078.93,191.065 2080.39,183.815 2081.86,325.987 2083.33,321.337 2084.79,167.614 2086.26,188.504 2087.73,192.955 2089.19,288.507 2090.66,210.96 2092.12,167.273 2093.59,213.784 2095.06,201.223 2096.52,198.896 2097.99,198.221 2099.46,181.789 2100.92,178.002 2102.39,188.112 2103.85,169.097 2105.32,187.012 2106.79,181.701 2108.25,322.773 2109.72,187.216 2111.19,193.565 2112.65,344.916 2114.12,164.671 2115.58,183.093 2117.05,298.101 2118.52,182.21 2119.98,173.422 2121.45,192.519 2122.92,182.411 2124.38,176.318 2125.85,179.083 2127.31,187.391 2128.78,173.32 2130.25,159.205 2131.71,185.328 2133.18,312.212 2134.65,306.574 2136.11,174.337 2137.58,183.456 2139.04,178.811 2140.51,185.695 2141.98,198.012 2143.44,164.563 2144.91,197.254 2146.38,169.5 2147.84,321.293 2149.31,188.198 2150.77,180.837 2152.24,181.807 2153.71,192.025 2155.17,193.101 2156.64,181.564 2158.11,178.74 2159.57,200.511 2161.04,199.569 2162.5,156.544 2163.97,160.29 2165.44,207.099 2166.9,192.367 2168.37,187.768 2169.84,183.322 2171.3,179.031 2172.77,165.315 2174.23,191.991 2175.7,198.379 2177.17,175.781 2178.63,314.125 2180.1,183.06 2181.56,188.766 2183.03,180.11 2184.5,188.518 2185.96,191.776 2187.43,183.512 2188.9,309.659 2190.36,196.131 2191.83,153.472 2193.29,320.341 2194.76,176.082 2196.23,168.403 2197.69,166.806 2199.16,190.869 2200.63,176.789 2202.09,170.579 2203.56,172.851 2205.02,196.133 2206.49,299.55 2207.96,195.037 2209.42,164.708 2210.89,189.256 2212.36,172.985 2213.82,191.272 2215.29,328.071 2216.75,303.36 2218.22,185.298 2219.69,159.076 2221.15,329.726 2222.62,191.037 2224.09,316.897 2225.55,326.955 2227.02,332.862 2228.48,338.842 2229.95,457.189 2231.42,191.342 2232.88,181.264 2234.35,188.214 2235.82,186.764 2237.28,201.23 2238.75,293.969 2240.21,303.399 2241.68,332.193 2243.15,303.512 2244.61,311.979 2246.08,327.433 2247.55,313.963 2249.01,283.053 2250.48,312.679 2251.94,317.675 2253.41,325.038 2254.88,201.353 2256.34,188.777 2257.81,326.651 2259.28,313.697 2260.74,308.559 2262.21,320.236 2263.67,180.248 2265.14,183.97 2266.61,163.168 2268.07,193.755 2269.54,179.794 2271.01,318.105 2272.47,313.473 2273.94,171.265 2275.4,196.205 2276.87,174.122 2278.34,195.276 2279.8,331.391 2281.27,302.927 2282.73,177.325 2284.2,171.339 2285.67,170.139 2287.13,182.383 2288.6,180.698 2290.07,168.956 2291.53,171.988 2293,192.192 2294.46,199.364 2295.93,327.389 2297.4,180.714 2298.86,194.524 2300.33,319.436 2301.8,195.314 2303.26,196.159 2304.73,197.724 2306.19,189.81 2307.66,321.92 2309.13,323.613 2310.59,315.485 2312.06,183.286 2313.53,182.305 2314.99,189.33 2316.46,313.493 2317.92,326.509 2319.39,191.923 2320.86,175.788 2322.32,212.054 2323.79,154.633 2325.26,175.975 2326.72,191.69 2328.19,158.235 2329.65,159.842 2331.12,162.207 2332.59,185.076 2334.05,161.816 2335.52,174.039 2336.99,171.549 2338.45,200.831 2339.92,196.629 2341.38,204.065 2342.85,187.044 2344.32,178.998 2345.78,180.48 2347.25,172.582 2348.72,196.719 2350.18,179.006 2351.65,201.696 2353.11,192.182 2354.58,192.039 2356.05,311.886 2357.51,439.249 2358.98,442.853 2360.45,310.906 2361.91,325.787 2363.38,322.052 2364.84,303.084 2366.31,170.898 2367.78,188.079 2369.24,181.081 2370.71,197.334 2372.18,168.416 2373.64,189.861 2375.11,173.006 2376.57,175.859 2378.04,165.844 2379.51,179.854 2380.97,188.38 2382.44,179.857 2383.9,306.002 2385.37,189.961 2386.84,170.745 2388.3,180.705 2389.77,183.101 2391.24,207.063 2392.7,166.756 2394.17,183.223 2395.63,177.957 2397.1,186.908 2398.57,173.774 2400.03,179.986 2401.5,162.942 2402.97,187.454 2404.43,171.622 2405.9,174.584 2407.36,173.935 2408.83,169.983 2410.3,181.258 2411.76,184.668 2413.23,174.542 2414.7,196.76 2416.16,158.708 2417.63,184.672 2419.09,185.955 2420.56,204.17 2422.03,183.637 2423.49,166.56 2424.96,184.843 2426.43,175.441 2427.89,160.046 2429.36,169.106 2430.82,180.428 2432.29,182.617 2433.76,186.942 2435.22,188.244 2436.69,183.604 2438.16,183.119 2439.62,202.856 2441.09,174.557 2442.55,187.546 2444.02,311.213 2445.49,309.157 2446.95,317.285 2448.42,194.531 2449.89,189.373 2451.35,193.161 2452.82,187.035 2454.28,193.412 2455.75,195.411 2457.22,180.206 2458.68,167.344 2460.15,155.457 2461.62,168.581 2463.08,171.591 2464.55,315.123 2466.01,169.739 2467.48,182.222 2468.95,296.07 2470.41,310.972 2471.88,329.005 2473.35,189.761 2474.81,201.724 2476.28,312.504 2477.74,317.377 2479.21,189.443 2480.68,306.91 2482.14,327.987 2483.61,331 2485.07,334.385 2486.54,320.214 2488.01,447.971 2489.47,315.154 2490.94,183.486 2492.41,190.768 2493.87,314.753 2495.34,185.261 2496.8,174.263 2498.27,192.958 2499.74,197.171 2501.2,193.814 2502.67,194.045 2504.14,179.399 2505.6,163.227 2507.07,157.974 2508.53,296.402 2510,200.952 2511.47,294.131 2512.93,334.532 2514.4,329.243 2515.87,169.374 2517.33,173.845 2518.8,180.762 2520.26,182.704 2521.73,183.396 2523.2,319.483 2524.66,175.559 2526.13,201.033 2527.6,157.022 2529.06,201.439 2530.53,168.066 2531.99,202.49 2533.46,305.523 2534.93,288.202 2536.39,192.148 2537.86,168.706 2539.33,178.089 2540.79,175.56 2542.26,205.045 2543.72,174.688 2545.19,158.178 2546.66,171.634 2548.12,208.597 2549.59,187.868 2551.06,193.053 2552.52,303.457 2553.99,171.276 2555.45,195.592 2556.92,182.616 2558.39,174.733 2559.85,201.402 2561.32,180.178 2562.79,170.632 2564.25,169.533 2565.72,174.772 2567.18,201.938 2568.65,309.168 2570.12,321.738 2571.58,328.308 2573.05,315.867 2574.52,309.714 2575.98,444.401 2577.45,455.005 2578.91,460.25 2580.38,458.213 2581.85,442.93 2583.31,337.143 2584.78,162.438 2586.24,184.077 2587.71,169.105 2589.18,195.889 2590.64,170.728 2592.11,174.426 2593.58,168.76 2595.04,180.793 2596.51,190.328 2597.97,192.551 2599.44,199.975 2600.91,173.471 2602.37,168.236 2603.84,313.669 2605.31,187.99 2606.77,195.742 2608.24,178.276 2609.7,190.233 2611.17,316.374 2612.64,329.089 2614.1,315.291 2615.57,314.461 2617.04,184.802 2618.5,202.31 2619.97,166.905 2621.43,155.408 2622.9,173.307 2624.37,346.176 2625.83,203.939 2627.3,175.534 2628.77,170.861 2630.23,188.671 2631.7,182.475 2633.16,316.558 2634.63,310.971 2636.1,174.925 2637.56,186.826 2639.03,170.413 2640.5,166.891 2641.96,174.166 2643.43,174.654 2644.89,178.312 2646.36,182.122 2647.83,185.367 2649.29,179.492 2650.76,174.483 2652.23,193.969 2653.69,184.756 2655.16,317.514 2656.62,204.93 2658.09,194.914 2659.56,169.85 2661.02,305.365 2662.49,189.378 2663.96,310.5 2665.42,331.727 2666.89,308.453 2668.35,300.445 2669.82,197.378 2671.29,326.437 2672.75,313.678 2674.22,438.877 2675.69,311.613 2677.15,184.92 2678.62,158.76 2680.08,188.843 2681.55,199.828 2683.02,202.474 2684.48,176.515 2685.95,179.161 2687.41,185.784 2688.88,161.997 2690.35,195.872 2691.81,304.635 2693.28,304.34 2694.75,300.192 2696.21,170.814 2697.68,194.662 2699.14,183.122 2700.61,181.432 2702.08,194.087 2703.54,192.757 2705.01,172.232 2706.48,186.381 2707.94,192.079 2709.41,312.06 2710.87,183.701 2712.34,184.835 2713.81,181.347 2715.27,174.999 2716.74,202.033 2718.21,160.54 2719.67,187.075 2721.14,197.966 2722.6,173.766 2724.07,175.969 2725.54,177.469 2727,186.304 2728.47,174.794 2729.94,315.144 2731.4,320.971 2732.87,294.468 2734.33,313.872 2735.8,299.781 2737.27,192.544 2738.73,192.552 2740.2,170.378 2741.67,322.875 2743.13,309.69 2744.6,174.165 2746.06,177.67 2747.53,204.008 2749,192.739 2750.46,184.158 2751.93,170.292 2753.4,192.446 2754.86,180.337 2756.33,171.886 2757.79,161.156 2759.26,167.155 2760.73,188.396 2762.19,178.342 2763.66,328.89 2765.13,175.252 2766.59,305.928 2768.06,177.113 2769.52,191.543 2770.99,201.989 2772.46,167.25 2773.92,179.366 2775.39,155.896 2776.86,174.035 2778.32,172.54 2779.79,181.206 2781.25,188.075 2782.72,199.279 2784.19,183.027 2785.65,198.757 2787.12,179.76 2788.59,184.945 2790.05,177.431 2791.52,192.023 2792.98,193.193 2794.45,162.549 2795.92,217.95 2797.38,178.549 2798.85,182.313 2800.31,184.587 2801.78,199.379 2803.25,177.163 2804.71,153.096 2806.18,172.778 2807.65,168.205 2809.11,197.583 2810.58,188.818 2812.04,203.227 2813.51,177.041 2814.98,196.27 2816.44,180.34 2817.91,194.713 2819.38,305.693 2820.84,328.378 2822.31,170.256 2823.77,188.831 2825.24,178.498 2826.71,176.626 2828.17,192.278 2829.64,174.457 2831.11,160.181 2832.57,193.317 2834.04,169.601 2835.5,180.248 2836.97,187.758 2838.44,309.346 2839.9,298.351 2841.37,186.179 2842.84,177.464 2844.3,199.637 2845.77,169.902 2847.23,197.656 2848.7,204.37 2850.17,303.716 2851.63,202.221 2853.1,161.987 2854.57,187.756 2856.03,165.383 2857.5,185.929 2858.96,314.464 2860.43,182.035 2861.9,312.269 2863.36,192.25 2864.83,171.877 2866.3,187.676 2867.76,193.854 2869.23,200.631 2870.69,179.429 2872.16,164.477 2873.63,180.83 2875.09,168.867 2876.56,175.055 2878.03,183.53 2879.49,304.872 2880.96,444.851 2882.42,428.981 2883.89,346.237 2885.36,457.564 2886.82,191.808 2888.29,329.86 2889.76,316.725 2891.22,328.856 2892.69,187.231 2894.15,173.458 2895.62,181.164 2897.09,197.447 2898.55,177.291 2900.02,195.662 2901.48,194.038 2902.95,196.266 2904.42,189.521 2905.88,206.677 2907.35,336.231 2908.82,327.748 2910.28,296.446 2911.75,173.728 2913.21,190.235 2914.68,166.086 2916.15,171.776 2917.61,306.026 2919.08,195.576 2920.55,175.001 2922.01,207.046 2923.48,298.776 2924.94,182.86 2926.41,313.369 2927.88,188.544 2929.34,180.236 2930.81,187.395 2932.28,169.071 2933.74,200.752 2935.21,188.607 2936.67,179.672 2938.14,314.347 2939.61,317.671 2941.07,306.551 2942.54,336.598 2944.01,168.148 2945.47,184.934 2946.94,182.274 2948.4,172.219 2949.87,171.965 2951.34,181.084 2952.8,205.093 2954.27,182.058 2955.74,175.517 2957.2,196.441 2958.67,305.664 2960.13,334.5 2961.6,196.023 2963.07,166.976 2964.53,192.712 2966,173.769 2967.47,181.658 2968.93,305.585 2970.4,328.341 2971.86,163.281 2973.33,180.263 2974.8,192.41 2976.26,311.169 2977.73,305.454 2979.2,173.139 2980.66,199.959 2982.13,321.731 2983.59,189.586 2985.06,177.13 2986.53,180.666 2987.99,183.826 2989.46,189.824 2990.93,175.098 2992.39,178.979 2993.86,188.197 2995.32,186.416 2996.79,174.82 2998.26,190.504 2999.72,185.705 3001.19,181.524 3002.65,167.275 3004.12,187.926 3005.59,189.796 3007.05,186.149 3008.52,315.994 3009.99,308.242 3011.45,328.581 3012.92,456.085 3014.38,320.077 3015.85,334.462 3017.32,326.686 3018.78,315.736 3020.25,336.035 3021.72,192.107 3023.18,169.01 3024.65,332.389 3026.11,180.451 3027.58,183.495 3029.05,208.66 3030.51,176.594 3031.98,186.896 3033.45,303.944 3034.91,320.453 3036.38,206.155 3037.84,170.388 3039.31,182.404 3040.78,156.72 3042.24,170.758 3043.71,185.407 3045.18,186.556 3046.64,187.122 3048.11,186.214 3049.57,307.106 3051.04,183.27 3052.51,184.303 3053.97,201.723 3055.44,188.814 3056.91,176.501 3058.37,192.864 3059.84,183.846 3061.3,179.753 3062.77,188.106 3064.24,186.146 3065.7,189.52 3067.17,201.192 3068.64,197.175 3070.1,173.429 3071.57,174.135 3073.03,188.842 3074.5,186.737 3075.97,187.759 3077.43,202.261 3078.9,458.839 3080.37,460.777 3081.83,305.24 3083.3,320.327 3084.76,468.556 3086.23,346.289 3087.7,324.968 3089.16,323.004 3090.63,335.109 3092.1,184.649 3093.56,177.736 3095.03,189.665 3096.49,198.453 3097.96,161.232 3099.43,205.648 3100.89,205.196 3102.36,167.953 3103.82,167.112 3105.29,198.055 3106.76,192.459 3108.22,164.506 3109.69,196.414 3111.16,313.095 3112.62,166.364 3114.09,302.925 3115.55,461.322 3117.02,327.098 3118.49,343.643 3119.95,299.076 3121.42,299.55 3122.89,184.874 3124.35,188.088 3125.82,179.768 3127.28,185.099 3128.75,322.011 3130.22,324.954 3131.68,288.531 3133.15,329.013 3134.62,311.335 3136.08,327.649 3137.55,315.004 3139.01,182.714 3140.48,179.631 3141.95,189.718 3143.41,190.325 3144.88,178.944 3146.35,197.177 3147.81,173.201 3149.28,180.417 3150.74,193.083 3152.21,177.27 3153.68,318.035 3155.14,180.571 3156.61,198.1 3158.08,198.113 3159.54,201.362 3161.01,190.459 3162.47,179.313 3163.94,169.311 3165.41,169.109 3166.87,181.025 3168.34,185.24 3169.81,162.742 3171.27,196.991 3172.74,172.435 3174.2,180.126 3175.67,168.251 3177.14,200.586 3178.6,172.311 3180.07,171.066 3181.54,311.251 3183,308.017 3184.47,163.203 3185.93,167.091 3187.4,184.488 3188.87,176.205 3190.33,188.094 3191.8,180.183 3193.27,180.927 3194.73,190.727 3196.2,316.775 3197.66,319.287 3199.13,340.088 3200.6,459.045 3202.06,457.683 3203.53,332.863 3204.99,319.626 3206.46,340.959 3207.93,318.86 3209.39,330.763 3210.86,212.034 3212.33,191.61 3213.79,186.929 3215.26,180.477 3216.72,174.035 3218.19,188.945 3219.66,189.49 3221.12,181.896 3222.59,162.655 3224.06,317.878 3225.52,334.735 3226.99,315.266 3228.45,223.915 3229.92,210.74 3231.39,184.122 3232.85,185.591 3234.32,169.386 3235.79,172.355 3237.25,180.961 3238.72,193.79 3240.18,202.313 3241.65,169.635 3243.12,304.946 3244.58,189.652 3246.05,164.583 3247.52,178.871 3248.98,180.875 3250.45,172.262 3251.91,178.218 3253.38,177.484 3254.85,166.589 3256.31,200.202 3257.78,310.959 3259.25,185.538 3260.71,180.885 3262.18,174.612 3263.64,328.028 3265.11,324.221 3266.58,340.415 3268.04,313.736 3269.51,151.822 3270.98,173.984 3272.44,178.58 3273.91,186.184 3275.37,173.508 3276.84,221.675 3278.31,209.293 3279.77,351.013 3281.24,308.202 3282.71,186.192 3284.17,180.192 3285.64,163.358 3287.1,196.328 3288.57,186.332 3290.04,183.434 3291.5,182.274 3292.97,190.133 3294.44,170.965 3295.9,188.335 3297.37,198.968 3298.83,153.379 3300.3,156.273 3301.77,205.389 3303.23,322.381 3304.7,329.687 3306.16,185.911 3307.63,164.434 3309.1,177.234 3310.56,165.988 3312.03,159.209 3313.5,165.916 3314.96,307.376 3316.43,307.085 3317.89,186.742 3319.36,167.281 3320.83,180.972 3322.29,178.93 3323.76,173.788 3325.23,183.791 3326.69,314.403 3328.16,330.756 3329.62,153.704 3331.09,184.771 3332.56,313.562 3334.02,172.385 3335.49,169.533 3336.96,306.359 3338.42,173.57 3339.89,203.373 3341.35,163.138 3342.82,201.425 3344.29,159.921 3345.75,334.037 3347.22,299.703 3348.69,202.801 3350.15,191.59 3351.62,162.205 3353.08,182.871 3354.55,181.918 3356.02,204.481 3357.48,167.75 3358.95,167.435 3360.42,333.982 3361.88,289.937 3363.35,159.589 3364.81,191.139 3366.28,173.933 3367.75,184.251 3369.21,181.656 3370.68,176.956 3372.15,183.058 3373.61,185.446 3375.08,182.086 3376.54,173.368 3378.01,170.946 3379.48,180.602 3380.94,191.613 3382.41,202.035 3383.88,166.001 3385.34,327.549 3386.81,175.751 3388.27,194.125 3389.74,171.976 3391.21,186.4 3392.67,190.657 3394.14,321.928 3395.61,203.079 3397.07,197.766 3398.54,179.554 3400,205.612 3401.47,189.804 3402.94,187.822 3404.4,156.357 3405.87,160.655 3407.33,154.181 3408.8,292.262 3410.27,430.259 3411.73,482.516 3413.2,312.318 3414.67,181.676 3416.13,312.287 3417.6,333.841 3419.06,177.888 3420.53,319.18 3422,324.981 3423.46,179.988 3424.93,175.046 3426.4,178.94 3427.86,181.612 3429.33,177.571 3430.79,315.525 3432.26,301.524 3433.73,177.221 3435.19,165.467 3436.66,171.654 3438.13,172.631 3439.59,193.154 3441.06,154.422 3442.52,319.121 3443.99,323.462 3445.46,191.609 3446.92,189.174 3448.39,155.652 3449.86,177.012 3451.32,184.074 3452.79,166.536 3454.25,156.582 3455.72,179.435 "/>
<path clip-path="url(#clip500)" d="M3000.54 166.762 L3438.47 166.762 L3438.47 63.0816 L3000.54 63.0816  Z" fill="#ffffff" fill-rule="evenodd" fill-opacity="1"/>
<polyline clip-path="url(#clip500)" style="stroke:#000000; stroke-linecap:round; stroke-linejoin:round; stroke-width:4; stroke-opacity:1; fill:none" points="3000.54,166.762 3438.47,166.762 3438.47,63.0816 3000.54,63.0816 3000.54,166.762 "/>
<polyline clip-path="url(#clip500)" style="stroke:#009af9; stroke-linecap:round; stroke-linejoin:round; stroke-width:2; stroke-opacity:1; fill:none" points="3038.64,114.922 3267.21,114.922 "/>
<path clip-path="url(#clip500)" d="M3321.69 115.998 Q3323.2 116.507 3324.61 118.174 Q3326.05 119.841 3327.48 122.757 L3332.23 132.202 L3327.2 132.202 L3322.78 123.336 Q3321.07 119.864 3319.45 118.729 Q3317.85 117.595 3315.07 117.595 L3309.98 117.595 L3309.98 132.202 L3305.31 132.202 L3305.31 97.6416 L3315.86 97.6416 Q3321.79 97.6416 3324.7 100.118 Q3327.62 102.595 3327.62 107.595 Q3327.62 110.859 3326.09 113.012 Q3324.59 115.165 3321.69 115.998 M3309.98 101.484 L3309.98 113.753 L3315.86 113.753 Q3319.24 113.753 3320.95 112.202 Q3322.69 110.628 3322.69 107.595 Q3322.69 104.563 3320.95 103.035 Q3319.24 101.484 3315.86 101.484 L3309.98 101.484 Z" fill="#000000" fill-rule="evenodd" fill-opacity="1" /><path clip-path="url(#clip500)" d="M3347.87 102.248 L3341.53 119.447 L3354.24 119.447 L3347.87 102.248 M3345.24 97.6416 L3350.54 97.6416 L3363.71 132.202 L3358.85 132.202 L3355.7 123.336 L3340.12 123.336 L3336.97 132.202 L3332.04 132.202 L3345.24 97.6416 Z" fill="#000000" fill-rule="evenodd" fill-opacity="1" /><path clip-path="url(#clip500)" d="M3368.75 97.6416 L3375.72 97.6416 L3384.54 121.16 L3393.41 97.6416 L3400.37 97.6416 L3400.37 132.202 L3395.81 132.202 L3395.81 101.854 L3386.9 125.558 L3382.2 125.558 L3373.29 101.854 L3373.29 132.202 L3368.75 132.202 L3368.75 97.6416 Z" fill="#000000" fill-rule="evenodd" fill-opacity="1" /></svg>
