<?xml version="1.0" encoding="utf-8"?>
<svg xmlns="http://www.w3.org/2000/svg" xmlns:xlink="http://www.w3.org/1999/xlink" width="900" height="150" viewBox="0 0 3600 600">
<defs>
  <clipPath id="clip700">
    <rect x="0" y="0" width="3600" height="600"/>
  </clipPath>
</defs>
<path clip-path="url(#clip700)" d="M0 600 L3600 600 L3600 0 L0 0  Z" fill="#ffffff" fill-rule="evenodd" fill-opacity="1"/>
<defs>
  <clipPath id="clip701">
    <rect x="720" y="0" width="2521" height="600"/>
  </clipPath>
</defs>
<path clip-path="url(#clip700)" d="M124.177 522.368 L3552.76 522.368 L3552.76 47.2441 L124.177 47.2441  Z" fill="#ffffff" fill-rule="evenodd" fill-opacity="1"/>
<defs>
  <clipPath id="clip702">
    <rect x="124" y="47" width="3430" height="476"/>
  </clipPath>
</defs>
<polyline clip-path="url(#clip702)" style="stroke:#000000; stroke-linecap:round; stroke-linejoin:round; stroke-width:2; stroke-opacity:0.1; fill:none" points="220.189,522.368 220.189,47.2441 "/>
<polyline clip-path="url(#clip702)" style="stroke:#000000; stroke-linecap:round; stroke-linejoin:round; stroke-width:2; stroke-opacity:0.1; fill:none" points="1243.12,522.368 1243.12,47.2441 "/>
<polyline clip-path="url(#clip702)" style="stroke:#000000; stroke-linecap:round; stroke-linejoin:round; stroke-width:2; stroke-opacity:0.1; fill:none" points="2266.05,522.368 2266.05,47.2441 "/>
<polyline clip-path="url(#clip702)" style="stroke:#000000; stroke-linecap:round; stroke-linejoin:round; stroke-width:2; stroke-opacity:0.1; fill:none" points="3288.98,522.368 3288.98,47.2441 "/>
<polyline clip-path="url(#clip700)" style="stroke:#000000; stroke-linecap:round; stroke-linejoin:round; stroke-width:4; stroke-opacity:1; fill:none" points="124.177,522.368 3552.76,522.368 "/>
<polyline clip-path="url(#clip700)" style="stroke:#000000; stroke-linecap:round; stroke-linejoin:round; stroke-width:4; stroke-opacity:1; fill:none" points="220.189,522.368 220.189,503.47 "/>
<polyline clip-path="url(#clip700)" style="stroke:#000000; stroke-linecap:round; stroke-linejoin:round; stroke-width:4; stroke-opacity:1; fill:none" points="1243.12,522.368 1243.12,503.47 "/>
<polyline clip-path="url(#clip700)" style="stroke:#000000; stroke-linecap:round; stroke-linejoin:round; stroke-width:4; stroke-opacity:1; fill:none" points="2266.05,522.368 2266.05,503.47 "/>
<polyline clip-path="url(#clip700)" style="stroke:#000000; stroke-linecap:round; stroke-linejoin:round; stroke-width:4; stroke-opacity:1; fill:none" points="3288.98,522.368 3288.98,503.47 "/>
<path clip-path="url(#clip700)" d="M220.189 562.887 Q216.578 562.887 214.75 566.451 Q212.944 569.993 212.944 577.123 Q212.944 584.229 214.75 587.794 Q216.578 591.335 220.189 591.335 Q223.824 591.335 225.629 587.794 Q227.458 584.229 227.458 577.123 Q227.458 569.993 225.629 566.451 Q223.824 562.887 220.189 562.887 M220.189 559.183 Q226 559.183 229.055 563.789 Q232.134 568.373 232.134 577.123 Q232.134 585.849 229.055 590.456 Q226 595.039 220.189 595.039 Q214.379 595.039 211.301 590.456 Q208.245 585.849 208.245 577.123 Q208.245 568.373 211.301 563.789 Q214.379 559.183 220.189 559.183 Z" fill="#000000" fill-rule="evenodd" fill-opacity="1" /><path clip-path="url(#clip700)" d="M1187.65 590.433 L1195.29 590.433 L1195.29 564.067 L1186.98 565.734 L1186.98 561.475 L1195.24 559.808 L1199.91 559.808 L1199.91 590.433 L1207.55 590.433 L1207.55 594.368 L1187.65 594.368 L1187.65 590.433 Z" fill="#000000" fill-rule="evenodd" fill-opacity="1" /><path clip-path="url(#clip700)" d="M1227 562.887 Q1223.39 562.887 1221.56 566.451 Q1219.75 569.993 1219.75 577.123 Q1219.75 584.229 1221.56 587.794 Q1223.39 591.335 1227 591.335 Q1230.63 591.335 1232.44 587.794 Q1234.27 584.229 1234.27 577.123 Q1234.27 569.993 1232.44 566.451 Q1230.63 562.887 1227 562.887 M1227 559.183 Q1232.81 559.183 1235.86 563.789 Q1238.94 568.373 1238.94 577.123 Q1238.94 585.849 1235.86 590.456 Q1232.81 595.039 1227 595.039 Q1221.19 595.039 1218.11 590.456 Q1215.05 585.849 1215.05 577.123 Q1215.05 568.373 1218.11 563.789 Q1221.19 559.183 1227 559.183 Z" fill="#000000" fill-rule="evenodd" fill-opacity="1" /><path clip-path="url(#clip700)" d="M1257.16 562.887 Q1253.55 562.887 1251.72 566.451 Q1249.91 569.993 1249.91 577.123 Q1249.91 584.229 1251.72 587.794 Q1253.55 591.335 1257.16 591.335 Q1260.79 591.335 1262.6 587.794 Q1264.43 584.229 1264.43 577.123 Q1264.43 569.993 1262.6 566.451 Q1260.79 562.887 1257.16 562.887 M1257.16 559.183 Q1262.97 559.183 1266.03 563.789 Q1269.1 568.373 1269.1 577.123 Q1269.1 585.849 1266.03 590.456 Q1262.97 595.039 1257.16 595.039 Q1251.35 595.039 1248.27 590.456 Q1245.22 585.849 1245.22 577.123 Q1245.22 568.373 1248.27 563.789 Q1251.35 559.183 1257.16 559.183 Z" fill="#000000" fill-rule="evenodd" fill-opacity="1" /><path clip-path="url(#clip700)" d="M1287.32 562.887 Q1283.71 562.887 1281.88 566.451 Q1280.08 569.993 1280.08 577.123 Q1280.08 584.229 1281.88 587.794 Q1283.71 591.335 1287.32 591.335 Q1290.96 591.335 1292.76 587.794 Q1294.59 584.229 1294.59 577.123 Q1294.59 569.993 1292.76 566.451 Q1290.96 562.887 1287.32 562.887 M1287.32 559.183 Q1293.13 559.183 1296.19 563.789 Q1299.27 568.373 1299.27 577.123 Q1299.27 585.849 1296.19 590.456 Q1293.13 595.039 1287.32 595.039 Q1281.51 595.039 1278.43 590.456 Q1275.38 585.849 1275.38 577.123 Q1275.38 568.373 1278.43 563.789 Q1281.51 559.183 1287.32 559.183 Z" fill="#000000" fill-rule="evenodd" fill-opacity="1" /><path clip-path="url(#clip700)" d="M2214.66 590.433 L2230.98 590.433 L2230.98 594.368 L2209.04 594.368 L2209.04 590.433 Q2211.7 587.678 2216.28 583.048 Q2220.89 578.396 2222.07 577.053 Q2224.32 574.53 2225.2 572.794 Q2226.1 571.035 2226.1 569.345 Q2226.1 566.59 2224.15 564.854 Q2222.23 563.118 2219.13 563.118 Q2216.93 563.118 2214.48 563.882 Q2212.05 564.646 2209.27 566.197 L2209.27 561.475 Q2212.09 560.34 2214.55 559.762 Q2217 559.183 2219.04 559.183 Q2224.41 559.183 2227.6 561.868 Q2230.8 564.553 2230.8 569.044 Q2230.8 571.174 2229.99 573.095 Q2229.2 574.993 2227.09 577.586 Q2226.51 578.257 2223.41 581.474 Q2220.31 584.669 2214.66 590.433 Z" fill="#000000" fill-rule="evenodd" fill-opacity="1" /><path clip-path="url(#clip700)" d="M2250.8 562.887 Q2247.19 562.887 2245.36 566.451 Q2243.55 569.993 2243.55 577.123 Q2243.55 584.229 2245.36 587.794 Q2247.19 591.335 2250.8 591.335 Q2254.43 591.335 2256.24 587.794 Q2258.07 584.229 2258.07 577.123 Q2258.07 569.993 2256.24 566.451 Q2254.43 562.887 2250.8 562.887 M2250.8 559.183 Q2256.61 559.183 2259.66 563.789 Q2262.74 568.373 2262.74 577.123 Q2262.74 585.849 2259.66 590.456 Q2256.61 595.039 2250.8 595.039 Q2244.99 595.039 2241.91 590.456 Q2238.85 585.849 2238.85 577.123 Q2238.85 568.373 2241.91 563.789 Q2244.99 559.183 2250.8 559.183 Z" fill="#000000" fill-rule="evenodd" fill-opacity="1" /><path clip-path="url(#clip700)" d="M2280.96 562.887 Q2277.35 562.887 2275.52 566.451 Q2273.71 569.993 2273.71 577.123 Q2273.71 584.229 2275.52 587.794 Q2277.35 591.335 2280.96 591.335 Q2284.59 591.335 2286.4 587.794 Q2288.23 584.229 2288.23 577.123 Q2288.23 569.993 2286.4 566.451 Q2284.59 562.887 2280.96 562.887 M2280.96 559.183 Q2286.77 559.183 2289.82 563.789 Q2292.9 568.373 2292.9 577.123 Q2292.9 585.849 2289.82 590.456 Q2286.77 595.039 2280.96 595.039 Q2275.15 595.039 2272.07 590.456 Q2269.01 585.849 2269.01 577.123 Q2269.01 568.373 2272.07 563.789 Q2275.15 559.183 2280.96 559.183 Z" fill="#000000" fill-rule="evenodd" fill-opacity="1" /><path clip-path="url(#clip700)" d="M2311.12 562.887 Q2307.51 562.887 2305.68 566.451 Q2303.88 569.993 2303.88 577.123 Q2303.88 584.229 2305.68 587.794 Q2307.51 591.335 2311.12 591.335 Q2314.76 591.335 2316.56 587.794 Q2318.39 584.229 2318.39 577.123 Q2318.39 569.993 2316.56 566.451 Q2314.76 562.887 2311.12 562.887 M2311.12 559.183 Q2316.93 559.183 2319.99 563.789 Q2323.07 568.373 2323.07 577.123 Q2323.07 585.849 2319.99 590.456 Q2316.93 595.039 2311.12 595.039 Q2305.31 595.039 2302.23 590.456 Q2299.18 585.849 2299.18 577.123 Q2299.18 568.373 2302.23 563.789 Q2305.31 559.183 2311.12 559.183 Z" fill="#000000" fill-rule="evenodd" fill-opacity="1" /><path clip-path="url(#clip700)" d="M3247.66 575.734 Q3251.02 576.451 3252.9 578.72 Q3254.79 580.988 3254.79 584.322 Q3254.79 589.437 3251.27 592.238 Q3247.76 595.039 3241.27 595.039 Q3239.1 595.039 3236.78 594.599 Q3234.49 594.183 3232.04 593.326 L3232.04 588.812 Q3233.98 589.947 3236.3 590.525 Q3238.61 591.104 3241.14 591.104 Q3245.53 591.104 3247.83 589.368 Q3250.14 587.632 3250.14 584.322 Q3250.14 581.266 3247.99 579.553 Q3245.86 577.817 3242.04 577.817 L3238.01 577.817 L3238.01 573.974 L3242.22 573.974 Q3245.67 573.974 3247.5 572.609 Q3249.33 571.22 3249.33 568.627 Q3249.33 565.965 3247.43 564.553 Q3245.56 563.118 3242.04 563.118 Q3240.12 563.118 3237.92 563.535 Q3235.72 563.951 3233.08 564.831 L3233.08 560.664 Q3235.74 559.924 3238.06 559.553 Q3240.4 559.183 3242.46 559.183 Q3247.78 559.183 3250.88 561.613 Q3253.98 564.021 3253.98 568.141 Q3253.98 571.012 3252.34 573.002 Q3250.7 574.97 3247.66 575.734 Z" fill="#000000" fill-rule="evenodd" fill-opacity="1" /><path clip-path="url(#clip700)" d="M3273.66 562.887 Q3270.05 562.887 3268.22 566.451 Q3266.41 569.993 3266.41 577.123 Q3266.41 584.229 3268.22 587.794 Q3270.05 591.335 3273.66 591.335 Q3277.29 591.335 3279.1 587.794 Q3280.93 584.229 3280.93 577.123 Q3280.93 569.993 3279.1 566.451 Q3277.29 562.887 3273.66 562.887 M3273.66 559.183 Q3279.47 559.183 3282.52 563.789 Q3285.6 568.373 3285.6 577.123 Q3285.6 585.849 3282.52 590.456 Q3279.47 595.039 3273.66 595.039 Q3267.85 595.039 3264.77 590.456 Q3261.71 585.849 3261.71 577.123 Q3261.71 568.373 3264.77 563.789 Q3267.85 559.183 3273.66 559.183 Z" fill="#000000" fill-rule="evenodd" fill-opacity="1" /><path clip-path="url(#clip700)" d="M3303.82 562.887 Q3300.21 562.887 3298.38 566.451 Q3296.58 569.993 3296.58 577.123 Q3296.58 584.229 3298.38 587.794 Q3300.21 591.335 3303.82 591.335 Q3307.46 591.335 3309.26 587.794 Q3311.09 584.229 3311.09 577.123 Q3311.09 569.993 3309.26 566.451 Q3307.46 562.887 3303.82 562.887 M3303.82 559.183 Q3309.63 559.183 3312.69 563.789 Q3315.77 568.373 3315.77 577.123 Q3315.77 585.849 3312.69 590.456 Q3309.63 595.039 3303.82 595.039 Q3298.01 595.039 3294.93 590.456 Q3291.88 585.849 3291.88 577.123 Q3291.88 568.373 3294.93 563.789 Q3298.01 559.183 3303.82 559.183 Z" fill="#000000" fill-rule="evenodd" fill-opacity="1" /><path clip-path="url(#clip700)" d="M3333.98 562.887 Q3330.37 562.887 3328.54 566.451 Q3326.74 569.993 3326.74 577.123 Q3326.74 584.229 3328.54 587.794 Q3330.37 591.335 3333.98 591.335 Q3337.62 591.335 3339.42 587.794 Q3341.25 584.229 3341.25 577.123 Q3341.25 569.993 3339.42 566.451 Q3337.62 562.887 3333.98 562.887 M3333.98 559.183 Q3339.79 559.183 3342.85 563.789 Q3345.93 568.373 3345.93 577.123 Q3345.93 585.849 3342.85 590.456 Q3339.79 595.039 3333.98 595.039 Q3328.17 595.039 3325.09 590.456 Q3322.04 585.849 3322.04 577.123 Q3322.04 568.373 3325.09 563.789 Q3328.17 559.183 3333.98 559.183 Z" fill="#000000" fill-rule="evenodd" fill-opacity="1" /><polyline clip-path="url(#clip702)" style="stroke:#000000; stroke-linecap:round; stroke-linejoin:round; stroke-width:2; stroke-opacity:0.1; fill:none" points="124.177,522.368 3552.76,522.368 "/>
<polyline clip-path="url(#clip702)" style="stroke:#000000; stroke-linecap:round; stroke-linejoin:round; stroke-width:2; stroke-opacity:0.1; fill:none" points="124.177,454.493 3552.76,454.493 "/>
<polyline clip-path="url(#clip702)" style="stroke:#000000; stroke-linecap:round; stroke-linejoin:round; stroke-width:2; stroke-opacity:0.1; fill:none" points="124.177,386.618 3552.76,386.618 "/>
<polyline clip-path="url(#clip702)" style="stroke:#000000; stroke-linecap:round; stroke-linejoin:round; stroke-width:2; stroke-opacity:0.1; fill:none" points="124.177,318.743 3552.76,318.743 "/>
<polyline clip-path="url(#clip702)" style="stroke:#000000; stroke-linecap:round; stroke-linejoin:round; stroke-width:2; stroke-opacity:0.1; fill:none" points="124.177,250.869 3552.76,250.869 "/>
<polyline clip-path="url(#clip702)" style="stroke:#000000; stroke-linecap:round; stroke-linejoin:round; stroke-width:2; stroke-opacity:0.1; fill:none" points="124.177,182.994 3552.76,182.994 "/>
<polyline clip-path="url(#clip702)" style="stroke:#000000; stroke-linecap:round; stroke-linejoin:round; stroke-width:2; stroke-opacity:0.1; fill:none" points="124.177,115.119 3552.76,115.119 "/>
<polyline clip-path="url(#clip702)" style="stroke:#000000; stroke-linecap:round; stroke-linejoin:round; stroke-width:2; stroke-opacity:0.1; fill:none" points="124.177,47.2441 3552.76,47.2441 "/>
<polyline clip-path="url(#clip700)" style="stroke:#000000; stroke-linecap:round; stroke-linejoin:round; stroke-width:4; stroke-opacity:1; fill:none" points="124.177,522.368 124.177,47.2441 "/>
<polyline clip-path="url(#clip700)" style="stroke:#000000; stroke-linecap:round; stroke-linejoin:round; stroke-width:4; stroke-opacity:1; fill:none" points="124.177,522.368 143.075,522.368 "/>
<polyline clip-path="url(#clip700)" style="stroke:#000000; stroke-linecap:round; stroke-linejoin:round; stroke-width:4; stroke-opacity:1; fill:none" points="124.177,454.493 143.075,454.493 "/>
<polyline clip-path="url(#clip700)" style="stroke:#000000; stroke-linecap:round; stroke-linejoin:round; stroke-width:4; stroke-opacity:1; fill:none" points="124.177,386.618 143.075,386.618 "/>
<polyline clip-path="url(#clip700)" style="stroke:#000000; stroke-linecap:round; stroke-linejoin:round; stroke-width:4; stroke-opacity:1; fill:none" points="124.177,318.743 143.075,318.743 "/>
<polyline clip-path="url(#clip700)" style="stroke:#000000; stroke-linecap:round; stroke-linejoin:round; stroke-width:4; stroke-opacity:1; fill:none" points="124.177,250.869 143.075,250.869 "/>
<polyline clip-path="url(#clip700)" style="stroke:#000000; stroke-linecap:round; stroke-linejoin:round; stroke-width:4; stroke-opacity:1; fill:none" points="124.177,182.994 143.075,182.994 "/>
<polyline clip-path="url(#clip700)" style="stroke:#000000; stroke-linecap:round; stroke-linejoin:round; stroke-width:4; stroke-opacity:1; fill:none" points="124.177,115.119 143.075,115.119 "/>
<polyline clip-path="url(#clip700)" style="stroke:#000000; stroke-linecap:round; stroke-linejoin:round; stroke-width:4; stroke-opacity:1; fill:none" points="124.177,47.2441 143.075,47.2441 "/>
<path clip-path="url(#clip700)" d="M50.2699 535.713 L57.9087 535.713 L57.9087 509.347 L49.5986 511.014 L49.5986 506.755 L57.8624 505.088 L62.5383 505.088 L62.5383 535.713 L70.1772 535.713 L70.1772 539.648 L50.2699 539.648 L50.2699 535.713 Z" fill="#000000" fill-rule="evenodd" fill-opacity="1" /><path clip-path="url(#clip700)" d="M53.8578 467.838 L70.1772 467.838 L70.1772 471.773 L48.2328 471.773 L48.2328 467.838 Q50.8949 465.083 55.4782 460.454 Q60.0846 455.801 61.2652 454.458 Q63.5105 451.935 64.3902 450.199 Q65.2929 448.44 65.2929 446.75 Q65.2929 443.995 63.3485 442.259 Q61.4272 440.523 58.3254 440.523 Q56.1263 440.523 53.6726 441.287 Q51.2421 442.051 48.4643 443.602 L48.4643 438.88 Q51.2884 437.745 53.7421 437.167 Q56.1958 436.588 58.2328 436.588 Q63.6031 436.588 66.7976 439.273 Q69.992 441.958 69.992 446.449 Q69.992 448.579 69.1818 450.5 Q68.3948 452.398 66.2883 454.991 Q65.7096 455.662 62.6078 458.88 Q59.5059 462.074 53.8578 467.838 Z" fill="#000000" fill-rule="evenodd" fill-opacity="1" /><path clip-path="url(#clip700)" d="M63.0476 385.264 Q66.404 385.982 68.279 388.25 Q70.1772 390.519 70.1772 393.852 Q70.1772 398.968 66.6587 401.769 Q63.1402 404.57 56.6587 404.57 Q54.4828 404.57 52.168 404.13 Q49.8764 403.713 47.4227 402.857 L47.4227 398.343 Q49.3671 399.477 51.6819 400.056 Q53.9967 400.634 56.5198 400.634 Q60.918 400.634 63.2096 398.898 Q65.5244 397.162 65.5244 393.852 Q65.5244 390.796 63.3717 389.083 Q61.242 387.347 57.4226 387.347 L53.3949 387.347 L53.3949 383.505 L57.6078 383.505 Q61.0569 383.505 62.8855 382.139 Q64.7142 380.75 64.7142 378.158 Q64.7142 375.496 62.8161 374.084 Q60.9411 372.648 57.4226 372.648 Q55.5013 372.648 53.3023 373.065 Q51.1032 373.482 48.4643 374.361 L48.4643 370.195 Q51.1264 369.454 53.4412 369.084 Q55.7791 368.713 57.8393 368.713 Q63.1633 368.713 66.2652 371.144 Q69.367 373.551 69.367 377.672 Q69.367 380.542 67.7235 382.533 Q66.08 384.5 63.0476 385.264 Z" fill="#000000" fill-rule="evenodd" fill-opacity="1" /><path clip-path="url(#clip700)" d="M60.5939 305.537 L48.7884 323.986 L60.5939 323.986 L60.5939 305.537 M59.367 301.463 L65.2466 301.463 L65.2466 323.986 L70.1772 323.986 L70.1772 327.875 L65.2466 327.875 L65.2466 336.023 L60.5939 336.023 L60.5939 327.875 L44.9921 327.875 L44.9921 323.361 L59.367 301.463 Z" fill="#000000" fill-rule="evenodd" fill-opacity="1" /><path clip-path="url(#clip700)" d="M49.2745 233.589 L67.6309 233.589 L67.6309 237.524 L53.5569 237.524 L53.5569 245.996 Q54.5754 245.649 55.5939 245.487 Q56.6124 245.301 57.6309 245.301 Q63.418 245.301 66.7976 248.473 Q70.1772 251.644 70.1772 257.061 Q70.1772 262.639 66.705 265.741 Q63.2328 268.82 56.9134 268.82 Q54.7374 268.82 52.4689 268.449 Q50.2236 268.079 47.8162 267.338 L47.8162 262.639 Q49.8995 263.774 52.1217 264.329 Q54.3439 264.885 56.8208 264.885 Q60.8254 264.885 63.1633 262.778 Q65.5013 260.672 65.5013 257.061 Q65.5013 253.45 63.1633 251.343 Q60.8254 249.237 56.8208 249.237 Q54.9458 249.237 53.0708 249.653 Q51.2189 250.07 49.2745 250.95 L49.2745 233.589 Z" fill="#000000" fill-rule="evenodd" fill-opacity="1" /><path clip-path="url(#clip700)" d="M58.6495 181.13 Q55.5013 181.13 53.6495 183.283 Q51.8208 185.436 51.8208 189.186 Q51.8208 192.913 53.6495 195.089 Q55.5013 197.241 58.6495 197.241 Q61.7976 197.241 63.6263 195.089 Q65.4781 192.913 65.4781 189.186 Q65.4781 185.436 63.6263 183.283 Q61.7976 181.13 58.6495 181.13 M67.9318 166.478 L67.9318 170.737 Q66.1726 169.904 64.367 169.464 Q62.5846 169.024 60.8254 169.024 Q56.1958 169.024 53.7421 172.149 Q51.3115 175.274 50.9643 181.593 Q52.33 179.579 54.3902 178.515 Q56.4504 177.427 58.9272 177.427 Q64.1355 177.427 67.1448 180.598 Q70.1772 183.746 70.1772 189.186 Q70.1772 194.51 67.029 197.727 Q63.8809 200.945 58.6495 200.945 Q52.6541 200.945 49.4828 196.362 Q46.3116 191.755 46.3116 183.028 Q46.3116 174.834 50.2004 169.973 Q54.0893 165.089 60.6402 165.089 Q62.3994 165.089 64.1818 165.436 Q65.9874 165.783 67.9318 166.478 Z" fill="#000000" fill-rule="evenodd" fill-opacity="1" /><path clip-path="url(#clip700)" d="M47.9551 97.8389 L70.1772 97.8389 L70.1772 99.8297 L57.6309 132.399 L52.7467 132.399 L64.5522 101.774 L47.9551 101.774 L47.9551 97.8389 Z" fill="#000000" fill-rule="evenodd" fill-opacity="1" /><path clip-path="url(#clip700)" d="M58.3254 48.1121 Q54.9921 48.1121 53.0708 49.8945 Q51.1726 51.6769 51.1726 54.8019 Q51.1726 57.9269 53.0708 59.7093 Q54.9921 61.4917 58.3254 61.4917 Q61.6587 61.4917 63.58 59.7093 Q65.5013 57.9038 65.5013 54.8019 Q65.5013 51.6769 63.58 49.8945 Q61.6819 48.1121 58.3254 48.1121 M53.6495 46.1214 Q50.6402 45.3807 48.9504 43.3205 Q47.2838 41.2603 47.2838 38.2974 Q47.2838 34.1539 50.2236 31.7465 Q53.1865 29.3391 58.3254 29.3391 Q63.4874 29.3391 66.4272 31.7465 Q69.367 34.1539 69.367 38.2974 Q69.367 41.2603 67.6772 43.3205 Q66.0105 45.3807 63.0244 46.1214 Q66.404 46.9084 68.279 49.2001 Q70.1772 51.4918 70.1772 54.8019 Q70.1772 59.825 67.0985 62.5102 Q64.0429 65.1954 58.3254 65.1954 Q52.6078 65.1954 49.5291 62.5102 Q46.4736 59.825 46.4736 54.8019 Q46.4736 51.4918 48.3717 49.2001 Q50.2699 46.9084 53.6495 46.1214 M51.9365 38.7372 Q51.9365 41.4224 53.6032 42.927 Q55.293 44.4316 58.3254 44.4316 Q61.3346 44.4316 63.0244 42.927 Q64.7374 41.4224 64.7374 38.7372 Q64.7374 36.052 63.0244 34.5474 Q61.3346 33.0428 58.3254 33.0428 Q55.293 33.0428 53.6032 34.5474 Q51.9365 36.052 51.9365 38.7372 Z" fill="#000000" fill-rule="evenodd" fill-opacity="1" /><polyline clip-path="url(#clip702)" style="stroke:#009af9; stroke-linecap:round; stroke-linejoin:round; stroke-width:2; stroke-opacity:1; fill:none" points="221.212,193.148 222.235,175.98 223.258,182.181 224.281,180.174 225.304,188.65 226.327,190.018 227.35,191.085 228.373,181.114 229.396,216.075 230.419,206.182 231.442,331.333 232.465,323.12 233.488,317.497 234.511,303.912 235.533,182.793 236.556,174.645 237.579,178.178 238.602,188.829 239.625,186.077 240.648,172.661 241.671,186.251 242.694,168.514 243.717,430.756 244.74,468.251 245.763,344.719 246.786,189.775 247.809,182.309 248.832,167.306 249.854,432.901 250.877,467.973 251.9,450.714 252.923,453.299 253.946,310.676 254.969,324.493 255.992,313.814 257.015,304.981 258.038,298.399 259.061,328.716 260.084,306.654 261.107,336.067 262.13,334.827 263.153,319.571 264.176,298.819 265.198,328.011 266.221,199.528 267.244,179.158 268.267,174.271 269.29,186.541 270.313,186.014 271.336,168.632 272.359,172.011 273.382,169.716 274.405,324.906 275.428,310.914 276.451,336.352 277.474,309.284 278.497,323.47 279.519,327.537 280.542,324.13 281.565,314.416 282.588,332.741 283.611,317.83 284.634,314.936 285.657,446.4 286.68,434.316 287.703,318.735 288.726,316.942 289.749,301.466 290.772,332.665 291.795,330.737 292.818,315.604 293.841,295.727 294.863,446.321 295.886,202.469 296.909,165.81 297.932,176.153 298.955,191.804 299.978,170.666 301.001,162.945 302.024,198.719 303.047,171.248 304.07,188.129 305.093,171.415 306.116,176.776 307.139,174.826 308.162,191.004 309.185,186.824 310.207,173.535 311.23,201.39 312.253,473.109 313.276,431.196 314.299,461.881 315.322,282.332 316.345,423.468 317.368,455.47 318.391,437.303 319.414,478.461 320.437,443.804 321.46,455.857 322.483,452.125 323.506,461.135 324.528,440.065 325.551,443.09 326.574,442.031 327.597,446.193 328.62,452.994 329.643,454.472 330.666,463.632 331.689,471.625 332.712,428.613 333.735,442.042 334.758,214.307 335.781,231.256 336.804,196.729 337.827,189.551 338.85,171.646 339.872,181.618 340.895,160.87 341.918,172.558 342.941,186.147 343.964,175.507 344.987,188.408 346.01,301.536 347.033,323.427 348.056,317.673 349.079,315.269 350.102,286.288 351.125,303.396 352.148,452.351 353.171,445.522 354.193,443.568 355.216,438.292 356.239,375.204 357.262,265.696 358.285,152.115 359.308,200.126 360.331,188.516 361.354,198.136 362.377,215.958 363.4,333.876 364.423,304.362 365.446,297.907 366.469,302.185 367.492,320.303 368.515,324.857 369.537,287.254 370.56,173.273 371.583,177.027 372.606,169.799 373.629,184.731 374.652,166.266 375.675,161.73 376.698,204.896 377.721,189.271 378.744,181.611 379.767,162.663 380.79,209.406 381.813,169.636 382.836,179.249 383.858,178.408 384.881,183.088 385.904,188.735 386.927,188.599 387.95,170.969 388.973,184.411 389.996,165.538 391.019,184.989 392.042,180.07 393.065,447.1 394.088,443.96 395.111,455.141 396.134,439.802 397.157,437.362 398.18,290.338 399.202,301.187 400.225,336.362 401.248,321.645 402.271,309.473 403.294,293.023 404.317,191.688 405.34,200.651 406.363,188.683 407.386,324.858 408.409,333.968 409.432,320.67 410.455,317.105 411.478,309.351 412.501,291.877 413.523,314.95 414.546,319.075 415.569,313.422 416.592,329.976 417.615,219.725 418.638,172.668 419.661,188.706 420.684,174.411 421.707,190.372 422.73,159.518 423.753,155.605 424.776,197.081 425.799,333.874 426.822,207.399 427.845,195.386 428.867,169.122 429.89,164.589 430.913,185.065 431.936,214.104 432.959,154.276 433.982,142.497 435.005,193.227 436.028,191.898 437.051,191.391 438.074,189.631 439.097,201.425 440.12,159.773 441.143,185.1 442.166,196.065 443.188,185.455 444.211,191.227 445.234,177.36 446.257,176.967 447.28,166.371 448.303,166.34 449.326,192.058 450.349,159.78 451.372,159.714 452.395,211.638 453.418,154.448 454.441,191.941 455.464,167.831 456.487,170.992 457.51,200.961 458.532,189.369 459.555,180.667 460.578,194.712 461.601,189.609 462.624,159.484 463.647,191.244 464.67,183.508 465.693,166.684 466.716,193.603 467.739,202.135 468.762,175.563 469.785,201.772 470.808,168.473 471.831,153.605 472.853,194.479 473.876,180.044 474.899,186.326 475.922,183.498 476.945,184.208 477.968,185.106 478.991,173.117 480.014,186.914 481.037,185.941 482.06,176.796 483.083,201.304 484.106,177.316 485.129,183.719 486.152,423.926 487.175,486.661 488.197,468.607 489.22,458.189 490.243,466.315 491.266,458.441 492.289,449.575 493.312,320.772 494.335,332.81 495.358,321.27 496.381,333.937 497.404,329.882 498.427,326.016 499.45,175.794 500.473,167.267 501.496,196.724 502.518,216.923 503.541,345.185 504.564,289.714 505.587,310.22 506.61,176.422 507.633,183.584 508.656,181.308 509.679,196.475 510.702,189.426 511.725,165.695 512.748,176.34 513.771,191.143 514.794,170.136 515.817,179.761 516.84,183.491 517.862,175.379 518.885,184.965 519.908,148.598 520.931,216.759 521.954,193.526 522.977,186.854 524,426.386 525.023,434.866 526.046,461.385 527.069,290.162 528.092,302.85 529.115,321.992 530.138,306.762 531.161,326.107 532.183,321.155 533.206,300.189 534.229,418.535 535.252,191.695 536.275,168.359 537.298,163.888 538.321,182.006 539.344,190.735 540.367,185.967 541.39,165.793 542.413,187.423 543.436,426.036 544.459,475.77 545.482,455.977 546.505,455.59 547.527,439.544 548.55,429.502 549.573,467.295 550.596,449.14 551.619,286.621 552.642,345.452 553.665,423.693 554.688,142.188 555.711,339.682 556.734,210.428 557.757,169.901 558.78,191.841 559.803,309.793 560.826,327.036 561.848,326.5 562.871,303.447 563.894,327.21 564.917,315.182 565.94,281.833 566.963,300.886 567.986,297.225 569.009,191.314 570.032,189.434 571.055,195.085 572.078,163.701 573.101,154.073 574.124,482.511 575.147,193.783 576.17,169.316 577.192,202.73 578.215,161.325 579.238,173.41 580.261,164.817 581.284,191.837 582.307,194.646 583.33,168.274 584.353,172.181 585.376,194.991 586.399,161.654 587.422,204.508 588.445,161.698 589.468,198.773 590.491,187.324 591.513,191.936 592.536,182.774 593.559,209.419 594.582,150.856 595.605,181.936 596.628,180.965 597.651,157.026 598.674,182.333 599.697,184.107 600.72,184.994 601.743,138.282 602.766,373.393 603.789,202.796 604.812,194.677 605.835,156.238 606.857,212.939 607.88,157.182 608.903,470.189 609.926,457.765 610.949,455.995 611.972,469.905 612.995,461.667 614.018,469.434 615.041,437.346 616.064,451.019 617.087,442.352 618.11,442.697 619.133,193.815 620.156,183.63 621.178,173.646 622.201,195.147 623.224,164.828 624.247,161.355 625.27,292.373 626.293,428.733 627.316,179.32 628.339,186.378 629.362,180.697 630.385,187.688 631.408,164.933 632.431,211.278 633.454,165.232 634.477,198.856 635.5,350.737 636.522,439.994 637.545,465.205 638.568,475.647 639.591,454.269 640.614,449.481 641.637,444.251 642.66,461.51 643.683,454.155 644.706,289.589 645.729,347.415 646.752,216.042 647.775,177.483 648.798,200.571 649.821,176.903 650.843,179.226 651.866,164.274 652.889,432.941 653.912,435.681 654.935,452.396 655.958,460.157 656.981,446.446 658.004,460.996 659.027,462.24 660.05,427.324 661.073,336.66 662.096,313.211 663.119,318.055 664.142,352.257 665.165,325.786 666.187,310.176 667.21,199.248 668.233,192.103 669.256,184.218 670.279,161.797 671.302,337.573 672.325,322.45 673.348,475.612 674.371,450.102 675.394,468.99 676.417,456.481 677.44,454.591 678.463,444.238 679.486,461.541 680.509,350.019 681.531,433.323 682.554,457.454 683.577,475.813 684.6,284.872 685.623,461.698 686.646,453.101 687.669,453.185 688.692,276.137 689.715,175.683 690.738,201.542 691.761,176.94 692.784,179.808 693.807,178.23 694.83,204.879 695.852,178.179 696.875,177.453 697.898,182.257 698.921,153.274 699.944,202.896 700.967,169.762 701.99,165.569 703.013,181.321 704.036,203.128 705.059,172.883 706.082,211.602 707.105,163.056 708.128,178.019 709.151,184.887 710.174,179.602 711.196,178.279 712.219,164.232 713.242,191.618 714.265,220.961 715.288,197.446 716.311,170.015 717.334,194.469 718.357,165.846 719.38,183.631 720.403,455.566 721.426,456.113 722.449,455.816 723.472,467.568 724.495,453.182 725.517,464.163 726.54,448.658 727.563,447.053 728.586,455.89 729.609,450.775 730.632,451.37 731.655,455.567 732.678,456.132 733.701,338.233 734.724,319.43 735.747,311.013 736.77,314.59 737.793,316.088 738.816,184.043 739.839,163.206 740.861,192.589 741.884,191.559 742.907,180.108 743.93,153.537 744.953,436.838 745.976,441.705 746.999,454.944 748.022,453.91 749.045,434.129 750.068,354.169 751.091,186.92 752.114,198.822 753.137,180.501 754.16,182.138 755.182,176.251 756.205,180.601 757.228,177.247 758.251,180.104 759.274,174.83 760.297,191.318 761.32,168.407 762.343,188.422 763.366,197.308 764.389,319.119 765.412,175.18 766.435,152.008 767.458,166.791 768.481,208.987 769.504,186.678 770.526,177.862 771.549,182.046 772.572,290.335 773.595,340.129 774.618,496.61 775.641,325.7 776.664,177.153 777.687,182.655 778.71,181.582 779.733,211.595 780.756,191.971 781.779,202.478 782.802,183.761 783.825,208.094 784.847,171.644 785.87,190.808 786.893,182.92 787.916,212.689 788.939,157.685 789.962,199.169 790.985,189.088 792.008,173.806 793.031,186.651 794.054,168.793 795.077,163.414 796.1,196.273 797.123,167.888 798.146,200.642 799.169,201.289 800.191,160.052 801.214,179.827 802.237,172.774 803.26,197.902 804.283,165.118 805.306,201.206 806.329,171.231 807.352,197.599 808.375,179.215 809.398,200.39 810.421,165.085 811.444,197.679 812.467,165.829 813.49,189.96 814.512,190.689 815.535,175.343 816.558,180.175 817.581,191.912 818.604,211.185 819.627,166.87 820.65,198.119 821.673,194.271 822.696,167.99 823.719,202.532 824.742,202.083 825.765,188.487 826.788,166.073 827.811,187.073 828.834,165.344 829.856,171.339 830.879,471.186 831.902,462.294 832.925,460.107 833.948,456.864 834.971,423.399 835.994,440.566 837.017,341.512 838.04,329.996 839.063,320.027 840.086,317.757 841.109,294.761 842.132,464.508 843.155,453.595 844.177,443.457 845.2,458.048 846.223,477.865 847.246,453.018 848.269,428.928 849.292,286.859 850.315,172.924 851.338,181.752 852.361,184.053 853.384,169.962 854.407,169.889 855.43,205.774 856.453,166.983 857.476,178.762 858.499,194.52 859.521,176.989 860.544,206.685 861.567,157.248 862.59,189.629 863.613,318.865 864.636,304.579 865.659,318.677 866.682,213.237 867.705,158.583 868.728,206.284 869.751,188.061 870.774,192.332 871.797,165.875 872.82,196.281 873.842,156.598 874.865,299.066 875.888,181.448 876.911,187.254 877.934,196.437 878.957,180.547 879.98,165.46 881.003,165.864 882.026,167.969 883.049,187.385 884.072,201.583 885.095,298.984 886.118,308.393 887.141,314.059 888.164,307.262 889.186,312.718 890.209,327.927 891.232,341.448 892.255,331.453 893.278,190.849 894.301,201.454 895.324,169.768 896.347,200.001 897.37,168.054 898.393,206.697 899.416,163.514 900.439,200.403 901.462,165.038 902.485,198.1 903.507,183.642 904.53,184.496 905.553,173.171 906.576,326.809 907.599,303.581 908.622,302.584 909.645,315.559 910.668,322.983 911.691,316.836 912.714,306.398 913.737,319.574 914.76,313.581 915.783,316.668 916.806,321.216 917.829,358.517 918.851,217.613 919.874,291.243 920.897,297.906 921.92,326.518 922.943,308.796 923.966,323.619 924.989,309.21 926.012,328.23 927.035,308.013 928.058,304.308 929.081,323.085 930.104,323.847 931.127,313.658 932.15,328.876 933.172,461.259 934.195,447.901 935.218,438.814 936.241,173.959 937.264,169.309 938.287,188.526 939.31,167.886 940.333,173.917 941.356,179.171 942.379,173.477 943.402,199.7 944.425,169.207 945.448,321.582 946.471,319.404 947.494,305.271 948.516,463.684 949.539,481.293 950.562,473.763 951.585,148.911 952.608,213.421 953.631,297.23 954.654,321.623 955.677,320.121 956.7,154.272 957.723,170.676 958.746,169.416 959.769,324.236 960.792,316.9 961.815,311.068 962.837,319.37 963.86,303.615 964.883,327.093 965.906,310.127 966.929,303.383 967.952,309.209 968.975,325.859 969.998,315.416 971.021,323.938 972.044,308.658 973.067,336.717 974.09,303.776 975.113,315.178 976.136,326.129 977.159,324.483 978.181,332.948 979.204,320.398 980.227,305.398 981.25,321.249 982.273,307.295 983.296,328.007 984.319,316.844 985.342,337.51 986.365,140.534 987.388,360.591 988.411,189.385 989.434,182.83 990.457,181.567 991.48,198.885 992.502,166.576 993.525,288.305 994.548,172.849 995.571,193.348 996.594,167.538 997.617,182.255 998.64,180.771 999.663,174.462 1000.69,185.409 1001.71,210.249 1002.73,164.394 1003.75,193.911 1004.78,162.253 1005.8,208.893 1006.82,332.571 1007.85,317.737 1008.87,334.767 1009.89,304.436 1010.92,310.287 1011.94,308.535 1012.96,315.028 1013.98,316.232 1015.01,329.739 1016.03,301.55 1017.05,311.628 1018.08,315.063 1019.1,303.859 1020.12,291.711 1021.14,403.35 1022.17,348.698 1023.19,142.435 1024.21,180.066 1025.24,178.484 1026.26,185.388 1027.28,181.827 1028.31,170.009 1029.33,170.962 1030.35,200.053 1031.37,185.823 1032.4,464.9 1033.42,458.175 1034.44,350.328 1035.47,163.637 1036.49,295.246 1037.51,467.99 1038.53,459.929 1039.56,151.965 1040.58,190.864 1041.6,182.34 1042.63,204.729 1043.65,445.246 1044.67,444.554 1045.69,438.3 1046.72,443.253 1047.74,451.979 1048.76,439.079 1049.79,454.795 1050.81,435.623 1051.83,196.983 1052.86,153.922 1053.88,188.135 1054.9,179.601 1055.92,197.072 1056.95,209.244 1057.97,170.228 1058.99,205.676 1060.02,204.401 1061.04,301.963 1062.06,445.152 1063.08,447.221 1064.11,454.467 1065.13,448.878 1066.15,456.698 1067.18,454.503 1068.2,461.572 1069.22,449.257 1070.25,441.571 1071.27,465.441 1072.29,466.939 1073.31,451.35 1074.34,436.546 1075.36,209.316 1076.38,184.872 1077.41,191.393 1078.43,432.63 1079.45,175.118 1080.47,166.354 1081.5,178.206 1082.52,197.23 1083.54,176.181 1084.57,191.924 1085.59,173.525 1086.61,184.285 1087.64,162.18 1088.66,177.159 1089.68,187.556 1090.7,416.98 1091.73,198.542 1092.75,148.726 1093.77,215.35 1094.8,157.158 1095.82,334.372 1096.84,309.01 1097.86,303.82 1098.89,342.736 1099.91,310.705 1100.93,428.809 1101.96,178.551 1102.98,191.598 1104,187.118 1105.02,179.86 1106.05,158.316 1107.07,155.916 1108.09,356.389 1109.12,181.298 1110.14,180.828 1111.16,189.08 1112.19,183.624 1113.21,196.455 1114.23,344.43 1115.25,329.225 1116.28,446.486 1117.3,456.876 1118.32,444.818 1119.35,460.196 1120.37,459.773 1121.39,473.59 1122.41,453.87 1123.44,462.626 1124.46,460.299 1125.48,191.164 1126.51,162.277 1127.53,190.728 1128.55,190.991 1129.58,175.824 1130.6,200.259 1131.62,216.402 1132.64,313.31 1133.67,325.484 1134.69,345.645 1135.71,339.909 1136.74,329.888 1137.76,327.371 1138.78,309.131 1139.8,340.57 1140.83,322.823 1141.85,308.088 1142.87,332.162 1143.9,328.382 1144.92,318.015 1145.94,324.597 1146.97,312.913 1147.99,304.714 1149.01,341.686 1150.03,341.78 1151.06,332.738 1152.08,309.867 1153.1,304.417 1154.13,304.075 1155.15,308.379 1156.17,323.527 1157.19,317.833 1158.22,304.446 1159.24,323.092 1160.26,326.251 1161.29,311.191 1162.31,320.001 1163.33,472.057 1164.35,469.551 1165.38,444.937 1166.4,457.567 1167.42,462.359 1168.45,461.194 1169.47,468.485 1170.49,147.724 1171.52,199.85 1172.54,170.052 1173.56,187.572 1174.58,178.105 1175.61,214.953 1176.63,209.068 1177.65,166.648 1178.68,194.15 1179.7,166.297 1180.72,177.971 1181.74,319.777 1182.77,323.701 1183.79,333.669 1184.81,304.293 1185.84,338.837 1186.86,476.034 1187.88,186.197 1188.91,145.795 1189.93,205.802 1190.95,163.682 1191.97,288.769 1193,343.652 1194.02,347.835 1195.04,319.551 1196.07,323.94 1197.09,308.56 1198.11,317.59 1199.13,328.567 1200.16,326.957 1201.18,299.083 1202.2,477.793 1203.23,432.56 1204.25,480.347 1205.27,430.736 1206.3,478.825 1207.32,436.916 1208.34,439.332 1209.36,468.885 1210.39,450.159 1211.41,309.109 1212.43,220.101 1213.46,478.966 1214.48,209.014 1215.5,408.121 1216.52,334.751 1217.55,319.438 1218.57,297.817 1219.59,426.741 1220.62,421.203 1221.64,447.094 1222.66,335.135 1223.68,297.453 1224.71,328.948 1225.73,293.427 1226.75,411.937 1227.78,162.331 1228.8,191.204 1229.82,166.173 1230.85,178.514 1231.87,173.903 1232.89,182.137 1233.91,159.388 1234.94,194.89 1235.96,195.718 1236.98,199.447 1238.01,190.876 1239.03,199.877 1240.05,197.353 1241.07,155.916 1242.1,347.873 1243.12,223.648 1244.14,224.26 1245.17,173.419 1246.19,180.65 1247.21,176.967 1248.24,169.033 1249.26,181.623 1250.28,193.899 1251.3,178.221 1252.33,161.829 1253.35,207.452 1254.37,155.967 1255.4,165.777 1256.42,181.201 1257.44,210.498 1258.46,178.914 1259.49,170.908 1260.51,170.138 1261.53,186.871 1262.56,183.688 1263.58,198.557 1264.6,179.572 1265.63,167.453 1266.65,169.228 1267.67,197.807 1268.69,194.872 1269.72,180.609 1270.74,189.88 1271.76,165.414 1272.79,190.752 1273.81,202.654 1274.83,182.257 1275.85,203.658 1276.88,291.108 1277.9,166.506 1278.92,163.98 1279.95,205.711 1280.97,153.625 1281.99,212.975 1283.01,177.264 1284.04,179.167 1285.06,183.99 1286.08,167.288 1287.11,199.296 1288.13,186.436 1289.15,181.992 1290.18,220.682 1291.2,465.337 1292.22,470.664 1293.24,461.292 1294.27,438.819 1295.29,450.789 1296.31,323.879 1297.34,328.048 1298.36,311.053 1299.38,302.354 1300.4,326.64 1301.43,296.927 1302.45,317.49 1303.47,311.886 1304.5,311.654 1305.52,319.419 1306.54,327.953 1307.57,443.594 1308.59,450.101 1309.61,448.158 1310.63,456.774 1311.66,451.185 1312.68,455.083 1313.7,457.931 1314.73,436.282 1315.75,431.111 1316.77,434.504 1317.79,433.002 1318.82,211.57 1319.84,167.03 1320.86,176.682 1321.89,201.93 1322.91,181.863 1323.93,182.951 1324.96,188.202 1325.98,190.202 1327,184.61 1328.02,201.828 1329.05,191.051 1330.07,183.279 1331.09,179.577 1332.12,192.202 1333.14,176.336 1334.16,195.423 1335.18,166.995 1336.21,196.587 1337.23,162.428 1338.25,167.225 1339.28,274.203 1340.3,152.79 1341.32,456.552 1342.34,440.811 1343.37,213.219 1344.39,163.644 1345.41,173.96 1346.44,312 1347.46,323.676 1348.48,334.228 1349.51,454.807 1350.53,446.171 1351.55,467.107 1352.57,465.734 1353.6,458.384 1354.62,452.371 1355.64,463.119 1356.67,449.539 1357.69,339.967 1358.71,306.583 1359.73,345.005 1360.76,333.2 1361.78,296.641 1362.8,327.079 1363.83,186.402 1364.85,162.309 1365.87,182.094 1366.9,186.389 1367.92,174.325 1368.94,181.319 1369.96,187.414 1370.99,182.317 1372.01,183.824 1373.03,146.817 1374.06,483.643 1375.08,159.729 1376.1,203.053 1377.12,185.22 1378.15,176.458 1379.17,167.166 1380.19,220.463 1381.22,164.599 1382.24,161.436 1383.26,217.935 1384.29,153.283 1385.31,183.506 1386.33,173.616 1387.35,182.232 1388.38,197.028 1389.4,181.93 1390.42,183.646 1391.45,354.286 1392.47,189.879 1393.49,187.124 1394.51,213.18 1395.54,163.09 1396.56,163.982 1397.58,168.428 1398.61,206.263 1399.63,298.529 1400.65,328.518 1401.67,316.378 1402.7,315.368 1403.72,301.224 1404.74,293.619 1405.77,309.026 1406.79,338.335 1407.81,184.984 1408.84,164.949 1409.86,170.021 1410.88,171.614 1411.9,191.255 1412.93,191.698 1413.95,180.971 1414.97,186.106 1416,287.004 1417.02,453.01 1418.04,341.544 1419.06,288.294 1420.09,184.27 1421.11,187.937 1422.13,158.985 1423.16,162.793 1424.18,171.695 1425.2,177.653 1426.23,181.657 1427.25,186.903 1428.27,197.22 1429.29,185.594 1430.32,180.227 1431.34,187.557 1432.36,197.027 1433.39,195.848 1434.41,188.696 1435.43,469.768 1436.45,458.158 1437.48,460.205 1438.5,476.799 1439.52,444.463 1440.55,454.303 1441.57,447.149 1442.59,469.274 1443.62,435.446 1444.64,187.868 1445.66,169.144 1446.68,179.977 1447.71,181.977 1448.73,179.014 1449.75,161.081 1450.78,320.028 1451.8,327.253 1452.82,319.651 1453.84,332.947 1454.87,330.417 1455.89,305.203 1456.91,404.982 1457.94,307.796 1458.96,322.988 1459.98,167.551 1461,187.129 1462.03,165.271 1463.05,192.939 1464.07,172.498 1465.1,189.927 1466.12,165.294 1467.14,173.851 1468.17,183.669 1469.19,171.145 1470.21,199.336 1471.23,203.264 1472.26,179.227 1473.28,174.365 1474.3,200.903 1475.33,198.086 1476.35,195.937 1477.37,208.28 1478.39,168.498 1479.42,189.254 1480.44,320.192 1481.46,489.665 1482.49,197.769 1483.51,204.941 1484.53,160.673 1485.56,200.892 1486.58,177.471 1487.6,188.681 1488.62,183.297 1489.65,189.543 1490.67,169.502 1491.69,196.73 1492.72,178.217 1493.74,321.734 1494.76,334.099 1495.78,194.228 1496.81,172.168 1497.83,185.258 1498.85,180.561 1499.88,180.62 1500.9,183.116 1501.92,183.352 1502.95,185.644 1503.97,166.582 1504.99,157.761 1506.01,148.389 1507.04,147.027 1508.06,197.6 1509.08,185.868 1510.11,184.692 1511.13,186.208 1512.15,182.472 1513.17,171.336 1514.2,174.504 1515.22,184.707 1516.24,191.33 1517.27,470.168 1518.29,470.041 1519.31,189.868 1520.33,190.385 1521.36,180.586 1522.38,181.167 1523.4,165.727 1524.43,150.463 1525.45,207.802 1526.47,173.919 1527.5,185.796 1528.52,167.247 1529.54,317.241 1530.56,479.868 1531.59,294.529 1532.61,329.394 1533.63,200.304 1534.66,185.592 1535.68,177.521 1536.7,167.976 1537.72,176.464 1538.75,188.089 1539.77,190.293 1540.79,189.179 1541.82,299.013 1542.84,413.225 1543.86,458.343 1544.89,468.511 1545.91,458.108 1546.93,460.19 1547.95,444.531 1548.98,431.42 1550,438.229 1551.02,468.604 1552.05,442.829 1553.07,460.686 1554.09,199.311 1555.11,155.271 1556.14,181.852 1557.16,193.41 1558.18,154.158 1559.21,293.66 1560.23,351.834 1561.25,165.003 1562.28,482.338 1563.3,431.606 1564.32,460.851 1565.34,305.927 1566.37,299.723 1567.39,325.91 1568.41,299.519 1569.44,334.419 1570.46,293.561 1571.48,343.447 1572.5,186.398 1573.53,193.432 1574.55,195.826 1575.57,310.422 1576.6,312.836 1577.62,334.875 1578.64,318.185 1579.66,157.094 1580.69,130.498 1581.71,165.223 1582.73,186.486 1583.76,185.138 1584.78,174.723 1585.8,185.341 1586.83,189.15 1587.85,170.681 1588.87,182.236 1589.89,182.444 1590.92,200.118 1591.94,164.244 1592.96,169.38 1593.99,170.393 1595.01,191.041 1596.03,176.281 1597.05,179.993 1598.08,182.693 1599.1,189.832 1600.12,183.091 1601.15,183.789 1602.17,181.12 1603.19,287.94 1604.22,173.508 1605.24,310.935 1606.26,307.782 1607.28,326.129 1608.31,300.022 1609.33,320.219 1610.35,304.526 1611.38,328.219 1612.4,349.169 1613.42,199.634 1614.44,205.432 1615.47,161.654 1616.49,165.699 1617.51,173.883 1618.54,175.019 1619.56,194.379 1620.58,184.163 1621.61,187.824 1622.63,180.448 1623.65,180.857 1624.67,188.869 1625.7,208.003 1626.72,161.754 1627.74,179.552 1628.77,332.407 1629.79,305.262 1630.81,341.959 1631.83,290.921 1632.86,173.61 1633.88,162.73 1634.9,355.694 1635.93,214.694 1636.95,225.636 1637.97,159.45 1638.99,173.043 1640.02,177.253 1641.04,176.337 1642.06,194.042 1643.09,200.968 1644.11,429.243 1645.13,424.279 1646.16,319.529 1647.18,318.829 1648.2,162.953 1649.22,182.618 1650.25,201.913 1651.27,190.69 1652.29,180.691 1653.32,180.014 1654.34,187.462 1655.36,197.669 1656.38,186.212 1657.41,186.049 1658.43,176.735 1659.45,188.404 1660.48,196.269 1661.5,180.598 1662.52,173.247 1663.55,314.035 1664.57,344.72 1665.59,309.097 1666.61,308.785 1667.64,314.111 1668.66,327.827 1669.68,315.234 1670.71,321.613 1671.73,336.57 1672.75,170.694 1673.77,184.096 1674.8,160.202 1675.82,178.261 1676.84,169.564 1677.87,167.856 1678.89,171.113 1679.91,174.455 1680.94,197.795 1681.96,177.529 1682.98,205.5 1684,159.584 1685.03,297.28 1686.05,339.389 1687.07,312.217 1688.1,316.326 1689.12,299.991 1690.14,213.408 1691.16,273.654 1692.19,370.85 1693.21,219.273 1694.23,220.179 1695.26,183.27 1696.28,185.67 1697.3,190.091 1698.32,194.197 1699.35,428.433 1700.37,188.389 1701.39,191.966 1702.42,166.784 1703.44,198.046 1704.46,172.574 1705.49,173.811 1706.51,198.79 1707.53,187.048 1708.55,171.905 1709.58,159.765 1710.6,197.941 1711.62,174.859 1712.65,189.948 1713.67,164.291 1714.69,188.857 1715.71,170.231 1716.74,175.559 1717.76,191.186 1718.78,184.064 1719.81,180.37 1720.83,178.324 1721.85,187.909 1722.88,196.814 1723.9,166.893 1724.92,183.282 1725.94,196.455 1726.97,187.002 1727.99,183.614 1729.01,169.884 1730.04,176.946 1731.06,171.044 1732.08,187.953 1733.1,310.251 1734.13,136.636 1735.15,481.657 1736.17,294.178 1737.2,300.241 1738.22,325.008 1739.24,197.947 1740.27,180.344 1741.29,181.501 1742.31,190.569 1743.33,181.88 1744.36,206.219 1745.38,195.811 1746.4,181.84 1747.43,169.532 1748.45,200.802 1749.47,213.601 1750.49,334.588 1751.52,322.74 1752.54,198.765 1753.56,166.571 1754.59,196.604 1755.61,196.511 1756.63,182.331 1757.65,191.417 1758.68,164.766 1759.7,197.948 1760.72,179.716 1761.75,180.557 1762.77,173.903 1763.79,190.1 1764.82,173.383 1765.84,300.623 1766.86,293.694 1767.88,173.263 1768.91,175.719 1769.93,197.457 1770.95,175.56 1771.98,198.095 1773,307.133 1774.02,325.512 1775.04,300.877 1776.07,311.686 1777.09,339.648 1778.11,306.976 1779.14,209.671 1780.16,163.286 1781.18,168.702 1782.21,186.517 1783.23,191.717 1784.25,179.52 1785.27,189.874 1786.3,168.013 1787.32,168.97 1788.34,328.109 1789.37,313.629 1790.39,309.307 1791.41,329.383 1792.43,446.674 1793.46,184.693 1794.48,281.965 1795.5,309.692 1796.53,320.508 1797.55,320.586 1798.57,301.584 1799.6,334.559 1800.62,307.951 1801.64,433.075 1802.66,470.06 1803.69,317.279 1804.71,322.421 1805.73,300.187 1806.76,324.443 1807.78,311.571 1808.8,311.322 1809.82,336.902 1810.85,301.996 1811.87,327.357 1812.89,458.539 1813.92,454.827 1814.94,445.318 1815.96,466.761 1816.98,468.066 1818.01,426.593 1819.03,209.908 1820.05,189.02 1821.08,172.045 1822.1,175.566 1823.12,166.258 1824.15,170.001 1825.17,197.958 1826.19,354.925 1827.21,450.361 1828.24,464.934 1829.26,341.926 1830.28,331.666 1831.31,342.741 1832.33,278.851 1833.35,145.262 1834.37,463.699 1835.4,471.455 1836.42,212.131 1837.44,445.291 1838.47,451.722 1839.49,328.312 1840.51,306.062 1841.54,336.679 1842.56,322.242 1843.58,337.581 1844.6,321.556 1845.63,299.64 1846.65,162.186 1847.67,179.203 1848.7,184.147 1849.72,175.733 1850.74,176.153 1851.76,187.786 1852.79,168.428 1853.81,155.435 1854.83,173.793 1855.86,198.481 1856.88,183.365 1857.9,173.001 1858.93,166.84 1859.95,185.011 1860.97,187.358 1861.99,446.313 1863.02,469.149 1864.04,437.98 1865.06,449.023 1866.09,467.158 1867.11,438.565 1868.13,348.331 1869.15,217.595 1870.18,449.184 1871.2,449.506 1872.22,304.906 1873.25,317.236 1874.27,319.515 1875.29,302.102 1876.31,308.651 1877.34,337.734 1878.36,415.112 1879.38,333.557 1880.41,323.868 1881.43,303.893 1882.45,327.778 1883.48,136.131 1884.5,342.176 1885.52,288.58 1886.54,296.378 1887.57,300.732 1888.59,198.476 1889.61,176.208 1890.64,176.509 1891.66,193.92 1892.68,186.512 1893.7,185.362 1894.73,431.13 1895.75,477.529 1896.77,475.125 1897.8,174.889 1898.82,168.263 1899.84,161.762 1900.87,198.264 1901.89,192.112 1902.91,198.746 1903.93,181.41 1904.96,158.894 1905.98,172.904 1907,198.751 1908.03,307.658 1909.05,327.025 1910.07,329.654 1911.09,309.555 1912.12,306.625 1913.14,325.377 1914.16,315.79 1915.19,325.748 1916.21,307.428 1917.23,148.863 1918.26,185.987 1919.28,171.17 1920.3,184.961 1921.32,432.651 1922.35,463.08 1923.37,450.205 1924.39,457.37 1925.42,440.446 1926.44,459.124 1927.46,139.957 1928.48,448.004 1929.51,335.721 1930.53,306.634 1931.55,297.194 1932.58,312.292 1933.6,338.448 1934.62,343.476 1935.64,438.254 1936.67,443.602 1937.69,159.634 1938.71,172.042 1939.74,175.896 1940.76,186.593 1941.78,201.327 1942.81,174.176 1943.83,175.72 1944.85,181.887 1945.87,176.964 1946.9,183.702 1947.92,171.098 1948.94,192.448 1949.97,217.976 1950.99,177.418 1952.01,320.459 1953.03,327.552 1954.06,321.76 1955.08,303.4 1956.1,347.854 1957.13,189.677 1958.15,177.678 1959.17,192.535 1960.2,170.746 1961.22,212.768 1962.24,207.555 1963.26,196.682 1964.29,168.344 1965.31,183.13 1966.33,170.316 1967.36,201.213 1968.38,186.373 1969.4,195.368 1970.42,202.397 1971.45,152.678 1972.47,471.336 1973.49,154.182 1974.52,180.292 1975.54,197.776 1976.56,179.077 1977.59,316.434 1978.61,224.532 1979.63,422.042 1980.65,194.535 1981.68,188.307 1982.7,176.312 1983.72,183.649 1984.75,185.325 1985.77,199.017 1986.79,196.647 1987.81,183.481 1988.84,187.023 1989.86,192.15 1990.88,207.433 1991.91,369.511 1992.93,178.946 1993.95,170.369 1994.98,164.99 1996,195.219 1997.02,194.716 1998.04,202.068 1999.07,201.256 2000.09,152.78 2001.11,220.956 2002.14,149.818 2003.16,446.143 2004.18,436.206 2005.2,463.881 2006.23,191.054 2007.25,193.998 2008.27,311.367 2009.3,324.512 2010.32,309.704 2011.34,303.726 2012.36,306.174 2013.39,321.247 2014.41,320.796 2015.43,314.345 2016.46,312.439 2017.48,330.263 2018.5,304.417 2019.53,169.258 2020.55,191.484 2021.57,180.319 2022.59,173.779 2023.62,181.192 2024.64,178.493 2025.66,334.125 2026.69,442.449 2027.71,151.265 2028.73,303.86 2029.75,346.57 2030.78,228.309 2031.8,299.248 2032.82,311.265 2033.85,327.847 2034.87,306.936 2035.89,328.198 2036.92,314.282 2037.94,321.581 2038.96,306.56 2039.98,323.724 2041.01,313.524 2042.03,343.126 2043.05,190.602 2044.08,458.901 2045.1,460.367 2046.12,465.698 2047.14,443.748 2048.17,478.645 2049.19,474.439 2050.21,450.656 2051.24,441.547 2052.26,453.648 2053.28,441.323 2054.31,460.91 2055.33,470.356 2056.35,460.595 2057.37,156.277 2058.4,207.86 2059.42,319.008 2060.44,306.232 2061.47,320.126 2062.49,300.694 2063.51,171.751 2064.53,168.271 2065.56,209.363 2066.58,167.836 2067.6,192.012 2068.63,201.972 2069.65,181.405 2070.67,190.229 2071.69,177.339 2072.72,190.915 2073.74,175.406 2074.76,180.638 2075.79,178.738 2076.81,196.86 2077.83,175.756 2078.86,174.963 2079.88,171.87 2080.9,182.343 2081.92,187.9 2082.95,161.668 2083.97,203.401 2084.99,188.925 2086.02,182.015 2087.04,207.087 2088.06,176.612 2089.08,177.955 2090.11,187.308 2091.13,182.801 2092.15,172.104 2093.18,155.85 2094.2,192.44 2095.22,182.455 2096.25,186.358 2097.27,196.871 2098.29,328.359 2099.31,322.407 2100.34,310.256 2101.36,311.232 2102.38,312.762 2103.41,313.774 2104.43,313.767 2105.45,344.435 2106.47,145.333 2107.5,172.171 2108.52,195.126 2109.54,174.621 2110.57,194.278 2111.59,191.403 2112.61,207.636 2113.64,288.002 2114.66,196.59 2115.68,157.701 2116.7,158.663 2117.73,202.393 2118.75,164.113 2119.77,166.535 2120.8,205.924 2121.82,211.572 2122.84,325.997 2123.86,336.844 2124.89,316.6 2125.91,312.261 2126.93,310.124 2127.96,329.029 2128.98,323.262 2130,317.037 2131.02,302.869 2132.05,306.361 2133.07,322.593 2134.09,328.907 2135.12,325.796 2136.14,309.976 2137.16,323.16 2138.19,327.757 2139.21,132.829 2140.23,277.192 2141.25,341.913 2142.28,292.245 2143.3,223.655 2144.32,417.181 2145.35,224.582 2146.37,432.227 2147.39,449.87 2148.41,443.188 2149.44,464.636 2150.46,454.695 2151.48,459.301 2152.51,450.061 2153.53,186.465 2154.55,171.818 2155.58,190.443 2156.6,176.411 2157.62,204.083 2158.64,312.81 2159.67,332.187 2160.69,299.623 2161.71,174.533 2162.74,173.417 2163.76,137.717 2164.78,298.789 2165.8,318.699 2166.83,315.373 2167.85,327.303 2168.87,315.162 2169.9,313.988 2170.92,319.203 2171.94,328.067 2172.97,307.137 2173.99,312.812 2175.01,315.322 2176.03,350.327 2177.06,299.424 2178.08,317.445 2179.1,296.469 2180.13,338.591 2181.15,317.821 2182.17,225.425 2183.19,139.934 2184.22,205.088 2185.24,162.026 2186.26,206.089 2187.29,317.152 2188.31,318.159 2189.33,312.93 2190.35,302.195 2191.38,293.453 2192.4,301.15 2193.42,178.909 2194.45,168.006 2195.47,178.685 2196.49,170.373 2197.52,193.202 2198.54,190.959 2199.56,178.792 2200.58,167.872 2201.61,195.116 2202.63,190.359 2203.65,178.465 2204.68,170.896 2205.7,179.924 2206.72,162.053 2207.74,202.318 2208.77,149.778 2209.79,328.229 2210.81,282.041 2211.84,161.03 2212.86,192.118 2213.88,163.928 2214.91,323.252 2215.93,315.016 2216.95,326.379 2217.97,313.753 2219,323.506 2220.02,326.709 2221.04,297.958 2222.07,281.681 2223.09,474.352 2224.11,472.119 2225.13,464.521 2226.16,431.767 2227.18,470.292 2228.2,427.471 2229.23,441.218 2230.25,455.616 2231.27,465.286 2232.3,445.369 2233.32,450.251 2234.34,471.05 2235.36,450.84 2236.39,456.61 2237.41,444.945 2238.43,452.852 2239.46,454.198 2240.48,469.15 2241.5,165.147 2242.52,155.779 2243.55,184.488 2244.57,182.361 2245.59,183.196 2246.62,180.686 2247.64,160.55 2248.66,293.34 2249.68,451.626 2250.71,469.776 2251.73,319.888 2252.75,316.366 2253.78,315.812 2254.8,331.906 2255.82,315.394 2256.85,308.265 2257.87,329.196 2258.89,296.517 2259.91,329.077 2260.94,326.104 2261.96,306.877 2262.98,445.857 2264.01,443.006 2265.03,437.966 2266.05,433.684 2267.07,165.449 2268.1,189.037 2269.12,184.574 2270.14,170.533 2271.17,165.348 2272.19,485.963 2273.21,429.715 2274.24,304.458 2275.26,314.389 2276.28,334.874 2277.3,313.15 2278.33,320.844 2279.35,348.023 2280.37,156.807 2281.4,191.608 2282.42,294.998 2283.44,291.496 2284.46,462.252 2285.49,463.668 2286.51,466.113 2287.53,479.914 2288.56,439.777 2289.58,409.682 2290.6,176.328 2291.63,308.668 2292.65,312.21 2293.67,332.399 2294.69,309.325 2295.72,147.168 2296.74,186.191 2297.76,336.891 2298.79,277.524 2299.81,159.653 2300.83,288.525 2301.85,460.319 2302.88,452.65 2303.9,466.528 2304.92,312.09 2305.95,487.174 2306.97,173.068 2307.99,166.324 2309.01,191.995 2310.04,182.557 2311.06,172.388 2312.08,185.746 2313.11,182.061 2314.13,177.953 2315.15,173.104 2316.18,174.131 2317.2,196.095 2318.22,165.766 2319.24,341.042 2320.27,316.69 2321.29,331.605 2322.31,314.116 2323.34,310.716 2324.36,319.859 2325.38,318.815 2326.4,309.875 2327.43,160.294 2328.45,197.64 2329.47,194.927 2330.5,171.259 2331.52,295.162 2332.54,309.814 2333.57,325.842 2334.59,152.752 2335.61,179.594 2336.63,185.873 2337.66,209.13 2338.68,202.507 2339.7,201.863 2340.73,303.66 2341.75,338.106 2342.77,293.885 2343.79,188.803 2344.82,196.794 2345.84,156.663 2346.86,202.233 2347.89,337.395 2348.91,317.886 2349.93,468.685 2350.96,452.555 2351.98,455.861 2353,469.277 2354.02,452.274 2355.05,463.681 2356.07,197.405 2357.09,171.191 2358.12,198.313 2359.14,192.059 2360.16,161.348 2361.18,334.397 2362.21,304.32 2363.23,349.516 2364.25,291.684 2365.28,452.046 2366.3,458.09 2367.32,455.152 2368.34,440.422 2369.37,459.35 2370.39,455.213 2371.41,318.254 2372.44,323.437 2373.46,298.179 2374.48,306.85 2375.51,331.743 2376.53,334.139 2377.55,299.703 2378.57,319.301 2379.6,316.643 2380.62,341.424 2381.64,177.967 2382.67,169.113 2383.69,185.449 2384.71,201.123 2385.73,159.657 2386.76,160.541 2387.78,185.848 2388.8,186.637 2389.83,177.318 2390.85,298.031 2391.87,321.255 2392.9,319.804 2393.92,324.167 2394.94,321.554 2395.96,322.682 2396.99,306.163 2398.01,309.123 2399.03,344.177 2400.06,182.266 2401.08,173.462 2402.1,197.207 2403.12,161.1 2404.15,179.708 2405.17,298.111 2406.19,282.031 2407.22,218.2 2408.24,285.778 2409.26,354.432 2410.29,285.971 2411.31,154.749 2412.33,149.779 2413.35,208.159 2414.38,190.547 2415.4,162.075 2416.42,163.385 2417.45,199.257 2418.47,177.272 2419.49,183.366 2420.51,167.682 2421.54,166.638 2422.56,204.786 2423.58,150.934 2424.61,333.626 2425.63,303.262 2426.65,319.551 2427.67,202.59 2428.7,189.639 2429.72,168.525 2430.74,179.91 2431.77,175.878 2432.79,177.085 2433.81,196.647 2434.84,437.133 2435.86,449.311 2436.88,436.198 2437.9,281.947 2438.93,484.373 2439.95,425.568 2440.97,488.033 2442,486.328 2443.02,427.496 2444.04,466.2 2445.06,314.069 2446.09,322.958 2447.11,310.821 2448.13,323.563 2449.16,341.154 2450.18,230.048 2451.2,134.056 2452.23,169.41 2453.25,183.692 2454.27,196.7 2455.29,295.225 2456.32,328.496 2457.34,331.964 2458.36,325.951 2459.39,306.42 2460.41,294.137 2461.43,350.035 2462.45,429.804 2463.48,288.47 2464.5,326.483 2465.52,321.404 2466.55,319.209 2467.57,322.192 2468.59,321.298 2469.62,306.012 2470.64,474.566 2471.66,435.644 2472.68,447.691 2473.71,441.114 2474.73,222.118 2475.75,210.576 2476.78,167.123 2477.8,173.517 2478.82,178.716 2479.84,174.841 2480.87,186.556 2481.89,161.665 2482.91,439.535 2483.94,470.818 2484.96,456.294 2485.98,341.193 2487,335.896 2488.03,318.672 2489.05,304.628 2490.07,431.169 2491.1,460.756 2492.12,434.18 2493.14,459.344 2494.17,450.989 2495.19,286.587 2496.21,226.636 2497.23,277.45 2498.26,353.34 2499.28,288.14 2500.3,472.528 2501.33,460.059 2502.35,433.896 2503.37,462.514 2504.39,447.058 2505.42,441.922 2506.44,445.478 2507.46,458.266 2508.49,444.781 2509.51,461.829 2510.53,434.336 2511.56,305.406 2512.58,311.532 2513.6,316.163 2514.62,307.179 2515.65,307.198 2516.67,325.811 2517.69,321.187 2518.72,320.349 2519.74,320.63 2520.76,302.344 2521.78,323.538 2522.81,296.279 2523.83,345.256 2524.85,321.425 2525.88,338.453 2526.9,329.551 2527.92,322.198 2528.95,315.594 2529.97,319.748 2530.99,317.842 2532.01,307.778 2533.04,316.915 2534.06,330.952 2535.08,312.989 2536.11,339.693 2537.13,141.857 2538.15,325.077 2539.17,321.299 2540.2,312.265 2541.22,161.893 2542.24,159.872 2543.27,210.803 2544.29,191.953 2545.31,174.862 2546.33,191.11 2547.36,203.383 2548.38,168.295 2549.4,167.569 2550.43,200.41 2551.45,175.792 2552.47,161.219 2553.5,209.071 2554.52,210.606 2555.54,165.878 2556.56,168.781 2557.59,183.234 2558.61,193.172 2559.63,190.641 2560.66,176.916 2561.68,157.153 2562.7,286.974 2563.72,151.994 2564.75,299.341 2565.77,316.333 2566.79,166.763 2567.82,203.626 2568.84,334.876 2569.86,163.754 2570.89,185.757 2571.91,196.917 2572.93,194.382 2573.95,182.62 2574.98,200.707 2576,169.068 2577.02,177.799 2578.05,176.997 2579.07,200.601 2580.09,178.809 2581.11,162.318 2582.14,178.32 2583.16,177.886 2584.18,183.566 2585.21,189.619 2586.23,166.697 2587.25,153.569 2588.28,206.446 2589.3,286.006 2590.32,341.781 2591.34,344.085 2592.37,298.15 2593.39,156.453 2594.41,153.844 2595.44,164.201 2596.46,181.107 2597.48,170.883 2598.5,179.27 2599.53,158.829 2600.55,213.354 2601.57,228.883 2602.6,148.951 2603.62,177.766 2604.64,207.314 2605.66,184.483 2606.69,167.121 2607.71,191.402 2608.73,185.448 2609.76,166.506 2610.78,190.113 2611.8,176.958 2612.83,189.147 2613.85,184.08 2614.87,161.448 2615.89,164.564 2616.92,201.996 2617.94,173.108 2618.96,189.286 2619.99,182.902 2621.01,180.732 2622.03,214.926 2623.05,179.681 2624.08,187.668 2625.1,171.196 2626.12,197.717 2627.15,170.239 2628.17,183.621 2629.19,201.141 2630.22,194.782 2631.24,189.383 2632.26,189.198 2633.28,170.453 2634.31,190.848 2635.33,178.353 2636.35,184.233 2637.38,179.229 2638.4,193.512 2639.42,193.675 2640.44,197.872 2641.47,170.943 2642.49,170.802 2643.51,211.114 2644.54,157.726 2645.56,172.378 2646.58,192.71 2647.61,176.479 2648.63,174.148 2649.65,176.848 2650.67,205.543 2651.7,203.045 2652.72,169.263 2653.74,167.083 2654.77,211.481 2655.79,332.079 2656.81,312.985 2657.83,300.769 2658.86,313.976 2659.88,333.761 2660.9,309.433 2661.93,327.099 2662.95,176.13 2663.97,178.59 2664.99,199.965 2666.02,197.169 2667.04,170.668 2668.06,179.939 2669.09,175.371 2670.11,193.168 2671.13,312.068 2672.16,328.474 2673.18,321.62 2674.2,207.043 2675.22,193.61 2676.25,158.198 2677.27,194.914 2678.29,181.319 2679.32,162.809 2680.34,178.811 2681.36,177.108 2682.38,139.326 2683.41,320.47 2684.43,319.147 2685.45,316.562 2686.48,293.326 2687.5,316.104 2688.52,331.63 2689.55,309.414 2690.57,316.167 2691.59,313.548 2692.61,195.9 2693.64,142.445 2694.66,163.653 2695.68,200.888 2696.71,157.003 2697.73,169.394 2698.75,196.735 2699.77,165.469 2700.8,196.218 2701.82,203.73 2702.84,458.295 2703.87,461.324 2704.89,441.624 2705.91,457.469 2706.94,460.033 2707.96,468.466 2708.98,437.638 2710,448.621 2711.03,461.193 2712.05,444.794 2713.07,445.456 2714.1,425.186 2715.12,193.164 2716.14,177.186 2717.16,211.014 2718.19,154.623 2719.21,165.425 2720.23,211.184 2721.26,180.968 2722.28,193.145 2723.3,172.99 2724.32,169.115 2725.35,185.866 2726.37,191.594 2727.39,179.726 2728.42,180.539 2729.44,208.747 2730.46,188.364 2731.49,188.848 2732.51,185.491 2733.53,188.398 2734.55,189.101 2735.58,188.036 2736.6,196.996 2737.62,171.146 2738.65,466.013 2739.67,463.399 2740.69,444.675 2741.71,461.961 2742.74,439.718 2743.76,449.393 2744.78,485.227 2745.81,479.596 2746.83,439.733 2747.85,467.398 2748.88,460.601 2749.9,450.064 2750.92,448.064 2751.94,452.933 2752.97,438.172 2753.99,286.208 2755.01,462.983 2756.04,431.668 2757.06,446.394 2758.08,454.898 2759.1,454.771 2760.13,446.235 2761.15,455.413 2762.17,479.474 2763.2,442.409 2764.22,465.57 2765.24,475.966 2766.27,350.458 2767.29,442.601 2768.31,445.128 2769.33,458.857 2770.36,171.134 2771.38,178.295 2772.4,196.754 2773.43,164.682 2774.45,172.919 2775.47,188.33 2776.49,172.741 2777.52,178.241 2778.54,185.263 2779.56,156.169 2780.59,153.533 2781.61,327.526 2782.63,343.152 2783.65,458.936 2784.68,451.227 2785.7,430.066 2786.72,459.81 2787.75,457.014 2788.77,448.458 2789.79,457.491 2790.82,347.338 2791.84,147.083 2792.86,146.378 2793.88,479.766 2794.91,346.44 2795.93,350.257 2796.95,290.184 2797.98,321.909 2799,317.502 2800.02,338.864 2801.04,303.397 2802.07,299.785 2803.09,328.589 2804.11,326.998 2805.14,303.937 2806.16,321.103 2807.18,308.814 2808.21,331.48 2809.23,485.992 2810.25,428.781 2811.27,320.252 2812.3,298.783 2813.32,347.972 2814.34,204.286 2815.37,176.989 2816.39,322.239 2817.41,316.601 2818.43,333.264 2819.46,292.795 2820.48,153.54 2821.5,197.105 2822.53,181.995 2823.55,160.064 2824.57,339.575 2825.6,160.579 2826.62,427.473 2827.64,444.536 2828.66,446.215 2829.69,444.521 2830.71,448.642 2831.73,452.152 2832.76,454.754 2833.78,468.287 2834.8,444.533 2835.82,460.468 2836.85,441.693 2837.87,278.543 2838.89,194.988 2839.92,182.308 2840.94,192.443 2841.96,180.242 2842.98,175.038 2844.01,195.33 2845.03,166.272 2846.05,177.564 2847.08,159.51 2848.1,208.343 2849.12,163.339 2850.15,187.445 2851.17,167.122 2852.19,214.367 2853.21,156.843 2854.24,172.127 2855.26,187.721 2856.28,180.763 2857.31,152.503 2858.33,291.202 2859.35,430.295 2860.37,222.069 2861.4,219.217 2862.42,315.724 2863.44,305.21 2864.47,424.572 2865.49,352.928 2866.51,479.196 2867.54,206.058 2868.56,339.817 2869.58,320.853 2870.6,330.634 2871.63,280.919 2872.65,220.859 2873.67,325.037 2874.7,334.478 2875.72,210.838 2876.74,177.402 2877.76,184.752 2878.79,184.094 2879.81,194.005 2880.83,175.727 2881.86,189.161 2882.88,298.794 2883.9,340.293 2884.93,342.561 2885.95,323.727 2886.97,315.321 2887.99,219.645 2889.02,198.306 2890.04,180.159 2891.06,191.863 2892.09,175.193 2893.11,178.995 2894.13,178.081 2895.15,154.68 2896.18,188.19 2897.2,181.417 2898.22,174.937 2899.25,195.48 2900.27,192.597 2901.29,175.252 2902.31,204.654 2903.34,177.681 2904.36,188.226 2905.38,177.054 2906.41,195.632 2907.43,179.961 2908.45,190.22 2909.48,197.965 2910.5,200.759 2911.52,179.237 2912.54,186.689 2913.57,192.267 2914.59,176.595 2915.61,173.381 2916.64,183.36 2917.66,189.201 2918.68,181.715 2919.7,168.736 2920.73,186.792 2921.75,191.724 2922.77,176.797 2923.8,172.119 2924.82,184.866 2925.84,170.277 2926.87,192.844 2927.89,170.55 2928.91,183.825 2929.93,161.184 2930.96,189.686 2931.98,186.016 2933,195.922 2934.03,195.587 2935.05,199.261 2936.07,178.604 2937.09,198.42 2938.12,146.37 2939.14,339.267 2940.16,299 2941.19,292.183 2942.21,469.938 2943.23,456.742 2944.26,439.428 2945.28,446.338 2946.3,460.496 2947.32,465.368 2948.35,299.816 2949.37,167.877 2950.39,182.33 2951.42,163.173 2952.44,193.994 2953.46,206.439 2954.48,334.481 2955.51,327.908 2956.53,333.544 2957.55,312.173 2958.58,317.664 2959.6,309.317 2960.62,313.893 2961.64,340.604 2962.67,304.695 2963.69,314.473 2964.71,331.232 2965.74,313.964 2966.76,325.411 2967.78,305.015 2968.81,323.211 2969.83,449.842 2970.85,434.714 2971.87,468.573 2972.9,149.826 2973.92,493.798 2974.94,343.825 2975.97,200.191 2976.99,216.324 2978.01,166.97 2979.03,191.542 2980.06,150.928 2981.08,163.245 2982.1,310.256 2983.13,314.92 2984.15,300.161 2985.17,285.395 2986.2,164.823 2987.22,171.276 2988.24,197.389 2989.26,172.392 2990.29,171.887 2991.31,182.427 2992.33,203.645 2993.36,172.856 2994.38,185.882 2995.4,167.877 2996.42,186.694 2997.45,188.082 2998.47,191.69 2999.49,162.882 3000.52,177.636 3001.54,179.196 3002.56,162.761 3003.59,332.472 3004.61,333.154 3005.63,316.665 3006.65,318.796 3007.68,326.273 3008.7,312.819 3009.72,356.274 3010.75,452.271 3011.77,471.653 3012.79,452.842 3013.81,460.611 3014.84,436.076 3015.86,462.566 3016.88,450.695 3017.91,454.91 3018.93,445.439 3019.95,326.648 3020.97,314.693 3022,154.999 3023.02,163.233 3024.04,173.452 3025.07,190.444 3026.09,184.369 3027.11,187.501 3028.14,218.888 3029.16,164.733 3030.18,182.242 3031.2,175.883 3032.23,216.057 3033.25,165.146 3034.27,199.816 3035.3,195.936 3036.32,169.442 3037.34,165.184 3038.36,204.261 3039.39,199.904 3040.41,287.739 3041.43,327.794 3042.46,299.723 3043.48,316.314 3044.5,328.984 3045.53,436.817 3046.55,357.203 3047.57,168.002 3048.59,184.914 3049.62,174.223 3050.64,171.974 3051.66,176.555 3052.69,157.363 3053.71,161.015 3054.73,176.544 3055.75,210.229 3056.78,204.092 3057.8,191.092 3058.82,195.51 3059.85,189.491 3060.87,183.572 3061.89,168.444 3062.92,177.145 3063.94,175.231 3064.96,181.702 3065.98,174.089 3067.01,176.956 3068.03,190.335 3069.05,172.664 3070.08,189.27 3071.1,169.721 3072.12,207.601 3073.14,205.625 3074.17,176.46 3075.19,176.457 3076.21,159.159 3077.24,287.767 3078.26,346.883 3079.28,149.743 3080.3,208.445 3081.33,160.267 3082.35,185.332 3083.37,155.884 3084.4,204.69 3085.42,169.19 3086.44,170.944 3087.47,173.57 3088.49,204.774 3089.51,188.47 3090.53,180.209 3091.56,197.163 3092.58,186.901 3093.6,182.559 3094.63,179.446 3095.65,200.085 3096.67,211.234 3097.69,171.33 3098.72,174.033 3099.74,170.576 3100.76,200.127 3101.79,173.807 3102.81,204.673 3103.83,160.42 3104.86,156.519 3105.88,179.068 3106.9,170.69 3107.92,192.027 3108.95,179.323 3109.97,176.787 3110.99,183.735 3112.02,146.48 3113.04,435.035 3114.06,461.022 3115.08,439.172 3116.11,431.79 3117.13,430.823 3118.15,441.876 3119.18,466.404 3120.2,433.295 3121.22,177.974 3122.25,172.905 3123.27,201.234 3124.29,172.955 3125.31,197.635 3126.34,163.787 3127.36,207.134 3128.38,175.635 3129.41,174.729 3130.43,200.37 3131.45,314.916 3132.47,322.159 3133.5,332.042 3134.52,320.418 3135.54,320.661 3136.57,314.448 3137.59,326.207 3138.61,202.476 3139.63,203.863 3140.66,416.394 3141.68,170.323 3142.7,186.754 3143.73,162.873 3144.75,221.282 3145.77,269.251 3146.8,271.815 3147.82,179.501 3148.84,200.013 3149.86,441.021 3150.89,445.809 3151.91,148.166 3152.93,320.511 3153.96,327.939 3154.98,156.294 3156,183.71 3157.02,446.895 3158.05,433.731 3159.07,440.896 3160.09,454.641 3161.12,465.631 3162.14,487.26 3163.16,485.577 3164.19,162.878 3165.21,176.132 3166.23,172.019 3167.25,181.489 3168.28,184.933 3169.3,175.975 3170.32,201.485 3171.35,161.506 3172.37,462.655 3173.39,449.356 3174.41,468.492 3175.44,459.779 3176.46,455.699 3177.48,454.247 3178.51,467.12 3179.53,438.055 3180.55,429.572 3181.58,439.636 3182.6,441.651 3183.62,420.782 3184.64,180.164 3185.67,176.361 3186.69,343.08 3187.71,325.976 3188.74,302.644 3189.76,325.883 3190.78,301.783 3191.8,333.116 3192.83,309.33 3193.85,457.218 3194.87,187.992 3195.9,471.412 3196.92,463.687 3197.94,153.323 3198.96,316.459 3199.99,315.86 3201.01,324.237 3202.03,321.889 3203.06,155.371 3204.08,211.147 3205.1,200.608 3206.13,290.511 3207.15,446.486 3208.17,465.711 3209.19,459.035 3210.22,456.124 3211.24,466.837 3212.26,450.302 3213.29,449.528 3214.31,170.281 3215.33,159.316 3216.35,169.599 3217.38,155.622 3218.4,328.049 3219.42,300.077 3220.45,308.093 3221.47,314.778 3222.49,322.931 3223.52,295.462 3224.54,213.612 3225.56,354.824 3226.58,188.887 3227.61,161.78 3228.63,187.025 3229.65,199.073 3230.68,192.414 3231.7,197.741 3232.72,166.287 3233.74,184.683 3234.77,195.76 3235.79,195.846 3236.81,200.169 3237.84,193.73 3238.86,197.357 3239.88,196.685 3240.91,179.422 3241.93,185.566 3242.95,198.124 3243.97,161.249 3245,170.597 3246.02,197.11 3247.04,190.937 3248.07,180.522 3249.09,160.861 3250.11,185.755 3251.13,201.799 3252.16,167.423 3253.18,175.878 3254.2,203.477 3255.23,163.237 3256.25,175.059 3257.27,182.119 3258.29,179.515 3259.32,184.951 3260.34,189.28 3261.36,187.08 3262.39,175.683 3263.41,321.134 3264.43,326.258 3265.46,326.138 3266.48,311.517 3267.5,309.449 3268.52,294.383 3269.55,344.343 3270.57,293.596 3271.59,303.876 3272.62,325.057 3273.64,332.845 3274.66,315.447 3275.68,310.846 3276.71,308.244 3277.73,310.776 3278.75,211.36 3279.78,480.278 3280.8,308.868 3281.82,163.954 3282.85,192.19 3283.87,201.267 3284.89,196.562 3285.91,180.183 3286.94,179.883 3287.96,205.713 3288.98,289.284 3290.01,175.221 3291.03,162.586 3292.05,443.967 3293.07,464.001 3294.1,461.988 3295.12,148.821 3296.14,152.274 3297.17,155.839 3298.19,313.087 3299.21,313.569 3300.24,194.827 3301.26,157.052 3302.28,178.45 3303.3,188.509 3304.33,196.57 3305.35,164.977 3306.37,191.868 3307.4,202.1 3308.42,162.102 3309.44,191.019 3310.46,174.214 3311.49,174.75 3312.51,152.884 3313.53,327.302 3314.56,306.347 3315.58,335.868 3316.6,332.537 3317.62,324.516 3318.65,331.961 3319.67,159.609 3320.69,200.254 3321.72,158.094 3322.74,214.366 3323.76,178.571 3324.79,134.109 3325.81,193.017 3326.83,170.802 3327.85,162.021 3328.88,333.277 3329.9,161.082 3330.92,284.748 3331.95,201.327 3332.97,192.461 3333.99,167.48 3335.01,152.924 3336.04,147.493 3337.06,153.605 3338.08,315.538 3339.11,329.269 3340.13,330.769 3341.15,309.405 3342.18,311.604 3343.2,314.252 3344.22,323.66 3345.24,321.844 3346.27,290.078 3347.29,291.999 3348.31,289.383 3349.34,201.585 3350.36,191.115 3351.38,207.159 3352.4,173.204 3353.43,199.635 3354.45,200.756 3355.47,160.595 3356.5,165.995 3357.52,183.996 3358.54,175.933 3359.57,172.359 3360.59,195.036 3361.61,159.116 3362.63,192.516 3363.66,179.608 3364.68,192.451 3365.7,199.128 3366.73,189.731 3367.75,168.077 3368.77,190.056 3369.79,165.218 3370.82,155.127 3371.84,206.388 3372.86,192.958 3373.89,164.594 3374.91,152.223 3375.93,202.127 3376.95,163.146 3377.98,185.921 3379,172.7 3380.02,179.629 3381.05,183.721 3382.07,170.775 3383.09,181.676 3384.12,158.198 3385.14,168.006 3386.16,167.387 3387.18,203.099 3388.21,165.106 3389.23,197.662 3390.25,200.882 3391.28,189.344 3392.3,202.479 3393.32,181.339 3394.34,171.95 3395.37,165.308 3396.39,176.932 3397.41,188.703 3398.44,159.512 3399.46,176.308 3400.48,188.54 3401.51,205.675 3402.53,312.533 3403.55,330.412 3404.57,313.384 3405.6,338.483 3406.62,328.405 3407.64,324.901 3408.67,300.173 3409.69,329.305 3410.71,324.65 3411.73,328.191 3412.76,313.836 3413.78,451.116 3414.8,459.768 3415.83,460.576 3416.85,196.041 3417.87,154.09 3418.9,440.986 3419.92,312.734 3420.94,313.182 3421.96,148.29 3422.99,350.764 3424.01,185.83 3425.03,174.292 3426.06,188.432 3427.08,199.248 3428.1,189.597 3429.12,192.151 3430.15,176.009 3431.17,192.934 3432.19,209.916 3433.22,157.065 3434.24,193.868 3435.26,200.75 3436.28,172.994 3437.31,202.58 3438.33,172.789 3439.35,159.437 3440.38,170.611 3441.4,185.626 3442.42,193.934 3443.45,166.507 3444.47,185.188 3445.49,191.519 3446.51,193.761 3447.54,208.181 3448.56,343.981 3449.58,141.605 3450.61,233.922 3451.63,481.517 3452.65,317.654 3453.67,328.972 3454.7,303.376 3455.72,179.115 "/>
<path clip-path="url(#clip700)" d="M2913.67 166.762 L3438.47 166.762 L3438.47 63.0816 L2913.67 63.0816  Z" fill="#ffffff" fill-rule="evenodd" fill-opacity="1"/>
<polyline clip-path="url(#clip700)" style="stroke:#000000; stroke-linecap:round; stroke-linejoin:round; stroke-width:4; stroke-opacity:1; fill:none" points="2913.67,166.762 3438.47,166.762 3438.47,63.0816 2913.67,63.0816 2913.67,166.762 "/>
<polyline clip-path="url(#clip700)" style="stroke:#009af9; stroke-linecap:round; stroke-linejoin:round; stroke-width:2; stroke-opacity:1; fill:none" points="2951.76,114.922 3180.34,114.922 "/>
<path clip-path="url(#clip700)" d="M3234.82 115.998 Q3236.32 116.507 3237.74 118.174 Q3239.17 119.841 3240.61 122.757 L3245.35 132.202 L3240.33 132.202 L3235.91 123.336 Q3234.19 119.864 3232.57 118.729 Q3230.98 117.595 3228.2 117.595 L3223.11 117.595 L3223.11 132.202 L3218.43 132.202 L3218.43 97.6416 L3228.99 97.6416 Q3234.91 97.6416 3237.83 100.118 Q3240.75 102.595 3240.75 107.595 Q3240.75 110.859 3239.22 113.012 Q3237.71 115.165 3234.82 115.998 M3223.11 101.484 L3223.11 113.753 L3228.99 113.753 Q3232.37 113.753 3234.08 112.202 Q3235.82 110.628 3235.82 107.595 Q3235.82 104.563 3234.08 103.035 Q3232.37 101.484 3228.99 101.484 L3223.11 101.484 Z" fill="#000000" fill-rule="evenodd" fill-opacity="1" /><path clip-path="url(#clip700)" d="M3261 102.248 L3254.66 119.447 L3267.37 119.447 L3261 102.248 M3258.36 97.6416 L3263.66 97.6416 L3276.83 132.202 L3271.97 132.202 L3268.82 123.336 L3253.25 123.336 L3250.1 132.202 L3245.17 132.202 L3258.36 97.6416 Z" fill="#000000" fill-rule="evenodd" fill-opacity="1" /><path clip-path="url(#clip700)" d="M3278.5 117.317 L3290.98 117.317 L3290.98 121.114 L3278.5 121.114 L3278.5 117.317 Z" fill="#000000" fill-rule="evenodd" fill-opacity="1" /><path clip-path="url(#clip700)" d="M3297.94 97.6416 L3302.62 97.6416 L3302.62 111.808 L3319.61 111.808 L3319.61 97.6416 L3324.29 97.6416 L3324.29 132.202 L3319.61 132.202 L3319.61 115.743 L3302.62 115.743 L3302.62 132.202 L3297.94 132.202 L3297.94 97.6416 Z" fill="#000000" fill-rule="evenodd" fill-opacity="1" /><path clip-path="url(#clip700)" d="M3333.59 97.6416 L3340.56 97.6416 L3349.38 121.16 L3358.25 97.6416 L3365.21 97.6416 L3365.21 132.202 L3360.65 132.202 L3360.65 101.854 L3351.74 125.558 L3347.04 125.558 L3338.13 101.854 L3338.13 132.202 L3333.59 132.202 L3333.59 97.6416 Z" fill="#000000" fill-rule="evenodd" fill-opacity="1" /><path clip-path="url(#clip700)" d="M3400.37 100.304 L3400.37 105.234 Q3398.01 103.035 3395.33 101.947 Q3392.67 100.859 3389.66 100.859 Q3383.73 100.859 3380.58 104.493 Q3377.43 108.104 3377.43 114.956 Q3377.43 121.785 3380.58 125.419 Q3383.73 129.03 3389.66 129.03 Q3392.67 129.03 3395.33 127.942 Q3398.01 126.854 3400.37 124.655 L3400.37 129.54 Q3397.92 131.206 3395.17 132.04 Q3392.43 132.873 3389.38 132.873 Q3381.53 132.873 3377.02 128.081 Q3372.5 123.266 3372.5 114.956 Q3372.5 106.623 3377.02 101.831 Q3381.53 97.0166 3389.38 97.0166 Q3392.48 97.0166 3395.21 97.8499 Q3397.97 98.6601 3400.37 100.304 Z" fill="#000000" fill-rule="evenodd" fill-opacity="1" /></svg>
