<?xml version="1.0" encoding="utf-8"?>
<svg xmlns="http://www.w3.org/2000/svg" xmlns:xlink="http://www.w3.org/1999/xlink" width="900" height="150" viewBox="0 0 3600 600">
<defs>
  <clipPath id="clip350">
    <rect x="0" y="0" width="3600" height="600"/>
  </clipPath>
</defs>
<path clip-path="url(#clip350)" d="M0 600 L3600 600 L3600 0 L0 0  Z" fill="#ffffff" fill-rule="evenodd" fill-opacity="1"/>
<defs>
  <clipPath id="clip351">
    <rect x="720" y="0" width="2521" height="600"/>
  </clipPath>
</defs>
<path clip-path="url(#clip350)" d="M124.177 522.368 L3552.76 522.368 L3552.76 47.2441 L124.177 47.2441  Z" fill="#ffffff" fill-rule="evenodd" fill-opacity="1"/>
<defs>
  <clipPath id="clip352">
    <rect x="124" y="47" width="3430" height="476"/>
  </clipPath>
</defs>
<polyline clip-path="url(#clip352)" style="stroke:#000000; stroke-linecap:round; stroke-linejoin:round; stroke-width:2; stroke-opacity:0.1; fill:none" points="218.9,522.368 218.9,47.2441 "/>
<polyline clip-path="url(#clip352)" style="stroke:#000000; stroke-linecap:round; stroke-linejoin:round; stroke-width:2; stroke-opacity:0.1; fill:none" points="796.904,522.368 796.904,47.2441 "/>
<polyline clip-path="url(#clip352)" style="stroke:#000000; stroke-linecap:round; stroke-linejoin:round; stroke-width:2; stroke-opacity:0.1; fill:none" points="1374.91,522.368 1374.91,47.2441 "/>
<polyline clip-path="url(#clip352)" style="stroke:#000000; stroke-linecap:round; stroke-linejoin:round; stroke-width:2; stroke-opacity:0.1; fill:none" points="1952.91,522.368 1952.91,47.2441 "/>
<polyline clip-path="url(#clip352)" style="stroke:#000000; stroke-linecap:round; stroke-linejoin:round; stroke-width:2; stroke-opacity:0.1; fill:none" points="2530.91,522.368 2530.91,47.2441 "/>
<polyline clip-path="url(#clip352)" style="stroke:#000000; stroke-linecap:round; stroke-linejoin:round; stroke-width:2; stroke-opacity:0.1; fill:none" points="3108.92,522.368 3108.92,47.2441 "/>
<polyline clip-path="url(#clip350)" style="stroke:#000000; stroke-linecap:round; stroke-linejoin:round; stroke-width:4; stroke-opacity:1; fill:none" points="124.177,522.368 3552.76,522.368 "/>
<polyline clip-path="url(#clip350)" style="stroke:#000000; stroke-linecap:round; stroke-linejoin:round; stroke-width:4; stroke-opacity:1; fill:none" points="218.9,522.368 218.9,503.47 "/>
<polyline clip-path="url(#clip350)" style="stroke:#000000; stroke-linecap:round; stroke-linejoin:round; stroke-width:4; stroke-opacity:1; fill:none" points="796.904,522.368 796.904,503.47 "/>
<polyline clip-path="url(#clip350)" style="stroke:#000000; stroke-linecap:round; stroke-linejoin:round; stroke-width:4; stroke-opacity:1; fill:none" points="1374.91,522.368 1374.91,503.47 "/>
<polyline clip-path="url(#clip350)" style="stroke:#000000; stroke-linecap:round; stroke-linejoin:round; stroke-width:4; stroke-opacity:1; fill:none" points="1952.91,522.368 1952.91,503.47 "/>
<polyline clip-path="url(#clip350)" style="stroke:#000000; stroke-linecap:round; stroke-linejoin:round; stroke-width:4; stroke-opacity:1; fill:none" points="2530.91,522.368 2530.91,503.47 "/>
<polyline clip-path="url(#clip350)" style="stroke:#000000; stroke-linecap:round; stroke-linejoin:round; stroke-width:4; stroke-opacity:1; fill:none" points="3108.92,522.368 3108.92,503.47 "/>
<path clip-path="url(#clip350)" d="M218.9 562.887 Q215.289 562.887 213.461 566.451 Q211.655 569.993 211.655 577.123 Q211.655 584.229 213.461 587.794 Q215.289 591.335 218.9 591.335 Q222.535 591.335 224.34 587.794 Q226.169 584.229 226.169 577.123 Q226.169 569.993 224.34 566.451 Q222.535 562.887 218.9 562.887 M218.9 559.183 Q224.711 559.183 227.766 563.789 Q230.845 568.373 230.845 577.123 Q230.845 585.849 227.766 590.456 Q224.711 595.039 218.9 595.039 Q213.09 595.039 210.012 590.456 Q206.956 585.849 206.956 577.123 Q206.956 568.373 210.012 563.789 Q213.09 559.183 218.9 559.183 Z" fill="#000000" fill-rule="evenodd" fill-opacity="1" /><path clip-path="url(#clip350)" d="M760.596 590.433 L776.916 590.433 L776.916 594.368 L754.971 594.368 L754.971 590.433 Q757.633 587.678 762.217 583.048 Q766.823 578.396 768.004 577.053 Q770.249 574.53 771.129 572.794 Q772.031 571.035 772.031 569.345 Q772.031 566.59 770.087 564.854 Q768.166 563.118 765.064 563.118 Q762.865 563.118 760.411 563.882 Q757.981 564.646 755.203 566.197 L755.203 561.475 Q758.027 560.34 760.481 559.762 Q762.934 559.183 764.971 559.183 Q770.342 559.183 773.536 561.868 Q776.731 564.553 776.731 569.044 Q776.731 571.174 775.92 573.095 Q775.133 574.993 773.027 577.586 Q772.448 578.257 769.346 581.474 Q766.244 584.669 760.596 590.433 Z" fill="#000000" fill-rule="evenodd" fill-opacity="1" /><path clip-path="url(#clip350)" d="M786.777 559.808 L805.133 559.808 L805.133 563.743 L791.059 563.743 L791.059 572.215 Q792.078 571.868 793.096 571.706 Q794.115 571.521 795.133 571.521 Q800.92 571.521 804.3 574.692 Q807.679 577.863 807.679 583.28 Q807.679 588.859 804.207 591.96 Q800.735 595.039 794.416 595.039 Q792.24 595.039 789.971 594.669 Q787.726 594.298 785.318 593.558 L785.318 588.859 Q787.402 589.993 789.624 590.548 Q791.846 591.104 794.323 591.104 Q798.328 591.104 800.666 588.998 Q803.004 586.891 803.004 583.28 Q803.004 579.669 800.666 577.562 Q798.328 575.456 794.323 575.456 Q792.448 575.456 790.573 575.873 Q788.721 576.289 786.777 577.169 L786.777 559.808 Z" fill="#000000" fill-rule="evenodd" fill-opacity="1" /><path clip-path="url(#clip350)" d="M826.892 562.887 Q823.281 562.887 821.453 566.451 Q819.647 569.993 819.647 577.123 Q819.647 584.229 821.453 587.794 Q823.281 591.335 826.892 591.335 Q830.527 591.335 832.332 587.794 Q834.161 584.229 834.161 577.123 Q834.161 569.993 832.332 566.451 Q830.527 562.887 826.892 562.887 M826.892 559.183 Q832.702 559.183 835.758 563.789 Q838.837 568.373 838.837 577.123 Q838.837 585.849 835.758 590.456 Q832.702 595.039 826.892 595.039 Q821.082 595.039 818.003 590.456 Q814.948 585.849 814.948 577.123 Q814.948 568.373 818.003 563.789 Q821.082 559.183 826.892 559.183 Z" fill="#000000" fill-rule="evenodd" fill-opacity="1" /><path clip-path="url(#clip350)" d="M1334.53 559.808 L1352.88 559.808 L1352.88 563.743 L1338.81 563.743 L1338.81 572.215 Q1339.83 571.868 1340.85 571.706 Q1341.86 571.521 1342.88 571.521 Q1348.67 571.521 1352.05 574.692 Q1355.43 577.863 1355.43 583.28 Q1355.43 588.859 1351.96 591.96 Q1348.48 595.039 1342.16 595.039 Q1339.99 595.039 1337.72 594.669 Q1335.47 594.298 1333.07 593.558 L1333.07 588.859 Q1335.15 589.993 1337.37 590.548 Q1339.6 591.104 1342.07 591.104 Q1346.08 591.104 1348.41 588.998 Q1350.75 586.891 1350.75 583.28 Q1350.75 579.669 1348.41 577.562 Q1346.08 575.456 1342.07 575.456 Q1340.2 575.456 1338.32 575.873 Q1336.47 576.289 1334.53 577.169 L1334.53 559.808 Z" fill="#000000" fill-rule="evenodd" fill-opacity="1" /><path clip-path="url(#clip350)" d="M1374.64 562.887 Q1371.03 562.887 1369.2 566.451 Q1367.4 569.993 1367.4 577.123 Q1367.4 584.229 1369.2 587.794 Q1371.03 591.335 1374.64 591.335 Q1378.28 591.335 1380.08 587.794 Q1381.91 584.229 1381.91 577.123 Q1381.91 569.993 1380.08 566.451 Q1378.28 562.887 1374.64 562.887 M1374.64 559.183 Q1380.45 559.183 1383.51 563.789 Q1386.59 568.373 1386.59 577.123 Q1386.59 585.849 1383.51 590.456 Q1380.45 595.039 1374.64 595.039 Q1368.83 595.039 1365.75 590.456 Q1362.7 585.849 1362.7 577.123 Q1362.7 568.373 1365.75 563.789 Q1368.83 559.183 1374.64 559.183 Z" fill="#000000" fill-rule="evenodd" fill-opacity="1" /><path clip-path="url(#clip350)" d="M1404.8 562.887 Q1401.19 562.887 1399.36 566.451 Q1397.56 569.993 1397.56 577.123 Q1397.56 584.229 1399.36 587.794 Q1401.19 591.335 1404.8 591.335 Q1408.44 591.335 1410.24 587.794 Q1412.07 584.229 1412.07 577.123 Q1412.07 569.993 1410.24 566.451 Q1408.44 562.887 1404.8 562.887 M1404.8 559.183 Q1410.61 559.183 1413.67 563.789 Q1416.75 568.373 1416.75 577.123 Q1416.75 585.849 1413.67 590.456 Q1410.61 595.039 1404.8 595.039 Q1398.99 595.039 1395.91 590.456 Q1392.86 585.849 1392.86 577.123 Q1392.86 568.373 1395.91 563.789 Q1398.99 559.183 1404.8 559.183 Z" fill="#000000" fill-rule="evenodd" fill-opacity="1" /><path clip-path="url(#clip350)" d="M1911.19 559.808 L1933.41 559.808 L1933.41 561.799 L1920.86 594.368 L1915.98 594.368 L1927.78 563.743 L1911.19 563.743 L1911.19 559.808 Z" fill="#000000" fill-rule="evenodd" fill-opacity="1" /><path clip-path="url(#clip350)" d="M1942.58 559.808 L1960.93 559.808 L1960.93 563.743 L1946.86 563.743 L1946.86 572.215 Q1947.88 571.868 1948.9 571.706 Q1949.91 571.521 1950.93 571.521 Q1956.72 571.521 1960.1 574.692 Q1963.48 577.863 1963.48 583.28 Q1963.48 588.859 1960.01 591.96 Q1956.53 595.039 1950.21 595.039 Q1948.04 595.039 1945.77 594.669 Q1943.52 594.298 1941.12 593.558 L1941.12 588.859 Q1943.2 589.993 1945.42 590.548 Q1947.65 591.104 1950.12 591.104 Q1954.13 591.104 1956.46 588.998 Q1958.8 586.891 1958.8 583.28 Q1958.8 579.669 1956.46 577.562 Q1954.13 575.456 1950.12 575.456 Q1948.25 575.456 1946.37 575.873 Q1944.52 576.289 1942.58 577.169 L1942.58 559.808 Z" fill="#000000" fill-rule="evenodd" fill-opacity="1" /><path clip-path="url(#clip350)" d="M1982.69 562.887 Q1979.08 562.887 1977.25 566.451 Q1975.45 569.993 1975.45 577.123 Q1975.45 584.229 1977.25 587.794 Q1979.08 591.335 1982.69 591.335 Q1986.33 591.335 1988.13 587.794 Q1989.96 584.229 1989.96 577.123 Q1989.96 569.993 1988.13 566.451 Q1986.33 562.887 1982.69 562.887 M1982.69 559.183 Q1988.5 559.183 1991.56 563.789 Q1994.64 568.373 1994.64 577.123 Q1994.64 585.849 1991.56 590.456 Q1988.5 595.039 1982.69 595.039 Q1976.88 595.039 1973.8 590.456 Q1970.75 585.849 1970.75 577.123 Q1970.75 568.373 1973.8 563.789 Q1976.88 559.183 1982.69 559.183 Z" fill="#000000" fill-rule="evenodd" fill-opacity="1" /><path clip-path="url(#clip350)" d="M2475.44 590.433 L2483.08 590.433 L2483.08 564.067 L2474.77 565.734 L2474.77 561.475 L2483.03 559.808 L2487.71 559.808 L2487.71 590.433 L2495.35 590.433 L2495.35 594.368 L2475.44 594.368 L2475.44 590.433 Z" fill="#000000" fill-rule="evenodd" fill-opacity="1" /><path clip-path="url(#clip350)" d="M2514.79 562.887 Q2511.18 562.887 2509.35 566.451 Q2507.55 569.993 2507.55 577.123 Q2507.55 584.229 2509.35 587.794 Q2511.18 591.335 2514.79 591.335 Q2518.43 591.335 2520.23 587.794 Q2522.06 584.229 2522.06 577.123 Q2522.06 569.993 2520.23 566.451 Q2518.43 562.887 2514.79 562.887 M2514.79 559.183 Q2520.6 559.183 2523.66 563.789 Q2526.74 568.373 2526.74 577.123 Q2526.74 585.849 2523.66 590.456 Q2520.6 595.039 2514.79 595.039 Q2508.98 595.039 2505.9 590.456 Q2502.85 585.849 2502.85 577.123 Q2502.85 568.373 2505.9 563.789 Q2508.98 559.183 2514.79 559.183 Z" fill="#000000" fill-rule="evenodd" fill-opacity="1" /><path clip-path="url(#clip350)" d="M2544.95 562.887 Q2541.34 562.887 2539.51 566.451 Q2537.71 569.993 2537.71 577.123 Q2537.71 584.229 2539.51 587.794 Q2541.34 591.335 2544.95 591.335 Q2548.59 591.335 2550.39 587.794 Q2552.22 584.229 2552.22 577.123 Q2552.22 569.993 2550.39 566.451 Q2548.59 562.887 2544.95 562.887 M2544.95 559.183 Q2550.76 559.183 2553.82 563.789 Q2556.9 568.373 2556.9 577.123 Q2556.9 585.849 2553.82 590.456 Q2550.76 595.039 2544.95 595.039 Q2539.14 595.039 2536.07 590.456 Q2533.01 585.849 2533.01 577.123 Q2533.01 568.373 2536.07 563.789 Q2539.14 559.183 2544.95 559.183 Z" fill="#000000" fill-rule="evenodd" fill-opacity="1" /><path clip-path="url(#clip350)" d="M2575.12 562.887 Q2571.5 562.887 2569.68 566.451 Q2567.87 569.993 2567.87 577.123 Q2567.87 584.229 2569.68 587.794 Q2571.5 591.335 2575.12 591.335 Q2578.75 591.335 2580.56 587.794 Q2582.38 584.229 2582.38 577.123 Q2582.38 569.993 2580.56 566.451 Q2578.75 562.887 2575.12 562.887 M2575.12 559.183 Q2580.93 559.183 2583.98 563.789 Q2587.06 568.373 2587.06 577.123 Q2587.06 585.849 2583.98 590.456 Q2580.93 595.039 2575.12 595.039 Q2569.31 595.039 2566.23 590.456 Q2563.17 585.849 2563.17 577.123 Q2563.17 568.373 2566.23 563.789 Q2569.31 559.183 2575.12 559.183 Z" fill="#000000" fill-rule="evenodd" fill-opacity="1" /><path clip-path="url(#clip350)" d="M3053.44 590.433 L3061.08 590.433 L3061.08 564.067 L3052.77 565.734 L3052.77 561.475 L3061.04 559.808 L3065.71 559.808 L3065.71 590.433 L3073.35 590.433 L3073.35 594.368 L3053.44 594.368 L3053.44 590.433 Z" fill="#000000" fill-rule="evenodd" fill-opacity="1" /><path clip-path="url(#clip350)" d="M3086.82 590.433 L3103.14 590.433 L3103.14 594.368 L3081.2 594.368 L3081.2 590.433 Q3083.86 587.678 3088.44 583.048 Q3093.05 578.396 3094.23 577.053 Q3096.48 574.53 3097.36 572.794 Q3098.26 571.035 3098.26 569.345 Q3098.26 566.59 3096.31 564.854 Q3094.39 563.118 3091.29 563.118 Q3089.09 563.118 3086.64 563.882 Q3084.21 564.646 3081.43 566.197 L3081.43 561.475 Q3084.25 560.34 3086.71 559.762 Q3089.16 559.183 3091.2 559.183 Q3096.57 559.183 3099.76 561.868 Q3102.96 564.553 3102.96 569.044 Q3102.96 571.174 3102.15 573.095 Q3101.36 574.993 3099.25 577.586 Q3098.68 578.257 3095.57 581.474 Q3092.47 584.669 3086.82 590.433 Z" fill="#000000" fill-rule="evenodd" fill-opacity="1" /><path clip-path="url(#clip350)" d="M3113 559.808 L3131.36 559.808 L3131.36 563.743 L3117.29 563.743 L3117.29 572.215 Q3118.31 571.868 3119.32 571.706 Q3120.34 571.521 3121.36 571.521 Q3127.15 571.521 3130.53 574.692 Q3133.91 577.863 3133.91 583.28 Q3133.91 588.859 3130.43 591.96 Q3126.96 595.039 3120.64 595.039 Q3118.47 595.039 3116.2 594.669 Q3113.95 594.298 3111.55 593.558 L3111.55 588.859 Q3113.63 589.993 3115.85 590.548 Q3118.07 591.104 3120.55 591.104 Q3124.55 591.104 3126.89 588.998 Q3129.23 586.891 3129.23 583.28 Q3129.23 579.669 3126.89 577.562 Q3124.55 575.456 3120.55 575.456 Q3118.68 575.456 3116.8 575.873 Q3114.95 576.289 3113 577.169 L3113 559.808 Z" fill="#000000" fill-rule="evenodd" fill-opacity="1" /><path clip-path="url(#clip350)" d="M3153.12 562.887 Q3149.51 562.887 3147.68 566.451 Q3145.87 569.993 3145.87 577.123 Q3145.87 584.229 3147.68 587.794 Q3149.51 591.335 3153.12 591.335 Q3156.75 591.335 3158.56 587.794 Q3160.39 584.229 3160.39 577.123 Q3160.39 569.993 3158.56 566.451 Q3156.75 562.887 3153.12 562.887 M3153.12 559.183 Q3158.93 559.183 3161.99 563.789 Q3165.06 568.373 3165.06 577.123 Q3165.06 585.849 3161.99 590.456 Q3158.93 595.039 3153.12 595.039 Q3147.31 595.039 3144.23 590.456 Q3141.18 585.849 3141.18 577.123 Q3141.18 568.373 3144.23 563.789 Q3147.31 559.183 3153.12 559.183 Z" fill="#000000" fill-rule="evenodd" fill-opacity="1" /><polyline clip-path="url(#clip352)" style="stroke:#000000; stroke-linecap:round; stroke-linejoin:round; stroke-width:2; stroke-opacity:0.1; fill:none" points="124.177,522.368 3552.76,522.368 "/>
<polyline clip-path="url(#clip352)" style="stroke:#000000; stroke-linecap:round; stroke-linejoin:round; stroke-width:2; stroke-opacity:0.1; fill:none" points="124.177,454.493 3552.76,454.493 "/>
<polyline clip-path="url(#clip352)" style="stroke:#000000; stroke-linecap:round; stroke-linejoin:round; stroke-width:2; stroke-opacity:0.1; fill:none" points="124.177,386.618 3552.76,386.618 "/>
<polyline clip-path="url(#clip352)" style="stroke:#000000; stroke-linecap:round; stroke-linejoin:round; stroke-width:2; stroke-opacity:0.1; fill:none" points="124.177,318.743 3552.76,318.743 "/>
<polyline clip-path="url(#clip352)" style="stroke:#000000; stroke-linecap:round; stroke-linejoin:round; stroke-width:2; stroke-opacity:0.1; fill:none" points="124.177,250.869 3552.76,250.869 "/>
<polyline clip-path="url(#clip352)" style="stroke:#000000; stroke-linecap:round; stroke-linejoin:round; stroke-width:2; stroke-opacity:0.1; fill:none" points="124.177,182.994 3552.76,182.994 "/>
<polyline clip-path="url(#clip352)" style="stroke:#000000; stroke-linecap:round; stroke-linejoin:round; stroke-width:2; stroke-opacity:0.1; fill:none" points="124.177,115.119 3552.76,115.119 "/>
<polyline clip-path="url(#clip352)" style="stroke:#000000; stroke-linecap:round; stroke-linejoin:round; stroke-width:2; stroke-opacity:0.1; fill:none" points="124.177,47.2441 3552.76,47.2441 "/>
<polyline clip-path="url(#clip350)" style="stroke:#000000; stroke-linecap:round; stroke-linejoin:round; stroke-width:4; stroke-opacity:1; fill:none" points="124.177,522.368 124.177,47.2441 "/>
<polyline clip-path="url(#clip350)" style="stroke:#000000; stroke-linecap:round; stroke-linejoin:round; stroke-width:4; stroke-opacity:1; fill:none" points="124.177,522.368 143.075,522.368 "/>
<polyline clip-path="url(#clip350)" style="stroke:#000000; stroke-linecap:round; stroke-linejoin:round; stroke-width:4; stroke-opacity:1; fill:none" points="124.177,454.493 143.075,454.493 "/>
<polyline clip-path="url(#clip350)" style="stroke:#000000; stroke-linecap:round; stroke-linejoin:round; stroke-width:4; stroke-opacity:1; fill:none" points="124.177,386.618 143.075,386.618 "/>
<polyline clip-path="url(#clip350)" style="stroke:#000000; stroke-linecap:round; stroke-linejoin:round; stroke-width:4; stroke-opacity:1; fill:none" points="124.177,318.743 143.075,318.743 "/>
<polyline clip-path="url(#clip350)" style="stroke:#000000; stroke-linecap:round; stroke-linejoin:round; stroke-width:4; stroke-opacity:1; fill:none" points="124.177,250.869 143.075,250.869 "/>
<polyline clip-path="url(#clip350)" style="stroke:#000000; stroke-linecap:round; stroke-linejoin:round; stroke-width:4; stroke-opacity:1; fill:none" points="124.177,182.994 143.075,182.994 "/>
<polyline clip-path="url(#clip350)" style="stroke:#000000; stroke-linecap:round; stroke-linejoin:round; stroke-width:4; stroke-opacity:1; fill:none" points="124.177,115.119 143.075,115.119 "/>
<polyline clip-path="url(#clip350)" style="stroke:#000000; stroke-linecap:round; stroke-linejoin:round; stroke-width:4; stroke-opacity:1; fill:none" points="124.177,47.2441 143.075,47.2441 "/>
<path clip-path="url(#clip350)" d="M50.2699 535.713 L57.9087 535.713 L57.9087 509.347 L49.5986 511.014 L49.5986 506.755 L57.8624 505.088 L62.5383 505.088 L62.5383 535.713 L70.1772 535.713 L70.1772 539.648 L50.2699 539.648 L50.2699 535.713 Z" fill="#000000" fill-rule="evenodd" fill-opacity="1" /><path clip-path="url(#clip350)" d="M53.8578 467.838 L70.1772 467.838 L70.1772 471.773 L48.2328 471.773 L48.2328 467.838 Q50.8949 465.083 55.4782 460.454 Q60.0846 455.801 61.2652 454.458 Q63.5105 451.935 64.3902 450.199 Q65.2929 448.44 65.2929 446.75 Q65.2929 443.995 63.3485 442.259 Q61.4272 440.523 58.3254 440.523 Q56.1263 440.523 53.6726 441.287 Q51.2421 442.051 48.4643 443.602 L48.4643 438.88 Q51.2884 437.745 53.7421 437.167 Q56.1958 436.588 58.2328 436.588 Q63.6031 436.588 66.7976 439.273 Q69.992 441.958 69.992 446.449 Q69.992 448.579 69.1818 450.5 Q68.3948 452.398 66.2883 454.991 Q65.7096 455.662 62.6078 458.88 Q59.5059 462.074 53.8578 467.838 Z" fill="#000000" fill-rule="evenodd" fill-opacity="1" /><path clip-path="url(#clip350)" d="M63.0476 385.264 Q66.404 385.982 68.279 388.25 Q70.1772 390.519 70.1772 393.852 Q70.1772 398.968 66.6587 401.769 Q63.1402 404.57 56.6587 404.57 Q54.4828 404.57 52.168 404.13 Q49.8764 403.713 47.4227 402.857 L47.4227 398.343 Q49.3671 399.477 51.6819 400.056 Q53.9967 400.634 56.5198 400.634 Q60.918 400.634 63.2096 398.898 Q65.5244 397.162 65.5244 393.852 Q65.5244 390.796 63.3717 389.083 Q61.242 387.347 57.4226 387.347 L53.3949 387.347 L53.3949 383.505 L57.6078 383.505 Q61.0569 383.505 62.8855 382.139 Q64.7142 380.75 64.7142 378.158 Q64.7142 375.496 62.8161 374.084 Q60.9411 372.648 57.4226 372.648 Q55.5013 372.648 53.3023 373.065 Q51.1032 373.482 48.4643 374.361 L48.4643 370.195 Q51.1264 369.454 53.4412 369.084 Q55.7791 368.713 57.8393 368.713 Q63.1633 368.713 66.2652 371.144 Q69.367 373.551 69.367 377.672 Q69.367 380.542 67.7235 382.533 Q66.08 384.5 63.0476 385.264 Z" fill="#000000" fill-rule="evenodd" fill-opacity="1" /><path clip-path="url(#clip350)" d="M60.5939 305.537 L48.7884 323.986 L60.5939 323.986 L60.5939 305.537 M59.367 301.463 L65.2466 301.463 L65.2466 323.986 L70.1772 323.986 L70.1772 327.875 L65.2466 327.875 L65.2466 336.023 L60.5939 336.023 L60.5939 327.875 L44.9921 327.875 L44.9921 323.361 L59.367 301.463 Z" fill="#000000" fill-rule="evenodd" fill-opacity="1" /><path clip-path="url(#clip350)" d="M49.2745 233.589 L67.6309 233.589 L67.6309 237.524 L53.5569 237.524 L53.5569 245.996 Q54.5754 245.649 55.5939 245.487 Q56.6124 245.301 57.6309 245.301 Q63.418 245.301 66.7976 248.473 Q70.1772 251.644 70.1772 257.061 Q70.1772 262.639 66.705 265.741 Q63.2328 268.82 56.9134 268.82 Q54.7374 268.82 52.4689 268.449 Q50.2236 268.079 47.8162 267.338 L47.8162 262.639 Q49.8995 263.774 52.1217 264.329 Q54.3439 264.885 56.8208 264.885 Q60.8254 264.885 63.1633 262.778 Q65.5013 260.672 65.5013 257.061 Q65.5013 253.45 63.1633 251.343 Q60.8254 249.237 56.8208 249.237 Q54.9458 249.237 53.0708 249.653 Q51.2189 250.07 49.2745 250.95 L49.2745 233.589 Z" fill="#000000" fill-rule="evenodd" fill-opacity="1" /><path clip-path="url(#clip350)" d="M58.6495 181.13 Q55.5013 181.13 53.6495 183.283 Q51.8208 185.436 51.8208 189.186 Q51.8208 192.913 53.6495 195.089 Q55.5013 197.241 58.6495 197.241 Q61.7976 197.241 63.6263 195.089 Q65.4781 192.913 65.4781 189.186 Q65.4781 185.436 63.6263 183.283 Q61.7976 181.13 58.6495 181.13 M67.9318 166.478 L67.9318 170.737 Q66.1726 169.904 64.367 169.464 Q62.5846 169.024 60.8254 169.024 Q56.1958 169.024 53.7421 172.149 Q51.3115 175.274 50.9643 181.593 Q52.33 179.579 54.3902 178.515 Q56.4504 177.427 58.9272 177.427 Q64.1355 177.427 67.1448 180.598 Q70.1772 183.746 70.1772 189.186 Q70.1772 194.51 67.029 197.727 Q63.8809 200.945 58.6495 200.945 Q52.6541 200.945 49.4828 196.362 Q46.3116 191.755 46.3116 183.028 Q46.3116 174.834 50.2004 169.973 Q54.0893 165.089 60.6402 165.089 Q62.3994 165.089 64.1818 165.436 Q65.9874 165.783 67.9318 166.478 Z" fill="#000000" fill-rule="evenodd" fill-opacity="1" /><path clip-path="url(#clip350)" d="M47.9551 97.8389 L70.1772 97.8389 L70.1772 99.8297 L57.6309 132.399 L52.7467 132.399 L64.5522 101.774 L47.9551 101.774 L47.9551 97.8389 Z" fill="#000000" fill-rule="evenodd" fill-opacity="1" /><path clip-path="url(#clip350)" d="M58.3254 48.1121 Q54.9921 48.1121 53.0708 49.8945 Q51.1726 51.6769 51.1726 54.8019 Q51.1726 57.9269 53.0708 59.7093 Q54.9921 61.4917 58.3254 61.4917 Q61.6587 61.4917 63.58 59.7093 Q65.5013 57.9038 65.5013 54.8019 Q65.5013 51.6769 63.58 49.8945 Q61.6819 48.1121 58.3254 48.1121 M53.6495 46.1214 Q50.6402 45.3807 48.9504 43.3205 Q47.2838 41.2603 47.2838 38.2974 Q47.2838 34.1539 50.2236 31.7465 Q53.1865 29.3391 58.3254 29.3391 Q63.4874 29.3391 66.4272 31.7465 Q69.367 34.1539 69.367 38.2974 Q69.367 41.2603 67.6772 43.3205 Q66.0105 45.3807 63.0244 46.1214 Q66.404 46.9084 68.279 49.2001 Q70.1772 51.4918 70.1772 54.8019 Q70.1772 59.825 67.0985 62.5102 Q64.0429 65.1954 58.3254 65.1954 Q52.6078 65.1954 49.5291 62.5102 Q46.4736 59.825 46.4736 54.8019 Q46.4736 51.4918 48.3717 49.2001 Q50.2699 46.9084 53.6495 46.1214 M51.9365 38.7372 Q51.9365 41.4224 53.6032 42.927 Q55.293 44.4316 58.3254 44.4316 Q61.3346 44.4316 63.0244 42.927 Q64.7374 41.4224 64.7374 38.7372 Q64.7374 36.052 63.0244 34.5474 Q61.3346 33.0428 58.3254 33.0428 Q55.293 33.0428 53.6032 34.5474 Q51.9365 36.052 51.9365 38.7372 Z" fill="#000000" fill-rule="evenodd" fill-opacity="1" /><polyline clip-path="url(#clip352)" style="stroke:#009af9; stroke-linecap:round; stroke-linejoin:round; stroke-width:2; stroke-opacity:1; fill:none" points="221.212,441.209 223.524,451.926 225.836,453.205 228.148,457.994 230.46,455.549 232.772,461.96 235.085,445.204 237.397,314.166 239.709,317.55 242.021,311.501 244.333,325.617 246.645,316.968 248.957,313.509 251.269,316.104 253.581,322.275 255.893,321.628 258.205,321.431 260.517,312.991 262.829,304.496 265.141,312.505 267.453,323.483 269.765,321.948 272.077,310.63 274.389,341.667 276.701,320.725 279.013,332.198 281.325,305.306 283.637,328.7 285.949,316.098 288.261,325.493 290.573,442.933 292.885,335.174 295.197,457.401 297.509,192.874 299.821,190.48 302.133,173.927 304.445,180.493 306.757,187.515 309.069,191.228 311.381,445.306 313.693,442.828 316.005,179.841 318.317,177.993 320.629,187.693 322.941,176.145 325.253,178.093 327.565,168.334 329.877,168.691 332.189,192.714 334.501,181.164 336.813,187.969 339.125,182.191 341.437,193.939 343.749,171.967 346.061,178.193 348.373,184.787 350.685,168.19 352.997,184.394 355.309,197.306 357.621,166.413 359.933,176.957 362.245,188.276 364.557,185.937 366.869,164.932 369.181,168.295 371.493,187.772 373.805,189.388 376.117,185.713 378.429,176.345 380.741,177.394 383.053,165.867 385.365,177.285 387.677,192.126 389.989,194.719 392.301,201.475 394.614,178.081 396.926,190.605 399.238,185.862 401.55,179.923 403.862,190.89 406.174,193.365 408.486,171.178 410.798,172.28 413.11,173.793 415.422,181.798 417.734,179.084 420.046,180.633 422.358,170.035 424.67,165.035 426.982,164.859 429.294,189.863 431.606,189.098 433.918,179.03 436.23,183.85 438.542,190.533 440.854,453.302 443.166,320.47 445.478,186.435 447.79,194.871 450.102,180.802 452.414,171.519 454.726,181.457 457.038,194.257 459.35,179.582 461.662,174.57 463.974,175.107 466.286,177.032 468.598,167.256 470.91,179.318 473.222,174.088 475.534,179.961 477.846,186.51 480.158,452.286 482.47,330.671 484.782,299.637 487.094,316.66 489.406,311.373 491.718,318.384 494.03,310.747 496.342,321.897 498.654,314.182 500.966,328.644 503.278,302.16 505.59,317.509 507.902,327.372 510.214,323.779 512.526,325.657 514.838,325.486 517.15,329.533 519.462,315.959 521.774,303.71 524.086,304.062 526.398,299.966 528.71,295.231 531.022,304.687 533.334,316.91 535.646,315.322 537.958,318.113 540.27,328.89 542.582,315.133 544.894,449.061 547.206,195.32 549.518,174.822 551.83,181.37 554.143,171.586 556.455,190.865 558.767,175.983 561.079,181.227 563.391,190.994 565.703,174.628 568.015,188.604 570.327,193.057 572.639,190.551 574.951,175.805 577.263,178.902 579.575,192.275 581.887,181.112 584.199,196.885 586.511,185.721 588.823,164.438 591.135,179.584 593.447,180.379 595.759,194.03 598.071,190.009 600.383,193.409 602.695,198.642 605.007,184.411 607.319,187.749 609.631,178.027 611.943,173.362 614.255,182.251 616.567,188.281 618.879,194.887 621.191,184.989 623.503,177.557 625.815,173.632 628.127,165.324 630.439,179.41 632.751,177.161 635.063,184.168 637.375,185.561 639.687,192.427 641.999,196.293 644.311,193.212 646.623,194.975 648.935,196.707 651.247,169.133 653.559,180.548 655.871,178.168 658.183,188.366 660.495,182.716 662.807,174.598 665.119,173.765 667.431,171.17 669.743,192.274 672.055,187.488 674.367,193.715 676.679,182.602 678.991,191.529 681.303,181.45 683.615,173.944 685.927,165.164 688.239,183.914 690.551,181.934 692.863,184.062 695.175,163.716 697.487,177.304 699.799,165.53 702.111,181.417 704.423,185.232 706.735,195.842 709.047,176.989 711.359,176.804 713.672,182.662 715.984,179.025 718.296,175.394 720.608,176.481 722.92,188.455 725.232,186.625 727.544,186.841 729.856,189.342 732.168,181.225 734.48,179.482 736.792,185.091 739.104,186.354 741.416,194.081 743.728,192.725 746.04,176.88 748.352,183.312 750.664,189.892 752.976,178.07 755.288,188.02 757.6,192.694 759.912,182.137 762.224,188.17 764.536,188.934 766.848,172.524 769.16,177.596 771.472,178.359 773.784,177.271 776.096,181.986 778.408,178.567 780.72,192.118 783.032,192.087 785.344,174.243 787.656,188.806 789.968,176.206 792.28,184.139 794.592,189.2 796.904,166.854 799.216,164.196 801.528,173.973 803.84,195.776 806.152,190.627 808.464,182.557 810.776,177.049 813.088,200.513 815.4,185.401 817.712,200.023 820.024,189.904 822.336,189.885 824.648,182.929 826.96,181.825 829.272,183.924 831.584,180.648 833.896,182.94 836.208,194.899 838.52,166.322 840.832,179.481 843.144,183.488 845.456,183.631 847.768,176.813 850.08,196.009 852.392,174.615 854.704,187.361 857.016,179.388 859.328,167.041 861.64,173.979 863.952,187.463 866.264,178.49 868.576,171.084 870.888,189.265 873.201,188.202 875.513,180.386 877.825,174.313 880.137,192.022 882.449,307.96 884.761,317.452 887.073,313.649 889.385,319.528 891.697,322.583 894.009,445.439 896.321,174.082 898.633,450.619 900.945,310.227 903.257,190.413 905.569,175.71 907.881,193.601 910.193,178.761 912.505,194.392 914.817,188.708 917.129,178.403 919.441,189.934 921.753,185.434 924.065,191.607 926.377,179.526 928.689,179.893 931.001,188.979 933.313,198.876 935.625,185.386 937.937,162.137 940.249,480.957 942.561,443.769 944.873,454.515 947.185,443.402 949.497,188.888 951.809,170.077 954.121,179.447 956.433,182.47 958.745,178.402 961.057,160.103 963.369,172.008 965.681,184.848 967.993,175.288 970.305,185.283 972.617,167.121 974.929,187.115 977.241,184.397 979.553,180.904 981.865,180.356 984.177,173.958 986.489,180.999 988.801,183.695 991.113,196.207 993.425,317.26 995.737,193.183 998.049,312.236 1000.36,454.302 1002.67,446.763 1004.99,303.103 1007.3,454.741 1009.61,454.253 1011.92,453.86 1014.23,463.478 1016.55,453.382 1018.86,455.366 1021.17,447.721 1023.48,452.263 1025.79,453.186 1028.11,460.805 1030.42,445.33 1032.73,445.642 1035.04,439.189 1037.35,454.633 1039.67,446.583 1041.98,448.247 1044.29,301.379 1046.6,307.195 1048.91,322.182 1051.23,315.193 1053.54,318.917 1055.85,320.106 1058.16,321.661 1060.47,183.144 1062.79,190.237 1065.1,179.212 1067.41,171.211 1069.72,173.318 1072.03,183.144 1074.35,163.016 1076.66,177.435 1078.97,178.365 1081.28,161.627 1083.59,330.237 1085.91,325.041 1088.22,318.369 1090.53,307.092 1092.84,316.452 1095.15,323.204 1097.47,325.304 1099.78,326.54 1102.09,442.514 1104.4,451.74 1106.71,339.057 1109.03,304.852 1111.34,317.325 1113.65,301.796 1115.96,451.639 1118.27,314.947 1120.59,195.158 1122.9,173.449 1125.21,179.027 1127.52,309.023 1129.83,200.815 1132.15,194.147 1134.46,185.859 1136.77,173.847 1139.08,181.568 1141.39,176.687 1143.71,184.207 1146.02,172.957 1148.33,178.076 1150.64,176.572 1152.95,176.948 1155.27,184.226 1157.58,185.892 1159.89,201.947 1162.2,174.761 1164.51,184.51 1166.83,178.943 1169.14,191.356 1171.45,171.686 1173.76,174.492 1176.07,176.179 1178.39,176.316 1180.7,183.765 1183.01,182.839 1185.32,194.448 1187.63,172.128 1189.95,188.041 1192.26,171.156 1194.57,166.281 1196.88,185.032 1199.19,168.587 1201.51,168.15 1203.82,188.188 1206.13,181.976 1208.44,168.312 1210.75,190.16 1213.07,185.566 1215.38,174.62 1217.69,180.202 1220,169.633 1222.31,183.541 1224.63,186.043 1226.94,175.58 1229.25,180.109 1231.56,185.413 1233.87,178.179 1236.19,191.736 1238.5,187.964 1240.81,177.86 1243.12,174.055 1245.43,204.581 1247.75,171.674 1250.06,196.83 1252.37,186.071 1254.68,200.305 1256.99,180.02 1259.31,198.265 1261.62,186.967 1263.93,167.173 1266.24,193.949 1268.55,189.077 1270.87,184.75 1273.18,189.256 1275.49,178.384 1277.8,185.464 1280.12,179.679 1282.43,196.897 1284.74,179.315 1287.05,186.819 1289.36,178.721 1291.68,195.745 1293.99,184.365 1296.3,186.956 1298.61,193.97 1300.92,194.036 1303.24,187.644 1305.55,189.628 1307.86,178.469 1310.17,453.037 1312.48,452.707 1314.8,457.231 1317.11,185.221 1319.42,176.488 1321.73,184.954 1324.04,166.198 1326.36,173.326 1328.67,197.389 1330.98,182.342 1333.29,174.304 1335.6,190.824 1337.92,189.232 1340.23,200.534 1342.54,444.197 1344.85,317.912 1347.16,309.583 1349.48,322.736 1351.79,303.695 1354.1,300.076 1356.41,309.355 1358.72,331.248 1361.04,331.794 1363.35,328.141 1365.66,330.122 1367.97,325.962 1370.28,320.302 1372.6,315.297 1374.91,319.118 1377.22,325.356 1379.53,297.847 1381.84,319.219 1384.16,306.964 1386.47,321.386 1388.78,314.468 1391.09,322.818 1393.4,318.791 1395.72,315.501 1398.03,320.458 1400.34,327.043 1402.65,335.286 1404.96,305.925 1407.28,323.63 1409.59,321.54 1411.9,330.073 1414.21,322.135 1416.52,320.912 1418.84,320.774 1421.15,318.753 1423.46,311.444 1425.77,317.302 1428.08,322.181 1430.4,315.296 1432.71,322.621 1435.02,317.839 1437.33,321.592 1439.64,297.624 1441.96,310.938 1444.27,319.909 1446.58,318.865 1448.89,309.142 1451.2,296.97 1453.52,316.631 1455.83,331.059 1458.14,321.74 1460.45,336.627 1462.76,312.195 1465.08,321.849 1467.39,320.351 1469.7,321.724 1472.01,314.831 1474.32,310.601 1476.64,313.287 1478.95,323.196 1481.26,319.778 1483.57,310.605 1485.88,321.551 1488.2,320.703 1490.51,446.996 1492.82,333.471 1495.13,463.584 1497.44,198.459 1499.76,190.309 1502.07,182.788 1504.38,160.692 1506.69,171.938 1509,166.277 1511.32,180.79 1513.63,185.962 1515.94,199.137 1518.25,190.497 1520.56,186.571 1522.88,191.256 1525.19,178.822 1527.5,185.04 1529.81,191.112 1532.12,167.385 1534.44,168.769 1536.75,183.188 1539.06,185.002 1541.37,173.678 1543.68,183.185 1546,171.423 1548.31,174.902 1550.62,168.805 1552.93,184.221 1555.24,183.816 1557.56,187.327 1559.87,188.505 1562.18,187.743 1564.49,194.908 1566.8,179.459 1569.12,187.025 1571.43,181.665 1573.74,174.666 1576.05,172.219 1578.36,182.696 1580.68,182.775 1582.99,181.673 1585.3,188.535 1587.61,180.487 1589.92,176.063 1592.24,177.737 1594.55,176.374 1596.86,188.189 1599.17,194.302 1601.49,185.833 1603.8,198.14 1606.11,181.732 1608.42,183.134 1610.73,168.095 1613.05,199.123 1615.36,179.46 1617.67,187.595 1619.98,195.041 1622.29,178.55 1624.61,172.68 1626.92,174.286 1629.23,175.016 1631.54,170.882 1633.85,188.763 1636.17,179.088 1638.48,177.479 1640.79,174.967 1643.1,189.786 1645.41,185.654 1647.73,183.895 1650.04,181.701 1652.35,174.344 1654.66,181.376 1656.97,186.055 1659.29,176.286 1661.6,179.151 1663.91,178.299 1666.22,181.691 1668.53,178.925 1670.85,190.296 1673.16,183.435 1675.47,190.663 1677.78,174.925 1680.09,194.701 1682.41,175.201 1684.72,177.407 1687.03,182.7 1689.34,180.75 1691.65,198.246 1693.97,181.874 1696.28,310.548 1698.59,311.006 1700.9,327.846 1703.21,307.861 1705.53,306.201 1707.84,314.587 1710.15,302.253 1712.46,311.111 1714.77,313.255 1717.09,333.7 1719.4,327.398 1721.71,330.151 1724.02,313.921 1726.33,321.974 1728.65,311.535 1730.96,333.271 1733.27,321.366 1735.58,321.926 1737.89,306.553 1740.21,317.146 1742.52,324.041 1744.83,327.849 1747.14,316.235 1749.45,315.012 1751.77,323.823 1754.08,320.42 1756.39,326.995 1758.7,317.546 1761.01,310.731 1763.33,316.02 1765.64,317.24 1767.95,314.488 1770.26,316.695 1772.57,313.744 1774.89,306.664 1777.2,320.327 1779.51,324.066 1781.82,331.609 1784.13,317.273 1786.45,332.963 1788.76,315.509 1791.07,309.928 1793.38,306.859 1795.69,325.676 1798.01,325.745 1800.32,321.438 1802.63,308.676 1804.94,192.704 1807.25,194.1 1809.57,177.005 1811.88,193.386 1814.19,181.458 1816.5,180.561 1818.81,192.432 1821.13,184.689 1823.44,178.693 1825.75,196.008 1828.06,168.905 1830.37,175.454 1832.69,179.949 1835,170.763 1837.31,178.752 1839.62,176.321 1841.93,187.305 1844.25,171.958 1846.56,188.463 1848.87,178.208 1851.18,184.229 1853.49,184.264 1855.81,178.06 1858.12,180.791 1860.43,199.258 1862.74,189.113 1865.05,178.859 1867.37,185.304 1869.68,189.787 1871.99,186.718 1874.3,182.48 1876.61,170.987 1878.93,182.578 1881.24,189.078 1883.55,176.683 1885.86,180.129 1888.17,179.981 1890.49,170.242 1892.8,198.296 1895.11,192.871 1897.42,177.079 1899.73,170.656 1902.05,182.861 1904.36,186.702 1906.67,181.303 1908.98,178.088 1911.29,182.732 1913.61,190.55 1915.92,188.683 1918.23,184.405 1920.54,186.673 1922.86,193.876 1925.17,180.584 1927.48,185.918 1929.79,187.068 1932.1,170.117 1934.42,184.584 1936.73,169.387 1939.04,191.685 1941.35,169.595 1943.66,191.197 1945.98,175.852 1948.29,198.502 1950.6,184.68 1952.91,203.533 1955.22,175.177 1957.54,173.456 1959.85,197.626 1962.16,176.885 1964.47,183.914 1966.78,177.456 1969.1,172.927 1971.41,185.814 1973.72,180.753 1976.03,161.483 1978.34,172.981 1980.66,186.039 1982.97,169.674 1985.28,202.468 1987.59,203.596 1989.9,178.871 1992.22,181.408 1994.53,179.803 1996.84,169.782 1999.15,184.181 2001.46,183.797 2003.78,197.885 2006.09,185.937 2008.4,192.164 2010.71,192.299 2013.02,180.387 2015.34,190.073 2017.65,186.374 2019.96,191.279 2022.27,181.701 2024.58,183.198 2026.9,181.231 2029.21,187.572 2031.52,192.926 2033.83,196.707 2036.14,171.497 2038.46,180.549 2040.77,181.528 2043.08,191.535 2045.39,197.744 2047.7,183.382 2050.02,191.412 2052.33,183.384 2054.64,186.316 2056.95,183.465 2059.26,173.815 2061.58,196.574 2063.89,187.218 2066.2,187.309 2068.51,194.632 2070.82,185.128 2073.14,187.419 2075.45,183.495 2077.76,171.73 2080.07,179.474 2082.38,170.111 2084.7,178.673 2087.01,198.073 2089.32,185.677 2091.63,181.344 2093.94,185.21 2096.26,178.566 2098.57,185.815 2100.88,190.229 2103.19,178.502 2105.5,188.902 2107.82,180.071 2110.13,173.838 2112.44,198.558 2114.75,179.317 2117.06,178.024 2119.38,178.108 2121.69,166.212 2124,168.164 2126.31,184.315 2128.62,183.622 2130.94,182.343 2133.25,179.652 2135.56,182.481 2137.87,193.126 2140.18,194.947 2142.5,179.888 2144.81,178.53 2147.12,179.043 2149.43,179.928 2151.74,169.602 2154.06,177.733 2156.37,181.632 2158.68,187.21 2160.99,176.162 2163.3,179.275 2165.62,185.133 2167.93,184.359 2170.24,171.007 2172.55,179.967 2174.86,185.155 2177.18,196.04 2179.49,175.293 2181.8,183.868 2184.11,194.683 2186.42,188.482 2188.74,192.516 2191.05,177.113 2193.36,180.621 2195.67,187.566 2197.98,167.221 2200.3,188.827 2202.61,173.372 2204.92,191.691 2207.23,170.744 2209.54,189.916 2211.86,186.784 2214.17,183.586 2216.48,171.27 2218.79,179.865 2221.1,187.225 2223.42,169.183 2225.73,186.722 2228.04,195.74 2230.35,167.505 2232.67,169.52 2234.98,183.038 2237.29,166.963 2239.6,162.131 2241.91,194.288 2244.23,185.573 2246.54,190.373 2248.85,193.737 2251.16,189.007 2253.47,173.7 2255.79,170.915 2258.1,158.531 2260.41,193.79 2262.72,178.091 2265.03,192.012 2267.35,183.41 2269.66,193.986 2271.97,180.787 2274.28,181.88 2276.59,178.722 2278.91,172.015 2281.22,175.018 2283.53,181.404 2285.84,166.404 2288.15,190.585 2290.47,180.55 2292.78,173.774 2295.09,194.176 2297.4,178.885 2299.71,180.866 2302.03,174.756 2304.34,192.567 2306.65,195.531 2308.96,185.605 2311.27,165.01 2313.59,186.881 2315.9,188.219 2318.21,177.732 2320.52,184.029 2322.83,192.866 2325.15,188.214 2327.46,174.159 2329.77,179.576 2332.08,179.267 2334.39,176.524 2336.71,183.212 2339.02,174.012 2341.33,184.427 2343.64,185.458 2345.95,185.09 2348.27,186.141 2350.58,181.028 2352.89,186.373 2355.2,176.283 2357.51,184.034 2359.83,189.62 2362.14,184.291 2364.45,200.356 2366.76,183.957 2369.07,167.367 2371.39,172.594 2373.7,188.449 2376.01,177.355 2378.32,185.861 2380.63,202.257 2382.95,185.282 2385.26,180.103 2387.57,183.092 2389.88,183.483 2392.19,165.648 2394.51,189.01 2396.82,196.985 2399.13,169.325 2401.44,195.525 2403.75,190.159 2406.07,184.361 2408.38,180.753 2410.69,175.519 2413,189.742 2415.31,181.115 2417.63,181.988 2419.94,176.275 2422.25,194.979 2424.56,177.068 2426.87,183.028 2429.19,178.002 2431.5,178.853 2433.81,176.012 2436.12,196.898 2438.43,167.606 2440.75,191.786 2443.06,198.025 2445.37,187.03 2447.68,185.926 2449.99,175.229 2452.31,185.47 2454.62,186.186 2456.93,184.7 2459.24,177.69 2461.55,173.776 2463.87,198.552 2466.18,184.091 2468.49,179.58 2470.8,172.39 2473.11,192.265 2475.43,172.292 2477.74,188.596 2480.05,187.339 2482.36,177.248 2484.67,192.081 2486.99,185.414 2489.3,195.169 2491.61,178.424 2493.92,184.086 2496.23,183.359 2498.55,181.294 2500.86,178.491 2503.17,202.231 2505.48,185.375 2507.79,174.85 2510.11,169.845 2512.42,179.576 2514.73,177.237 2517.04,178.686 2519.35,187.055 2521.67,183.327 2523.98,175.569 2526.29,191.904 2528.6,175.858 2530.91,175.229 2533.23,178.831 2535.54,190.854 2537.85,186.373 2540.16,175.091 2542.47,180.687 2544.79,185.637 2547.1,169.46 2549.41,189.546 2551.72,174.928 2554.04,181.014 2556.35,192.455 2558.66,178.985 2560.97,184.123 2563.28,179.63 2565.6,181.177 2567.91,176.605 2570.22,187.607 2572.53,175.36 2574.84,188.167 2577.16,186.916 2579.47,190.438 2581.78,186.489 2584.09,171.669 2586.4,182.674 2588.72,189.104 2591.03,173.861 2593.34,178.869 2595.65,168.291 2597.96,180.944 2600.28,188.04 2602.59,171.334 2604.9,175.323 2607.21,174.794 2609.52,180.556 2611.84,187.653 2614.15,190.232 2616.46,186.28 2618.77,167.249 2621.08,179.545 2623.4,170.427 2625.71,173.56 2628.02,178.265 2630.33,191.793 2632.64,180.85 2634.96,182.31 2637.27,194.76 2639.58,176.278 2641.89,184.664 2644.2,179.196 2646.52,180.535 2648.83,168.127 2651.14,182.08 2653.45,188.178 2655.76,189.112 2658.08,176.564 2660.39,187.036 2662.7,174.136 2665.01,186.756 2667.32,180.159 2669.64,167.204 2671.95,195.159 2674.26,187.093 2676.57,192.962 2678.88,197.06 2681.2,175.03 2683.51,198.097 2685.82,191.112 2688.13,189.345 2690.44,173.512 2692.76,158.139 2695.07,194.998 2697.38,184.033 2699.69,175.123 2702,184.317 2704.32,189.899 2706.63,175.391 2708.94,173.66 2711.25,178.716 2713.56,191.831 2715.88,181.067 2718.19,187.221 2720.5,176.388 2722.81,188.936 2725.12,180.111 2727.44,174.227 2729.75,185.792 2732.06,181.455 2734.37,181.397 2736.68,187.094 2739,176.531 2741.31,181.157 2743.62,186.168 2745.93,172.623 2748.24,180.788 2750.56,184.922 2752.87,172.164 2755.18,176.524 2757.49,178.49 2759.8,183.447 2762.12,177.08 2764.43,195.358 2766.74,169.871 2769.05,186.732 2771.36,188.614 2773.68,178.696 2775.99,185.874 2778.3,178.718 2780.61,174.003 2782.92,177.972 2785.24,180.521 2787.55,180.097 2789.86,174.428 2792.17,180.04 2794.48,184.111 2796.8,201.023 2799.11,182.047 2801.42,175.848 2803.73,195.151 2806.04,190.268 2808.36,177.573 2810.67,191.388 2812.98,191.417 2815.29,193.134 2817.6,185.011 2819.92,190.297 2822.23,176.186 2824.54,184.788 2826.85,191.481 2829.16,188.637 2831.48,176.869 2833.79,168.164 2836.1,187.312 2838.41,195.78 2840.72,190.761 2843.04,191.011 2845.35,191.557 2847.66,200.818 2849.97,185.305 2852.28,194.177 2854.6,181.358 2856.91,176.283 2859.22,174.608 2861.53,181.08 2863.84,194.661 2866.16,191.017 2868.47,186.365 2870.78,180.754 2873.09,200.916 2875.41,184.892 2877.72,155.216 2880.03,171.753 2882.34,179.744 2884.65,193.901 2886.97,184.556 2889.28,176.402 2891.59,187.514 2893.9,181.967 2896.21,169.475 2898.53,188.923 2900.84,187.869 2903.15,170.099 2905.46,166.989 2907.77,166.614 2910.09,174.486 2912.4,196.412 2914.71,182.124 2917.02,178.512 2919.33,175.723 2921.65,185.707 2923.96,180.333 2926.27,172.812 2928.58,178.622 2930.89,176.987 2933.21,171.065 2935.52,164.517 2937.83,186.308 2940.14,177.697 2942.45,184.659 2944.77,175.076 2947.08,178.662 2949.39,187.305 2951.7,174.205 2954.01,184.01 2956.33,179.92 2958.64,195.24 2960.95,194.823 2963.26,167.102 2965.57,196.093 2967.89,183.655 2970.2,185.803 2972.51,167.45 2974.82,189.121 2977.13,181.017 2979.45,178.101 2981.76,182.161 2984.07,187.262 2986.38,183.864 2988.69,184.63 2991.01,192.407 2993.32,176.609 2995.63,198.952 2997.94,169.726 3000.25,185.786 3002.57,172.75 3004.88,193.355 3007.19,192.394 3009.5,184.341 3011.81,169.126 3014.13,177.487 3016.44,194.338 3018.75,198.53 3021.06,160.117 3023.37,179.521 3025.69,185.357 3028,197.409 3030.31,178.887 3032.62,191.919 3034.93,182.019 3037.25,184.779 3039.56,175.734 3041.87,182.77 3044.18,174.992 3046.49,179.322 3048.81,189.588 3051.12,186.626 3053.43,186.1 3055.74,178.139 3058.05,168.736 3060.37,192.437 3062.68,183.245 3064.99,194.008 3067.3,176.489 3069.61,178.443 3071.93,187.725 3074.24,175.274 3076.55,183.686 3078.86,190.253 3081.17,173.731 3083.49,186.153 3085.8,173.196 3088.11,185.124 3090.42,183.704 3092.73,189.636 3095.05,182.632 3097.36,185.035 3099.67,174.857 3101.98,180.771 3104.29,182.658 3106.61,194.143 3108.92,173.12 3111.23,181.959 3113.54,183.522 3115.85,183.181 3118.17,179.836 3120.48,190.393 3122.79,188.79 3125.1,179.205 3127.41,176.498 3129.73,192.376 3132.04,184.33 3134.35,176.302 3136.66,197.308 3138.97,167.944 3141.29,186.287 3143.6,178.796 3145.91,192.148 3148.22,195.164 3150.53,188.427 3152.85,189.698 3155.16,180.674 3157.47,175.703 3159.78,184.166 3162.09,181.447 3164.41,182.563 3166.72,179.422 3169.03,173.319 3171.34,185.544 3173.65,190.337 3175.97,176.982 3178.28,188.186 3180.59,193.992 3182.9,184.506 3185.21,184.144 3187.53,188.343 3189.84,189.982 3192.15,195.525 3194.46,191.943 3196.78,193.183 3199.09,181.073 3201.4,193.374 3203.71,181.746 3206.02,178.993 3208.34,173.223 3210.65,173.183 3212.96,187.381 3215.27,201.799 3217.58,183.501 3219.9,192.434 3222.21,178.374 3224.52,169.288 3226.83,185.163 3229.14,164.191 3231.46,171.706 3233.77,182.682 3236.08,181.487 3238.39,190.525 3240.7,184.225 3243.02,181.081 3245.33,183.581 3247.64,182.402 3249.95,185.066 3252.26,171.696 3254.58,319.379 3256.89,468.836 3259.2,450.512 3261.51,186.274 3263.82,176.336 3266.14,182.105 3268.45,203.994 3270.76,173.226 3273.07,193.84 3275.38,170.319 3277.7,171.64 3280.01,184.401 3282.32,181.472 3284.63,184.72 3286.94,182.166 3289.26,179.946 3291.57,183.519 3293.88,179.969 3296.19,200.712 3298.5,181.181 3300.82,185.583 3303.13,192.351 3305.44,191.108 3307.75,203.551 3310.06,177.788 3312.38,182.259 3314.69,188.248 3317,187.035 3319.31,174.044 3321.62,184.955 3323.94,180.32 3326.25,177.476 3328.56,193.794 3330.87,183.038 3333.18,176.886 3335.5,193.273 3337.81,181.528 3340.12,175.4 3342.43,167.281 3344.74,180.698 3347.06,170.727 3349.37,167.833 3351.68,173.318 3353.99,187.434 3356.3,178.587 3358.62,185.624 3360.93,173.832 3363.24,183.893 3365.55,179.649 3367.86,185.921 3370.18,192.083 3372.49,184.975 3374.8,176.3 3377.11,169.319 3379.42,184.88 3381.74,176.206 3384.05,183.316 3386.36,181.522 3388.67,162.248 3390.98,190.081 3393.3,191.96 3395.61,181.237 3397.92,186.126 3400.23,186.089 3402.54,178.059 3404.86,194.699 3407.17,174.007 3409.48,189.331 3411.79,181.309 3414.1,181.307 3416.42,191.884 3418.73,172.897 3421.04,195.288 3423.35,179.785 3425.66,450.354 3427.98,445.183 3430.29,321.636 3432.6,305.966 3434.91,299.99 3437.22,322.303 3439.54,303.8 3441.85,310.772 3444.16,312.408 3446.47,319.63 3448.78,320.166 3451.1,316.219 3453.41,311.05 3455.72,315.037 "/>
<path clip-path="url(#clip350)" d="M2943.23 166.762 L3438.47 166.762 L3438.47 63.0816 L2943.23 63.0816  Z" fill="#ffffff" fill-rule="evenodd" fill-opacity="1"/>
<polyline clip-path="url(#clip350)" style="stroke:#000000; stroke-linecap:round; stroke-linejoin:round; stroke-width:4; stroke-opacity:1; fill:none" points="2943.23,166.762 3438.47,166.762 3438.47,63.0816 2943.23,63.0816 2943.23,166.762 "/>
<polyline clip-path="url(#clip350)" style="stroke:#009af9; stroke-linecap:round; stroke-linejoin:round; stroke-width:2; stroke-opacity:1; fill:none" points="2981.32,114.922 3209.9,114.922 "/>
<path clip-path="url(#clip350)" d="M3247.99 97.6416 L3252.71 97.6416 L3259.98 126.854 L3267.23 97.6416 L3272.48 97.6416 L3279.75 126.854 L3287 97.6416 L3291.74 97.6416 L3283.06 132.202 L3277.18 132.202 L3269.89 102.202 L3262.53 132.202 L3256.65 132.202 L3247.99 97.6416 Z" fill="#000000" fill-rule="evenodd" fill-opacity="1" /><path clip-path="url(#clip350)" d="M3297.94 97.6416 L3302.62 97.6416 L3302.62 111.808 L3319.61 111.808 L3319.61 97.6416 L3324.29 97.6416 L3324.29 132.202 L3319.61 132.202 L3319.61 115.743 L3302.62 115.743 L3302.62 132.202 L3297.94 132.202 L3297.94 97.6416 Z" fill="#000000" fill-rule="evenodd" fill-opacity="1" /><path clip-path="url(#clip350)" d="M3333.59 97.6416 L3340.56 97.6416 L3349.38 121.16 L3358.25 97.6416 L3365.21 97.6416 L3365.21 132.202 L3360.65 132.202 L3360.65 101.854 L3351.74 125.558 L3347.04 125.558 L3338.13 101.854 L3338.13 132.202 L3333.59 132.202 L3333.59 97.6416 Z" fill="#000000" fill-rule="evenodd" fill-opacity="1" /><path clip-path="url(#clip350)" d="M3400.37 100.304 L3400.37 105.234 Q3398.01 103.035 3395.33 101.947 Q3392.67 100.859 3389.66 100.859 Q3383.73 100.859 3380.58 104.493 Q3377.43 108.104 3377.43 114.956 Q3377.43 121.785 3380.58 125.419 Q3383.73 129.03 3389.66 129.03 Q3392.67 129.03 3395.33 127.942 Q3398.01 126.854 3400.37 124.655 L3400.37 129.54 Q3397.92 131.206 3395.17 132.04 Q3392.43 132.873 3389.38 132.873 Q3381.53 132.873 3377.02 128.081 Q3372.5 123.266 3372.5 114.956 Q3372.5 106.623 3377.02 101.831 Q3381.53 97.0166 3389.38 97.0166 Q3392.48 97.0166 3395.21 97.8499 Q3397.97 98.6601 3400.37 100.304 Z" fill="#000000" fill-rule="evenodd" fill-opacity="1" /></svg>
