<?xml version="1.0" encoding="utf-8"?>
<svg xmlns="http://www.w3.org/2000/svg" xmlns:xlink="http://www.w3.org/1999/xlink" width="900" height="150" viewBox="0 0 3600 600">
<defs>
  <clipPath id="clip550">
    <rect x="0" y="0" width="3600" height="600"/>
  </clipPath>
</defs>
<path clip-path="url(#clip550)" d="M0 600 L3600 600 L3600 0 L0 0  Z" fill="#ffffff" fill-rule="evenodd" fill-opacity="1"/>
<defs>
  <clipPath id="clip551">
    <rect x="720" y="0" width="2521" height="600"/>
  </clipPath>
</defs>
<path clip-path="url(#clip550)" d="M124.177 522.368 L3552.76 522.368 L3552.76 47.2441 L124.177 47.2441  Z" fill="#ffffff" fill-rule="evenodd" fill-opacity="1"/>
<defs>
  <clipPath id="clip552">
    <rect x="124" y="47" width="3430" height="476"/>
  </clipPath>
</defs>
<polyline clip-path="url(#clip552)" style="stroke:#000000; stroke-linecap:round; stroke-linejoin:round; stroke-width:2; stroke-opacity:0.1; fill:none" points="219.892,522.368 219.892,47.2441 "/>
<polyline clip-path="url(#clip552)" style="stroke:#000000; stroke-linecap:round; stroke-linejoin:round; stroke-width:2; stroke-opacity:0.1; fill:none" points="880.265,522.368 880.265,47.2441 "/>
<polyline clip-path="url(#clip552)" style="stroke:#000000; stroke-linecap:round; stroke-linejoin:round; stroke-width:2; stroke-opacity:0.1; fill:none" points="1540.64,522.368 1540.64,47.2441 "/>
<polyline clip-path="url(#clip552)" style="stroke:#000000; stroke-linecap:round; stroke-linejoin:round; stroke-width:2; stroke-opacity:0.1; fill:none" points="2201.01,522.368 2201.01,47.2441 "/>
<polyline clip-path="url(#clip552)" style="stroke:#000000; stroke-linecap:round; stroke-linejoin:round; stroke-width:2; stroke-opacity:0.1; fill:none" points="2861.38,522.368 2861.38,47.2441 "/>
<polyline clip-path="url(#clip552)" style="stroke:#000000; stroke-linecap:round; stroke-linejoin:round; stroke-width:2; stroke-opacity:0.1; fill:none" points="3521.76,522.368 3521.76,47.2441 "/>
<polyline clip-path="url(#clip550)" style="stroke:#000000; stroke-linecap:round; stroke-linejoin:round; stroke-width:4; stroke-opacity:1; fill:none" points="124.177,522.368 3552.76,522.368 "/>
<polyline clip-path="url(#clip550)" style="stroke:#000000; stroke-linecap:round; stroke-linejoin:round; stroke-width:4; stroke-opacity:1; fill:none" points="219.892,522.368 219.892,503.47 "/>
<polyline clip-path="url(#clip550)" style="stroke:#000000; stroke-linecap:round; stroke-linejoin:round; stroke-width:4; stroke-opacity:1; fill:none" points="880.265,522.368 880.265,503.47 "/>
<polyline clip-path="url(#clip550)" style="stroke:#000000; stroke-linecap:round; stroke-linejoin:round; stroke-width:4; stroke-opacity:1; fill:none" points="1540.64,522.368 1540.64,503.47 "/>
<polyline clip-path="url(#clip550)" style="stroke:#000000; stroke-linecap:round; stroke-linejoin:round; stroke-width:4; stroke-opacity:1; fill:none" points="2201.01,522.368 2201.01,503.47 "/>
<polyline clip-path="url(#clip550)" style="stroke:#000000; stroke-linecap:round; stroke-linejoin:round; stroke-width:4; stroke-opacity:1; fill:none" points="2861.38,522.368 2861.38,503.47 "/>
<polyline clip-path="url(#clip550)" style="stroke:#000000; stroke-linecap:round; stroke-linejoin:round; stroke-width:4; stroke-opacity:1; fill:none" points="3521.76,522.368 3521.76,503.47 "/>
<path clip-path="url(#clip550)" d="M219.892 562.887 Q216.281 562.887 214.452 566.451 Q212.646 569.993 212.646 577.123 Q212.646 584.229 214.452 587.794 Q216.281 591.335 219.892 591.335 Q223.526 591.335 225.331 587.794 Q227.16 584.229 227.16 577.123 Q227.16 569.993 225.331 566.451 Q223.526 562.887 219.892 562.887 M219.892 559.183 Q225.702 559.183 228.757 563.789 Q231.836 568.373 231.836 577.123 Q231.836 585.849 228.757 590.456 Q225.702 595.039 219.892 595.039 Q214.082 595.039 211.003 590.456 Q207.947 585.849 207.947 577.123 Q207.947 568.373 211.003 563.789 Q214.082 559.183 219.892 559.183 Z" fill="#000000" fill-rule="evenodd" fill-opacity="1" /><path clip-path="url(#clip550)" d="M839.883 559.808 L858.24 559.808 L858.24 563.743 L844.166 563.743 L844.166 572.215 Q845.184 571.868 846.203 571.706 Q847.221 571.521 848.24 571.521 Q854.027 571.521 857.406 574.692 Q860.786 577.863 860.786 583.28 Q860.786 588.859 857.314 591.96 Q853.841 595.039 847.522 595.039 Q845.346 595.039 843.078 594.669 Q840.832 594.298 838.425 593.558 L838.425 588.859 Q840.508 589.993 842.73 590.548 Q844.953 591.104 847.429 591.104 Q851.434 591.104 853.772 588.998 Q856.11 586.891 856.11 583.28 Q856.11 579.669 853.772 577.562 Q851.434 575.456 847.429 575.456 Q845.554 575.456 843.679 575.873 Q841.828 576.289 839.883 577.169 L839.883 559.808 Z" fill="#000000" fill-rule="evenodd" fill-opacity="1" /><path clip-path="url(#clip550)" d="M879.999 562.887 Q876.388 562.887 874.559 566.451 Q872.753 569.993 872.753 577.123 Q872.753 584.229 874.559 587.794 Q876.388 591.335 879.999 591.335 Q883.633 591.335 885.439 587.794 Q887.267 584.229 887.267 577.123 Q887.267 569.993 885.439 566.451 Q883.633 562.887 879.999 562.887 M879.999 559.183 Q885.809 559.183 888.864 563.789 Q891.943 568.373 891.943 577.123 Q891.943 585.849 888.864 590.456 Q885.809 595.039 879.999 595.039 Q874.189 595.039 871.11 590.456 Q868.054 585.849 868.054 577.123 Q868.054 568.373 871.11 563.789 Q874.189 559.183 879.999 559.183 Z" fill="#000000" fill-rule="evenodd" fill-opacity="1" /><path clip-path="url(#clip550)" d="M910.161 562.887 Q906.55 562.887 904.721 566.451 Q902.915 569.993 902.915 577.123 Q902.915 584.229 904.721 587.794 Q906.55 591.335 910.161 591.335 Q913.795 591.335 915.6 587.794 Q917.429 584.229 917.429 577.123 Q917.429 569.993 915.6 566.451 Q913.795 562.887 910.161 562.887 M910.161 559.183 Q915.971 559.183 919.026 563.789 Q922.105 568.373 922.105 577.123 Q922.105 585.849 919.026 590.456 Q915.971 595.039 910.161 595.039 Q904.35 595.039 901.272 590.456 Q898.216 585.849 898.216 577.123 Q898.216 568.373 901.272 563.789 Q904.35 559.183 910.161 559.183 Z" fill="#000000" fill-rule="evenodd" fill-opacity="1" /><path clip-path="url(#clip550)" d="M1485.16 590.433 L1492.8 590.433 L1492.8 564.067 L1484.49 565.734 L1484.49 561.475 L1492.76 559.808 L1497.43 559.808 L1497.43 590.433 L1505.07 590.433 L1505.07 594.368 L1485.16 594.368 L1485.16 590.433 Z" fill="#000000" fill-rule="evenodd" fill-opacity="1" /><path clip-path="url(#clip550)" d="M1524.52 562.887 Q1520.9 562.887 1519.08 566.451 Q1517.27 569.993 1517.27 577.123 Q1517.27 584.229 1519.08 587.794 Q1520.9 591.335 1524.52 591.335 Q1528.15 591.335 1529.96 587.794 Q1531.78 584.229 1531.78 577.123 Q1531.78 569.993 1529.96 566.451 Q1528.15 562.887 1524.52 562.887 M1524.52 559.183 Q1530.33 559.183 1533.38 563.789 Q1536.46 568.373 1536.46 577.123 Q1536.46 585.849 1533.38 590.456 Q1530.33 595.039 1524.52 595.039 Q1518.71 595.039 1515.63 590.456 Q1512.57 585.849 1512.57 577.123 Q1512.57 568.373 1515.63 563.789 Q1518.71 559.183 1524.52 559.183 Z" fill="#000000" fill-rule="evenodd" fill-opacity="1" /><path clip-path="url(#clip550)" d="M1554.68 562.887 Q1551.07 562.887 1549.24 566.451 Q1547.43 569.993 1547.43 577.123 Q1547.43 584.229 1549.24 587.794 Q1551.07 591.335 1554.68 591.335 Q1558.31 591.335 1560.12 587.794 Q1561.95 584.229 1561.95 577.123 Q1561.95 569.993 1560.12 566.451 Q1558.31 562.887 1554.68 562.887 M1554.68 559.183 Q1560.49 559.183 1563.54 563.789 Q1566.62 568.373 1566.62 577.123 Q1566.62 585.849 1563.54 590.456 Q1560.49 595.039 1554.68 595.039 Q1548.87 595.039 1545.79 590.456 Q1542.73 585.849 1542.73 577.123 Q1542.73 568.373 1545.79 563.789 Q1548.87 559.183 1554.68 559.183 Z" fill="#000000" fill-rule="evenodd" fill-opacity="1" /><path clip-path="url(#clip550)" d="M1584.84 562.887 Q1581.23 562.887 1579.4 566.451 Q1577.59 569.993 1577.59 577.123 Q1577.59 584.229 1579.4 587.794 Q1581.23 591.335 1584.84 591.335 Q1588.47 591.335 1590.28 587.794 Q1592.11 584.229 1592.11 577.123 Q1592.11 569.993 1590.28 566.451 Q1588.47 562.887 1584.84 562.887 M1584.84 559.183 Q1590.65 559.183 1593.71 563.789 Q1596.78 568.373 1596.78 577.123 Q1596.78 585.849 1593.71 590.456 Q1590.65 595.039 1584.84 595.039 Q1579.03 595.039 1575.95 590.456 Q1572.89 585.849 1572.89 577.123 Q1572.89 568.373 1575.95 563.789 Q1579.03 559.183 1584.84 559.183 Z" fill="#000000" fill-rule="evenodd" fill-opacity="1" /><path clip-path="url(#clip550)" d="M2145.54 590.433 L2153.18 590.433 L2153.18 564.067 L2144.87 565.734 L2144.87 561.475 L2153.13 559.808 L2157.81 559.808 L2157.81 590.433 L2165.44 590.433 L2165.44 594.368 L2145.54 594.368 L2145.54 590.433 Z" fill="#000000" fill-rule="evenodd" fill-opacity="1" /><path clip-path="url(#clip550)" d="M2174.94 559.808 L2193.29 559.808 L2193.29 563.743 L2179.22 563.743 L2179.22 572.215 Q2180.24 571.868 2181.25 571.706 Q2182.27 571.521 2183.29 571.521 Q2189.08 571.521 2192.46 574.692 Q2195.84 577.863 2195.84 583.28 Q2195.84 588.859 2192.37 591.96 Q2188.89 595.039 2182.57 595.039 Q2180.4 595.039 2178.13 594.669 Q2175.88 594.298 2173.48 593.558 L2173.48 588.859 Q2175.56 589.993 2177.78 590.548 Q2180 591.104 2182.48 591.104 Q2186.49 591.104 2188.82 588.998 Q2191.16 586.891 2191.16 583.28 Q2191.16 579.669 2188.82 577.562 Q2186.49 575.456 2182.48 575.456 Q2180.61 575.456 2178.73 575.873 Q2176.88 576.289 2174.94 577.169 L2174.94 559.808 Z" fill="#000000" fill-rule="evenodd" fill-opacity="1" /><path clip-path="url(#clip550)" d="M2215.05 562.887 Q2211.44 562.887 2209.61 566.451 Q2207.81 569.993 2207.81 577.123 Q2207.81 584.229 2209.61 587.794 Q2211.44 591.335 2215.05 591.335 Q2218.68 591.335 2220.49 587.794 Q2222.32 584.229 2222.32 577.123 Q2222.32 569.993 2220.49 566.451 Q2218.68 562.887 2215.05 562.887 M2215.05 559.183 Q2220.86 559.183 2223.92 563.789 Q2227 568.373 2227 577.123 Q2227 585.849 2223.92 590.456 Q2220.86 595.039 2215.05 595.039 Q2209.24 595.039 2206.16 590.456 Q2203.11 585.849 2203.11 577.123 Q2203.11 568.373 2206.16 563.789 Q2209.24 559.183 2215.05 559.183 Z" fill="#000000" fill-rule="evenodd" fill-opacity="1" /><path clip-path="url(#clip550)" d="M2245.21 562.887 Q2241.6 562.887 2239.77 566.451 Q2237.97 569.993 2237.97 577.123 Q2237.97 584.229 2239.77 587.794 Q2241.6 591.335 2245.21 591.335 Q2248.85 591.335 2250.65 587.794 Q2252.48 584.229 2252.48 577.123 Q2252.48 569.993 2250.65 566.451 Q2248.85 562.887 2245.21 562.887 M2245.21 559.183 Q2251.02 559.183 2254.08 563.789 Q2257.16 568.373 2257.16 577.123 Q2257.16 585.849 2254.08 590.456 Q2251.02 595.039 2245.21 595.039 Q2239.4 595.039 2236.32 590.456 Q2233.27 585.849 2233.27 577.123 Q2233.27 568.373 2236.32 563.789 Q2239.4 559.183 2245.21 559.183 Z" fill="#000000" fill-rule="evenodd" fill-opacity="1" /><path clip-path="url(#clip550)" d="M2810 590.433 L2826.32 590.433 L2826.32 594.368 L2804.37 594.368 L2804.37 590.433 Q2807.03 587.678 2811.62 583.048 Q2816.22 578.396 2817.4 577.053 Q2819.65 574.53 2820.53 572.794 Q2821.43 571.035 2821.43 569.345 Q2821.43 566.59 2819.49 564.854 Q2817.57 563.118 2814.46 563.118 Q2812.26 563.118 2809.81 563.882 Q2807.38 564.646 2804.6 566.197 L2804.6 561.475 Q2807.43 560.34 2809.88 559.762 Q2812.33 559.183 2814.37 559.183 Q2819.74 559.183 2822.94 561.868 Q2826.13 564.553 2826.13 569.044 Q2826.13 571.174 2825.32 573.095 Q2824.53 574.993 2822.43 577.586 Q2821.85 578.257 2818.75 581.474 Q2815.64 584.669 2810 590.433 Z" fill="#000000" fill-rule="evenodd" fill-opacity="1" /><path clip-path="url(#clip550)" d="M2846.13 562.887 Q2842.52 562.887 2840.69 566.451 Q2838.88 569.993 2838.88 577.123 Q2838.88 584.229 2840.69 587.794 Q2842.52 591.335 2846.13 591.335 Q2849.76 591.335 2851.57 587.794 Q2853.4 584.229 2853.4 577.123 Q2853.4 569.993 2851.57 566.451 Q2849.76 562.887 2846.13 562.887 M2846.13 559.183 Q2851.94 559.183 2855 563.789 Q2858.07 568.373 2858.07 577.123 Q2858.07 585.849 2855 590.456 Q2851.94 595.039 2846.13 595.039 Q2840.32 595.039 2837.24 590.456 Q2834.19 585.849 2834.19 577.123 Q2834.19 568.373 2837.24 563.789 Q2840.32 559.183 2846.13 559.183 Z" fill="#000000" fill-rule="evenodd" fill-opacity="1" /><path clip-path="url(#clip550)" d="M2876.29 562.887 Q2872.68 562.887 2870.85 566.451 Q2869.05 569.993 2869.05 577.123 Q2869.05 584.229 2870.85 587.794 Q2872.68 591.335 2876.29 591.335 Q2879.93 591.335 2881.73 587.794 Q2883.56 584.229 2883.56 577.123 Q2883.56 569.993 2881.73 566.451 Q2879.93 562.887 2876.29 562.887 M2876.29 559.183 Q2882.1 559.183 2885.16 563.789 Q2888.24 568.373 2888.24 577.123 Q2888.24 585.849 2885.16 590.456 Q2882.1 595.039 2876.29 595.039 Q2870.48 595.039 2867.4 590.456 Q2864.35 585.849 2864.35 577.123 Q2864.35 568.373 2867.4 563.789 Q2870.48 559.183 2876.29 559.183 Z" fill="#000000" fill-rule="evenodd" fill-opacity="1" /><path clip-path="url(#clip550)" d="M2906.45 562.887 Q2902.84 562.887 2901.01 566.451 Q2899.21 569.993 2899.21 577.123 Q2899.21 584.229 2901.01 587.794 Q2902.84 591.335 2906.45 591.335 Q2910.09 591.335 2911.89 587.794 Q2913.72 584.229 2913.72 577.123 Q2913.72 569.993 2911.89 566.451 Q2910.09 562.887 2906.45 562.887 M2906.45 559.183 Q2912.26 559.183 2915.32 563.789 Q2918.4 568.373 2918.4 577.123 Q2918.4 585.849 2915.32 590.456 Q2912.26 595.039 2906.45 595.039 Q2900.64 595.039 2897.57 590.456 Q2894.51 585.849 2894.51 577.123 Q2894.51 568.373 2897.57 563.789 Q2900.64 559.183 2906.45 559.183 Z" fill="#000000" fill-rule="evenodd" fill-opacity="1" /><path clip-path="url(#clip550)" d="M3470.37 590.433 L3486.69 590.433 L3486.69 594.368 L3464.74 594.368 L3464.74 590.433 Q3467.41 587.678 3471.99 583.048 Q3476.6 578.396 3477.78 577.053 Q3480.02 574.53 3480.9 572.794 Q3481.8 571.035 3481.8 569.345 Q3481.8 566.59 3479.86 564.854 Q3477.94 563.118 3474.84 563.118 Q3472.64 563.118 3470.18 563.882 Q3467.75 564.646 3464.98 566.197 L3464.98 561.475 Q3467.8 560.34 3470.25 559.762 Q3472.71 559.183 3474.74 559.183 Q3480.11 559.183 3483.31 561.868 Q3486.5 564.553 3486.5 569.044 Q3486.5 571.174 3485.69 573.095 Q3484.91 574.993 3482.8 577.586 Q3482.22 578.257 3479.12 581.474 Q3476.02 584.669 3470.37 590.433 Z" fill="#000000" fill-rule="evenodd" fill-opacity="1" /><path clip-path="url(#clip550)" d="M3496.55 559.808 L3514.91 559.808 L3514.91 563.743 L3500.83 563.743 L3500.83 572.215 Q3501.85 571.868 3502.87 571.706 Q3503.89 571.521 3504.91 571.521 Q3510.69 571.521 3514.07 574.692 Q3517.45 577.863 3517.45 583.28 Q3517.45 588.859 3513.98 591.96 Q3510.51 595.039 3504.19 595.039 Q3502.01 595.039 3499.74 594.669 Q3497.5 594.298 3495.09 593.558 L3495.09 588.859 Q3497.17 589.993 3499.4 590.548 Q3501.62 591.104 3504.1 591.104 Q3508.1 591.104 3510.44 588.998 Q3512.78 586.891 3512.78 583.28 Q3512.78 579.669 3510.44 577.562 Q3508.1 575.456 3504.1 575.456 Q3502.22 575.456 3500.35 575.873 Q3498.49 576.289 3496.55 577.169 L3496.55 559.808 Z" fill="#000000" fill-rule="evenodd" fill-opacity="1" /><path clip-path="url(#clip550)" d="M3536.67 562.887 Q3533.05 562.887 3531.23 566.451 Q3529.42 569.993 3529.42 577.123 Q3529.42 584.229 3531.23 587.794 Q3533.05 591.335 3536.67 591.335 Q3540.3 591.335 3542.11 587.794 Q3543.93 584.229 3543.93 577.123 Q3543.93 569.993 3542.11 566.451 Q3540.3 562.887 3536.67 562.887 M3536.67 559.183 Q3542.48 559.183 3545.53 563.789 Q3548.61 568.373 3548.61 577.123 Q3548.61 585.849 3545.53 590.456 Q3542.48 595.039 3536.67 595.039 Q3530.86 595.039 3527.78 590.456 Q3524.72 585.849 3524.72 577.123 Q3524.72 568.373 3527.78 563.789 Q3530.86 559.183 3536.67 559.183 Z" fill="#000000" fill-rule="evenodd" fill-opacity="1" /><path clip-path="url(#clip550)" d="M3566.83 562.887 Q3563.22 562.887 3561.39 566.451 Q3559.58 569.993 3559.58 577.123 Q3559.58 584.229 3561.39 587.794 Q3563.22 591.335 3566.83 591.335 Q3570.46 591.335 3572.27 587.794 Q3574.1 584.229 3574.1 577.123 Q3574.1 569.993 3572.27 566.451 Q3570.46 562.887 3566.83 562.887 M3566.83 559.183 Q3572.64 559.183 3575.69 563.789 Q3578.77 568.373 3578.77 577.123 Q3578.77 585.849 3575.69 590.456 Q3572.64 595.039 3566.83 595.039 Q3561.02 595.039 3557.94 590.456 Q3554.88 585.849 3554.88 577.123 Q3554.88 568.373 3557.94 563.789 Q3561.02 559.183 3566.83 559.183 Z" fill="#000000" fill-rule="evenodd" fill-opacity="1" /><polyline clip-path="url(#clip552)" style="stroke:#000000; stroke-linecap:round; stroke-linejoin:round; stroke-width:2; stroke-opacity:0.1; fill:none" points="124.177,522.368 3552.76,522.368 "/>
<polyline clip-path="url(#clip552)" style="stroke:#000000; stroke-linecap:round; stroke-linejoin:round; stroke-width:2; stroke-opacity:0.1; fill:none" points="124.177,454.493 3552.76,454.493 "/>
<polyline clip-path="url(#clip552)" style="stroke:#000000; stroke-linecap:round; stroke-linejoin:round; stroke-width:2; stroke-opacity:0.1; fill:none" points="124.177,386.618 3552.76,386.618 "/>
<polyline clip-path="url(#clip552)" style="stroke:#000000; stroke-linecap:round; stroke-linejoin:round; stroke-width:2; stroke-opacity:0.1; fill:none" points="124.177,318.743 3552.76,318.743 "/>
<polyline clip-path="url(#clip552)" style="stroke:#000000; stroke-linecap:round; stroke-linejoin:round; stroke-width:2; stroke-opacity:0.1; fill:none" points="124.177,250.869 3552.76,250.869 "/>
<polyline clip-path="url(#clip552)" style="stroke:#000000; stroke-linecap:round; stroke-linejoin:round; stroke-width:2; stroke-opacity:0.1; fill:none" points="124.177,182.994 3552.76,182.994 "/>
<polyline clip-path="url(#clip552)" style="stroke:#000000; stroke-linecap:round; stroke-linejoin:round; stroke-width:2; stroke-opacity:0.1; fill:none" points="124.177,115.119 3552.76,115.119 "/>
<polyline clip-path="url(#clip552)" style="stroke:#000000; stroke-linecap:round; stroke-linejoin:round; stroke-width:2; stroke-opacity:0.1; fill:none" points="124.177,47.2441 3552.76,47.2441 "/>
<polyline clip-path="url(#clip550)" style="stroke:#000000; stroke-linecap:round; stroke-linejoin:round; stroke-width:4; stroke-opacity:1; fill:none" points="124.177,522.368 124.177,47.2441 "/>
<polyline clip-path="url(#clip550)" style="stroke:#000000; stroke-linecap:round; stroke-linejoin:round; stroke-width:4; stroke-opacity:1; fill:none" points="124.177,522.368 143.075,522.368 "/>
<polyline clip-path="url(#clip550)" style="stroke:#000000; stroke-linecap:round; stroke-linejoin:round; stroke-width:4; stroke-opacity:1; fill:none" points="124.177,454.493 143.075,454.493 "/>
<polyline clip-path="url(#clip550)" style="stroke:#000000; stroke-linecap:round; stroke-linejoin:round; stroke-width:4; stroke-opacity:1; fill:none" points="124.177,386.618 143.075,386.618 "/>
<polyline clip-path="url(#clip550)" style="stroke:#000000; stroke-linecap:round; stroke-linejoin:round; stroke-width:4; stroke-opacity:1; fill:none" points="124.177,318.743 143.075,318.743 "/>
<polyline clip-path="url(#clip550)" style="stroke:#000000; stroke-linecap:round; stroke-linejoin:round; stroke-width:4; stroke-opacity:1; fill:none" points="124.177,250.869 143.075,250.869 "/>
<polyline clip-path="url(#clip550)" style="stroke:#000000; stroke-linecap:round; stroke-linejoin:round; stroke-width:4; stroke-opacity:1; fill:none" points="124.177,182.994 143.075,182.994 "/>
<polyline clip-path="url(#clip550)" style="stroke:#000000; stroke-linecap:round; stroke-linejoin:round; stroke-width:4; stroke-opacity:1; fill:none" points="124.177,115.119 143.075,115.119 "/>
<polyline clip-path="url(#clip550)" style="stroke:#000000; stroke-linecap:round; stroke-linejoin:round; stroke-width:4; stroke-opacity:1; fill:none" points="124.177,47.2441 143.075,47.2441 "/>
<path clip-path="url(#clip550)" d="M50.2699 535.713 L57.9087 535.713 L57.9087 509.347 L49.5986 511.014 L49.5986 506.755 L57.8624 505.088 L62.5383 505.088 L62.5383 535.713 L70.1772 535.713 L70.1772 539.648 L50.2699 539.648 L50.2699 535.713 Z" fill="#000000" fill-rule="evenodd" fill-opacity="1" /><path clip-path="url(#clip550)" d="M53.8578 467.838 L70.1772 467.838 L70.1772 471.773 L48.2328 471.773 L48.2328 467.838 Q50.8949 465.083 55.4782 460.454 Q60.0846 455.801 61.2652 454.458 Q63.5105 451.935 64.3902 450.199 Q65.2929 448.44 65.2929 446.75 Q65.2929 443.995 63.3485 442.259 Q61.4272 440.523 58.3254 440.523 Q56.1263 440.523 53.6726 441.287 Q51.2421 442.051 48.4643 443.602 L48.4643 438.88 Q51.2884 437.745 53.7421 437.167 Q56.1958 436.588 58.2328 436.588 Q63.6031 436.588 66.7976 439.273 Q69.992 441.958 69.992 446.449 Q69.992 448.579 69.1818 450.5 Q68.3948 452.398 66.2883 454.991 Q65.7096 455.662 62.6078 458.88 Q59.5059 462.074 53.8578 467.838 Z" fill="#000000" fill-rule="evenodd" fill-opacity="1" /><path clip-path="url(#clip550)" d="M63.0476 385.264 Q66.404 385.982 68.279 388.25 Q70.1772 390.519 70.1772 393.852 Q70.1772 398.968 66.6587 401.769 Q63.1402 404.57 56.6587 404.57 Q54.4828 404.57 52.168 404.13 Q49.8764 403.713 47.4227 402.857 L47.4227 398.343 Q49.3671 399.477 51.6819 400.056 Q53.9967 400.634 56.5198 400.634 Q60.918 400.634 63.2096 398.898 Q65.5244 397.162 65.5244 393.852 Q65.5244 390.796 63.3717 389.083 Q61.242 387.347 57.4226 387.347 L53.3949 387.347 L53.3949 383.505 L57.6078 383.505 Q61.0569 383.505 62.8855 382.139 Q64.7142 380.75 64.7142 378.158 Q64.7142 375.496 62.8161 374.084 Q60.9411 372.648 57.4226 372.648 Q55.5013 372.648 53.3023 373.065 Q51.1032 373.482 48.4643 374.361 L48.4643 370.195 Q51.1264 369.454 53.4412 369.084 Q55.7791 368.713 57.8393 368.713 Q63.1633 368.713 66.2652 371.144 Q69.367 373.551 69.367 377.672 Q69.367 380.542 67.7235 382.533 Q66.08 384.5 63.0476 385.264 Z" fill="#000000" fill-rule="evenodd" fill-opacity="1" /><path clip-path="url(#clip550)" d="M60.5939 305.537 L48.7884 323.986 L60.5939 323.986 L60.5939 305.537 M59.367 301.463 L65.2466 301.463 L65.2466 323.986 L70.1772 323.986 L70.1772 327.875 L65.2466 327.875 L65.2466 336.023 L60.5939 336.023 L60.5939 327.875 L44.9921 327.875 L44.9921 323.361 L59.367 301.463 Z" fill="#000000" fill-rule="evenodd" fill-opacity="1" /><path clip-path="url(#clip550)" d="M49.2745 233.589 L67.6309 233.589 L67.6309 237.524 L53.5569 237.524 L53.5569 245.996 Q54.5754 245.649 55.5939 245.487 Q56.6124 245.301 57.6309 245.301 Q63.418 245.301 66.7976 248.473 Q70.1772 251.644 70.1772 257.061 Q70.1772 262.639 66.705 265.741 Q63.2328 268.82 56.9134 268.82 Q54.7374 268.82 52.4689 268.449 Q50.2236 268.079 47.8162 267.338 L47.8162 262.639 Q49.8995 263.774 52.1217 264.329 Q54.3439 264.885 56.8208 264.885 Q60.8254 264.885 63.1633 262.778 Q65.5013 260.672 65.5013 257.061 Q65.5013 253.45 63.1633 251.343 Q60.8254 249.237 56.8208 249.237 Q54.9458 249.237 53.0708 249.653 Q51.2189 250.07 49.2745 250.95 L49.2745 233.589 Z" fill="#000000" fill-rule="evenodd" fill-opacity="1" /><path clip-path="url(#clip550)" d="M58.6495 181.13 Q55.5013 181.13 53.6495 183.283 Q51.8208 185.436 51.8208 189.186 Q51.8208 192.913 53.6495 195.089 Q55.5013 197.241 58.6495 197.241 Q61.7976 197.241 63.6263 195.089 Q65.4781 192.913 65.4781 189.186 Q65.4781 185.436 63.6263 183.283 Q61.7976 181.13 58.6495 181.13 M67.9318 166.478 L67.9318 170.737 Q66.1726 169.904 64.367 169.464 Q62.5846 169.024 60.8254 169.024 Q56.1958 169.024 53.7421 172.149 Q51.3115 175.274 50.9643 181.593 Q52.33 179.579 54.3902 178.515 Q56.4504 177.427 58.9272 177.427 Q64.1355 177.427 67.1448 180.598 Q70.1772 183.746 70.1772 189.186 Q70.1772 194.51 67.029 197.727 Q63.8809 200.945 58.6495 200.945 Q52.6541 200.945 49.4828 196.362 Q46.3116 191.755 46.3116 183.028 Q46.3116 174.834 50.2004 169.973 Q54.0893 165.089 60.6402 165.089 Q62.3994 165.089 64.1818 165.436 Q65.9874 165.783 67.9318 166.478 Z" fill="#000000" fill-rule="evenodd" fill-opacity="1" /><path clip-path="url(#clip550)" d="M47.9551 97.8389 L70.1772 97.8389 L70.1772 99.8297 L57.6309 132.399 L52.7467 132.399 L64.5522 101.774 L47.9551 101.774 L47.9551 97.8389 Z" fill="#000000" fill-rule="evenodd" fill-opacity="1" /><path clip-path="url(#clip550)" d="M58.3254 48.1121 Q54.9921 48.1121 53.0708 49.8945 Q51.1726 51.6769 51.1726 54.8019 Q51.1726 57.9269 53.0708 59.7093 Q54.9921 61.4917 58.3254 61.4917 Q61.6587 61.4917 63.58 59.7093 Q65.5013 57.9038 65.5013 54.8019 Q65.5013 51.6769 63.58 49.8945 Q61.6819 48.1121 58.3254 48.1121 M53.6495 46.1214 Q50.6402 45.3807 48.9504 43.3205 Q47.2838 41.2603 47.2838 38.2974 Q47.2838 34.1539 50.2236 31.7465 Q53.1865 29.3391 58.3254 29.3391 Q63.4874 29.3391 66.4272 31.7465 Q69.367 34.1539 69.367 38.2974 Q69.367 41.2603 67.6772 43.3205 Q66.0105 45.3807 63.0244 46.1214 Q66.404 46.9084 68.279 49.2001 Q70.1772 51.4918 70.1772 54.8019 Q70.1772 59.825 67.0985 62.5102 Q64.0429 65.1954 58.3254 65.1954 Q52.6078 65.1954 49.5291 62.5102 Q46.4736 59.825 46.4736 54.8019 Q46.4736 51.4918 48.3717 49.2001 Q50.2699 46.9084 53.6495 46.1214 M51.9365 38.7372 Q51.9365 41.4224 53.6032 42.927 Q55.293 44.4316 58.3254 44.4316 Q61.3346 44.4316 63.0244 42.927 Q64.7374 41.4224 64.7374 38.7372 Q64.7374 36.052 63.0244 34.5474 Q61.3346 33.0428 58.3254 33.0428 Q55.293 33.0428 53.6032 34.5474 Q51.9365 36.052 51.9365 38.7372 Z" fill="#000000" fill-rule="evenodd" fill-opacity="1" /><polyline clip-path="url(#clip552)" style="stroke:#009af9; stroke-linecap:round; stroke-linejoin:round; stroke-width:2; stroke-opacity:1; fill:none" points="221.212,327.147 222.533,303.467 223.854,308.594 225.175,292.566 226.495,299.367 227.816,320.649 229.137,302.825 230.458,319.043 231.778,318.672 233.099,323.564 234.42,300.77 235.741,294.697 237.061,343.877 238.382,316.143 239.703,320.698 241.024,312.47 242.344,310.764 243.665,318.578 244.986,339.803 246.307,307.732 247.627,307.11 248.948,314.968 250.269,306.187 251.59,307.772 252.91,284.23 254.231,329.392 255.552,308.306 256.873,301.448 258.193,304.041 259.514,312.663 260.835,328.894 262.156,291.642 263.476,323.755 264.797,312.522 266.118,296.288 267.439,312.229 268.759,321.318 270.08,324.703 271.401,298.238 272.722,315.005 274.042,319.481 275.363,294.072 276.684,316.253 278.005,314.86 279.325,310.921 280.646,303.406 281.967,305.561 283.288,313.921 284.608,311.901 285.929,319.798 287.25,321.347 288.57,294.074 289.891,335.983 291.212,295.382 292.533,343.485 293.853,310.303 295.174,332.228 296.495,295.308 297.816,310.914 299.136,360.719 300.457,306.547 301.778,324.93 303.099,332.038 304.419,314.436 305.74,343.935 307.061,300.588 308.382,291.244 309.702,338.901 311.023,292.504 312.344,320.432 313.665,327.776 314.985,312.916 316.306,295.071 317.627,331.947 318.948,329.621 320.268,299.178 321.589,323.604 322.91,293.647 324.231,283.125 325.551,295.666 326.872,332.619 328.193,303.565 329.514,310.917 330.834,318.587 332.155,292.67 333.476,314.307 334.797,297.292 336.117,334.635 337.438,289.075 338.759,307.306 340.08,312.816 341.4,323.747 342.721,319.486 344.042,288.053 345.363,317.347 346.683,309.264 348.004,313.596 349.325,321.868 350.646,319.282 351.966,336.024 353.287,313.202 354.608,318.382 355.929,317.884 357.249,335.632 358.57,318.573 359.891,320.946 361.212,316.745 362.532,317.634 363.853,291.445 365.174,311.716 366.495,305.946 367.815,316.386 369.136,328.778 370.457,330.257 371.778,306.472 373.098,313.056 374.419,304.749 375.74,301.923 377.061,354.552 378.381,312.897 379.702,325.462 381.023,334.747 382.343,329.449 383.664,307.156 384.985,329.341 386.306,303.889 387.626,289.277 388.947,326.842 390.268,290.915 391.589,299.515 392.909,322.483 394.23,337.215 395.551,289.975 396.872,317.977 398.192,351.266 399.513,320.771 400.834,322.167 402.155,302.928 403.475,333.859 404.796,289.519 406.117,326.856 407.438,328.624 408.758,322.058 410.079,297.165 411.4,303.482 412.721,298.009 414.041,364.692 415.362,298.638 416.683,327.816 418.004,305.546 419.324,312.187 420.645,304.904 421.966,303.376 423.287,296.675 424.607,316.974 425.928,319.524 427.249,344.95 428.57,311.53 429.89,333.023 431.211,308.171 432.532,307.358 433.853,300.289 435.173,291.796 436.494,299.992 437.815,316.128 439.136,292.559 440.456,303.007 441.777,324.787 443.098,304.516 444.419,314.454 445.739,314.355 447.06,301.87 448.381,326.503 449.702,314.646 451.022,316.284 452.343,315.474 453.664,326.207 454.985,326.548 456.305,328.987 457.626,307.059 458.947,289.91 460.268,322.313 461.588,319.467 462.909,317.57 464.23,326.768 465.551,325.069 466.871,320.832 468.192,335.071 469.513,304.355 470.834,303.486 472.154,336.577 473.475,304.342 474.796,280.214 476.117,325.837 477.437,307.859 478.758,339.281 480.079,326.904 481.399,304.646 482.72,301.795 484.041,326.286 485.362,317.112 486.682,308.979 488.003,316.201 489.324,303.851 490.645,304.435 491.965,328.553 493.286,318.774 494.607,317.359 495.928,322.94 497.248,318.676 498.569,307.153 499.89,287.827 501.211,311.846 502.531,332.576 503.852,324.073 505.173,292.646 506.494,321.566 507.814,311.936 509.135,296.439 510.456,306.204 511.777,309.283 513.097,296.424 514.418,305.444 515.739,307.185 517.06,304.733 518.38,296.524 519.701,291.959 521.022,326.223 522.343,315.378 523.663,343.551 524.984,288.665 526.305,334.794 527.626,308.004 528.946,330.273 530.267,320.618 531.588,325.716 532.909,315.185 534.229,303.776 535.55,303.031 536.871,294.36 538.192,314.889 539.512,342.222 540.833,322.109 542.154,332.674 543.475,326.664 544.795,348.311 546.116,322.261 547.437,326.957 548.758,310.986 550.078,313.059 551.399,309.278 552.72,295.755 554.041,320.652 555.361,324.831 556.682,309.672 558.003,327.632 559.324,306.865 560.644,323.469 561.965,321.373 563.286,302.053 564.607,291.14 565.927,295.766 567.248,300.794 568.569,303.783 569.89,335.255 571.21,329.497 572.531,309.003 573.852,312.285 575.172,314.796 576.493,319.003 577.814,322.376 579.135,324.886 580.455,326.459 581.776,325.776 583.097,324.868 584.418,339.897 585.738,315.245 587.059,311.348 588.38,305.356 589.701,312.456 591.021,319.94 592.342,329.66 593.663,332.718 594.984,322.975 596.304,336.109 597.625,327.955 598.946,318.33 600.267,299.827 601.587,300.779 602.908,284.261 604.229,321.884 605.55,323.51 606.87,303.513 608.191,319.374 609.512,298.735 610.833,291.997 612.153,322.079 613.474,304.277 614.795,298.726 616.116,335.985 617.436,297.845 618.757,299.189 620.078,318.975 621.399,309.649 622.719,319.299 624.04,311.52 625.361,304.997 626.682,314.064 628.002,304.467 629.323,297.961 630.644,303.338 631.965,302.732 633.285,311.299 634.606,321.712 635.927,330.729 637.248,323.55 638.568,320.712 639.889,328.057 641.21,303.912 642.531,304.569 643.851,335.198 645.172,340.801 646.493,299.746 647.814,318.795 649.134,316.778 650.455,332.101 651.776,322.494 653.097,298.282 654.417,337.33 655.738,309.127 657.059,312.196 658.38,336.809 659.7,292.781 661.021,321.348 662.342,288.338 663.663,348.336 664.983,280.595 666.304,342.334 667.625,311.827 668.945,304.524 670.266,287.68 671.587,300.263 672.908,305.551 674.228,321.739 675.549,295.816 676.87,349.07 678.191,304.443 679.511,340.304 680.832,296.064 682.153,330.045 683.474,302.848 684.794,339.812 686.115,288.839 687.436,290.018 688.757,340.906 690.077,309.015 691.398,317.066 692.719,315.729 694.04,295.972 695.36,354.885 696.681,293.815 698.002,326.661 699.323,337.624 700.643,313.198 701.964,322.895 703.285,322.317 704.606,321.061 705.926,320.916 707.247,318.855 708.568,322.493 709.889,293.876 711.209,321.374 712.53,311.113 713.851,317.931 715.172,323.42 716.492,304.621 717.813,318.023 719.134,315.334 720.455,301.324 721.775,301.468 723.096,302.252 724.417,306.43 725.738,333.321 727.058,290.164 728.379,310.101 729.7,332.041 731.021,301.008 732.341,312.004 733.662,303.352 734.983,307.05 736.304,326.819 737.624,289.905 738.945,306.594 740.266,324.594 741.587,317.14 742.907,319.307 744.228,315.224 745.549,300.764 746.87,297.655 748.19,286.805 749.511,320.194 750.832,332.349 752.153,319.357 753.473,329.7 754.794,309.947 756.115,314.219 757.436,305.615 758.756,306.705 760.077,302.735 761.398,328.615 762.718,332.439 764.039,318.716 765.36,310.572 766.681,306.925 768.001,319.116 769.322,306.343 770.643,320.973 771.964,309.964 773.284,303.681 774.605,307.597 775.926,311.664 777.247,312.444 778.567,318.953 779.888,311.096 781.209,306.211 782.53,303.154 783.85,301.28 785.171,318.972 786.492,346.524 787.813,342.151 789.133,322.81 790.454,332.165 791.775,299.03 793.096,333.667 794.416,316.167 795.737,317.979 797.058,312.726 798.379,319.882 799.699,320.442 801.02,327.8 802.341,336.224 803.662,302.363 804.982,331.512 806.303,328.755 807.624,330.376 808.945,321.422 810.265,282.112 811.586,315.294 812.907,310.025 814.228,314.887 815.548,308.704 816.869,293.064 818.19,301.482 819.511,309.564 820.831,322.865 822.152,314.513 823.473,292.641 824.794,280.069 826.114,274.843 827.435,302.942 828.756,307.571 830.077,324.915 831.397,329.201 832.718,309.14 834.039,333.657 835.36,301.598 836.68,336.125 838.001,283.846 839.322,290.404 840.643,297.615 841.963,293.594 843.284,319.436 844.605,313.719 845.926,321.435 847.246,326.051 848.567,316.849 849.888,318.611 851.209,284.38 852.529,278.31 853.85,305.922 855.171,325.385 856.492,317.312 857.812,305.988 859.133,331.116 860.454,330.159 861.774,340.369 863.095,310.489 864.416,282.114 865.737,287.222 867.057,322.888 868.378,333.675 869.699,333.493 871.02,334.447 872.34,333.842 873.661,333.995 874.982,334.042 876.303,333.603 877.623,327.847 878.944,310.615 880.265,310.51 881.586,340.296 882.906,340.479 884.227,314.327 885.548,295.923 886.869,305.929 888.189,306.818 889.51,313.428 890.831,314.728 892.152,304.453 893.472,277.472 894.793,338.103 896.114,337.739 897.435,336.776 898.755,319.122 900.076,322.264 901.397,322.73 902.718,323.241 904.038,323.751 905.359,317.908 906.68,310.182 908.001,309.673 909.321,309.52 910.642,309.576 911.963,291.329 913.284,291.763 914.604,291.116 915.925,291.967 917.246,292.84 918.567,292.691 919.887,308.828 921.208,293.685 922.529,287.411 923.85,321.876 925.17,330.217 926.491,320.297 927.812,320.298 929.133,315.676 930.453,325.848 931.774,320.009 933.095,312.631 934.416,305.415 935.736,302.418 937.057,314.853 938.378,306.948 939.699,321.721 941.019,322.067 942.34,346.715 943.661,338.859 944.982,303.448 946.302,300.721 947.623,322.571 948.944,331.079 950.265,312.478 951.585,308.402 952.906,329.795 954.227,307.271 955.547,318.992 956.868,291.215 958.189,316.747 959.51,309.757 960.83,331.821 962.151,319.133 963.472,319.562 964.793,318.362 966.113,320.107 967.434,326.724 968.755,313.341 970.076,316.251 971.396,296.031 972.717,304.546 974.038,289.096 975.359,279.549 976.679,323.461 978,312.319 979.321,312.979 980.642,323.977 981.962,335.106 983.283,309.766 984.604,327.77 985.925,306.821 987.245,321.407 988.566,300.378 989.887,319.736 991.208,315.409 992.528,310.456 993.849,305.502 995.17,315.828 996.491,325.736 997.811,325.051 999.132,323.738 1000.45,337.531 1001.77,330.985 1003.09,320.378 1004.42,320.291 1005.74,319.839 1007.06,314 1008.38,306.708 1009.7,313.133 1011.02,333.22 1012.34,319.877 1013.66,327.762 1014.98,343.792 1016.3,343.383 1017.62,343.133 1018.94,323.118 1020.26,308.541 1021.58,311.799 1022.91,314.766 1024.23,311.177 1025.55,324.209 1026.87,292.791 1028.19,292.626 1029.51,299.221 1030.83,308.477 1032.15,305.988 1033.47,344.236 1034.79,322.662 1036.11,328.025 1037.43,322.968 1038.75,321.567 1040.08,316.391 1041.4,309.506 1042.72,349.697 1044.04,332.546 1045.36,333.52 1046.68,323.411 1048,328.169 1049.32,318.419 1050.64,315.628 1051.96,308.071 1053.28,292.681 1054.6,310.726 1055.92,299.087 1057.24,320.517 1058.57,322.333 1059.89,315.41 1061.21,300.15 1062.53,312.099 1063.85,323.369 1065.17,306.438 1066.49,306.538 1067.81,304.568 1069.13,309.437 1070.45,311.993 1071.77,344.478 1073.09,335.441 1074.41,325.506 1075.74,342.557 1077.06,310.369 1078.38,315.966 1079.7,301.863 1081.02,338.751 1082.34,319.77 1083.66,341.699 1084.98,324.856 1086.3,324.135 1087.62,326.499 1088.94,322.302 1090.26,323.699 1091.58,335.299 1092.91,325.381 1094.23,311.981 1095.55,308.92 1096.87,311.247 1098.19,316.233 1099.51,299.26 1100.83,317.493 1102.15,310.229 1103.47,318.363 1104.79,328.926 1106.11,333.956 1107.43,296.269 1108.75,315.264 1110.07,310.207 1111.4,289.548 1112.72,299.12 1114.04,318.698 1115.36,306.173 1116.68,305.535 1118,304.803 1119.32,305.762 1120.64,284.435 1121.96,298.656 1123.28,292.754 1124.6,283.992 1125.92,314.723 1127.24,336.87 1128.57,296.053 1129.89,330.632 1131.21,315.069 1132.53,312.344 1133.85,312.588 1135.17,295.267 1136.49,337.987 1137.81,306.097 1139.13,341.308 1140.45,338.302 1141.77,291.072 1143.09,304.706 1144.41,307.535 1145.73,338.365 1147.06,280.736 1148.38,305.302 1149.7,324.891 1151.02,302.357 1152.34,347.071 1153.66,283.481 1154.98,346.773 1156.3,287.981 1157.62,329.816 1158.94,317.29 1160.26,350.17 1161.58,290.767 1162.9,296.852 1164.23,350.886 1165.55,287.626 1166.87,285.42 1168.19,303.869 1169.51,267.615 1170.83,327.428 1172.15,281.635 1173.47,330.063 1174.79,278.816 1176.11,292.675 1177.43,271.387 1178.75,299.823 1180.07,291.51 1181.4,292.159 1182.72,277.769 1184.04,345.486 1185.36,303.375 1186.68,309.037 1188,334.103 1189.32,296.693 1190.64,348.595 1191.96,312.336 1193.28,315.032 1194.6,320.98 1195.92,326.825 1197.24,322.438 1198.56,322.432 1199.89,319.257 1201.21,321.975 1202.53,313.496 1203.85,314.023 1205.17,331.48 1206.49,341.659 1207.81,330.259 1209.13,316.453 1210.45,321.793 1211.77,338.299 1213.09,333.328 1214.41,334.529 1215.73,311.557 1217.06,293.22 1218.38,335.896 1219.7,334.193 1221.02,334.69 1222.34,336.965 1223.66,327.893 1224.98,330.01 1226.3,328.841 1227.62,320.793 1228.94,308.909 1230.26,311.331 1231.58,322.942 1232.9,323.91 1234.23,335.039 1235.55,336.89 1236.87,335.774 1238.19,337.877 1239.51,334.933 1240.83,318.323 1242.15,327.427 1243.47,348.138 1244.79,300.938 1246.11,304.441 1247.43,303.034 1248.75,309.66 1250.07,318.692 1251.39,319.873 1252.72,313.261 1254.04,324.374 1255.36,321.084 1256.68,295.988 1258,338.449 1259.32,324.858 1260.64,327.984 1261.96,278.975 1263.28,286.395 1264.6,307.725 1265.92,337.746 1267.24,300.839 1268.56,303.167 1269.89,326.632 1271.21,304.941 1272.53,324.702 1273.85,296.67 1275.17,328.758 1276.49,312.025 1277.81,315.943 1279.13,302.349 1280.45,344.123 1281.77,294.339 1283.09,336.363 1284.41,289.454 1285.73,338.233 1287.05,307.158 1288.38,321.897 1289.7,304.168 1291.02,316.367 1292.34,299.666 1293.66,312.336 1294.98,333.127 1296.3,328.235 1297.62,305.967 1298.94,300.775 1300.26,315.24 1301.58,302.061 1302.9,305.464 1304.22,339.006 1305.55,318.364 1306.87,313.286 1308.19,319.725 1309.51,312.859 1310.83,322.794 1312.15,324.357 1313.47,295.617 1314.79,319.772 1316.11,332.253 1317.43,309.427 1318.75,317.028 1320.07,287.889 1321.39,296.883 1322.72,307.847 1324.04,314.003 1325.36,311.075 1326.68,342.846 1328,326.434 1329.32,330.706 1330.64,335.137 1331.96,319.162 1333.28,315.79 1334.6,304.951 1335.92,308.885 1337.24,325.525 1338.56,305.012 1339.88,318.115 1341.21,309.453 1342.53,307.419 1343.85,315.847 1345.17,348.167 1346.49,299.704 1347.81,310.901 1349.13,329.573 1350.45,315.517 1351.77,291.574 1353.09,305.127 1354.41,305.653 1355.73,322.749 1357.05,329.678 1358.38,315.626 1359.7,326.902 1361.02,321.984 1362.34,324.869 1363.66,333.815 1364.98,312.54 1366.3,363.875 1367.62,323.176 1368.94,341.528 1370.26,333.539 1371.58,316.977 1372.9,331.707 1374.22,317.533 1375.54,290.717 1376.87,320.419 1378.19,305.926 1379.51,310.89 1380.83,336.332 1382.15,342.172 1383.47,321.106 1384.79,340.342 1386.11,310.44 1387.43,310.235 1388.75,305.532 1390.07,306.314 1391.39,316.433 1392.71,304.319 1394.04,315.915 1395.36,325.4 1396.68,308.848 1398,308.284 1399.32,303.721 1400.64,297.958 1401.96,320.539 1403.28,316.679 1404.6,320.933 1405.92,344.316 1407.24,324.532 1408.56,311.646 1409.88,317.224 1411.21,298.366 1412.53,338.89 1413.85,298.607 1415.17,340.317 1416.49,325.913 1417.81,327.642 1419.13,314.829 1420.45,312.369 1421.77,304.27 1423.09,319.555 1424.41,306.765 1425.73,329.01 1427.05,298.409 1428.37,330.605 1429.7,306.402 1431.02,290.22 1432.34,313.237 1433.66,307.993 1434.98,317.678 1436.3,296.652 1437.62,311.16 1438.94,297.666 1440.26,321.93 1441.58,319.148 1442.9,302.318 1444.22,273.568 1445.54,311.059 1446.87,313.747 1448.19,302.017 1449.51,321.821 1450.83,330.087 1452.15,313.292 1453.47,349.478 1454.79,328.84 1456.11,332.182 1457.43,320.071 1458.75,334.086 1460.07,330.548 1461.39,321.549 1462.71,334.839 1464.03,317.383 1465.36,326.197 1466.68,326.904 1468,335.384 1469.32,321.276 1470.64,326.762 1471.96,303.648 1473.28,300.479 1474.6,324.919 1475.92,332.666 1477.24,318.958 1478.56,323.966 1479.88,332.335 1481.2,321.66 1482.53,325.343 1483.85,316.534 1485.17,323.758 1486.49,287.9 1487.81,310.891 1489.13,308.716 1490.45,320.296 1491.77,326.723 1493.09,334.516 1494.41,314.104 1495.73,288.464 1497.05,280.562 1498.37,299.431 1499.7,288.291 1501.02,301.301 1502.34,319.411 1503.66,307.273 1504.98,327.88 1506.3,332.246 1507.62,304.477 1508.94,334.688 1510.26,327.29 1511.58,330.58 1512.9,344.547 1514.22,350.719 1515.54,310.044 1516.86,319.804 1518.19,330.748 1519.51,343.995 1520.83,314.204 1522.15,323.449 1523.47,299.22 1524.79,290.607 1526.11,315.841 1527.43,315.871 1528.75,315.829 1530.07,321.21 1531.39,313.545 1532.71,317.748 1534.03,309.883 1535.36,325.12 1536.68,323.721 1538,336.148 1539.32,309.335 1540.64,287.415 1541.96,306.638 1543.28,320.537 1544.6,311.432 1545.92,318.362 1547.24,299.047 1548.56,300.572 1549.88,321.766 1551.2,310.814 1552.52,328.546 1553.85,302.75 1555.17,307.686 1556.49,307.058 1557.81,304.043 1559.13,313.821 1560.45,320.292 1561.77,337.51 1563.09,320.028 1564.41,309.276 1565.73,293.412 1567.05,300.219 1568.37,310.075 1569.69,344.9 1571.02,330.812 1572.34,311.977 1573.66,328.677 1574.98,294.863 1576.3,316.341 1577.62,309.132 1578.94,304.595 1580.26,303.261 1581.58,308.732 1582.9,298.743 1584.22,304.944 1585.54,312.897 1586.86,290.476 1588.19,308.749 1589.51,309.338 1590.83,305.801 1592.15,306.68 1593.47,310.073 1594.79,329.879 1596.11,311.395 1597.43,319.139 1598.75,323.436 1600.07,317.286 1601.39,321.32 1602.71,323.962 1604.03,311.562 1605.35,305.054 1606.68,291.924 1608,311.478 1609.32,324.11 1610.64,335.974 1611.96,330.751 1613.28,311.315 1614.6,314.382 1615.92,329.389 1617.24,329.717 1618.56,325.797 1619.88,322.147 1621.2,315.162 1622.52,290.997 1623.85,319.438 1625.17,314.089 1626.49,312.136 1627.81,307.036 1629.13,336.63 1630.45,337.503 1631.77,315.331 1633.09,321.541 1634.41,322.464 1635.73,323.428 1637.05,320.107 1638.37,330.416 1639.69,325.129 1641.01,340.495 1642.34,348.661 1643.66,330.387 1644.98,303.407 1646.3,316.52 1647.62,312.258 1648.94,320.317 1650.26,306.538 1651.58,324.403 1652.9,338.288 1654.22,327.383 1655.54,287.186 1656.86,324.994 1658.18,306.357 1659.51,338.717 1660.83,326.592 1662.15,329.989 1663.47,324.957 1664.79,318.237 1666.11,323.309 1667.43,329.443 1668.75,308.637 1670.07,344.567 1671.39,304.836 1672.71,310.288 1674.03,317.907 1675.35,333.421 1676.68,307.711 1678,314.659 1679.32,307.958 1680.64,298.573 1681.96,323.902 1683.28,325.146 1684.6,334.015 1685.92,301.909 1687.24,319.579 1688.56,317.824 1689.88,333.111 1691.2,325.585 1692.52,321.017 1693.84,318.674 1695.17,354.371 1696.49,316.062 1697.81,334.49 1699.13,318.663 1700.45,296.149 1701.77,304.402 1703.09,310.209 1704.41,312.21 1705.73,315.865 1707.05,311.467 1708.37,290.591 1709.69,330.918 1711.01,291.028 1712.34,313.879 1713.66,317.587 1714.98,335.149 1716.3,316.392 1717.62,320.734 1718.94,288.898 1720.26,333.808 1721.58,314.843 1722.9,304.656 1724.22,328.911 1725.54,357.929 1726.86,290.406 1728.18,304.397 1729.5,347.004 1730.83,314.16 1732.15,310.897 1733.47,339.191 1734.79,293.126 1736.11,326.708 1737.43,305.869 1738.75,315.431 1740.07,341.873 1741.39,319.818 1742.71,354.411 1744.03,334.88 1745.35,327.908 1746.67,286.622 1748,303.877 1749.32,306.958 1750.64,295.543 1751.96,301.695 1753.28,310.148 1754.6,309.231 1755.92,310.895 1757.24,317.095 1758.56,318.206 1759.88,302.269 1761.2,321.532 1762.52,343.471 1763.84,316.883 1765.17,302.255 1766.49,297.102 1767.81,354.802 1769.13,321.881 1770.45,308.026 1771.77,304.703 1773.09,289.599 1774.41,334.211 1775.73,336.927 1777.05,341.424 1778.37,324.414 1779.69,328.013 1781.01,320.363 1782.33,313.634 1783.66,313.11 1784.98,310.524 1786.3,315.273 1787.62,317.902 1788.94,310.347 1790.26,310.511 1791.58,310.954 1792.9,307.135 1794.22,301.425 1795.54,303.602 1796.86,299.207 1798.18,308.606 1799.5,300.236 1800.83,313.082 1802.15,317.933 1803.47,314.733 1804.79,301.53 1806.11,317.14 1807.43,319.927 1808.75,322.843 1810.07,326.712 1811.39,326.965 1812.71,308.998 1814.03,325.074 1815.35,319.731 1816.67,318.849 1817.99,321.173 1819.32,311.046 1820.64,319.466 1821.96,311.367 1823.28,313.449 1824.6,325.256 1825.92,313.91 1827.24,311.789 1828.56,306.351 1829.88,311.292 1831.2,313.223 1832.52,309.21 1833.84,314.931 1835.16,338.671 1836.49,347.179 1837.81,342.965 1839.13,315.883 1840.45,323.115 1841.77,323.546 1843.09,320.585 1844.41,311.74 1845.73,330.22 1847.05,316.403 1848.37,315.668 1849.69,306.908 1851.01,312.609 1852.33,315.675 1853.66,310.678 1854.98,330.712 1856.3,328.224 1857.62,315.299 1858.94,303.797 1860.26,297.147 1861.58,322.894 1862.9,327.821 1864.22,306.612 1865.54,313.216 1866.86,304.765 1868.18,318.291 1869.5,314.042 1870.82,311.927 1872.15,313.102 1873.47,313.087 1874.79,335.118 1876.11,333.415 1877.43,349.996 1878.75,322.045 1880.07,319.983 1881.39,319.592 1882.71,329.352 1884.03,310.496 1885.35,310.535 1886.67,313.4 1887.99,326.759 1889.32,316.563 1890.64,332.691 1891.96,328.956 1893.28,315.514 1894.6,307.591 1895.92,310.808 1897.24,307.531 1898.56,299.311 1899.88,304.121 1901.2,327.61 1902.52,322.639 1903.84,306.86 1905.16,305.687 1906.48,312.615 1907.81,316.786 1909.13,315.245 1910.45,304.529 1911.77,284.325 1913.09,293.458 1914.41,299.49 1915.73,338.919 1917.05,320.649 1918.37,302.479 1919.69,337.73 1921.01,333.159 1922.33,318.37 1923.65,334.435 1924.98,296.867 1926.3,316.943 1927.62,318.7 1928.94,318.143 1930.26,318.637 1931.58,324.636 1932.9,330.997 1934.22,320.998 1935.54,339.653 1936.86,328.436 1938.18,324.88 1939.5,323.087 1940.82,314.376 1942.15,306.165 1943.47,301.812 1944.79,327.478 1946.11,330.588 1947.43,323.003 1948.75,314.466 1950.07,317.995 1951.39,295.558 1952.71,311.551 1954.03,298.125 1955.35,287.741 1956.67,311.562 1957.99,313.235 1959.31,322.877 1960.64,325.681 1961.96,326.566 1963.28,333.462 1964.6,328.562 1965.92,312.586 1967.24,310.973 1968.56,321.26 1969.88,305.048 1971.2,317.755 1972.52,334.224 1973.84,304.104 1975.16,339.341 1976.48,297.081 1977.81,297.134 1979.13,317.477 1980.45,319.955 1981.77,323.321 1983.09,300.542 1984.41,332.533 1985.73,319.114 1987.05,314.568 1988.37,315.288 1989.69,311.073 1991.01,319.311 1992.33,312.743 1993.65,329.012 1994.98,314.71 1996.3,319.419 1997.62,283.262 1998.94,314.254 2000.26,326.138 2001.58,306.813 2002.9,316.747 2004.22,339.72 2005.54,299.42 2006.86,300.986 2008.18,291.177 2009.5,300.863 2010.82,339.015 2012.14,292.944 2013.47,286.29 2014.79,316.199 2016.11,310.804 2017.43,315.912 2018.75,302.166 2020.07,314.608 2021.39,290.775 2022.71,366.693 2024.03,313.477 2025.35,315.332 2026.67,290.954 2027.99,291.316 2029.31,325.914 2030.64,341.73 2031.96,273.375 2033.28,279.804 2034.6,343.524 2035.92,270.901 2037.24,338.605 2038.56,285.808 2039.88,342.192 2041.2,298.155 2042.52,302.308 2043.84,334.561 2045.16,311.165 2046.48,285.696 2047.8,313.789 2049.13,316.245 2050.45,313.2 2051.77,295.808 2053.09,345.002 2054.41,283.739 2055.73,331.587 2057.05,299.642 2058.37,284.081 2059.69,334.832 2061.01,303.613 2062.33,323.847 2063.65,313.98 2064.97,308.53 2066.3,292.76 2067.62,333.549 2068.94,299.253 2070.26,334.23 2071.58,293.571 2072.9,334.607 2074.22,309.769 2075.54,315.88 2076.86,319.054 2078.18,305.048 2079.5,321.889 2080.82,324.628 2082.14,297.975 2083.47,315.718 2084.79,319.805 2086.11,329.794 2087.43,304.043 2088.75,327.695 2090.07,303.709 2091.39,325.543 2092.71,282.869 2094.03,323.898 2095.35,315.031 2096.67,318.506 2097.99,313.573 2099.31,304.8 2100.63,334.466 2101.96,334.499 2103.28,315.139 2104.6,314.712 2105.92,309.858 2107.24,316.307 2108.56,318.37 2109.88,309.821 2111.2,318.642 2112.52,322.211 2113.84,316.56 2115.16,319.902 2116.48,345.76 2117.8,315.553 2119.13,316.237 2120.45,303.954 2121.77,304.6 2123.09,298.857 2124.41,307.634 2125.73,302.47 2127.05,299.086 2128.37,301.387 2129.69,301.517 2131.01,300.149 2132.33,283.383 2133.65,293.003 2134.97,310.547 2136.29,291.366 2137.62,319.29 2138.94,312.138 2140.26,305.434 2141.58,301.64 2142.9,298.779 2144.22,304.525 2145.54,336.662 2146.86,321.406 2148.18,335.338 2149.5,338.792 2150.82,321.575 2152.14,325.777 2153.46,326.121 2154.79,315.832 2156.11,317.953 2157.43,303.603 2158.75,328.344 2160.07,325.826 2161.39,321.742 2162.71,287.4 2164.03,320.114 2165.35,318.089 2166.67,324.913 2167.99,284.534 2169.31,317.654 2170.63,313.791 2171.96,297.609 2173.28,360.881 2174.6,309.306 2175.92,315.89 2177.24,296.094 2178.56,313.543 2179.88,307.457 2181.2,294.952 2182.52,353.617 2183.84,291.49 2185.16,311.352 2186.48,272.54 2187.8,336.596 2189.12,309.431 2190.45,316.777 2191.77,316.631 2193.09,321.844 2194.41,298.041 2195.73,316.104 2197.05,313.637 2198.37,329.706 2199.69,309.666 2201.01,324.357 2202.33,285.63 2203.65,336.189 2204.97,312.256 2206.29,314.588 2207.62,323.465 2208.94,344.112 2210.26,319.906 2211.58,318.75 2212.9,318.918 2214.22,377.396 2215.54,349.435 2216.86,300.176 2218.18,322.839 2219.5,322.456 2220.82,313.069 2222.14,318.642 2223.46,318.284 2224.78,318.167 2226.11,336.132 2227.43,343.69 2228.75,278.665 2230.07,325.657 2231.39,303.596 2232.71,293.597 2234.03,356.717 2235.35,337.677 2236.67,291.127 2237.99,352.253 2239.31,278.346 2240.63,339 2241.95,363.078 2243.28,290.013 2244.6,342.199 2245.92,299.324 2247.24,337.157 2248.56,296.224 2249.88,284.681 2251.2,360.884 2252.52,278.32 2253.84,273.784 2255.16,310.784 2256.48,303.159 2257.8,329.766 2259.12,302.058 2260.45,333.547 2261.77,297.415 2263.09,293.583 2264.41,338.035 2265.73,286.63 2267.05,340.943 2268.37,304.315 2269.69,310.55 2271.01,332.234 2272.33,306.968 2273.65,323.918 2274.97,303.382 2276.29,277.384 2277.61,321.297 2278.94,292.705 2280.26,301.854 2281.58,320.256 2282.9,304.955 2284.22,322.95 2285.54,304.301 2286.86,339.192 2288.18,286.407 2289.5,327.772 2290.82,281.989 2292.14,305.286 2293.46,336.267 2294.78,275.04 2296.11,347.364 2297.43,289.702 2298.75,317.531 2300.07,293.461 2301.39,319.227 2302.71,319.713 2304.03,303.834 2305.35,334.833 2306.67,290.885 2307.99,339.997 2309.31,278.702 2310.63,323.219 2311.95,315.072 2313.27,316.574 2314.6,300.338 2315.92,340.153 2317.24,304.665 2318.56,332.764 2319.88,305.836 2321.2,336.99 2322.52,304.878 2323.84,291.114 2325.16,360.179 2326.48,283.8 2327.8,333.619 2329.12,319.491 2330.44,312.738 2331.77,309.352 2333.09,314.477 2334.41,306.221 2335.73,317.069 2337.05,311.144 2338.37,316.831 2339.69,327.915 2341.01,299.657 2342.33,348.372 2343.65,273.581 2344.97,334.731 2346.29,293.887 2347.61,334.742 2348.94,304.987 2350.26,335.644 2351.58,291.907 2352.9,330.246 2354.22,295.171 2355.54,283.054 2356.86,307.945 2358.18,328.07 2359.5,301.503 2360.82,321.573 2362.14,307.056 2363.46,318.101 2364.78,288.193 2366.1,316.68 2367.43,325.582 2368.75,298.185 2370.07,317.426 2371.39,311.072 2372.71,303.212 2374.03,299.219 2375.35,316.376 2376.67,302.244 2377.99,311.806 2379.31,299.893 2380.63,304.398 2381.95,336.83 2383.27,306.973 2384.6,317.903 2385.92,315.385 2387.24,325.672 2388.56,309.332 2389.88,313.031 2391.2,308.958 2392.52,333.592 2393.84,295.56 2395.16,283.614 2396.48,279.072 2397.8,297.806 2399.12,278.418 2400.44,314.329 2401.76,301.255 2403.09,316.158 2404.41,307.233 2405.73,326.273 2407.05,331.274 2408.37,320.558 2409.69,302.934 2411.01,303.382 2412.33,347.679 2413.65,308.257 2414.97,313.861 2416.29,305.92 2417.61,329.677 2418.93,326.389 2420.26,318.552 2421.58,311.871 2422.9,299.325 2424.22,340.741 2425.54,307.412 2426.86,298.134 2428.18,332.36 2429.5,266.652 2430.82,329.983 2432.14,303.632 2433.46,327.082 2434.78,297.108 2436.1,315.027 2437.43,294.095 2438.75,306.799 2440.07,290.94 2441.39,314.839 2442.71,311.079 2444.03,328.524 2445.35,286.418 2446.67,318.413 2447.99,313.751 2449.31,332.445 2450.63,308.255 2451.95,318.51 2453.27,299.264 2454.59,288.188 2455.92,287.345 2457.24,321.596 2458.56,297.386 2459.88,350.403 2461.2,279.967 2462.52,305.32 2463.84,318.61 2465.16,310.707 2466.48,302.904 2467.8,294.637 2469.12,299.244 2470.44,323.268 2471.76,277.278 2473.09,302.319 2474.41,364.198 2475.73,279.729 2477.05,305.522 2478.37,289.781 2479.69,318.005 2481.01,325.251 2482.33,304.779 2483.65,315.864 2484.97,314.13 2486.29,340.123 2487.61,293.385 2488.93,286.135 2490.25,327.404 2491.58,293.001 2492.9,330.911 2494.22,291.418 2495.54,280.14 2496.86,287.314 2498.18,333.219 2499.5,327.334 2500.82,283.801 2502.14,306.727 2503.46,293.023 2504.78,351.156 2506.1,298.451 2507.42,315.362 2508.75,317.713 2510.07,274.734 2511.39,327.822 2512.71,289.121 2514.03,307.488 2515.35,288.759 2516.67,293.802 2517.99,287.46 2519.31,350.921 2520.63,277.967 2521.95,318.252 2523.27,339.888 2524.59,294.177 2525.92,330.997 2527.24,303.924 2528.56,319.123 2529.88,282.884 2531.2,341.797 2532.52,276.119 2533.84,347.851 2535.16,294.554 2536.48,302.749 2537.8,368.956 2539.12,322.959 2540.44,328.879 2541.76,301.059 2543.08,341.614 2544.41,305.638 2545.73,333.544 2547.05,294.478 2548.37,325.399 2549.69,300.804 2551.01,318.536 2552.33,317.565 2553.65,313.063 2554.97,313.936 2556.29,328.88 2557.61,307.85 2558.93,336.435 2560.25,287.593 2561.58,343.108 2562.9,293.717 2564.22,329.145 2565.54,310.637 2566.86,297.524 2568.18,336.923 2569.5,296.357 2570.82,276.522 2572.14,317.806 2573.46,339.931 2574.78,306.137 2576.1,298.668 2577.42,324.947 2578.74,302.601 2580.07,330.701 2581.39,279.415 2582.71,326.421 2584.03,320.095 2585.35,300.421 2586.67,336.95 2587.99,293.385 2589.31,346.167 2590.63,317.621 2591.95,323.863 2593.27,305.279 2594.59,321.145 2595.91,320.465 2597.24,283.273 2598.56,312.031 2599.88,317.181 2601.2,301.333 2602.52,305.511 2603.84,289.499 2605.16,325.311 2606.48,317.159 2607.8,308.406 2609.12,321.533 2610.44,320.034 2611.76,299.464 2613.08,336.52 2614.41,327.363 2615.73,331.803 2617.05,342.965 2618.37,299.886 2619.69,342.64 2621.01,296.809 2622.33,309.253 2623.65,336.685 2624.97,317.998 2626.29,313.047 2627.61,314.889 2628.93,298.613 2630.25,308.666 2631.57,302.599 2632.9,302.519 2634.22,326.374 2635.54,314.347 2636.86,323.523 2638.18,301.338 2639.5,281.981 2640.82,330.812 2642.14,298.881 2643.46,298.279 2644.78,316.657 2646.1,301.294 2647.42,321.117 2648.74,316.794 2650.07,329.156 2651.39,334.496 2652.71,314.994 2654.03,318.468 2655.35,335.821 2656.67,286.523 2657.99,306.128 2659.31,335.99 2660.63,281.202 2661.95,304.157 2663.27,342.183 2664.59,330.305 2665.91,305.048 2667.23,355.237 2668.56,290.222 2669.88,327.419 2671.2,313.814 2672.52,323.851 2673.84,321.431 2675.16,304.35 2676.48,314.214 2677.8,290.232 2679.12,332.38 2680.44,276.268 2681.76,324.467 2683.08,318.496 2684.4,323.029 2685.73,316.068 2687.05,296.402 2688.37,298.589 2689.69,289.879 2691.01,285.869 2692.33,292.937 2693.65,306.602 2694.97,316.422 2696.29,334.454 2697.61,320.94 2698.93,338.875 2700.25,318.757 2701.57,312.975 2702.9,321.657 2704.22,314.245 2705.54,295.602 2706.86,332.605 2708.18,295.002 2709.5,309.955 2710.82,303.995 2712.14,322.681 2713.46,312.572 2714.78,309.98 2716.1,285.956 2717.42,310.664 2718.74,313.805 2720.06,294.115 2721.39,318.815 2722.71,311.258 2724.03,307.47 2725.35,302.188 2726.67,322.905 2727.99,326.013 2729.31,298.28 2730.63,305.958 2731.95,332.705 2733.27,287.056 2734.59,318.894 2735.91,312.649 2737.23,304.208 2738.56,293.544 2739.88,273.393 2741.2,315.579 2742.52,302.881 2743.84,308.849 2745.16,307.562 2746.48,323.567 2747.8,311.217 2749.12,327.172 2750.44,318.973 2751.76,319.47 2753.08,316.507 2754.4,318.378 2755.73,284.646 2757.05,302.005 2758.37,289.555 2759.69,321.288 2761.01,328.407 2762.33,298.43 2763.65,297.728 2764.97,291.087 2766.29,317.179 2767.61,322.651 2768.93,296.348 2770.25,324.3 2771.57,332.792 2772.89,321.679 2774.22,330.032 2775.54,317.287 2776.86,328.589 2778.18,325.075 2779.5,314.084 2780.82,329.373 2782.14,316.627 2783.46,325.658 2784.78,291.029 2786.1,308.82 2787.42,328.822 2788.74,312.552 2790.06,300.925 2791.39,314.068 2792.71,334.313 2794.03,320.986 2795.35,322.197 2796.67,309.514 2797.99,315.389 2799.31,316.618 2800.63,334.339 2801.95,324.989 2803.27,320.975 2804.59,309.044 2805.91,308.285 2807.23,306.211 2808.55,324.743 2809.88,292.574 2811.2,308.629 2812.52,295.843 2813.84,308.976 2815.16,324.958 2816.48,333.522 2817.8,353.809 2819.12,323.896 2820.44,315.074 2821.76,320.568 2823.08,310.721 2824.4,339.525 2825.72,320.725 2827.05,320.614 2828.37,332.671 2829.69,323.835 2831.01,308.104 2832.33,331.201 2833.65,332.262 2834.97,323.757 2836.29,329.9 2837.61,316.347 2838.93,313.173 2840.25,315.901 2841.57,307.279 2842.89,311.98 2844.22,304.752 2845.54,306.82 2846.86,281.863 2848.18,294.604 2849.5,320.174 2850.82,316.324 2852.14,329.632 2853.46,326.757 2854.78,337.908 2856.1,316.763 2857.42,313.74 2858.74,319.885 2860.06,326.115 2861.38,325.564 2862.71,346.379 2864.03,326.999 2865.35,318.588 2866.67,306.195 2867.99,300.626 2869.31,336.927 2870.63,342.012 2871.95,307.888 2873.27,321.554 2874.59,286.601 2875.91,307.926 2877.23,327.837 2878.55,305.464 2879.88,309.511 2881.2,306.257 2882.52,306.569 2883.84,280.989 2885.16,341.788 2886.48,295.63 2887.8,341.193 2889.12,282.007 2890.44,334.609 2891.76,330.5 2893.08,303.835 2894.4,331.009 2895.72,281.59 2897.04,323.168 2898.37,302.824 2899.69,317.13 2901.01,306.583 2902.33,312.6 2903.65,285.337 2904.97,301.362 2906.29,319.284 2907.61,326.812 2908.93,292.275 2910.25,349.441 2911.57,287.991 2912.89,301.651 2914.21,334.413 2915.54,308.249 2916.86,294.213 2918.18,327.056 2919.5,300.595 2920.82,307.564 2922.14,334.252 2923.46,299.743 2924.78,301.147 2926.1,320.215 2927.42,316.421 2928.74,295.871 2930.06,301.254 2931.38,294.27 2932.71,328.318 2934.03,312.467 2935.35,336.119 2936.67,287.1 2937.99,309.065 2939.31,320.238 2940.63,292.594 2941.95,324.575 2943.27,296.817 2944.59,285.673 2945.91,347.838 2947.23,316.615 2948.55,339.322 2949.87,293.87 2951.2,312.204 2952.52,299.171 2953.84,309.075 2955.16,296.455 2956.48,286.669 2957.8,345.758 2959.12,279.247 2960.44,314.981 2961.76,304.09 2963.08,282.309 2964.4,331.568 2965.72,284.944 2967.04,325.184 2968.37,293.015 2969.69,294.388 2971.01,285.584 2972.33,339.245 2973.65,300.033 2974.97,314.992 2976.29,324.477 2977.61,288.815 2978.93,304.914 2980.25,307.97 2981.57,315.666 2982.89,281.72 2984.21,320.635 2985.53,328.728 2986.86,291.607 2988.18,312.968 2989.5,319.202 2990.82,305.794 2992.14,278.358 2993.46,306.564 2994.78,293.94 2996.1,319.402 2997.42,281.075 2998.74,364.772 3000.06,286.143 3001.38,344.556 3002.7,316.377 3004.03,314.452 3005.35,325.267 3006.67,304.648 3007.99,294.823 3009.31,326.296 3010.63,292.626 3011.95,359.745 3013.27,292.901 3014.59,293.591 3015.91,311.875 3017.23,332.789 3018.55,317.68 3019.87,320.855 3021.2,336.381 3022.52,332.828 3023.84,277.737 3025.16,338.901 3026.48,299.68 3027.8,314.169 3029.12,296.656 3030.44,300.649 3031.76,315.446 3033.08,313.118 3034.4,324.348 3035.72,315.818 3037.04,309.377 3038.36,314.611 3039.69,304.788 3041.01,308.001 3042.33,318.578 3043.65,303.518 3044.97,302.193 3046.29,312.163 3047.61,341.213 3048.93,296.371 3050.25,332.203 3051.57,313.379 3052.89,313.431 3054.21,296.772 3055.53,320.175 3056.86,268.075 3058.18,318.868 3059.5,312.637 3060.82,327.111 3062.14,310.593 3063.46,322.893 3064.78,343.83 3066.1,293.604 3067.42,343.035 3068.74,316.199 3070.06,318.301 3071.38,326.079 3072.7,329.431 3074.02,332.276 3075.35,295.401 3076.67,346.094 3077.99,301.761 3079.31,329.004 3080.63,333.293 3081.95,298.746 3083.27,322.813 3084.59,319.787 3085.91,302.003 3087.23,295.122 3088.55,316.464 3089.87,334.414 3091.19,297.828 3092.52,335.176 3093.84,331.198 3095.16,301.068 3096.48,320.876 3097.8,325.505 3099.12,301.826 3100.44,321.131 3101.76,325.976 3103.08,323.819 3104.4,321.576 3105.72,312.561 3107.04,320.76 3108.36,343.277 3109.69,301.125 3111.01,321.632 3112.33,315.293 3113.65,325.006 3114.97,317.276 3116.29,310.128 3117.61,310.452 3118.93,333.106 3120.25,334.234 3121.57,286.668 3122.89,326.227 3124.21,315.633 3125.53,314.76 3126.85,326.196 3128.18,309.005 3129.5,280.454 3130.82,326.219 3132.14,297.703 3133.46,298.267 3134.78,352.18 3136.1,267.425 3137.42,344.617 3138.74,286.766 3140.06,316.476 3141.38,299.315 3142.7,319.72 3144.02,322.72 3145.35,300.771 3146.67,343.092 3147.99,298.195 3149.31,325.468 3150.63,273.608 3151.95,320.173 3153.27,317.101 3154.59,307.355 3155.91,316.929 3157.23,297.48 3158.55,344.524 3159.87,299.902 3161.19,333.209 3162.51,311.041 3163.84,334.457 3165.16,284.48 3166.48,350.572 3167.8,286.962 3169.12,329.595 3170.44,296.993 3171.76,328.256 3173.08,325.516 3174.4,299.609 3175.72,274.57 3177.04,299.723 3178.36,303.006 3179.68,337.053 3181.01,285.517 3182.33,288.37 3183.65,355.203 3184.97,280.99 3186.29,296.91 3187.61,310.219 3188.93,294.719 3190.25,326.444 3191.57,297.636 3192.89,296.213 3194.21,338.352 3195.53,298.59 3196.85,286.822 3198.18,331.712 3199.5,340.328 3200.82,305.534 3202.14,319.263 3203.46,306.77 3204.78,325.488 3206.1,299.345 3207.42,299.967 3208.74,317.54 3210.06,320.354 3211.38,298.329 3212.7,303.566 3214.02,360.303 3215.34,319.747 3216.67,343.946 3217.99,299.346 3219.31,324.438 3220.63,325.497 3221.95,289.848 3223.27,328.274 3224.59,297.921 3225.91,315.727 3227.23,292.619 3228.55,346.948 3229.87,334.359 3231.19,315.741 3232.51,326.675 3233.84,300.702 3235.16,310.508 3236.48,307.47 3237.8,333.057 3239.12,305.264 3240.44,304.136 3241.76,285.907 3243.08,312.932 3244.4,318.859 3245.72,304.108 3247.04,317.057 3248.36,319.732 3249.68,321.535 3251,325.676 3252.33,268.724 3253.65,310.989 3254.97,308.549 3256.29,301.676 3257.61,295.249 3258.93,320.501 3260.25,321.69 3261.57,309.645 3262.89,317.465 3264.21,289.895 3265.53,306.072 3266.85,308.697 3268.17,316.62 3269.5,319.816 3270.82,310.131 3272.14,320.204 3273.46,326.384 3274.78,291.83 3276.1,289.791 3277.42,290.554 3278.74,279.253 3280.06,307.038 3281.38,309.74 3282.7,305.671 3284.02,310.165 3285.34,329.77 3286.67,327.704 3287.99,294.295 3289.31,319.004 3290.63,323.591 3291.95,310.515 3293.27,306.936 3294.59,336.418 3295.91,306.41 3297.23,283.556 3298.55,290.556 3299.87,312.781 3301.19,322.266 3302.51,347.565 3303.83,294.958 3305.16,311.994 3306.48,309.511 3307.8,324.692 3309.12,294.164 3310.44,321.97 3311.76,316.865 3313.08,326.828 3314.4,316.432 3315.72,326.992 3317.04,310.289 3318.36,343.195 3319.68,314.391 3321,327.497 3322.33,306.055 3323.65,301.222 3324.97,318.212 3326.29,316.842 3327.61,297.274 3328.93,348.043 3330.25,289.689 3331.57,306.211 3332.89,284.571 3334.21,353.107 3335.53,285.145 3336.85,312.018 3338.17,339.378 3339.49,295.738 3340.82,334.248 3342.14,311.237 3343.46,332.006 3344.78,307.795 3346.1,293.814 3347.42,311.753 3348.74,290.524 3350.06,328.608 3351.38,287.211 3352.7,334.271 3354.02,297.181 3355.34,311.439 3356.66,346.863 3357.99,295.669 3359.31,306.076 3360.63,322.583 3361.95,304.229 3363.27,306.217 3364.59,303.716 3365.91,326.03 3367.23,301.237 3368.55,326.807 3369.87,306.452 3371.19,319.205 3372.51,306.224 3373.83,335.472 3375.16,313.924 3376.48,303.292 3377.8,311.037 3379.12,313.012 3380.44,308.773 3381.76,299.119 3383.08,343.716 3384.4,348.928 3385.72,327.309 3387.04,306.294 3388.36,321.741 3389.68,317.697 3391,270.778 3392.32,340.261 3393.65,307.62 3394.97,308.925 3396.29,316.055 3397.61,312.506 3398.93,302.379 3400.25,331.904 3401.57,332.403 3402.89,286.424 3404.21,320.649 3405.53,313.873 3406.85,312.188 3408.17,272.222 3409.49,332.442 3410.82,282.09 3412.14,345.543 3413.46,292.509 3414.78,296.337 3416.1,340.047 3417.42,308.514 3418.74,338.359 3420.06,319.028 3421.38,309.219 3422.7,325.009 3424.02,346.559 3425.34,325.904 3426.66,324.022 3427.98,309.188 3429.31,326.953 3430.63,332.982 3431.95,305.201 3433.27,329.903 3434.59,327.638 3435.91,289.422 3437.23,296.22 3438.55,299.602 3439.87,303.486 3441.19,312.968 3442.51,313.319 3443.83,325.442 3445.15,291.546 3446.48,366.714 3447.8,297.892 3449.12,355.952 3450.44,292.048 3451.76,318.088 3453.08,329.535 3454.4,309.35 3455.72,318.177 "/>
<path clip-path="url(#clip550)" d="M2934.64 166.762 L3438.47 166.762 L3438.47 63.0816 L2934.64 63.0816  Z" fill="#ffffff" fill-rule="evenodd" fill-opacity="1"/>
<polyline clip-path="url(#clip550)" style="stroke:#000000; stroke-linecap:round; stroke-linejoin:round; stroke-width:4; stroke-opacity:1; fill:none" points="2934.64,166.762 3438.47,166.762 3438.47,63.0816 2934.64,63.0816 2934.64,166.762 "/>
<polyline clip-path="url(#clip550)" style="stroke:#009af9; stroke-linecap:round; stroke-linejoin:round; stroke-width:2; stroke-opacity:1; fill:none" points="2972.74,114.922 3201.31,114.922 "/>
<path clip-path="url(#clip550)" d="M3244.08 101.484 L3244.08 114.47 L3249.96 114.47 Q3253.22 114.47 3255.01 112.78 Q3256.79 111.091 3256.79 107.966 Q3256.79 104.864 3255.01 103.174 Q3253.22 101.484 3249.96 101.484 L3244.08 101.484 M3239.4 97.6416 L3249.96 97.6416 Q3255.77 97.6416 3258.73 100.28 Q3261.72 102.896 3261.72 107.966 Q3261.72 113.081 3258.73 115.697 Q3255.77 118.313 3249.96 118.313 L3244.08 118.313 L3244.08 132.202 L3239.4 132.202 L3239.4 97.6416 Z" fill="#000000" fill-rule="evenodd" fill-opacity="1" /><path clip-path="url(#clip550)" d="M3267.99 97.6416 L3289.84 97.6416 L3289.84 101.577 L3272.67 101.577 L3272.67 111.808 L3289.13 111.808 L3289.13 115.743 L3272.67 115.743 L3272.67 128.266 L3290.26 128.266 L3290.26 132.202 L3267.99 132.202 L3267.99 97.6416 Z" fill="#000000" fill-rule="evenodd" fill-opacity="1" /><path clip-path="url(#clip550)" d="M3297.94 97.6416 L3302.62 97.6416 L3302.62 111.808 L3319.61 111.808 L3319.61 97.6416 L3324.29 97.6416 L3324.29 132.202 L3319.61 132.202 L3319.61 115.743 L3302.62 115.743 L3302.62 132.202 L3297.94 132.202 L3297.94 97.6416 Z" fill="#000000" fill-rule="evenodd" fill-opacity="1" /><path clip-path="url(#clip550)" d="M3333.59 97.6416 L3340.56 97.6416 L3349.38 121.16 L3358.25 97.6416 L3365.21 97.6416 L3365.21 132.202 L3360.65 132.202 L3360.65 101.854 L3351.74 125.558 L3347.04 125.558 L3338.13 101.854 L3338.13 132.202 L3333.59 132.202 L3333.59 97.6416 Z" fill="#000000" fill-rule="evenodd" fill-opacity="1" /><path clip-path="url(#clip550)" d="M3400.37 100.304 L3400.37 105.234 Q3398.01 103.035 3395.33 101.947 Q3392.67 100.859 3389.66 100.859 Q3383.73 100.859 3380.58 104.493 Q3377.43 108.104 3377.43 114.956 Q3377.43 121.785 3380.58 125.419 Q3383.73 129.03 3389.66 129.03 Q3392.67 129.03 3395.33 127.942 Q3398.01 126.854 3400.37 124.655 L3400.37 129.54 Q3397.92 131.206 3395.17 132.04 Q3392.43 132.873 3389.38 132.873 Q3381.53 132.873 3377.02 128.081 Q3372.5 123.266 3372.5 114.956 Q3372.5 106.623 3377.02 101.831 Q3381.53 97.0166 3389.38 97.0166 Q3392.48 97.0166 3395.21 97.8499 Q3397.97 98.6601 3400.37 100.304 Z" fill="#000000" fill-rule="evenodd" fill-opacity="1" /></svg>
