<?xml version="1.0" encoding="utf-8"?>
<svg xmlns="http://www.w3.org/2000/svg" xmlns:xlink="http://www.w3.org/1999/xlink" width="900" height="150" viewBox="0 0 3600 600">
<defs>
  <clipPath id="clip800">
    <rect x="0" y="0" width="3600" height="600"/>
  </clipPath>
</defs>
<path clip-path="url(#clip800)" d="M0 600 L3600 600 L3600 0 L0 0  Z" fill="#ffffff" fill-rule="evenodd" fill-opacity="1"/>
<defs>
  <clipPath id="clip801">
    <rect x="720" y="0" width="2521" height="600"/>
  </clipPath>
</defs>
<path clip-path="url(#clip800)" d="M124.177 522.368 L3552.76 522.368 L3552.76 47.2441 L124.177 47.2441  Z" fill="#ffffff" fill-rule="evenodd" fill-opacity="1"/>
<defs>
  <clipPath id="clip802">
    <rect x="124" y="47" width="3430" height="476"/>
  </clipPath>
</defs>
<polyline clip-path="url(#clip802)" style="stroke:#000000; stroke-linecap:round; stroke-linejoin:round; stroke-width:2; stroke-opacity:0.1; fill:none" points="217.403,522.368 217.403,47.2441 "/>
<polyline clip-path="url(#clip802)" style="stroke:#000000; stroke-linecap:round; stroke-linejoin:round; stroke-width:2; stroke-opacity:0.1; fill:none" points="979.36,522.368 979.36,47.2441 "/>
<polyline clip-path="url(#clip802)" style="stroke:#000000; stroke-linecap:round; stroke-linejoin:round; stroke-width:2; stroke-opacity:0.1; fill:none" points="1741.32,522.368 1741.32,47.2441 "/>
<polyline clip-path="url(#clip802)" style="stroke:#000000; stroke-linecap:round; stroke-linejoin:round; stroke-width:2; stroke-opacity:0.1; fill:none" points="2503.27,522.368 2503.27,47.2441 "/>
<polyline clip-path="url(#clip802)" style="stroke:#000000; stroke-linecap:round; stroke-linejoin:round; stroke-width:2; stroke-opacity:0.1; fill:none" points="3265.23,522.368 3265.23,47.2441 "/>
<polyline clip-path="url(#clip800)" style="stroke:#000000; stroke-linecap:round; stroke-linejoin:round; stroke-width:4; stroke-opacity:1; fill:none" points="124.177,522.368 3552.76,522.368 "/>
<polyline clip-path="url(#clip800)" style="stroke:#000000; stroke-linecap:round; stroke-linejoin:round; stroke-width:4; stroke-opacity:1; fill:none" points="217.403,522.368 217.403,503.47 "/>
<polyline clip-path="url(#clip800)" style="stroke:#000000; stroke-linecap:round; stroke-linejoin:round; stroke-width:4; stroke-opacity:1; fill:none" points="979.36,522.368 979.36,503.47 "/>
<polyline clip-path="url(#clip800)" style="stroke:#000000; stroke-linecap:round; stroke-linejoin:round; stroke-width:4; stroke-opacity:1; fill:none" points="1741.32,522.368 1741.32,503.47 "/>
<polyline clip-path="url(#clip800)" style="stroke:#000000; stroke-linecap:round; stroke-linejoin:round; stroke-width:4; stroke-opacity:1; fill:none" points="2503.27,522.368 2503.27,503.47 "/>
<polyline clip-path="url(#clip800)" style="stroke:#000000; stroke-linecap:round; stroke-linejoin:round; stroke-width:4; stroke-opacity:1; fill:none" points="3265.23,522.368 3265.23,503.47 "/>
<path clip-path="url(#clip800)" d="M217.403 562.887 Q213.792 562.887 211.963 566.451 Q210.157 569.993 210.157 577.123 Q210.157 584.229 211.963 587.794 Q213.792 591.335 217.403 591.335 Q221.037 591.335 222.842 587.794 Q224.671 584.229 224.671 577.123 Q224.671 569.993 222.842 566.451 Q221.037 562.887 217.403 562.887 M217.403 559.183 Q223.213 559.183 226.268 563.789 Q229.347 568.373 229.347 577.123 Q229.347 585.849 226.268 590.456 Q223.213 595.039 217.403 595.039 Q211.592 595.039 208.514 590.456 Q205.458 585.849 205.458 577.123 Q205.458 568.373 208.514 563.789 Q211.592 559.183 217.403 559.183 Z" fill="#000000" fill-rule="evenodd" fill-opacity="1" /><path clip-path="url(#clip800)" d="M943.052 590.433 L959.371 590.433 L959.371 594.368 L937.427 594.368 L937.427 590.433 Q940.089 587.678 944.673 583.048 Q949.279 578.396 950.46 577.053 Q952.705 574.53 953.584 572.794 Q954.487 571.035 954.487 569.345 Q954.487 566.59 952.543 564.854 Q950.622 563.118 947.52 563.118 Q945.321 563.118 942.867 563.882 Q940.436 564.646 937.659 566.197 L937.659 561.475 Q940.483 560.34 942.936 559.762 Q945.39 559.183 947.427 559.183 Q952.797 559.183 955.992 561.868 Q959.186 564.553 959.186 569.044 Q959.186 571.174 958.376 573.095 Q957.589 574.993 955.483 577.586 Q954.904 578.257 951.802 581.474 Q948.7 584.669 943.052 590.433 Z" fill="#000000" fill-rule="evenodd" fill-opacity="1" /><path clip-path="url(#clip800)" d="M979.186 562.887 Q975.575 562.887 973.746 566.451 Q971.941 569.993 971.941 577.123 Q971.941 584.229 973.746 587.794 Q975.575 591.335 979.186 591.335 Q982.82 591.335 984.626 587.794 Q986.455 584.229 986.455 577.123 Q986.455 569.993 984.626 566.451 Q982.82 562.887 979.186 562.887 M979.186 559.183 Q984.996 559.183 988.052 563.789 Q991.131 568.373 991.131 577.123 Q991.131 585.849 988.052 590.456 Q984.996 595.039 979.186 595.039 Q973.376 595.039 970.297 590.456 Q967.242 585.849 967.242 577.123 Q967.242 568.373 970.297 563.789 Q973.376 559.183 979.186 559.183 Z" fill="#000000" fill-rule="evenodd" fill-opacity="1" /><path clip-path="url(#clip800)" d="M1009.35 562.887 Q1005.74 562.887 1003.91 566.451 Q1002.1 569.993 1002.1 577.123 Q1002.1 584.229 1003.91 587.794 Q1005.74 591.335 1009.35 591.335 Q1012.98 591.335 1014.79 587.794 Q1016.62 584.229 1016.62 577.123 Q1016.62 569.993 1014.79 566.451 Q1012.98 562.887 1009.35 562.887 M1009.35 559.183 Q1015.16 559.183 1018.21 563.789 Q1021.29 568.373 1021.29 577.123 Q1021.29 585.849 1018.21 590.456 Q1015.16 595.039 1009.35 595.039 Q1003.54 595.039 1000.46 590.456 Q997.404 585.849 997.404 577.123 Q997.404 568.373 1000.46 563.789 Q1003.54 559.183 1009.35 559.183 Z" fill="#000000" fill-rule="evenodd" fill-opacity="1" /><path clip-path="url(#clip800)" d="M1714.41 563.882 L1702.6 582.331 L1714.41 582.331 L1714.41 563.882 M1713.18 559.808 L1719.06 559.808 L1719.06 582.331 L1723.99 582.331 L1723.99 586.22 L1719.06 586.22 L1719.06 594.368 L1714.41 594.368 L1714.41 586.22 L1698.81 586.22 L1698.81 581.706 L1713.18 559.808 Z" fill="#000000" fill-rule="evenodd" fill-opacity="1" /><path clip-path="url(#clip800)" d="M1741.72 562.887 Q1738.11 562.887 1736.28 566.451 Q1734.48 569.993 1734.48 577.123 Q1734.48 584.229 1736.28 587.794 Q1738.11 591.335 1741.72 591.335 Q1745.36 591.335 1747.16 587.794 Q1748.99 584.229 1748.99 577.123 Q1748.99 569.993 1747.16 566.451 Q1745.36 562.887 1741.72 562.887 M1741.72 559.183 Q1747.53 559.183 1750.59 563.789 Q1753.67 568.373 1753.67 577.123 Q1753.67 585.849 1750.59 590.456 Q1747.53 595.039 1741.72 595.039 Q1735.91 595.039 1732.83 590.456 Q1729.78 585.849 1729.78 577.123 Q1729.78 568.373 1732.83 563.789 Q1735.91 559.183 1741.72 559.183 Z" fill="#000000" fill-rule="evenodd" fill-opacity="1" /><path clip-path="url(#clip800)" d="M1771.88 562.887 Q1768.27 562.887 1766.44 566.451 Q1764.64 569.993 1764.64 577.123 Q1764.64 584.229 1766.44 587.794 Q1768.27 591.335 1771.88 591.335 Q1775.52 591.335 1777.32 587.794 Q1779.15 584.229 1779.15 577.123 Q1779.15 569.993 1777.32 566.451 Q1775.52 562.887 1771.88 562.887 M1771.88 559.183 Q1777.69 559.183 1780.75 563.789 Q1783.83 568.373 1783.83 577.123 Q1783.83 585.849 1780.75 590.456 Q1777.69 595.039 1771.88 595.039 Q1766.07 595.039 1763 590.456 Q1759.94 585.849 1759.94 577.123 Q1759.94 568.373 1763 563.789 Q1766.07 559.183 1771.88 559.183 Z" fill="#000000" fill-rule="evenodd" fill-opacity="1" /><path clip-path="url(#clip800)" d="M2473.6 575.224 Q2470.45 575.224 2468.6 577.377 Q2466.77 579.53 2466.77 583.28 Q2466.77 587.007 2468.6 589.183 Q2470.45 591.335 2473.6 591.335 Q2476.75 591.335 2478.58 589.183 Q2480.43 587.007 2480.43 583.28 Q2480.43 579.53 2478.58 577.377 Q2476.75 575.224 2473.6 575.224 M2482.88 560.572 L2482.88 564.831 Q2481.12 563.998 2479.32 563.558 Q2477.53 563.118 2475.77 563.118 Q2471.14 563.118 2468.69 566.243 Q2466.26 569.368 2465.91 575.687 Q2467.28 573.674 2469.34 572.609 Q2471.4 571.521 2473.88 571.521 Q2479.08 571.521 2482.09 574.692 Q2485.13 577.84 2485.13 583.28 Q2485.13 588.604 2481.98 591.822 Q2478.83 595.039 2473.6 595.039 Q2467.6 595.039 2464.43 590.456 Q2461.26 585.849 2461.26 577.123 Q2461.26 568.928 2465.15 564.067 Q2469.04 559.183 2475.59 559.183 Q2477.35 559.183 2479.13 559.53 Q2480.94 559.877 2482.88 560.572 Z" fill="#000000" fill-rule="evenodd" fill-opacity="1" /><path clip-path="url(#clip800)" d="M2503.18 562.887 Q2499.57 562.887 2497.74 566.451 Q2495.94 569.993 2495.94 577.123 Q2495.94 584.229 2497.74 587.794 Q2499.57 591.335 2503.18 591.335 Q2506.82 591.335 2508.62 587.794 Q2510.45 584.229 2510.45 577.123 Q2510.45 569.993 2508.62 566.451 Q2506.82 562.887 2503.18 562.887 M2503.18 559.183 Q2508.99 559.183 2512.05 563.789 Q2515.13 568.373 2515.13 577.123 Q2515.13 585.849 2512.05 590.456 Q2508.99 595.039 2503.18 595.039 Q2497.37 595.039 2494.29 590.456 Q2491.24 585.849 2491.24 577.123 Q2491.24 568.373 2494.29 563.789 Q2497.37 559.183 2503.18 559.183 Z" fill="#000000" fill-rule="evenodd" fill-opacity="1" /><path clip-path="url(#clip800)" d="M2533.34 562.887 Q2529.73 562.887 2527.9 566.451 Q2526.1 569.993 2526.1 577.123 Q2526.1 584.229 2527.9 587.794 Q2529.73 591.335 2533.34 591.335 Q2536.98 591.335 2538.78 587.794 Q2540.61 584.229 2540.61 577.123 Q2540.61 569.993 2538.78 566.451 Q2536.98 562.887 2533.34 562.887 M2533.34 559.183 Q2539.15 559.183 2542.21 563.789 Q2545.29 568.373 2545.29 577.123 Q2545.29 585.849 2542.21 590.456 Q2539.15 595.039 2533.34 595.039 Q2527.53 595.039 2524.45 590.456 Q2521.4 585.849 2521.4 577.123 Q2521.4 568.373 2524.45 563.789 Q2527.53 559.183 2533.34 559.183 Z" fill="#000000" fill-rule="evenodd" fill-opacity="1" /><path clip-path="url(#clip800)" d="M3235.02 577.956 Q3231.69 577.956 3229.77 579.738 Q3227.87 581.521 3227.87 584.646 Q3227.87 587.771 3229.77 589.553 Q3231.69 591.335 3235.02 591.335 Q3238.36 591.335 3240.28 589.553 Q3242.2 587.748 3242.2 584.646 Q3242.2 581.521 3240.28 579.738 Q3238.38 577.956 3235.02 577.956 M3230.35 575.965 Q3227.34 575.224 3225.65 573.164 Q3223.98 571.104 3223.98 568.141 Q3223.98 563.998 3226.92 561.59 Q3229.88 559.183 3235.02 559.183 Q3240.19 559.183 3243.13 561.59 Q3246.06 563.998 3246.06 568.141 Q3246.06 571.104 3244.37 573.164 Q3242.71 575.224 3239.72 575.965 Q3243.1 576.752 3244.98 579.044 Q3246.87 581.336 3246.87 584.646 Q3246.87 589.669 3243.8 592.354 Q3240.74 595.039 3235.02 595.039 Q3229.31 595.039 3226.23 592.354 Q3223.17 589.669 3223.17 584.646 Q3223.17 581.336 3225.07 579.044 Q3226.97 576.752 3230.35 575.965 M3228.63 568.581 Q3228.63 571.266 3230.3 572.771 Q3231.99 574.275 3235.02 574.275 Q3238.03 574.275 3239.72 572.771 Q3241.44 571.266 3241.44 568.581 Q3241.44 565.896 3239.72 564.391 Q3238.03 562.887 3235.02 562.887 Q3231.99 562.887 3230.3 564.391 Q3228.63 565.896 3228.63 568.581 Z" fill="#000000" fill-rule="evenodd" fill-opacity="1" /><path clip-path="url(#clip800)" d="M3265.19 562.887 Q3261.57 562.887 3259.75 566.451 Q3257.94 569.993 3257.94 577.123 Q3257.94 584.229 3259.75 587.794 Q3261.57 591.335 3265.19 591.335 Q3268.82 591.335 3270.62 587.794 Q3272.45 584.229 3272.45 577.123 Q3272.45 569.993 3270.62 566.451 Q3268.82 562.887 3265.19 562.887 M3265.19 559.183 Q3271 559.183 3274.05 563.789 Q3277.13 568.373 3277.13 577.123 Q3277.13 585.849 3274.05 590.456 Q3271 595.039 3265.19 595.039 Q3259.37 595.039 3256.3 590.456 Q3253.24 585.849 3253.24 577.123 Q3253.24 568.373 3256.3 563.789 Q3259.37 559.183 3265.19 559.183 Z" fill="#000000" fill-rule="evenodd" fill-opacity="1" /><path clip-path="url(#clip800)" d="M3295.35 562.887 Q3291.74 562.887 3289.91 566.451 Q3288.1 569.993 3288.1 577.123 Q3288.1 584.229 3289.91 587.794 Q3291.74 591.335 3295.35 591.335 Q3298.98 591.335 3300.79 587.794 Q3302.62 584.229 3302.62 577.123 Q3302.62 569.993 3300.79 566.451 Q3298.98 562.887 3295.35 562.887 M3295.35 559.183 Q3301.16 559.183 3304.21 563.789 Q3307.29 568.373 3307.29 577.123 Q3307.29 585.849 3304.21 590.456 Q3301.16 595.039 3295.35 595.039 Q3289.54 595.039 3286.46 590.456 Q3283.4 585.849 3283.4 577.123 Q3283.4 568.373 3286.46 563.789 Q3289.54 559.183 3295.35 559.183 Z" fill="#000000" fill-rule="evenodd" fill-opacity="1" /><polyline clip-path="url(#clip802)" style="stroke:#000000; stroke-linecap:round; stroke-linejoin:round; stroke-width:2; stroke-opacity:0.1; fill:none" points="124.177,522.368 3552.76,522.368 "/>
<polyline clip-path="url(#clip802)" style="stroke:#000000; stroke-linecap:round; stroke-linejoin:round; stroke-width:2; stroke-opacity:0.1; fill:none" points="124.177,454.493 3552.76,454.493 "/>
<polyline clip-path="url(#clip802)" style="stroke:#000000; stroke-linecap:round; stroke-linejoin:round; stroke-width:2; stroke-opacity:0.1; fill:none" points="124.177,386.618 3552.76,386.618 "/>
<polyline clip-path="url(#clip802)" style="stroke:#000000; stroke-linecap:round; stroke-linejoin:round; stroke-width:2; stroke-opacity:0.1; fill:none" points="124.177,318.743 3552.76,318.743 "/>
<polyline clip-path="url(#clip802)" style="stroke:#000000; stroke-linecap:round; stroke-linejoin:round; stroke-width:2; stroke-opacity:0.1; fill:none" points="124.177,250.869 3552.76,250.869 "/>
<polyline clip-path="url(#clip802)" style="stroke:#000000; stroke-linecap:round; stroke-linejoin:round; stroke-width:2; stroke-opacity:0.1; fill:none" points="124.177,182.994 3552.76,182.994 "/>
<polyline clip-path="url(#clip802)" style="stroke:#000000; stroke-linecap:round; stroke-linejoin:round; stroke-width:2; stroke-opacity:0.1; fill:none" points="124.177,115.119 3552.76,115.119 "/>
<polyline clip-path="url(#clip802)" style="stroke:#000000; stroke-linecap:round; stroke-linejoin:round; stroke-width:2; stroke-opacity:0.1; fill:none" points="124.177,47.2441 3552.76,47.2441 "/>
<polyline clip-path="url(#clip800)" style="stroke:#000000; stroke-linecap:round; stroke-linejoin:round; stroke-width:4; stroke-opacity:1; fill:none" points="124.177,522.368 124.177,47.2441 "/>
<polyline clip-path="url(#clip800)" style="stroke:#000000; stroke-linecap:round; stroke-linejoin:round; stroke-width:4; stroke-opacity:1; fill:none" points="124.177,522.368 143.075,522.368 "/>
<polyline clip-path="url(#clip800)" style="stroke:#000000; stroke-linecap:round; stroke-linejoin:round; stroke-width:4; stroke-opacity:1; fill:none" points="124.177,454.493 143.075,454.493 "/>
<polyline clip-path="url(#clip800)" style="stroke:#000000; stroke-linecap:round; stroke-linejoin:round; stroke-width:4; stroke-opacity:1; fill:none" points="124.177,386.618 143.075,386.618 "/>
<polyline clip-path="url(#clip800)" style="stroke:#000000; stroke-linecap:round; stroke-linejoin:round; stroke-width:4; stroke-opacity:1; fill:none" points="124.177,318.743 143.075,318.743 "/>
<polyline clip-path="url(#clip800)" style="stroke:#000000; stroke-linecap:round; stroke-linejoin:round; stroke-width:4; stroke-opacity:1; fill:none" points="124.177,250.869 143.075,250.869 "/>
<polyline clip-path="url(#clip800)" style="stroke:#000000; stroke-linecap:round; stroke-linejoin:round; stroke-width:4; stroke-opacity:1; fill:none" points="124.177,182.994 143.075,182.994 "/>
<polyline clip-path="url(#clip800)" style="stroke:#000000; stroke-linecap:round; stroke-linejoin:round; stroke-width:4; stroke-opacity:1; fill:none" points="124.177,115.119 143.075,115.119 "/>
<polyline clip-path="url(#clip800)" style="stroke:#000000; stroke-linecap:round; stroke-linejoin:round; stroke-width:4; stroke-opacity:1; fill:none" points="124.177,47.2441 143.075,47.2441 "/>
<path clip-path="url(#clip800)" d="M50.2699 535.713 L57.9087 535.713 L57.9087 509.347 L49.5986 511.014 L49.5986 506.755 L57.8624 505.088 L62.5383 505.088 L62.5383 535.713 L70.1772 535.713 L70.1772 539.648 L50.2699 539.648 L50.2699 535.713 Z" fill="#000000" fill-rule="evenodd" fill-opacity="1" /><path clip-path="url(#clip800)" d="M53.8578 467.838 L70.1772 467.838 L70.1772 471.773 L48.2328 471.773 L48.2328 467.838 Q50.8949 465.083 55.4782 460.454 Q60.0846 455.801 61.2652 454.458 Q63.5105 451.935 64.3902 450.199 Q65.2929 448.44 65.2929 446.75 Q65.2929 443.995 63.3485 442.259 Q61.4272 440.523 58.3254 440.523 Q56.1263 440.523 53.6726 441.287 Q51.2421 442.051 48.4643 443.602 L48.4643 438.88 Q51.2884 437.745 53.7421 437.167 Q56.1958 436.588 58.2328 436.588 Q63.6031 436.588 66.7976 439.273 Q69.992 441.958 69.992 446.449 Q69.992 448.579 69.1818 450.5 Q68.3948 452.398 66.2883 454.991 Q65.7096 455.662 62.6078 458.88 Q59.5059 462.074 53.8578 467.838 Z" fill="#000000" fill-rule="evenodd" fill-opacity="1" /><path clip-path="url(#clip800)" d="M63.0476 385.264 Q66.404 385.982 68.279 388.25 Q70.1772 390.519 70.1772 393.852 Q70.1772 398.968 66.6587 401.769 Q63.1402 404.57 56.6587 404.57 Q54.4828 404.57 52.168 404.13 Q49.8764 403.713 47.4227 402.857 L47.4227 398.343 Q49.3671 399.477 51.6819 400.056 Q53.9967 400.634 56.5198 400.634 Q60.918 400.634 63.2096 398.898 Q65.5244 397.162 65.5244 393.852 Q65.5244 390.796 63.3717 389.083 Q61.242 387.347 57.4226 387.347 L53.3949 387.347 L53.3949 383.505 L57.6078 383.505 Q61.0569 383.505 62.8855 382.139 Q64.7142 380.75 64.7142 378.158 Q64.7142 375.496 62.8161 374.084 Q60.9411 372.648 57.4226 372.648 Q55.5013 372.648 53.3023 373.065 Q51.1032 373.482 48.4643 374.361 L48.4643 370.195 Q51.1264 369.454 53.4412 369.084 Q55.7791 368.713 57.8393 368.713 Q63.1633 368.713 66.2652 371.144 Q69.367 373.551 69.367 377.672 Q69.367 380.542 67.7235 382.533 Q66.08 384.5 63.0476 385.264 Z" fill="#000000" fill-rule="evenodd" fill-opacity="1" /><path clip-path="url(#clip800)" d="M60.5939 305.537 L48.7884 323.986 L60.5939 323.986 L60.5939 305.537 M59.367 301.463 L65.2466 301.463 L65.2466 323.986 L70.1772 323.986 L70.1772 327.875 L65.2466 327.875 L65.2466 336.023 L60.5939 336.023 L60.5939 327.875 L44.9921 327.875 L44.9921 323.361 L59.367 301.463 Z" fill="#000000" fill-rule="evenodd" fill-opacity="1" /><path clip-path="url(#clip800)" d="M49.2745 233.589 L67.6309 233.589 L67.6309 237.524 L53.5569 237.524 L53.5569 245.996 Q54.5754 245.649 55.5939 245.487 Q56.6124 245.301 57.6309 245.301 Q63.418 245.301 66.7976 248.473 Q70.1772 251.644 70.1772 257.061 Q70.1772 262.639 66.705 265.741 Q63.2328 268.82 56.9134 268.82 Q54.7374 268.82 52.4689 268.449 Q50.2236 268.079 47.8162 267.338 L47.8162 262.639 Q49.8995 263.774 52.1217 264.329 Q54.3439 264.885 56.8208 264.885 Q60.8254 264.885 63.1633 262.778 Q65.5013 260.672 65.5013 257.061 Q65.5013 253.45 63.1633 251.343 Q60.8254 249.237 56.8208 249.237 Q54.9458 249.237 53.0708 249.653 Q51.2189 250.07 49.2745 250.95 L49.2745 233.589 Z" fill="#000000" fill-rule="evenodd" fill-opacity="1" /><path clip-path="url(#clip800)" d="M58.6495 181.13 Q55.5013 181.13 53.6495 183.283 Q51.8208 185.436 51.8208 189.186 Q51.8208 192.913 53.6495 195.089 Q55.5013 197.241 58.6495 197.241 Q61.7976 197.241 63.6263 195.089 Q65.4781 192.913 65.4781 189.186 Q65.4781 185.436 63.6263 183.283 Q61.7976 181.13 58.6495 181.13 M67.9318 166.478 L67.9318 170.737 Q66.1726 169.904 64.367 169.464 Q62.5846 169.024 60.8254 169.024 Q56.1958 169.024 53.7421 172.149 Q51.3115 175.274 50.9643 181.593 Q52.33 179.579 54.3902 178.515 Q56.4504 177.427 58.9272 177.427 Q64.1355 177.427 67.1448 180.598 Q70.1772 183.746 70.1772 189.186 Q70.1772 194.51 67.029 197.727 Q63.8809 200.945 58.6495 200.945 Q52.6541 200.945 49.4828 196.362 Q46.3116 191.755 46.3116 183.028 Q46.3116 174.834 50.2004 169.973 Q54.0893 165.089 60.6402 165.089 Q62.3994 165.089 64.1818 165.436 Q65.9874 165.783 67.9318 166.478 Z" fill="#000000" fill-rule="evenodd" fill-opacity="1" /><path clip-path="url(#clip800)" d="M47.9551 97.8389 L70.1772 97.8389 L70.1772 99.8297 L57.6309 132.399 L52.7467 132.399 L64.5522 101.774 L47.9551 101.774 L47.9551 97.8389 Z" fill="#000000" fill-rule="evenodd" fill-opacity="1" /><path clip-path="url(#clip800)" d="M58.3254 48.1121 Q54.9921 48.1121 53.0708 49.8945 Q51.1726 51.6769 51.1726 54.8019 Q51.1726 57.9269 53.0708 59.7093 Q54.9921 61.4917 58.3254 61.4917 Q61.6587 61.4917 63.58 59.7093 Q65.5013 57.9038 65.5013 54.8019 Q65.5013 51.6769 63.58 49.8945 Q61.6819 48.1121 58.3254 48.1121 M53.6495 46.1214 Q50.6402 45.3807 48.9504 43.3205 Q47.2838 41.2603 47.2838 38.2974 Q47.2838 34.1539 50.2236 31.7465 Q53.1865 29.3391 58.3254 29.3391 Q63.4874 29.3391 66.4272 31.7465 Q69.367 34.1539 69.367 38.2974 Q69.367 41.2603 67.6772 43.3205 Q66.0105 45.3807 63.0244 46.1214 Q66.404 46.9084 68.279 49.2001 Q70.1772 51.4918 70.1772 54.8019 Q70.1772 59.825 67.0985 62.5102 Q64.0429 65.1954 58.3254 65.1954 Q52.6078 65.1954 49.5291 62.5102 Q46.4736 59.825 46.4736 54.8019 Q46.4736 51.4918 48.3717 49.2001 Q50.2699 46.9084 53.6495 46.1214 M51.9365 38.7372 Q51.9365 41.4224 53.6032 42.927 Q55.293 44.4316 58.3254 44.4316 Q61.3346 44.4316 63.0244 42.927 Q64.7374 41.4224 64.7374 38.7372 Q64.7374 36.052 63.0244 34.5474 Q61.3346 33.0428 58.3254 33.0428 Q55.293 33.0428 53.6032 34.5474 Q51.9365 36.052 51.9365 38.7372 Z" fill="#000000" fill-rule="evenodd" fill-opacity="1" /><polyline clip-path="url(#clip802)" style="stroke:#009af9; stroke-linecap:round; stroke-linejoin:round; stroke-width:2; stroke-opacity:1; fill:none" points="221.212,464.492 225.022,452.012 228.832,451.806 232.642,468.493 236.452,477.531 240.261,469.066 244.071,438.182 247.881,441.694 251.691,453.957 255.5,406.085 259.31,447.377 263.12,456.703 266.93,459.632 270.74,442.151 274.549,445.79 278.359,463.797 282.169,463.615 285.979,330.843 289.789,294.043 293.598,351.64 297.408,305.894 301.218,306.066 305.028,298.064 308.837,335.258 312.647,298.022 316.457,359.011 320.267,314.225 324.077,297.093 327.886,367.119 331.696,265.5 335.506,350.382 339.316,317.06 343.126,304.507 346.935,312.551 350.745,156.155 354.555,209.5 358.365,154.545 362.175,159.682 365.984,208.944 369.794,149.659 373.604,218.07 377.414,150.399 381.223,213.533 385.033,314.243 388.843,324.679 392.653,315.267 396.463,320.222 400.272,316.999 404.082,322.373 407.892,313.67 411.702,324.81 415.512,425.781 419.321,426.228 423.131,431.222 426.941,410.921 430.751,487.658 434.56,469.217 438.37,469.729 442.18,469.258 445.99,466.055 449.8,441.305 453.609,473.384 457.419,476.182 461.229,436.498 465.039,421.078 468.849,435.248 472.658,442.235 476.468,458.004 480.278,476.751 484.088,465.309 487.897,478.909 491.707,448.607 495.517,417.99 499.327,434.74 503.137,452.277 506.946,436.822 510.756,436.166 514.566,432.691 518.376,430.097 522.186,480.977 525.995,461.234 529.805,452.762 533.615,463.689 537.425,405.507 541.234,446.875 545.044,184.641 548.854,169.149 552.664,192.383 556.474,148.679 560.283,176.145 564.093,154.176 567.903,223.637 571.713,144.661 575.523,221.765 579.332,190.306 583.142,171.992 586.952,199.239 590.762,183.099 594.571,182.999 598.381,216.841 602.191,207.678 606.001,136.301 609.811,460.911 613.62,437.159 617.43,456.064 621.24,442.247 625.05,454.318 628.86,455.073 632.669,449.962 636.479,476.163 640.289,478.883 644.099,470.256 647.908,422.955 651.718,458.934 655.528,477.061 659.338,440.338 663.148,458.083 666.957,493.673 670.767,433.952 674.577,450.41 678.387,467.325 682.197,426.571 686.006,470.66 689.816,440.579 693.626,450.471 697.436,437.475 701.245,441.773 705.055,460.351 708.865,465.28 712.675,453.844 716.485,468.786 720.294,462.112 724.104,441.538 727.914,465.444 731.724,434.757 735.534,418.755 739.343,432.621 743.153,448.532 746.963,456.422 750.773,456.948 754.582,439.577 758.392,474.806 762.202,406.325 766.012,455.159 769.822,447.953 773.631,479.716 777.441,432.82 781.251,484.107 785.061,435.471 788.871,432.571 792.68,477.103 796.49,422.605 800.3,502.985 804.11,354.433 807.919,287.022 811.729,344.395 815.539,285.83 819.349,345.623 823.159,289.089 826.968,343.514 830.778,291.766 834.588,343.888 838.398,298.872 842.208,335.623 846.017,291.925 849.827,372.699 853.637,314.139 857.447,314.083 861.256,326.713 865.066,326.411 868.876,448.409 872.686,359.133 876.496,288.625 880.305,357.47 884.115,305.003 887.925,269.501 891.735,373.862 895.545,266.175 899.354,376.808 903.164,309.924 906.974,326.006 910.784,289.252 914.593,349.093 918.403,333.518 922.213,320.337 926.023,287.175 929.833,369.795 933.642,205.948 937.452,175.381 941.262,173.349 945.072,167.862 948.882,141.114 952.691,240.842 956.501,140.212 960.311,212.337 964.121,154.911 967.93,193.795 971.74,188.198 975.55,195.169 979.36,202.474 983.17,153.736 986.979,201.739 990.789,189.756 994.599,201.082 998.409,433.271 1002.22,475.365 1006.03,410.939 1009.84,470.192 1013.65,440.892 1017.46,454.882 1021.27,446.874 1025.08,448.95 1028.89,466.704 1032.7,450.089 1036.51,469.092 1040.32,420.887 1044.13,489.786 1047.94,425.471 1051.75,433.593 1055.56,472.415 1059.37,432.693 1063.18,178.655 1066.98,178.831 1070.79,223.635 1074.6,143.325 1078.41,199.352 1082.22,193.257 1086.03,140.501 1089.84,121.704 1093.65,193.4 1097.46,198.635 1101.27,178.063 1105.08,216.207 1108.89,152.184 1112.7,161.423 1116.51,156.465 1120.32,141.924 1124.13,186.314 1127.94,468.106 1131.75,430.269 1135.56,468.275 1139.37,476.813 1143.18,480.499 1146.99,448.221 1150.8,453.844 1154.61,471.382 1158.42,500.323 1162.23,464.322 1166.04,453.418 1169.85,432.962 1173.66,466.126 1177.47,473.773 1181.28,479.278 1185.09,425.397 1188.9,445.755 1192.71,197.442 1196.52,172.193 1200.33,193.049 1204.14,177.801 1207.95,192.793 1211.76,171.498 1215.57,198.896 1219.38,169.238 1223.19,201.49 1227,174.389 1230.81,196.048 1234.62,113.963 1238.43,160.043 1242.24,203.425 1246.04,161.834 1249.85,201.907 1253.66,161.124 1257.47,278.088 1261.28,281.035 1265.09,309.727 1268.9,286.467 1272.71,318.16 1276.52,313.559 1280.33,302.982 1284.14,310.616 1287.95,308.63 1291.76,331.194 1295.57,354.687 1299.38,336.665 1303.19,339.94 1307,342.63 1310.81,323.768 1314.62,327.453 1318.43,326.399 1322.24,454.608 1326.05,440.57 1329.86,433.068 1333.67,441.386 1337.48,473.599 1341.29,463.121 1345.1,460.393 1348.91,485.704 1352.72,512.095 1356.53,496.816 1360.34,486.131 1364.15,492.054 1367.96,469.757 1371.77,481.415 1375.58,474.933 1379.39,463.82 1383.2,449.017 1387.01,319.58 1390.82,317.355 1394.63,330.689 1398.44,299.222 1402.25,329.643 1406.06,330.105 1409.87,350.042 1413.68,299.61 1417.49,268.367 1421.29,303.216 1425.1,346.103 1428.91,333.797 1432.72,285.706 1436.53,333.226 1440.34,315.198 1444.15,312.128 1447.96,337.193 1451.77,202.196 1455.58,165.198 1459.39,232.287 1463.2,123.643 1467.01,212.692 1470.82,175.663 1474.63,205.436 1478.44,155.206 1482.25,198.476 1486.06,179.529 1489.87,164.75 1493.68,203.426 1497.49,192.496 1501.3,164.765 1505.11,161.152 1508.92,225.745 1512.73,152.141 1516.54,457.923 1520.35,446.796 1524.16,475.425 1527.97,449.157 1531.78,460.315 1535.59,500.931 1539.4,457.504 1543.21,438.588 1547.02,422.851 1550.83,473.142 1554.64,447.123 1558.45,462.858 1562.26,443.14 1566.07,443.507 1569.88,462.19 1573.69,470.285 1577.5,479.257 1581.31,218.057 1585.12,165.872 1588.93,145.994 1592.74,185.519 1596.55,195.804 1600.35,161.778 1604.16,197.366 1607.97,184.341 1611.78,149.973 1615.59,159.746 1619.4,154.593 1623.21,155.111 1627.02,198.83 1630.83,141.399 1634.64,165.233 1638.45,164.875 1642.26,185.974 1646.07,464.373 1649.88,425.393 1653.69,460.909 1657.5,448.737 1661.31,435.457 1665.12,448.86 1668.93,437.191 1672.74,440.912 1676.55,471.36 1680.36,431.674 1684.17,402.307 1687.98,459.251 1691.79,423.759 1695.6,452.466 1699.41,425.357 1703.22,449.517 1707.03,423.387 1710.84,312.22 1714.65,303.979 1718.46,357.559 1722.27,310.926 1726.08,298.582 1729.89,328.424 1733.7,267.328 1737.51,280.211 1741.32,272.617 1745.13,307.33 1748.94,323.943 1752.75,441.904 1756.56,476.022 1760.37,409.82 1764.18,468.362 1767.99,464.588 1771.8,479.272 1775.61,315.803 1779.41,298.231 1783.22,354.221 1787.03,344.105 1790.84,308.75 1794.65,308.486 1798.46,294.644 1802.27,301.525 1806.08,293.118 1809.89,320.674 1813.7,266.272 1817.51,279.334 1821.32,325.477 1825.13,327.172 1828.94,323.724 1832.75,331.159 1836.56,320.455 1840.37,363.514 1844.18,272.739 1847.99,362.908 1851.8,262.741 1855.61,352.057 1859.42,292.859 1863.23,323.755 1867.04,308.571 1870.85,308.638 1874.66,332.784 1878.47,319.081 1882.28,332.119 1886.09,328.127 1889.9,335.689 1893.71,292.153 1897.52,299.933 1901.33,333.773 1905.14,484.481 1908.95,421.069 1912.76,490.702 1916.57,421.785 1920.38,463.536 1924.19,443.238 1928,457.172 1931.81,453.218 1935.62,457.858 1939.43,442.045 1943.24,450.283 1947.05,441.913 1950.86,459.092 1954.67,418.72 1958.47,487.922 1962.28,427.915 1966.09,478.818 1969.9,187.232 1973.71,164.918 1977.52,205.005 1981.33,183.762 1985.14,188.752 1988.95,182.958 1992.76,207.742 1996.57,176.91 2000.38,163.299 2004.19,204.271 2008,156.539 2011.81,213.891 2015.62,178.763 2019.43,165.78 2023.24,190.124 2027.05,188.607 2030.86,189.176 2034.67,431.142 2038.48,476.715 2042.29,464.244 2046.1,460.602 2049.91,445.653 2053.72,436.138 2057.53,452.146 2061.34,425.204 2065.15,419.696 2068.96,437.893 2072.77,440.424 2076.58,473.301 2080.39,421.716 2084.2,477.995 2088.01,405.822 2091.82,498.149 2095.63,450.25 2099.44,329.813 2103.25,347.646 2107.06,322.465 2110.87,309.458 2114.68,348.334 2118.49,297.325 2122.3,317.982 2126.11,322.515 2129.92,328.72 2133.72,318.729 2137.53,309.321 2141.34,319.98 2145.15,300.008 2148.96,315.768 2152.77,353.802 2156.58,311.968 2160.39,336.941 2164.2,268.86 2168.01,311.867 2171.82,342.903 2175.63,325.014 2179.44,279.734 2183.25,340.399 2187.06,315.147 2190.87,310.42 2194.68,300.412 2198.49,340.872 2202.3,314.025 2206.11,304.54 2209.92,320.112 2213.73,324.429 2217.54,352.004 2221.35,327.655 2225.16,334.895 2228.97,314.353 2232.78,301.436 2236.59,342.859 2240.4,274.709 2244.21,345.832 2248.02,287.095 2251.83,330.787 2255.64,314.435 2259.45,320.066 2263.26,315.275 2267.07,333.948 2270.88,292.827 2274.69,339.265 2278.5,308.937 2282.31,325.612 2286.12,313.259 2289.93,306.391 2293.74,340.697 2297.55,279.328 2301.36,329.108 2305.17,306.642 2308.98,337.555 2312.78,302.122 2316.59,344.64 2320.4,301.208 2324.21,291.02 2328.02,359.851 2331.83,272.388 2335.64,342.767 2339.45,279.02 2343.26,326.875 2347.07,288.896 2350.88,345.366 2354.69,292.441 2358.5,168.864 2362.31,117.185 2366.12,236.561 2369.93,114.238 2373.74,224.022 2377.55,160.362 2381.36,181.291 2385.17,179.544 2388.98,153.388 2392.79,175.973 2396.6,206.556 2400.41,206.618 2404.22,191.232 2408.03,152.269 2411.84,177.849 2415.65,155.271 2419.46,186.772 2423.27,189.769 2427.08,200.376 2430.89,186.841 2434.7,164.632 2438.51,170.024 2442.32,143.774 2446.13,212.12 2449.94,187.238 2453.75,198.872 2457.56,156.445 2461.37,192.07 2465.18,221.543 2468.99,199.023 2472.8,174.724 2476.61,186.321 2480.42,163.654 2484.23,173.916 2488.04,160.807 2491.84,180.373 2495.65,178.748 2499.46,178.5 2503.27,182.165 2507.08,188.69 2510.89,179.238 2514.7,190.308 2518.51,119.776 2522.32,213.357 2526.13,149.677 2529.94,212.828 2533.75,146.793 2537.56,220.498 2541.37,150.114 2545.18,226.856 2548.99,154.586 2552.8,192.243 2556.61,188.684 2560.42,198.818 2564.23,168.355 2568.04,179.84 2571.85,192.833 2575.66,144.279 2579.47,172.84 2583.28,177.854 2587.09,174.715 2590.9,177.141 2594.71,179.32 2598.52,188.359 2602.33,168.551 2606.14,164.035 2609.95,183.479 2613.76,179.366 2617.57,478.094 2621.38,469.894 2625.19,435.527 2629,428.551 2632.81,500.854 2636.62,426.388 2640.43,426.067 2644.24,486.385 2648.05,469.756 2651.86,427.165 2655.67,471.999 2659.48,482.251 2663.29,441.335 2667.09,491.533 2670.9,435.394 2674.71,418.631 2678.52,408.767 2682.33,336.066 2686.14,328.683 2689.95,319.077 2693.76,304.935 2697.57,292.818 2701.38,289.498 2705.19,294.888 2709,290.445 2712.81,290.735 2716.62,280.538 2720.43,301.032 2724.24,308.009 2728.05,319.117 2731.86,296.055 2735.67,293.557 2739.48,310.03 2743.29,323.129 2747.1,451.045 2750.91,417.135 2754.72,443.816 2758.53,447.459 2762.34,318.936 2766.15,285.086 2769.96,293.973 2773.77,287.827 2777.58,340.463 2781.39,336.425 2785.2,305.334 2789.01,279.065 2792.82,323.582 2796.63,304.408 2800.44,323.69 2804.25,302.975 2808.06,440.528 2811.87,169.695 2815.68,199.732 2819.49,168.215 2823.3,174.754 2827.11,187.168 2830.92,175.57 2834.73,191.717 2838.54,174.279 2842.35,190.003 2846.15,173.6 2849.96,188.197 2853.77,180.283 2857.58,184.204 2861.39,186.811 2865.2,177.741 2869.01,191.273 2872.82,178.69 2876.63,141.261 2880.44,207.483 2884.25,151.426 2888.06,265.084 2891.87,367.266 2895.68,296.883 2899.49,310.989 2903.3,320.039 2907.11,318.642 2910.92,290.718 2914.73,316.149 2918.54,332.314 2922.35,310.347 2926.16,337.652 2929.97,337.222 2933.78,310.625 2937.59,326.512 2941.4,176.559 2945.21,216.491 2949.02,198.676 2952.83,169.271 2956.64,177.996 2960.45,178.756 2964.26,192.358 2968.07,187.785 2971.88,183.921 2975.69,228.095 2979.5,185.178 2983.31,193.916 2987.12,189.096 2990.93,213.916 2994.74,194.08 2998.55,177.419 3002.36,158.726 3006.17,440.703 3009.98,451.711 3013.79,461.842 3017.6,443.363 3021.41,465.413 3025.21,433.489 3029.02,471.8 3032.83,417.096 3036.64,448.815 3040.45,446.862 3044.26,453.979 3048.07,455.654 3051.88,448.086 3055.69,441.41 3059.5,467.226 3063.31,440.634 3067.12,465.456 3070.93,197.917 3074.74,169.703 3078.55,196.258 3082.36,180.216 3086.17,184.007 3089.98,185.259 3093.79,182.333 3097.6,186.976 3101.41,179.123 3105.22,186.223 3109.03,179.552 3112.84,186.421 3116.65,181.907 3120.46,180.522 3124.27,186.136 3128.08,181.223 3131.89,150.631 3135.7,198.77 3139.51,160.642 3143.32,210.887 3147.13,204.749 3150.94,356.036 3154.75,313.093 3158.56,315.703 3162.37,287.495 3166.18,307.121 3169.99,299.442 3173.8,327.903 3177.61,326.984 3181.42,342.991 3185.23,350.846 3189.04,311.186 3192.85,276.934 3196.66,284.501 3200.47,297.89 3204.27,351.559 3208.08,285.651 3211.89,346.851 3215.7,326.239 3219.51,340.274 3223.32,306.712 3227.13,307.005 3230.94,289.058 3234.75,314.823 3238.56,345.445 3242.37,303.307 3246.18,332.004 3249.99,176.957 3253.8,146.225 3257.61,173.92 3261.42,145.213 3265.23,202.313 3269.04,156.766 3272.85,136.389 3276.66,165.739 3280.47,163.228 3284.28,199.791 3288.09,196.657 3291.9,149.492 3295.71,196.613 3299.52,203.339 3303.33,190.633 3307.14,189.656 3310.95,198.895 3314.76,212.15 3318.57,181.275 3322.38,160.869 3326.19,163.736 3330,332.251 3333.81,289.748 3337.62,338.631 3341.43,299.77 3345.24,346.217 3349.05,288.372 3352.86,310.347 3356.67,332.53 3360.48,321.563 3364.29,308.279 3368.1,323 3371.91,311.156 3375.72,323.464 3379.52,322.164 3383.33,312.244 3387.14,298.405 3390.95,322.395 3394.76,194.785 3398.57,216.663 3402.38,169.445 3406.19,217.107 3410,207.309 3413.81,200.184 3417.62,196.721 3421.43,174.96 3425.24,165.216 3429.05,224.483 3432.86,209.174 3436.67,132.34 3440.48,208.817 3444.29,161.395 3448.1,185.355 3451.91,176.951 3455.72,173.709 "/>
<path clip-path="url(#clip800)" d="M2934.64 166.762 L3438.47 166.762 L3438.47 63.0816 L2934.64 63.0816  Z" fill="#ffffff" fill-rule="evenodd" fill-opacity="1"/>
<polyline clip-path="url(#clip800)" style="stroke:#000000; stroke-linecap:round; stroke-linejoin:round; stroke-width:4; stroke-opacity:1; fill:none" points="2934.64,166.762 3438.47,166.762 3438.47,63.0816 2934.64,63.0816 2934.64,166.762 "/>
<polyline clip-path="url(#clip800)" style="stroke:#009af9; stroke-linecap:round; stroke-linejoin:round; stroke-width:2; stroke-opacity:1; fill:none" points="2972.74,114.922 3201.31,114.922 "/>
<path clip-path="url(#clip800)" d="M3244.08 101.484 L3244.08 114.47 L3249.96 114.47 Q3253.22 114.47 3255.01 112.78 Q3256.79 111.091 3256.79 107.966 Q3256.79 104.864 3255.01 103.174 Q3253.22 101.484 3249.96 101.484 L3244.08 101.484 M3239.4 97.6416 L3249.96 97.6416 Q3255.77 97.6416 3258.73 100.28 Q3261.72 102.896 3261.72 107.966 Q3261.72 113.081 3258.73 115.697 Q3255.77 118.313 3249.96 118.313 L3244.08 118.313 L3244.08 132.202 L3239.4 132.202 L3239.4 97.6416 Z" fill="#000000" fill-rule="evenodd" fill-opacity="1" /><path clip-path="url(#clip800)" d="M3267.99 97.6416 L3289.84 97.6416 L3289.84 101.577 L3272.67 101.577 L3272.67 111.808 L3289.13 111.808 L3289.13 115.743 L3272.67 115.743 L3272.67 128.266 L3290.26 128.266 L3290.26 132.202 L3267.99 132.202 L3267.99 97.6416 Z" fill="#000000" fill-rule="evenodd" fill-opacity="1" /><path clip-path="url(#clip800)" d="M3297.94 97.6416 L3302.62 97.6416 L3302.62 111.808 L3319.61 111.808 L3319.61 97.6416 L3324.29 97.6416 L3324.29 132.202 L3319.61 132.202 L3319.61 115.743 L3302.62 115.743 L3302.62 132.202 L3297.94 132.202 L3297.94 97.6416 Z" fill="#000000" fill-rule="evenodd" fill-opacity="1" /><path clip-path="url(#clip800)" d="M3333.59 97.6416 L3340.56 97.6416 L3349.38 121.16 L3358.25 97.6416 L3365.21 97.6416 L3365.21 132.202 L3360.65 132.202 L3360.65 101.854 L3351.74 125.558 L3347.04 125.558 L3338.13 101.854 L3338.13 132.202 L3333.59 132.202 L3333.59 97.6416 Z" fill="#000000" fill-rule="evenodd" fill-opacity="1" /><path clip-path="url(#clip800)" d="M3400.37 100.304 L3400.37 105.234 Q3398.01 103.035 3395.33 101.947 Q3392.67 100.859 3389.66 100.859 Q3383.73 100.859 3380.58 104.493 Q3377.43 108.104 3377.43 114.956 Q3377.43 121.785 3380.58 125.419 Q3383.73 129.03 3389.66 129.03 Q3392.67 129.03 3395.33 127.942 Q3398.01 126.854 3400.37 124.655 L3400.37 129.54 Q3397.92 131.206 3395.17 132.04 Q3392.43 132.873 3389.38 132.873 Q3381.53 132.873 3377.02 128.081 Q3372.5 123.266 3372.5 114.956 Q3372.5 106.623 3377.02 101.831 Q3381.53 97.0166 3389.38 97.0166 Q3392.48 97.0166 3395.21 97.8499 Q3397.97 98.6601 3400.37 100.304 Z" fill="#000000" fill-rule="evenodd" fill-opacity="1" /></svg>
