<?xml version="1.0" encoding="utf-8"?>
<svg xmlns="http://www.w3.org/2000/svg" xmlns:xlink="http://www.w3.org/1999/xlink" width="900" height="150" viewBox="0 0 3600 600">
<defs>
  <clipPath id="clip650">
    <rect x="0" y="0" width="3600" height="600"/>
  </clipPath>
</defs>
<path clip-path="url(#clip650)" d="M0 600 L3600 600 L3600 0 L0 0  Z" fill="#ffffff" fill-rule="evenodd" fill-opacity="1"/>
<defs>
  <clipPath id="clip651">
    <rect x="720" y="0" width="2521" height="600"/>
  </clipPath>
</defs>
<path clip-path="url(#clip650)" d="M124.177 522.368 L3552.76 522.368 L3552.76 47.2441 L124.177 47.2441  Z" fill="#ffffff" fill-rule="evenodd" fill-opacity="1"/>
<defs>
  <clipPath id="clip652">
    <rect x="124" y="47" width="3430" height="476"/>
  </clipPath>
</defs>
<polyline clip-path="url(#clip652)" style="stroke:#000000; stroke-linecap:round; stroke-linejoin:round; stroke-width:2; stroke-opacity:0.1; fill:none" points="220.2,522.368 220.2,47.2441 "/>
<polyline clip-path="url(#clip652)" style="stroke:#000000; stroke-linecap:round; stroke-linejoin:round; stroke-width:2; stroke-opacity:0.1; fill:none" points="1232.57,522.368 1232.57,47.2441 "/>
<polyline clip-path="url(#clip652)" style="stroke:#000000; stroke-linecap:round; stroke-linejoin:round; stroke-width:2; stroke-opacity:0.1; fill:none" points="2244.93,522.368 2244.93,47.2441 "/>
<polyline clip-path="url(#clip652)" style="stroke:#000000; stroke-linecap:round; stroke-linejoin:round; stroke-width:2; stroke-opacity:0.1; fill:none" points="3257.3,522.368 3257.3,47.2441 "/>
<polyline clip-path="url(#clip650)" style="stroke:#000000; stroke-linecap:round; stroke-linejoin:round; stroke-width:4; stroke-opacity:1; fill:none" points="124.177,522.368 3552.76,522.368 "/>
<polyline clip-path="url(#clip650)" style="stroke:#000000; stroke-linecap:round; stroke-linejoin:round; stroke-width:4; stroke-opacity:1; fill:none" points="220.2,522.368 220.2,503.47 "/>
<polyline clip-path="url(#clip650)" style="stroke:#000000; stroke-linecap:round; stroke-linejoin:round; stroke-width:4; stroke-opacity:1; fill:none" points="1232.57,522.368 1232.57,503.47 "/>
<polyline clip-path="url(#clip650)" style="stroke:#000000; stroke-linecap:round; stroke-linejoin:round; stroke-width:4; stroke-opacity:1; fill:none" points="2244.93,522.368 2244.93,503.47 "/>
<polyline clip-path="url(#clip650)" style="stroke:#000000; stroke-linecap:round; stroke-linejoin:round; stroke-width:4; stroke-opacity:1; fill:none" points="3257.3,522.368 3257.3,503.47 "/>
<path clip-path="url(#clip650)" d="M220.2 562.887 Q216.589 562.887 214.76 566.451 Q212.955 569.993 212.955 577.123 Q212.955 584.229 214.76 587.794 Q216.589 591.335 220.2 591.335 Q223.834 591.335 225.64 587.794 Q227.469 584.229 227.469 577.123 Q227.469 569.993 225.64 566.451 Q223.834 562.887 220.2 562.887 M220.2 559.183 Q226.01 559.183 229.066 563.789 Q232.144 568.373 232.144 577.123 Q232.144 585.849 229.066 590.456 Q226.01 595.039 220.2 595.039 Q214.39 595.039 211.311 590.456 Q208.256 585.849 208.256 577.123 Q208.256 568.373 211.311 563.789 Q214.39 559.183 220.2 559.183 Z" fill="#000000" fill-rule="evenodd" fill-opacity="1" /><path clip-path="url(#clip650)" d="M1177.09 590.433 L1184.73 590.433 L1184.73 564.067 L1176.42 565.734 L1176.42 561.475 L1184.68 559.808 L1189.36 559.808 L1189.36 590.433 L1197 590.433 L1197 594.368 L1177.09 594.368 L1177.09 590.433 Z" fill="#000000" fill-rule="evenodd" fill-opacity="1" /><path clip-path="url(#clip650)" d="M1216.44 562.887 Q1212.83 562.887 1211 566.451 Q1209.2 569.993 1209.2 577.123 Q1209.2 584.229 1211 587.794 Q1212.83 591.335 1216.44 591.335 Q1220.08 591.335 1221.88 587.794 Q1223.71 584.229 1223.71 577.123 Q1223.71 569.993 1221.88 566.451 Q1220.08 562.887 1216.44 562.887 M1216.44 559.183 Q1222.25 559.183 1225.31 563.789 Q1228.39 568.373 1228.39 577.123 Q1228.39 585.849 1225.31 590.456 Q1222.25 595.039 1216.44 595.039 Q1210.63 595.039 1207.55 590.456 Q1204.5 585.849 1204.5 577.123 Q1204.5 568.373 1207.55 563.789 Q1210.63 559.183 1216.44 559.183 Z" fill="#000000" fill-rule="evenodd" fill-opacity="1" /><path clip-path="url(#clip650)" d="M1246.6 562.887 Q1242.99 562.887 1241.17 566.451 Q1239.36 569.993 1239.36 577.123 Q1239.36 584.229 1241.17 587.794 Q1242.99 591.335 1246.6 591.335 Q1250.24 591.335 1252.04 587.794 Q1253.87 584.229 1253.87 577.123 Q1253.87 569.993 1252.04 566.451 Q1250.24 562.887 1246.6 562.887 M1246.6 559.183 Q1252.42 559.183 1255.47 563.789 Q1258.55 568.373 1258.55 577.123 Q1258.55 585.849 1255.47 590.456 Q1252.42 595.039 1246.6 595.039 Q1240.79 595.039 1237.72 590.456 Q1234.66 585.849 1234.66 577.123 Q1234.66 568.373 1237.72 563.789 Q1240.79 559.183 1246.6 559.183 Z" fill="#000000" fill-rule="evenodd" fill-opacity="1" /><path clip-path="url(#clip650)" d="M1276.77 562.887 Q1273.16 562.887 1271.33 566.451 Q1269.52 569.993 1269.52 577.123 Q1269.52 584.229 1271.33 587.794 Q1273.16 591.335 1276.77 591.335 Q1280.4 591.335 1282.21 587.794 Q1284.04 584.229 1284.04 577.123 Q1284.04 569.993 1282.21 566.451 Q1280.4 562.887 1276.77 562.887 M1276.77 559.183 Q1282.58 559.183 1285.63 563.789 Q1288.71 568.373 1288.71 577.123 Q1288.71 585.849 1285.63 590.456 Q1282.58 595.039 1276.77 595.039 Q1270.96 595.039 1267.88 590.456 Q1264.82 585.849 1264.82 577.123 Q1264.82 568.373 1267.88 563.789 Q1270.96 559.183 1276.77 559.183 Z" fill="#000000" fill-rule="evenodd" fill-opacity="1" /><path clip-path="url(#clip650)" d="M2193.54 590.433 L2209.86 590.433 L2209.86 594.368 L2187.92 594.368 L2187.92 590.433 Q2190.58 587.678 2195.16 583.048 Q2199.77 578.396 2200.95 577.053 Q2203.2 574.53 2204.08 572.794 Q2204.98 571.035 2204.98 569.345 Q2204.98 566.59 2203.03 564.854 Q2201.11 563.118 2198.01 563.118 Q2195.81 563.118 2193.36 563.882 Q2190.93 564.646 2188.15 566.197 L2188.15 561.475 Q2190.97 560.34 2193.43 559.762 Q2195.88 559.183 2197.92 559.183 Q2203.29 559.183 2206.48 561.868 Q2209.68 564.553 2209.68 569.044 Q2209.68 571.174 2208.87 573.095 Q2208.08 574.993 2205.97 577.586 Q2205.39 578.257 2202.29 581.474 Q2199.19 584.669 2193.54 590.433 Z" fill="#000000" fill-rule="evenodd" fill-opacity="1" /><path clip-path="url(#clip650)" d="M2229.68 562.887 Q2226.07 562.887 2224.24 566.451 Q2222.43 569.993 2222.43 577.123 Q2222.43 584.229 2224.24 587.794 Q2226.07 591.335 2229.68 591.335 Q2233.31 591.335 2235.12 587.794 Q2236.95 584.229 2236.95 577.123 Q2236.95 569.993 2235.12 566.451 Q2233.31 562.887 2229.68 562.887 M2229.68 559.183 Q2235.49 559.183 2238.54 563.789 Q2241.62 568.373 2241.62 577.123 Q2241.62 585.849 2238.54 590.456 Q2235.49 595.039 2229.68 595.039 Q2223.87 595.039 2220.79 590.456 Q2217.73 585.849 2217.73 577.123 Q2217.73 568.373 2220.79 563.789 Q2223.87 559.183 2229.68 559.183 Z" fill="#000000" fill-rule="evenodd" fill-opacity="1" /><path clip-path="url(#clip650)" d="M2259.84 562.887 Q2256.23 562.887 2254.4 566.451 Q2252.59 569.993 2252.59 577.123 Q2252.59 584.229 2254.4 587.794 Q2256.23 591.335 2259.84 591.335 Q2263.47 591.335 2265.28 587.794 Q2267.11 584.229 2267.11 577.123 Q2267.11 569.993 2265.28 566.451 Q2263.47 562.887 2259.84 562.887 M2259.84 559.183 Q2265.65 559.183 2268.7 563.789 Q2271.78 568.373 2271.78 577.123 Q2271.78 585.849 2268.7 590.456 Q2265.65 595.039 2259.84 595.039 Q2254.03 595.039 2250.95 590.456 Q2247.89 585.849 2247.89 577.123 Q2247.89 568.373 2250.95 563.789 Q2254.03 559.183 2259.84 559.183 Z" fill="#000000" fill-rule="evenodd" fill-opacity="1" /><path clip-path="url(#clip650)" d="M2290 562.887 Q2286.39 562.887 2284.56 566.451 Q2282.76 569.993 2282.76 577.123 Q2282.76 584.229 2284.56 587.794 Q2286.39 591.335 2290 591.335 Q2293.63 591.335 2295.44 587.794 Q2297.27 584.229 2297.27 577.123 Q2297.27 569.993 2295.44 566.451 Q2293.63 562.887 2290 562.887 M2290 559.183 Q2295.81 559.183 2298.87 563.789 Q2301.94 568.373 2301.94 577.123 Q2301.94 585.849 2298.87 590.456 Q2295.81 595.039 2290 595.039 Q2284.19 595.039 2281.11 590.456 Q2278.06 585.849 2278.06 577.123 Q2278.06 568.373 2281.11 563.789 Q2284.19 559.183 2290 559.183 Z" fill="#000000" fill-rule="evenodd" fill-opacity="1" /><path clip-path="url(#clip650)" d="M3215.98 575.734 Q3219.33 576.451 3221.21 578.72 Q3223.11 580.988 3223.11 584.322 Q3223.11 589.437 3219.59 592.238 Q3216.07 595.039 3209.59 595.039 Q3207.41 595.039 3205.1 594.599 Q3202.81 594.183 3200.35 593.326 L3200.35 588.812 Q3202.3 589.947 3204.61 590.525 Q3206.93 591.104 3209.45 591.104 Q3213.85 591.104 3216.14 589.368 Q3218.45 587.632 3218.45 584.322 Q3218.45 581.266 3216.3 579.553 Q3214.17 577.817 3210.35 577.817 L3206.33 577.817 L3206.33 573.974 L3210.54 573.974 Q3213.99 573.974 3215.82 572.609 Q3217.64 571.22 3217.64 568.627 Q3217.64 565.965 3215.75 564.553 Q3213.87 563.118 3210.35 563.118 Q3208.43 563.118 3206.23 563.535 Q3204.03 563.951 3201.39 564.831 L3201.39 560.664 Q3204.06 559.924 3206.37 559.553 Q3208.71 559.183 3210.77 559.183 Q3216.09 559.183 3219.2 561.613 Q3222.3 564.021 3222.3 568.141 Q3222.3 571.012 3220.65 573.002 Q3219.01 574.97 3215.98 575.734 Z" fill="#000000" fill-rule="evenodd" fill-opacity="1" /><path clip-path="url(#clip650)" d="M3241.97 562.887 Q3238.36 562.887 3236.53 566.451 Q3234.73 569.993 3234.73 577.123 Q3234.73 584.229 3236.53 587.794 Q3238.36 591.335 3241.97 591.335 Q3245.61 591.335 3247.41 587.794 Q3249.24 584.229 3249.24 577.123 Q3249.24 569.993 3247.41 566.451 Q3245.61 562.887 3241.97 562.887 M3241.97 559.183 Q3247.78 559.183 3250.84 563.789 Q3253.92 568.373 3253.92 577.123 Q3253.92 585.849 3250.84 590.456 Q3247.78 595.039 3241.97 595.039 Q3236.16 595.039 3233.08 590.456 Q3230.03 585.849 3230.03 577.123 Q3230.03 568.373 3233.08 563.789 Q3236.16 559.183 3241.97 559.183 Z" fill="#000000" fill-rule="evenodd" fill-opacity="1" /><path clip-path="url(#clip650)" d="M3272.13 562.887 Q3268.52 562.887 3266.7 566.451 Q3264.89 569.993 3264.89 577.123 Q3264.89 584.229 3266.7 587.794 Q3268.52 591.335 3272.13 591.335 Q3275.77 591.335 3277.57 587.794 Q3279.4 584.229 3279.4 577.123 Q3279.4 569.993 3277.57 566.451 Q3275.77 562.887 3272.13 562.887 M3272.13 559.183 Q3277.95 559.183 3281 563.789 Q3284.08 568.373 3284.08 577.123 Q3284.08 585.849 3281 590.456 Q3277.95 595.039 3272.13 595.039 Q3266.32 595.039 3263.25 590.456 Q3260.19 585.849 3260.19 577.123 Q3260.19 568.373 3263.25 563.789 Q3266.32 559.183 3272.13 559.183 Z" fill="#000000" fill-rule="evenodd" fill-opacity="1" /><path clip-path="url(#clip650)" d="M3302.3 562.887 Q3298.69 562.887 3296.86 566.451 Q3295.05 569.993 3295.05 577.123 Q3295.05 584.229 3296.86 587.794 Q3298.69 591.335 3302.3 591.335 Q3305.93 591.335 3307.74 587.794 Q3309.57 584.229 3309.57 577.123 Q3309.57 569.993 3307.74 566.451 Q3305.93 562.887 3302.3 562.887 M3302.3 559.183 Q3308.11 559.183 3311.16 563.789 Q3314.24 568.373 3314.24 577.123 Q3314.24 585.849 3311.16 590.456 Q3308.11 595.039 3302.3 595.039 Q3296.49 595.039 3293.41 590.456 Q3290.35 585.849 3290.35 577.123 Q3290.35 568.373 3293.41 563.789 Q3296.49 559.183 3302.3 559.183 Z" fill="#000000" fill-rule="evenodd" fill-opacity="1" /><polyline clip-path="url(#clip652)" style="stroke:#000000; stroke-linecap:round; stroke-linejoin:round; stroke-width:2; stroke-opacity:0.1; fill:none" points="124.177,522.368 3552.76,522.368 "/>
<polyline clip-path="url(#clip652)" style="stroke:#000000; stroke-linecap:round; stroke-linejoin:round; stroke-width:2; stroke-opacity:0.1; fill:none" points="124.177,454.493 3552.76,454.493 "/>
<polyline clip-path="url(#clip652)" style="stroke:#000000; stroke-linecap:round; stroke-linejoin:round; stroke-width:2; stroke-opacity:0.1; fill:none" points="124.177,386.618 3552.76,386.618 "/>
<polyline clip-path="url(#clip652)" style="stroke:#000000; stroke-linecap:round; stroke-linejoin:round; stroke-width:2; stroke-opacity:0.1; fill:none" points="124.177,318.743 3552.76,318.743 "/>
<polyline clip-path="url(#clip652)" style="stroke:#000000; stroke-linecap:round; stroke-linejoin:round; stroke-width:2; stroke-opacity:0.1; fill:none" points="124.177,250.869 3552.76,250.869 "/>
<polyline clip-path="url(#clip652)" style="stroke:#000000; stroke-linecap:round; stroke-linejoin:round; stroke-width:2; stroke-opacity:0.1; fill:none" points="124.177,182.994 3552.76,182.994 "/>
<polyline clip-path="url(#clip652)" style="stroke:#000000; stroke-linecap:round; stroke-linejoin:round; stroke-width:2; stroke-opacity:0.1; fill:none" points="124.177,115.119 3552.76,115.119 "/>
<polyline clip-path="url(#clip652)" style="stroke:#000000; stroke-linecap:round; stroke-linejoin:round; stroke-width:2; stroke-opacity:0.1; fill:none" points="124.177,47.2441 3552.76,47.2441 "/>
<polyline clip-path="url(#clip650)" style="stroke:#000000; stroke-linecap:round; stroke-linejoin:round; stroke-width:4; stroke-opacity:1; fill:none" points="124.177,522.368 124.177,47.2441 "/>
<polyline clip-path="url(#clip650)" style="stroke:#000000; stroke-linecap:round; stroke-linejoin:round; stroke-width:4; stroke-opacity:1; fill:none" points="124.177,522.368 143.075,522.368 "/>
<polyline clip-path="url(#clip650)" style="stroke:#000000; stroke-linecap:round; stroke-linejoin:round; stroke-width:4; stroke-opacity:1; fill:none" points="124.177,454.493 143.075,454.493 "/>
<polyline clip-path="url(#clip650)" style="stroke:#000000; stroke-linecap:round; stroke-linejoin:round; stroke-width:4; stroke-opacity:1; fill:none" points="124.177,386.618 143.075,386.618 "/>
<polyline clip-path="url(#clip650)" style="stroke:#000000; stroke-linecap:round; stroke-linejoin:round; stroke-width:4; stroke-opacity:1; fill:none" points="124.177,318.743 143.075,318.743 "/>
<polyline clip-path="url(#clip650)" style="stroke:#000000; stroke-linecap:round; stroke-linejoin:round; stroke-width:4; stroke-opacity:1; fill:none" points="124.177,250.869 143.075,250.869 "/>
<polyline clip-path="url(#clip650)" style="stroke:#000000; stroke-linecap:round; stroke-linejoin:round; stroke-width:4; stroke-opacity:1; fill:none" points="124.177,182.994 143.075,182.994 "/>
<polyline clip-path="url(#clip650)" style="stroke:#000000; stroke-linecap:round; stroke-linejoin:round; stroke-width:4; stroke-opacity:1; fill:none" points="124.177,115.119 143.075,115.119 "/>
<polyline clip-path="url(#clip650)" style="stroke:#000000; stroke-linecap:round; stroke-linejoin:round; stroke-width:4; stroke-opacity:1; fill:none" points="124.177,47.2441 143.075,47.2441 "/>
<path clip-path="url(#clip650)" d="M50.2699 535.713 L57.9087 535.713 L57.9087 509.347 L49.5986 511.014 L49.5986 506.755 L57.8624 505.088 L62.5383 505.088 L62.5383 535.713 L70.1772 535.713 L70.1772 539.648 L50.2699 539.648 L50.2699 535.713 Z" fill="#000000" fill-rule="evenodd" fill-opacity="1" /><path clip-path="url(#clip650)" d="M53.8578 467.838 L70.1772 467.838 L70.1772 471.773 L48.2328 471.773 L48.2328 467.838 Q50.8949 465.083 55.4782 460.454 Q60.0846 455.801 61.2652 454.458 Q63.5105 451.935 64.3902 450.199 Q65.2929 448.44 65.2929 446.75 Q65.2929 443.995 63.3485 442.259 Q61.4272 440.523 58.3254 440.523 Q56.1263 440.523 53.6726 441.287 Q51.2421 442.051 48.4643 443.602 L48.4643 438.88 Q51.2884 437.745 53.7421 437.167 Q56.1958 436.588 58.2328 436.588 Q63.6031 436.588 66.7976 439.273 Q69.992 441.958 69.992 446.449 Q69.992 448.579 69.1818 450.5 Q68.3948 452.398 66.2883 454.991 Q65.7096 455.662 62.6078 458.88 Q59.5059 462.074 53.8578 467.838 Z" fill="#000000" fill-rule="evenodd" fill-opacity="1" /><path clip-path="url(#clip650)" d="M63.0476 385.264 Q66.404 385.982 68.279 388.25 Q70.1772 390.519 70.1772 393.852 Q70.1772 398.968 66.6587 401.769 Q63.1402 404.57 56.6587 404.57 Q54.4828 404.57 52.168 404.13 Q49.8764 403.713 47.4227 402.857 L47.4227 398.343 Q49.3671 399.477 51.6819 400.056 Q53.9967 400.634 56.5198 400.634 Q60.918 400.634 63.2096 398.898 Q65.5244 397.162 65.5244 393.852 Q65.5244 390.796 63.3717 389.083 Q61.242 387.347 57.4226 387.347 L53.3949 387.347 L53.3949 383.505 L57.6078 383.505 Q61.0569 383.505 62.8855 382.139 Q64.7142 380.75 64.7142 378.158 Q64.7142 375.496 62.8161 374.084 Q60.9411 372.648 57.4226 372.648 Q55.5013 372.648 53.3023 373.065 Q51.1032 373.482 48.4643 374.361 L48.4643 370.195 Q51.1264 369.454 53.4412 369.084 Q55.7791 368.713 57.8393 368.713 Q63.1633 368.713 66.2652 371.144 Q69.367 373.551 69.367 377.672 Q69.367 380.542 67.7235 382.533 Q66.08 384.5 63.0476 385.264 Z" fill="#000000" fill-rule="evenodd" fill-opacity="1" /><path clip-path="url(#clip650)" d="M60.5939 305.537 L48.7884 323.986 L60.5939 323.986 L60.5939 305.537 M59.367 301.463 L65.2466 301.463 L65.2466 323.986 L70.1772 323.986 L70.1772 327.875 L65.2466 327.875 L65.2466 336.023 L60.5939 336.023 L60.5939 327.875 L44.9921 327.875 L44.9921 323.361 L59.367 301.463 Z" fill="#000000" fill-rule="evenodd" fill-opacity="1" /><path clip-path="url(#clip650)" d="M49.2745 233.589 L67.6309 233.589 L67.6309 237.524 L53.5569 237.524 L53.5569 245.996 Q54.5754 245.649 55.5939 245.487 Q56.6124 245.301 57.6309 245.301 Q63.418 245.301 66.7976 248.473 Q70.1772 251.644 70.1772 257.061 Q70.1772 262.639 66.705 265.741 Q63.2328 268.82 56.9134 268.82 Q54.7374 268.82 52.4689 268.449 Q50.2236 268.079 47.8162 267.338 L47.8162 262.639 Q49.8995 263.774 52.1217 264.329 Q54.3439 264.885 56.8208 264.885 Q60.8254 264.885 63.1633 262.778 Q65.5013 260.672 65.5013 257.061 Q65.5013 253.45 63.1633 251.343 Q60.8254 249.237 56.8208 249.237 Q54.9458 249.237 53.0708 249.653 Q51.2189 250.07 49.2745 250.95 L49.2745 233.589 Z" fill="#000000" fill-rule="evenodd" fill-opacity="1" /><path clip-path="url(#clip650)" d="M58.6495 181.13 Q55.5013 181.13 53.6495 183.283 Q51.8208 185.436 51.8208 189.186 Q51.8208 192.913 53.6495 195.089 Q55.5013 197.241 58.6495 197.241 Q61.7976 197.241 63.6263 195.089 Q65.4781 192.913 65.4781 189.186 Q65.4781 185.436 63.6263 183.283 Q61.7976 181.13 58.6495 181.13 M67.9318 166.478 L67.9318 170.737 Q66.1726 169.904 64.367 169.464 Q62.5846 169.024 60.8254 169.024 Q56.1958 169.024 53.7421 172.149 Q51.3115 175.274 50.9643 181.593 Q52.33 179.579 54.3902 178.515 Q56.4504 177.427 58.9272 177.427 Q64.1355 177.427 67.1448 180.598 Q70.1772 183.746 70.1772 189.186 Q70.1772 194.51 67.029 197.727 Q63.8809 200.945 58.6495 200.945 Q52.6541 200.945 49.4828 196.362 Q46.3116 191.755 46.3116 183.028 Q46.3116 174.834 50.2004 169.973 Q54.0893 165.089 60.6402 165.089 Q62.3994 165.089 64.1818 165.436 Q65.9874 165.783 67.9318 166.478 Z" fill="#000000" fill-rule="evenodd" fill-opacity="1" /><path clip-path="url(#clip650)" d="M47.9551 97.8389 L70.1772 97.8389 L70.1772 99.8297 L57.6309 132.399 L52.7467 132.399 L64.5522 101.774 L47.9551 101.774 L47.9551 97.8389 Z" fill="#000000" fill-rule="evenodd" fill-opacity="1" /><path clip-path="url(#clip650)" d="M58.3254 48.1121 Q54.9921 48.1121 53.0708 49.8945 Q51.1726 51.6769 51.1726 54.8019 Q51.1726 57.9269 53.0708 59.7093 Q54.9921 61.4917 58.3254 61.4917 Q61.6587 61.4917 63.58 59.7093 Q65.5013 57.9038 65.5013 54.8019 Q65.5013 51.6769 63.58 49.8945 Q61.6819 48.1121 58.3254 48.1121 M53.6495 46.1214 Q50.6402 45.3807 48.9504 43.3205 Q47.2838 41.2603 47.2838 38.2974 Q47.2838 34.1539 50.2236 31.7465 Q53.1865 29.3391 58.3254 29.3391 Q63.4874 29.3391 66.4272 31.7465 Q69.367 34.1539 69.367 38.2974 Q69.367 41.2603 67.6772 43.3205 Q66.0105 45.3807 63.0244 46.1214 Q66.404 46.9084 68.279 49.2001 Q70.1772 51.4918 70.1772 54.8019 Q70.1772 59.825 67.0985 62.5102 Q64.0429 65.1954 58.3254 65.1954 Q52.6078 65.1954 49.5291 62.5102 Q46.4736 59.825 46.4736 54.8019 Q46.4736 51.4918 48.3717 49.2001 Q50.2699 46.9084 53.6495 46.1214 M51.9365 38.7372 Q51.9365 41.4224 53.6032 42.927 Q55.293 44.4316 58.3254 44.4316 Q61.3346 44.4316 63.0244 42.927 Q64.7374 41.4224 64.7374 38.7372 Q64.7374 36.052 63.0244 34.5474 Q61.3346 33.0428 58.3254 33.0428 Q55.293 33.0428 53.6032 34.5474 Q51.9365 36.052 51.9365 38.7372 Z" fill="#000000" fill-rule="evenodd" fill-opacity="1" /><polyline clip-path="url(#clip652)" style="stroke:#009af9; stroke-linecap:round; stroke-linejoin:round; stroke-width:2; stroke-opacity:1; fill:none" points="221.212,170.456 222.225,195.211 223.237,176.728 224.25,181.062 225.262,186.288 226.274,199.635 227.287,166.158 228.299,199.999 229.311,165.745 230.324,200.398 231.336,166.322 232.348,199.134 233.361,181.828 234.373,192.094 235.386,173.61 236.398,192.435 237.41,173.854 238.423,192.045 239.435,173.977 240.447,191.985 241.46,173.842 242.472,191.581 243.484,174.649 244.497,170.826 245.509,195.537 246.522,170.587 247.534,195.04 248.546,171.152 249.559,194.843 250.571,171.426 251.583,194.763 252.596,171.806 253.608,194.196 254.62,199.794 255.633,166.268 256.645,199.979 257.658,165.492 258.67,200.453 259.682,164.815 260.695,179.568 261.707,187.062 262.719,179.168 263.732,186.957 264.744,179.036 265.757,187.275 266.769,179.056 267.781,127.774 268.794,238.681 269.806,127.574 270.818,237.865 271.831,128.828 272.843,236.897 273.855,128.825 274.868,236.466 275.88,130.033 276.893,206.617 277.905,160.025 278.917,194.105 279.93,171.47 280.942,194.003 281.954,171.425 282.967,194.173 283.979,171.152 284.991,194.734 286.004,171.077 287.016,195.356 288.029,170.772 289.041,195.218 290.053,171.044 291.066,194.882 292.078,171.6 293.09,194.685 294.103,171.625 295.115,193.878 296.127,171.955 297.14,194.407 298.152,175.614 299.165,190.095 300.177,175.654 301.189,190.517 302.202,175.607 303.214,190.611 304.226,175.628 305.239,167.874 306.251,186.887 307.264,179.048 308.276,186.278 309.288,179.606 310.301,186.351 311.313,179.456 312.325,186.646 313.338,179.436 314.35,186.641 315.362,178.812 316.375,187.283 317.387,178.538 318.4,187.288 319.412,178.244 320.424,187.626 321.437,178.277 322.449,174.309 323.461,192.04 324.474,173.956 325.486,191.578 326.498,175.953 327.511,171.937 328.523,198.089 329.536,167.853 330.548,197.52 331.56,168.799 332.573,197.548 333.585,168.644 334.597,197.582 335.61,168.711 336.622,197.956 337.634,167.948 338.647,198.237 339.659,167.355 340.672,198.313 341.684,168.115 342.696,196.494 343.709,169.339 344.721,162.547 345.733,203.457 346.746,162.822 347.758,202.558 348.77,163.085 349.783,183.706 350.795,182.616 351.808,182.803 352.82,183.187 353.832,182.867 354.845,183.372 355.857,183.064 356.869,182.624 357.882,183.514 358.894,179.171 359.907,184.895 360.919,181.292 361.931,184.625 362.944,180.88 363.956,185.433 364.968,180.338 365.981,185.136 366.993,181.43 368.005,185.052 369.018,180.732 370.03,185.301 371.043,181.067 372.055,184.546 373.067,181.309 374.08,185.083 375.092,180.884 376.104,184.905 377.117,181.427 378.129,192.22 379.141,173.376 380.154,165.016 381.166,200.456 382.179,165.498 383.191,200.47 384.203,165.37 385.216,201.162 386.228,164.652 387.24,201.084 388.253,165.548 389.265,200.929 390.277,165.609 391.29,200.651 392.302,165.14 393.315,200.37 394.327,165.807 395.339,200.17 396.352,182.946 397.364,182.855 398.376,173.102 399.389,192.85 400.401,173.209 401.414,192.453 402.426,173.384 403.438,191.982 404.451,174.373 405.463,191.234 406.475,175.485 407.488,190.218 408.5,176.108 409.512,172.407 410.525,193.917 411.537,171.499 412.55,186.953 413.562,178.468 414.574,186.804 415.587,179.64 416.599,186.535 417.611,178.892 418.624,187.631 419.636,178.383 420.648,186.932 421.661,178.499 422.673,187.721 423.686,188.302 424.698,177.749 425.71,188.3 426.723,177.36 427.735,188.984 428.747,176.351 429.76,189.855 430.772,175.629 431.784,190.772 432.797,175.428 433.809,190.547 434.822,175.097 435.834,191.498 436.846,184.349 437.859,181.677 438.871,156.454 439.883,210.001 440.896,192.374 441.908,159.861 442.92,205.969 443.933,159.425 444.945,153.591 445.958,212.675 446.97,152.77 447.982,212.516 448.995,153.226 450.007,212.418 451.019,153.784 452.032,212.225 453.044,153.553 454.057,211.938 455.069,153.532 456.081,212.999 457.094,194.079 458.106,171.649 459.118,193.96 460.131,171.555 461.143,195.356 462.155,170.784 463.168,195.303 464.18,170.809 465.193,193.994 466.205,183.613 467.217,181.72 468.23,184.167 469.242,181.869 470.254,184.189 471.267,150.168 472.279,177.065 473.291,189.306 474.304,176.743 475.316,188.93 476.329,176.672 477.341,199.552 478.353,186.429 479.366,182.12 480.378,183.626 481.39,181.781 482.403,184.291 483.415,181.458 484.427,184.559 485.44,181.163 486.452,184.834 487.465,167.283 488.477,198.608 489.489,167.121 490.502,198.744 491.514,167.621 492.526,198.492 493.539,183.364 494.551,183.214 495.564,182.513 496.576,183.84 497.588,139.313 498.601,226.952 499.613,139.192 500.625,226.508 501.638,142.319 502.65,223.339 503.662,142.453 504.675,222.883 505.687,143.259 506.7,184.857 507.712,181.448 508.724,184.718 509.737,181.277 510.749,159.002 511.761,206.496 512.774,159.327 513.786,206.958 514.798,159.101 515.811,206.324 516.823,159.928 517.836,205.856 518.848,159.697 519.86,201.337 520.873,165.286 521.885,199.982 522.897,166.282 523.91,199.294 524.922,166.978 525.934,198.372 526.947,167.164 527.959,198.293 528.972,184.686 529.984,180.81 530.996,184.619 532.009,181.894 533.021,144.723 534.033,221.248 535.046,144.531 536.058,161.982 537.071,204.048 538.083,162.224 539.095,203.446 540.108,162.668 541.12,160.237 542.132,205.724 543.145,159.844 544.157,205.538 545.169,226.305 546.182,140.407 547.194,225.919 548.207,140.577 549.219,224.775 550.231,141.452 551.244,224.786 552.256,141.37 553.268,224.418 554.281,141.904 555.293,224.086 556.305,141.906 557.318,224.226 558.33,141.857 559.343,224.255 560.355,141.243 561.367,224.241 562.38,141.177 563.392,224.537 564.404,141.271 565.417,225.219 566.429,141.083 567.441,224.675 568.454,141.246 569.466,224.662 570.479,140.741 571.491,225.334 572.503,167.714 573.516,198.032 574.528,157.617 575.54,208.216 576.553,157.626 577.565,208.164 578.577,158.063 579.59,207.725 580.602,158.326 581.615,207.575 582.627,158.18 583.639,208.446 584.652,158.234 585.664,207.818 586.676,158.042 587.689,207.286 588.701,159.162 589.714,206.736 590.726,158.666 591.738,207.703 592.751,158.138 593.763,207.733 594.775,158.275 595.788,207.64 596.8,158.504 597.812,207.266 598.825,139.256 599.837,226.523 600.85,156.372 601.862,208.896 602.874,157.347 603.887,209.372 604.899,156.845 605.911,208.875 606.924,156.996 607.936,208.685 608.948,157.275 609.961,208.737 610.973,157.868 611.986,208.799 612.998,191.463 614.01,174.299 615.023,182.545 616.035,174.365 617.047,192.143 618.06,173.124 619.072,193.341 620.084,172.614 621.097,170.162 622.109,195.708 623.122,170.627 624.134,194.749 625.146,170.919 626.159,195.557 627.171,171.074 628.183,166.377 629.196,200.05 630.208,165.865 631.221,178.398 632.233,187.363 633.245,179.051 634.258,187.256 635.27,178.852 636.282,187.152 637.295,178.496 638.307,187.397 639.319,178.282 640.332,188.044 641.344,178.056 642.357,187.658 643.369,178.164 644.381,188.081 645.394,177.608 646.406,188.706 647.418,177.395 648.431,189.086 649.443,177.323 650.455,188.909 651.468,177.214 652.48,188.944 653.493,177.579 654.505,188.302 655.517,177.668 656.53,174.196 657.542,177.863 658.554,187.408 659.567,178.64 660.579,187.109 661.591,179.318 662.604,189.245 663.616,176.358 664.629,164.798 665.641,201.061 666.653,165.298 667.666,200.734 668.678,165.866 669.69,199.581 670.703,166.755 671.715,198.585 672.728,167.305 673.74,198.545 674.752,167.609 675.765,198.024 676.777,167.695 677.789,166.429 678.802,200.033 679.814,162.588 680.826,203.31 681.839,162.158 682.851,165.301 683.864,200.781 684.876,178.002 685.888,188.641 686.901,176.883 687.913,189.411 688.925,176.494 689.938,189.393 690.95,176.813 691.962,177.326 692.975,177.159 693.987,188.677 695,166.394 696.012,199.114 697.024,166.827 698.037,180.951 699.049,185.019 700.061,180.517 701.074,185.758 702.086,180.635 703.098,185.414 704.111,205.895 705.123,148.955 706.136,216.9 707.148,148.899 708.16,193.069 709.173,172.8 710.185,192.909 711.197,173.331 712.21,192.868 713.222,173.229 714.234,192.081 715.247,173.894 716.259,192.087 717.272,173.392 718.284,187.139 719.296,179.243 720.309,186.284 721.321,179.299 722.333,186.75 723.346,179.116 724.358,187.512 725.371,178.642 726.383,313.657 727.395,324.406 728.408,312.879 729.42,324.143 730.432,313.614 731.445,303.379 732.457,334.634 733.469,302.885 734.482,323.242 735.494,314.048 736.507,297.335 737.519,340.527 738.531,296.406 739.544,341.253 740.556,295.823 741.568,341.803 742.581,295.86 743.593,341.357 744.605,331.161 745.618,305.824 746.63,331.516 747.643,327.96 748.655,309.444 749.667,327.806 750.68,329.284 751.692,308.68 752.704,329.096 753.717,303.493 754.729,329.287 755.741,289.291 756.754,312.656 757.766,296.888 758.779,326.812 759.791,311.195 760.803,326.573 761.816,311.309 762.828,325.519 763.84,311.981 764.853,325.683 765.865,311.967 766.878,325.555 767.89,312.557 768.902,324.527 769.915,313.254 770.927,324.206 771.939,321.806 772.952,314.994 773.964,323.075 774.976,341.405 775.989,295.986 777.001,341.97 778.014,295.105 779.026,342.625 780.038,295.103 781.051,342.88 782.063,294.85 783.075,305.122 784.088,297.985 785.1,317.304 786.112,284.464 787.125,353.503 788.137,283.841 789.15,288.986 790.162,323.354 791.174,313.799 792.187,323.459 793.199,323.962 794.211,314.213 795.224,323.391 796.236,309.756 797.248,328.282 798.261,309.347 799.273,328.082 800.286,310.051 801.298,327.356 802.31,310.067 803.323,327.641 804.335,309.578 805.347,327.559 806.36,316.368 807.372,321.604 808.384,315.805 809.397,320.995 810.409,316.181 811.422,312.688 812.434,299.562 813.446,337.778 814.459,299.923 815.471,336.95 816.483,322.55 817.496,315.173 818.508,322.643 819.521,315.543 820.533,322.224 821.545,314.959 822.558,317.803 823.57,319.877 824.582,317.933 825.595,318.959 826.607,318.706 827.619,313.589 828.632,323.488 829.644,323.938 830.657,313.346 831.669,324.701 832.681,312.361 833.694,316.561 834.706,320.48 835.718,309.672 836.731,327.436 837.743,309.595 838.755,327.612 839.768,310.082 840.78,327.402 841.793,310.125 842.805,327.877 843.817,309.763 844.83,329.282 845.842,308.775 846.854,328.295 847.867,309.648 848.879,314.425 849.891,323.309 850.904,314.792 851.916,322.871 852.929,315.003 853.941,322.471 854.953,315.472 855.966,310.733 856.978,307.415 857.99,330.009 859.003,307.921 860.015,352.284 861.028,303.824 862.04,333.392 863.052,304.058 864.065,333.919 865.077,303.465 866.089,319.715 867.102,317.779 868.114,319.121 869.126,318.079 870.139,319.117 871.151,323.266 872.164,314.203 873.176,323.309 874.188,314.052 875.201,322.734 876.213,313.513 877.225,322.44 878.238,314.824 879.25,322.627 880.262,314.83 881.275,322.575 882.287,315.089 883.3,322.164 884.312,315.263 885.324,322.155 886.337,315.621 887.349,321.447 888.361,316.258 889.374,331.514 890.386,306.161 891.398,318.038 892.411,305.748 893.423,331.559 894.436,306.091 895.448,331.147 896.46,306.392 897.473,330.879 898.485,306.886 899.497,330.232 900.51,306.88 901.522,317.614 902.535,319.547 903.547,318.042 904.559,319.567 905.572,317.763 906.584,298.057 907.596,339.363 908.609,298.6 909.621,311.702 910.633,326.035 911.646,311.485 912.658,313.838 913.671,281.557 914.683,356.023 915.695,282.072 916.708,355.616 917.72,333.251 918.732,303.537 919.745,334.612 920.757,302.422 921.769,335.142 922.782,302.87 923.794,305.33 924.807,306.599 925.819,331.437 926.831,305.549 927.844,331.822 928.856,267.404 929.868,369.467 930.881,267.318 931.893,370.227 932.905,267.571 933.918,369.746 934.93,267.771 935.943,370.185 936.955,266.922 937.967,370.239 938.98,267.43 939.992,359.488 941.004,277.775 942.017,359.454 943.029,314.78 944.041,322.786 945.054,314.565 946.066,335.568 947.079,301.475 948.091,323.217 949.103,314.657 950.116,323.216 951.128,313.57 952.14,321.058 953.153,265.109 954.165,371.963 955.178,265.78 956.19,371.543 957.202,302.37 958.215,335.192 959.227,304.481 960.239,332.805 961.252,305.295 962.264,332.094 963.276,322.105 964.289,315.914 965.301,321.469 966.314,315.993 967.326,321.969 968.338,315.164 969.351,312.731 970.363,324.85 971.375,312.617 972.388,331.246 973.4,306.273 974.412,331.618 975.425,306.371 976.437,330.922 977.45,305.996 978.462,331.571 979.474,306.585 980.487,302.612 981.499,334.704 982.511,302.782 983.524,334.778 984.536,302.227 985.548,301.995 986.561,335.885 987.573,301.924 988.586,335.295 989.598,301.822 990.61,335.654 991.623,301.707 992.635,335.272 993.647,302.451 994.66,315.494 995.672,325.554 996.685,312.173 997.697,324.849 998.709,313.334 999.722,324.245 1000.73,313.435 1001.75,323.792 1002.76,296.909 1003.77,339.886 1004.78,297.864 1005.8,339.946 1006.81,298.029 1007.82,338.818 1008.83,359.57 1009.85,277.77 1010.86,359.561 1011.87,278.343 1012.88,315.634 1013.89,321.916 1014.91,315.477 1015.92,322.7 1016.93,314.298 1017.94,323.726 1018.96,313.293 1019.97,308.527 1020.98,328.717 1021.99,308.698 1023.01,329.05 1024.02,308.331 1025.03,329.354 1026.04,307.985 1027.06,329.907 1028.07,307.516 1029.08,329.9 1030.09,321.461 1031.1,315.956 1032.12,320.615 1033.13,316.895 1034.14,319.89 1035.15,318.012 1036.17,319.746 1037.18,318.154 1038.19,326.382 1039.2,311.032 1040.22,325.931 1041.23,311.443 1042.24,329.332 1043.25,308.794 1044.27,328.852 1045.28,308.287 1046.29,329.475 1047.3,320.984 1048.32,301.919 1049.33,335.206 1050.34,317.933 1051.35,319.655 1052.36,318.488 1053.38,309.475 1054.39,328.368 1055.4,308.99 1056.41,326.643 1057.43,311.012 1058.44,325.975 1059.45,311.519 1060.46,326.125 1061.48,311.364 1062.49,326.641 1063.5,311.255 1064.51,312.084 1065.53,303.69 1066.54,333.922 1067.55,303.93 1068.56,335.48 1069.57,302.064 1070.59,335.557 1071.6,302.296 1072.61,335.728 1073.62,302.088 1074.64,335.207 1075.65,329.242 1076.66,308.096 1077.67,326.841 1078.69,310.783 1079.7,326.98 1080.71,310.224 1081.72,327.492 1082.74,327.011 1083.75,310.591 1084.76,326.895 1085.77,310.942 1086.79,325.847 1087.8,311.938 1088.81,325.149 1089.82,335.819 1090.83,293.035 1091.85,344.38 1092.86,292.711 1093.87,344.932 1094.88,292.508 1095.9,344.671 1096.91,327.009 1097.92,310.42 1098.93,326.373 1099.95,310.537 1100.96,326.838 1101.97,316.864 1102.98,319.166 1104,318.174 1105.01,292.393 1106.02,318.858 1107.03,318.888 1108.04,318.709 1109.06,318.456 1110.07,318.808 1111.08,318.982 1112.09,318.032 1113.11,319.523 1114.12,317.964 1115.13,319.106 1116.14,318.287 1117.16,319.611 1118.17,322.317 1119.18,312.981 1120.19,324.408 1121.21,313.534 1122.22,323.761 1123.23,313.97 1124.24,323.55 1125.25,297.728 1126.27,315.488 1127.28,321.744 1128.29,337.335 1129.3,300.104 1130.32,355.883 1131.33,328.373 1132.34,309.376 1133.35,328.114 1134.37,309.321 1135.38,344.54 1136.39,288.666 1137.4,348.877 1138.42,322.539 1139.43,314.96 1140.44,322.26 1141.45,315.173 1142.47,321.927 1143.48,315.973 1144.49,320.832 1145.5,316.479 1146.51,320.671 1147.53,316.987 1148.54,320.217 1149.55,324.693 1150.56,287.281 1151.58,349.826 1152.59,287.435 1153.6,304.545 1154.61,332.242 1155.63,304.208 1156.64,332.976 1157.65,304.945 1158.66,331.225 1159.68,306.313 1160.69,331.129 1161.7,306.683 1162.71,331.039 1163.72,306.346 1164.74,312.342 1165.75,329.25 1166.76,307.785 1167.77,329.869 1168.79,307.384 1169.8,329.858 1170.81,308.028 1171.82,329.638 1172.84,307.889 1173.85,329.964 1174.86,307.475 1175.87,329.736 1176.89,312.742 1177.9,325.254 1178.91,312.544 1179.92,277.202 1180.94,360.193 1181.95,277.251 1182.96,360.289 1183.97,276.961 1184.98,347.065 1186,290.52 1187.01,347.196 1188.02,304.756 1189.03,347.488 1190.05,290.301 1191.06,347.887 1192.07,289.823 1193.08,347.614 1194.1,289.485 1195.11,347.782 1196.12,290.289 1197.13,319.606 1198.15,318.235 1199.16,318.569 1200.17,319.15 1201.18,318.592 1202.19,298.6 1203.21,313.827 1204.22,307.394 1205.23,326.73 1206.24,316.933 1207.26,321.018 1208.27,316.232 1209.28,359.432 1210.29,277.659 1211.31,360.148 1212.32,277.039 1213.33,360.042 1214.34,276.861 1215.36,360.34 1216.37,277.208 1217.38,360.22 1218.39,320.332 1219.4,317.305 1220.42,320.506 1221.43,316.835 1222.44,325.563 1223.45,311.922 1224.47,326.222 1225.48,311.216 1226.49,326.407 1227.5,310.962 1228.52,326.803 1229.53,328.808 1230.54,296.471 1231.55,311.152 1232.57,326.218 1233.58,310.9 1234.59,326.008 1235.6,303.63 1236.62,333.734 1237.63,303.919 1238.64,317.552 1239.65,319.862 1240.66,317.227 1241.68,320.096 1242.69,317.822 1243.7,320.036 1244.71,317.308 1245.73,320.799 1246.74,317.062 1247.75,317.781 1248.76,319.602 1249.78,364.366 1250.79,273.515 1251.8,363.482 1252.81,274.262 1253.83,310.984 1254.84,325.841 1255.85,312.28 1256.86,305.895 1257.87,330.968 1258.89,331.523 1259.9,305.808 1260.91,331.757 1261.92,305.782 1262.94,331.615 1263.95,308.192 1264.96,329.255 1265.97,308.526 1266.99,330.621 1268,307.401 1269.01,330.526 1270.02,306.986 1271.04,316.028 1272.05,321.31 1273.06,316.034 1274.07,321.454 1275.09,322.345 1276.1,312.158 1277.11,325.369 1278.12,340.972 1279.13,296.703 1280.15,294.434 1281.16,343.075 1282.17,303.818 1283.18,333.021 1284.2,296.144 1285.21,297.596 1286.22,339.495 1287.23,315.853 1288.25,321.671 1289.26,334.543 1290.27,303.313 1291.28,325.197 1292.3,309.374 1293.31,328.566 1294.32,308.754 1295.33,329.938 1296.34,297.268 1297.36,291.394 1298.37,324.68 1299.38,312.228 1300.39,324.77 1301.41,323.974 1302.42,313.101 1303.43,324.623 1304.44,312.302 1305.46,319.011 1306.47,318.363 1307.48,319.315 1308.49,318.744 1309.51,318.879 1310.52,318.743 1311.53,319.041 1312.54,318.139 1313.55,319.592 1314.57,318.192 1315.58,319.722 1316.59,317.81 1317.6,312.091 1318.62,325.827 1319.63,311.32 1320.64,326.535 1321.65,311.052 1322.67,297.469 1323.68,340.705 1324.69,296.543 1325.7,341.549 1326.72,295.56 1327.73,341.414 1328.74,296.021 1329.75,342.042 1330.77,295.208 1331.78,342.699 1332.79,294.774 1333.8,347.66 1334.81,290.052 1335.83,324.27 1336.84,328.856 1337.85,308.323 1338.86,329.427 1339.88,308.481 1340.89,319.92 1341.9,325.74 1342.91,312.201 1343.93,324.715 1344.94,312.852 1345.95,324.638 1346.96,312.316 1347.98,325.848 1348.99,311.809 1350,326.008 1351.01,311.978 1352.02,325.372 1353.04,311.413 1354.05,326.255 1355.06,311.183 1356.07,326.576 1357.09,310.247 1358.1,327.238 1359.11,291.059 1360.12,327.222 1361.14,310.271 1362.15,326.709 1363.16,336.525 1364.17,300.722 1365.19,336.983 1366.2,300.437 1367.21,309.419 1368.22,327.997 1369.24,308.809 1370.25,300.935 1371.26,336.653 1372.27,300.835 1373.28,336.269 1374.3,301.549 1375.31,336.132 1376.32,318.115 1377.33,314.296 1378.35,322.62 1379.36,314.851 1380.37,302.704 1381.38,334.662 1382.4,301.786 1383.41,306.433 1384.42,330.807 1385.43,306.485 1386.45,331.091 1387.46,306.771 1388.47,314.81 1389.48,323.037 1390.49,314.961 1391.51,322.376 1392.52,315.127 1393.53,322.616 1394.54,314.607 1395.56,298.84 1396.57,339.308 1397.58,298.178 1398.59,339.273 1399.61,297.894 1400.62,338.895 1401.63,298.239 1402.64,339.023 1403.66,298.222 1404.67,339.182 1405.68,319.72 1406.69,317.987 1407.7,319.601 1408.72,317.415 1409.73,312.083 1410.74,325.992 1411.75,311.56 1412.77,326.366 1413.78,311.448 1414.79,342.808 1415.8,294.703 1416.82,342.964 1417.83,294.408 1418.84,323.856 1419.85,296.219 1420.87,330.941 1421.88,306.12 1422.89,331.802 1423.9,305.577 1424.92,319.712 1425.93,318.195 1426.94,319.045 1427.95,318.544 1428.96,318.885 1429.98,319.085 1430.99,320.192 1432,317.321 1433.01,307.302 1434.03,330.773 1435.04,306.762 1436.05,330.581 1437.06,332.768 1438.08,304.791 1439.09,332.581 1440.1,305.443 1441.11,311.296 1442.13,326.206 1443.14,311.272 1444.15,325.888 1445.16,311.48 1446.17,325.378 1447.19,305.121 1448.2,324.637 1449.21,312.734 1450.22,324.833 1451.24,312.603 1452.25,325.203 1453.26,312.006 1454.27,325.253 1455.29,311.868 1456.3,325.368 1457.31,311.81 1458.32,326.171 1459.34,311.496 1460.35,326.137 1461.36,311.976 1462.37,326.118 1463.39,332.11 1464.4,305.426 1465.41,331.916 1466.42,305.252 1467.43,306.722 1468.45,330.745 1469.46,306.784 1470.47,330.642 1471.48,306.836 1472.5,324.932 1473.51,312.848 1474.52,304.009 1475.53,313.349 1476.55,325.686 1477.56,310.482 1478.57,338.703 1479.58,298.605 1480.6,338.349 1481.61,299.192 1482.62,338.736 1483.63,299.071 1484.64,322.332 1485.66,315.317 1486.67,315.51 1487.68,305.414 1488.69,332.248 1489.71,305.33 1490.72,332.355 1491.73,305.443 1492.74,309.216 1493.76,328.478 1494.77,295.191 1495.78,342.579 1496.79,294.905 1497.81,342.577 1498.82,318.744 1499.83,318.577 1500.84,306.379 1501.85,331.662 1502.87,306.405 1503.88,324.492 1504.89,313.329 1505.9,323.914 1506.92,341.415 1507.93,295.668 1508.94,342.04 1509.95,294.781 1510.97,342.403 1511.98,295.742 1512.99,314.992 1514,322.077 1515.02,314.962 1516.03,323.011 1517.04,314.104 1518.05,323.251 1519.07,314.16 1520.08,323.36 1521.09,314.094 1522.1,322.756 1523.11,315.335 1524.13,312.528 1525.14,325.306 1526.15,326.621 1527.16,310.695 1528.18,261.194 1529.19,310.381 1530.2,331.989 1531.21,305.54 1532.23,332.324 1533.24,304.894 1534.25,332.28 1535.26,304.816 1536.28,327.919 1537.29,310.191 1538.3,327.353 1539.31,309.963 1540.32,327.148 1541.34,310.286 1542.35,327.043 1543.36,310.109 1544.37,327.219 1545.39,326.106 1546.4,302.026 1547.41,335.682 1548.42,301.661 1549.44,335.281 1550.45,316.958 1551.46,316.946 1552.47,311.318 1553.49,328.479 1554.5,337.29 1555.51,300.445 1556.52,318.827 1557.54,318.278 1558.55,319.9 1559.56,317.46 1560.57,320.407 1561.58,317.15 1562.6,324.433 1563.61,298.367 1564.62,338.509 1565.63,299.465 1566.65,337.76 1567.66,299.368 1568.67,338.679 1569.68,298.728 1570.7,338.382 1571.71,298.926 1572.72,338.677 1573.73,311.263 1574.75,326.063 1575.76,329.348 1576.77,359.145 1577.78,317.665 1578.79,319.216 1579.81,318.397 1580.82,319.513 1581.83,317.902 1582.84,344.883 1583.86,292.708 1584.87,344.864 1585.88,292.146 1586.89,344.917 1587.91,292.177 1588.92,345.546 1589.93,292.454 1590.94,345.023 1591.96,293.385 1592.97,339.116 1593.98,298.568 1594.99,339.114 1596,298.412 1597.02,302.563 1598.03,334.761 1599.04,302.942 1600.05,325.266 1601.07,312.065 1602.08,325.413 1603.09,311.715 1604.1,325.7 1605.12,311.725 1606.13,326.205 1607.14,311.02 1608.15,326.517 1609.17,288.989 1610.18,318.251 1611.19,319.725 1612.2,318.418 1613.22,319.18 1614.23,340.724 1615.24,296.314 1616.25,341.665 1617.26,318.607 1618.28,318.955 1619.29,302.496 1620.3,303.532 1621.31,334.433 1622.33,302.595 1623.34,334.946 1624.35,302.176 1625.36,335.429 1626.38,302.57 1627.39,335.081 1628.4,305.343 1629.41,332.268 1630.43,305.015 1631.44,333.173 1632.45,304.56 1633.46,333.231 1634.47,303.973 1635.49,301.497 1636.5,325.61 1637.51,312.08 1638.52,325.373 1639.54,309.482 1640.55,327.896 1641.56,309.615 1642.57,327.866 1643.59,309.304 1644.6,321.655 1645.61,315.45 1646.62,322.196 1647.64,314.675 1648.65,323.505 1649.66,313.34 1650.67,292.572 1651.69,344.576 1652.7,292.93 1653.71,344.256 1654.72,293.925 1655.73,316.753 1656.75,300.976 1657.76,315.257 1658.77,330.437 1659.78,307.093 1660.8,329.958 1661.81,307.343 1662.82,305.529 1663.83,332.66 1664.85,317.508 1665.86,334.058 1666.87,309.541 1667.88,328.117 1668.9,309.223 1669.91,378.739 1670.92,258.768 1671.93,360.423 1672.94,337.549 1673.96,324.773 1674.97,325.738 1675.98,312.1 1676.99,325.165 1678.01,312.31 1679.02,324.978 1680.03,312.47 1681.04,324.612 1682.06,312.659 1683.07,324.801 1684.08,331.048 1685.09,330.222 1686.11,314.034 1687.12,315.365 1688.13,315.853 1689.14,322.093 1690.15,315.221 1691.17,322.313 1692.18,315.184 1693.19,321.948 1694.2,315.363 1695.22,322.476 1696.23,315.423 1697.24,322.099 1698.25,314.869 1699.27,322.452 1700.28,314.529 1701.29,323.15 1702.3,297.847 1703.32,339.427 1704.33,311.897 1705.34,325.908 1706.35,311.452 1707.37,326.133 1708.38,311.806 1709.39,325.717 1710.4,311.068 1711.41,320.227 1712.43,311.637 1713.44,326.106 1714.45,306.589 1715.46,331.219 1716.48,306.124 1717.49,333.679 1718.5,303.305 1719.51,334.31 1720.53,303.146 1721.54,334.143 1722.55,303.548 1723.56,297.189 1724.58,340.619 1725.59,296.709 1726.6,340.754 1727.61,309.234 1728.62,328.434 1729.64,309.309 1730.65,323.837 1731.66,317.256 1732.67,319.699 1733.69,317.563 1734.7,319.283 1735.71,317.938 1736.72,319.319 1737.74,317.732 1738.75,319.615 1739.76,317.609 1740.77,320.312 1741.79,316.864 1742.8,320.754 1743.81,316.501 1744.82,330.988 1745.84,306.45 1746.85,330.898 1747.86,306.625 1748.87,314.965 1749.88,322.727 1750.9,314.782 1751.91,322.788 1752.92,314.636 1753.93,322.459 1754.95,314.684 1755.96,322.345 1756.97,318.769 1757.98,307.44 1759,329.985 1760.01,298.489 1761.02,338.625 1762.03,298.663 1763.05,324.469 1764.06,313.328 1765.07,324.537 1766.08,312.859 1767.09,324.246 1768.11,313.556 1769.12,337.382 1770.13,300.046 1771.14,337.746 1772.16,299.734 1773.17,337.998 1774.18,299.417 1775.19,338.594 1776.21,299.461 1777.22,261.64 1778.23,330.53 1779.24,306.348 1780.26,330.843 1781.27,306.089 1782.28,331.393 1783.29,308.666 1784.3,328.351 1785.32,309.31 1786.33,328.404 1787.34,309.48 1788.35,328.228 1789.37,309.269 1790.38,328.342 1791.39,333.952 1792.4,303.313 1793.42,334.606 1794.43,302.769 1795.44,334.537 1796.45,302.543 1797.47,334.379 1798.48,302.854 1799.49,334.522 1800.5,348.651 1801.52,290.144 1802.53,347.767 1803.54,289.91 1804.55,328.758 1805.56,308.313 1806.58,329.317 1807.59,308.535 1808.6,328.985 1809.61,309.02 1810.63,328.36 1811.64,308.82 1812.65,328.971 1813.66,308.597 1814.68,328.204 1815.69,309.244 1816.7,328.693 1817.71,346.398 1818.73,290.693 1819.74,306.697 1820.75,330.734 1821.76,307.191 1822.77,330.274 1823.79,331.519 1824.8,306.098 1825.81,331.043 1826.82,305.812 1827.84,313.129 1828.85,337.778 1829.86,300.013 1830.87,315.965 1831.89,321.313 1832.9,316.685 1833.91,321.288 1834.92,316.356 1835.94,312.003 1836.95,325.679 1837.96,312.041 1838.97,325.368 1839.99,311.593 1841,325.984 1842.01,309.001 1843.02,328.535 1844.03,308.617 1845.05,328.752 1846.06,308.606 1847.07,305.368 1848.08,308.344 1849.1,329.092 1850.11,308.29 1851.12,320.937 1852.13,316.7 1853.15,321.016 1854.16,316.656 1855.17,313.185 1856.18,324.438 1857.2,312.992 1858.21,324.14 1859.22,312.976 1860.23,313.589 1861.24,324.1 1862.26,313.186 1863.27,324.909 1864.28,312.562 1865.29,324.748 1866.31,312.565 1867.32,325.017 1868.33,317.024 1869.34,320.65 1870.36,316.964 1871.37,320.762 1872.38,317.081 1873.39,297.235 1874.41,333.402 1875.42,303.795 1876.43,323.05 1877.44,313.315 1878.45,323.574 1879.47,298.953 1880.48,324.084 1881.49,313.138 1882.5,323.935 1883.52,321.554 1884.53,307.853 1885.54,329.876 1886.55,307.709 1887.57,330.313 1888.58,307.453 1889.59,324.03 1890.6,313.106 1891.62,324.639 1892.63,312.796 1893.64,325.178 1894.65,312.163 1895.67,325.194 1896.68,312.075 1897.69,325.736 1898.7,346.187 1899.71,343.257 1900.73,294.201 1901.74,343.065 1902.75,294.267 1903.76,343.034 1904.78,294.89 1905.79,312.651 1906.8,324.62 1907.81,312.297 1908.83,325.144 1909.84,302.754 1910.85,334.66 1911.86,302.976 1912.88,334.307 1913.89,299.658 1914.9,337.999 1915.91,322.526 1916.92,315.005 1917.94,337.638 1918.95,299.91 1919.96,337.959 1920.97,329.77 1921.99,297.768 1923,329.616 1924.01,315.078 1925.02,322.648 1926.04,314.829 1927.05,303.605 1928.06,334.073 1929.07,332.146 1930.09,305.79 1931.1,331.953 1932.11,302.882 1933.12,311.897 1934.14,325.67 1935.15,298.324 1936.16,315.226 1937.17,322.28 1938.18,324.951 1939.2,299.242 1940.21,338.197 1941.22,313.51 1942.23,323.962 1943.25,312.911 1944.26,324.485 1945.27,356.326 1946.28,281.372 1947.3,356.148 1948.31,370.963 1949.32,324.906 1950.33,328.295 1951.35,303.755 1952.36,333.665 1953.37,304.274 1954.38,332.574 1955.39,285.96 1956.41,351.933 1957.42,285.858 1958.43,309.916 1959.44,327.205 1960.46,309.645 1961.47,327.514 1962.48,310.013 1963.49,327.703 1964.51,309.873 1965.52,327.68 1966.53,309.615 1967.54,290.841 1968.56,346.874 1969.57,290.609 1970.58,346.92 1971.59,291.145 1972.6,346.753 1973.62,291.237 1974.63,346.359 1975.64,290.642 1976.65,346.692 1977.67,344.081 1978.68,294.018 1979.69,344.014 1980.7,293.259 1981.72,344.081 1982.73,293.801 1983.74,343.56 1984.75,293.532 1985.77,344.114 1986.78,293.123 1987.79,344.761 1988.8,292.568 1989.82,455.151 1990.83,454.111 1991.84,455.187 1992.85,453.739 1993.86,447.684 1994.88,461.267 1995.89,448.004 1996.9,443.064 1997.91,451.804 1998.93,446.427 1999.94,442.238 2000.95,466.533 2001.96,442.494 2002.98,469.675 2003.99,445.733 2005,462.777 2006.01,446.192 2007.03,431.852 2008.04,451.455 2009.05,457.26 2010.06,451.967 2011.07,442.987 2012.09,465.929 2013.1,437.396 2014.11,471.624 2015.12,437.035 2016.14,456.199 2017.15,452.387 2018.16,449.268 2019.17,471.655 2020.19,437.696 2021.2,471.949 2022.21,436.739 2023.22,472.407 2024.24,430.624 2025.25,446.579 2026.26,462.318 2027.27,446.523 2028.29,448.548 2029.3,459.877 2030.31,464.102 2031.32,467.211 2032.33,441.956 2033.35,467.033 2034.36,457.795 2035.37,476.608 2036.38,432.447 2037.4,447.478 2038.41,461.26 2039.42,447.309 2040.43,435.15 2041.45,458.886 2042.46,450.199 2043.47,453.184 2044.48,455.701 2045.5,453.512 2046.51,451.056 2047.52,455.308 2048.53,469.862 2049.54,444.834 2050.56,464.359 2051.57,444.032 2052.58,465.439 2053.59,433.363 2054.61,475.705 2055.62,433.123 2056.63,480.737 2057.64,428.235 2058.66,434.437 2059.67,434.366 2060.68,457.471 2061.69,450.432 2062.71,482.75 2063.72,422.682 2064.73,486.325 2065.74,422.333 2066.75,437.59 2067.77,450.434 2068.78,458.89 2069.79,450.015 2070.8,455.755 2071.82,452.577 2072.83,456.348 2073.84,452.874 2074.85,442.297 2075.87,467.019 2076.88,441.926 2077.89,467.608 2078.9,441.637 2079.92,467.268 2080.93,441.555 2081.94,467.604 2082.95,477.006 2083.97,470.894 2084.98,437.867 2085.99,466.281 2087,442.666 2088.01,458.237 2089.03,446.811 2090.04,458.84 2091.05,443.263 2092.06,463.896 2093.08,444.576 2094.09,442.88 2095.1,465.736 2096.11,427.192 2097.13,461.567 2098.14,447.554 2099.15,468.219 2100.16,447.051 2101.18,462.528 2102.19,455.503 2103.2,453.732 2104.21,439.91 2105.22,468.355 2106.24,439.78 2107.25,472.721 2108.26,435.978 2109.27,471.003 2110.29,438.284 2111.3,458.192 2112.31,404.598 2113.32,440.984 2114.34,458.437 2115.35,451.268 2116.36,453.633 2117.37,454.732 2118.39,448.475 2119.4,461.053 2120.41,461.236 2121.42,473.332 2122.44,435.983 2123.45,473.29 2124.46,414.676 2125.47,416.384 2126.48,469.455 2127.5,445.229 2128.51,445.786 2129.52,461.386 2130.53,466.125 2131.55,464.413 2132.56,444.159 2133.57,465.194 2134.58,443.856 2135.6,465.537 2136.61,443.197 2137.62,446.578 2138.63,463.04 2139.65,446.127 2140.66,462.7 2141.67,433.533 2142.68,433.566 2143.69,475.783 2144.71,433.589 2145.72,475.894 2146.73,474.268 2147.74,464.057 2148.76,445.247 2149.77,420.073 2150.78,419.45 2151.79,489.44 2152.81,435.871 2153.82,450.058 2154.83,432.525 2155.84,476.684 2156.86,497.147 2157.87,440.176 2158.88,468.529 2159.89,459.67 2160.9,449.234 2161.92,438.408 2162.93,462.159 2163.94,449.845 2164.95,445.663 2165.97,464.008 2166.98,445.346 2167.99,471.225 2169,433.577 2170.02,475.856 2171.03,433.271 2172.04,448.733 2173.05,460.037 2174.07,463.546 2175.08,448.482 2176.09,460.218 2177.1,449.32 2178.12,421.682 2179.13,487.565 2180.14,442.663 2181.15,440.893 2182.16,467.797 2183.18,441.727 2184.19,432.743 2185.2,459.433 2186.21,447.897 2187.23,461.693 2188.24,436.22 2189.25,446.691 2190.26,430.383 2191.28,461.82 2192.29,445.666 2193.3,468.868 2194.31,440.699 2195.33,463.157 2196.34,457.565 2197.35,451.74 2198.36,442.823 2199.37,434.767 2200.39,473.604 2201.4,434.897 2202.41,463.42 2203.42,461.989 2204.44,485.561 2205.45,467.089 2206.46,463.267 2207.47,471.332 2208.49,437.751 2209.5,471.61 2210.51,458.277 2211.52,479.441 2212.54,485.196 2213.55,425.177 2214.56,483.769 2215.57,425.381 2216.59,483.745 2217.6,425.16 2218.61,428.228 2219.62,444.498 2220.63,464.616 2221.65,443.735 2222.66,455.37 2223.67,438.32 2224.68,470.864 2225.7,438.017 2226.71,470.252 2227.72,472.468 2228.73,436.81 2229.75,472.422 2230.76,439.015 2231.77,448.378 2232.78,456.879 2233.8,448.593 2234.81,460.248 2235.82,451.085 2236.83,457.188 2237.84,431.799 2238.86,479.154 2239.87,430.247 2240.88,479.374 2241.89,429.146 2242.91,479.794 2243.92,429.661 2244.93,453.709 2245.94,454.759 2246.96,454.208 2247.97,454.564 2248.98,454.074 2249.99,455.263 2251.01,455.586 2252.02,453.226 2253.03,455.72 2254.04,433.01 2255.06,475.922 2256.07,433.456 2257.08,476.24 2258.09,455.108 2259.1,453.852 2260.12,454.463 2261.13,441.87 2262.14,463.416 2263.15,445.355 2264.17,464.108 2265.18,444.949 2266.19,463.822 2267.2,452.485 2268.22,456.193 2269.23,428.398 2270.24,438.289 2271.25,447.444 2272.27,440.123 2273.28,468.8 2274.29,439.868 2275.3,463.221 2276.31,445.396 2277.33,463.767 2278.34,463.713 2279.35,444.974 2280.36,428.546 2281.38,480.498 2282.39,460.649 2283.4,448.591 2284.41,460.018 2285.43,449.68 2286.44,454.826 2287.45,450.948 2288.46,433.604 2289.48,473.548 2290.49,439.225 2291.5,441.388 2292.51,442.639 2293.52,466.184 2294.54,471.822 2295.55,477.485 2296.56,431.409 2297.57,451.407 2298.59,443.693 2299.6,465.881 2300.61,443.203 2301.62,465.823 2302.64,485.691 2303.65,442.107 2304.66,451.169 2305.67,442.951 2306.69,465.991 2307.7,410.082 2308.71,443.005 2309.72,417.162 2310.74,492.229 2311.75,416.898 2312.76,487.975 2313.77,421.069 2314.78,446.604 2315.8,462.623 2316.81,470.671 2317.82,450.679 2318.83,453.968 2319.85,449.654 2320.86,459.558 2321.87,461.318 2322.88,447.578 2323.9,461.834 2324.91,447.582 2325.92,469.233 2326.93,439.501 2327.95,468.785 2328.96,466.114 2329.97,417.777 2330.98,491.015 2331.99,437.15 2333.01,471.961 2334.02,437.128 2335.03,404.235 2336.04,445.616 2337.06,445.253 2338.07,445.267 2339.08,463.643 2340.09,445.308 2341.11,450.064 2342.12,445.456 2343.13,464.957 2344.14,452.522 2345.16,442.025 2346.17,466.597 2347.18,492.786 2348.19,464.359 2349.21,404.087 2350.22,449.891 2351.23,425.72 2352.24,483.002 2353.25,449.17 2354.27,448.478 2355.28,434.647 2356.29,461.648 2357.3,447.368 2358.32,462.094 2359.33,464.551 2360.34,443.94 2361.35,466.943 2362.37,434.713 2363.38,469.484 2364.39,453.586 2365.4,455.572 2366.42,474.136 2367.43,460.94 2368.44,447.794 2369.45,447.629 2370.46,461.186 2371.48,449.421 2372.49,459.12 2373.5,442.109 2374.51,466.539 2375.53,438.754 2376.54,470.072 2377.55,428.142 2378.56,430.151 2379.58,478.955 2380.59,430.422 2381.6,460.871 2382.61,460.984 2383.63,434.127 2384.64,471.259 2385.65,437.551 2386.66,471.327 2387.67,450.582 2388.69,458.166 2389.7,450.699 2390.71,460.972 2391.72,455.379 2392.74,453.369 2393.75,451.039 2394.76,440.811 2395.77,467.868 2396.79,436.714 2397.8,472.303 2398.81,436.822 2399.82,472.117 2400.84,436.886 2401.85,438.489 2402.86,456.108 2403.87,439.842 2404.89,468.977 2405.9,456.657 2406.91,452.248 2407.92,448.268 2408.93,460.452 2409.95,448.026 2410.96,460.844 2411.97,448.255 2412.98,461.332 2414,447.871 2415.01,444.009 2416.02,465.105 2417.03,443.201 2418.05,465.62 2419.06,443.606 2420.07,465.484 2421.08,459.408 2422.1,449.315 2423.11,448.852 2424.12,438.055 2425.13,439.289 2426.14,447.414 2427.16,456.098 2428.17,444.84 2429.18,464.531 2430.19,461.878 2431.21,436.029 2432.22,447.161 2433.23,439.634 2434.24,458.383 2435.26,445.071 2436.27,463.893 2437.28,461.542 2438.29,447.424 2439.31,447.972 2440.32,450.926 2441.33,457.829 2442.34,450.471 2443.36,447.138 2444.37,462.196 2445.38,471.141 2446.39,474.121 2447.4,462.243 2448.42,447.141 2449.43,461.847 2450.44,412.595 2451.45,444.058 2452.47,459.811 2453.48,449.008 2454.49,460.417 2455.5,448.841 2456.52,450.225 2457.53,458.358 2458.54,450.495 2459.55,458.37 2460.57,450.671 2461.58,458.153 2462.59,451.07 2463.6,457.198 2464.61,451.545 2465.63,471.117 2466.64,456.882 2467.65,472.784 2468.66,478.321 2469.68,468.565 2470.69,440.419 2471.7,468.706 2472.71,436.783 2473.73,472.41 2474.74,462.639 2475.75,469.727 2476.76,440.965 2477.78,502.582 2478.79,494.068 2479.8,457.352 2480.81,451.5 2481.82,456.204 2482.84,455.092 2483.85,440.721 2484.86,468.157 2485.87,440.98 2486.89,439.339 2487.9,451.244 2488.91,461.325 2489.92,447.919 2490.94,476.321 2491.95,433.123 2492.96,475.872 2493.97,487.263 2494.99,421.236 2496,441.273 2497.01,434.654 2498.02,474.425 2499.04,434.921 2500.05,460.626 2501.06,447.182 2502.07,425.25 2503.08,483.407 2504.1,425.722 2505.11,460.606 2506.12,467.043 2507.13,441.976 2508.15,467.539 2509.16,441.558 2510.17,446.978 2511.18,452.465 2512.2,456.764 2513.21,465.245 2514.22,427.826 2515.23,472.35 2516.25,435.449 2517.26,472.429 2518.27,458.815 2519.28,450.334 2520.29,458.644 2521.31,450.245 2522.32,458.628 2523.33,446.248 2524.34,463.146 2525.36,454.097 2526.37,449.313 2527.38,459.221 2528.39,449.467 2529.41,436.276 2530.42,462.349 2531.43,446.422 2532.44,446.087 2533.46,463.005 2534.47,446.282 2535.48,439.841 2536.49,454.895 2537.51,439.673 2538.52,469.343 2539.53,439.504 2540.54,469.966 2541.55,436.75 2542.57,427.412 2543.58,473.266 2544.59,466.399 2545.6,452.476 2546.62,462.536 2547.63,457.31 2548.64,452.174 2549.65,456.975 2550.67,460.209 2551.68,450.615 2552.69,449.95 2553.7,458.712 2554.72,465.182 2555.73,436.682 2556.74,458.863 2557.75,449.764 2558.76,441.224 2559.78,462.497 2560.79,463.801 2561.8,444.939 2562.81,463.736 2563.83,445.045 2564.84,426.857 2565.85,481.748 2566.86,417.954 2567.88,463.684 2568.89,444.833 2569.9,432.693 2570.91,475.736 2571.93,433.173 2572.94,476.029 2573.95,421.716 2574.96,451.366 2575.97,456.239 2576.99,453.362 2578,464.514 2579.01,432.589 2580.02,453.855 2581.04,427.521 2582.05,446.063 2583.06,457.079 2584.07,451.23 2585.09,457.871 2586.1,451.154 2587.11,467.175 2588.12,468.711 2589.14,440.798 2590.15,468.235 2591.16,457.861 2592.17,473.49 2593.19,443.202 2594.2,465.677 2595.21,443.596 2596.22,410.376 2597.23,498.134 2598.25,431.79 2599.26,477.262 2600.27,431.877 2601.28,464.235 2602.3,444.716 2603.31,464.126 2604.32,456.8 2605.33,452.404 2606.35,453.441 2607.36,447.293 2608.37,461.474 2609.38,447.943 2610.4,440.962 2611.41,468.568 2612.42,440.446 2613.43,445.145 2614.44,449.442 2615.46,420.318 2616.47,489.332 2617.48,419.164 2618.49,490.288 2619.51,418.346 2620.52,490.338 2621.53,454.285 2622.54,454.173 2623.56,455.096 2624.57,460.707 2625.58,447.159 2626.59,453.656 2627.61,455.382 2628.62,453.193 2629.63,458.432 2630.64,450.603 2631.66,458.019 2632.67,451.654 2633.68,444.459 2634.69,477.564 2635.7,457.222 2636.72,446.678 2637.73,431.564 2638.74,467.23 2639.75,441.67 2640.77,467.092 2641.78,441.672 2642.79,467.357 2643.8,445.785 2644.82,460.387 2645.83,448.177 2646.84,460.999 2647.85,447.969 2648.87,460.719 2649.88,446.185 2650.89,462.691 2651.9,433.184 2652.91,475.183 2653.93,476.558 2654.94,457.465 2655.95,451.911 2656.96,457.157 2657.98,448.361 2658.99,460.035 2660,429.47 2661.01,460.431 2662.03,433.784 2663.04,474.617 2664.05,457.145 2665.06,469.627 2666.08,438.773 2667.09,487.128 2668.1,422.572 2669.11,462.445 2670.12,446.859 2671.14,462.595 2672.15,447.486 2673.16,461.608 2674.17,453.745 2675.19,434.082 2676.2,443.925 2677.21,465.158 2678.22,443.829 2679.24,477.142 2680.25,432.25 2681.26,477.286 2682.27,431.434 2683.29,477.624 2684.3,431.079 2685.31,478.061 2686.32,430.717 2687.34,478.418 2688.35,436.091 2689.36,472.91 2690.37,435.731 2691.38,450.931 2692.4,458.086 2693.41,446.845 2694.42,458.035 2695.43,456.78 2696.45,452.298 2697.46,456.684 2698.47,430.975 2699.48,478.246 2700.5,430.597 2701.51,477.982 2702.52,430.494 2703.53,450.335 2704.55,477.317 2705.56,459.77 2706.57,469.503 2707.58,439.63 2708.59,469.845 2709.61,451.127 2710.62,457.569 2711.63,451.058 2712.64,442.696 2713.66,467.366 2714.67,441.987 2715.68,466.925 2716.69,442.274 2717.71,467.077 2718.72,442.375 2719.73,458.081 2720.74,451.069 2721.76,471.708 2722.77,441.547 2723.78,455.504 2724.79,445.823 2725.81,453.347 2726.82,456.103 2727.83,453.136 2728.84,455.408 2729.85,445.296 2730.87,463.533 2731.88,452.306 2732.89,456.554 2733.9,441.571 2734.92,453.942 2735.93,460.264 2736.94,448.897 2737.95,454.763 2738.97,454.062 2739.98,455.059 2740.99,449.509 2742,459.941 2743.02,449.167 2744.03,464.204 2745.04,433.343 2746.05,448.695 2747.06,447.095 2748.08,461.998 2749.09,463.731 2750.1,445.376 2751.11,447.984 2752.13,461.031 2753.14,447.668 2754.15,461.387 2755.16,448.001 2756.18,451.925 2757.19,457.357 2758.2,451.256 2759.21,485.127 2760.23,423.896 2761.24,446.017 2762.25,430.626 2763.26,459.124 2764.27,449.388 2765.29,459.663 2766.3,449.405 2767.31,440.925 2768.32,467.799 2769.34,440.958 2770.35,468.392 2771.36,439.878 2772.37,450.016 2773.39,464.154 2774.4,474.421 2775.41,434.528 2776.42,434.87 2777.44,443.563 2778.45,439.208 2779.46,469.706 2780.47,439.468 2781.49,469.157 2782.5,440.117 2783.51,468.868 2784.52,439.802 2785.53,473.726 2786.55,426.34 2787.56,464.737 2788.57,439.577 2789.58,455.138 2790.6,453.948 2791.61,466.823 2792.62,440.057 2793.63,469.028 2794.65,440.169 2795.66,445.862 2796.67,443.892 2797.68,464.881 2798.7,441.024 2799.71,468.542 2800.72,440.263 2801.73,449.733 2802.74,458.919 2803.76,450.583 2804.77,457.907 2805.78,481.134 2806.79,428.003 2807.81,455.647 2808.82,453.353 2809.83,447.666 2810.84,415.541 2811.86,441.237 2812.87,423.706 2813.88,430.575 2814.89,478.064 2815.91,431.15 2816.92,478.309 2817.93,450.386 2818.94,458.682 2819.96,449.96 2820.97,458.439 2821.98,466.751 2822.99,430.894 2824,466.503 2825.02,443.05 2826.03,466.342 2827.04,443.044 2828.05,459.519 2829.07,449.635 2830.08,459.594 2831.09,443.088 2832.1,465.905 2833.12,425.636 2834.13,483.126 2835.14,425.924 2836.15,483.31 2837.17,441.739 2838.18,466.977 2839.19,470.671 2840.2,447.01 2841.21,453.439 2842.23,455.643 2843.24,449.377 2844.25,460.275 2845.26,448.273 2846.28,460.554 2847.29,448.502 2848.3,460.265 2849.31,448.424 2850.33,455.196 2851.34,453.374 2852.35,455.634 2853.36,446.943 2854.38,449.258 2855.39,459.104 2856.4,449.293 2857.41,456.763 2858.42,438.972 2859.44,470.398 2860.45,438.113 2861.46,470.966 2862.47,438.102 2863.49,461.145 2864.5,453.517 2865.51,456.913 2866.52,465.617 2867.54,443.791 2868.55,445.79 2869.56,442.592 2870.57,466.995 2871.59,441.601 2872.6,470.581 2873.61,438.577 2874.62,470.083 2875.64,460.723 2876.65,448.509 2877.66,460.436 2878.67,448.703 2879.68,477.776 2880.7,458.075 2881.71,450.831 2882.72,458.227 2883.73,450.979 2884.75,457.727 2885.76,451.465 2886.77,463.136 2887.78,459.097 2888.8,449.739 2889.81,459.476 2890.82,449.791 2891.83,459.302 2892.85,446.641 2893.86,486.928 2894.87,451.578 2895.88,457.15 2896.89,458.065 2897.91,451.191 2898.92,434.29 2899.93,466.552 2900.94,457.798 2901.96,448.772 2902.97,444.353 2903.98,466.993 2904.99,459.627 2906.01,449.912 2907.02,459.677 2908.03,449.801 2909.04,465.737 2910.06,443.671 2911.07,465.228 2912.08,443.599 2913.09,465.246 2914.11,443.355 2915.12,465.716 2916.13,457.787 2917.14,451.284 2918.15,461.072 2919.17,448.077 2920.18,441.232 2921.19,467.461 2922.2,441.706 2923.22,443.453 2924.23,465.655 2925.24,442.926 2926.25,455.605 2927.27,452.975 2928.28,456.301 2929.29,434.97 2930.3,443.848 2931.32,448.974 2932.33,460.252 2933.34,448.7 2934.35,469.374 2935.36,440.264 2936.38,468.462 2937.39,474.326 2938.4,458.965 2939.41,456.886 2940.43,451.366 2941.44,457.659 2942.45,451.817 2943.46,457.009 2944.48,451.33 2945.49,457.451 2946.5,460.03 2947.51,449.196 2948.53,442.967 2949.54,466.126 2950.55,426.873 2951.56,481.912 2952.57,457.396 2953.59,429.4 2954.6,479.397 2955.61,429.392 2956.62,454.121 2957.64,454.892 2958.65,454.294 2959.66,454.856 2960.67,447.842 2961.69,452.12 2962.7,456.662 2963.71,459.529 2964.72,449.425 2965.74,459.589 2966.75,448.565 2967.76,475.626 2968.77,432.748 2969.79,447.87 2970.8,439.924 2971.81,411.716 2972.82,433.015 2973.83,476.259 2974.85,432.819 2975.86,429.438 2976.87,462.78 2977.88,446.143 2978.9,463.292 2979.91,445.833 2980.92,463.401 2981.93,445.823 2982.95,462.79 2983.96,446.092 2984.97,462.963 2985.98,445.685 2987,460.23 2988.01,449.17 2989.02,457.826 2990.03,450.866 2991.04,456.336 2992.06,451.341 2993.07,457.084 2994.08,452.471 2995.09,444.556 2996.11,448.408 2997.12,462.705 2998.13,431.547 2999.14,477.12 3000.16,456.603 3001.17,456.179 3002.18,449.493 3003.19,441.116 3004.21,451.537 3005.22,470.982 3006.23,438.331 3007.24,444.101 3008.26,464.183 3009.27,444.701 3010.28,464.429 3011.29,441.292 3012.3,445.154 3013.32,464.41 3014.33,444.863 3015.34,445.54 3016.35,463.572 3017.37,425.849 3018.38,460.513 3019.39,440.738 3020.4,468.389 3021.42,449.543 3022.43,459.445 3023.44,476.618 3024.45,431.801 3025.47,462.578 3026.48,461.653 3027.49,446.906 3028.5,450.578 3029.51,458.597 3030.53,420.819 3031.54,456.702 3032.55,452.559 3033.56,466.297 3034.58,469.119 3035.59,440.211 3036.6,460.449 3037.61,449.021 3038.63,460.068 3039.64,469.196 3040.65,440.023 3041.66,477.374 3042.68,431.143 3043.69,451.049 3044.7,440.748 3045.71,468.315 3046.72,440.513 3047.74,468.514 3048.75,451.307 3049.76,467.451 3050.77,441.566 3051.79,422.849 3052.8,443.525 3053.81,438.495 3054.82,470.584 3055.84,438.08 3056.85,453.044 3057.86,456.51 3058.87,452.144 3059.89,456.977 3060.9,484.059 3061.91,439.902 3062.92,457.792 3063.94,451.057 3064.95,458.21 3065.96,450.326 3066.97,458.954 3067.98,439.629 3069,469.573 3070.01,451.146 3071.02,457.751 3072.03,451.438 3073.05,478.822 3074.06,429.788 3075.07,479.57 3076.08,429.561 3077.1,479.666 3078.11,429.586 3079.12,479.577 3080.13,493.221 3081.15,440.007 3082.16,466.915 3083.17,441.899 3084.18,467.298 3085.19,468.978 3086.21,437.562 3087.22,471.96 3088.23,437.159 3089.24,471.448 3090.26,451.119 3091.27,457.848 3092.28,451.269 3093.29,459.154 3094.31,449.3 3095.32,478.414 3096.33,430.426 3097.34,464.853 3098.36,444.192 3099.37,464.893 3100.38,409.197 3101.39,447.101 3102.41,447.284 3103.42,446.997 3104.43,485.824 3105.44,422.859 3106.45,477.583 3107.47,455.579 3108.48,446.771 3109.49,443.556 3110.5,462.982 3111.52,443.867 3112.53,450.255 3113.54,459.055 3114.55,444.252 3115.57,449.6 3116.58,459.435 3117.59,459.488 3118.6,449.333 3119.62,464.681 3120.63,464.186 3121.64,436.814 3122.65,447.387 3123.66,461.453 3124.68,446.858 3125.69,462.426 3126.7,447.091 3127.71,450.136 3128.73,458.993 3129.74,449.949 3130.75,431.952 3131.76,459.89 3132.78,448.85 3133.79,460.546 3134.8,439.901 3135.81,444.786 3136.83,463.749 3137.84,456.841 3138.85,452.394 3139.86,456.008 3140.87,453.231 3141.89,481.044 3142.9,427.941 3143.91,481.103 3144.92,427.811 3145.94,480.485 3146.95,429.035 3147.96,427.649 3148.97,453.955 3149.99,454.714 3151,454.508 3152.01,431.334 3153.02,462.718 3154.04,427.101 3155.05,481.565 3156.06,453.093 3157.07,472.099 3158.09,436.364 3159.1,472.195 3160.11,436.919 3161.12,472.703 3162.13,436.449 3163.15,472.259 3164.16,437.173 3165.17,433.506 3166.18,458.743 3167.2,450.032 3168.21,458.839 3169.22,453.943 3170.23,455.538 3171.25,436.629 3172.26,472.174 3173.27,436.952 3174.28,484.939 3175.3,423.746 3176.31,485.198 3177.32,423.876 3178.33,485.164 3179.34,443.266 3180.36,434.052 3181.37,428.05 3182.38,427.158 3183.39,444.079 3184.41,438.346 3185.42,427.575 3186.43,481.231 3187.44,465.453 3188.46,457.066 3189.47,451.733 3190.48,428.745 3191.49,448.175 3192.51,452.631 3193.52,447.948 3194.53,461.325 3195.54,447.603 3196.56,427.906 3197.57,427.959 3198.58,460.879 3199.59,447.844 3200.6,428.989 3201.62,480.509 3202.63,417.803 3203.64,491.08 3204.65,417.843 3205.67,454.87 3206.68,468.553 3207.69,464.873 3208.7,444.123 3209.72,464.831 3210.73,444.159 3211.74,464.863 3212.75,443.916 3213.77,464.669 3214.78,460.177 3215.79,466.648 3216.8,442.642 3217.81,467.139 3218.83,463.548 3219.84,444.784 3220.85,464.221 3221.86,450.419 3222.88,464.711 3223.89,483.14 3224.9,466.686 3225.91,442.33 3226.93,441.014 3227.94,467.46 3228.95,440.799 3229.96,437.203 3230.98,471.401 3231.99,437.933 3233,452.691 3234.01,456.15 3235.02,452.698 3236.04,437.172 3237.05,471.851 3238.06,437.138 3239.07,472.17 3240.09,436.841 3241.1,472.045 3242.11,420.61 3243.12,441.355 3244.14,476.691 3245.15,482.218 3246.16,426.722 3247.17,481.657 3248.19,445.635 3249.2,462.778 3250.21,450.647 3251.22,455.224 3252.24,470.447 3253.25,438.451 3254.26,454.746 3255.27,453.575 3256.28,437.112 3257.3,472.117 3258.31,437.485 3259.32,462.887 3260.33,431.531 3261.35,436.038 3262.36,461.688 3263.37,447.825 3264.38,460.927 3265.4,447.822 3266.41,461.218 3267.42,457.976 3268.43,481.943 3269.45,427.18 3270.46,481.878 3271.47,427.223 3272.48,482.237 3273.49,427.142 3274.51,464.986 3275.52,462.441 3276.53,446.471 3277.54,435.548 3278.56,473.036 3279.57,452.464 3280.58,456.918 3281.59,433.152 3282.61,417.721 3283.62,418.503 3284.63,449.999 3285.64,446.158 3286.66,462.863 3287.67,465.152 3288.68,444.331 3289.69,464.959 3290.71,470.791 3291.72,475.304 3292.73,433.981 3293.74,459.503 3294.75,449.64 3295.77,459.572 3296.78,449.022 3297.79,428.492 3298.8,480.612 3299.82,462.049 3300.83,447.431 3301.84,461.374 3302.85,447.481 3303.87,438.875 3304.88,449.764 3305.89,459.592 3306.9,441.877 3307.92,467.456 3308.93,440.889 3309.94,468.21 3310.95,440.844 3311.96,468.712 3312.98,468.29 3313.99,456.764 3315,451.891 3316.01,456.96 3317.03,452.048 3318.04,454.712 3319.05,447.064 3320.06,462.1 3321.08,428.596 3322.09,480.01 3323.1,429.432 3324.11,445.801 3325.13,463.462 3326.14,445.254 3327.15,455.891 3328.16,453.372 3329.17,452.551 3330.19,468.009 3331.2,449.505 3332.21,433.606 3333.22,441.116 3334.24,449.899 3335.25,434.437 3336.26,474.647 3337.27,439.332 3338.29,469.654 3339.3,456.039 3340.31,453.099 3341.32,455.791 3342.34,465.269 3343.35,444.029 3344.36,465.249 3345.37,443.6 3346.39,461.384 3347.4,443.069 3348.41,465.581 3349.42,443.701 3350.43,464.097 3351.45,444.481 3352.46,464.286 3353.47,445.151 3354.48,464.11 3355.5,444.579 3356.51,464.363 3357.52,446.757 3358.53,463.558 3359.55,445.177 3360.56,434.915 3361.57,420.305 3362.58,488.312 3363.6,419.977 3364.61,474.565 3365.62,435.102 3366.63,449.023 3367.64,459.959 3368.66,447.911 3369.67,440.242 3370.68,469.082 3371.69,477.38 3372.71,431.602 3373.72,468.376 3374.73,440.11 3375.74,468.921 3376.76,432.231 3377.77,477.37 3378.78,432.165 3379.79,444.038 3380.81,464.992 3381.82,462.523 3382.83,446.475 3383.84,463.23 3384.86,445.762 3385.87,464.638 3386.88,444.028 3387.89,465.346 3388.9,443.589 3389.92,447.098 3390.93,462.156 3391.94,431.839 3392.95,459.474 3393.97,449.656 3394.98,459.126 3395.99,432.318 3397,476.797 3398.02,432.381 3399.03,476.234 3400.04,432.017 3401.05,414.068 3402.07,474.047 3403.08,419.111 3404.09,476.97 3405.1,431.886 3406.11,456.574 3407.13,471.75 3408.14,437.321 3409.15,471.086 3410.16,469.949 3411.18,450.699 3412.19,458.667 3413.2,450.67 3414.21,472.796 3415.23,453.458 3416.24,454.054 3417.25,455.421 3418.26,453.269 3419.28,466.643 3420.29,442.02 3421.3,467.331 3422.31,453.185 3423.32,473.43 3424.34,468.451 3425.35,440.664 3426.36,468.05 3427.37,440.77 3428.39,468.622 3429.4,440.33 3430.41,468.422 3431.42,458.421 3432.44,426.873 3433.45,403.271 3434.46,505.549 3435.47,465.711 3436.49,460.976 3437.5,460.633 3438.51,448.587 3439.52,459.95 3440.54,446.297 3441.55,467.026 3442.56,441.557 3443.57,467.278 3444.58,455.824 3445.6,425.983 3446.61,446.107 3447.62,462.569 3448.63,447 3449.65,454.271 3450.66,453.987 3451.67,454.808 3452.68,453.648 3453.7,455.947 3454.71,453.266 3455.72,455.62 "/>
<path clip-path="url(#clip650)" d="M2993.18 166.762 L3438.47 166.762 L3438.47 63.0816 L2993.18 63.0816  Z" fill="#ffffff" fill-rule="evenodd" fill-opacity="1"/>
<polyline clip-path="url(#clip650)" style="stroke:#000000; stroke-linecap:round; stroke-linejoin:round; stroke-width:4; stroke-opacity:1; fill:none" points="2993.18,166.762 3438.47,166.762 3438.47,63.0816 2993.18,63.0816 2993.18,166.762 "/>
<polyline clip-path="url(#clip650)" style="stroke:#009af9; stroke-linecap:round; stroke-linejoin:round; stroke-width:2; stroke-opacity:1; fill:none" points="3031.28,114.922 3259.85,114.922 "/>
<path clip-path="url(#clip650)" d="M3297.94 97.6416 L3302.62 97.6416 L3302.62 111.808 L3319.61 111.808 L3319.61 97.6416 L3324.29 97.6416 L3324.29 132.202 L3319.61 132.202 L3319.61 115.743 L3302.62 115.743 L3302.62 132.202 L3297.94 132.202 L3297.94 97.6416 Z" fill="#000000" fill-rule="evenodd" fill-opacity="1" /><path clip-path="url(#clip650)" d="M3333.59 97.6416 L3340.56 97.6416 L3349.38 121.16 L3358.25 97.6416 L3365.21 97.6416 L3365.21 132.202 L3360.65 132.202 L3360.65 101.854 L3351.74 125.558 L3347.04 125.558 L3338.13 101.854 L3338.13 132.202 L3333.59 132.202 L3333.59 97.6416 Z" fill="#000000" fill-rule="evenodd" fill-opacity="1" /><path clip-path="url(#clip650)" d="M3400.37 100.304 L3400.37 105.234 Q3398.01 103.035 3395.33 101.947 Q3392.67 100.859 3389.66 100.859 Q3383.73 100.859 3380.58 104.493 Q3377.43 108.104 3377.43 114.956 Q3377.43 121.785 3380.58 125.419 Q3383.73 129.03 3389.66 129.03 Q3392.67 129.03 3395.33 127.942 Q3398.01 126.854 3400.37 124.655 L3400.37 129.54 Q3397.92 131.206 3395.17 132.04 Q3392.43 132.873 3389.38 132.873 Q3381.53 132.873 3377.02 128.081 Q3372.5 123.266 3372.5 114.956 Q3372.5 106.623 3377.02 101.831 Q3381.53 97.0166 3389.38 97.0166 Q3392.48 97.0166 3395.21 97.8499 Q3397.97 98.6601 3400.37 100.304 Z" fill="#000000" fill-rule="evenodd" fill-opacity="1" /></svg>
