<?xml version="1.0" encoding="utf-8"?>
<svg xmlns="http://www.w3.org/2000/svg" xmlns:xlink="http://www.w3.org/1999/xlink" width="900" height="150" viewBox="0 0 3600 600">
<defs>
  <clipPath id="clip200">
    <rect x="0" y="0" width="3600" height="600"/>
  </clipPath>
</defs>
<path clip-path="url(#clip200)" d="M0 600 L3600 600 L3600 0 L0 0  Z" fill="#ffffff" fill-rule="evenodd" fill-opacity="1"/>
<defs>
  <clipPath id="clip201">
    <rect x="720" y="0" width="2521" height="600"/>
  </clipPath>
</defs>
<path clip-path="url(#clip200)" d="M124.177 522.368 L3552.76 522.368 L3552.76 47.2441 L124.177 47.2441  Z" fill="#ffffff" fill-rule="evenodd" fill-opacity="1"/>
<defs>
  <clipPath id="clip202">
    <rect x="124" y="47" width="3430" height="476"/>
  </clipPath>
</defs>
<polyline clip-path="url(#clip202)" style="stroke:#000000; stroke-linecap:round; stroke-linejoin:round; stroke-width:2; stroke-opacity:0.1; fill:none" points="219.983,522.368 219.983,47.2441 "/>
<polyline clip-path="url(#clip202)" style="stroke:#000000; stroke-linecap:round; stroke-linejoin:round; stroke-width:2; stroke-opacity:0.1; fill:none" points="834.908,522.368 834.908,47.2441 "/>
<polyline clip-path="url(#clip202)" style="stroke:#000000; stroke-linecap:round; stroke-linejoin:round; stroke-width:2; stroke-opacity:0.1; fill:none" points="1449.83,522.368 1449.83,47.2441 "/>
<polyline clip-path="url(#clip202)" style="stroke:#000000; stroke-linecap:round; stroke-linejoin:round; stroke-width:2; stroke-opacity:0.1; fill:none" points="2064.76,522.368 2064.76,47.2441 "/>
<polyline clip-path="url(#clip202)" style="stroke:#000000; stroke-linecap:round; stroke-linejoin:round; stroke-width:2; stroke-opacity:0.1; fill:none" points="2679.68,522.368 2679.68,47.2441 "/>
<polyline clip-path="url(#clip202)" style="stroke:#000000; stroke-linecap:round; stroke-linejoin:round; stroke-width:2; stroke-opacity:0.1; fill:none" points="3294.61,522.368 3294.61,47.2441 "/>
<polyline clip-path="url(#clip200)" style="stroke:#000000; stroke-linecap:round; stroke-linejoin:round; stroke-width:4; stroke-opacity:1; fill:none" points="124.177,522.368 3552.76,522.368 "/>
<polyline clip-path="url(#clip200)" style="stroke:#000000; stroke-linecap:round; stroke-linejoin:round; stroke-width:4; stroke-opacity:1; fill:none" points="219.983,522.368 219.983,503.47 "/>
<polyline clip-path="url(#clip200)" style="stroke:#000000; stroke-linecap:round; stroke-linejoin:round; stroke-width:4; stroke-opacity:1; fill:none" points="834.908,522.368 834.908,503.47 "/>
<polyline clip-path="url(#clip200)" style="stroke:#000000; stroke-linecap:round; stroke-linejoin:round; stroke-width:4; stroke-opacity:1; fill:none" points="1449.83,522.368 1449.83,503.47 "/>
<polyline clip-path="url(#clip200)" style="stroke:#000000; stroke-linecap:round; stroke-linejoin:round; stroke-width:4; stroke-opacity:1; fill:none" points="2064.76,522.368 2064.76,503.47 "/>
<polyline clip-path="url(#clip200)" style="stroke:#000000; stroke-linecap:round; stroke-linejoin:round; stroke-width:4; stroke-opacity:1; fill:none" points="2679.68,522.368 2679.68,503.47 "/>
<polyline clip-path="url(#clip200)" style="stroke:#000000; stroke-linecap:round; stroke-linejoin:round; stroke-width:4; stroke-opacity:1; fill:none" points="3294.61,522.368 3294.61,503.47 "/>
<path clip-path="url(#clip200)" d="M219.983 562.887 Q216.371 562.887 214.543 566.451 Q212.737 569.993 212.737 577.123 Q212.737 584.229 214.543 587.794 Q216.371 591.335 219.983 591.335 Q223.617 591.335 225.422 587.794 Q227.251 584.229 227.251 577.123 Q227.251 569.993 225.422 566.451 Q223.617 562.887 219.983 562.887 M219.983 559.183 Q225.793 559.183 228.848 563.789 Q231.927 568.373 231.927 577.123 Q231.927 585.849 228.848 590.456 Q225.793 595.039 219.983 595.039 Q214.172 595.039 211.094 590.456 Q208.038 585.849 208.038 577.123 Q208.038 568.373 211.094 563.789 Q214.172 559.183 219.983 559.183 Z" fill="#000000" fill-rule="evenodd" fill-opacity="1" /><path clip-path="url(#clip200)" d="M794.526 559.808 L812.883 559.808 L812.883 563.743 L798.809 563.743 L798.809 572.215 Q799.827 571.868 800.846 571.706 Q801.864 571.521 802.883 571.521 Q808.67 571.521 812.049 574.692 Q815.429 577.863 815.429 583.28 Q815.429 588.859 811.957 591.96 Q808.485 595.039 802.165 595.039 Q799.989 595.039 797.721 594.669 Q795.475 594.298 793.068 593.558 L793.068 588.859 Q795.151 589.993 797.374 590.548 Q799.596 591.104 802.073 591.104 Q806.077 591.104 808.415 588.998 Q810.753 586.891 810.753 583.28 Q810.753 579.669 808.415 577.562 Q806.077 575.456 802.073 575.456 Q800.198 575.456 798.323 575.873 Q796.471 576.289 794.526 577.169 L794.526 559.808 Z" fill="#000000" fill-rule="evenodd" fill-opacity="1" /><path clip-path="url(#clip200)" d="M834.642 562.887 Q831.031 562.887 829.202 566.451 Q827.397 569.993 827.397 577.123 Q827.397 584.229 829.202 587.794 Q831.031 591.335 834.642 591.335 Q838.276 591.335 840.082 587.794 Q841.91 584.229 841.91 577.123 Q841.91 569.993 840.082 566.451 Q838.276 562.887 834.642 562.887 M834.642 559.183 Q840.452 559.183 843.508 563.789 Q846.586 568.373 846.586 577.123 Q846.586 585.849 843.508 590.456 Q840.452 595.039 834.642 595.039 Q828.832 595.039 825.753 590.456 Q822.698 585.849 822.698 577.123 Q822.698 568.373 825.753 563.789 Q828.832 559.183 834.642 559.183 Z" fill="#000000" fill-rule="evenodd" fill-opacity="1" /><path clip-path="url(#clip200)" d="M864.804 562.887 Q861.193 562.887 859.364 566.451 Q857.558 569.993 857.558 577.123 Q857.558 584.229 859.364 587.794 Q861.193 591.335 864.804 591.335 Q868.438 591.335 870.244 587.794 Q872.072 584.229 872.072 577.123 Q872.072 569.993 870.244 566.451 Q868.438 562.887 864.804 562.887 M864.804 559.183 Q870.614 559.183 873.669 563.789 Q876.748 568.373 876.748 577.123 Q876.748 585.849 873.669 590.456 Q870.614 595.039 864.804 595.039 Q858.994 595.039 855.915 590.456 Q852.859 585.849 852.859 577.123 Q852.859 568.373 855.915 563.789 Q858.994 559.183 864.804 559.183 Z" fill="#000000" fill-rule="evenodd" fill-opacity="1" /><path clip-path="url(#clip200)" d="M1394.36 590.433 L1402 590.433 L1402 564.067 L1393.69 565.734 L1393.69 561.475 L1401.95 559.808 L1406.63 559.808 L1406.63 590.433 L1414.27 590.433 L1414.27 594.368 L1394.36 594.368 L1394.36 590.433 Z" fill="#000000" fill-rule="evenodd" fill-opacity="1" /><path clip-path="url(#clip200)" d="M1433.71 562.887 Q1430.1 562.887 1428.27 566.451 Q1426.47 569.993 1426.47 577.123 Q1426.47 584.229 1428.27 587.794 Q1430.1 591.335 1433.71 591.335 Q1437.35 591.335 1439.15 587.794 Q1440.98 584.229 1440.98 577.123 Q1440.98 569.993 1439.15 566.451 Q1437.35 562.887 1433.71 562.887 M1433.71 559.183 Q1439.52 559.183 1442.58 563.789 Q1445.66 568.373 1445.66 577.123 Q1445.66 585.849 1442.58 590.456 Q1439.52 595.039 1433.71 595.039 Q1427.9 595.039 1424.82 590.456 Q1421.77 585.849 1421.77 577.123 Q1421.77 568.373 1424.82 563.789 Q1427.9 559.183 1433.71 559.183 Z" fill="#000000" fill-rule="evenodd" fill-opacity="1" /><path clip-path="url(#clip200)" d="M1463.87 562.887 Q1460.26 562.887 1458.43 566.451 Q1456.63 569.993 1456.63 577.123 Q1456.63 584.229 1458.43 587.794 Q1460.26 591.335 1463.87 591.335 Q1467.51 591.335 1469.31 587.794 Q1471.14 584.229 1471.14 577.123 Q1471.14 569.993 1469.31 566.451 Q1467.51 562.887 1463.87 562.887 M1463.87 559.183 Q1469.68 559.183 1472.74 563.789 Q1475.82 568.373 1475.82 577.123 Q1475.82 585.849 1472.74 590.456 Q1469.68 595.039 1463.87 595.039 Q1458.06 595.039 1454.98 590.456 Q1451.93 585.849 1451.93 577.123 Q1451.93 568.373 1454.98 563.789 Q1458.06 559.183 1463.87 559.183 Z" fill="#000000" fill-rule="evenodd" fill-opacity="1" /><path clip-path="url(#clip200)" d="M1494.03 562.887 Q1490.42 562.887 1488.59 566.451 Q1486.79 569.993 1486.79 577.123 Q1486.79 584.229 1488.59 587.794 Q1490.42 591.335 1494.03 591.335 Q1497.67 591.335 1499.47 587.794 Q1501.3 584.229 1501.3 577.123 Q1501.3 569.993 1499.47 566.451 Q1497.67 562.887 1494.03 562.887 M1494.03 559.183 Q1499.84 559.183 1502.9 563.789 Q1505.98 568.373 1505.98 577.123 Q1505.98 585.849 1502.9 590.456 Q1499.84 595.039 1494.03 595.039 Q1488.22 595.039 1485.15 590.456 Q1482.09 585.849 1482.09 577.123 Q1482.09 568.373 1485.15 563.789 Q1488.22 559.183 1494.03 559.183 Z" fill="#000000" fill-rule="evenodd" fill-opacity="1" /><path clip-path="url(#clip200)" d="M2009.28 590.433 L2016.92 590.433 L2016.92 564.067 L2008.61 565.734 L2008.61 561.475 L2016.88 559.808 L2021.55 559.808 L2021.55 590.433 L2029.19 590.433 L2029.19 594.368 L2009.28 594.368 L2009.28 590.433 Z" fill="#000000" fill-rule="evenodd" fill-opacity="1" /><path clip-path="url(#clip200)" d="M2038.68 559.808 L2057.04 559.808 L2057.04 563.743 L2042.97 563.743 L2042.97 572.215 Q2043.98 571.868 2045 571.706 Q2046.02 571.521 2047.04 571.521 Q2052.83 571.521 2056.21 574.692 Q2059.59 577.863 2059.59 583.28 Q2059.59 588.859 2056.11 591.96 Q2052.64 595.039 2046.32 595.039 Q2044.15 595.039 2041.88 594.669 Q2039.63 594.298 2037.22 593.558 L2037.22 588.859 Q2039.31 589.993 2041.53 590.548 Q2043.75 591.104 2046.23 591.104 Q2050.23 591.104 2052.57 588.998 Q2054.91 586.891 2054.91 583.28 Q2054.91 579.669 2052.57 577.562 Q2050.23 575.456 2046.23 575.456 Q2044.35 575.456 2042.48 575.873 Q2040.63 576.289 2038.68 577.169 L2038.68 559.808 Z" fill="#000000" fill-rule="evenodd" fill-opacity="1" /><path clip-path="url(#clip200)" d="M2078.8 562.887 Q2075.19 562.887 2073.36 566.451 Q2071.55 569.993 2071.55 577.123 Q2071.55 584.229 2073.36 587.794 Q2075.19 591.335 2078.8 591.335 Q2082.43 591.335 2084.24 587.794 Q2086.07 584.229 2086.07 577.123 Q2086.07 569.993 2084.24 566.451 Q2082.43 562.887 2078.8 562.887 M2078.8 559.183 Q2084.61 559.183 2087.66 563.789 Q2090.74 568.373 2090.74 577.123 Q2090.74 585.849 2087.66 590.456 Q2084.61 595.039 2078.8 595.039 Q2072.99 595.039 2069.91 590.456 Q2066.85 585.849 2066.85 577.123 Q2066.85 568.373 2069.91 563.789 Q2072.99 559.183 2078.8 559.183 Z" fill="#000000" fill-rule="evenodd" fill-opacity="1" /><path clip-path="url(#clip200)" d="M2108.96 562.887 Q2105.35 562.887 2103.52 566.451 Q2101.71 569.993 2101.71 577.123 Q2101.71 584.229 2103.52 587.794 Q2105.35 591.335 2108.96 591.335 Q2112.59 591.335 2114.4 587.794 Q2116.23 584.229 2116.23 577.123 Q2116.23 569.993 2114.4 566.451 Q2112.59 562.887 2108.96 562.887 M2108.96 559.183 Q2114.77 559.183 2117.83 563.789 Q2120.9 568.373 2120.9 577.123 Q2120.9 585.849 2117.83 590.456 Q2114.77 595.039 2108.96 595.039 Q2103.15 595.039 2100.07 590.456 Q2097.02 585.849 2097.02 577.123 Q2097.02 568.373 2100.07 563.789 Q2103.15 559.183 2108.96 559.183 Z" fill="#000000" fill-rule="evenodd" fill-opacity="1" /><path clip-path="url(#clip200)" d="M2628.3 590.433 L2644.62 590.433 L2644.62 594.368 L2622.67 594.368 L2622.67 590.433 Q2625.33 587.678 2629.92 583.048 Q2634.52 578.396 2635.7 577.053 Q2637.95 574.53 2638.83 572.794 Q2639.73 571.035 2639.73 569.345 Q2639.73 566.59 2637.79 564.854 Q2635.87 563.118 2632.76 563.118 Q2630.56 563.118 2628.11 563.882 Q2625.68 564.646 2622.9 566.197 L2622.9 561.475 Q2625.73 560.34 2628.18 559.762 Q2630.63 559.183 2632.67 559.183 Q2638.04 559.183 2641.24 561.868 Q2644.43 564.553 2644.43 569.044 Q2644.43 571.174 2643.62 573.095 Q2642.83 574.993 2640.73 577.586 Q2640.15 578.257 2637.05 581.474 Q2633.94 584.669 2628.3 590.433 Z" fill="#000000" fill-rule="evenodd" fill-opacity="1" /><path clip-path="url(#clip200)" d="M2664.43 562.887 Q2660.82 562.887 2658.99 566.451 Q2657.18 569.993 2657.18 577.123 Q2657.18 584.229 2658.99 587.794 Q2660.82 591.335 2664.43 591.335 Q2668.06 591.335 2669.87 587.794 Q2671.7 584.229 2671.7 577.123 Q2671.7 569.993 2669.87 566.451 Q2668.06 562.887 2664.43 562.887 M2664.43 559.183 Q2670.24 559.183 2673.3 563.789 Q2676.37 568.373 2676.37 577.123 Q2676.37 585.849 2673.3 590.456 Q2670.24 595.039 2664.43 595.039 Q2658.62 595.039 2655.54 590.456 Q2652.49 585.849 2652.49 577.123 Q2652.49 568.373 2655.54 563.789 Q2658.62 559.183 2664.43 559.183 Z" fill="#000000" fill-rule="evenodd" fill-opacity="1" /><path clip-path="url(#clip200)" d="M2694.59 562.887 Q2690.98 562.887 2689.15 566.451 Q2687.35 569.993 2687.35 577.123 Q2687.35 584.229 2689.15 587.794 Q2690.98 591.335 2694.59 591.335 Q2698.23 591.335 2700.03 587.794 Q2701.86 584.229 2701.86 577.123 Q2701.86 569.993 2700.03 566.451 Q2698.23 562.887 2694.59 562.887 M2694.59 559.183 Q2700.4 559.183 2703.46 563.789 Q2706.54 568.373 2706.54 577.123 Q2706.54 585.849 2703.46 590.456 Q2700.4 595.039 2694.59 595.039 Q2688.78 595.039 2685.7 590.456 Q2682.65 585.849 2682.65 577.123 Q2682.65 568.373 2685.7 563.789 Q2688.78 559.183 2694.59 559.183 Z" fill="#000000" fill-rule="evenodd" fill-opacity="1" /><path clip-path="url(#clip200)" d="M2724.75 562.887 Q2721.14 562.887 2719.31 566.451 Q2717.51 569.993 2717.51 577.123 Q2717.51 584.229 2719.31 587.794 Q2721.14 591.335 2724.75 591.335 Q2728.39 591.335 2730.19 587.794 Q2732.02 584.229 2732.02 577.123 Q2732.02 569.993 2730.19 566.451 Q2728.39 562.887 2724.75 562.887 M2724.75 559.183 Q2730.56 559.183 2733.62 563.789 Q2736.7 568.373 2736.7 577.123 Q2736.7 585.849 2733.62 590.456 Q2730.56 595.039 2724.75 595.039 Q2718.94 595.039 2715.87 590.456 Q2712.81 585.849 2712.81 577.123 Q2712.81 568.373 2715.87 563.789 Q2718.94 559.183 2724.75 559.183 Z" fill="#000000" fill-rule="evenodd" fill-opacity="1" /><path clip-path="url(#clip200)" d="M3243.22 590.433 L3259.54 590.433 L3259.54 594.368 L3237.6 594.368 L3237.6 590.433 Q3240.26 587.678 3244.84 583.048 Q3249.45 578.396 3250.63 577.053 Q3252.87 574.53 3253.75 572.794 Q3254.66 571.035 3254.66 569.345 Q3254.66 566.59 3252.71 564.854 Q3250.79 563.118 3247.69 563.118 Q3245.49 563.118 3243.04 563.882 Q3240.61 564.646 3237.83 566.197 L3237.83 561.475 Q3240.65 560.34 3243.11 559.762 Q3245.56 559.183 3247.6 559.183 Q3252.97 559.183 3256.16 561.868 Q3259.36 564.553 3259.36 569.044 Q3259.36 571.174 3258.55 573.095 Q3257.76 574.993 3255.65 577.586 Q3255.07 578.257 3251.97 581.474 Q3248.87 584.669 3243.22 590.433 Z" fill="#000000" fill-rule="evenodd" fill-opacity="1" /><path clip-path="url(#clip200)" d="M3269.4 559.808 L3287.76 559.808 L3287.76 563.743 L3273.68 563.743 L3273.68 572.215 Q3274.7 571.868 3275.72 571.706 Q3276.74 571.521 3277.76 571.521 Q3283.55 571.521 3286.93 574.692 Q3290.3 577.863 3290.3 583.28 Q3290.3 588.859 3286.83 591.96 Q3283.36 595.039 3277.04 595.039 Q3274.86 595.039 3272.6 594.669 Q3270.35 594.298 3267.94 593.558 L3267.94 588.859 Q3270.03 589.993 3272.25 590.548 Q3274.47 591.104 3276.95 591.104 Q3280.95 591.104 3283.29 588.998 Q3285.63 586.891 3285.63 583.28 Q3285.63 579.669 3283.29 577.562 Q3280.95 575.456 3276.95 575.456 Q3275.07 575.456 3273.2 575.873 Q3271.35 576.289 3269.4 577.169 L3269.4 559.808 Z" fill="#000000" fill-rule="evenodd" fill-opacity="1" /><path clip-path="url(#clip200)" d="M3309.52 562.887 Q3305.91 562.887 3304.08 566.451 Q3302.27 569.993 3302.27 577.123 Q3302.27 584.229 3304.08 587.794 Q3305.91 591.335 3309.52 591.335 Q3313.15 591.335 3314.96 587.794 Q3316.79 584.229 3316.79 577.123 Q3316.79 569.993 3314.96 566.451 Q3313.15 562.887 3309.52 562.887 M3309.52 559.183 Q3315.33 559.183 3318.38 563.789 Q3321.46 568.373 3321.46 577.123 Q3321.46 585.849 3318.38 590.456 Q3315.33 595.039 3309.52 595.039 Q3303.71 595.039 3300.63 590.456 Q3297.57 585.849 3297.57 577.123 Q3297.57 568.373 3300.63 563.789 Q3303.71 559.183 3309.52 559.183 Z" fill="#000000" fill-rule="evenodd" fill-opacity="1" /><path clip-path="url(#clip200)" d="M3339.68 562.887 Q3336.07 562.887 3334.24 566.451 Q3332.43 569.993 3332.43 577.123 Q3332.43 584.229 3334.24 587.794 Q3336.07 591.335 3339.68 591.335 Q3343.31 591.335 3345.12 587.794 Q3346.95 584.229 3346.95 577.123 Q3346.95 569.993 3345.12 566.451 Q3343.31 562.887 3339.68 562.887 M3339.68 559.183 Q3345.49 559.183 3348.55 563.789 Q3351.62 568.373 3351.62 577.123 Q3351.62 585.849 3348.55 590.456 Q3345.49 595.039 3339.68 595.039 Q3333.87 595.039 3330.79 590.456 Q3327.73 585.849 3327.73 577.123 Q3327.73 568.373 3330.79 563.789 Q3333.87 559.183 3339.68 559.183 Z" fill="#000000" fill-rule="evenodd" fill-opacity="1" /><polyline clip-path="url(#clip202)" style="stroke:#000000; stroke-linecap:round; stroke-linejoin:round; stroke-width:2; stroke-opacity:0.1; fill:none" points="124.177,522.368 3552.76,522.368 "/>
<polyline clip-path="url(#clip202)" style="stroke:#000000; stroke-linecap:round; stroke-linejoin:round; stroke-width:2; stroke-opacity:0.1; fill:none" points="124.177,454.493 3552.76,454.493 "/>
<polyline clip-path="url(#clip202)" style="stroke:#000000; stroke-linecap:round; stroke-linejoin:round; stroke-width:2; stroke-opacity:0.1; fill:none" points="124.177,386.618 3552.76,386.618 "/>
<polyline clip-path="url(#clip202)" style="stroke:#000000; stroke-linecap:round; stroke-linejoin:round; stroke-width:2; stroke-opacity:0.1; fill:none" points="124.177,318.743 3552.76,318.743 "/>
<polyline clip-path="url(#clip202)" style="stroke:#000000; stroke-linecap:round; stroke-linejoin:round; stroke-width:2; stroke-opacity:0.1; fill:none" points="124.177,250.869 3552.76,250.869 "/>
<polyline clip-path="url(#clip202)" style="stroke:#000000; stroke-linecap:round; stroke-linejoin:round; stroke-width:2; stroke-opacity:0.1; fill:none" points="124.177,182.994 3552.76,182.994 "/>
<polyline clip-path="url(#clip202)" style="stroke:#000000; stroke-linecap:round; stroke-linejoin:round; stroke-width:2; stroke-opacity:0.1; fill:none" points="124.177,115.119 3552.76,115.119 "/>
<polyline clip-path="url(#clip202)" style="stroke:#000000; stroke-linecap:round; stroke-linejoin:round; stroke-width:2; stroke-opacity:0.1; fill:none" points="124.177,47.2441 3552.76,47.2441 "/>
<polyline clip-path="url(#clip200)" style="stroke:#000000; stroke-linecap:round; stroke-linejoin:round; stroke-width:4; stroke-opacity:1; fill:none" points="124.177,522.368 124.177,47.2441 "/>
<polyline clip-path="url(#clip200)" style="stroke:#000000; stroke-linecap:round; stroke-linejoin:round; stroke-width:4; stroke-opacity:1; fill:none" points="124.177,522.368 143.075,522.368 "/>
<polyline clip-path="url(#clip200)" style="stroke:#000000; stroke-linecap:round; stroke-linejoin:round; stroke-width:4; stroke-opacity:1; fill:none" points="124.177,454.493 143.075,454.493 "/>
<polyline clip-path="url(#clip200)" style="stroke:#000000; stroke-linecap:round; stroke-linejoin:round; stroke-width:4; stroke-opacity:1; fill:none" points="124.177,386.618 143.075,386.618 "/>
<polyline clip-path="url(#clip200)" style="stroke:#000000; stroke-linecap:round; stroke-linejoin:round; stroke-width:4; stroke-opacity:1; fill:none" points="124.177,318.743 143.075,318.743 "/>
<polyline clip-path="url(#clip200)" style="stroke:#000000; stroke-linecap:round; stroke-linejoin:round; stroke-width:4; stroke-opacity:1; fill:none" points="124.177,250.869 143.075,250.869 "/>
<polyline clip-path="url(#clip200)" style="stroke:#000000; stroke-linecap:round; stroke-linejoin:round; stroke-width:4; stroke-opacity:1; fill:none" points="124.177,182.994 143.075,182.994 "/>
<polyline clip-path="url(#clip200)" style="stroke:#000000; stroke-linecap:round; stroke-linejoin:round; stroke-width:4; stroke-opacity:1; fill:none" points="124.177,115.119 143.075,115.119 "/>
<polyline clip-path="url(#clip200)" style="stroke:#000000; stroke-linecap:round; stroke-linejoin:round; stroke-width:4; stroke-opacity:1; fill:none" points="124.177,47.2441 143.075,47.2441 "/>
<path clip-path="url(#clip200)" d="M50.2699 535.713 L57.9087 535.713 L57.9087 509.347 L49.5986 511.014 L49.5986 506.755 L57.8624 505.088 L62.5383 505.088 L62.5383 535.713 L70.1772 535.713 L70.1772 539.648 L50.2699 539.648 L50.2699 535.713 Z" fill="#000000" fill-rule="evenodd" fill-opacity="1" /><path clip-path="url(#clip200)" d="M53.8578 467.838 L70.1772 467.838 L70.1772 471.773 L48.2328 471.773 L48.2328 467.838 Q50.8949 465.083 55.4782 460.454 Q60.0846 455.801 61.2652 454.458 Q63.5105 451.935 64.3902 450.199 Q65.2929 448.44 65.2929 446.75 Q65.2929 443.995 63.3485 442.259 Q61.4272 440.523 58.3254 440.523 Q56.1263 440.523 53.6726 441.287 Q51.2421 442.051 48.4643 443.602 L48.4643 438.88 Q51.2884 437.745 53.7421 437.167 Q56.1958 436.588 58.2328 436.588 Q63.6031 436.588 66.7976 439.273 Q69.992 441.958 69.992 446.449 Q69.992 448.579 69.1818 450.5 Q68.3948 452.398 66.2883 454.991 Q65.7096 455.662 62.6078 458.88 Q59.5059 462.074 53.8578 467.838 Z" fill="#000000" fill-rule="evenodd" fill-opacity="1" /><path clip-path="url(#clip200)" d="M63.0476 385.264 Q66.404 385.982 68.279 388.25 Q70.1772 390.519 70.1772 393.852 Q70.1772 398.968 66.6587 401.769 Q63.1402 404.57 56.6587 404.57 Q54.4828 404.57 52.168 404.13 Q49.8764 403.713 47.4227 402.857 L47.4227 398.343 Q49.3671 399.477 51.6819 400.056 Q53.9967 400.634 56.5198 400.634 Q60.918 400.634 63.2096 398.898 Q65.5244 397.162 65.5244 393.852 Q65.5244 390.796 63.3717 389.083 Q61.242 387.347 57.4226 387.347 L53.3949 387.347 L53.3949 383.505 L57.6078 383.505 Q61.0569 383.505 62.8855 382.139 Q64.7142 380.75 64.7142 378.158 Q64.7142 375.496 62.8161 374.084 Q60.9411 372.648 57.4226 372.648 Q55.5013 372.648 53.3023 373.065 Q51.1032 373.482 48.4643 374.361 L48.4643 370.195 Q51.1264 369.454 53.4412 369.084 Q55.7791 368.713 57.8393 368.713 Q63.1633 368.713 66.2652 371.144 Q69.367 373.551 69.367 377.672 Q69.367 380.542 67.7235 382.533 Q66.08 384.5 63.0476 385.264 Z" fill="#000000" fill-rule="evenodd" fill-opacity="1" /><path clip-path="url(#clip200)" d="M60.5939 305.537 L48.7884 323.986 L60.5939 323.986 L60.5939 305.537 M59.367 301.463 L65.2466 301.463 L65.2466 323.986 L70.1772 323.986 L70.1772 327.875 L65.2466 327.875 L65.2466 336.023 L60.5939 336.023 L60.5939 327.875 L44.9921 327.875 L44.9921 323.361 L59.367 301.463 Z" fill="#000000" fill-rule="evenodd" fill-opacity="1" /><path clip-path="url(#clip200)" d="M49.2745 233.589 L67.6309 233.589 L67.6309 237.524 L53.5569 237.524 L53.5569 245.996 Q54.5754 245.649 55.5939 245.487 Q56.6124 245.301 57.6309 245.301 Q63.418 245.301 66.7976 248.473 Q70.1772 251.644 70.1772 257.061 Q70.1772 262.639 66.705 265.741 Q63.2328 268.82 56.9134 268.82 Q54.7374 268.82 52.4689 268.449 Q50.2236 268.079 47.8162 267.338 L47.8162 262.639 Q49.8995 263.774 52.1217 264.329 Q54.3439 264.885 56.8208 264.885 Q60.8254 264.885 63.1633 262.778 Q65.5013 260.672 65.5013 257.061 Q65.5013 253.45 63.1633 251.343 Q60.8254 249.237 56.8208 249.237 Q54.9458 249.237 53.0708 249.653 Q51.2189 250.07 49.2745 250.95 L49.2745 233.589 Z" fill="#000000" fill-rule="evenodd" fill-opacity="1" /><path clip-path="url(#clip200)" d="M58.6495 181.13 Q55.5013 181.13 53.6495 183.283 Q51.8208 185.436 51.8208 189.186 Q51.8208 192.913 53.6495 195.089 Q55.5013 197.241 58.6495 197.241 Q61.7976 197.241 63.6263 195.089 Q65.4781 192.913 65.4781 189.186 Q65.4781 185.436 63.6263 183.283 Q61.7976 181.13 58.6495 181.13 M67.9318 166.478 L67.9318 170.737 Q66.1726 169.904 64.367 169.464 Q62.5846 169.024 60.8254 169.024 Q56.1958 169.024 53.7421 172.149 Q51.3115 175.274 50.9643 181.593 Q52.33 179.579 54.3902 178.515 Q56.4504 177.427 58.9272 177.427 Q64.1355 177.427 67.1448 180.598 Q70.1772 183.746 70.1772 189.186 Q70.1772 194.51 67.029 197.727 Q63.8809 200.945 58.6495 200.945 Q52.6541 200.945 49.4828 196.362 Q46.3116 191.755 46.3116 183.028 Q46.3116 174.834 50.2004 169.973 Q54.0893 165.089 60.6402 165.089 Q62.3994 165.089 64.1818 165.436 Q65.9874 165.783 67.9318 166.478 Z" fill="#000000" fill-rule="evenodd" fill-opacity="1" /><path clip-path="url(#clip200)" d="M47.9551 97.8389 L70.1772 97.8389 L70.1772 99.8297 L57.6309 132.399 L52.7467 132.399 L64.5522 101.774 L47.9551 101.774 L47.9551 97.8389 Z" fill="#000000" fill-rule="evenodd" fill-opacity="1" /><path clip-path="url(#clip200)" d="M58.3254 48.1121 Q54.9921 48.1121 53.0708 49.8945 Q51.1726 51.6769 51.1726 54.8019 Q51.1726 57.9269 53.0708 59.7093 Q54.9921 61.4917 58.3254 61.4917 Q61.6587 61.4917 63.58 59.7093 Q65.5013 57.9038 65.5013 54.8019 Q65.5013 51.6769 63.58 49.8945 Q61.6819 48.1121 58.3254 48.1121 M53.6495 46.1214 Q50.6402 45.3807 48.9504 43.3205 Q47.2838 41.2603 47.2838 38.2974 Q47.2838 34.1539 50.2236 31.7465 Q53.1865 29.3391 58.3254 29.3391 Q63.4874 29.3391 66.4272 31.7465 Q69.367 34.1539 69.367 38.2974 Q69.367 41.2603 67.6772 43.3205 Q66.0105 45.3807 63.0244 46.1214 Q66.404 46.9084 68.279 49.2001 Q70.1772 51.4918 70.1772 54.8019 Q70.1772 59.825 67.0985 62.5102 Q64.0429 65.1954 58.3254 65.1954 Q52.6078 65.1954 49.5291 62.5102 Q46.4736 59.825 46.4736 54.8019 Q46.4736 51.4918 48.3717 49.2001 Q50.2699 46.9084 53.6495 46.1214 M51.9365 38.7372 Q51.9365 41.4224 53.6032 42.927 Q55.293 44.4316 58.3254 44.4316 Q61.3346 44.4316 63.0244 42.927 Q64.7374 41.4224 64.7374 38.7372 Q64.7374 36.052 63.0244 34.5474 Q61.3346 33.0428 58.3254 33.0428 Q55.293 33.0428 53.6032 34.5474 Q51.9365 36.052 51.9365 38.7372 Z" fill="#000000" fill-rule="evenodd" fill-opacity="1" /><polyline clip-path="url(#clip202)" style="stroke:#009af9; stroke-linecap:round; stroke-linejoin:round; stroke-width:2; stroke-opacity:1; fill:none" points="221.212,318.47 222.442,313.305 223.672,192.63 224.902,174.789 226.132,200.628 227.362,323.476 228.592,323.642 229.821,332.738 231.051,322.246 232.281,319.167 233.511,313.371 234.741,456.116 235.971,448.018 237.2,454.075 238.43,323.085 239.66,306.54 240.89,443.642 242.12,335.28 243.35,165.401 244.58,336.436 245.809,183.811 247.039,185.594 248.269,326.562 249.499,173.38 250.729,167.095 251.959,166.682 253.189,188.36 254.418,192.225 255.648,189.66 256.878,196.035 258.108,167.765 259.338,201.876 260.568,176.896 261.798,188.431 263.027,330.602 264.257,454.088 265.487,451.605 266.717,172.205 267.947,319.577 269.177,309.939 270.406,188.738 271.636,164.027 272.866,465.491 274.096,451.077 275.326,188.474 276.556,184.065 277.786,195.629 279.015,175.93 280.245,175.393 281.475,313.961 282.705,322.265 283.935,306.803 285.165,187.403 286.395,184.195 287.624,185.489 288.854,175.762 290.084,176.669 291.314,176.189 292.544,194.856 293.774,193.457 295.003,328.002 296.233,198.136 297.463,330.887 298.693,190.462 299.923,180.724 301.153,183.478 302.383,178.34 303.612,307.936 304.842,184.456 306.072,181.931 307.302,192.584 308.532,193.183 309.762,178.603 310.992,178.702 312.221,189.545 313.451,183.71 314.681,183.478 315.911,311.002 317.141,192.884 318.371,324.321 319.601,307.31 320.83,179.969 322.06,192.066 323.29,172.687 324.52,329.884 325.75,180.398 326.98,188.132 328.209,202.889 329.439,184.762 330.669,176.361 331.899,182.589 333.129,316.853 334.359,314.138 335.589,171.684 336.818,195.689 338.048,185.08 339.278,309.439 340.508,327.2 341.738,191.052 342.968,318.504 344.198,183.086 345.427,186.706 346.657,320.585 347.887,327.933 349.117,187.933 350.347,325.484 351.577,294.062 352.806,176.732 354.036,178.023 355.266,181.53 356.496,182.529 357.726,195.098 358.956,180.491 360.186,192.437 361.415,179.91 362.645,183.498 363.875,175.745 365.105,175.531 366.335,189.781 367.565,172.361 368.795,327.348 370.024,181.899 371.254,180.689 372.484,182.997 373.714,178.032 374.944,172.741 376.174,170.374 377.404,305.863 378.633,460.456 379.863,321.763 381.093,183.951 382.323,186.914 383.553,186.346 384.783,321.411 386.012,316.876 387.242,189.827 388.472,192.733 389.702,329.669 390.932,185.56 392.162,179.949 393.392,184.397 394.621,187.233 395.851,177.04 397.081,171.038 398.311,186.598 399.541,186.516 400.771,313.471 402.001,458.738 403.23,313.462 404.46,173.031 405.69,193.391 406.92,308.45 408.15,321.67 409.38,315.731 410.609,319.055 411.839,185.564 413.069,189.903 414.299,455.373 415.529,452.328 416.759,167.333 417.989,195.636 419.218,184.93 420.448,192.396 421.678,182.663 422.908,183.244 424.138,185.454 425.368,314.075 426.598,435.174 427.827,167.179 429.057,322.108 430.287,194.549 431.517,174.731 432.747,185.015 433.977,450.48 435.207,320.404 436.436,320.64 437.666,314.423 438.896,187.258 440.126,184.506 441.356,183.497 442.586,186.944 443.815,181.664 445.045,180.865 446.275,192.075 447.505,173.254 448.735,170.722 449.965,184.604 451.195,195.285 452.424,197.54 453.654,160.617 454.884,320.773 456.114,318.904 457.344,309.014 458.574,312.119 459.804,456.125 461.033,452.234 462.263,176.357 463.493,170.788 464.723,444.686 465.953,181.796 467.183,335.301 468.412,170.338 469.642,183.75 470.872,183.07 472.102,182.581 473.332,181.856 474.562,441.49 475.792,329.478 477.021,446.409 478.251,454.965 479.481,455.658 480.711,461.292 481.941,460.7 483.171,454.233 484.401,306.217 485.63,195.055 486.86,174.71 488.09,190.077 489.32,182.769 490.55,171.496 491.78,185.093 493.01,178.863 494.239,182.886 495.469,183.8 496.699,179.322 497.929,193.182 499.159,181.256 500.389,177.761 501.618,189.176 502.848,182.915 504.078,191.491 505.308,189.067 506.538,189.36 507.768,186.022 508.998,200.467 510.227,324.394 511.457,189.399 512.687,177.865 513.917,190.597 515.147,198.912 516.377,437.286 517.607,166.088 518.836,306.189 520.066,178.352 521.296,164.821 522.526,165.046 523.756,182.788 524.986,186.555 526.215,180.637 527.445,173.413 528.675,182.357 529.905,174.998 531.135,183.822 532.365,193.779 533.595,170.208 534.824,199.748 536.054,198.429 537.284,179.672 538.514,312.36 539.744,327.262 540.974,195.004 542.204,192.06 543.433,174.239 544.663,441.186 545.893,446.557 547.123,195.156 548.353,328.495 549.583,319.515 550.813,311.662 552.042,319.315 553.272,315.715 554.502,317.01 555.732,328.571 556.962,186.279 558.192,189.416 559.421,197.654 560.651,181.492 561.881,191.698 563.111,178.451 564.341,180.449 565.571,191.343 566.801,183.975 568.03,316.584 569.26,318.18 570.49,314.335 571.72,306.093 572.95,179.122 574.18,179.516 575.41,191.132 576.639,311.339 577.869,321.432 579.099,321.545 580.329,328.043 581.559,186.597 582.789,170.65 584.018,169.778 585.248,319.707 586.478,314.855 587.708,186.686 588.938,188.675 590.168,169.61 591.398,195.037 592.627,451.748 593.857,325.644 595.087,322.924 596.317,164.324 597.547,335.777 598.777,185.479 600.007,173.329 601.236,459.024 602.466,190.781 603.696,179.445 604.926,186.785 606.156,196.669 607.386,188.621 608.616,180.457 609.845,451.394 611.075,317.796 612.305,463.999 613.535,179.171 614.765,185.613 615.995,182.415 617.224,182.476 618.454,184.467 619.684,210.426 620.914,201.21 622.144,189.456 623.374,188.964 624.604,181.851 625.833,177.221 627.063,191.831 628.293,197.278 629.523,180.596 630.753,457.652 631.983,450.082 633.213,174.322 634.442,311.882 635.672,316.335 636.902,318.805 638.132,184.775 639.362,187.452 640.592,182.524 641.821,176.769 643.051,179.169 644.281,179.178 645.511,175.987 646.741,177.703 647.971,173.009 649.201,174.831 650.43,176.511 651.66,176.486 652.89,183.225 654.12,180.853 655.35,193.122 656.58,182.352 657.81,174.651 659.039,322.543 660.269,176.074 661.499,186.922 662.729,190.577 663.959,188.053 665.189,171.166 666.418,302.498 667.648,189.836 668.878,184.769 670.108,186.572 671.338,180.212 672.568,177.2 673.798,188.24 675.027,322.853 676.257,193.585 677.487,174.544 678.717,186.207 679.947,168.772 681.177,188.559 682.407,177.605 683.636,185.884 684.866,174.798 686.096,180.727 687.326,182.897 688.556,187.902 689.786,324.329 691.016,464.683 692.245,467.856 693.475,161.127 694.705,341.909 695.935,183.533 697.165,180.96 698.395,177.7 699.624,182.834 700.854,192.977 702.084,320.777 703.314,319.226 704.544,316.849 705.774,324.245 707.004,181.785 708.233,184.181 709.463,179.904 710.693,177.624 711.923,182.161 713.153,187.18 714.383,163.836 715.613,184.852 716.842,448.267 718.072,325.066 719.302,167.138 720.532,190.492 721.762,469.757 722.992,179.213 724.221,168.184 725.451,183.449 726.681,179.654 727.911,172.688 729.141,182.233 730.371,188.936 731.601,176.884 732.83,462.037 734.06,454.44 735.29,196.247 736.52,190.264 737.75,191.796 738.98,321.508 740.21,185.057 741.439,175.689 742.669,181.392 743.899,178.354 745.129,184.775 746.359,180.06 747.589,190.441 748.819,177.805 750.048,183.223 751.278,171.516 752.508,182.844 753.738,168.363 754.968,178.622 756.198,187.047 757.427,189.014 758.657,179.231 759.887,180.851 761.117,188.967 762.347,186.057 763.577,167.613 764.807,190.637 766.036,172.596 767.266,187.728 768.496,192.872 769.726,334.02 770.956,170.41 772.186,464.885 773.416,186.37 774.645,185.271 775.875,182.146 777.105,186.493 778.335,177.969 779.565,184.565 780.795,325.926 782.024,321.372 783.254,322.137 784.484,454.65 785.714,447.23 786.944,182.818 788.174,182.806 789.404,327.219 790.633,195.834 791.863,174.356 793.093,320.798 794.323,321.295 795.553,322.023 796.783,321.701 798.013,452.216 799.242,191.437 800.472,188.711 801.702,176.313 802.932,190.167 804.162,455.478 805.392,179.946 806.622,177.779 807.851,191.74 809.081,181.614 810.311,455.715 811.541,449.446 812.771,193.464 814.001,176.702 815.23,306.706 816.46,325.379 817.69,440.902 818.92,186.975 820.15,177.084 821.38,176.529 822.61,309.511 823.839,335.842 825.069,199.621 826.299,316.225 827.529,325.525 828.759,314.754 829.989,314.667 831.219,190.886 832.448,306.445 833.678,314.016 834.908,317.21 836.138,326.793 837.368,195.746 838.598,321.92 839.827,325.016 841.057,318.72 842.287,465.451 843.517,176.445 844.747,172.33 845.977,177.825 847.207,324.584 848.436,309.975 849.666,320.937 850.896,300.824 852.126,165.742 853.356,306.512 854.586,195.165 855.816,197.605 857.045,302.056 858.275,466.395 859.505,161.433 860.735,163.851 861.965,188.079 863.195,327.311 864.425,191.451 865.654,315.838 866.884,322.447 868.114,450.946 869.344,453.676 870.574,455.87 871.804,173.981 873.033,177.238 874.263,327.006 875.493,317.031 876.723,311.247 877.953,321.434 879.183,328.565 880.413,183.337 881.642,310.273 882.872,311.267 884.102,326.222 885.332,453.467 886.562,458.388 887.792,310.822 889.022,175.779 890.251,327.637 891.481,316.404 892.711,325.927 893.941,177.724 895.171,310.461 896.401,317.222 897.63,313.049 898.86,308.831 900.09,296.734 901.32,184.779 902.55,182.321 903.78,176.42 905.01,185.354 906.239,184.895 907.469,186.889 908.699,324.918 909.929,469.75 911.159,177.677 912.389,303.451 913.619,178.782 914.848,189.834 916.078,190.191 917.308,187.137 918.538,310.458 919.768,307.381 920.998,324.925 922.228,184.219 923.457,187.177 924.687,198.909 925.917,183.901 927.147,181.187 928.377,188.96 929.607,319.286 930.836,170.58 932.066,304.5 933.296,171.945 934.526,185.78 935.756,178.722 936.986,178.734 938.216,188.754 939.445,193.026 940.675,172.104 941.905,171.405 943.135,308.996 944.365,314.981 945.595,168.402 946.825,171.312 948.054,187.846 949.284,329.705 950.514,321.858 951.744,200.027 952.974,183.369 954.204,183.904 955.433,311.111 956.663,313.181 957.893,182.066 959.123,339.613 960.353,196.396 961.583,191.923 962.813,317.174 964.042,184.72 965.272,187.585 966.502,187.296 967.732,315.506 968.962,191.808 970.192,315.377 971.422,181.164 972.651,446.315 973.881,185.96 975.111,194.833 976.341,189.447 977.571,181.533 978.801,188.217 980.031,178.874 981.26,459.183 982.49,161.809 983.72,201.913 984.95,166.782 986.18,191.281 987.41,195.493 988.639,309.483 989.869,189.532 991.099,184.77 992.329,181.487 993.559,172.693 994.789,323.129 996.019,187.261 997.248,334.031 998.478,188.912 999.708,179.4 1000.94,193.133 1002.17,180.688 1003.4,180.745 1004.63,181.007 1005.86,196.856 1007.09,163.616 1008.32,433.236 1009.55,314.949 1010.78,208.533 1012.01,177.261 1013.24,179.196 1014.47,335.751 1015.7,195.176 1016.93,186.834 1018.16,321.117 1019.39,332.495 1020.62,188.57 1021.85,189.494 1023.08,305.065 1024.31,196.308 1025.54,188.137 1026.76,166.762 1027.99,332.036 1029.22,188.483 1030.45,325.043 1031.68,325.786 1032.91,317.529 1034.14,189.668 1035.37,170.069 1036.6,183.417 1037.83,175.966 1039.06,190.19 1040.29,183.645 1041.52,339.822 1042.75,162.335 1043.98,307.161 1045.21,171.941 1046.44,317.412 1047.67,183.269 1048.9,183.239 1050.13,196.361 1051.36,306.23 1052.59,183.081 1053.82,177.787 1055.05,186.797 1056.28,193.363 1057.51,188.954 1058.74,183.557 1059.97,313.336 1061.2,318.063 1062.43,178.94 1063.66,314.593 1064.89,318.19 1066.12,172.473 1067.35,176.219 1068.58,178.605 1069.81,332.229 1071.04,196.748 1072.27,301.864 1073.5,326.783 1074.73,180.251 1075.96,180.203 1077.19,188.249 1078.42,179.164 1079.65,319.277 1080.88,191.997 1082.11,188.402 1083.34,308.172 1084.57,182.926 1085.8,176.375 1087.03,180.61 1088.26,182.013 1089.49,200.42 1090.72,452.514 1091.95,448.02 1093.18,194.225 1094.41,177.424 1095.64,196.046 1096.87,312.289 1098.1,181.234 1099.33,183.474 1100.56,173.666 1101.79,169.943 1103.02,190.134 1104.25,178.913 1105.48,460.787 1106.71,449.439 1107.94,450.942 1109.16,165.454 1110.39,195.796 1111.62,201.066 1112.85,173.597 1114.08,181.701 1115.31,175.891 1116.54,300.207 1117.77,189.601 1119,178.401 1120.23,184.459 1121.46,182.1 1122.69,173.523 1123.92,330.686 1125.15,178.211 1126.38,186.649 1127.61,188.017 1128.84,184.578 1130.07,186.561 1131.3,174.641 1132.53,193.668 1133.76,320.579 1134.99,309.874 1136.22,172.965 1137.45,184.584 1138.68,182.237 1139.91,328.186 1141.14,312.132 1142.37,317.639 1143.6,323.777 1144.83,313.615 1146.06,317.953 1147.29,321.639 1148.52,319.126 1149.75,328.733 1150.98,317.973 1152.21,317.045 1153.44,314.138 1154.67,324.602 1155.9,318.089 1157.13,320.469 1158.36,313.793 1159.59,326.787 1160.82,315.881 1162.05,319.529 1163.28,318.691 1164.51,326.981 1165.74,176.698 1166.97,172.78 1168.2,181.155 1169.43,442.222 1170.66,187.106 1171.89,178.781 1173.12,450.039 1174.35,442.684 1175.58,186.196 1176.81,326.42 1178.04,316.067 1179.27,195.333 1180.5,203.22 1181.73,461.613 1182.96,191.941 1184.19,188.533 1185.42,178.136 1186.65,186.042 1187.88,187.331 1189.11,200.507 1190.34,199.117 1191.56,309.615 1192.79,191.917 1194.02,196.221 1195.25,174.969 1196.48,172.643 1197.71,182.445 1198.94,190.285 1200.17,309.691 1201.4,328.484 1202.63,193.106 1203.86,312.359 1205.09,183.668 1206.32,329.374 1207.55,173.231 1208.78,178.177 1210.01,176.881 1211.24,180.718 1212.47,185.61 1213.7,316.962 1214.93,323.185 1216.16,312.47 1217.39,189.723 1218.62,193.829 1219.85,324.336 1221.08,194.266 1222.31,319.694 1223.54,317.789 1224.77,319.525 1226,183.804 1227.23,187.106 1228.46,175.041 1229.69,185.782 1230.92,199.327 1232.15,315.528 1233.38,312.426 1234.61,309.502 1235.84,331.732 1237.07,185.257 1238.3,181.348 1239.53,186.825 1240.76,314.046 1241.99,317.024 1243.22,317.363 1244.45,313.094 1245.68,184.74 1246.91,181.89 1248.14,178.237 1249.37,172.876 1250.6,194.506 1251.83,198.488 1253.06,325.21 1254.29,176.125 1255.52,188.899 1256.75,174.111 1257.98,198.473 1259.21,185.518 1260.44,180.432 1261.67,186.324 1262.9,186.456 1264.13,313.885 1265.36,320.833 1266.59,327.305 1267.82,323.295 1269.05,312.897 1270.28,316.984 1271.51,320.121 1272.74,314.865 1273.96,321.819 1275.19,327.897 1276.42,326.033 1277.65,191.41 1278.88,462.513 1280.11,181.907 1281.34,174.674 1282.57,186.537 1283.8,184.869 1285.03,183.297 1286.26,193.178 1287.49,321.07 1288.72,312.413 1289.95,178.792 1291.18,177.766 1292.41,189.274 1293.64,316.396 1294.87,170.787 1296.1,180.29 1297.33,185.779 1298.56,185.259 1299.79,314.863 1301.02,333.369 1302.25,169.341 1303.48,298.395 1304.71,319.294 1305.94,191.235 1307.17,475.303 1308.4,153.402 1309.63,202.215 1310.86,181.956 1312.09,174.275 1313.32,195.456 1314.55,174.992 1315.78,197.623 1317.01,328.895 1318.24,325.739 1319.47,174.505 1320.7,183.217 1321.93,176.794 1323.16,186.606 1324.39,177.034 1325.62,175.084 1326.85,180.29 1328.08,176.446 1329.31,184.436 1330.54,318.255 1331.77,318.582 1333,189.189 1334.23,183.17 1335.46,178.126 1336.69,181.234 1337.92,447.616 1339.15,193.192 1340.38,320.832 1341.61,314.033 1342.84,162.786 1344.07,187.824 1345.3,174.733 1346.53,179.335 1347.76,189.724 1348.99,191.379 1350.22,308.364 1351.45,169.27 1352.68,336.616 1353.91,200.116 1355.14,179.103 1356.36,178.958 1357.59,192.806 1358.82,187.958 1360.05,186.273 1361.28,175.183 1362.51,184.408 1363.74,189.015 1364.97,185.725 1366.2,170.584 1367.43,169.006 1368.66,193.627 1369.89,199.937 1371.12,167.926 1372.35,330.404 1373.58,317.528 1374.81,319.655 1376.04,181.486 1377.27,182.757 1378.5,181.815 1379.73,186.094 1380.96,190.131 1382.19,182.673 1383.42,183.788 1384.65,187.337 1385.88,334.885 1387.11,189.89 1388.34,305.789 1389.57,184.127 1390.8,186.717 1392.03,179.823 1393.26,189.75 1394.49,179.455 1395.72,187.127 1396.95,326.854 1398.18,189.04 1399.41,180.599 1400.64,185.177 1401.87,176.494 1403.1,178.192 1404.33,461.902 1405.56,439.04 1406.79,179.201 1408.02,309.513 1409.25,173.233 1410.48,177.316 1411.71,187.784 1412.94,349.327 1414.17,194.715 1415.4,189.487 1416.63,184.244 1417.86,184.125 1419.09,176.206 1420.32,191.617 1421.55,310.85 1422.78,179.07 1424.01,456.878 1425.24,188.747 1426.47,180.318 1427.7,188.565 1428.93,440.576 1430.16,198.851 1431.39,325.331 1432.62,196.114 1433.85,172.904 1435.08,333.342 1436.31,322.705 1437.54,186.349 1438.76,182.567 1439.99,179.904 1441.22,180.44 1442.45,183.891 1443.68,324.849 1444.91,327.802 1446.14,192.207 1447.37,441.493 1448.6,173.283 1449.83,193.887 1451.06,188.522 1452.29,176.463 1453.52,304.96 1454.75,188.212 1455.98,185.352 1457.21,333.002 1458.44,179.263 1459.67,461.623 1460.9,176.644 1462.13,188.72 1463.36,179.83 1464.59,456.544 1465.82,459.14 1467.05,192.708 1468.28,180.585 1469.51,187.625 1470.74,440.935 1471.97,176.466 1473.2,330.201 1474.43,184.929 1475.66,183.989 1476.89,180.271 1478.12,194.035 1479.35,298.665 1480.58,466.049 1481.81,332.677 1483.04,181.942 1484.27,309.006 1485.5,321.819 1486.73,319.277 1487.96,310.763 1489.19,316.16 1490.42,316.11 1491.65,316.736 1492.88,170.41 1494.11,167.457 1495.34,184.516 1496.57,442.253 1497.8,175.349 1499.03,186.584 1500.26,167.498 1501.49,466.39 1502.72,452.014 1503.95,461.142 1505.18,308.328 1506.41,193.131 1507.64,177.7 1508.87,178.078 1510.1,182.227 1511.33,184.561 1512.56,183.801 1513.79,188.402 1515.02,176.461 1516.25,181.511 1517.48,187.123 1518.71,189.293 1519.94,192.628 1521.16,196.865 1522.39,193.22 1523.62,175.455 1524.85,177.888 1526.08,456.964 1527.31,185.141 1528.54,187.371 1529.77,323.182 1531,455.146 1532.23,461.916 1533.46,450.399 1534.69,304.273 1535.92,304.592 1537.15,170.571 1538.38,188.628 1539.61,321.797 1540.84,461.612 1542.07,453.685 1543.3,453.218 1544.53,168.447 1545.76,191.183 1546.99,176.05 1548.22,175.93 1549.45,309.299 1550.68,168.174 1551.91,190.576 1553.14,171.437 1554.37,320.61 1555.6,195.099 1556.83,174.96 1558.06,201.465 1559.29,180.184 1560.52,190.9 1561.75,184.279 1562.98,177.069 1564.21,172.612 1565.44,188.709 1566.67,461.449 1567.9,456.609 1569.13,449.002 1570.36,187.108 1571.59,178.946 1572.82,170.211 1574.05,310.959 1575.28,176.747 1576.51,173.161 1577.74,190.771 1578.97,181.339 1580.2,176.346 1581.43,175.602 1582.66,184.214 1583.89,172.995 1585.12,308.754 1586.35,320.247 1587.58,324.162 1588.81,321.622 1590.04,315.684 1591.27,310.205 1592.5,178.434 1593.73,166.124 1594.96,182.854 1596.19,188.792 1597.42,178.412 1598.65,180.18 1599.88,183.308 1601.11,184.833 1602.34,179.759 1603.56,320.209 1604.79,315.992 1606.02,318.052 1607.25,324.099 1608.48,308.478 1609.71,317.54 1610.94,316.765 1612.17,449.925 1613.4,458.75 1614.63,193.464 1615.86,294.017 1617.09,189.659 1618.32,302.776 1619.55,326.455 1620.78,313.676 1622.01,181.509 1623.24,185.546 1624.47,179.117 1625.7,457.379 1626.93,456.735 1628.16,456.361 1629.39,182.905 1630.62,178.137 1631.85,183.377 1633.08,180.883 1634.31,183.932 1635.54,182.54 1636.77,183.337 1638,187.728 1639.23,192.059 1640.46,186.577 1641.69,183.763 1642.92,187.585 1644.15,187.395 1645.38,167.128 1646.61,187.379 1647.84,330.432 1649.07,320.627 1650.3,318.028 1651.53,194.496 1652.76,458.003 1653.99,194.71 1655.22,182.162 1656.45,162.91 1657.68,183.073 1658.91,187.309 1660.14,188.216 1661.37,304.444 1662.6,467.91 1663.83,190.589 1665.06,191.796 1666.29,451.029 1667.52,453.255 1668.75,325.421 1669.98,191.268 1671.21,180.44 1672.44,176.566 1673.67,175.341 1674.9,190.087 1676.13,187.023 1677.36,311.22 1678.59,324.596 1679.82,168.987 1681.05,185.04 1682.28,317.27 1683.51,308.138 1684.74,187.144 1685.97,187.279 1687.19,177.727 1688.42,458.938 1689.65,454.033 1690.88,458.089 1692.11,312.832 1693.34,317.563 1694.57,318.356 1695.8,316.86 1697.03,172.546 1698.26,200.326 1699.49,337.177 1700.72,173.804 1701.95,328.897 1703.18,319.689 1704.41,192.761 1705.64,177.122 1706.87,180.018 1708.1,320.386 1709.33,195.833 1710.56,192.178 1711.79,329.481 1713.02,171.184 1714.25,169.487 1715.48,186.105 1716.71,185.7 1717.94,178.283 1719.17,459.643 1720.4,454.715 1721.63,182.145 1722.86,188.831 1724.09,185.576 1725.32,178.917 1726.55,180.895 1727.78,178.469 1729.01,186.716 1730.24,180.369 1731.47,185.545 1732.7,176.803 1733.93,162.686 1735.16,339.662 1736.39,198.813 1737.62,332.978 1738.85,195.218 1740.08,330.922 1741.31,174.78 1742.54,453.525 1743.77,185.563 1745,175.509 1746.23,172.086 1747.46,310.913 1748.69,317.257 1749.92,311.764 1751.15,166.437 1752.38,467.483 1753.61,183.218 1754.84,176.875 1756.07,321.835 1757.3,318.647 1758.53,199.624 1759.76,188.388 1760.99,182.05 1762.22,299.035 1763.45,194.99 1764.68,176.21 1765.91,188.085 1767.14,182.682 1768.37,184.74 1769.59,188.604 1770.82,309.745 1772.05,175.259 1773.28,177.07 1774.51,308.545 1775.74,184.358 1776.97,184.87 1778.2,312.525 1779.43,320.428 1780.66,192.22 1781.89,193.323 1783.12,191.093 1784.35,192.916 1785.58,459.862 1786.81,458.869 1788.04,187.101 1789.27,328.573 1790.5,197.736 1791.73,184.338 1792.96,186.952 1794.19,180.593 1795.42,208.518 1796.65,181.283 1797.88,180.914 1799.11,188.007 1800.34,180.628 1801.57,325.228 1802.8,327.411 1804.03,313.613 1805.26,190.693 1806.49,191.436 1807.72,311.295 1808.95,173.854 1810.18,201.218 1811.41,165.991 1812.64,168.836 1813.87,172.709 1815.1,178.778 1816.33,310.542 1817.56,303.093 1818.79,329.378 1820.02,197.949 1821.25,164.857 1822.48,185.293 1823.71,184.525 1824.94,180.688 1826.17,183.836 1827.4,168.043 1828.63,182.381 1829.86,173.123 1831.09,306.439 1832.32,184.894 1833.55,172.51 1834.78,179.49 1836.01,194.285 1837.24,169.841 1838.47,187.529 1839.7,188.232 1840.93,193.999 1842.16,182.064 1843.39,184.567 1844.62,188.951 1845.85,167.323 1847.08,185.238 1848.31,178.322 1849.54,200.655 1850.77,309.951 1851.99,177.963 1853.22,190.067 1854.45,209.256 1855.68,168.624 1856.91,175.971 1858.14,179.307 1859.37,192.347 1860.6,178.648 1861.83,178.963 1863.06,179.653 1864.29,330.576 1865.52,315.273 1866.75,184.901 1867.98,179.546 1869.21,328.517 1870.44,327.537 1871.67,316.363 1872.9,189.123 1874.13,182.967 1875.36,447.493 1876.59,193.852 1877.82,317.055 1879.05,309.464 1880.28,329.537 1881.51,316.666 1882.74,322.492 1883.97,176.381 1885.2,183.392 1886.43,179.56 1887.66,181.424 1888.89,200.628 1890.12,183.079 1891.35,179.237 1892.58,189.069 1893.81,191.039 1895.04,195.932 1896.27,180.776 1897.5,322.258 1898.73,326.084 1899.96,454.117 1901.19,309.251 1902.42,320.635 1903.65,316.158 1904.88,307.304 1906.11,316.276 1907.34,465.827 1908.57,308.078 1909.8,180.816 1911.03,194.443 1912.26,190.465 1913.49,182.417 1914.72,186.978 1915.95,187.058 1917.18,185.95 1918.41,184.636 1919.64,177.825 1920.87,176.841 1922.1,180.236 1923.33,186.885 1924.56,187.842 1925.79,185.596 1927.02,307.872 1928.25,325.496 1929.48,199.1 1930.71,338.026 1931.94,163.777 1933.17,198.448 1934.39,318.662 1935.62,332.393 1936.85,308.655 1938.08,451.404 1939.31,308.556 1940.54,190.165 1941.77,185.23 1943,171.749 1944.23,191.624 1945.46,442.251 1946.69,178.813 1947.92,446.178 1949.15,311.502 1950.38,304.421 1951.61,327.056 1952.84,307.467 1954.07,194.505 1955.3,193.625 1956.53,170.866 1957.76,184.103 1958.99,194.529 1960.22,442.238 1961.45,172.262 1962.68,170.461 1963.91,186.409 1965.14,186.871 1966.37,323.608 1967.6,322.709 1968.83,319.792 1970.06,173.931 1971.29,192.039 1972.52,185.274 1973.75,195.429 1974.98,185.542 1976.21,321.98 1977.44,308.139 1978.67,313.721 1979.9,171.335 1981.13,315.629 1982.36,191.184 1983.59,178.97 1984.82,189.635 1986.05,176.158 1987.28,185.486 1988.51,316.353 1989.74,310.046 1990.97,328.355 1992.2,301.539 1993.43,185.215 1994.66,177.725 1995.89,165.239 1997.12,178.479 1998.35,175.75 1999.58,191.158 2000.81,176.874 2002.04,176.341 2003.27,326.733 2004.5,172.235 2005.73,308.247 2006.96,202.072 2008.19,168.361 2009.42,205.646 2010.65,180.466 2011.88,205.705 2013.11,330.779 2014.34,171.051 2015.57,329.19 2016.79,309.609 2018.02,180.68 2019.25,184.315 2020.48,318.378 2021.71,320.224 2022.94,323.578 2024.17,325.29 2025.4,174.983 2026.63,316.655 2027.86,319.754 2029.09,323.136 2030.32,314.521 2031.55,191.026 2032.78,171.273 2034.01,169.412 2035.24,187.016 2036.47,325.15 2037.7,322.133 2038.93,186.779 2040.16,186.389 2041.39,188.514 2042.62,186.5 2043.85,189.527 2045.08,175.247 2046.31,183.782 2047.54,186.557 2048.77,189.815 2050,314.736 2051.23,314.765 2052.46,306.159 2053.69,182.742 2054.92,174.046 2056.15,188.065 2057.38,181.053 2058.61,185.745 2059.84,193.72 2061.07,194.465 2062.3,330.429 2063.53,188.663 2064.76,177.753 2065.99,309.267 2067.22,328.497 2068.45,436.515 2069.68,165.354 2070.91,310.692 2072.14,328.756 2073.37,188.295 2074.6,181.023 2075.83,171.371 2077.06,182.063 2078.29,183.046 2079.52,174.122 2080.75,187.004 2081.98,165.356 2083.21,327.478 2084.44,317.264 2085.67,319.677 2086.9,327.723 2088.13,186.998 2089.36,176.782 2090.59,199.633 2091.82,174.125 2093.05,176.907 2094.28,183.746 2095.51,171.908 2096.74,187.839 2097.97,176.576 2099.19,183.914 2100.42,184.789 2101.65,192.09 2102.88,458.934 2104.11,447.725 2105.34,168.579 2106.57,168.808 2107.8,449.72 2109.03,315.148 2110.26,187.8 2111.49,308.618 2112.72,316.575 2113.95,325.012 2115.18,316.828 2116.41,320.64 2117.64,313.98 2118.87,176.561 2120.1,161.021 2121.33,181.228 2122.56,172.701 2123.79,181.456 2125.02,193.162 2126.25,459.387 2127.48,170.111 2128.71,171.217 2129.94,174.562 2131.17,320.405 2132.4,168.561 2133.63,300.677 2134.86,174.811 2136.09,181.447 2137.32,174.548 2138.55,181.458 2139.78,181.152 2141.01,171.582 2142.24,334.324 2143.47,186.973 2144.7,182.187 2145.93,330.549 2147.16,319.897 2148.39,171.019 2149.62,180.782 2150.85,178.819 2152.08,179.883 2153.31,185.708 2154.54,183.667 2155.77,187.18 2157,180.83 2158.23,185.282 2159.46,172.931 2160.69,303.267 2161.92,434.053 2163.15,334.988 2164.38,321.496 2165.61,313.085 2166.84,174.328 2168.07,180.222 2169.3,188.017 2170.53,183.088 2171.76,186.836 2172.99,188.224 2174.22,185.428 2175.45,326.827 2176.68,325.446 2177.91,193.971 2179.14,335.674 2180.37,175.937 2181.59,193.216 2182.82,182.236 2184.05,183.513 2185.28,180.679 2186.51,180.301 2187.74,173.878 2188.97,176.985 2190.2,178.061 2191.43,189.387 2192.66,180.441 2193.89,196.21 2195.12,160.882 2196.35,316.156 2197.58,464.567 2198.81,179.752 2200.04,168.496 2201.27,452.881 2202.5,460.919 2203.73,456.636 2204.96,455.877 2206.19,457.968 2207.42,181.062 2208.65,179.628 2209.88,182.264 2211.11,181.005 2212.34,446.023 2213.57,458.717 2214.8,454.411 2216.03,193.018 2217.26,182.849 2218.49,172.447 2219.72,324.789 2220.95,317.969 2222.18,326.329 2223.41,182.147 2224.64,178.621 2225.87,190.577 2227.1,188.046 2228.33,330.655 2229.56,322.272 2230.79,169.49 2232.02,167.107 2233.25,300.959 2234.48,475.397 2235.71,174.562 2236.94,311.981 2238.17,438.782 2239.4,180.856 2240.63,309.218 2241.86,320.142 2243.09,321.081 2244.32,178.457 2245.55,309.447 2246.78,451.228 2248.01,317.342 2249.24,322.865 2250.47,334.402 2251.7,171.555 2252.93,181.763 2254.16,187.247 2255.39,322.845 2256.62,311.748 2257.85,317.425 2259.08,327.832 2260.31,315.895 2261.54,179.222 2262.77,190.177 2264,190.332 2265.22,166.376 2266.45,181.013 2267.68,189.582 2268.91,326.406 2270.14,318.49 2271.37,325.705 2272.6,181.035 2273.83,180.103 2275.06,183.581 2276.29,180.326 2277.52,180.306 2278.75,190.902 2279.98,169.962 2281.21,173.528 2282.44,186.595 2283.67,183.123 2284.9,184.339 2286.13,177.992 2287.36,320.984 2288.59,336.055 2289.82,190.125 2291.05,188.877 2292.28,176.834 2293.51,181.405 2294.74,187.427 2295.97,185.231 2297.2,180.844 2298.43,186.883 2299.66,165.333 2300.89,312.197 2302.12,168.514 2303.35,328.256 2304.58,180.677 2305.81,318.603 2307.04,324.054 2308.27,329.064 2309.5,196.621 2310.73,175.749 2311.96,194.945 2313.19,183.174 2314.42,192.91 2315.65,176.621 2316.88,192.83 2318.11,185.714 2319.34,183.353 2320.57,187.976 2321.8,182.323 2323.03,191.41 2324.26,179.329 2325.49,450.24 2326.72,448.718 2327.95,181.864 2329.18,449.722 2330.41,176.402 2331.64,316.274 2332.87,171.544 2334.1,315.377 2335.33,324.239 2336.56,180.212 2337.79,331.037 2339.02,317.814 2340.25,315.147 2341.48,324.27 2342.71,323.129 2343.94,319.114 2345.17,182.38 2346.4,174.958 2347.62,176.787 2348.85,179.296 2350.08,183.643 2351.31,327.653 2352.54,175.718 2353.77,170.44 2355,178.257 2356.23,186.736 2357.46,188.511 2358.69,185.996 2359.92,190.625 2361.15,177.687 2362.38,195.013 2363.61,189.68 2364.84,316.165 2366.07,318.973 2367.3,190.102 2368.53,186.428 2369.76,316.863 2370.99,193.38 2372.22,313.217 2373.45,314.364 2374.68,313.435 2375.91,181.907 2377.14,182.187 2378.37,314.219 2379.6,317.329 2380.83,313.369 2382.06,186.244 2383.29,304.532 2384.52,173.335 2385.75,304.656 2386.98,336.241 2388.21,328.483 2389.44,315.808 2390.67,327.282 2391.9,188.299 2393.13,307.984 2394.36,202.703 2395.59,323.322 2396.82,323.61 2398.05,310.392 2399.28,177.879 2400.51,325.191 2401.74,310.976 2402.97,471.788 2404.2,452.759 2405.43,460.517 2406.66,458.547 2407.89,445.885 2409.12,306.673 2410.35,188.777 2411.58,186.73 2412.81,174.167 2414.04,191.097 2415.27,318.937 2416.5,181.607 2417.73,176.888 2418.96,189.474 2420.19,178.531 2421.42,315.448 2422.65,173.636 2423.88,171.175 2425.11,175.319 2426.34,188.833 2427.57,182.426 2428.8,172.361 2430.02,323.773 2431.25,189.764 2432.48,185.586 2433.71,185.044 2434.94,179.257 2436.17,174.739 2437.4,180.592 2438.63,314.453 2439.86,331.516 2441.09,183.671 2442.32,181.1 2443.55,180.145 2444.78,181.719 2446.01,188.987 2447.24,191.332 2448.47,450.883 2449.7,463.287 2450.93,187.726 2452.16,316.511 2453.39,173.192 2454.62,188.557 2455.85,189.083 2457.08,182.731 2458.31,193.458 2459.54,331.548 2460.77,329.097 2462,193.1 2463.23,333.044 2464.46,309.081 2465.69,310.473 2466.92,313.085 2468.15,194.131 2469.38,179.104 2470.61,182.817 2471.84,185.779 2473.07,184.616 2474.3,185.455 2475.53,307.576 2476.76,441.186 2477.99,186.348 2479.22,187.293 2480.45,186.234 2481.68,181.102 2482.91,166.332 2484.14,194.944 2485.37,170.975 2486.6,181.945 2487.83,173.376 2489.06,178.525 2490.29,322.034 2491.52,322.303 2492.75,314.24 2493.98,168.696 2495.21,198.418 2496.44,183.612 2497.67,184.77 2498.9,312.157 2500.13,197.325 2501.36,176.023 2502.59,305.583 2503.82,302.693 2505.05,323.653 2506.28,321.6 2507.51,315.371 2508.74,320.231 2509.97,320.961 2511.2,313.195 2512.42,315.977 2513.65,322.048 2514.88,332.063 2516.11,205.051 2517.34,322.993 2518.57,184.828 2519.8,189.463 2521.03,182.43 2522.26,177.922 2523.49,176.756 2524.72,184.881 2525.95,321.824 2527.18,197.034 2528.41,184.861 2529.64,199.446 2530.87,304.679 2532.1,194.882 2533.33,176.082 2534.56,191.351 2535.79,182.515 2537.02,178.676 2538.25,190.295 2539.48,182.749 2540.71,201.915 2541.94,447.616 2543.17,192.859 2544.4,182.536 2545.63,187.311 2546.86,179.316 2548.09,331.693 2549.32,185.607 2550.55,446.707 2551.78,189.1 2553.01,175.653 2554.24,195.348 2555.47,176.477 2556.7,331.309 2557.93,208.422 2559.16,174.034 2560.39,311.279 2561.62,329.218 2562.85,318.603 2564.08,313.408 2565.31,321.933 2566.54,323.364 2567.77,319.787 2569,318.761 2570.23,332.381 2571.46,177.194 2572.69,180.435 2573.92,184.826 2575.15,173.937 2576.38,337.55 2577.61,338.699 2578.84,204.018 2580.07,199.792 2581.3,208.993 2582.53,167.515 2583.76,310.347 2584.99,329.404 2586.22,202.975 2587.45,324.071 2588.68,317.218 2589.91,326.586 2591.14,179.724 2592.37,189.055 2593.6,454.733 2594.82,166.383 2596.05,184.847 2597.28,194.69 2598.51,176.708 2599.74,454.924 2600.97,316.949 2602.2,182.012 2603.43,182.012 2604.66,182.662 2605.89,187.25 2607.12,185.386 2608.35,185.883 2609.58,179.797 2610.81,184.712 2612.04,185.632 2613.27,170.415 2614.5,194.282 2615.73,188.025 2616.96,306.146 2618.19,306.185 2619.42,197.221 2620.65,183.665 2621.88,177.476 2623.11,179.624 2624.34,176.689 2625.57,190.002 2626.8,178.525 2628.03,182.164 2629.26,176.78 2630.49,170.196 2631.72,332.25 2632.95,191.089 2634.18,172.118 2635.41,160.626 2636.64,165.144 2637.87,196.659 2639.1,323.706 2640.33,321.187 2641.56,170.25 2642.79,189.045 2644.02,194.535 2645.25,190.385 2646.48,194.886 2647.71,461.141 2648.94,454.545 2650.17,455.2 2651.4,174.721 2652.63,174.106 2653.86,175.142 2655.09,186.553 2656.32,184.887 2657.55,175.312 2658.78,184.582 2660.01,194.648 2661.24,170.293 2662.47,174.835 2663.7,184.493 2664.93,326.181 2666.16,312.615 2667.39,195.057 2668.62,185.283 2669.85,438.593 2671.08,164.954 2672.31,330.969 2673.54,178.879 2674.77,318.889 2676,313.514 2677.22,313.671 2678.45,322.342 2679.68,326.951 2680.91,313.301 2682.14,321.306 2683.37,185.723 2684.6,181.919 2685.83,185.82 2687.06,189.581 2688.29,317.715 2689.52,177.931 2690.75,183.465 2691.98,190.514 2693.21,169.42 2694.44,176.977 2695.67,182.991 2696.9,182.418 2698.13,184.64 2699.36,186.087 2700.59,175.568 2701.82,193.696 2703.05,181.929 2704.28,174.606 2705.51,181.696 2706.74,181.517 2707.97,315.223 2709.2,442.616 2710.43,195.841 2711.66,325.647 2712.89,195.243 2714.12,187.422 2715.35,187.772 2716.58,182.701 2717.81,330.464 2719.04,313.778 2720.27,184.01 2721.5,320.82 2722.73,171.024 2723.96,176.162 2725.19,185.416 2726.42,323.595 2727.65,464.993 2728.88,181.613 2730.11,184.439 2731.34,179.787 2732.57,183.092 2733.8,177.761 2735.03,173.31 2736.26,183.32 2737.49,177.127 2738.72,186.087 2739.95,330.734 2741.18,320.037 2742.41,318.994 2743.64,448.855 2744.87,452.801 2746.1,460.174 2747.33,176.373 2748.56,191.329 2749.79,181.259 2751.02,173.479 2752.25,190.09 2753.48,182.956 2754.71,169.296 2755.94,177.905 2757.17,184.487 2758.4,191.431 2759.62,177.002 2760.85,305.025 2762.08,319.391 2763.31,326.603 2764.54,320.296 2765.77,330.632 2767,183.601 2768.23,190.08 2769.46,185.524 2770.69,195.541 2771.92,192.021 2773.15,187.93 2774.38,183.072 2775.61,311.806 2776.84,172.719 2778.07,173.792 2779.3,175.045 2780.53,457.566 2781.76,457.411 2782.99,188.088 2784.22,181.106 2785.45,183.809 2786.68,200.327 2787.91,193.583 2789.14,324.438 2790.37,327.185 2791.6,463.42 2792.83,184.103 2794.06,184.86 2795.29,191.966 2796.52,435.056 2797.75,325.958 2798.98,334.365 2800.21,308.339 2801.44,324.553 2802.67,182.814 2803.9,185.937 2805.13,183.614 2806.36,318.013 2807.59,324.697 2808.82,178.197 2810.05,191.704 2811.28,176.974 2812.51,174.506 2813.74,188.983 2814.97,193.392 2816.2,185.921 2817.43,181.899 2818.66,174.856 2819.89,180.63 2821.12,182.09 2822.35,188.664 2823.58,169.984 2824.81,169.605 2826.04,187.608 2827.27,174.355 2828.5,308.976 2829.73,191.576 2830.96,193.003 2832.19,185.199 2833.42,180.7 2834.65,180.061 2835.88,174.531 2837.11,212.257 2838.34,289.598 2839.57,313.823 2840.8,169.141 2842.02,171.367 2843.25,189.902 2844.48,184.671 2845.71,187.761 2846.94,181.863 2848.17,185.237 2849.4,322.957 2850.63,446.073 2851.86,318.007 2853.09,173.548 2854.32,196.085 2855.55,445.401 2856.78,456.731 2858.01,449.432 2859.24,189.453 2860.47,185.291 2861.7,172.855 2862.93,182.819 2864.16,176.634 2865.39,179.883 2866.62,447.44 2867.85,173.776 2869.08,178.849 2870.31,180.223 2871.54,171.376 2872.77,195.124 2874,173.887 2875.23,169.368 2876.46,309.157 2877.69,183.88 2878.92,204.256 2880.15,182.122 2881.38,182.55 2882.61,170.888 2883.84,196.074 2885.07,182.024 2886.3,194.618 2887.53,299.334 2888.76,299.69 2889.99,183.245 2891.22,169.365 2892.45,167.485 2893.68,184.945 2894.91,180.004 2896.14,182.565 2897.37,183.261 2898.6,180.098 2899.83,184.748 2901.06,177.667 2902.29,193.233 2903.52,168.063 2904.75,442.759 2905.98,463.049 2907.21,468.694 2908.44,170.859 2909.67,176.546 2910.9,196.373 2912.13,188.791 2913.36,188.522 2914.59,187.023 2915.82,181.883 2917.05,175.531 2918.28,181.538 2919.51,177.116 2920.74,177.224 2921.97,174.965 2923.2,182.004 2924.43,193.722 2925.65,197.375 2926.88,183.572 2928.11,178.466 2929.34,157.893 2930.57,205.507 2931.8,171.041 2933.03,178.843 2934.26,181.491 2935.49,190.65 2936.72,183.68 2937.95,184.9 2939.18,185.912 2940.41,171.313 2941.64,170.91 2942.87,451.406 2944.1,181.497 2945.33,184.982 2946.56,176.615 2947.79,172.581 2949.02,312.595 2950.25,314.792 2951.48,315.138 2952.71,313.614 2953.94,177.858 2955.17,173.839 2956.4,166.367 2957.63,309.029 2958.86,192.345 2960.09,170.724 2961.32,173.416 2962.55,185.237 2963.78,315.589 2965.01,184.476 2966.24,176.168 2967.47,185.122 2968.7,163.274 2969.93,163.063 2971.16,169.631 2972.39,188.745 2973.62,183.179 2974.85,311.189 2976.08,319.203 2977.31,318.356 2978.54,318.206 2979.77,188.342 2981,195.274 2982.23,183.4 2983.46,177.943 2984.69,452.646 2985.92,334.186 2987.15,197.459 2988.38,306.076 2989.61,326.373 2990.84,189.299 2992.07,197.825 2993.3,308.771 2994.53,186.341 2995.76,450.484 2996.99,326.181 2998.22,442.988 2999.45,161.339 3000.68,161.942 3001.91,168.978 3003.14,317.707 3004.37,305.505 3005.6,201.587 3006.83,449.875 3008.05,174.492 3009.28,184.776 3010.51,322.113 3011.74,336.097 3012.97,178.445 3014.2,175.675 3015.43,183.673 3016.66,192.726 3017.89,183.837 3019.12,181.82 3020.35,180.869 3021.58,186.167 3022.81,177.064 3024.04,169.649 3025.27,196.862 3026.5,321.128 3027.73,319.247 3028.96,312.408 3030.19,174.945 3031.42,322.076 3032.65,181.045 3033.88,179.523 3035.11,188.178 3036.34,319.755 3037.57,316.914 3038.8,179.529 3040.03,206.074 3041.26,196.159 3042.49,189.274 3043.72,162.752 3044.95,189.707 3046.18,173.787 3047.41,180.323 3048.64,183.616 3049.87,176.48 3051.1,184.884 3052.33,184.83 3053.56,309.945 3054.79,170.103 3056.02,312.37 3057.25,194.2 3058.48,178.366 3059.71,182.636 3060.94,304.476 3062.17,179.362 3063.4,184.667 3064.63,182.833 3065.86,171.081 3067.09,332.394 3068.32,171.534 3069.55,189.424 3070.78,177.478 3072.01,190.838 3073.24,187.76 3074.47,171.869 3075.7,192.721 3076.93,183.573 3078.16,180.307 3079.39,190.331 3080.62,171.065 3081.85,168.173 3083.08,174.235 3084.31,184.385 3085.54,178.626 3086.77,191.118 3088,177.476 3089.23,187.199 3090.45,186.041 3091.68,193.773 3092.91,188.096 3094.14,318.768 3095.37,178.363 3096.6,188.136 3097.83,185.617 3099.06,315.049 3100.29,315.598 3101.52,188.022 3102.75,187.39 3103.98,318.81 3105.21,170.694 3106.44,174.701 3107.67,188.963 3108.9,173.172 3110.13,308.918 3111.36,178.4 3112.59,179.834 3113.82,315.447 3115.05,174.774 3116.28,307.18 3117.51,169.982 3118.74,172.076 3119.97,180.394 3121.2,188.028 3122.43,193.343 3123.66,193.434 3124.89,166.006 3126.12,318.493 3127.35,450.124 3128.58,458.823 3129.81,450.587 3131.04,461.584 3132.27,311.119 3133.5,201.24 3134.73,182.278 3135.96,186.583 3137.19,180.218 3138.42,186.067 3139.65,176.083 3140.88,182.294 3142.11,317.881 3143.34,311.96 3144.57,318.99 3145.8,324.49 3147.03,178.193 3148.26,329.12 3149.49,195.336 3150.72,199.887 3151.95,180.033 3153.18,179.24 3154.41,176.357 3155.64,189.446 3156.87,190.334 3158.1,175.84 3159.33,183.913 3160.56,179.633 3161.79,180.976 3163.02,185.726 3164.25,178.557 3165.48,194.798 3166.71,303.047 3167.94,171.198 3169.17,170.825 3170.4,182.269 3171.63,170.202 3172.85,174.603 3174.08,429.871 3175.31,165.712 3176.54,195.285 3177.77,194.668 3179,178.029 3180.23,194.481 3181.46,324.745 3182.69,323.918 3183.92,324.24 3185.15,326.878 3186.38,308.74 3187.61,324.596 3188.84,186.173 3190.07,180.233 3191.3,320.312 3192.53,311.686 3193.76,186.627 3194.99,172.283 3196.22,185.686 3197.45,195.002 3198.68,169.468 3199.91,471.103 3201.14,323.202 3202.37,310.398 3203.6,316.159 3204.83,315.452 3206.06,327.609 3207.29,188.34 3208.52,315.682 3209.75,319.43 3210.98,302.54 3212.21,193.991 3213.44,181.674 3214.67,175.538 3215.9,173.051 3217.13,165.222 3218.36,173.241 3219.59,186.892 3220.82,175.978 3222.05,317.085 3223.28,174.259 3224.51,181.625 3225.74,186.882 3226.97,322.864 3228.2,186.554 3229.43,184.076 3230.66,331.049 3231.89,318.677 3233.12,317.541 3234.35,323.433 3235.58,193.152 3236.81,182.438 3238.04,322.219 3239.27,319.078 3240.5,312.719 3241.73,450.457 3242.96,457.851 3244.19,322.078 3245.42,320.993 3246.65,317.02 3247.88,325.212 3249.11,312.57 3250.34,322.602 3251.57,315.359 3252.8,308.141 3254.03,202.922 3255.25,175.48 3256.48,181.158 3257.71,192.261 3258.94,174.907 3260.17,181.658 3261.4,181.837 3262.63,189.216 3263.86,184.759 3265.09,188.679 3266.32,187.323 3267.55,333.918 3268.78,324.532 3270.01,312.475 3271.24,313.192 3272.47,459.958 3273.7,184.789 3274.93,186.395 3276.16,325.254 3277.39,197.807 3278.62,183.752 3279.85,169.004 3281.08,204.231 3282.31,173.052 3283.54,188.237 3284.77,179.038 3286,181.76 3287.23,194.542 3288.46,183.028 3289.69,444.785 3290.92,187.048 3292.15,182.414 3293.38,180.357 3294.61,188.867 3295.84,315.431 3297.07,323.188 3298.3,178.394 3299.53,187.52 3300.76,185.913 3301.99,183.117 3303.22,186.908 3304.45,324.775 3305.68,319.015 3306.91,332.385 3308.14,181.487 3309.37,183.216 3310.6,190.252 3311.83,181.305 3313.06,181.05 3314.29,319.017 3315.52,453.754 3316.75,455.918 3317.98,178.859 3319.21,172.127 3320.44,168.24 3321.67,184.613 3322.9,312.103 3324.13,452.571 3325.36,193.38 3326.59,170.655 3327.82,187.536 3329.05,174.632 3330.28,179.884 3331.51,175.877 3332.74,179.529 3333.97,309.774 3335.2,319.759 3336.43,315.839 3337.65,316.748 3338.88,314.019 3340.11,191.426 3341.34,182.503 3342.57,169.211 3343.8,187.433 3345.03,181.103 3346.26,331.461 3347.49,170.284 3348.72,458.039 3349.95,452.481 3351.18,448.934 3352.41,194.523 3353.64,188.319 3354.87,189.798 3356.1,190.274 3357.33,177.851 3358.56,196.551 3359.79,321.651 3361.02,320.543 3362.25,312.675 3363.48,320.027 3364.71,317.747 3365.94,314.224 3367.17,186.688 3368.4,176.169 3369.63,177.412 3370.86,180.292 3372.09,182.389 3373.32,182.702 3374.55,184.866 3375.78,185.715 3377.01,328.333 3378.24,448.146 3379.47,460.885 3380.7,446.213 3381.93,192.178 3383.16,171.029 3384.39,183.39 3385.62,457.944 3386.85,306.853 3388.08,170.54 3389.31,186.457 3390.54,173.992 3391.77,188.97 3393,188.89 3394.23,176.669 3395.46,179.596 3396.69,185.895 3397.92,184.546 3399.15,176.786 3400.38,176.684 3401.61,192.347 3402.84,187.777 3404.07,181.538 3405.3,180.533 3406.53,309.435 3407.76,163.689 3408.99,160.043 3410.22,327.085 3411.45,309.405 3412.68,316.037 3413.91,317.587 3415.14,324.55 3416.37,194.148 3417.6,193.236 3418.83,184.585 3420.05,180.539 3421.28,182.421 3422.51,331.876 3423.74,185.627 3424.97,189.238 3426.2,188.556 3427.43,182.547 3428.66,175.146 3429.89,174.493 3431.12,171.589 3432.35,315.441 3433.58,194.875 3434.81,184.58 3436.04,188.358 3437.27,187.321 3438.5,192.792 3439.73,183.269 3440.96,200.921 3442.19,346.577 3443.42,205.571 3444.65,198.053 3445.88,317.165 3447.11,330.676 3448.34,167.646 3449.57,171.634 3450.8,301.2 3452.03,185.798 3453.26,179.517 3454.49,199.819 3455.72,171.756 "/>
<path clip-path="url(#clip200)" d="M2913.67 166.762 L3438.47 166.762 L3438.47 63.0816 L2913.67 63.0816  Z" fill="#ffffff" fill-rule="evenodd" fill-opacity="1"/>
<polyline clip-path="url(#clip200)" style="stroke:#000000; stroke-linecap:round; stroke-linejoin:round; stroke-width:4; stroke-opacity:1; fill:none" points="2913.67,166.762 3438.47,166.762 3438.47,63.0816 2913.67,63.0816 2913.67,166.762 "/>
<polyline clip-path="url(#clip200)" style="stroke:#009af9; stroke-linecap:round; stroke-linejoin:round; stroke-width:2; stroke-opacity:1; fill:none" points="2951.76,114.922 3180.34,114.922 "/>
<path clip-path="url(#clip200)" d="M3234.82 115.998 Q3236.32 116.507 3237.74 118.174 Q3239.17 119.841 3240.61 122.757 L3245.35 132.202 L3240.33 132.202 L3235.91 123.336 Q3234.19 119.864 3232.57 118.729 Q3230.98 117.595 3228.2 117.595 L3223.11 117.595 L3223.11 132.202 L3218.43 132.202 L3218.43 97.6416 L3228.99 97.6416 Q3234.91 97.6416 3237.83 100.118 Q3240.75 102.595 3240.75 107.595 Q3240.75 110.859 3239.22 113.012 Q3237.71 115.165 3234.82 115.998 M3223.11 101.484 L3223.11 113.753 L3228.99 113.753 Q3232.37 113.753 3234.08 112.202 Q3235.82 110.628 3235.82 107.595 Q3235.82 104.563 3234.08 103.035 Q3232.37 101.484 3228.99 101.484 L3223.11 101.484 Z" fill="#000000" fill-rule="evenodd" fill-opacity="1" /><path clip-path="url(#clip200)" d="M3261 102.248 L3254.66 119.447 L3267.37 119.447 L3261 102.248 M3258.36 97.6416 L3263.66 97.6416 L3276.83 132.202 L3271.97 132.202 L3268.82 123.336 L3253.25 123.336 L3250.1 132.202 L3245.17 132.202 L3258.36 97.6416 Z" fill="#000000" fill-rule="evenodd" fill-opacity="1" /><path clip-path="url(#clip200)" d="M3278.5 117.317 L3290.98 117.317 L3290.98 121.114 L3278.5 121.114 L3278.5 117.317 Z" fill="#000000" fill-rule="evenodd" fill-opacity="1" /><path clip-path="url(#clip200)" d="M3297.94 97.6416 L3302.62 97.6416 L3302.62 111.808 L3319.61 111.808 L3319.61 97.6416 L3324.29 97.6416 L3324.29 132.202 L3319.61 132.202 L3319.61 115.743 L3302.62 115.743 L3302.62 132.202 L3297.94 132.202 L3297.94 97.6416 Z" fill="#000000" fill-rule="evenodd" fill-opacity="1" /><path clip-path="url(#clip200)" d="M3333.59 97.6416 L3340.56 97.6416 L3349.38 121.16 L3358.25 97.6416 L3365.21 97.6416 L3365.21 132.202 L3360.65 132.202 L3360.65 101.854 L3351.74 125.558 L3347.04 125.558 L3338.13 101.854 L3338.13 132.202 L3333.59 132.202 L3333.59 97.6416 Z" fill="#000000" fill-rule="evenodd" fill-opacity="1" /><path clip-path="url(#clip200)" d="M3400.37 100.304 L3400.37 105.234 Q3398.01 103.035 3395.33 101.947 Q3392.67 100.859 3389.66 100.859 Q3383.73 100.859 3380.58 104.493 Q3377.43 108.104 3377.43 114.956 Q3377.43 121.785 3380.58 125.419 Q3383.73 129.03 3389.66 129.03 Q3392.67 129.03 3395.33 127.942 Q3398.01 126.854 3400.37 124.655 L3400.37 129.54 Q3397.92 131.206 3395.17 132.04 Q3392.43 132.873 3389.38 132.873 Q3381.53 132.873 3377.02 128.081 Q3372.5 123.266 3372.5 114.956 Q3372.5 106.623 3377.02 101.831 Q3381.53 97.0166 3389.38 97.0166 Q3392.48 97.0166 3395.21 97.8499 Q3397.97 98.6601 3400.37 100.304 Z" fill="#000000" fill-rule="evenodd" fill-opacity="1" /></svg>
