<?xml version="1.0" encoding="utf-8"?>
<svg xmlns="http://www.w3.org/2000/svg" xmlns:xlink="http://www.w3.org/1999/xlink" width="900" height="150" viewBox="0 0 3600 600">
<defs>
  <clipPath id="clip300">
    <rect x="0" y="0" width="3600" height="600"/>
  </clipPath>
</defs>
<path clip-path="url(#clip300)" d="M0 600 L3600 600 L3600 0 L0 0  Z" fill="#ffffff" fill-rule="evenodd" fill-opacity="1"/>
<defs>
  <clipPath id="clip301">
    <rect x="720" y="0" width="2521" height="600"/>
  </clipPath>
</defs>
<path clip-path="url(#clip300)" d="M124.177 522.368 L3552.76 522.368 L3552.76 47.2441 L124.177 47.2441  Z" fill="#ffffff" fill-rule="evenodd" fill-opacity="1"/>
<defs>
  <clipPath id="clip302">
    <rect x="124" y="47" width="3430" height="476"/>
  </clipPath>
</defs>
<polyline clip-path="url(#clip302)" style="stroke:#000000; stroke-linecap:round; stroke-linejoin:round; stroke-width:2; stroke-opacity:0.1; fill:none" points="219.968,522.368 219.968,47.2441 "/>
<polyline clip-path="url(#clip302)" style="stroke:#000000; stroke-linecap:round; stroke-linejoin:round; stroke-width:2; stroke-opacity:0.1; fill:none" points="842.228,522.368 842.228,47.2441 "/>
<polyline clip-path="url(#clip302)" style="stroke:#000000; stroke-linecap:round; stroke-linejoin:round; stroke-width:2; stroke-opacity:0.1; fill:none" points="1464.49,522.368 1464.49,47.2441 "/>
<polyline clip-path="url(#clip302)" style="stroke:#000000; stroke-linecap:round; stroke-linejoin:round; stroke-width:2; stroke-opacity:0.1; fill:none" points="2086.75,522.368 2086.75,47.2441 "/>
<polyline clip-path="url(#clip302)" style="stroke:#000000; stroke-linecap:round; stroke-linejoin:round; stroke-width:2; stroke-opacity:0.1; fill:none" points="2709.01,522.368 2709.01,47.2441 "/>
<polyline clip-path="url(#clip302)" style="stroke:#000000; stroke-linecap:round; stroke-linejoin:round; stroke-width:2; stroke-opacity:0.1; fill:none" points="3331.27,522.368 3331.27,47.2441 "/>
<polyline clip-path="url(#clip300)" style="stroke:#000000; stroke-linecap:round; stroke-linejoin:round; stroke-width:4; stroke-opacity:1; fill:none" points="124.177,522.368 3552.76,522.368 "/>
<polyline clip-path="url(#clip300)" style="stroke:#000000; stroke-linecap:round; stroke-linejoin:round; stroke-width:4; stroke-opacity:1; fill:none" points="219.968,522.368 219.968,503.47 "/>
<polyline clip-path="url(#clip300)" style="stroke:#000000; stroke-linecap:round; stroke-linejoin:round; stroke-width:4; stroke-opacity:1; fill:none" points="842.228,522.368 842.228,503.47 "/>
<polyline clip-path="url(#clip300)" style="stroke:#000000; stroke-linecap:round; stroke-linejoin:round; stroke-width:4; stroke-opacity:1; fill:none" points="1464.49,522.368 1464.49,503.47 "/>
<polyline clip-path="url(#clip300)" style="stroke:#000000; stroke-linecap:round; stroke-linejoin:round; stroke-width:4; stroke-opacity:1; fill:none" points="2086.75,522.368 2086.75,503.47 "/>
<polyline clip-path="url(#clip300)" style="stroke:#000000; stroke-linecap:round; stroke-linejoin:round; stroke-width:4; stroke-opacity:1; fill:none" points="2709.01,522.368 2709.01,503.47 "/>
<polyline clip-path="url(#clip300)" style="stroke:#000000; stroke-linecap:round; stroke-linejoin:round; stroke-width:4; stroke-opacity:1; fill:none" points="3331.27,522.368 3331.27,503.47 "/>
<path clip-path="url(#clip300)" d="M219.968 562.887 Q216.357 562.887 214.528 566.451 Q212.723 569.993 212.723 577.123 Q212.723 584.229 214.528 587.794 Q216.357 591.335 219.968 591.335 Q223.602 591.335 225.408 587.794 Q227.236 584.229 227.236 577.123 Q227.236 569.993 225.408 566.451 Q223.602 562.887 219.968 562.887 M219.968 559.183 Q225.778 559.183 228.834 563.789 Q231.912 568.373 231.912 577.123 Q231.912 585.849 228.834 590.456 Q225.778 595.039 219.968 595.039 Q214.158 595.039 211.079 590.456 Q208.024 585.849 208.024 577.123 Q208.024 568.373 211.079 563.789 Q214.158 559.183 219.968 559.183 Z" fill="#000000" fill-rule="evenodd" fill-opacity="1" /><path clip-path="url(#clip300)" d="M801.846 559.808 L820.203 559.808 L820.203 563.743 L806.129 563.743 L806.129 572.215 Q807.147 571.868 808.166 571.706 Q809.184 571.521 810.203 571.521 Q815.99 571.521 819.369 574.692 Q822.749 577.863 822.749 583.28 Q822.749 588.859 819.277 591.96 Q815.805 595.039 809.485 595.039 Q807.309 595.039 805.041 594.669 Q802.795 594.298 800.388 593.558 L800.388 588.859 Q802.471 589.993 804.694 590.548 Q806.916 591.104 809.393 591.104 Q813.397 591.104 815.735 588.998 Q818.073 586.891 818.073 583.28 Q818.073 579.669 815.735 577.562 Q813.397 575.456 809.393 575.456 Q807.518 575.456 805.643 575.873 Q803.791 576.289 801.846 577.169 L801.846 559.808 Z" fill="#000000" fill-rule="evenodd" fill-opacity="1" /><path clip-path="url(#clip300)" d="M841.962 562.887 Q838.351 562.887 836.522 566.451 Q834.717 569.993 834.717 577.123 Q834.717 584.229 836.522 587.794 Q838.351 591.335 841.962 591.335 Q845.596 591.335 847.402 587.794 Q849.23 584.229 849.23 577.123 Q849.23 569.993 847.402 566.451 Q845.596 562.887 841.962 562.887 M841.962 559.183 Q847.772 559.183 850.828 563.789 Q853.906 568.373 853.906 577.123 Q853.906 585.849 850.828 590.456 Q847.772 595.039 841.962 595.039 Q836.152 595.039 833.073 590.456 Q830.017 585.849 830.017 577.123 Q830.017 568.373 833.073 563.789 Q836.152 559.183 841.962 559.183 Z" fill="#000000" fill-rule="evenodd" fill-opacity="1" /><path clip-path="url(#clip300)" d="M872.124 562.887 Q868.513 562.887 866.684 566.451 Q864.878 569.993 864.878 577.123 Q864.878 584.229 866.684 587.794 Q868.513 591.335 872.124 591.335 Q875.758 591.335 877.564 587.794 Q879.392 584.229 879.392 577.123 Q879.392 569.993 877.564 566.451 Q875.758 562.887 872.124 562.887 M872.124 559.183 Q877.934 559.183 880.989 563.789 Q884.068 568.373 884.068 577.123 Q884.068 585.849 880.989 590.456 Q877.934 595.039 872.124 595.039 Q866.314 595.039 863.235 590.456 Q860.179 585.849 860.179 577.123 Q860.179 568.373 863.235 563.789 Q866.314 559.183 872.124 559.183 Z" fill="#000000" fill-rule="evenodd" fill-opacity="1" /><path clip-path="url(#clip300)" d="M1409.01 590.433 L1416.65 590.433 L1416.65 564.067 L1408.34 565.734 L1408.34 561.475 L1416.61 559.808 L1421.28 559.808 L1421.28 590.433 L1428.92 590.433 L1428.92 594.368 L1409.01 594.368 L1409.01 590.433 Z" fill="#000000" fill-rule="evenodd" fill-opacity="1" /><path clip-path="url(#clip300)" d="M1448.37 562.887 Q1444.75 562.887 1442.93 566.451 Q1441.12 569.993 1441.12 577.123 Q1441.12 584.229 1442.93 587.794 Q1444.75 591.335 1448.37 591.335 Q1452 591.335 1453.81 587.794 Q1455.63 584.229 1455.63 577.123 Q1455.63 569.993 1453.81 566.451 Q1452 562.887 1448.37 562.887 M1448.37 559.183 Q1454.18 559.183 1457.23 563.789 Q1460.31 568.373 1460.31 577.123 Q1460.31 585.849 1457.23 590.456 Q1454.18 595.039 1448.37 595.039 Q1442.56 595.039 1439.48 590.456 Q1436.42 585.849 1436.42 577.123 Q1436.42 568.373 1439.48 563.789 Q1442.56 559.183 1448.37 559.183 Z" fill="#000000" fill-rule="evenodd" fill-opacity="1" /><path clip-path="url(#clip300)" d="M1478.53 562.887 Q1474.92 562.887 1473.09 566.451 Q1471.28 569.993 1471.28 577.123 Q1471.28 584.229 1473.09 587.794 Q1474.92 591.335 1478.53 591.335 Q1482.16 591.335 1483.97 587.794 Q1485.8 584.229 1485.8 577.123 Q1485.8 569.993 1483.97 566.451 Q1482.16 562.887 1478.53 562.887 M1478.53 559.183 Q1484.34 559.183 1487.39 563.789 Q1490.47 568.373 1490.47 577.123 Q1490.47 585.849 1487.39 590.456 Q1484.34 595.039 1478.53 595.039 Q1472.72 595.039 1469.64 590.456 Q1466.58 585.849 1466.58 577.123 Q1466.58 568.373 1469.64 563.789 Q1472.72 559.183 1478.53 559.183 Z" fill="#000000" fill-rule="evenodd" fill-opacity="1" /><path clip-path="url(#clip300)" d="M1508.69 562.887 Q1505.08 562.887 1503.25 566.451 Q1501.44 569.993 1501.44 577.123 Q1501.44 584.229 1503.25 587.794 Q1505.08 591.335 1508.69 591.335 Q1512.32 591.335 1514.13 587.794 Q1515.96 584.229 1515.96 577.123 Q1515.96 569.993 1514.13 566.451 Q1512.32 562.887 1508.69 562.887 M1508.69 559.183 Q1514.5 559.183 1517.56 563.789 Q1520.63 568.373 1520.63 577.123 Q1520.63 585.849 1517.56 590.456 Q1514.5 595.039 1508.69 595.039 Q1502.88 595.039 1499.8 590.456 Q1496.74 585.849 1496.74 577.123 Q1496.74 568.373 1499.8 563.789 Q1502.88 559.183 1508.69 559.183 Z" fill="#000000" fill-rule="evenodd" fill-opacity="1" /><path clip-path="url(#clip300)" d="M2031.27 590.433 L2038.91 590.433 L2038.91 564.067 L2030.6 565.734 L2030.6 561.475 L2038.87 559.808 L2043.54 559.808 L2043.54 590.433 L2051.18 590.433 L2051.18 594.368 L2031.27 594.368 L2031.27 590.433 Z" fill="#000000" fill-rule="evenodd" fill-opacity="1" /><path clip-path="url(#clip300)" d="M2060.67 559.808 L2079.03 559.808 L2079.03 563.743 L2064.95 563.743 L2064.95 572.215 Q2065.97 571.868 2066.99 571.706 Q2068.01 571.521 2069.03 571.521 Q2074.82 571.521 2078.2 574.692 Q2081.57 577.863 2081.57 583.28 Q2081.57 588.859 2078.1 591.96 Q2074.63 595.039 2068.31 595.039 Q2066.14 595.039 2063.87 594.669 Q2061.62 594.298 2059.21 593.558 L2059.21 588.859 Q2061.3 589.993 2063.52 590.548 Q2065.74 591.104 2068.22 591.104 Q2072.22 591.104 2074.56 588.998 Q2076.9 586.891 2076.9 583.28 Q2076.9 579.669 2074.56 577.562 Q2072.22 575.456 2068.22 575.456 Q2066.34 575.456 2064.47 575.873 Q2062.62 576.289 2060.67 577.169 L2060.67 559.808 Z" fill="#000000" fill-rule="evenodd" fill-opacity="1" /><path clip-path="url(#clip300)" d="M2100.79 562.887 Q2097.18 562.887 2095.35 566.451 Q2093.54 569.993 2093.54 577.123 Q2093.54 584.229 2095.35 587.794 Q2097.18 591.335 2100.79 591.335 Q2104.42 591.335 2106.23 587.794 Q2108.06 584.229 2108.06 577.123 Q2108.06 569.993 2106.23 566.451 Q2104.42 562.887 2100.79 562.887 M2100.79 559.183 Q2106.6 559.183 2109.65 563.789 Q2112.73 568.373 2112.73 577.123 Q2112.73 585.849 2109.65 590.456 Q2106.6 595.039 2100.79 595.039 Q2094.98 595.039 2091.9 590.456 Q2088.84 585.849 2088.84 577.123 Q2088.84 568.373 2091.9 563.789 Q2094.98 559.183 2100.79 559.183 Z" fill="#000000" fill-rule="evenodd" fill-opacity="1" /><path clip-path="url(#clip300)" d="M2130.95 562.887 Q2127.34 562.887 2125.51 566.451 Q2123.7 569.993 2123.7 577.123 Q2123.7 584.229 2125.51 587.794 Q2127.34 591.335 2130.95 591.335 Q2134.58 591.335 2136.39 587.794 Q2138.22 584.229 2138.22 577.123 Q2138.22 569.993 2136.39 566.451 Q2134.58 562.887 2130.95 562.887 M2130.95 559.183 Q2136.76 559.183 2139.82 563.789 Q2142.89 568.373 2142.89 577.123 Q2142.89 585.849 2139.82 590.456 Q2136.76 595.039 2130.95 595.039 Q2125.14 595.039 2122.06 590.456 Q2119.01 585.849 2119.01 577.123 Q2119.01 568.373 2122.06 563.789 Q2125.14 559.183 2130.95 559.183 Z" fill="#000000" fill-rule="evenodd" fill-opacity="1" /><path clip-path="url(#clip300)" d="M2657.62 590.433 L2673.94 590.433 L2673.94 594.368 L2651.99 594.368 L2651.99 590.433 Q2654.66 587.678 2659.24 583.048 Q2663.85 578.396 2665.03 577.053 Q2667.27 574.53 2668.15 572.794 Q2669.05 571.035 2669.05 569.345 Q2669.05 566.59 2667.11 564.854 Q2665.19 563.118 2662.09 563.118 Q2659.89 563.118 2657.43 563.882 Q2655 564.646 2652.23 566.197 L2652.23 561.475 Q2655.05 560.34 2657.5 559.762 Q2659.96 559.183 2661.99 559.183 Q2667.37 559.183 2670.56 561.868 Q2673.75 564.553 2673.75 569.044 Q2673.75 571.174 2672.94 573.095 Q2672.16 574.993 2670.05 577.586 Q2669.47 578.257 2666.37 581.474 Q2663.27 584.669 2657.62 590.433 Z" fill="#000000" fill-rule="evenodd" fill-opacity="1" /><path clip-path="url(#clip300)" d="M2693.75 562.887 Q2690.14 562.887 2688.31 566.451 Q2686.51 569.993 2686.51 577.123 Q2686.51 584.229 2688.31 587.794 Q2690.14 591.335 2693.75 591.335 Q2697.39 591.335 2699.19 587.794 Q2701.02 584.229 2701.02 577.123 Q2701.02 569.993 2699.19 566.451 Q2697.39 562.887 2693.75 562.887 M2693.75 559.183 Q2699.56 559.183 2702.62 563.789 Q2705.7 568.373 2705.7 577.123 Q2705.7 585.849 2702.62 590.456 Q2699.56 595.039 2693.75 595.039 Q2687.94 595.039 2684.87 590.456 Q2681.81 585.849 2681.81 577.123 Q2681.81 568.373 2684.87 563.789 Q2687.94 559.183 2693.75 559.183 Z" fill="#000000" fill-rule="evenodd" fill-opacity="1" /><path clip-path="url(#clip300)" d="M2723.92 562.887 Q2720.3 562.887 2718.48 566.451 Q2716.67 569.993 2716.67 577.123 Q2716.67 584.229 2718.48 587.794 Q2720.3 591.335 2723.92 591.335 Q2727.55 591.335 2729.36 587.794 Q2731.18 584.229 2731.18 577.123 Q2731.18 569.993 2729.36 566.451 Q2727.55 562.887 2723.92 562.887 M2723.92 559.183 Q2729.73 559.183 2732.78 563.789 Q2735.86 568.373 2735.86 577.123 Q2735.86 585.849 2732.78 590.456 Q2729.73 595.039 2723.92 595.039 Q2718.11 595.039 2715.03 590.456 Q2711.97 585.849 2711.97 577.123 Q2711.97 568.373 2715.03 563.789 Q2718.11 559.183 2723.92 559.183 Z" fill="#000000" fill-rule="evenodd" fill-opacity="1" /><path clip-path="url(#clip300)" d="M2754.08 562.887 Q2750.47 562.887 2748.64 566.451 Q2746.83 569.993 2746.83 577.123 Q2746.83 584.229 2748.64 587.794 Q2750.47 591.335 2754.08 591.335 Q2757.71 591.335 2759.52 587.794 Q2761.35 584.229 2761.35 577.123 Q2761.35 569.993 2759.52 566.451 Q2757.71 562.887 2754.08 562.887 M2754.08 559.183 Q2759.89 559.183 2762.94 563.789 Q2766.02 568.373 2766.02 577.123 Q2766.02 585.849 2762.94 590.456 Q2759.89 595.039 2754.08 595.039 Q2748.27 595.039 2745.19 590.456 Q2742.13 585.849 2742.13 577.123 Q2742.13 568.373 2745.19 563.789 Q2748.27 559.183 2754.08 559.183 Z" fill="#000000" fill-rule="evenodd" fill-opacity="1" /><path clip-path="url(#clip300)" d="M3279.88 590.433 L3296.2 590.433 L3296.2 594.368 L3274.26 594.368 L3274.26 590.433 Q3276.92 587.678 3281.5 583.048 Q3286.11 578.396 3287.29 577.053 Q3289.53 574.53 3290.41 572.794 Q3291.32 571.035 3291.32 569.345 Q3291.32 566.59 3289.37 564.854 Q3287.45 563.118 3284.35 563.118 Q3282.15 563.118 3279.69 563.882 Q3277.26 564.646 3274.49 566.197 L3274.49 561.475 Q3277.31 560.34 3279.76 559.762 Q3282.22 559.183 3284.25 559.183 Q3289.63 559.183 3292.82 561.868 Q3296.01 564.553 3296.01 569.044 Q3296.01 571.174 3295.2 573.095 Q3294.42 574.993 3292.31 577.586 Q3291.73 578.257 3288.63 581.474 Q3285.53 584.669 3279.88 590.433 Z" fill="#000000" fill-rule="evenodd" fill-opacity="1" /><path clip-path="url(#clip300)" d="M3306.06 559.808 L3324.42 559.808 L3324.42 563.743 L3310.34 563.743 L3310.34 572.215 Q3311.36 571.868 3312.38 571.706 Q3313.4 571.521 3314.42 571.521 Q3320.2 571.521 3323.58 574.692 Q3326.96 577.863 3326.96 583.28 Q3326.96 588.859 3323.49 591.96 Q3320.02 595.039 3313.7 595.039 Q3311.52 595.039 3309.25 594.669 Q3307.01 594.298 3304.6 593.558 L3304.6 588.859 Q3306.69 589.993 3308.91 590.548 Q3311.13 591.104 3313.61 591.104 Q3317.61 591.104 3319.95 588.998 Q3322.29 586.891 3322.29 583.28 Q3322.29 579.669 3319.95 577.562 Q3317.61 575.456 3313.61 575.456 Q3311.73 575.456 3309.86 575.873 Q3308 576.289 3306.06 577.169 L3306.06 559.808 Z" fill="#000000" fill-rule="evenodd" fill-opacity="1" /><path clip-path="url(#clip300)" d="M3346.18 562.887 Q3342.56 562.887 3340.74 566.451 Q3338.93 569.993 3338.93 577.123 Q3338.93 584.229 3340.74 587.794 Q3342.56 591.335 3346.18 591.335 Q3349.81 591.335 3351.62 587.794 Q3353.44 584.229 3353.44 577.123 Q3353.44 569.993 3351.62 566.451 Q3349.81 562.887 3346.18 562.887 M3346.18 559.183 Q3351.99 559.183 3355.04 563.789 Q3358.12 568.373 3358.12 577.123 Q3358.12 585.849 3355.04 590.456 Q3351.99 595.039 3346.18 595.039 Q3340.37 595.039 3337.29 590.456 Q3334.23 585.849 3334.23 577.123 Q3334.23 568.373 3337.29 563.789 Q3340.37 559.183 3346.18 559.183 Z" fill="#000000" fill-rule="evenodd" fill-opacity="1" /><path clip-path="url(#clip300)" d="M3376.34 562.887 Q3372.73 562.887 3370.9 566.451 Q3369.09 569.993 3369.09 577.123 Q3369.09 584.229 3370.9 587.794 Q3372.73 591.335 3376.34 591.335 Q3379.97 591.335 3381.78 587.794 Q3383.61 584.229 3383.61 577.123 Q3383.61 569.993 3381.78 566.451 Q3379.97 562.887 3376.34 562.887 M3376.34 559.183 Q3382.15 559.183 3385.2 563.789 Q3388.28 568.373 3388.28 577.123 Q3388.28 585.849 3385.2 590.456 Q3382.15 595.039 3376.34 595.039 Q3370.53 595.039 3367.45 590.456 Q3364.39 585.849 3364.39 577.123 Q3364.39 568.373 3367.45 563.789 Q3370.53 559.183 3376.34 559.183 Z" fill="#000000" fill-rule="evenodd" fill-opacity="1" /><polyline clip-path="url(#clip302)" style="stroke:#000000; stroke-linecap:round; stroke-linejoin:round; stroke-width:2; stroke-opacity:0.1; fill:none" points="124.177,522.368 3552.76,522.368 "/>
<polyline clip-path="url(#clip302)" style="stroke:#000000; stroke-linecap:round; stroke-linejoin:round; stroke-width:2; stroke-opacity:0.1; fill:none" points="124.177,454.493 3552.76,454.493 "/>
<polyline clip-path="url(#clip302)" style="stroke:#000000; stroke-linecap:round; stroke-linejoin:round; stroke-width:2; stroke-opacity:0.1; fill:none" points="124.177,386.618 3552.76,386.618 "/>
<polyline clip-path="url(#clip302)" style="stroke:#000000; stroke-linecap:round; stroke-linejoin:round; stroke-width:2; stroke-opacity:0.1; fill:none" points="124.177,318.743 3552.76,318.743 "/>
<polyline clip-path="url(#clip302)" style="stroke:#000000; stroke-linecap:round; stroke-linejoin:round; stroke-width:2; stroke-opacity:0.1; fill:none" points="124.177,250.869 3552.76,250.869 "/>
<polyline clip-path="url(#clip302)" style="stroke:#000000; stroke-linecap:round; stroke-linejoin:round; stroke-width:2; stroke-opacity:0.1; fill:none" points="124.177,182.994 3552.76,182.994 "/>
<polyline clip-path="url(#clip302)" style="stroke:#000000; stroke-linecap:round; stroke-linejoin:round; stroke-width:2; stroke-opacity:0.1; fill:none" points="124.177,115.119 3552.76,115.119 "/>
<polyline clip-path="url(#clip302)" style="stroke:#000000; stroke-linecap:round; stroke-linejoin:round; stroke-width:2; stroke-opacity:0.1; fill:none" points="124.177,47.2441 3552.76,47.2441 "/>
<polyline clip-path="url(#clip300)" style="stroke:#000000; stroke-linecap:round; stroke-linejoin:round; stroke-width:4; stroke-opacity:1; fill:none" points="124.177,522.368 124.177,47.2441 "/>
<polyline clip-path="url(#clip300)" style="stroke:#000000; stroke-linecap:round; stroke-linejoin:round; stroke-width:4; stroke-opacity:1; fill:none" points="124.177,522.368 143.075,522.368 "/>
<polyline clip-path="url(#clip300)" style="stroke:#000000; stroke-linecap:round; stroke-linejoin:round; stroke-width:4; stroke-opacity:1; fill:none" points="124.177,454.493 143.075,454.493 "/>
<polyline clip-path="url(#clip300)" style="stroke:#000000; stroke-linecap:round; stroke-linejoin:round; stroke-width:4; stroke-opacity:1; fill:none" points="124.177,386.618 143.075,386.618 "/>
<polyline clip-path="url(#clip300)" style="stroke:#000000; stroke-linecap:round; stroke-linejoin:round; stroke-width:4; stroke-opacity:1; fill:none" points="124.177,318.743 143.075,318.743 "/>
<polyline clip-path="url(#clip300)" style="stroke:#000000; stroke-linecap:round; stroke-linejoin:round; stroke-width:4; stroke-opacity:1; fill:none" points="124.177,250.869 143.075,250.869 "/>
<polyline clip-path="url(#clip300)" style="stroke:#000000; stroke-linecap:round; stroke-linejoin:round; stroke-width:4; stroke-opacity:1; fill:none" points="124.177,182.994 143.075,182.994 "/>
<polyline clip-path="url(#clip300)" style="stroke:#000000; stroke-linecap:round; stroke-linejoin:round; stroke-width:4; stroke-opacity:1; fill:none" points="124.177,115.119 143.075,115.119 "/>
<polyline clip-path="url(#clip300)" style="stroke:#000000; stroke-linecap:round; stroke-linejoin:round; stroke-width:4; stroke-opacity:1; fill:none" points="124.177,47.2441 143.075,47.2441 "/>
<path clip-path="url(#clip300)" d="M50.2699 535.713 L57.9087 535.713 L57.9087 509.347 L49.5986 511.014 L49.5986 506.755 L57.8624 505.088 L62.5383 505.088 L62.5383 535.713 L70.1772 535.713 L70.1772 539.648 L50.2699 539.648 L50.2699 535.713 Z" fill="#000000" fill-rule="evenodd" fill-opacity="1" /><path clip-path="url(#clip300)" d="M53.8578 467.838 L70.1772 467.838 L70.1772 471.773 L48.2328 471.773 L48.2328 467.838 Q50.8949 465.083 55.4782 460.454 Q60.0846 455.801 61.2652 454.458 Q63.5105 451.935 64.3902 450.199 Q65.2929 448.44 65.2929 446.75 Q65.2929 443.995 63.3485 442.259 Q61.4272 440.523 58.3254 440.523 Q56.1263 440.523 53.6726 441.287 Q51.2421 442.051 48.4643 443.602 L48.4643 438.88 Q51.2884 437.745 53.7421 437.167 Q56.1958 436.588 58.2328 436.588 Q63.6031 436.588 66.7976 439.273 Q69.992 441.958 69.992 446.449 Q69.992 448.579 69.1818 450.5 Q68.3948 452.398 66.2883 454.991 Q65.7096 455.662 62.6078 458.88 Q59.5059 462.074 53.8578 467.838 Z" fill="#000000" fill-rule="evenodd" fill-opacity="1" /><path clip-path="url(#clip300)" d="M63.0476 385.264 Q66.404 385.982 68.279 388.25 Q70.1772 390.519 70.1772 393.852 Q70.1772 398.968 66.6587 401.769 Q63.1402 404.57 56.6587 404.57 Q54.4828 404.57 52.168 404.13 Q49.8764 403.713 47.4227 402.857 L47.4227 398.343 Q49.3671 399.477 51.6819 400.056 Q53.9967 400.634 56.5198 400.634 Q60.918 400.634 63.2096 398.898 Q65.5244 397.162 65.5244 393.852 Q65.5244 390.796 63.3717 389.083 Q61.242 387.347 57.4226 387.347 L53.3949 387.347 L53.3949 383.505 L57.6078 383.505 Q61.0569 383.505 62.8855 382.139 Q64.7142 380.75 64.7142 378.158 Q64.7142 375.496 62.8161 374.084 Q60.9411 372.648 57.4226 372.648 Q55.5013 372.648 53.3023 373.065 Q51.1032 373.482 48.4643 374.361 L48.4643 370.195 Q51.1264 369.454 53.4412 369.084 Q55.7791 368.713 57.8393 368.713 Q63.1633 368.713 66.2652 371.144 Q69.367 373.551 69.367 377.672 Q69.367 380.542 67.7235 382.533 Q66.08 384.5 63.0476 385.264 Z" fill="#000000" fill-rule="evenodd" fill-opacity="1" /><path clip-path="url(#clip300)" d="M60.5939 305.537 L48.7884 323.986 L60.5939 323.986 L60.5939 305.537 M59.367 301.463 L65.2466 301.463 L65.2466 323.986 L70.1772 323.986 L70.1772 327.875 L65.2466 327.875 L65.2466 336.023 L60.5939 336.023 L60.5939 327.875 L44.9921 327.875 L44.9921 323.361 L59.367 301.463 Z" fill="#000000" fill-rule="evenodd" fill-opacity="1" /><path clip-path="url(#clip300)" d="M49.2745 233.589 L67.6309 233.589 L67.6309 237.524 L53.5569 237.524 L53.5569 245.996 Q54.5754 245.649 55.5939 245.487 Q56.6124 245.301 57.6309 245.301 Q63.418 245.301 66.7976 248.473 Q70.1772 251.644 70.1772 257.061 Q70.1772 262.639 66.705 265.741 Q63.2328 268.82 56.9134 268.82 Q54.7374 268.82 52.4689 268.449 Q50.2236 268.079 47.8162 267.338 L47.8162 262.639 Q49.8995 263.774 52.1217 264.329 Q54.3439 264.885 56.8208 264.885 Q60.8254 264.885 63.1633 262.778 Q65.5013 260.672 65.5013 257.061 Q65.5013 253.45 63.1633 251.343 Q60.8254 249.237 56.8208 249.237 Q54.9458 249.237 53.0708 249.653 Q51.2189 250.07 49.2745 250.95 L49.2745 233.589 Z" fill="#000000" fill-rule="evenodd" fill-opacity="1" /><path clip-path="url(#clip300)" d="M58.6495 181.13 Q55.5013 181.13 53.6495 183.283 Q51.8208 185.436 51.8208 189.186 Q51.8208 192.913 53.6495 195.089 Q55.5013 197.241 58.6495 197.241 Q61.7976 197.241 63.6263 195.089 Q65.4781 192.913 65.4781 189.186 Q65.4781 185.436 63.6263 183.283 Q61.7976 181.13 58.6495 181.13 M67.9318 166.478 L67.9318 170.737 Q66.1726 169.904 64.367 169.464 Q62.5846 169.024 60.8254 169.024 Q56.1958 169.024 53.7421 172.149 Q51.3115 175.274 50.9643 181.593 Q52.33 179.579 54.3902 178.515 Q56.4504 177.427 58.9272 177.427 Q64.1355 177.427 67.1448 180.598 Q70.1772 183.746 70.1772 189.186 Q70.1772 194.51 67.029 197.727 Q63.8809 200.945 58.6495 200.945 Q52.6541 200.945 49.4828 196.362 Q46.3116 191.755 46.3116 183.028 Q46.3116 174.834 50.2004 169.973 Q54.0893 165.089 60.6402 165.089 Q62.3994 165.089 64.1818 165.436 Q65.9874 165.783 67.9318 166.478 Z" fill="#000000" fill-rule="evenodd" fill-opacity="1" /><path clip-path="url(#clip300)" d="M47.9551 97.8389 L70.1772 97.8389 L70.1772 99.8297 L57.6309 132.399 L52.7467 132.399 L64.5522 101.774 L47.9551 101.774 L47.9551 97.8389 Z" fill="#000000" fill-rule="evenodd" fill-opacity="1" /><path clip-path="url(#clip300)" d="M58.3254 48.1121 Q54.9921 48.1121 53.0708 49.8945 Q51.1726 51.6769 51.1726 54.8019 Q51.1726 57.9269 53.0708 59.7093 Q54.9921 61.4917 58.3254 61.4917 Q61.6587 61.4917 63.58 59.7093 Q65.5013 57.9038 65.5013 54.8019 Q65.5013 51.6769 63.58 49.8945 Q61.6819 48.1121 58.3254 48.1121 M53.6495 46.1214 Q50.6402 45.3807 48.9504 43.3205 Q47.2838 41.2603 47.2838 38.2974 Q47.2838 34.1539 50.2236 31.7465 Q53.1865 29.3391 58.3254 29.3391 Q63.4874 29.3391 66.4272 31.7465 Q69.367 34.1539 69.367 38.2974 Q69.367 41.2603 67.6772 43.3205 Q66.0105 45.3807 63.0244 46.1214 Q66.404 46.9084 68.279 49.2001 Q70.1772 51.4918 70.1772 54.8019 Q70.1772 59.825 67.0985 62.5102 Q64.0429 65.1954 58.3254 65.1954 Q52.6078 65.1954 49.5291 62.5102 Q46.4736 59.825 46.4736 54.8019 Q46.4736 51.4918 48.3717 49.2001 Q50.2699 46.9084 53.6495 46.1214 M51.9365 38.7372 Q51.9365 41.4224 53.6032 42.927 Q55.293 44.4316 58.3254 44.4316 Q61.3346 44.4316 63.0244 42.927 Q64.7374 41.4224 64.7374 38.7372 Q64.7374 36.052 63.0244 34.5474 Q61.3346 33.0428 58.3254 33.0428 Q55.293 33.0428 53.6032 34.5474 Q51.9365 36.052 51.9365 38.7372 Z" fill="#000000" fill-rule="evenodd" fill-opacity="1" /><polyline clip-path="url(#clip302)" style="stroke:#009af9; stroke-linecap:round; stroke-linejoin:round; stroke-width:2; stroke-opacity:1; fill:none" points="221.212,466.033 222.457,463.32 223.701,450.303 224.946,461.407 226.191,461.086 227.435,459.251 228.68,462.588 229.924,462.537 231.169,465.981 232.413,445.445 233.658,445.996 234.902,449.453 236.147,444.359 237.391,448.342 238.636,447.673 239.88,444.797 241.125,446.763 242.369,443.987 243.614,447.777 244.858,454.579 246.103,456.947 247.347,444.94 248.592,443.411 249.836,445.397 251.081,454.606 252.325,455.899 253.57,457.515 254.814,467.713 256.059,457.719 257.304,458.624 258.548,460.869 259.793,451.324 261.037,447.245 262.282,447.708 263.526,446.275 264.771,446.663 266.015,445.674 267.26,446.102 268.504,442.726 269.749,442.915 270.993,440.574 272.238,439.679 273.482,439.036 274.727,440.899 275.971,441.022 277.216,441.44 278.46,437.241 279.705,431.664 280.949,433.97 282.194,434.775 283.438,434.459 284.683,432.543 285.927,449.73 287.172,448.547 288.417,449.672 289.661,448.094 290.906,447.799 292.15,445.098 293.395,446.814 294.639,440.253 295.884,447.96 297.128,445.426 298.373,444.553 299.617,438.256 300.862,447.067 302.106,447.479 303.351,448.097 304.595,449.084 305.84,447.462 307.084,446.393 308.329,444.923 309.573,444.181 310.818,447.08 312.062,454.059 313.307,454.429 314.551,455.863 315.796,458.125 317.04,457.562 318.285,458.991 319.53,459.927 320.774,452.615 322.019,455.699 323.263,455.104 324.508,455.063 325.752,455.676 326.997,451.463 328.241,451.595 329.486,454.928 330.73,443.232 331.975,453.349 333.219,457.021 334.464,463.792 335.708,462.431 336.953,461.202 338.197,479.834 339.442,482.397 340.686,480.783 341.931,458.283 343.175,470.702 344.42,474.066 345.664,454.356 346.909,463.214 348.153,463.219 349.398,452.909 350.643,463.242 351.887,450.796 353.132,452.588 354.376,445.515 355.621,456.719 356.865,449.004 358.11,451.411 359.354,462.413 360.599,461.91 361.843,461.168 363.088,459.937 364.332,458.885 365.577,459.639 366.821,465.702 368.066,460.436 369.31,461.376 370.555,461.117 371.799,441.663 373.044,440.653 374.288,441.161 375.533,440.734 376.777,441.291 378.022,442.096 379.267,451.107 380.511,450.865 381.756,464.416 383,463.858 384.245,474.556 385.489,469.242 386.734,470.137 387.978,470.292 389.223,463.333 390.467,462.294 391.712,455.066 392.956,451.633 394.201,453.144 395.445,452.149 396.69,453.642 397.934,453.471 399.179,454.309 400.423,452.389 401.668,454.33 402.912,451.528 404.157,451.543 405.401,453.399 406.646,449.214 407.89,454.416 409.135,454.231 410.38,453.98 411.624,453.202 412.869,452.922 414.113,451.5 415.358,457.684 416.602,456.589 417.847,457.982 419.091,453.805 420.336,455.292 421.58,460.874 422.825,450.83 424.069,457.752 425.314,463.678 426.558,457.355 427.803,452.994 429.047,448.111 430.292,452.044 431.536,456.008 432.781,460.547 434.025,456.968 435.27,460.539 436.514,463.28 437.759,438.651 439.003,460.02 440.248,445.944 441.493,456.769 442.737,458.647 443.982,463.472 445.226,456.704 446.471,454.778 447.715,455.447 448.96,462.75 450.204,453.418 451.449,457.681 452.693,450.8 453.938,443.364 455.182,448.147 456.427,446.186 457.671,444.319 458.916,443.414 460.16,444.933 461.405,456.48 462.649,453.583 463.894,453.346 465.138,463.393 466.383,466.128 467.627,465.83 468.872,473.031 470.116,470.359 471.361,468.097 472.606,459.665 473.85,455.911 475.095,469.109 476.339,456.626 477.584,456.074 478.828,460.244 480.073,448.255 481.317,448.46 482.562,445.782 483.806,439.689 485.051,444.242 486.295,440.205 487.54,440.567 488.784,458.947 490.029,460.357 491.273,455.461 492.518,458.855 493.762,471.563 495.007,475.601 496.251,453.62 497.496,455.113 498.74,457.54 499.985,472.588 501.229,462.072 502.474,459.309 503.719,451.899 504.963,451.817 506.208,431.952 507.452,446.988 508.697,443.614 509.941,448.217 511.186,441.314 512.43,470.396 513.675,456.016 514.919,465.123 516.164,455.024 517.408,459.39 518.653,457.434 519.897,454.013 521.142,462.954 522.386,457.182 523.631,468.565 524.875,469.747 526.12,446.166 527.364,444.768 528.609,445.06 529.853,435.584 531.098,425.127 532.342,432.514 533.587,430.294 534.832,445.341 536.076,433.503 537.321,438.817 538.565,448.582 539.81,442.766 541.054,440.222 542.299,435.995 543.543,436.989 544.788,458.97 546.032,458.611 547.277,457.584 548.521,458.638 549.766,441.424 551.01,440.326 552.255,440.813 553.499,451.225 554.744,444.607 555.988,481.894 557.233,444.23 558.477,446.859 559.722,483.655 560.966,461.094 562.211,428.394 563.456,427.898 564.7,445.13 565.945,455.904 567.189,451.573 568.434,454.575 569.678,457.143 570.923,458.537 572.167,429.497 573.412,476.384 574.656,459.23 575.901,448.436 577.145,444.868 578.39,455.592 579.634,459.157 580.879,456.522 582.123,439.436 583.368,442.361 584.612,440.5 585.857,462.923 587.101,447.994 588.346,465.678 589.59,446.09 590.835,438.537 592.079,465.815 593.324,451.212 594.569,455.065 595.813,457.541 597.058,446.189 598.302,466.005 599.547,444.45 600.791,435.289 602.036,455.453 603.28,457.594 604.525,458.991 605.769,471.65 607.014,459.052 608.258,467.679 609.503,464.871 610.747,457.01 611.992,436.308 613.236,445.889 614.481,443.343 615.725,438.118 616.97,461.629 618.214,441.733 619.459,438.66 620.703,465.501 621.948,467.793 623.192,451.29 624.437,451.959 625.682,450.669 626.926,435.978 628.171,467.467 629.415,457.691 630.66,448.509 631.904,453.733 633.149,455.154 634.393,453.399 635.638,459.509 636.882,442.494 638.127,451.956 639.371,440.265 640.616,445.677 641.86,457.513 643.105,439.104 644.349,437.421 645.594,453.316 646.838,469.932 648.083,457.484 649.327,457.274 650.572,455.716 651.816,442.415 653.061,457.488 654.305,457.539 655.55,456.265 656.795,460.694 658.039,447.798 659.284,436.155 660.528,446.943 661.773,442.315 663.017,443.414 664.262,455.602 665.506,458.776 666.751,442.489 667.995,452.9 669.24,448.394 670.484,442.838 671.729,440.004 672.973,433.524 674.218,466.935 675.462,465.359 676.707,463.087 677.951,461.744 679.196,464.748 680.44,463.429 681.685,458.443 682.929,444.901 684.174,457.151 685.418,464.028 686.663,455.112 687.908,456.583 689.152,450.711 690.397,452.528 691.641,453.541 692.886,460.109 694.13,450.911 695.375,451.789 696.619,459.427 697.864,451.93 699.108,453.333 700.353,453.716 701.597,455.243 702.842,469.206 704.086,452.66 705.331,447.633 706.575,447.518 707.82,440.949 709.064,461.914 710.309,462.361 711.553,434.404 712.798,438.985 714.042,436.983 715.287,435.054 716.531,439.019 717.776,433.736 719.021,455.82 720.265,456.783 721.51,455.05 722.754,452.585 723.999,450.462 725.243,458.204 726.488,446.211 727.732,467.141 728.977,462.245 730.221,468.738 731.466,465.038 732.71,462.919 733.955,455.277 735.199,459.972 736.444,460.591 737.688,450.412 738.933,443.373 740.177,464.393 741.422,453.926 742.666,450.238 743.911,443.626 745.155,452.764 746.4,443.365 747.645,439.575 748.889,439.015 750.134,449.459 751.378,443.784 752.623,458.005 753.867,461.505 755.112,444.537 756.356,448.388 757.601,465.148 758.845,458.921 760.09,445.018 761.334,447.542 762.579,452.41 763.823,451.208 765.068,449.835 766.312,450.654 767.557,456.625 768.801,467.09 770.046,468.899 771.29,454.386 772.535,448.24 773.779,467.471 775.024,445.516 776.268,450.137 777.513,470.478 778.758,459.009 780.002,465.185 781.247,460.511 782.491,458.818 783.736,453.332 784.98,447.378 786.225,450.129 787.469,453.756 788.714,425.515 789.958,468.401 791.203,456.837 792.447,461.209 793.692,457.586 794.936,426.828 796.181,428.204 797.425,440.943 798.67,452.033 799.914,446.423 801.159,459.227 802.403,441.257 803.648,440.77 804.892,459.373 806.137,461.634 807.381,443.158 808.626,455.228 809.871,459.185 811.115,434.585 812.36,449.443 813.604,442.873 814.849,460.135 816.093,449.498 817.338,429.124 818.582,443.192 819.827,438.998 821.071,461.074 822.316,440.739 823.56,434.473 824.805,460.181 826.049,453.962 827.294,435.578 828.538,447.135 829.783,459.578 831.027,440.107 832.272,467.166 833.516,442.529 834.761,445.442 836.005,431.191 837.25,467.928 838.494,441.152 839.739,447.676 840.984,458.744 842.228,449.421 843.473,433.592 844.717,443.104 845.962,435.133 847.206,452.782 848.451,469.033 849.695,437.029 850.94,466.922 852.184,461.782 853.429,445.074 854.673,448.52 855.918,441.358 857.162,451.317 858.407,446.351 859.651,450.342 860.896,466.821 862.14,449.724 863.385,448.887 864.629,483.804 865.874,461.735 867.118,448.169 868.363,462.048 869.607,459.396 870.852,443.778 872.097,435.843 873.341,442.719 874.586,467.718 875.83,453.621 877.075,452.285 878.319,454.429 879.564,450.262 880.808,433.79 882.053,430.73 883.297,442.619 884.542,451.304 885.786,450.531 887.031,446.353 888.275,425.935 889.52,443.409 890.764,443.965 892.009,452.101 893.253,454 894.498,434.864 895.742,471.855 896.987,445.179 898.231,476.082 899.476,437.851 900.721,455.281 901.965,469.619 903.21,443.916 904.454,471.189 905.699,443.087 906.943,456.659 908.188,460.693 909.432,456.273 910.677,441.697 911.921,472.242 913.166,442.16 914.41,432.617 915.655,478.263 916.899,448.116 918.144,464.227 919.388,455.811 920.633,482.306 921.877,443.988 923.122,455.946 924.366,448.695 925.611,454.035 926.855,458.221 928.1,452.627 929.344,441.258 930.589,434.22 931.834,467.942 933.078,451.514 934.323,446.75 935.567,462.692 936.812,462.508 938.056,462.664 939.301,456.588 940.545,455.032 941.79,454.732 943.034,455.977 944.279,456.687 945.523,458.161 946.768,458.179 948.012,458.517 949.257,458.658 950.501,460.583 951.746,460.318 952.99,460.538 954.235,457 955.479,457.048 956.724,471.209 957.968,471.497 959.213,470.976 960.457,471.9 961.702,471.649 962.947,458.415 964.191,458.561 965.436,458.424 966.68,458.671 967.925,458.641 969.169,464.475 970.414,436.203 971.658,456.781 972.903,464.825 974.147,456.082 975.392,456.939 976.636,451.323 977.881,451.305 979.125,443.867 980.37,452.923 981.614,453.612 982.859,452.834 984.103,450.472 985.348,450.112 986.592,450.062 987.837,436.098 989.081,436.434 990.326,435.595 991.57,468.514 992.815,469.475 994.06,468.882 995.304,464.633 996.549,464.158 997.793,443.053 999.038,443.348 1000.28,463.337 1001.53,458.258 1002.77,443.668 1004.02,458.961 1005.26,454.523 1006.5,453.335 1007.75,457.251 1008.99,447.912 1010.24,452.764 1011.48,456.271 1012.73,454.784 1013.97,443.462 1015.22,470.086 1016.46,468.727 1017.71,465.389 1018.95,448.94 1020.19,466.203 1021.44,472.444 1022.68,453.511 1023.93,436.202 1025.17,456.442 1026.42,449.235 1027.66,450.699 1028.91,456.71 1030.15,466.52 1031.4,470.119 1032.64,471.982 1033.88,459.772 1035.13,460.595 1036.37,456.666 1037.62,470.76 1038.86,452.078 1040.11,453.792 1041.35,456.706 1042.6,449.707 1043.84,454.144 1045.08,456.434 1046.33,462.385 1047.57,448.178 1048.82,469.158 1050.06,465.788 1051.31,463.068 1052.55,462.237 1053.8,453.287 1055.04,449.562 1056.29,436.726 1057.53,428.985 1058.77,436.71 1060.02,449.613 1061.26,458.815 1062.51,470.181 1063.75,439.225 1065,457.128 1066.24,480.156 1067.49,439.957 1068.73,442.151 1069.98,427.001 1071.22,458.558 1072.46,427.733 1073.71,459.02 1074.95,431.287 1076.2,452.787 1077.44,456.507 1078.69,443.008 1079.93,470.218 1081.18,449.328 1082.42,437.085 1083.66,461.485 1084.91,454.205 1086.15,441.707 1087.4,442.219 1088.64,467.9 1089.89,457.101 1091.13,447.937 1092.38,448.941 1093.62,470.958 1094.87,437.861 1096.11,463.452 1097.35,448.355 1098.6,455.426 1099.84,462.192 1101.09,443.691 1102.33,455.573 1103.58,446.303 1104.82,461.179 1106.07,443.909 1107.31,442.553 1108.56,452.535 1109.8,445.892 1111.04,452.725 1112.29,452.49 1113.53,467.906 1114.78,435.024 1116.02,469.371 1117.27,439.427 1118.51,463.715 1119.76,443.109 1121,458.034 1122.25,444.23 1123.49,460.706 1124.73,434.635 1125.98,477.191 1127.22,458.965 1128.47,463.155 1129.71,439.19 1130.96,435.664 1132.2,434.347 1133.45,445.78 1134.69,454.009 1135.93,454.068 1137.18,447.7 1138.42,445.644 1139.67,465.255 1140.91,469.463 1142.16,466.696 1143.4,458.103 1144.65,418.792 1145.89,424.386 1147.14,424.663 1148.38,419.907 1149.62,437.242 1150.87,419.701 1152.11,442.633 1153.36,448.552 1154.6,443.093 1155.85,457.827 1157.09,451.371 1158.34,458.134 1159.58,447.195 1160.83,450.543 1162.07,437.296 1163.31,449.752 1164.56,456.509 1165.8,463.335 1167.05,466.003 1168.29,462.738 1169.54,469.287 1170.78,457.751 1172.03,450.38 1173.27,456.779 1174.51,446.958 1175.76,433.116 1177,436.183 1178.25,442.991 1179.49,448.51 1180.74,455.228 1181.98,471.155 1183.23,476.234 1184.47,460.381 1185.72,453.18 1186.96,460.676 1188.2,476.781 1189.45,461.327 1190.69,462.312 1191.94,452.161 1193.18,461.492 1194.43,461.234 1195.67,456.732 1196.92,464.931 1198.16,466.893 1199.41,467.147 1200.65,465.476 1201.89,467.138 1203.14,442.937 1204.38,441.608 1205.63,453.687 1206.87,443.041 1208.12,456.629 1209.36,461.038 1210.61,471.676 1211.85,477.911 1213.1,473.892 1214.34,474.938 1215.58,470.585 1216.83,454.069 1218.07,468.234 1219.32,460.226 1220.56,461.528 1221.81,455.686 1223.05,451.72 1224.3,454.196 1225.54,457.783 1226.78,457.729 1228.03,454.304 1229.27,468.073 1230.52,469.414 1231.76,465.946 1233.01,466.185 1234.25,441.349 1235.5,458.143 1236.74,456.208 1237.99,460.023 1239.23,443.316 1240.47,443.884 1241.72,448.421 1242.96,435.947 1244.21,446.075 1245.45,448.539 1246.7,449.794 1247.94,451.376 1249.19,458.709 1250.43,453.003 1251.68,451.593 1252.92,454.127 1254.16,451.432 1255.41,460.453 1256.65,453.073 1257.9,451.889 1259.14,459.247 1260.39,442.554 1261.63,456.824 1262.88,459.356 1264.12,466.212 1265.36,449.108 1266.61,452.919 1267.85,450.268 1269.1,441.742 1270.34,461.278 1271.59,459.293 1272.83,452.06 1274.08,448.454 1275.32,458.573 1276.57,452.998 1277.81,473.172 1279.05,465.401 1280.3,470.863 1281.54,451.852 1282.79,466.067 1284.03,446.18 1285.28,463.422 1286.52,441.047 1287.77,448.202 1289.01,442.953 1290.26,476.881 1291.5,447.243 1292.74,463.037 1293.99,442.042 1295.23,447.252 1296.48,468.917 1297.72,450.661 1298.97,440.382 1300.21,451.519 1301.46,454.99 1302.7,442.484 1303.95,454.037 1305.19,470.92 1306.43,451.718 1307.68,439.886 1308.92,467.162 1310.17,459.6 1311.41,444.621 1312.66,453.858 1313.9,469.273 1315.15,433.749 1316.39,431.183 1317.63,447.356 1318.88,439.466 1320.12,447.725 1321.37,453.62 1322.61,471.562 1323.86,428.091 1325.1,450.743 1326.35,452.083 1327.59,446.201 1328.84,442.786 1330.08,444.173 1331.32,443.188 1332.57,445.19 1333.81,449.448 1335.06,454.782 1336.3,440.185 1337.55,443.126 1338.79,452.544 1340.04,458.813 1341.28,470.91 1342.53,452.886 1343.77,453.19 1345.01,464.387 1346.26,458.06 1347.5,445.707 1348.75,460.121 1349.99,442.655 1351.24,470.916 1352.48,449.458 1353.73,422.589 1354.97,444.639 1356.21,441.848 1357.46,461.595 1358.7,451.843 1359.95,455.324 1361.19,432.919 1362.44,457.61 1363.68,419.939 1364.93,469.037 1366.17,445.619 1367.42,434.515 1368.66,428.49 1369.9,414.996 1371.15,427.267 1372.39,422.157 1373.64,420.811 1374.88,421.711 1376.13,424.908 1377.37,436.961 1378.62,458.856 1379.86,447.182 1381.11,447.11 1382.35,443.139 1383.59,456.939 1384.84,463.287 1386.08,431.28 1387.33,431.735 1388.57,433.071 1389.82,434.963 1391.06,439.322 1392.31,468.63 1393.55,453.817 1394.8,437.543 1396.04,459.045 1397.28,455.163 1398.53,458.816 1399.77,458.453 1401.02,465.955 1402.26,465.241 1403.51,465.061 1404.75,458.462 1406,448.006 1407.24,468.312 1408.48,458.486 1409.73,458.675 1410.97,458.93 1412.22,447.547 1413.46,467.364 1414.71,469.22 1415.95,455.051 1417.2,458.505 1418.44,458.482 1419.69,459.969 1420.93,453.843 1422.17,456.547 1423.42,465.146 1424.66,438.742 1425.91,433.343 1427.15,456.382 1428.4,446.759 1429.64,461.136 1430.89,449.713 1432.13,449.225 1433.38,457.146 1434.62,450.235 1435.86,436.135 1437.11,452.149 1438.35,450.187 1439.6,446.961 1440.84,442.665 1442.09,440.082 1443.33,457.961 1444.58,439.893 1445.82,461.753 1447.06,463.232 1448.31,461.977 1449.55,444.881 1450.8,468.037 1452.04,447.674 1453.29,449.842 1454.53,447.877 1455.78,451.26 1457.02,448.351 1458.27,449.153 1459.51,440.82 1460.75,438.285 1462,442.421 1463.24,438.496 1464.49,436.873 1465.73,433.861 1466.98,446.922 1468.22,453.227 1469.47,453.004 1470.71,452.431 1471.96,451.876 1473.2,453.193 1474.44,450.562 1475.69,452.107 1476.93,470.669 1478.18,471.012 1479.42,477.003 1480.67,476.598 1481.91,472.706 1483.16,470.307 1484.4,448.058 1485.65,454.974 1486.89,447.008 1488.13,454.419 1489.38,464.757 1490.62,468.745 1491.87,466.884 1493.11,463.982 1494.36,463.496 1495.6,474.613 1496.85,471.457 1498.09,462.523 1499.33,460.212 1500.58,460.416 1501.82,459.271 1503.07,462.685 1504.31,465.377 1505.56,452.697 1506.8,458.808 1508.05,455.608 1509.29,462.013 1510.54,464.951 1511.78,452.754 1513.02,452.162 1514.27,436.419 1515.51,435.279 1516.76,452.917 1518,465.864 1519.25,454.515 1520.49,439.281 1521.74,452.764 1522.98,448.721 1524.23,465.521 1525.47,466.677 1526.71,449.028 1527.96,450.513 1529.2,450.105 1530.45,466.603 1531.69,460.307 1532.94,456.079 1534.18,462.482 1535.43,458.446 1536.67,452.089 1537.91,453.782 1539.16,446.679 1540.4,445.408 1541.65,440.352 1542.89,463.535 1544.14,477.167 1545.38,464.93 1546.63,454.875 1547.87,457.267 1549.12,463.875 1550.36,458.035 1551.6,454.623 1552.85,452.913 1554.09,457.34 1555.34,456.373 1556.58,456.169 1557.83,462.182 1559.07,469.942 1560.32,440.479 1561.56,443.906 1562.81,456.022 1564.05,454.046 1565.29,455.55 1566.54,465.257 1567.78,460.216 1569.03,441.411 1570.27,443.564 1571.52,443.875 1572.76,454.181 1574.01,445.564 1575.25,447.961 1576.5,457.435 1577.74,446.977 1578.98,452.576 1580.23,445.721 1581.47,462.76 1582.72,468.713 1583.96,440.496 1585.21,475.403 1586.45,441.649 1587.7,457.75 1588.94,456.468 1590.18,438.052 1591.43,434.7 1592.67,465.213 1593.92,441.326 1595.16,448.677 1596.41,437.386 1597.65,444.403 1598.9,453.346 1600.14,448.633 1601.39,466.63 1602.63,434.735 1603.87,475.206 1605.12,437.636 1606.36,461.406 1607.61,427.423 1608.85,451.669 1610.1,482.086 1611.34,444.274 1612.59,436.3 1613.83,466.023 1615.08,468.398 1616.32,440.034 1617.56,449.765 1618.81,452.985 1620.05,440.527 1621.3,446.686 1622.54,475.879 1623.79,474.75 1625.03,441.772 1626.28,448.357 1627.52,451.629 1628.76,458.952 1630.01,444.156 1631.25,462.086 1632.5,454.466 1633.74,439.575 1634.99,451.625 1636.23,420.01 1637.48,440.004 1638.72,477.179 1639.97,448.329 1641.21,459.921 1642.45,450.709 1643.7,471.328 1644.94,421.724 1646.19,458.12 1647.43,468.408 1648.68,446.98 1649.92,445.8 1651.17,477.719 1652.41,438.029 1653.66,462.203 1654.9,433.005 1656.14,458.034 1657.39,449.74 1658.63,457.134 1659.88,435.788 1661.12,426.81 1662.37,437.129 1663.61,442.929 1664.86,451.832 1666.1,454.384 1667.35,460.607 1668.59,476.439 1669.83,472.882 1671.08,459.564 1672.32,451.668 1673.57,436.209 1674.81,452.253 1676.06,433.41 1677.3,418.448 1678.55,434.401 1679.79,446.788 1681.03,449.036 1682.28,445.971 1683.52,441.773 1684.77,446.305 1686.01,461.511 1687.26,464.005 1688.5,459.061 1689.75,451.242 1690.99,466.739 1692.24,456.935 1693.48,444.906 1694.72,448.492 1695.97,472.667 1697.21,458.132 1698.46,453.652 1699.7,461.434 1700.95,433.749 1702.19,432.579 1703.44,467.686 1704.68,434.363 1705.93,430.228 1707.17,437.174 1708.41,451.981 1709.66,465.362 1710.9,443.028 1712.15,482.871 1713.39,431.928 1714.64,465.097 1715.88,443.39 1717.13,456.711 1718.37,452.202 1719.61,435.977 1720.86,456.499 1722.1,452.722 1723.35,456.434 1724.59,464.513 1725.84,453.554 1727.08,455.169 1728.33,453.777 1729.57,449.969 1730.82,420.084 1732.06,447.177 1733.3,446.832 1734.55,424.293 1735.79,431.211 1737.04,435.587 1738.28,457.695 1739.53,448.476 1740.77,454.428 1742.02,427.336 1743.26,474.384 1744.51,426.87 1745.75,474.056 1746.99,430.161 1748.24,443.735 1749.48,453.144 1750.73,455.77 1751.97,453.327 1753.22,438.217 1754.46,483.168 1755.71,479.576 1756.95,431.475 1758.19,479.12 1759.44,440.609 1760.68,469.407 1761.93,438.605 1763.17,472.32 1764.42,433.326 1765.66,475.378 1766.91,434.358 1768.15,475.341 1769.4,468.09 1770.64,440.612 1771.88,461.376 1773.13,447.504 1774.37,439.051 1775.62,451.022 1776.86,458.611 1778.11,449.435 1779.35,450.932 1780.6,446.935 1781.84,439.773 1783.09,447.392 1784.33,458.302 1785.57,444.93 1786.82,430.758 1788.06,435.24 1789.31,443.821 1790.55,442.122 1791.8,448.108 1793.04,442.778 1794.29,462.956 1795.53,465.159 1796.78,454.472 1798.02,453.306 1799.26,454.721 1800.51,458.732 1801.75,461.68 1803,471.95 1804.24,438.064 1805.49,465.309 1806.73,440.824 1807.98,451.427 1809.22,465.6 1810.46,441.695 1811.71,461.705 1812.95,446.386 1814.2,451.873 1815.44,449.902 1816.69,445.045 1817.93,432.003 1819.18,445.34 1820.42,455.368 1821.67,447.05 1822.91,455.591 1824.15,452.528 1825.4,446.028 1826.64,473.882 1827.89,440.17 1829.13,457.343 1830.38,450.126 1831.62,435.486 1832.87,435.543 1834.11,451.893 1835.36,432.772 1836.6,434.319 1837.84,431.699 1839.09,454.324 1840.33,454.785 1841.58,453.967 1842.82,450.75 1844.07,445.823 1845.31,450.953 1846.56,452.897 1847.8,453.069 1849.04,456.187 1850.29,460.704 1851.53,458.839 1852.78,451.388 1854.02,454.596 1855.27,453.392 1856.51,452.432 1857.76,448.559 1859,457.004 1860.25,456.365 1861.49,453.112 1862.73,453.503 1863.98,451.636 1865.22,451.371 1866.47,447.837 1867.71,454.03 1868.96,453.64 1870.2,452.11 1871.45,459.591 1872.69,457.777 1873.94,470.092 1875.18,443.309 1876.42,447.543 1877.67,446.619 1878.91,445.994 1880.16,456.727 1881.4,455.72 1882.65,456.316 1883.89,456.408 1885.14,455.697 1886.38,464.384 1887.63,467.48 1888.87,461.476 1890.11,449.321 1891.36,451.217 1892.6,454.188 1893.85,454.42 1895.09,456.105 1896.34,452.365 1897.58,456.822 1898.83,464.468 1900.07,461.526 1901.31,461.185 1902.56,468.339 1903.8,461.898 1905.05,460.493 1906.29,455.357 1907.54,453.781 1908.78,454.632 1910.03,451.823 1911.27,452.345 1912.52,453.224 1913.76,452.964 1915,454.205 1916.25,468.638 1917.49,464.384 1918.74,460.793 1919.98,463.652 1921.23,459.875 1922.47,460.424 1923.72,453.088 1924.96,453.806 1926.21,448.558 1927.45,449.62 1928.69,450.524 1929.94,448.353 1931.18,452.232 1932.43,448.098 1933.67,448.471 1934.92,438.562 1936.16,463.363 1937.41,455.125 1938.65,439.362 1939.89,454.028 1941.14,459.059 1942.38,451.801 1943.63,458.592 1944.87,463.778 1946.12,461.022 1947.36,457.847 1948.61,453.819 1949.85,453.475 1951.1,448.957 1952.34,445.397 1953.58,444.546 1954.83,440.013 1956.07,437.833 1957.32,435.851 1958.56,433.085 1959.81,448.316 1961.05,448.17 1962.3,441.473 1963.54,442.519 1964.79,450.154 1966.03,446.031 1967.27,441.733 1968.52,452.72 1969.76,454.777 1971.01,447.404 1972.25,442.932 1973.5,442.809 1974.74,462.388 1975.99,444.687 1977.23,467.249 1978.48,430.476 1979.72,452.204 1980.96,461.296 1982.21,450.2 1983.45,460.06 1984.7,448.285 1985.94,455.908 1987.19,448.829 1988.43,422.488 1989.68,444.544 1990.92,446.293 1992.16,458.793 1993.41,450.111 1994.65,456.368 1995.9,475.581 1997.14,433.221 1998.39,483.02 1999.63,479.636 2000.88,424.006 2002.12,468.23 2003.37,435.522 2004.61,456.265 2005.85,456.257 2007.1,436.817 2008.34,452.901 2009.59,459.447 2010.83,451.322 2012.08,448.64 2013.32,429.48 2014.57,479.519 2015.81,430.188 2017.06,479.642 2018.3,430.951 2019.54,434.722 2020.79,470.226 2022.03,437.182 2023.28,451.847 2024.52,437.211 2025.77,472.929 2027.01,441.263 2028.26,483.863 2029.5,437.969 2030.74,447.615 2031.99,465.419 2033.23,439.904 2034.48,465.316 2035.72,470.515 2036.97,444.408 2038.21,451.625 2039.46,451.867 2040.7,460.379 2041.95,460.761 2043.19,447.796 2044.43,458.244 2045.68,450.734 2046.92,435.656 2048.17,472.702 2049.41,436.485 2050.66,457.424 2051.9,447.765 2053.15,458.635 2054.39,456.114 2055.64,450.508 2056.88,481.568 2058.12,439.494 2059.37,447.971 2060.61,459.794 2061.86,434.822 2063.1,448.938 2064.35,457.488 2065.59,433.908 2066.84,446.117 2068.08,440.882 2069.33,469.19 2070.57,440.525 2071.81,466.208 2073.06,442.479 2074.3,462.286 2075.55,440.938 2076.79,465.48 2078.04,436.186 2079.28,439.233 2080.53,444.866 2081.77,427.644 2083.01,423.333 2084.26,462.692 2085.5,444.603 2086.75,462.218 2087.99,428.981 2089.24,427.105 2090.48,461.952 2091.73,445.225 2092.97,459.589 2094.22,449.065 2095.46,450.245 2096.7,460.102 2097.95,446.884 2099.19,436.624 2100.44,473.254 2101.68,444.061 2102.93,443.768 2104.17,463.598 2105.42,425.652 2106.66,473.464 2107.91,437.308 2109.15,447.556 2110.39,461.785 2111.64,447.76 2112.88,456.248 2114.13,436.262 2115.37,449.584 2116.62,442.497 2117.86,461.916 2119.11,444.64 2120.35,454.401 2121.59,442.03 2122.84,455.74 2124.08,447.513 2125.33,460.679 2126.57,440.767 2127.82,432.071 2129.06,425.107 2130.31,421.42 2131.55,434.452 2132.8,444.806 2134.04,464.168 2135.28,437.447 2136.53,467.726 2137.77,439.615 2139.02,461.672 2140.26,450.717 2141.51,438.657 2142.75,451.369 2144,458.973 2145.24,456.094 2146.49,453.474 2147.73,453.868 2148.97,453.318 2150.22,445.938 2151.46,457.805 2152.71,452.08 2153.95,449.7 2155.2,458.751 2156.44,450.986 2157.69,454.479 2158.93,457.742 2160.18,450.1 2161.42,419.832 2162.66,412.5 2163.91,483.177 2165.15,453.984 2166.4,449.624 2167.64,472.974 2168.89,438.314 2170.13,453.485 2171.38,433.081 2172.62,477.926 2173.86,437.618 2175.11,474.911 2176.35,431.824 2177.6,472.552 2178.84,431.983 2180.09,476.267 2181.33,430.435 2182.58,452.217 2183.82,457.392 2185.07,455.776 2186.31,455.549 2187.55,450.912 2188.8,459.055 2190.04,452.118 2191.29,458.637 2192.53,447.216 2193.78,438.469 2195.02,472.381 2196.27,437.512 2197.51,470.787 2198.76,440.97 2200,469.544 2201.24,450.019 2202.49,462.101 2203.73,437.409 2204.98,479.419 2206.22,431.247 2207.47,457.727 2208.71,433.534 2209.96,476.119 2211.2,428.937 2212.44,464.973 2213.69,445.814 2214.93,459.452 2216.18,452.141 2217.42,459.777 2218.67,453.088 2219.91,451.461 2221.16,485.29 2222.4,435.6 2223.65,474.093 2224.89,430.084 2226.13,476.341 2227.38,462.405 2228.62,438.546 2229.87,456.503 2231.11,452.612 2232.36,453.068 2233.6,462.866 2234.85,459.156 2236.09,451.889 2237.34,435.339 2238.58,459.238 2239.82,464.705 2241.07,438.392 2242.31,420.153 2243.56,421.445 2244.8,432.507 2246.05,444.527 2247.29,437.489 2248.54,441.127 2249.78,447.252 2251.03,439.125 2252.27,444.783 2253.51,446.745 2254.76,443.485 2256,442.655 2257.25,451.847 2258.49,458.477 2259.74,460.345 2260.98,434.006 2262.23,435.255 2263.47,449.884 2264.71,444.867 2265.96,452.308 2267.2,443.308 2268.45,448.229 2269.69,446.914 2270.94,446.141 2272.18,462.93 2273.43,446.077 2274.67,442.733 2275.92,458.159 2277.16,460.075 2278.4,446.18 2279.65,463.326 2280.89,440.996 2282.14,446.265 2283.38,444.784 2284.63,450.617 2285.87,453.8 2287.12,433.966 2288.36,442.604 2289.61,447.319 2290.85,441.787 2292.09,448.148 2293.34,477.94 2294.58,421.553 2295.83,455.015 2297.07,452.61 2298.32,458.869 2299.56,469.876 2300.81,436.773 2302.05,472.721 2303.29,427.404 2304.54,442.309 2305.78,430.579 2307.03,443.282 2308.27,464.466 2309.52,447.903 2310.76,463.251 2312.01,443.178 2313.25,467.963 2314.5,441.517 2315.74,456.281 2316.98,443.275 2318.23,437.466 2319.47,428.787 2320.72,473.713 2321.96,433.994 2323.21,435.298 2324.45,441.912 2325.7,422.755 2326.94,444.777 2328.19,462.045 2329.43,436.429 2330.67,433.019 2331.92,470.751 2333.16,436.104 2334.41,466.064 2335.65,445.937 2336.9,459.496 2338.14,452.238 2339.39,426.677 2340.63,478.415 2341.87,430.162 2343.12,480.372 2344.36,421.512 2345.61,479.87 2346.85,429.465 2348.1,481.56 2349.34,426.265 2350.59,442.359 2351.83,466.812 2353.08,442.661 2354.32,430.331 2355.56,474.005 2356.81,436.923 2358.05,436.456 2359.3,465.193 2360.54,439.42 2361.79,446.898 2363.03,421.403 2364.28,455.05 2365.52,469.34 2366.77,440.864 2368.01,436.207 2369.25,459.07 2370.5,439.971 2371.74,458.071 2372.99,451.126 2374.23,458.412 2375.48,446.999 2376.72,453.585 2377.97,455.113 2379.21,460.961 2380.46,449.599 2381.7,447.989 2382.94,461.045 2384.19,434.223 2385.43,433.059 2386.68,448.653 2387.92,448.805 2389.17,437.584 2390.41,456.014 2391.66,456.581 2392.9,452.618 2394.14,442.382 2395.39,451.328 2396.63,464.167 2397.88,465.665 2399.12,445.006 2400.37,458.532 2401.61,447.429 2402.86,451.428 2404.1,457.877 2405.35,425.071 2406.59,468.639 2407.83,447.833 2409.08,429.62 2410.32,455.678 2411.57,451.909 2412.81,436.402 2414.06,426.467 2415.3,425.199 2416.55,451.012 2417.79,433.165 2419.04,466.392 2420.28,460.921 2421.52,464.771 2422.77,440.446 2424.01,424.066 2425.26,462.854 2426.5,451.54 2427.75,450.284 2428.99,437.84 2430.24,429.884 2431.48,440.097 2432.72,482.229 2433.97,419.474 2435.21,438.82 2436.46,449.3 2437.7,460.802 2438.95,449.919 2440.19,458.44 2441.44,444.515 2442.68,475.91 2443.93,435.967 2445.17,449.257 2446.41,453.608 2447.66,456.717 2448.9,422.079 2450.15,417.056 2451.39,425.703 2452.64,430.195 2453.88,472.785 2455.13,433.332 2456.37,478.78 2457.62,443.459 2458.86,465.239 2460.1,445.053 2461.35,444.978 2462.59,452.057 2463.84,459.452 2465.08,447.952 2466.33,457.78 2467.57,455.047 2468.82,442.52 2470.06,431.092 2471.31,482.524 2472.55,428.928 2473.79,473.739 2475.04,433.093 2476.28,434.318 2477.53,452.183 2478.77,444.297 2480.02,422.439 2481.26,469.775 2482.51,439.718 2483.75,449.71 2484.99,443.318 2486.24,445.638 2487.48,441.983 2488.73,457.908 2489.97,462.312 2491.22,465.403 2492.46,451.435 2493.71,444.455 2494.95,446.85 2496.2,454.142 2497.44,452.133 2498.68,442.899 2499.93,455.941 2501.17,460.31 2502.42,454.413 2503.66,466.447 2504.91,454.066 2506.15,450.338 2507.4,448.561 2508.64,446.537 2509.89,439.645 2511.13,455.957 2512.37,452.011 2513.62,450.716 2514.86,453.05 2516.11,453.111 2517.35,434.328 2518.6,444.26 2519.84,445.527 2521.09,465.245 2522.33,452.506 2523.57,457.039 2524.82,451.202 2526.06,470.253 2527.31,457.403 2528.55,468.777 2529.8,468.8 2531.04,460.505 2532.29,454.919 2533.53,453.394 2534.78,455.895 2536.02,442.857 2537.26,460.814 2538.51,450.911 2539.75,447.98 2541,447.902 2542.24,440.005 2543.49,447.014 2544.73,452.485 2545.98,457.892 2547.22,456.007 2548.47,452.478 2549.71,459.829 2550.95,445.38 2552.2,452.531 2553.44,451.636 2554.69,453.441 2555.93,444.776 2557.18,456.784 2558.42,458.831 2559.67,444.453 2560.91,455.166 2562.16,454.138 2563.4,448.913 2564.64,464.873 2565.89,429.674 2567.13,466.025 2568.38,439.89 2569.62,458.974 2570.87,439.209 2572.11,474.298 2573.36,455.349 2574.6,454.609 2575.84,446.048 2577.09,461.671 2578.33,460.607 2579.58,470.992 2580.82,438.983 2582.07,460.1 2583.31,464.736 2584.56,460.579 2585.8,438.749 2587.05,457.815 2588.29,433.1 2589.53,453.699 2590.78,441.222 2592.02,451.221 2593.27,438.534 2594.51,466.91 2595.76,444.102 2597,462.674 2598.25,446.589 2599.49,454.601 2600.74,453.778 2601.98,461.365 2603.22,429.299 2604.47,461.287 2605.71,453.213 2606.96,426.481 2608.2,446.106 2609.45,444.823 2610.69,448.045 2611.94,461.328 2613.18,447.69 2614.42,464.26 2615.67,441.733 2616.91,471.466 2618.16,445.274 2619.4,446.179 2620.65,449.953 2621.89,452.983 2623.14,466.715 2624.38,453.815 2625.63,454.602 2626.87,458.872 2628.11,458.737 2629.36,448.529 2630.6,462.614 2631.85,464.769 2633.09,471.776 2634.34,446.55 2635.58,446.744 2636.83,444.963 2638.07,438.367 2639.32,436.732 2640.56,435.406 2641.8,447.235 2643.05,458.104 2644.29,455.121 2645.54,468.322 2646.78,468.833 2648.03,469.63 2649.27,466.007 2650.52,467.304 2651.76,444.584 2653.01,428.733 2654.25,420.455 2655.49,426.453 2656.74,460.4 2657.98,465.459 2659.23,458.045 2660.47,438.185 2661.72,449.929 2662.96,441.102 2664.21,444.365 2665.45,439.346 2666.69,455.463 2667.94,465.758 2669.18,454.505 2670.43,458.901 2671.67,441.031 2672.92,448.352 2674.16,438.579 2675.41,452.15 2676.65,447.708 2677.9,447.276 2679.14,487.792 2680.38,443.047 2681.63,470.303 2682.87,469.933 2684.12,466.897 2685.36,464.919 2686.61,461.12 2687.85,465.36 2689.1,436.929 2690.34,440.192 2691.59,442.896 2692.83,439.309 2694.07,438.972 2695.32,441.416 2696.56,448.776 2697.81,446.421 2699.05,446.528 2700.3,445.654 2701.54,449.466 2702.79,448.573 2704.03,453.923 2705.27,452.229 2706.52,444.447 2707.76,452.783 2709.01,456.885 2710.25,458.845 2711.5,454.306 2712.74,454.192 2713.99,458.397 2715.23,449.402 2716.48,453.396 2717.72,446.014 2718.96,448.336 2720.21,445.66 2721.45,442.301 2722.7,440.908 2723.94,441.285 2725.19,447.747 2726.43,454.266 2727.68,443.133 2728.92,473.401 2730.17,452.379 2731.41,453.462 2732.65,456.589 2733.9,458.297 2735.14,454.133 2736.39,443.519 2737.63,452.599 2738.88,450.151 2740.12,443.924 2741.37,439.156 2742.61,446.319 2743.86,445.508 2745.1,433.352 2746.34,448.765 2747.59,449.79 2748.83,450.295 2750.08,447.128 2751.32,450.167 2752.57,455.379 2753.81,451.199 2755.06,448.071 2756.3,459.525 2757.54,453.719 2758.79,448.838 2760.03,448.887 2761.28,452.237 2762.52,453.489 2763.77,446.768 2765.01,456.599 2766.26,454.559 2767.5,454.932 2768.75,464.622 2769.99,465.092 2771.23,463.495 2772.48,466.442 2773.72,470.722 2774.97,471.012 2776.21,474.875 2777.46,443.672 2778.7,452.996 2779.95,440.498 2781.19,447.062 2782.44,440.017 2783.68,441.827 2784.92,445.224 2786.17,446.586 2787.41,444.611 2788.66,441.025 2789.9,453.876 2791.15,452.504 2792.39,449.772 2793.64,455.784 2794.88,458.314 2796.12,456.272 2797.37,457.544 2798.61,463.494 2799.86,467.21 2801.1,467.025 2802.35,466.338 2803.59,466.065 2804.84,454.82 2806.08,457.565 2807.33,458.975 2808.57,458.419 2809.81,440.26 2811.06,458.438 2812.3,433.268 2813.55,464.826 2814.79,449.466 2816.04,462.494 2817.28,445.346 2818.53,471.76 2819.77,437.675 2821.02,418.279 2822.26,461.595 2823.5,446.706 2824.75,477.509 2825.99,427.333 2827.24,477.439 2828.48,430.231 2829.73,448.322 2830.97,460.045 2832.22,447.076 2833.46,451.401 2834.71,429.586 2835.95,473.488 2837.19,438.367 2838.44,467.666 2839.68,432.5 2840.93,476.179 2842.17,455.694 2843.42,450.716 2844.66,448.909 2845.91,451.146 2847.15,464.044 2848.39,473.244 2849.64,443.999 2850.88,470.321 2852.13,439.976 2853.37,476.573 2854.62,430.708 2855.86,478.19 2857.11,428.747 2858.35,488.5 2859.6,426.257 2860.84,484.288 2862.08,423.597 2863.33,434.707 2864.57,441.045 2865.82,446.141 2867.06,451.715 2868.31,455.41 2869.55,452.836 2870.8,435.744 2872.04,457.726 2873.29,442.626 2874.53,462.727 2875.77,468.642 2877.02,466.283 2878.26,462.358 2879.51,465.266 2880.75,459.269 2882,456.97 2883.24,435.695 2884.49,448.854 2885.73,443.402 2886.97,443.36 2888.22,438.654 2889.46,432.304 2890.71,432.115 2891.95,435.898 2893.2,441.335 2894.44,443.108 2895.69,442.05 2896.93,446.868 2898.18,440.385 2899.42,446.904 2900.66,457.909 2901.91,477.429 2903.15,479.769 2904.4,472.117 2905.64,460.964 2906.89,453.29 2908.13,450.739 2909.38,457.405 2910.62,457.299 2911.87,450.637 2913.11,450.719 2914.35,457.034 2915.6,451.439 2916.84,435.816 2918.09,445.423 2919.33,450.386 2920.58,446.427 2921.82,448.354 2923.07,451.907 2924.31,454.805 2925.56,453.084 2926.8,451.562 2928.04,447.987 2929.29,443.21 2930.53,447.803 2931.78,445.757 2933.02,446.86 2934.27,440.329 2935.51,434.794 2936.76,436.754 2938,435.75 2939.24,427.72 2940.49,470.135 2941.73,442.382 2942.98,420.27 2944.22,437.398 2945.47,452.884 2946.71,475.318 2947.96,435.879 2949.2,485.334 2950.45,477.55 2951.69,450.99 2952.93,451.772 2954.18,466.062 2955.42,448.439 2956.67,427.206 2957.91,444.966 2959.16,441.269 2960.4,452.687 2961.65,461.466 2962.89,446.498 2964.14,465.496 2965.38,444.064 2966.62,452.722 2967.87,450.081 2969.11,430.767 2970.36,456.326 2971.6,457.835 2972.85,446.907 2974.09,461.309 2975.34,441.369 2976.58,459.582 2977.82,458.6 2979.07,446.296 2980.31,461.244 2981.56,450.73 2982.8,450.369 2984.05,444.01 2985.29,447.592 2986.54,458.621 2987.78,458.665 2989.03,471.091 2990.27,440.378 2991.51,470.079 2992.76,444.979 2994,456.704 2995.25,459.578 2996.49,443.678 2997.74,466.848 2998.98,461.696 3000.23,453.917 3001.47,457.497 3002.72,454.323 3003.96,451.263 3005.2,438.403 3006.45,467.865 3007.69,460.842 3008.94,442.862 3010.18,475.914 3011.43,425.006 3012.67,445.661 3013.92,477.541 3015.16,437.955 3016.4,454.349 3017.65,444.98 3018.89,454.522 3020.14,453.012 3021.38,455.821 3022.63,462.128 3023.87,450.624 3025.12,456.875 3026.36,484.415 3027.61,438.438 3028.85,446.172 3030.09,458.06 3031.34,446.905 3032.58,448.663 3033.83,459.704 3035.07,480.317 3036.32,434.005 3037.56,428.636 3038.81,466.807 3040.05,446.659 3041.3,453.9 3042.54,485.016 3043.78,440.988 3045.03,448.064 3046.27,437.828 3047.52,469.603 3048.76,448.998 3050.01,452.375 3051.25,444.615 3052.5,469.335 3053.74,429.634 3054.99,467.718 3056.23,464.076 3057.47,445.293 3058.72,434.315 3059.96,427.939 3061.21,453.92 3062.45,436.082 3063.7,471.158 3064.94,440.079 3066.19,460.541 3067.43,469.679 3068.67,451.567 3069.92,454.125 3071.16,450.671 3072.41,467.402 3073.65,439.38 3074.9,423.942 3076.14,478.869 3077.39,421.395 3078.63,473.593 3079.88,462.748 3081.12,450.888 3082.36,433.851 3083.61,460.497 3084.85,453.113 3086.1,453.966 3087.34,448.322 3088.59,454.929 3089.83,450.272 3091.08,436.763 3092.32,447.652 3093.57,451.621 3094.81,459.274 3096.05,447.97 3097.3,458.867 3098.54,457.481 3099.79,438.755 3101.03,453.551 3102.28,452.128 3103.52,453.912 3104.77,427.397 3106.01,451.66 3107.25,442.899 3108.5,457.824 3109.74,451.077 3110.99,426.67 3112.23,453.572 3113.48,443.707 3114.72,466.707 3115.97,446.692 3117.21,452.837 3118.46,442.474 3119.7,458.434 3120.94,468.233 3122.19,447.784 3123.43,467.146 3124.68,421.17 3125.92,481.304 3127.17,451.038 3128.41,453.985 3129.66,448.198 3130.9,455.576 3132.15,441.059 3133.39,460.472 3134.63,447.792 3135.88,460.705 3137.12,430.553 3138.37,467.35 3139.61,434.862 3140.86,455.076 3142.1,426.81 3143.35,467.053 3144.59,435.803 3145.84,471.492 3147.08,424.211 3148.32,462.354 3149.57,435.806 3150.81,454.664 3152.06,434.024 3153.3,449.512 3154.55,447.484 3155.79,461.862 3157.04,454.051 3158.28,452.021 3159.52,457.705 3160.77,442.089 3162.01,467.645 3163.26,434.407 3164.5,458.955 3165.75,450.584 3166.99,457.972 3168.24,451.443 3169.48,482.236 3170.73,434.085 3171.97,465.333 3173.21,445.165 3174.46,434.324 3175.7,472.874 3176.95,435.041 3178.19,478.431 3179.44,431.318 3180.68,455.827 3181.93,452.499 3183.17,457.475 3184.42,441.325 3185.66,467.327 3186.9,440.883 3188.15,453.385 3189.39,464.514 3190.64,445.491 3191.88,448.394 3193.13,437.452 3194.37,433.243 3195.62,467.55 3196.86,424.427 3198.1,452.775 3199.35,453.339 3200.59,445.904 3201.84,453.383 3203.08,453.943 3204.33,449.173 3205.57,467.036 3206.82,450.972 3208.06,452.87 3209.31,441.479 3210.55,466.321 3211.79,450.079 3213.04,434.222 3214.28,444.306 3215.53,445.581 3216.77,448.354 3218.02,459.874 3219.26,449.739 3220.51,464.794 3221.75,445.848 3223,467.622 3224.24,446.903 3225.48,448.02 3226.73,480.58 3227.97,441.013 3229.22,421.272 3230.46,445.19 3231.71,466.005 3232.95,427.439 3234.2,441.401 3235.44,461.219 3236.69,445.857 3237.93,471.67 3239.17,436.903 3240.42,466.209 3241.66,438.316 3242.91,472.27 3244.15,430.241 3245.4,454.777 3246.64,436.169 3247.89,462.474 3249.13,447.903 3250.37,441.428 3251.62,437.809 3252.86,476.597 3254.11,433.34 3255.35,468.963 3256.6,436.917 3257.84,422.743 3259.09,423.053 3260.33,436.475 3261.58,470.8 3262.82,444.938 3264.06,444.696 3265.31,438.415 3266.55,440.499 3267.8,444.92 3269.04,453.371 3270.29,447.179 3271.53,460.876 3272.78,428.655 3274.02,452.043 3275.27,472.789 3276.51,448.085 3277.75,450.658 3279,430.482 3280.24,446.713 3281.49,442.801 3282.73,454.163 3283.98,470.557 3285.22,436.938 3286.47,437.215 3287.71,432.726 3288.95,459.144 3290.2,474.192 3291.44,449.102 3292.69,460.588 3293.93,435.061 3295.18,418.719 3296.42,437.291 3297.67,463.205 3298.91,454.723 3300.16,454.392 3301.4,445.864 3302.64,438.003 3303.89,454.819 3305.13,463.204 3306.38,447.704 3307.62,458.703 3308.87,462.504 3310.11,446.474 3311.36,434.453 3312.6,450.25 3313.85,433.887 3315.09,474.145 3316.33,477.196 3317.58,460.689 3318.82,461.071 3320.07,443.028 3321.31,437.425 3322.56,460.996 3323.8,440.417 3325.05,442.607 3326.29,446.72 3327.54,439.942 3328.78,460.233 3330.02,447.369 3331.27,447.257 3332.51,459.256 3333.76,458.545 3335,443.503 3336.25,455.798 3337.49,456.35 3338.74,453.458 3339.98,453.887 3341.22,438.072 3342.47,479.303 3343.71,431.168 3344.96,446.67 3346.2,447.411 3347.45,440.186 3348.69,458.227 3349.94,449.26 3351.18,461.803 3352.43,455.132 3353.67,451.471 3354.91,463.223 3356.16,430.415 3357.4,480.057 3358.65,434.256 3359.89,468.269 3361.14,439.811 3362.38,419.968 3363.63,438.023 3364.87,426.703 3366.12,443.342 3367.36,461.432 3368.6,426.981 3369.85,419.489 3371.09,442.62 3372.34,441.287 3373.58,450.385 3374.83,473.963 3376.07,439.594 3377.32,457.346 3378.56,437.269 3379.8,448.755 3381.05,445.268 3382.29,476.618 3383.54,446.681 3384.78,472.17 3386.03,456.249 3387.27,456.022 3388.52,474.16 3389.76,462.49 3391.01,436.648 3392.25,423.128 3393.49,479.462 3394.74,430.09 3395.98,476.949 3397.23,435.264 3398.47,429.21 3399.72,451.998 3400.96,447.641 3402.21,454.767 3403.45,448.84 3404.7,464.253 3405.94,441.985 3407.18,461.05 3408.43,454.249 3409.67,449.209 3410.92,463.628 3412.16,450.458 3413.41,469.508 3414.65,475.685 3415.9,425.86 3417.14,446.123 3418.39,463.573 3419.63,438.941 3420.87,463.6 3422.12,450.949 3423.36,459.266 3424.61,449.46 3425.85,456.78 3427.1,440.751 3428.34,453.575 3429.59,448.15 3430.83,448.719 3432.07,448.199 3433.32,469.447 3434.56,444.514 3435.81,453.909 3437.05,442.608 3438.3,465.234 3439.54,437.658 3440.79,447.682 3442.03,438.624 3443.28,447.318 3444.52,424.436 3445.76,475.313 3447.01,441.722 3448.25,431.729 3449.5,470.142 3450.74,437.9 3451.99,477.921 3453.23,427.689 3454.48,476.876 3455.72,432.647 "/>
<path clip-path="url(#clip300)" d="M2934.64 166.762 L3438.47 166.762 L3438.47 63.0816 L2934.64 63.0816  Z" fill="#ffffff" fill-rule="evenodd" fill-opacity="1"/>
<polyline clip-path="url(#clip300)" style="stroke:#000000; stroke-linecap:round; stroke-linejoin:round; stroke-width:4; stroke-opacity:1; fill:none" points="2934.64,166.762 3438.47,166.762 3438.47,63.0816 2934.64,63.0816 2934.64,166.762 "/>
<polyline clip-path="url(#clip300)" style="stroke:#009af9; stroke-linecap:round; stroke-linejoin:round; stroke-width:2; stroke-opacity:1; fill:none" points="2972.74,114.922 3201.31,114.922 "/>
<path clip-path="url(#clip300)" d="M3244.08 101.484 L3244.08 114.47 L3249.96 114.47 Q3253.22 114.47 3255.01 112.78 Q3256.79 111.091 3256.79 107.966 Q3256.79 104.864 3255.01 103.174 Q3253.22 101.484 3249.96 101.484 L3244.08 101.484 M3239.4 97.6416 L3249.96 97.6416 Q3255.77 97.6416 3258.73 100.28 Q3261.72 102.896 3261.72 107.966 Q3261.72 113.081 3258.73 115.697 Q3255.77 118.313 3249.96 118.313 L3244.08 118.313 L3244.08 132.202 L3239.4 132.202 L3239.4 97.6416 Z" fill="#000000" fill-rule="evenodd" fill-opacity="1" /><path clip-path="url(#clip300)" d="M3267.99 97.6416 L3289.84 97.6416 L3289.84 101.577 L3272.67 101.577 L3272.67 111.808 L3289.13 111.808 L3289.13 115.743 L3272.67 115.743 L3272.67 128.266 L3290.26 128.266 L3290.26 132.202 L3267.99 132.202 L3267.99 97.6416 Z" fill="#000000" fill-rule="evenodd" fill-opacity="1" /><path clip-path="url(#clip300)" d="M3297.94 97.6416 L3302.62 97.6416 L3302.62 111.808 L3319.61 111.808 L3319.61 97.6416 L3324.29 97.6416 L3324.29 132.202 L3319.61 132.202 L3319.61 115.743 L3302.62 115.743 L3302.62 132.202 L3297.94 132.202 L3297.94 97.6416 Z" fill="#000000" fill-rule="evenodd" fill-opacity="1" /><path clip-path="url(#clip300)" d="M3333.59 97.6416 L3340.56 97.6416 L3349.38 121.16 L3358.25 97.6416 L3365.21 97.6416 L3365.21 132.202 L3360.65 132.202 L3360.65 101.854 L3351.74 125.558 L3347.04 125.558 L3338.13 101.854 L3338.13 132.202 L3333.59 132.202 L3333.59 97.6416 Z" fill="#000000" fill-rule="evenodd" fill-opacity="1" /><path clip-path="url(#clip300)" d="M3400.37 100.304 L3400.37 105.234 Q3398.01 103.035 3395.33 101.947 Q3392.67 100.859 3389.66 100.859 Q3383.73 100.859 3380.58 104.493 Q3377.43 108.104 3377.43 114.956 Q3377.43 121.785 3380.58 125.419 Q3383.73 129.03 3389.66 129.03 Q3392.67 129.03 3395.33 127.942 Q3398.01 126.854 3400.37 124.655 L3400.37 129.54 Q3397.92 131.206 3395.17 132.04 Q3392.43 132.873 3389.38 132.873 Q3381.53 132.873 3377.02 128.081 Q3372.5 123.266 3372.5 114.956 Q3372.5 106.623 3377.02 101.831 Q3381.53 97.0166 3389.38 97.0166 Q3392.48 97.0166 3395.21 97.8499 Q3397.97 98.6601 3400.37 100.304 Z" fill="#000000" fill-rule="evenodd" fill-opacity="1" /></svg>
