<?xml version="1.0" encoding="utf-8"?>
<svg xmlns="http://www.w3.org/2000/svg" xmlns:xlink="http://www.w3.org/1999/xlink" width="900" height="150" viewBox="0 0 3600 600">
<defs>
  <clipPath id="clip400">
    <rect x="0" y="0" width="3600" height="600"/>
  </clipPath>
</defs>
<path clip-path="url(#clip400)" d="M0 600 L3600 600 L3600 0 L0 0  Z" fill="#ffffff" fill-rule="evenodd" fill-opacity="1"/>
<defs>
  <clipPath id="clip401">
    <rect x="720" y="0" width="2521" height="600"/>
  </clipPath>
</defs>
<path clip-path="url(#clip400)" d="M124.177 522.368 L3552.76 522.368 L3552.76 47.2441 L124.177 47.2441  Z" fill="#ffffff" fill-rule="evenodd" fill-opacity="1"/>
<defs>
  <clipPath id="clip402">
    <rect x="124" y="47" width="3430" height="476"/>
  </clipPath>
</defs>
<polyline clip-path="url(#clip402)" style="stroke:#000000; stroke-linecap:round; stroke-linejoin:round; stroke-width:2; stroke-opacity:0.1; fill:none" points="220.132,522.368 220.132,47.2441 "/>
<polyline clip-path="url(#clip402)" style="stroke:#000000; stroke-linecap:round; stroke-linejoin:round; stroke-width:2; stroke-opacity:0.1; fill:none" points="1300.1,522.368 1300.1,47.2441 "/>
<polyline clip-path="url(#clip402)" style="stroke:#000000; stroke-linecap:round; stroke-linejoin:round; stroke-width:2; stroke-opacity:0.1; fill:none" points="2380.07,522.368 2380.07,47.2441 "/>
<polyline clip-path="url(#clip402)" style="stroke:#000000; stroke-linecap:round; stroke-linejoin:round; stroke-width:2; stroke-opacity:0.1; fill:none" points="3460.04,522.368 3460.04,47.2441 "/>
<polyline clip-path="url(#clip400)" style="stroke:#000000; stroke-linecap:round; stroke-linejoin:round; stroke-width:4; stroke-opacity:1; fill:none" points="124.177,522.368 3552.76,522.368 "/>
<polyline clip-path="url(#clip400)" style="stroke:#000000; stroke-linecap:round; stroke-linejoin:round; stroke-width:4; stroke-opacity:1; fill:none" points="220.132,522.368 220.132,503.47 "/>
<polyline clip-path="url(#clip400)" style="stroke:#000000; stroke-linecap:round; stroke-linejoin:round; stroke-width:4; stroke-opacity:1; fill:none" points="1300.1,522.368 1300.1,503.47 "/>
<polyline clip-path="url(#clip400)" style="stroke:#000000; stroke-linecap:round; stroke-linejoin:round; stroke-width:4; stroke-opacity:1; fill:none" points="2380.07,522.368 2380.07,503.47 "/>
<polyline clip-path="url(#clip400)" style="stroke:#000000; stroke-linecap:round; stroke-linejoin:round; stroke-width:4; stroke-opacity:1; fill:none" points="3460.04,522.368 3460.04,503.47 "/>
<path clip-path="url(#clip400)" d="M220.132 562.887 Q216.521 562.887 214.693 566.451 Q212.887 569.993 212.887 577.123 Q212.887 584.229 214.693 587.794 Q216.521 591.335 220.132 591.335 Q223.767 591.335 225.572 587.794 Q227.401 584.229 227.401 577.123 Q227.401 569.993 225.572 566.451 Q223.767 562.887 220.132 562.887 M220.132 559.183 Q225.943 559.183 228.998 563.789 Q232.077 568.373 232.077 577.123 Q232.077 585.849 228.998 590.456 Q225.943 595.039 220.132 595.039 Q214.322 595.039 211.244 590.456 Q208.188 585.849 208.188 577.123 Q208.188 568.373 211.244 563.789 Q214.322 559.183 220.132 559.183 Z" fill="#000000" fill-rule="evenodd" fill-opacity="1" /><path clip-path="url(#clip400)" d="M1244.63 590.433 L1252.27 590.433 L1252.27 564.067 L1243.96 565.734 L1243.96 561.475 L1252.22 559.808 L1256.9 559.808 L1256.9 590.433 L1264.53 590.433 L1264.53 594.368 L1244.63 594.368 L1244.63 590.433 Z" fill="#000000" fill-rule="evenodd" fill-opacity="1" /><path clip-path="url(#clip400)" d="M1283.98 562.887 Q1280.37 562.887 1278.54 566.451 Q1276.73 569.993 1276.73 577.123 Q1276.73 584.229 1278.54 587.794 Q1280.37 591.335 1283.98 591.335 Q1287.61 591.335 1289.42 587.794 Q1291.25 584.229 1291.25 577.123 Q1291.25 569.993 1289.42 566.451 Q1287.61 562.887 1283.98 562.887 M1283.98 559.183 Q1289.79 559.183 1292.84 563.789 Q1295.92 568.373 1295.92 577.123 Q1295.92 585.849 1292.84 590.456 Q1289.79 595.039 1283.98 595.039 Q1278.17 595.039 1275.09 590.456 Q1272.03 585.849 1272.03 577.123 Q1272.03 568.373 1275.09 563.789 Q1278.17 559.183 1283.98 559.183 Z" fill="#000000" fill-rule="evenodd" fill-opacity="1" /><path clip-path="url(#clip400)" d="M1314.14 562.887 Q1310.53 562.887 1308.7 566.451 Q1306.9 569.993 1306.9 577.123 Q1306.9 584.229 1308.7 587.794 Q1310.53 591.335 1314.14 591.335 Q1317.78 591.335 1319.58 587.794 Q1321.41 584.229 1321.41 577.123 Q1321.41 569.993 1319.58 566.451 Q1317.78 562.887 1314.14 562.887 M1314.14 559.183 Q1319.95 559.183 1323.01 563.789 Q1326.09 568.373 1326.09 577.123 Q1326.09 585.849 1323.01 590.456 Q1319.95 595.039 1314.14 595.039 Q1308.33 595.039 1305.25 590.456 Q1302.2 585.849 1302.2 577.123 Q1302.2 568.373 1305.25 563.789 Q1308.33 559.183 1314.14 559.183 Z" fill="#000000" fill-rule="evenodd" fill-opacity="1" /><path clip-path="url(#clip400)" d="M1344.3 562.887 Q1340.69 562.887 1338.86 566.451 Q1337.06 569.993 1337.06 577.123 Q1337.06 584.229 1338.86 587.794 Q1340.69 591.335 1344.3 591.335 Q1347.94 591.335 1349.74 587.794 Q1351.57 584.229 1351.57 577.123 Q1351.57 569.993 1349.74 566.451 Q1347.94 562.887 1344.3 562.887 M1344.3 559.183 Q1350.11 559.183 1353.17 563.789 Q1356.25 568.373 1356.25 577.123 Q1356.25 585.849 1353.17 590.456 Q1350.11 595.039 1344.3 595.039 Q1338.49 595.039 1335.41 590.456 Q1332.36 585.849 1332.36 577.123 Q1332.36 568.373 1335.41 563.789 Q1338.49 559.183 1344.3 559.183 Z" fill="#000000" fill-rule="evenodd" fill-opacity="1" /><path clip-path="url(#clip400)" d="M2328.68 590.433 L2345 590.433 L2345 594.368 L2323.06 594.368 L2323.06 590.433 Q2325.72 587.678 2330.3 583.048 Q2334.91 578.396 2336.09 577.053 Q2338.34 574.53 2339.21 572.794 Q2340.12 571.035 2340.12 569.345 Q2340.12 566.59 2338.17 564.854 Q2336.25 563.118 2333.15 563.118 Q2330.95 563.118 2328.5 563.882 Q2326.07 564.646 2323.29 566.197 L2323.29 561.475 Q2326.11 560.34 2328.57 559.762 Q2331.02 559.183 2333.06 559.183 Q2338.43 559.183 2341.62 561.868 Q2344.82 564.553 2344.82 569.044 Q2344.82 571.174 2344.01 573.095 Q2343.22 574.993 2341.11 577.586 Q2340.53 578.257 2337.43 581.474 Q2334.33 584.669 2328.68 590.433 Z" fill="#000000" fill-rule="evenodd" fill-opacity="1" /><path clip-path="url(#clip400)" d="M2364.82 562.887 Q2361.21 562.887 2359.38 566.451 Q2357.57 569.993 2357.57 577.123 Q2357.57 584.229 2359.38 587.794 Q2361.21 591.335 2364.82 591.335 Q2368.45 591.335 2370.26 587.794 Q2372.09 584.229 2372.09 577.123 Q2372.09 569.993 2370.26 566.451 Q2368.45 562.887 2364.82 562.887 M2364.82 559.183 Q2370.63 559.183 2373.68 563.789 Q2376.76 568.373 2376.76 577.123 Q2376.76 585.849 2373.68 590.456 Q2370.63 595.039 2364.82 595.039 Q2359.01 595.039 2355.93 590.456 Q2352.87 585.849 2352.87 577.123 Q2352.87 568.373 2355.93 563.789 Q2359.01 559.183 2364.82 559.183 Z" fill="#000000" fill-rule="evenodd" fill-opacity="1" /><path clip-path="url(#clip400)" d="M2394.98 562.887 Q2391.37 562.887 2389.54 566.451 Q2387.73 569.993 2387.73 577.123 Q2387.73 584.229 2389.54 587.794 Q2391.37 591.335 2394.98 591.335 Q2398.61 591.335 2400.42 587.794 Q2402.25 584.229 2402.25 577.123 Q2402.25 569.993 2400.42 566.451 Q2398.61 562.887 2394.98 562.887 M2394.98 559.183 Q2400.79 559.183 2403.84 563.789 Q2406.92 568.373 2406.92 577.123 Q2406.92 585.849 2403.84 590.456 Q2400.79 595.039 2394.98 595.039 Q2389.17 595.039 2386.09 590.456 Q2383.03 585.849 2383.03 577.123 Q2383.03 568.373 2386.09 563.789 Q2389.17 559.183 2394.98 559.183 Z" fill="#000000" fill-rule="evenodd" fill-opacity="1" /><path clip-path="url(#clip400)" d="M2425.14 562.887 Q2421.53 562.887 2419.7 566.451 Q2417.9 569.993 2417.9 577.123 Q2417.9 584.229 2419.7 587.794 Q2421.53 591.335 2425.14 591.335 Q2428.77 591.335 2430.58 587.794 Q2432.41 584.229 2432.41 577.123 Q2432.41 569.993 2430.58 566.451 Q2428.77 562.887 2425.14 562.887 M2425.14 559.183 Q2430.95 559.183 2434.01 563.789 Q2437.08 568.373 2437.08 577.123 Q2437.08 585.849 2434.01 590.456 Q2430.95 595.039 2425.14 595.039 Q2419.33 595.039 2416.25 590.456 Q2413.2 585.849 2413.2 577.123 Q2413.2 568.373 2416.25 563.789 Q2419.33 559.183 2425.14 559.183 Z" fill="#000000" fill-rule="evenodd" fill-opacity="1" /><path clip-path="url(#clip400)" d="M3418.72 575.734 Q3422.08 576.451 3423.95 578.72 Q3425.85 580.988 3425.85 584.322 Q3425.85 589.437 3422.33 592.238 Q3418.81 595.039 3412.33 595.039 Q3410.16 595.039 3407.84 594.599 Q3405.55 594.183 3403.1 593.326 L3403.1 588.812 Q3405.04 589.947 3407.36 590.525 Q3409.67 591.104 3412.19 591.104 Q3416.59 591.104 3418.88 589.368 Q3421.2 587.632 3421.2 584.322 Q3421.2 581.266 3419.05 579.553 Q3416.92 577.817 3413.1 577.817 L3409.07 577.817 L3409.07 573.974 L3413.28 573.974 Q3416.73 573.974 3418.56 572.609 Q3420.39 571.22 3420.39 568.627 Q3420.39 565.965 3418.49 564.553 Q3416.61 563.118 3413.1 563.118 Q3411.18 563.118 3408.98 563.535 Q3406.78 563.951 3404.14 564.831 L3404.14 560.664 Q3406.8 559.924 3409.11 559.553 Q3411.45 559.183 3413.51 559.183 Q3418.84 559.183 3421.94 561.613 Q3425.04 564.021 3425.04 568.141 Q3425.04 571.012 3423.4 573.002 Q3421.75 574.97 3418.72 575.734 Z" fill="#000000" fill-rule="evenodd" fill-opacity="1" /><path clip-path="url(#clip400)" d="M3444.72 562.887 Q3441.11 562.887 3439.28 566.451 Q3437.47 569.993 3437.47 577.123 Q3437.47 584.229 3439.28 587.794 Q3441.11 591.335 3444.72 591.335 Q3448.35 591.335 3450.16 587.794 Q3451.99 584.229 3451.99 577.123 Q3451.99 569.993 3450.16 566.451 Q3448.35 562.887 3444.72 562.887 M3444.72 559.183 Q3450.53 559.183 3453.58 563.789 Q3456.66 568.373 3456.66 577.123 Q3456.66 585.849 3453.58 590.456 Q3450.53 595.039 3444.72 595.039 Q3438.91 595.039 3435.83 590.456 Q3432.77 585.849 3432.77 577.123 Q3432.77 568.373 3435.83 563.789 Q3438.91 559.183 3444.72 559.183 Z" fill="#000000" fill-rule="evenodd" fill-opacity="1" /><path clip-path="url(#clip400)" d="M3474.88 562.887 Q3471.27 562.887 3469.44 566.451 Q3467.63 569.993 3467.63 577.123 Q3467.63 584.229 3469.44 587.794 Q3471.27 591.335 3474.88 591.335 Q3478.51 591.335 3480.32 587.794 Q3482.15 584.229 3482.15 577.123 Q3482.15 569.993 3480.32 566.451 Q3478.51 562.887 3474.88 562.887 M3474.88 559.183 Q3480.69 559.183 3483.74 563.789 Q3486.82 568.373 3486.82 577.123 Q3486.82 585.849 3483.74 590.456 Q3480.69 595.039 3474.88 595.039 Q3469.07 595.039 3465.99 590.456 Q3462.93 585.849 3462.93 577.123 Q3462.93 568.373 3465.99 563.789 Q3469.07 559.183 3474.88 559.183 Z" fill="#000000" fill-rule="evenodd" fill-opacity="1" /><path clip-path="url(#clip400)" d="M3505.04 562.887 Q3501.43 562.887 3499.6 566.451 Q3497.79 569.993 3497.79 577.123 Q3497.79 584.229 3499.6 587.794 Q3501.43 591.335 3505.04 591.335 Q3508.67 591.335 3510.48 587.794 Q3512.31 584.229 3512.31 577.123 Q3512.31 569.993 3510.48 566.451 Q3508.67 562.887 3505.04 562.887 M3505.04 559.183 Q3510.85 559.183 3513.91 563.789 Q3516.98 568.373 3516.98 577.123 Q3516.98 585.849 3513.91 590.456 Q3510.85 595.039 3505.04 595.039 Q3499.23 595.039 3496.15 590.456 Q3493.1 585.849 3493.1 577.123 Q3493.1 568.373 3496.15 563.789 Q3499.23 559.183 3505.04 559.183 Z" fill="#000000" fill-rule="evenodd" fill-opacity="1" /><polyline clip-path="url(#clip402)" style="stroke:#000000; stroke-linecap:round; stroke-linejoin:round; stroke-width:2; stroke-opacity:0.1; fill:none" points="124.177,522.368 3552.76,522.368 "/>
<polyline clip-path="url(#clip402)" style="stroke:#000000; stroke-linecap:round; stroke-linejoin:round; stroke-width:2; stroke-opacity:0.1; fill:none" points="124.177,454.493 3552.76,454.493 "/>
<polyline clip-path="url(#clip402)" style="stroke:#000000; stroke-linecap:round; stroke-linejoin:round; stroke-width:2; stroke-opacity:0.1; fill:none" points="124.177,386.618 3552.76,386.618 "/>
<polyline clip-path="url(#clip402)" style="stroke:#000000; stroke-linecap:round; stroke-linejoin:round; stroke-width:2; stroke-opacity:0.1; fill:none" points="124.177,318.743 3552.76,318.743 "/>
<polyline clip-path="url(#clip402)" style="stroke:#000000; stroke-linecap:round; stroke-linejoin:round; stroke-width:2; stroke-opacity:0.1; fill:none" points="124.177,250.869 3552.76,250.869 "/>
<polyline clip-path="url(#clip402)" style="stroke:#000000; stroke-linecap:round; stroke-linejoin:round; stroke-width:2; stroke-opacity:0.1; fill:none" points="124.177,182.994 3552.76,182.994 "/>
<polyline clip-path="url(#clip402)" style="stroke:#000000; stroke-linecap:round; stroke-linejoin:round; stroke-width:2; stroke-opacity:0.1; fill:none" points="124.177,115.119 3552.76,115.119 "/>
<polyline clip-path="url(#clip402)" style="stroke:#000000; stroke-linecap:round; stroke-linejoin:round; stroke-width:2; stroke-opacity:0.1; fill:none" points="124.177,47.2441 3552.76,47.2441 "/>
<polyline clip-path="url(#clip400)" style="stroke:#000000; stroke-linecap:round; stroke-linejoin:round; stroke-width:4; stroke-opacity:1; fill:none" points="124.177,522.368 124.177,47.2441 "/>
<polyline clip-path="url(#clip400)" style="stroke:#000000; stroke-linecap:round; stroke-linejoin:round; stroke-width:4; stroke-opacity:1; fill:none" points="124.177,522.368 143.075,522.368 "/>
<polyline clip-path="url(#clip400)" style="stroke:#000000; stroke-linecap:round; stroke-linejoin:round; stroke-width:4; stroke-opacity:1; fill:none" points="124.177,454.493 143.075,454.493 "/>
<polyline clip-path="url(#clip400)" style="stroke:#000000; stroke-linecap:round; stroke-linejoin:round; stroke-width:4; stroke-opacity:1; fill:none" points="124.177,386.618 143.075,386.618 "/>
<polyline clip-path="url(#clip400)" style="stroke:#000000; stroke-linecap:round; stroke-linejoin:round; stroke-width:4; stroke-opacity:1; fill:none" points="124.177,318.743 143.075,318.743 "/>
<polyline clip-path="url(#clip400)" style="stroke:#000000; stroke-linecap:round; stroke-linejoin:round; stroke-width:4; stroke-opacity:1; fill:none" points="124.177,250.869 143.075,250.869 "/>
<polyline clip-path="url(#clip400)" style="stroke:#000000; stroke-linecap:round; stroke-linejoin:round; stroke-width:4; stroke-opacity:1; fill:none" points="124.177,182.994 143.075,182.994 "/>
<polyline clip-path="url(#clip400)" style="stroke:#000000; stroke-linecap:round; stroke-linejoin:round; stroke-width:4; stroke-opacity:1; fill:none" points="124.177,115.119 143.075,115.119 "/>
<polyline clip-path="url(#clip400)" style="stroke:#000000; stroke-linecap:round; stroke-linejoin:round; stroke-width:4; stroke-opacity:1; fill:none" points="124.177,47.2441 143.075,47.2441 "/>
<path clip-path="url(#clip400)" d="M50.2699 535.713 L57.9087 535.713 L57.9087 509.347 L49.5986 511.014 L49.5986 506.755 L57.8624 505.088 L62.5383 505.088 L62.5383 535.713 L70.1772 535.713 L70.1772 539.648 L50.2699 539.648 L50.2699 535.713 Z" fill="#000000" fill-rule="evenodd" fill-opacity="1" /><path clip-path="url(#clip400)" d="M53.8578 467.838 L70.1772 467.838 L70.1772 471.773 L48.2328 471.773 L48.2328 467.838 Q50.8949 465.083 55.4782 460.454 Q60.0846 455.801 61.2652 454.458 Q63.5105 451.935 64.3902 450.199 Q65.2929 448.44 65.2929 446.75 Q65.2929 443.995 63.3485 442.259 Q61.4272 440.523 58.3254 440.523 Q56.1263 440.523 53.6726 441.287 Q51.2421 442.051 48.4643 443.602 L48.4643 438.88 Q51.2884 437.745 53.7421 437.167 Q56.1958 436.588 58.2328 436.588 Q63.6031 436.588 66.7976 439.273 Q69.992 441.958 69.992 446.449 Q69.992 448.579 69.1818 450.5 Q68.3948 452.398 66.2883 454.991 Q65.7096 455.662 62.6078 458.88 Q59.5059 462.074 53.8578 467.838 Z" fill="#000000" fill-rule="evenodd" fill-opacity="1" /><path clip-path="url(#clip400)" d="M63.0476 385.264 Q66.404 385.982 68.279 388.25 Q70.1772 390.519 70.1772 393.852 Q70.1772 398.968 66.6587 401.769 Q63.1402 404.57 56.6587 404.57 Q54.4828 404.57 52.168 404.13 Q49.8764 403.713 47.4227 402.857 L47.4227 398.343 Q49.3671 399.477 51.6819 400.056 Q53.9967 400.634 56.5198 400.634 Q60.918 400.634 63.2096 398.898 Q65.5244 397.162 65.5244 393.852 Q65.5244 390.796 63.3717 389.083 Q61.242 387.347 57.4226 387.347 L53.3949 387.347 L53.3949 383.505 L57.6078 383.505 Q61.0569 383.505 62.8855 382.139 Q64.7142 380.75 64.7142 378.158 Q64.7142 375.496 62.8161 374.084 Q60.9411 372.648 57.4226 372.648 Q55.5013 372.648 53.3023 373.065 Q51.1032 373.482 48.4643 374.361 L48.4643 370.195 Q51.1264 369.454 53.4412 369.084 Q55.7791 368.713 57.8393 368.713 Q63.1633 368.713 66.2652 371.144 Q69.367 373.551 69.367 377.672 Q69.367 380.542 67.7235 382.533 Q66.08 384.5 63.0476 385.264 Z" fill="#000000" fill-rule="evenodd" fill-opacity="1" /><path clip-path="url(#clip400)" d="M60.5939 305.537 L48.7884 323.986 L60.5939 323.986 L60.5939 305.537 M59.367 301.463 L65.2466 301.463 L65.2466 323.986 L70.1772 323.986 L70.1772 327.875 L65.2466 327.875 L65.2466 336.023 L60.5939 336.023 L60.5939 327.875 L44.9921 327.875 L44.9921 323.361 L59.367 301.463 Z" fill="#000000" fill-rule="evenodd" fill-opacity="1" /><path clip-path="url(#clip400)" d="M49.2745 233.589 L67.6309 233.589 L67.6309 237.524 L53.5569 237.524 L53.5569 245.996 Q54.5754 245.649 55.5939 245.487 Q56.6124 245.301 57.6309 245.301 Q63.418 245.301 66.7976 248.473 Q70.1772 251.644 70.1772 257.061 Q70.1772 262.639 66.705 265.741 Q63.2328 268.82 56.9134 268.82 Q54.7374 268.82 52.4689 268.449 Q50.2236 268.079 47.8162 267.338 L47.8162 262.639 Q49.8995 263.774 52.1217 264.329 Q54.3439 264.885 56.8208 264.885 Q60.8254 264.885 63.1633 262.778 Q65.5013 260.672 65.5013 257.061 Q65.5013 253.45 63.1633 251.343 Q60.8254 249.237 56.8208 249.237 Q54.9458 249.237 53.0708 249.653 Q51.2189 250.07 49.2745 250.95 L49.2745 233.589 Z" fill="#000000" fill-rule="evenodd" fill-opacity="1" /><path clip-path="url(#clip400)" d="M58.6495 181.13 Q55.5013 181.13 53.6495 183.283 Q51.8208 185.436 51.8208 189.186 Q51.8208 192.913 53.6495 195.089 Q55.5013 197.241 58.6495 197.241 Q61.7976 197.241 63.6263 195.089 Q65.4781 192.913 65.4781 189.186 Q65.4781 185.436 63.6263 183.283 Q61.7976 181.13 58.6495 181.13 M67.9318 166.478 L67.9318 170.737 Q66.1726 169.904 64.367 169.464 Q62.5846 169.024 60.8254 169.024 Q56.1958 169.024 53.7421 172.149 Q51.3115 175.274 50.9643 181.593 Q52.33 179.579 54.3902 178.515 Q56.4504 177.427 58.9272 177.427 Q64.1355 177.427 67.1448 180.598 Q70.1772 183.746 70.1772 189.186 Q70.1772 194.51 67.029 197.727 Q63.8809 200.945 58.6495 200.945 Q52.6541 200.945 49.4828 196.362 Q46.3116 191.755 46.3116 183.028 Q46.3116 174.834 50.2004 169.973 Q54.0893 165.089 60.6402 165.089 Q62.3994 165.089 64.1818 165.436 Q65.9874 165.783 67.9318 166.478 Z" fill="#000000" fill-rule="evenodd" fill-opacity="1" /><path clip-path="url(#clip400)" d="M47.9551 97.8389 L70.1772 97.8389 L70.1772 99.8297 L57.6309 132.399 L52.7467 132.399 L64.5522 101.774 L47.9551 101.774 L47.9551 97.8389 Z" fill="#000000" fill-rule="evenodd" fill-opacity="1" /><path clip-path="url(#clip400)" d="M58.3254 48.1121 Q54.9921 48.1121 53.0708 49.8945 Q51.1726 51.6769 51.1726 54.8019 Q51.1726 57.9269 53.0708 59.7093 Q54.9921 61.4917 58.3254 61.4917 Q61.6587 61.4917 63.58 59.7093 Q65.5013 57.9038 65.5013 54.8019 Q65.5013 51.6769 63.58 49.8945 Q61.6819 48.1121 58.3254 48.1121 M53.6495 46.1214 Q50.6402 45.3807 48.9504 43.3205 Q47.2838 41.2603 47.2838 38.2974 Q47.2838 34.1539 50.2236 31.7465 Q53.1865 29.3391 58.3254 29.3391 Q63.4874 29.3391 66.4272 31.7465 Q69.367 34.1539 69.367 38.2974 Q69.367 41.2603 67.6772 43.3205 Q66.0105 45.3807 63.0244 46.1214 Q66.404 46.9084 68.279 49.2001 Q70.1772 51.4918 70.1772 54.8019 Q70.1772 59.825 67.0985 62.5102 Q64.0429 65.1954 58.3254 65.1954 Q52.6078 65.1954 49.5291 62.5102 Q46.4736 59.825 46.4736 54.8019 Q46.4736 51.4918 48.3717 49.2001 Q50.2699 46.9084 53.6495 46.1214 M51.9365 38.7372 Q51.9365 41.4224 53.6032 42.927 Q55.293 44.4316 58.3254 44.4316 Q61.3346 44.4316 63.0244 42.927 Q64.7374 41.4224 64.7374 38.7372 Q64.7374 36.052 63.0244 34.5474 Q61.3346 33.0428 58.3254 33.0428 Q55.293 33.0428 53.6032 34.5474 Q51.9365 36.052 51.9365 38.7372 Z" fill="#000000" fill-rule="evenodd" fill-opacity="1" /><polyline clip-path="url(#clip402)" style="stroke:#009af9; stroke-linecap:round; stroke-linejoin:round; stroke-width:2; stroke-opacity:1; fill:none" points="221.212,317.944 222.292,321.591 223.372,331.667 224.452,337.574 225.532,330.527 226.612,317.648 227.692,323.816 228.772,308.922 229.852,318.122 230.932,332.356 232.012,327.18 233.092,306.275 234.172,334.26 235.252,327.658 236.332,307.562 237.412,329.349 238.492,332.687 239.572,304.476 240.652,297.109 241.732,306.539 242.812,288.374 243.892,321.146 244.972,314.366 246.052,312.576 247.132,316.19 248.212,307.547 249.292,310.18 250.372,319.556 251.452,330.479 252.532,300.336 253.612,321.243 254.691,323.807 255.771,320.372 256.851,311.607 257.931,316.9 259.011,307.697 260.091,313.704 261.171,317.34 262.251,296.568 263.331,320.322 264.411,313.741 265.491,300.958 266.571,317.507 267.651,300.507 268.731,334.57 269.811,314.04 270.891,312.429 271.971,320.697 273.051,317.089 274.131,310.194 275.211,328.09 276.291,325.665 277.371,336.757 278.451,315.723 279.531,315.53 280.611,335.283 281.691,312.126 282.771,297.631 283.851,343.419 284.931,307.102 286.011,302.779 287.091,290.963 288.171,312.472 289.25,314.738 290.33,322 291.41,329.413 292.49,313.791 293.57,320.475 294.65,317.875 295.73,323.579 296.81,325.704 297.89,319.537 298.97,313.066 300.05,306.132 301.13,309.283 302.21,306.679 303.29,319.146 304.37,335.343 305.45,317.18 306.53,328.348 307.61,314.475 308.69,325.065 309.77,332.35 310.85,334.667 311.93,313.545 313.01,326.973 314.09,313.839 315.17,311.104 316.25,321.17 317.33,310.505 318.41,323.879 319.49,309.367 320.57,316.914 321.65,309.94 322.73,327.06 323.81,332.268 324.889,323.913 325.969,309.947 327.049,315.103 328.129,310.551 329.209,320.809 330.289,319.059 331.369,335.495 332.449,309.622 333.529,329.333 334.609,330.603 335.689,300.36 336.769,321.65 337.849,313.713 338.929,318.671 340.009,313.934 341.089,293.155 342.169,313.322 343.249,326.353 344.329,312.984 345.409,316.446 346.489,304.439 347.569,333.001 348.649,318.459 349.729,315.948 350.809,305.114 351.889,319.691 352.969,313.161 354.049,312.355 355.129,315.586 356.209,327.088 357.289,313.91 358.369,302.57 359.449,332.902 360.528,316.664 361.608,309.423 362.688,320.25 363.768,315.299 364.848,292.205 365.928,311.065 367.008,312.444 368.088,318.989 369.168,307.44 370.248,305.753 371.328,331.202 372.408,311.159 373.488,322.905 374.568,312.675 375.648,303.657 376.728,330.245 377.808,311.181 378.888,325.087 379.968,313.911 381.048,324.409 382.128,318.872 383.208,322.568 384.288,296.57 385.368,303.718 386.448,341.953 387.528,318.137 388.608,338.088 389.688,320.927 390.768,325.944 391.848,324.837 392.928,323.025 394.008,298.044 395.087,319.153 396.167,312.946 397.247,319.4 398.327,302.812 399.407,324.387 400.487,312.442 401.567,307.935 402.647,318.212 403.727,345.708 404.807,290.668 405.887,327.123 406.967,314.825 408.047,332.608 409.127,317.44 410.207,330.472 411.287,297.295 412.367,332.86 413.447,306.218 414.527,331.541 415.607,320.501 416.687,305.054 417.767,322.27 418.847,333.023 419.927,318.146 421.007,302.711 422.087,322.285 423.167,315.159 424.247,325.096 425.327,303.447 426.407,290.281 427.487,303.514 428.567,310.215 429.647,314.126 430.726,305.061 431.806,323.824 432.886,315.084 433.966,287.717 435.046,308.627 436.126,324.867 437.206,308.837 438.286,300.957 439.366,326.993 440.446,321.471 441.526,318.869 442.606,322.9 443.686,318.866 444.766,305.035 445.846,318.723 446.926,318.813 448.006,317.395 449.086,297.857 450.166,299.71 451.246,302.994 452.326,333.938 453.406,306.711 454.486,316.096 455.566,318.721 456.646,303.688 457.726,306.003 458.806,319.48 459.886,324.148 460.966,296.244 462.046,306.421 463.126,300.31 464.206,314.066 465.285,316.817 466.365,336.444 467.445,300.492 468.525,293.984 469.605,340.033 470.685,325.454 471.765,318.718 472.845,315.751 473.925,317.617 475.005,327.636 476.085,315.43 477.165,318.809 478.245,303.393 479.325,329.61 480.405,320.202 481.485,312.878 482.565,327.537 483.645,312.601 484.725,310.387 485.805,295.093 486.885,323.171 487.965,335.121 489.045,305.61 490.125,332.844 491.205,332.607 492.285,322.306 493.365,304.257 494.445,335.501 495.525,317.289 496.605,322.681 497.685,318.702 498.765,323.521 499.845,301.393 500.924,300.413 502.004,292.552 503.084,293.796 504.164,331.96 505.244,315.039 506.324,307.035 507.404,313.755 508.484,318.945 509.564,310.361 510.644,329.393 511.724,322.711 512.804,320.622 513.884,308.805 514.964,327.932 516.044,329.612 517.124,296.139 518.204,302.552 519.284,345.193 520.364,338.492 521.444,313.681 522.524,325.913 523.604,327.176 524.684,309.297 525.764,318.296 526.844,335.041 527.924,310.604 529.004,327.611 530.084,318.09 531.164,318.404 532.244,309.962 533.324,301.151 534.404,309.172 535.484,337.199 536.563,334.603 537.643,327.993 538.723,327.992 539.803,309.765 540.883,295.023 541.963,291.139 543.043,284.453 544.123,314.762 545.203,302.953 546.283,320.543 547.363,323.899 548.443,330.89 549.523,326.274 550.603,316.035 551.683,300.773 552.763,316.196 553.843,307.876 554.923,312.228 556.003,323.903 557.083,318.18 558.163,319.109 559.243,320.612 560.323,311.053 561.403,310.128 562.483,304.153 563.563,313.654 564.643,311.983 565.723,309.223 566.803,298.194 567.883,318.568 568.963,322.598 570.043,333.762 571.122,303.333 572.202,307.587 573.282,311.044 574.362,308.106 575.442,316.949 576.522,310.898 577.602,322.483 578.682,312.066 579.762,291.749 580.842,311.189 581.922,315.502 583.002,318.281 584.082,302.72 585.162,310.014 586.242,325.688 587.322,312.471 588.402,315.053 589.482,311.969 590.562,300.35 591.642,321.095 592.722,311.637 593.802,312.629 594.882,323.812 595.962,308.279 597.042,292.903 598.122,309.418 599.202,332.628 600.282,318.024 601.362,325.96 602.442,308.17 603.522,309.777 604.602,303.347 605.682,332.574 606.761,294.859 607.841,334.321 608.921,322.751 610.001,311.547 611.081,318.243 612.161,319.302 613.241,335.95 614.321,297.617 615.401,335.012 616.481,318.06 617.561,327.887 618.641,329.866 619.721,298.718 620.801,320.246 621.881,303.998 622.961,314.581 624.041,346.673 625.121,310.9 626.201,311.084 627.281,318.118 628.361,301.562 629.441,335.777 630.521,321.122 631.601,329.79 632.681,317.345 633.761,319.405 634.841,311.65 635.921,310.279 637.001,319.996 638.081,316.471 639.161,322.279 640.241,314.965 641.321,298.144 642.4,328.797 643.48,307.46 644.56,309.646 645.64,331.912 646.72,318.611 647.8,328.19 648.88,313.701 649.96,310.272 651.04,314.25 652.12,330.312 653.2,309.389 654.28,323.719 655.36,321.339 656.44,322.749 657.52,304 658.6,319.424 659.68,312.415 660.76,326.097 661.84,322.983 662.92,308.644 664,321.289 665.08,309.13 666.16,335.333 667.24,328.771 668.32,324.303 669.4,302.848 670.48,314.845 671.56,323.943 672.64,318.948 673.72,325.767 674.8,329.497 675.88,309.238 676.959,327.908 678.039,319.194 679.119,307.991 680.199,315.082 681.279,304.19 682.359,303.667 683.439,306.368 684.519,336.204 685.599,315.715 686.679,306.898 687.759,313.481 688.839,324.055 689.919,318.163 690.999,323.135 692.079,319.794 693.159,315.638 694.239,306.155 695.319,319.677 696.399,325.424 697.479,326.384 698.559,326.531 699.639,323.666 700.719,321.533 701.799,315.758 702.879,328.088 703.959,291.186 705.039,296.625 706.119,300.719 707.199,324.355 708.279,304.717 709.359,332.156 710.439,337.054 711.519,317.224 712.598,328.007 713.678,313.633 714.758,326.544 715.838,316.5 716.918,314.187 717.998,322.199 719.078,315.486 720.158,310.601 721.238,318.504 722.318,306.13 723.398,309.52 724.478,329.615 725.558,301.922 726.638,333.074 727.718,336.416 728.798,321.962 729.878,321.213 730.958,304.01 732.038,311.813 733.118,320.129 734.198,300.313 735.278,308.734 736.358,308.569 737.438,317.264 738.518,321.01 739.598,313.427 740.678,319.566 741.758,318.485 742.838,314.395 743.918,316.56 744.998,330.636 746.078,331.568 747.158,320.953 748.237,309.25 749.317,305.374 750.397,285.539 751.477,294.307 752.557,325.097 753.637,319.601 754.717,313.231 755.797,322.277 756.877,316.044 757.957,309.279 759.037,308.795 760.117,309.769 761.197,336.294 762.277,314.467 763.357,317.674 764.437,317.31 765.517,309.362 766.597,324.474 767.677,319.995 768.757,329.641 769.837,327.599 770.917,338.586 771.997,339.257 773.077,323.68 774.157,304.046 775.237,318.282 776.317,299.644 777.397,338.224 778.477,316.043 779.557,311.245 780.637,298.511 781.717,292.534 782.796,285.905 783.876,301.323 784.956,306.858 786.036,324.633 787.116,311.524 788.196,297.244 789.276,329.371 790.356,309.108 791.436,333.562 792.516,341.167 793.596,324.156 794.676,316.019 795.756,332.121 796.836,306.696 797.916,297.152 798.996,324.678 800.076,290.815 801.156,339.17 802.236,332.182 803.316,325.458 804.396,327.317 805.476,330.764 806.556,313.545 807.636,319.409 808.716,304.014 809.796,313.561 810.876,301.619 811.956,331.097 813.036,317.934 814.116,301.541 815.196,320.117 816.276,320.021 817.356,325.236 818.435,311.383 819.515,306.255 820.595,329.137 821.675,303.12 822.755,328.974 823.835,313.405 824.915,326.725 825.995,304.171 827.075,320.849 828.155,320.451 829.235,300.556 830.315,339.2 831.395,320.699 832.475,323.169 833.555,304.575 834.635,324.838 835.715,314.734 836.795,306.885 837.875,306.079 838.955,328.828 840.035,310.892 841.115,306.302 842.195,320.995 843.275,298.751 844.355,333.576 845.435,300.729 846.515,317.876 847.595,324.606 848.675,329.072 849.755,322.012 850.835,320.717 851.915,303.53 852.994,321.959 854.074,307.534 855.154,315.705 856.234,302.259 857.314,284.426 858.394,327.199 859.474,296.843 860.554,305.305 861.634,330.759 862.714,298.377 863.794,325.051 864.874,323.461 865.954,335.165 867.034,298.105 868.114,327.827 869.194,312.452 870.274,298.245 871.354,316.18 872.434,311.02 873.514,312.178 874.594,307.263 875.674,312.086 876.754,327.556 877.834,320.384 878.914,321.457 879.994,306.529 881.074,306.911 882.154,302.006 883.234,329.032 884.314,313.714 885.394,321.313 886.474,333.121 887.554,303.885 888.633,299.506 889.713,324.328 890.793,332.038 891.873,302.386 892.953,314.949 894.033,320.584 895.113,316.058 896.193,314.644 897.273,331.813 898.353,300.639 899.433,315.935 900.513,327.05 901.593,318.653 902.673,302.68 903.753,297.145 904.833,305.299 905.913,323.098 906.993,308.844 908.073,332.241 909.153,303.736 910.233,322.575 911.313,314.351 912.393,321.012 913.473,328.681 914.553,305.484 915.633,332.557 916.713,319.428 917.793,309.851 918.873,316.18 919.953,313.36 921.033,334.189 922.113,313.108 923.193,335.104 924.272,331.213 925.352,308.764 926.432,316.454 927.512,320.214 928.592,302.301 929.672,303.803 930.752,335.38 931.832,298.536 932.912,319.397 933.992,302.903 935.072,292.154 936.152,304.962 937.232,294.608 938.312,301.719 939.392,344.887 940.472,307.139 941.552,285.493 942.632,334.349 943.712,300.108 944.792,297.87 945.872,315.438 946.952,306.45 948.032,313.904 949.112,302.957 950.192,313.324 951.272,311.446 952.352,312.692 953.432,319.272 954.512,328.128 955.592,323.702 956.672,307.668 957.752,334.335 958.831,319.99 959.911,333.9 960.991,308.325 962.071,320.218 963.151,322.074 964.231,333.871 965.311,302.363 966.391,301.132 967.471,317.849 968.551,310.55 969.631,321.009 970.711,292.947 971.791,307.161 972.871,323.997 973.951,320.903 975.031,318.203 976.111,323.164 977.191,296.351 978.271,309.658 979.351,318.347 980.431,317.022 981.511,303.511 982.591,312.716 983.671,327.214 984.751,320.169 985.831,329.536 986.911,333.955 987.991,310.787 989.071,305.742 990.151,303.001 991.231,315.887 992.311,314.647 993.391,312.331 994.47,322.31 995.55,329.335 996.63,307.681 997.71,324.609 998.79,291.271 999.87,332.779 1000.95,339.085 1002.03,317.091 1003.11,319.812 1004.19,318.598 1005.27,318.455 1006.35,307.365 1007.43,314.052 1008.51,320.931 1009.59,323.965 1010.67,324.426 1011.75,320.799 1012.83,311.56 1013.91,315.862 1014.99,304.829 1016.07,318.202 1017.15,328.448 1018.23,319.704 1019.31,294.62 1020.39,299.472 1021.47,309.111 1022.55,307.903 1023.63,322.87 1024.71,304.927 1025.79,300.364 1026.87,294.087 1027.95,332.093 1029.03,299.927 1030.11,317.395 1031.19,324.434 1032.27,322.292 1033.35,329.395 1034.43,308.641 1035.51,291.473 1036.59,308.921 1037.67,325.661 1038.75,304.801 1039.83,325.693 1040.91,314.86 1041.99,332.735 1043.07,312.493 1044.15,305.183 1045.23,322.912 1046.31,315.537 1047.39,330.367 1048.47,331.137 1049.55,297.241 1050.63,304.069 1051.71,310.826 1052.79,320.877 1053.87,319.7 1054.95,307.407 1056.03,322.387 1057.11,316.645 1058.19,312.793 1059.27,322.629 1060.35,337.209 1061.43,302.064 1062.51,309.569 1063.59,331.077 1064.67,299.254 1065.75,335.817 1066.83,329.136 1067.91,328.687 1068.99,322.612 1070.07,315.795 1071.15,316.763 1072.23,315.251 1073.31,326.852 1074.39,315.031 1075.47,334.008 1076.55,304.219 1077.63,311.027 1078.71,321.374 1079.79,324.558 1080.87,318.851 1081.95,304.523 1083.03,297.111 1084.11,314.639 1085.19,310.25 1086.27,332.45 1087.35,325.714 1088.43,324.854 1089.51,306.911 1090.59,312.384 1091.67,314.009 1092.75,322.245 1093.83,305.62 1094.91,313.325 1095.99,315.239 1097.07,327.634 1098.15,327.178 1099.23,326.084 1100.31,320.992 1101.39,305.029 1102.47,307.838 1103.55,312.881 1104.63,310.207 1105.71,313.725 1106.79,330.798 1107.87,312.564 1108.95,312.076 1110.03,321.514 1111.11,301.272 1112.19,316.144 1113.27,318.564 1114.35,305.496 1115.43,299.724 1116.51,292.52 1117.59,320.056 1118.67,319.961 1119.75,322.852 1120.83,304.482 1121.91,331.352 1122.99,319.224 1124.07,319.497 1125.15,326.478 1126.23,329.177 1127.31,307.001 1128.39,337.254 1129.47,311.292 1130.55,308.281 1131.63,306.654 1132.71,322.62 1133.79,335.872 1134.87,289.243 1135.95,316.476 1137.03,339.053 1138.11,296.602 1139.19,340.714 1140.27,311.429 1141.35,312.014 1142.43,302.864 1143.51,332.802 1144.59,332.889 1145.67,308.016 1146.75,319.714 1147.83,329.688 1148.91,323.144 1149.99,305.162 1151.07,297.932 1152.15,311.488 1153.23,307.504 1154.31,332.166 1155.39,326.851 1156.47,302.241 1157.55,293.357 1158.63,338.304 1159.71,300.51 1160.79,309.876 1161.87,309.881 1162.95,313.911 1164.03,300.485 1165.11,314.78 1166.19,326.968 1167.27,313.187 1168.35,311.67 1169.43,301.49 1170.51,314.832 1171.59,342.142 1172.67,331.798 1173.75,318.03 1174.83,330.584 1175.91,341.751 1176.99,305.513 1178.07,317.068 1179.15,300.981 1180.23,317.76 1181.31,311.206 1182.39,323.352 1183.47,326.937 1184.55,312.243 1185.63,304.979 1186.71,308.087 1187.79,331.916 1188.86,317.184 1189.94,321.485 1191.02,329.993 1192.1,331.293 1193.18,311.539 1194.26,329.678 1195.34,301.374 1196.42,305.591 1197.5,307.3 1198.58,317.729 1199.66,298.399 1200.74,319.689 1201.82,323.647 1202.9,319.044 1203.98,321.041 1205.06,329.718 1206.14,307.41 1207.22,323.71 1208.3,315.928 1209.38,299.703 1210.46,312.961 1211.54,329.804 1212.62,320.289 1213.7,324.071 1214.78,305.367 1215.86,320.737 1216.94,313.539 1218.02,320.942 1219.1,314.529 1220.18,324.274 1221.26,309.222 1222.34,319.695 1223.42,308.976 1224.5,299.08 1225.58,294.107 1226.66,321.474 1227.74,315.781 1228.82,311.167 1229.9,340.179 1230.98,303.093 1232.06,320.848 1233.14,333.083 1234.22,293.745 1235.3,338.465 1236.38,320.796 1237.46,317.584 1238.54,328.158 1239.62,321.863 1240.7,318.928 1241.78,309.202 1242.86,326.401 1243.94,339.991 1245.02,344.225 1246.1,343.653 1247.18,318.669 1248.26,303.044 1249.34,315.378 1250.42,322.846 1251.5,328.623 1252.58,317.83 1253.66,321.39 1254.74,314.894 1255.82,319.431 1256.9,329.859 1257.98,329.561 1259.06,310.215 1260.14,320.273 1261.22,318.963 1262.3,313.647 1263.38,294.425 1264.46,333.803 1265.54,314.112 1266.62,322.557 1267.7,328.705 1268.78,314.827 1269.86,314.451 1270.94,326.869 1272.02,318.248 1273.1,328.568 1274.18,339.193 1275.26,313.181 1276.34,314.243 1277.42,328.669 1278.5,323.692 1279.58,310.308 1280.66,300.152 1281.74,321.314 1282.82,321.696 1283.9,306.998 1284.98,328.023 1286.06,297.16 1287.14,301.621 1288.22,306.559 1289.3,330.05 1290.38,319.262 1291.46,319.482 1292.54,297.369 1293.62,325.483 1294.7,304.13 1295.78,310.299 1296.86,328.702 1297.94,305.928 1299.02,307.721 1300.1,312.701 1301.18,321.327 1302.26,312.004 1303.34,285.674 1304.42,347.993 1305.5,297.69 1306.58,301.664 1307.66,310.794 1308.74,311.124 1309.82,320.677 1310.9,328.449 1311.98,331.552 1313.06,314.794 1314.14,306.037 1315.22,318.473 1316.3,305.834 1317.38,313.087 1318.46,338.071 1319.54,324.596 1320.62,327.975 1321.7,326.803 1322.78,335.227 1323.86,320.163 1324.94,319.214 1326.02,324.222 1327.1,300.03 1328.18,327.269 1329.26,320.587 1330.34,319.998 1331.42,325.695 1332.5,310.777 1333.58,320.916 1334.66,305.064 1335.74,309.401 1336.82,339.846 1337.9,329.867 1338.98,313.522 1340.06,310.432 1341.14,323.998 1342.22,320.44 1343.3,312.149 1344.38,317.149 1345.46,309.991 1346.54,326.549 1347.62,326.987 1348.7,317.655 1349.78,328.781 1350.86,301.035 1351.94,317.313 1353.02,323.942 1354.1,319.131 1355.18,310.55 1356.26,298.598 1357.34,341.655 1358.42,329.45 1359.5,324.042 1360.58,311.569 1361.66,335.433 1362.74,302.988 1363.82,317.96 1364.9,314.792 1365.98,312.626 1367.06,334.455 1368.14,308.902 1369.22,320.801 1370.3,322.81 1371.38,307.543 1372.46,316.241 1373.54,310.082 1374.62,321.546 1375.7,315.688 1376.78,297.764 1377.86,324.687 1378.94,318.513 1380.02,334.071 1381.1,337.956 1382.18,319.354 1383.26,311.622 1384.34,326.872 1385.42,309.335 1386.5,319.634 1387.58,302.657 1388.66,306.391 1389.74,310.121 1390.82,287.876 1391.9,298.634 1392.98,311.635 1394.06,303.67 1395.14,319.88 1396.22,312.438 1397.3,320.248 1398.38,346.68 1399.46,315.195 1400.54,317.07 1401.62,323.847 1402.7,325.941 1403.78,316.362 1404.86,331.714 1405.94,314.057 1407.02,322.071 1408.1,321.974 1409.18,325.545 1410.26,328.644 1411.34,328.914 1412.42,304.691 1413.5,311.163 1414.58,330.205 1415.66,303.897 1416.74,309.767 1417.82,318.909 1418.9,329.14 1419.98,321.77 1421.06,328.169 1422.14,328.737 1423.22,312.568 1424.3,303.684 1425.38,309.118 1426.46,344.382 1427.54,327.481 1428.62,314.384 1429.7,311.382 1430.78,305.141 1431.86,312.218 1432.94,316.358 1434.02,326.259 1435.1,314.636 1436.18,314.505 1437.26,316.73 1438.34,321.782 1439.42,315.064 1440.5,303.525 1441.58,338.184 1442.66,359.88 1443.74,292.323 1444.82,309.346 1445.9,318.427 1446.98,317.592 1448.06,305.365 1449.14,318.298 1450.22,318.772 1451.3,327.358 1452.38,308.283 1453.46,319.947 1454.54,305.363 1455.62,327.531 1456.7,333.58 1457.78,322.905 1458.86,322.154 1459.94,313.761 1461.02,317.528 1462.1,310.694 1463.18,331.816 1464.26,298.177 1465.34,318.311 1466.42,296.261 1467.5,299.094 1468.58,315.988 1469.66,326.676 1470.74,313.087 1471.82,316.934 1472.9,321.62 1473.98,321.009 1475.06,325.597 1476.14,323.332 1477.22,333.29 1478.3,299.405 1479.38,327.574 1480.46,302.281 1481.54,308.033 1482.62,324.698 1483.7,300.774 1484.78,308.389 1485.86,330.377 1486.94,318.768 1488.02,302.751 1489.1,330.705 1490.18,328.042 1491.26,293.61 1492.34,295.205 1493.42,333.338 1494.5,314.084 1495.58,304.854 1496.66,301.221 1497.74,335.56 1498.82,320.399 1499.9,308.672 1500.98,325.292 1502.06,326.538 1503.14,319.641 1504.22,323.376 1505.3,308.281 1506.38,313.349 1507.46,292.652 1508.54,299.813 1509.62,314.144 1510.7,332.038 1511.78,295.86 1512.86,302.922 1513.94,312.978 1515.02,325.082 1516.1,316.198 1517.18,334.896 1518.26,302.395 1519.34,319.081 1520.42,312.429 1521.5,316.162 1522.58,339.795 1523.66,302.317 1524.74,318.807 1525.82,311.318 1526.9,301.782 1527.98,325.006 1529.06,316.848 1530.14,317.033 1531.22,306.344 1532.3,345.539 1533.38,339.935 1534.46,312.4 1535.54,320.218 1536.62,321.175 1537.7,336.918 1538.78,318.7 1539.86,315.374 1540.93,324.349 1542.01,309.006 1543.09,336.504 1544.17,310.775 1545.25,306.67 1546.33,317.93 1547.41,320.458 1548.49,317.763 1549.57,309.604 1550.65,310.919 1551.73,322.145 1552.81,301.116 1553.89,319.681 1554.97,318.192 1556.05,308.228 1557.13,315.738 1558.21,320.82 1559.29,322.638 1560.37,322.684 1561.45,302.159 1562.53,304.789 1563.61,300.19 1564.69,329.615 1565.77,311.213 1566.85,306.949 1567.93,309.992 1569.01,318.512 1570.09,318.561 1571.17,320.981 1572.25,313.113 1573.33,326.466 1574.41,313.423 1575.49,301.644 1576.57,319.876 1577.65,291.439 1578.73,307.814 1579.81,314.356 1580.89,329.848 1581.97,328.562 1583.05,321.636 1584.13,319.516 1585.21,312.696 1586.29,329.506 1587.37,333.573 1588.45,305.444 1589.53,311.41 1590.61,319.172 1591.69,311.395 1592.77,320.415 1593.85,310.684 1594.93,310.419 1596.01,316.427 1597.09,314.851 1598.17,318.391 1599.25,322.015 1600.33,313.302 1601.41,320.498 1602.49,329.485 1603.57,316.476 1604.65,324.291 1605.73,312.121 1606.81,319.278 1607.89,330.076 1608.97,336.387 1610.05,319.307 1611.13,307.192 1612.21,319.22 1613.29,314.595 1614.37,314.793 1615.45,312.963 1616.53,324.652 1617.61,322.7 1618.69,327.574 1619.77,320.531 1620.85,300.207 1621.93,308.366 1623.01,313.38 1624.09,312.92 1625.17,317.175 1626.25,315.079 1627.33,324.499 1628.41,314.32 1629.49,293.64 1630.57,288.446 1631.65,313.06 1632.73,297.929 1633.81,301.562 1634.89,314.56 1635.97,307.379 1637.05,316.094 1638.13,308.087 1639.21,329.457 1640.29,303.281 1641.37,300.31 1642.45,326.481 1643.53,305.177 1644.61,318.64 1645.69,317.843 1646.77,334.253 1647.85,319.641 1648.93,297.629 1650.01,331.296 1651.09,335.829 1652.17,305.508 1653.25,341.69 1654.33,335.803 1655.41,301.103 1656.49,307.688 1657.57,315.767 1658.65,309.2 1659.73,333.408 1660.81,317.857 1661.89,309.068 1662.97,337.536 1664.05,317.103 1665.13,331.347 1666.21,328.907 1667.29,329.929 1668.37,318.265 1669.45,303.231 1670.53,332.045 1671.61,325.803 1672.69,301.246 1673.77,301.019 1674.85,316.056 1675.93,305.324 1677.01,329.64 1678.09,317.547 1679.17,328.862 1680.25,315.721 1681.33,305.495 1682.41,322.37 1683.49,309.618 1684.57,330.319 1685.65,327.396 1686.73,319.451 1687.81,313.234 1688.89,327.113 1689.97,316.284 1691.05,320.694 1692.13,326.779 1693.21,311.934 1694.29,311.552 1695.37,315.709 1696.45,296.693 1697.53,303.125 1698.61,337.65 1699.69,327.376 1700.77,307.747 1701.85,298.052 1702.93,346.023 1704.01,310.124 1705.09,321.896 1706.17,303.393 1707.25,332.198 1708.33,322.131 1709.41,329.298 1710.49,295.778 1711.57,320.666 1712.65,321.8 1713.73,322.845 1714.81,311.917 1715.89,294.216 1716.97,285.121 1718.05,346.5 1719.13,311.779 1720.21,323.327 1721.29,304.587 1722.37,317.54 1723.45,328.089 1724.53,333.114 1725.61,317.086 1726.69,313.398 1727.77,309.949 1728.85,314.794 1729.93,323.142 1731.01,306.912 1732.09,316.723 1733.17,309.967 1734.25,315.6 1735.33,314.721 1736.41,328.637 1737.49,309.82 1738.57,320.233 1739.65,320.061 1740.73,317.154 1741.81,300.836 1742.89,322.487 1743.97,310.196 1745.05,306.758 1746.13,315.683 1747.21,294.203 1748.29,294.311 1749.37,297.949 1750.45,308.718 1751.53,308.203 1752.61,328.887 1753.69,312.008 1754.77,319.762 1755.85,309.485 1756.93,305.882 1758.01,311.392 1759.09,307.272 1760.17,329.516 1761.25,314.762 1762.33,306.734 1763.41,334.229 1764.49,303.263 1765.57,315.328 1766.65,314.212 1767.73,305.963 1768.81,337.251 1769.89,290.999 1770.97,314.779 1772.05,319.405 1773.13,311.63 1774.21,334.83 1775.29,331.893 1776.37,327.213 1777.45,322.476 1778.53,331.341 1779.61,307.101 1780.69,326.702 1781.77,322.588 1782.85,312.969 1783.93,304.826 1785.01,347.705 1786.09,347.569 1787.17,312.049 1788.25,317.985 1789.33,323.237 1790.41,332.946 1791.49,324.875 1792.57,323.478 1793.65,316.526 1794.73,319.873 1795.81,320.989 1796.89,318.641 1797.97,321.136 1799.05,316.811 1800.13,309.258 1801.21,290.05 1802.29,334.174 1803.37,329.672 1804.45,333.845 1805.53,331.77 1806.61,311.864 1807.69,318.731 1808.77,314.202 1809.85,304.761 1810.93,311.794 1812.01,342.589 1813.09,312.923 1814.17,331.502 1815.25,310.848 1816.33,319.364 1817.41,324.603 1818.49,329.28 1819.57,332.166 1820.65,330.655 1821.73,326.495 1822.81,322.287 1823.89,325.336 1824.97,313.261 1826.05,313.174 1827.13,315.164 1828.21,308.867 1829.29,326.714 1830.37,304.011 1831.45,320.163 1832.53,297.08 1833.61,303.2 1834.69,306.873 1835.77,334.027 1836.85,315.644 1837.93,330.785 1839.01,322.107 1840.09,301.885 1841.17,310.53 1842.25,326.931 1843.33,304.496 1844.41,314.388 1845.49,321.621 1846.57,311.898 1847.65,325.163 1848.73,332.236 1849.81,317.933 1850.89,333.856 1851.97,318.109 1853.05,312.458 1854.13,323.076 1855.21,292.453 1856.29,316.891 1857.37,307.485 1858.45,324.932 1859.53,300.466 1860.61,325.87 1861.69,326.712 1862.77,318.774 1863.85,312.799 1864.93,316.398 1866.01,315.585 1867.09,323.821 1868.17,324.678 1869.25,315.798 1870.33,315.886 1871.41,336.313 1872.49,318.198 1873.57,322.065 1874.65,328.582 1875.73,314.019 1876.81,295.291 1877.89,318.711 1878.97,328.455 1880.05,305.395 1881.13,316.764 1882.21,305.992 1883.29,316.25 1884.37,321.242 1885.45,333.755 1886.53,330.388 1887.61,316.888 1888.69,305.861 1889.77,329.367 1890.85,319.552 1891.93,313.287 1893,307.77 1894.08,315.412 1895.16,331.949 1896.24,320.711 1897.32,321.212 1898.4,310.637 1899.48,317.452 1900.56,320.632 1901.64,293.836 1902.72,328.126 1903.8,322.125 1904.88,332.132 1905.96,290.209 1907.04,328.851 1908.12,329.336 1909.2,307.696 1910.28,308.368 1911.36,321.297 1912.44,332.482 1913.52,324.011 1914.6,308.156 1915.68,325.4 1916.76,311.747 1917.84,327.281 1918.92,320.657 1920,326.108 1921.08,305.464 1922.16,310.77 1923.24,300.227 1924.32,316.004 1925.4,305.73 1926.48,301.841 1927.56,304.643 1928.64,298.082 1929.72,322.919 1930.8,330.278 1931.88,312.035 1932.96,326.851 1934.04,312.523 1935.12,314.04 1936.2,313.903 1937.28,301.321 1938.36,330.508 1939.44,311.792 1940.52,308.456 1941.6,312.718 1942.68,318.741 1943.76,317.486 1944.84,314.147 1945.92,313.159 1947,317.474 1948.08,302.96 1949.16,312.261 1950.24,304.542 1951.32,306.553 1952.4,324.636 1953.48,328.554 1954.56,320.847 1955.64,306.198 1956.72,322.202 1957.8,320.032 1958.88,332.04 1959.96,321.42 1961.04,311.427 1962.12,312.026 1963.2,329.196 1964.28,313.151 1965.36,319.509 1966.44,345.692 1967.52,293.229 1968.6,304.631 1969.68,351.049 1970.76,329.747 1971.84,303.448 1972.92,318.982 1974,332.006 1975.08,306.759 1976.16,312.164 1977.24,341.151 1978.32,315.978 1979.4,329.969 1980.48,317.397 1981.56,314.952 1982.64,339.206 1983.72,301.581 1984.8,321.494 1985.88,324.438 1986.96,318.316 1988.04,313.732 1989.12,316.118 1990.2,326.002 1991.28,319.641 1992.36,321.178 1993.44,296.845 1994.52,343.2 1995.6,340.935 1996.68,314.621 1997.76,347.117 1998.84,315.145 1999.92,299.107 2001,319.321 2002.08,339.05 2003.16,316.606 2004.24,307.644 2005.32,308.232 2006.4,332.025 2007.48,321.824 2008.56,315.227 2009.64,320.196 2010.72,332.762 2011.8,329.525 2012.88,317.459 2013.96,324.893 2015.04,313.577 2016.12,284.656 2017.2,341.247 2018.28,311.072 2019.36,309.594 2020.44,315.203 2021.52,347.074 2022.6,336.113 2023.68,305.743 2024.76,292.863 2025.84,325.324 2026.92,310.89 2028,312.749 2029.08,315.435 2030.16,318.383 2031.24,316.148 2032.32,315.617 2033.4,319.876 2034.48,323.775 2035.56,316.321 2036.64,320.968 2037.72,310.864 2038.8,318.908 2039.88,308.275 2040.96,298.501 2042.04,300.402 2043.12,306.8 2044.2,327.654 2045.28,309.186 2046.36,333.499 2047.44,313.737 2048.52,296.124 2049.6,308.566 2050.68,317.446 2051.76,309.951 2052.84,321.158 2053.92,313.104 2055,291.647 2056.08,334.396 2057.16,307.346 2058.24,324.839 2059.32,314.35 2060.4,333.807 2061.48,321.663 2062.56,322.782 2063.64,320.256 2064.72,318.967 2065.8,306.454 2066.88,337.495 2067.96,300.645 2069.04,314.295 2070.12,315.153 2071.2,336.183 2072.28,331.482 2073.36,335.743 2074.44,294.707 2075.52,301.476 2076.6,319.482 2077.68,304.716 2078.76,330.286 2079.84,343.101 2080.92,310.653 2082,322.985 2083.08,332.586 2084.16,329.549 2085.24,326.452 2086.32,332.395 2087.4,312.207 2088.48,327.859 2089.56,317.386 2090.64,313.517 2091.72,331.606 2092.8,313.616 2093.88,335.221 2094.96,313.329 2096.04,299.341 2097.12,316.819 2098.2,333.675 2099.28,319.974 2100.36,312.159 2101.44,329.238 2102.52,304.62 2103.6,306.22 2104.68,304.763 2105.76,308.238 2106.84,327.73 2107.92,317.05 2109,321.68 2110.08,316.315 2111.16,329.714 2112.24,315.754 2113.32,304.578 2114.4,315.865 2115.48,339.932 2116.56,323.741 2117.64,305.65 2118.72,310.951 2119.8,315.509 2120.88,326.366 2121.96,308.271 2123.04,308.765 2124.12,318.219 2125.2,302.132 2126.28,330.266 2127.36,329.817 2128.44,307.735 2129.52,303.586 2130.6,296.276 2131.68,315.498 2132.76,300.206 2133.84,307.506 2134.92,312.25 2136,317.054 2137.08,302.117 2138.16,309.882 2139.24,320.658 2140.32,311.825 2141.4,321.872 2142.48,308.005 2143.56,305.554 2144.64,313.778 2145.72,316.026 2146.8,309.121 2147.88,294.658 2148.96,320.206 2150.04,345.708 2151.12,325.382 2152.2,324.984 2153.28,302.885 2154.36,326.89 2155.44,305.683 2156.52,315.182 2157.6,302.871 2158.68,339.894 2159.76,297.186 2160.84,314.425 2161.92,310.492 2163,338.955 2164.08,344.823 2165.16,319.514 2166.24,306.752 2167.32,315.215 2168.4,321.146 2169.48,307.566 2170.56,309.351 2171.64,312.854 2172.72,315.883 2173.8,322.261 2174.88,322.343 2175.96,301.136 2177.04,311.843 2178.12,325.274 2179.2,336.549 2180.28,313.628 2181.36,321.837 2182.44,317.566 2183.52,319.897 2184.6,330.14 2185.68,317.858 2186.76,330.973 2187.84,309.638 2188.92,300.287 2190,314.063 2191.08,311.466 2192.16,327.073 2193.24,332.208 2194.32,310.092 2195.4,315.796 2196.48,323.369 2197.56,329.343 2198.64,315.879 2199.72,300.685 2200.8,316.611 2201.88,309.287 2202.96,320.859 2204.04,312.955 2205.12,305.198 2206.2,318.217 2207.28,329.732 2208.36,310.93 2209.44,319.98 2210.52,312.087 2211.6,328.86 2212.68,313.68 2213.76,316.666 2214.84,321.698 2215.92,327.491 2217,318.725 2218.08,332.963 2219.16,321.626 2220.24,304.72 2221.32,327.899 2222.4,317.859 2223.48,305.821 2224.56,313.738 2225.64,314.574 2226.72,319.461 2227.8,317.432 2228.88,307.869 2229.96,328.684 2231.04,326.448 2232.12,295.023 2233.2,305.846 2234.28,325.546 2235.36,319.282 2236.44,318.815 2237.52,324.895 2238.6,313.967 2239.68,322.435 2240.76,281.081 2241.84,295.957 2242.92,309.847 2244,321.298 2245.08,307.762 2246.15,320.542 2247.23,329.358 2248.31,308.129 2249.39,324.65 2250.47,305.064 2251.55,321.69 2252.63,323.613 2253.71,306.901 2254.79,322.475 2255.87,327.005 2256.95,307.064 2258.03,315.749 2259.11,331.916 2260.19,306.526 2261.27,317.187 2262.35,327.963 2263.43,304.763 2264.51,292.646 2265.59,289.229 2266.67,308.508 2267.75,313.04 2268.83,306.536 2269.91,317.962 2270.99,294.505 2272.07,293.945 2273.15,333.476 2274.23,325.609 2275.31,299.417 2276.39,326.168 2277.47,322.779 2278.55,322.976 2279.63,308.82 2280.71,328.027 2281.79,313.707 2282.87,321.506 2283.95,308.554 2285.03,299.879 2286.11,315.015 2287.19,325.54 2288.27,314.864 2289.35,322.383 2290.43,318.46 2291.51,336.508 2292.59,307.067 2293.67,298.196 2294.75,296.404 2295.83,327.013 2296.91,327.457 2297.99,312.795 2299.07,304.256 2300.15,322.946 2301.23,317.519 2302.31,311.93 2303.39,312.358 2304.47,319.837 2305.55,321.85 2306.63,322.245 2307.71,322.562 2308.79,310.808 2309.87,323.317 2310.95,314.418 2312.03,319.826 2313.11,325.901 2314.19,294.552 2315.27,289.85 2316.35,321.02 2317.43,314.05 2318.51,320.195 2319.59,308.439 2320.67,322.254 2321.75,325.565 2322.83,319.187 2323.91,321.901 2324.99,320.091 2326.07,339.175 2327.15,304.286 2328.23,296.855 2329.31,323.604 2330.39,335.961 2331.47,311.48 2332.55,320.863 2333.63,314.96 2334.71,303.043 2335.79,315.528 2336.87,303.75 2337.95,298.001 2339.03,312.672 2340.11,318.381 2341.19,320.779 2342.27,308.785 2343.35,321.682 2344.43,312.082 2345.51,338.182 2346.59,320.481 2347.67,302.28 2348.75,332.487 2349.83,307.336 2350.91,311.938 2351.99,335.818 2353.07,314.41 2354.15,317.42 2355.23,333.902 2356.31,330.746 2357.39,322.238 2358.47,306.908 2359.55,331.994 2360.63,346.25 2361.71,336.392 2362.79,319.888 2363.87,329.874 2364.95,294.536 2366.03,318.121 2367.11,317.73 2368.19,300.675 2369.27,306.193 2370.35,309.824 2371.43,325.896 2372.51,324.241 2373.59,334.547 2374.67,321.537 2375.75,306.352 2376.83,321.265 2377.91,321.484 2378.99,295.697 2380.07,334.438 2381.15,335.519 2382.23,305.627 2383.31,302.383 2384.39,304.07 2385.47,293.887 2386.55,318.671 2387.63,313.061 2388.71,329.863 2389.79,338.566 2390.87,315.834 2391.95,330.036 2393.03,314.216 2394.11,300.449 2395.19,321.489 2396.27,306.388 2397.35,297.159 2398.43,311.34 2399.51,315.468 2400.59,310.06 2401.67,303.891 2402.75,311.444 2403.83,312.131 2404.91,326.455 2405.99,319.822 2407.07,318.074 2408.15,297.892 2409.23,324.964 2410.31,318.102 2411.39,316.195 2412.47,311.482 2413.55,308.765 2414.63,329.89 2415.71,294.841 2416.79,308.66 2417.87,316.627 2418.95,305.02 2420.03,306.206 2421.11,302.583 2422.19,310.505 2423.27,344.054 2424.35,313.234 2425.43,317.752 2426.51,309.384 2427.59,320.368 2428.67,314.646 2429.75,331.712 2430.83,328.593 2431.91,328.929 2432.99,319.831 2434.07,320.5 2435.15,327.59 2436.23,294.853 2437.31,314.829 2438.39,307.892 2439.47,310.688 2440.55,316.351 2441.63,313.722 2442.71,314.214 2443.79,317.38 2444.87,283.905 2445.95,326.444 2447.03,324.047 2448.11,315.867 2449.19,309.841 2450.27,298.92 2451.35,299.767 2452.43,319.432 2453.51,335.359 2454.59,314.894 2455.67,310.768 2456.75,337.887 2457.83,319.988 2458.91,319.113 2459.99,322.737 2461.07,310.788 2462.15,312.222 2463.23,309.451 2464.31,311.87 2465.39,312.937 2466.47,338.143 2467.55,333.675 2468.63,299.124 2469.71,311.207 2470.79,324.941 2471.87,298.029 2472.95,326.79 2474.03,326.924 2475.11,313.207 2476.19,319.578 2477.27,326.781 2478.35,321.143 2479.43,313.783 2480.51,321.105 2481.59,313.053 2482.67,310.562 2483.75,325.405 2484.83,326.431 2485.91,294.656 2486.99,332.319 2488.07,309.269 2489.15,325.233 2490.23,311.299 2491.31,305.902 2492.39,313.657 2493.47,300.977 2494.55,302.336 2495.63,341.328 2496.71,310.613 2497.79,299.909 2498.87,305.897 2499.95,340.824 2501.03,308.591 2502.11,312.31 2503.19,323.933 2504.27,318.645 2505.35,314.299 2506.43,313.389 2507.51,309.211 2508.59,315.104 2509.67,326.146 2510.75,307.141 2511.83,324.446 2512.91,318.766 2513.99,314.354 2515.07,298.663 2516.15,307.88 2517.23,320.79 2518.31,314.915 2519.39,333.054 2520.47,317.027 2521.55,319.355 2522.63,332.804 2523.71,324.922 2524.79,323.891 2525.87,316.258 2526.95,297.573 2528.03,318.484 2529.11,324.761 2530.19,318.306 2531.27,328.839 2532.35,309.355 2533.43,309.688 2534.51,305.441 2535.59,301.415 2536.67,308.317 2537.75,303.738 2538.83,307.347 2539.91,317.204 2540.99,316.797 2542.07,333.842 2543.15,306.438 2544.23,309.944 2545.31,319.731 2546.39,311.46 2547.47,306.353 2548.55,313.224 2549.63,312.983 2550.71,316.636 2551.79,319.702 2552.87,301.548 2553.95,317.005 2555.03,330.588 2556.11,310.577 2557.19,298.11 2558.27,299.231 2559.35,318.499 2560.43,316.514 2561.51,317.754 2562.59,319.617 2563.67,317.351 2564.75,323.105 2565.83,314.172 2566.91,322.324 2567.99,321.01 2569.07,296.604 2570.15,318.573 2571.23,309.944 2572.31,324.192 2573.39,309.601 2574.47,308.187 2575.55,317.133 2576.63,322.207 2577.71,329.683 2578.79,315.38 2579.87,326.767 2580.95,313.929 2582.03,305.693 2583.11,306.626 2584.19,314.02 2585.27,293.639 2586.35,341.167 2587.43,299.596 2588.51,328.872 2589.59,307.236 2590.67,313.108 2591.75,316.017 2592.83,334.139 2593.91,332.185 2594.99,304.244 2596.07,304.378 2597.15,322.504 2598.22,324.335 2599.3,331.287 2600.38,304.6 2601.46,317.48 2602.54,317.68 2603.62,316.387 2604.7,314.607 2605.78,336.344 2606.86,323.811 2607.94,332.43 2609.02,311.512 2610.1,315.86 2611.18,309.802 2612.26,321.444 2613.34,325.71 2614.42,325.859 2615.5,315.391 2616.58,298.135 2617.66,320.488 2618.74,323.812 2619.82,304.591 2620.9,304.187 2621.98,316.845 2623.06,340.809 2624.14,325.85 2625.22,293.874 2626.3,291.312 2627.38,318.5 2628.46,337.798 2629.54,340.55 2630.62,328.738 2631.7,308.969 2632.78,311.622 2633.86,309.113 2634.94,301.896 2636.02,326.868 2637.1,304.444 2638.18,324.611 2639.26,316.433 2640.34,337.586 2641.42,317.21 2642.5,311.344 2643.58,314.732 2644.66,325.363 2645.74,313.069 2646.82,315.662 2647.9,309.345 2648.98,338.469 2650.06,308.259 2651.14,309.434 2652.22,315.661 2653.3,311.621 2654.38,331.831 2655.46,317.777 2656.54,309.986 2657.62,328.956 2658.7,316.826 2659.78,325.157 2660.86,310.384 2661.94,307.992 2663.02,305.168 2664.1,315.949 2665.18,316.103 2666.26,309.307 2667.34,326.034 2668.42,327.943 2669.5,338.756 2670.58,306.627 2671.66,343.597 2672.74,343.721 2673.82,312.886 2674.9,322.021 2675.98,317.381 2677.06,314.766 2678.14,307.205 2679.22,303.442 2680.3,319.588 2681.38,300.322 2682.46,329.341 2683.54,309.578 2684.62,312.252 2685.7,314.886 2686.78,304.464 2687.86,323.186 2688.94,292.351 2690.02,331.112 2691.1,330.502 2692.18,324.152 2693.26,322.588 2694.34,312.595 2695.42,319.352 2696.5,308.321 2697.58,316.506 2698.66,315.17 2699.74,312.351 2700.82,317.385 2701.9,313.059 2702.98,312.779 2704.06,331.957 2705.14,310.605 2706.22,321.58 2707.3,326.213 2708.38,328.299 2709.46,305.515 2710.54,300.342 2711.62,306.307 2712.7,313.734 2713.78,301.563 2714.86,316.506 2715.94,299.983 2717.02,311.635 2718.1,312.807 2719.18,306.623 2720.26,305.506 2721.34,309.276 2722.42,299.68 2723.5,322.131 2724.58,310.787 2725.66,319.649 2726.74,322.234 2727.82,316.451 2728.9,318.993 2729.98,314.139 2731.06,316.891 2732.14,314.862 2733.22,310.903 2734.3,315.401 2735.38,323.335 2736.46,320.937 2737.54,312.186 2738.62,320.981 2739.7,313.348 2740.78,310.323 2741.86,305.048 2742.94,318.664 2744.02,316.479 2745.1,318.176 2746.18,325.588 2747.26,314.999 2748.34,314.806 2749.42,315.045 2750.5,313.28 2751.58,311.863 2752.66,332.324 2753.74,300.811 2754.82,323.101 2755.9,308.002 2756.98,313.179 2758.06,322.728 2759.14,314.821 2760.22,314.888 2761.3,316.742 2762.38,309.382 2763.46,315.326 2764.54,330.648 2765.62,311.97 2766.7,331.887 2767.78,323.958 2768.86,322.241 2769.94,319.984 2771.02,326.804 2772.1,330.146 2773.18,306.677 2774.26,301.117 2775.34,325.31 2776.42,315.335 2777.5,315.825 2778.58,314.687 2779.66,313.702 2780.74,315.265 2781.82,345.706 2782.9,333.927 2783.98,317.366 2785.06,316.881 2786.14,330.134 2787.22,333.643 2788.3,325.338 2789.38,311.788 2790.46,327.202 2791.54,303.159 2792.62,292.879 2793.7,322.04 2794.78,318.761 2795.86,342.132 2796.94,328.173 2798.02,321.235 2799.1,337.788 2800.18,312.348 2801.26,322.662 2802.34,326.959 2803.42,314.562 2804.5,313.125 2805.58,309.887 2806.66,333.448 2807.74,321.755 2808.82,324.145 2809.9,328.845 2810.98,306.545 2812.06,316.825 2813.14,314.173 2814.22,317.287 2815.3,304.484 2816.38,315.513 2817.46,332.11 2818.54,312.927 2819.62,311.365 2820.7,318.557 2821.78,301.597 2822.86,304.452 2823.94,312.791 2825.02,330.168 2826.1,308.5 2827.18,320.85 2828.26,310.662 2829.34,307.435 2830.42,335.324 2831.5,316.367 2832.58,326.496 2833.66,315.767 2834.74,318.684 2835.82,308.968 2836.9,318.235 2837.98,319.11 2839.06,311.394 2840.14,347.001 2841.22,330.505 2842.3,316.282 2843.38,319.178 2844.46,315.941 2845.54,308.98 2846.62,315.922 2847.7,319.295 2848.78,329.678 2849.86,317.368 2850.94,308.137 2852.02,323.245 2853.1,305.368 2854.18,315.643 2855.26,292.353 2856.34,337.233 2857.42,309.089 2858.5,298.456 2859.58,321.512 2860.66,327.283 2861.74,311.01 2862.82,324.537 2863.9,325.014 2864.98,313.981 2866.06,312.035 2867.14,340.363 2868.22,287.444 2869.3,338.512 2870.38,327.978 2871.46,330.183 2872.54,325.264 2873.62,316.366 2874.7,304.22 2875.78,294.586 2876.86,325.801 2877.94,306.532 2879.02,316.023 2880.1,320.786 2881.18,310.09 2882.26,322.616 2883.34,309.773 2884.42,339.997 2885.5,323.122 2886.58,334.778 2887.66,309.052 2888.74,334.15 2889.82,301.311 2890.9,309.109 2891.98,302.173 2893.06,320.488 2894.14,320.381 2895.22,308.163 2896.3,323.928 2897.38,318.773 2898.46,309.421 2899.54,307.354 2900.62,304.942 2901.7,315.703 2902.78,321.054 2903.86,322.188 2904.94,318.087 2906.02,312.752 2907.1,325.44 2908.18,293.74 2909.26,288.337 2910.34,304.842 2911.42,330.678 2912.5,314.566 2913.58,307.856 2914.66,308.61 2915.74,321 2916.82,312.147 2917.9,330.803 2918.98,318.923 2920.06,304.886 2921.14,292.401 2922.22,341.728 2923.3,330.94 2924.38,324.258 2925.46,325.673 2926.54,312.745 2927.62,303.946 2928.7,317.697 2929.78,299.744 2930.86,328.803 2931.94,303.729 2933.02,309.663 2934.1,305.399 2935.18,309.957 2936.26,327.127 2937.34,340.392 2938.42,341.639 2939.5,306.087 2940.58,313.274 2941.66,312.133 2942.74,327.872 2943.82,316.103 2944.9,322.649 2945.98,317.927 2947.06,316.227 2948.14,311.755 2949.22,319.381 2950.29,299.191 2951.37,304.154 2952.45,329.682 2953.53,309.217 2954.61,311.213 2955.69,312.632 2956.77,300.132 2957.85,333.619 2958.93,307.305 2960.01,317.902 2961.09,320.354 2962.17,292.56 2963.25,311.92 2964.33,309.415 2965.41,323.686 2966.49,312.634 2967.57,313.085 2968.65,284.063 2969.73,331.458 2970.81,312.897 2971.89,308.191 2972.97,323.005 2974.05,322.891 2975.13,320.2 2976.21,330.051 2977.29,310.971 2978.37,295.672 2979.45,334.413 2980.53,311.736 2981.61,301.866 2982.69,313.016 2983.77,328.487 2984.85,324.6 2985.93,337.706 2987.01,316.769 2988.09,328.603 2989.17,326.755 2990.25,327.764 2991.33,316.671 2992.41,318.198 2993.49,319.713 2994.57,331.341 2995.65,287.834 2996.73,288.002 2997.81,311.035 2998.89,323.914 2999.97,330.298 3001.05,342.556 3002.13,325.549 3003.21,309.048 3004.29,308.473 3005.37,322.295 3006.45,329.511 3007.53,312.352 3008.61,320.12 3009.69,318.339 3010.77,313.83 3011.85,327.688 3012.93,314.256 3014.01,323.404 3015.09,336.895 3016.17,324.564 3017.25,308.411 3018.33,313.156 3019.41,324.69 3020.49,314.764 3021.57,316.561 3022.65,300.045 3023.73,321.634 3024.81,335.057 3025.89,306.089 3026.97,308.787 3028.05,315.796 3029.13,317.595 3030.21,325.368 3031.29,316.386 3032.37,330.788 3033.45,321.611 3034.53,312.665 3035.61,316.833 3036.69,318.077 3037.77,317.542 3038.85,314.528 3039.93,319.834 3041.01,320.115 3042.09,321.848 3043.17,277.398 3044.25,351.689 3045.33,284.71 3046.41,308.285 3047.49,336.006 3048.57,306.979 3049.65,319.032 3050.73,311.085 3051.81,311.755 3052.89,297.85 3053.97,328.611 3055.05,326.052 3056.13,317.482 3057.21,318.7 3058.29,303.609 3059.37,321.317 3060.45,336.422 3061.53,320.756 3062.61,316.242 3063.69,305.03 3064.77,323.623 3065.85,318.585 3066.93,313.828 3068.01,331.146 3069.09,322.193 3070.17,331.479 3071.25,334.049 3072.33,286.461 3073.41,308.914 3074.49,306.485 3075.57,350.423 3076.65,323.088 3077.73,320.439 3078.81,312.997 3079.89,307.534 3080.97,321.758 3082.05,317.478 3083.13,314.769 3084.21,304.451 3085.29,310.766 3086.37,301.89 3087.45,309.634 3088.53,327.865 3089.61,324.345 3090.69,316.169 3091.77,312.5 3092.85,311.142 3093.93,308.238 3095.01,325.196 3096.09,316.116 3097.17,332.325 3098.25,292.433 3099.33,311.542 3100.41,320.396 3101.49,331.857 3102.57,309.275 3103.65,317.096 3104.73,331.011 3105.81,312.995 3106.89,300.388 3107.97,318.168 3109.05,333.776 3110.13,294.531 3111.21,295.322 3112.29,336.416 3113.37,310.022 3114.45,319.763 3115.53,330.009 3116.61,338.78 3117.69,339.505 3118.77,313.082 3119.85,315.543 3120.93,307.391 3122.01,311.579 3123.09,325.303 3124.17,304.674 3125.25,316.82 3126.33,320.579 3127.41,321.004 3128.49,315.068 3129.57,323.717 3130.65,313.961 3131.73,324.892 3132.81,321.522 3133.89,316.352 3134.97,327.107 3136.05,311.116 3137.13,315.367 3138.21,327.32 3139.29,311.349 3140.37,317.096 3141.45,313.715 3142.53,315.326 3143.61,314.148 3144.69,320.941 3145.77,326.627 3146.85,320.962 3147.93,318.52 3149.01,293.541 3150.09,303.946 3151.17,298.873 3152.25,320.087 3153.33,314.542 3154.41,296.894 3155.49,311.581 3156.57,321.915 3157.65,336.909 3158.73,296.629 3159.81,307.794 3160.89,293.895 3161.97,342.283 3163.05,328.14 3164.13,338.015 3165.21,328.885 3166.29,316.695 3167.37,333.858 3168.45,299.754 3169.53,312.018 3170.61,322.941 3171.69,317.973 3172.77,289.783 3173.85,307.384 3174.93,312.61 3176.01,317.86 3177.09,311.999 3178.17,334.4 3179.25,324.57 3180.33,322.465 3181.41,322.664 3182.49,327.582 3183.57,319.798 3184.65,310.219 3185.73,314.293 3186.81,303.336 3187.89,335.467 3188.97,312.436 3190.05,321.535 3191.13,312.431 3192.21,326.114 3193.29,314.036 3194.37,309.599 3195.45,302.837 3196.53,318.545 3197.61,321.691 3198.69,331.678 3199.77,317.731 3200.85,320.704 3201.93,323.276 3203.01,329.071 3204.09,338.116 3205.17,318.4 3206.25,308.843 3207.33,318.279 3208.41,328.101 3209.49,319.918 3210.57,324.715 3211.65,322.51 3212.73,298.179 3213.81,310.609 3214.89,322.488 3215.97,304.671 3217.05,300.575 3218.13,337.5 3219.21,333.025 3220.29,314.052 3221.37,332.622 3222.45,299.014 3223.53,293.358 3224.61,323.569 3225.69,316.272 3226.77,316.989 3227.85,315.598 3228.93,323.498 3230.01,303.099 3231.09,320.432 3232.17,330.395 3233.25,309.806 3234.33,318.96 3235.41,309.43 3236.49,321.708 3237.57,314.37 3238.65,307.609 3239.73,313.723 3240.81,309.65 3241.89,325.152 3242.97,329.839 3244.05,301.875 3245.13,322.901 3246.21,311.555 3247.29,330.894 3248.37,319.088 3249.45,328.073 3250.53,308.053 3251.61,319.312 3252.69,308.898 3253.77,300.627 3254.85,306.488 3255.93,301.003 3257.01,311.87 3258.09,330.219 3259.17,312.785 3260.25,299.428 3261.33,330.753 3262.41,313.633 3263.49,312.241 3264.57,321.894 3265.65,324.415 3266.73,308.03 3267.81,305.777 3268.89,308.665 3269.97,302.004 3271.05,321.081 3272.13,321.945 3273.21,310.901 3274.29,315.678 3275.37,297.714 3276.45,310.898 3277.53,298.556 3278.61,327.481 3279.69,319.258 3280.77,328.945 3281.85,312.76 3282.93,307.086 3284.01,310.195 3285.09,313.867 3286.17,301.903 3287.25,303.191 3288.33,302.301 3289.41,330.326 3290.49,312.623 3291.57,325.557 3292.65,315.406 3293.73,308.483 3294.81,338.695 3295.89,301.898 3296.97,314.217 3298.05,337.487 3299.13,335.156 3300.21,314.126 3301.29,317.46 3302.37,318.506 3303.44,323.57 3304.52,316.682 3305.6,308.771 3306.68,331.002 3307.76,298.859 3308.84,323.541 3309.92,309.559 3311,308.965 3312.08,312.441 3313.16,317.886 3314.24,312.844 3315.32,323.252 3316.4,312.295 3317.48,304.237 3318.56,307.797 3319.64,315.793 3320.72,305.234 3321.8,331.191 3322.88,314.151 3323.96,324.966 3325.04,312.898 3326.12,313.742 3327.2,319.568 3328.28,315.259 3329.36,317.951 3330.44,301.715 3331.52,308.122 3332.6,322.742 3333.68,311.478 3334.76,310.198 3335.84,300.338 3336.92,326.697 3338,302.603 3339.08,293.783 3340.16,314.86 3341.24,317.96 3342.32,333.819 3343.4,317.634 3344.48,305.936 3345.56,303.478 3346.64,335.375 3347.72,324.078 3348.8,310.43 3349.88,314.854 3350.96,316.231 3352.04,311.203 3353.12,321.419 3354.2,329.251 3355.28,319.936 3356.36,312.621 3357.44,306.431 3358.52,316.803 3359.6,317.49 3360.68,323.854 3361.76,310.443 3362.84,322.773 3363.92,303.562 3365,301.449 3366.08,306.922 3367.16,301.168 3368.24,315.103 3369.32,326.375 3370.4,329.223 3371.48,316.475 3372.56,312.821 3373.64,326.258 3374.72,305.045 3375.8,326.953 3376.88,306.131 3377.96,306.106 3379.04,327.515 3380.12,339.069 3381.2,305.137 3382.28,317.04 3383.36,308.495 3384.44,302.728 3385.52,311.756 3386.6,336.986 3387.68,326.446 3388.76,301.631 3389.84,308.513 3390.92,310.792 3392,330.582 3393.08,332.516 3394.16,331.137 3395.24,316.755 3396.32,312.038 3397.4,305.368 3398.48,312.217 3399.56,308.055 3400.64,310.599 3401.72,307.996 3402.8,313.266 3403.88,303.661 3404.96,345.967 3406.04,299.374 3407.12,321.764 3408.2,337.006 3409.28,305.013 3410.36,323.259 3411.44,334.303 3412.52,304.936 3413.6,313.367 3414.68,336.886 3415.76,332.311 3416.84,306.177 3417.92,313.896 3419,312.791 3420.08,282.63 3421.16,292.544 3422.24,293.868 3423.32,328.541 3424.4,324.897 3425.48,314.076 3426.56,303.429 3427.64,322.95 3428.72,315.708 3429.8,311.194 3430.88,308.194 3431.96,303.369 3433.04,320.682 3434.12,307.842 3435.2,315.03 3436.28,302.04 3437.36,329.244 3438.44,306.723 3439.52,323.838 3440.6,310.814 3441.68,323.611 3442.76,301.251 3443.84,325.844 3444.92,313.477 3446,326.799 3447.08,312.715 3448.16,335.578 3449.24,323.638 3450.32,317.018 3451.4,303.243 3452.48,331.034 3453.56,314.914 3454.64,317.48 3455.72,314.496 "/>
<path clip-path="url(#clip400)" d="M2993.18 166.762 L3438.47 166.762 L3438.47 63.0816 L2993.18 63.0816  Z" fill="#ffffff" fill-rule="evenodd" fill-opacity="1"/>
<polyline clip-path="url(#clip400)" style="stroke:#000000; stroke-linecap:round; stroke-linejoin:round; stroke-width:4; stroke-opacity:1; fill:none" points="2993.18,166.762 3438.47,166.762 3438.47,63.0816 2993.18,63.0816 2993.18,166.762 "/>
<polyline clip-path="url(#clip400)" style="stroke:#009af9; stroke-linecap:round; stroke-linejoin:round; stroke-width:2; stroke-opacity:1; fill:none" points="3031.28,114.922 3259.85,114.922 "/>
<path clip-path="url(#clip400)" d="M3297.94 97.6416 L3302.62 97.6416 L3302.62 111.808 L3319.61 111.808 L3319.61 97.6416 L3324.29 97.6416 L3324.29 132.202 L3319.61 132.202 L3319.61 115.743 L3302.62 115.743 L3302.62 132.202 L3297.94 132.202 L3297.94 97.6416 Z" fill="#000000" fill-rule="evenodd" fill-opacity="1" /><path clip-path="url(#clip400)" d="M3333.59 97.6416 L3340.56 97.6416 L3349.38 121.16 L3358.25 97.6416 L3365.21 97.6416 L3365.21 132.202 L3360.65 132.202 L3360.65 101.854 L3351.74 125.558 L3347.04 125.558 L3338.13 101.854 L3338.13 132.202 L3333.59 132.202 L3333.59 97.6416 Z" fill="#000000" fill-rule="evenodd" fill-opacity="1" /><path clip-path="url(#clip400)" d="M3400.37 100.304 L3400.37 105.234 Q3398.01 103.035 3395.33 101.947 Q3392.67 100.859 3389.66 100.859 Q3383.73 100.859 3380.58 104.493 Q3377.43 108.104 3377.43 114.956 Q3377.43 121.785 3380.58 125.419 Q3383.73 129.03 3389.66 129.03 Q3392.67 129.03 3395.33 127.942 Q3398.01 126.854 3400.37 124.655 L3400.37 129.54 Q3397.92 131.206 3395.17 132.04 Q3392.43 132.873 3389.38 132.873 Q3381.53 132.873 3377.02 128.081 Q3372.5 123.266 3372.5 114.956 Q3372.5 106.623 3377.02 101.831 Q3381.53 97.0166 3389.38 97.0166 Q3392.48 97.0166 3395.21 97.8499 Q3397.97 98.6601 3400.37 100.304 Z" fill="#000000" fill-rule="evenodd" fill-opacity="1" /></svg>
