<?xml version="1.0" encoding="utf-8"?>
<svg xmlns="http://www.w3.org/2000/svg" xmlns:xlink="http://www.w3.org/1999/xlink" width="900" height="150" viewBox="0 0 3600 600">
<defs>
  <clipPath id="clip450">
    <rect x="0" y="0" width="3600" height="600"/>
  </clipPath>
</defs>
<path clip-path="url(#clip450)" d="M0 600 L3600 600 L3600 0 L0 0  Z" fill="#ffffff" fill-rule="evenodd" fill-opacity="1"/>
<defs>
  <clipPath id="clip451">
    <rect x="720" y="0" width="2521" height="600"/>
  </clipPath>
</defs>
<path clip-path="url(#clip450)" d="M124.177 522.368 L3552.76 522.368 L3552.76 47.2441 L124.177 47.2441  Z" fill="#ffffff" fill-rule="evenodd" fill-opacity="1"/>
<defs>
  <clipPath id="clip452">
    <rect x="124" y="47" width="3430" height="476"/>
  </clipPath>
</defs>
<polyline clip-path="url(#clip452)" style="stroke:#000000; stroke-linecap:round; stroke-linejoin:round; stroke-width:2; stroke-opacity:0.1; fill:none" points="220.054,522.368 220.054,47.2441 "/>
<polyline clip-path="url(#clip452)" style="stroke:#000000; stroke-linecap:round; stroke-linejoin:round; stroke-width:2; stroke-opacity:0.1; fill:none" points="799.3,522.368 799.3,47.2441 "/>
<polyline clip-path="url(#clip452)" style="stroke:#000000; stroke-linecap:round; stroke-linejoin:round; stroke-width:2; stroke-opacity:0.1; fill:none" points="1378.55,522.368 1378.55,47.2441 "/>
<polyline clip-path="url(#clip452)" style="stroke:#000000; stroke-linecap:round; stroke-linejoin:round; stroke-width:2; stroke-opacity:0.1; fill:none" points="1957.79,522.368 1957.79,47.2441 "/>
<polyline clip-path="url(#clip452)" style="stroke:#000000; stroke-linecap:round; stroke-linejoin:round; stroke-width:2; stroke-opacity:0.1; fill:none" points="2537.04,522.368 2537.04,47.2441 "/>
<polyline clip-path="url(#clip452)" style="stroke:#000000; stroke-linecap:round; stroke-linejoin:round; stroke-width:2; stroke-opacity:0.1; fill:none" points="3116.28,522.368 3116.28,47.2441 "/>
<polyline clip-path="url(#clip450)" style="stroke:#000000; stroke-linecap:round; stroke-linejoin:round; stroke-width:4; stroke-opacity:1; fill:none" points="124.177,522.368 3552.76,522.368 "/>
<polyline clip-path="url(#clip450)" style="stroke:#000000; stroke-linecap:round; stroke-linejoin:round; stroke-width:4; stroke-opacity:1; fill:none" points="220.054,522.368 220.054,503.47 "/>
<polyline clip-path="url(#clip450)" style="stroke:#000000; stroke-linecap:round; stroke-linejoin:round; stroke-width:4; stroke-opacity:1; fill:none" points="799.3,522.368 799.3,503.47 "/>
<polyline clip-path="url(#clip450)" style="stroke:#000000; stroke-linecap:round; stroke-linejoin:round; stroke-width:4; stroke-opacity:1; fill:none" points="1378.55,522.368 1378.55,503.47 "/>
<polyline clip-path="url(#clip450)" style="stroke:#000000; stroke-linecap:round; stroke-linejoin:round; stroke-width:4; stroke-opacity:1; fill:none" points="1957.79,522.368 1957.79,503.47 "/>
<polyline clip-path="url(#clip450)" style="stroke:#000000; stroke-linecap:round; stroke-linejoin:round; stroke-width:4; stroke-opacity:1; fill:none" points="2537.04,522.368 2537.04,503.47 "/>
<polyline clip-path="url(#clip450)" style="stroke:#000000; stroke-linecap:round; stroke-linejoin:round; stroke-width:4; stroke-opacity:1; fill:none" points="3116.28,522.368 3116.28,503.47 "/>
<path clip-path="url(#clip450)" d="M220.054 562.887 Q216.443 562.887 214.614 566.451 Q212.809 569.993 212.809 577.123 Q212.809 584.229 214.614 587.794 Q216.443 591.335 220.054 591.335 Q223.688 591.335 225.494 587.794 Q227.322 584.229 227.322 577.123 Q227.322 569.993 225.494 566.451 Q223.688 562.887 220.054 562.887 M220.054 559.183 Q225.864 559.183 228.92 563.789 Q231.998 568.373 231.998 577.123 Q231.998 585.849 228.92 590.456 Q225.864 595.039 220.054 595.039 Q214.244 595.039 211.165 590.456 Q208.11 585.849 208.11 577.123 Q208.11 568.373 211.165 563.789 Q214.244 559.183 220.054 559.183 Z" fill="#000000" fill-rule="evenodd" fill-opacity="1" /><path clip-path="url(#clip450)" d="M758.918 559.808 L777.274 559.808 L777.274 563.743 L763.2 563.743 L763.2 572.215 Q764.219 571.868 765.237 571.706 Q766.256 571.521 767.274 571.521 Q773.061 571.521 776.441 574.692 Q779.821 577.863 779.821 583.28 Q779.821 588.859 776.348 591.96 Q772.876 595.039 766.557 595.039 Q764.381 595.039 762.112 594.669 Q759.867 594.298 757.46 593.558 L757.46 588.859 Q759.543 589.993 761.765 590.548 Q763.987 591.104 766.464 591.104 Q770.469 591.104 772.807 588.998 Q775.145 586.891 775.145 583.28 Q775.145 579.669 772.807 577.562 Q770.469 575.456 766.464 575.456 Q764.589 575.456 762.714 575.873 Q760.862 576.289 758.918 577.169 L758.918 559.808 Z" fill="#000000" fill-rule="evenodd" fill-opacity="1" /><path clip-path="url(#clip450)" d="M799.033 562.887 Q795.422 562.887 793.594 566.451 Q791.788 569.993 791.788 577.123 Q791.788 584.229 793.594 587.794 Q795.422 591.335 799.033 591.335 Q802.668 591.335 804.473 587.794 Q806.302 584.229 806.302 577.123 Q806.302 569.993 804.473 566.451 Q802.668 562.887 799.033 562.887 M799.033 559.183 Q804.844 559.183 807.899 563.789 Q810.978 568.373 810.978 577.123 Q810.978 585.849 807.899 590.456 Q804.844 595.039 799.033 595.039 Q793.223 595.039 790.145 590.456 Q787.089 585.849 787.089 577.123 Q787.089 568.373 790.145 563.789 Q793.223 559.183 799.033 559.183 Z" fill="#000000" fill-rule="evenodd" fill-opacity="1" /><path clip-path="url(#clip450)" d="M829.195 562.887 Q825.584 562.887 823.756 566.451 Q821.95 569.993 821.95 577.123 Q821.95 584.229 823.756 587.794 Q825.584 591.335 829.195 591.335 Q832.83 591.335 834.635 587.794 Q836.464 584.229 836.464 577.123 Q836.464 569.993 834.635 566.451 Q832.83 562.887 829.195 562.887 M829.195 559.183 Q835.006 559.183 838.061 563.789 Q841.14 568.373 841.14 577.123 Q841.14 585.849 838.061 590.456 Q835.006 595.039 829.195 595.039 Q823.385 595.039 820.307 590.456 Q817.251 585.849 817.251 577.123 Q817.251 568.373 820.307 563.789 Q823.385 559.183 829.195 559.183 Z" fill="#000000" fill-rule="evenodd" fill-opacity="1" /><path clip-path="url(#clip450)" d="M1323.07 590.433 L1330.71 590.433 L1330.71 564.067 L1322.4 565.734 L1322.4 561.475 L1330.66 559.808 L1335.34 559.808 L1335.34 590.433 L1342.98 590.433 L1342.98 594.368 L1323.07 594.368 L1323.07 590.433 Z" fill="#000000" fill-rule="evenodd" fill-opacity="1" /><path clip-path="url(#clip450)" d="M1362.42 562.887 Q1358.81 562.887 1356.98 566.451 Q1355.18 569.993 1355.18 577.123 Q1355.18 584.229 1356.98 587.794 Q1358.81 591.335 1362.42 591.335 Q1366.06 591.335 1367.86 587.794 Q1369.69 584.229 1369.69 577.123 Q1369.69 569.993 1367.86 566.451 Q1366.06 562.887 1362.42 562.887 M1362.42 559.183 Q1368.23 559.183 1371.29 563.789 Q1374.37 568.373 1374.37 577.123 Q1374.37 585.849 1371.29 590.456 Q1368.23 595.039 1362.42 595.039 Q1356.61 595.039 1353.53 590.456 Q1350.48 585.849 1350.48 577.123 Q1350.48 568.373 1353.53 563.789 Q1356.61 559.183 1362.42 559.183 Z" fill="#000000" fill-rule="evenodd" fill-opacity="1" /><path clip-path="url(#clip450)" d="M1392.58 562.887 Q1388.97 562.887 1387.14 566.451 Q1385.34 569.993 1385.34 577.123 Q1385.34 584.229 1387.14 587.794 Q1388.97 591.335 1392.58 591.335 Q1396.22 591.335 1398.02 587.794 Q1399.85 584.229 1399.85 577.123 Q1399.85 569.993 1398.02 566.451 Q1396.22 562.887 1392.58 562.887 M1392.58 559.183 Q1398.39 559.183 1401.45 563.789 Q1404.53 568.373 1404.53 577.123 Q1404.53 585.849 1401.45 590.456 Q1398.39 595.039 1392.58 595.039 Q1386.77 595.039 1383.7 590.456 Q1380.64 585.849 1380.64 577.123 Q1380.64 568.373 1383.7 563.789 Q1386.77 559.183 1392.58 559.183 Z" fill="#000000" fill-rule="evenodd" fill-opacity="1" /><path clip-path="url(#clip450)" d="M1422.75 562.887 Q1419.14 562.887 1417.31 566.451 Q1415.5 569.993 1415.5 577.123 Q1415.5 584.229 1417.31 587.794 Q1419.14 591.335 1422.75 591.335 Q1426.38 591.335 1428.19 587.794 Q1430.02 584.229 1430.02 577.123 Q1430.02 569.993 1428.19 566.451 Q1426.38 562.887 1422.75 562.887 M1422.75 559.183 Q1428.56 559.183 1431.61 563.789 Q1434.69 568.373 1434.69 577.123 Q1434.69 585.849 1431.61 590.456 Q1428.56 595.039 1422.75 595.039 Q1416.94 595.039 1413.86 590.456 Q1410.8 585.849 1410.8 577.123 Q1410.8 568.373 1413.86 563.789 Q1416.94 559.183 1422.75 559.183 Z" fill="#000000" fill-rule="evenodd" fill-opacity="1" /><path clip-path="url(#clip450)" d="M1902.32 590.433 L1909.96 590.433 L1909.96 564.067 L1901.65 565.734 L1901.65 561.475 L1909.91 559.808 L1914.59 559.808 L1914.59 590.433 L1922.22 590.433 L1922.22 594.368 L1902.32 594.368 L1902.32 590.433 Z" fill="#000000" fill-rule="evenodd" fill-opacity="1" /><path clip-path="url(#clip450)" d="M1931.71 559.808 L1950.07 559.808 L1950.07 563.743 L1936 563.743 L1936 572.215 Q1937.02 571.868 1938.03 571.706 Q1939.05 571.521 1940.07 571.521 Q1945.86 571.521 1949.24 574.692 Q1952.62 577.863 1952.62 583.28 Q1952.62 588.859 1949.15 591.96 Q1945.67 595.039 1939.35 595.039 Q1937.18 595.039 1934.91 594.669 Q1932.66 594.298 1930.26 593.558 L1930.26 588.859 Q1932.34 589.993 1934.56 590.548 Q1936.78 591.104 1939.26 591.104 Q1943.27 591.104 1945.6 588.998 Q1947.94 586.891 1947.94 583.28 Q1947.94 579.669 1945.6 577.562 Q1943.27 575.456 1939.26 575.456 Q1937.39 575.456 1935.51 575.873 Q1933.66 576.289 1931.71 577.169 L1931.71 559.808 Z" fill="#000000" fill-rule="evenodd" fill-opacity="1" /><path clip-path="url(#clip450)" d="M1971.83 562.887 Q1968.22 562.887 1966.39 566.451 Q1964.59 569.993 1964.59 577.123 Q1964.59 584.229 1966.39 587.794 Q1968.22 591.335 1971.83 591.335 Q1975.46 591.335 1977.27 587.794 Q1979.1 584.229 1979.1 577.123 Q1979.1 569.993 1977.27 566.451 Q1975.46 562.887 1971.83 562.887 M1971.83 559.183 Q1977.64 559.183 1980.7 563.789 Q1983.77 568.373 1983.77 577.123 Q1983.77 585.849 1980.7 590.456 Q1977.64 595.039 1971.83 595.039 Q1966.02 595.039 1962.94 590.456 Q1959.89 585.849 1959.89 577.123 Q1959.89 568.373 1962.94 563.789 Q1966.02 559.183 1971.83 559.183 Z" fill="#000000" fill-rule="evenodd" fill-opacity="1" /><path clip-path="url(#clip450)" d="M2001.99 562.887 Q1998.38 562.887 1996.55 566.451 Q1994.75 569.993 1994.75 577.123 Q1994.75 584.229 1996.55 587.794 Q1998.38 591.335 2001.99 591.335 Q2005.63 591.335 2007.43 587.794 Q2009.26 584.229 2009.26 577.123 Q2009.26 569.993 2007.43 566.451 Q2005.63 562.887 2001.99 562.887 M2001.99 559.183 Q2007.8 559.183 2010.86 563.789 Q2013.94 568.373 2013.94 577.123 Q2013.94 585.849 2010.86 590.456 Q2007.8 595.039 2001.99 595.039 Q1996.18 595.039 1993.1 590.456 Q1990.05 585.849 1990.05 577.123 Q1990.05 568.373 1993.1 563.789 Q1996.18 559.183 2001.99 559.183 Z" fill="#000000" fill-rule="evenodd" fill-opacity="1" /><path clip-path="url(#clip450)" d="M2485.65 590.433 L2501.97 590.433 L2501.97 594.368 L2480.02 594.368 L2480.02 590.433 Q2482.69 587.678 2487.27 583.048 Q2491.88 578.396 2493.06 577.053 Q2495.3 574.53 2496.18 572.794 Q2497.08 571.035 2497.08 569.345 Q2497.08 566.59 2495.14 564.854 Q2493.22 563.118 2490.12 563.118 Q2487.92 563.118 2485.46 563.882 Q2483.03 564.646 2480.25 566.197 L2480.25 561.475 Q2483.08 560.34 2485.53 559.762 Q2487.99 559.183 2490.02 559.183 Q2495.39 559.183 2498.59 561.868 Q2501.78 564.553 2501.78 569.044 Q2501.78 571.174 2500.97 573.095 Q2500.19 574.993 2498.08 577.586 Q2497.5 578.257 2494.4 581.474 Q2491.3 584.669 2485.65 590.433 Z" fill="#000000" fill-rule="evenodd" fill-opacity="1" /><path clip-path="url(#clip450)" d="M2521.78 562.887 Q2518.17 562.887 2516.34 566.451 Q2514.54 569.993 2514.54 577.123 Q2514.54 584.229 2516.34 587.794 Q2518.17 591.335 2521.78 591.335 Q2525.42 591.335 2527.22 587.794 Q2529.05 584.229 2529.05 577.123 Q2529.05 569.993 2527.22 566.451 Q2525.42 562.887 2521.78 562.887 M2521.78 559.183 Q2527.59 559.183 2530.65 563.789 Q2533.73 568.373 2533.73 577.123 Q2533.73 585.849 2530.65 590.456 Q2527.59 595.039 2521.78 595.039 Q2515.97 595.039 2512.89 590.456 Q2509.84 585.849 2509.84 577.123 Q2509.84 568.373 2512.89 563.789 Q2515.97 559.183 2521.78 559.183 Z" fill="#000000" fill-rule="evenodd" fill-opacity="1" /><path clip-path="url(#clip450)" d="M2551.94 562.887 Q2548.33 562.887 2546.5 566.451 Q2544.7 569.993 2544.7 577.123 Q2544.7 584.229 2546.5 587.794 Q2548.33 591.335 2551.94 591.335 Q2555.58 591.335 2557.38 587.794 Q2559.21 584.229 2559.21 577.123 Q2559.21 569.993 2557.38 566.451 Q2555.58 562.887 2551.94 562.887 M2551.94 559.183 Q2557.75 559.183 2560.81 563.789 Q2563.89 568.373 2563.89 577.123 Q2563.89 585.849 2560.81 590.456 Q2557.75 595.039 2551.94 595.039 Q2546.13 595.039 2543.06 590.456 Q2540 585.849 2540 577.123 Q2540 568.373 2543.06 563.789 Q2546.13 559.183 2551.94 559.183 Z" fill="#000000" fill-rule="evenodd" fill-opacity="1" /><path clip-path="url(#clip450)" d="M2582.11 562.887 Q2578.5 562.887 2576.67 566.451 Q2574.86 569.993 2574.86 577.123 Q2574.86 584.229 2576.67 587.794 Q2578.5 591.335 2582.11 591.335 Q2585.74 591.335 2587.55 587.794 Q2589.37 584.229 2589.37 577.123 Q2589.37 569.993 2587.55 566.451 Q2585.74 562.887 2582.11 562.887 M2582.11 559.183 Q2587.92 559.183 2590.97 563.789 Q2594.05 568.373 2594.05 577.123 Q2594.05 585.849 2590.97 590.456 Q2587.92 595.039 2582.11 595.039 Q2576.3 595.039 2573.22 590.456 Q2570.16 585.849 2570.16 577.123 Q2570.16 568.373 2573.22 563.789 Q2576.3 559.183 2582.11 559.183 Z" fill="#000000" fill-rule="evenodd" fill-opacity="1" /><path clip-path="url(#clip450)" d="M3064.89 590.433 L3081.21 590.433 L3081.21 594.368 L3059.27 594.368 L3059.27 590.433 Q3061.93 587.678 3066.51 583.048 Q3071.12 578.396 3072.3 577.053 Q3074.55 574.53 3075.43 572.794 Q3076.33 571.035 3076.33 569.345 Q3076.33 566.59 3074.38 564.854 Q3072.46 563.118 3069.36 563.118 Q3067.16 563.118 3064.71 563.882 Q3062.28 564.646 3059.5 566.197 L3059.5 561.475 Q3062.32 560.34 3064.78 559.762 Q3067.23 559.183 3069.27 559.183 Q3074.64 559.183 3077.83 561.868 Q3081.03 564.553 3081.03 569.044 Q3081.03 571.174 3080.22 573.095 Q3079.43 574.993 3077.32 577.586 Q3076.75 578.257 3073.64 581.474 Q3070.54 584.669 3064.89 590.433 Z" fill="#000000" fill-rule="evenodd" fill-opacity="1" /><path clip-path="url(#clip450)" d="M3091.07 559.808 L3109.43 559.808 L3109.43 563.743 L3095.36 563.743 L3095.36 572.215 Q3096.38 571.868 3097.39 571.706 Q3098.41 571.521 3099.43 571.521 Q3105.22 571.521 3108.6 574.692 Q3111.98 577.863 3111.98 583.28 Q3111.98 588.859 3108.5 591.96 Q3105.03 595.039 3098.71 595.039 Q3096.54 595.039 3094.27 594.669 Q3092.02 594.298 3089.62 593.558 L3089.62 588.859 Q3091.7 589.993 3093.92 590.548 Q3096.14 591.104 3098.62 591.104 Q3102.63 591.104 3104.96 588.998 Q3107.3 586.891 3107.3 583.28 Q3107.3 579.669 3104.96 577.562 Q3102.63 575.456 3098.62 575.456 Q3096.75 575.456 3094.87 575.873 Q3093.02 576.289 3091.07 577.169 L3091.07 559.808 Z" fill="#000000" fill-rule="evenodd" fill-opacity="1" /><path clip-path="url(#clip450)" d="M3131.19 562.887 Q3127.58 562.887 3125.75 566.451 Q3123.94 569.993 3123.94 577.123 Q3123.94 584.229 3125.75 587.794 Q3127.58 591.335 3131.19 591.335 Q3134.82 591.335 3136.63 587.794 Q3138.46 584.229 3138.46 577.123 Q3138.46 569.993 3136.63 566.451 Q3134.82 562.887 3131.19 562.887 M3131.19 559.183 Q3137 559.183 3140.06 563.789 Q3143.13 568.373 3143.13 577.123 Q3143.13 585.849 3140.06 590.456 Q3137 595.039 3131.19 595.039 Q3125.38 595.039 3122.3 590.456 Q3119.25 585.849 3119.25 577.123 Q3119.25 568.373 3122.3 563.789 Q3125.38 559.183 3131.19 559.183 Z" fill="#000000" fill-rule="evenodd" fill-opacity="1" /><path clip-path="url(#clip450)" d="M3161.35 562.887 Q3157.74 562.887 3155.91 566.451 Q3154.11 569.993 3154.11 577.123 Q3154.11 584.229 3155.91 587.794 Q3157.74 591.335 3161.35 591.335 Q3164.99 591.335 3166.79 587.794 Q3168.62 584.229 3168.62 577.123 Q3168.62 569.993 3166.79 566.451 Q3164.99 562.887 3161.35 562.887 M3161.35 559.183 Q3167.16 559.183 3170.22 563.789 Q3173.3 568.373 3173.3 577.123 Q3173.3 585.849 3170.22 590.456 Q3167.16 595.039 3161.35 595.039 Q3155.54 595.039 3152.46 590.456 Q3149.41 585.849 3149.41 577.123 Q3149.41 568.373 3152.46 563.789 Q3155.54 559.183 3161.35 559.183 Z" fill="#000000" fill-rule="evenodd" fill-opacity="1" /><polyline clip-path="url(#clip452)" style="stroke:#000000; stroke-linecap:round; stroke-linejoin:round; stroke-width:2; stroke-opacity:0.1; fill:none" points="124.177,522.368 3552.76,522.368 "/>
<polyline clip-path="url(#clip452)" style="stroke:#000000; stroke-linecap:round; stroke-linejoin:round; stroke-width:2; stroke-opacity:0.1; fill:none" points="124.177,454.493 3552.76,454.493 "/>
<polyline clip-path="url(#clip452)" style="stroke:#000000; stroke-linecap:round; stroke-linejoin:round; stroke-width:2; stroke-opacity:0.1; fill:none" points="124.177,386.618 3552.76,386.618 "/>
<polyline clip-path="url(#clip452)" style="stroke:#000000; stroke-linecap:round; stroke-linejoin:round; stroke-width:2; stroke-opacity:0.1; fill:none" points="124.177,318.743 3552.76,318.743 "/>
<polyline clip-path="url(#clip452)" style="stroke:#000000; stroke-linecap:round; stroke-linejoin:round; stroke-width:2; stroke-opacity:0.1; fill:none" points="124.177,250.869 3552.76,250.869 "/>
<polyline clip-path="url(#clip452)" style="stroke:#000000; stroke-linecap:round; stroke-linejoin:round; stroke-width:2; stroke-opacity:0.1; fill:none" points="124.177,182.994 3552.76,182.994 "/>
<polyline clip-path="url(#clip452)" style="stroke:#000000; stroke-linecap:round; stroke-linejoin:round; stroke-width:2; stroke-opacity:0.1; fill:none" points="124.177,115.119 3552.76,115.119 "/>
<polyline clip-path="url(#clip452)" style="stroke:#000000; stroke-linecap:round; stroke-linejoin:round; stroke-width:2; stroke-opacity:0.1; fill:none" points="124.177,47.2441 3552.76,47.2441 "/>
<polyline clip-path="url(#clip450)" style="stroke:#000000; stroke-linecap:round; stroke-linejoin:round; stroke-width:4; stroke-opacity:1; fill:none" points="124.177,522.368 124.177,47.2441 "/>
<polyline clip-path="url(#clip450)" style="stroke:#000000; stroke-linecap:round; stroke-linejoin:round; stroke-width:4; stroke-opacity:1; fill:none" points="124.177,522.368 143.075,522.368 "/>
<polyline clip-path="url(#clip450)" style="stroke:#000000; stroke-linecap:round; stroke-linejoin:round; stroke-width:4; stroke-opacity:1; fill:none" points="124.177,454.493 143.075,454.493 "/>
<polyline clip-path="url(#clip450)" style="stroke:#000000; stroke-linecap:round; stroke-linejoin:round; stroke-width:4; stroke-opacity:1; fill:none" points="124.177,386.618 143.075,386.618 "/>
<polyline clip-path="url(#clip450)" style="stroke:#000000; stroke-linecap:round; stroke-linejoin:round; stroke-width:4; stroke-opacity:1; fill:none" points="124.177,318.743 143.075,318.743 "/>
<polyline clip-path="url(#clip450)" style="stroke:#000000; stroke-linecap:round; stroke-linejoin:round; stroke-width:4; stroke-opacity:1; fill:none" points="124.177,250.869 143.075,250.869 "/>
<polyline clip-path="url(#clip450)" style="stroke:#000000; stroke-linecap:round; stroke-linejoin:round; stroke-width:4; stroke-opacity:1; fill:none" points="124.177,182.994 143.075,182.994 "/>
<polyline clip-path="url(#clip450)" style="stroke:#000000; stroke-linecap:round; stroke-linejoin:round; stroke-width:4; stroke-opacity:1; fill:none" points="124.177,115.119 143.075,115.119 "/>
<polyline clip-path="url(#clip450)" style="stroke:#000000; stroke-linecap:round; stroke-linejoin:round; stroke-width:4; stroke-opacity:1; fill:none" points="124.177,47.2441 143.075,47.2441 "/>
<path clip-path="url(#clip450)" d="M50.2699 535.713 L57.9087 535.713 L57.9087 509.347 L49.5986 511.014 L49.5986 506.755 L57.8624 505.088 L62.5383 505.088 L62.5383 535.713 L70.1772 535.713 L70.1772 539.648 L50.2699 539.648 L50.2699 535.713 Z" fill="#000000" fill-rule="evenodd" fill-opacity="1" /><path clip-path="url(#clip450)" d="M53.8578 467.838 L70.1772 467.838 L70.1772 471.773 L48.2328 471.773 L48.2328 467.838 Q50.8949 465.083 55.4782 460.454 Q60.0846 455.801 61.2652 454.458 Q63.5105 451.935 64.3902 450.199 Q65.2929 448.44 65.2929 446.75 Q65.2929 443.995 63.3485 442.259 Q61.4272 440.523 58.3254 440.523 Q56.1263 440.523 53.6726 441.287 Q51.2421 442.051 48.4643 443.602 L48.4643 438.88 Q51.2884 437.745 53.7421 437.167 Q56.1958 436.588 58.2328 436.588 Q63.6031 436.588 66.7976 439.273 Q69.992 441.958 69.992 446.449 Q69.992 448.579 69.1818 450.5 Q68.3948 452.398 66.2883 454.991 Q65.7096 455.662 62.6078 458.88 Q59.5059 462.074 53.8578 467.838 Z" fill="#000000" fill-rule="evenodd" fill-opacity="1" /><path clip-path="url(#clip450)" d="M63.0476 385.264 Q66.404 385.982 68.279 388.25 Q70.1772 390.519 70.1772 393.852 Q70.1772 398.968 66.6587 401.769 Q63.1402 404.57 56.6587 404.57 Q54.4828 404.57 52.168 404.13 Q49.8764 403.713 47.4227 402.857 L47.4227 398.343 Q49.3671 399.477 51.6819 400.056 Q53.9967 400.634 56.5198 400.634 Q60.918 400.634 63.2096 398.898 Q65.5244 397.162 65.5244 393.852 Q65.5244 390.796 63.3717 389.083 Q61.242 387.347 57.4226 387.347 L53.3949 387.347 L53.3949 383.505 L57.6078 383.505 Q61.0569 383.505 62.8855 382.139 Q64.7142 380.75 64.7142 378.158 Q64.7142 375.496 62.8161 374.084 Q60.9411 372.648 57.4226 372.648 Q55.5013 372.648 53.3023 373.065 Q51.1032 373.482 48.4643 374.361 L48.4643 370.195 Q51.1264 369.454 53.4412 369.084 Q55.7791 368.713 57.8393 368.713 Q63.1633 368.713 66.2652 371.144 Q69.367 373.551 69.367 377.672 Q69.367 380.542 67.7235 382.533 Q66.08 384.5 63.0476 385.264 Z" fill="#000000" fill-rule="evenodd" fill-opacity="1" /><path clip-path="url(#clip450)" d="M60.5939 305.537 L48.7884 323.986 L60.5939 323.986 L60.5939 305.537 M59.367 301.463 L65.2466 301.463 L65.2466 323.986 L70.1772 323.986 L70.1772 327.875 L65.2466 327.875 L65.2466 336.023 L60.5939 336.023 L60.5939 327.875 L44.9921 327.875 L44.9921 323.361 L59.367 301.463 Z" fill="#000000" fill-rule="evenodd" fill-opacity="1" /><path clip-path="url(#clip450)" d="M49.2745 233.589 L67.6309 233.589 L67.6309 237.524 L53.5569 237.524 L53.5569 245.996 Q54.5754 245.649 55.5939 245.487 Q56.6124 245.301 57.6309 245.301 Q63.418 245.301 66.7976 248.473 Q70.1772 251.644 70.1772 257.061 Q70.1772 262.639 66.705 265.741 Q63.2328 268.82 56.9134 268.82 Q54.7374 268.82 52.4689 268.449 Q50.2236 268.079 47.8162 267.338 L47.8162 262.639 Q49.8995 263.774 52.1217 264.329 Q54.3439 264.885 56.8208 264.885 Q60.8254 264.885 63.1633 262.778 Q65.5013 260.672 65.5013 257.061 Q65.5013 253.45 63.1633 251.343 Q60.8254 249.237 56.8208 249.237 Q54.9458 249.237 53.0708 249.653 Q51.2189 250.07 49.2745 250.95 L49.2745 233.589 Z" fill="#000000" fill-rule="evenodd" fill-opacity="1" /><path clip-path="url(#clip450)" d="M58.6495 181.13 Q55.5013 181.13 53.6495 183.283 Q51.8208 185.436 51.8208 189.186 Q51.8208 192.913 53.6495 195.089 Q55.5013 197.241 58.6495 197.241 Q61.7976 197.241 63.6263 195.089 Q65.4781 192.913 65.4781 189.186 Q65.4781 185.436 63.6263 183.283 Q61.7976 181.13 58.6495 181.13 M67.9318 166.478 L67.9318 170.737 Q66.1726 169.904 64.367 169.464 Q62.5846 169.024 60.8254 169.024 Q56.1958 169.024 53.7421 172.149 Q51.3115 175.274 50.9643 181.593 Q52.33 179.579 54.3902 178.515 Q56.4504 177.427 58.9272 177.427 Q64.1355 177.427 67.1448 180.598 Q70.1772 183.746 70.1772 189.186 Q70.1772 194.51 67.029 197.727 Q63.8809 200.945 58.6495 200.945 Q52.6541 200.945 49.4828 196.362 Q46.3116 191.755 46.3116 183.028 Q46.3116 174.834 50.2004 169.973 Q54.0893 165.089 60.6402 165.089 Q62.3994 165.089 64.1818 165.436 Q65.9874 165.783 67.9318 166.478 Z" fill="#000000" fill-rule="evenodd" fill-opacity="1" /><path clip-path="url(#clip450)" d="M47.9551 97.8389 L70.1772 97.8389 L70.1772 99.8297 L57.6309 132.399 L52.7467 132.399 L64.5522 101.774 L47.9551 101.774 L47.9551 97.8389 Z" fill="#000000" fill-rule="evenodd" fill-opacity="1" /><path clip-path="url(#clip450)" d="M58.3254 48.1121 Q54.9921 48.1121 53.0708 49.8945 Q51.1726 51.6769 51.1726 54.8019 Q51.1726 57.9269 53.0708 59.7093 Q54.9921 61.4917 58.3254 61.4917 Q61.6587 61.4917 63.58 59.7093 Q65.5013 57.9038 65.5013 54.8019 Q65.5013 51.6769 63.58 49.8945 Q61.6819 48.1121 58.3254 48.1121 M53.6495 46.1214 Q50.6402 45.3807 48.9504 43.3205 Q47.2838 41.2603 47.2838 38.2974 Q47.2838 34.1539 50.2236 31.7465 Q53.1865 29.3391 58.3254 29.3391 Q63.4874 29.3391 66.4272 31.7465 Q69.367 34.1539 69.367 38.2974 Q69.367 41.2603 67.6772 43.3205 Q66.0105 45.3807 63.0244 46.1214 Q66.404 46.9084 68.279 49.2001 Q70.1772 51.4918 70.1772 54.8019 Q70.1772 59.825 67.0985 62.5102 Q64.0429 65.1954 58.3254 65.1954 Q52.6078 65.1954 49.5291 62.5102 Q46.4736 59.825 46.4736 54.8019 Q46.4736 51.4918 48.3717 49.2001 Q50.2699 46.9084 53.6495 46.1214 M51.9365 38.7372 Q51.9365 41.4224 53.6032 42.927 Q55.293 44.4316 58.3254 44.4316 Q61.3346 44.4316 63.0244 42.927 Q64.7374 41.4224 64.7374 38.7372 Q64.7374 36.052 63.0244 34.5474 Q61.3346 33.0428 58.3254 33.0428 Q55.293 33.0428 53.6032 34.5474 Q51.9365 36.052 51.9365 38.7372 Z" fill="#000000" fill-rule="evenodd" fill-opacity="1" /><polyline clip-path="url(#clip452)" style="stroke:#009af9; stroke-linecap:round; stroke-linejoin:round; stroke-width:2; stroke-opacity:1; fill:none" points="221.212,190.12 222.371,199.258 223.529,187.687 224.688,322.356 225.846,177.104 227.005,185.016 228.163,184.734 229.322,184.515 230.48,186.796 231.639,183.346 232.797,183.321 233.956,330.675 235.114,318.128 236.273,305.545 237.431,188.64 238.59,176.599 239.748,316.115 240.907,171.742 242.065,195.324 243.224,190.923 244.382,183.874 245.541,173.393 246.699,194.4 247.858,189.77 249.016,306.773 250.175,178.327 251.333,186.048 252.492,175.974 253.65,191.684 254.809,316.982 255.967,187.354 257.126,192.968 258.284,187.548 259.443,179.044 260.601,177.089 261.76,181.362 262.918,180.658 264.077,308.324 265.235,184.5 266.394,317.007 267.552,211.19 268.711,189.704 269.869,182.562 271.028,181.042 272.186,177.085 273.345,168.516 274.503,178.177 275.662,176.166 276.82,155.3 277.979,191.806 279.137,168.398 280.295,306.561 281.454,171.152 282.612,185.022 283.771,185.569 284.929,307.634 286.088,161.577 287.246,309.757 288.405,197.433 289.563,190.432 290.722,303.021 291.88,176.782 293.039,201.437 294.197,181.148 295.356,292.721 296.514,303.467 297.673,162.048 298.831,161.75 299.99,315.749 301.148,188.877 302.307,174.482 303.465,190.355 304.624,197.276 305.782,172.246 306.941,196.566 308.099,184.87 309.258,177.673 310.416,160.514 311.575,189.994 312.733,329.995 313.892,178.662 315.05,307.738 316.209,190.367 317.367,184.524 318.526,167.296 319.684,191.644 320.843,302.061 322.001,173.674 323.16,310.641 324.318,186.497 325.477,199.325 326.635,172.608 327.794,190.94 328.952,165.854 330.111,326.397 331.269,191.749 332.428,172.252 333.586,339.969 334.745,328.268 335.903,177.451 337.062,180.872 338.22,203.401 339.379,197.674 340.537,185.186 341.696,317.358 342.854,190.885 344.013,318.042 345.171,178.161 346.33,196.594 347.488,165.207 348.646,176.436 349.805,155.824 350.963,181.254 352.122,194.913 353.28,172.993 354.439,177.65 355.597,164.045 356.756,191.8 357.914,200.23 359.073,175.166 360.231,170.578 361.39,181.214 362.548,165.062 363.707,157.452 364.865,173.472 366.024,178.443 367.182,178.587 368.341,163.848 369.499,335.083 370.658,187.399 371.816,173.935 372.975,171.602 374.133,189.592 375.292,172.515 376.45,308.331 377.609,167.383 378.767,306.397 379.926,206.332 381.084,166.38 382.243,194.418 383.401,182.03 384.56,182.014 385.718,327.976 386.877,317.115 388.035,316.057 389.194,166.395 390.352,190.86 391.511,332.536 392.669,171.362 393.828,305.969 394.986,177.498 396.145,323.393 397.303,323.976 398.462,169.7 399.62,174.928 400.779,198.78 401.937,178.203 403.096,171.104 404.254,196.34 405.413,323.522 406.571,170.468 407.73,175.932 408.888,202.63 410.047,192.495 411.205,194.845 412.364,303.119 413.522,329.353 414.681,178.171 415.839,189.456 416.997,188.806 418.156,175.307 419.314,447.562 420.473,200.217 421.631,171.123 422.79,194.92 423.948,190.702 425.107,312.224 426.265,199.813 427.424,182.283 428.582,183.426 429.741,179.792 430.899,194.959 432.058,180.149 433.216,172.802 434.375,181.478 435.533,190.539 436.692,188.96 437.85,165.094 439.009,208.47 440.167,176.827 441.326,176.596 442.484,199.888 443.643,168.508 444.801,184.352 445.96,305.133 447.118,176.629 448.277,193.128 449.435,203.304 450.594,299.037 451.752,176.124 452.911,195.972 454.069,337.067 455.228,184.64 456.386,190.242 457.545,183.941 458.703,167.723 459.862,320.855 461.02,188.705 462.179,168.783 463.337,191.895 464.496,196.64 465.654,175.046 466.813,209.682 467.971,185.683 469.13,320.711 470.288,189.208 471.447,198.194 472.605,173.317 473.764,191.485 474.922,316.571 476.081,320.471 477.239,187.215 478.398,179.988 479.556,205.16 480.715,177.107 481.873,185.133 483.031,175.766 484.19,186.357 485.348,184.494 486.507,323.843 487.665,308.141 488.824,186.548 489.982,184.044 491.141,191.044 492.299,191.12 493.458,321.745 494.616,203.084 495.775,317.691 496.933,193.642 498.092,162.569 499.25,319.871 500.409,180.708 501.567,182.172 502.726,182.749 503.884,173.938 505.043,170.547 506.201,187.731 507.36,193.964 508.518,309.126 509.677,309.172 510.835,181.937 511.994,177.644 513.152,194.102 514.311,194.123 515.469,176.45 516.628,173.051 517.786,203.854 518.945,166.507 520.103,190.581 521.262,191.655 522.42,190.108 523.579,307.643 524.737,317.788 525.896,179.772 527.054,183.639 528.213,176.42 529.371,183.169 530.53,185.69 531.688,199.993 532.847,197.566 534.005,178.84 535.164,196.488 536.322,305.224 537.481,196.2 538.639,309.394 539.798,201.732 540.956,194.035 542.115,181.133 543.273,199.273 544.432,192.979 545.59,178.235 546.749,310.341 547.907,156.427 549.066,220.556 550.224,161.602 551.382,193.392 552.541,178.893 553.699,183.486 554.858,183.25 556.016,186.385 557.175,176.001 558.333,318.761 559.492,194.129 560.65,317.21 561.809,180.521 562.967,184.937 564.126,170.747 565.284,180.16 566.443,194.943 567.601,298.356 568.76,170.416 569.918,181.482 571.077,187.251 572.235,190.583 573.394,171.588 574.552,177.885 575.711,182.708 576.869,178.774 578.028,183.239 579.186,176.781 580.345,175.285 581.503,303.371 582.662,329.901 583.82,173.22 584.979,193.185 586.137,170.672 587.296,166.716 588.454,190.72 589.613,172.854 590.771,316.286 591.93,183.919 593.088,190.448 594.247,325.165 595.405,185.043 596.564,171.577 597.722,186.665 598.881,179.623 600.039,205.65 601.198,194.696 602.356,192.344 603.515,170.267 604.673,185.226 605.832,178.724 606.99,317.797 608.149,172.367 609.307,334.358 610.466,182.623 611.624,168.004 612.783,336.22 613.941,180.088 615.1,191.436 616.258,186.339 617.417,156.803 618.575,317.377 619.733,322.935 620.892,327.218 622.05,187.481 623.209,162.262 624.367,164.34 625.526,174.83 626.684,188.94 627.843,195.338 629.001,207.897 630.16,157.447 631.318,156.222 632.477,161.183 633.635,161.207 634.794,172.438 635.952,179.619 637.111,180.162 638.269,182.014 639.428,180.233 640.586,323.311 641.745,308.752 642.903,185.367 644.062,311.228 645.22,181.014 646.379,177.404 647.537,173.714 648.696,305.466 649.854,191.968 651.013,326.279 652.171,179.028 653.33,190.543 654.488,187.067 655.647,190.912 656.805,181.978 657.964,188.263 659.122,195.095 660.281,178.965 661.439,169.628 662.598,300.941 663.756,170.349 664.915,179.895 666.073,165.778 667.232,200.636 668.39,165.551 669.549,182.029 670.707,166.082 671.866,172.236 673.024,167.336 674.183,194.41 675.341,168.813 676.5,200.505 677.658,339.025 678.817,319.419 679.975,182.932 681.134,192.581 682.292,186.573 683.451,177.945 684.609,184.213 685.768,166.535 686.926,167.861 688.084,193.18 689.243,182.677 690.401,187.238 691.56,311.73 692.718,305.95 693.877,312.9 695.035,195.279 696.194,181.56 697.352,183.744 698.511,181.53 699.669,187.445 700.828,178.758 701.986,181.538 703.145,189.746 704.303,196.475 705.462,185.45 706.62,183.604 707.779,176.529 708.937,182.267 710.096,171.43 711.254,319.72 712.413,172.743 713.571,194.665 714.73,190.961 715.888,180.795 717.047,193.161 718.205,192.286 719.364,174.974 720.522,182.152 721.681,324.372 722.839,190.088 723.998,303.995 725.156,209.393 726.315,200.636 727.473,173.137 728.632,161.986 729.79,190.194 730.949,153.269 732.107,175.773 733.266,190.933 734.424,311.121 735.583,163.31 736.741,188.545 737.9,312.906 739.058,172.836 740.217,178.819 741.375,184.532 742.534,176.77 743.692,193.717 744.851,199.175 746.009,182.043 747.168,176.906 748.326,327.897 749.485,166.444 750.643,313.496 751.802,314.675 752.96,185.835 754.119,183.021 755.277,192.705 756.435,185.331 757.594,188.583 758.752,173.392 759.911,196.337 761.069,182.66 762.228,183.743 763.386,334.31 764.545,162.474 765.703,190.367 766.862,200.442 768.02,171.14 769.179,181.536 770.337,192.314 771.496,175.414 772.654,199.936 773.813,185.16 774.971,195.061 776.13,179.473 777.288,171.974 778.447,189.922 779.605,182.176 780.764,175.138 781.922,182.605 783.081,174.55 784.239,185.134 785.398,180.086 786.556,194.718 787.715,173.489 788.873,309.211 790.032,168.839 791.19,434.411 792.349,187.583 793.507,183.154 794.666,180.844 795.824,172.314 796.983,308.993 798.141,308.647 799.3,306.404 800.458,172.833 801.617,188.333 802.775,193.217 803.934,182.225 805.092,193.56 806.251,197.34 807.409,304.774 808.568,186.471 809.726,188.194 810.885,189.075 812.043,174.132 813.202,197.982 814.36,201.651 815.519,194.734 816.677,178.929 817.836,194.661 818.994,195.462 820.153,175.231 821.311,186.872 822.47,183.625 823.628,183.921 824.786,188.556 825.945,181.952 827.103,189.185 828.262,191.947 829.42,161.603 830.579,176.007 831.737,323.424 832.896,325.981 834.054,187.612 835.213,163.465 836.371,198.624 837.53,200.926 838.688,174.534 839.847,189.142 841.005,178.78 842.164,185.648 843.322,190.403 844.481,198.437 845.639,178.068 846.798,174.208 847.956,318.669 849.115,185.254 850.273,460.715 851.432,459.342 852.59,323.694 853.749,186.21 854.907,189.323 856.066,333.859 857.224,167.715 858.383,172.388 859.541,204.214 860.7,199.166 861.858,181.155 863.017,306.114 864.175,321.809 865.334,201.198 866.492,182.105 867.651,190.705 868.809,187.333 869.968,178.714 871.126,191.517 872.285,184.424 873.443,162.16 874.602,179.564 875.76,194.697 876.919,178.999 878.077,193.283 879.236,198.967 880.394,181.559 881.553,188.99 882.711,192.246 883.87,191.116 885.028,200.498 886.187,167.483 887.345,460.403 888.504,178.416 889.662,186.546 890.821,319.242 891.979,182.176 893.137,191.527 894.296,185.706 895.454,177.84 896.613,176.506 897.771,168.061 898.93,309.623 900.088,180.543 901.247,185.188 902.405,171.132 903.564,168.559 904.722,175.087 905.881,303.961 907.039,186.519 908.198,173.44 909.356,173.757 910.515,183.792 911.673,175.183 912.832,188.521 913.99,186.096 915.149,175.067 916.307,179.305 917.466,187.007 918.624,170.222 919.783,163.537 920.941,189.898 922.1,176.441 923.258,163.465 924.417,174.626 925.575,173.975 926.734,166.635 927.892,166.658 929.051,172.89 930.209,302.872 931.368,198.064 932.526,186.193 933.685,205.631 934.843,189.509 936.002,171.938 937.16,184.715 938.319,181.833 939.477,181.183 940.636,161.905 941.794,182.343 942.953,169.879 944.111,188.737 945.27,192.789 946.428,184.252 947.587,188.256 948.745,191.918 949.904,185.896 951.062,301.809 952.221,191.262 953.379,192.541 954.538,169.581 955.696,183.446 956.855,188.992 958.013,195.402 959.172,181.129 960.33,184.644 961.488,189.805 962.647,170.104 963.805,171.077 964.964,189.008 966.122,181.557 967.281,300.824 968.439,186.647 969.598,337.651 970.756,168.201 971.915,179.469 973.073,320.088 974.232,324.48 975.39,178.198 976.549,185.262 977.707,170.597 978.866,188.776 980.024,205.02 981.183,167.426 982.341,178.291 983.5,164.929 984.658,188.486 985.817,325.655 986.975,195.83 988.134,154.337 989.292,177.977 990.451,197.569 991.609,180.902 992.768,185.818 993.926,188.165 995.085,162.51 996.243,172.712 997.402,174.507 998.56,188.346 999.719,310.864 1000.88,164.669 1002.04,176.685 1003.19,168.867 1004.35,173.835 1005.51,181.63 1006.67,175.707 1007.83,305.306 1008.99,185.011 1010.15,173.402 1011.3,315.472 1012.46,163.324 1013.62,323.7 1014.78,200.866 1015.94,173.582 1017.1,192.864 1018.25,185.981 1019.41,173.4 1020.57,170.958 1021.73,211.588 1022.89,203.191 1024.05,188.386 1025.21,188.739 1026.36,168.583 1027.52,318.729 1028.68,196.434 1029.84,215.009 1031,182.112 1032.16,179.547 1033.31,204.139 1034.47,300.187 1035.63,175.324 1036.79,187.096 1037.95,317.807 1039.11,307.119 1040.27,177.462 1041.42,184.977 1042.58,184.394 1043.74,180.227 1044.9,185.169 1046.06,181.72 1047.22,179.932 1048.38,177.899 1049.53,176.343 1050.69,183.25 1051.85,184.997 1053.01,168.192 1054.17,173.741 1055.33,336.671 1056.48,201.148 1057.64,166.209 1058.8,188.046 1059.96,167.811 1061.12,323.829 1062.28,324.529 1063.44,194.253 1064.59,168.572 1065.75,177.601 1066.91,194.011 1068.07,175.9 1069.23,196.777 1070.39,333.258 1071.55,189.39 1072.7,166.389 1073.86,162.574 1075.02,179.095 1076.18,207.901 1077.34,189.042 1078.5,154.425 1079.65,159.106 1080.81,202.501 1081.97,176.575 1083.13,184.515 1084.29,178.446 1085.45,159.301 1086.61,181.286 1087.76,183.54 1088.92,163.511 1090.08,191.399 1091.24,183.873 1092.4,177.228 1093.56,300.017 1094.72,177.44 1095.87,186.447 1097.03,171.072 1098.19,194.771 1099.35,179.105 1100.51,198.893 1101.67,182.025 1102.82,191.172 1103.98,310.44 1105.14,314.529 1106.3,303.161 1107.46,174.941 1108.62,187.962 1109.78,175.546 1110.93,197.838 1112.09,176.964 1113.25,455.005 1114.41,179.819 1115.57,185.728 1116.73,166.449 1117.88,170.318 1119.04,191.624 1120.2,204.927 1121.36,308.724 1122.52,179.326 1123.68,181.446 1124.84,183.557 1125.99,190.037 1127.15,165.124 1128.31,176.894 1129.47,163.333 1130.63,180.754 1131.79,182.968 1132.95,173.522 1134.1,197.686 1135.26,180.152 1136.42,186.521 1137.58,182.831 1138.74,182.823 1139.9,319.042 1141.05,171.07 1142.21,198.737 1143.37,198.829 1144.53,181.876 1145.69,333.749 1146.85,183.988 1148.01,176.889 1149.16,313.831 1150.32,184.814 1151.48,184.016 1152.64,182.717 1153.8,292.951 1154.96,325.032 1156.12,309.188 1157.27,173.005 1158.43,172.459 1159.59,185.63 1160.75,179.239 1161.91,169.591 1163.07,314.092 1164.22,298.721 1165.38,180.059 1166.54,179.01 1167.7,193.812 1168.86,180.649 1170.02,192.781 1171.18,191.694 1172.33,173.538 1173.49,206.762 1174.65,323.629 1175.81,337.273 1176.97,198.403 1178.13,330.076 1179.28,330.876 1180.44,172.981 1181.6,190.497 1182.76,172.249 1183.92,181.79 1185.08,186.923 1186.24,301.463 1187.39,191.164 1188.55,172.905 1189.71,289.211 1190.87,333.638 1192.03,193.213 1193.19,185.363 1194.35,172.774 1195.5,156.614 1196.66,184.042 1197.82,190.973 1198.98,209.825 1200.14,176.482 1201.3,191.164 1202.45,180.869 1203.61,191.668 1204.77,178.379 1205.93,181.245 1207.09,179.568 1208.25,178.519 1209.41,184.766 1210.56,332.335 1211.72,169.558 1212.88,441.874 1214.04,173.745 1215.2,178.703 1216.36,175.857 1217.52,172.968 1218.67,168.037 1219.83,317.415 1220.99,186.705 1222.15,171.528 1223.31,175.181 1224.47,164.586 1225.62,205.162 1226.78,183.923 1227.94,203.269 1229.1,169.434 1230.26,186.932 1231.42,179.18 1232.58,194.292 1233.73,322.337 1234.89,188.645 1236.05,196.958 1237.21,180.269 1238.37,176.758 1239.53,179.398 1240.68,194.778 1241.84,186.629 1243,188.013 1244.16,202.67 1245.32,192.691 1246.48,177.162 1247.64,310.278 1248.79,316.781 1249.95,207.229 1251.11,184.218 1252.27,179.922 1253.43,330.038 1254.59,326.404 1255.75,171.305 1256.9,182.636 1258.06,183.481 1259.22,182.953 1260.38,335.691 1261.54,198.173 1262.7,325.382 1263.85,161.169 1265.01,319.793 1266.17,324.067 1267.33,192.833 1268.49,184.647 1269.65,175.093 1270.81,194.395 1271.96,161.645 1273.12,172.757 1274.28,167.559 1275.44,195.008 1276.6,315.28 1277.76,313.808 1278.92,156.441 1280.07,188.812 1281.23,203.669 1282.39,163.907 1283.55,309.604 1284.71,179.85 1285.87,329.154 1287.02,170.363 1288.18,202.55 1289.34,166.346 1290.5,174.977 1291.66,193.948 1292.82,180.754 1293.98,180.396 1295.13,192.128 1296.29,190.955 1297.45,205.705 1298.61,181.63 1299.77,194.893 1300.93,189.455 1302.08,194.612 1303.24,194.644 1304.4,194.834 1305.56,182.587 1306.72,195.93 1307.88,305.93 1309.04,206.225 1310.19,210.34 1311.35,178.703 1312.51,173.837 1313.67,313.986 1314.83,194.418 1315.99,308.427 1317.15,302.016 1318.3,173.964 1319.46,176.183 1320.62,179.604 1321.78,171.35 1322.94,332.34 1324.1,176.931 1325.25,172.495 1326.41,171.189 1327.57,174.077 1328.73,174.848 1329.89,176.503 1331.05,307.144 1332.21,181.72 1333.36,172.44 1334.52,304.979 1335.68,197.686 1336.84,335.83 1338,181.805 1339.16,307.535 1340.32,340.666 1341.47,438.756 1342.63,181.862 1343.79,187.852 1344.95,174.107 1346.11,162.858 1347.27,169.433 1348.42,167.122 1349.58,194.935 1350.74,180.707 1351.9,177.523 1353.06,191.946 1354.22,197.409 1355.38,200.61 1356.53,180.213 1357.69,187.695 1358.85,174.925 1360.01,177.934 1361.17,200.663 1362.33,189.357 1363.49,191.959 1364.64,202.521 1365.8,183.812 1366.96,198.767 1368.12,161.758 1369.28,171.094 1370.44,172.294 1371.59,187.829 1372.75,192.214 1373.91,180.678 1375.07,186.154 1376.23,176.872 1377.39,179.975 1378.55,188.321 1379.7,175.518 1380.86,196.665 1382.02,174.971 1383.18,173.673 1384.34,175.609 1385.5,166.932 1386.65,166.977 1387.81,186.654 1388.97,184.633 1390.13,169.575 1391.29,202.361 1392.45,192.348 1393.61,164.397 1394.76,173.365 1395.92,182.4 1397.08,184.177 1398.24,158.814 1399.4,180.378 1400.56,176.941 1401.72,161.982 1402.87,180.431 1404.03,175.738 1405.19,329.37 1406.35,191.529 1407.51,168.279 1408.67,200.347 1409.82,188.48 1410.98,176.644 1412.14,203.896 1413.3,305.536 1414.46,199.08 1415.62,156.438 1416.78,176.544 1417.93,172.03 1419.09,183.904 1420.25,297.302 1421.41,181.759 1422.57,188.884 1423.73,169.321 1424.89,188.453 1426.04,287.202 1427.2,301.397 1428.36,176.002 1429.52,180.56 1430.68,188.619 1431.84,187.585 1432.99,328.389 1434.15,180.157 1435.31,185.964 1436.47,170.181 1437.63,190.908 1438.79,183.584 1439.95,174.394 1441.1,174.422 1442.26,177.561 1443.42,183.059 1444.58,185.179 1445.74,179.24 1446.9,176.598 1448.05,175.877 1449.21,172.607 1450.37,163.644 1451.53,182.907 1452.69,186.457 1453.85,181.867 1455.01,179.539 1456.16,185.091 1457.32,301.841 1458.48,190.685 1459.64,310.835 1460.8,333.398 1461.96,192.592 1463.12,190.831 1464.27,185.228 1465.43,165.692 1466.59,187.872 1467.75,188.555 1468.91,176.924 1470.07,187.289 1471.22,184.073 1472.38,180.496 1473.54,173.756 1474.7,309.726 1475.86,180.027 1477.02,185.605 1478.18,165.694 1479.33,178.9 1480.49,180.336 1481.65,216.437 1482.81,201.136 1483.97,183.65 1485.13,183.949 1486.29,180.649 1487.44,191.99 1488.6,195.01 1489.76,188.01 1490.92,190.493 1492.08,158.185 1493.24,189.338 1494.39,197.638 1495.55,174.995 1496.71,176.553 1497.87,189.055 1499.03,201.983 1500.19,168.83 1501.35,187.792 1502.5,177.53 1503.66,179.623 1504.82,168.385 1505.98,173.364 1507.14,171.972 1508.3,175.876 1509.45,184.561 1510.61,162.408 1511.77,188.992 1512.93,175.452 1514.09,179.74 1515.25,157.117 1516.41,173.089 1517.56,190.563 1518.72,177.036 1519.88,188.224 1521.04,176.711 1522.2,178.929 1523.36,153.475 1524.52,170.523 1525.67,198.283 1526.83,183.809 1527.99,174.352 1529.15,181.78 1530.31,181.936 1531.47,165.261 1532.62,191.956 1533.78,180.262 1534.94,183.887 1536.1,189.465 1537.26,185.45 1538.42,201.957 1539.58,315.705 1540.73,179.095 1541.89,176.227 1543.05,161.813 1544.21,187.709 1545.37,161.486 1546.53,197.267 1547.69,183.079 1548.84,172.391 1550,312.969 1551.16,173.017 1552.32,200.889 1553.48,194.962 1554.64,202.197 1555.79,165.037 1556.95,203.912 1558.11,330.843 1559.27,208.128 1560.43,167.262 1561.59,330.555 1562.75,188.943 1563.9,201.289 1565.06,342.589 1566.22,159.7 1567.38,328.764 1568.54,189.111 1569.7,178.883 1570.86,324.057 1572.01,149.478 1573.17,198.516 1574.33,175.243 1575.49,325.467 1576.65,304.51 1577.81,184.818 1578.96,193.278 1580.12,158.255 1581.28,178.363 1582.44,455.832 1583.6,301.766 1584.76,191.794 1585.92,188.237 1587.07,317.302 1588.23,189.745 1589.39,195.846 1590.55,194.14 1591.71,334.139 1592.87,178.131 1594.02,187.2 1595.18,183.709 1596.34,172.856 1597.5,211.171 1598.66,172.756 1599.82,183.291 1600.98,318.31 1602.13,180.972 1603.29,204.008 1604.45,150.962 1605.61,181.181 1606.77,193.038 1607.93,176.951 1609.09,184.095 1610.24,194.614 1611.4,171.084 1612.56,182.566 1613.72,312.375 1614.88,316.624 1616.04,314.924 1617.19,321.163 1618.35,174.707 1619.51,167.567 1620.67,317.578 1621.83,165.084 1622.99,310.191 1624.15,202 1625.3,315.279 1626.46,289.598 1627.62,157.703 1628.78,169.123 1629.94,317.833 1631.1,179.994 1632.26,168.593 1633.41,334.325 1634.57,322.479 1635.73,183.085 1636.89,193.337 1638.05,338.323 1639.21,297.878 1640.36,178.761 1641.52,181.371 1642.68,182.587 1643.84,182.815 1645,171.114 1646.16,178.249 1647.32,180.429 1648.47,200.632 1649.63,158.94 1650.79,161.75 1651.95,319.375 1653.11,174.832 1654.27,191.812 1655.42,180.147 1656.58,179.541 1657.74,314.218 1658.9,170.33 1660.06,307.648 1661.22,188.789 1662.38,181.801 1663.53,309.904 1664.69,169.961 1665.85,188.103 1667.01,173.428 1668.17,170.514 1669.33,314.047 1670.49,183.305 1671.64,295.002 1672.8,313.037 1673.96,319.951 1675.12,311.088 1676.28,304.245 1677.44,207.532 1678.59,198.179 1679.75,187.518 1680.91,161.911 1682.07,194.232 1683.23,306.6 1684.39,182.711 1685.55,170.807 1686.7,181.845 1687.86,164.831 1689.02,187.909 1690.18,194.828 1691.34,195.405 1692.5,186.445 1693.66,167.275 1694.81,176.003 1695.97,176.829 1697.13,171.646 1698.29,177.879 1699.45,169.746 1700.61,179.727 1701.76,182.16 1702.92,313.853 1704.08,321.338 1705.24,181.31 1706.4,183.979 1707.56,166.126 1708.72,316.415 1709.87,325.401 1711.03,322.728 1712.19,295.707 1713.35,185.911 1714.51,181.319 1715.67,168.049 1716.82,329.849 1717.98,317.094 1719.14,200.713 1720.3,170.546 1721.46,196.155 1722.62,173.403 1723.78,209.02 1724.93,197.918 1726.09,187.733 1727.25,180.187 1728.41,179.828 1729.57,179.848 1730.73,178.28 1731.89,172.896 1733.04,185.17 1734.2,179.045 1735.36,167.91 1736.52,186.434 1737.68,185.015 1738.84,187.145 1739.99,188.567 1741.15,174.69 1742.31,183.36 1743.47,170.893 1744.63,189.813 1745.79,191.31 1746.95,188.416 1748.1,300.239 1749.26,306.096 1750.42,198.686 1751.58,319.298 1752.74,314.35 1753.9,187.008 1755.06,160.454 1756.21,187.246 1757.37,179.056 1758.53,175.175 1759.69,443.062 1760.85,335.216 1762.01,165.841 1763.16,165.285 1764.32,180.418 1765.48,170.796 1766.64,164.458 1767.8,174.952 1768.96,169.953 1770.12,175.302 1771.27,172.093 1772.43,163.268 1773.59,178.803 1774.75,160.627 1775.91,158.065 1777.07,336.764 1778.22,187.699 1779.38,171.862 1780.54,176.965 1781.7,175.158 1782.86,172.815 1784.02,179.039 1785.18,191.023 1786.33,172.319 1787.49,452.444 1788.65,188.77 1789.81,198.141 1790.97,332.426 1792.13,186.754 1793.29,163.272 1794.44,178.572 1795.6,320.275 1796.76,318.1 1797.92,171.731 1799.08,191.504 1800.24,186.913 1801.39,157.206 1802.55,183.251 1803.71,190.854 1804.87,187.22 1806.03,201.814 1807.19,169.984 1808.35,158.88 1809.5,165.248 1810.66,179.567 1811.82,182.441 1812.98,181.99 1814.14,177.907 1815.3,186.365 1816.46,173.347 1817.61,153.569 1818.77,175.521 1819.93,185.031 1821.09,177.468 1822.25,204.318 1823.41,176.301 1824.56,185.56 1825.72,193.844 1826.88,193.226 1828.04,206.558 1829.2,169.09 1830.36,453.344 1831.52,193.532 1832.67,203.175 1833.83,181.938 1834.99,164.566 1836.15,180.378 1837.31,171.875 1838.47,183.75 1839.63,190.516 1840.78,193.948 1841.94,188.385 1843.1,183.974 1844.26,176.778 1845.42,323.012 1846.58,175.079 1847.73,213.223 1848.89,189.728 1850.05,177.564 1851.21,174.984 1852.37,293.509 1853.53,182.433 1854.69,188.576 1855.84,316.885 1857,308.378 1858.16,168.663 1859.32,195.859 1860.48,186.181 1861.64,334.714 1862.79,301.624 1863.95,180.636 1865.11,179.095 1866.27,183.892 1867.43,196.667 1868.59,188.006 1869.75,305.58 1870.9,157.741 1872.06,202.898 1873.22,183.569 1874.38,201.87 1875.54,165.023 1876.7,166.042 1877.86,197.9 1879.01,168.442 1880.17,316.625 1881.33,319.823 1882.49,304.754 1883.65,176.846 1884.81,181.343 1885.96,190.67 1887.12,165.024 1888.28,174.645 1889.44,173.122 1890.6,183.042 1891.76,186.697 1892.92,152.92 1894.07,167.809 1895.23,168.933 1896.39,185.648 1897.55,317.137 1898.71,167.792 1899.87,194.363 1901.03,192.601 1902.18,323.965 1903.34,183.458 1904.5,183.291 1905.66,197.626 1906.82,212.204 1907.98,319.533 1909.13,167.84 1910.29,315.665 1911.45,176.183 1912.61,181.134 1913.77,173.084 1914.93,178.652 1916.09,165.389 1917.24,304.393 1918.4,196.784 1919.56,321.677 1920.72,191.849 1921.88,294.763 1923.04,165.086 1924.19,305.747 1925.35,173.647 1926.51,184.573 1927.67,172.906 1928.83,312.606 1929.99,194.124 1931.15,187.956 1932.3,173.023 1933.46,186.577 1934.62,183.394 1935.78,187.916 1936.94,192.314 1938.1,183.507 1939.26,178.98 1940.41,318.167 1941.57,174.362 1942.73,168.555 1943.89,191.129 1945.05,186.174 1946.21,171.463 1947.36,185.06 1948.52,177.587 1949.68,152.875 1950.84,194.368 1952,180.588 1953.16,174.17 1954.32,320.16 1955.47,316.491 1956.63,301.918 1957.79,320.987 1958.95,178.37 1960.11,322.547 1961.27,199.865 1962.43,182.44 1963.58,171.679 1964.74,325.19 1965.9,308.781 1967.06,180.153 1968.22,317.207 1969.38,315.75 1970.53,182.963 1971.69,161.31 1972.85,179.952 1974.01,327.685 1975.17,192.997 1976.33,300.202 1977.49,306.654 1978.64,170.769 1979.8,171.529 1980.96,188.901 1982.12,170 1983.28,186.28 1984.44,181.448 1985.59,182.554 1986.75,188.311 1987.91,180.125 1989.07,187.777 1990.23,165.862 1991.39,194.493 1992.55,181.065 1993.7,305.537 1994.86,186.027 1996.02,208.627 1997.18,315.12 1998.34,334.701 1999.5,193.054 2000.66,175.559 2001.81,187.459 2002.97,314.122 2004.13,321.442 2005.29,211.119 2006.45,168.977 2007.61,172.633 2008.76,192.772 2009.92,337.698 2011.08,171.392 2012.24,201.449 2013.4,196.635 2014.56,183.958 2015.72,182.213 2016.87,183.376 2018.03,185.519 2019.19,183.862 2020.35,329.525 2021.51,185.795 2022.67,189.562 2023.83,187.366 2024.98,176.508 2026.14,316.812 2027.3,183.369 2028.46,308.593 2029.62,188.646 2030.78,183.354 2031.93,173.215 2033.09,189.685 2034.25,176.644 2035.41,183.551 2036.57,200.368 2037.73,224.912 2038.89,191.58 2040.04,166.978 2041.2,193.745 2042.36,188.039 2043.52,175.744 2044.68,181.153 2045.84,184.791 2047,185.399 2048.15,175.513 2049.31,187.217 2050.47,176.994 2051.63,166.553 2052.79,170.622 2053.95,171.419 2055.1,182.195 2056.26,329.163 2057.42,156.474 2058.58,196.713 2059.74,170.806 2060.9,173.832 2062.06,197.495 2063.21,175.643 2064.37,184.53 2065.53,169.611 2066.69,193.327 2067.85,177.412 2069.01,181.92 2070.16,176.647 2071.32,195.6 2072.48,190.684 2073.64,296.38 2074.8,179.31 2075.96,194.543 2077.12,200.349 2078.27,151.465 2079.43,190.579 2080.59,170.579 2081.75,180.595 2082.91,169.063 2084.07,176.808 2085.23,187.028 2086.38,178.512 2087.54,186.382 2088.7,172.898 2089.86,180.395 2091.02,170.412 2092.18,315.897 2093.33,178.754 2094.49,177.574 2095.65,174.227 2096.81,328.062 2097.97,185.851 2099.13,195.027 2100.29,186.474 2101.44,161.146 2102.6,192.174 2103.76,304.216 2104.92,167.228 2106.08,178.422 2107.24,176.417 2108.4,159.423 2109.55,188.115 2110.71,187.089 2111.87,168.433 2113.03,347.779 2114.19,163.846 2115.35,194.229 2116.5,171.223 2117.66,178.049 2118.82,346.324 2119.98,156.308 2121.14,172.727 2122.3,321.457 2123.46,182.035 2124.61,324.247 2125.77,312.433 2126.93,310.477 2128.09,307.776 2129.25,161.843 2130.41,197.519 2131.56,175.379 2132.72,198.409 2133.88,182.816 2135.04,175.093 2136.2,191.387 2137.36,305.563 2138.52,175.968 2139.67,177.914 2140.83,166.199 2141.99,199.311 2143.15,194.566 2144.31,173.32 2145.47,163.556 2146.63,146.531 2147.78,319.046 2148.94,198.305 2150.1,192.939 2151.26,195.801 2152.42,159.157 2153.58,188.766 2154.73,178.764 2155.89,184.997 2157.05,308.442 2158.21,184.316 2159.37,182.309 2160.53,177.912 2161.69,186.808 2162.84,171.643 2164,323.439 2165.16,177.942 2166.32,200.65 2167.48,178.746 2168.64,191.449 2169.8,203.966 2170.95,209.567 2172.11,317.096 2173.27,194.744 2174.43,164.003 2175.59,177.645 2176.75,175.603 2177.9,159.817 2179.06,193.385 2180.22,186.059 2181.38,187.365 2182.54,178.77 2183.7,311.072 2184.86,198.379 2186.01,177.247 2187.17,180.487 2188.33,187.977 2189.49,326.872 2190.65,198.96 2191.81,308.076 2192.96,189.821 2194.12,193.135 2195.28,189.279 2196.44,187.841 2197.6,174.418 2198.76,196.304 2199.92,174.186 2201.07,200.687 2202.23,166.457 2203.39,180.969 2204.55,170.04 2205.71,299.851 2206.87,170.672 2208.03,173.34 2209.18,190.952 2210.34,200.253 2211.5,184.466 2212.66,176.078 2213.82,164.755 2214.98,321.549 2216.13,321.83 2217.29,175.052 2218.45,194.383 2219.61,202.673 2220.77,319.835 2221.93,299.325 2223.09,189.806 2224.24,189.919 2225.4,168.328 2226.56,194.006 2227.72,206.159 2228.88,327.116 2230.04,177.149 2231.2,177.378 2232.35,317.374 2233.51,196.862 2234.67,296.892 2235.83,172.802 2236.99,300.06 2238.15,197.433 2239.3,181.679 2240.46,170.155 2241.62,184.589 2242.78,182.356 2243.94,174.427 2245.1,176.884 2246.26,311.151 2247.41,165.771 2248.57,166.569 2249.73,194.214 2250.89,171.916 2252.05,192.846 2253.21,194.898 2254.36,173.419 2255.52,201.044 2256.68,173.306 2257.84,200.41 2259,187.881 2260.16,187.737 2261.32,189.249 2262.47,175.321 2263.63,185.808 2264.79,191.272 2265.95,208.889 2267.11,168.173 2268.27,300.618 2269.43,327.149 2270.58,163.666 2271.74,169.724 2272.9,332.64 2274.06,185.658 2275.22,179.654 2276.38,189.689 2277.53,170.322 2278.69,194.538 2279.85,193.981 2281.01,331.158 2282.17,204.118 2283.33,194.424 2284.49,163.059 2285.64,174.393 2286.8,193.339 2287.96,166.416 2289.12,312.087 2290.28,204.443 2291.44,181.57 2292.6,160.924 2293.75,328.776 2294.91,185.311 2296.07,316.319 2297.23,329.838 2298.39,192.604 2299.55,170.667 2300.7,182.278 2301.86,177.706 2303.02,178.159 2304.18,168.483 2305.34,319.463 2306.5,305.438 2307.66,185.96 2308.81,174.076 2309.97,190.706 2311.13,167.572 2312.29,187.048 2313.45,167.886 2314.61,159.206 2315.77,167.554 2316.92,170.282 2318.08,183.857 2319.24,172.703 2320.4,185.218 2321.56,182.415 2322.72,199.852 2323.87,168.492 2325.03,170.721 2326.19,187.79 2327.35,191.264 2328.51,175.054 2329.67,169.909 2330.83,200.527 2331.98,165.545 2333.14,159.965 2334.3,162.46 2335.46,177.069 2336.62,174.882 2337.78,184.338 2338.93,208.027 2340.09,189.955 2341.25,140.694 2342.41,162.519 2343.57,182.797 2344.73,177.642 2345.89,168.979 2347.04,163.063 2348.2,179.633 2349.36,168.026 2350.52,178.576 2351.68,179.091 2352.84,333.798 2354,212.706 2355.15,176.574 2356.31,169.031 2357.47,190.737 2358.63,208.314 2359.79,178.014 2360.95,193.263 2362.1,176.735 2363.26,185.455 2364.42,183.294 2365.58,189.87 2366.74,323.614 2367.9,181.489 2369.06,177.517 2370.21,196.52 2371.37,189.805 2372.53,306.99 2373.69,191.734 2374.85,336.151 2376.01,294.444 2377.17,192.713 2378.32,191.817 2379.48,321.978 2380.64,174.678 2381.8,185.987 2382.96,175.966 2384.12,163.047 2385.27,180.968 2386.43,171.455 2387.59,179.327 2388.75,198.937 2389.91,166.329 2391.07,179.421 2392.23,175.845 2393.38,169.32 2394.54,164.665 2395.7,195.786 2396.86,182.332 2398.02,306.973 2399.18,192.91 2400.33,191.49 2401.49,193.636 2402.65,188.412 2403.81,202.502 2404.97,186.778 2406.13,176.473 2407.29,174.588 2408.44,180.041 2409.6,174.205 2410.76,174.161 2411.92,183.156 2413.08,184.393 2414.24,185.112 2415.4,171.046 2416.55,174.788 2417.71,172 2418.87,171.58 2420.03,182.38 2421.19,329.845 2422.35,178.556 2423.5,191.573 2424.66,160.962 2425.82,189.882 2426.98,210.442 2428.14,183.182 2429.3,186.705 2430.46,178.042 2431.61,202.462 2432.77,176.357 2433.93,166.555 2435.09,174.446 2436.25,176.214 2437.41,177.206 2438.57,310.903 2439.72,173.578 2440.88,183.168 2442.04,174.705 2443.2,180.865 2444.36,174.436 2445.52,329.944 2446.67,215.819 2447.83,342.206 2448.99,195.491 2450.15,304.849 2451.31,187.317 2452.47,197.043 2453.63,176.835 2454.78,173.114 2455.94,175.864 2457.1,188.348 2458.26,178.491 2459.42,167.755 2460.58,282.599 2461.73,191.758 2462.89,165.678 2464.05,190.786 2465.21,198.887 2466.37,189.827 2467.53,179.106 2468.69,193.23 2469.84,198.2 2471,176.917 2472.16,184.165 2473.32,190.26 2474.48,188.656 2475.64,185.773 2476.8,316.993 2477.95,167.851 2479.11,187.584 2480.27,183.126 2481.43,185.258 2482.59,181.317 2483.75,318.276 2484.9,168.914 2486.06,172.236 2487.22,309.974 2488.38,201.201 2489.54,201.602 2490.7,307.764 2491.86,166.146 2493.01,171.205 2494.17,182.271 2495.33,450.456 2496.49,292.971 2497.65,171.424 2498.81,191.919 2499.97,310.877 2501.12,310.46 2502.28,324.066 2503.44,180.637 2504.6,179.794 2505.76,321.757 2506.92,314.147 2508.07,306.543 2509.23,168.71 2510.39,183.072 2511.55,199.139 2512.71,190.42 2513.87,305.268 2515.03,316.643 2516.18,184.803 2517.34,322.89 2518.5,326.827 2519.66,202.923 2520.82,204.93 2521.98,202.061 2523.14,192.135 2524.29,184.821 2525.45,175.479 2526.61,183.5 2527.77,180.636 2528.93,184.407 2530.09,175.645 2531.24,159.112 2532.4,197.281 2533.56,204.256 2534.72,168.836 2535.88,193.084 2537.04,207.777 2538.2,198.814 2539.35,193.854 2540.51,190.116 2541.67,193.119 2542.83,197.946 2543.99,177.55 2545.15,183.794 2546.3,184.175 2547.46,164.693 2548.62,197.733 2549.78,183.818 2550.94,317.516 2552.1,192.904 2553.26,192.842 2554.41,192.297 2555.57,344.9 2556.73,168.906 2557.89,192.119 2559.05,178.981 2560.21,184.069 2561.37,182.418 2562.52,184.776 2563.68,192.294 2564.84,169.101 2566,165.574 2567.16,160.891 2568.32,168.226 2569.47,201.323 2570.63,198.052 2571.79,183.68 2572.95,186.389 2574.11,182.432 2575.27,195.503 2576.43,182.96 2577.58,175.711 2578.74,191.664 2579.9,194.049 2581.06,177.758 2582.22,181.938 2583.38,299.708 2584.54,161.044 2585.69,171.497 2586.85,186.877 2588.01,195.371 2589.17,183.565 2590.33,183.752 2591.49,185.651 2592.64,186.454 2593.8,181.507 2594.96,192.685 2596.12,195.859 2597.28,171.031 2598.44,173.978 2599.6,203.5 2600.75,178.44 2601.91,186.47 2603.07,178.601 2604.23,187.917 2605.39,183.517 2606.55,195.167 2607.7,188.362 2608.86,187.788 2610.02,196.31 2611.18,181.227 2612.34,171.188 2613.5,320.75 2614.66,177.733 2615.81,183.547 2616.97,211.652 2618.13,156.356 2619.29,213.946 2620.45,154.806 2621.61,201.684 2622.77,187.579 2623.92,176.584 2625.08,196.62 2626.24,185.974 2627.4,176.552 2628.56,193.083 2629.72,186.785 2630.87,294.625 2632.03,333.997 2633.19,161.468 2634.35,323.006 2635.51,169.566 2636.67,313.163 2637.83,180.762 2638.98,170.505 2640.14,184.689 2641.3,187.25 2642.46,321.326 2643.62,178.896 2644.78,189.675 2645.94,174.002 2647.09,190.786 2648.25,188.05 2649.41,318.478 2650.57,166.097 2651.73,185.187 2652.89,171.913 2654.04,191.164 2655.2,192.695 2656.36,191.38 2657.52,173.9 2658.68,179.112 2659.84,177.829 2661,189.965 2662.15,176.915 2663.31,194.298 2664.47,186.762 2665.63,190.452 2666.79,189.123 2667.95,317.977 2669.1,449.461 2670.26,191.746 2671.42,182.715 2672.58,320.151 2673.74,171.777 2674.9,159.042 2676.06,314.379 2677.21,184.593 2678.37,183.914 2679.53,162.889 2680.69,181.851 2681.85,201.571 2683.01,210.155 2684.17,337.432 2685.32,150.169 2686.48,173.698 2687.64,170.833 2688.8,186.86 2689.96,326.271 2691.12,194.682 2692.27,183.603 2693.43,199.876 2694.59,176.324 2695.75,171.918 2696.91,188.37 2698.07,189.685 2699.23,179.281 2700.38,178.862 2701.54,163.871 2702.7,172.335 2703.86,193.266 2705.02,170.222 2706.18,175.306 2707.34,211.226 2708.49,166.134 2709.65,335.825 2710.81,178.038 2711.97,180.464 2713.13,188.852 2714.29,151.293 2715.44,203.16 2716.6,186.721 2717.76,190.059 2718.92,171.008 2720.08,190.985 2721.24,176.094 2722.4,186.989 2723.55,168.941 2724.71,183.05 2725.87,324.625 2727.03,201.634 2728.19,197.018 2729.35,202.233 2730.5,201.998 2731.66,197.64 2732.82,187.626 2733.98,196.243 2735.14,180.305 2736.3,194.847 2737.46,308.661 2738.61,320.357 2739.77,205.614 2740.93,165.911 2742.09,308.489 2743.25,166.496 2744.41,183.722 2745.57,187.26 2746.72,192.09 2747.88,203.039 2749.04,178.705 2750.2,178.839 2751.36,191.679 2752.52,439.364 2753.67,165.935 2754.83,188.362 2755.99,177.277 2757.15,173.497 2758.31,192.287 2759.47,171.49 2760.63,175.194 2761.78,186.271 2762.94,324.549 2764.1,192.533 2765.26,174.252 2766.42,174.227 2767.58,175.26 2768.74,188.53 2769.89,170.888 2771.05,190 2772.21,180.131 2773.37,188.399 2774.53,206.357 2775.69,190.719 2776.84,181.052 2778,328.113 2779.16,173.943 2780.32,175.073 2781.48,185.284 2782.64,180.007 2783.8,167.38 2784.95,190.121 2786.11,190.666 2787.27,186.114 2788.43,180.781 2789.59,185.154 2790.75,167.083 2791.91,161.692 2793.06,189.79 2794.22,185.158 2795.38,322.478 2796.54,316.919 2797.7,193.076 2798.86,323.376 2800.01,182.228 2801.17,168.577 2802.33,178.761 2803.49,189.693 2804.65,183.971 2805.81,165.659 2806.97,198.8 2808.12,199.013 2809.28,189.949 2810.44,167.836 2811.6,171.365 2812.76,195.835 2813.92,172.294 2815.07,197.758 2816.23,321.318 2817.39,180.121 2818.55,317.703 2819.71,190.622 2820.87,299.71 2822.03,179.833 2823.18,176.548 2824.34,166.222 2825.5,188.312 2826.66,178.694 2827.82,320.403 2828.98,312.217 2830.14,173.958 2831.29,179.514 2832.45,175.057 2833.61,171.946 2834.77,328.251 2835.93,184.076 2837.09,164.131 2838.24,182.068 2839.4,177.379 2840.56,176.109 2841.72,174.032 2842.88,322.638 2844.04,192.142 2845.2,175.789 2846.35,190.148 2847.51,320.976 2848.67,315.639 2849.83,166.68 2850.99,170.261 2852.15,176.866 2853.31,188.337 2854.46,314.159 2855.62,301.225 2856.78,163.13 2857.94,185.764 2859.1,190.141 2860.26,183.618 2861.41,159.815 2862.57,170.338 2863.73,192.768 2864.89,188.512 2866.05,170.902 2867.21,194.356 2868.37,172.802 2869.52,207.831 2870.68,197.243 2871.84,321.91 2873,343.767 2874.16,213.305 2875.32,192.52 2876.47,193.013 2877.63,163.555 2878.79,189.854 2879.95,432.247 2881.11,179.955 2882.27,173.594 2883.43,192.921 2884.58,314.753 2885.74,158.62 2886.9,164.224 2888.06,173.937 2889.22,305.996 2890.38,191.511 2891.54,197.726 2892.69,182.136 2893.85,178.47 2895.01,184.007 2896.17,173.346 2897.33,181.249 2898.49,331.722 2899.64,197.698 2900.8,198.69 2901.96,314.924 2903.12,166.351 2904.28,433.544 2905.44,464.518 2906.6,317.708 2907.75,311.5 2908.91,186.498 2910.07,168.782 2911.23,168.512 2912.39,171.97 2913.55,180.006 2914.71,172.882 2915.86,174.558 2917.02,178.894 2918.18,187.093 2919.34,179.343 2920.5,321.681 2921.66,170.098 2922.81,291.53 2923.97,171.263 2925.13,188.001 2926.29,181.901 2927.45,177.466 2928.61,180.475 2929.77,184.671 2930.92,198.832 2932.08,176.65 2933.24,189.928 2934.4,189.655 2935.56,174.325 2936.72,182.854 2937.87,177.754 2939.03,181.576 2940.19,177.975 2941.35,316.018 2942.51,313.625 2943.67,148.039 2944.83,206.453 2945.98,197.96 2947.14,315.291 2948.3,199.827 2949.46,300.751 2950.62,196.057 2951.78,185.352 2952.94,171.036 2954.09,182.991 2955.25,189.209 2956.41,183.739 2957.57,171.765 2958.73,179.639 2959.89,182.287 2961.04,182.008 2962.2,178.473 2963.36,186.045 2964.52,195.117 2965.68,179.145 2966.84,185.786 2968,317.639 2969.15,166.767 2970.31,309.682 2971.47,183.037 2972.63,175.678 2973.79,184.964 2974.95,469.431 2976.11,163.404 2977.26,185.542 2978.42,173.639 2979.58,180.33 2980.74,169.727 2981.9,178.93 2983.06,193.796 2984.21,208.337 2985.37,160.545 2986.53,172.048 2987.69,180.529 2988.85,152.743 2990.01,173.93 2991.17,162.346 2992.32,182.527 2993.48,178.824 2994.64,193.883 2995.8,165.988 2996.96,194.2 2998.12,167.096 2999.28,195.954 3000.43,169.673 3001.59,315.796 3002.75,185.421 3003.91,179.844 3005.07,184.951 3006.23,190.929 3007.38,188.714 3008.54,178.75 3009.7,452.635 3010.86,440.065 3012.02,178.738 3013.18,189.758 3014.34,203.376 3015.49,178.598 3016.65,296.941 3017.81,201.12 3018.97,158.219 3020.13,172.098 3021.29,168.23 3022.44,190.133 3023.6,183.711 3024.76,182.779 3025.92,196.366 3027.08,202.501 3028.24,194.64 3029.4,182.716 3030.55,169.157 3031.71,164.032 3032.87,194.214 3034.03,179.947 3035.19,195.802 3036.35,169.047 3037.51,192.102 3038.66,174.296 3039.82,180.242 3040.98,189.015 3042.14,181.05 3043.3,199.256 3044.46,150.601 3045.61,187.042 3046.77,308.545 3047.93,337.814 3049.09,188.766 3050.25,459.552 3051.41,181.877 3052.57,175.211 3053.72,172.922 3054.88,158.563 3056.04,303.755 3057.2,180.932 3058.36,181.511 3059.52,190.754 3060.68,170.246 3061.83,183.297 3062.99,177.97 3064.15,172.269 3065.31,190.102 3066.47,176.089 3067.63,181.332 3068.78,176.437 3069.94,313.289 3071.1,310.845 3072.26,163.898 3073.42,169.247 3074.58,178.244 3075.74,183.558 3076.89,184.36 3078.05,305.759 3079.21,184.282 3080.37,182.838 3081.53,190.354 3082.69,185.589 3083.84,331.643 3085,173.27 3086.16,176.323 3087.32,175.345 3088.48,176.561 3089.64,459.797 3090.8,171.369 3091.95,196.872 3093.11,177.777 3094.27,181.741 3095.43,196.431 3096.59,310.475 3097.75,317.964 3098.91,166.19 3100.06,188.627 3101.22,164.615 3102.38,206.414 3103.54,188.127 3104.7,176.654 3105.86,187.848 3107.01,201.329 3108.17,213.496 3109.33,337.666 3110.49,174.091 3111.65,191.413 3112.81,191.713 3113.97,185.932 3115.12,177.566 3116.28,167.031 3117.44,176.657 3118.6,193.28 3119.76,174.854 3120.92,199.04 3122.08,315.592 3123.23,182.017 3124.39,192.854 3125.55,167.457 3126.71,182.134 3127.87,180.643 3129.03,166.491 3130.18,182.564 3131.34,316.537 3132.5,316.406 3133.66,171.225 3134.82,177.437 3135.98,321.315 3137.14,165.483 3138.29,177.444 3139.45,188.072 3140.61,175.618 3141.77,185.833 3142.93,187.682 3144.09,186.305 3145.24,181.234 3146.4,175.021 3147.56,182.289 3148.72,176.612 3149.88,176.872 3151.04,185.998 3152.2,188.156 3153.35,197.454 3154.51,176.354 3155.67,181.72 3156.83,175.3 3157.99,163.271 3159.15,163.533 3160.31,173.114 3161.46,184.414 3162.62,175.563 3163.78,186.15 3164.94,175.216 3166.1,182.97 3167.26,188.811 3168.41,304.031 3169.57,154.451 3170.73,178.397 3171.89,173.091 3173.05,181.57 3174.21,188.484 3175.37,179.492 3176.52,181.399 3177.68,192.892 3178.84,168.465 3180,167.374 3181.16,186.566 3182.32,173.581 3183.48,325.502 3184.63,172.511 3185.79,321.024 3186.95,180.628 3188.11,174.676 3189.27,179.923 3190.43,190.245 3191.58,188.438 3192.74,170.782 3193.9,310.252 3195.06,183.148 3196.22,178.012 3197.38,177.224 3198.54,178.253 3199.69,184.778 3200.85,192.509 3202.01,182.922 3203.17,191.536 3204.33,177.862 3205.49,333.622 3206.64,180.943 3207.8,161.453 3208.96,166.059 3210.12,190.353 3211.28,198.101 3212.44,164.569 3213.6,182.707 3214.75,188.949 3215.91,166.096 3217.07,208.206 3218.23,204.654 3219.39,183.081 3220.55,180.764 3221.71,182.942 3222.86,190.042 3224.02,187.726 3225.18,324.34 3226.34,326.313 3227.5,176.079 3228.66,170.085 3229.81,170.999 3230.97,189.008 3232.13,194.082 3233.29,198.372 3234.45,176.282 3235.61,188.687 3236.77,185.761 3237.92,179.747 3239.08,189.671 3240.24,160.169 3241.4,175.825 3242.56,160.567 3243.72,189.804 3244.88,176.997 3246.03,170.18 3247.19,181.804 3248.35,313.941 3249.51,190.986 3250.67,170.274 3251.83,190.809 3252.98,185.958 3254.14,313.465 3255.3,177.405 3256.46,182.411 3257.62,184.113 3258.78,202.552 3259.94,203.244 3261.09,183.983 3262.25,181.813 3263.41,167.488 3264.57,188.648 3265.73,190.911 3266.89,184.211 3268.05,181.58 3269.2,192.903 3270.36,174.403 3271.52,165.38 3272.68,220.339 3273.84,195.093 3275,175.512 3276.15,181.58 3277.31,174.882 3278.47,182.839 3279.63,189.392 3280.79,199.983 3281.95,185.068 3283.11,201.742 3284.26,180.667 3285.42,180.122 3286.58,175.419 3287.74,303.449 3288.9,192.046 3290.06,322.862 3291.21,176.785 3292.37,180.723 3293.53,194.221 3294.69,352.87 3295.85,173.241 3297.01,189.549 3298.17,177.682 3299.32,178.443 3300.48,192.919 3301.64,179.301 3302.8,193.377 3303.96,199.535 3305.12,308.623 3306.28,194.236 3307.43,309.129 3308.59,325.093 3309.75,184.938 3310.91,178.968 3312.07,175.93 3313.23,325.649 3314.38,308.467 3315.54,169.172 3316.7,179.682 3317.86,178.118 3319.02,174.174 3320.18,184.423 3321.34,172.056 3322.49,168.694 3323.65,300.536 3324.81,326.065 3325.97,182.829 3327.13,172.763 3328.29,322.703 3329.45,316.845 3330.6,197.341 3331.76,332.664 3332.92,179.65 3334.08,195.939 3335.24,198.672 3336.4,178.522 3337.55,163.515 3338.71,192.046 3339.87,171.651 3341.03,187.668 3342.19,182.776 3343.35,152.737 3344.51,174.479 3345.66,161.847 3346.82,323.519 3347.98,322.879 3349.14,316.529 3350.3,309.746 3351.46,189.945 3352.61,167.715 3353.77,193.515 3354.93,172.369 3356.09,182.219 3357.25,187.945 3358.41,198.333 3359.57,183.704 3360.72,325.653 3361.88,188.193 3363.04,184.871 3364.2,340.829 3365.36,171.982 3366.52,179.527 3367.68,185.557 3368.83,205.122 3369.99,166.638 3371.15,189.818 3372.31,178.731 3373.47,171.031 3374.63,173.693 3375.78,178.302 3376.94,182.474 3378.1,165.629 3379.26,182.805 3380.42,328.086 3381.58,174.744 3382.74,188.827 3383.89,309.781 3385.05,322.644 3386.21,171.787 3387.37,181.865 3388.53,169.574 3389.69,182.135 3390.85,178.197 3392,180.326 3393.16,305.384 3394.32,326.594 3395.48,320.016 3396.64,174.454 3397.8,187.146 3398.95,199.522 3400.11,170.469 3401.27,171.933 3402.43,180.101 3403.59,170.856 3404.75,189.818 3405.91,175.97 3407.06,189.77 3408.22,328.261 3409.38,173.191 3410.54,180.507 3411.7,159.398 3412.86,180.578 3414.01,175.31 3415.17,176.372 3416.33,176.573 3417.49,173.445 3418.65,173.519 3419.81,188.658 3420.97,205.884 3422.12,187.034 3423.28,193.919 3424.44,319.606 3425.6,169.725 3426.76,192.763 3427.92,181.066 3429.08,182.587 3430.23,165.157 3431.39,171.258 3432.55,186.452 3433.71,179.832 3434.87,187.098 3436.03,181.606 3437.18,441.084 3438.34,320.876 3439.5,189.917 3440.66,325.295 3441.82,320.549 3442.98,165.138 3444.14,186.625 3445.29,183.756 3446.45,184.952 3447.61,189.948 3448.77,186.885 3449.93,170.765 3451.09,183.696 3452.25,171.746 3453.4,302.012 3454.56,316.785 3455.72,177.035 "/>
<path clip-path="url(#clip450)" d="M2913.67 166.762 L3438.47 166.762 L3438.47 63.0816 L2913.67 63.0816  Z" fill="#ffffff" fill-rule="evenodd" fill-opacity="1"/>
<polyline clip-path="url(#clip450)" style="stroke:#000000; stroke-linecap:round; stroke-linejoin:round; stroke-width:4; stroke-opacity:1; fill:none" points="2913.67,166.762 3438.47,166.762 3438.47,63.0816 2913.67,63.0816 2913.67,166.762 "/>
<polyline clip-path="url(#clip450)" style="stroke:#009af9; stroke-linecap:round; stroke-linejoin:round; stroke-width:2; stroke-opacity:1; fill:none" points="2951.76,114.922 3180.34,114.922 "/>
<path clip-path="url(#clip450)" d="M3234.82 115.998 Q3236.32 116.507 3237.74 118.174 Q3239.17 119.841 3240.61 122.757 L3245.35 132.202 L3240.33 132.202 L3235.91 123.336 Q3234.19 119.864 3232.57 118.729 Q3230.98 117.595 3228.2 117.595 L3223.11 117.595 L3223.11 132.202 L3218.43 132.202 L3218.43 97.6416 L3228.99 97.6416 Q3234.91 97.6416 3237.83 100.118 Q3240.75 102.595 3240.75 107.595 Q3240.75 110.859 3239.22 113.012 Q3237.71 115.165 3234.82 115.998 M3223.11 101.484 L3223.11 113.753 L3228.99 113.753 Q3232.37 113.753 3234.08 112.202 Q3235.82 110.628 3235.82 107.595 Q3235.82 104.563 3234.08 103.035 Q3232.37 101.484 3228.99 101.484 L3223.11 101.484 Z" fill="#000000" fill-rule="evenodd" fill-opacity="1" /><path clip-path="url(#clip450)" d="M3261 102.248 L3254.66 119.447 L3267.37 119.447 L3261 102.248 M3258.36 97.6416 L3263.66 97.6416 L3276.83 132.202 L3271.97 132.202 L3268.82 123.336 L3253.25 123.336 L3250.1 132.202 L3245.17 132.202 L3258.36 97.6416 Z" fill="#000000" fill-rule="evenodd" fill-opacity="1" /><path clip-path="url(#clip450)" d="M3278.5 117.317 L3290.98 117.317 L3290.98 121.114 L3278.5 121.114 L3278.5 117.317 Z" fill="#000000" fill-rule="evenodd" fill-opacity="1" /><path clip-path="url(#clip450)" d="M3297.94 97.6416 L3302.62 97.6416 L3302.62 111.808 L3319.61 111.808 L3319.61 97.6416 L3324.29 97.6416 L3324.29 132.202 L3319.61 132.202 L3319.61 115.743 L3302.62 115.743 L3302.62 132.202 L3297.94 132.202 L3297.94 97.6416 Z" fill="#000000" fill-rule="evenodd" fill-opacity="1" /><path clip-path="url(#clip450)" d="M3333.59 97.6416 L3340.56 97.6416 L3349.38 121.16 L3358.25 97.6416 L3365.21 97.6416 L3365.21 132.202 L3360.65 132.202 L3360.65 101.854 L3351.74 125.558 L3347.04 125.558 L3338.13 101.854 L3338.13 132.202 L3333.59 132.202 L3333.59 97.6416 Z" fill="#000000" fill-rule="evenodd" fill-opacity="1" /><path clip-path="url(#clip450)" d="M3400.37 100.304 L3400.37 105.234 Q3398.01 103.035 3395.33 101.947 Q3392.67 100.859 3389.66 100.859 Q3383.73 100.859 3380.58 104.493 Q3377.43 108.104 3377.43 114.956 Q3377.43 121.785 3380.58 125.419 Q3383.73 129.03 3389.66 129.03 Q3392.67 129.03 3395.33 127.942 Q3398.01 126.854 3400.37 124.655 L3400.37 129.54 Q3397.92 131.206 3395.17 132.04 Q3392.43 132.873 3389.38 132.873 Q3381.53 132.873 3377.02 128.081 Q3372.5 123.266 3372.5 114.956 Q3372.5 106.623 3377.02 101.831 Q3381.53 97.0166 3389.38 97.0166 Q3392.48 97.0166 3395.21 97.8499 Q3397.97 98.6601 3400.37 100.304 Z" fill="#000000" fill-rule="evenodd" fill-opacity="1" /></svg>
