<?xml version="1.0" encoding="utf-8"?>
<svg xmlns="http://www.w3.org/2000/svg" xmlns:xlink="http://www.w3.org/1999/xlink" width="900" height="150" viewBox="0 0 3600 600">
<defs>
  <clipPath id="clip600">
    <rect x="0" y="0" width="3600" height="600"/>
  </clipPath>
</defs>
<path clip-path="url(#clip600)" d="M0 600 L3600 600 L3600 0 L0 0  Z" fill="#ffffff" fill-rule="evenodd" fill-opacity="1"/>
<defs>
  <clipPath id="clip601">
    <rect x="720" y="0" width="2521" height="600"/>
  </clipPath>
</defs>
<path clip-path="url(#clip600)" d="M124.177 522.368 L3552.76 522.368 L3552.76 47.2441 L124.177 47.2441  Z" fill="#ffffff" fill-rule="evenodd" fill-opacity="1"/>
<defs>
  <clipPath id="clip602">
    <rect x="124" y="47" width="3430" height="476"/>
  </clipPath>
</defs>
<polyline clip-path="url(#clip602)" style="stroke:#000000; stroke-linecap:round; stroke-linejoin:round; stroke-width:2; stroke-opacity:0.1; fill:none" points="215.2,522.368 215.2,47.2441 "/>
<polyline clip-path="url(#clip602)" style="stroke:#000000; stroke-linecap:round; stroke-linejoin:round; stroke-width:2; stroke-opacity:0.1; fill:none" points="816.41,522.368 816.41,47.2441 "/>
<polyline clip-path="url(#clip602)" style="stroke:#000000; stroke-linecap:round; stroke-linejoin:round; stroke-width:2; stroke-opacity:0.1; fill:none" points="1417.62,522.368 1417.62,47.2441 "/>
<polyline clip-path="url(#clip602)" style="stroke:#000000; stroke-linecap:round; stroke-linejoin:round; stroke-width:2; stroke-opacity:0.1; fill:none" points="2018.83,522.368 2018.83,47.2441 "/>
<polyline clip-path="url(#clip602)" style="stroke:#000000; stroke-linecap:round; stroke-linejoin:round; stroke-width:2; stroke-opacity:0.1; fill:none" points="2620.04,522.368 2620.04,47.2441 "/>
<polyline clip-path="url(#clip602)" style="stroke:#000000; stroke-linecap:round; stroke-linejoin:round; stroke-width:2; stroke-opacity:0.1; fill:none" points="3221.25,522.368 3221.25,47.2441 "/>
<polyline clip-path="url(#clip600)" style="stroke:#000000; stroke-linecap:round; stroke-linejoin:round; stroke-width:4; stroke-opacity:1; fill:none" points="124.177,522.368 3552.76,522.368 "/>
<polyline clip-path="url(#clip600)" style="stroke:#000000; stroke-linecap:round; stroke-linejoin:round; stroke-width:4; stroke-opacity:1; fill:none" points="215.2,522.368 215.2,503.47 "/>
<polyline clip-path="url(#clip600)" style="stroke:#000000; stroke-linecap:round; stroke-linejoin:round; stroke-width:4; stroke-opacity:1; fill:none" points="816.41,522.368 816.41,503.47 "/>
<polyline clip-path="url(#clip600)" style="stroke:#000000; stroke-linecap:round; stroke-linejoin:round; stroke-width:4; stroke-opacity:1; fill:none" points="1417.62,522.368 1417.62,503.47 "/>
<polyline clip-path="url(#clip600)" style="stroke:#000000; stroke-linecap:round; stroke-linejoin:round; stroke-width:4; stroke-opacity:1; fill:none" points="2018.83,522.368 2018.83,503.47 "/>
<polyline clip-path="url(#clip600)" style="stroke:#000000; stroke-linecap:round; stroke-linejoin:round; stroke-width:4; stroke-opacity:1; fill:none" points="2620.04,522.368 2620.04,503.47 "/>
<polyline clip-path="url(#clip600)" style="stroke:#000000; stroke-linecap:round; stroke-linejoin:round; stroke-width:4; stroke-opacity:1; fill:none" points="3221.25,522.368 3221.25,503.47 "/>
<path clip-path="url(#clip600)" d="M215.2 562.887 Q211.589 562.887 209.761 566.451 Q207.955 569.993 207.955 577.123 Q207.955 584.229 209.761 587.794 Q211.589 591.335 215.2 591.335 Q218.835 591.335 220.64 587.794 Q222.469 584.229 222.469 577.123 Q222.469 569.993 220.64 566.451 Q218.835 562.887 215.2 562.887 M215.2 559.183 Q221.01 559.183 224.066 563.789 Q227.145 568.373 227.145 577.123 Q227.145 585.849 224.066 590.456 Q221.01 595.039 215.2 595.039 Q209.39 595.039 206.311 590.456 Q203.256 585.849 203.256 577.123 Q203.256 568.373 206.311 563.789 Q209.39 559.183 215.2 559.183 Z" fill="#000000" fill-rule="evenodd" fill-opacity="1" /><path clip-path="url(#clip600)" d="M776.017 590.433 L783.656 590.433 L783.656 564.067 L775.345 565.734 L775.345 561.475 L783.609 559.808 L788.285 559.808 L788.285 590.433 L795.924 590.433 L795.924 594.368 L776.017 594.368 L776.017 590.433 Z" fill="#000000" fill-rule="evenodd" fill-opacity="1" /><path clip-path="url(#clip600)" d="M815.368 562.887 Q811.757 562.887 809.929 566.451 Q808.123 569.993 808.123 577.123 Q808.123 584.229 809.929 587.794 Q811.757 591.335 815.368 591.335 Q819.003 591.335 820.808 587.794 Q822.637 584.229 822.637 577.123 Q822.637 569.993 820.808 566.451 Q819.003 562.887 815.368 562.887 M815.368 559.183 Q821.179 559.183 824.234 563.789 Q827.313 568.373 827.313 577.123 Q827.313 585.849 824.234 590.456 Q821.179 595.039 815.368 595.039 Q809.558 595.039 806.48 590.456 Q803.424 585.849 803.424 577.123 Q803.424 568.373 806.48 563.789 Q809.558 559.183 815.368 559.183 Z" fill="#000000" fill-rule="evenodd" fill-opacity="1" /><path clip-path="url(#clip600)" d="M845.53 562.887 Q841.919 562.887 840.09 566.451 Q838.285 569.993 838.285 577.123 Q838.285 584.229 840.09 587.794 Q841.919 591.335 845.53 591.335 Q849.164 591.335 850.97 587.794 Q852.799 584.229 852.799 577.123 Q852.799 569.993 850.97 566.451 Q849.164 562.887 845.53 562.887 M845.53 559.183 Q851.34 559.183 854.396 563.789 Q857.475 568.373 857.475 577.123 Q857.475 585.849 854.396 590.456 Q851.34 595.039 845.53 595.039 Q839.72 595.039 836.641 590.456 Q833.586 585.849 833.586 577.123 Q833.586 568.373 836.641 563.789 Q839.72 559.183 845.53 559.183 Z" fill="#000000" fill-rule="evenodd" fill-opacity="1" /><path clip-path="url(#clip600)" d="M1381.31 590.433 L1397.63 590.433 L1397.63 594.368 L1375.69 594.368 L1375.69 590.433 Q1378.35 587.678 1382.93 583.048 Q1387.54 578.396 1388.72 577.053 Q1390.96 574.53 1391.84 572.794 Q1392.75 571.035 1392.75 569.345 Q1392.75 566.59 1390.8 564.854 Q1388.88 563.118 1385.78 563.118 Q1383.58 563.118 1381.13 563.882 Q1378.7 564.646 1375.92 566.197 L1375.92 561.475 Q1378.74 560.34 1381.2 559.762 Q1383.65 559.183 1385.69 559.183 Q1391.06 559.183 1394.25 561.868 Q1397.45 564.553 1397.45 569.044 Q1397.45 571.174 1396.64 573.095 Q1395.85 574.993 1393.74 577.586 Q1393.16 578.257 1390.06 581.474 Q1386.96 584.669 1381.31 590.433 Z" fill="#000000" fill-rule="evenodd" fill-opacity="1" /><path clip-path="url(#clip600)" d="M1417.45 562.887 Q1413.84 562.887 1412.01 566.451 Q1410.2 569.993 1410.2 577.123 Q1410.2 584.229 1412.01 587.794 Q1413.84 591.335 1417.45 591.335 Q1421.08 591.335 1422.89 587.794 Q1424.71 584.229 1424.71 577.123 Q1424.71 569.993 1422.89 566.451 Q1421.08 562.887 1417.45 562.887 M1417.45 559.183 Q1423.26 559.183 1426.31 563.789 Q1429.39 568.373 1429.39 577.123 Q1429.39 585.849 1426.31 590.456 Q1423.26 595.039 1417.45 595.039 Q1411.64 595.039 1408.56 590.456 Q1405.5 585.849 1405.5 577.123 Q1405.5 568.373 1408.56 563.789 Q1411.64 559.183 1417.45 559.183 Z" fill="#000000" fill-rule="evenodd" fill-opacity="1" /><path clip-path="url(#clip600)" d="M1447.61 562.887 Q1444 562.887 1442.17 566.451 Q1440.36 569.993 1440.36 577.123 Q1440.36 584.229 1442.17 587.794 Q1444 591.335 1447.61 591.335 Q1451.24 591.335 1453.05 587.794 Q1454.88 584.229 1454.88 577.123 Q1454.88 569.993 1453.05 566.451 Q1451.24 562.887 1447.61 562.887 M1447.61 559.183 Q1453.42 559.183 1456.47 563.789 Q1459.55 568.373 1459.55 577.123 Q1459.55 585.849 1456.47 590.456 Q1453.42 595.039 1447.61 595.039 Q1441.8 595.039 1438.72 590.456 Q1435.66 585.849 1435.66 577.123 Q1435.66 568.373 1438.72 563.789 Q1441.8 559.183 1447.61 559.183 Z" fill="#000000" fill-rule="evenodd" fill-opacity="1" /><path clip-path="url(#clip600)" d="M1992.59 575.734 Q1995.95 576.451 1997.82 578.72 Q1999.72 580.988 1999.72 584.322 Q1999.72 589.437 1996.2 592.238 Q1992.68 595.039 1986.2 595.039 Q1984.03 595.039 1981.71 594.599 Q1979.42 594.183 1976.97 593.326 L1976.97 588.812 Q1978.91 589.947 1981.23 590.525 Q1983.54 591.104 1986.06 591.104 Q1990.46 591.104 1992.75 589.368 Q1995.07 587.632 1995.07 584.322 Q1995.07 581.266 1992.92 579.553 Q1990.79 577.817 1986.97 577.817 L1982.94 577.817 L1982.94 573.974 L1987.15 573.974 Q1990.6 573.974 1992.43 572.609 Q1994.26 571.22 1994.26 568.627 Q1994.26 565.965 1992.36 564.553 Q1990.48 563.118 1986.97 563.118 Q1985.04 563.118 1982.85 563.535 Q1980.65 563.951 1978.01 564.831 L1978.01 560.664 Q1980.67 559.924 1982.98 559.553 Q1985.32 559.183 1987.38 559.183 Q1992.71 559.183 1995.81 561.613 Q1998.91 564.021 1998.91 568.141 Q1998.91 571.012 1997.27 573.002 Q1995.62 574.97 1992.59 575.734 Z" fill="#000000" fill-rule="evenodd" fill-opacity="1" /><path clip-path="url(#clip600)" d="M2018.59 562.887 Q2014.98 562.887 2013.15 566.451 Q2011.34 569.993 2011.34 577.123 Q2011.34 584.229 2013.15 587.794 Q2014.98 591.335 2018.59 591.335 Q2022.22 591.335 2024.03 587.794 Q2025.85 584.229 2025.85 577.123 Q2025.85 569.993 2024.03 566.451 Q2022.22 562.887 2018.59 562.887 M2018.59 559.183 Q2024.4 559.183 2027.45 563.789 Q2030.53 568.373 2030.53 577.123 Q2030.53 585.849 2027.45 590.456 Q2024.4 595.039 2018.59 595.039 Q2012.78 595.039 2009.7 590.456 Q2006.64 585.849 2006.64 577.123 Q2006.64 568.373 2009.7 563.789 Q2012.78 559.183 2018.59 559.183 Z" fill="#000000" fill-rule="evenodd" fill-opacity="1" /><path clip-path="url(#clip600)" d="M2048.75 562.887 Q2045.14 562.887 2043.31 566.451 Q2041.5 569.993 2041.5 577.123 Q2041.5 584.229 2043.31 587.794 Q2045.14 591.335 2048.75 591.335 Q2052.38 591.335 2054.19 587.794 Q2056.02 584.229 2056.02 577.123 Q2056.02 569.993 2054.19 566.451 Q2052.38 562.887 2048.75 562.887 M2048.75 559.183 Q2054.56 559.183 2057.61 563.789 Q2060.69 568.373 2060.69 577.123 Q2060.69 585.849 2057.61 590.456 Q2054.56 595.039 2048.75 595.039 Q2042.94 595.039 2039.86 590.456 Q2036.8 585.849 2036.8 577.123 Q2036.8 568.373 2039.86 563.789 Q2042.94 559.183 2048.75 559.183 Z" fill="#000000" fill-rule="evenodd" fill-opacity="1" /><path clip-path="url(#clip600)" d="M2593.13 563.882 L2581.32 582.331 L2593.13 582.331 L2593.13 563.882 M2591.9 559.808 L2597.78 559.808 L2597.78 582.331 L2602.71 582.331 L2602.71 586.22 L2597.78 586.22 L2597.78 594.368 L2593.13 594.368 L2593.13 586.22 L2577.53 586.22 L2577.53 581.706 L2591.9 559.808 Z" fill="#000000" fill-rule="evenodd" fill-opacity="1" /><path clip-path="url(#clip600)" d="M2620.44 562.887 Q2616.83 562.887 2615 566.451 Q2613.2 569.993 2613.2 577.123 Q2613.2 584.229 2615 587.794 Q2616.83 591.335 2620.44 591.335 Q2624.08 591.335 2625.88 587.794 Q2627.71 584.229 2627.71 577.123 Q2627.71 569.993 2625.88 566.451 Q2624.08 562.887 2620.44 562.887 M2620.44 559.183 Q2626.25 559.183 2629.31 563.789 Q2632.39 568.373 2632.39 577.123 Q2632.39 585.849 2629.31 590.456 Q2626.25 595.039 2620.44 595.039 Q2614.63 595.039 2611.56 590.456 Q2608.5 585.849 2608.5 577.123 Q2608.5 568.373 2611.56 563.789 Q2614.63 559.183 2620.44 559.183 Z" fill="#000000" fill-rule="evenodd" fill-opacity="1" /><path clip-path="url(#clip600)" d="M2650.61 562.887 Q2647 562.887 2645.17 566.451 Q2643.36 569.993 2643.36 577.123 Q2643.36 584.229 2645.17 587.794 Q2647 591.335 2650.61 591.335 Q2654.24 591.335 2656.05 587.794 Q2657.87 584.229 2657.87 577.123 Q2657.87 569.993 2656.05 566.451 Q2654.24 562.887 2650.61 562.887 M2650.61 559.183 Q2656.42 559.183 2659.47 563.789 Q2662.55 568.373 2662.55 577.123 Q2662.55 585.849 2659.47 590.456 Q2656.42 595.039 2650.61 595.039 Q2644.8 595.039 2641.72 590.456 Q2638.66 585.849 2638.66 577.123 Q2638.66 568.373 2641.72 563.789 Q2644.8 559.183 2650.61 559.183 Z" fill="#000000" fill-rule="evenodd" fill-opacity="1" /><path clip-path="url(#clip600)" d="M3180.87 559.808 L3199.22 559.808 L3199.22 563.743 L3185.15 563.743 L3185.15 572.215 Q3186.17 571.868 3187.19 571.706 Q3188.21 571.521 3189.22 571.521 Q3195.01 571.521 3198.39 574.692 Q3201.77 577.863 3201.77 583.28 Q3201.77 588.859 3198.3 591.96 Q3194.83 595.039 3188.51 595.039 Q3186.33 595.039 3184.06 594.669 Q3181.82 594.298 3179.41 593.558 L3179.41 588.859 Q3181.49 589.993 3183.71 590.548 Q3185.94 591.104 3188.41 591.104 Q3192.42 591.104 3194.76 588.998 Q3197.09 586.891 3197.09 583.28 Q3197.09 579.669 3194.76 577.562 Q3192.42 575.456 3188.41 575.456 Q3186.54 575.456 3184.66 575.873 Q3182.81 576.289 3180.87 577.169 L3180.87 559.808 Z" fill="#000000" fill-rule="evenodd" fill-opacity="1" /><path clip-path="url(#clip600)" d="M3220.98 562.887 Q3217.37 562.887 3215.54 566.451 Q3213.74 569.993 3213.74 577.123 Q3213.74 584.229 3215.54 587.794 Q3217.37 591.335 3220.98 591.335 Q3224.62 591.335 3226.42 587.794 Q3228.25 584.229 3228.25 577.123 Q3228.25 569.993 3226.42 566.451 Q3224.62 562.887 3220.98 562.887 M3220.98 559.183 Q3226.79 559.183 3229.85 563.789 Q3232.93 568.373 3232.93 577.123 Q3232.93 585.849 3229.85 590.456 Q3226.79 595.039 3220.98 595.039 Q3215.17 595.039 3212.09 590.456 Q3209.04 585.849 3209.04 577.123 Q3209.04 568.373 3212.09 563.789 Q3215.17 559.183 3220.98 559.183 Z" fill="#000000" fill-rule="evenodd" fill-opacity="1" /><path clip-path="url(#clip600)" d="M3251.14 562.887 Q3247.53 562.887 3245.7 566.451 Q3243.9 569.993 3243.9 577.123 Q3243.9 584.229 3245.7 587.794 Q3247.53 591.335 3251.14 591.335 Q3254.78 591.335 3256.58 587.794 Q3258.41 584.229 3258.41 577.123 Q3258.41 569.993 3256.58 566.451 Q3254.78 562.887 3251.14 562.887 M3251.14 559.183 Q3256.95 559.183 3260.01 563.789 Q3263.09 568.373 3263.09 577.123 Q3263.09 585.849 3260.01 590.456 Q3256.95 595.039 3251.14 595.039 Q3245.33 595.039 3242.26 590.456 Q3239.2 585.849 3239.2 577.123 Q3239.2 568.373 3242.26 563.789 Q3245.33 559.183 3251.14 559.183 Z" fill="#000000" fill-rule="evenodd" fill-opacity="1" /><polyline clip-path="url(#clip602)" style="stroke:#000000; stroke-linecap:round; stroke-linejoin:round; stroke-width:2; stroke-opacity:0.1; fill:none" points="124.177,522.368 3552.76,522.368 "/>
<polyline clip-path="url(#clip602)" style="stroke:#000000; stroke-linecap:round; stroke-linejoin:round; stroke-width:2; stroke-opacity:0.1; fill:none" points="124.177,454.493 3552.76,454.493 "/>
<polyline clip-path="url(#clip602)" style="stroke:#000000; stroke-linecap:round; stroke-linejoin:round; stroke-width:2; stroke-opacity:0.1; fill:none" points="124.177,386.618 3552.76,386.618 "/>
<polyline clip-path="url(#clip602)" style="stroke:#000000; stroke-linecap:round; stroke-linejoin:round; stroke-width:2; stroke-opacity:0.1; fill:none" points="124.177,318.743 3552.76,318.743 "/>
<polyline clip-path="url(#clip602)" style="stroke:#000000; stroke-linecap:round; stroke-linejoin:round; stroke-width:2; stroke-opacity:0.1; fill:none" points="124.177,250.869 3552.76,250.869 "/>
<polyline clip-path="url(#clip602)" style="stroke:#000000; stroke-linecap:round; stroke-linejoin:round; stroke-width:2; stroke-opacity:0.1; fill:none" points="124.177,182.994 3552.76,182.994 "/>
<polyline clip-path="url(#clip602)" style="stroke:#000000; stroke-linecap:round; stroke-linejoin:round; stroke-width:2; stroke-opacity:0.1; fill:none" points="124.177,115.119 3552.76,115.119 "/>
<polyline clip-path="url(#clip602)" style="stroke:#000000; stroke-linecap:round; stroke-linejoin:round; stroke-width:2; stroke-opacity:0.1; fill:none" points="124.177,47.2441 3552.76,47.2441 "/>
<polyline clip-path="url(#clip600)" style="stroke:#000000; stroke-linecap:round; stroke-linejoin:round; stroke-width:4; stroke-opacity:1; fill:none" points="124.177,522.368 124.177,47.2441 "/>
<polyline clip-path="url(#clip600)" style="stroke:#000000; stroke-linecap:round; stroke-linejoin:round; stroke-width:4; stroke-opacity:1; fill:none" points="124.177,522.368 143.075,522.368 "/>
<polyline clip-path="url(#clip600)" style="stroke:#000000; stroke-linecap:round; stroke-linejoin:round; stroke-width:4; stroke-opacity:1; fill:none" points="124.177,454.493 143.075,454.493 "/>
<polyline clip-path="url(#clip600)" style="stroke:#000000; stroke-linecap:round; stroke-linejoin:round; stroke-width:4; stroke-opacity:1; fill:none" points="124.177,386.618 143.075,386.618 "/>
<polyline clip-path="url(#clip600)" style="stroke:#000000; stroke-linecap:round; stroke-linejoin:round; stroke-width:4; stroke-opacity:1; fill:none" points="124.177,318.743 143.075,318.743 "/>
<polyline clip-path="url(#clip600)" style="stroke:#000000; stroke-linecap:round; stroke-linejoin:round; stroke-width:4; stroke-opacity:1; fill:none" points="124.177,250.869 143.075,250.869 "/>
<polyline clip-path="url(#clip600)" style="stroke:#000000; stroke-linecap:round; stroke-linejoin:round; stroke-width:4; stroke-opacity:1; fill:none" points="124.177,182.994 143.075,182.994 "/>
<polyline clip-path="url(#clip600)" style="stroke:#000000; stroke-linecap:round; stroke-linejoin:round; stroke-width:4; stroke-opacity:1; fill:none" points="124.177,115.119 143.075,115.119 "/>
<polyline clip-path="url(#clip600)" style="stroke:#000000; stroke-linecap:round; stroke-linejoin:round; stroke-width:4; stroke-opacity:1; fill:none" points="124.177,47.2441 143.075,47.2441 "/>
<path clip-path="url(#clip600)" d="M50.2699 535.713 L57.9087 535.713 L57.9087 509.347 L49.5986 511.014 L49.5986 506.755 L57.8624 505.088 L62.5383 505.088 L62.5383 535.713 L70.1772 535.713 L70.1772 539.648 L50.2699 539.648 L50.2699 535.713 Z" fill="#000000" fill-rule="evenodd" fill-opacity="1" /><path clip-path="url(#clip600)" d="M53.8578 467.838 L70.1772 467.838 L70.1772 471.773 L48.2328 471.773 L48.2328 467.838 Q50.8949 465.083 55.4782 460.454 Q60.0846 455.801 61.2652 454.458 Q63.5105 451.935 64.3902 450.199 Q65.2929 448.44 65.2929 446.75 Q65.2929 443.995 63.3485 442.259 Q61.4272 440.523 58.3254 440.523 Q56.1263 440.523 53.6726 441.287 Q51.2421 442.051 48.4643 443.602 L48.4643 438.88 Q51.2884 437.745 53.7421 437.167 Q56.1958 436.588 58.2328 436.588 Q63.6031 436.588 66.7976 439.273 Q69.992 441.958 69.992 446.449 Q69.992 448.579 69.1818 450.5 Q68.3948 452.398 66.2883 454.991 Q65.7096 455.662 62.6078 458.88 Q59.5059 462.074 53.8578 467.838 Z" fill="#000000" fill-rule="evenodd" fill-opacity="1" /><path clip-path="url(#clip600)" d="M63.0476 385.264 Q66.404 385.982 68.279 388.25 Q70.1772 390.519 70.1772 393.852 Q70.1772 398.968 66.6587 401.769 Q63.1402 404.57 56.6587 404.57 Q54.4828 404.57 52.168 404.13 Q49.8764 403.713 47.4227 402.857 L47.4227 398.343 Q49.3671 399.477 51.6819 400.056 Q53.9967 400.634 56.5198 400.634 Q60.918 400.634 63.2096 398.898 Q65.5244 397.162 65.5244 393.852 Q65.5244 390.796 63.3717 389.083 Q61.242 387.347 57.4226 387.347 L53.3949 387.347 L53.3949 383.505 L57.6078 383.505 Q61.0569 383.505 62.8855 382.139 Q64.7142 380.75 64.7142 378.158 Q64.7142 375.496 62.8161 374.084 Q60.9411 372.648 57.4226 372.648 Q55.5013 372.648 53.3023 373.065 Q51.1032 373.482 48.4643 374.361 L48.4643 370.195 Q51.1264 369.454 53.4412 369.084 Q55.7791 368.713 57.8393 368.713 Q63.1633 368.713 66.2652 371.144 Q69.367 373.551 69.367 377.672 Q69.367 380.542 67.7235 382.533 Q66.08 384.5 63.0476 385.264 Z" fill="#000000" fill-rule="evenodd" fill-opacity="1" /><path clip-path="url(#clip600)" d="M60.5939 305.537 L48.7884 323.986 L60.5939 323.986 L60.5939 305.537 M59.367 301.463 L65.2466 301.463 L65.2466 323.986 L70.1772 323.986 L70.1772 327.875 L65.2466 327.875 L65.2466 336.023 L60.5939 336.023 L60.5939 327.875 L44.9921 327.875 L44.9921 323.361 L59.367 301.463 Z" fill="#000000" fill-rule="evenodd" fill-opacity="1" /><path clip-path="url(#clip600)" d="M49.2745 233.589 L67.6309 233.589 L67.6309 237.524 L53.5569 237.524 L53.5569 245.996 Q54.5754 245.649 55.5939 245.487 Q56.6124 245.301 57.6309 245.301 Q63.418 245.301 66.7976 248.473 Q70.1772 251.644 70.1772 257.061 Q70.1772 262.639 66.705 265.741 Q63.2328 268.82 56.9134 268.82 Q54.7374 268.82 52.4689 268.449 Q50.2236 268.079 47.8162 267.338 L47.8162 262.639 Q49.8995 263.774 52.1217 264.329 Q54.3439 264.885 56.8208 264.885 Q60.8254 264.885 63.1633 262.778 Q65.5013 260.672 65.5013 257.061 Q65.5013 253.45 63.1633 251.343 Q60.8254 249.237 56.8208 249.237 Q54.9458 249.237 53.0708 249.653 Q51.2189 250.07 49.2745 250.95 L49.2745 233.589 Z" fill="#000000" fill-rule="evenodd" fill-opacity="1" /><path clip-path="url(#clip600)" d="M58.6495 181.13 Q55.5013 181.13 53.6495 183.283 Q51.8208 185.436 51.8208 189.186 Q51.8208 192.913 53.6495 195.089 Q55.5013 197.241 58.6495 197.241 Q61.7976 197.241 63.6263 195.089 Q65.4781 192.913 65.4781 189.186 Q65.4781 185.436 63.6263 183.283 Q61.7976 181.13 58.6495 181.13 M67.9318 166.478 L67.9318 170.737 Q66.1726 169.904 64.367 169.464 Q62.5846 169.024 60.8254 169.024 Q56.1958 169.024 53.7421 172.149 Q51.3115 175.274 50.9643 181.593 Q52.33 179.579 54.3902 178.515 Q56.4504 177.427 58.9272 177.427 Q64.1355 177.427 67.1448 180.598 Q70.1772 183.746 70.1772 189.186 Q70.1772 194.51 67.029 197.727 Q63.8809 200.945 58.6495 200.945 Q52.6541 200.945 49.4828 196.362 Q46.3116 191.755 46.3116 183.028 Q46.3116 174.834 50.2004 169.973 Q54.0893 165.089 60.6402 165.089 Q62.3994 165.089 64.1818 165.436 Q65.9874 165.783 67.9318 166.478 Z" fill="#000000" fill-rule="evenodd" fill-opacity="1" /><path clip-path="url(#clip600)" d="M47.9551 97.8389 L70.1772 97.8389 L70.1772 99.8297 L57.6309 132.399 L52.7467 132.399 L64.5522 101.774 L47.9551 101.774 L47.9551 97.8389 Z" fill="#000000" fill-rule="evenodd" fill-opacity="1" /><path clip-path="url(#clip600)" d="M58.3254 48.1121 Q54.9921 48.1121 53.0708 49.8945 Q51.1726 51.6769 51.1726 54.8019 Q51.1726 57.9269 53.0708 59.7093 Q54.9921 61.4917 58.3254 61.4917 Q61.6587 61.4917 63.58 59.7093 Q65.5013 57.9038 65.5013 54.8019 Q65.5013 51.6769 63.58 49.8945 Q61.6819 48.1121 58.3254 48.1121 M53.6495 46.1214 Q50.6402 45.3807 48.9504 43.3205 Q47.2838 41.2603 47.2838 38.2974 Q47.2838 34.1539 50.2236 31.7465 Q53.1865 29.3391 58.3254 29.3391 Q63.4874 29.3391 66.4272 31.7465 Q69.367 34.1539 69.367 38.2974 Q69.367 41.2603 67.6772 43.3205 Q66.0105 45.3807 63.0244 46.1214 Q66.404 46.9084 68.279 49.2001 Q70.1772 51.4918 70.1772 54.8019 Q70.1772 59.825 67.0985 62.5102 Q64.0429 65.1954 58.3254 65.1954 Q52.6078 65.1954 49.5291 62.5102 Q46.4736 59.825 46.4736 54.8019 Q46.4736 51.4918 48.3717 49.2001 Q50.2699 46.9084 53.6495 46.1214 M51.9365 38.7372 Q51.9365 41.4224 53.6032 42.927 Q55.293 44.4316 58.3254 44.4316 Q61.3346 44.4316 63.0244 42.927 Q64.7374 41.4224 64.7374 38.7372 Q64.7374 36.052 63.0244 34.5474 Q61.3346 33.0428 58.3254 33.0428 Q55.293 33.0428 53.6032 34.5474 Q51.9365 36.052 51.9365 38.7372 Z" fill="#000000" fill-rule="evenodd" fill-opacity="1" /><polyline clip-path="url(#clip602)" style="stroke:#009af9; stroke-linecap:round; stroke-linejoin:round; stroke-width:2; stroke-opacity:1; fill:none" points="221.212,304.007 227.225,319.891 233.237,309.63 239.249,311.771 245.261,318.778 251.273,321.012 257.285,318.482 263.297,306.929 269.309,338.796 275.321,206.446 281.333,152.463 287.345,314.466 293.358,312.352 299.37,303.788 305.382,207.755 311.394,310.813 317.406,199.25 323.418,193.56 329.43,462.543 335.442,451.497 341.454,449.993 347.466,328.024 353.479,309.319 359.491,320.064 365.503,189.612 371.515,218.457 377.527,297.284 383.539,180.156 389.551,191.354 395.563,167.802 401.575,191.084 407.587,165.991 413.6,197.499 419.612,173.083 425.624,198.089 431.636,174.967 437.648,181.039 443.66,325.487 449.672,299.999 455.684,305.284 461.696,313.396 467.708,202.926 473.721,161.136 479.733,197.779 485.745,175.942 491.757,185.943 497.769,177.519 503.781,192.788 509.793,189.127 515.805,161.586 521.817,171.828 527.829,178.069 533.841,172.294 539.854,184.536 545.866,180.542 551.878,179.176 557.89,182.755 563.902,164.694 569.914,183.489 575.926,189.672 581.938,172.684 587.95,180.256 593.962,174.408 599.975,182.996 605.987,192.926 611.999,185.057 618.011,194.321 624.023,173.208 630.035,190.544 636.047,155.019 642.059,198.129 648.071,190.293 654.083,171.439 660.096,185.659 666.108,177.959 672.12,182.375 678.132,187.26 684.144,184.411 690.156,179.888 696.168,158.598 702.18,202.275 708.192,176.653 714.204,157.503 720.216,184.569 726.229,186.171 732.241,180.195 738.253,189.469 744.265,168.716 750.277,190.835 756.289,161.398 762.301,188.968 768.313,177.634 774.325,169.353 780.337,197.679 786.35,176.506 792.362,183.414 798.374,177.302 804.386,191.745 810.398,196.03 816.41,160.854 822.422,193.766 828.434,174.209 834.446,186.58 840.458,197.266 846.471,167.731 852.483,189.876 858.495,176.306 864.507,190.994 870.519,337.842 876.531,338.742 882.543,325.046 888.555,295.391 894.567,351.628 900.579,346.667 906.591,161.872 912.604,198.51 918.616,166.089 924.628,186.233 930.64,161.971 936.652,177.582 942.664,199.122 948.676,164.513 954.688,199.432 960.7,179.158 966.712,182.143 972.725,189.984 978.737,177.042 984.749,193.737 990.761,184.954 996.773,175.894 1002.79,205.377 1008.8,175.641 1014.81,188.779 1020.82,178.468 1026.83,192.629 1032.85,184.685 1038.86,170.714 1044.87,173.665 1050.88,183.648 1056.89,149.91 1062.91,171.278 1068.92,316.134 1074.93,467.123 1080.94,177.924 1086.95,195.097 1092.97,198.53 1098.98,304.903 1104.99,341.141 1111,325.663 1117.01,456.634 1123.03,204.477 1129.04,168.808 1135.05,185.395 1141.06,190.711 1147.08,184.313 1153.09,178.035 1159.1,194.557 1165.11,180.18 1171.12,189.783 1177.14,171.538 1183.15,185.567 1189.16,338.256 1195.17,198.6 1201.18,185.336 1207.2,188.589 1213.21,167.224 1219.22,170.584 1225.23,165.564 1231.24,181.612 1237.26,198.325 1243.27,174.345 1249.28,182.332 1255.29,190.231 1261.31,159.47 1267.32,195.585 1273.33,185.849 1279.34,180.001 1285.35,184.494 1291.37,174.121 1297.38,180.041 1303.39,171.213 1309.4,186.276 1315.41,184.997 1321.43,189.72 1327.44,179.535 1333.45,169.524 1339.46,171.227 1345.47,190.17 1351.49,178.983 1357.5,187.705 1363.51,202.198 1369.52,176.125 1375.54,183.911 1381.55,186.335 1387.56,162.568 1393.57,196.121 1399.58,160.857 1405.6,204.352 1411.61,178.998 1417.62,184.597 1423.63,169.386 1429.64,191.584 1435.66,177.773 1441.67,183.351 1447.68,191.243 1453.69,182.527 1459.7,189.882 1465.72,184.927 1471.73,180.454 1477.74,188.739 1483.75,171.91 1489.76,204.672 1495.78,172.234 1501.79,187.961 1507.8,176.528 1513.81,167.994 1519.83,170.862 1525.84,186.907 1531.85,178.341 1537.86,181.62 1543.87,161.083 1549.89,166.426 1555.9,170.16 1561.91,195.573 1567.92,162.835 1573.93,184.71 1579.95,173.184 1585.96,185.678 1591.97,183.421 1597.98,173.323 1603.99,189.438 1610.01,178.84 1616.02,169.375 1622.03,192.028 1628.04,190.148 1634.06,167.715 1640.07,191.271 1646.08,174.372 1652.09,189.83 1658.1,321.742 1664.12,319.522 1670.13,212.47 1676.14,328.865 1682.15,314.984 1688.16,312.932 1694.18,463.713 1700.19,448.865 1706.2,332.348 1712.21,319.203 1718.22,323.715 1724.24,332.733 1730.25,207.208 1736.26,306.468 1742.27,314.391 1748.29,318.268 1754.3,328.534 1760.31,311.661 1766.32,313.145 1772.33,314.068 1778.35,310.79 1784.36,305.965 1790.37,440.034 1796.38,438.746 1802.39,458.981 1808.41,440.341 1814.42,447.041 1820.43,450.266 1826.44,442.056 1832.45,204.103 1838.47,462.161 1844.48,317.975 1850.49,352.833 1856.5,301.018 1862.51,302.096 1868.53,301.312 1874.54,210.749 1880.55,165.687 1886.56,200.606 1892.58,166.728 1898.59,193.252 1904.6,177.738 1910.61,184.008 1916.62,185.464 1922.64,164.465 1928.65,183.566 1934.66,193.26 1940.67,145.062 1946.68,196.744 1952.7,190.881 1958.71,168.854 1964.72,181.005 1970.73,182.707 1976.74,186.12 1982.76,183.489 1988.77,181.985 1994.78,190.728 2000.79,306.393 2006.81,331.026 2012.82,198.304 2018.83,167.479 2024.84,202.505 2030.85,178.271 2036.87,175.176 2042.88,196.829 2048.89,321.809 2054.9,454.678 2060.91,326.832 2066.93,312.541 2072.94,311.045 2078.95,297.792 2084.96,314.447 2090.97,326.224 2096.99,313.831 2103,306.635 2109.01,325.806 2115.02,330.64 2121.04,330.813 2127.05,300.993 2133.06,327.036 2139.07,305.085 2145.08,315.092 2151.1,328.769 2157.11,303.036 2163.12,331.814 2169.13,306.078 2175.14,317.638 2181.16,298.198 2187.17,330.596 2193.18,309.811 2199.19,312.699 2205.2,321.587 2211.22,288.815 2217.23,316.584 2223.24,308.073 2229.25,327.944 2235.26,309.764 2241.28,315.711 2247.29,339.352 2253.3,303.72 2259.31,339.76 2265.33,314.953 2271.34,316.752 2277.35,306.429 2283.36,201.561 2289.37,301.677 2295.39,206.026 2301.4,193.694 2307.41,197.2 2313.42,210.314 2319.43,186.764 2325.45,190.897 2331.46,191.632 2337.47,177.609 2343.48,185.959 2349.49,189.416 2355.51,185.592 2361.52,317.602 2367.53,185.986 2373.54,209.991 2379.56,304.527 2385.57,333.093 2391.58,201.539 2397.59,292.844 2403.6,202.742 2409.62,319.817 2415.63,203.366 2421.64,318.125 2427.65,309.611 2433.66,309.072 2439.68,329.905 2445.69,327.932 2451.7,298.337 2457.71,319.6 2463.72,298.046 2469.74,183.367 2475.75,169.421 2481.76,187.08 2487.77,186.698 2493.79,185.516 2499.8,185.29 2505.81,167.983 2511.82,193.732 2517.83,187.336 2523.85,315.701 2529.86,299.586 2535.87,194.136 2541.88,463.505 2547.89,435.29 2553.91,190.183 2559.92,198.291 2565.93,163.613 2571.94,201.371 2577.95,167.189 2583.97,197.878 2589.98,159.266 2595.99,211.5 2602,172.602 2608.01,190.851 2614.03,192.473 2620.04,183.641 2626.05,172.081 2632.06,181.416 2638.08,195.756 2644.09,168.101 2650.1,183.793 2656.11,186.156 2662.12,171.147 2668.14,203.157 2674.15,161.468 2680.16,182.671 2686.17,187.804 2692.18,186.859 2698.2,180.029 2704.21,186.427 2710.22,176.613 2716.23,188.391 2722.24,167.119 2728.26,169.707 2734.27,167.47 2740.28,193.136 2746.29,187.835 2752.31,178.622 2758.32,168.408 2764.33,201.647 2770.34,166.441 2776.35,188.471 2782.37,183.828 2788.38,169.756 2794.39,191.644 2800.4,169.674 2806.41,184.634 2812.43,179.833 2818.44,185.533 2824.45,191.734 2830.46,165.664 2836.47,179.62 2842.49,175.987 2848.5,192.433 2854.51,176.232 2860.52,182.454 2866.54,186.941 2872.55,173.664 2878.56,198.226 2884.57,167.553 2890.58,185.912 2896.6,193.749 2902.61,310.822 2908.62,206.614 2914.63,180.051 2920.64,185.596 2926.66,186.727 2932.67,181.246 2938.68,189.524 2944.69,179.068 2950.7,192.289 2956.72,172.77 2962.73,186.259 2968.74,174.263 2974.75,195.149 2980.76,183.031 2986.78,186.288 2992.79,161.817 2998.8,186.552 3004.81,193.446 3010.83,185.611 3016.84,182.94 3022.85,166.054 3028.86,195.158 3034.87,186.797 3040.89,198.364 3046.9,164.265 3052.91,333.292 3058.92,310.171 3064.93,301.726 3070.95,316.407 3076.96,318.011 3082.97,167.417 3088.98,199.184 3094.99,171.75 3101.01,188.074 3107.02,177.105 3113.03,185.13 3119.04,181.734 3125.06,182.629 3131.07,187.016 3137.08,183.585 3143.09,174.854 3149.1,183.826 3155.12,201.258 3161.13,179.026 3167.14,317.047 3173.15,324.311 3179.16,185.708 3185.18,177.112 3191.19,310.987 3197.2,327.635 3203.21,315.904 3209.22,325.128 3215.24,310.494 3221.25,315.378 3227.26,320.784 3233.27,317.364 3239.29,313.973 3245.3,336.313 3251.31,331.702 3257.32,313.145 3263.33,324.015 3269.35,316.236 3275.36,317.877 3281.37,311.443 3287.38,314.655 3293.39,323.995 3299.41,318.657 3305.42,315.042 3311.43,315.142 3317.44,330.769 3323.45,314.881 3329.47,325.106 3335.48,313.467 3341.49,319.508 3347.5,328.103 3353.52,323.331 3359.53,204.424 3365.54,311.444 3371.55,169.781 3377.56,326.077 3383.58,322.237 3389.59,333.037 3395.6,324.263 3401.61,333.158 3407.62,196.967 3413.64,187.079 3419.65,197.346 3425.66,189.706 3431.67,183.254 3437.68,174.884 3443.7,189.826 3449.71,197.464 3455.72,171.445 "/>
<path clip-path="url(#clip600)" d="M2943.23 166.762 L3438.47 166.762 L3438.47 63.0816 L2943.23 63.0816  Z" fill="#ffffff" fill-rule="evenodd" fill-opacity="1"/>
<polyline clip-path="url(#clip600)" style="stroke:#000000; stroke-linecap:round; stroke-linejoin:round; stroke-width:4; stroke-opacity:1; fill:none" points="2943.23,166.762 3438.47,166.762 3438.47,63.0816 2943.23,63.0816 2943.23,166.762 "/>
<polyline clip-path="url(#clip600)" style="stroke:#009af9; stroke-linecap:round; stroke-linejoin:round; stroke-width:2; stroke-opacity:1; fill:none" points="2981.32,114.922 3209.9,114.922 "/>
<path clip-path="url(#clip600)" d="M3247.99 97.6416 L3252.71 97.6416 L3259.98 126.854 L3267.23 97.6416 L3272.48 97.6416 L3279.75 126.854 L3287 97.6416 L3291.74 97.6416 L3283.06 132.202 L3277.18 132.202 L3269.89 102.202 L3262.53 132.202 L3256.65 132.202 L3247.99 97.6416 Z" fill="#000000" fill-rule="evenodd" fill-opacity="1" /><path clip-path="url(#clip600)" d="M3297.94 97.6416 L3302.62 97.6416 L3302.62 111.808 L3319.61 111.808 L3319.61 97.6416 L3324.29 97.6416 L3324.29 132.202 L3319.61 132.202 L3319.61 115.743 L3302.62 115.743 L3302.62 132.202 L3297.94 132.202 L3297.94 97.6416 Z" fill="#000000" fill-rule="evenodd" fill-opacity="1" /><path clip-path="url(#clip600)" d="M3333.59 97.6416 L3340.56 97.6416 L3349.38 121.16 L3358.25 97.6416 L3365.21 97.6416 L3365.21 132.202 L3360.65 132.202 L3360.65 101.854 L3351.74 125.558 L3347.04 125.558 L3338.13 101.854 L3338.13 132.202 L3333.59 132.202 L3333.59 97.6416 Z" fill="#000000" fill-rule="evenodd" fill-opacity="1" /><path clip-path="url(#clip600)" d="M3400.37 100.304 L3400.37 105.234 Q3398.01 103.035 3395.33 101.947 Q3392.67 100.859 3389.66 100.859 Q3383.73 100.859 3380.58 104.493 Q3377.43 108.104 3377.43 114.956 Q3377.43 121.785 3380.58 125.419 Q3383.73 129.03 3389.66 129.03 Q3392.67 129.03 3395.33 127.942 Q3398.01 126.854 3400.37 124.655 L3400.37 129.54 Q3397.92 131.206 3395.17 132.04 Q3392.43 132.873 3389.38 132.873 Q3381.53 132.873 3377.02 128.081 Q3372.5 123.266 3372.5 114.956 Q3372.5 106.623 3377.02 101.831 Q3381.53 97.0166 3389.38 97.0166 Q3392.48 97.0166 3395.21 97.8499 Q3397.97 98.6601 3400.37 100.304 Z" fill="#000000" fill-rule="evenodd" fill-opacity="1" /></svg>
