<?xml version="1.0" encoding="utf-8"?>
<svg xmlns="http://www.w3.org/2000/svg" xmlns:xlink="http://www.w3.org/1999/xlink" width="900" height="150" viewBox="0 0 3600 600">
<defs>
  <clipPath id="clip150">
    <rect x="0" y="0" width="3600" height="600"/>
  </clipPath>
</defs>
<path clip-path="url(#clip150)" d="M0 600 L3600 600 L3600 0 L0 0  Z" fill="#ffffff" fill-rule="evenodd" fill-opacity="1"/>
<defs>
  <clipPath id="clip151">
    <rect x="720" y="0" width="2521" height="600"/>
  </clipPath>
</defs>
<path clip-path="url(#clip150)" d="M124.177 522.368 L3552.76 522.368 L3552.76 47.2441 L124.177 47.2441  Z" fill="#ffffff" fill-rule="evenodd" fill-opacity="1"/>
<defs>
  <clipPath id="clip152">
    <rect x="124" y="47" width="3430" height="476"/>
  </clipPath>
</defs>
<polyline clip-path="url(#clip152)" style="stroke:#000000; stroke-linecap:round; stroke-linejoin:round; stroke-width:2; stroke-opacity:0.1; fill:none" points="219.584,522.368 219.584,47.2441 "/>
<polyline clip-path="url(#clip152)" style="stroke:#000000; stroke-linecap:round; stroke-linejoin:round; stroke-width:2; stroke-opacity:0.1; fill:none" points="1033.91,522.368 1033.91,47.2441 "/>
<polyline clip-path="url(#clip152)" style="stroke:#000000; stroke-linecap:round; stroke-linejoin:round; stroke-width:2; stroke-opacity:0.1; fill:none" points="1848.24,522.368 1848.24,47.2441 "/>
<polyline clip-path="url(#clip152)" style="stroke:#000000; stroke-linecap:round; stroke-linejoin:round; stroke-width:2; stroke-opacity:0.1; fill:none" points="2662.57,522.368 2662.57,47.2441 "/>
<polyline clip-path="url(#clip152)" style="stroke:#000000; stroke-linecap:round; stroke-linejoin:round; stroke-width:2; stroke-opacity:0.1; fill:none" points="3476.89,522.368 3476.89,47.2441 "/>
<polyline clip-path="url(#clip150)" style="stroke:#000000; stroke-linecap:round; stroke-linejoin:round; stroke-width:4; stroke-opacity:1; fill:none" points="124.177,522.368 3552.76,522.368 "/>
<polyline clip-path="url(#clip150)" style="stroke:#000000; stroke-linecap:round; stroke-linejoin:round; stroke-width:4; stroke-opacity:1; fill:none" points="219.584,522.368 219.584,503.47 "/>
<polyline clip-path="url(#clip150)" style="stroke:#000000; stroke-linecap:round; stroke-linejoin:round; stroke-width:4; stroke-opacity:1; fill:none" points="1033.91,522.368 1033.91,503.47 "/>
<polyline clip-path="url(#clip150)" style="stroke:#000000; stroke-linecap:round; stroke-linejoin:round; stroke-width:4; stroke-opacity:1; fill:none" points="1848.24,522.368 1848.24,503.47 "/>
<polyline clip-path="url(#clip150)" style="stroke:#000000; stroke-linecap:round; stroke-linejoin:round; stroke-width:4; stroke-opacity:1; fill:none" points="2662.57,522.368 2662.57,503.47 "/>
<polyline clip-path="url(#clip150)" style="stroke:#000000; stroke-linecap:round; stroke-linejoin:round; stroke-width:4; stroke-opacity:1; fill:none" points="3476.89,522.368 3476.89,503.47 "/>
<path clip-path="url(#clip150)" d="M219.584 562.887 Q215.973 562.887 214.144 566.451 Q212.338 569.993 212.338 577.123 Q212.338 584.229 214.144 587.794 Q215.973 591.335 219.584 591.335 Q223.218 591.335 225.024 587.794 Q226.852 584.229 226.852 577.123 Q226.852 569.993 225.024 566.451 Q223.218 562.887 219.584 562.887 M219.584 559.183 Q225.394 559.183 228.449 563.789 Q231.528 568.373 231.528 577.123 Q231.528 585.849 228.449 590.456 Q225.394 595.039 219.584 595.039 Q213.774 595.039 210.695 590.456 Q207.639 585.849 207.639 577.123 Q207.639 568.373 210.695 563.789 Q213.774 559.183 219.584 559.183 Z" fill="#000000" fill-rule="evenodd" fill-opacity="1" /><path clip-path="url(#clip150)" d="M993.529 559.808 L1011.89 559.808 L1011.89 563.743 L997.812 563.743 L997.812 572.215 Q998.83 571.868 999.849 571.706 Q1000.87 571.521 1001.89 571.521 Q1007.67 571.521 1011.05 574.692 Q1014.43 577.863 1014.43 583.28 Q1014.43 588.859 1010.96 591.96 Q1007.49 595.039 1001.17 595.039 Q998.992 595.039 996.724 594.669 Q994.478 594.298 992.071 593.558 L992.071 588.859 Q994.154 589.993 996.377 590.548 Q998.599 591.104 1001.08 591.104 Q1005.08 591.104 1007.42 588.998 Q1009.76 586.891 1009.76 583.28 Q1009.76 579.669 1007.42 577.562 Q1005.08 575.456 1001.08 575.456 Q999.201 575.456 997.326 575.873 Q995.474 576.289 993.529 577.169 L993.529 559.808 Z" fill="#000000" fill-rule="evenodd" fill-opacity="1" /><path clip-path="url(#clip150)" d="M1033.64 562.887 Q1030.03 562.887 1028.21 566.451 Q1026.4 569.993 1026.4 577.123 Q1026.4 584.229 1028.21 587.794 Q1030.03 591.335 1033.64 591.335 Q1037.28 591.335 1039.08 587.794 Q1040.91 584.229 1040.91 577.123 Q1040.91 569.993 1039.08 566.451 Q1037.28 562.887 1033.64 562.887 M1033.64 559.183 Q1039.46 559.183 1042.51 563.789 Q1045.59 568.373 1045.59 577.123 Q1045.59 585.849 1042.51 590.456 Q1039.46 595.039 1033.64 595.039 Q1027.83 595.039 1024.76 590.456 Q1021.7 585.849 1021.7 577.123 Q1021.7 568.373 1024.76 563.789 Q1027.83 559.183 1033.64 559.183 Z" fill="#000000" fill-rule="evenodd" fill-opacity="1" /><path clip-path="url(#clip150)" d="M1063.81 562.887 Q1060.2 562.887 1058.37 566.451 Q1056.56 569.993 1056.56 577.123 Q1056.56 584.229 1058.37 587.794 Q1060.2 591.335 1063.81 591.335 Q1067.44 591.335 1069.25 587.794 Q1071.08 584.229 1071.08 577.123 Q1071.08 569.993 1069.25 566.451 Q1067.44 562.887 1063.81 562.887 M1063.81 559.183 Q1069.62 559.183 1072.67 563.789 Q1075.75 568.373 1075.75 577.123 Q1075.75 585.849 1072.67 590.456 Q1069.62 595.039 1063.81 595.039 Q1058 595.039 1054.92 590.456 Q1051.86 585.849 1051.86 577.123 Q1051.86 568.373 1054.92 563.789 Q1058 559.183 1063.81 559.183 Z" fill="#000000" fill-rule="evenodd" fill-opacity="1" /><path clip-path="url(#clip150)" d="M1792.76 590.433 L1800.4 590.433 L1800.4 564.067 L1792.09 565.734 L1792.09 561.475 L1800.36 559.808 L1805.03 559.808 L1805.03 590.433 L1812.67 590.433 L1812.67 594.368 L1792.76 594.368 L1792.76 590.433 Z" fill="#000000" fill-rule="evenodd" fill-opacity="1" /><path clip-path="url(#clip150)" d="M1832.12 562.887 Q1828.5 562.887 1826.68 566.451 Q1824.87 569.993 1824.87 577.123 Q1824.87 584.229 1826.68 587.794 Q1828.5 591.335 1832.12 591.335 Q1835.75 591.335 1837.56 587.794 Q1839.38 584.229 1839.38 577.123 Q1839.38 569.993 1837.56 566.451 Q1835.75 562.887 1832.12 562.887 M1832.12 559.183 Q1837.93 559.183 1840.98 563.789 Q1844.06 568.373 1844.06 577.123 Q1844.06 585.849 1840.98 590.456 Q1837.93 595.039 1832.12 595.039 Q1826.31 595.039 1823.23 590.456 Q1820.17 585.849 1820.17 577.123 Q1820.17 568.373 1823.23 563.789 Q1826.31 559.183 1832.12 559.183 Z" fill="#000000" fill-rule="evenodd" fill-opacity="1" /><path clip-path="url(#clip150)" d="M1862.28 562.887 Q1858.67 562.887 1856.84 566.451 Q1855.03 569.993 1855.03 577.123 Q1855.03 584.229 1856.84 587.794 Q1858.67 591.335 1862.28 591.335 Q1865.91 591.335 1867.72 587.794 Q1869.55 584.229 1869.55 577.123 Q1869.55 569.993 1867.72 566.451 Q1865.91 562.887 1862.28 562.887 M1862.28 559.183 Q1868.09 559.183 1871.14 563.789 Q1874.22 568.373 1874.22 577.123 Q1874.22 585.849 1871.14 590.456 Q1868.09 595.039 1862.28 595.039 Q1856.47 595.039 1853.39 590.456 Q1850.33 585.849 1850.33 577.123 Q1850.33 568.373 1853.39 563.789 Q1856.47 559.183 1862.28 559.183 Z" fill="#000000" fill-rule="evenodd" fill-opacity="1" /><path clip-path="url(#clip150)" d="M1892.44 562.887 Q1888.83 562.887 1887 566.451 Q1885.19 569.993 1885.19 577.123 Q1885.19 584.229 1887 587.794 Q1888.83 591.335 1892.44 591.335 Q1896.07 591.335 1897.88 587.794 Q1899.71 584.229 1899.71 577.123 Q1899.71 569.993 1897.88 566.451 Q1896.07 562.887 1892.44 562.887 M1892.44 559.183 Q1898.25 559.183 1901.31 563.789 Q1904.38 568.373 1904.38 577.123 Q1904.38 585.849 1901.31 590.456 Q1898.25 595.039 1892.44 595.039 Q1886.63 595.039 1883.55 590.456 Q1880.5 585.849 1880.5 577.123 Q1880.5 568.373 1883.55 563.789 Q1886.63 559.183 1892.44 559.183 Z" fill="#000000" fill-rule="evenodd" fill-opacity="1" /><path clip-path="url(#clip150)" d="M2607.09 590.433 L2614.73 590.433 L2614.73 564.067 L2606.42 565.734 L2606.42 561.475 L2614.68 559.808 L2619.36 559.808 L2619.36 590.433 L2627 590.433 L2627 594.368 L2607.09 594.368 L2607.09 590.433 Z" fill="#000000" fill-rule="evenodd" fill-opacity="1" /><path clip-path="url(#clip150)" d="M2636.49 559.808 L2654.85 559.808 L2654.85 563.743 L2640.77 563.743 L2640.77 572.215 Q2641.79 571.868 2642.81 571.706 Q2643.83 571.521 2644.85 571.521 Q2650.63 571.521 2654.01 574.692 Q2657.39 577.863 2657.39 583.28 Q2657.39 588.859 2653.92 591.96 Q2650.45 595.039 2644.13 595.039 Q2641.95 595.039 2639.68 594.669 Q2637.44 594.298 2635.03 593.558 L2635.03 588.859 Q2637.11 589.993 2639.34 590.548 Q2641.56 591.104 2644.04 591.104 Q2648.04 591.104 2650.38 588.998 Q2652.72 586.891 2652.72 583.28 Q2652.72 579.669 2650.38 577.562 Q2648.04 575.456 2644.04 575.456 Q2642.16 575.456 2640.29 575.873 Q2638.43 576.289 2636.49 577.169 L2636.49 559.808 Z" fill="#000000" fill-rule="evenodd" fill-opacity="1" /><path clip-path="url(#clip150)" d="M2676.61 562.887 Q2672.99 562.887 2671.17 566.451 Q2669.36 569.993 2669.36 577.123 Q2669.36 584.229 2671.17 587.794 Q2672.99 591.335 2676.61 591.335 Q2680.24 591.335 2682.04 587.794 Q2683.87 584.229 2683.87 577.123 Q2683.87 569.993 2682.04 566.451 Q2680.24 562.887 2676.61 562.887 M2676.61 559.183 Q2682.42 559.183 2685.47 563.789 Q2688.55 568.373 2688.55 577.123 Q2688.55 585.849 2685.47 590.456 Q2682.42 595.039 2676.61 595.039 Q2670.79 595.039 2667.72 590.456 Q2664.66 585.849 2664.66 577.123 Q2664.66 568.373 2667.72 563.789 Q2670.79 559.183 2676.61 559.183 Z" fill="#000000" fill-rule="evenodd" fill-opacity="1" /><path clip-path="url(#clip150)" d="M2706.77 562.887 Q2703.16 562.887 2701.33 566.451 Q2699.52 569.993 2699.52 577.123 Q2699.52 584.229 2701.33 587.794 Q2703.16 591.335 2706.77 591.335 Q2710.4 591.335 2712.21 587.794 Q2714.04 584.229 2714.04 577.123 Q2714.04 569.993 2712.21 566.451 Q2710.4 562.887 2706.77 562.887 M2706.77 559.183 Q2712.58 559.183 2715.63 563.789 Q2718.71 568.373 2718.71 577.123 Q2718.71 585.849 2715.63 590.456 Q2712.58 595.039 2706.77 595.039 Q2700.96 595.039 2697.88 590.456 Q2694.82 585.849 2694.82 577.123 Q2694.82 568.373 2697.88 563.789 Q2700.96 559.183 2706.77 559.183 Z" fill="#000000" fill-rule="evenodd" fill-opacity="1" /><path clip-path="url(#clip150)" d="M3425.5 590.433 L3441.82 590.433 L3441.82 594.368 L3419.88 594.368 L3419.88 590.433 Q3422.54 587.678 3427.12 583.048 Q3431.73 578.396 3432.91 577.053 Q3435.16 574.53 3436.04 572.794 Q3436.94 571.035 3436.94 569.345 Q3436.94 566.59 3435 564.854 Q3433.07 563.118 3429.97 563.118 Q3427.77 563.118 3425.32 563.882 Q3422.89 564.646 3420.11 566.197 L3420.11 561.475 Q3422.94 560.34 3425.39 559.762 Q3427.84 559.183 3429.88 559.183 Q3435.25 559.183 3438.44 561.868 Q3441.64 564.553 3441.64 569.044 Q3441.64 571.174 3440.83 573.095 Q3440.04 574.993 3437.94 577.586 Q3437.36 578.257 3434.25 581.474 Q3431.15 584.669 3425.5 590.433 Z" fill="#000000" fill-rule="evenodd" fill-opacity="1" /><path clip-path="url(#clip150)" d="M3461.64 562.887 Q3458.03 562.887 3456.2 566.451 Q3454.39 569.993 3454.39 577.123 Q3454.39 584.229 3456.2 587.794 Q3458.03 591.335 3461.64 591.335 Q3465.27 591.335 3467.08 587.794 Q3468.91 584.229 3468.91 577.123 Q3468.91 569.993 3467.08 566.451 Q3465.27 562.887 3461.64 562.887 M3461.64 559.183 Q3467.45 559.183 3470.5 563.789 Q3473.58 568.373 3473.58 577.123 Q3473.58 585.849 3470.5 590.456 Q3467.45 595.039 3461.64 595.039 Q3455.83 595.039 3452.75 590.456 Q3449.69 585.849 3449.69 577.123 Q3449.69 568.373 3452.75 563.789 Q3455.83 559.183 3461.64 559.183 Z" fill="#000000" fill-rule="evenodd" fill-opacity="1" /><path clip-path="url(#clip150)" d="M3491.8 562.887 Q3488.19 562.887 3486.36 566.451 Q3484.56 569.993 3484.56 577.123 Q3484.56 584.229 3486.36 587.794 Q3488.19 591.335 3491.8 591.335 Q3495.43 591.335 3497.24 587.794 Q3499.07 584.229 3499.07 577.123 Q3499.07 569.993 3497.24 566.451 Q3495.43 562.887 3491.8 562.887 M3491.8 559.183 Q3497.61 559.183 3500.67 563.789 Q3503.74 568.373 3503.74 577.123 Q3503.74 585.849 3500.67 590.456 Q3497.61 595.039 3491.8 595.039 Q3485.99 595.039 3482.91 590.456 Q3479.86 585.849 3479.86 577.123 Q3479.86 568.373 3482.91 563.789 Q3485.99 559.183 3491.8 559.183 Z" fill="#000000" fill-rule="evenodd" fill-opacity="1" /><path clip-path="url(#clip150)" d="M3521.96 562.887 Q3518.35 562.887 3516.52 566.451 Q3514.72 569.993 3514.72 577.123 Q3514.72 584.229 3516.52 587.794 Q3518.35 591.335 3521.96 591.335 Q3525.6 591.335 3527.4 587.794 Q3529.23 584.229 3529.23 577.123 Q3529.23 569.993 3527.4 566.451 Q3525.6 562.887 3521.96 562.887 M3521.96 559.183 Q3527.77 559.183 3530.83 563.789 Q3533.91 568.373 3533.91 577.123 Q3533.91 585.849 3530.83 590.456 Q3527.77 595.039 3521.96 595.039 Q3516.15 595.039 3513.07 590.456 Q3510.02 585.849 3510.02 577.123 Q3510.02 568.373 3513.07 563.789 Q3516.15 559.183 3521.96 559.183 Z" fill="#000000" fill-rule="evenodd" fill-opacity="1" /><polyline clip-path="url(#clip152)" style="stroke:#000000; stroke-linecap:round; stroke-linejoin:round; stroke-width:2; stroke-opacity:0.1; fill:none" points="124.177,522.368 3552.76,522.368 "/>
<polyline clip-path="url(#clip152)" style="stroke:#000000; stroke-linecap:round; stroke-linejoin:round; stroke-width:2; stroke-opacity:0.1; fill:none" points="124.177,454.493 3552.76,454.493 "/>
<polyline clip-path="url(#clip152)" style="stroke:#000000; stroke-linecap:round; stroke-linejoin:round; stroke-width:2; stroke-opacity:0.1; fill:none" points="124.177,386.618 3552.76,386.618 "/>
<polyline clip-path="url(#clip152)" style="stroke:#000000; stroke-linecap:round; stroke-linejoin:round; stroke-width:2; stroke-opacity:0.1; fill:none" points="124.177,318.743 3552.76,318.743 "/>
<polyline clip-path="url(#clip152)" style="stroke:#000000; stroke-linecap:round; stroke-linejoin:round; stroke-width:2; stroke-opacity:0.1; fill:none" points="124.177,250.869 3552.76,250.869 "/>
<polyline clip-path="url(#clip152)" style="stroke:#000000; stroke-linecap:round; stroke-linejoin:round; stroke-width:2; stroke-opacity:0.1; fill:none" points="124.177,182.994 3552.76,182.994 "/>
<polyline clip-path="url(#clip152)" style="stroke:#000000; stroke-linecap:round; stroke-linejoin:round; stroke-width:2; stroke-opacity:0.1; fill:none" points="124.177,115.119 3552.76,115.119 "/>
<polyline clip-path="url(#clip152)" style="stroke:#000000; stroke-linecap:round; stroke-linejoin:round; stroke-width:2; stroke-opacity:0.1; fill:none" points="124.177,47.2441 3552.76,47.2441 "/>
<polyline clip-path="url(#clip150)" style="stroke:#000000; stroke-linecap:round; stroke-linejoin:round; stroke-width:4; stroke-opacity:1; fill:none" points="124.177,522.368 124.177,47.2441 "/>
<polyline clip-path="url(#clip150)" style="stroke:#000000; stroke-linecap:round; stroke-linejoin:round; stroke-width:4; stroke-opacity:1; fill:none" points="124.177,522.368 143.075,522.368 "/>
<polyline clip-path="url(#clip150)" style="stroke:#000000; stroke-linecap:round; stroke-linejoin:round; stroke-width:4; stroke-opacity:1; fill:none" points="124.177,454.493 143.075,454.493 "/>
<polyline clip-path="url(#clip150)" style="stroke:#000000; stroke-linecap:round; stroke-linejoin:round; stroke-width:4; stroke-opacity:1; fill:none" points="124.177,386.618 143.075,386.618 "/>
<polyline clip-path="url(#clip150)" style="stroke:#000000; stroke-linecap:round; stroke-linejoin:round; stroke-width:4; stroke-opacity:1; fill:none" points="124.177,318.743 143.075,318.743 "/>
<polyline clip-path="url(#clip150)" style="stroke:#000000; stroke-linecap:round; stroke-linejoin:round; stroke-width:4; stroke-opacity:1; fill:none" points="124.177,250.869 143.075,250.869 "/>
<polyline clip-path="url(#clip150)" style="stroke:#000000; stroke-linecap:round; stroke-linejoin:round; stroke-width:4; stroke-opacity:1; fill:none" points="124.177,182.994 143.075,182.994 "/>
<polyline clip-path="url(#clip150)" style="stroke:#000000; stroke-linecap:round; stroke-linejoin:round; stroke-width:4; stroke-opacity:1; fill:none" points="124.177,115.119 143.075,115.119 "/>
<polyline clip-path="url(#clip150)" style="stroke:#000000; stroke-linecap:round; stroke-linejoin:round; stroke-width:4; stroke-opacity:1; fill:none" points="124.177,47.2441 143.075,47.2441 "/>
<path clip-path="url(#clip150)" d="M50.2699 535.713 L57.9087 535.713 L57.9087 509.347 L49.5986 511.014 L49.5986 506.755 L57.8624 505.088 L62.5383 505.088 L62.5383 535.713 L70.1772 535.713 L70.1772 539.648 L50.2699 539.648 L50.2699 535.713 Z" fill="#000000" fill-rule="evenodd" fill-opacity="1" /><path clip-path="url(#clip150)" d="M53.8578 467.838 L70.1772 467.838 L70.1772 471.773 L48.2328 471.773 L48.2328 467.838 Q50.8949 465.083 55.4782 460.454 Q60.0846 455.801 61.2652 454.458 Q63.5105 451.935 64.3902 450.199 Q65.2929 448.44 65.2929 446.75 Q65.2929 443.995 63.3485 442.259 Q61.4272 440.523 58.3254 440.523 Q56.1263 440.523 53.6726 441.287 Q51.2421 442.051 48.4643 443.602 L48.4643 438.88 Q51.2884 437.745 53.7421 437.167 Q56.1958 436.588 58.2328 436.588 Q63.6031 436.588 66.7976 439.273 Q69.992 441.958 69.992 446.449 Q69.992 448.579 69.1818 450.5 Q68.3948 452.398 66.2883 454.991 Q65.7096 455.662 62.6078 458.88 Q59.5059 462.074 53.8578 467.838 Z" fill="#000000" fill-rule="evenodd" fill-opacity="1" /><path clip-path="url(#clip150)" d="M63.0476 385.264 Q66.404 385.982 68.279 388.25 Q70.1772 390.519 70.1772 393.852 Q70.1772 398.968 66.6587 401.769 Q63.1402 404.57 56.6587 404.57 Q54.4828 404.57 52.168 404.13 Q49.8764 403.713 47.4227 402.857 L47.4227 398.343 Q49.3671 399.477 51.6819 400.056 Q53.9967 400.634 56.5198 400.634 Q60.918 400.634 63.2096 398.898 Q65.5244 397.162 65.5244 393.852 Q65.5244 390.796 63.3717 389.083 Q61.242 387.347 57.4226 387.347 L53.3949 387.347 L53.3949 383.505 L57.6078 383.505 Q61.0569 383.505 62.8855 382.139 Q64.7142 380.75 64.7142 378.158 Q64.7142 375.496 62.8161 374.084 Q60.9411 372.648 57.4226 372.648 Q55.5013 372.648 53.3023 373.065 Q51.1032 373.482 48.4643 374.361 L48.4643 370.195 Q51.1264 369.454 53.4412 369.084 Q55.7791 368.713 57.8393 368.713 Q63.1633 368.713 66.2652 371.144 Q69.367 373.551 69.367 377.672 Q69.367 380.542 67.7235 382.533 Q66.08 384.5 63.0476 385.264 Z" fill="#000000" fill-rule="evenodd" fill-opacity="1" /><path clip-path="url(#clip150)" d="M60.5939 305.537 L48.7884 323.986 L60.5939 323.986 L60.5939 305.537 M59.367 301.463 L65.2466 301.463 L65.2466 323.986 L70.1772 323.986 L70.1772 327.875 L65.2466 327.875 L65.2466 336.023 L60.5939 336.023 L60.5939 327.875 L44.9921 327.875 L44.9921 323.361 L59.367 301.463 Z" fill="#000000" fill-rule="evenodd" fill-opacity="1" /><path clip-path="url(#clip150)" d="M49.2745 233.589 L67.6309 233.589 L67.6309 237.524 L53.5569 237.524 L53.5569 245.996 Q54.5754 245.649 55.5939 245.487 Q56.6124 245.301 57.6309 245.301 Q63.418 245.301 66.7976 248.473 Q70.1772 251.644 70.1772 257.061 Q70.1772 262.639 66.705 265.741 Q63.2328 268.82 56.9134 268.82 Q54.7374 268.82 52.4689 268.449 Q50.2236 268.079 47.8162 267.338 L47.8162 262.639 Q49.8995 263.774 52.1217 264.329 Q54.3439 264.885 56.8208 264.885 Q60.8254 264.885 63.1633 262.778 Q65.5013 260.672 65.5013 257.061 Q65.5013 253.45 63.1633 251.343 Q60.8254 249.237 56.8208 249.237 Q54.9458 249.237 53.0708 249.653 Q51.2189 250.07 49.2745 250.95 L49.2745 233.589 Z" fill="#000000" fill-rule="evenodd" fill-opacity="1" /><path clip-path="url(#clip150)" d="M58.6495 181.13 Q55.5013 181.13 53.6495 183.283 Q51.8208 185.436 51.8208 189.186 Q51.8208 192.913 53.6495 195.089 Q55.5013 197.241 58.6495 197.241 Q61.7976 197.241 63.6263 195.089 Q65.4781 192.913 65.4781 189.186 Q65.4781 185.436 63.6263 183.283 Q61.7976 181.13 58.6495 181.13 M67.9318 166.478 L67.9318 170.737 Q66.1726 169.904 64.367 169.464 Q62.5846 169.024 60.8254 169.024 Q56.1958 169.024 53.7421 172.149 Q51.3115 175.274 50.9643 181.593 Q52.33 179.579 54.3902 178.515 Q56.4504 177.427 58.9272 177.427 Q64.1355 177.427 67.1448 180.598 Q70.1772 183.746 70.1772 189.186 Q70.1772 194.51 67.029 197.727 Q63.8809 200.945 58.6495 200.945 Q52.6541 200.945 49.4828 196.362 Q46.3116 191.755 46.3116 183.028 Q46.3116 174.834 50.2004 169.973 Q54.0893 165.089 60.6402 165.089 Q62.3994 165.089 64.1818 165.436 Q65.9874 165.783 67.9318 166.478 Z" fill="#000000" fill-rule="evenodd" fill-opacity="1" /><path clip-path="url(#clip150)" d="M47.9551 97.8389 L70.1772 97.8389 L70.1772 99.8297 L57.6309 132.399 L52.7467 132.399 L64.5522 101.774 L47.9551 101.774 L47.9551 97.8389 Z" fill="#000000" fill-rule="evenodd" fill-opacity="1" /><path clip-path="url(#clip150)" d="M58.3254 48.1121 Q54.9921 48.1121 53.0708 49.8945 Q51.1726 51.6769 51.1726 54.8019 Q51.1726 57.9269 53.0708 59.7093 Q54.9921 61.4917 58.3254 61.4917 Q61.6587 61.4917 63.58 59.7093 Q65.5013 57.9038 65.5013 54.8019 Q65.5013 51.6769 63.58 49.8945 Q61.6819 48.1121 58.3254 48.1121 M53.6495 46.1214 Q50.6402 45.3807 48.9504 43.3205 Q47.2838 41.2603 47.2838 38.2974 Q47.2838 34.1539 50.2236 31.7465 Q53.1865 29.3391 58.3254 29.3391 Q63.4874 29.3391 66.4272 31.7465 Q69.367 34.1539 69.367 38.2974 Q69.367 41.2603 67.6772 43.3205 Q66.0105 45.3807 63.0244 46.1214 Q66.404 46.9084 68.279 49.2001 Q70.1772 51.4918 70.1772 54.8019 Q70.1772 59.825 67.0985 62.5102 Q64.0429 65.1954 58.3254 65.1954 Q52.6078 65.1954 49.5291 62.5102 Q46.4736 59.825 46.4736 54.8019 Q46.4736 51.4918 48.3717 49.2001 Q50.2699 46.9084 53.6495 46.1214 M51.9365 38.7372 Q51.9365 41.4224 53.6032 42.927 Q55.293 44.4316 58.3254 44.4316 Q61.3346 44.4316 63.0244 42.927 Q64.7374 41.4224 64.7374 38.7372 Q64.7374 36.052 63.0244 34.5474 Q61.3346 33.0428 58.3254 33.0428 Q55.293 33.0428 53.6032 34.5474 Q51.9365 36.052 51.9365 38.7372 Z" fill="#000000" fill-rule="evenodd" fill-opacity="1" /><polyline clip-path="url(#clip152)" style="stroke:#009af9; stroke-linecap:round; stroke-linejoin:round; stroke-width:2; stroke-opacity:1; fill:none" points="221.212,458.341 222.841,447.682 224.47,440.627 226.098,468.551 227.727,451.331 229.356,449.877 230.984,450.91 232.613,451.622 234.242,445.814 235.87,453.294 237.499,444.71 239.128,439.972 240.756,438.742 242.385,472.795 244.014,449.602 245.642,443.706 247.271,457.446 248.9,441.514 250.528,453.322 252.157,455.403 253.786,449.518 255.414,457.085 257.043,459.721 258.671,446.072 260.3,454.221 261.929,453.877 263.557,460.134 265.186,452.537 266.815,464.06 268.443,454.515 270.072,455.129 271.701,463.272 273.329,443.787 274.958,468.376 276.587,452.228 278.215,443.435 279.844,442.564 281.473,458.524 283.101,447.874 284.73,467.559 286.359,454.959 287.987,442.109 289.616,454.923 291.245,450.942 292.873,449.351 294.502,452.46 296.131,451.239 297.759,443.684 299.388,457.861 301.017,451.171 302.645,449.486 304.274,449.281 305.902,450.821 307.531,452.031 309.16,459.477 310.788,456.809 312.417,456.817 314.046,457.261 315.674,458.213 317.303,456.821 318.932,459.001 320.56,444.325 322.189,447.684 323.818,449.766 325.446,442.86 327.075,461.632 328.704,447.477 330.332,468.37 331.961,455.515 333.59,443.67 335.218,457.862 336.847,449.118 338.476,460.458 340.104,451.551 341.733,460.635 343.362,459.282 344.99,436.818 346.619,449.02 348.247,454.768 349.876,454.005 351.505,452.361 353.133,459.533 354.762,466.549 356.391,450.236 358.019,447.608 359.648,444.578 361.277,471.076 362.905,457.555 364.534,447.406 366.163,452.394 367.791,452.658 369.42,458.187 371.049,446.705 372.677,457.186 374.306,453.164 375.935,454.815 377.563,447.436 379.192,454.78 380.821,444.504 382.449,462.012 384.078,444.543 385.707,445.161 387.335,441.61 388.964,460.426 390.593,462.583 392.221,450.639 393.85,475.143 395.478,438.601 397.107,456.266 398.736,447.422 400.364,461.345 401.993,467.327 403.622,464.886 405.25,450.009 406.879,445.586 408.508,470.075 410.136,444.455 411.765,438.903 413.394,449.614 415.022,450.321 416.651,469.1 418.28,441.435 419.908,437.379 421.537,450.148 423.166,455.898 424.794,449.442 426.423,466.348 428.052,461.458 429.68,464.739 431.309,463.952 432.938,459.997 434.566,451.156 436.195,453.551 437.823,446.096 439.452,452.894 441.081,459.016 442.709,440.827 444.338,447.175 445.967,437.486 447.595,446.548 449.224,452.176 450.853,460.871 452.481,457.286 454.11,448.18 455.739,462.916 457.367,449.612 458.996,458.2 460.625,450.966 462.253,457.137 463.882,454.465 465.511,456.712 467.139,442.058 468.768,451.798 470.397,456.053 472.025,434.34 473.654,439.648 475.283,441.197 476.911,452.688 478.54,463.097 480.169,458.839 481.797,460.575 483.426,448.623 485.054,456.372 486.683,448.772 488.312,449.476 489.94,457.856 491.569,457.154 493.198,453.743 494.826,457.165 496.455,451.459 498.084,457.392 499.712,451.68 501.341,451.344 502.97,456.987 504.598,450.216 506.227,444.852 507.856,469.284 509.484,446.893 511.113,444.931 512.742,459.926 514.37,454.983 515.999,444.37 517.628,462.911 519.256,458.549 520.885,457.369 522.514,449.893 524.142,458.957 525.771,463.866 527.4,449.402 529.028,456.613 530.657,462.7 532.285,457.903 533.914,455.562 535.543,454.029 537.171,446.574 538.8,459.861 540.429,457.036 542.057,466.122 543.686,461.48 545.315,459.846 546.943,441.257 548.572,458.889 550.201,437.461 551.829,461.761 553.458,458.166 555.087,458.124 556.715,460.979 558.344,451.145 559.973,453.69 561.601,447.685 563.23,457.111 564.859,465.647 566.487,446.805 568.116,461.535 569.745,451.374 571.373,445.83 573.002,448.095 574.63,461.734 576.259,452.517 577.888,447.303 579.516,451.523 581.145,455.728 582.774,457.901 584.402,450.326 586.031,442.574 587.66,453.529 589.288,452.491 590.917,451.281 592.546,452.159 594.174,452.635 595.803,453.769 597.432,453.902 599.06,437.91 600.689,453.974 602.318,463.363 603.946,460.964 605.575,449.376 607.204,448.75 608.832,455.841 610.461,464.561 612.09,458.575 613.718,449.574 615.347,447.805 616.976,453.934 618.604,448.653 620.233,441.26 621.861,444.031 623.49,444.484 625.119,447.75 626.747,465.23 628.376,455.816 630.005,452.691 631.633,456.732 633.262,467.852 634.891,448.037 636.519,452.951 638.148,460.297 639.777,465.646 641.405,442.109 643.034,454.09 644.663,445.501 646.291,456.385 647.92,460.926 649.549,453.296 651.177,445.812 652.806,455.678 654.435,467.214 656.063,446.635 657.692,461.042 659.321,448.984 660.949,457.549 662.578,448.993 664.207,448.449 665.835,445.211 667.464,451.267 669.092,454.385 670.721,467.677 672.35,448.255 673.978,447.889 675.607,452.359 677.236,456.549 678.864,460.13 680.493,443.639 682.122,471.884 683.75,463.665 685.379,459.009 687.008,454.904 688.636,445.956 690.265,456.092 691.894,455.908 693.522,460.461 695.151,456.358 696.78,453.306 698.408,459.775 700.037,450.372 701.666,445.766 703.294,442.011 704.923,459.649 706.552,458.01 708.18,451.502 709.809,447.236 711.437,446.097 713.066,450.009 714.695,462.784 716.323,455.886 717.952,458.062 719.581,450.857 721.209,451.713 722.838,457.261 724.467,454.062 726.095,461.684 727.724,446.066 729.353,454.419 730.981,459.043 732.61,449.406 734.239,444.38 735.867,458.786 737.496,447.344 739.125,450.893 740.753,457.841 742.382,446.39 744.011,447.4 745.639,450.411 747.268,440.5 748.897,436.179 750.525,457.886 752.154,448.923 753.783,458.787 755.411,444.8 757.04,448.438 758.668,446.975 760.297,456.762 761.926,456.575 763.554,455.088 765.183,464.613 766.812,461.803 768.44,441.587 770.069,445.243 771.698,442.529 773.326,446.579 774.955,442.335 776.584,442.156 778.212,464.362 779.841,448.329 781.47,459.164 783.098,456.336 784.727,464.349 786.356,448.151 787.984,451.87 789.613,458.28 791.242,443.516 792.87,447.815 794.499,454.277 796.128,455.267 797.756,442.383 799.385,435.964 801.013,447.108 802.642,447.308 804.271,444.134 805.899,464.33 807.528,459.866 809.157,458.267 810.785,447.012 812.414,443.567 814.043,465.309 815.671,458.069 817.3,454.951 818.929,458.186 820.557,452.587 822.186,442.52 823.815,451.362 825.443,454.746 827.072,469.889 828.701,450.69 830.329,449.819 831.958,451.18 833.587,450.563 835.215,453.415 836.844,442.997 838.473,447.956 840.101,453.774 841.73,451.505 843.359,460.809 844.987,458.986 846.616,460.741 848.244,457.153 849.873,441.027 851.502,451.989 853.13,450.06 854.759,451.562 856.388,456.444 858.016,445.064 859.645,446.814 861.274,439.844 862.902,446.392 864.531,461.037 866.16,445.83 867.788,443.708 869.417,453.487 871.046,452.742 872.674,457.962 874.303,447.776 875.932,451.12 877.56,447.368 879.189,470.516 880.818,451.875 882.446,456.966 884.075,465.139 885.704,449.095 887.332,450.484 888.961,447.657 890.59,461.603 892.218,445.838 893.847,454.975 895.475,458.284 897.104,455.259 898.733,461.262 900.361,458.347 901.99,446.408 903.619,455.076 905.247,450.959 906.876,445.91 908.505,456.294 910.133,450.778 911.762,442.539 913.391,464.545 915.019,443.782 916.648,470.164 918.277,453.799 919.905,455.688 921.534,440.267 923.163,460.729 924.791,456.015 926.42,449.135 928.049,459.698 929.677,469.026 931.306,445.242 932.935,461.908 934.563,459.518 936.192,444.413 937.82,455.679 939.449,472.421 941.078,455.146 942.706,454.736 944.335,455.233 945.964,448.781 947.592,458.547 949.221,451.907 950.85,451.126 952.478,443.033 954.107,442.768 955.736,457.55 957.364,470.795 958.993,447.327 960.622,451.48 962.25,443.244 963.879,459.587 965.508,456.156 967.136,454.464 968.765,452.868 970.394,453.122 972.022,453.525 973.651,445.595 975.28,449.605 976.908,452.771 978.537,452.897 980.166,447.157 981.794,455.837 983.423,440.629 985.051,460.261 986.68,447.813 988.309,459.273 989.937,438.435 991.566,465.784 993.195,460.81 994.823,456.87 996.452,453.212 998.081,457.78 999.709,441.186 1001.34,460.87 1002.97,467.395 1004.6,448.091 1006.22,461.713 1007.85,452.441 1009.48,461.707 1011.11,456.692 1012.74,455.267 1014.37,453.999 1016,470.475 1017.62,468.333 1019.25,448.846 1020.88,450.518 1022.51,453.798 1024.14,459.422 1025.77,454.615 1027.4,453.506 1029.03,462.773 1030.65,448.154 1032.28,447.862 1033.91,462.854 1035.54,442.21 1037.17,461.522 1038.8,450.6 1040.43,438.311 1042.05,450.592 1043.68,446.703 1045.31,450.546 1046.94,448.262 1048.57,451.706 1050.2,447.842 1051.83,465.178 1053.45,457.508 1055.08,451.865 1056.71,457.187 1058.34,467.289 1059.97,463.636 1061.6,447.064 1063.23,439.524 1064.86,439.019 1066.48,460.974 1068.11,450.02 1069.74,453.872 1071.37,452.204 1073,468.367 1074.63,457.522 1076.26,452.863 1077.88,458.67 1079.51,456.551 1081.14,455.862 1082.77,451.632 1084.4,450.309 1086.03,445.445 1087.66,475.025 1089.29,455.065 1090.91,452.471 1092.54,452.928 1094.17,458.801 1095.8,454.887 1097.43,448.804 1099.06,448.133 1100.69,446.795 1102.31,459.839 1103.94,437.124 1105.57,453.988 1107.2,450.388 1108.83,455.08 1110.46,471.932 1112.09,455.192 1113.72,454.549 1115.34,470.633 1116.97,449.969 1118.6,472.164 1120.23,446.631 1121.86,458.778 1123.49,445.183 1125.12,441.925 1126.74,439.629 1128.37,443.809 1130,466.803 1131.63,452.353 1133.26,457.505 1134.89,453.663 1136.52,461.907 1138.15,453.262 1139.77,447.631 1141.4,459.285 1143.03,452.808 1144.66,451.536 1146.29,450.381 1147.92,453.228 1149.55,449.831 1151.17,454.45 1152.8,447.341 1154.43,460.305 1156.06,456.299 1157.69,451.898 1159.32,448.487 1160.95,451.967 1162.57,437.302 1164.2,461.235 1165.83,448.682 1167.46,446.457 1169.09,441.487 1170.72,444.618 1172.35,447.152 1173.98,447.71 1175.6,443.244 1177.23,440.597 1178.86,440.223 1180.49,461.572 1182.12,469.491 1183.75,440.006 1185.38,462.521 1187,455.463 1188.63,444.029 1190.26,441.234 1191.89,467.156 1193.52,454.615 1195.15,448.95 1196.78,466.192 1198.41,463.653 1200.03,448.456 1201.66,444.023 1203.29,454.409 1204.92,459.234 1206.55,461.393 1208.18,452.59 1209.81,461.051 1211.43,455.977 1213.06,457.9 1214.69,450.865 1216.32,449.372 1217.95,460.882 1219.58,439.897 1221.21,458.493 1222.84,446.792 1224.46,457.42 1226.09,452.145 1227.72,475.849 1229.35,451.001 1230.98,456.735 1232.61,443.17 1234.24,456.472 1235.86,454.358 1237.49,446.288 1239.12,458.107 1240.75,453.866 1242.38,453.288 1244.01,449.588 1245.64,449.563 1247.26,455.731 1248.89,452.57 1250.52,448.428 1252.15,461.096 1253.78,456.874 1255.41,455.166 1257.04,450.799 1258.67,457.663 1260.29,451.608 1261.92,461.674 1263.55,445.572 1265.18,461.46 1266.81,466.144 1268.44,437.51 1270.07,464.881 1271.69,454.435 1273.32,450.208 1274.95,455.427 1276.58,461.531 1278.21,452.914 1279.84,457.149 1281.47,453.478 1283.1,457.403 1284.72,455.094 1286.35,461.885 1287.98,455.886 1289.61,448.019 1291.24,458.566 1292.87,456.529 1294.5,459.204 1296.12,459.319 1297.75,455.683 1299.38,453.779 1301.01,451.315 1302.64,461.021 1304.27,454.817 1305.9,445.296 1307.53,444.981 1309.15,466.184 1310.78,452.602 1312.41,458.678 1314.04,449.882 1315.67,451.311 1317.3,451.994 1318.93,451.734 1320.55,459.609 1322.18,463.695 1323.81,454.052 1325.44,463.529 1327.07,451.526 1328.7,457.411 1330.33,452.494 1331.95,451.018 1333.58,463.87 1335.21,448.958 1336.84,460.446 1338.47,452.545 1340.1,461.801 1341.73,449.172 1343.36,454.132 1344.98,458.687 1346.61,459.954 1348.24,460.253 1349.87,460.096 1351.5,446.689 1353.13,447.563 1354.76,440.088 1356.38,456.296 1358.01,455.542 1359.64,462.533 1361.27,447.134 1362.9,449.18 1364.53,445.663 1366.16,443.835 1367.79,450.885 1369.41,461.669 1371.04,449.612 1372.67,438.617 1374.3,460.8 1375.93,454.946 1377.56,460.992 1379.19,456.626 1380.81,454.726 1382.44,456.784 1384.07,458.347 1385.7,453.609 1387.33,454.46 1388.96,446.119 1390.59,448.091 1392.22,450.945 1393.84,457.343 1395.47,457.059 1397.1,456.875 1398.73,449.253 1400.36,452.862 1401.99,456.324 1403.62,453.211 1405.24,449.112 1406.87,462.207 1408.5,433.141 1410.13,453.966 1411.76,459.891 1413.39,447.528 1415.02,450.065 1416.64,439.05 1418.27,452.162 1419.9,453.798 1421.53,469.501 1423.16,452.051 1424.79,467.927 1426.42,451.832 1428.05,455.815 1429.67,447.108 1431.3,454.903 1432.93,446.733 1434.56,465.171 1436.19,463.636 1437.82,460.291 1439.45,460.498 1441.07,454.306 1442.7,456.696 1444.33,457.056 1445.96,459.177 1447.59,465.983 1449.22,447.793 1450.85,454.791 1452.48,455.686 1454.1,458.57 1455.73,451.644 1457.36,443.946 1458.99,446.512 1460.62,448.223 1462.25,458.355 1463.88,445.106 1465.5,459.652 1467.13,450.923 1468.76,455.071 1470.39,448.999 1472.02,453.746 1473.65,454.507 1475.28,456.125 1476.91,462.344 1478.53,455.003 1480.16,463.309 1481.79,456.057 1483.42,455.418 1485.05,452.464 1486.68,463.543 1488.31,449.448 1489.93,461.431 1491.56,457.116 1493.19,444.416 1494.82,451.448 1496.45,453.13 1498.08,452.36 1499.71,457.714 1501.34,460.981 1502.96,445.436 1504.59,462.589 1506.22,447.644 1507.85,455.512 1509.48,445.541 1511.11,447.757 1512.74,462.799 1514.36,452.856 1515.99,452.102 1517.62,446.179 1519.25,450.43 1520.88,457.853 1522.51,446.021 1524.14,457.524 1525.76,454.264 1527.39,463.915 1529.02,441.3 1530.65,449.018 1532.28,455.232 1533.91,461.095 1535.54,447.748 1537.17,464.832 1538.79,455.195 1540.42,450.908 1542.05,466.875 1543.68,446.841 1545.31,451.825 1546.94,460.749 1548.57,453.858 1550.19,453.5 1551.82,465.169 1553.45,463.551 1555.08,453.323 1556.71,464.129 1558.34,458.24 1559.97,460.644 1561.6,461.151 1563.22,445.208 1564.85,450.402 1566.48,451.711 1568.11,455.293 1569.74,475.832 1571.37,448.794 1573,457.709 1574.62,450.755 1576.25,460.134 1577.88,456.11 1579.51,452.255 1581.14,456.668 1582.77,448.895 1584.4,450.071 1586.03,456.697 1587.65,454.546 1589.28,440.626 1590.91,459.191 1592.54,458.834 1594.17,452.186 1595.8,445.27 1597.43,454.009 1599.05,458.929 1600.68,454.224 1602.31,451.031 1603.94,450.246 1605.57,450.381 1607.2,452.578 1608.83,462.068 1610.45,465.612 1612.08,445.863 1613.71,449.317 1615.34,452.299 1616.97,446.268 1618.6,442.668 1620.23,461.363 1621.86,446.841 1623.48,455.511 1625.11,467.928 1626.74,459.311 1628.37,454.486 1630,449.245 1631.63,450.811 1633.26,449.975 1634.88,454.455 1636.51,459.458 1638.14,440.478 1639.77,460.799 1641.4,455.352 1643.03,468.366 1644.66,457.716 1646.29,457.811 1647.91,438.412 1649.54,441.559 1651.17,472.688 1652.8,439.741 1654.43,467.251 1656.06,455.648 1657.69,440.078 1659.31,448.089 1660.94,445.794 1662.57,460.287 1664.2,449.381 1665.83,450.314 1667.46,455.277 1669.09,464.675 1670.72,448.387 1672.34,456.599 1673.97,450.341 1675.6,448.37 1677.23,462.487 1678.86,441.708 1680.49,437.994 1682.12,466.228 1683.74,443.163 1685.37,446.536 1687,453.855 1688.63,456.411 1690.26,452.196 1691.89,451.33 1693.52,452.411 1695.14,453.361 1696.77,450.135 1698.4,455.448 1700.03,456.148 1701.66,447.955 1703.29,445.157 1704.92,452.703 1706.55,465.18 1708.17,455.019 1709.8,459.08 1711.43,458.368 1713.06,455.338 1714.69,449.169 1716.32,459.784 1717.95,459.823 1719.57,455.914 1721.2,458.683 1722.83,459.144 1724.46,465.257 1726.09,463.846 1727.72,446.408 1729.35,453.822 1730.98,464.334 1732.6,464.426 1734.23,455.51 1735.86,449.361 1737.49,460.151 1739.12,456.266 1740.75,457.655 1742.38,450.44 1744,448.93 1745.63,443.303 1747.26,449.577 1748.89,447.551 1750.52,458.186 1752.15,462.848 1753.78,459.429 1755.41,455.896 1757.03,456.87 1758.66,457.758 1760.29,436.677 1761.92,472.114 1763.55,451.93 1765.18,459.241 1766.81,463.483 1768.43,447.993 1770.06,454.558 1771.69,462.223 1773.32,442.134 1774.95,449.836 1776.58,459.858 1778.21,456.635 1779.83,458.679 1781.46,459.772 1783.09,455.6 1784.72,457.717 1786.35,455.664 1787.98,459.193 1789.61,450.666 1791.24,454.478 1792.86,451.339 1794.49,472.075 1796.12,460.284 1797.75,463.915 1799.38,447.027 1801.01,460.429 1802.64,456.26 1804.26,454.462 1805.89,450.857 1807.52,439.714 1809.15,456.019 1810.78,452.303 1812.41,452.322 1814.04,452.896 1815.67,449.607 1817.29,465.739 1818.92,443.18 1820.55,435.214 1822.18,445.523 1823.81,459.893 1825.44,445.408 1827.07,467.416 1828.69,441.452 1830.32,464.42 1831.95,443.802 1833.58,438.332 1835.21,442.584 1836.84,458.178 1838.47,454.669 1840.1,459.936 1841.72,459.904 1843.35,456.896 1844.98,456.108 1846.61,455.18 1848.24,454.137 1849.87,462.881 1851.5,457.036 1853.12,454.103 1854.75,449.689 1856.38,465.873 1858.01,460.865 1859.64,457.268 1861.27,457.265 1862.9,454.73 1864.53,455.78 1866.15,454.07 1867.78,454.527 1869.41,452.747 1871.04,454.212 1872.67,456.321 1874.3,461.584 1875.93,449.558 1877.55,460.588 1879.18,459.787 1880.81,449.108 1882.44,482.12 1884.07,437.961 1885.7,448.416 1887.33,461.125 1888.95,454.025 1890.58,442.645 1892.21,445.841 1893.84,464.551 1895.47,450.705 1897.1,435.535 1898.73,451.255 1900.36,458.161 1901.98,454.562 1903.61,450.713 1905.24,451.517 1906.87,450.624 1908.5,453.288 1910.13,455.103 1911.76,449.449 1913.38,449.397 1915.01,448.229 1916.64,463.234 1918.27,447.134 1919.9,466.974 1921.53,445.785 1923.16,462.008 1924.79,452.766 1926.41,445.426 1928.04,460.27 1929.67,453.665 1931.3,458.362 1932.93,456.166 1934.56,449.654 1936.19,445.162 1937.81,448.257 1939.44,457.134 1941.07,463.952 1942.7,459.76 1944.33,447.854 1945.96,458.022 1947.59,453.397 1949.22,451.731 1950.84,458.751 1952.47,449.782 1954.1,447.749 1955.73,441.144 1957.36,457.199 1958.99,450.4 1960.62,447.956 1962.24,460.532 1963.87,444.385 1965.5,461.971 1967.13,446.969 1968.76,463.508 1970.39,447.37 1972.02,457.423 1973.64,452.194 1975.27,448.613 1976.9,455.285 1978.53,450.319 1980.16,464.587 1981.79,455.948 1983.42,454.123 1985.05,451.746 1986.67,450.847 1988.3,437.865 1989.93,452.626 1991.56,459.153 1993.19,448.999 1994.82,462.071 1996.45,449.334 1998.07,451.653 1999.7,455.464 2001.33,457.213 2002.96,459.718 2004.59,448.252 2006.22,450.98 2007.85,454.686 2009.48,451.645 2011.1,445.717 2012.73,457.149 2014.36,453.725 2015.99,447.289 2017.62,449.688 2019.25,456.227 2020.88,449.959 2022.5,444.248 2024.13,454.81 2025.76,445.716 2027.39,463.333 2029.02,461.854 2030.65,460.992 2032.28,455.295 2033.91,453.5 2035.53,441.46 2037.16,446.738 2038.79,464.417 2040.42,469.118 2042.05,467.396 2043.68,465.554 2045.31,451.389 2046.93,453.942 2048.56,445.778 2050.19,451.947 2051.82,455.282 2053.45,454.671 2055.08,452.007 2056.71,458.166 2058.33,451.78 2059.96,452.988 2061.59,462.152 2063.22,455.298 2064.85,451.282 2066.48,451.676 2068.11,449.31 2069.74,453.089 2071.36,454.055 2072.99,446.013 2074.62,461.034 2076.25,443.521 2077.88,449.41 2079.51,452.135 2081.14,460.885 2082.76,455.209 2084.39,459.388 2086.02,451.246 2087.65,462.25 2089.28,454.414 2090.91,447.862 2092.54,459.484 2094.17,460.712 2095.79,464.649 2097.42,460.838 2099.05,444.516 2100.68,453.319 2102.31,446.022 2103.94,454.442 2105.57,458.626 2107.19,438.749 2108.82,438.449 2110.45,459.412 2112.08,449.14 2113.71,453.272 2115.34,439.527 2116.97,444.669 2118.6,442.975 2120.22,449.848 2121.85,455.156 2123.48,447.792 2125.11,449.625 2126.74,457.893 2128.37,452.697 2130,461.69 2131.62,452.854 2133.25,454.388 2134.88,446.394 2136.51,439.961 2138.14,454.857 2139.77,454.948 2141.4,439.922 2143.02,452.853 2144.65,458.174 2146.28,451.488 2147.91,458.103 2149.54,444.976 2151.17,449.591 2152.8,459.184 2154.43,455.155 2156.05,453.815 2157.68,437.124 2159.31,443.51 2160.94,452.683 2162.57,452.178 2164.2,455.566 2165.83,451.488 2167.45,451.691 2169.08,449.006 2170.71,442.491 2172.34,452.236 2173.97,461.782 2175.6,459.815 2177.23,456.138 2178.86,441.887 2180.48,455.231 2182.11,454.658 2183.74,448.925 2185.37,466.946 2187,466.481 2188.63,440.095 2190.26,440.369 2191.88,461.671 2193.51,456.972 2195.14,459.304 2196.77,451.24 2198.4,460.149 2200.03,456.56 2201.66,454.671 2203.29,446.813 2204.91,438.343 2206.54,452.612 2208.17,456.614 2209.8,456.914 2211.43,455.312 2213.06,453.762 2214.69,462.353 2216.31,447.451 2217.94,446.388 2219.57,443.869 2221.2,433.826 2222.83,447.683 2224.46,457.32 2226.09,452.477 2227.72,462.776 2229.34,450.486 2230.97,452.75 2232.6,449.286 2234.23,458.494 2235.86,448.704 2237.49,450.551 2239.12,444.158 2240.74,457.528 2242.37,446.674 2244,452.338 2245.63,449.562 2247.26,463.776 2248.89,454.964 2250.52,454.551 2252.14,458.578 2253.77,465.73 2255.4,450.865 2257.03,450.699 2258.66,446.451 2260.29,438.568 2261.92,450.601 2263.55,452.727 2265.17,450.515 2266.8,463.132 2268.43,451.605 2270.06,451.878 2271.69,449.892 2273.32,470.763 2274.95,465.065 2276.57,470.172 2278.2,452.084 2279.83,452.258 2281.46,463.252 2283.09,453.223 2284.72,458.558 2286.35,445.93 2287.98,452.125 2289.6,447.859 2291.23,457.555 2292.86,452.297 2294.49,439.789 2296.12,441.679 2297.75,442.278 2299.38,452.145 2301,455.604 2302.63,460.371 2304.26,452.736 2305.89,453.905 2307.52,444.433 2309.15,462.557 2310.78,460.943 2312.41,442.79 2314.03,455.386 2315.66,439.241 2317.29,438.699 2318.92,462.041 2320.55,464.813 2322.18,451.716 2323.81,442.221 2325.43,457.224 2327.06,458.928 2328.69,450.182 2330.32,452.292 2331.95,440.353 2333.58,447.448 2335.21,453.799 2336.83,459.856 2338.46,462.907 2340.09,474.849 2341.72,476.235 2343.35,448.755 2344.98,462.927 2346.61,460.311 2348.24,445.945 2349.86,459.328 2351.49,455.716 2353.12,452.305 2354.75,457.354 2356.38,452.833 2358.01,451.236 2359.64,459.121 2361.26,455.205 2362.89,442.398 2364.52,442.703 2366.15,444.819 2367.78,442.694 2369.41,456.063 2371.04,451.553 2372.67,455.987 2374.29,447.644 2375.92,459.172 2377.55,448.73 2379.18,449.743 2380.81,447.738 2382.44,446.283 2384.07,444.203 2385.69,467.202 2387.32,460.884 2388.95,453.156 2390.58,453.403 2392.21,454.612 2393.84,431.493 2395.47,433.888 2397.1,445.854 2398.72,452.748 2400.35,455.929 2401.98,448.81 2403.61,443.556 2405.24,445.037 2406.87,452.765 2408.5,457.583 2410.12,466.441 2411.75,450.05 2413.38,463.65 2415.01,459.361 2416.64,460.463 2418.27,455.95 2419.9,459.43 2421.52,449.311 2423.15,437.871 2424.78,456.454 2426.41,451.764 2428.04,455.348 2429.67,447.692 2431.3,450.418 2432.93,453.592 2434.55,456.703 2436.18,446.758 2437.81,450.667 2439.44,450.101 2441.07,449.03 2442.7,449.067 2444.33,440.172 2445.95,439.504 2447.58,451.004 2449.21,469.387 2450.84,445.448 2452.47,447.407 2454.1,443.249 2455.73,461.25 2457.36,447.728 2458.98,446.745 2460.61,452.444 2462.24,449.115 2463.87,460.546 2465.5,449.634 2467.13,454.852 2468.76,457.694 2470.38,457.419 2472.01,452.533 2473.64,448.196 2475.27,460.247 2476.9,457.057 2478.53,449.632 2480.16,457.021 2481.79,457.24 2483.41,464.77 2485.04,444.933 2486.67,438.249 2488.3,461.613 2489.93,453.112 2491.56,446.576 2493.19,456.827 2494.81,455.257 2496.44,440.636 2498.07,445.262 2499.7,430.513 2501.33,455.484 2502.96,461.655 2504.59,449.111 2506.21,458.147 2507.84,451.317 2509.47,461.167 2511.1,449.502 2512.73,450.729 2514.36,452.909 2515.99,468.172 2517.62,463.741 2519.24,449.176 2520.87,450.417 2522.5,449.596 2524.13,453.984 2525.76,453.551 2527.39,448.28 2529.02,456.067 2530.64,453.673 2532.27,455.973 2533.9,451.86 2535.53,444.742 2537.16,461.725 2538.79,448.767 2540.42,458.62 2542.05,468.841 2543.67,464.831 2545.3,437.582 2546.93,462.555 2548.56,469.805 2550.19,450.294 2551.82,446.145 2553.45,455.942 2555.07,454.816 2556.7,458.933 2558.33,458.183 2559.96,451.751 2561.59,465.498 2563.22,459.225 2564.85,443.464 2566.48,445.886 2568.1,453.959 2569.73,470.479 2571.36,447.619 2572.99,443.727 2574.62,459.799 2576.25,455.069 2577.88,450.348 2579.5,449.028 2581.13,456.457 2582.76,451.502 2584.39,462.286 2586.02,470.124 2587.65,442.464 2589.28,444.198 2590.91,447.689 2592.53,459.642 2594.16,458.399 2595.79,442.442 2597.42,461.313 2599.05,456.268 2600.68,445.544 2602.31,450.141 2603.93,455.889 2605.56,454.202 2607.19,462.71 2608.82,452.099 2610.45,455.365 2612.08,443.79 2613.71,443.914 2615.33,454.887 2616.96,458.118 2618.59,458.096 2620.22,458.158 2621.85,451.197 2623.48,462.196 2625.11,444.533 2626.74,444.915 2628.36,460.442 2629.99,461.47 2631.62,460.549 2633.25,466.749 2634.88,446.756 2636.51,460.181 2638.14,457.834 2639.76,462.641 2641.39,455.651 2643.02,454.712 2644.65,442.774 2646.28,441.538 2647.91,442.631 2649.54,445.393 2651.17,447.664 2652.79,455.129 2654.42,455.501 2656.05,457.911 2657.68,454.008 2659.31,447.546 2660.94,462.419 2662.57,458.028 2664.19,458.828 2665.82,448.077 2667.45,463.708 2669.08,465.227 2670.71,444.411 2672.34,458.027 2673.97,457.612 2675.6,451.249 2677.22,445.282 2678.85,455.407 2680.48,461.866 2682.11,459.857 2683.74,464.375 2685.37,448.105 2687,467.722 2688.62,465.64 2690.25,455.411 2691.88,454.152 2693.51,458.387 2695.14,456.211 2696.77,448.635 2698.4,453.697 2700.02,448.055 2701.65,448.465 2703.28,448.558 2704.91,459.488 2706.54,462.398 2708.17,457.758 2709.8,462.716 2711.43,448.165 2713.05,454.47 2714.68,454.079 2716.31,446.687 2717.94,445.16 2719.57,459.937 2721.2,456.472 2722.83,453.17 2724.45,456.107 2726.08,455.869 2727.71,454.526 2729.34,445.311 2730.97,453.857 2732.6,452.886 2734.23,450.894 2735.86,453.925 2737.48,460.688 2739.11,461.97 2740.74,438.672 2742.37,437.267 2744,443.234 2745.63,450.24 2747.26,455.765 2748.88,446.282 2750.51,460.633 2752.14,450.151 2753.77,437.731 2755.4,455.052 2757.03,450.724 2758.66,464.101 2760.29,467.534 2761.91,461.794 2763.54,461.979 2765.17,444.237 2766.8,456.315 2768.43,450.329 2770.06,473.913 2771.69,456.014 2773.31,457.901 2774.94,457.96 2776.57,464.238 2778.2,454.497 2779.83,458.159 2781.46,448.746 2783.09,455.179 2784.71,457.777 2786.34,444.55 2787.97,463.864 2789.6,451.768 2791.23,445.622 2792.86,466.169 2794.49,448.745 2796.12,451.28 2797.74,458.291 2799.37,456.632 2801,450.041 2802.63,447.709 2804.26,446.37 2805.89,452.189 2807.52,450.41 2809.14,460.516 2810.77,452.29 2812.4,461.244 2814.03,471.318 2815.66,444.31 2817.29,462.251 2818.92,461.618 2820.55,452.739 2822.17,445.379 2823.8,458.305 2825.43,461.237 2827.06,459.631 2828.69,460.073 2830.32,445.519 2831.95,454.935 2833.57,456.282 2835.2,465.834 2836.83,445.771 2838.46,463.702 2840.09,456.312 2841.72,441.159 2843.35,444.566 2844.98,443.481 2846.6,465.389 2848.23,437.573 2849.86,459.479 2851.49,446.964 2853.12,465.274 2854.75,449.038 2856.38,447.644 2858,447.59 2859.63,459.792 2861.26,451.939 2862.89,446.974 2864.52,458.741 2866.15,453.28 2867.78,448.564 2869.4,459.658 2871.03,459.306 2872.66,458.881 2874.29,440.784 2875.92,469.692 2877.55,442.432 2879.18,450.026 2880.81,448.383 2882.43,454.468 2884.06,451.113 2885.69,458.728 2887.32,467.64 2888.95,466.838 2890.58,455.204 2892.21,454.979 2893.83,447.984 2895.46,446.945 2897.09,461.624 2898.72,463.337 2900.35,468.327 2901.98,454.59 2903.61,461.53 2905.24,448.473 2906.86,467.204 2908.49,455.548 2910.12,450.358 2911.75,458.041 2913.38,451.721 2915.01,442.087 2916.64,471.692 2918.26,452.606 2919.89,452.387 2921.52,447.584 2923.15,455.908 2924.78,448.732 2926.41,450.753 2928.04,458.24 2929.67,455.809 2931.29,461.894 2932.92,457.091 2934.55,464.844 2936.18,460.141 2937.81,449.471 2939.44,462.242 2941.07,459.761 2942.69,445.248 2944.32,444.196 2945.95,461.899 2947.58,463.088 2949.21,458.391 2950.84,462.306 2952.47,447.09 2954.1,449.355 2955.72,447.703 2957.35,444.098 2958.98,449.321 2960.61,457.536 2962.24,461.147 2963.87,451.295 2965.5,452.982 2967.12,461.293 2968.75,453.509 2970.38,450.706 2972.01,450.775 2973.64,450.096 2975.27,449.969 2976.9,458.273 2978.52,447.542 2980.15,449.569 2981.78,442.267 2983.41,464.29 2985.04,447.18 2986.67,452.364 2988.3,450.084 2989.93,457.219 2991.55,450.551 2993.18,466.543 2994.81,449.581 2996.44,448.484 2998.07,460.069 2999.7,449.14 3001.33,460.001 3002.95,467.198 3004.58,459.476 3006.21,461.915 3007.84,445.011 3009.47,447.17 3011.1,455.657 3012.73,448.161 3014.36,450.707 3015.98,446.464 3017.61,446.795 3019.24,452.167 3020.87,445.906 3022.5,445.208 3024.13,453.156 3025.76,458.721 3027.38,453.157 3029.01,447.093 3030.64,440.204 3032.27,454.961 3033.9,459.596 3035.53,457.607 3037.16,447.003 3038.79,446.186 3040.41,455.749 3042.04,451.303 3043.67,453.996 3045.3,466.718 3046.93,442.886 3048.56,453.584 3050.19,465.834 3051.81,441.396 3053.44,451.685 3055.07,466.294 3056.7,441.585 3058.33,461.815 3059.96,467.185 3061.59,446.869 3063.21,444.793 3064.84,453.38 3066.47,459.898 3068.1,451.056 3069.73,462.363 3071.36,440.891 3072.99,443.711 3074.62,454.687 3076.24,457.705 3077.87,438.451 3079.5,451.997 3081.13,455.811 3082.76,443.015 3084.39,444.184 3086.02,455.58 3087.64,455.729 3089.27,449.974 3090.9,464.05 3092.53,453.584 3094.16,449.194 3095.79,448.266 3097.42,448.362 3099.05,447.435 3100.67,443.523 3102.3,460.289 3103.93,450.253 3105.56,453.763 3107.19,453.765 3108.82,444.955 3110.45,456.598 3112.07,450.882 3113.7,457.013 3115.33,461.17 3116.96,457.091 3118.59,456.97 3120.22,453.512 3121.85,457.291 3123.48,451.85 3125.1,454.611 3126.73,444.167 3128.36,451.551 3129.99,453.862 3131.62,453.807 3133.25,446.612 3134.88,450.673 3136.5,448.803 3138.13,450.584 3139.76,453.56 3141.39,456.251 3143.02,449.761 3144.65,445.116 3146.28,451.624 3147.9,450.755 3149.53,454.034 3151.16,451.491 3152.79,442.786 3154.42,448.418 3156.05,463.166 3157.68,443.674 3159.31,442.34 3160.93,455.504 3162.56,445.479 3164.19,445.296 3165.82,445.897 3167.45,449.662 3169.08,452.729 3170.71,448.567 3172.33,449.303 3173.96,451.976 3175.59,453.837 3177.22,457.587 3178.85,454.896 3180.48,454.274 3182.11,450.208 3183.74,454.429 3185.36,455.226 3186.99,452.838 3188.62,445.98 3190.25,455.911 3191.88,467.261 3193.51,445.121 3195.14,453.856 3196.76,450.846 3198.39,462.911 3200.02,454.235 3201.65,450.865 3203.28,449.575 3204.91,455.091 3206.54,465.024 3208.17,458.444 3209.79,433.775 3211.42,451.193 3213.05,449.569 3214.68,446.039 3216.31,447.724 3217.94,456.772 3219.57,465.002 3221.19,450.919 3222.82,445.2 3224.45,466.953 3226.08,446.081 3227.71,448.912 3229.34,450.768 3230.97,463.023 3232.59,455.193 3234.22,442.382 3235.85,461.61 3237.48,462.003 3239.11,448.201 3240.74,445.024 3242.37,453.235 3244,449.997 3245.62,438.759 3247.25,460.104 3248.88,452.414 3250.51,451.332 3252.14,446.76 3253.77,450.061 3255.4,450.627 3257.02,452.116 3258.65,458.796 3260.28,450.48 3261.91,455.774 3263.54,461.094 3265.17,452.08 3266.8,457.945 3268.43,454.415 3270.05,443.584 3271.68,456.64 3273.31,447.242 3274.94,456.93 3276.57,456.291 3278.2,458.409 3279.83,438.262 3281.45,469.308 3283.08,435.545 3284.71,456.138 3286.34,444.242 3287.97,456.553 3289.6,459.317 3291.23,455.573 3292.86,444.126 3294.48,451.664 3296.11,445.053 3297.74,448.787 3299.37,459.848 3301,448.523 3302.63,461.97 3304.26,459.303 3305.88,449.062 3307.51,452.803 3309.14,461.618 3310.77,444.84 3312.4,451.195 3314.03,454.753 3315.66,446.16 3317.29,461.407 3318.91,454.95 3320.54,460.549 3322.17,457.802 3323.8,450.575 3325.43,457.983 3327.06,454.671 3328.69,453.318 3330.31,456.423 3331.94,452.888 3333.57,456.567 3335.2,455.748 3336.83,454.111 3338.46,450.93 3340.09,433.835 3341.71,458.314 3343.34,456.472 3344.97,449.146 3346.6,460.579 3348.23,454.975 3349.86,455.079 3351.49,455.979 3353.12,455.557 3354.74,458.646 3356.37,461.045 3358,453.227 3359.63,454.069 3361.26,447.486 3362.89,453.749 3364.52,445.457 3366.14,441.071 3367.77,459.854 3369.4,444.886 3371.03,438.407 3372.66,462.084 3374.29,453.533 3375.92,459.402 3377.55,455.418 3379.17,455.097 3380.8,452.947 3382.43,461.181 3384.06,456.655 3385.69,455.628 3387.32,453.629 3388.95,456.975 3390.57,470.196 3392.2,456.995 3393.83,474.169 3395.46,441.685 3397.09,444.622 3398.72,457.166 3400.35,451.886 3401.98,454.977 3403.6,456.21 3405.23,454.15 3406.86,450.775 3408.49,460.22 3410.12,458.766 3411.75,447.409 3413.38,447.191 3415,448.686 3416.63,462.449 3418.26,462.683 3419.89,454.404 3421.52,461.536 3423.15,460.995 3424.78,450.194 3426.4,448.487 3428.03,454.73 3429.66,443.828 3431.29,445.974 3432.92,468.759 3434.55,470.557 3436.18,443.994 3437.81,460.309 3439.43,446.477 3441.06,445.702 3442.69,466.493 3444.32,456.154 3445.95,457.013 3447.58,453.952 3449.21,467.604 3450.83,451.26 3452.46,453.458 3454.09,463.898 3455.72,444.818 "/>
<path clip-path="url(#clip150)" d="M2993.18 166.762 L3438.47 166.762 L3438.47 63.0816 L2993.18 63.0816  Z" fill="#ffffff" fill-rule="evenodd" fill-opacity="1"/>
<polyline clip-path="url(#clip150)" style="stroke:#000000; stroke-linecap:round; stroke-linejoin:round; stroke-width:4; stroke-opacity:1; fill:none" points="2993.18,166.762 3438.47,166.762 3438.47,63.0816 2993.18,63.0816 2993.18,166.762 "/>
<polyline clip-path="url(#clip150)" style="stroke:#009af9; stroke-linecap:round; stroke-linejoin:round; stroke-width:2; stroke-opacity:1; fill:none" points="3031.28,114.922 3259.85,114.922 "/>
<path clip-path="url(#clip150)" d="M3297.94 97.6416 L3302.62 97.6416 L3302.62 111.808 L3319.61 111.808 L3319.61 97.6416 L3324.29 97.6416 L3324.29 132.202 L3319.61 132.202 L3319.61 115.743 L3302.62 115.743 L3302.62 132.202 L3297.94 132.202 L3297.94 97.6416 Z" fill="#000000" fill-rule="evenodd" fill-opacity="1" /><path clip-path="url(#clip150)" d="M3333.59 97.6416 L3340.56 97.6416 L3349.38 121.16 L3358.25 97.6416 L3365.21 97.6416 L3365.21 132.202 L3360.65 132.202 L3360.65 101.854 L3351.74 125.558 L3347.04 125.558 L3338.13 101.854 L3338.13 132.202 L3333.59 132.202 L3333.59 97.6416 Z" fill="#000000" fill-rule="evenodd" fill-opacity="1" /><path clip-path="url(#clip150)" d="M3400.37 100.304 L3400.37 105.234 Q3398.01 103.035 3395.33 101.947 Q3392.67 100.859 3389.66 100.859 Q3383.73 100.859 3380.58 104.493 Q3377.43 108.104 3377.43 114.956 Q3377.43 121.785 3380.58 125.419 Q3383.73 129.03 3389.66 129.03 Q3392.67 129.03 3395.33 127.942 Q3398.01 126.854 3400.37 124.655 L3400.37 129.54 Q3397.92 131.206 3395.17 132.04 Q3392.43 132.873 3389.38 132.873 Q3381.53 132.873 3377.02 128.081 Q3372.5 123.266 3372.5 114.956 Q3372.5 106.623 3377.02 101.831 Q3381.53 97.0166 3389.38 97.0166 Q3392.48 97.0166 3395.21 97.8499 Q3397.97 98.6601 3400.37 100.304 Z" fill="#000000" fill-rule="evenodd" fill-opacity="1" /></svg>
