<?xml version="1.0" encoding="utf-8"?>
<svg xmlns="http://www.w3.org/2000/svg" xmlns:xlink="http://www.w3.org/1999/xlink" width="900" height="150" viewBox="0 0 3600 600">
<defs>
  <clipPath id="clip850">
    <rect x="0" y="0" width="3600" height="600"/>
  </clipPath>
</defs>
<path clip-path="url(#clip850)" d="M0 600 L3600 600 L3600 0 L0 0  Z" fill="#ffffff" fill-rule="evenodd" fill-opacity="1"/>
<defs>
  <clipPath id="clip851">
    <rect x="720" y="0" width="2521" height="600"/>
  </clipPath>
</defs>
<path clip-path="url(#clip850)" d="M124.177 522.368 L3552.76 522.368 L3552.76 47.2441 L124.177 47.2441  Z" fill="#ffffff" fill-rule="evenodd" fill-opacity="1"/>
<defs>
  <clipPath id="clip852">
    <rect x="124" y="47" width="3430" height="476"/>
  </clipPath>
</defs>
<polyline clip-path="url(#clip852)" style="stroke:#000000; stroke-linecap:round; stroke-linejoin:round; stroke-width:2; stroke-opacity:0.1; fill:none" points="219.508,522.368 219.508,47.2441 "/>
<polyline clip-path="url(#clip852)" style="stroke:#000000; stroke-linecap:round; stroke-linejoin:round; stroke-width:2; stroke-opacity:0.1; fill:none" points="1071.59,522.368 1071.59,47.2441 "/>
<polyline clip-path="url(#clip852)" style="stroke:#000000; stroke-linecap:round; stroke-linejoin:round; stroke-width:2; stroke-opacity:0.1; fill:none" points="1923.67,522.368 1923.67,47.2441 "/>
<polyline clip-path="url(#clip852)" style="stroke:#000000; stroke-linecap:round; stroke-linejoin:round; stroke-width:2; stroke-opacity:0.1; fill:none" points="2775.76,522.368 2775.76,47.2441 "/>
<polyline clip-path="url(#clip850)" style="stroke:#000000; stroke-linecap:round; stroke-linejoin:round; stroke-width:4; stroke-opacity:1; fill:none" points="124.177,522.368 3552.76,522.368 "/>
<polyline clip-path="url(#clip850)" style="stroke:#000000; stroke-linecap:round; stroke-linejoin:round; stroke-width:4; stroke-opacity:1; fill:none" points="219.508,522.368 219.508,503.47 "/>
<polyline clip-path="url(#clip850)" style="stroke:#000000; stroke-linecap:round; stroke-linejoin:round; stroke-width:4; stroke-opacity:1; fill:none" points="1071.59,522.368 1071.59,503.47 "/>
<polyline clip-path="url(#clip850)" style="stroke:#000000; stroke-linecap:round; stroke-linejoin:round; stroke-width:4; stroke-opacity:1; fill:none" points="1923.67,522.368 1923.67,503.47 "/>
<polyline clip-path="url(#clip850)" style="stroke:#000000; stroke-linecap:round; stroke-linejoin:round; stroke-width:4; stroke-opacity:1; fill:none" points="2775.76,522.368 2775.76,503.47 "/>
<path clip-path="url(#clip850)" d="M219.508 562.887 Q215.897 562.887 214.068 566.451 Q212.263 569.993 212.263 577.123 Q212.263 584.229 214.068 587.794 Q215.897 591.335 219.508 591.335 Q223.142 591.335 224.948 587.794 Q226.777 584.229 226.777 577.123 Q226.777 569.993 224.948 566.451 Q223.142 562.887 219.508 562.887 M219.508 559.183 Q225.318 559.183 228.374 563.789 Q231.453 568.373 231.453 577.123 Q231.453 585.849 228.374 590.456 Q225.318 595.039 219.508 595.039 Q213.698 595.039 210.619 590.456 Q207.564 585.849 207.564 577.123 Q207.564 568.373 210.619 563.789 Q213.698 559.183 219.508 559.183 Z" fill="#000000" fill-rule="evenodd" fill-opacity="1" /><path clip-path="url(#clip850)" d="M1031.21 559.808 L1049.57 559.808 L1049.57 563.743 L1035.49 563.743 L1035.49 572.215 Q1036.51 571.868 1037.53 571.706 Q1038.55 571.521 1039.57 571.521 Q1045.35 571.521 1048.73 574.692 Q1052.11 577.863 1052.11 583.28 Q1052.11 588.859 1048.64 591.96 Q1045.17 595.039 1038.85 595.039 Q1036.67 595.039 1034.4 594.669 Q1032.16 594.298 1029.75 593.558 L1029.75 588.859 Q1031.83 589.993 1034.06 590.548 Q1036.28 591.104 1038.76 591.104 Q1042.76 591.104 1045.1 588.998 Q1047.44 586.891 1047.44 583.28 Q1047.44 579.669 1045.1 577.562 Q1042.76 575.456 1038.76 575.456 Q1036.88 575.456 1035.01 575.873 Q1033.15 576.289 1031.21 577.169 L1031.21 559.808 Z" fill="#000000" fill-rule="evenodd" fill-opacity="1" /><path clip-path="url(#clip850)" d="M1071.33 562.887 Q1067.71 562.887 1065.89 566.451 Q1064.08 569.993 1064.08 577.123 Q1064.08 584.229 1065.89 587.794 Q1067.71 591.335 1071.33 591.335 Q1074.96 591.335 1076.77 587.794 Q1078.59 584.229 1078.59 577.123 Q1078.59 569.993 1076.77 566.451 Q1074.96 562.887 1071.33 562.887 M1071.33 559.183 Q1077.14 559.183 1080.19 563.789 Q1083.27 568.373 1083.27 577.123 Q1083.27 585.849 1080.19 590.456 Q1077.14 595.039 1071.33 595.039 Q1065.52 595.039 1062.44 590.456 Q1059.38 585.849 1059.38 577.123 Q1059.38 568.373 1062.44 563.789 Q1065.52 559.183 1071.33 559.183 Z" fill="#000000" fill-rule="evenodd" fill-opacity="1" /><path clip-path="url(#clip850)" d="M1101.49 562.887 Q1097.88 562.887 1096.05 566.451 Q1094.24 569.993 1094.24 577.123 Q1094.24 584.229 1096.05 587.794 Q1097.88 591.335 1101.49 591.335 Q1105.12 591.335 1106.93 587.794 Q1108.76 584.229 1108.76 577.123 Q1108.76 569.993 1106.93 566.451 Q1105.12 562.887 1101.49 562.887 M1101.49 559.183 Q1107.3 559.183 1110.35 563.789 Q1113.43 568.373 1113.43 577.123 Q1113.43 585.849 1110.35 590.456 Q1107.3 595.039 1101.49 595.039 Q1095.68 595.039 1092.6 590.456 Q1089.54 585.849 1089.54 577.123 Q1089.54 568.373 1092.6 563.789 Q1095.68 559.183 1101.49 559.183 Z" fill="#000000" fill-rule="evenodd" fill-opacity="1" /><path clip-path="url(#clip850)" d="M1868.2 590.433 L1875.84 590.433 L1875.84 564.067 L1867.53 565.734 L1867.53 561.475 L1875.79 559.808 L1880.47 559.808 L1880.47 590.433 L1888.11 590.433 L1888.11 594.368 L1868.2 594.368 L1868.2 590.433 Z" fill="#000000" fill-rule="evenodd" fill-opacity="1" /><path clip-path="url(#clip850)" d="M1907.55 562.887 Q1903.94 562.887 1902.11 566.451 Q1900.31 569.993 1900.31 577.123 Q1900.31 584.229 1902.11 587.794 Q1903.94 591.335 1907.55 591.335 Q1911.19 591.335 1912.99 587.794 Q1914.82 584.229 1914.82 577.123 Q1914.82 569.993 1912.99 566.451 Q1911.19 562.887 1907.55 562.887 M1907.55 559.183 Q1913.36 559.183 1916.42 563.789 Q1919.5 568.373 1919.5 577.123 Q1919.5 585.849 1916.42 590.456 Q1913.36 595.039 1907.55 595.039 Q1901.74 595.039 1898.66 590.456 Q1895.61 585.849 1895.61 577.123 Q1895.61 568.373 1898.66 563.789 Q1901.74 559.183 1907.55 559.183 Z" fill="#000000" fill-rule="evenodd" fill-opacity="1" /><path clip-path="url(#clip850)" d="M1937.71 562.887 Q1934.1 562.887 1932.27 566.451 Q1930.47 569.993 1930.47 577.123 Q1930.47 584.229 1932.27 587.794 Q1934.1 591.335 1937.71 591.335 Q1941.35 591.335 1943.15 587.794 Q1944.98 584.229 1944.98 577.123 Q1944.98 569.993 1943.15 566.451 Q1941.35 562.887 1937.71 562.887 M1937.71 559.183 Q1943.52 559.183 1946.58 563.789 Q1949.66 568.373 1949.66 577.123 Q1949.66 585.849 1946.58 590.456 Q1943.52 595.039 1937.71 595.039 Q1931.9 595.039 1928.83 590.456 Q1925.77 585.849 1925.77 577.123 Q1925.77 568.373 1928.83 563.789 Q1931.9 559.183 1937.71 559.183 Z" fill="#000000" fill-rule="evenodd" fill-opacity="1" /><path clip-path="url(#clip850)" d="M1967.88 562.887 Q1964.26 562.887 1962.44 566.451 Q1960.63 569.993 1960.63 577.123 Q1960.63 584.229 1962.44 587.794 Q1964.26 591.335 1967.88 591.335 Q1971.51 591.335 1973.32 587.794 Q1975.14 584.229 1975.14 577.123 Q1975.14 569.993 1973.32 566.451 Q1971.51 562.887 1967.88 562.887 M1967.88 559.183 Q1973.69 559.183 1976.74 563.789 Q1979.82 568.373 1979.82 577.123 Q1979.82 585.849 1976.74 590.456 Q1973.69 595.039 1967.88 595.039 Q1962.07 595.039 1958.99 590.456 Q1955.93 585.849 1955.93 577.123 Q1955.93 568.373 1958.99 563.789 Q1962.07 559.183 1967.88 559.183 Z" fill="#000000" fill-rule="evenodd" fill-opacity="1" /><path clip-path="url(#clip850)" d="M2720.28 590.433 L2727.92 590.433 L2727.92 564.067 L2719.61 565.734 L2719.61 561.475 L2727.88 559.808 L2732.55 559.808 L2732.55 590.433 L2740.19 590.433 L2740.19 594.368 L2720.28 594.368 L2720.28 590.433 Z" fill="#000000" fill-rule="evenodd" fill-opacity="1" /><path clip-path="url(#clip850)" d="M2749.68 559.808 L2768.04 559.808 L2768.04 563.743 L2753.96 563.743 L2753.96 572.215 Q2754.98 571.868 2756 571.706 Q2757.02 571.521 2758.04 571.521 Q2763.83 571.521 2767.2 574.692 Q2770.58 577.863 2770.58 583.28 Q2770.58 588.859 2767.11 591.96 Q2763.64 595.039 2757.32 595.039 Q2755.14 595.039 2752.88 594.669 Q2750.63 594.298 2748.22 593.558 L2748.22 588.859 Q2750.31 589.993 2752.53 590.548 Q2754.75 591.104 2757.23 591.104 Q2761.23 591.104 2763.57 588.998 Q2765.91 586.891 2765.91 583.28 Q2765.91 579.669 2763.57 577.562 Q2761.23 575.456 2757.23 575.456 Q2755.35 575.456 2753.48 575.873 Q2751.63 576.289 2749.68 577.169 L2749.68 559.808 Z" fill="#000000" fill-rule="evenodd" fill-opacity="1" /><path clip-path="url(#clip850)" d="M2789.8 562.887 Q2786.19 562.887 2784.36 566.451 Q2782.55 569.993 2782.55 577.123 Q2782.55 584.229 2784.36 587.794 Q2786.19 591.335 2789.8 591.335 Q2793.43 591.335 2795.24 587.794 Q2797.07 584.229 2797.07 577.123 Q2797.07 569.993 2795.24 566.451 Q2793.43 562.887 2789.8 562.887 M2789.8 559.183 Q2795.61 559.183 2798.66 563.789 Q2801.74 568.373 2801.74 577.123 Q2801.74 585.849 2798.66 590.456 Q2795.61 595.039 2789.8 595.039 Q2783.99 595.039 2780.91 590.456 Q2777.85 585.849 2777.85 577.123 Q2777.85 568.373 2780.91 563.789 Q2783.99 559.183 2789.8 559.183 Z" fill="#000000" fill-rule="evenodd" fill-opacity="1" /><path clip-path="url(#clip850)" d="M2819.96 562.887 Q2816.35 562.887 2814.52 566.451 Q2812.71 569.993 2812.71 577.123 Q2812.71 584.229 2814.52 587.794 Q2816.35 591.335 2819.96 591.335 Q2823.59 591.335 2825.4 587.794 Q2827.23 584.229 2827.23 577.123 Q2827.23 569.993 2825.4 566.451 Q2823.59 562.887 2819.96 562.887 M2819.96 559.183 Q2825.77 559.183 2828.83 563.789 Q2831.9 568.373 2831.9 577.123 Q2831.9 585.849 2828.83 590.456 Q2825.77 595.039 2819.96 595.039 Q2814.15 595.039 2811.07 590.456 Q2808.01 585.849 2808.01 577.123 Q2808.01 568.373 2811.07 563.789 Q2814.15 559.183 2819.96 559.183 Z" fill="#000000" fill-rule="evenodd" fill-opacity="1" /><polyline clip-path="url(#clip852)" style="stroke:#000000; stroke-linecap:round; stroke-linejoin:round; stroke-width:2; stroke-opacity:0.1; fill:none" points="124.177,522.368 3552.76,522.368 "/>
<polyline clip-path="url(#clip852)" style="stroke:#000000; stroke-linecap:round; stroke-linejoin:round; stroke-width:2; stroke-opacity:0.1; fill:none" points="124.177,454.493 3552.76,454.493 "/>
<polyline clip-path="url(#clip852)" style="stroke:#000000; stroke-linecap:round; stroke-linejoin:round; stroke-width:2; stroke-opacity:0.1; fill:none" points="124.177,386.618 3552.76,386.618 "/>
<polyline clip-path="url(#clip852)" style="stroke:#000000; stroke-linecap:round; stroke-linejoin:round; stroke-width:2; stroke-opacity:0.1; fill:none" points="124.177,318.743 3552.76,318.743 "/>
<polyline clip-path="url(#clip852)" style="stroke:#000000; stroke-linecap:round; stroke-linejoin:round; stroke-width:2; stroke-opacity:0.1; fill:none" points="124.177,250.869 3552.76,250.869 "/>
<polyline clip-path="url(#clip852)" style="stroke:#000000; stroke-linecap:round; stroke-linejoin:round; stroke-width:2; stroke-opacity:0.1; fill:none" points="124.177,182.994 3552.76,182.994 "/>
<polyline clip-path="url(#clip852)" style="stroke:#000000; stroke-linecap:round; stroke-linejoin:round; stroke-width:2; stroke-opacity:0.1; fill:none" points="124.177,115.119 3552.76,115.119 "/>
<polyline clip-path="url(#clip852)" style="stroke:#000000; stroke-linecap:round; stroke-linejoin:round; stroke-width:2; stroke-opacity:0.1; fill:none" points="124.177,47.2441 3552.76,47.2441 "/>
<polyline clip-path="url(#clip850)" style="stroke:#000000; stroke-linecap:round; stroke-linejoin:round; stroke-width:4; stroke-opacity:1; fill:none" points="124.177,522.368 124.177,47.2441 "/>
<polyline clip-path="url(#clip850)" style="stroke:#000000; stroke-linecap:round; stroke-linejoin:round; stroke-width:4; stroke-opacity:1; fill:none" points="124.177,522.368 143.075,522.368 "/>
<polyline clip-path="url(#clip850)" style="stroke:#000000; stroke-linecap:round; stroke-linejoin:round; stroke-width:4; stroke-opacity:1; fill:none" points="124.177,454.493 143.075,454.493 "/>
<polyline clip-path="url(#clip850)" style="stroke:#000000; stroke-linecap:round; stroke-linejoin:round; stroke-width:4; stroke-opacity:1; fill:none" points="124.177,386.618 143.075,386.618 "/>
<polyline clip-path="url(#clip850)" style="stroke:#000000; stroke-linecap:round; stroke-linejoin:round; stroke-width:4; stroke-opacity:1; fill:none" points="124.177,318.743 143.075,318.743 "/>
<polyline clip-path="url(#clip850)" style="stroke:#000000; stroke-linecap:round; stroke-linejoin:round; stroke-width:4; stroke-opacity:1; fill:none" points="124.177,250.869 143.075,250.869 "/>
<polyline clip-path="url(#clip850)" style="stroke:#000000; stroke-linecap:round; stroke-linejoin:round; stroke-width:4; stroke-opacity:1; fill:none" points="124.177,182.994 143.075,182.994 "/>
<polyline clip-path="url(#clip850)" style="stroke:#000000; stroke-linecap:round; stroke-linejoin:round; stroke-width:4; stroke-opacity:1; fill:none" points="124.177,115.119 143.075,115.119 "/>
<polyline clip-path="url(#clip850)" style="stroke:#000000; stroke-linecap:round; stroke-linejoin:round; stroke-width:4; stroke-opacity:1; fill:none" points="124.177,47.2441 143.075,47.2441 "/>
<path clip-path="url(#clip850)" d="M50.2699 535.713 L57.9087 535.713 L57.9087 509.347 L49.5986 511.014 L49.5986 506.755 L57.8624 505.088 L62.5383 505.088 L62.5383 535.713 L70.1772 535.713 L70.1772 539.648 L50.2699 539.648 L50.2699 535.713 Z" fill="#000000" fill-rule="evenodd" fill-opacity="1" /><path clip-path="url(#clip850)" d="M53.8578 467.838 L70.1772 467.838 L70.1772 471.773 L48.2328 471.773 L48.2328 467.838 Q50.8949 465.083 55.4782 460.454 Q60.0846 455.801 61.2652 454.458 Q63.5105 451.935 64.3902 450.199 Q65.2929 448.44 65.2929 446.75 Q65.2929 443.995 63.3485 442.259 Q61.4272 440.523 58.3254 440.523 Q56.1263 440.523 53.6726 441.287 Q51.2421 442.051 48.4643 443.602 L48.4643 438.88 Q51.2884 437.745 53.7421 437.167 Q56.1958 436.588 58.2328 436.588 Q63.6031 436.588 66.7976 439.273 Q69.992 441.958 69.992 446.449 Q69.992 448.579 69.1818 450.5 Q68.3948 452.398 66.2883 454.991 Q65.7096 455.662 62.6078 458.88 Q59.5059 462.074 53.8578 467.838 Z" fill="#000000" fill-rule="evenodd" fill-opacity="1" /><path clip-path="url(#clip850)" d="M63.0476 385.264 Q66.404 385.982 68.279 388.25 Q70.1772 390.519 70.1772 393.852 Q70.1772 398.968 66.6587 401.769 Q63.1402 404.57 56.6587 404.57 Q54.4828 404.57 52.168 404.13 Q49.8764 403.713 47.4227 402.857 L47.4227 398.343 Q49.3671 399.477 51.6819 400.056 Q53.9967 400.634 56.5198 400.634 Q60.918 400.634 63.2096 398.898 Q65.5244 397.162 65.5244 393.852 Q65.5244 390.796 63.3717 389.083 Q61.242 387.347 57.4226 387.347 L53.3949 387.347 L53.3949 383.505 L57.6078 383.505 Q61.0569 383.505 62.8855 382.139 Q64.7142 380.75 64.7142 378.158 Q64.7142 375.496 62.8161 374.084 Q60.9411 372.648 57.4226 372.648 Q55.5013 372.648 53.3023 373.065 Q51.1032 373.482 48.4643 374.361 L48.4643 370.195 Q51.1264 369.454 53.4412 369.084 Q55.7791 368.713 57.8393 368.713 Q63.1633 368.713 66.2652 371.144 Q69.367 373.551 69.367 377.672 Q69.367 380.542 67.7235 382.533 Q66.08 384.5 63.0476 385.264 Z" fill="#000000" fill-rule="evenodd" fill-opacity="1" /><path clip-path="url(#clip850)" d="M60.5939 305.537 L48.7884 323.986 L60.5939 323.986 L60.5939 305.537 M59.367 301.463 L65.2466 301.463 L65.2466 323.986 L70.1772 323.986 L70.1772 327.875 L65.2466 327.875 L65.2466 336.023 L60.5939 336.023 L60.5939 327.875 L44.9921 327.875 L44.9921 323.361 L59.367 301.463 Z" fill="#000000" fill-rule="evenodd" fill-opacity="1" /><path clip-path="url(#clip850)" d="M49.2745 233.589 L67.6309 233.589 L67.6309 237.524 L53.5569 237.524 L53.5569 245.996 Q54.5754 245.649 55.5939 245.487 Q56.6124 245.301 57.6309 245.301 Q63.418 245.301 66.7976 248.473 Q70.1772 251.644 70.1772 257.061 Q70.1772 262.639 66.705 265.741 Q63.2328 268.82 56.9134 268.82 Q54.7374 268.82 52.4689 268.449 Q50.2236 268.079 47.8162 267.338 L47.8162 262.639 Q49.8995 263.774 52.1217 264.329 Q54.3439 264.885 56.8208 264.885 Q60.8254 264.885 63.1633 262.778 Q65.5013 260.672 65.5013 257.061 Q65.5013 253.45 63.1633 251.343 Q60.8254 249.237 56.8208 249.237 Q54.9458 249.237 53.0708 249.653 Q51.2189 250.07 49.2745 250.95 L49.2745 233.589 Z" fill="#000000" fill-rule="evenodd" fill-opacity="1" /><path clip-path="url(#clip850)" d="M58.6495 181.13 Q55.5013 181.13 53.6495 183.283 Q51.8208 185.436 51.8208 189.186 Q51.8208 192.913 53.6495 195.089 Q55.5013 197.241 58.6495 197.241 Q61.7976 197.241 63.6263 195.089 Q65.4781 192.913 65.4781 189.186 Q65.4781 185.436 63.6263 183.283 Q61.7976 181.13 58.6495 181.13 M67.9318 166.478 L67.9318 170.737 Q66.1726 169.904 64.367 169.464 Q62.5846 169.024 60.8254 169.024 Q56.1958 169.024 53.7421 172.149 Q51.3115 175.274 50.9643 181.593 Q52.33 179.579 54.3902 178.515 Q56.4504 177.427 58.9272 177.427 Q64.1355 177.427 67.1448 180.598 Q70.1772 183.746 70.1772 189.186 Q70.1772 194.51 67.029 197.727 Q63.8809 200.945 58.6495 200.945 Q52.6541 200.945 49.4828 196.362 Q46.3116 191.755 46.3116 183.028 Q46.3116 174.834 50.2004 169.973 Q54.0893 165.089 60.6402 165.089 Q62.3994 165.089 64.1818 165.436 Q65.9874 165.783 67.9318 166.478 Z" fill="#000000" fill-rule="evenodd" fill-opacity="1" /><path clip-path="url(#clip850)" d="M47.9551 97.8389 L70.1772 97.8389 L70.1772 99.8297 L57.6309 132.399 L52.7467 132.399 L64.5522 101.774 L47.9551 101.774 L47.9551 97.8389 Z" fill="#000000" fill-rule="evenodd" fill-opacity="1" /><path clip-path="url(#clip850)" d="M58.3254 48.1121 Q54.9921 48.1121 53.0708 49.8945 Q51.1726 51.6769 51.1726 54.8019 Q51.1726 57.9269 53.0708 59.7093 Q54.9921 61.4917 58.3254 61.4917 Q61.6587 61.4917 63.58 59.7093 Q65.5013 57.9038 65.5013 54.8019 Q65.5013 51.6769 63.58 49.8945 Q61.6819 48.1121 58.3254 48.1121 M53.6495 46.1214 Q50.6402 45.3807 48.9504 43.3205 Q47.2838 41.2603 47.2838 38.2974 Q47.2838 34.1539 50.2236 31.7465 Q53.1865 29.3391 58.3254 29.3391 Q63.4874 29.3391 66.4272 31.7465 Q69.367 34.1539 69.367 38.2974 Q69.367 41.2603 67.6772 43.3205 Q66.0105 45.3807 63.0244 46.1214 Q66.404 46.9084 68.279 49.2001 Q70.1772 51.4918 70.1772 54.8019 Q70.1772 59.825 67.0985 62.5102 Q64.0429 65.1954 58.3254 65.1954 Q52.6078 65.1954 49.5291 62.5102 Q46.4736 59.825 46.4736 54.8019 Q46.4736 51.4918 48.3717 49.2001 Q50.2699 46.9084 53.6495 46.1214 M51.9365 38.7372 Q51.9365 41.4224 53.6032 42.927 Q55.293 44.4316 58.3254 44.4316 Q61.3346 44.4316 63.0244 42.927 Q64.7374 41.4224 64.7374 38.7372 Q64.7374 36.052 63.0244 34.5474 Q61.3346 33.0428 58.3254 33.0428 Q55.293 33.0428 53.6032 34.5474 Q51.9365 36.052 51.9365 38.7372 Z" fill="#000000" fill-rule="evenodd" fill-opacity="1" /><polyline clip-path="url(#clip852)" style="stroke:#009af9; stroke-linecap:round; stroke-linejoin:round; stroke-width:2; stroke-opacity:1; fill:none" points="221.212,168.023 222.917,172.138 224.621,172.197 226.325,200.709 228.029,169.531 229.733,147.055 231.437,181 233.142,183.739 234.846,182.299 236.55,186.963 238.254,187.866 239.958,186.314 241.662,177.271 243.367,169.529 245.071,167.83 246.775,181.923 248.479,170.387 250.183,175.298 251.887,170.824 253.592,192.167 255.296,181.044 257,144.2 258.704,157.887 260.408,150.291 262.112,167.872 263.817,183.08 265.521,176.432 267.225,180.268 268.929,179.869 270.633,188.304 272.337,110.176 274.042,215.322 275.746,195.845 277.45,193.228 279.154,172.206 280.858,129.736 282.562,153.814 284.267,153.704 285.971,149.617 287.675,181.844 289.379,182.55 291.083,190.399 292.787,198.336 294.492,194.432 296.196,185.697 297.9,190.932 299.604,153.75 301.308,209.63 303.012,156.379 304.717,189.356 306.421,172.102 308.125,177.918 309.829,180.98 311.533,178.96 313.237,202.015 314.942,196.955 316.646,146.858 318.35,189.2 320.054,185.476 321.758,208.843 323.462,173.349 325.167,182.721 326.871,164.116 328.575,166.44 330.279,165.365 331.983,208.042 333.687,154.23 335.392,170.127 337.096,171.26 338.8,173.401 340.504,200.55 342.208,165.958 343.912,203.161 345.617,177.041 347.321,199.039 349.025,144.719 350.729,166.147 352.433,168.378 354.137,179.413 355.842,198.879 357.546,204.959 359.25,166.257 360.954,171.776 362.658,205.477 364.362,176.896 366.067,156.294 367.771,156.969 369.475,195.892 371.179,169.337 372.883,176.19 374.587,174.959 376.292,177.683 377.996,158.999 379.7,206.493 381.404,167.203 383.108,201.108 384.812,162.469 386.517,159.746 388.221,207.814 389.925,160.83 391.629,199.398 393.333,178.524 395.037,193.741 396.742,201.081 398.446,195.25 400.15,192.148 401.854,162.505 403.558,204.576 405.262,171.175 406.967,194.731 408.671,178.268 410.375,175.407 412.079,172.011 413.783,168.208 415.487,201.815 417.192,181.746 418.896,201.882 420.6,192.307 422.304,176.789 424.008,155.643 425.712,191.47 427.417,199.121 429.121,183.116 430.825,171.96 432.529,182.477 434.233,175.068 435.937,164.475 437.642,208.096 439.346,182.076 441.05,197.544 442.754,176.104 444.458,182.302 446.162,193.931 447.867,178.5 449.571,192.274 451.275,191.314 452.979,205.346 454.683,144.02 456.387,200.305 458.092,181.341 459.796,186.146 461.5,190.87 463.204,172.639 464.908,210.312 466.612,207.838 468.317,211.669 470.021,201.112 471.725,192.964 473.429,180.221 475.133,165.113 476.837,213.605 478.542,163.522 480.246,186.682 481.95,189.617 483.654,172.086 485.358,206.667 487.062,178.767 488.767,192.695 490.471,177.793 492.175,197.222 493.879,174.037 495.583,168.434 497.287,179.664 498.992,196.835 500.696,206.425 502.4,205.792 504.104,204.624 505.808,205.851 507.512,219.551 509.217,195.106 510.921,192.443 512.625,153.229 514.329,176.083 516.033,173.083 517.737,179.481 519.442,178.178 521.146,197.402 522.85,211.88 524.554,162.477 526.258,171.281 527.962,162.817 529.667,183.203 531.371,190.219 533.075,172.763 534.779,154.526 536.483,191.387 538.187,180.148 539.892,175.187 541.596,191.452 543.3,183.278 545.004,189.918 546.708,146.93 548.412,189.502 550.117,225.166 551.821,195.455 553.525,206.459 555.229,197.991 556.933,130.324 558.637,173.373 560.342,188.476 562.046,207.558 563.75,221.445 565.454,215.707 567.158,207.533 568.862,184.842 570.567,191.748 572.271,174.445 573.975,166.23 575.679,172.741 577.383,182.893 579.087,177.139 580.792,205.549 582.496,184.751 584.2,183.756 585.904,205.949 587.608,180.175 589.312,182.655 591.017,188.662 592.721,189.897 594.425,196.548 596.129,182.138 597.833,489.007 599.537,202.628 601.242,186.245 602.946,179.811 604.65,182.962 606.354,174.716 608.058,182.859 609.762,185.059 611.467,188.227 613.171,206.047 614.875,190.17 616.579,173.326 618.283,194.924 619.987,195.054 621.692,167.43 623.396,195.186 625.1,171.838 626.804,171.725 628.508,169.528 630.212,211.551 631.917,170.384 633.621,191.316 635.325,170.745 637.029,172.508 638.733,160.891 640.437,175.117 642.142,179.241 643.846,165.193 645.55,162.517 647.254,208.158 648.958,210.665 650.662,184.393 652.367,187.957 654.071,200.917 655.775,195.122 657.479,176.668 659.183,164.767 660.887,218.081 662.592,194.945 664.296,182.371 666,197.771 667.704,196.424 669.408,177.934 671.112,172.106 672.817,191.155 674.521,175.902 676.225,162.526 677.929,166.213 679.633,196.005 681.337,190.883 683.042,202.239 684.746,214.106 686.45,156.55 688.154,161.552 689.858,176.581 691.562,171.8 693.267,191.945 694.971,183.198 696.675,176.202 698.379,196.789 700.083,176.342 701.787,198.393 703.492,172.568 705.196,205.414 706.9,202.427 708.604,178.455 710.308,191.415 712.012,194.622 713.717,180.617 715.421,168.411 717.125,204.329 718.829,203.204 720.533,187.528 722.237,184.216 723.942,185.718 725.646,203.062 727.35,200.651 729.054,191.723 730.758,169.896 732.462,182.401 734.167,185.635 735.871,175.051 737.575,183.86 739.279,193.244 740.983,201.691 742.687,187.904 744.392,185.187 746.096,191.745 747.8,152.57 749.504,149.618 751.208,198.646 752.912,215.343 754.617,165.799 756.321,188.581 758.025,194.706 759.729,205.839 761.433,192.871 763.137,214.087 764.842,185.234 766.546,175.1 768.25,223.05 769.954,178.852 771.658,192.864 773.362,154.413 775.067,200.13 776.771,187.339 778.475,164.986 780.179,195.897 781.883,204.402 783.587,164.498 785.292,183.546 786.996,192.311 788.7,178.252 790.404,182.573 792.108,177.721 793.812,157.209 795.517,199.588 797.221,198.837 798.925,169.517 800.629,170.384 802.333,173.219 804.037,201.227 805.742,171.106 807.446,189.047 809.15,180.357 810.854,175.472 812.558,157.483 814.262,169.241 815.967,181.631 817.671,184.227 819.375,191.721 821.079,164.065 822.783,215.414 824.487,170.594 826.192,202.579 827.896,198.079 829.6,189.898 831.304,164.484 833.008,190.806 834.712,211.6 836.417,197.855 838.121,177.691 839.825,180.777 841.529,205.68 843.233,193.42 844.937,196.78 846.642,200.168 848.346,188.922 850.05,199.894 851.754,172.754 853.458,202.092 855.162,157.234 856.867,192.216 858.571,198.621 860.275,188.582 861.979,173.003 863.683,187.668 865.387,181.78 867.092,180.482 868.796,179.695 870.5,189.229 872.204,188.487 873.908,186.224 875.612,189.075 877.317,170.742 879.021,200.31 880.725,189.557 882.429,179.23 884.133,199.521 885.837,179.442 887.542,147.192 889.246,157.564 890.95,220.971 892.654,212.927 894.358,176.099 896.062,177.855 897.767,164.54 899.471,191.604 901.175,173.199 902.879,158.75 904.583,199.296 906.287,189.965 907.992,174.415 909.696,179.46 911.4,195.948 913.104,207.375 914.808,153.236 916.512,160.821 918.217,204.874 919.921,164.604 921.625,159.252 923.329,181.086 925.033,181.151 926.737,178.874 928.442,182.42 930.146,169.763 931.85,185.958 933.554,171.626 935.258,201.938 936.962,189.146 938.667,174.717 940.371,180.301 942.075,164.958 943.779,187.155 945.483,196.269 947.187,193.028 948.892,215.174 950.596,155.741 952.3,158.323 954.004,211.917 955.708,209.046 957.412,211.366 959.117,223.124 960.821,202.517 962.525,170.798 964.229,139.519 965.933,156.635 967.637,163.623 969.342,178.425 971.046,202.447 972.75,181.238 974.454,189.715 976.158,186.402 977.862,163.678 979.567,206.851 981.271,209.392 982.975,172.532 984.679,193.085 986.383,130.862 988.087,133.145 989.792,156.521 991.496,210.244 993.2,180.278 994.904,204.943 996.608,168.768 998.312,197.451 1000.02,198.461 1001.72,184.608 1003.42,169.427 1005.13,177.145 1006.83,176.706 1008.54,183.594 1010.24,195.108 1011.95,179.262 1013.65,173.532 1015.35,193.525 1017.06,189.831 1018.76,206.359 1020.47,210.499 1022.17,177.887 1023.87,190.558 1025.58,215.278 1027.28,182.293 1028.99,170.343 1030.69,165.275 1032.4,177.24 1034.1,149.015 1035.8,175.918 1037.51,190.4 1039.21,186.341 1040.92,195.426 1042.62,197.877 1044.32,151.048 1046.03,170.751 1047.73,167.349 1049.44,218.333 1051.14,197.913 1052.85,205.94 1054.55,168.217 1056.25,195.686 1057.96,197.082 1059.66,138.284 1061.37,198.996 1063.07,166.651 1064.77,181.469 1066.48,187.765 1068.18,182.869 1069.89,173.365 1071.59,168.877 1073.3,156.905 1075,220.414 1076.7,215.868 1078.41,139.416 1080.11,179.441 1081.82,174.515 1083.52,179.256 1085.22,195.479 1086.93,159.676 1088.63,181.084 1090.34,193.28 1092.04,182.228 1093.75,175.947 1095.45,194.184 1097.15,187.054 1098.86,188.214 1100.56,171.033 1102.27,171.479 1103.97,161.043 1105.67,201.041 1107.38,186.981 1109.08,170.22 1110.79,163.897 1112.49,196.245 1114.2,178.055 1115.9,183.327 1117.6,199.297 1119.31,186.348 1121.01,165.312 1122.72,207.119 1124.42,187.797 1126.12,199.459 1127.83,157.324 1129.53,192.701 1131.24,164.005 1132.94,152.938 1134.65,167.16 1136.35,171.966 1138.05,175.072 1139.76,179.914 1141.46,181.769 1143.17,192.3 1144.87,177.369 1146.57,202.02 1148.28,182.314 1149.98,182.976 1151.69,189.404 1153.39,195.413 1155.1,171.315 1156.8,181.017 1158.5,184.422 1160.21,171.461 1161.91,178.694 1163.62,172.719 1165.32,185.243 1167.02,144.414 1168.73,173.003 1170.43,212.592 1172.14,179.567 1173.84,173.879 1175.55,182.425 1177.25,202.724 1178.95,177.518 1180.66,173.875 1182.36,185.218 1184.07,183.593 1185.77,190.846 1187.47,169.783 1189.18,163.894 1190.88,145.202 1192.59,181.201 1194.29,170.374 1196,211.4 1197.7,190.562 1199.4,192.8 1201.11,191.125 1202.81,180.063 1204.52,176.392 1206.22,192.225 1207.92,175.545 1209.63,192.293 1211.33,174.652 1213.04,168.778 1214.74,183.856 1216.45,186.903 1218.15,178.759 1219.85,208.363 1221.56,170.072 1223.26,229.617 1224.97,188.695 1226.67,175.363 1228.37,187.532 1230.08,172.359 1231.78,173.288 1233.49,180.193 1235.19,185.997 1236.9,154.558 1238.6,153.716 1240.3,194.246 1242.01,187.706 1243.71,187.366 1245.42,174.245 1247.12,209.192 1248.82,181.837 1250.53,166.714 1252.23,183.714 1253.94,175.271 1255.64,158.53 1257.35,192.123 1259.05,207.836 1260.75,197.65 1262.46,187.454 1264.16,177.295 1265.87,178.166 1267.57,186.91 1269.27,184.356 1270.98,160.982 1272.68,194.673 1274.39,186.738 1276.09,186.531 1277.8,179.809 1279.5,193.876 1281.2,189.809 1282.91,215.103 1284.61,201.584 1286.32,187.336 1288.02,181.39 1289.72,183.765 1291.43,188.165 1293.13,177.517 1294.84,202.776 1296.54,180.796 1298.25,186.745 1299.95,158.779 1301.65,194.803 1303.36,177.799 1305.06,172.425 1306.77,168.468 1308.47,148.679 1310.17,153.956 1311.88,178.215 1313.58,185.481 1315.29,197.855 1316.99,168.673 1318.7,183.857 1320.4,210.859 1322.1,172.978 1323.81,188.497 1325.51,173.072 1327.22,173.52 1328.92,209.311 1330.62,187.905 1332.33,183.766 1334.03,151.419 1335.74,163.232 1337.44,158.599 1339.15,162.645 1340.85,179.306 1342.55,205.107 1344.26,210.788 1345.96,193.369 1347.67,179.799 1349.37,182.038 1351.07,156.012 1352.78,215.03 1354.48,208.704 1356.19,202.185 1357.89,193.736 1359.6,192.873 1361.3,190.514 1363,184.609 1364.71,175.149 1366.41,209.66 1368.12,190.305 1369.82,166.591 1371.52,176.203 1373.23,190.511 1374.93,165.019 1376.64,163.014 1378.34,183.36 1380.05,189.79 1381.75,154.312 1383.45,197.234 1385.16,196.352 1386.86,193.539 1388.57,186.634 1390.27,166.939 1391.97,195.486 1393.68,194.005 1395.38,201.591 1397.09,171.165 1398.79,176.805 1400.5,193.025 1402.2,191.559 1403.9,201.816 1405.61,202.801 1407.31,189.679 1409.02,169.398 1410.72,188.069 1412.42,176.215 1414.13,179.71 1415.83,180.436 1417.54,193.649 1419.24,157.655 1420.95,171.441 1422.65,177.313 1424.35,180.016 1426.06,179.524 1427.76,120.367 1429.47,170.756 1431.17,158.699 1432.87,186.592 1434.58,185.916 1436.28,183.94 1437.99,199.683 1439.69,206.261 1441.4,187.557 1443.1,177.3 1444.8,183.296 1446.51,186.46 1448.21,204.735 1449.92,211.255 1451.62,165.974 1453.32,175.153 1455.03,184.533 1456.73,205.001 1458.44,169.782 1460.14,170.551 1461.85,207.087 1463.55,197.882 1465.25,195.935 1466.96,162.539 1468.66,168.498 1470.37,184.083 1472.07,179.088 1473.77,158.747 1475.48,203.338 1477.18,199.903 1478.89,175.071 1480.59,153.372 1482.3,179.683 1484,185.403 1485.7,181.59 1487.41,187.796 1489.11,171.405 1490.82,169.424 1492.52,193.991 1494.22,196.858 1495.93,170.135 1497.63,165.257 1499.34,171.42 1501.04,199.998 1502.75,186.329 1504.45,173.693 1506.15,197.396 1507.86,157.078 1509.56,223.85 1511.27,183.3 1512.97,191.011 1514.67,187.979 1516.38,157.855 1518.08,181.605 1519.79,188.033 1521.49,148.79 1523.2,128.907 1524.9,184.313 1526.6,167.666 1528.31,177.625 1530.01,177.542 1531.72,199.586 1533.42,171.474 1535.12,181.015 1536.83,184.426 1538.53,204.363 1540.24,182.63 1541.94,194.068 1543.65,180.923 1545.35,209.438 1547.05,167.936 1548.76,183.274 1550.46,183.472 1552.17,167.332 1553.87,195.628 1555.57,194.766 1557.28,186.245 1558.98,179.948 1560.69,204.121 1562.39,163.064 1564.1,201.613 1565.8,167.583 1567.5,185.201 1569.21,160.826 1570.91,191.292 1572.62,190.486 1574.32,170.181 1576.02,193.755 1577.73,167.112 1579.43,210.258 1581.14,185.223 1582.84,169.649 1584.55,196.25 1586.25,204.442 1587.95,199.091 1589.66,172.515 1591.36,168.613 1593.07,179.739 1594.77,177.241 1596.47,184.878 1598.18,169.096 1599.88,175.05 1601.59,165.501 1603.29,172.627 1605,203.369 1606.7,174.012 1608.4,199.966 1610.11,203.849 1611.81,182.168 1613.52,184.956 1615.22,178.093 1616.92,171.133 1618.63,200.784 1620.33,217.047 1622.04,188.668 1623.74,210.846 1625.45,210.1 1627.15,196.93 1628.85,193.894 1630.56,198.077 1632.26,193.507 1633.97,174.099 1635.67,192.751 1637.37,174.895 1639.08,205.597 1640.78,171.251 1642.49,194.131 1644.19,162.957 1645.9,169.439 1647.6,183.909 1649.3,189.577 1651.01,174.396 1652.71,161.13 1654.42,153.905 1656.12,162.53 1657.82,167.117 1659.53,203.38 1661.23,187.995 1662.94,191.774 1664.64,200.981 1666.35,177.518 1668.05,161.966 1669.75,184.479 1671.46,174.815 1673.16,170.231 1674.87,178.504 1676.57,195.581 1678.27,162.391 1679.98,195.462 1681.68,199.835 1683.39,217.092 1685.09,165.464 1686.8,177.945 1688.5,191.98 1690.2,191.287 1691.91,187.173 1693.61,198.561 1695.32,187.956 1697.02,172.81 1698.72,187.454 1700.43,187.012 1702.13,187.552 1703.84,165.406 1705.54,184.124 1707.25,198.849 1708.95,190.65 1710.65,187.672 1712.36,174.649 1714.06,187.172 1715.77,184.116 1717.47,189.06 1719.17,174.701 1720.88,169.377 1722.58,188.459 1724.29,185.434 1725.99,171.09 1727.7,176.384 1729.4,190.324 1731.1,181.671 1732.81,177.621 1734.51,200.209 1736.22,196.909 1737.92,193.856 1739.62,175.011 1741.33,186.446 1743.03,188.192 1744.74,177.685 1746.44,178.301 1748.15,188.673 1749.85,187.398 1751.55,176.173 1753.26,171.243 1754.96,182.541 1756.67,163.333 1758.37,180.109 1760.07,188.728 1761.78,193.684 1763.48,205.299 1765.19,210.22 1766.89,153.081 1768.6,172.065 1770.3,208.111 1772,151.421 1773.71,201.368 1775.41,153.986 1777.12,184.07 1778.82,193.694 1780.52,192.623 1782.23,186.002 1783.93,185.674 1785.64,173.04 1787.34,187.191 1789.05,167.142 1790.75,173.643 1792.45,151.641 1794.16,189.851 1795.86,207.249 1797.57,199.056 1799.27,194.233 1800.97,227.198 1802.68,203.422 1804.38,163.147 1806.09,207.077 1807.79,163.292 1809.5,149.261 1811.2,191.307 1812.9,158.265 1814.61,183.245 1816.31,164.484 1818.02,187.129 1819.72,175.757 1821.42,204.69 1823.13,214.243 1824.83,193.587 1826.54,201.393 1828.24,153.532 1829.95,168.728 1831.65,172.729 1833.35,159.99 1835.06,164.814 1836.76,184.802 1838.47,208.297 1840.17,181.929 1841.87,193.65 1843.58,166.42 1845.28,175.227 1846.99,182.102 1848.69,169.196 1850.4,182.403 1852.1,217.725 1853.8,209.762 1855.51,200.584 1857.21,166.489 1858.92,171.439 1860.62,184.478 1862.32,178.296 1864.03,192.585 1865.73,168.462 1867.44,182.09 1869.14,159.018 1870.85,164.419 1872.55,177.801 1874.25,179.319 1875.96,156.014 1877.66,190.643 1879.37,157.12 1881.07,173.351 1882.77,165.278 1884.48,190.757 1886.18,185.417 1887.89,192.064 1889.59,174.921 1891.3,187.423 1893,205.108 1894.7,182.483 1896.41,165.726 1898.11,196.865 1899.82,171.272 1901.52,161.664 1903.22,185.456 1904.93,195.5 1906.63,185.78 1908.34,180.222 1910.04,144.413 1911.75,163.586 1913.45,207.195 1915.15,183.644 1916.86,225.168 1918.56,193.51 1920.27,157.085 1921.97,189.392 1923.67,178.196 1925.38,194.364 1927.08,142.755 1928.79,146.518 1930.49,162.314 1932.2,214.1 1933.9,155.952 1935.6,191.468 1937.31,185.475 1939.01,158.828 1940.72,185.061 1942.42,197.416 1944.12,168.581 1945.83,197.64 1947.53,198.639 1949.24,199.616 1950.94,186.093 1952.65,181.758 1954.35,185.321 1956.05,187.31 1957.76,189.896 1959.46,187.082 1961.17,172.162 1962.87,168.637 1964.57,195.783 1966.28,222.39 1967.98,224.198 1969.69,167.129 1971.39,188.473 1973.1,162.668 1974.8,180.144 1976.5,171.038 1978.21,194.075 1979.91,211.425 1981.62,169.519 1983.32,185.556 1985.02,166.641 1986.73,179.63 1988.43,225.704 1990.14,195.238 1991.84,162.978 1993.55,199.047 1995.25,193.876 1996.95,171.733 1998.66,198.745 2000.36,209.442 2002.07,188.868 2003.77,184.634 2005.47,183.133 2007.18,179.073 2008.88,182.877 2010.59,203.675 2012.29,159.546 2014,176.147 2015.7,191.309 2017.4,188.288 2019.11,174.738 2020.81,187.991 2022.52,164.629 2024.22,188.787 2025.92,190.634 2027.63,166.636 2029.33,188.055 2031.04,210.202 2032.74,183.451 2034.45,177.054 2036.15,182.752 2037.85,154.693 2039.56,180.743 2041.26,180.037 2042.97,184.554 2044.67,166.759 2046.37,153.063 2048.08,161.164 2049.78,178.634 2051.49,197.941 2053.19,163.752 2054.9,190.225 2056.6,168.968 2058.3,198.376 2060.01,157.277 2061.71,183.367 2063.42,179.514 2065.12,193.286 2066.82,176.07 2068.53,191.776 2070.23,168.464 2071.94,187.139 2073.64,199.398 2075.35,169.014 2077.05,168.723 2078.75,179.02 2080.46,180.204 2082.16,173.562 2083.87,205.782 2085.57,169.687 2087.27,196.173 2088.98,184.303 2090.68,200.716 2092.39,167.689 2094.09,173.726 2095.8,221.964 2097.5,151.991 2099.2,211.848 2100.91,175.628 2102.61,177.476 2104.32,176.02 2106.02,202.884 2107.72,197.565 2109.43,198.315 2111.13,160.156 2112.84,156.329 2114.54,185.767 2116.25,199.664 2117.95,189.655 2119.65,190.032 2121.36,172.162 2123.06,193.836 2124.77,166.544 2126.47,186.032 2128.17,174.084 2129.88,193.933 2131.58,179.82 2133.29,170.784 2134.99,184.482 2136.7,181.809 2138.4,209.119 2140.1,153.467 2141.81,157.126 2143.51,214.76 2145.22,173.852 2146.92,167.706 2148.62,203.053 2150.33,195.032 2152.03,169.749 2153.74,192.394 2155.44,205.021 2157.15,214.946 2158.85,187.37 2160.55,165.212 2162.26,189.324 2163.96,212.501 2165.67,216.21 2167.37,169.098 2169.07,179.099 2170.78,183.084 2172.48,153.112 2174.19,194.175 2175.89,188.006 2177.6,183.918 2179.3,144.705 2181,176.613 2182.71,141.895 2184.41,149.842 2186.12,202.212 2187.82,188.436 2189.52,161.757 2191.23,186.017 2192.93,182.573 2194.64,172.093 2196.34,199.292 2198.05,198.505 2199.75,184.706 2201.45,201.558 2203.16,196.78 2204.86,168.897 2206.57,178.815 2208.27,185.767 2209.97,190.181 2211.68,181.555 2213.38,186.318 2215.09,160.145 2216.79,184.425 2218.5,160.293 2220.2,160.823 2221.9,188.648 2223.61,177.786 2225.31,191.296 2227.02,212.275 2228.72,181.466 2230.42,185.132 2232.13,156.486 2233.83,193.318 2235.54,163.685 2237.24,192.781 2238.95,158.173 2240.65,190.563 2242.35,181.328 2244.06,207.725 2245.76,187.663 2247.47,189.11 2249.17,175.529 2250.87,208.499 2252.58,211.189 2254.28,195.47 2255.99,174.18 2257.69,159.311 2259.4,188.936 2261.1,198.657 2262.8,154.824 2264.51,199.41 2266.21,194.629 2267.92,185.971 2269.62,161.16 2271.32,137.071 2273.03,144.058 2274.73,189.627 2276.44,184.287 2278.14,182.801 2279.85,173.685 2281.55,133.681 2283.25,186.631 2284.96,424.443 2286.66,176.199 2288.37,184.591 2290.07,182.06 2291.77,174.988 2293.48,190.843 2295.18,199.834 2296.89,182.331 2298.59,173.884 2300.3,162.2 2302,165.74 2303.7,195.036 2305.41,196.111 2307.11,217.054 2308.82,212.328 2310.52,199.89 2312.22,162.908 2313.93,205.984 2315.63,166.793 2317.34,187.259 2319.04,193.238 2320.75,165.241 2322.45,166.97 2324.15,189.453 2325.86,195.463 2327.56,173.78 2329.27,177.531 2330.97,200.653 2332.67,170.061 2334.38,355.606 2336.08,294.81 2337.79,294.774 2339.49,337.826 2341.2,316.148 2342.9,304.031 2344.6,340.634 2346.31,293.105 2348.01,329.598 2349.72,313.091 2351.42,337.236 2353.12,335.99 2354.83,356.041 2356.53,161.503 2358.24,189.811 2359.94,184.014 2361.65,188.838 2363.35,183.078 2365.05,208.743 2366.76,195.331 2368.46,188.801 2370.17,174.278 2371.87,158.987 2373.57,194.401 2375.28,209.746 2376.98,184.793 2378.69,190.451 2380.39,181.34 2382.1,197.896 2383.8,191.73 2385.5,172.269 2387.21,188.982 2388.91,174.712 2390.62,170.816 2392.32,189.828 2394.02,168.701 2395.73,157.679 2397.43,215.01 2399.14,203.087 2400.84,195.259 2402.55,195.709 2404.25,202.416 2405.95,193.395 2407.66,164.463 2409.36,197.836 2411.07,194.724 2412.77,196.935 2414.47,201.91 2416.18,154.136 2417.88,172.23 2419.59,174.354 2421.29,208.465 2423,198.755 2424.7,174.024 2426.4,191.111 2428.11,196.049 2429.81,169.639 2431.52,193.965 2433.22,171.966 2434.92,168.756 2436.63,167.059 2438.33,175.99 2440.04,221.755 2441.74,170.708 2443.45,161.786 2445.15,194.428 2446.85,177.636 2448.56,159.896 2450.26,187.018 2451.97,187.126 2453.67,179.118 2455.37,191.229 2457.08,196.756 2458.78,178.042 2460.49,186.939 2462.19,192.052 2463.9,207.741 2465.6,197.682 2467.3,214.272 2469.01,173.226 2470.71,197.474 2472.42,195.77 2474.12,188.817 2475.82,188.053 2477.53,162.712 2479.23,198.153 2480.94,159.625 2482.64,198.801 2484.35,182.888 2486.05,209.409 2487.75,207.68 2489.46,163.949 2491.16,136.22 2492.87,146.74 2494.57,165.417 2496.27,164.765 2497.98,182.053 2499.68,177.383 2501.39,165.532 2503.09,193.732 2504.8,155.258 2506.5,203.746 2508.2,197.039 2509.91,165.092 2511.61,167.019 2513.32,162.415 2515.02,180.073 2516.72,180.496 2518.43,167.86 2520.13,130.591 2521.84,194.862 2523.54,211.295 2525.25,170.169 2526.95,190.607 2528.65,194.207 2530.36,176.911 2532.06,202.067 2533.77,171.479 2535.47,159.356 2537.17,208.666 2538.88,188.31 2540.58,196.125 2542.29,164.856 2543.99,199.73 2545.7,177.459 2547.4,191.137 2549.1,195.785 2550.81,188.721 2552.51,171.159 2554.22,177.683 2555.92,193.977 2557.62,150.664 2559.33,141.823 2561.03,210.266 2562.74,195.879 2564.44,204.609 2566.15,195.039 2567.85,207.881 2569.55,177.924 2571.26,191.474 2572.96,196.41 2574.67,195.761 2576.37,167.712 2578.07,166.983 2579.78,197.659 2581.48,170.575 2583.19,170.627 2584.89,163.39 2586.6,196.727 2588.3,174.187 2590,180.781 2591.71,183.533 2593.41,182.783 2595.12,191.554 2596.82,183.219 2598.52,184.29 2600.23,184.549 2601.93,169.889 2603.64,202.321 2605.34,193.055 2607.05,193.583 2608.75,187.89 2610.45,186.078 2612.16,182.937 2613.86,177.553 2615.57,197.794 2617.27,171.896 2618.97,196.964 2620.68,181.092 2622.38,200.591 2624.09,172.198 2625.79,160.894 2627.5,164.058 2629.2,158.404 2630.9,213.123 2632.61,200.424 2634.31,163.703 2636.02,213.875 2637.72,184.739 2639.42,184.638 2641.13,185.858 2642.83,156.96 2644.54,172.393 2646.24,210.874 2647.95,142.192 2649.65,149.492 2651.35,145.262 2653.06,191.714 2654.76,198.771 2656.47,200.009 2658.17,211.4 2659.87,207.772 2661.58,177.388 2663.28,195.39 2664.99,193.482 2666.69,160.529 2668.4,161.491 2670.1,172.242 2671.8,186.815 2673.51,180.208 2675.21,198.684 2676.92,166.695 2678.62,195.59 2680.32,202.376 2682.03,154.48 2683.73,194.627 2685.44,198.453 2687.14,204.012 2688.85,160.31 2690.55,176.409 2692.25,188.429 2693.96,192.412 2695.66,158.634 2697.37,151.353 2699.07,171.237 2700.77,163.236 2702.48,164.472 2704.18,193.333 2705.89,152.012 2707.59,175.169 2709.3,185.346 2711,205.106 2712.7,176.926 2714.41,193.38 2716.11,176.989 2717.82,153.9 2719.52,169.769 2721.22,205.011 2722.93,214.343 2724.63,157.98 2726.34,208.877 2728.04,201.987 2729.75,166.23 2731.45,163.648 2733.15,171.339 2734.86,187.559 2736.56,159.704 2738.27,180.422 2739.97,188.03 2741.67,201.862 2743.38,178.375 2745.08,182.246 2746.79,178.731 2748.49,188.792 2750.2,193.158 2751.9,171.792 2753.6,185.963 2755.31,174.887 2757.01,216.571 2758.72,171.106 2760.42,190.729 2762.12,182.137 2763.83,175.946 2765.53,200.501 2767.24,184.63 2768.94,179.985 2770.65,174.26 2772.35,170.201 2774.05,160.203 2775.76,215.525 2777.46,213.237 2779.17,187.96 2780.87,153.236 2782.57,170.219 2784.28,169.394 2785.98,180.141 2787.69,193.875 2789.39,163.475 2791.1,188.177 2792.8,194.146 2794.5,181.139 2796.21,189.56 2797.91,189.804 2799.62,163.564 2801.32,178.726 2803.02,194.274 2804.73,195.938 2806.43,185.426 2808.14,143.109 2809.84,154.41 2811.55,223.639 2813.25,150.986 2814.95,189.883 2816.66,166.226 2818.36,199.429 2820.07,154.055 2821.77,199.322 2823.47,195.234 2825.18,197.463 2826.88,191.072 2828.59,185.686 2830.29,188.28 2832,148.706 2833.7,213.632 2835.4,179.497 2837.11,162.168 2838.81,183.919 2840.52,160.528 2842.22,155.48 2843.92,176.573 2845.63,145.129 2847.33,144.349 2849.04,217.611 2850.74,199.322 2852.45,178.869 2854.15,185.785 2855.85,166.147 2857.56,191.913 2859.26,163.636 2860.97,170.633 2862.67,198.256 2864.37,196.72 2866.08,163.939 2867.78,156.37 2869.49,208.296 2871.19,214.306 2872.9,184.838 2874.6,177.623 2876.3,175.123 2878.01,192.577 2879.71,176.501 2881.42,193.439 2883.12,162.846 2884.82,167.627 2886.53,173.892 2888.23,191.485 2889.94,163.011 2891.64,167.279 2893.35,204.364 2895.05,173.24 2896.75,202.192 2898.46,198.225 2900.16,208.551 2901.87,177.749 2903.57,177.408 2905.27,173.788 2906.98,187.413 2908.68,212.799 2910.39,192.348 2912.09,148.37 2913.8,183.109 2915.5,184.569 2917.2,167.714 2918.91,180.064 2920.61,200.463 2922.32,173.193 2924.02,189.261 2925.72,193.825 2927.43,189.353 2929.13,194.984 2930.84,180.452 2932.54,183.953 2934.25,177.802 2935.95,171.229 2937.65,181.687 2939.36,195.782 2941.06,194.12 2942.77,201.011 2944.47,182.578 2946.17,222.434 2947.88,198.418 2949.58,180.144 2951.29,167.696 2952.99,160.888 2954.7,168.846 2956.4,191.743 2958.1,157.724 2959.81,185.172 2961.51,187.767 2963.22,186.71 2964.92,191.969 2966.62,202.733 2968.33,186.185 2970.03,174.578 2971.74,176.98 2973.44,189.474 2975.15,192.027 2976.85,185.788 2978.55,158.571 2980.26,194.622 2981.96,166.765 2983.67,201.663 2985.37,200.924 2987.07,168.715 2988.78,184.475 2990.48,159.92 2992.19,215.254 2993.89,203.197 2995.6,211.76 2997.3,183.025 2999,196.97 3000.71,140.387 3002.41,199.097 3004.12,174.478 3005.82,183.905 3007.52,226.283 3009.23,190.453 3010.93,174.565 3012.64,173.58 3014.34,198.416 3016.05,203.565 3017.75,162.318 3019.45,190.407 3021.16,161.231 3022.86,187.038 3024.57,167.499 3026.27,196.719 3027.97,201.053 3029.68,192.157 3031.38,181.711 3033.09,203.827 3034.79,170.179 3036.5,219.29 3038.2,188.199 3039.9,182.876 3041.61,180.347 3043.31,179.252 3045.02,203.682 3046.72,185.787 3048.42,181.342 3050.13,203.839 3051.83,187.666 3053.54,190.415 3055.24,183.706 3056.95,193.808 3058.65,169.355 3060.35,203.379 3062.06,141.8 3063.76,200.701 3065.47,198.048 3067.17,167.796 3068.87,182.472 3070.58,181.571 3072.28,193.419 3073.99,209.301 3075.69,196 3077.4,179.55 3079.1,189.818 3080.8,179.26 3082.51,192.313 3084.21,199.585 3085.92,184.777 3087.62,144.852 3089.32,169.368 3091.03,183.578 3092.73,202.632 3094.44,162.855 3096.14,183.591 3097.85,182.935 3099.55,173.267 3101.25,213.724 3102.96,208.522 3104.66,198.962 3106.37,156.218 3108.07,185.145 3109.77,184.439 3111.48,180.056 3113.18,184.139 3114.89,201.148 3116.59,189.576 3118.3,200.03 3120,180.651 3121.7,154.562 3123.41,163.293 3125.11,202.586 3126.82,189.005 3128.52,187.759 3130.22,227.393 3131.93,203.462 3133.63,208.456 3135.34,181.319 3137.04,177.394 3138.75,169.185 3140.45,185.318 3142.15,170.933 3143.86,163.086 3145.56,193.667 3147.27,149.122 3148.97,176.007 3150.67,173.202 3152.38,172.674 3154.08,198.738 3155.79,207.351 3157.49,194.844 3159.2,194.485 3160.9,159.707 3162.6,197.493 3164.31,222.976 3166.01,181.055 3167.72,177.586 3169.42,177.143 3171.12,183.933 3172.83,192.745 3174.53,185.837 3176.24,156.57 3177.94,212.109 3179.65,160.547 3181.35,192.053 3183.05,186.347 3184.76,194.107 3186.46,177.998 3188.17,187.922 3189.87,172.282 3191.57,175.225 3193.28,156.602 3194.98,189.473 3196.69,181.237 3198.39,185.151 3200.1,200.197 3201.8,166.094 3203.5,206.331 3205.21,148.071 3206.91,175.481 3208.62,198.57 3210.32,155.535 3212.02,159.884 3213.73,175.873 3215.43,182.666 3217.14,189.185 3218.84,163.42 3220.55,195.347 3222.25,164.83 3223.95,188.522 3225.66,199.546 3227.36,206.503 3229.07,160.897 3230.77,174.499 3232.47,168.542 3234.18,145.165 3235.88,198.763 3237.59,161.9 3239.29,161.503 3241,180.364 3242.7,186.506 3244.4,146.782 3246.11,188.63 3247.81,166.106 3249.52,193.373 3251.22,179.28 3252.92,200.081 3254.63,156.011 3256.33,140.537 3258.04,125.652 3259.74,196.722 3261.45,200.623 3263.15,170.382 3264.85,196.662 3266.56,157.223 3268.26,177.843 3269.97,192.241 3271.67,197.957 3273.37,186.649 3275.08,192.429 3276.78,177.887 3278.49,159.552 3280.19,177.795 3281.9,182.002 3283.6,200.865 3285.3,163.133 3287.01,207.376 3288.71,187.861 3290.42,188.625 3292.12,166.381 3293.82,187.659 3295.53,147.043 3297.23,200.104 3298.94,179.217 3300.64,163.536 3302.35,186.906 3304.05,177.827 3305.75,187.093 3307.46,188.55 3309.16,190.163 3310.87,182.843 3312.57,142.807 3314.27,168.38 3315.98,197.034 3317.68,165.47 3319.39,188.221 3321.09,152.361 3322.8,191.623 3324.5,173.604 3326.2,179.792 3327.91,204.809 3329.61,203.884 3331.32,180.879 3333.02,171.533 3334.72,187.48 3336.43,195.443 3338.13,160.107 3339.84,169.808 3341.54,182.282 3343.25,175.21 3344.95,177.071 3346.65,181.094 3348.36,169.826 3350.06,186.637 3351.77,167.045 3353.47,166.711 3355.17,189.299 3356.88,175.206 3358.58,181.517 3360.29,178.283 3361.99,182.692 3363.7,174.223 3365.4,182.27 3367.1,177.151 3368.81,176.146 3370.51,191.549 3372.22,129.211 3373.92,212.679 3375.62,182.802 3377.33,183.185 3379.03,193.42 3380.74,151.952 3382.44,190.196 3384.15,188.235 3385.85,183.26 3387.55,164.025 3389.26,176.323 3390.96,161.665 3392.67,203.558 3394.37,201.135 3396.07,162.131 3397.78,184.849 3399.48,214.176 3401.19,174.95 3402.89,177.927 3404.6,181.653 3406.3,203.339 3408,156.885 3409.71,162.048 3411.41,177.976 3413.12,205.163 3414.82,162.241 3416.52,187.877 3418.23,187.905 3419.93,188.131 3421.64,192.025 3423.34,160.502 3425.05,187.416 3426.75,159.763 3428.45,156.206 3430.16,188.108 3431.86,191.977 3433.57,188.791 3435.27,186.194 3436.97,171.984 3438.68,198.806 3440.38,195.682 3442.09,172.515 3443.79,180.005 3445.5,176.824 3447.2,177.111 3448.9,191.966 3450.61,213.365 3452.31,201.318 3454.02,199.193 3455.72,170.623 "/>
<path clip-path="url(#clip850)" d="M2943.23 166.762 L3438.47 166.762 L3438.47 63.0816 L2943.23 63.0816  Z" fill="#ffffff" fill-rule="evenodd" fill-opacity="1"/>
<polyline clip-path="url(#clip850)" style="stroke:#000000; stroke-linecap:round; stroke-linejoin:round; stroke-width:4; stroke-opacity:1; fill:none" points="2943.23,166.762 3438.47,166.762 3438.47,63.0816 2943.23,63.0816 2943.23,166.762 "/>
<polyline clip-path="url(#clip850)" style="stroke:#009af9; stroke-linecap:round; stroke-linejoin:round; stroke-width:2; stroke-opacity:1; fill:none" points="2981.32,114.922 3209.9,114.922 "/>
<path clip-path="url(#clip850)" d="M3247.99 97.6416 L3252.71 97.6416 L3259.98 126.854 L3267.23 97.6416 L3272.48 97.6416 L3279.75 126.854 L3287 97.6416 L3291.74 97.6416 L3283.06 132.202 L3277.18 132.202 L3269.89 102.202 L3262.53 132.202 L3256.65 132.202 L3247.99 97.6416 Z" fill="#000000" fill-rule="evenodd" fill-opacity="1" /><path clip-path="url(#clip850)" d="M3297.94 97.6416 L3302.62 97.6416 L3302.62 111.808 L3319.61 111.808 L3319.61 97.6416 L3324.29 97.6416 L3324.29 132.202 L3319.61 132.202 L3319.61 115.743 L3302.62 115.743 L3302.62 132.202 L3297.94 132.202 L3297.94 97.6416 Z" fill="#000000" fill-rule="evenodd" fill-opacity="1" /><path clip-path="url(#clip850)" d="M3333.59 97.6416 L3340.56 97.6416 L3349.38 121.16 L3358.25 97.6416 L3365.21 97.6416 L3365.21 132.202 L3360.65 132.202 L3360.65 101.854 L3351.74 125.558 L3347.04 125.558 L3338.13 101.854 L3338.13 132.202 L3333.59 132.202 L3333.59 97.6416 Z" fill="#000000" fill-rule="evenodd" fill-opacity="1" /><path clip-path="url(#clip850)" d="M3400.37 100.304 L3400.37 105.234 Q3398.01 103.035 3395.33 101.947 Q3392.67 100.859 3389.66 100.859 Q3383.73 100.859 3380.58 104.493 Q3377.43 108.104 3377.43 114.956 Q3377.43 121.785 3380.58 125.419 Q3383.73 129.03 3389.66 129.03 Q3392.67 129.03 3395.33 127.942 Q3398.01 126.854 3400.37 124.655 L3400.37 129.54 Q3397.92 131.206 3395.17 132.04 Q3392.43 132.873 3389.38 132.873 Q3381.53 132.873 3377.02 128.081 Q3372.5 123.266 3372.5 114.956 Q3372.5 106.623 3377.02 101.831 Q3381.53 97.0166 3389.38 97.0166 Q3392.48 97.0166 3395.21 97.8499 Q3397.97 98.6601 3400.37 100.304 Z" fill="#000000" fill-rule="evenodd" fill-opacity="1" /></svg>
